<svg width="58.893555" height="58.894531" viewBox="0 0 58.8936 58.8945" fill="none" xmlns="http://www.w3.org/2000/svg" xmlns:xlink="http://www.w3.org/1999/xlink">
	<desc>
			Created with Pixso.
	</desc>
	<defs/>
	<mask id="mask21_317" mask-type="alpha" maskUnits="userSpaceOnUse" x="0.000000" y="0.000000" width="58.893555" height="58.894531">
		<g style="mix-blend-mode:normal">
			<rect id="Rectangle 1148" rx="12.000000" width="58.893410" height="58.894531" fill="#E50151" fill-opacity="1.000000"/>
		</g>
	</mask>
	<g mask="url(#mask21_317)">
		<g style="mix-blend-mode:normal">
			<path id="Path 134" d="M0 58.89L58.89 58.89L58.89 0L0 0L0 58.89ZM29.74 39.29C28.9 40.14 27.91 40.82 26.78 41.32C25.25 41.99 23.44 42.33 21.35 42.33C19.44 42.33 17.72 42 16.2 41.35C14.68 40.7 13.4 39.8 12.34 38.65C11.28 37.5 10.47 36.14 9.91 34.56C9.34 32.99 9.06 31.27 9.06 29.43C9.06 27.55 9.37 25.82 9.98 24.24C10.59 22.66 11.45 21.31 12.56 20.16C13.66 19.02 14.99 18.13 16.54 17.5C18.09 16.86 19.79 16.54 21.65 16.54C22.59 16.54 23.49 16.63 24.32 16.79C25.16 16.96 25.94 17.19 26.67 17.49C27.4 17.78 28.07 18.14 28.68 18.55C28.91 18.71 29.13 18.87 29.34 19.04C29.91 19.48 30.01 20.31 29.57 20.89L28.33 22.55C28.21 22.71 28.06 22.86 27.88 22.99C27.7 23.13 27.45 23.2 27.12 23.19C26.92 23.19 26.73 23.14 26.55 23.05C26.37 22.96 26.18 22.85 25.98 22.72C25.77 22.58 25.54 22.44 25.29 22.28C25.04 22.13 24.75 21.98 24.41 21.85C24.07 21.72 23.67 21.61 23.21 21.51C22.76 21.42 22.23 21.37 21.61 21.37C20.64 21.37 19.76 21.55 18.95 21.91C18.15 22.27 17.46 22.79 16.88 23.48C16.29 24.17 15.84 25.01 15.53 26.01C15.21 27.01 15.05 28.15 15.05 29.43C15.05 30.72 15.23 31.87 15.58 32.87C15.93 33.88 16.41 34.72 17.02 35.41C17.62 36.1 18.33 36.62 19.14 36.98C19.95 37.34 20.81 37.51 21.73 37.51C22.27 37.51 22.75 37.49 23.19 37.44C23.63 37.38 24.04 37.3 24.42 37.18C24.8 37.06 25.16 36.89 25.49 36.69C25.83 36.49 26.17 36.23 26.51 35.92C26.65 35.81 26.8 35.71 26.96 35.64C27.13 35.56 27.29 35.52 27.47 35.52C27.6 35.52 27.74 35.55 27.88 35.6C28.02 35.65 28.15 35.74 28.28 35.87L29.76 37.43C30.26 37.95 30.25 38.78 29.74 39.29ZM49.83 18.47C49.83 19.95 48.63 21.15 47.15 21.15L39.24 21.15L39.24 27.68L48.06 27.68L48.06 29.62C48.06 31.1 46.86 32.29 45.38 32.29L39.24 32.29L39.24 42.33L33.23 42.33L33.23 16.54L49.83 16.54L49.83 18.47Z" fill="#E50151" fill-opacity="1.000000" fill-rule="nonzero"/>
		</g>
	</g>
	<g mask="url(#mask21_317)">
		<g style="mix-blend-mode:normal">
			<path id="Path 135" d="M29.74 39.29C28.9 40.14 27.91 40.82 26.78 41.31C25.25 41.99 23.44 42.33 21.35 42.33C19.44 42.33 17.72 42 16.2 41.35C14.68 40.7 13.4 39.8 12.34 38.65C11.28 37.5 10.47 36.14 9.91 34.56C9.34 32.99 9.06 31.27 9.06 29.43C9.06 27.55 9.37 25.82 9.98 24.24C10.59 22.66 11.45 21.31 12.56 20.16C13.66 19.02 14.99 18.13 16.54 17.5C18.09 16.86 19.79 16.54 21.65 16.54C22.59 16.54 23.49 16.63 24.32 16.79C25.16 16.96 25.94 17.19 26.67 17.49C27.4 17.78 28.07 18.14 28.68 18.55C28.91 18.71 29.13 18.87 29.34 19.04C29.91 19.48 30.01 20.31 29.57 20.89L28.33 22.55C28.21 22.71 28.06 22.86 27.88 22.99C27.7 23.13 27.45 23.2 27.12 23.19C26.92 23.19 26.73 23.14 26.55 23.05C26.37 22.96 26.18 22.85 25.98 22.72C25.77 22.58 25.54 22.44 25.29 22.28C25.05 22.13 24.75 21.98 24.41 21.85C24.07 21.72 23.67 21.61 23.21 21.51C22.76 21.42 22.23 21.37 21.61 21.37C20.64 21.37 19.76 21.55 18.95 21.91C18.15 22.27 17.46 22.79 16.88 23.48C16.29 24.17 15.84 25.01 15.53 26.01C15.21 27.01 15.05 28.15 15.05 29.43C15.05 30.72 15.23 31.87 15.58 32.87C15.93 33.88 16.41 34.72 17.02 35.41C17.62 36.1 18.33 36.62 19.14 36.98C19.95 37.34 20.81 37.51 21.73 37.51C22.27 37.51 22.75 37.49 23.19 37.44C23.63 37.38 24.04 37.3 24.42 37.18C24.8 37.06 25.16 36.89 25.49 36.69C25.83 36.49 26.17 36.23 26.51 35.92C26.65 35.81 26.8 35.71 26.96 35.64C27.13 35.56 27.29 35.52 27.47 35.52C27.6 35.52 27.74 35.55 27.88 35.6C28.02 35.65 28.15 35.74 28.28 35.87L29.76 37.42C30.26 37.95 30.25 38.78 29.74 39.29Z" fill="#FFFFFF" fill-opacity="1.000000" fill-rule="nonzero"/>
		</g>
	</g>
	<g mask="url(#mask21_317)">
		<g style="mix-blend-mode:normal">
			<path id="Path 136" d="M49.83 16.54L49.83 18.47C49.83 19.95 48.63 21.15 47.15 21.15L39.24 21.15L39.24 27.68L48.06 27.68L48.06 29.62C48.06 31.1 46.86 32.29 45.38 32.29L39.24 32.29L39.24 42.33L33.23 42.33L33.23 16.54L49.83 16.54Z" fill="#FFFFFF" fill-opacity="1.000000" fill-rule="nonzero"/>
		</g>
	</g>
</svg>
