<svg width="533.344727" height="533.715088" viewBox="0 0 533.345 533.715" fill="none" xmlns="http://www.w3.org/2000/svg" xmlns:xlink="http://www.w3.org/1999/xlink">
	<desc>
			Created with Pixso.
	</desc>
	<defs/>
	<g style="mix-blend-mode:screen">
		<mask id="mask9_402" mask-type="alpha" maskUnits="userSpaceOnUse" x="0.000000" y="0.000000" width="533.344727" height="533.715088">
			<g style="mix-blend-mode:normal">
				<rect id="Rectangle 1178" width="533.344971" height="533.715027" fill="#C4C4C4" fill-opacity="1.000000"/>
			</g>
		</mask>
		<g mask="url(#mask9_402)">
			<g style="mix-blend-mode:normal">
				<path id="Path 151" d="M160.64 50.3C156.77 50.3 153.1 51.17 149.83 52.74C146.49 47.5 140.64 44.02 133.97 44.02C123.58 44.02 115.15 52.45 115.15 62.84C115.15 63.84 115.25 64.81 115.4 65.76C109.99 67.75 105.59 71.81 103.14 76.98C102.96 76.97 102.78 76.96 102.6 76.96C85.28 76.96 71.23 91 71.23 108.33C71.23 113.63 72.55 118.61 74.87 122.99C67.37 124.87 61.82 131.63 61.82 139.7C61.82 149.23 69.55 156.95 79.07 156.95C88.6 156.95 96.33 149.23 96.33 139.7C96.33 139.49 96.3 139.28 96.29 139.07C98.33 139.48 100.44 139.7 102.6 139.7C119.93 139.7 133.97 125.66 133.97 108.33C133.97 107.36 133.92 106.41 133.83 105.47C138.34 102.9 141.85 98.79 143.64 93.85C148.11 97.97 154.08 100.49 160.64 100.49C174.5 100.49 185.73 89.25 185.73 75.39C185.73 61.53 174.5 50.3 160.64 50.3Z" fill="#F9FCFD" fill-opacity="1.000000" fill-rule="evenodd"/>
			</g>
		</g>
		<g mask="url(#mask9_402)">
			<g style="mix-blend-mode:normal">
				<path id="Path 152" d="M519.63 224.42C518.72 224.01 517.8 223.7 516.87 223.44C517.28 217.7 515.4 212.01 511.7 207.65C511.78 207.49 511.86 207.33 511.94 207.17C519.08 191.38 512.07 172.8 496.29 165.66C491.46 163.48 486.38 162.62 481.43 162.93C482.81 155.33 478.94 147.48 471.58 144.16C462.9 140.23 452.68 144.08 448.75 152.77C444.83 161.45 448.68 171.67 457.36 175.59C457.56 175.68 457.76 175.75 457.95 175.83C456.73 177.51 455.67 179.34 454.78 181.31C447.64 197.1 454.64 215.68 470.43 222.82C471.31 223.22 472.2 223.57 473.1 223.88C473.58 229.04 475.87 233.93 479.63 237.6C474.04 239.97 469.29 244.37 466.59 250.35C460.87 262.98 466.48 277.85 479.11 283.56C491.74 289.27 506.61 283.66 512.32 271.03C513.91 267.51 514.62 263.81 514.55 260.18C520.69 259.29 526.27 255.4 529.02 249.32C533.31 239.85 529.1 228.7 519.63 224.42Z" fill="#F9FCFD" fill-opacity="1.000000" fill-rule="evenodd"/>
			</g>
		</g>
		<g mask="url(#mask9_402)">
			<g style="mix-blend-mode:normal">
				<path id="Path 153" d="M361.39 37.49C361.25 29.81 354.99 23.63 347.28 23.63C343.6 23.63 340.26 25.05 337.75 27.36C333.65 20.44 326.11 15.79 317.48 15.79C308.98 15.79 301.52 20.31 297.39 27.07C295.48 25.89 293.23 25.2 290.82 25.2C283.89 25.2 278.27 30.82 278.27 37.75C278.27 44.68 283.89 50.29 290.82 50.29C292.71 50.29 294.49 49.87 296.1 49.12C299.82 57.22 307.99 62.84 317.48 62.84C326.99 62.84 335.18 57.2 338.89 49.08C339.13 49.26 339.37 49.43 339.63 49.59C339.52 50.34 339.44 51.09 339.44 51.87C339.44 60.53 346.47 67.55 355.13 67.55C363.79 67.55 370.81 60.53 370.81 51.87C370.81 45.43 366.93 39.91 361.39 37.49Z" fill="#F9FCFD" fill-opacity="1.000000" fill-rule="evenodd"/>
			</g>
		</g>
		<g mask="url(#mask9_402)">
			<g style="mix-blend-mode:normal">
				<path id="Path 154" d="M88.94 368.18C88.97 367.98 89.01 367.78 89.03 367.57C89.44 364.37 89.17 361.24 88.36 358.32C90.8 355.93 92.48 352.74 92.94 349.1C94.02 340.5 87.93 332.66 79.34 331.57C77.65 331.36 76 331.43 74.41 331.74C74.42 322.39 67.48 314.27 57.96 313.07C47.65 311.77 38.23 319.08 36.93 329.39C35.86 337.88 40.63 345.76 48.11 349C45.05 352.43 42.96 356.79 42.35 361.69C40.72 374.58 49.86 386.35 62.75 387.98C62.95 388 63.16 388.02 63.36 388.04C64.42 396.36 70.96 403.24 79.66 404.34C89.97 405.63 99.39 398.33 100.69 388.01C101.78 379.31 96.74 371.27 88.94 368.18Z" fill="#F9FCFD" fill-opacity="1.000000" fill-rule="evenodd"/>
			</g>
		</g>
		<g mask="url(#mask9_402)">
			<g style="mix-blend-mode:normal">
				<path id="Path 155" d="M251.61 459.68C247.1 459.68 242.88 460.95 239.3 463.15C233.6 455.34 224.37 450.26 213.96 450.26C205.56 450.26 197.94 453.57 192.31 458.94C189.45 451.14 181.98 445.56 173.18 445.56C161.92 445.56 152.79 454.69 152.79 465.95C152.79 477.21 161.92 486.34 173.18 486.34C176.62 486.34 179.85 485.48 182.69 483.98C183.89 500.21 197.43 513 213.96 513C223.44 513 231.92 508.8 237.67 502.16C241.58 505.03 246.39 506.73 251.61 506.73C264.6 506.73 275.13 496.2 275.13 483.2C275.13 470.21 264.6 459.68 251.61 459.68Z" fill="#F9FCFD" fill-opacity="1.000000" fill-rule="evenodd"/>
			</g>
		</g>
		<g mask="url(#mask9_402)">
			<g style="mix-blend-mode:normal">
				<path id="Path 156" d="M482.18 385.95C482.18 374.69 473.05 365.56 461.79 365.56C453.86 365.56 447 370.1 443.63 376.71C433.54 377.93 425.71 386.51 425.71 396.93C425.71 398.4 425.87 399.82 426.16 401.2C419.9 396.55 412.15 393.8 403.75 393.8C382.96 393.8 366.11 410.65 366.11 431.44C366.11 434.89 366.58 438.24 367.45 441.41C366.02 441.06 364.52 440.85 362.97 440.85C352.58 440.85 344.15 449.28 344.15 459.67C344.15 470.07 352.58 478.49 362.97 478.49C372.61 478.49 380.54 471.25 381.65 461.9C387.86 466.42 395.49 469.08 403.75 469.08C420.54 469.08 434.76 458.09 439.61 442.92C441.65 443.6 443.83 443.99 446.1 443.99C457.36 443.99 466.49 434.86 466.49 423.6C466.49 418.5 464.61 413.84 461.51 410.27C462.58 409.02 463.51 407.66 464.26 406.18C474.35 404.96 482.18 396.38 482.18 385.95Z" fill="#F9FCFD" fill-opacity="1.000000" fill-rule="evenodd"/>
			</g>
		</g>
		<g mask="url(#mask9_402)">
			<g style="mix-blend-mode:normal">
				<path id="Path 157" d="M49.12 256.67C33.77 267.75 44.85 285.65 55.93 288.21C26.95 293.32 32.07 254.97 49.12 256.67Z" fill="#D7CEC1" fill-opacity="1.000000" fill-rule="evenodd"/>
			</g>
		</g>
		<g mask="url(#mask9_402)">
			<g style="mix-blend-mode:normal">
				<path id="Path 158" d="M113.9 423.74C105.38 435.68 119.87 452.72 134.36 448.46C142.88 444.2 136.91 439.94 129.24 438.23C121.57 436.53 118.16 415.22 113.9 423.74Z" fill="#D7CEC1" fill-opacity="1.000000" fill-rule="evenodd"/>
			</g>
		</g>
		<g mask="url(#mask9_402)">
			<g style="mix-blend-mode:normal">
				<path id="Path 159" d="M497.49 306.11C490.67 304.4 489.81 313.78 489.81 324.86C489.81 335.94 470.21 335.09 474.47 344.47C478.73 353.84 504.31 348.73 500.04 329.98C504.3 318.04 505.16 307.82 497.49 306.11Z" fill="#F9FCFD" fill-opacity="1.000000" fill-rule="evenodd"/>
			</g>
		</g>
		<g mask="url(#mask9_402)">
			<g style="mix-blend-mode:normal">
				<path id="Path 160" d="M390.08 67.43C414.8 62.32 419.92 85.33 411.39 82.78C402.87 80.22 380.7 72.55 390.08 67.43Z" fill="#F9FCFD" fill-opacity="1.000000" fill-rule="evenodd"/>
			</g>
		</g>
		<g mask="url(#mask9_402)">
			<g style="mix-blend-mode:normal">
				<path id="Path 161" d="M436.11 106.65C430.14 86.19 414.8 103.24 424.18 108.35C433.55 113.46 431 121.14 436.96 129.66C442.93 138.19 454.01 114.32 436.11 106.65Z" fill="#F9FCFD" fill-opacity="1.000000" fill-rule="evenodd"/>
			</g>
		</g>
		<g mask="url(#mask9_402)">
			<g style="mix-blend-mode:normal">
				<path id="Path 162" d="M62.75 168.02C50.82 164.61 39.74 179.1 49.12 189.33C38.89 189.33 35.48 212.34 44 212.34C52.53 212.34 54.23 201.26 49.12 196.15C67.87 192.74 72.13 171.43 62.75 168.02Z" fill="#F9FCFD" fill-opacity="1.000000" fill-rule="evenodd"/>
			</g>
		</g>
		<g mask="url(#mask9_402)">
			<g style="mix-blend-mode:normal">
				<path id="Path 163" d="M252.84 41.01C248.58 33.34 236.65 38.45 236.65 45.27C219.6 35.04 211.93 51.24 216.19 57.2C220.45 63.17 234.09 66.58 240.06 50.39C248.58 56.35 256.25 48.68 252.84 41.01Z" fill="#F9FCFD" fill-opacity="1.000000" fill-rule="evenodd"/>
			</g>
		</g>
		<g mask="url(#mask9_402)">
			<g style="mix-blend-mode:normal">
				<path id="Path 164" d="M301.43 29.93C308.25 12.03 330.41 17.14 334.68 30.78C329.56 24.81 310.81 19.7 301.43 29.93Z" fill="#FFFFFF" fill-opacity="1.000000" fill-rule="nonzero"/>
			</g>
		</g>
		<g mask="url(#mask9_402)">
			<g style="mix-blend-mode:normal">
				<path id="Path 165" d="M445.74 380.14C452.56 362.24 474.72 367.36 478.98 381C473.87 375.03 455.12 369.91 445.74 380.14Z" fill="#FFFFFF" fill-opacity="1.000000" fill-rule="nonzero"/>
			</g>
		</g>
		<g mask="url(#mask9_402)">
			<g style="mix-blend-mode:normal">
				<path id="Path 166" d="M146.29 53.8C131.8 39.3 114.75 53.8 120.72 65.73C122.42 54.65 139.47 47.83 146.29 53.8Z" fill="#FFFFFF" fill-opacity="1.000000" fill-rule="nonzero"/>
			</g>
		</g>
		<g mask="url(#mask9_402)">
			<g style="mix-blend-mode:normal">
				<path id="Path 167" d="M348.31 41.86C361.39 37.49 370.48 47.83 364.51 58.91C363.66 47.83 353.43 40.16 348.31 41.86Z" fill="#FFFFFF" fill-opacity="1.000000" fill-rule="nonzero"/>
			</g>
		</g>
		<g mask="url(#mask9_402)">
			<g style="mix-blend-mode:normal">
				<path id="Path 168" d="M147.14 60.62C161.63 44.42 184.65 56.35 182.09 78.51C181.24 56.35 152.26 53.8 147.14 60.62Z" fill="#FFFFFF" fill-opacity="1.000000" fill-rule="nonzero"/>
			</g>
		</g>
		<g mask="url(#mask9_402)">
			<g style="mix-blend-mode:normal">
				<path id="Path 169" d="M107.08 81.93C79.8 78.52 71.28 105.79 83.21 121.14C71.28 98.12 96.85 79.37 107.08 81.93Z" fill="#FFFFFF" fill-opacity="1.000000" fill-rule="nonzero"/>
			</g>
		</g>
		<g mask="url(#mask9_402)">
			<g style="mix-blend-mode:normal">
				<path id="Path 170" d="M86.62 128.81C102.82 145 137.77 127.1 130.95 104.94C124.98 121.14 105.38 134.78 86.62 128.81Z" fill="#B4E4F4" fill-opacity="1.000000" fill-rule="nonzero"/>
			</g>
		</g>
		<g mask="url(#mask9_402)">
			<g style="mix-blend-mode:normal">
				<path id="Path 171" d="M138.62 82.78C149.7 104.09 177.83 97.27 182.09 78.51C165.9 98.97 143.73 88.74 138.62 82.78Z" fill="#B4E4F4" fill-opacity="1.000000" fill-rule="nonzero"/>
			</g>
		</g>
		<g mask="url(#mask9_402)">
			<g style="mix-blend-mode:normal">
				<path id="Path 172" d="M297.17 41.01C299.73 72.55 342.35 60.62 337.23 41.86C328.71 57.2 301.43 52.09 297.17 41.01Z" fill="#B4E4F4" fill-opacity="1.000000" fill-rule="nonzero"/>
			</g>
		</g>
		<g mask="url(#mask9_402)">
			<g style="mix-blend-mode:normal">
				<path id="Path 173" d="M455.53 147.88C440.25 160.29 454.58 175.57 463.65 172.7C442.16 198.01 463.65 223.78 479.4 220.44C475.1 226.65 480.83 234.77 485.13 235.72C481.31 233.33 485.61 217.58 494.2 214.24C464.12 219.01 455.05 185.12 469.85 169.36C450.28 170.32 449.8 152.65 455.53 147.88Z" fill="#B4E4F4" fill-opacity="1.000000" fill-rule="nonzero"/>
			</g>
		</g>
		<g mask="url(#mask9_402)">
			<g style="mix-blend-mode:normal">
				<path id="Path 174" d="M476.54 166.5C492.77 162.68 509.96 172.71 512.34 192.28C509.48 177.48 489.43 165.54 476.54 166.5Z" fill="#FFFFFF" fill-opacity="1.000000" fill-rule="nonzero"/>
			</g>
		</g>
		<g mask="url(#mask9_402)">
			<g style="mix-blend-mode:normal">
				<path id="Path 175" d="M457.44 146.45C469.38 139.29 482.27 151.22 478.45 162.2C478.92 155.52 467.47 144.54 457.44 146.45Z" fill="#FFFFFF" fill-opacity="1.000000" fill-rule="nonzero"/>
			</g>
		</g>
		<g mask="url(#mask9_402)">
			<g style="mix-blend-mode:normal">
				<path id="Path 176" d="M471.76 248.13C465.56 272.48 501.84 282.51 509.48 260.07C508.52 299.21 449.8 282.51 471.76 248.13Z" fill="#B4E4F4" fill-opacity="1.000000" fill-rule="nonzero"/>
			</g>
		</g>
		<g mask="url(#mask9_402)">
			<g style="mix-blend-mode:normal">
				<path id="Path 177" d="M497.54 243.84C506.13 259.11 530 248.61 526.18 233.81C537.64 256.25 503.75 267.23 497.54 243.84Z" fill="#B4E4F4" fill-opacity="1.000000" fill-rule="nonzero"/>
			</g>
		</g>
		<g mask="url(#mask9_402)">
			<g style="mix-blend-mode:normal">
				<path id="Path 178" d="M523.32 229.52C515.68 220.45 502.32 225.7 499.45 233.33C504.7 228.56 515.68 226.17 523.32 229.52Z" fill="#FFFFFF" fill-opacity="1.000000" fill-rule="nonzero"/>
			</g>
		</g>
		<g mask="url(#mask9_402)">
			<g style="mix-blend-mode:normal">
				<path id="Path 179" d="M371.22 438.44C368.87 400.89 411.7 390.33 429.88 409.11C425.78 390.33 435.75 384.47 442.2 381.53C430.47 389.16 432.82 408.52 433.4 412.04C399.38 397.37 374.74 419.08 371.22 438.44Z" fill="#FFFFFF" fill-opacity="1.000000" fill-rule="evenodd"/>
			</g>
		</g>
		<g mask="url(#mask9_402)">
			<g style="mix-blend-mode:normal">
				<path id="Path 180" d="M191.12 466.59C208.14 439.61 238.64 461.31 236.88 468.94C226.91 456.03 203.44 456.03 191.12 466.59Z" fill="#FFFFFF" fill-opacity="1.000000" fill-rule="evenodd"/>
			</g>
		</g>
		<g mask="url(#mask9_402)">
			<g style="mix-blend-mode:normal">
				<path id="Path 181" d="M243.92 464.83C259.17 458.97 272.08 473.05 272.08 483.02C265.04 470.7 250.96 464.83 243.92 464.83Z" fill="#FFFFFF" fill-opacity="1.000000" fill-rule="evenodd"/>
			</g>
		</g>
		<g mask="url(#mask9_402)">
			<g style="mix-blend-mode:normal">
				<path id="Path 182" d="M347.75 460.14C351.27 471.87 374.74 469.53 377.09 454.28C382.95 482.43 345.99 481.26 347.75 460.14Z" fill="#B4E4F4" fill-opacity="1.000000" fill-rule="nonzero"/>
			</g>
		</g>
		<g mask="url(#mask9_402)">
			<g style="mix-blend-mode:normal">
				<path id="Path 183" d="M384.71 458.38C407 477.15 435.75 454.86 437.51 439.61C421.67 461.31 395.86 462.49 384.71 458.38Z" fill="#B4E4F4" fill-opacity="1.000000" fill-rule="nonzero"/>
			</g>
		</g>
		<g mask="url(#mask9_402)">
			<g style="mix-blend-mode:normal">
				<path id="Path 184" d="M433.99 436.68C449.24 448.99 473.29 429.05 459.21 412.04C460.39 428.46 446.89 437.85 433.99 436.68Z" fill="#B4E4F4" fill-opacity="1.000000" fill-rule="nonzero"/>
			</g>
		</g>
		<g mask="url(#mask9_402)">
			<g style="mix-blend-mode:normal">
				<path id="Path 185" d="M185.85 478.33C185.26 514.7 229.26 513.52 238.64 495.93C212.24 507.07 191.71 497.69 185.85 478.33Z" fill="#B4E4F4" fill-opacity="1.000000" fill-rule="nonzero"/>
			</g>
		</g>
		<g mask="url(#mask9_402)">
			<g style="mix-blend-mode:normal">
				<path id="Path 186" d="M240.99 499.45C253.31 508.24 270.32 498.86 271.49 487.13C260.93 495.93 249.79 500.03 240.99 499.45Z" fill="#B4E4F4" fill-opacity="1.000000" fill-rule="nonzero"/>
			</g>
		</g>
		<g mask="url(#mask9_402)">
			<g style="mix-blend-mode:normal">
				<path id="Path 187" d="M158.27 460.73C157.1 475.39 177.63 482.43 187.61 472.46C171.18 500.03 145.37 471.87 158.27 460.73Z" fill="#B4E4F4" fill-opacity="1.000000" fill-rule="nonzero"/>
			</g>
		</g>
		<g mask="url(#mask9_402)">
			<g style="mix-blend-mode:normal">
				<path id="Path 188" d="M69.11 377.43C67.93 392.09 88.47 399.13 98.44 389.16C82.01 416.73 56.2 388.57 69.11 377.43Z" fill="#B4E4F4" fill-opacity="1.000000" fill-rule="nonzero"/>
			</g>
		</g>
		<g mask="url(#mask9_402)">
			<g style="mix-blend-mode:normal">
				<path id="Path 189" d="M53.85 345.75C33.91 363.35 53.27 388.57 66.76 385.64L66.76 381.53C55.03 380.36 45.64 356.89 53.85 345.75Z" fill="#B4E4F4" fill-opacity="1.000000" fill-rule="nonzero"/>
			</g>
		</g>
		<g mask="url(#mask9_402)">
			<g style="mix-blend-mode:normal">
				<path id="Path 190" d="M41.53 325.22C49.75 311.14 65 326.98 62.06 338.12C65.59 334.02 70.87 333.43 70.87 333.43C73.21 315.83 49.16 308.79 41.53 325.22Z" fill="#FFFFFF" fill-opacity="1.000000" fill-rule="evenodd"/>
			</g>
		</g>
		<g mask="url(#mask9_402)">
			<g style="mix-blend-mode:normal">
				<path id="Path 191" d="M73.8 335.78C86.12 334.6 93.16 349.27 87.29 355.72C87.29 345.16 73.8 337.54 63.83 341.64C67.35 335.78 73.8 335.78 73.8 335.78Z" fill="#FFFFFF" fill-opacity="1.000000" fill-rule="evenodd"/>
			</g>
		</g>
		<g mask="url(#mask9_402)">
			<g style="mix-blend-mode:normal">
				<path id="Path 192" d="M169.17 448.96C180.71 444.48 191.47 456.69 187.57 464.49C184.71 454.33 169.65 450.65 161.17 457.31C162.96 450.71 169.17 448.96 169.17 448.96Z" fill="#FFFFFF" fill-opacity="1.000000" fill-rule="evenodd"/>
			</g>
		</g>
		<g mask="url(#mask9_402)">
			<g style="mix-blend-mode:normal">
				<path id="Path 193" d="M174.85 16.09C181.94 19.51 211.5 71.88 200.52 60.07C189.54 48.26 169.82 19.27 174.85 16.09Z" fill="#FCE400" fill-opacity="1.000000" fill-rule="nonzero"/>
			</g>
		</g>
		<g mask="url(#mask9_402)">
			<g style="mix-blend-mode:normal">
				<path id="Path 194" d="M53.16 27.78C60.15 28.59 95.55 65.52 83.65 58.53C71.75 51.55 49.1 32.15 53.16 27.78Z" fill="#EAE3D6" fill-opacity="1.000000" fill-rule="nonzero"/>
			</g>
		</g>
		<g mask="url(#mask9_402)">
			<g style="mix-blend-mode:normal">
				<path id="Path 195" d="M21.93 134.83C27.36 132.88 58.1 151.58 48.3 150.01C38.51 148.45 19.27 140.16 21.93 134.83Z" fill="#EAE3D6" fill-opacity="1.000000" fill-rule="nonzero"/>
			</g>
		</g>
		<g mask="url(#mask9_402)">
			<g style="mix-blend-mode:normal">
				<path id="Path 196" d="M0 253.85C3.26 249.68 32.66 252.65 24.91 255.63C17.15 258.61 0 259.8 0 253.85Z" fill="#FCE400" fill-opacity="1.000000" fill-rule="nonzero"/>
			</g>
		</g>
		<g mask="url(#mask9_402)">
			<g style="mix-blend-mode:normal">
				<path id="Path 197" d="M401.31 17.05C404.04 21.74 390.55 50.12 390.57 41.35C390.59 32.57 395.71 15.01 401.31 17.05Z" fill="#E20319" fill-opacity="1.000000" fill-rule="nonzero"/>
			</g>
		</g>
		<g mask="url(#mask9_402)">
			<g style="mix-blend-mode:normal">
				<path id="Path 199" d="M342.02 522C337.03 518.02 331.94 474.7 336.98 485.44C342.03 496.17 347.88 520.9 342.02 522Z" fill="#E20319" fill-opacity="1.000000" fill-rule="nonzero"/>
			</g>
		</g>
		<g mask="url(#mask9_402)">
			<g style="mix-blend-mode:normal">
				<path id="Path 200" d="M313.41 533.71C309.24 529.85 312.22 495.1 315.2 504.27C318.18 513.44 319.37 533.71 313.41 533.71Z" fill="#EAE3D6" fill-opacity="1.000000" fill-rule="nonzero"/>
			</g>
		</g>
		<g mask="url(#mask9_402)">
			<g style="mix-blend-mode:normal">
				<path id="Path 201" d="M106.39 480.57C105.33 475.45 126.29 456.03 123.59 463.63C120.89 471.23 110.87 484.49 106.39 480.57Z" fill="#EAE3D6" fill-opacity="1.000000" fill-rule="nonzero"/>
			</g>
		</g>
		<g mask="url(#mask9_402)">
			<g style="mix-blend-mode:normal">
				<path id="Path 202" d="M84.91 454.4C82.85 450.31 95.87 438.81 95.37 444.19C94.87 449.58 89.57 458.12 84.91 454.4Z" fill="#E20319" fill-opacity="1.000000" fill-rule="nonzero"/>
			</g>
		</g>
		<g mask="url(#mask9_402)">
			<g style="mix-blend-mode:normal">
				<path id="Path 203" d="M270.33 0C274.5 2.67 271.52 26.72 268.54 20.38C265.56 14.03 264.37 0 270.33 0Z" fill="#EAE3D6" fill-opacity="1.000000" fill-rule="nonzero"/>
			</g>
		</g>
		<g mask="url(#mask9_402)">
			<g style="mix-blend-mode:normal">
				<path id="Path 204" d="M488.98 120.08C488.97 124.89 468.78 132.99 472.24 127.59C475.7 122.18 486.03 114.91 488.98 120.08Z" fill="#EAE3D6" fill-opacity="1.000000" fill-rule="nonzero"/>
			</g>
		</g>
		<g mask="url(#mask9_402)">
			<g style="mix-blend-mode:normal">
				<path id="Path 205" d="M512.76 127.01C511.54 131.66 500.08 131.48 504.78 127.11C506.27 126.6 510.52 124.5 512.76 127.01Z" fill="#EAE3D6" fill-opacity="1.000000" fill-rule="nonzero"/>
			</g>
		</g>
		<g mask="url(#mask9_402)">
			<g style="mix-blend-mode:normal">
				<path id="Path 206" d="M508.73 401.03C510.71 401.36 522.71 411.72 516.4 410.49C515.12 409.59 508.03 404.32 508.73 401.03Z" fill="#EAE3D6" fill-opacity="1.000000" fill-rule="nonzero"/>
			</g>
		</g>
	</g>
</svg>
