<svg width="293.589600" height="186.569336" viewBox="0 0 293.59 186.569" fill="none" xmlns="http://www.w3.org/2000/svg" xmlns:xlink="http://www.w3.org/1999/xlink">
	<desc>
			Created with Pixso.
	</desc>
	<defs/>
	<mask id="mask1_17312" mask-type="alpha" maskUnits="userSpaceOnUse" x="0.000000" y="0.000000" width="293.589600" height="186.569336">
		<g style="mix-blend-mode:normal">
			<rect id="Rectangle 1188" rx="37.000000" width="293.589539" height="186.569443" fill="#C4C4C4" fill-opacity="1.000000"/>
		</g>
	</mask>
	<g mask="url(#mask1_17312)">
		<g style="mix-blend-mode:normal">
			<path id="Path 385" d="M279.06 182.41C276.43 182.49 274.46 184.6 274.5 187.28L284.05 187.16C284.01 184.46 281.76 182.32 279.06 182.41Z" fill="#1A1818" fill-opacity="1.000000" fill-rule="evenodd"/>
		</g>
	</g>
	<g mask="url(#mask1_17312)">
		<g style="mix-blend-mode:normal">
			<path id="Path 386" d="M259.88 182.42C257.26 182.51 255.28 184.65 255.33 187.34L264.82 186.98C264.68 184.35 262.49 182.34 259.88 182.42Z" fill="#1A1818" fill-opacity="1.000000" fill-rule="evenodd"/>
		</g>
	</g>
	<g mask="url(#mask1_17312)">
		<g style="mix-blend-mode:normal">
			<path id="Path 387" d="M279.2 172.52C281.77 172.54 283.93 170.37 283.96 167.76C283.97 165.14 281.85 162.97 279.27 162.96C276.65 162.95 274.56 165.05 274.54 167.7C274.53 170.32 276.63 172.5 279.2 172.52Z" fill="#1A1818" fill-opacity="1.000000" fill-rule="evenodd"/>
		</g>
	</g>
	<g mask="url(#mask1_17312)">
		<g style="mix-blend-mode:normal">
			<path id="Path 388" d="M240.82 182.43C238.19 182.46 236.14 184.59 236.16 187.27L245.62 187.17C245.58 184.55 243.42 182.41 240.82 182.43Z" fill="#1A1818" fill-opacity="1.000000" fill-rule="evenodd"/>
		</g>
	</g>
	<g mask="url(#mask1_17312)">
		<g style="mix-blend-mode:normal">
			<path id="Path 389" d="M288.87 172.69C286.23 172.67 284.14 174.76 284.12 177.43C284.1 180.07 286.21 182.28 288.79 182.3C291.34 182.32 293.56 180.11 293.59 177.52C293.61 174.9 291.47 172.71 288.87 172.69Z" fill="#1A1818" fill-opacity="1.000000" fill-rule="evenodd"/>
		</g>
	</g>
	<g mask="url(#mask1_17312)">
		<g style="mix-blend-mode:normal">
			<path id="Path 390" d="M269.58 172.69C266.93 172.72 264.9 174.86 264.94 177.54C264.97 180.19 267.15 182.35 269.71 182.3C272.28 182.25 274.45 179.99 274.4 177.41C274.35 174.78 272.18 172.66 269.58 172.69Z" fill="#1A1818" fill-opacity="1.000000" fill-rule="evenodd"/>
		</g>
	</g>
	<g mask="url(#mask1_17312)">
		<g style="mix-blend-mode:normal">
			<path id="Path 391" d="M250.47 172.71C247.85 172.7 245.78 174.81 245.77 177.46C245.76 180.09 247.87 182.26 250.45 182.27C253.02 182.27 255.17 180.09 255.17 177.49C255.18 174.87 253.06 172.72 250.47 172.71Z" fill="#1A1818" fill-opacity="1.000000" fill-rule="evenodd"/>
		</g>
	</g>
	<g mask="url(#mask1_17312)">
		<g style="mix-blend-mode:normal">
			<path id="Path 392" d="M231.35 172.72C228.75 172.68 226.61 174.79 226.59 177.45C226.58 180.08 228.71 182.24 231.31 182.22C233.83 182.2 235.87 180.17 235.95 177.61C236.02 174.97 233.95 172.76 231.35 172.72Z" fill="#1A1818" fill-opacity="1.000000" fill-rule="evenodd"/>
		</g>
	</g>
	<g mask="url(#mask1_17312)">
		<g style="mix-blend-mode:normal">
			<path id="Path 393" d="M269.85 162.72C272.37 162.61 274.35 160.5 274.32 157.95C274.3 155.31 272.15 153.17 269.55 153.23C266.95 153.28 264.9 155.48 264.97 158.13C265.04 160.76 267.25 162.84 269.85 162.72Z" fill="#1A1818" fill-opacity="1.000000" fill-rule="evenodd"/>
		</g>
	</g>
	<g mask="url(#mask1_17312)">
		<g style="mix-blend-mode:normal">
			<path id="Path 394" d="M288.74 162.73C291.35 162.78 293.49 160.65 293.5 158.01C293.51 155.46 291.52 153.34 289.03 153.23C286.43 153.13 284.23 155.19 284.16 157.83C284.08 160.47 286.14 162.68 288.74 162.73Z" fill="#1A1818" fill-opacity="1.000000" fill-rule="evenodd"/>
		</g>
	</g>
	<g mask="url(#mask1_17312)">
		<g style="mix-blend-mode:normal">
			<path id="Path 395" d="M260.07 172.47C262.67 172.47 264.77 170.29 264.73 167.65C264.68 165.11 262.65 163.03 260.15 162.97C257.55 162.93 255.41 165.03 255.38 167.68C255.34 170.31 257.46 172.48 260.07 172.47Z" fill="#1A1818" fill-opacity="1.000000" fill-rule="evenodd"/>
		</g>
	</g>
	<g mask="url(#mask1_17312)">
		<g style="mix-blend-mode:normal">
			<path id="Path 396" d="M241.01 172.47C243.54 172.39 245.53 170.31 245.54 167.76C245.55 165.11 243.42 162.96 240.83 162.97C238.22 163 236.14 165.17 236.19 167.82C236.24 170.46 238.42 172.55 241.01 172.47Z" fill="#1A1818" fill-opacity="1.000000" fill-rule="evenodd"/>
		</g>
	</g>
	<g mask="url(#mask1_17312)">
		<g style="mix-blend-mode:normal">
			<path id="Path 397" d="M202.58 182.47C199.97 182.42 197.84 184.53 197.82 187.18L207.16 187.37C207.25 184.73 205.18 182.51 202.58 182.47Z" fill="#1A1818" fill-opacity="1.000000" fill-rule="evenodd"/>
		</g>
	</g>
	<g mask="url(#mask1_17312)">
		<g style="mix-blend-mode:normal">
			<path id="Path 398" d="M221.74 182.47C219.12 182.44 217.01 184.57 217.01 187.21L226.34 187.34C226.41 184.69 224.33 182.5 221.74 182.47Z" fill="#1A1818" fill-opacity="1.000000" fill-rule="evenodd"/>
		</g>
	</g>
	<g mask="url(#mask1_17312)">
		<g style="mix-blend-mode:normal">
			<path id="Path 399" d="M212.08 172.75C209.48 172.75 207.37 174.95 207.43 177.6C207.49 180.25 209.69 182.29 212.33 182.17C214.87 182.04 216.78 179.94 216.72 177.34C216.64 174.77 214.59 172.73 212.08 172.75Z" fill="#1A1818" fill-opacity="1.000000" fill-rule="evenodd"/>
		</g>
	</g>
	<g mask="url(#mask1_17312)">
		<g style="mix-blend-mode:normal">
			<path id="Path 400" d="M250.42 162.69C253.07 162.7 255.14 160.58 255.09 157.89C255.04 155.32 253 153.26 250.48 153.25C247.88 153.23 245.76 155.42 245.8 158.07C245.84 160.62 247.89 162.66 250.42 162.69Z" fill="#1A1818" fill-opacity="1.000000" fill-rule="evenodd"/>
		</g>
	</g>
	<g mask="url(#mask1_17312)">
		<g style="mix-blend-mode:normal">
			<path id="Path 401" d="M221.89 172.38C224.43 172.28 226.33 170.22 226.28 167.62C226.23 165.06 224.2 163.02 221.69 163.01C219.13 163 216.99 165.21 217.03 167.82C217.09 170.45 219.25 172.5 221.89 172.38Z" fill="#1A1818" fill-opacity="1.000000" fill-rule="evenodd"/>
		</g>
	</g>
	<g mask="url(#mask1_17312)">
		<g style="mix-blend-mode:normal">
			<path id="Path 402" d="M279.01 152.89C281.67 153.02 283.78 151.03 283.83 148.35C283.88 145.77 281.96 143.65 279.47 143.52C276.91 143.39 274.66 145.51 274.6 148.11C274.53 150.65 276.48 152.77 279.01 152.89Z" fill="#1A1818" fill-opacity="1.000000" fill-rule="evenodd"/>
		</g>
	</g>
	<g mask="url(#mask1_17312)">
		<g style="mix-blend-mode:normal">
			<path id="Path 403" d="M260.14 152.87C262.79 152.83 264.75 150.69 264.61 147.96C264.48 145.39 262.33 143.41 259.84 143.55C257.36 143.67 255.35 145.88 255.43 148.38C255.51 150.93 257.57 152.91 260.14 152.87Z" fill="#1A1818" fill-opacity="1.000000" fill-rule="evenodd"/>
		</g>
	</g>
	<g mask="url(#mask1_17312)">
		<g style="mix-blend-mode:normal">
			<path id="Path 404" d="M183.26 182.52C180.79 182.55 178.7 184.68 178.69 187.19L187.87 187.35C187.93 184.66 185.86 182.49 183.26 182.52Z" fill="#1A1818" fill-opacity="1.000000" fill-rule="evenodd"/>
		</g>
	</g>
	<g mask="url(#mask1_17312)">
		<g style="mix-blend-mode:normal">
			<path id="Path 405" d="M192.85 172.79C190.37 172.83 188.27 175.01 188.3 177.52C188.32 180.07 190.39 182.1 192.94 182.08C195.54 182.06 197.46 180.05 197.44 177.42C197.41 174.83 195.35 172.76 192.85 172.79Z" fill="#1A1818" fill-opacity="1.000000" fill-rule="evenodd"/>
		</g>
	</g>
	<g mask="url(#mask1_17312)">
		<g style="mix-blend-mode:normal">
			<path id="Path 406" d="M231.29 162.62C233.96 162.61 235.94 160.5 235.83 157.77C235.73 155.2 233.62 153.2 231.12 153.28C228.65 153.38 226.61 155.57 226.65 158.06C226.69 160.61 228.75 162.62 231.29 162.62Z" fill="#1A1818" fill-opacity="1.000000" fill-rule="evenodd"/>
		</g>
	</g>
	<g mask="url(#mask1_17312)">
		<g style="mix-blend-mode:normal">
			<path id="Path 407" d="M202.47 172.31C205.05 172.33 207 170.36 207 167.74C207.01 165.17 205.01 163.07 202.51 163.07C200.08 163.06 197.93 165.22 197.91 167.7C197.89 170.23 199.93 172.3 202.47 172.31Z" fill="#1A1818" fill-opacity="1.000000" fill-rule="evenodd"/>
		</g>
	</g>
	<g mask="url(#mask1_17312)">
		<g style="mix-blend-mode:normal">
			<path id="Path 408" d="M288.98 143.08C291.54 143 293.41 140.97 293.35 138.33C293.27 135.78 291.16 133.73 288.68 133.83C286.23 133.94 284.16 136.18 284.25 138.64C284.34 141.18 286.43 143.14 288.98 143.08Z" fill="#1A1818" fill-opacity="1.000000" fill-rule="evenodd"/>
		</g>
	</g>
	<g mask="url(#mask1_17312)">
		<g style="mix-blend-mode:normal">
			<path id="Path 409" d="M240.9 152.8C243.46 152.79 245.42 150.74 245.37 148.13C245.31 145.57 243.18 143.49 240.7 143.61C238.34 143.71 236.32 145.82 236.3 148.21C236.28 150.75 238.37 152.82 240.9 152.8Z" fill="#1A1818" fill-opacity="1.000000" fill-rule="evenodd"/>
		</g>
	</g>
	<g mask="url(#mask1_17312)">
		<g style="mix-blend-mode:normal">
			<path id="Path 410" d="M269.59 143.04C272.04 143.07 274.01 141.18 274.12 138.72C274.23 136.16 272.31 134 269.82 133.89C267.39 133.79 265.18 135.89 265.1 138.38C265.03 140.88 267.09 143.02 269.59 143.04Z" fill="#1A1818" fill-opacity="1.000000" fill-rule="evenodd"/>
		</g>
	</g>
	<g mask="url(#mask1_17312)">
		<g style="mix-blend-mode:normal">
			<path id="Path 411" d="M212 162.52C214.45 162.56 216.45 160.65 216.54 158.19C216.65 155.63 214.69 153.47 212.18 153.41C209.71 153.36 207.57 155.51 207.59 158.02C207.61 160.46 209.59 162.47 212 162.52Z" fill="#1A1818" fill-opacity="1.000000" fill-rule="evenodd"/>
		</g>
	</g>
	<g mask="url(#mask1_17312)">
		<g style="mix-blend-mode:normal">
			<path id="Path 412" d="M221.62 152.74C224.05 152.78 226.07 150.78 226.11 148.31C226.14 145.82 224.2 143.8 221.75 143.76C219.28 143.72 217.3 145.68 217.26 148.17C217.23 150.66 219.18 152.69 221.62 152.74Z" fill="#1A1818" fill-opacity="1.000000" fill-rule="evenodd"/>
		</g>
	</g>
	<g mask="url(#mask1_17312)">
		<g style="mix-blend-mode:normal">
			<path id="Path 413" d="M164.04 182.73C161.58 182.77 159.66 184.81 159.71 187.31L168.55 187.14C168.5 184.66 166.48 182.69 164.04 182.73Z" fill="#1A1818" fill-opacity="1.000000" fill-rule="evenodd"/>
		</g>
	</g>
	<g mask="url(#mask1_17312)">
		<g style="mix-blend-mode:normal">
			<path id="Path 414" d="M250.52 142.99C252.94 142.96 254.92 140.91 254.89 138.44C254.86 135.97 252.86 133.98 250.41 134.01C247.95 134.03 246.02 136.05 246.05 138.55C246.08 141.04 248.07 143.02 250.52 142.99Z" fill="#1A1818" fill-opacity="1.000000" fill-rule="evenodd"/>
		</g>
	</g>
	<g mask="url(#mask1_17312)">
		<g style="mix-blend-mode:normal">
			<path id="Path 415" d="M173.82 173.04C171.33 172.99 169.39 174.87 169.34 177.38C169.3 179.86 171.21 181.9 173.62 181.95C176.02 182.01 178.06 180.01 178.12 177.58C178.18 175.11 176.26 173.09 173.82 173.04Z" fill="#1A1818" fill-opacity="1.000000" fill-rule="evenodd"/>
		</g>
	</g>
	<g mask="url(#mask1_17312)">
		<g style="mix-blend-mode:normal">
			<path id="Path 416" d="M279.36 133.21C281.66 133.14 283.59 131.17 283.63 128.82C283.67 126.36 281.7 124.35 279.25 124.34C276.75 124.34 274.88 126.26 274.91 128.81C274.93 131.29 276.95 133.28 279.36 133.21Z" fill="#1A1818" fill-opacity="1.000000" fill-rule="evenodd"/>
		</g>
	</g>
	<g mask="url(#mask1_17312)">
		<g style="mix-blend-mode:normal">
			<path id="Path 417" d="M183.3 172.18C185.7 172.19 187.72 170.12 187.7 167.69C187.68 165.23 185.66 163.27 183.21 163.33C180.72 163.38 178.9 165.35 178.98 167.9C179.05 170.28 180.97 172.18 183.3 172.18Z" fill="#1A1818" fill-opacity="1.000000" fill-rule="evenodd"/>
		</g>
	</g>
	<g mask="url(#mask1_17312)">
		<g style="mix-blend-mode:normal">
			<path id="Path 418" d="M192.85 162.41C195.21 162.44 197.29 160.32 197.26 157.93C197.21 155.48 195.18 153.55 192.72 153.64C190.34 153.72 188.59 155.61 188.62 158.05C188.66 160.43 190.53 162.37 192.85 162.41Z" fill="#1A1818" fill-opacity="1.000000" fill-rule="evenodd"/>
		</g>
	</g>
	<g mask="url(#mask1_17312)">
		<g style="mix-blend-mode:normal">
			<path id="Path 419" d="M259.95 133.17C262.3 133.23 264.41 131.14 264.4 128.74C264.4 126.3 262.38 124.34 259.93 124.41C257.55 124.46 255.77 126.32 255.78 128.76C255.78 131.15 257.63 133.1 259.95 133.17Z" fill="#1A1818" fill-opacity="1.000000" fill-rule="evenodd"/>
		</g>
	</g>
	<g mask="url(#mask1_17312)">
		<g style="mix-blend-mode:normal">
			<path id="Path 420" d="M231.27 142.92C233.54 142.92 235.55 140.95 235.63 138.62C235.7 136.19 233.72 134.16 231.28 134.15C228.88 134.15 227.04 135.95 226.99 138.38C226.94 140.86 228.87 142.92 231.27 142.92Z" fill="#1A1818" fill-opacity="1.000000" fill-rule="evenodd"/>
		</g>
	</g>
	<g mask="url(#mask1_17312)">
		<g style="mix-blend-mode:normal">
			<path id="Path 421" d="M202.44 152.61C204.72 152.65 206.76 150.62 206.8 148.3C206.84 145.94 204.91 143.96 202.56 143.93C200.16 143.9 198.29 145.75 198.25 148.18C198.22 150.58 200.11 152.57 202.44 152.61Z" fill="#1A1818" fill-opacity="1.000000" fill-rule="evenodd"/>
		</g>
	</g>
	<g mask="url(#mask1_17312)">
		<g style="mix-blend-mode:normal">
			<path id="Path 422" d="M240.88 133.08C243.17 133.07 245.14 131.05 245.14 128.73C245.12 126.37 243.19 124.45 240.84 124.46C238.49 124.47 236.63 126.37 236.64 128.77C236.65 131.14 238.57 133.09 240.88 133.08Z" fill="#1A1818" fill-opacity="1.000000" fill-rule="evenodd"/>
		</g>
	</g>
	<g mask="url(#mask1_17312)">
		<g style="mix-blend-mode:normal">
			<path id="Path 423" d="M288.76 123.34C291.04 123.38 293.05 121.4 293.1 119.06C293.14 116.72 291.23 114.75 288.9 114.71C286.53 114.68 284.64 116.55 284.6 118.93C284.57 121.31 286.45 123.29 288.76 123.34Z" fill="#1A1818" fill-opacity="1.000000" fill-rule="evenodd"/>
		</g>
	</g>
	<g mask="url(#mask1_17312)">
		<g style="mix-blend-mode:normal">
			<path id="Path 424" d="M154.52 173.2C152.17 173.21 150.29 175.16 150.32 177.55C150.36 179.93 152.32 181.83 154.66 181.76C156.9 181.68 158.72 179.79 158.75 177.52C158.78 175.14 156.86 173.18 154.52 173.2Z" fill="#1A1818" fill-opacity="1.000000" fill-rule="evenodd"/>
		</g>
	</g>
	<g mask="url(#mask1_17312)">
		<g style="mix-blend-mode:normal">
			<path id="Path 425" d="M144.91 182.94C142.56 182.96 140.69 184.92 140.74 187.31L149.16 187.25C149.17 184.88 147.26 182.93 144.91 182.94Z" fill="#1A1818" fill-opacity="1.000000" fill-rule="evenodd"/>
		</g>
	</g>
	<g mask="url(#mask1_17312)">
		<g style="mix-blend-mode:normal">
			<path id="Path 426" d="M212.02 142.73C214.3 142.78 216.16 140.99 216.26 138.67C216.36 136.27 214.51 134.27 212.15 134.23C209.81 134.21 207.88 136.16 207.9 138.54C207.92 140.83 209.74 142.69 212.02 142.73Z" fill="#1A1818" fill-opacity="1.000000" fill-rule="evenodd"/>
		</g>
	</g>
	<g mask="url(#mask1_17312)">
		<g style="mix-blend-mode:normal">
			<path id="Path 427" d="M269.67 123.24C271.95 123.23 273.76 121.41 273.81 119.09C273.86 116.68 271.97 114.72 269.61 114.75C267.27 114.76 265.38 116.77 265.46 119.15C265.54 121.45 267.4 123.25 269.67 123.24Z" fill="#1A1818" fill-opacity="1.000000" fill-rule="evenodd"/>
		</g>
	</g>
	<g mask="url(#mask1_17312)">
		<g style="mix-blend-mode:normal">
			<path id="Path 428" d="M164.05 171.97C166.33 172.02 168.19 170.23 168.29 167.91C168.39 165.51 166.54 163.51 164.19 163.47C161.85 163.44 159.91 165.4 159.94 167.78C159.96 170.07 161.78 171.93 164.05 171.97Z" fill="#1A1818" fill-opacity="1.000000" fill-rule="evenodd"/>
		</g>
	</g>
	<g mask="url(#mask1_17312)">
		<g style="mix-blend-mode:normal">
			<path id="Path 429" d="M173.69 162.17C176.02 162.19 177.8 160.4 177.84 158.05C177.87 155.62 175.97 153.68 173.6 153.75C171.36 153.81 169.52 155.75 169.55 158.02C169.56 160.33 171.4 162.16 173.69 162.17Z" fill="#1A1818" fill-opacity="1.000000" fill-rule="evenodd"/>
		</g>
	</g>
	<g mask="url(#mask1_17312)">
		<g style="mix-blend-mode:normal">
			<path id="Path 430" d="M183.22 152.36C185.57 152.41 187.33 150.67 187.37 148.32C187.4 145.98 185.64 144.08 183.38 144.05C181.17 144 179.23 145.89 179.17 148.15C179.12 150.42 180.95 152.33 183.22 152.36Z" fill="#1A1818" fill-opacity="1.000000" fill-rule="evenodd"/>
		</g>
	</g>
	<g mask="url(#mask1_17312)">
		<g style="mix-blend-mode:normal">
			<path id="Path 431" d="M250.47 123.13C252.8 123.12 254.52 121.36 254.52 118.98C254.51 116.66 252.69 114.79 250.43 114.81C248.22 114.82 246.33 116.76 246.33 119.01C246.33 121.29 248.18 123.13 250.47 123.13Z" fill="#1A1818" fill-opacity="1.000000" fill-rule="evenodd"/>
		</g>
	</g>
	<g mask="url(#mask1_17312)">
		<g style="mix-blend-mode:normal">
			<path id="Path 432" d="M221.66 132.87C224.01 132.88 225.74 131.13 225.74 128.75C225.74 126.42 223.93 124.55 221.68 124.55C219.47 124.55 217.56 126.48 217.55 128.73C217.54 131.01 219.38 132.87 221.66 132.87Z" fill="#1A1818" fill-opacity="1.000000" fill-rule="evenodd"/>
		</g>
	</g>
	<g mask="url(#mask1_17312)">
		<g style="mix-blend-mode:normal">
			<path id="Path 433" d="M279.45 113.34C281.63 113.24 283.28 111.46 283.26 109.22C283.23 106.93 281.33 105.04 279.14 105.11C276.95 105.18 275.05 107.22 275.16 109.41C275.25 111.68 277.18 113.44 279.45 113.34Z" fill="#1A1818" fill-opacity="1.000000" fill-rule="evenodd"/>
		</g>
	</g>
	<g mask="url(#mask1_17312)">
		<g style="mix-blend-mode:normal">
			<path id="Path 434" d="M192.93 142.57C195.23 142.56 196.97 140.73 196.92 138.38C196.87 136.2 195.11 134.4 192.99 134.34C190.81 134.3 188.83 136.25 188.82 138.46C188.8 140.72 190.68 142.59 192.93 142.57Z" fill="#1A1818" fill-opacity="1.000000" fill-rule="evenodd"/>
		</g>
	</g>
	<g mask="url(#mask1_17312)">
		<g style="mix-blend-mode:normal">
			<path id="Path 435" d="M231.53 123.06C233.7 122.93 235.34 121.1 235.27 118.86C235.2 116.67 233.38 114.87 231.26 114.88C229.05 114.91 227.14 116.92 227.23 119.14C227.32 121.41 229.26 123.19 231.53 123.06Z" fill="#1A1818" fill-opacity="1.000000" fill-rule="evenodd"/>
		</g>
	</g>
	<g mask="url(#mask1_17312)">
		<g style="mix-blend-mode:normal">
			<path id="Path 436" d="M259.91 113.3C262.09 113.37 263.93 111.67 264.03 109.47C264.14 107.16 262.33 105.21 260.08 105.19C257.95 105.17 256.09 107 256.04 109.17C255.99 111.34 257.74 113.22 259.91 113.3Z" fill="#1A1818" fill-opacity="1.000000" fill-rule="evenodd"/>
		</g>
	</g>
	<g mask="url(#mask1_17312)">
		<g style="mix-blend-mode:normal">
			<path id="Path 437" d="M135.43 173.45C133.25 173.4 131.43 175.17 131.38 177.39C131.34 179.6 133.09 181.45 135.27 181.49C137.44 181.54 139.26 179.77 139.3 177.55C139.35 175.34 137.62 173.51 135.43 173.45Z" fill="#1A1818" fill-opacity="1.000000" fill-rule="evenodd"/>
		</g>
	</g>
	<g mask="url(#mask1_17312)">
		<g style="mix-blend-mode:normal">
			<path id="Path 438" d="M202.44 132.78C204.62 132.8 206.43 131.02 206.46 128.81C206.48 126.58 204.74 124.76 202.55 124.73C200.37 124.69 198.56 126.47 198.53 128.69C198.5 130.9 200.27 132.74 202.44 132.78Z" fill="#1A1818" fill-opacity="1.000000" fill-rule="evenodd"/>
		</g>
	</g>
	<g mask="url(#mask1_17312)">
		<g style="mix-blend-mode:normal">
			<path id="Path 439" d="M125.59 183.2C123.4 183.29 121.7 185.17 121.79 187.39L129.71 187.05C129.62 184.83 127.77 183.1 125.59 183.2Z" fill="#1A1818" fill-opacity="1.000000" fill-rule="evenodd"/>
		</g>
	</g>
	<g mask="url(#mask1_17312)">
		<g style="mix-blend-mode:normal">
			<path id="Path 440" d="M145.01 171.75C147.19 171.71 148.94 169.86 148.89 167.65C148.86 165.44 147.03 163.66 144.86 163.7C142.68 163.75 140.93 165.59 140.98 167.81C141.03 170.02 142.83 171.79 145.01 171.75Z" fill="#1A1818" fill-opacity="1.000000" fill-rule="evenodd"/>
		</g>
	</g>
	<g mask="url(#mask1_17312)">
		<g style="mix-blend-mode:normal">
			<path id="Path 441" d="M154.51 161.98C156.67 162 158.48 160.15 158.47 157.95C158.46 155.82 156.8 154.1 154.68 154.02C152.45 153.94 150.67 155.64 150.63 157.9C150.58 160.15 152.32 161.97 154.51 161.98Z" fill="#1A1818" fill-opacity="1.000000" fill-rule="evenodd"/>
		</g>
	</g>
	<g mask="url(#mask1_17312)">
		<g style="mix-blend-mode:normal">
			<path id="Path 442" d="M240.84 113.24C242.98 113.25 244.81 111.4 244.79 109.23C244.76 107.11 243.12 105.41 241.01 105.34C238.78 105.26 237.04 106.92 237 109.18C236.96 111.42 238.68 113.22 240.84 113.24Z" fill="#1A1818" fill-opacity="1.000000" fill-rule="evenodd"/>
		</g>
	</g>
	<g mask="url(#mask1_17312)">
		<g style="mix-blend-mode:normal">
			<path id="Path 443" d="M288.68 103.49C290.81 103.57 292.69 101.78 292.75 99.62C292.81 97.41 291.07 95.61 288.87 95.59C286.64 95.57 284.95 97.28 284.97 99.55C284.98 101.68 286.61 103.41 288.68 103.49Z" fill="#1A1818" fill-opacity="1.000000" fill-rule="evenodd"/>
		</g>
	</g>
	<g mask="url(#mask1_17312)">
		<g style="mix-blend-mode:normal">
			<path id="Path 444" d="M164.09 152.22C166.22 152.24 168.06 150.39 168.04 148.23C168.03 146.02 166.25 144.28 164.05 144.31C161.82 144.35 160.19 146.11 160.27 148.39C160.33 150.52 162.01 152.2 164.09 152.22Z" fill="#1A1818" fill-opacity="1.000000" fill-rule="evenodd"/>
		</g>
	</g>
	<g mask="url(#mask1_17312)">
		<g style="mix-blend-mode:normal">
			<path id="Path 445" d="M212.19 122.96C214.23 122.9 215.98 121.09 215.98 119.03C216 116.82 214.21 115.07 211.99 115.11C209.77 115.15 208.15 116.94 208.27 119.23C208.37 121.37 210.12 123.02 212.19 122.96Z" fill="#1A1818" fill-opacity="1.000000" fill-rule="evenodd"/>
		</g>
	</g>
	<g mask="url(#mask1_17312)">
		<g style="mix-blend-mode:normal">
			<path id="Path 446" d="M173.82 142.44C175.85 142.39 177.6 140.58 177.61 138.53C177.63 136.32 175.84 134.56 173.63 134.6C171.49 134.64 169.89 136.29 169.88 138.47C169.88 140.72 171.65 142.51 173.82 142.44Z" fill="#1A1818" fill-opacity="1.000000" fill-rule="evenodd"/>
		</g>
	</g>
	<g mask="url(#mask1_17312)">
		<g style="mix-blend-mode:normal">
			<path id="Path 447" d="M183.21 132.66C185.22 132.73 187.09 130.93 187.16 128.85C187.23 126.76 185.53 124.96 183.42 124.91C181.26 124.86 179.58 126.46 179.53 128.65C179.48 130.8 181.13 132.59 183.21 132.66Z" fill="#1A1818" fill-opacity="1.000000" fill-rule="evenodd"/>
		</g>
	</g>
	<g mask="url(#mask1_17312)">
		<g style="mix-blend-mode:normal">
			<path id="Path 448" d="M269.53 103.45C271.64 103.52 273.56 101.61 273.52 99.46C273.48 97.34 271.77 95.66 269.65 95.65C267.49 95.64 265.87 97.27 265.84 99.46C265.81 101.61 267.45 103.38 269.53 103.45Z" fill="#1A1818" fill-opacity="1.000000" fill-rule="evenodd"/>
		</g>
	</g>
	<g mask="url(#mask1_17312)">
		<g style="mix-blend-mode:normal">
			<path id="Path 449" d="M221.7 113.13C223.73 113.12 225.5 111.31 225.5 109.25C225.48 107.15 223.75 105.43 221.67 105.44C219.54 105.45 217.91 107.12 217.92 109.28C217.93 111.4 219.64 113.15 221.7 113.13Z" fill="#1A1818" fill-opacity="1.000000" fill-rule="evenodd"/>
		</g>
	</g>
	<g mask="url(#mask1_17312)">
		<g style="mix-blend-mode:normal">
			<path id="Path 450" d="M250.39 103.39C252.41 103.44 254.22 101.66 254.27 99.59C254.32 97.5 252.62 95.73 250.54 95.7C248.4 95.66 246.73 97.29 246.7 99.44C246.66 101.57 248.32 103.34 250.39 103.39Z" fill="#1A1818" fill-opacity="1.000000" fill-rule="evenodd"/>
		</g>
	</g>
	<g mask="url(#mask1_17312)">
		<g style="mix-blend-mode:normal">
			<path id="Path 451" d="M135.26 161.76C137.26 161.82 138.95 160.23 139.06 158.18C139.17 156.06 137.52 154.25 135.42 154.2C133.31 154.16 131.6 155.89 131.62 158.02C131.63 160.05 133.26 161.71 135.26 161.76Z" fill="#1A1818" fill-opacity="1.000000" fill-rule="evenodd"/>
		</g>
	</g>
	<g mask="url(#mask1_17312)">
		<g style="mix-blend-mode:normal">
			<path id="Path 452" d="M125.75 171.5C127.84 171.51 129.54 169.73 129.47 167.61C129.4 165.58 127.74 163.94 125.75 163.95C123.65 163.95 121.97 165.71 122.03 167.85C122.09 169.86 123.76 171.5 125.75 171.5Z" fill="#1A1818" fill-opacity="1.000000" fill-rule="evenodd"/>
		</g>
	</g>
	<g mask="url(#mask1_17312)">
		<g style="mix-blend-mode:normal">
			<path id="Path 453" d="M192.95 122.78C194.96 122.75 196.59 121.11 196.62 119.07C196.66 117.04 195.07 115.32 193.08 115.23C190.99 115.13 189.22 116.8 189.19 118.93C189.14 121.05 190.87 122.81 192.95 122.78Z" fill="#1A1818" fill-opacity="1.000000" fill-rule="evenodd"/>
		</g>
	</g>
	<g mask="url(#mask1_17312)">
		<g style="mix-blend-mode:normal">
			<path id="Path 454" d="M116.38 173.69C114.29 173.57 112.5 175.24 112.44 177.36C112.37 179.48 114.08 181.26 116.17 181.25C118.18 181.25 119.82 179.62 119.87 177.58C119.93 175.55 118.37 173.82 116.38 173.69Z" fill="#1A1818" fill-opacity="1.000000" fill-rule="evenodd"/>
		</g>
	</g>
	<g mask="url(#mask1_17312)">
		<g style="mix-blend-mode:normal">
			<path id="Path 455" d="M106.56 183.46C104.57 183.47 102.91 185.12 102.86 187.15L110.22 187.39C110.31 185.24 108.65 183.45 106.56 183.46Z" fill="#1A1818" fill-opacity="1.000000" fill-rule="evenodd"/>
		</g>
	</g>
	<g mask="url(#mask1_17312)">
		<g style="mix-blend-mode:normal">
			<path id="Path 456" d="M279.32 93.48C281.38 93.44 282.93 91.82 282.9 89.73C282.89 87.68 281.25 86.02 279.25 86.01C277.17 86 275.45 87.8 275.54 89.91C275.62 91.94 277.3 93.53 279.32 93.48Z" fill="#1A1818" fill-opacity="1.000000" fill-rule="evenodd"/>
		</g>
	</g>
	<g mask="url(#mask1_17312)">
		<g style="mix-blend-mode:normal">
			<path id="Path 457" d="M144.86 151.96C146.92 152 148.52 150.45 148.59 148.36C148.66 146.21 146.97 144.45 144.88 144.48C142.87 144.52 141.25 146.2 141.24 148.22C141.22 150.25 142.85 151.92 144.86 151.96Z" fill="#1A1818" fill-opacity="1.000000" fill-rule="evenodd"/>
		</g>
	</g>
	<g mask="url(#mask1_17312)">
		<g style="mix-blend-mode:normal">
			<path id="Path 458" d="M260.15 93.41C262.22 93.35 263.69 91.77 263.64 89.65C263.58 87.62 261.91 85.98 259.94 86.05C257.98 86.13 256.34 87.9 256.4 89.87C256.46 91.89 258.13 93.46 260.15 93.41Z" fill="#1A1818" fill-opacity="1.000000" fill-rule="evenodd"/>
		</g>
	</g>
	<g mask="url(#mask1_17312)">
		<g style="mix-blend-mode:normal">
			<path id="Path 459" d="M231.27 103.19C233.35 103.19 234.9 101.61 234.9 99.49C234.89 97.43 233.26 95.76 231.26 95.78C229.28 95.79 227.6 97.5 227.6 99.51C227.6 101.55 229.23 103.19 231.27 103.19Z" fill="#1A1818" fill-opacity="1.000000" fill-rule="evenodd"/>
		</g>
	</g>
	<g mask="url(#mask1_17312)">
		<g style="mix-blend-mode:normal">
			<path id="Path 460" d="M202.49 112.9C204.56 112.9 206.08 111.35 206.07 109.25C206.07 107.2 204.46 105.54 202.49 105.54C200.53 105.55 198.85 107.27 198.84 109.25C198.84 111.26 200.48 112.9 202.49 112.9Z" fill="#1A1818" fill-opacity="1.000000" fill-rule="evenodd"/>
		</g>
	</g>
	<g mask="url(#mask1_17312)">
		<g style="mix-blend-mode:normal">
			<path id="Path 461" d="M154.45 142.17C156.54 142.2 158.12 140.66 158.14 138.55C158.17 136.47 156.59 134.79 154.59 134.76C152.61 134.72 150.89 136.4 150.85 138.42C150.81 140.44 152.43 142.14 154.45 142.17Z" fill="#1A1818" fill-opacity="1.000000" fill-rule="evenodd"/>
		</g>
	</g>
	<g mask="url(#mask1_17312)">
		<g style="mix-blend-mode:normal">
			<path id="Path 462" d="M164.14 132.36C166.1 132.36 167.6 130.89 167.68 128.91C167.75 126.84 166.21 125.12 164.22 125.06C162.28 125 160.52 126.73 160.49 128.69C160.45 130.7 162.11 132.36 164.14 132.36Z" fill="#1A1818" fill-opacity="1.000000" fill-rule="evenodd"/>
		</g>
	</g>
	<g mask="url(#mask1_17312)">
		<g style="mix-blend-mode:normal">
			<path id="Path 463" d="M173.57 122.57C175.51 122.64 177.12 121.16 177.22 119.21C177.33 117.15 175.74 115.4 173.75 115.39C171.89 115.36 170.2 117.01 170.15 118.91C170.09 120.83 171.65 122.49 173.57 122.57Z" fill="#1A1818" fill-opacity="1.000000" fill-rule="evenodd"/>
		</g>
	</g>
	<g mask="url(#mask1_17312)">
		<g style="mix-blend-mode:normal">
			<path id="Path 464" d="M240.96 93.34C242.89 93.3 244.4 91.71 244.38 89.74C244.36 87.78 242.8 86.17 240.9 86.15C238.93 86.13 237.21 87.95 237.31 89.92C237.41 91.87 239.02 93.38 240.96 93.34Z" fill="#1A1818" fill-opacity="1.000000" fill-rule="evenodd"/>
		</g>
	</g>
	<g mask="url(#mask1_17312)">
		<g style="mix-blend-mode:normal">
			<path id="Path 465" d="M212.11 103.08C214.15 103.07 215.71 101.38 215.6 99.3C215.49 97.36 213.83 95.8 211.94 95.9C210.06 95.98 208.48 97.71 208.53 99.6C208.58 101.55 210.18 103.09 212.11 103.08Z" fill="#1A1818" fill-opacity="1.000000" fill-rule="evenodd"/>
		</g>
	</g>
	<g mask="url(#mask1_17312)">
		<g style="mix-blend-mode:normal">
			<path id="Path 466" d="M288.68 83.59C290.62 83.66 292.24 82.19 292.34 80.23C292.45 78.17 290.85 76.43 288.86 76.41C287 76.39 285.32 78.05 285.27 79.93C285.21 81.85 286.77 83.52 288.68 83.59Z" fill="#1A1818" fill-opacity="1.000000" fill-rule="evenodd"/>
		</g>
	</g>
	<g mask="url(#mask1_17312)">
		<g style="mix-blend-mode:normal">
			<path id="Path 467" d="M269.72 83.55C271.64 83.5 273.19 81.83 273.12 79.89C273.04 78.02 271.55 76.54 269.7 76.51C267.73 76.49 266.18 78.06 266.19 80.04C266.2 82.02 267.78 83.59 269.72 83.55Z" fill="#1A1818" fill-opacity="1.000000" fill-rule="evenodd"/>
		</g>
	</g>
	<g mask="url(#mask1_17312)">
		<g style="mix-blend-mode:normal">
			<path id="Path 468" d="M183.24 112.79C185.15 112.83 186.77 111.22 186.78 109.28C186.79 107.32 185.21 105.73 183.27 105.74C181.41 105.76 179.92 107.24 179.85 109.12C179.78 111.09 181.3 112.74 183.24 112.79Z" fill="#1A1818" fill-opacity="1.000000" fill-rule="evenodd"/>
		</g>
	</g>
	<g mask="url(#mask1_17312)">
		<g style="mix-blend-mode:normal">
			<path id="Path 469" d="M116.1 161.49C118 161.53 119.63 159.87 119.61 157.94C119.58 155.97 117.96 154.44 116 154.53C114.12 154.62 112.74 156.11 112.77 158.04C112.8 159.94 114.25 161.45 116.1 161.49Z" fill="#1A1818" fill-opacity="1.000000" fill-rule="evenodd"/>
		</g>
	</g>
	<g mask="url(#mask1_17312)">
		<g style="mix-blend-mode:normal">
			<path id="Path 470" d="M221.68 93.27C223.59 93.28 225.19 91.59 225.13 89.67C225.07 87.7 223.44 86.2 221.46 86.33C219.57 86.43 218.24 87.94 218.29 89.89C218.34 91.78 219.84 93.26 221.68 93.27Z" fill="#1A1818" fill-opacity="1.000000" fill-rule="evenodd"/>
		</g>
	</g>
	<g mask="url(#mask1_17312)">
		<g style="mix-blend-mode:normal">
			<path id="Path 471" d="M106.6 171.24C108.41 171.22 109.96 169.68 110.01 167.84C110.07 165.87 108.51 164.27 106.55 164.28C104.66 164.29 103.21 165.72 103.17 167.64C103.11 169.63 104.66 171.25 106.6 171.24Z" fill="#1A1818" fill-opacity="1.000000" fill-rule="evenodd"/>
		</g>
	</g>
	<g mask="url(#mask1_17312)">
		<g style="mix-blend-mode:normal">
			<path id="Path 472" d="M125.66 151.74C127.57 151.8 129.21 150.16 129.19 148.22C129.19 146.26 127.58 144.71 125.62 144.78C123.73 144.85 122.34 146.33 122.35 148.27C122.37 150.17 123.82 151.69 125.66 151.74Z" fill="#1A1818" fill-opacity="1.000000" fill-rule="evenodd"/>
		</g>
	</g>
	<g mask="url(#mask1_17312)">
		<g style="mix-blend-mode:normal">
			<path id="Path 473" d="M135.35 141.98C137.21 141.98 138.84 140.28 138.77 138.39C138.7 136.44 137.08 134.97 135.12 135.09C133.24 135.19 131.93 136.67 132 138.62C132.05 140.48 133.53 141.97 135.35 141.98Z" fill="#1A1818" fill-opacity="1.000000" fill-rule="evenodd"/>
		</g>
	</g>
	<g mask="url(#mask1_17312)">
		<g style="mix-blend-mode:normal">
			<path id="Path 474" d="M96.78 174.06C94.89 174.16 93.57 175.62 93.62 177.57C93.66 179.44 95.13 180.93 96.95 180.95C98.82 180.97 100.45 179.28 100.4 177.39C100.34 175.45 98.73 173.96 96.78 174.06Z" fill="#1A1818" fill-opacity="1.000000" fill-rule="evenodd"/>
		</g>
	</g>
	<g mask="url(#mask1_17312)">
		<g style="mix-blend-mode:normal">
			<path id="Path 475" d="M250.52 83.5C252.3 83.47 253.84 81.92 253.89 80.11C253.93 78.18 252.36 76.6 250.42 76.62C248.53 76.64 247.13 78.05 247.1 79.96C247.07 81.93 248.62 83.53 250.52 83.5Z" fill="#1A1818" fill-opacity="1.000000" fill-rule="evenodd"/>
		</g>
	</g>
	<g mask="url(#mask1_17312)">
		<g style="mix-blend-mode:normal">
			<path id="Path 476" d="M87.16 183.82C85.28 183.92 83.97 185.39 84.02 187.33L90.81 187.12C90.74 185.18 89.11 183.71 87.16 183.82Z" fill="#1A1818" fill-opacity="1.000000" fill-rule="evenodd"/>
		</g>
	</g>
	<g mask="url(#mask1_17312)">
		<g style="mix-blend-mode:normal">
			<path id="Path 477" d="M145.01 132.2C146.79 132.16 148.34 130.56 148.34 128.75C148.34 126.82 146.7 125.29 144.77 125.38C142.87 125.46 141.55 126.94 141.62 128.88C141.68 130.74 143.21 132.25 145.01 132.2Z" fill="#1A1818" fill-opacity="1.000000" fill-rule="evenodd"/>
		</g>
	</g>
	<g mask="url(#mask1_17312)">
		<g style="mix-blend-mode:normal">
			<path id="Path 478" d="M192.84 102.97C194.71 103.01 196.37 101.28 196.3 99.4C196.24 97.57 194.69 96.11 192.85 96.14C190.95 96.16 189.57 97.58 189.58 99.51C189.58 101.39 191.04 102.93 192.84 102.97Z" fill="#1A1818" fill-opacity="1.000000" fill-rule="evenodd"/>
		</g>
	</g>
	<g mask="url(#mask1_17312)">
		<g style="mix-blend-mode:normal">
			<path id="Path 479" d="M154.5 122.42C156.25 122.45 157.86 120.85 157.9 119.05C157.93 117.23 156.41 115.68 154.57 115.65C152.69 115.63 151.25 117.05 151.24 118.97C151.21 120.82 152.7 122.4 154.5 122.42Z" fill="#1A1818" fill-opacity="1.000000" fill-rule="evenodd"/>
		</g>
	</g>
	<g mask="url(#mask1_17312)">
		<g style="mix-blend-mode:normal">
			<path id="Path 480" d="M231.32 83.4C233.11 83.36 234.67 81.72 234.6 79.92C234.54 78.17 233.08 76.73 231.35 76.69C229.47 76.66 228.01 78.1 228 80.01C227.99 81.88 229.52 83.44 231.32 83.4Z" fill="#1A1818" fill-opacity="1.000000" fill-rule="evenodd"/>
		</g>
	</g>
	<g mask="url(#mask1_17312)">
		<g style="mix-blend-mode:normal">
			<path id="Path 481" d="M279.24 73.66C281.03 73.66 282.6 72.03 282.57 70.22C282.53 68.48 281.09 67.01 279.36 66.95C277.48 66.89 275.99 68.32 275.96 70.22C275.93 72.08 277.43 73.66 279.24 73.66Z" fill="#1A1818" fill-opacity="1.000000" fill-rule="evenodd"/>
		</g>
	</g>
	<g mask="url(#mask1_17312)">
		<g style="mix-blend-mode:normal">
			<path id="Path 482" d="M202.49 93.09C204.31 93.11 205.84 91.49 205.77 89.65C205.71 87.88 204.25 86.46 202.5 86.46C200.65 86.46 199.18 87.99 199.24 89.88C199.29 91.65 200.75 93.09 202.49 93.09Z" fill="#1A1818" fill-opacity="1.000000" fill-rule="evenodd"/>
		</g>
	</g>
	<g mask="url(#mask1_17312)">
		<g style="mix-blend-mode:normal">
			<path id="Path 483" d="M164.21 112.59C165.94 112.53 167.38 111.04 167.4 109.28C167.42 107.43 165.87 105.9 164.03 105.95C162.18 106 160.75 107.6 160.87 109.47C160.98 111.24 162.48 112.64 164.21 112.59Z" fill="#1A1818" fill-opacity="1.000000" fill-rule="evenodd"/>
		</g>
	</g>
	<g mask="url(#mask1_17312)">
		<g style="mix-blend-mode:normal">
			<path id="Path 484" d="M260.1 73.54C261.87 73.52 263.26 72.09 263.26 70.28C263.27 68.39 261.74 66.9 259.89 67C258.14 67.09 256.77 68.61 256.82 70.38C256.88 72.17 258.33 73.57 260.1 73.54Z" fill="#1A1818" fill-opacity="1.000000" fill-rule="evenodd"/>
		</g>
	</g>
	<g mask="url(#mask1_17312)">
		<g style="mix-blend-mode:normal">
			<path id="Path 485" d="M173.76 102.71C175.56 102.69 176.9 101.28 176.87 99.46C176.84 97.65 175.4 96.21 173.66 96.25C171.94 96.29 170.49 97.82 170.51 99.56C170.53 101.34 171.96 102.73 173.76 102.71Z" fill="#1A1818" fill-opacity="1.000000" fill-rule="evenodd"/>
		</g>
	</g>
	<g mask="url(#mask1_17312)">
		<g style="mix-blend-mode:normal">
			<path id="Path 486" d="M212.12 83.18C213.93 83.17 215.25 81.77 215.2 79.92C215.15 78.19 213.83 76.83 212.16 76.8C210.46 76.75 208.93 78.26 208.9 79.99C208.89 81.76 210.33 83.2 212.12 83.18Z" fill="#1A1818" fill-opacity="1.000000" fill-rule="evenodd"/>
		</g>
	</g>
	<g mask="url(#mask1_17312)">
		<g style="mix-blend-mode:normal">
			<path id="Path 487" d="M106.74 151.39C108.55 151.3 109.79 149.85 109.66 147.97C109.54 146.27 108.13 144.95 106.48 145C104.78 145.05 103.31 146.64 103.38 148.36C103.46 150.16 104.93 151.48 106.74 151.39Z" fill="#1A1818" fill-opacity="1.000000" fill-rule="evenodd"/>
		</g>
	</g>
	<g mask="url(#mask1_17312)">
		<g style="mix-blend-mode:normal">
			<path id="Path 488" d="M241.07 73.43C242.78 73.33 244 71.99 243.97 70.23C243.95 68.43 242.5 66.98 240.77 67.04C239.05 67.11 237.6 68.71 237.68 70.43C237.78 72.23 239.26 73.54 241.07 73.43Z" fill="#1A1818" fill-opacity="1.000000" fill-rule="evenodd"/>
		</g>
	</g>
	<g mask="url(#mask1_17312)">
		<g style="mix-blend-mode:normal">
			<path id="Path 489" d="M97.05 161.1C98.79 161.07 100.04 159.78 100.05 158.01C100.07 156.2 98.61 154.71 96.88 154.77C95.28 154.83 93.84 156.31 93.81 157.94C93.78 159.69 95.26 161.15 97.05 161.1Z" fill="#1A1818" fill-opacity="1.000000" fill-rule="evenodd"/>
		</g>
	</g>
	<g mask="url(#mask1_17312)">
		<g style="mix-blend-mode:normal">
			<path id="Path 490" d="M87.44 170.85C89.18 170.83 90.44 169.54 90.45 167.77C90.48 165.96 89.02 164.48 87.3 164.52C85.71 164.57 84.26 166.06 84.22 167.67C84.18 169.43 85.66 170.89 87.44 170.85Z" fill="#1A1818" fill-opacity="1.000000" fill-rule="evenodd"/>
		</g>
	</g>
	<g mask="url(#mask1_17312)">
		<g style="mix-blend-mode:normal">
			<path id="Path 491" d="M288.79 63.66C290.53 63.67 291.84 62.42 291.91 60.67C291.97 58.85 290.6 57.34 288.85 57.33C287.16 57.32 285.62 58.91 285.68 60.62C285.73 62.3 287.1 63.64 288.79 63.66Z" fill="#1A1818" fill-opacity="1.000000" fill-rule="evenodd"/>
		</g>
	</g>
	<g mask="url(#mask1_17312)">
		<g style="mix-blend-mode:normal">
			<path id="Path 492" d="M116.2 141.62C117.94 141.6 119.21 140.32 119.23 138.55C119.26 136.74 117.83 135.24 116.1 135.28C114.5 135.32 113.04 136.8 112.99 138.42C112.95 140.17 114.42 141.64 116.2 141.62Z" fill="#1A1818" fill-opacity="1.000000" fill-rule="evenodd"/>
		</g>
	</g>
	<g mask="url(#mask1_17312)">
		<g style="mix-blend-mode:normal">
			<path id="Path 493" d="M125.84 131.87C127.58 131.82 128.82 130.53 128.82 128.76C128.83 126.95 127.37 125.47 125.64 125.54C124.04 125.61 122.6 127.1 122.59 128.72C122.58 130.49 124.06 131.91 125.84 131.87Z" fill="#1A1818" fill-opacity="1.000000" fill-rule="evenodd"/>
		</g>
	</g>
	<g mask="url(#mask1_17312)">
		<g style="mix-blend-mode:normal">
			<path id="Path 494" d="M135.31 122.1C137.04 122.12 138.35 120.84 138.39 119.09C138.44 117.37 137.14 115.93 135.49 115.84C133.79 115.75 132.21 117.3 132.23 119.02C132.25 120.7 133.63 122.09 135.31 122.1Z" fill="#1A1818" fill-opacity="1.000000" fill-rule="evenodd"/>
		</g>
	</g>
	<g mask="url(#mask1_17312)">
		<g style="mix-blend-mode:normal">
			<path id="Path 495" d="M77.9 174.3C76.22 174.23 74.63 175.78 74.66 177.52C74.7 179.19 76.08 180.56 77.77 180.57C79.5 180.58 80.81 179.29 80.84 177.53C80.86 175.82 79.57 174.38 77.9 174.3Z" fill="#1A1818" fill-opacity="1.000000" fill-rule="evenodd"/>
		</g>
	</g>
	<g mask="url(#mask1_17312)">
		<g style="mix-blend-mode:normal">
			<path id="Path 496" d="M183.42 92.86C185.13 92.81 186.4 91.46 186.36 89.7C186.33 88 184.95 86.59 183.3 86.59C181.61 86.6 180.09 88.24 180.19 89.94C180.3 91.63 181.72 92.92 183.42 92.86Z" fill="#1A1818" fill-opacity="1.000000" fill-rule="evenodd"/>
		</g>
	</g>
	<g mask="url(#mask1_17312)">
		<g style="mix-blend-mode:normal">
			<path id="Path 497" d="M269.61 63.61C271.32 63.63 272.66 62.29 272.67 60.57C272.69 58.86 271.33 57.43 269.68 57.41C268.05 57.39 266.59 58.83 266.57 60.5C266.55 62.17 267.94 63.59 269.61 63.61Z" fill="#1A1818" fill-opacity="1.000000" fill-rule="evenodd"/>
		</g>
	</g>
	<g mask="url(#mask1_17312)">
		<g style="mix-blend-mode:normal">
			<path id="Path 498" d="M68.09 184.09C66.45 184.15 65.07 185.66 65.12 187.31L71.23 187.12C71.17 185.43 69.73 184.03 68.09 184.09Z" fill="#1A1818" fill-opacity="1.000000" fill-rule="evenodd"/>
		</g>
	</g>
	<g mask="url(#mask1_17312)">
		<g style="mix-blend-mode:normal">
			<path id="Path 499" d="M221.66 73.33C223.33 73.35 224.69 71.96 224.68 70.26C224.67 68.56 223.25 67.17 221.6 67.22C220.01 67.27 218.71 68.58 218.67 70.19C218.61 71.87 219.98 73.32 221.66 73.33Z" fill="#1A1818" fill-opacity="1.000000" fill-rule="evenodd"/>
		</g>
	</g>
	<g mask="url(#mask1_17312)">
		<g style="mix-blend-mode:normal">
			<path id="Path 500" d="M145.08 112.31C146.67 112.24 147.92 110.92 147.94 109.31C147.96 107.6 146.58 106.19 144.92 106.19C143.25 106.21 141.89 107.64 141.92 109.34C141.97 111.04 143.41 112.38 145.08 112.31Z" fill="#1A1818" fill-opacity="1.000000" fill-rule="evenodd"/>
		</g>
	</g>
	<g mask="url(#mask1_17312)">
		<g style="mix-blend-mode:normal">
			<path id="Path 501" d="M192.85 83.05C194.51 83.08 195.92 81.65 195.88 79.97C195.85 78.27 194.41 76.94 192.72 77.04C191.1 77.13 189.93 78.43 189.96 80.1C190 81.72 191.28 83.02 192.85 83.05Z" fill="#1A1818" fill-opacity="1.000000" fill-rule="evenodd"/>
		</g>
	</g>
	<g mask="url(#mask1_17312)">
		<g style="mix-blend-mode:normal">
			<path id="Path 502" d="M154.43 102.54C156.09 102.6 157.52 101.19 157.5 99.51C157.5 97.9 156.24 96.59 154.64 96.53C153 96.47 151.71 97.65 151.6 99.3C151.49 101.01 152.77 102.48 154.43 102.54Z" fill="#1A1818" fill-opacity="1.000000" fill-rule="evenodd"/>
		</g>
	</g>
	<g mask="url(#mask1_17312)">
		<g style="mix-blend-mode:normal">
			<path id="Path 503" d="M250.36 63.56C252.02 63.62 253.44 62.22 253.44 60.52C253.43 58.83 252.02 57.47 250.33 57.54C248.71 57.61 247.51 58.9 247.52 60.56C247.52 62.18 248.79 63.51 250.36 63.56Z" fill="#1A1818" fill-opacity="1.000000" fill-rule="evenodd"/>
		</g>
	</g>
	<g mask="url(#mask1_17312)">
		<g style="mix-blend-mode:normal">
			<path id="Path 504" d="M202.46 73.22C203.94 73.25 205.39 71.79 205.39 70.27C205.39 68.78 204.17 67.5 202.67 67.42C201.03 67.33 199.73 68.52 199.68 70.17C199.62 71.8 200.89 73.19 202.46 73.22Z" fill="#1A1818" fill-opacity="1.000000" fill-rule="evenodd"/>
		</g>
	</g>
	<g mask="url(#mask1_17312)">
		<g style="mix-blend-mode:normal">
			<path id="Path 505" d="M164.14 92.71C165.64 92.7 167.07 91.2 167.03 89.7C166.98 88.2 165.75 86.96 164.24 86.91C162.59 86.85 161.32 88.06 161.3 89.73C161.28 91.36 162.59 92.72 164.14 92.71Z" fill="#1A1818" fill-opacity="1.000000" fill-rule="evenodd"/>
		</g>
	</g>
	<g mask="url(#mask1_17312)">
		<g style="mix-blend-mode:normal">
			<path id="Path 506" d="M279.28 53.72C280.7 53.7 282.04 52.38 282.13 50.94C282.22 49.37 280.93 47.98 279.34 47.93C277.69 47.88 276.43 49.1 276.42 50.77C276.41 52.4 277.73 53.76 279.28 53.72Z" fill="#1A1818" fill-opacity="1.000000" fill-rule="evenodd"/>
		</g>
	</g>
	<g mask="url(#mask1_17312)">
		<g style="mix-blend-mode:normal">
			<path id="Path 507" d="M231.28 63.47C232.78 63.46 234.21 61.98 234.18 60.47C234.13 58.98 232.89 57.73 231.4 57.68C229.75 57.62 228.48 58.82 228.46 60.48C228.43 62.12 229.73 63.48 231.28 63.47Z" fill="#1A1818" fill-opacity="1.000000" fill-rule="evenodd"/>
		</g>
	</g>
	<g mask="url(#mask1_17312)">
		<g style="mix-blend-mode:normal">
			<path id="Path 508" d="M96.85 141.39C98.37 141.46 99.81 140.05 99.81 138.5C99.81 136.99 98.59 135.72 97.09 135.66C95.56 135.6 94.31 136.72 94.19 138.25C94.06 139.89 95.27 141.31 96.85 141.39Z" fill="#1A1818" fill-opacity="1.000000" fill-rule="evenodd"/>
		</g>
	</g>
	<g mask="url(#mask1_17312)">
		<g style="mix-blend-mode:normal">
			<path id="Path 509" d="M87.37 151.12C88.92 151.12 90.3 149.66 90.23 148.12C90.16 146.62 88.88 145.4 87.39 145.4C85.76 145.4 84.52 146.71 84.59 148.36C84.65 149.89 85.9 151.12 87.37 151.12Z" fill="#1A1818" fill-opacity="1.000000" fill-rule="evenodd"/>
		</g>
	</g>
	<g mask="url(#mask1_17312)">
		<g style="mix-blend-mode:normal">
			<path id="Path 510" d="M106.54 131.63C108.07 131.65 109.46 130.19 109.41 128.65C109.35 127.05 107.95 125.79 106.35 125.92C104.84 126.03 103.72 127.29 103.78 128.85C103.83 130.37 105.07 131.62 106.54 131.63Z" fill="#1A1818" fill-opacity="1.000000" fill-rule="evenodd"/>
		</g>
	</g>
	<g mask="url(#mask1_17312)">
		<g style="mix-blend-mode:normal">
			<path id="Path 511" d="M77.68 160.81C79.16 160.88 80.47 159.65 80.56 158.14C80.66 156.53 79.36 155.15 77.76 155.17C76.25 155.18 75.04 156.41 75.01 157.94C74.99 159.46 76.19 160.75 77.68 160.81Z" fill="#1A1818" fill-opacity="1.000000" fill-rule="evenodd"/>
		</g>
	</g>
	<g mask="url(#mask1_17312)">
		<g style="mix-blend-mode:normal">
			<path id="Path 512" d="M260.07 53.62C261.55 53.61 262.82 52.33 262.84 50.82C262.86 49.21 261.51 47.89 259.91 47.98C258.41 48.05 257.24 49.33 257.29 50.87C257.32 52.39 258.58 53.62 260.07 53.62Z" fill="#1A1818" fill-opacity="1.000000" fill-rule="evenodd"/>
		</g>
	</g>
	<g mask="url(#mask1_17312)">
		<g style="mix-blend-mode:normal">
			<path id="Path 513" d="M173.77 82.84C175.27 82.81 176.5 81.53 176.49 80.02C176.49 78.41 175.12 77.11 173.54 77.22C172.04 77.32 170.89 78.62 170.95 80.14C171.01 81.67 172.28 82.87 173.77 82.84Z" fill="#1A1818" fill-opacity="1.000000" fill-rule="evenodd"/>
		</g>
	</g>
	<g mask="url(#mask1_17312)">
		<g style="mix-blend-mode:normal">
			<path id="Path 514" d="M116.32 121.82C117.81 121.73 119 120.4 118.95 118.9C118.88 117.39 117.6 116.17 116.12 116.19C114.6 116.22 113.4 117.45 113.39 118.98C113.37 120.6 114.74 121.91 116.32 121.82Z" fill="#1A1818" fill-opacity="1.000000" fill-rule="evenodd"/>
		</g>
	</g>
	<g mask="url(#mask1_17312)">
		<g style="mix-blend-mode:normal">
			<path id="Path 515" d="M68.19 170.47C69.75 170.47 70.91 169.28 70.89 167.71C70.88 166.16 69.67 164.93 68.17 164.94C66.69 164.96 65.45 166.23 65.45 167.73C65.45 169.25 66.66 170.47 68.19 170.47Z" fill="#1A1818" fill-opacity="1.000000" fill-rule="evenodd"/>
		</g>
	</g>
	<g mask="url(#mask1_17312)">
		<g style="mix-blend-mode:normal">
			<path id="Path 516" d="M125.81 111.99C127.36 111.97 128.49 110.76 128.45 109.18C128.41 107.64 127.16 106.43 125.67 106.47C124.19 106.51 122.97 107.82 123.01 109.32C123.04 110.84 124.28 112.03 125.81 111.99Z" fill="#1A1818" fill-opacity="1.000000" fill-rule="evenodd"/>
		</g>
	</g>
	<g mask="url(#mask1_17312)">
		<g style="mix-blend-mode:normal">
			<path id="Path 517" d="M183.32 72.92C184.83 72.91 185.86 71.89 185.9 70.37C185.95 68.83 184.75 67.53 183.28 67.56C181.86 67.57 180.55 68.97 180.63 70.41C180.71 71.81 181.9 72.92 183.32 72.92Z" fill="#1A1818" fill-opacity="1.000000" fill-rule="evenodd"/>
		</g>
	</g>
	<g mask="url(#mask1_17312)">
		<g style="mix-blend-mode:normal">
			<path id="Path 518" d="M135.41 102.2C136.99 102.16 138.06 100.97 137.99 99.36C137.91 97.92 136.77 96.78 135.37 96.76C133.92 96.73 132.63 98.04 132.63 99.52C132.63 101.03 133.88 102.23 135.41 102.2Z" fill="#1A1818" fill-opacity="1.000000" fill-rule="evenodd"/>
		</g>
	</g>
	<g mask="url(#mask1_17312)">
		<g style="mix-blend-mode:normal">
			<path id="Path 519" d="M212.04 63.22C213.61 63.25 214.74 62.11 214.73 60.51C214.72 59.06 213.63 57.87 212.24 57.78C210.8 57.69 209.44 58.94 209.38 60.42C209.31 61.91 210.52 63.19 212.04 63.22Z" fill="#1A1818" fill-opacity="1.000000" fill-rule="evenodd"/>
		</g>
	</g>
	<g mask="url(#mask1_17312)">
		<g style="mix-blend-mode:normal">
			<path id="Path 520" d="M240.79 53.47C242.37 53.52 243.51 52.38 243.51 50.78C243.5 49.33 242.43 48.13 241.04 48.03C239.59 47.93 238.24 49.16 238.16 50.65C238.08 52.14 239.28 53.43 240.79 53.47Z" fill="#1A1818" fill-opacity="1.000000" fill-rule="evenodd"/>
		</g>
	</g>
	<g mask="url(#mask1_17312)">
		<g style="mix-blend-mode:normal">
			<path id="Path 521" d="M288.8 43.68C290.3 43.7 291.37 42.68 291.42 41.17C291.48 39.62 290.31 38.33 288.84 38.32C287.42 38.32 286.1 39.7 286.15 41.13C286.21 42.54 287.39 43.67 288.8 43.68Z" fill="#1A1818" fill-opacity="1.000000" fill-rule="evenodd"/>
		</g>
	</g>
	<g mask="url(#mask1_17312)">
		<g style="mix-blend-mode:normal">
			<path id="Path 522" d="M48.96 184.49C47.64 184.53 46.37 185.79 46.32 187.13L51.6 187.28C51.64 185.75 50.41 184.46 48.96 184.49Z" fill="#1A1818" fill-opacity="1.000000" fill-rule="evenodd"/>
		</g>
	</g>
	<g mask="url(#mask1_17312)">
		<g style="mix-blend-mode:normal">
			<path id="Path 523" d="M58.8 174.72C57.36 174.6 55.99 175.81 55.89 177.3C55.79 178.79 56.99 180.11 58.49 180.16C60.07 180.21 61.22 179.1 61.24 177.5C61.25 176.05 60.19 174.84 58.8 174.72Z" fill="#1A1818" fill-opacity="1.000000" fill-rule="evenodd"/>
		</g>
	</g>
	<g mask="url(#mask1_17312)">
		<g style="mix-blend-mode:normal">
			<path id="Path 524" d="M144.9 92.38C146.36 92.4 147.46 91.34 147.51 89.86C147.55 88.41 146.46 87.18 145.08 87.08C143.69 87 142.27 88.36 142.29 89.79C142.3 91.18 143.49 92.36 144.9 92.38Z" fill="#1A1818" fill-opacity="1.000000" fill-rule="evenodd"/>
		</g>
	</g>
	<g mask="url(#mask1_17312)">
		<g style="mix-blend-mode:normal">
			<path id="Path 525" d="M269.62 43.63C271.04 43.64 272.18 42.51 272.19 41.07C272.2 39.64 271.05 38.43 269.67 38.41C268.33 38.4 267.07 39.66 267.06 41.02C267.04 42.41 268.22 43.61 269.62 43.63Z" fill="#1A1818" fill-opacity="1.000000" fill-rule="evenodd"/>
		</g>
	</g>
	<g mask="url(#mask1_17312)">
		<g style="mix-blend-mode:normal">
			<path id="Path 526" d="M221.71 53.35C223.1 53.33 224.24 52.13 224.2 50.7C224.16 49.37 223.09 48.29 221.78 48.24C220.38 48.18 219.17 49.33 219.16 50.76C219.13 52.18 220.3 53.36 221.71 53.35Z" fill="#1A1818" fill-opacity="1.000000" fill-rule="evenodd"/>
		</g>
	</g>
	<g mask="url(#mask1_17312)">
		<g style="mix-blend-mode:normal">
			<path id="Path 527" d="M154.54 82.58C155.86 82.57 156.98 81.48 157.05 80.14C157.11 78.68 155.96 77.47 154.53 77.47C153.18 77.48 152.08 78.55 152.03 79.92C151.96 81.37 153.11 82.58 154.54 82.58Z" fill="#1A1818" fill-opacity="1.000000" fill-rule="evenodd"/>
		</g>
	</g>
	<g mask="url(#mask1_17312)">
		<g style="mix-blend-mode:normal">
			<path id="Path 528" d="M193.02 63.08C194.43 63.02 195.54 61.73 195.41 60.3C195.29 58.95 194.14 57.93 192.8 57.98C191.36 58.04 190.28 59.31 190.41 60.77C190.53 62.14 191.67 63.15 193.02 63.08Z" fill="#1A1818" fill-opacity="1.000000" fill-rule="evenodd"/>
		</g>
	</g>
	<g mask="url(#mask1_17312)">
		<g style="mix-blend-mode:normal">
			<path id="Path 529" d="M164.14 72.77C165.4 72.75 166.57 71.56 166.58 70.28C166.58 68.95 165.48 67.88 164.12 67.87C162.71 67.87 161.74 68.86 161.76 70.3C161.77 71.69 162.83 72.78 164.14 72.77Z" fill="#1A1818" fill-opacity="1.000000" fill-rule="evenodd"/>
		</g>
	</g>
	<g mask="url(#mask1_17312)">
		<g style="mix-blend-mode:normal">
			<path id="Path 530" d="M250.43 43.57C251.81 43.59 253.02 42.32 252.96 40.91C252.87 39.57 251.75 38.55 250.4 38.58C249.02 38.6 248.01 39.66 248.04 41.07C248.05 42.46 249.1 43.55 250.43 43.57Z" fill="#1A1818" fill-opacity="1.000000" fill-rule="evenodd"/>
		</g>
	</g>
	<g mask="url(#mask1_17312)">
		<g style="mix-blend-mode:normal">
			<path id="Path 531" d="M68.24 150.72C69.51 150.7 70.66 149.49 70.64 148.21C70.63 146.88 69.52 145.81 68.16 145.83C66.75 145.84 65.8 146.85 65.82 148.29C65.85 149.68 66.93 150.76 68.24 150.72Z" fill="#1A1818" fill-opacity="1.000000" fill-rule="evenodd"/>
		</g>
	</g>
	<g mask="url(#mask1_17312)">
		<g style="mix-blend-mode:normal">
			<path id="Path 532" d="M77.76 140.99C79.02 141 80.21 139.84 80.24 138.55C80.27 137.2 79.21 136.12 77.84 136.08C76.4 136.05 75.42 137.02 75.41 138.46C75.39 139.86 76.44 140.97 77.76 140.99Z" fill="#1A1818" fill-opacity="1.000000" fill-rule="evenodd"/>
		</g>
	</g>
	<g mask="url(#mask1_17312)">
		<g style="mix-blend-mode:normal">
			<path id="Path 533" d="M87.35 131.24C88.63 131.26 89.8 130.08 89.83 128.79C89.86 127.45 88.8 126.36 87.43 126.34C85.99 126.31 85.01 127.28 85.01 128.72C85 130.12 86.04 131.23 87.35 131.24Z" fill="#1A1818" fill-opacity="1.000000" fill-rule="evenodd"/>
		</g>
	</g>
	<g mask="url(#mask1_17312)">
		<g style="mix-blend-mode:normal">
			<path id="Path 534" d="M106.69 111.74C107.95 111.67 109.09 110.41 109.02 109.15C108.96 107.83 107.8 106.8 106.46 106.84C105.06 106.9 104.13 107.93 104.2 109.39C104.27 110.76 105.39 111.82 106.69 111.74Z" fill="#1A1818" fill-opacity="1.000000" fill-rule="evenodd"/>
		</g>
	</g>
	<g mask="url(#mask1_17312)">
		<g style="mix-blend-mode:normal">
			<path id="Path 535" d="M96.9 121.5C98.17 121.55 99.37 120.39 99.43 119.1C99.48 117.77 98.43 116.65 97.07 116.6C95.63 116.54 94.63 117.49 94.6 118.93C94.56 120.31 95.59 121.46 96.9 121.5Z" fill="#1A1818" fill-opacity="1.000000" fill-rule="evenodd"/>
		</g>
	</g>
	<g mask="url(#mask1_17312)">
		<g style="mix-blend-mode:normal">
			<path id="Path 536" d="M202.39 53.24C203.6 53.31 204.87 52.11 204.91 50.85C204.94 49.54 203.84 48.42 202.49 48.42C201.09 48.42 200.12 49.43 200.16 50.86C200.2 52.11 201.19 53.18 202.39 53.24Z" fill="#1A1818" fill-opacity="1.000000" fill-rule="evenodd"/>
		</g>
	</g>
	<g mask="url(#mask1_17312)">
		<g style="mix-blend-mode:normal">
			<path id="Path 537" d="M58.66 160.43C59.91 160.39 61.09 159.11 61.02 157.87C60.96 156.66 59.9 155.64 58.66 155.61C57.25 155.57 56.26 156.56 56.26 157.99C56.27 159.36 57.37 160.48 58.66 160.43Z" fill="#1A1818" fill-opacity="1.000000" fill-rule="evenodd"/>
		</g>
	</g>
	<g mask="url(#mask1_17312)">
		<g style="mix-blend-mode:normal">
			<path id="Path 538" d="M116.28 101.96C117.52 101.89 118.67 100.58 118.57 99.35C118.47 98.12 117.42 97.14 116.17 97.14C114.77 97.13 113.79 98.14 113.82 99.57C113.85 100.93 115 102.04 116.28 101.96Z" fill="#1A1818" fill-opacity="1.000000" fill-rule="evenodd"/>
		</g>
	</g>
	<g mask="url(#mask1_17312)">
		<g style="mix-blend-mode:normal">
			<path id="Path 539" d="M279.14 33.69C280.37 33.76 281.61 32.53 281.59 31.28C281.59 30.07 280.55 29.01 279.34 28.96C278.07 28.9 277.05 29.8 276.93 31.08C276.83 32.41 277.85 33.63 279.14 33.69Z" fill="#1A1818" fill-opacity="1.000000" fill-rule="evenodd"/>
		</g>
	</g>
	<g mask="url(#mask1_17312)">
		<g style="mix-blend-mode:normal">
			<path id="Path 540" d="M49.01 170.12C50.25 170.12 51.44 168.86 51.37 167.62C51.3 166.31 50.08 165.27 48.77 165.39C47.52 165.52 46.64 166.55 46.7 167.85C46.76 169.08 47.81 170.12 49.01 170.12Z" fill="#1A1818" fill-opacity="1.000000" fill-rule="evenodd"/>
		</g>
	</g>
	<g mask="url(#mask1_17312)">
		<g style="mix-blend-mode:normal">
			<path id="Path 541" d="M125.83 92.08C127.05 92.04 128.08 90.93 128.04 89.68C127.99 88.44 126.9 87.41 125.67 87.45C124.42 87.5 123.44 88.57 123.48 89.84C123.51 91.1 124.58 92.12 125.83 92.08Z" fill="#1A1818" fill-opacity="1.000000" fill-rule="evenodd"/>
		</g>
	</g>
	<g mask="url(#mask1_17312)">
		<g style="mix-blend-mode:normal">
			<path id="Path 542" d="M231.2 43.45C232.45 43.49 233.7 42.2 233.63 40.94C233.58 39.71 232.47 38.67 231.23 38.7C229.94 38.72 228.97 39.71 228.97 41.03C228.96 42.29 229.99 43.4 231.2 43.45Z" fill="#1A1818" fill-opacity="1.000000" fill-rule="evenodd"/>
		</g>
	</g>
	<g mask="url(#mask1_17312)">
		<g style="mix-blend-mode:normal">
			<path id="Path 543" d="M173.7 62.84C174.97 62.85 175.99 61.82 175.99 60.53C175.99 59.27 174.96 58.23 173.71 58.23C172.47 58.23 171.45 59.26 171.44 60.52C171.43 61.78 172.47 62.83 173.7 62.84Z" fill="#1A1818" fill-opacity="1.000000" fill-rule="evenodd"/>
		</g>
	</g>
	<g mask="url(#mask1_17312)">
		<g style="mix-blend-mode:normal">
			<path id="Path 544" d="M135.36 82.24C136.58 82.22 137.44 81.39 137.52 80.16C137.58 78.86 136.66 77.79 135.42 77.75C134.22 77.71 133.13 78.77 133.1 79.98C133.07 81.22 134.09 82.24 135.36 82.24Z" fill="#1A1818" fill-opacity="1.000000" fill-rule="evenodd"/>
		</g>
	</g>
	<g mask="url(#mask1_17312)">
		<g style="mix-blend-mode:normal">
			<path id="Path 545" d="M39.4 175.19C38.2 175.2 37.14 176.3 37.17 177.52C37.2 178.78 38.24 179.75 39.52 179.69C40.73 179.64 41.58 178.76 41.6 177.52C41.63 176.24 40.63 175.17 39.4 175.19Z" fill="#1A1818" fill-opacity="1.000000" fill-rule="evenodd"/>
		</g>
	</g>
	<g mask="url(#mask1_17312)">
		<g style="mix-blend-mode:normal">
			<path id="Path 546" d="M260 33.53C261.3 33.55 262.26 32.58 262.25 31.26C262.23 30.07 261.33 29.09 260.18 29.02C258.99 28.93 257.86 29.96 257.8 31.19C257.74 32.44 258.75 33.51 260 33.53Z" fill="#1A1818" fill-opacity="1.000000" fill-rule="evenodd"/>
		</g>
	</g>
	<g mask="url(#mask1_17312)">
		<g style="mix-blend-mode:normal">
			<path id="Path 547" d="M212 43.2C213.26 43.24 214.14 42.41 214.2 41.16C214.27 39.85 213.27 38.75 212.03 38.8C210.95 38.83 209.89 39.92 209.88 41.02C209.87 42.19 210.81 43.16 212 43.2Z" fill="#1A1818" fill-opacity="1.000000" fill-rule="evenodd"/>
		</g>
	</g>
	<g mask="url(#mask1_17312)">
		<g style="mix-blend-mode:normal">
			<path id="Path 548" d="M145 72.39C146.22 72.36 147.08 71.43 147.03 70.19C146.98 69.01 145.98 68.02 144.86 68.07C143.78 68.13 142.75 69.26 142.78 70.34C142.82 71.51 143.82 72.43 145 72.39Z" fill="#1A1818" fill-opacity="1.000000" fill-rule="evenodd"/>
		</g>
	</g>
	<g mask="url(#mask1_17312)">
		<g style="mix-blend-mode:normal">
			<path id="Path 549" d="M183.38 52.91C184.59 52.87 185.45 51.94 185.4 50.7C185.36 49.51 184.35 48.53 183.22 48.58C182.15 48.64 181.1 49.77 181.14 50.86C181.19 52.03 182.19 52.94 183.38 52.91Z" fill="#1A1818" fill-opacity="1.000000" fill-rule="evenodd"/>
		</g>
	</g>
	<g mask="url(#mask1_17312)">
		<g style="mix-blend-mode:normal">
			<path id="Path 550" d="M29.83 185.02C28.77 185.01 27.67 186.12 27.65 187.2L31.91 187.22C31.91 186.02 30.97 185.02 29.83 185.02Z" fill="#1A1818" fill-opacity="1.000000" fill-rule="evenodd"/>
		</g>
	</g>
	<g mask="url(#mask1_17312)">
		<g style="mix-blend-mode:normal">
			<path id="Path 551" d="M240.8 33.42C242.03 33.46 242.93 32.59 242.96 31.35C242.98 30.14 242.06 29.13 240.91 29.1C239.85 29.08 238.73 30.15 238.7 31.23C238.65 32.38 239.63 33.39 240.8 33.42Z" fill="#1A1818" fill-opacity="1.000000" fill-rule="evenodd"/>
		</g>
	</g>
	<g mask="url(#mask1_17312)">
		<g style="mix-blend-mode:normal">
			<path id="Path 552" d="M288.9 23.64C289.97 23.61 290.82 22.76 290.88 21.67C290.94 20.49 290.03 19.46 288.88 19.44C287.8 19.4 286.73 20.45 286.73 21.56C286.73 22.71 287.73 23.67 288.9 23.64Z" fill="#1A1818" fill-opacity="1.000000" fill-rule="evenodd"/>
		</g>
	</g>
	<g mask="url(#mask1_17312)">
		<g style="mix-blend-mode:normal">
			<path id="Path 553" d="M87.4 111.31C88.55 111.3 89.5 110.24 89.39 109.07C89.29 107.99 88.35 107.19 87.26 107.25C86.14 107.31 85.35 108.2 85.4 109.34C85.45 110.44 86.33 111.32 87.4 111.31Z" fill="#1A1818" fill-opacity="1.000000" fill-rule="evenodd"/>
		</g>
	</g>
	<g mask="url(#mask1_17312)">
		<g style="mix-blend-mode:normal">
			<path id="Path 554" d="M68.2 130.8C69.36 130.8 70.3 129.73 70.21 128.58C70.11 127.49 69.17 126.68 68.07 126.73C66.97 126.79 66.17 127.68 66.2 128.82C66.25 129.92 67.14 130.8 68.2 130.8Z" fill="#1A1818" fill-opacity="1.000000" fill-rule="evenodd"/>
		</g>
	</g>
	<g mask="url(#mask1_17312)">
		<g style="mix-blend-mode:normal">
			<path id="Path 555" d="M77.69 121.06C78.84 121.11 79.85 120.1 79.81 118.93C79.77 117.85 78.86 116.98 77.77 116.98C76.65 116.98 75.81 117.83 75.79 118.97C75.78 120.07 76.63 121 77.69 121.06Z" fill="#1A1818" fill-opacity="1.000000" fill-rule="evenodd"/>
		</g>
	</g>
	<g mask="url(#mask1_17312)">
		<g style="mix-blend-mode:normal">
			<path id="Path 556" d="M269.62 23.57C270.64 23.58 271.6 22.64 271.62 21.61C271.66 20.55 270.79 19.65 269.7 19.62C268.55 19.59 267.76 20.36 267.74 21.52C267.73 22.63 268.57 23.55 269.62 23.57Z" fill="#1A1818" fill-opacity="1.000000" fill-rule="evenodd"/>
		</g>
	</g>
	<g mask="url(#mask1_17312)">
		<g style="mix-blend-mode:normal">
			<path id="Path 557" d="M96.99 101.52C98 101.52 98.96 100.56 98.96 99.52C98.96 98.46 98.07 97.59 96.97 97.58C95.83 97.56 95.06 98.36 95.07 99.52C95.08 100.64 95.94 101.54 96.99 101.52Z" fill="#1A1818" fill-opacity="1.000000" fill-rule="evenodd"/>
		</g>
	</g>
	<g mask="url(#mask1_17312)">
		<g style="mix-blend-mode:normal">
			<path id="Path 558" d="M221.66 33.31C222.67 33.33 223.63 32.39 223.67 31.35C223.69 30.29 222.83 29.39 221.74 29.36C220.58 29.34 219.79 30.11 219.78 31.27C219.77 32.38 220.61 33.3 221.66 33.31Z" fill="#1A1818" fill-opacity="1.000000" fill-rule="evenodd"/>
		</g>
	</g>
	<g mask="url(#mask1_17312)">
		<g style="mix-blend-mode:normal">
			<path id="Path 559" d="M154.62 62.55C155.63 62.49 156.56 61.49 156.52 60.47C156.48 59.42 155.55 58.57 154.47 58.59C153.32 58.62 152.58 59.44 152.62 60.62C152.67 61.73 153.57 62.6 154.62 62.55Z" fill="#1A1818" fill-opacity="1.000000" fill-rule="evenodd"/>
		</g>
	</g>
	<g mask="url(#mask1_17312)">
		<g style="mix-blend-mode:normal">
			<path id="Path 560" d="M58.69 140.51C59.71 140.45 60.63 139.44 60.59 138.43C60.55 137.38 59.6 136.52 58.53 136.56C57.39 136.58 56.65 137.41 56.7 138.59C56.75 139.69 57.65 140.56 58.69 140.51Z" fill="#1A1818" fill-opacity="1.000000" fill-rule="evenodd"/>
		</g>
	</g>
	<g mask="url(#mask1_17312)">
		<g style="mix-blend-mode:normal">
			<path id="Path 561" d="M192.93 43.06C193.94 43.04 194.89 42.08 194.89 41.05C194.89 39.97 194.01 39.11 192.9 39.11C191.75 39.1 190.98 39.9 191 41.07C191.01 42.18 191.88 43.07 192.93 43.06Z" fill="#1A1818" fill-opacity="1.000000" fill-rule="evenodd"/>
		</g>
	</g>
	<g mask="url(#mask1_17312)">
		<g style="mix-blend-mode:normal">
			<path id="Path 562" d="M48.93 150.21C49.89 150.26 50.96 149.22 50.94 148.22C50.94 147.16 49.95 146.27 48.87 146.35C47.83 146.42 47.14 147.2 47.15 148.28C47.17 149.29 47.97 150.17 48.93 150.21Z" fill="#1A1818" fill-opacity="1.000000" fill-rule="evenodd"/>
		</g>
	</g>
	<g mask="url(#mask1_17312)">
		<g style="mix-blend-mode:normal">
			<path id="Path 563" d="M106.64 91.73C107.54 91.68 108.46 90.73 108.5 89.83C108.54 88.77 107.6 87.86 106.51 87.89C105.44 87.92 104.74 88.64 104.71 89.73C104.69 90.83 105.6 91.78 106.64 91.73Z" fill="#1A1818" fill-opacity="1.000000" fill-rule="evenodd"/>
		</g>
	</g>
	<g mask="url(#mask1_17312)">
		<g style="mix-blend-mode:normal">
			<path id="Path 564" d="M164.06 52.69C165.04 52.72 166.05 51.65 165.99 50.67C165.93 49.71 165.05 48.91 164.07 48.94C163.07 48.97 162.31 49.77 162.31 50.79C162.3 51.79 163.11 52.64 164.06 52.69Z" fill="#1A1818" fill-opacity="1.000000" fill-rule="evenodd"/>
		</g>
	</g>
	<g mask="url(#mask1_17312)">
		<g style="mix-blend-mode:normal">
			<path id="Path 565" d="M37.59 157.87C37.53 158.86 38.28 159.78 39.24 159.88C40.23 159.98 41.29 158.99 41.29 157.98C41.29 157 40.46 156.16 39.48 156.14C38.47 156.11 37.65 156.85 37.59 157.87Z" fill="#1A1818" fill-opacity="1.000000" fill-rule="evenodd"/>
		</g>
	</g>
	<g mask="url(#mask1_17312)">
		<g style="mix-blend-mode:normal">
			<path id="Path 566" d="M250.38 23.46C251.33 23.52 252.39 22.44 252.34 21.46C252.29 20.5 251.42 19.69 250.43 19.71C249.41 19.72 248.66 20.49 248.63 21.53C248.62 22.53 249.41 23.41 250.38 23.46Z" fill="#1A1818" fill-opacity="1.000000" fill-rule="evenodd"/>
		</g>
	</g>
	<g mask="url(#mask1_17312)">
		<g style="mix-blend-mode:normal">
			<path id="Path 567" d="M116.14 81.91C117.05 81.92 117.97 81.04 118.01 80.1C118.06 79.13 117.28 78.25 116.3 78.18C115.21 78.1 114.33 78.95 114.35 80.06C114.36 81.06 115.17 81.9 116.14 81.91Z" fill="#1A1818" fill-opacity="1.000000" fill-rule="evenodd"/>
		</g>
	</g>
	<g mask="url(#mask1_17312)">
		<g style="mix-blend-mode:normal">
			<path id="Path 568" d="M30.04 169.49C30.95 169.38 31.59 168.62 31.57 167.67C31.54 166.65 30.68 165.85 29.71 165.91C28.74 165.98 27.96 166.91 28.05 167.88C28.14 168.89 29.03 169.6 30.04 169.49Z" fill="#1A1818" fill-opacity="1.000000" fill-rule="evenodd"/>
		</g>
	</g>
	<g mask="url(#mask1_17312)">
		<g style="mix-blend-mode:normal">
			<path id="Path 569" d="M202.34 32.98C203.33 33.06 204.06 32.46 204.15 31.48C204.24 30.42 203.5 29.54 202.5 29.53C201.65 29.52 200.8 30.33 200.75 31.2C200.7 32.1 201.41 32.9 202.34 32.98Z" fill="#1A1818" fill-opacity="1.000000" fill-rule="evenodd"/>
		</g>
	</g>
	<g mask="url(#mask1_17312)">
		<g style="mix-blend-mode:normal">
			<path id="Path 570" d="M231.34 23.24C232.33 23.2 232.96 22.52 232.93 21.52C232.91 20.59 232.17 19.8 231.29 19.79C230.35 19.78 229.47 20.73 229.54 21.68C229.62 22.59 230.4 23.26 231.34 23.24Z" fill="#1A1818" fill-opacity="1.000000" fill-rule="evenodd"/>
		</g>
	</g>
	<g mask="url(#mask1_17312)">
		<g style="mix-blend-mode:normal">
			<path id="Path 571" d="M125.82 71.96C126.79 71.93 127.44 71.23 127.41 70.24C127.39 69.3 126.64 68.52 125.77 68.51C124.82 68.49 123.94 69.45 124.02 70.4C124.1 71.31 124.88 71.99 125.82 71.96Z" fill="#1A1818" fill-opacity="1.000000" fill-rule="evenodd"/>
		</g>
	</g>
	<g mask="url(#mask1_17312)">
		<g style="mix-blend-mode:normal">
			<path id="Path 572" d="M173.74 42.67C174.71 42.67 175.37 41.95 175.31 40.95C175.25 39.99 174.68 39.48 173.79 39.36C172.98 39.25 172.06 40.15 172.03 40.99C172.01 41.86 172.83 42.68 173.74 42.67Z" fill="#1A1818" fill-opacity="1.000000" fill-rule="evenodd"/>
		</g>
	</g>
	<g mask="url(#mask1_17312)">
		<g style="mix-blend-mode:normal">
			<path id="Path 573" d="M279.26 13.43C280.23 13.43 280.9 12.71 280.83 11.71C280.78 10.75 280.2 10.24 279.32 10.12C278.5 10.01 277.58 10.92 277.55 11.76C277.53 12.62 278.35 13.44 279.26 13.43Z" fill="#1A1818" fill-opacity="1.000000" fill-rule="evenodd"/>
		</g>
	</g>
	<g mask="url(#mask1_17312)">
		<g style="mix-blend-mode:normal">
			<path id="Path 574" d="M20.31 175.78C19.49 175.67 18.56 176.58 18.54 177.42C18.52 178.29 19.34 179.1 20.24 179.1C21.22 179.1 21.89 178.38 21.83 177.37C21.76 176.42 21.18 175.91 20.31 175.78Z" fill="#1A1818" fill-opacity="1.000000" fill-rule="evenodd"/>
		</g>
	</g>
	<g mask="url(#mask1_17312)">
		<g style="mix-blend-mode:normal">
			<path id="Path 575" d="M135.55 62.11C136.47 61.97 136.95 61.38 136.9 60.44C136.86 59.48 136.23 59 135.36 58.91C134.53 58.83 133.68 59.77 133.74 60.62C133.79 61.53 134.66 62.25 135.55 62.11Z" fill="#1A1818" fill-opacity="1.000000" fill-rule="evenodd"/>
		</g>
	</g>
	<g mask="url(#mask1_17312)">
		<g style="mix-blend-mode:normal">
			<path id="Path 576" d="M260.52 13.37C260.8 12.94 261.43 12.38 261.51 11.75C261.63 10.82 260.9 10.31 260 10.34C259.07 10.36 258.56 10.94 258.6 11.89C258.66 12.82 259.2 13.32 260.52 13.37Z" fill="#1A1818" fill-opacity="1.000000" fill-rule="evenodd"/>
		</g>
	</g>
	<g mask="url(#mask1_17312)">
		<g style="mix-blend-mode:normal">
			<path id="Path 577" d="M10.69 185.76C9.81 185.71 9.17 186.36 9.19 187.25L12.14 187.09C12.03 186.26 11.53 185.8 10.69 185.76Z" fill="#1A1818" fill-opacity="1.000000" fill-rule="evenodd"/>
		</g>
	</g>
	<g mask="url(#mask1_17312)">
		<g style="mix-blend-mode:normal">
			<path id="Path 578" d="M213.55 21.46C213.5 20.67 212.66 19.92 211.89 20.21C211.36 20.41 210.96 21.01 210.18 21.71C211.04 22.31 211.52 22.85 212.1 22.99C212.79 23.17 213.59 22.21 213.55 21.46Z" fill="#1A1818" fill-opacity="1.000000" fill-rule="evenodd"/>
		</g>
	</g>
	<g mask="url(#mask1_17312)">
		<g style="mix-blend-mode:normal">
			<path id="Path 579" d="M184.76 31.29C184.76 30.5 183.98 29.71 183.21 29.95C182.66 30.11 182.22 30.68 181.41 31.32C182.23 31.98 182.68 32.55 183.23 32.74C183.92 32.96 184.76 32.05 184.76 31.29Z" fill="#1A1818" fill-opacity="1.000000" fill-rule="evenodd"/>
		</g>
	</g>
	<g mask="url(#mask1_17312)">
		<g style="mix-blend-mode:normal">
			<path id="Path 580" d="M58.92 120.51C59.21 120.13 59.86 119.61 60 118.98C60.15 118.23 59.55 117.66 58.71 117.62C57.88 117.57 57.36 117.94 57.23 118.81C57.11 119.64 57.74 120.44 58.92 120.51Z" fill="#1A1818" fill-opacity="1.000000" fill-rule="evenodd"/>
		</g>
	</g>
	<g mask="url(#mask1_17312)">
		<g style="mix-blend-mode:normal">
			<path id="Path 581" d="M49.01 130.22C49.76 130.22 50.65 129.35 50.43 128.66C50.23 128.09 49.67 127.65 49.01 126.82C48.38 127.64 47.83 128.09 47.68 128.65C47.45 129.44 48.23 130.23 49.01 130.22Z" fill="#1A1818" fill-opacity="1.000000" fill-rule="evenodd"/>
		</g>
	</g>
	<g mask="url(#mask1_17312)">
		<g style="mix-blend-mode:normal">
			<path id="Path 582" d="M69.65 109.2C69.63 108.41 68.8 107.64 68.04 107.9C67.49 108.09 67.08 108.68 66.28 109.37C67.14 109.99 67.6 110.54 68.17 110.69C68.87 110.89 69.68 109.96 69.65 109.2Z" fill="#1A1818" fill-opacity="1.000000" fill-rule="evenodd"/>
		</g>
	</g>
	<g mask="url(#mask1_17312)">
		<g style="mix-blend-mode:normal">
			<path id="Path 583" d="M144.78 52.21C145.41 52.14 145.98 51.51 146.95 50.88C146.09 50.19 145.66 49.61 145.1 49.44C144.26 49.17 143.58 49.87 143.56 50.76C143.55 51.62 144.05 52.28 144.78 52.21Z" fill="#1A1818" fill-opacity="1.000000" fill-rule="evenodd"/>
		</g>
	</g>
	<g mask="url(#mask1_17312)">
		<g style="mix-blend-mode:normal">
			<path id="Path 584" d="M77.88 101.56C78.5 100.56 79.12 99.99 79.18 99.36C79.25 98.61 78.61 98.1 77.76 98.11C76.88 98.13 76.19 98.84 76.45 99.68C76.63 100.25 77.2 100.69 77.88 101.56Z" fill="#1A1818" fill-opacity="1.000000" fill-rule="evenodd"/>
		</g>
	</g>
	<g mask="url(#mask1_17312)">
		<g style="mix-blend-mode:normal">
			<path id="Path 585" d="M40.74 138.59C40.79 137.79 40.33 137.11 39.51 137.2C38.95 137.27 38.44 137.78 37.52 138.33C38.37 139.06 38.79 139.7 39.33 139.82C40.09 139.99 40.69 139.4 40.74 138.59Z" fill="#1A1818" fill-opacity="1.000000" fill-rule="evenodd"/>
		</g>
	</g>
	<g mask="url(#mask1_17312)">
		<g style="mix-blend-mode:normal">
			<path id="Path 586" d="M242.19 11.87C242.22 11.08 241.76 10.41 240.93 10.52C240.38 10.59 239.88 11.12 238.95 11.69C239.83 12.39 240.27 13.03 240.82 13.13C241.57 13.29 242.17 12.69 242.19 11.87Z" fill="#1A1818" fill-opacity="1.000000" fill-rule="evenodd"/>
		</g>
	</g>
	<g mask="url(#mask1_17312)">
		<g style="mix-blend-mode:normal">
			<path id="Path 587" d="M88.67 89.78C88.79 89.03 88.25 88.45 87.4 88.44C86.57 88.44 85.97 88.93 86.11 89.74C86.2 90.31 86.75 90.8 87.35 91.67C87.98 90.81 88.59 90.35 88.67 89.78Z" fill="#1A1818" fill-opacity="1.000000" fill-rule="evenodd"/>
		</g>
	</g>
	<g mask="url(#mask1_17312)">
		<g style="mix-blend-mode:normal">
			<path id="Path 588" d="M96.95 81.33C97.74 81.47 98.39 80.82 98.26 80.01C98.17 79.45 97.54 78.99 96.83 78.05C96.27 79.05 95.71 79.63 95.74 80.16C95.77 80.59 96.46 81.25 96.95 81.33Z" fill="#1A1818" fill-opacity="1.000000" fill-rule="evenodd"/>
		</g>
	</g>
	<g mask="url(#mask1_17312)">
		<g style="mix-blend-mode:normal">
			<path id="Path 589" d="M289.94 2.12C289.9 1.66 289.36 0.96 288.92 0.86C288.15 0.67 287.53 1.29 287.63 2.09C287.68 2.57 288.24 3 288.83 3.81C289.39 3.01 289.98 2.54 289.94 2.12Z" fill="#1A1818" fill-opacity="1.000000" fill-rule="evenodd"/>
		</g>
	</g>
	<g mask="url(#mask1_17312)">
		<g style="mix-blend-mode:normal">
			<path id="Path 590" d="M155.71 41.02C155.66 40.2 155.18 39.59 154.34 39.83C153.86 39.97 153.49 40.55 152.77 41.21C153.61 41.7 154.07 42.14 154.59 42.21C155.33 42.31 155.75 41.74 155.71 41.02Z" fill="#1A1818" fill-opacity="1.000000" fill-rule="evenodd"/>
		</g>
	</g>
	<g mask="url(#mask1_17312)">
		<g style="mix-blend-mode:normal">
			<path id="Path 591" d="M31 148.21C30.95 147.4 30.47 146.79 29.64 147.03C29.16 147.16 28.79 147.74 28.06 148.4C28.9 148.89 29.36 149.33 29.88 149.41C30.61 149.5 31.04 148.94 31 148.21Z" fill="#1A1818" fill-opacity="1.000000" fill-rule="evenodd"/>
		</g>
	</g>
	<g mask="url(#mask1_17312)">
		<g style="mix-blend-mode:normal">
			<path id="Path 592" d="M106.63 71.35C106.87 71.42 107.6 70.73 107.62 70.38C107.62 69.89 107.15 69.4 106.67 68.49C106.05 69.34 105.41 69.83 105.44 70.26C105.47 70.67 106.14 71.2 106.63 71.35Z" fill="#1A1818" fill-opacity="1.000000" fill-rule="evenodd"/>
		</g>
	</g>
	<g mask="url(#mask1_17312)">
		<g style="mix-blend-mode:normal">
			<path id="Path 593" d="M116.25 61.6C116.57 61.22 117.13 60.85 117.14 60.46C117.15 60.09 116.59 59.69 116.06 59.03C115.62 59.77 115.13 60.24 115.2 60.61C115.27 61 115.87 61.28 116.25 61.6Z" fill="#1A1818" fill-opacity="1.000000" fill-rule="evenodd"/>
		</g>
	</g>
	<g mask="url(#mask1_17312)">
		<g style="mix-blend-mode:normal">
			<path id="Path 594" d="M270.63 2.14C270.62 1.76 270.06 1.11 269.72 1.09C269.37 1.07 268.75 1.64 268.68 2.02C268.61 2.38 269.12 2.85 269.55 3.58C270.09 2.91 270.64 2.51 270.63 2.14Z" fill="#1A1818" fill-opacity="1.000000" fill-rule="evenodd"/>
		</g>
	</g>
	<g mask="url(#mask1_17312)">
		<g style="mix-blend-mode:normal">
			<path id="Path 595" d="M221.57 12.8C221.96 12.8 222.34 12.24 222.73 11.94C222.42 11.55 222.16 10.92 221.79 10.84C221.44 10.75 220.96 11.23 220.2 11.64C220.84 12.22 221.21 12.8 221.57 12.8Z" fill="#1A1818" fill-opacity="1.000000" fill-rule="evenodd"/>
		</g>
	</g>
	<g mask="url(#mask1_17312)">
		<g style="mix-blend-mode:normal">
			<path id="Path 596" d="M21.22 157.97C21.18 157.58 20.57 157.25 20.21 156.9C19.87 157.27 19.28 157.62 19.24 158.03C19.2 158.39 19.75 158.82 20.27 159.52C20.74 158.79 21.27 158.34 21.22 157.97Z" fill="#1A1818" fill-opacity="1.000000" fill-rule="evenodd"/>
		</g>
	</g>
	<g mask="url(#mask1_17312)">
		<g style="mix-blend-mode:normal">
			<path id="Path 597" d="M193.89 21.58C193.89 21.22 193.31 20.59 192.92 20.55C192.55 20.51 192.11 21.05 191.4 21.53C192.08 22.05 192.51 22.6 192.88 22.56C193.26 22.53 193.88 21.94 193.89 21.58Z" fill="#1A1818" fill-opacity="1.000000" fill-rule="evenodd"/>
		</g>
	</g>
	<g mask="url(#mask1_17312)">
		<g style="mix-blend-mode:normal">
			<path id="Path 598" d="M165.02 31.24C165.1 31.07 164.54 30.62 164.12 30.11C163.74 30.6 163.28 30.94 163.3 31.24C163.32 31.6 163.76 31.93 164.02 32.28C164.38 31.94 164.85 31.66 165.02 31.24Z" fill="#1A1818" fill-opacity="1.000000" fill-rule="evenodd"/>
		</g>
	</g>
	<g mask="url(#mask1_17312)">
		<g style="mix-blend-mode:normal">
			<path id="Path 599" d="M251.41 1.89C251.06 1.66 250.71 1.23 250.35 1.23C250.06 1.22 249.75 1.72 249.32 2.14C249.82 2.52 250.3 3.05 250.46 2.97C250.85 2.76 251.1 2.27 251.41 1.89Z" fill="#1A1818" fill-opacity="1.000000" fill-rule="evenodd"/>
		</g>
	</g>
	<g mask="url(#mask1_17312)">
		<g style="mix-blend-mode:normal">
			<path id="Path 600" d="M10.6 168.69C10.93 168.34 11.44 168.02 11.54 167.61C11.62 167.24 11.24 166.77 11.06 166.35C10.85 166.48 10.64 166.61 10.42 166.74C10.2 167.08 9.78 167.44 9.82 167.74C9.87 168.09 10.32 168.38 10.6 168.69Z" fill="#1A1818" fill-opacity="1.000000" fill-rule="evenodd"/>
		</g>
	</g>
	<g mask="url(#mask1_17312)">
		<g style="mix-blend-mode:normal">
			<path id="Path 601" d="M126.63 50.86C126.47 50.47 125.99 50.21 125.62 49.9C125.38 50.23 124.93 50.56 124.94 50.88C124.94 51.21 125.4 51.54 125.77 52.02C126.17 51.51 126.71 51.06 126.63 50.86Z" fill="#1A1818" fill-opacity="1.000000" fill-rule="evenodd"/>
		</g>
	</g>
	<g mask="url(#mask1_17312)">
		<g style="mix-blend-mode:normal">
			<path id="Path 602" d="M203.24 11.89C202.96 11.59 202.73 11.2 202.39 11.06C202.23 10.99 201.88 11.46 201.45 11.82C201.88 12.16 202.17 12.53 202.42 12.52C202.71 12.51 202.96 12.12 203.24 11.89Z" fill="#1A1818" fill-opacity="1.000000" fill-rule="evenodd"/>
		</g>
	</g>
	<g mask="url(#mask1_17312)">
		<g style="mix-blend-mode:normal">
			<path id="Path 603" d="M1 176.72C0.85 176.65 0.45 177.07 -0.01 177.41C0.39 177.77 0.65 178.18 0.91 178.19C1.19 178.19 1.49 177.83 1.78 177.62C1.53 177.31 1.33 176.88 1 176.72Z" fill="#1A1818" fill-opacity="1.000000" fill-rule="evenodd"/>
		</g>
	</g>
	<g mask="url(#mask1_17312)">
		<g style="mix-blend-mode:normal">
			<path id="Path 604" d="M135.94 41C136 40.91 135.59 40.37 135.44 40.39C135.14 40.44 134.85 40.72 134.39 41C134.77 41.31 135.03 41.66 135.2 41.62C135.5 41.55 135.78 41.27 135.94 41Z" fill="#1A1818" fill-opacity="1.000000" fill-rule="evenodd"/>
		</g>
	</g>
	<g mask="url(#mask1_17312)">
		<g style="mix-blend-mode:normal">
			<path id="Path 605" d="M231.12 2.63C231.41 2.56 231.74 2.3 231.87 2.03C231.94 1.88 231.64 1.55 231.4 1.1C231.02 1.52 230.71 1.75 230.6 2.06C230.56 2.18 231 2.67 231.12 2.63Z" fill="#1A1818" fill-opacity="1.000000" fill-rule="evenodd"/>
		</g>
	</g>
	<g mask="url(#mask1_17312)">
		<g style="mix-blend-mode:normal">
			<path id="Path 606" d="M173.72 22.39C173.99 22.07 174.33 21.81 174.29 21.66C174.21 21.34 173.91 21.1 173.69 20.83C173.47 21.1 173.17 21.35 173.08 21.67C173.04 21.81 173.43 22.07 173.72 22.39Z" fill="#1A1818" fill-opacity="1.000000" fill-rule="evenodd"/>
		</g>
	</g>
	<g mask="url(#mask1_17312)">
		<g style="mix-blend-mode:normal">
			<path id="Path 607" d="M59.17 99.28C58.98 99.23 58.72 99.08 58.6 99.16C58.38 99.3 58.24 99.58 58 99.9C58.36 100.01 58.68 100.18 58.72 100.13C58.92 99.88 59.03 99.57 59.17 99.28Z" fill="#1A1818" fill-opacity="1.000000" fill-rule="evenodd"/>
		</g>
	</g>
</svg>
