<svg width="274.952148" height="172.000244" viewBox="0 0 274.952 172" fill="none" xmlns="http://www.w3.org/2000/svg" xmlns:xlink="http://www.w3.org/1999/xlink">
	<desc>
			Created with Pixso.
	</desc>
	<defs/>
	<mask id="mask1_20022" mask-type="alpha" maskUnits="userSpaceOnUse" x="0.000000" y="0.000244" width="274.952148" height="172.000000">
		<g style="mix-blend-mode:normal">
			<rect id="Rectangle 2903" x="274.952148" y="172.000244" width="274.952148" height="172.000122" transform="rotate(180 274.952148 172.000244)" fill="#C4C4C4" fill-opacity="1.000000"/>
		</g>
	</mask>
	<g mask="url(#mask1_20022)">
		<g style="mix-blend-mode:normal">
			<path id="Path 21062" d="M13.6 167.4C16.06 167.47 17.9 169.42 17.86 171.89L8.92 171.78C8.96 169.29 11.07 167.31 13.6 167.4Z" fill="#1A1818" fill-opacity="1.000000" fill-rule="evenodd"/>
		</g>
	</g>
	<g mask="url(#mask1_20022)">
		<g style="mix-blend-mode:normal">
			<path id="Path 21063" d="M31.56 167.41C34.02 167.49 35.87 169.47 35.82 171.94L26.93 171.62C27.07 169.19 29.11 167.34 31.56 167.41Z" fill="#1A1818" fill-opacity="1.000000" fill-rule="evenodd"/>
		</g>
	</g>
	<g mask="url(#mask1_20022)">
		<g style="mix-blend-mode:normal">
			<path id="Path 21064" d="M13.46 158.28C11.06 158.3 9.04 156.3 9.01 153.89C9 151.48 10.98 149.48 13.4 149.47C15.85 149.46 17.81 151.39 17.83 153.84C17.84 156.25 15.87 158.27 13.46 158.28Z" fill="#1A1818" fill-opacity="1.000000" fill-rule="evenodd"/>
		</g>
	</g>
	<g mask="url(#mask1_20022)">
		<g style="mix-blend-mode:normal">
			<path id="Path 21065" d="M49.41 167.42C51.88 167.45 53.8 169.41 53.78 171.88L44.91 171.79C44.95 169.38 46.98 167.41 49.41 167.42Z" fill="#1A1818" fill-opacity="1.000000" fill-rule="evenodd"/>
		</g>
	</g>
	<g mask="url(#mask1_20022)">
		<g style="mix-blend-mode:normal">
			<path id="Path 21066" d="M4.41 158.45C6.88 158.42 8.84 160.35 8.86 162.81C8.88 165.25 6.9 167.28 4.49 167.3C2.1 167.32 0.02 165.28 0 162.89C-0.03 160.48 1.97 158.46 4.41 158.45Z" fill="#1A1818" fill-opacity="1.000000" fill-rule="evenodd"/>
		</g>
	</g>
	<g mask="url(#mask1_20022)">
		<g style="mix-blend-mode:normal">
			<path id="Path 21067" d="M22.48 158.44C24.95 158.47 26.86 160.44 26.83 162.91C26.8 165.35 24.75 167.34 22.35 167.3C19.94 167.26 17.91 165.17 17.96 162.79C18.01 160.37 20.04 158.41 22.48 158.44Z" fill="#1A1818" fill-opacity="1.000000" fill-rule="evenodd"/>
		</g>
	</g>
	<g mask="url(#mask1_20022)">
		<g style="mix-blend-mode:normal">
			<path id="Path 21068" d="M40.38 158.46C42.82 158.45 44.77 160.39 44.78 162.84C44.78 165.26 42.8 167.26 40.39 167.27C37.99 167.28 35.97 165.27 35.97 162.86C35.96 160.45 37.95 158.46 40.38 158.46Z" fill="#1A1818" fill-opacity="1.000000" fill-rule="evenodd"/>
		</g>
	</g>
	<g mask="url(#mask1_20022)">
		<g style="mix-blend-mode:normal">
			<path id="Path 21069" d="M58.28 158.47C60.72 158.43 62.71 160.38 62.73 162.83C62.74 165.26 60.75 167.24 58.32 167.23C55.96 167.21 54.05 165.34 53.98 162.98C53.9 160.54 55.84 158.51 58.28 158.47Z" fill="#1A1818" fill-opacity="1.000000" fill-rule="evenodd"/>
		</g>
	</g>
	<g mask="url(#mask1_20022)">
		<g style="mix-blend-mode:normal">
			<path id="Path 21070" d="M22.22 149.25C19.86 149.15 18.01 147.21 18.04 144.86C18.06 142.42 20.07 140.45 22.51 140.5C24.94 140.55 26.86 142.57 26.8 145.01C26.73 147.44 24.66 149.36 22.22 149.25Z" fill="#1A1818" fill-opacity="1.000000" fill-rule="evenodd"/>
		</g>
	</g>
	<g mask="url(#mask1_20022)">
		<g style="mix-blend-mode:normal">
			<path id="Path 21071" d="M4.53 149.26C2.09 149.31 0.08 147.34 0.07 144.91C0.06 142.56 1.92 140.6 4.26 140.5C6.7 140.41 8.75 142.31 8.83 144.74C8.9 147.18 6.96 149.21 4.53 149.26Z" fill="#1A1818" fill-opacity="1.000000" fill-rule="evenodd"/>
		</g>
	</g>
	<g mask="url(#mask1_20022)">
		<g style="mix-blend-mode:normal">
			<path id="Path 21072" d="M31.39 158.24C28.94 158.24 26.98 156.23 27.02 153.79C27.06 151.45 28.97 149.53 31.3 149.48C33.75 149.45 35.74 151.38 35.78 153.82C35.81 156.25 33.82 158.25 31.39 158.24Z" fill="#1A1818" fill-opacity="1.000000" fill-rule="evenodd"/>
		</g>
	</g>
	<g mask="url(#mask1_20022)">
		<g style="mix-blend-mode:normal">
			<path id="Path 21073" d="M49.23 158.24C46.86 158.16 45 156.24 44.99 153.89C44.98 151.45 46.97 149.47 49.4 149.48C51.84 149.51 53.79 151.51 53.74 153.95C53.7 156.38 51.66 158.31 49.23 158.24Z" fill="#1A1818" fill-opacity="1.000000" fill-rule="evenodd"/>
		</g>
	</g>
	<g mask="url(#mask1_20022)">
		<g style="mix-blend-mode:normal">
			<path id="Path 21074" d="M85.22 167.45C87.66 167.41 89.66 169.36 89.68 171.8L80.93 171.97C80.85 169.54 82.79 167.5 85.22 167.45Z" fill="#1A1818" fill-opacity="1.000000" fill-rule="evenodd"/>
		</g>
	</g>
	<g mask="url(#mask1_20022)">
		<g style="mix-blend-mode:normal">
			<path id="Path 21075" d="M67.28 167.45C69.73 167.43 71.71 169.39 71.71 171.83L62.97 171.94C62.91 169.51 64.85 167.48 67.28 167.45Z" fill="#1A1818" fill-opacity="1.000000" fill-rule="evenodd"/>
		</g>
	</g>
	<g mask="url(#mask1_20022)">
		<g style="mix-blend-mode:normal">
			<path id="Path 21076" d="M76.33 158.49C78.76 158.5 80.74 160.53 80.68 162.97C80.62 165.41 78.56 167.29 76.09 167.18C73.71 167.06 71.92 165.13 71.98 162.73C72.05 160.36 73.98 158.48 76.33 158.49Z" fill="#1A1818" fill-opacity="1.000000" fill-rule="evenodd"/>
		</g>
	</g>
	<g mask="url(#mask1_20022)">
		<g style="mix-blend-mode:normal">
			<path id="Path 21077" d="M40.42 149.22C37.94 149.23 36 147.28 36.05 144.8C36.09 142.43 38.01 140.53 40.36 140.52C42.8 140.5 44.78 142.52 44.75 144.96C44.71 147.31 42.79 149.19 40.42 149.22Z" fill="#1A1818" fill-opacity="1.000000" fill-rule="evenodd"/>
		</g>
	</g>
	<g mask="url(#mask1_20022)">
		<g style="mix-blend-mode:normal">
			<path id="Path 21078" d="M67.14 158.16C64.76 158.07 62.98 156.17 63.03 153.77C63.08 151.41 64.98 149.53 67.32 149.51C69.73 149.51 71.73 151.54 71.69 153.95C71.64 156.38 69.61 158.26 67.14 158.16Z" fill="#1A1818" fill-opacity="1.000000" fill-rule="evenodd"/>
		</g>
	</g>
	<g mask="url(#mask1_20022)">
		<g style="mix-blend-mode:normal">
			<path id="Path 21079" d="M13.65 140.19C11.15 140.3 9.18 138.47 9.13 136C9.08 133.62 10.88 131.67 13.21 131.55C15.61 131.43 17.72 133.38 17.78 135.78C17.84 138.13 16.01 140.08 13.65 140.19Z" fill="#1A1818" fill-opacity="1.000000" fill-rule="evenodd"/>
		</g>
	</g>
	<g mask="url(#mask1_20022)">
		<g style="mix-blend-mode:normal">
			<path id="Path 21080" d="M31.32 140.17C28.84 140.13 27 138.16 27.13 135.64C27.25 133.28 29.26 131.45 31.6 131.57C33.92 131.69 35.8 133.72 35.73 136.03C35.65 138.38 33.72 140.2 31.32 140.17Z" fill="#1A1818" fill-opacity="1.000000" fill-rule="evenodd"/>
		</g>
	</g>
	<g mask="url(#mask1_20022)">
		<g style="mix-blend-mode:normal">
			<path id="Path 21081" d="M103.31 167.5C105.63 167.53 107.59 169.49 107.6 171.81L99 171.96C98.94 169.48 100.88 167.47 103.31 167.5Z" fill="#1A1818" fill-opacity="1.000000" fill-rule="evenodd"/>
		</g>
	</g>
	<g mask="url(#mask1_20022)">
		<g style="mix-blend-mode:normal">
			<path id="Path 21082" d="M94.34 158.54C96.65 158.57 98.62 160.58 98.6 162.89C98.58 165.25 96.64 167.11 94.25 167.09C91.82 167.07 90.01 165.23 90.04 162.8C90.06 160.41 91.99 158.5 94.34 158.54Z" fill="#1A1818" fill-opacity="1.000000" fill-rule="evenodd"/>
		</g>
	</g>
	<g mask="url(#mask1_20022)">
		<g style="mix-blend-mode:normal">
			<path id="Path 21083" d="M58.33 149.15C55.83 149.15 53.98 147.21 54.08 144.69C54.18 142.32 56.15 140.47 58.49 140.55C60.8 140.63 62.72 142.65 62.68 144.95C62.64 147.3 60.72 149.16 58.33 149.15Z" fill="#1A1818" fill-opacity="1.000000" fill-rule="evenodd"/>
		</g>
	</g>
	<g mask="url(#mask1_20022)">
		<g style="mix-blend-mode:normal">
			<path id="Path 21084" d="M85.32 158.09C82.91 158.11 81.08 156.29 81.08 153.88C81.07 151.51 82.95 149.58 85.29 149.57C87.56 149.56 89.58 151.56 89.6 153.84C89.62 156.17 87.7 158.08 85.32 158.09Z" fill="#1A1818" fill-opacity="1.000000" fill-rule="evenodd"/>
		</g>
	</g>
	<g mask="url(#mask1_20022)">
		<g style="mix-blend-mode:normal">
			<path id="Path 21085" d="M4.31 131.14C1.91 131.07 0.16 129.2 0.21 126.77C0.29 124.41 2.27 122.53 4.59 122.61C6.88 122.71 8.83 124.78 8.74 127.05C8.65 129.39 6.7 131.2 4.31 131.14Z" fill="#1A1818" fill-opacity="1.000000" fill-rule="evenodd"/>
		</g>
	</g>
	<g mask="url(#mask1_20022)">
		<g style="mix-blend-mode:normal">
			<path id="Path 21086" d="M49.33 140.11C46.93 140.09 45.11 138.2 45.15 135.79C45.2 133.44 47.2 131.52 49.53 131.63C51.74 131.72 53.63 133.67 53.64 135.88C53.66 138.21 51.71 140.12 49.33 140.11Z" fill="#1A1818" fill-opacity="1.000000" fill-rule="evenodd"/>
		</g>
	</g>
	<g mask="url(#mask1_20022)">
		<g style="mix-blend-mode:normal">
			<path id="Path 21087" d="M22.46 131.11C20.17 131.14 18.32 129.39 18.22 127.12C18.12 124.76 19.92 122.78 22.26 122.67C24.53 122.58 26.6 124.51 26.67 126.81C26.73 129.12 24.81 131.09 22.46 131.11Z" fill="#1A1818" fill-opacity="1.000000" fill-rule="evenodd"/>
		</g>
	</g>
	<g mask="url(#mask1_20022)">
		<g style="mix-blend-mode:normal">
			<path id="Path 21088" d="M76.4 149.06C74.11 149.11 72.23 147.34 72.15 145.07C72.04 142.71 73.89 140.72 76.24 140.67C78.55 140.62 80.55 142.61 80.53 144.92C80.51 147.17 78.66 149.02 76.4 149.06Z" fill="#1A1818" fill-opacity="1.000000" fill-rule="evenodd"/>
		</g>
	</g>
	<g mask="url(#mask1_20022)">
		<g style="mix-blend-mode:normal">
			<path id="Path 21089" d="M67.39 140.04C65.12 140.08 63.22 138.24 63.19 135.96C63.16 133.67 64.98 131.8 67.27 131.77C69.58 131.73 71.44 133.54 71.47 135.84C71.5 138.13 69.68 140 67.39 140.04Z" fill="#1A1818" fill-opacity="1.000000" fill-rule="evenodd"/>
		</g>
	</g>
	<g mask="url(#mask1_20022)">
		<g style="mix-blend-mode:normal">
			<path id="Path 21090" d="M121.32 167.7C123.62 167.74 125.42 169.61 125.37 171.92L117.09 171.76C117.14 169.48 119.03 167.66 121.32 167.7Z" fill="#1A1818" fill-opacity="1.000000" fill-rule="evenodd"/>
		</g>
	</g>
	<g mask="url(#mask1_20022)">
		<g style="mix-blend-mode:normal">
			<path id="Path 21091" d="M40.33 131.06C38.06 131.03 36.2 129.14 36.24 126.87C36.27 124.59 38.13 122.75 40.43 122.78C42.73 122.8 44.54 124.66 44.52 126.96C44.49 129.26 42.62 131.09 40.33 131.06Z" fill="#1A1818" fill-opacity="1.000000" fill-rule="evenodd"/>
		</g>
	</g>
	<g mask="url(#mask1_20022)">
		<g style="mix-blend-mode:normal">
			<path id="Path 21092" d="M112.16 158.76C114.49 158.72 116.31 160.45 116.35 162.76C116.39 165.05 114.6 166.93 112.34 166.98C110.1 167.03 108.18 165.19 108.13 162.95C108.07 160.67 109.88 158.81 112.16 158.76Z" fill="#1A1818" fill-opacity="1.000000" fill-rule="evenodd"/>
		</g>
	</g>
	<g mask="url(#mask1_20022)">
		<g style="mix-blend-mode:normal">
			<path id="Path 21093" d="M13.32 122.05C11.16 121.98 9.36 120.16 9.32 118C9.28 115.73 11.13 113.88 13.42 113.87C15.76 113.87 17.51 115.64 17.49 117.99C17.46 120.28 15.58 122.11 13.32 122.05Z" fill="#1A1818" fill-opacity="1.000000" fill-rule="evenodd"/>
		</g>
	</g>
	<g mask="url(#mask1_20022)">
		<g style="mix-blend-mode:normal">
			<path id="Path 21094" d="M103.28 157.97C101.03 157.98 99.14 156.07 99.16 153.83C99.18 151.56 101.07 149.76 103.36 149.81C105.7 149.85 107.4 151.67 107.33 154.02C107.26 156.22 105.46 157.97 103.28 157.97Z" fill="#1A1818" fill-opacity="1.000000" fill-rule="evenodd"/>
		</g>
	</g>
	<g mask="url(#mask1_20022)">
		<g style="mix-blend-mode:normal">
			<path id="Path 21095" d="M94.33 148.96C92.13 148.99 90.18 147.03 90.21 144.83C90.25 142.57 92.15 140.8 94.46 140.88C96.68 140.95 98.33 142.69 98.29 144.95C98.26 147.14 96.51 148.93 94.33 148.96Z" fill="#1A1818" fill-opacity="1.000000" fill-rule="evenodd"/>
		</g>
	</g>
	<g mask="url(#mask1_20022)">
		<g style="mix-blend-mode:normal">
			<path id="Path 21096" d="M31.49 122.01C29.29 122.07 27.32 120.14 27.33 117.93C27.33 115.67 29.22 113.87 31.52 113.93C33.75 113.97 35.41 115.69 35.4 117.94C35.4 120.15 33.67 121.94 31.49 122.01Z" fill="#1A1818" fill-opacity="1.000000" fill-rule="evenodd"/>
		</g>
	</g>
	<g mask="url(#mask1_20022)">
		<g style="mix-blend-mode:normal">
			<path id="Path 21097" d="M58.35 130.99C56.23 130.99 54.35 129.17 54.27 127.03C54.2 124.8 56.06 122.92 58.34 122.91C60.59 122.91 62.31 124.57 62.36 126.81C62.41 129.1 60.61 130.99 58.35 130.99Z" fill="#1A1818" fill-opacity="1.000000" fill-rule="evenodd"/>
		</g>
	</g>
	<g mask="url(#mask1_20022)">
		<g style="mix-blend-mode:normal">
			<path id="Path 21098" d="M85.35 139.93C83.22 139.97 81.31 138.1 81.27 135.96C81.24 133.78 83.04 131.96 85.24 131.92C87.49 131.9 89.24 133.61 89.28 135.84C89.31 138.05 87.54 139.9 85.35 139.93Z" fill="#1A1818" fill-opacity="1.000000" fill-rule="evenodd"/>
		</g>
	</g>
	<g mask="url(#mask1_20022)">
		<g style="mix-blend-mode:normal">
			<path id="Path 21099" d="M49.35 121.92C47.21 121.92 45.36 120.05 45.37 117.91C45.38 115.74 47.19 113.97 49.39 113.97C51.59 113.99 53.33 115.74 53.32 117.95C53.32 120.13 51.51 121.93 49.35 121.92Z" fill="#1A1818" fill-opacity="1.000000" fill-rule="evenodd"/>
		</g>
	</g>
	<g mask="url(#mask1_20022)">
		<g style="mix-blend-mode:normal">
			<path id="Path 21100" d="M4.51 112.94C2.38 112.98 0.49 111.15 0.45 109C0.42 106.84 2.2 105.02 4.38 104.99C6.6 104.96 8.37 106.69 8.41 108.88C8.44 111.08 6.68 112.9 4.51 112.94Z" fill="#1A1818" fill-opacity="1.000000" fill-rule="evenodd"/>
		</g>
	</g>
	<g mask="url(#mask1_20022)">
		<g style="mix-blend-mode:normal">
			<path id="Path 21101" d="M130.24 158.91C132.43 158.92 134.19 160.71 134.16 162.92C134.12 165.12 132.29 166.87 130.1 166.8C128 166.73 126.3 164.99 126.27 162.89C126.25 160.7 128.04 158.9 130.24 158.91Z" fill="#1A1818" fill-opacity="1.000000" fill-rule="evenodd"/>
		</g>
	</g>
	<g mask="url(#mask1_20022)">
		<g style="mix-blend-mode:normal">
			<path id="Path 21102" d="M139.23 167.89C141.43 167.91 143.19 169.71 143.14 171.91L135.25 171.87C135.24 169.68 137.03 167.88 139.23 167.89Z" fill="#1A1818" fill-opacity="1.000000" fill-rule="evenodd"/>
		</g>
	</g>
	<g mask="url(#mask1_20022)">
		<g style="mix-blend-mode:normal">
			<path id="Path 21103" d="M76.38 130.82C74.25 130.86 72.51 129.22 72.41 127.08C72.32 124.87 74.05 123.02 76.26 122.99C78.45 122.97 80.26 124.76 80.24 126.96C80.22 129.07 78.51 130.78 76.38 130.82Z" fill="#1A1818" fill-opacity="1.000000" fill-rule="evenodd"/>
		</g>
	</g>
	<g mask="url(#mask1_20022)">
		<g style="mix-blend-mode:normal">
			<path id="Path 21104" d="M22.39 112.85C20.26 112.84 18.56 111.16 18.51 109.03C18.47 106.81 20.24 105 22.45 105.02C24.64 105.04 26.41 106.89 26.34 109.08C26.26 111.2 24.52 112.86 22.39 112.85Z" fill="#1A1818" fill-opacity="1.000000" fill-rule="evenodd"/>
		</g>
	</g>
	<g mask="url(#mask1_20022)">
		<g style="mix-blend-mode:normal">
			<path id="Path 21105" d="M121.31 157.78C119.17 157.82 117.43 156.17 117.34 154.04C117.25 151.82 118.98 149.97 121.18 149.94C123.37 149.91 125.19 151.72 125.16 153.91C125.14 156.03 123.43 157.74 121.31 157.78Z" fill="#1A1818" fill-opacity="1.000000" fill-rule="evenodd"/>
		</g>
	</g>
	<g mask="url(#mask1_20022)">
		<g style="mix-blend-mode:normal">
			<path id="Path 21106" d="M112.28 148.74C110.1 148.76 108.43 147.11 108.39 144.94C108.36 142.7 110.15 140.92 112.36 140.98C114.46 141.04 116.18 142.82 116.16 144.92C116.15 147.04 114.43 148.73 112.28 148.74Z" fill="#1A1818" fill-opacity="1.000000" fill-rule="evenodd"/>
		</g>
	</g>
	<g mask="url(#mask1_20022)">
		<g style="mix-blend-mode:normal">
			<path id="Path 21107" d="M103.35 139.7C101.16 139.74 99.5 138.14 99.47 135.97C99.44 133.82 101.09 132.07 103.2 132.03C105.27 131.99 107.09 133.74 107.14 135.81C107.19 137.91 105.48 139.67 103.35 139.7Z" fill="#1A1818" fill-opacity="1.000000" fill-rule="evenodd"/>
		</g>
	</g>
	<g mask="url(#mask1_20022)">
		<g style="mix-blend-mode:normal">
			<path id="Path 21108" d="M40.38 112.75C38.19 112.75 36.58 111.12 36.58 108.93C36.59 106.79 38.3 105.07 40.41 105.08C42.48 105.09 44.25 106.88 44.25 108.96C44.25 111.06 42.52 112.75 40.38 112.75Z" fill="#1A1818" fill-opacity="1.000000" fill-rule="evenodd"/>
		</g>
	</g>
	<g mask="url(#mask1_20022)">
		<g style="mix-blend-mode:normal">
			<path id="Path 21109" d="M67.35 121.73C65.16 121.74 63.54 120.13 63.54 117.93C63.53 115.78 65.23 114.06 67.33 114.06C69.4 114.06 71.19 115.84 71.2 117.91C71.22 120.02 69.49 121.73 67.35 121.73Z" fill="#1A1818" fill-opacity="1.000000" fill-rule="evenodd"/>
		</g>
	</g>
	<g mask="url(#mask1_20022)">
		<g style="mix-blend-mode:normal">
			<path id="Path 21110" d="M13.23 103.72C11.19 103.63 9.65 101.99 9.67 99.93C9.69 97.82 11.47 96.07 13.53 96.14C15.58 96.2 17.35 98.08 17.25 100.11C17.16 102.19 15.36 103.82 13.23 103.72Z" fill="#1A1818" fill-opacity="1.000000" fill-rule="evenodd"/>
		</g>
	</g>
	<g mask="url(#mask1_20022)">
		<g style="mix-blend-mode:normal">
			<path id="Path 21111" d="M94.26 130.67C92.1 130.66 90.48 128.98 90.53 126.81C90.57 124.8 92.21 123.14 94.21 123.09C96.25 123.05 98.1 124.84 98.11 126.89C98.13 128.96 96.37 130.69 94.26 130.67Z" fill="#1A1818" fill-opacity="1.000000" fill-rule="evenodd"/>
		</g>
	</g>
	<g mask="url(#mask1_20022)">
		<g style="mix-blend-mode:normal">
			<path id="Path 21112" d="M58.11 112.68C56.08 112.57 54.55 110.88 54.61 108.82C54.67 106.8 56.38 105.14 58.37 105.15C60.43 105.17 62.23 107.02 62.14 109.07C62.05 111.17 60.24 112.8 58.11 112.68Z" fill="#1A1818" fill-opacity="1.000000" fill-rule="evenodd"/>
		</g>
	</g>
	<g mask="url(#mask1_20022)">
		<g style="mix-blend-mode:normal">
			<path id="Path 21113" d="M31.53 103.68C29.49 103.75 27.77 102.19 27.67 100.15C27.57 98.03 29.27 96.23 31.38 96.21C33.37 96.19 35.11 97.88 35.15 99.88C35.2 101.89 33.56 103.61 31.53 103.68Z" fill="#1A1818" fill-opacity="1.000000" fill-rule="evenodd"/>
		</g>
	</g>
	<g mask="url(#mask1_20022)">
		<g style="mix-blend-mode:normal">
			<path id="Path 21114" d="M148.11 159.14C150.15 159.09 151.86 160.73 151.91 162.77C151.94 164.81 150.3 166.51 148.26 166.56C146.22 166.6 144.53 164.97 144.48 162.92C144.44 160.88 146.06 159.19 148.11 159.14Z" fill="#1A1818" fill-opacity="1.000000" fill-rule="evenodd"/>
		</g>
	</g>
	<g mask="url(#mask1_20022)">
		<g style="mix-blend-mode:normal">
			<path id="Path 21115" d="M85.35 121.64C83.31 121.67 81.61 120.02 81.59 117.99C81.57 115.93 83.2 114.26 85.25 114.22C87.29 114.19 88.99 115.83 89.02 117.88C89.05 119.92 87.39 121.61 85.35 121.64Z" fill="#1A1818" fill-opacity="1.000000" fill-rule="evenodd"/>
		</g>
	</g>
	<g mask="url(#mask1_20022)">
		<g style="mix-blend-mode:normal">
			<path id="Path 21116" d="M157.33 168.13C159.38 168.21 160.97 169.94 160.88 172L153.47 171.68C153.55 169.64 155.29 168.04 157.33 168.13Z" fill="#1A1818" fill-opacity="1.000000" fill-rule="evenodd"/>
		</g>
	</g>
	<g mask="url(#mask1_20022)">
		<g style="mix-blend-mode:normal">
			<path id="Path 21117" d="M139.14 157.57C137.09 157.53 135.46 155.84 135.5 153.79C135.54 151.75 137.24 150.11 139.28 150.15C141.32 150.2 142.96 151.9 142.91 153.94C142.87 155.98 141.18 157.61 139.14 157.57Z" fill="#1A1818" fill-opacity="1.000000" fill-rule="evenodd"/>
		</g>
	</g>
	<g mask="url(#mask1_20022)">
		<g style="mix-blend-mode:normal">
			<path id="Path 21118" d="M130.24 148.57C128.22 148.58 126.52 146.88 126.53 144.86C126.54 142.89 128.1 141.31 130.08 141.23C132.17 141.15 133.84 142.73 133.88 144.8C133.92 146.88 132.3 148.56 130.24 148.57Z" fill="#1A1818" fill-opacity="1.000000" fill-rule="evenodd"/>
		</g>
	</g>
	<g mask="url(#mask1_20022)">
		<g style="mix-blend-mode:normal">
			<path id="Path 21119" d="M49.39 103.63C47.38 103.64 45.68 101.94 45.7 99.94C45.72 97.98 47.25 96.41 49.23 96.35C51.32 96.27 52.95 97.81 52.99 99.89C53.03 101.95 51.42 103.62 49.39 103.63Z" fill="#1A1818" fill-opacity="1.000000" fill-rule="evenodd"/>
		</g>
	</g>
	<g mask="url(#mask1_20022)">
		<g style="mix-blend-mode:normal">
			<path id="Path 21120" d="M4.58 94.65C2.59 94.72 0.83 93.07 0.77 91.07C0.72 89.04 2.35 87.38 4.41 87.36C6.5 87.34 8.08 88.92 8.06 91.01C8.05 92.98 6.53 94.57 4.58 94.65Z" fill="#1A1818" fill-opacity="1.000000" fill-rule="evenodd"/>
		</g>
	</g>
	<g mask="url(#mask1_20022)">
		<g style="mix-blend-mode:normal">
			<path id="Path 21121" d="M121.27 139.57C119.27 139.59 117.56 137.88 117.57 135.89C117.58 133.85 119.25 132.25 121.3 132.28C123.4 132.32 124.92 133.94 124.85 136.04C124.79 138 123.22 139.55 121.27 139.57Z" fill="#1A1818" fill-opacity="1.000000" fill-rule="evenodd"/>
		</g>
	</g>
	<g mask="url(#mask1_20022)">
		<g style="mix-blend-mode:normal">
			<path id="Path 21122" d="M76.22 112.6C74.31 112.54 72.68 110.87 72.67 108.97C72.66 106.94 74.33 105.32 76.41 105.36C78.49 105.4 80.01 107.04 79.9 109.16C79.8 111.13 78.17 112.65 76.22 112.6Z" fill="#1A1818" fill-opacity="1.000000" fill-rule="evenodd"/>
		</g>
	</g>
	<g mask="url(#mask1_20022)">
		<g style="mix-blend-mode:normal">
			<path id="Path 21123" d="M112.16 130.56C110.26 130.51 108.62 128.84 108.61 126.95C108.59 124.91 110.27 123.29 112.33 123.32C114.34 123.36 115.83 124.89 115.85 126.9C115.85 128.97 114.19 130.62 112.16 130.56Z" fill="#1A1818" fill-opacity="1.000000" fill-rule="evenodd"/>
		</g>
	</g>
	<g mask="url(#mask1_20022)">
		<g style="mix-blend-mode:normal">
			<path id="Path 21124" d="M103.37 121.54C101.48 121.6 99.73 119.94 99.67 118.03C99.6 116.1 101.19 114.44 103.17 114.39C105.19 114.34 106.77 115.82 106.81 117.84C106.86 119.82 105.31 121.48 103.37 121.54Z" fill="#1A1818" fill-opacity="1.000000" fill-rule="evenodd"/>
		</g>
	</g>
	<g mask="url(#mask1_20022)">
		<g style="mix-blend-mode:normal">
			<path id="Path 21125" d="M22.52 94.61C20.55 94.67 18.75 92.91 18.79 90.93C18.82 88.98 20.43 87.42 22.41 87.42C24.44 87.41 25.95 88.91 25.98 90.93C26 92.91 24.47 94.54 22.52 94.61Z" fill="#1A1818" fill-opacity="1.000000" fill-rule="evenodd"/>
		</g>
	</g>
	<g mask="url(#mask1_20022)">
		<g style="mix-blend-mode:normal">
			<path id="Path 21126" d="M67.32 103.53C65.42 103.52 63.76 101.85 63.76 99.95C63.77 98.02 65.39 96.43 67.35 96.44C69.34 96.45 70.86 97.99 70.86 99.98C70.85 101.94 69.24 103.55 67.32 103.53Z" fill="#1A1818" fill-opacity="1.000000" fill-rule="evenodd"/>
		</g>
	</g>
	<g mask="url(#mask1_20022)">
		<g style="mix-blend-mode:normal">
			<path id="Path 21127" d="M40.45 94.55C38.56 94.6 36.86 92.96 36.81 91.04C36.76 89.13 38.36 87.49 40.31 87.46C42.31 87.43 43.87 88.93 43.9 90.91C43.94 92.87 42.38 94.51 40.45 94.55Z" fill="#1A1818" fill-opacity="1.000000" fill-rule="evenodd"/>
		</g>
	</g>
	<g mask="url(#mask1_20022)">
		<g style="mix-blend-mode:normal">
			<path id="Path 21128" d="M148.27 148.36C146.39 148.42 144.82 146.95 144.71 145.06C144.61 143.11 146.16 141.44 148.12 141.4C150.09 141.36 151.7 142.95 151.68 144.92C151.67 146.78 150.14 148.32 148.27 148.36Z" fill="#1A1818" fill-opacity="1.000000" fill-rule="evenodd"/>
		</g>
	</g>
	<g mask="url(#mask1_20022)">
		<g style="mix-blend-mode:normal">
			<path id="Path 21129" d="M157.18 157.35C155.22 157.35 153.62 155.71 153.69 153.75C153.75 151.88 155.31 150.38 157.18 150.38C159.14 150.39 160.72 152 160.66 153.98C160.6 155.84 159.04 157.35 157.18 157.35Z" fill="#1A1818" fill-opacity="1.000000" fill-rule="evenodd"/>
		</g>
	</g>
	<g mask="url(#mask1_20022)">
		<g style="mix-blend-mode:normal">
			<path id="Path 21130" d="M94.24 112.43C92.36 112.4 90.83 110.89 90.8 109.01C90.77 107.14 92.26 105.55 94.12 105.47C96.08 105.38 97.73 106.92 97.77 108.88C97.81 110.83 96.19 112.46 94.24 112.43Z" fill="#1A1818" fill-opacity="1.000000" fill-rule="evenodd"/>
		</g>
	</g>
	<g mask="url(#mask1_20022)">
		<g style="mix-blend-mode:normal">
			<path id="Path 21131" d="M165.95 159.37C167.91 159.25 169.58 160.79 169.64 162.75C169.7 164.7 168.11 166.34 166.15 166.33C164.27 166.33 162.73 164.83 162.68 162.95C162.62 161.08 164.09 159.48 165.95 159.37Z" fill="#1A1818" fill-opacity="1.000000" fill-rule="evenodd"/>
		</g>
	</g>
	<g mask="url(#mask1_20022)">
		<g style="mix-blend-mode:normal">
			<path id="Path 21132" d="M175.15 168.37C177.01 168.38 178.57 169.9 178.61 171.77L171.72 172C171.63 170.01 173.19 168.36 175.15 168.37Z" fill="#1A1818" fill-opacity="1.000000" fill-rule="evenodd"/>
		</g>
	</g>
	<g mask="url(#mask1_20022)">
		<g style="mix-blend-mode:normal">
			<path id="Path 21133" d="M13.35 85.42C11.43 85.38 9.98 83.89 10 81.96C10.01 80.07 11.54 78.54 13.42 78.53C15.37 78.52 16.98 80.18 16.89 82.13C16.82 83.99 15.25 85.46 13.35 85.42Z" fill="#1A1818" fill-opacity="1.000000" fill-rule="evenodd"/>
		</g>
	</g>
	<g mask="url(#mask1_20022)">
		<g style="mix-blend-mode:normal">
			<path id="Path 21134" d="M139.28 139.33C137.35 139.36 135.85 137.94 135.78 136.01C135.72 134.03 137.3 132.4 139.26 132.44C141.14 132.47 142.66 134.02 142.67 135.88C142.68 137.76 141.16 139.29 139.28 139.33Z" fill="#1A1818" fill-opacity="1.000000" fill-rule="evenodd"/>
		</g>
	</g>
	<g mask="url(#mask1_20022)">
		<g style="mix-blend-mode:normal">
			<path id="Path 21135" d="M31.3 85.35C29.37 85.3 27.99 83.84 28.04 81.88C28.1 80.01 29.66 78.5 31.51 78.57C33.34 78.64 34.88 80.27 34.82 82.09C34.76 83.95 33.2 85.39 31.3 85.35Z" fill="#1A1818" fill-opacity="1.000000" fill-rule="evenodd"/>
		</g>
	</g>
	<g mask="url(#mask1_20022)">
		<g style="mix-blend-mode:normal">
			<path id="Path 21136" d="M58.36 94.37C56.4 94.37 54.95 92.91 54.96 90.96C54.96 89.05 56.49 87.52 58.37 87.53C60.22 87.55 61.79 89.12 61.79 90.98C61.79 92.85 60.26 94.37 58.36 94.37Z" fill="#1A1818" fill-opacity="1.000000" fill-rule="evenodd"/>
		</g>
	</g>
	<g mask="url(#mask1_20022)">
		<g style="mix-blend-mode:normal">
			<path id="Path 21137" d="M85.31 103.32C83.37 103.32 81.94 101.89 81.95 99.95C81.95 98.06 83.46 96.53 85.31 96.54C87.15 96.54 88.72 98.13 88.72 99.96C88.73 101.81 87.19 103.32 85.31 103.32Z" fill="#1A1818" fill-opacity="1.000000" fill-rule="evenodd"/>
		</g>
	</g>
	<g mask="url(#mask1_20022)">
		<g style="mix-blend-mode:normal">
			<path id="Path 21138" d="M130.3 130.3C128.34 130.33 126.86 128.91 126.84 126.96C126.81 125.05 128.29 123.5 130.17 123.47C132.02 123.44 133.63 124.99 133.67 126.85C133.71 128.71 132.19 130.27 130.3 130.3Z" fill="#1A1818" fill-opacity="1.000000" fill-rule="evenodd"/>
		</g>
	</g>
	<g mask="url(#mask1_20022)">
		<g style="mix-blend-mode:normal">
			<path id="Path 21139" d="M121.23 121.26C119.39 121.26 117.98 119.91 117.91 118.08C117.84 116.17 119.28 114.59 121.15 114.53C122.96 114.47 124.61 116.07 124.64 117.88C124.68 119.73 123.13 121.26 121.23 121.26Z" fill="#1A1818" fill-opacity="1.000000" fill-rule="evenodd"/>
		</g>
	</g>
	<g mask="url(#mask1_20022)">
		<g style="mix-blend-mode:normal">
			<path id="Path 21140" d="M112.4 112.24C110.57 112.3 109.07 110.94 108.97 109.14C108.87 107.24 110.36 105.63 112.22 105.61C113.97 105.59 115.55 107.11 115.59 108.86C115.65 110.63 114.19 112.16 112.4 112.24Z" fill="#1A1818" fill-opacity="1.000000" fill-rule="evenodd"/>
		</g>
	</g>
	<g mask="url(#mask1_20022)">
		<g style="mix-blend-mode:normal">
			<path id="Path 21141" d="M49.28 85.29C47.47 85.25 46.06 83.78 46.07 81.96C46.09 80.16 47.56 78.68 49.34 78.66C51.18 78.64 52.79 80.32 52.7 82.14C52.6 83.93 51.09 85.32 49.28 85.29Z" fill="#1A1818" fill-opacity="1.000000" fill-rule="evenodd"/>
		</g>
	</g>
	<g mask="url(#mask1_20022)">
		<g style="mix-blend-mode:normal">
			<path id="Path 21142" d="M76.3 94.27C74.39 94.26 72.93 92.7 73.03 90.78C73.13 88.99 74.69 87.56 76.46 87.64C78.22 87.73 79.7 89.32 79.65 91.06C79.6 92.85 78.11 94.28 76.3 94.27Z" fill="#1A1818" fill-opacity="1.000000" fill-rule="evenodd"/>
		</g>
	</g>
	<g mask="url(#mask1_20022)">
		<g style="mix-blend-mode:normal">
			<path id="Path 21143" d="M4.58 76.3C2.77 76.36 1.26 75.01 1.16 73.2C1.06 71.3 2.55 69.69 4.42 69.68C6.16 69.66 7.74 71.19 7.78 72.93C7.84 74.7 6.38 76.23 4.58 76.3Z" fill="#1A1818" fill-opacity="1.000000" fill-rule="evenodd"/>
		</g>
	</g>
	<g mask="url(#mask1_20022)">
		<g style="mix-blend-mode:normal">
			<path id="Path 21144" d="M22.34 76.26C20.55 76.22 19.1 74.68 19.16 72.88C19.23 71.16 20.63 69.8 22.37 69.78C24.21 69.75 25.66 71.2 25.65 73.03C25.64 74.85 24.16 76.3 22.34 76.26Z" fill="#1A1818" fill-opacity="1.000000" fill-rule="evenodd"/>
		</g>
	</g>
	<g mask="url(#mask1_20022)">
		<g style="mix-blend-mode:normal">
			<path id="Path 21145" d="M103.34 103.22C101.54 103.25 100.03 101.77 100.02 99.98C100.01 98.17 101.49 96.71 103.31 96.72C105.05 96.74 106.44 98.1 106.51 99.84C106.57 101.65 105.15 103.17 103.34 103.22Z" fill="#1A1818" fill-opacity="1.000000" fill-rule="evenodd"/>
		</g>
	</g>
	<g mask="url(#mask1_20022)">
		<g style="mix-blend-mode:normal">
			<path id="Path 21146" d="M166.22 148.11C164.44 148.15 162.9 146.62 162.93 144.84C162.95 143.03 164.47 141.62 166.31 141.7C168.07 141.78 169.36 143.15 169.33 144.93C169.31 146.69 167.95 148.08 166.22 148.11Z" fill="#1A1818" fill-opacity="1.000000" fill-rule="evenodd"/>
		</g>
	</g>
	<g mask="url(#mask1_20022)">
		<g style="mix-blend-mode:normal">
			<path id="Path 21147" d="M67.34 85.22C65.55 85.23 64.05 83.67 64.1 81.9C64.16 80.08 65.69 78.71 67.54 78.82C69.31 78.92 70.56 80.31 70.51 82.11C70.46 83.85 69.06 85.21 67.34 85.22Z" fill="#1A1818" fill-opacity="1.000000" fill-rule="evenodd"/>
		</g>
	</g>
	<g mask="url(#mask1_20022)">
		<g style="mix-blend-mode:normal">
			<path id="Path 21148" d="M175.11 157.1C173.42 157.09 171.97 155.67 171.92 153.97C171.86 152.16 173.32 150.68 175.16 150.68C176.92 150.69 178.28 152.02 178.32 153.78C178.38 155.62 176.92 157.11 175.11 157.1Z" fill="#1A1818" fill-opacity="1.000000" fill-rule="evenodd"/>
		</g>
	</g>
	<g mask="url(#mask1_20022)">
		<g style="mix-blend-mode:normal">
			<path id="Path 21149" d="M157.26 139.13C155.47 139.18 153.94 137.67 153.95 135.88C153.95 134.08 155.46 132.65 157.3 132.71C159.07 132.78 160.37 134.14 160.36 135.92C160.34 137.68 158.99 139.08 157.26 139.13Z" fill="#1A1818" fill-opacity="1.000000" fill-rule="evenodd"/>
		</g>
	</g>
	<g mask="url(#mask1_20022)">
		<g style="mix-blend-mode:normal">
			<path id="Path 21150" d="M148.19 130.13C146.44 130.13 144.92 128.56 144.98 126.82C145.05 125.02 146.57 123.67 148.4 123.78C150.16 123.87 151.39 125.23 151.33 127.03C151.28 128.75 149.89 130.12 148.19 130.13Z" fill="#1A1818" fill-opacity="1.000000" fill-rule="evenodd"/>
		</g>
	</g>
	<g mask="url(#mask1_20022)">
		<g style="mix-blend-mode:normal">
			<path id="Path 21151" d="M184.31 159.71C186.08 159.8 187.31 161.15 187.26 162.94C187.23 164.66 185.85 166.04 184.15 166.06C182.4 166.08 180.87 164.52 180.92 162.77C180.97 160.99 182.48 159.61 184.31 159.71Z" fill="#1A1818" fill-opacity="1.000000" fill-rule="evenodd"/>
		</g>
	</g>
	<g mask="url(#mask1_20022)">
		<g style="mix-blend-mode:normal">
			<path id="Path 21152" d="M40.32 76.22C38.66 76.19 37.22 74.76 37.17 73.09C37.13 71.31 38.6 69.85 40.42 69.87C42.19 69.89 43.5 71.19 43.52 72.96C43.56 74.77 42.1 76.24 40.32 76.22Z" fill="#1A1818" fill-opacity="1.000000" fill-rule="evenodd"/>
		</g>
	</g>
	<g mask="url(#mask1_20022)">
		<g style="mix-blend-mode:normal">
			<path id="Path 21153" d="M193.32 168.7C195.07 168.79 196.31 170.15 196.25 171.94L189.9 171.75C189.96 169.96 191.49 168.6 193.32 168.7Z" fill="#1A1818" fill-opacity="1.000000" fill-rule="evenodd"/>
		</g>
	</g>
	<g mask="url(#mask1_20022)">
		<g style="mix-blend-mode:normal">
			<path id="Path 21154" d="M139.14 121.11C137.47 121.07 136.02 119.6 136.02 117.93C136.02 116.16 137.55 114.74 139.37 114.82C141.14 114.9 142.38 116.27 142.31 118.05C142.26 119.77 140.82 121.16 139.14 121.11Z" fill="#1A1818" fill-opacity="1.000000" fill-rule="evenodd"/>
		</g>
	</g>
	<g mask="url(#mask1_20022)">
		<g style="mix-blend-mode:normal">
			<path id="Path 21155" d="M94.34 94.16C92.6 94.2 91.04 92.61 91.1 90.88C91.16 89.19 92.61 87.84 94.33 87.87C96.11 87.89 97.4 89.2 97.4 90.98C97.4 92.71 96.03 94.13 94.34 94.16Z" fill="#1A1818" fill-opacity="1.000000" fill-rule="evenodd"/>
		</g>
	</g>
	<g mask="url(#mask1_20022)">
		<g style="mix-blend-mode:normal">
			<path id="Path 21156" d="M130.25 112.1C128.61 112.12 127.1 110.65 127.07 108.99C127.04 107.31 128.46 105.88 130.18 105.85C131.95 105.84 133.29 107.14 133.31 108.91C133.33 110.62 131.94 112.08 130.25 112.1Z" fill="#1A1818" fill-opacity="1.000000" fill-rule="evenodd"/>
		</g>
	</g>
	<g mask="url(#mask1_20022)">
		<g style="mix-blend-mode:normal">
			<path id="Path 21157" d="M58.3 76.12C56.63 76.09 55.17 74.57 55.23 72.91C55.29 71.3 56.66 69.97 58.28 69.94C60.04 69.91 61.41 71.24 61.42 73C61.42 74.72 60 76.16 58.3 76.12Z" fill="#1A1818" fill-opacity="1.000000" fill-rule="evenodd"/>
		</g>
	</g>
	<g mask="url(#mask1_20022)">
		<g style="mix-blend-mode:normal">
			<path id="Path 21158" d="M13.43 67.14C11.76 67.14 10.28 65.65 10.31 63.98C10.35 62.37 11.7 61.01 13.32 60.96C15.08 60.9 16.47 62.22 16.5 63.97C16.53 65.69 15.12 67.14 13.43 67.14Z" fill="#1A1818" fill-opacity="1.000000" fill-rule="evenodd"/>
		</g>
	</g>
	<g mask="url(#mask1_20022)">
		<g style="mix-blend-mode:normal">
			<path id="Path 21159" d="M85.31 85.06C83.61 85.07 82.17 83.58 82.23 81.89C82.3 80.25 83.65 78.95 85.29 78.95C87.03 78.95 88.4 80.36 88.35 82.1C88.3 83.73 86.93 85.06 85.31 85.06Z" fill="#1A1818" fill-opacity="1.000000" fill-rule="evenodd"/>
		</g>
	</g>
	<g mask="url(#mask1_20022)">
		<g style="mix-blend-mode:normal">
			<path id="Path 21160" d="M121.15 103.03C119.53 102.98 118.19 101.6 118.17 99.99C118.15 98.28 119.61 96.86 121.33 96.91C123.06 96.96 124.39 98.43 124.28 100.16C124.18 101.79 122.78 103.08 121.15 103.03Z" fill="#1A1818" fill-opacity="1.000000" fill-rule="evenodd"/>
		</g>
	</g>
	<g mask="url(#mask1_20022)">
		<g style="mix-blend-mode:normal">
			<path id="Path 21161" d="M31.36 67.04C29.7 67.02 28.39 65.7 28.39 64.03C28.38 62.29 29.82 60.91 31.55 61C33.19 61.09 34.47 62.49 34.42 64.12C34.37 65.77 33.01 67.06 31.36 67.04Z" fill="#1A1818" fill-opacity="1.000000" fill-rule="evenodd"/>
		</g>
	</g>
	<g mask="url(#mask1_20022)">
		<g style="mix-blend-mode:normal">
			<path id="Path 21162" d="M112.22 93.93C110.53 93.91 109.27 92.6 109.3 90.92C109.33 89.26 110.67 87.94 112.31 87.97C113.92 88 115.28 89.41 115.26 91.02C115.24 92.67 113.9 93.95 112.22 93.93Z" fill="#1A1818" fill-opacity="1.000000" fill-rule="evenodd"/>
		</g>
	</g>
	<g mask="url(#mask1_20022)">
		<g style="mix-blend-mode:normal">
			<path id="Path 21163" d="M76.29 75.92C74.59 75.91 73.35 74.62 73.4 72.91C73.45 71.32 74.69 70.07 76.25 70.03C77.85 69.99 79.28 71.38 79.3 72.98C79.32 74.62 77.97 75.94 76.29 75.92Z" fill="#1A1818" fill-opacity="1.000000" fill-rule="evenodd"/>
		</g>
	</g>
	<g mask="url(#mask1_20022)">
		<g style="mix-blend-mode:normal">
			<path id="Path 21164" d="M174.98 138.81C173.28 138.72 172.12 137.38 172.24 135.65C172.36 134.09 173.67 132.87 175.22 132.91C176.82 132.96 178.19 134.42 178.12 136.01C178.05 137.67 176.67 138.89 174.98 138.81Z" fill="#1A1818" fill-opacity="1.000000" fill-rule="evenodd"/>
		</g>
	</g>
	<g mask="url(#mask1_20022)">
		<g style="mix-blend-mode:normal">
			<path id="Path 21165" d="M49.17 66.93C47.57 66.84 46.43 65.6 46.46 63.98C46.48 62.32 47.84 60.98 49.46 61.05C51.07 61.11 52.42 62.58 52.35 64.17C52.26 65.82 50.87 67.03 49.17 66.93Z" fill="#1A1818" fill-opacity="1.000000" fill-rule="evenodd"/>
		</g>
	</g>
	<g mask="url(#mask1_20022)">
		<g style="mix-blend-mode:normal">
			<path id="Path 21166" d="M184.05 147.76C182.43 147.73 181.25 146.54 181.24 144.91C181.23 143.24 182.59 141.87 184.21 141.92C185.71 141.97 187.06 143.34 187.09 144.84C187.11 146.46 185.73 147.8 184.05 147.76Z" fill="#1A1818" fill-opacity="1.000000" fill-rule="evenodd"/>
		</g>
	</g>
	<g mask="url(#mask1_20022)">
		<g style="mix-blend-mode:normal">
			<path id="Path 21167" d="M193.06 156.75C191.42 156.72 190.25 155.53 190.24 153.91C190.21 152.24 191.57 150.87 193.18 150.91C194.67 150.95 196.03 152.32 196.07 153.81C196.11 155.43 194.72 156.78 193.06 156.75Z" fill="#1A1818" fill-opacity="1.000000" fill-rule="evenodd"/>
		</g>
	</g>
	<g mask="url(#mask1_20022)">
		<g style="mix-blend-mode:normal">
			<path id="Path 21168" d="M4.49 57.93C2.85 57.94 1.63 56.79 1.57 55.17C1.51 53.49 2.79 52.1 4.43 52.09C6.01 52.08 7.46 53.54 7.4 55.12C7.35 56.67 6.07 57.91 4.49 57.93Z" fill="#1A1818" fill-opacity="1.000000" fill-rule="evenodd"/>
		</g>
	</g>
	<g mask="url(#mask1_20022)">
		<g style="mix-blend-mode:normal">
			<path id="Path 21169" d="M166.12 129.8C164.49 129.77 163.3 128.6 163.28 126.96C163.25 125.3 164.6 123.92 166.22 123.95C167.71 123.99 169.08 125.36 169.12 126.85C169.16 128.46 167.79 129.82 166.12 129.8Z" fill="#1A1818" fill-opacity="1.000000" fill-rule="evenodd"/>
		</g>
	</g>
	<g mask="url(#mask1_20022)">
		<g style="mix-blend-mode:normal">
			<path id="Path 21170" d="M157.09 120.8C155.46 120.76 154.3 119.57 154.3 117.94C154.29 116.27 155.66 114.91 157.28 114.97C158.78 115.04 160.12 116.41 160.14 117.91C160.15 119.54 158.76 120.85 157.09 120.8Z" fill="#1A1818" fill-opacity="1.000000" fill-rule="evenodd"/>
		</g>
	</g>
	<g mask="url(#mask1_20022)">
		<g style="mix-blend-mode:normal">
			<path id="Path 21171" d="M148.22 111.8C146.6 111.82 145.37 110.64 145.34 109.03C145.29 107.44 146.5 106.12 148.06 106.03C149.65 105.94 151.13 107.37 151.11 108.96C151.09 110.51 149.79 111.79 148.22 111.8Z" fill="#1A1818" fill-opacity="1.000000" fill-rule="evenodd"/>
		</g>
	</g>
	<g mask="url(#mask1_20022)">
		<g style="mix-blend-mode:normal">
			<path id="Path 21172" d="M201.98 159.93C203.56 159.86 205.05 161.29 205.02 162.89C204.99 164.43 203.69 165.7 202.11 165.7C200.49 165.72 199.27 164.52 199.24 162.91C199.21 161.33 200.42 160 201.98 159.93Z" fill="#1A1818" fill-opacity="1.000000" fill-rule="evenodd"/>
		</g>
	</g>
	<g mask="url(#mask1_20022)">
		<g style="mix-blend-mode:normal">
			<path id="Path 21173" d="M103.17 84.85C101.56 84.8 100.38 83.55 100.42 81.93C100.44 80.36 101.73 79.07 103.28 79.07C104.87 79.07 106.29 80.59 106.19 82.15C106.09 83.71 104.75 84.9 103.17 84.85Z" fill="#1A1818" fill-opacity="1.000000" fill-rule="evenodd"/>
		</g>
	</g>
	<g mask="url(#mask1_20022)">
		<g style="mix-blend-mode:normal">
			<path id="Path 21174" d="M22.45 57.88C20.84 57.9 19.6 56.67 19.59 55.07C19.57 53.5 20.83 52.18 22.39 52.17C23.91 52.15 25.27 53.48 25.3 55.01C25.31 56.55 24.01 57.86 22.45 57.88Z" fill="#1A1818" fill-opacity="1.000000" fill-rule="evenodd"/>
		</g>
	</g>
	<g mask="url(#mask1_20022)">
		<g style="mix-blend-mode:normal">
			<path id="Path 21175" d="M211.17 168.95C212.71 169 214.01 170.4 213.95 171.92L208.24 171.74C208.29 170.18 209.64 168.89 211.17 168.95Z" fill="#1A1818" fill-opacity="1.000000" fill-rule="evenodd"/>
		</g>
	</g>
	<g mask="url(#mask1_20022)">
		<g style="mix-blend-mode:normal">
			<path id="Path 21176" d="M67.36 66.84C65.79 66.86 64.51 65.58 64.52 64.01C64.54 62.44 65.86 61.16 67.41 61.2C68.9 61.25 70.11 62.46 70.16 63.94C70.21 65.5 68.92 66.83 67.36 66.84Z" fill="#1A1818" fill-opacity="1.000000" fill-rule="evenodd"/>
		</g>
	</g>
	<g mask="url(#mask1_20022)">
		<g style="mix-blend-mode:normal">
			<path id="Path 21177" d="M139.07 102.78C137.59 102.71 136.41 101.5 136.39 100.01C136.38 98.44 137.66 97.13 139.22 97.14C140.79 97.15 142.06 98.47 142.03 100.04C141.99 101.6 140.64 102.84 139.07 102.78Z" fill="#1A1818" fill-opacity="1.000000" fill-rule="evenodd"/>
		</g>
	</g>
	<g mask="url(#mask1_20022)">
		<g style="mix-blend-mode:normal">
			<path id="Path 21178" d="M94.33 75.8C92.78 75.83 91.46 74.51 91.5 72.96C91.52 71.39 92.87 70.17 94.46 70.26C95.97 70.34 97.07 71.54 97.04 73.08C97.01 74.58 95.81 75.78 94.33 75.8Z" fill="#1A1818" fill-opacity="1.000000" fill-rule="evenodd"/>
		</g>
	</g>
	<g mask="url(#mask1_20022)">
		<g style="mix-blend-mode:normal">
			<path id="Path 21179" d="M130.31 93.77C128.76 93.82 127.42 92.52 127.44 90.97C127.44 89.49 128.62 88.28 130.12 88.23C131.65 88.18 132.87 89.26 132.97 90.78C133.07 92.36 131.87 93.72 130.31 93.77Z" fill="#1A1818" fill-opacity="1.000000" fill-rule="evenodd"/>
		</g>
	</g>
	<g mask="url(#mask1_20022)">
		<g style="mix-blend-mode:normal">
			<path id="Path 21180" d="M40.47 57.83C38.92 57.89 37.59 56.59 37.59 55.03C37.6 53.47 38.92 52.22 40.5 52.28C42.02 52.34 43.14 53.53 43.14 55.07C43.13 56.56 41.94 57.79 40.47 57.83Z" fill="#1A1818" fill-opacity="1.000000" fill-rule="evenodd"/>
		</g>
	</g>
	<g mask="url(#mask1_20022)">
		<g style="mix-blend-mode:normal">
			<path id="Path 21181" d="M85.34 66.74C83.95 66.76 82.59 65.42 82.59 64.02C82.59 62.64 83.74 61.46 85.14 61.39C86.68 61.31 87.89 62.4 87.94 63.93C87.99 65.43 86.81 66.71 85.34 66.74Z" fill="#1A1818" fill-opacity="1.000000" fill-rule="evenodd"/>
		</g>
	</g>
	<g mask="url(#mask1_20022)">
		<g style="mix-blend-mode:normal">
			<path id="Path 21182" d="M121.22 84.71C119.82 84.7 118.48 83.31 118.52 81.93C118.56 80.55 119.72 79.4 121.13 79.36C122.68 79.3 123.86 80.42 123.88 81.96C123.9 83.47 122.68 84.72 121.22 84.71Z" fill="#1A1818" fill-opacity="1.000000" fill-rule="evenodd"/>
		</g>
	</g>
	<g mask="url(#mask1_20022)">
		<g style="mix-blend-mode:normal">
			<path id="Path 21183" d="M13.39 48.76C12.06 48.75 10.81 47.53 10.72 46.2C10.64 44.75 11.85 43.47 13.34 43.42C14.88 43.38 16.06 44.5 16.07 46.04C16.08 47.55 14.85 48.8 13.39 48.76Z" fill="#1A1818" fill-opacity="1.000000" fill-rule="evenodd"/>
		</g>
	</g>
	<g mask="url(#mask1_20022)">
		<g style="mix-blend-mode:normal">
			<path id="Path 21184" d="M58.34 57.75C56.94 57.74 55.6 56.38 55.63 54.99C55.67 53.61 56.83 52.46 58.24 52.41C59.78 52.35 60.96 53.46 60.99 55C61.02 56.51 59.8 57.76 58.34 57.75Z" fill="#1A1818" fill-opacity="1.000000" fill-rule="evenodd"/>
		</g>
	</g>
	<g mask="url(#mask1_20022)">
		<g style="mix-blend-mode:normal">
			<path id="Path 21185" d="M184.24 129.58C182.81 129.65 181.47 128.35 181.47 126.92C181.47 125.53 182.61 124.36 184.01 124.3C185.45 124.24 186.62 125.28 186.73 126.69C186.85 128.2 185.72 129.51 184.24 129.58Z" fill="#1A1818" fill-opacity="1.000000" fill-rule="evenodd"/>
		</g>
	</g>
	<g mask="url(#mask1_20022)">
		<g style="mix-blend-mode:normal">
			<path id="Path 21186" d="M193.12 138.56C191.67 138.56 190.38 137.21 190.44 135.79C190.51 134.4 191.7 133.28 193.1 133.28C194.63 133.28 195.79 134.49 195.72 136.01C195.67 137.42 194.49 138.56 193.12 138.56Z" fill="#1A1818" fill-opacity="1.000000" fill-rule="evenodd"/>
		</g>
	</g>
	<g mask="url(#mask1_20022)">
		<g style="mix-blend-mode:normal">
			<path id="Path 21187" d="M175.17 120.59C173.74 120.6 172.43 119.26 172.47 117.84C172.54 116.36 173.84 115.21 175.35 115.32C176.76 115.42 177.8 116.59 177.75 118.02C177.71 119.43 176.54 120.58 175.17 120.59Z" fill="#1A1818" fill-opacity="1.000000" fill-rule="evenodd"/>
		</g>
	</g>
	<g mask="url(#mask1_20022)">
		<g style="mix-blend-mode:normal">
			<path id="Path 21188" d="M202.19 147.49C200.81 147.55 199.58 146.42 199.5 145.03C199.4 143.55 200.62 142.27 202.12 142.29C203.53 142.3 204.67 143.43 204.69 144.84C204.71 146.25 203.59 147.44 202.19 147.49Z" fill="#1A1818" fill-opacity="1.000000" fill-rule="evenodd"/>
		</g>
	</g>
	<g mask="url(#mask1_20022)">
		<g style="mix-blend-mode:normal">
			<path id="Path 21189" d="M31.38 48.66C30 48.66 28.81 47.48 28.79 46.09C28.77 44.61 30.03 43.39 31.53 43.47C32.94 43.53 34.03 44.71 33.99 46.13C33.95 47.53 32.78 48.67 31.38 48.66Z" fill="#1A1818" fill-opacity="1.000000" fill-rule="evenodd"/>
		</g>
	</g>
	<g mask="url(#mask1_20022)">
		<g style="mix-blend-mode:normal">
			<path id="Path 21190" d="M112.2 75.61C110.8 75.58 109.65 74.4 109.65 73.01C109.65 71.52 110.94 70.33 112.42 70.43C113.83 70.52 114.9 71.72 114.85 73.12C114.79 74.53 113.6 75.64 112.2 75.61Z" fill="#1A1818" fill-opacity="1.000000" fill-rule="evenodd"/>
		</g>
	</g>
	<g mask="url(#mask1_20022)">
		<g style="mix-blend-mode:normal">
			<path id="Path 21191" d="M166.01 111.54C164.61 111.46 163.5 110.23 163.55 108.85C163.61 107.46 164.81 106.33 166.2 106.36C167.62 106.38 168.74 107.52 168.75 108.93C168.77 110.42 167.49 111.63 166.01 111.54Z" fill="#1A1818" fill-opacity="1.000000" fill-rule="evenodd"/>
		</g>
	</g>
	<g mask="url(#mask1_20022)">
		<g style="mix-blend-mode:normal">
			<path id="Path 21192" d="M211.08 156.39C209.63 156.39 208.54 155.3 208.55 153.85C208.56 152.42 209.7 151.28 211.1 151.3C212.49 151.31 213.65 152.48 213.65 153.87C213.65 155.27 212.51 156.39 211.08 156.39Z" fill="#1A1818" fill-opacity="1.000000" fill-rule="evenodd"/>
		</g>
	</g>
	<g mask="url(#mask1_20022)">
		<g style="mix-blend-mode:normal">
			<path id="Path 21193" d="M157.12 102.48C155.67 102.46 154.61 101.34 154.64 99.89C154.68 98.47 155.86 97.35 157.25 97.39C158.64 97.43 159.78 98.63 159.74 100.02C159.72 101.42 158.55 102.52 157.12 102.48Z" fill="#1A1818" fill-opacity="1.000000" fill-rule="evenodd"/>
		</g>
	</g>
	<g mask="url(#mask1_20022)">
		<g style="mix-blend-mode:normal">
			<path id="Path 21194" d="M103.26 66.46C101.85 66.46 100.88 65.51 100.84 64.11C100.8 62.69 101.92 61.5 103.3 61.52C104.63 61.53 105.86 62.82 105.78 64.14C105.71 65.44 104.59 66.46 103.26 66.46Z" fill="#1A1818" fill-opacity="1.000000" fill-rule="evenodd"/>
		</g>
	</g>
	<g mask="url(#mask1_20022)">
		<g style="mix-blend-mode:normal">
			<path id="Path 21195" d="M148.13 93.45C146.65 93.41 145.64 92.32 145.71 90.84C145.79 89.51 146.85 88.46 148.16 88.44C149.52 88.42 150.74 89.62 150.74 90.98C150.74 92.38 149.56 93.48 148.13 93.45Z" fill="#1A1818" fill-opacity="1.000000" fill-rule="evenodd"/>
		</g>
	</g>
	<g mask="url(#mask1_20022)">
		<g style="mix-blend-mode:normal">
			<path id="Path 21196" d="M76.37 57.52C74.89 57.55 73.83 56.5 73.85 55.02C73.85 53.68 74.87 52.59 76.17 52.51C77.53 52.42 78.8 53.57 78.86 54.94C78.92 56.31 77.79 57.49 76.37 57.52Z" fill="#1A1818" fill-opacity="1.000000" fill-rule="evenodd"/>
		</g>
	</g>
	<g mask="url(#mask1_20022)">
		<g style="mix-blend-mode:normal">
			<path id="Path 21197" d="M49.44 48.53C47.96 48.57 46.89 47.53 46.89 46.05C46.9 44.71 47.91 43.61 49.21 43.52C50.56 43.43 51.83 44.56 51.9 45.93C51.98 47.31 50.85 48.5 49.44 48.53Z" fill="#1A1818" fill-opacity="1.000000" fill-rule="evenodd"/>
		</g>
	</g>
	<g mask="url(#mask1_20022)">
		<g style="mix-blend-mode:normal">
			<path id="Path 21198" d="M4.47 39.51C3.07 39.52 2.07 38.59 2.02 37.2C1.96 35.77 3.06 34.57 4.44 34.56C5.77 34.56 7.01 35.84 6.96 37.16C6.9 38.46 5.8 39.5 4.47 39.51Z" fill="#1A1818" fill-opacity="1.000000" fill-rule="evenodd"/>
		</g>
	</g>
	<g mask="url(#mask1_20022)">
		<g style="mix-blend-mode:normal">
			<path id="Path 21199" d="M229.1 169.32C230.33 169.35 231.51 170.52 231.56 171.75L226.61 171.89C226.58 170.48 227.73 169.29 229.1 169.32Z" fill="#1A1818" fill-opacity="1.000000" fill-rule="evenodd"/>
		</g>
	</g>
	<g mask="url(#mask1_20022)">
		<g style="mix-blend-mode:normal">
			<path id="Path 21200" d="M219.88 160.31C221.22 160.2 222.51 161.32 222.6 162.69C222.7 164.07 221.57 165.28 220.16 165.33C218.68 165.38 217.61 164.35 217.59 162.88C217.58 161.54 218.57 160.42 219.88 160.31Z" fill="#1A1818" fill-opacity="1.000000" fill-rule="evenodd"/>
		</g>
	</g>
	<g mask="url(#mask1_20022)">
		<g style="mix-blend-mode:normal">
			<path id="Path 21201" d="M139.25 84.4C137.88 84.42 136.84 83.44 136.8 82.08C136.76 80.74 137.78 79.61 139.08 79.52C140.38 79.44 141.7 80.69 141.68 82.01C141.68 83.3 140.57 84.39 139.25 84.4Z" fill="#1A1818" fill-opacity="1.000000" fill-rule="evenodd"/>
		</g>
	</g>
	<g mask="url(#mask1_20022)">
		<g style="mix-blend-mode:normal">
			<path id="Path 21202" d="M22.44 39.46C21.11 39.47 20.04 38.43 20.04 37.09C20.02 35.78 21.1 34.66 22.39 34.65C23.65 34.64 24.83 35.8 24.84 37.05C24.85 38.34 23.75 39.44 22.44 39.46Z" fill="#1A1818" fill-opacity="1.000000" fill-rule="evenodd"/>
		</g>
	</g>
	<g mask="url(#mask1_20022)">
		<g style="mix-blend-mode:normal">
			<path id="Path 21203" d="M67.31 48.42C66 48.4 64.93 47.29 64.98 45.98C65.01 44.75 66.01 43.75 67.24 43.71C68.56 43.65 69.69 44.71 69.7 46.03C69.72 47.34 68.63 48.43 67.31 48.42Z" fill="#1A1818" fill-opacity="1.000000" fill-rule="evenodd"/>
		</g>
	</g>
	<g mask="url(#mask1_20022)">
		<g style="mix-blend-mode:normal">
			<path id="Path 21204" d="M130.21 75.36C128.98 75.36 127.93 74.35 127.87 73.11C127.81 71.77 128.88 70.66 130.22 70.66C131.48 70.67 132.52 71.66 132.57 72.91C132.63 74.25 131.55 75.37 130.21 75.36Z" fill="#1A1818" fill-opacity="1.000000" fill-rule="evenodd"/>
		</g>
	</g>
	<g mask="url(#mask1_20022)">
		<g style="mix-blend-mode:normal">
			<path id="Path 21205" d="M94.18 57.39C92.86 57.34 91.82 56.15 91.94 54.83C92.05 53.58 93.13 52.64 94.39 52.69C95.73 52.74 96.74 53.91 96.62 55.26C96.51 56.52 95.44 57.45 94.18 57.39Z" fill="#1A1818" fill-opacity="1.000000" fill-rule="evenodd"/>
		</g>
	</g>
	<g mask="url(#mask1_20022)">
		<g style="mix-blend-mode:normal">
			<path id="Path 21206" d="M121.22 66.32C120.04 66.31 118.95 65.21 118.94 64.03C118.94 62.8 119.96 61.81 121.24 61.81C122.56 61.81 123.47 62.72 123.45 64.05C123.44 65.33 122.45 66.33 121.22 66.32Z" fill="#1A1818" fill-opacity="1.000000" fill-rule="evenodd"/>
		</g>
	</g>
	<g mask="url(#mask1_20022)">
		<g style="mix-blend-mode:normal">
			<path id="Path 21207" d="M40.41 39.4C39.12 39.43 37.98 38.25 38.04 36.96C38.12 35.72 39.17 34.77 40.44 34.8C41.73 34.83 42.68 35.8 42.65 37.1C42.64 38.38 41.66 39.38 40.41 39.4Z" fill="#1A1818" fill-opacity="1.000000" fill-rule="evenodd"/>
		</g>
	</g>
	<g mask="url(#mask1_20022)">
		<g style="mix-blend-mode:normal">
			<path id="Path 21208" d="M211.03 138.19C209.85 138.16 208.77 137.05 208.78 135.87C208.8 134.64 209.83 133.66 211.11 133.67C212.43 133.69 213.32 134.62 213.3 135.94C213.27 137.23 212.26 138.22 211.03 138.19Z" fill="#1A1818" fill-opacity="1.000000" fill-rule="evenodd"/>
		</g>
	</g>
	<g mask="url(#mask1_20022)">
		<g style="mix-blend-mode:normal">
			<path id="Path 21209" d="M202.12 129.22C200.94 129.23 199.83 128.15 199.8 126.96C199.77 125.72 200.76 124.72 202.05 124.69C203.39 124.66 204.31 125.56 204.32 126.89C204.33 128.17 203.36 129.2 202.12 129.22Z" fill="#1A1818" fill-opacity="1.000000" fill-rule="evenodd"/>
		</g>
	</g>
	<g mask="url(#mask1_20022)">
		<g style="mix-blend-mode:normal">
			<path id="Path 21210" d="M193.13 120.23C191.94 120.25 190.84 119.16 190.81 117.97C190.79 116.73 191.78 115.73 193.07 115.71C194.42 115.69 195.33 116.58 195.33 117.91C195.34 119.19 194.36 120.22 193.13 120.23Z" fill="#1A1818" fill-opacity="1.000000" fill-rule="evenodd"/>
		</g>
	</g>
	<g mask="url(#mask1_20022)">
		<g style="mix-blend-mode:normal">
			<path id="Path 21211" d="M175.02 102.25C173.84 102.18 172.78 101.03 172.85 99.86C172.9 98.64 173.98 97.69 175.25 97.73C176.55 97.78 177.42 98.74 177.36 100.08C177.3 101.34 176.24 102.32 175.02 102.25Z" fill="#1A1818" fill-opacity="1.000000" fill-rule="evenodd"/>
		</g>
	</g>
	<g mask="url(#mask1_20022)">
		<g style="mix-blend-mode:normal">
			<path id="Path 21212" d="M184.19 111.25C183.01 111.29 181.88 110.23 181.82 109.03C181.78 107.81 182.76 106.77 184.04 106.73C185.38 106.68 186.32 107.55 186.35 108.88C186.38 110.15 185.42 111.21 184.19 111.25Z" fill="#1A1818" fill-opacity="1.000000" fill-rule="evenodd"/>
		</g>
	</g>
	<g mask="url(#mask1_20022)">
		<g style="mix-blend-mode:normal">
			<path id="Path 21213" d="M85.4 48.32C84.26 48.38 83.08 47.28 83.04 46.12C83.01 44.91 84.05 43.87 85.3 43.87C86.61 43.87 87.53 44.81 87.49 46.13C87.45 47.28 86.53 48.26 85.4 48.32Z" fill="#1A1818" fill-opacity="1.000000" fill-rule="evenodd"/>
		</g>
	</g>
	<g mask="url(#mask1_20022)">
		<g style="mix-blend-mode:normal">
			<path id="Path 21214" d="M220 147.14C218.84 147.1 217.73 145.92 217.8 144.78C217.86 143.66 218.84 142.73 220 142.69C221.33 142.66 222.25 143.57 222.25 144.89C222.25 146.15 221.21 147.18 220 147.14Z" fill="#1A1818" fill-opacity="1.000000" fill-rule="evenodd"/>
		</g>
	</g>
	<g mask="url(#mask1_20022)">
		<g style="mix-blend-mode:normal">
			<path id="Path 21215" d="M166.05 93.24C164.88 93.17 163.81 91.96 163.9 90.82C163.99 89.69 164.98 88.79 166.15 88.79C167.46 88.78 168.38 89.72 168.35 91.03C168.32 92.28 167.25 93.31 166.05 93.24Z" fill="#1A1818" fill-opacity="1.000000" fill-rule="evenodd"/>
		</g>
	</g>
	<g mask="url(#mask1_20022)">
		<g style="mix-blend-mode:normal">
			<path id="Path 21216" d="M13.52 30.3C12.38 30.36 11.21 29.23 11.23 28.07C11.23 26.96 12.2 25.98 13.34 25.94C14.53 25.88 15.48 26.71 15.59 27.89C15.69 29.11 14.73 30.24 13.52 30.3Z" fill="#1A1818" fill-opacity="1.000000" fill-rule="evenodd"/>
		</g>
	</g>
	<g mask="url(#mask1_20022)">
		<g style="mix-blend-mode:normal">
			<path id="Path 21217" d="M229.05 156.08C227.88 156.08 226.77 154.91 226.83 153.76C226.9 152.56 228.04 151.6 229.27 151.71C230.44 151.83 231.26 152.78 231.21 153.98C231.15 155.11 230.17 156.07 229.05 156.08Z" fill="#1A1818" fill-opacity="1.000000" fill-rule="evenodd"/>
		</g>
	</g>
	<g mask="url(#mask1_20022)">
		<g style="mix-blend-mode:normal">
			<path id="Path 21218" d="M157.1 84.12C155.96 84.09 154.99 83.07 155.03 81.92C155.08 80.77 156.1 79.82 157.25 79.86C158.42 79.9 159.34 80.89 159.31 82.06C159.27 83.22 158.27 84.16 157.1 84.12Z" fill="#1A1818" fill-opacity="1.000000" fill-rule="evenodd"/>
		</g>
	</g>
	<g mask="url(#mask1_20022)">
		<g style="mix-blend-mode:normal">
			<path id="Path 21219" d="M58.42 39.29C57.25 39.33 56.08 38.14 56.14 36.98C56.2 35.84 57.23 34.89 58.39 34.91C59.6 34.94 60.51 35.85 60.51 37.06C60.52 38.23 59.55 39.24 58.42 39.29Z" fill="#1A1818" fill-opacity="1.000000" fill-rule="evenodd"/>
		</g>
	</g>
	<g mask="url(#mask1_20022)">
		<g style="mix-blend-mode:normal">
			<path id="Path 21220" d="M112.27 57.17C111.08 57.17 110.13 56.23 110.13 55.04C110.13 53.88 111.09 52.91 112.26 52.91C113.42 52.91 114.38 53.86 114.39 55.03C114.4 56.19 113.42 57.16 112.27 57.17Z" fill="#1A1818" fill-opacity="1.000000" fill-rule="evenodd"/>
		</g>
	</g>
	<g mask="url(#mask1_20022)">
		<g style="mix-blend-mode:normal">
			<path id="Path 21221" d="M148.17 75.05C147.04 75.04 146.23 74.27 146.16 73.14C146.1 71.94 146.96 70.96 148.12 70.91C149.24 70.88 150.27 71.86 150.29 72.97C150.32 74.12 149.36 75.06 148.17 75.05Z" fill="#1A1818" fill-opacity="1.000000" fill-rule="evenodd"/>
		</g>
	</g>
	<g mask="url(#mask1_20022)">
		<g style="mix-blend-mode:normal">
			<path id="Path 21222" d="M238.04 160.75C239.17 160.75 240.16 161.77 240.13 162.89C240.11 164.06 239.13 164.95 237.93 164.89C236.8 164.84 236 164.03 235.98 162.89C235.95 161.71 236.9 160.73 238.04 160.75Z" fill="#1A1818" fill-opacity="1.000000" fill-rule="evenodd"/>
		</g>
	</g>
	<g mask="url(#mask1_20022)">
		<g style="mix-blend-mode:normal">
			<path id="Path 21223" d="M31.45 30.15C30.23 30.17 29.33 29.27 29.34 28.05C29.36 26.96 30.2 26.06 31.28 25.99C32.4 25.91 33.45 26.86 33.51 27.99C33.56 29.15 32.62 30.13 31.45 30.15Z" fill="#1A1818" fill-opacity="1.000000" fill-rule="evenodd"/>
		</g>
	</g>
	<g mask="url(#mask1_20022)">
		<g style="mix-blend-mode:normal">
			<path id="Path 21224" d="M76.4 39.06C75.22 39.1 74.39 38.34 74.34 37.18C74.28 35.97 75.21 34.96 76.37 35.01C77.39 35.04 78.38 36.04 78.39 37.05C78.4 38.13 77.51 39.02 76.4 39.06Z" fill="#1A1818" fill-opacity="1.000000" fill-rule="evenodd"/>
		</g>
	</g>
	<g mask="url(#mask1_20022)">
		<g style="mix-blend-mode:normal">
			<path id="Path 21225" d="M139.14 65.98C138.01 65.95 137.2 65.09 137.25 63.94C137.29 62.86 138.23 61.95 139.28 62C140.29 62.05 141.26 63.09 141.23 64.09C141.19 65.16 140.25 66.01 139.14 65.98Z" fill="#1A1818" fill-opacity="1.000000" fill-rule="evenodd"/>
		</g>
	</g>
	<g mask="url(#mask1_20022)">
		<g style="mix-blend-mode:normal">
			<path id="Path 21226" d="M103.21 48.01C102.07 47.98 101.27 47.12 101.32 45.98C101.35 44.88 102.29 43.98 103.35 44.03C104.36 44.08 105.34 45.12 105.3 46.13C105.25 47.2 104.32 48.04 103.21 48.01Z" fill="#1A1818" fill-opacity="1.000000" fill-rule="evenodd"/>
		</g>
	</g>
	<g mask="url(#mask1_20022)">
		<g style="mix-blend-mode:normal">
			<path id="Path 21227" d="M247.01 169.8C248 169.8 249.03 170.83 249.05 171.81L245.06 171.84C245.06 170.73 245.94 169.81 247.01 169.8Z" fill="#1A1818" fill-opacity="1.000000" fill-rule="evenodd"/>
		</g>
	</g>
	<g mask="url(#mask1_20022)">
		<g style="mix-blend-mode:normal">
			<path id="Path 21228" d="M49.43 30.05C48.28 30.08 47.43 29.28 47.41 28.14C47.39 27.03 48.25 26.1 49.32 26.06C50.32 26.04 51.37 27.03 51.4 28.03C51.44 29.09 50.53 30.02 49.43 30.05Z" fill="#1A1818" fill-opacity="1.000000" fill-rule="evenodd"/>
		</g>
	</g>
	<g mask="url(#mask1_20022)">
		<g style="mix-blend-mode:normal">
			<path id="Path 21229" d="M4.38 21.03C3.38 21 2.58 20.22 2.53 19.21C2.47 18.13 3.32 17.18 4.4 17.15C5.41 17.13 6.41 18.09 6.41 19.11C6.41 20.17 5.48 21.06 4.38 21.03Z" fill="#1A1818" fill-opacity="1.000000" fill-rule="evenodd"/>
		</g>
	</g>
	<g mask="url(#mask1_20022)">
		<g style="mix-blend-mode:normal">
			<path id="Path 21230" d="M193.09 101.86C192.02 101.84 191.13 100.87 191.23 99.79C191.32 98.79 192.2 98.05 193.23 98.11C194.27 98.16 195.01 98.99 194.96 100.04C194.92 101.05 194.1 101.86 193.09 101.86Z" fill="#1A1818" fill-opacity="1.000000" fill-rule="evenodd"/>
		</g>
	</g>
	<g mask="url(#mask1_20022)">
		<g style="mix-blend-mode:normal">
			<path id="Path 21231" d="M211.07 119.82C209.99 119.82 209.1 118.84 209.19 117.77C209.29 116.77 210.17 116.02 211.19 116.07C212.22 116.13 212.98 116.94 212.94 118C212.9 119.01 212.06 119.82 211.07 119.82Z" fill="#1A1818" fill-opacity="1.000000" fill-rule="evenodd"/>
		</g>
	</g>
	<g mask="url(#mask1_20022)">
		<g style="mix-blend-mode:normal">
			<path id="Path 21232" d="M202.18 110.84C201.11 110.89 200.16 109.96 200.2 108.88C200.23 107.89 201.09 107.08 202.11 107.08C203.16 107.08 203.95 107.86 203.96 108.91C203.97 109.93 203.18 110.79 202.18 110.84Z" fill="#1A1818" fill-opacity="1.000000" fill-rule="evenodd"/>
		</g>
	</g>
	<g mask="url(#mask1_20022)">
		<g style="mix-blend-mode:normal">
			<path id="Path 21233" d="M22.44 20.97C21.49 20.98 20.58 20.11 20.56 19.16C20.52 18.18 21.34 17.35 22.37 17.33C23.44 17.3 24.18 18.01 24.2 19.08C24.21 20.1 23.42 20.95 22.44 20.97Z" fill="#1A1818" fill-opacity="1.000000" fill-rule="evenodd"/>
		</g>
	</g>
	<g mask="url(#mask1_20022)">
		<g style="mix-blend-mode:normal">
			<path id="Path 21234" d="M184.11 92.83C183.16 92.83 182.27 91.94 182.27 90.99C182.26 90 183.1 89.2 184.13 89.19C185.2 89.18 185.92 89.91 185.91 90.99C185.9 92.02 185.09 92.84 184.11 92.83Z" fill="#1A1818" fill-opacity="1.000000" fill-rule="evenodd"/>
		</g>
	</g>
	<g mask="url(#mask1_20022)">
		<g style="mix-blend-mode:normal">
			<path id="Path 21235" d="M67.36 29.95C66.41 29.96 65.51 29.09 65.48 28.14C65.45 27.16 66.26 26.33 67.28 26.3C68.37 26.28 69.11 26.99 69.12 28.06C69.13 29.09 68.34 29.94 67.36 29.95Z" fill="#1A1818" fill-opacity="1.000000" fill-rule="evenodd"/>
		</g>
	</g>
	<g mask="url(#mask1_20022)">
		<g style="mix-blend-mode:normal">
			<path id="Path 21236" d="M130.14 56.9C129.19 56.85 128.33 55.92 128.36 54.99C128.39 54.02 129.27 53.23 130.28 53.25C131.36 53.28 132.05 54.03 132.01 55.12C131.96 56.14 131.12 56.95 130.14 56.9Z" fill="#1A1818" fill-opacity="1.000000" fill-rule="evenodd"/>
		</g>
	</g>
	<g mask="url(#mask1_20022)">
		<g style="mix-blend-mode:normal">
			<path id="Path 21237" d="M219.98 128.77C219.03 128.72 218.17 127.79 218.2 126.85C218.24 125.89 219.12 125.1 220.13 125.13C221.2 125.15 221.89 125.91 221.84 127C221.79 128.02 220.96 128.82 219.98 128.77Z" fill="#1A1818" fill-opacity="1.000000" fill-rule="evenodd"/>
		</g>
	</g>
	<g mask="url(#mask1_20022)">
		<g style="mix-blend-mode:normal">
			<path id="Path 21238" d="M94.26 38.93C93.31 38.92 92.43 38.03 92.43 37.08C92.42 36.09 93.25 35.3 94.29 35.29C95.36 35.28 96.09 36.02 96.07 37.1C96.06 38.12 95.24 38.95 94.26 38.93Z" fill="#1A1818" fill-opacity="1.000000" fill-rule="evenodd"/>
		</g>
	</g>
	<g mask="url(#mask1_20022)">
		<g style="mix-blend-mode:normal">
			<path id="Path 21239" d="M229.12 137.72C228.22 137.76 227.22 136.81 227.23 135.88C227.23 134.9 228.16 134.09 229.18 134.16C230.15 134.22 230.8 134.94 230.79 135.94C230.77 136.87 230.02 137.68 229.12 137.72Z" fill="#1A1818" fill-opacity="1.000000" fill-rule="evenodd"/>
		</g>
	</g>
	<g mask="url(#mask1_20022)">
		<g style="mix-blend-mode:normal">
			<path id="Path 21240" d="M175.07 83.8C174.23 83.76 173.37 82.88 173.34 82.05C173.29 81.08 174.18 80.23 175.2 80.26C176.19 80.29 176.85 80.96 176.88 81.96C176.9 82.98 176.05 83.85 175.07 83.8Z" fill="#1A1818" fill-opacity="1.000000" fill-rule="evenodd"/>
		</g>
	</g>
	<g mask="url(#mask1_20022)">
		<g style="mix-blend-mode:normal">
			<path id="Path 21241" d="M121.3 47.81C120.38 47.84 119.43 46.85 119.49 45.95C119.55 45.06 120.37 44.33 121.29 44.36C122.23 44.38 122.93 45.12 122.94 46.06C122.95 46.98 122.19 47.77 121.3 47.81Z" fill="#1A1818" fill-opacity="1.000000" fill-rule="evenodd"/>
		</g>
	</g>
	<g mask="url(#mask1_20022)">
		<g style="mix-blend-mode:normal">
			<path id="Path 21242" d="M239.74 144.78C239.8 145.69 239.09 146.54 238.19 146.63C237.27 146.72 236.27 145.81 236.27 144.88C236.27 143.98 237.05 143.2 237.97 143.18C238.92 143.15 239.68 143.84 239.74 144.78Z" fill="#1A1818" fill-opacity="1.000000" fill-rule="evenodd"/>
		</g>
	</g>
	<g mask="url(#mask1_20022)">
		<g style="mix-blend-mode:normal">
			<path id="Path 21243" d="M40.46 20.87C39.57 20.92 38.58 19.93 38.62 19.02C38.67 18.13 39.48 17.38 40.41 17.4C41.37 17.42 42.07 18.12 42.09 19.08C42.1 20.01 41.36 20.82 40.46 20.87Z" fill="#1A1818" fill-opacity="1.000000" fill-rule="evenodd"/>
		</g>
	</g>
	<g mask="url(#mask1_20022)">
		<g style="mix-blend-mode:normal">
			<path id="Path 21244" d="M166.18 74.75C165.33 74.76 164.47 73.94 164.42 73.08C164.37 72.19 165.11 71.38 166.02 71.32C167.04 71.24 167.87 72.02 167.86 73.05C167.84 73.97 167.08 74.74 166.18 74.75Z" fill="#1A1818" fill-opacity="1.000000" fill-rule="evenodd"/>
		</g>
	</g>
	<g mask="url(#mask1_20022)">
		<g style="mix-blend-mode:normal">
			<path id="Path 21245" d="M246.81 155.49C245.95 155.39 245.35 154.69 245.37 153.81C245.4 152.87 246.21 152.14 247.12 152.19C248.02 152.26 248.76 153.12 248.68 154.01C248.59 154.93 247.75 155.6 246.81 155.49Z" fill="#1A1818" fill-opacity="1.000000" fill-rule="evenodd"/>
		</g>
	</g>
	<g mask="url(#mask1_20022)">
		<g style="mix-blend-mode:normal">
			<path id="Path 21246" d="M85.45 29.64C84.52 29.71 83.84 29.16 83.76 28.26C83.67 27.28 84.36 26.47 85.3 26.46C86.09 26.45 86.89 27.2 86.93 28C86.99 28.83 86.32 29.56 85.45 29.64Z" fill="#1A1818" fill-opacity="1.000000" fill-rule="evenodd"/>
		</g>
	</g>
	<g mask="url(#mask1_20022)">
		<g style="mix-blend-mode:normal">
			<path id="Path 21247" d="M58.29 20.66C57.36 20.62 56.77 19.99 56.8 19.08C56.82 18.21 57.52 17.49 58.33 17.49C59.22 17.47 60.04 18.35 59.97 19.23C59.9 20.06 59.17 20.68 58.29 20.66Z" fill="#1A1818" fill-opacity="1.000000" fill-rule="evenodd"/>
		</g>
	</g>
	<g mask="url(#mask1_20022)">
		<g style="mix-blend-mode:normal">
			<path id="Path 21248" d="M157.11 65.57C156.2 65.55 155.6 64.9 155.62 63.99C155.64 63.13 156.34 62.41 157.16 62.4C158.05 62.38 158.87 63.26 158.8 64.14C158.72 64.98 157.99 65.61 157.11 65.57Z" fill="#1A1818" fill-opacity="1.000000" fill-rule="evenodd"/>
		</g>
	</g>
	<g mask="url(#mask1_20022)">
		<g style="mix-blend-mode:normal">
			<path id="Path 21249" d="M112.23 38.57C111.32 38.57 110.7 37.91 110.76 36.99C110.81 36.1 111.36 35.63 112.18 35.52C112.95 35.42 113.81 36.25 113.83 37.03C113.85 37.83 113.08 38.58 112.23 38.57Z" fill="#1A1818" fill-opacity="1.000000" fill-rule="evenodd"/>
		</g>
	</g>
	<g mask="url(#mask1_20022)">
		<g style="mix-blend-mode:normal">
			<path id="Path 21250" d="M13.41 11.62C12.5 11.62 11.88 10.96 11.94 10.03C11.99 9.15 12.53 8.67 13.36 8.56C14.12 8.47 14.98 9.3 15.01 10.08C15.03 10.87 14.26 11.63 13.41 11.62Z" fill="#1A1818" fill-opacity="1.000000" fill-rule="evenodd"/>
		</g>
	</g>
	<g mask="url(#mask1_20022)">
		<g style="mix-blend-mode:normal">
			<path id="Path 21251" d="M255.93 161.29C256.69 161.19 257.56 162.03 257.58 162.8C257.6 163.6 256.83 164.35 255.99 164.35C255.07 164.35 254.44 163.68 254.5 162.76C254.56 161.88 255.1 161.41 255.93 161.29Z" fill="#1A1818" fill-opacity="1.000000" fill-rule="evenodd"/>
		</g>
	</g>
	<g mask="url(#mask1_20022)">
		<g style="mix-blend-mode:normal">
			<path id="Path 21252" d="M148 56.5C147.13 56.36 146.69 55.82 146.73 54.95C146.77 54.07 147.36 53.63 148.17 53.54C148.95 53.47 149.75 54.34 149.69 55.12C149.65 55.96 148.83 56.63 148 56.5Z" fill="#1A1818" fill-opacity="1.000000" fill-rule="evenodd"/>
		</g>
	</g>
	<g mask="url(#mask1_20022)">
		<g style="mix-blend-mode:normal">
			<path id="Path 21253" d="M30.96 11.56C30.7 11.17 30.11 10.65 30.03 10.06C29.92 9.21 30.6 8.74 31.45 8.77C32.32 8.79 32.8 9.32 32.76 10.2C32.71 11.06 32.2 11.51 30.96 11.56Z" fill="#1A1818" fill-opacity="1.000000" fill-rule="evenodd"/>
		</g>
	</g>
	<g mask="url(#mask1_20022)">
		<g style="mix-blend-mode:normal">
			<path id="Path 21254" d="M264.93 170.49C265.76 170.45 266.35 171.04 266.33 171.86L263.57 171.71C263.68 170.95 264.15 170.53 264.93 170.49Z" fill="#1A1818" fill-opacity="1.000000" fill-rule="evenodd"/>
		</g>
	</g>
	<g mask="url(#mask1_20022)">
		<g style="mix-blend-mode:normal">
			<path id="Path 21255" d="M74.95 19.02C74.99 18.3 75.78 17.6 76.5 17.87C77 18.05 77.38 18.6 78.1 19.25C77.3 19.81 76.85 20.3 76.31 20.43C75.66 20.59 74.91 19.72 74.95 19.02Z" fill="#1A1818" fill-opacity="1.000000" fill-rule="evenodd"/>
		</g>
	</g>
	<g mask="url(#mask1_20022)">
		<g style="mix-blend-mode:normal">
			<path id="Path 21256" d="M101.91 28.09C101.91 27.35 102.64 26.63 103.37 26.84C103.88 26.99 104.29 27.52 105.05 28.11C104.28 28.72 103.86 29.24 103.34 29.42C102.7 29.63 101.91 28.79 101.91 28.09Z" fill="#1A1818" fill-opacity="1.000000" fill-rule="evenodd"/>
		</g>
	</g>
	<g mask="url(#mask1_20022)">
		<g style="mix-blend-mode:normal">
			<path id="Path 21257" d="M219.77 110.33C219.49 109.98 218.88 109.51 218.75 108.93C218.61 108.24 219.17 107.71 219.96 107.67C220.73 107.62 221.22 107.97 221.34 108.77C221.46 109.53 220.87 110.27 219.77 110.33Z" fill="#1A1818" fill-opacity="1.000000" fill-rule="evenodd"/>
		</g>
	</g>
	<g mask="url(#mask1_20022)">
		<g style="mix-blend-mode:normal">
			<path id="Path 21258" d="M229.04 119.29C228.34 119.28 227.51 118.48 227.72 117.85C227.9 117.32 228.42 116.91 229.04 116.15C229.63 116.91 230.15 117.32 230.29 117.84C230.51 118.57 229.77 119.3 229.04 119.29Z" fill="#1A1818" fill-opacity="1.000000" fill-rule="evenodd"/>
		</g>
	</g>
	<g mask="url(#mask1_20022)">
		<g style="mix-blend-mode:normal">
			<path id="Path 21259" d="M209.71 99.91C209.74 99.18 210.51 98.47 211.23 98.71C211.74 98.89 212.12 99.43 212.87 100.06C212.07 100.64 211.63 101.14 211.1 101.28C210.44 101.47 209.69 100.61 209.71 99.91Z" fill="#1A1818" fill-opacity="1.000000" fill-rule="evenodd"/>
		</g>
	</g>
	<g mask="url(#mask1_20022)">
		<g style="mix-blend-mode:normal">
			<path id="Path 21260" d="M139.35 47.36C138.76 47.31 138.23 46.72 137.32 46.14C138.12 45.51 138.53 44.97 139.06 44.81C139.84 44.57 140.48 45.21 140.5 46.04C140.51 46.83 140.04 47.43 139.35 47.36Z" fill="#1A1818" fill-opacity="1.000000" fill-rule="evenodd"/>
		</g>
	</g>
	<g mask="url(#mask1_20022)">
		<g style="mix-blend-mode:normal">
			<path id="Path 21261" d="M202.01 92.86C201.43 91.95 200.85 91.42 200.79 90.83C200.72 90.15 201.33 89.67 202.12 89.69C202.95 89.71 203.59 90.35 203.34 91.13C203.18 91.65 202.65 92.07 202.01 92.86Z" fill="#1A1818" fill-opacity="1.000000" fill-rule="evenodd"/>
		</g>
	</g>
	<g mask="url(#mask1_20022)">
		<g style="mix-blend-mode:normal">
			<path id="Path 21262" d="M236.79 127C236.74 126.27 237.17 125.64 237.94 125.72C238.47 125.79 238.94 126.26 239.81 126.77C239.01 127.43 238.61 128.03 238.11 128.13C237.4 128.29 236.83 127.75 236.79 127Z" fill="#1A1818" fill-opacity="1.000000" fill-rule="evenodd"/>
		</g>
	</g>
	<g mask="url(#mask1_20022)">
		<g style="mix-blend-mode:normal">
			<path id="Path 21263" d="M48.13 10.18C48.1 9.45 48.53 8.83 49.3 8.93C49.82 9 50.29 9.49 51.16 10.01C50.34 10.66 49.92 11.24 49.41 11.34C48.7 11.49 48.15 10.93 48.13 10.18Z" fill="#1A1818" fill-opacity="1.000000" fill-rule="evenodd"/>
		</g>
	</g>
	<g mask="url(#mask1_20022)">
		<g style="mix-blend-mode:normal">
			<path id="Path 21264" d="M191.9 82.01C191.79 81.32 192.3 80.78 193.09 80.77C193.87 80.77 194.43 81.22 194.3 81.97C194.21 82.49 193.7 82.94 193.14 83.75C192.55 82.96 191.98 82.53 191.9 82.01Z" fill="#1A1818" fill-opacity="1.000000" fill-rule="evenodd"/>
		</g>
	</g>
	<g mask="url(#mask1_20022)">
		<g style="mix-blend-mode:normal">
			<path id="Path 21265" d="M184.15 74.21C183.41 74.35 182.8 73.75 182.92 73C183.01 72.49 183.59 72.05 184.26 71.19C184.78 72.12 185.31 72.64 185.28 73.14C185.25 73.54 184.61 74.14 184.15 74.21Z" fill="#1A1818" fill-opacity="1.000000" fill-rule="evenodd"/>
		</g>
	</g>
	<g mask="url(#mask1_20022)">
		<g style="mix-blend-mode:normal">
			<path id="Path 21266" d="M3.41 1.19C3.45 0.76 3.95 0.12 4.36 0.03C5.09 -0.15 5.67 0.42 5.57 1.16C5.53 1.61 5 2 4.44 2.75C3.93 2.01 3.38 1.58 3.41 1.19Z" fill="#1A1818" fill-opacity="1.000000" fill-rule="evenodd"/>
		</g>
	</g>
	<g mask="url(#mask1_20022)">
		<g style="mix-blend-mode:normal">
			<path id="Path 21267" d="M129.12 37.05C129.17 36.3 129.61 35.74 130.4 35.96C130.85 36.09 131.19 36.62 131.87 37.23C131.08 37.68 130.65 38.09 130.17 38.15C129.48 38.24 129.08 37.72 129.12 37.05Z" fill="#1A1818" fill-opacity="1.000000" fill-rule="evenodd"/>
		</g>
	</g>
	<g mask="url(#mask1_20022)">
		<g style="mix-blend-mode:normal">
			<path id="Path 21268" d="M245.91 135.88C245.96 135.12 246.4 134.56 247.18 134.78C247.64 134.91 247.98 135.44 248.67 136.05C247.88 136.5 247.44 136.91 246.96 136.98C246.28 137.07 245.87 136.55 245.91 135.88Z" fill="#1A1818" fill-opacity="1.000000" fill-rule="evenodd"/>
		</g>
	</g>
	<g mask="url(#mask1_20022)">
		<g style="mix-blend-mode:normal">
			<path id="Path 21269" d="M175.08 65.01C174.86 65.08 174.17 64.45 174.16 64.12C174.15 63.67 174.59 63.22 175.05 62.38C175.63 63.16 176.22 63.61 176.19 64.01C176.17 64.39 175.54 64.88 175.08 65.01Z" fill="#1A1818" fill-opacity="1.000000" fill-rule="evenodd"/>
		</g>
	</g>
	<g mask="url(#mask1_20022)">
		<g style="mix-blend-mode:normal">
			<path id="Path 21270" d="M166.08 56.03C165.77 55.68 165.25 55.33 165.24 54.97C165.23 54.63 165.76 54.27 166.25 53.66C166.66 54.34 167.12 54.77 167.06 55.12C166.99 55.47 166.43 55.73 166.08 56.03Z" fill="#1A1818" fill-opacity="1.000000" fill-rule="evenodd"/>
		</g>
	</g>
	<g mask="url(#mask1_20022)">
		<g style="mix-blend-mode:normal">
			<path id="Path 21271" d="M21.49 1.21C21.51 0.85 22.03 0.26 22.34 0.24C22.68 0.23 23.26 0.74 23.32 1.1C23.38 1.43 22.91 1.86 22.5 2.54C22 1.92 21.48 1.55 21.49 1.21Z" fill="#1A1818" fill-opacity="1.000000" fill-rule="evenodd"/>
		</g>
	</g>
	<g mask="url(#mask1_20022)">
		<g style="mix-blend-mode:normal">
			<path id="Path 21272" d="M67.44 11.04C67.07 11.03 66.71 10.52 66.35 10.24C66.64 9.88 66.88 9.31 67.23 9.23C67.56 9.15 68.01 9.59 68.72 9.97C68.12 10.5 67.78 11.04 67.44 11.04Z" fill="#1A1818" fill-opacity="1.000000" fill-rule="evenodd"/>
		</g>
	</g>
	<g mask="url(#mask1_20022)">
		<g style="mix-blend-mode:normal">
			<path id="Path 21273" d="M255.07 144.87C255.11 144.51 255.68 144.21 256.01 143.88C256.34 144.23 256.88 144.55 256.92 144.92C256.96 145.26 256.44 145.65 255.96 146.3C255.52 145.63 255.02 145.21 255.07 144.87Z" fill="#1A1818" fill-opacity="1.000000" fill-rule="evenodd"/>
		</g>
	</g>
	<g mask="url(#mask1_20022)">
		<g style="mix-blend-mode:normal">
			<path id="Path 21274" d="M93.36 19.13C93.36 18.8 93.91 18.22 94.27 18.18C94.62 18.14 95.03 18.64 95.69 19.09C95.06 19.56 94.66 20.07 94.31 20.04C93.95 20.01 93.37 19.46 93.36 19.13Z" fill="#1A1818" fill-opacity="1.000000" fill-rule="evenodd"/>
		</g>
	</g>
	<g mask="url(#mask1_20022)">
		<g style="mix-blend-mode:normal">
			<path id="Path 21275" d="M120.4 28.04C120.32 27.88 120.85 27.46 121.24 27C121.6 27.45 122.03 27.76 122.01 28.04C121.99 28.37 121.58 28.68 121.34 28.99C121 28.68 120.56 28.42 120.4 28.04Z" fill="#1A1818" fill-opacity="1.000000" fill-rule="evenodd"/>
		</g>
	</g>
	<g mask="url(#mask1_20022)">
		<g style="mix-blend-mode:normal">
			<path id="Path 21276" d="M39.49 0.98C39.82 0.76 40.15 0.37 40.48 0.37C40.76 0.36 41.04 0.82 41.45 1.21C40.98 1.56 40.53 2.05 40.38 1.97C40.02 1.78 39.78 1.33 39.49 0.98Z" fill="#1A1818" fill-opacity="1.000000" fill-rule="evenodd"/>
		</g>
	</g>
	<g mask="url(#mask1_20022)">
		<g style="mix-blend-mode:normal">
			<path id="Path 21277" d="M265.01 154.75C264.71 154.43 264.23 154.13 264.14 153.75C264.07 153.42 264.42 152.98 264.59 152.6C264.78 152.72 264.98 152.83 265.18 152.95C265.39 153.27 265.78 153.6 265.75 153.88C265.7 154.2 265.28 154.47 265.01 154.75Z" fill="#1A1818" fill-opacity="1.000000" fill-rule="evenodd"/>
		</g>
	</g>
	<g mask="url(#mask1_20022)">
		<g style="mix-blend-mode:normal">
			<path id="Path 21278" d="M156.35 46.13C156.5 45.77 156.96 45.52 157.3 45.24C157.52 45.54 157.94 45.84 157.93 46.14C157.93 46.45 157.5 46.75 157.15 47.19C156.78 46.72 156.28 46.31 156.35 46.13Z" fill="#1A1818" fill-opacity="1.000000" fill-rule="evenodd"/>
		</g>
	</g>
	<g mask="url(#mask1_20022)">
		<g style="mix-blend-mode:normal">
			<path id="Path 21279" d="M84.61 10.2C84.87 9.92 85.08 9.56 85.4 9.43C85.55 9.37 85.88 9.81 86.28 10.13C85.88 10.44 85.61 10.79 85.37 10.78C85.11 10.77 84.86 10.41 84.61 10.2Z" fill="#1A1818" fill-opacity="1.000000" fill-rule="evenodd"/>
		</g>
	</g>
	<g mask="url(#mask1_20022)">
		<g style="mix-blend-mode:normal">
			<path id="Path 21280" d="M274.01 162.16C274.15 162.09 274.52 162.48 274.95 162.79C274.58 163.12 274.34 163.5 274.09 163.51C273.82 163.51 273.55 163.18 273.28 162.98C273.51 162.7 273.7 162.3 274.01 162.16Z" fill="#1A1818" fill-opacity="1.000000" fill-rule="evenodd"/>
		</g>
	</g>
	<g mask="url(#mask1_20022)">
		<g style="mix-blend-mode:normal">
			<path id="Path 21281" d="M147.63 37.03C147.58 36.96 147.96 36.45 148.1 36.47C148.38 36.52 148.65 36.77 149.09 37.04C148.72 37.32 148.48 37.64 148.32 37.6C148.05 37.54 147.78 37.29 147.63 37.03Z" fill="#1A1818" fill-opacity="1.000000" fill-rule="evenodd"/>
		</g>
	</g>
	<g mask="url(#mask1_20022)">
		<g style="mix-blend-mode:normal">
			<path id="Path 21282" d="M58.49 1.66C58.22 1.59 57.91 1.36 57.79 1.11C57.72 0.97 58.01 0.66 58.23 0.25C58.58 0.64 58.88 0.85 58.98 1.14C59.02 1.25 58.61 1.7 58.49 1.66Z" fill="#1A1818" fill-opacity="1.000000" fill-rule="evenodd"/>
		</g>
	</g>
	<g mask="url(#mask1_20022)">
		<g style="mix-blend-mode:normal">
			<path id="Path 21283" d="M112.25 19.88C112 19.58 111.68 19.34 111.72 19.2C111.8 18.91 112.08 18.69 112.28 18.44C112.48 18.69 112.77 18.92 112.86 19.21C112.89 19.34 112.53 19.58 112.25 19.88Z" fill="#1A1818" fill-opacity="1.000000" fill-rule="evenodd"/>
		</g>
	</g>
	<g mask="url(#mask1_20022)">
		<g style="mix-blend-mode:normal">
			<path id="Path 21284" d="M219.53 90.76C219.71 90.72 219.95 90.58 220.06 90.65C220.27 90.79 220.4 91.04 220.62 91.33C220.28 91.44 219.99 91.6 219.95 91.54C219.77 91.31 219.66 91.03 219.53 90.76Z" fill="#1A1818" fill-opacity="1.000000" fill-rule="evenodd"/>
		</g>
	</g>
</svg>
