<svg width="1440.454102" height="133.838379" viewBox="0 0 1440.45 133.838" fill="none" xmlns="http://www.w3.org/2000/svg" xmlns:xlink="http://www.w3.org/1999/xlink">
	<desc>
			Created with Pixso.
	</desc>
	<defs/>
	<g style="mix-blend-mode:normal">
		<mask id="mask_20_663" fill="white">
			<path id="Union" d="M122.314 75.8267C48.7664 65.6842 15.1431 64.9768 0 66.0435L0 34.0896C0.150146 34.0433 0.301514 33.9968 0.454102 33.9498L0.454102 0L1440.45 0L1440.45 46L1440 46L1440 81.4589C1420.34 81.5145 1396.48 88.3455 1363.96 97.6593C1339.74 104.595 1310.71 112.906 1275.03 120.823C1200.48 137.36 1175.62 135.333 1110.04 129.987C1100.45 129.205 1089.98 128.352 1078.36 127.475C987.312 120.608 886.726 75.0415 839.007 68.2726C791.288 61.5037 702.611 71.4985 657.882 81.4829C613.15 91.4673 532.737 113.182 434.456 115.237C367.561 116.635 304.046 105.722 231.552 93.2653C197.541 87.4214 161.554 81.2378 122.314 75.8267Z" clip-rule="evenodd" fill="" fill-opacity="1.000000" fill-rule="evenodd"/>
		</mask>
		<path id="Union" d="M122.314 75.8267C48.7664 65.6842 15.1431 64.9768 0 66.0435L0 34.0896C0.150146 34.0433 0.301514 33.9968 0.454102 33.9498L0.454102 0L1440.45 0L1440.45 46L1440 46L1440 81.4589C1420.34 81.5145 1396.48 88.3455 1363.96 97.6593C1339.74 104.595 1310.71 112.906 1275.03 120.823C1200.48 137.36 1175.62 135.333 1110.04 129.987C1100.45 129.205 1089.98 128.352 1078.36 127.475C987.312 120.608 886.726 75.0415 839.007 68.2726C791.288 61.5037 702.611 71.4985 657.882 81.4829C613.15 91.4673 532.737 113.182 434.456 115.237C367.561 116.635 304.046 105.722 231.552 93.2653C197.541 87.4214 161.554 81.2378 122.314 75.8267Z" clip-rule="evenodd" fill="#FFFFFF" fill-opacity="1.000000" fill-rule="evenodd" mask="url(#mask_20_663)"/>
		<path id="Union" d="" fill="#707070" fill-opacity="0.000000" fill-rule="nonzero"/>
	</g>
</svg>
