<svg width="51.439209" height="52.545166" viewBox="0 0 51.4392 52.5452" fill="none" xmlns="http://www.w3.org/2000/svg" xmlns:xlink="http://www.w3.org/1999/xlink">
	<desc>
			Created with Pixso.
	</desc>
	<defs/>
	<g style="mix-blend-mode:normal">
		<circle id="Ellipse 382" cx="20.873779" cy="31.167603" r="17.442499" fill="#FCD100" fill-opacity="1.000000"/>
		<circle id="Ellipse 382" cx="20.873779" cy="31.167603" r="16.942499" stroke="#707070" stroke-opacity="0" stroke-width="1.000000"/>
	</g>
	<mask id="mask1_19545" mask-type="alpha" maskUnits="userSpaceOnUse" x="0.000000" y="0.000000" width="51.439209" height="52.545166">
		<g style="mix-blend-mode:normal">
			<rect id="Rectangle 2882" width="51.439304" height="52.545166" fill="#C4C4C4" fill-opacity="1.000000"/>
		</g>
	</mask>
	<g mask="url(#mask1_19545)">
		<g style="mix-blend-mode:normal">
			<path id="Path 20959" d="M8.73 19.55C8.73 19.55 18.06 10.74 29.7 19.21C30.3 16.45 32.58 14.64 32.58 14.64C32.58 14.64 23.11 10.45 17.8 12.99C12.5 15.53 8.73 19.55 8.73 19.55Z" fill="#ED4D37" fill-opacity="1.000000" fill-rule="nonzero"/>
		</g>
	</g>
	<g mask="url(#mask1_19545)">
		<g style="mix-blend-mode:normal">
			<path id="Path 20960" d="M42.08 27.42L33.97 24.35C33.97 24.35 36.63 32.07 34.18 38.07C31.73 44.07 23.86 47.31 23.86 47.31L30.15 46.67L33.66 43.06L35 45.69C35 45.69 41.1 43.4 41.73 38.7C42.36 34.01 42.08 27.42 42.08 27.42Z" fill="#ED4D37" fill-opacity="1.000000" fill-rule="nonzero"/>
		</g>
	</g>
	<g mask="url(#mask1_19545)">
		<g style="mix-blend-mode:normal">
			<path id="Path 20962" d="M15.17 14.16C13.22 8.46 4.75 10.16 1.67 13.9C-1.31 17.5 0.12 23.7 4.15 25.84C4.53 26.04 4.96 25.86 5.1 25.46C6.65 20.94 10.19 16.74 14.72 14.95C15.48 14.65 15.15 13.4 14.38 13.71C9.4 15.68 5.57 20.13 3.86 25.12C4.17 24.99 4.49 24.86 4.8 24.73C1.57 23.02 0.62 18.78 2.11 15.58C3.86 11.83 12.27 9.66 13.93 14.5C14.2 15.28 15.44 14.94 15.17 14.16Z" fill="#121212" fill-opacity="1.000000" fill-rule="nonzero"/>
		</g>
	</g>
	<g mask="url(#mask1_19545)">
		<g style="mix-blend-mode:normal">
			<path id="Path 20963" d="M39.03 12.29C36.87 11.88 34.77 12.55 33.06 13.94C32.18 14.66 28.29 18.14 29.14 19.54C32.1 24.41 37.3 27.5 42.97 28.01C43.2 28.03 43.4 27.86 43.52 27.69C44.29 26.57 45.54 25.39 45.91 24.05C46.27 22.75 46.29 21.43 46.39 20.09C46.61 17.34 45.96 15.19 43.62 13.61C42.94 13.15 42.29 14.26 42.98 14.72C45.67 16.54 45.74 21.44 44.41 24.24C42.88 27.44 40.21 26.44 37.55 25.3C34.78 24.11 32.43 22.1 30.71 19.64C29.86 18.42 32.55 16.11 33.32 15.38C34.74 14.03 36.73 13.16 38.69 13.53C39.5 13.68 39.84 12.44 39.03 12.29Z" fill="#121212" fill-opacity="1.000000" fill-rule="nonzero"/>
		</g>
	</g>
	<g mask="url(#mask1_19545)">
		<g style="mix-blend-mode:normal">
			<path id="Path 20964" d="M30.15 18.76C25.66 15.17 20.56 13.66 14.95 15.3C10.34 16.65 6.49 20.06 4.4 24.33C0.57 32.17 3.75 42.43 11.84 46.01C17.3 48.42 24.2 48.21 29.28 44.99C36.32 40.52 36.3 31.4 34.59 24.18C34.4 23.37 33.16 23.71 33.35 24.52C34.93 31.17 35.07 39.14 29.01 43.62C24.9 46.65 19.17 46.88 14.39 45.56C6.66 43.43 2.78 35.35 4.55 27.71C5.58 23.28 8.57 20 12.42 17.78C18.06 14.54 24.32 15.74 29.24 19.67C29.88 20.18 30.8 19.27 30.15 18.76Z" fill="#121212" fill-opacity="1.000000" fill-rule="nonzero"/>
		</g>
	</g>
	<g mask="url(#mask1_19545)">
		<g style="mix-blend-mode:normal">
			<path id="Path 20965" d="M34.35 46.3C42.57 43.16 43.8 35.2 42.7 27.25C42.58 26.43 41.34 26.78 41.46 27.59C42.45 34.72 41.51 42.2 34.01 45.07C33.24 45.36 33.57 46.6 34.35 46.3Z" fill="#121212" fill-opacity="1.000000" fill-rule="nonzero"/>
		</g>
	</g>
	<g mask="url(#mask1_19545)">
		<g style="mix-blend-mode:normal">
			<path id="Path 20966" d="M20.97 47.51C24.1 47.83 27.21 47.75 30.32 47.29C31.14 47.17 30.79 45.93 29.98 46.05C26.99 46.5 23.98 46.53 20.97 46.22C20.15 46.14 20.15 47.42 20.97 47.51Z" fill="#121212" fill-opacity="1.000000" fill-rule="nonzero"/>
		</g>
	</g>
	<g mask="url(#mask1_19545)">
		<g style="mix-blend-mode:normal">
			<path id="Path 20967" d="M7.54 42.73C6.96 44.08 6.54 45.45 6.28 46.9C6.12 47.8 5.76 49.27 6.51 50.03C8.24 51.76 11.4 47.24 12.26 46.14C12.76 45.49 11.86 44.57 11.35 45.23C10.88 45.83 10.4 46.41 9.89 46.98C9.58 47.31 9.25 47.63 8.93 47.95C8.86 48.02 7.41 49.37 7.36 48.76C7.21 47.04 7.98 44.94 8.65 43.38C8.97 42.63 7.86 41.97 7.54 42.73Z" fill="#121212" fill-opacity="1.000000" fill-rule="nonzero"/>
		</g>
	</g>
	<g mask="url(#mask1_19545)">
		<g style="mix-blend-mode:normal">
			<path id="Path 20968" d="M29.53 46.84C30.17 48.47 31.73 53.67 34.21 52.32C35.26 51.75 34.88 49.54 34.86 48.63C34.81 46.71 34.67 44.77 34.28 42.89C34.12 42.08 32.88 42.42 33.05 43.23C33.48 45.33 33.55 47.49 33.6 49.63C33.59 49.55 33.58 51.78 32.9 50.79C32.61 50.36 32.36 49.88 32.1 49.43C31.58 48.49 31.16 47.5 30.77 46.5C30.47 45.74 29.23 46.07 29.53 46.84Z" fill="#121212" fill-opacity="1.000000" fill-rule="nonzero"/>
		</g>
	</g>
	<g mask="url(#mask1_19545)">
		<g style="mix-blend-mode:normal">
			<path id="Path 20969" d="M32.75 14.02C26.77 11.76 20.43 11.66 14.38 13.72C13.6 13.99 13.94 15.23 14.72 14.96C20.58 12.96 26.62 13.07 32.41 15.26C33.19 15.55 33.52 14.31 32.75 14.02Z" fill="#121212" fill-opacity="1.000000" fill-rule="nonzero"/>
		</g>
	</g>
	<g mask="url(#mask1_19545)">
		<g style="mix-blend-mode:normal">
			<path id="Path 20970" d="M38.33 13.84C38.03 15.66 36.28 18.53 38.33 19.97C40.52 21.51 42.19 20.87 43.11 18.44C45.08 13.23 42.22 4.44 37.03 2.16C31.72 -0.18 24.6 -0.25 18.92 0.23C11.69 0.85 5.7 4.56 4.44 11.91C4.3 12.72 5.54 13.07 5.68 12.25C7.56 1.22 19.73 0.84 28.77 1.69C33.83 2.17 38.19 2.96 40.67 7.83C41.92 10.28 42.31 13.21 42.23 15.93C42.2 16.67 42.08 17.39 41.87 18.1C40.37 19.89 39.28 19.82 38.62 17.91C38.51 16.81 39.39 15.28 39.57 14.18C39.71 13.37 38.47 13.02 38.33 13.84Z" fill="#121212" fill-opacity="1.000000" fill-rule="nonzero"/>
		</g>
	</g>
	<g mask="url(#mask1_19545)">
		<g style="mix-blend-mode:normal">
			<path id="Path 20971" d="M9.9 10.95C9.66 7.56 13.32 5.56 16.15 4.52C18.89 3.51 22.07 3.53 24.95 3.6C27.64 3.67 30.35 4 32.94 4.73C36.68 5.78 39.87 9.95 38.33 13.84C38.03 14.61 39.27 14.94 39.57 14.18C41.11 10.31 38.64 6.65 35.54 4.44C32.98 2.61 28.72 2.53 25.71 2.35C22.07 2.13 18.05 2.26 14.66 3.74C11.58 5.09 8.35 7.29 8.62 10.95C8.68 11.77 9.97 11.77 9.9 10.95Z" fill="#121212" fill-opacity="1.000000" fill-rule="nonzero"/>
		</g>
	</g>
	<g mask="url(#mask1_19545)">
		<g style="mix-blend-mode:normal">
			<path id="Path 20972" d="M31.21 16.94C33.44 21.94 38.16 25.21 43.61 25.63C44.24 25.67 44.23 24.7 43.61 24.65C38.48 24.25 34.14 21.12 32.05 16.44C31.8 15.87 30.96 16.36 31.21 16.94Z" fill="#121212" fill-opacity="1.000000" fill-rule="nonzero"/>
		</g>
	</g>
	<g mask="url(#mask1_19545)">
		<g style="mix-blend-mode:normal">
			<path id="Path 20973" d="M3.34 23.04C5 18.52 8.56 15.04 13.11 13.46C13.71 13.26 13.45 12.31 12.85 12.52C7.95 14.21 4.18 17.92 2.39 22.78C2.18 23.38 3.12 23.63 3.34 23.04Z" fill="#121212" fill-opacity="1.000000" fill-rule="nonzero"/>
		</g>
	</g>
	<g mask="url(#mask1_19545)">
		<g style="mix-blend-mode:normal">
			<path id="Path 20974" d="M18.83 13.95C23.01 14.1 26.91 15.19 30.58 17.23C31.13 17.53 31.62 16.69 31.07 16.38C27.27 14.27 23.17 13.13 18.83 12.97C18.2 12.95 18.2 13.93 18.83 13.95Z" fill="#121212" fill-opacity="1.000000" fill-rule="nonzero"/>
		</g>
	</g>
	<g mask="url(#mask1_19545)">
		<g style="mix-blend-mode:normal">
			<path id="Path 20975" d="M28.75 47.14C37.08 43.64 39.02 32.18 35.84 24.66C35.59 24.08 34.75 24.58 34.99 25.15C37.9 32.02 36.18 42.97 28.49 46.2C27.91 46.44 28.17 47.39 28.75 47.14Z" fill="#121212" fill-opacity="1.000000" fill-rule="nonzero"/>
		</g>
	</g>
	<g mask="url(#mask1_19545)">
		<g style="mix-blend-mode:normal">
			<path id="Path 20976" d="M37.91 26.53C37.03 27.13 36.42 28 36.2 29.05C36.1 29.51 36.81 29.71 36.9 29.24C37.09 28.39 37.56 27.66 38.28 27.17C38.67 26.9 38.3 26.26 37.91 26.53Z" fill="#121212" fill-opacity="1.000000" fill-rule="nonzero"/>
		</g>
	</g>
	<g mask="url(#mask1_19545)">
		<g style="mix-blend-mode:normal">
			<path id="Path 20977" d="M39.7 26.77C38.44 27.91 37.43 29.26 36.69 30.79C36.49 31.21 37.12 31.59 37.33 31.16C38.04 29.69 39 28.39 40.22 27.29C40.57 26.97 40.05 26.46 39.7 26.77Z" fill="#121212" fill-opacity="1.000000" fill-rule="nonzero"/>
		</g>
	</g>
	<g mask="url(#mask1_19545)">
		<g style="mix-blend-mode:normal">
			<path id="Path 20978" d="M41.47 27.32C39.42 29.33 37.68 31.59 36.26 34.08C36.03 34.49 36.66 34.86 36.89 34.45C38.28 32.01 39.98 29.8 41.99 27.84C42.33 27.5 41.81 26.99 41.47 27.32Z" fill="#121212" fill-opacity="1.000000" fill-rule="nonzero"/>
		</g>
	</g>
	<g mask="url(#mask1_19545)">
		<g style="mix-blend-mode:normal">
			<path id="Path 20979" d="M19.04 17.98L19.04 20.12C19.04 20.84 20.14 20.84 20.14 20.12L20.14 17.98C20.14 17.27 19.04 17.27 19.04 17.98Z" fill="#121212" fill-opacity="1.000000" fill-rule="nonzero"/>
		</g>
	</g>
	<g mask="url(#mask1_19545)">
		<g style="mix-blend-mode:normal">
			<path id="Path 20980" d="M19.04 41.44L19.04 43.9C19.04 44.61 20.14 44.61 20.14 43.9L20.14 41.44C20.14 40.73 19.04 40.73 19.04 41.44Z" fill="#121212" fill-opacity="1.000000" fill-rule="nonzero"/>
		</g>
	</g>
	<g mask="url(#mask1_19545)">
		<g style="mix-blend-mode:normal">
			<path id="Path 20981" d="M5.93 31.99L8.89 31.99C9.6 31.99 9.6 30.89 8.89 30.89L5.93 30.89C5.22 30.89 5.22 31.99 5.93 31.99Z" fill="#121212" fill-opacity="1.000000" fill-rule="nonzero"/>
		</g>
	</g>
	<g mask="url(#mask1_19545)">
		<g style="mix-blend-mode:normal">
			<path id="Path 20982" d="M28.16 32.25C29.21 32.19 30.26 32.13 31.32 32.06C32.02 32.02 32.03 30.92 31.32 30.96C30.26 31.02 29.21 31.09 28.16 31.15C27.45 31.19 27.45 32.29 28.16 32.25Z" fill="#121212" fill-opacity="1.000000" fill-rule="nonzero"/>
		</g>
	</g>
	<g mask="url(#mask1_19545)">
		<g style="mix-blend-mode:normal">
			<path id="Path 20983" d="M19.18 30.32C18.34 30.43 17.76 31.1 17.74 31.95C17.72 32.81 18.5 33.37 19.29 33.37C20.12 33.38 20.79 32.72 20.79 31.9C20.79 31.06 20.09 30.38 19.29 30.32C18.58 30.27 18.59 31.37 19.29 31.42C19.51 31.44 19.67 31.69 19.69 31.9C19.71 32.14 19.51 32.26 19.29 32.27C19.08 32.28 18.85 32.19 18.84 31.95C18.83 31.77 18.97 31.45 19.18 31.42C19.48 31.38 19.73 31.2 19.73 30.87C19.73 30.6 19.48 30.28 19.18 30.32Z" fill="#121212" fill-opacity="1.000000" fill-rule="nonzero"/>
		</g>
	</g>
	<g mask="url(#mask1_19545)">
		<g style="mix-blend-mode:normal">
			<path id="Path 20984" d="M14.09 27.36C15.39 28.75 16.69 30.14 17.98 31.52C18.47 32.04 19.25 31.26 18.76 30.74C17.47 29.36 16.17 27.97 14.87 26.58C14.38 26.06 13.61 26.84 14.09 27.36Z" fill="#121212" fill-opacity="1.000000" fill-rule="nonzero"/>
		</g>
	</g>
	<g mask="url(#mask1_19545)">
		<g style="mix-blend-mode:normal">
			<path id="Path 20985" d="M15.19 28.64C15.07 27.96 14.96 27.29 14.84 26.62C14.66 26.85 14.49 27.08 14.31 27.31C14.96 27.4 15.59 27.61 16.17 27.91C16.8 28.24 17.36 27.29 16.73 26.96C15.96 26.56 15.17 26.32 14.31 26.21C13.92 26.17 13.72 26.6 13.78 26.91C13.89 27.58 14.01 28.26 14.13 28.93C14.25 29.63 15.31 29.33 15.19 28.64Z" fill="#121212" fill-opacity="1.000000" fill-rule="nonzero"/>
		</g>
	</g>
	<g mask="url(#mask1_19545)">
		<g style="mix-blend-mode:normal">
			<path id="Path 20986" d="M20.56 31.58C23.28 29.61 25.88 27.49 28.36 25.22C28.88 24.74 28.1 23.96 27.58 24.44C25.17 26.65 22.65 28.71 20.01 30.63C19.44 31.05 19.99 32 20.56 31.58Z" fill="#121212" fill-opacity="1.000000" fill-rule="nonzero"/>
		</g>
	</g>
	<g mask="url(#mask1_19545)">
		<g style="mix-blend-mode:normal">
			<path id="Path 20987" d="M26.12 25.15C26.89 25.09 27.67 25.02 28.44 24.96C28.27 24.72 28.09 24.49 27.91 24.26C27.73 25.15 27.54 26.03 27.36 26.92C27.21 27.61 28.28 27.91 28.42 27.21C28.61 26.33 28.79 25.44 28.98 24.55C29.04 24.23 28.82 23.82 28.44 23.85C27.67 23.92 26.89 23.99 26.12 24.05C25.42 24.11 25.41 25.21 26.12 25.15Z" fill="#121212" fill-opacity="1.000000" fill-rule="nonzero"/>
		</g>
	</g>
	<g mask="url(#mask1_19545)">
		<g style="mix-blend-mode:normal">
			<path id="Path 20988" d="M46.93 15.24C46.93 15.24 47.39 15.75 47.91 16.6C48.18 17.03 48.45 17.55 48.69 18.14C48.93 18.73 49.12 19.4 49.23 20.09C49.27 20.42 49.29 20.79 49.3 21.13C49.3 21.47 49.26 21.81 49.21 22.14C49.1 22.79 48.88 23.38 48.63 23.83C48.51 24.06 48.37 24.26 48.24 24.43C48.11 24.59 47.98 24.73 47.87 24.83C47.77 24.94 47.67 25 47.61 25.05C47.61 25.05 47.58 24.97 47.69 24.7C47.8 24.44 47.93 24.06 48.04 23.6C48.14 23.14 48.22 22.61 48.24 22.04C48.26 21.75 48.24 21.45 48.23 21.15C48.22 20.85 48.19 20.56 48.14 20.24C48.1 19.94 48.04 19.63 47.98 19.33C47.91 19.04 47.85 18.73 47.77 18.45C47.62 17.87 47.46 17.33 47.33 16.86C47.06 15.91 46.93 15.24 46.93 15.24Z" fill="#121212" fill-opacity="1.000000" fill-rule="nonzero"/>
		</g>
	</g>
	<g mask="url(#mask1_19545)">
		<g style="mix-blend-mode:normal">
			<path id="Path 20989" d="M50.79 18.14C50.79 18.14 50.98 18.35 51.13 18.67C51.29 18.99 51.4 19.43 51.43 19.87C51.45 20.31 51.39 20.75 51.26 21.09C51.15 21.42 50.97 21.65 50.97 21.65C50.97 21.65 50.78 21.44 50.63 21.12C50.46 20.8 50.35 20.36 50.33 19.92C50.31 19.48 50.37 19.04 50.5 18.7C50.61 18.37 50.79 18.14 50.79 18.14Z" fill="#121212" fill-opacity="1.000000" fill-rule="nonzero"/>
		</g>
	</g>
	<g mask="url(#mask1_19545)">
		<g style="mix-blend-mode:normal">
			<path id="Path 20990" d="M0.52 34.67C0.52 34.67 0.51 34.85 0.51 35.14C0.52 35.43 0.55 35.84 0.64 36.32C0.73 36.8 0.89 37.34 1.06 37.93C1.14 38.23 1.25 38.54 1.34 38.86C1.43 39.17 1.52 39.49 1.62 39.8C1.7 40.12 1.8 40.42 1.91 40.72C2.02 41 2.12 41.29 2.25 41.55C2.51 42.07 2.81 42.51 3.14 42.86C3.46 43.2 3.79 43.44 4.04 43.59C4.29 43.73 4.46 43.8 4.46 43.8C4.46 43.8 4.41 43.8 4.33 43.8C4.25 43.81 4.13 43.81 3.97 43.79C3.66 43.76 3.21 43.65 2.74 43.35C2.27 43.07 1.78 42.61 1.41 42.03C1.23 41.74 1.05 41.44 0.92 41.11C0.78 40.78 0.66 40.45 0.56 40.12C0.38 39.44 0.22 38.79 0.12 38.15C0.01 37.51 -0.03 36.89 0.01 36.35C0.05 35.82 0.18 35.38 0.3 35.1C0.36 34.95 0.42 34.85 0.46 34.78C0.5 34.71 0.52 34.67 0.52 34.67Z" fill="#121212" fill-opacity="1.000000" fill-rule="nonzero"/>
		</g>
	</g>
	<g mask="url(#mask1_19545)">
		<g style="mix-blend-mode:normal">
			<path id="Path 20991" d="M0.63 30.37C0.63 30.37 0.81 30.47 0.94 30.61C1.09 30.76 1.18 30.95 1.18 31.14C1.18 31.33 1.09 31.52 0.94 31.66C0.81 31.81 0.63 31.9 0.63 31.9C0.63 31.9 0.44 31.81 0.31 31.66C0.16 31.52 0.08 31.33 0.08 31.14C0.08 30.95 0.17 30.76 0.31 30.61C0.44 30.47 0.63 30.37 0.63 30.37Z" fill="#121212" fill-opacity="1.000000" fill-rule="nonzero"/>
		</g>
	</g>
</svg>
