<svg width="56.000000" height="57.038818" viewBox="0 0 56 57.0388" fill="none" xmlns="http://www.w3.org/2000/svg" xmlns:xlink="http://www.w3.org/1999/xlink">
	<desc>
			Created with Pixso.
	</desc>
	<defs/>
	<mask id="mask1_20007" mask-type="alpha" maskUnits="userSpaceOnUse" x="6.999512" y="11.907715" width="44.646484" height="45.131104">
		<g style="mix-blend-mode:normal">
			<rect id="Rectangle 2880" x="6.999512" y="11.907715" width="44.646484" height="45.131023" fill="#C4C4C4" fill-opacity="1.000000"/>
		</g>
	</mask>
	<g mask="url(#mask1_20007)">
		<g style="mix-blend-mode:normal">
			<path id="Path 20949" d="M31.25 57.03C31.2 57.03 31.15 57.03 31.11 57.01C30.88 56.93 30.75 56.68 30.83 56.45C31.22 55.34 31.61 54.03 31.6 52.73C31.6 51.39 31.14 50.19 30.34 49.45C29.82 48.95 29.16 48.63 28.46 48.29C28.23 48.18 28 48.07 27.78 47.95C26.49 47.28 25.72 46.5 25.43 45.56C25.08 44.44 25.49 43.26 25.79 42.39L29 33.11C29.09 32.88 29.34 32.77 29.57 32.86C29.79 32.94 29.9 33.17 29.84 33.4L26.62 42.68C26.29 43.65 26.03 44.52 26.27 45.3C26.49 46 27.11 46.61 28.19 47.17C28.4 47.28 28.62 47.39 28.84 47.49C29.57 47.85 30.33 48.21 30.95 48.8C31.92 49.72 32.48 51.14 32.49 52.72C32.5 54.15 32.08 55.55 31.67 56.74C31.61 56.91 31.44 57.03 31.25 57.03Z" fill="#000000" fill-opacity="1.000000" fill-rule="nonzero"/>
		</g>
	</g>
	<g mask="url(#mask1_20007)">
		<g style="mix-blend-mode:normal">
			<path id="Path 20950" d="M22.51 54.53C22.34 54.53 22.18 54.43 22.11 54.26C21.18 52.11 21.27 49.75 21.35 47.47C21.42 45.59 21.5 43.65 20.99 41.88C20.47 40.08 19.36 38.47 18.28 36.92C17.92 36.41 17.55 35.88 17.21 35.34C17.07 35.14 17.12 34.86 17.33 34.73C17.53 34.59 17.8 34.64 17.94 34.84C18.28 35.36 18.65 35.91 19.01 36.41C20.12 38.03 21.28 39.7 21.84 41.63C22.39 43.54 22.31 45.55 22.23 47.5C22.15 49.78 22.06 51.94 22.91 53.91C23.01 54.14 22.91 54.4 22.68 54.49C22.63 54.52 22.57 54.53 22.51 54.53Z" fill="#000000" fill-opacity="1.000000" fill-rule="nonzero"/>
		</g>
	</g>
	<g mask="url(#mask1_20007)">
		<g style="mix-blend-mode:normal">
			<path id="Path 20951" d="M28.76 35.48C28.45 35.48 28.16 35.37 27.93 35.17C27.28 35.53 26.46 35.3 26.09 34.66C25.97 34.44 25.91 34.2 25.92 33.95C25.94 33.6 26.07 33.26 26.29 32.99C26.52 32.68 26.81 32.43 27.16 32.25C27.22 32.22 27.28 32.21 27.34 32.2L30.09 32.1C30.23 32.09 30.37 32.15 30.46 32.26L31.03 32.98C31.2 33.2 31.44 33.5 31.51 33.89C31.59 34.51 31.21 35.1 30.62 35.28C30.28 35.37 29.91 35.31 29.62 35.12C29.42 35.32 29.15 35.44 28.87 35.47C28.83 35.48 28.8 35.48 28.76 35.48ZM28 34.1C28.16 34.12 28.36 34.22 28.41 34.37C28.49 34.56 28.69 34.65 28.88 34.58C29 34.53 29.08 34.43 29.1 34.31C29.15 34.07 29.38 33.91 29.62 33.96C29.77 33.98 29.89 34.09 29.95 34.23C30.02 34.41 30.23 34.5 30.41 34.42C30.57 34.36 30.66 34.2 30.63 34.04C30.6 33.88 30.46 33.69 30.33 33.53L29.9 32.99L27.48 33.08C27.29 33.19 27.12 33.34 26.99 33.52C26.88 33.65 26.82 33.81 26.8 33.98C26.79 34.23 27 34.45 27.26 34.46C27.41 34.46 27.56 34.39 27.65 34.27C27.73 34.15 27.86 34.09 28 34.1Z" fill="#000000" fill-opacity="1.000000" fill-rule="nonzero"/>
		</g>
	</g>
	<g mask="url(#mask1_20007)">
		<g style="mix-blend-mode:normal">
			<path id="Path 20952" d="M38.15 53.93C37.94 53.93 37.76 53.78 37.72 53.57C37.25 51.19 37.34 48.63 37.98 45.95C38.33 44.51 38.99 43.28 39.64 42.09C39.97 41.46 40.32 40.81 40.63 40.13C41.29 38.64 40.75 36.81 40.28 35.21C40.21 34.98 40.34 34.69 40.57 34.62C40.8 34.55 41.05 34.68 41.12 34.92C41.61 36.58 42.23 38.7 41.43 40.49C41.12 41.2 40.76 41.86 40.42 42.51C39.77 43.71 39.16 44.84 38.84 46.17C38.22 48.76 38.14 51.13 38.58 53.41C38.63 53.65 38.39 53.88 38.15 53.93Z" fill="#000000" fill-opacity="1.000000" fill-rule="nonzero"/>
		</g>
	</g>
	<g mask="url(#mask1_20007)">
		<g style="mix-blend-mode:normal">
			<path id="Path 20953" d="M16.33 36.26C16.28 36.26 16.23 36.26 16.18 36.26C15.62 36.18 15.16 35.75 15.05 35.2C14.99 34.86 15.05 34.51 15.2 34.21C15.35 33.87 15.58 33.58 15.87 33.34C15.92 33.3 15.98 33.27 16.04 33.26L18.58 32.61C18.72 32.58 18.86 32.61 18.97 32.7L19.65 33.25C19.86 33.42 20.14 33.66 20.28 34.01C20.49 34.59 20.25 35.22 19.72 35.52C19.42 35.67 19.07 35.69 18.75 35.57C18.6 35.8 18.38 35.96 18.12 36.04C17.81 36.14 17.47 36.1 17.18 35.95C16.94 36.15 16.64 36.26 16.33 36.26ZM16.36 34.09C16.21 34.23 16.09 34.39 16.01 34.58C15.94 34.72 15.91 34.88 15.92 35.03C15.97 35.27 16.19 35.42 16.42 35.37C16.56 35.35 16.67 35.26 16.73 35.13C16.83 34.91 17.09 34.81 17.32 34.91C17.39 34.95 17.46 35 17.5 35.07C17.6 35.22 17.8 35.26 17.95 35.16C18.04 35.1 18.1 35 18.09 34.89C18.09 34.64 18.29 34.44 18.53 34.44C18.68 34.43 18.82 34.51 18.9 34.63C19 34.78 19.2 34.82 19.34 34.72C19.47 34.63 19.52 34.48 19.46 34.34C19.41 34.2 19.24 34.06 19.09 33.94L18.59 33.53L16.36 34.09Z" fill="#000000" fill-opacity="1.000000" fill-rule="nonzero"/>
		</g>
	</g>
	<g mask="url(#mask1_20007)">
		<g style="mix-blend-mode:normal">
			<path id="Path 20954" d="M16.55 34.33C14.77 34.33 12.88 33.4 11.13 31.64C9.24 29.74 7.79 27.07 7.25 24.51C6.71 22.01 7.04 19.58 8.19 17.66C9.31 15.8 11.16 14.49 13.29 14.05C15.42 13.58 17.64 14.02 19.42 15.26C21.25 16.54 22.55 18.62 23.09 21.13C23.64 23.69 23.4 26.71 22.46 29.22C21.41 32 19.68 33.77 17.61 34.22C17.26 34.29 16.91 34.33 16.55 34.33ZM14.99 14.76C14.48 14.76 13.98 14.81 13.48 14.92C11.59 15.3 9.95 16.47 8.95 18.12C7.9 19.86 7.61 22.01 8.11 24.33C8.62 26.72 9.98 29.23 11.76 31.01C13.63 32.9 15.64 33.73 17.42 33.35C19.19 32.97 20.69 31.39 21.62 28.91C22.51 26.55 22.74 23.71 22.22 21.31C21.73 19 20.58 17.16 18.92 15.99C17.77 15.19 16.4 14.75 14.99 14.76Z" fill="#000000" fill-opacity="1.000000" fill-rule="nonzero"/>
		</g>
	</g>
	<g mask="url(#mask1_20007)">
		<g style="mix-blend-mode:normal">
			<path id="Path 20955" d="M42.3 36.26C41.98 36.26 41.68 36.15 41.44 35.95C40.89 36.25 40.21 36.08 39.86 35.57C39.25 35.8 38.56 35.48 38.33 34.87C38.23 34.59 38.23 34.28 38.34 34.01C38.48 33.65 38.76 33.42 38.97 33.24L39.64 32.69C39.75 32.6 39.9 32.57 40.03 32.6L42.58 33.25C42.64 33.26 42.7 33.29 42.75 33.34C43.04 33.57 43.27 33.87 43.42 34.2C43.57 34.51 43.63 34.85 43.57 35.19C43.46 35.75 43 36.17 42.44 36.25C42.39 36.26 42.34 36.26 42.3 36.26ZM41.49 34.88C41.65 34.89 41.83 34.98 41.9 35.13C41.99 35.34 42.25 35.44 42.46 35.34C42.59 35.28 42.68 35.17 42.7 35.03C42.72 34.87 42.69 34.72 42.62 34.57C42.53 34.39 42.41 34.22 42.26 34.09L40.04 33.52L39.53 33.93C39.38 34.06 39.21 34.19 39.16 34.33C39.1 34.5 39.18 34.68 39.34 34.74C39.48 34.8 39.64 34.75 39.72 34.63C39.86 34.42 40.13 34.37 40.34 34.51C40.46 34.59 40.53 34.73 40.53 34.88C40.53 35.02 40.62 35.14 40.76 35.19C40.89 35.23 41.04 35.18 41.12 35.07C41.2 34.94 41.34 34.88 41.49 34.88Z" fill="#000000" fill-opacity="1.000000" fill-rule="nonzero"/>
		</g>
	</g>
	<g mask="url(#mask1_20007)">
		<g style="mix-blend-mode:normal">
			<path id="Path 20956" d="M42.08 34.33C41.73 34.33 41.38 34.29 41.03 34.22C38.95 33.77 37.23 32 36.18 29.22C35.23 26.71 34.99 23.69 35.54 21.13C36.08 18.62 37.38 16.54 39.21 15.26C42.82 12.79 47.75 13.71 50.22 17.32C50.3 17.43 50.37 17.55 50.44 17.66C51.59 19.58 51.93 22.01 51.39 24.51C50.85 27.07 49.39 29.73 47.51 31.64C45.76 33.4 43.87 34.33 42.08 34.33ZM43.64 14.76C42.24 14.76 40.87 15.19 39.72 15.99C38.05 17.16 36.9 19 36.41 21.31C35.89 23.71 36.12 26.55 37.01 28.91C37.95 31.39 39.44 32.97 41.22 33.35C42.99 33.73 45 32.9 46.87 31.02C48.65 29.23 50.01 26.73 50.53 24.33C51.02 22.01 50.73 19.87 49.68 18.12C48.69 16.47 47.04 15.31 45.15 14.92C44.66 14.81 44.15 14.76 43.64 14.76Z" fill="#000000" fill-opacity="1.000000" fill-rule="nonzero"/>
		</g>
	</g>
	<g mask="url(#mask1_20007)">
		<g style="mix-blend-mode:normal">
			<path id="Path 20957" d="M28.72 33.49C26.5 33.49 24.35 32.05 22.66 29.43C21.15 27.07 20.24 24.02 20.24 21.28C20.24 15.85 23.81 11.9 28.72 11.9C33.63 11.9 37.2 15.85 37.2 21.28C37.2 24.02 36.29 27.07 34.78 29.43C33.1 32.05 30.95 33.49 28.72 33.49ZM28.72 12.79C24.32 12.79 21.13 16.36 21.13 21.28C21.13 26.41 24.51 32.6 28.72 32.6C32.16 32.6 36.31 27.56 36.31 21.28C36.31 16.36 33.12 12.79 28.72 12.79Z" fill="#000000" fill-opacity="1.000000" fill-rule="nonzero"/>
		</g>
	</g>
	<g mask="url(#mask1_20007)">
		<g opacity="0.179993">
			<mask id="mask1_20020" mask-type="alpha" maskUnits="userSpaceOnUse" x="32.130371" y="24.088135" width="2.225342" height="2.799072">
				<g style="mix-blend-mode:normal">
					<rect id="Rectangle 2879" x="32.130371" y="24.088135" width="2.225447" height="2.799062" fill="#C4C4C4" fill-opacity="1.000000"/>
				</g>
			</mask>
			<g mask="url(#mask1_20020)">
				<g style="mix-blend-mode:normal">
					<path id="Path 20958" d="M33.16 24.11C33.45 24.04 33.77 24.11 34 24.3C34.17 24.44 34.29 24.64 34.33 24.86C34.4 25.2 34.27 25.55 34.15 25.87C34.01 26.22 33.85 26.59 33.52 26.77C33.27 26.9 32.96 26.9 32.68 26.86C32.6 26.86 32.51 26.83 32.43 26.8C32.33 26.73 32.25 26.63 32.21 26.51C32.06 26.15 32.13 25.74 32.23 25.36C32.28 25.16 32.34 24.96 32.41 24.76C32.53 24.43 32.82 24.19 33.16 24.11Z" fill="#FFFFFF" fill-opacity="1.000000" fill-rule="nonzero"/>
				</g>
			</g>
		</g>
	</g>
	<g style="mix-blend-mode:normal">
		<circle id="Ellipse 365" cx="28.000000" cy="28.000000" r="28.000000" fill="#FFFFFF" fill-opacity="0"/>
		<circle id="Ellipse 365" cx="28.000000" cy="28.000000" r="26.000000" stroke="#000000" stroke-opacity="1.000000" stroke-width="4.000000"/>
	</g>
	<g style="mix-blend-mode:normal">
		<path id="Line 112 (Border)" d="M50.52 15.64L7.65 45.67L5.35 42.4L48.22 12.36L50.52 15.64Z" fill="#070707" fill-opacity="1.000000" fill-rule="evenodd"/>
	</g>
</svg>
