<svg width="43.451172" height="53.917480" viewBox="0 0 43.4512 53.9175" fill="none" xmlns="http://www.w3.org/2000/svg" xmlns:xlink="http://www.w3.org/1999/xlink">
	<desc>
			Created with Pixso.
	</desc>
	<defs/>
	<g style="mix-blend-mode:normal">
		<path id="icon-stop-watch" d="M0 32.2C0 44.2 9.74 53.92 21.74 53.91C33.73 53.91 43.45 44.17 43.45 32.17C43.44 25.29 40.17 18.81 34.64 14.72L36.88 12.92L37.72 13.74C38.07 14.09 38.64 14.09 38.99 13.74C39.34 13.39 39.35 12.82 39 12.47L32.74 6.35C32.41 5.98 31.84 5.94 31.47 6.27C31.1 6.6 31.07 7.17 31.39 7.54L32.51 8.59L28.79 11.68C27.85 11.37 26.9 11.11 25.93 10.93L25.93 6.43L26.42 6.43C27.85 6.43 29.01 5.27 29.01 3.84L29.01 2.58C29.01 1.15 27.85 0 26.42 0L17.23 0C15.8 0 14.64 1.15 14.64 2.58L14.64 3.82C14.64 5.25 15.8 6.4 17.23 6.4L17.68 6.4L17.68 10.9C7.46 12.87 0.06 21.79 0 32.2ZM33.76 9.88L35.55 11.68L33.05 13.73C32.3 13.24 31.52 12.8 30.71 12.41L33.76 9.88ZM17.23 4.61C16.79 4.61 16.44 4.25 16.44 3.82L16.44 2.58C16.44 2.15 16.79 1.8 17.23 1.79L26.42 1.79C26.86 1.79 27.21 2.15 27.21 2.58L27.21 3.82C27.22 4.25 26.87 4.6 26.44 4.61L17.23 4.61ZM24.14 6.4L24.14 10.54C23.34 10.41 22.53 10.34 21.72 10.34C20.97 10.34 20.22 10.4 19.47 10.52L19.47 6.4L24.14 6.4ZM18.75 12.51C20.73 12.04 22.87 12.04 24.85 12.51C35.71 14.27 43.16 24.51 41.39 35.38C39.62 46.24 29.38 53.61 18.52 51.85C8.89 50.28 1.81 41.96 1.79 32.2C1.84 22.38 9.04 14.04 18.75 12.51ZM21.72 48.7C30.84 48.7 38.22 41.32 38.22 32.2C38.22 23.09 30.84 15.7 21.72 15.7C12.61 15.7 5.22 23.09 5.22 32.2C5.23 41.31 12.61 48.69 21.72 48.7ZM20.82 17.55L20.82 20.53C20.82 21.03 21.22 21.43 21.72 21.43C22.22 21.43 22.62 21.03 22.62 20.53L22.62 17.55C30 18.01 35.9 23.88 36.37 31.27L33.41 31.27C32.91 31.27 32.51 31.67 32.51 32.17C32.51 32.66 32.91 33.06 33.41 33.06L36.36 33.06C35.92 40.45 30.07 46.35 22.69 46.85L22.69 43.87C22.69 43.37 22.29 42.97 21.79 42.97C21.3 42.97 20.89 43.37 20.89 43.87L20.89 46.86C13.48 46.44 7.55 40.55 7.07 33.14L10.1 33.14C10.59 33.14 11 32.73 11 32.24C11 31.74 10.59 31.34 10.1 31.34L7.06 31.34C7.5 23.92 13.41 18 20.82 17.55ZM13.56 28.22L18.35 31.18C17.64 33.03 18.58 35.11 20.43 35.81C22.29 36.52 24.37 35.59 25.07 33.73C25.45 32.73 25.37 31.61 24.84 30.68L31.2 24.89C31.57 24.56 31.6 23.99 31.26 23.62C30.93 23.25 30.36 23.23 29.99 23.56L23.58 29.41C22.27 28.6 20.59 28.72 19.42 29.72L14.53 26.69C14.07 26.51 13.55 26.75 13.37 27.21C13.23 27.57 13.27 27.97 13.56 28.22ZM21.72 30.67C22.71 30.67 23.52 31.48 23.52 32.47C23.52 33.46 22.71 34.27 21.72 34.27C20.73 34.27 19.92 33.46 19.92 32.47C19.92 31.48 20.73 30.67 21.72 30.67Z" fill="#000000" fill-opacity="1.000000" fill-rule="nonzero"/>
	</g>
</svg>
