<svg width="199.369141" height="205.629883" viewBox="0 0 199.369 205.63" fill="none" xmlns="http://www.w3.org/2000/svg" xmlns:xlink="http://www.w3.org/1999/xlink">
	<desc>
			Created with Pixso.
	</desc>
	<defs/>
	<mask id="mask1_45197" mask-type="alpha" maskUnits="userSpaceOnUse" x="0.000000" y="0.000000" width="199.369141" height="205.629761">
		<g style="mix-blend-mode:normal">
			<rect id="Rectangle 3487" width="199.369141" height="205.629807" fill="#C4C4C4" fill-opacity="1.000000"/>
		</g>
	</mask>
	<g mask="url(#mask1_45197)">
		<g style="mix-blend-mode:normal">
			<path id="Path 24705" d="M38.93 98.58L49.96 98.58L81.63 90.66C81.63 90.66 189.62 163.38 191.18 166.06C192.74 168.73 53.91 203.26 43.23 205.34C32.56 207.42 28.15 197.85 26.33 188.61C24.51 179.38 3.48 73.44 3.48 73.44L38.93 98.58Z" fill="#FCD100" fill-opacity="1.000000" fill-rule="nonzero"/>
		</g>
	</g>
	<g mask="url(#mask1_45197)">
		<g style="mix-blend-mode:normal">
			<path id="Path 24706" d="M17.11 70.74C18.6 70.74 19.81 71.95 19.81 73.43C19.81 74.92 18.6 76.13 17.11 76.13C15.62 76.13 14.41 74.92 14.41 73.43C14.41 71.95 15.62 70.74 17.11 70.74Z" fill="#000000" fill-opacity="1.000000" fill-rule="nonzero"/>
		</g>
	</g>
	<g mask="url(#mask1_45197)">
		<g style="mix-blend-mode:normal">
			<path id="Path 24707" d="M21.77 91.46C23.25 91.46 24.46 92.66 24.46 94.15C24.46 95.64 23.25 96.85 21.77 96.85C20.28 96.85 19.07 95.64 19.07 94.15C19.07 92.66 20.28 91.46 21.77 91.46Z" fill="#000000" fill-opacity="1.000000" fill-rule="nonzero"/>
		</g>
	</g>
	<g mask="url(#mask1_45197)">
		<g style="mix-blend-mode:normal">
			<path id="Path 24708" d="M42.42 86.38C43.91 86.38 45.12 87.59 45.12 89.07C45.12 90.56 43.91 91.77 42.42 91.77C40.93 91.77 39.73 90.56 39.73 89.07C39.73 87.59 40.93 86.38 42.42 86.38Z" fill="#000000" fill-opacity="1.000000" fill-rule="nonzero"/>
		</g>
	</g>
	<g mask="url(#mask1_45197)">
		<g style="mix-blend-mode:normal">
			<path id="Path 24709" d="M198.61 147.97C197.87 144.59 197.09 141.22 196.34 137.84C194.86 131.14 193.38 124.44 191.89 117.74C188.97 104.49 185.92 91.28 182.96 78.04C182.31 75.14 181.66 72.24 181.01 69.33L182.25 69.04C182.97 68.88 183.42 68.16 183.26 67.44L179.23 49.34C179.02 48.41 178.1 47.82 177.17 48.03C171.14 49.37 165.07 50.73 159.03 52.08C158.21 52.26 157.38 52.45 156.55 52.64C151.34 53.8 146.12 54.97 140.91 56.14C140.08 56.32 139.25 56.51 138.42 56.7C132.95 57.93 127.47 59.16 122 60.39C121.17 60.58 120.35 60.77 119.52 60.95C114.04 62.18 108.56 63.42 103.08 64.66C102.25 64.85 101.42 65.03 100.59 65.22C97.86 65.84 95.13 66.45 92.41 67.07C89.26 67.78 86.11 68.5 82.97 69.21C82.14 69.4 81.31 69.58 80.48 69.77C74.31 71.17 68.14 72.57 61.98 73.98C61.15 74.17 60.32 74.36 59.49 74.55C55.05 75.55 50.62 76.56 46.19 77.57L45.11 72.93L60.35 66.55L62.71 65.56L80.3 58.19L82.67 57.2L99.43 50.18L101.8 49.19L117.43 42.64L119.8 41.65L135.43 35.11L137.79 34.12L152.69 27.88L155.05 26.89L170.98 20.22C171.66 19.93 171.99 19.14 171.71 18.45L164.63 1.08C164.27 0.19 163.25 -0.24 162.36 0.12C151.59 4.51 140.79 8.93 130.02 13.33C129.23 13.66 128.43 13.98 127.64 14.31C122.62 16.36 117.61 18.41 112.59 20.47L110.21 21.45C104.95 23.61 99.69 25.76 94.44 27.92C93.64 28.25 92.84 28.57 92.05 28.9C88.39 30.4 84.72 31.91 81.06 33.42C79.47 34.08 77.88 34.73 76.3 35.38C75.5 35.71 74.71 36.04 73.91 36.36C68.29 38.68 62.66 41 57.04 43.32C56.24 43.65 55.45 43.98 54.66 44.3C48.75 46.74 42.85 49.18 36.96 51.61C36.16 51.94 35.37 52.27 34.58 52.59C23.04 57.36 11.51 62.13 0 66.89C1.29 70.29 2.64 73.7 4.03 77.07C5.31 80.19 6.64 83.27 7.97 86.3L7.85 86.33C8.55 89.85 9.3 93.39 10.1 96.91C10.89 100.43 11.74 103.91 12.6 107.33C12.76 107.96 13.42 108.39 14.06 108.24L15.76 107.84C17.95 120.56 20.13 133.29 22.37 146C24.64 158.81 27.12 171.59 29.97 184.29C31.07 189.19 32.31 194.77 36.77 197.75C41.21 200.71 46.37 199.26 51.13 198.21C59.47 196.38 67.8 194.5 76.13 192.6C86.26 190.29 96.39 187.94 106.5 185.53C117.41 182.93 128.34 180.36 139.21 177.6C144.66 176.22 150.1 174.82 155.53 173.39C160.75 172.01 165.93 170.53 171.17 169.26C176.14 168.05 181.05 166.51 185.96 165.08C190.86 163.65 198.05 162.4 199.15 156.39C199.65 153.6 199.21 150.7 198.61 147.97ZM138.99 60.13C144.2 58.98 149.41 57.82 154.62 56.67L145.89 74.82L130.16 78.51L138.99 60.13ZM101.26 68.46C106.72 67.26 112.18 66.06 117.64 64.85L108.65 83.56L92.13 87.43L101.26 68.46ZM60.32 77.43C66.46 76.08 72.6 74.74 78.74 73.4L69.44 92.76L50.86 97.12L60.32 77.43ZM131.64 16.47L149.65 26.23L134.79 32.49L116.54 22.6C121.57 20.56 126.61 18.52 131.64 16.47ZM83.57 35.95C87.67 34.29 91.78 32.63 95.88 30.97L114.47 41.04L98.86 47.6L80.01 37.39C81.19 36.91 82.38 36.43 83.57 35.95ZM58.16 46.2L77.41 56.63L59.85 64.01L40.26 53.4C46.23 51 52.2 48.6 58.16 46.2ZM15.61 87.17L15.21 85.46L15.03 84.68L14.65 83.03L12.55 74.02C12.31 72.98 12.49 71.9 13.06 70.98C13.63 70.06 14.52 69.42 15.57 69.18L37.01 64.19C37.31 64.12 37.62 64.08 37.92 64.08C39.76 64.08 41.42 65.35 41.85 67.21L42.78 71.19L43.36 73.67L44.36 77.99L45.01 80.77L46.84 88.65C47.35 90.81 46 92.99 43.83 93.49L22.39 98.48C20.22 98.98 18.05 97.63 17.55 95.46L15.61 87.17ZM195.86 155.34C195.01 157.95 192.72 159.22 190.25 159.98C185.62 161.4 180.95 162.72 176.3 164.04C166.09 166.92 155.88 169.75 145.61 172.41C134.89 175.18 124.16 177.92 113.41 180.59C103.25 183.11 93.06 185.54 82.86 187.92C74.11 189.97 65.35 191.99 56.58 193.94C53.07 194.73 49.55 195.51 46.04 196.26C43.41 196.83 40.45 196.68 38.18 195.08C36.35 193.77 35.23 191.64 34.49 189.56C33.59 187.05 33.08 184.4 32.48 181.8C31.75 178.63 31.04 175.44 30.36 172.25C29.02 166.02 27.76 159.78 26.54 153.52C24.1 141.03 21.7 128.53 19.03 116.08C18.42 113.22 17.77 110.37 17.11 107.52L46.99 100.57L49.48 99.98L68.05 95.66L70.54 95.08L88.23 90.96L90.73 90.38L107.23 86.53L109.72 85.95L126.22 82.11L128.71 81.53L144.43 77.86L146.93 77.28L178.5 69.93C181.28 82.68 184.07 95.43 186.77 108.21C189.54 121.33 192.57 134.4 195.38 147.51C195.92 150.02 196.69 152.81 195.86 155.34Z" fill="#000000" fill-opacity="1.000000" fill-rule="nonzero"/>
		</g>
	</g>
	<g mask="url(#mask1_45197)">
		<g style="mix-blend-mode:normal">
			<path id="Path 24710" d="M183.27 148.89C174.26 151.22 165.23 153.49 156.21 155.81C147.19 158.13 138.17 160.44 129.13 162.67C120.1 164.9 111.05 167.1 101.99 169.26C92.93 171.42 83.86 173.5 74.77 175.55C65.69 177.59 56.59 179.58 47.54 181.75C46.42 182.01 45.31 182.29 44.2 182.57C43.08 182.87 43.57 184.49 44.68 184.29C53.84 182.64 62.92 180.46 71.98 178.35C81.05 176.24 90.11 174.08 99.17 171.94C108.23 169.79 117.28 167.61 126.32 165.38C135.36 163.16 144.41 160.94 153.43 158.65C162.46 156.37 171.46 153.99 180.45 151.57C181.56 151.27 182.67 150.97 183.77 150.67C184.93 150.37 184.43 148.59 183.27 148.89Z" fill="#000000" fill-opacity="1.000000" fill-rule="nonzero"/>
		</g>
	</g>
	<g mask="url(#mask1_45197)">
		<g style="mix-blend-mode:normal">
			<path id="Path 24711" d="M178.33 125.79C169.32 128.13 160.29 130.4 151.27 132.72C146.94 133.83 142.61 134.95 138.27 136.05C135.74 125 133.21 113.95 130.68 102.89C130.08 100.27 129.49 97.65 128.89 95.03C132.24 94.2 135.6 93.35 138.96 92.51C147.99 90.22 156.98 87.84 165.98 85.42C167.09 85.12 168.19 84.82 169.3 84.52C170.45 84.21 169.96 82.43 168.8 82.73C159.79 85.07 150.76 87.34 141.74 89.66C137.31 90.8 132.87 91.94 128.43 93.07C127.67 93.26 126.91 93.45 126.16 93.64C122.33 94.61 118.5 95.58 114.66 96.52C105.62 98.75 96.57 100.95 87.52 103.11C83.89 103.97 80.25 104.83 76.62 105.67C75.85 105.85 75.09 106.03 74.33 106.2C69.66 107.28 64.98 108.35 60.3 109.4C51.22 111.44 42.12 113.43 33.07 115.6C31.95 115.86 30.84 116.14 29.73 116.43C28.61 116.72 29.1 118.34 30.21 118.14C39.37 116.49 48.45 114.31 57.51 112.21C63.26 110.87 69 109.51 74.74 108.15C77.23 120.11 79.73 132.08 82.22 144.04L83.34 149.38C78.84 150.42 74.34 151.44 69.83 152.46C60.75 154.5 51.65 156.49 42.6 158.66C41.48 158.92 40.37 159.2 39.26 159.48C38.14 159.78 38.63 161.4 39.74 161.2C48.9 159.55 57.98 157.37 67.04 155.26C72.62 153.97 78.18 152.65 83.74 151.34C84.5 151.16 85.26 150.97 86.03 150.79C88.76 150.14 91.49 149.5 94.23 148.85C103.29 146.7 112.34 144.52 121.38 142.3C126.4 141.06 131.43 139.83 136.45 138.58C137.21 138.39 137.97 138.21 138.73 138.01C141.98 137.2 145.24 136.39 148.5 135.56C157.52 133.28 166.52 130.89 175.52 128.48C176.62 128.18 177.73 127.88 178.84 127.58C179.98 127.27 179.49 125.49 178.33 125.79ZM124.2 139.58C115.16 141.82 106.11 144.01 97.05 146.17C93.24 147.08 89.43 147.97 85.62 148.85C83.24 137.41 80.85 125.96 78.46 114.51C77.98 112.21 77.5 109.91 77.02 107.61C79.58 107 82.14 106.39 84.7 105.79C93.76 103.64 102.81 101.46 111.85 99.23C116.77 98.02 121.69 96.82 126.61 95.6C129.33 107.47 132.05 119.35 134.77 131.22C135.18 133.02 135.59 134.82 136 136.62C132.07 137.62 128.13 138.61 124.2 139.58Z" fill="#000000" fill-opacity="1.000000" fill-rule="nonzero"/>
		</g>
	</g>
	<g mask="url(#mask1_45197)">
		<g style="mix-blend-mode:normal">
			<path id="Path 24712" d="M44.89 164.41C44.7 163.78 44.23 163.27 43.61 163.03C43.16 162.86 42.44 162.77 42.17 163.25C41.97 163.16 41.68 163.25 41.71 163.51C41.89 164.96 42.12 166.39 42.34 167.83C42.39 168.12 42.76 168.22 42.98 168.1C44.28 167.36 45.37 165.98 44.89 164.41ZM43.06 166.97C42.85 165.9 42.63 164.85 42.4 163.79C42.68 163.88 43 163.79 43.29 163.91C43.74 164.08 44.01 164.5 44.06 164.97C44.16 165.79 43.67 166.47 43.06 166.97Z" fill="#000000" fill-opacity="1.000000" fill-rule="nonzero"/>
		</g>
	</g>
	<g mask="url(#mask1_45197)">
		<g style="mix-blend-mode:normal">
			<path id="Path 24713" d="M46.35 164.7C46.24 164.15 46.24 163.17 45.77 162.81C45.43 163.29 45.65 164.24 45.71 164.79C45.79 165.54 45.83 166.33 46.02 167.06C46.12 167.45 46.75 167.38 46.73 166.97C46.69 166.21 46.49 165.45 46.35 164.7Z" fill="#000000" fill-opacity="1.000000" fill-rule="nonzero"/>
		</g>
	</g>
	<g mask="url(#mask1_45197)">
		<g style="mix-blend-mode:normal">
			<path id="Path 24714" d="M50.41 165.02C49.96 164.72 49.44 164.49 48.92 164.28C49.5 163.48 49.93 162.38 48.93 161.74C48.56 161.49 48.02 161.47 47.68 161.8C47.53 161.95 47.46 162.16 47.44 162.37C47.25 162.33 47.02 162.55 47.07 162.73C47.06 163.36 47.2 164.03 47.31 164.65C47.41 165.27 47.41 166.09 47.78 166.6C47.94 166.82 48.32 166.82 48.39 166.52C48.51 166.07 48.39 165.56 48.27 165.08C48.85 165.38 49.45 165.68 50.07 165.84C50.58 165.98 50.83 165.3 50.41 165.02ZM48.4 162.19C48.72 162.35 48.74 162.69 48.66 162.99C48.57 163.38 48.3 163.67 48.02 163.94C47.93 163.5 47.82 163.07 47.66 162.66C47.73 162.3 47.97 161.97 48.4 162.19Z" fill="#000000" fill-opacity="1.000000" fill-rule="nonzero"/>
		</g>
	</g>
	<g mask="url(#mask1_45197)">
		<g style="mix-blend-mode:normal">
			<path id="Path 24715" d="M52.78 164.58C52.51 164.72 52.34 165.02 52.07 165.13C51.6 165.31 51.55 164.78 51.51 164.45C51.5 164.38 51.49 164.31 51.48 164.24C51.69 164.17 51.84 163.97 52.02 163.85C52.22 163.72 52.46 163.65 52.66 163.52C53.04 163.27 52.78 162.75 52.35 162.81C52.05 162.86 51.76 163.11 51.58 163.33C51.51 163.42 51.44 163.51 51.38 163.61C51.3 163.18 51.23 162.75 51.16 162.31C51.31 162.23 51.46 162.14 51.61 162.09C51.95 161.96 52.34 161.94 52.67 161.77C52.97 161.6 52.81 161.17 52.5 161.16C52.07 161.13 51.63 161.42 51.3 161.67C51.19 161.75 51.06 161.85 50.93 161.96C50.91 161.98 50.78 161.98 50.76 162C50.68 162.04 50.63 162.13 50.63 162.21C50.63 162.25 50.63 162.28 50.63 162.31C50.6 162.37 50.58 162.43 50.57 162.5C50.59 163.14 50.69 163.8 50.74 164.44C50.77 164.88 50.78 165.37 51.1 165.71C51.8 166.47 53.05 165.84 53.34 165.01C53.46 164.68 53.05 164.44 52.78 164.58Z" fill="#000000" fill-opacity="1.000000" fill-rule="nonzero"/>
		</g>
	</g>
	<g mask="url(#mask1_45197)">
		<g style="mix-blend-mode:normal">
			<path id="Path 24716" d="M56.66 163.86C56.33 163.84 55.97 163.84 55.64 163.82C55.26 163.78 54.83 163.65 54.62 163.3C54.12 162.48 55 161.76 55.37 161.15C54.82 160.73 54.13 161.2 53.78 161.69C53.36 162.29 53.26 163.07 53.57 163.75C54.09 164.85 56.5 165.75 56.83 164.09C56.86 163.97 56.78 163.87 56.66 163.86Z" fill="#000000" fill-opacity="1.000000" fill-rule="nonzero"/>
		</g>
	</g>
	<g mask="url(#mask1_45197)">
		<g style="mix-blend-mode:normal">
			<path id="Path 24717" d="M59.05 159.51C58.51 159.64 57.97 159.86 57.46 160.06C57.05 160.22 56.53 160.35 56.24 160.69C56.15 160.79 56.22 160.91 56.31 160.94C56.75 161.04 57.22 160.88 57.65 160.77C57.76 160.74 57.87 160.71 57.99 160.69C57.94 161.04 58.02 161.46 58.04 161.74C58.1 162.44 58.2 163.13 58.38 163.8C58.52 164.34 59.37 164.11 59.21 163.58C59 162.91 58.8 162.24 58.66 161.55C58.61 161.27 58.61 160.87 58.5 160.55C58.76 160.48 59.02 160.4 59.27 160.3C59.75 160.11 59.57 159.39 59.05 159.51Z" fill="#000000" fill-opacity="1.000000" fill-rule="nonzero"/>
		</g>
	</g>
	<g mask="url(#mask1_45197)">
		<g style="mix-blend-mode:normal">
			<path id="Path 24718" d="M62.74 159.94C62.23 159.18 60.87 158.82 60.3 159.66C59.66 160.3 59.35 161.34 59.65 162.19C60.04 163.3 61.42 163.53 62.28 162.83C63.11 162.15 63.33 160.85 62.74 159.94ZM61.91 161.56C61.64 162.26 60.71 162.5 60.48 161.64C60.36 161.2 60.48 160.78 60.67 160.39C60.84 160.36 61.03 160.28 61.21 160.27C61.91 160.23 62.12 161.01 61.91 161.56Z" fill="#000000" fill-opacity="1.000000" fill-rule="nonzero"/>
		</g>
	</g>
	<g mask="url(#mask1_45197)">
		<g style="mix-blend-mode:normal">
			<path id="Path 24719" d="M66.31 160.9C65.74 160.75 65.24 160.66 64.74 160.43C65.1 159.94 65.5 159.47 65.34 158.81C65.21 158.23 64.66 157.76 64.05 158C63.37 158.28 63.27 159.15 63.2 159.78C63.08 160.79 63.17 161.8 63.48 162.77C63.59 163.11 64.17 163.07 64.13 162.68C64.09 162.19 64.05 161.71 64 161.22C64.68 161.67 65.5 161.97 66.31 161.85C66.81 161.77 66.75 161.02 66.31 160.9ZM64.09 159.27C64.11 159.22 64.26 158.76 64.35 158.81C64.45 158.86 64.41 159.13 64.39 159.2C64.33 159.44 64.13 159.67 63.94 159.89C63.97 159.67 64.02 159.47 64.09 159.27Z" fill="#000000" fill-opacity="1.000000" fill-rule="nonzero"/>
		</g>
	</g>
	<g mask="url(#mask1_45197)">
		<g style="mix-blend-mode:normal">
			<path id="Path 24720" d="M70.06 160.23C70.03 160.13 69.98 160.03 69.9 159.95L69.77 159.85C69.67 159.79 69.56 159.76 69.44 159.76C69.35 159.75 69.27 159.77 69.19 159.81C69.11 159.84 69.04 159.88 68.98 159.95C68.92 160 68.87 160.08 68.85 160.16C68.81 160.23 68.79 160.32 68.79 160.41C68.8 160.46 68.81 160.52 68.82 160.58C68.85 160.69 68.9 160.78 68.98 160.86C69.02 160.9 69.07 160.93 69.11 160.96C69.21 161.02 69.32 161.05 69.44 161.05C69.53 161.05 69.61 161.04 69.69 161C69.77 160.97 69.84 160.93 69.9 160.86C69.96 160.81 70.01 160.73 70.03 160.65C70.07 160.58 70.09 160.49 70.09 160.41L70.06 160.23Z" fill="#000000" fill-opacity="1.000000" fill-rule="nonzero"/>
		</g>
	</g>
	<g mask="url(#mask1_45197)">
		<g style="mix-blend-mode:normal">
			<path id="Path 24721" d="M47.72 172.88C47.12 173.2 47.14 174.13 47.09 174.7C47.04 175.21 47.02 175.72 47.05 176.23C47.06 176.43 47.05 176.63 47.1 176.81C47.02 176.74 46.91 176.71 46.78 176.73C45.94 176.88 44.9 177.15 44.59 176.05C44.47 175.62 44.6 175.16 44.93 174.85C45.26 174.53 45.69 174.47 46.07 174.24C46.18 174.17 46.21 174 46.11 173.91C45.55 173.4 44.65 173.74 44.14 174.18C43.52 174.73 43.29 175.55 43.48 176.35C43.67 177.14 44.28 177.82 45.08 178.03C45.82 178.21 46.84 178.03 47.18 177.26C47.2 177.19 47.22 177.13 47.21 177.06C47.5 176.75 47.49 176.27 47.54 175.87C47.54 175.82 47.55 175.78 47.56 175.73C47.96 175.56 48.37 175.47 48.77 175.34C48.83 175.62 48.89 175.89 48.95 176.17C49.07 176.65 49.86 176.56 49.83 176.05C49.78 175.24 49.16 172.12 47.72 172.88ZM47.65 175.14C47.71 174.81 47.77 174.48 47.86 174.15C47.92 173.92 47.99 173.42 48.27 173.81C48.42 174.03 48.49 174.32 48.57 174.57C48.23 174.66 47.92 174.91 47.65 175.14Z" fill="#000000" fill-opacity="1.000000" fill-rule="nonzero"/>
		</g>
	</g>
	<g mask="url(#mask1_45197)">
		<g style="mix-blend-mode:normal">
			<path id="Path 24722" d="M56.9 174.2C56.52 174.57 56.15 174.82 55.73 174.29C55.58 174.1 55.5 173.89 55.46 173.66C55.73 173.63 55.91 173.44 56.12 173.28C56.35 173.12 56.62 173.04 56.86 172.91C57.16 172.75 57.04 172.22 56.69 172.25C56.31 172.29 55.98 172.5 55.73 172.78C55.62 172.91 55.52 173.05 55.46 173.21C55.45 173.25 55.43 173.28 55.42 173.32C55.41 173.06 55.43 172.79 55.44 172.54C55.49 172.52 55.53 172.48 55.56 172.44C55.74 172.22 55.94 172.04 56.18 171.89C56.42 171.74 56.77 171.68 56.9 171.41C56.99 171.22 56.96 171 56.76 170.88C56.41 170.68 55.99 170.92 55.69 171.13C55.38 171.35 55.13 171.62 54.92 171.94C54.85 172.06 54.85 172.19 54.9 172.29C54.75 172.77 54.64 173.4 54.71 173.92C54.66 173.66 54.59 173.41 54.52 173.18C54.33 172.57 54.06 171.75 53.36 171.56C52.63 171.37 52.18 171.87 51.92 172.56C51.52 172.32 51.01 172.27 50.59 172.53C49.98 172.91 49.95 173.7 50.02 174.33C50.07 174.83 50.15 175.79 50.69 176C50.84 175.74 50.78 175.47 50.76 175.17C50.72 174.72 50.72 174.23 50.86 173.79C50.98 173.38 51.28 173.24 51.53 173.66C51.58 173.74 51.61 173.83 51.63 173.93C51.6 174.29 51.59 174.62 51.61 174.84C51.66 175.57 52.69 175.57 52.74 174.84C52.76 174.58 52.77 174.31 52.74 174.03C52.76 173.83 52.79 173.62 52.84 173.42C52.89 173.25 52.94 172.83 53.08 172.72C53.2 172.63 53.13 172.55 53.25 172.84C53.42 173.24 53.56 173.65 53.65 174.08C53.75 174.56 53.74 175.06 53.88 175.53C54.01 175.94 54.59 175.94 54.72 175.53C54.85 175.12 54.84 174.65 54.77 174.19C54.88 174.65 55.13 175.05 55.57 175.32C56.27 175.76 57.62 175.5 57.62 174.49C57.6 174.13 57.15 173.96 56.9 174.2Z" fill="#000000" fill-opacity="1.000000" fill-rule="nonzero"/>
		</g>
	</g>
	<g mask="url(#mask1_45197)">
		<g style="mix-blend-mode:normal">
			<path id="Path 24723" d="M61.02 173.59C60.74 173.27 60.32 173.07 59.88 172.92C60.1 172.64 60.25 172.3 60.27 171.91C60.31 171.12 59.83 170.3 59.02 170.13C56.8 169.67 57.83 173.42 58 174.42C58.05 174.71 58.52 174.64 58.52 174.35C58.52 174.09 58.5 173.83 58.49 173.56C59.22 173.86 60.06 174.33 60.87 174.2C61.15 174.15 61.18 173.78 61.02 173.59ZM58.44 172.63C58.43 172.25 58.43 171.87 58.48 171.51C58.5 171.28 58.52 171.02 58.84 171.06C59.05 171.09 59.19 171.35 59.24 171.53C59.39 172.06 59.04 172.48 58.54 172.59C58.5 172.6 58.47 172.61 58.44 172.63Z" fill="#000000" fill-opacity="1.000000" fill-rule="nonzero"/>
		</g>
	</g>
	<g mask="url(#mask1_45197)">
		<g style="mix-blend-mode:normal">
			<path id="Path 24724" d="M61.9 169.74C61.38 170.15 61.26 171.15 61.16 171.75C61.06 172.32 60.8 173.31 61.22 173.78C61.24 173.81 61.3 173.8 61.32 173.78C61.62 173.49 61.62 172.95 61.71 172.55C61.73 172.47 61.75 172.39 61.77 172.32C62.03 172.22 62.29 172.15 62.55 172.1C62.74 172.06 62.93 172.05 63.12 172.04C63.22 172.27 63.32 172.49 63.46 172.68C63.71 173.02 64.26 172.92 64.28 172.46C64.31 171.63 63.05 168.83 61.9 169.74ZM61.99 171.6C62.05 171.4 62.12 171.2 62.2 171C62.27 170.84 62.46 170.61 62.35 170.52C62.5 170.63 62.7 171.09 62.78 171.23C62.5 171.29 62.24 171.45 61.99 171.6Z" fill="#000000" fill-opacity="1.000000" fill-rule="nonzero"/>
		</g>
	</g>
	<g mask="url(#mask1_45197)">
		<g style="mix-blend-mode:normal">
			<path id="Path 24725" d="M66.49 172.24C66.47 172.16 66.43 172.09 66.37 172.04C66.31 172 66.14 171.91 66.06 171.91C65.99 171.9 65.94 171.92 65.88 171.95C65.83 171.96 65.78 172 65.74 172.04C65.69 172.08 65.66 172.13 65.65 172.18C65.62 172.24 65.61 172.3 65.61 172.36L65.62 172.48C65.64 172.55 65.68 172.62 65.74 172.67C65.81 172.71 65.97 172.81 66.05 172.81C66.12 172.81 66.17 172.79 66.23 172.77C66.28 172.75 66.33 172.72 66.37 172.67C66.42 172.63 66.45 172.59 66.47 172.53C66.5 172.47 66.51 172.42 66.51 172.35L66.49 172.24Z" fill="#000000" fill-opacity="1.000000" fill-rule="nonzero"/>
		</g>
	</g>
	<g mask="url(#mask1_45197)">
		<g style="mix-blend-mode:normal">
			<path id="Path 24726" d="M50.15 185.46C49.53 184.81 48.55 184.95 48.04 185.65C48 185.7 47.97 185.74 47.95 185.79C47.88 185.76 47.79 185.76 47.75 185.82C47.62 186.04 47.63 186.32 47.69 186.61C47.64 187.26 47.86 187.93 47.89 188.6C47.88 188.81 47.87 189.02 47.85 189.23C47.81 189.64 48.36 189.77 48.6 189.52C49.42 189.7 50.17 188.65 50.44 187.99C50.78 187.18 50.78 186.13 50.15 185.46ZM49.51 187.8C49.37 188.06 49.18 188.29 48.94 188.47C48.88 188.53 48.82 188.57 48.76 188.61C48.74 188.23 48.67 187.84 48.61 187.44C48.55 187.06 48.5 186.59 48.72 186.24C48.95 185.89 49.32 185.85 49.56 186.2C49.87 186.66 49.75 187.34 49.51 187.8Z" fill="#000000" fill-opacity="1.000000" fill-rule="nonzero"/>
		</g>
	</g>
	<g mask="url(#mask1_45197)">
		<g style="mix-blend-mode:normal">
			<path id="Path 24727" d="M53.68 185.64C53.36 185.12 52.88 184.45 52.17 184.64C51.48 184.83 51.37 185.68 51.26 186.27C51.18 186.73 51.13 187.2 51.12 187.66C51.12 187.99 51.04 188.34 51.32 188.56C51.64 188.35 51.64 187.88 51.73 187.53C51.75 187.43 51.78 187.33 51.8 187.23C51.85 187.31 51.94 187.37 52.05 187.35C52.43 187.29 52.87 187.22 53.26 187.08C53.41 187.47 53.53 187.88 53.85 188.16C54.05 188.33 54.35 188.26 54.43 188C54.7 187.25 54.07 186.26 53.68 185.64ZM51.88 186.95L51.94 186.69C52.01 186.45 52.08 185.95 52.25 185.77C52.48 185.52 52.62 185.85 52.76 186.07C52.82 186.17 52.88 186.28 52.94 186.39C52.57 186.54 52.2 186.76 51.88 186.95Z" fill="#000000" fill-opacity="1.000000" fill-rule="nonzero"/>
		</g>
	</g>
	<g mask="url(#mask1_45197)">
		<g style="mix-blend-mode:normal">
			<path id="Path 24728" d="M56.75 183.28C55.73 183.22 54.58 183.82 53.86 184.52C53.66 184.72 53.91 184.99 54.14 184.89C54.53 184.71 54.92 184.55 55.32 184.43C55.36 184.74 55.47 185.07 55.52 185.32C55.66 186.04 55.77 186.77 55.95 187.48C56.06 187.95 56.78 187.75 56.67 187.28C56.51 186.57 56.29 185.87 56.09 185.17C56.02 184.91 55.97 184.57 55.86 184.28C56.2 184.21 56.53 184.17 56.86 184.07C57.3 183.94 57.19 183.31 56.75 183.28Z" fill="#000000" fill-opacity="1.000000" fill-rule="nonzero"/>
		</g>
	</g>
	<g mask="url(#mask1_45197)">
		<g style="mix-blend-mode:normal">
			<path id="Path 24729" d="M60.7 183.46C61.16 183.27 61.25 182.58 60.7 182.42C59.83 182.17 58.65 182.87 58 183.41C57.89 183.49 57.91 183.61 57.97 183.7C57.89 183.76 57.85 183.85 57.88 183.96C58.18 184.97 57.48 186.08 58.21 187.02C58.9 187.9 60.07 187.43 60.66 186.68C61.02 186.21 60.45 185.59 59.99 186.01C59.72 186.26 59.35 186.74 58.94 186.51C58.71 186.38 58.63 186.01 58.59 185.75C58.71 185.74 58.83 185.78 58.94 185.7C59.06 185.6 59.16 185.48 59.29 185.39C59.55 185.21 59.86 185.13 60.14 184.99C60.32 184.9 60.37 184.66 60.3 184.5C60.22 184.31 60.04 184.25 59.84 184.27C59.46 184.33 59.1 184.61 58.86 184.91C58.75 185.04 58.63 185.2 58.57 185.36C58.55 184.81 58.58 184.3 58.32 183.78C58.71 183.69 59.1 183.6 59.5 183.56C59.9 183.52 60.33 183.61 60.7 183.46Z" fill="#000000" fill-opacity="1.000000" fill-rule="nonzero"/>
		</g>
	</g>
	<g mask="url(#mask1_45197)">
		<g style="mix-blend-mode:normal">
			<path id="Path 24730" d="M62.88 185.78C62.86 185.7 62.83 185.64 62.77 185.58C62.69 185.5 62.58 185.45 62.46 185.45C62.4 185.45 62.34 185.46 62.29 185.49C62.24 185.51 62.19 185.54 62.15 185.58C62.11 185.62 62.08 185.67 62.06 185.72C62.03 185.77 62.02 185.83 62.02 185.89C62.03 185.93 62.03 185.97 62.04 186.01C62.06 186.08 62.09 186.15 62.15 186.2C62.23 186.28 62.34 186.33 62.46 186.33C62.52 186.33 62.58 186.32 62.63 186.29C62.68 186.28 62.73 186.25 62.77 186.2C62.81 186.16 62.84 186.12 62.86 186.06C62.89 186.01 62.9 185.95 62.9 185.89C62.9 185.85 62.89 185.82 62.88 185.78Z" fill="#000000" fill-opacity="1.000000" fill-rule="nonzero"/>
		</g>
	</g>
	<g mask="url(#mask1_45197)">
		<g style="mix-blend-mode:normal">
			<path id="Path 24731" d="M47.26 121.39C47.06 120.93 46.55 120.81 46.1 120.67C45.82 120.58 45.53 120.49 45.25 120.4C45.41 120.18 45.57 119.96 45.69 119.7C45.91 119.22 46.06 118.68 46.03 118.16C45.99 117.27 45.25 116.32 44.26 116.59C43.36 116.83 43.18 117.88 43.11 118.67C42.99 119.96 43.12 121.25 43.43 122.51C43.54 122.99 44.31 122.89 44.29 122.39C44.27 122.05 44.25 121.69 44.22 121.34C44.74 121.52 45.26 121.7 45.77 121.87C46.23 122.03 46.67 122.2 47.12 121.94C47.32 121.82 47.35 121.59 47.26 121.39ZM44.08 120.17C44.05 119.96 44.01 119.74 43.97 119.53C43.98 119.01 44.04 118.5 44.18 118.04C44.25 117.78 44.39 117.44 44.72 117.57C45.05 117.71 45.05 118.19 45.01 118.49C44.94 119.06 44.62 119.87 44.08 120.17Z" fill="#000000" fill-opacity="1.000000" fill-rule="nonzero"/>
		</g>
	</g>
	<g mask="url(#mask1_45197)">
		<g style="mix-blend-mode:normal">
			<path id="Path 24732" d="M50.49 117.45C49.71 116.51 47.83 116.23 47.16 117.44C47.1 117.54 47.1 117.65 47.12 117.75C46.64 118.22 46.48 119.09 46.75 119.73C47.26 120.95 48.87 121.51 49.98 120.76C51.03 120.05 51.3 118.43 50.49 117.45ZM49.61 119.82C49.07 120.43 48.12 120.24 47.65 119.65C47.27 119.18 47.33 118.56 47.62 118.06C48.21 117.84 48.89 117.58 49.48 117.96C50.11 118.37 50.08 119.31 49.61 119.82Z" fill="#000000" fill-opacity="1.000000" fill-rule="nonzero"/>
		</g>
	</g>
	<g mask="url(#mask1_45197)">
		<g style="mix-blend-mode:normal">
			<path id="Path 24733" d="M56.74 118C56.4 118.07 56.15 118.27 55.89 118.5C55.78 118.6 55.67 118.81 55.51 118.73C55.34 118.65 55.38 118.37 55.36 118.2C55.26 117.41 55.23 116.58 55.03 115.81C54.93 115.43 54.43 115.55 54.39 115.9C54.31 116.55 54.36 117.22 54.37 117.87C54.37 118.25 54.34 118.68 54.43 119.06C54.07 119.18 53.66 119.51 53.28 119.52C52.78 119.54 52.7 119.09 52.64 118.69C52.53 117.87 52.43 117.06 52.28 116.25C52.26 116.14 52.15 116.08 52.05 116.07C51.95 116.09 51.82 116.21 51.81 116.31C51.77 117.03 51.75 117.75 51.75 118.47C51.76 118.97 51.75 119.5 52.05 119.93C52.67 120.85 54.19 120.67 54.83 119.87C55.08 120.04 55.46 119.99 55.78 119.91C56.33 119.76 56.67 119.27 57.17 119.04C57.79 118.75 57.33 117.89 56.74 118Z" fill="#000000" fill-opacity="1.000000" fill-rule="nonzero"/>
		</g>
	</g>
	<g mask="url(#mask1_45197)">
		<g style="mix-blend-mode:normal">
			<path id="Path 24734" d="M96.79 109.07C96.59 108.09 95.59 107.83 94.78 107.57C94.54 107.49 94.24 107.39 94.13 107.13C94.01 106.84 94.18 106.5 94.48 106.41C94.62 106.36 95.17 106.41 95.23 106.27C95.46 105.72 94.43 105.58 94.12 105.66C93.35 105.87 92.97 106.71 93.21 107.45C93.49 108.32 94.41 108.45 95.14 108.75C95.31 108.82 95.69 108.98 95.73 109.19C95.79 109.46 95.52 109.55 95.31 109.63C94.98 109.76 94.3 109.81 94.21 109.5C94.17 109.38 93.99 109.35 93.93 109.47C93.74 109.8 93.65 110.02 93.91 110.36C94.21 110.74 94.7 110.85 95.16 110.77C95.97 110.63 96.98 110.04 96.79 109.07Z" fill="#000000" fill-opacity="1.000000" fill-rule="nonzero"/>
		</g>
	</g>
	<g mask="url(#mask1_45197)">
		<g style="mix-blend-mode:normal">
			<path id="Path 24735" d="M99.61 108.06C99.55 107.94 99.41 107.94 99.31 108.02C99.01 108.27 98.73 108.57 98.3 108.57C97.78 108.57 97.42 108.11 97.27 107.66C97.03 106.95 97.15 105.04 98.39 105.38C97.98 104.78 97.28 104.8 96.8 105.3C96.12 106 96.08 107.25 96.39 108.11C96.68 108.94 97.46 109.67 98.38 109.62C99.11 109.58 100.06 108.85 99.61 108.06Z" fill="#000000" fill-opacity="1.000000" fill-rule="nonzero"/>
		</g>
	</g>
	<g mask="url(#mask1_45197)">
		<g style="mix-blend-mode:normal">
			<path id="Path 24736" d="M102.53 107.73C101.92 107.94 101.44 108.37 100.92 107.66C100.84 107.56 100.78 107.45 100.73 107.33C101.25 107.12 101.82 106.91 102.24 106.56C102.5 106.34 102.23 105.88 101.91 105.99C101.44 106.15 101 106.48 100.59 106.79C100.54 106.26 100.65 105.69 100.74 105.2C100.75 105.14 100.75 105.09 100.73 105.04C100.79 105.03 100.85 105.03 100.91 105.03C101.23 105.02 101.54 105.1 101.82 104.93C101.99 104.83 102.05 104.57 101.89 104.43C101.3 103.92 100.23 104.46 99.69 104.84C99.51 104.97 99.61 105.31 99.86 105.22C99.98 105.18 100.1 105.15 100.22 105.12C99.77 106.27 99.55 107.71 100.61 108.61C101.28 109.17 102.91 109.21 102.98 108.07C103 107.85 102.74 107.66 102.53 107.73Z" fill="#000000" fill-opacity="1.000000" fill-rule="nonzero"/>
		</g>
	</g>
	<g mask="url(#mask1_45197)">
		<g style="mix-blend-mode:normal">
			<path id="Path 24737" d="M107.39 104.81C107.36 104.09 107.22 103.03 106.53 102.64C106.25 102.48 105.94 102.69 105.92 102.99C105.89 103.48 106.18 103.91 106.26 104.39C106.34 104.79 106.42 105.49 106.21 105.86C105.93 106.35 105.25 105.41 105.01 105.16C104.6 104.75 104.21 104.31 103.76 103.94C103.5 103.72 102.94 103.83 102.99 104.26C103.06 104.92 103.14 105.59 103.35 106.23C103.47 106.61 103.63 107.27 104.07 107.36C104.25 107.03 104.03 106.63 103.96 106.29C103.89 105.99 103.85 105.7 103.83 105.42C104.22 105.84 104.63 106.26 105.04 106.64C105.54 107.1 106.26 107.37 106.82 106.84C107.35 106.35 107.42 105.48 107.39 104.81Z" fill="#000000" fill-opacity="1.000000" fill-rule="nonzero"/>
		</g>
	</g>
	<g mask="url(#mask1_45197)">
		<g style="mix-blend-mode:normal">
			<path id="Path 24738" d="M110.36 105.83C110.04 106.1 109.78 106.37 109.32 106.28C108.93 106.21 108.64 105.91 108.44 105.58C108.76 105.47 109.08 105.36 109.39 105.23C109.71 105.1 110.08 104.98 110.31 104.73C110.6 104.42 110.31 104.04 109.94 104.08C109.61 104.13 109.31 104.36 109.03 104.54C108.76 104.72 108.5 104.9 108.23 105.09C108.12 104.69 108.12 104.27 108.14 103.85C108.14 103.7 108.16 103.53 108.18 103.37C108.57 103.34 108.96 103.31 109.35 103.26C109.75 103.21 110.15 103.22 110.37 102.83C110.47 102.65 110.41 102.43 110.23 102.32C109.84 102.08 109.47 102.31 109.09 102.47C108.76 102.6 108.44 102.75 108.12 102.89C108.1 102.84 108.07 102.79 108.03 102.74C107.5 103.03 107.39 104.16 107.41 104.7C107.43 105.37 107.63 106.07 108.09 106.57C108.82 107.38 110.77 107.6 111.1 106.26C111.2 105.81 110.69 105.56 110.36 105.83Z" fill="#000000" fill-opacity="1.000000" fill-rule="nonzero"/>
		</g>
	</g>
	<g mask="url(#mask1_45197)">
		<g style="mix-blend-mode:normal">
			<path id="Path 24739" d="M146.61 92.57C145.83 92.69 145.05 92.84 144.28 93.04C143.59 93.21 142.77 93.39 142.18 93.81C141.93 93.99 142.11 94.27 142.31 94.29C142.98 94.31 143.71 94.1 144.37 93.98C144.34 94.65 144.43 95.35 144.54 96C144.64 96.59 144.65 97.44 145.29 97.68C145.43 97.73 145.57 97.64 145.65 97.54C146.02 97.05 145.58 96.28 145.46 95.75C145.31 95.13 145.2 94.48 145.04 93.86C145.61 93.76 146.18 93.68 146.75 93.61C147.51 93.52 147.38 92.44 146.61 92.57Z" fill="#000000" fill-opacity="1.000000" fill-rule="nonzero"/>
		</g>
	</g>
	<g mask="url(#mask1_45197)">
		<g style="mix-blend-mode:normal">
			<path id="Path 24740" d="M150.14 94.09C149.72 93.58 149.3 93.07 148.86 92.58C148.61 92.29 148.18 92.47 148.07 92.79C147.83 93.48 147.64 94.2 147.55 94.93C147.48 95.45 147.27 96.25 147.64 96.68C147.68 96.72 147.74 96.71 147.78 96.67C148.08 96.4 148.12 95.9 148.19 95.46C148.52 95.41 148.84 95.36 149.16 95.28C149.35 95.24 149.52 95.19 149.66 95.12C149.88 95.37 150.13 95.57 150.51 95.52C150.6 95.5 150.66 95.41 150.69 95.33C150.88 94.83 150.44 94.45 150.14 94.09ZM148.37 94.71C148.46 94.42 148.55 94.13 148.66 93.85C148.81 94.04 148.96 94.24 149.12 94.43C149.04 94.45 148.95 94.48 148.87 94.51C148.7 94.57 148.54 94.64 148.37 94.71Z" fill="#000000" fill-opacity="1.000000" fill-rule="nonzero"/>
		</g>
	</g>
	<g mask="url(#mask1_45197)">
		<g style="mix-blend-mode:normal">
			<path id="Path 24741" d="M154.25 94.89C153.83 94.53 153.31 94.37 152.8 94.2C152.45 94.07 152.09 93.95 151.74 93.83C152.03 93.33 152.31 92.83 152.58 92.31C152.74 91.99 152.31 91.61 152.06 91.91C151.79 92.21 151.54 92.52 151.28 92.84C151.19 92.53 151.1 92.22 151 91.91C150.97 91.83 150.9 91.74 150.81 91.73C150.8 91.72 150.7 91.69 150.66 91.72C150.59 91.76 150.46 91.89 150.47 91.98C150.53 92.53 150.6 93.07 150.69 93.6C150.65 93.65 150.6 93.71 150.56 93.76C150.38 94 150.32 94.45 150.67 94.6C150.73 94.62 150.78 94.65 150.84 94.67C150.9 95.14 151 95.62 151.33 95.9C151.47 96.02 151.73 96.03 151.82 95.84C151.93 95.6 151.94 95.35 151.91 95.09C152.03 95.14 152.16 95.19 152.28 95.23C152.82 95.43 153.35 95.69 153.93 95.67C154.3 95.66 154.56 95.16 154.25 94.89Z" fill="#000000" fill-opacity="1.000000" fill-rule="nonzero"/>
		</g>
	</g>
	<g mask="url(#mask1_45197)">
		<g style="mix-blend-mode:normal">
			<path id="Path 24742" d="M156.63 94.15C156.07 94.55 155.49 94.66 155.03 94.01C155 93.98 154.98 93.94 154.96 93.91C155.09 93.82 155.23 93.74 155.38 93.67C155.69 93.52 156.05 93.48 156.35 93.31C156.72 93.09 156.51 92.62 156.15 92.58C155.64 92.51 155.1 92.85 154.72 93.28C154.62 92.81 154.66 92.3 154.68 91.81C154.74 91.78 154.82 91.76 154.89 91.74C155.27 91.63 155.77 91.84 156.05 91.51C156.18 91.35 156.21 91.17 156.12 90.98C155.87 90.48 155.2 90.68 154.79 90.86C154.62 90.94 154.46 91.04 154.33 91.16C154.19 91.18 154.1 91.26 154.05 91.39C154.04 91.42 154.03 91.46 154.02 91.49C153.96 91.57 153.9 91.65 153.85 91.74C153.8 91.84 153.81 91.94 153.86 92.02C153.62 93.09 153.75 94.3 154.58 95.07C155.31 95.77 156.81 95.89 157.35 94.88C157.59 94.44 157.09 93.82 156.63 94.15Z" fill="#000000" fill-opacity="1.000000" fill-rule="nonzero"/>
		</g>
	</g>
	<g mask="url(#mask1_45197)">
		<g style="mix-blend-mode:normal">
			<path id="Path 24743" d="M33.5 106.81C32.33 106.23 31.39 107.18 31.41 108.36C31.42 109.07 31.59 109.8 31.73 110.49C31.91 111.37 32.13 112.23 32.41 113.08C32.6 113.65 33.46 113.42 33.32 112.82C33.21 112.33 33.1 111.85 32.98 111.36C33.65 111.25 34.36 110.5 34.57 109.91C34.97 108.8 34.62 107.36 33.5 106.81ZM33.58 109.68C33.41 110.07 33.13 110.34 32.73 110.32C32.71 110.25 32.7 110.18 32.68 110.11C32.66 110.01 32.63 109.91 32.61 109.81C32.54 109.4 32.03 107.49 32.91 107.65C33.76 107.8 33.86 109.05 33.58 109.68Z" fill="#000000" fill-opacity="1.000000" fill-rule="nonzero"/>
		</g>
	</g>
	<g mask="url(#mask1_45197)">
		<g style="mix-blend-mode:normal">
			<path id="Path 24744" d="M40.31 106.35C40.24 106.36 40.13 106.39 40.02 106.44C39.93 106.39 39.81 106.39 39.65 106.43C39.3 106.53 39.07 106.86 38.97 107.19C38.73 107.94 38.76 109.02 39.1 109.76C38.76 109.54 38.33 109.4 38.01 109.29C37.68 109.18 37.33 109.09 36.99 109.04C37.37 108.61 37.65 108.13 37.59 107.46C37.52 106.64 36.72 105.91 35.87 106.14C34.95 106.38 34.81 107.47 34.79 108.27C34.77 109.5 35.03 110.71 35.5 111.84C35.7 112.29 36.34 111.95 36.25 111.52C36.16 111.06 36.07 110.59 35.98 110.13C36.56 110.16 37.12 110.28 37.68 110.49C38.25 110.71 38.73 111.16 39.36 111.07C39.61 111.03 39.74 110.73 39.7 110.5C40.72 111.26 42.39 110.89 42.91 109.61C43.58 107.92 42.09 106.07 40.31 106.35ZM35.72 108.88C35.71 108.81 35.69 108.74 35.67 108.67C35.67 108.32 35.7 107.98 35.76 107.64C35.8 107.44 35.87 107.09 36.12 107.04C36.46 106.97 36.63 107.38 36.63 107.64C36.63 108.18 36.18 108.62 35.72 108.88ZM40.45 109.69C39.96 109.45 39.87 108.8 39.83 108.32C39.81 108.05 39.79 107.78 39.8 107.51C40.07 107.54 40.39 107.48 40.63 107.5C41.07 107.55 41.49 107.71 41.73 108.12C42.21 108.96 41.45 110.18 40.45 109.69Z" fill="#000000" fill-opacity="1.000000" fill-rule="nonzero"/>
		</g>
	</g>
	<g mask="url(#mask1_45197)">
		<g style="mix-blend-mode:normal">
			<path id="Path 24745" d="M46.08 106.25C45.32 105.38 43.96 105.18 42.89 105.5C42.74 105.54 42.57 105.68 42.54 105.84C42.53 105.94 42.51 106.02 42.54 106.11C42.63 106.34 42.79 106.45 43.02 106.48C43.06 107.03 43.13 107.58 43.21 108.12C43.28 108.63 43.26 109.28 43.55 109.72C44.24 110.73 45.49 109.52 45.98 108.92C46.63 108.13 46.78 107.06 46.08 106.25ZM45.07 108.38C44.94 108.54 44.62 108.97 44.42 109.01C44.14 109.07 44.15 108.56 44.1 108.34C43.96 107.71 43.81 107.1 43.63 106.49C44.13 106.49 44.63 106.49 45.05 106.79C45.67 107.24 45.5 107.87 45.07 108.38Z" fill="#000000" fill-opacity="1.000000" fill-rule="nonzero"/>
		</g>
	</g>
	<g mask="url(#mask1_45197)">
		<g style="mix-blend-mode:normal">
			<path id="Path 24746" d="M49.35 104.46C48.99 104.06 48.35 104.57 48.61 105.03C48.95 105.62 49.26 106.17 49.33 106.87C49.38 107.37 49.38 108.11 49.01 108.51C47.9 109.66 47.16 105.91 47.08 105.36C47.03 105.09 46.63 105.17 46.62 105.42C46.56 106.46 46.73 107.65 47.23 108.57C47.62 109.3 48.5 109.82 49.31 109.4C50.97 108.53 50.35 105.58 49.35 104.46Z" fill="#000000" fill-opacity="1.000000" fill-rule="nonzero"/>
		</g>
	</g>
	<g mask="url(#mask1_45197)">
		<g style="mix-blend-mode:normal">
			<path id="Path 24747" d="M54.23 106.91C54.19 106.79 54.02 106.72 53.92 106.83C53.28 107.54 52.11 107.82 51.58 106.83C51.32 106.32 51.35 105.76 51.56 105.24C51.73 104.81 52.25 104.43 52.26 103.95C51.56 103.69 50.74 104.76 50.51 105.28C50.12 106.15 50.25 107.18 50.83 107.92C51.39 108.63 52.3 108.98 53.17 108.69C53.89 108.44 54.49 107.69 54.23 106.91Z" fill="#000000" fill-opacity="1.000000" fill-rule="nonzero"/>
		</g>
	</g>
	<g mask="url(#mask1_45197)">
		<g style="mix-blend-mode:normal">
			<path id="Path 24748" d="M56.96 101.98C55.86 101.84 54.5 102.43 53.59 102.99C53.32 103.16 53.5 103.57 53.8 103.49C54.18 103.4 54.56 103.3 54.95 103.23C55.02 104.41 55.34 105.65 55.83 106.72C56.03 107.18 56.8 106.85 56.64 106.38C56.27 105.3 55.89 104.2 55.48 103.13C56.01 103.04 56.57 103.06 57.09 102.92C57.64 102.77 57.46 102.05 56.96 101.98Z" fill="#000000" fill-opacity="1.000000" fill-rule="nonzero"/>
		</g>
	</g>
	<g mask="url(#mask1_45197)">
		<g style="mix-blend-mode:normal">
			<path id="Path 24749" d="M59.26 104.09C59.09 103.33 58.9 102.58 58.64 101.84C58.53 101.52 57.99 101.54 58.01 101.93C58.05 102.71 58.16 103.47 58.29 104.24C58.4 104.92 58.38 105.8 58.89 106.31C59.1 106.52 59.39 106.39 59.49 106.15C59.75 105.52 59.4 104.72 59.26 104.09Z" fill="#000000" fill-opacity="1.000000" fill-rule="nonzero"/>
		</g>
	</g>
	<g mask="url(#mask1_45197)">
		<g style="mix-blend-mode:normal">
			<path id="Path 24750" d="M62.71 102C62.14 101.4 60.81 100.74 60.17 101.59C60.1 101.68 60.12 101.8 60.17 101.9C59.66 102.87 59.72 104.34 60.58 105.09C61.37 105.78 62.55 105.68 63.12 104.76C63.67 103.87 63.41 102.72 62.71 102ZM62.34 103.93C62.2 104.61 61.54 104.74 61.08 104.26C60.81 103.98 60.73 103.61 60.7 103.24C60.7 103.18 60.67 102.32 60.69 102.32C60.68 102.29 60.68 102.23 60.67 102.2C61 102.29 61.35 102.31 61.65 102.5C62.13 102.8 62.47 103.36 62.34 103.93Z" fill="#000000" fill-opacity="1.000000" fill-rule="nonzero"/>
		</g>
	</g>
	<g mask="url(#mask1_45197)">
		<g style="mix-blend-mode:normal">
			<path id="Path 24751" d="M67.58 102.98C67.34 102.03 67.1 101.08 66.86 100.12C66.69 99.48 65.68 99.75 65.85 100.4L66.39 102.37L66.63 103.24C66.42 103.01 66.22 102.83 66.01 102.59C65.59 102.12 65.2 101.61 64.78 101.14C64.34 100.66 63.6 101.17 63.74 101.75C63.91 102.46 64.08 103.17 64.27 103.87C64.4 104.37 64.47 105.13 64.96 105.4C65.03 105.44 65.16 105.44 65.22 105.36C65.57 104.91 65.36 104.25 65.29 103.71C65.27 103.59 65.25 103.46 65.23 103.34C65.45 103.55 65.67 103.77 65.89 103.98C66.28 104.38 66.9 105.23 67.55 104.77C68.12 104.37 67.71 103.5 67.58 102.98Z" fill="#000000" fill-opacity="1.000000" fill-rule="nonzero"/>
		</g>
	</g>
	<g mask="url(#mask1_45197)">
		<g style="mix-blend-mode:normal">
			<path id="Path 24752" d="M69.83 103.82C69.79 103.67 69.72 103.55 69.61 103.44C69.56 103.4 69.5 103.36 69.44 103.31C69.31 103.24 69.17 103.2 69.02 103.2C68.9 103.19 68.79 103.22 68.69 103.27C68.58 103.3 68.5 103.36 68.42 103.44C68.33 103.52 68.28 103.61 68.24 103.72C68.19 103.82 68.17 103.92 68.17 104.04L68.2 104.27C68.24 104.41 68.31 104.53 68.42 104.64C68.48 104.68 68.54 104.73 68.59 104.77C68.72 104.85 68.87 104.88 69.02 104.88C69.14 104.89 69.24 104.86 69.34 104.81C69.45 104.78 69.54 104.72 69.62 104.64C69.7 104.56 69.76 104.47 69.79 104.37C69.84 104.27 69.87 104.16 69.86 104.04C69.85 103.96 69.84 103.89 69.83 103.82Z" fill="#000000" fill-opacity="1.000000" fill-rule="nonzero"/>
		</g>
	</g>
</svg>
