<svg width="189.782227" height="157.862549" viewBox="0 0 189.782 157.863" fill="none" xmlns="http://www.w3.org/2000/svg" xmlns:xlink="http://www.w3.org/1999/xlink">
	<desc>
			Created with Pixso.
	</desc>
	<defs/>
	<mask id="mask1_18593" mask-type="alpha" maskUnits="userSpaceOnUse" x="0.000000" y="25.192627" width="163.152466" height="132.669678">
		<g style="mix-blend-mode:normal">
			<rect id="Rectangle 2644" y="41.050293" width="151.706100" height="117.455444" transform="rotate(-6 0.000000 41.050293)" fill="#C4C4C4" fill-opacity="1.000000"/>
		</g>
	</mask>
	<g mask="url(#mask1_18593)">
		<g style="mix-blend-mode:normal">
			<path id="Path 15619" d="M31.04 77.46C31.23 77.32 31.41 77.16 31.57 76.99C33.09 75.29 33.71 72.97 33.99 70.71C34.85 63.7 32.72 59.98 28.82 54.54C27.26 52.36 25.83 50.09 24.31 47.88C23.25 46.35 21.94 44.95 20.7 43.51C20.51 43.29 20.54 42.96 20.76 42.77C20.92 42.63 21.15 42.6 21.34 42.7C22.03 43.05 22.74 43.37 23.45 43.69C25.09 44.44 26.64 45.58 28.19 46.51C31.62 48.57 35.07 50.59 38.55 52.56C44.73 56.05 51.62 59.55 58.84 60.05C60.67 60.17 62.56 60.1 64.24 59.39C69.04 57.38 73.66 49.73 75.07 43.56C75.3 42.6 76.26 42.01 77.22 42.24C77.61 42.33 77.96 42.55 78.21 42.86C79.23 44.16 80.36 45.36 81.6 46.45C84.2 48.93 87.17 51.27 90.7 51.99C96.69 53.22 101.57 51.21 105.64 46.82C110.59 41.49 115.1 35.78 119.15 29.74C119.54 29.16 120.32 29.01 120.89 29.39C121.36 29.71 121.56 30.29 121.39 30.82C120.73 32.87 120.08 34.92 119.54 37.01C118.23 42.13 117.61 47.61 119.12 52.69C121.25 59.83 128.71 62.07 135.2 59.72C136.04 59.43 136.95 59.87 137.24 60.71C137.33 60.96 137.35 61.22 137.31 61.47C136.83 64.45 136.84 67.49 137.35 70.46C139.15 80.29 146.42 84.24 155.05 85.09C155.99 85.19 156.67 86.02 156.58 86.96C156.53 87.41 156.3 87.83 155.94 88.12C151.55 91.67 147.65 95.63 144.53 100.49C140.91 106.12 144.13 114.61 147.32 119.76C149.78 123.73 152.97 127.16 156.36 130.39C156.78 130.79 156.8 131.46 156.41 131.88C156.1 132.2 155.63 132.3 155.23 132.12L144.99 127.72C142.19 126.52 139.31 125.3 136.27 125.2C130.21 124.99 124.56 130.05 123.69 135.97C123.56 136.71 122.86 137.21 122.12 137.09C121.98 137.07 121.84 137.02 121.71 136.95C117.55 134.86 113.27 133.04 108.87 131.5C104.35 129.9 99.24 130.35 94.93 132.39C91 134.24 86.98 138.13 84.99 142C84.62 142.7 83.75 142.98 83.04 142.61C82.83 142.5 82.65 142.33 82.51 142.13C77.89 135.3 70.59 132.22 61.98 135.01C57.21 136.55 53.06 139.54 49.18 142.71C44.94 146.17 40.93 149.89 37.17 153.86C36.74 154.32 36.03 154.34 35.57 153.91C35.25 153.61 35.13 153.15 35.27 152.73C37.19 147.1 38.31 141.24 38.6 135.3C38.74 132.47 38.66 129.52 37.43 126.97C35.44 122.87 30.95 120.7 26.71 119.01C22.58 117.36 18.38 115.88 14.12 114.57C13.34 114.32 12.9 113.49 13.15 112.71C13.28 112.28 13.6 111.94 14.01 111.77C16.91 110.59 19.61 109.03 21.64 106.68C26.34 101.24 26.55 91.38 22.71 85.39C21.33 83.24 19.39 81.5 17.45 79.81C17.21 79.6 17.18 79.24 17.39 79.01C17.54 78.84 17.77 78.77 17.99 78.84C20.1 79.52 22.34 79.69 24.53 79.34C26.76 78.97 29.16 78.87 31.04 77.46Z" fill="#F4F1E4" fill-opacity="1.000000" fill-rule="nonzero"/>
		</g>
	</g>
	<g mask="url(#mask1_18593)">
		<g style="mix-blend-mode:normal">
			<path id="Path 15620" d="M36.68 77.84C37.19 76.61 37.58 75.33 37.85 74.03C38.11 72.72 38.29 71.4 38.39 70.07C38.51 68.75 38.54 67.41 38.5 66.08C38.45 64.74 38.33 63.41 38.12 62.08C38.1 61.93 38.21 61.78 38.36 61.76C38.49 61.74 38.62 61.81 38.67 61.94C39.19 63.24 39.52 64.6 39.67 66C39.75 66.69 39.79 67.39 39.8 68.09C39.79 68.79 39.77 69.49 39.71 70.19C39.6 71.58 39.34 72.96 38.95 74.31C38.57 75.67 37.97 76.95 37.17 78.11C37.08 78.24 36.9 78.27 36.78 78.18C36.67 78.1 36.63 77.96 36.68 77.84Z" fill="#FCF9EB" fill-opacity="1.000000" fill-rule="nonzero"/>
		</g>
	</g>
	<g mask="url(#mask1_18593)">
		<g style="mix-blend-mode:normal">
			<path id="Path 15621" d="M29.51 100.66C29.51 99.91 29.56 99.19 29.59 98.47L29.7 96.31C29.73 95.59 29.74 94.87 29.76 94.15C29.77 93.43 29.77 92.71 29.8 91.97C29.8 91.76 29.97 91.6 30.18 91.61C30.34 91.61 30.48 91.72 30.52 91.87C30.73 92.6 30.88 93.35 30.95 94.1C31.03 94.85 31.05 95.61 31.02 96.36C31 97.12 30.91 97.87 30.77 98.61C30.63 99.36 30.41 100.09 30.11 100.79C30.04 100.94 29.85 101.02 29.69 100.94C29.58 100.89 29.51 100.78 29.51 100.66Z" fill="#FCF9EB" fill-opacity="1.000000" fill-rule="nonzero"/>
		</g>
	</g>
	<g mask="url(#mask1_18593)">
		<g style="mix-blend-mode:normal">
			<path id="Path 15622" d="M27.11 106.9C27.14 106.62 27.2 106.34 27.29 106.07C27.37 105.81 27.47 105.55 27.58 105.31C27.7 105.06 27.83 104.82 27.97 104.59C28.12 104.34 28.29 104.12 28.49 103.91C28.65 103.75 28.91 103.75 29.06 103.91C29.13 103.98 29.18 104.07 29.18 104.17C29.19 104.47 29.16 104.77 29.08 105.05C28.94 105.62 28.69 106.14 28.34 106.61C28.17 106.86 27.96 107.07 27.72 107.25C27.55 107.38 27.3 107.34 27.18 107.16C27.13 107.09 27.1 106.99 27.11 106.9Z" fill="#FCF9EB" fill-opacity="1.000000" fill-rule="nonzero"/>
		</g>
	</g>
	<g mask="url(#mask1_18593)">
		<g style="mix-blend-mode:normal">
			<path id="Path 15623" d="M136.21 79.72C136.89 80.31 137.5 80.91 138.12 81.5C138.73 82.09 139.34 82.68 139.96 83.25C140.58 83.82 141.22 84.38 141.88 84.93C142.53 85.49 143.2 86.04 143.87 86.65C144.04 86.8 144.05 87.06 143.9 87.23C143.8 87.34 143.65 87.39 143.5 87.36C142.6 87.13 141.73 86.79 140.92 86.34C140.1 85.89 139.33 85.36 138.63 84.75C137.92 84.15 137.28 83.46 136.72 82.71C136.16 81.96 135.72 81.13 135.41 80.25C135.32 79.99 135.46 79.71 135.72 79.62C135.89 79.56 136.08 79.6 136.21 79.72Z" fill="#FCF9EB" fill-opacity="1.000000" fill-rule="nonzero"/>
		</g>
	</g>
	<g mask="url(#mask1_18593)">
		<g style="mix-blend-mode:normal">
			<path id="Path 15624" d="M122.2 63.35C122.82 63.51 123.42 63.7 124.01 63.88C124.61 64.06 125.2 64.22 125.79 64.38C126.39 64.54 126.99 64.67 127.6 64.81L129.44 65.19C129.66 65.24 129.8 65.44 129.75 65.66C129.72 65.82 129.58 65.95 129.42 65.97C128.76 66.05 128.09 66.06 127.43 66C126.76 65.95 126.1 65.84 125.46 65.66C124.81 65.5 124.19 65.27 123.58 64.98C122.98 64.7 122.41 64.34 121.9 63.91C121.76 63.8 121.74 63.59 121.86 63.45C121.94 63.35 122.08 63.31 122.2 63.35Z" fill="#FCF9EB" fill-opacity="1.000000" fill-rule="nonzero"/>
		</g>
	</g>
	<g mask="url(#mask1_18593)">
		<g style="mix-blend-mode:normal">
			<path id="Path 15625" d="M106.36 52.61C106.61 52.21 106.89 51.84 107.2 51.49C107.49 51.13 107.8 50.8 108.11 50.47C108.42 50.15 108.74 49.84 109.09 49.53C109.44 49.21 109.82 48.93 110.23 48.69C110.39 48.59 110.61 48.65 110.7 48.82C110.76 48.91 110.77 49.03 110.72 49.13C110.51 49.56 110.27 49.97 109.98 50.34C109.41 51.11 108.73 51.78 107.95 52.32C107.55 52.6 107.12 52.83 106.67 53C106.53 53.05 106.38 52.98 106.33 52.84C106.31 52.76 106.32 52.68 106.36 52.61Z" fill="#FCF9EB" fill-opacity="1.000000" fill-rule="nonzero"/>
		</g>
	</g>
	<g mask="url(#mask1_18593)">
		<g style="mix-blend-mode:normal">
			<path id="Path 15626" d="M102.32 54.8C102.49 54.62 102.68 54.47 102.88 54.33C103.07 54.19 103.27 54.07 103.47 53.95C103.68 53.84 103.89 53.74 104.11 53.66C104.35 53.58 104.59 53.53 104.85 53.53C105.07 53.53 105.26 53.71 105.26 53.94C105.26 54.01 105.25 54.08 105.22 54.14C105.09 54.36 104.92 54.57 104.71 54.73C104.52 54.89 104.31 55.02 104.08 55.13C103.86 55.24 103.63 55.33 103.39 55.4C103.14 55.47 102.89 55.51 102.63 55.52C102.4 55.52 102.21 55.33 102.21 55.09C102.21 54.99 102.25 54.88 102.32 54.8Z" fill="#FCF9EB" fill-opacity="1.000000" fill-rule="nonzero"/>
		</g>
	</g>
	<g mask="url(#mask1_18593)">
		<g style="mix-blend-mode:normal">
			<path id="Path 15627" d="M70.2 61.06C70.72 60.37 71.26 59.72 71.79 59.06C72.32 58.4 72.84 57.74 73.36 57.08C73.88 56.41 74.38 55.73 74.88 55.05C75.39 54.37 75.89 53.67 76.43 52.99C76.52 52.87 76.69 52.85 76.82 52.94C76.91 53.01 76.95 53.14 76.91 53.25C76.62 54.08 76.26 54.89 75.83 55.65C75.41 56.42 74.93 57.17 74.41 57.87C73.89 58.58 73.31 59.25 72.67 59.87C72.04 60.49 71.34 61.04 70.58 61.49C70.43 61.57 70.26 61.53 70.17 61.39C70.11 61.28 70.12 61.15 70.2 61.06Z" fill="#FCF9EB" fill-opacity="1.000000" fill-rule="nonzero"/>
		</g>
	</g>
	<g mask="url(#mask1_18593)">
		<g style="mix-blend-mode:normal">
			<path id="Path 15628" d="M63.57 64.37C63.92 64.19 64.27 64.04 64.61 63.9C64.95 63.75 65.29 63.62 65.63 63.48C65.97 63.34 66.31 63.21 66.66 63.08C67.02 62.95 67.38 62.83 67.75 62.74C67.97 62.69 68.18 62.82 68.23 63.04C68.26 63.16 68.23 63.29 68.14 63.39C67.87 63.7 67.55 63.96 67.21 64.17C66.86 64.39 66.5 64.57 66.11 64.72C65.74 64.86 65.34 64.97 64.94 65.04C64.54 65.12 64.13 65.15 63.73 65.13C63.51 65.11 63.34 64.92 63.36 64.7C63.37 64.56 63.45 64.43 63.57 64.37Z" fill="#FCF9EB" fill-opacity="1.000000" fill-rule="nonzero"/>
		</g>
	</g>
	<g mask="url(#mask1_18593)">
		<g style="mix-blend-mode:normal">
			<path id="Path 15629" d="M155.05 85.09C154.5 85.04 153.96 84.97 153.42 84.89C152.72 85.17 151.97 85.3 151.22 85.25C151.42 85.28 151.53 85.3 151.73 85.33C152.54 85.36 153.17 86.05 153.14 86.86C153.12 87.33 152.88 87.75 152.5 88.01C148.22 91.1 144.41 94.55 141.31 98.81C137.72 103.74 140.57 111.3 143.46 115.89C145.42 119 147.93 121.75 150.64 124.34C149.42 122.89 148.32 121.36 147.31 119.76C144.13 114.61 140.91 106.12 144.52 100.49C147.64 95.63 151.55 91.67 155.94 88.12C156.68 87.53 156.8 86.46 156.21 85.72C155.92 85.37 155.51 85.14 155.05 85.09Z" fill="#E62B57" fill-opacity="1.000000" fill-rule="nonzero"/>
		</g>
	</g>
	<g mask="url(#mask1_18593)">
		<g style="mix-blend-mode:normal">
			<path id="Path 15630" d="M37.42 126.97C38.61 129.4 38.73 132.19 38.62 134.9C39.1 132.69 39.43 130.44 39.62 128.18C39.83 125.68 39.83 123.07 38.72 120.79C36.93 117.14 32.72 115.16 28.74 113.61C25.18 112.22 21.56 110.96 17.88 109.82C16.65 110.58 15.35 111.23 14.01 111.77C13.25 112.07 12.88 112.94 13.18 113.7C13.35 114.12 13.69 114.43 14.12 114.57C18.38 115.88 22.57 117.36 26.71 119.01C30.95 120.7 35.44 122.87 37.42 126.97Z" fill="#E62B57" fill-opacity="1.000000" fill-rule="nonzero"/>
		</g>
	</g>
	<g mask="url(#mask1_18593)">
		<g style="mix-blend-mode:normal">
			<path id="Path 15631" d="M152.09 126.02C152.09 126.58 151.64 127.03 151.09 127.03C150.94 127.03 150.8 127 150.67 126.94L141.04 122.91C138.41 121.81 135.7 120.69 132.81 120.56C127.05 120.29 121.54 124.7 120.56 129.92C120.4 130.73 119.43 131.14 118.65 130.76C114.74 128.85 110.7 127.18 106.58 125.76C102.32 124.29 97.44 124.62 93.29 126.36C89.5 127.95 85.58 131.34 83.58 134.73C83.16 135.4 82.28 135.6 81.61 135.18C81.46 135.08 81.33 134.96 81.22 134.82C77 128.71 70.14 125.89 61.87 128.24C57.3 129.54 53.27 132.13 49.49 134.88C45.39 137.86 41.47 141.11 37.78 144.58C37.67 144.68 37.54 144.76 37.41 144.81C36.86 147.5 36.15 150.14 35.27 152.73C35.07 153.32 35.39 153.96 35.98 154.16C36.4 154.3 36.87 154.18 37.17 153.86C40.93 149.89 44.94 146.16 49.18 142.71C53.06 139.54 57.21 136.55 61.98 135.01C70.59 132.22 77.89 135.3 82.51 142.13C82.96 142.79 83.85 142.97 84.52 142.52C84.71 142.39 84.88 142.21 84.99 142C86.98 138.13 91 134.24 94.93 132.39C99.24 130.35 104.35 129.9 108.87 131.5C113.27 133.04 117.55 134.86 121.71 136.95C122.38 137.3 123.2 137.05 123.55 136.38C123.62 136.25 123.66 136.12 123.69 135.97C124.56 130.05 130.21 124.99 136.27 125.2C139.31 125.3 142.19 126.52 144.99 127.72L155.23 132.12C155.76 132.35 156.38 132.1 156.61 131.57C156.78 131.17 156.68 130.7 156.36 130.39C154.88 128.99 153.45 127.53 152.09 126.02Z" fill="#E62B57" fill-opacity="1.000000" fill-rule="nonzero"/>
		</g>
	</g>
	<g mask="url(#mask1_18593)">
		<g style="mix-blend-mode:normal">
			<path id="Path 15632" d="M36.54 154.96C36.13 155 35.72 154.91 35.37 154.69C34.6 154.25 34.26 153.32 34.56 152.49C36.46 146.93 37.57 141.13 37.85 135.27C37.98 132.71 37.95 129.75 36.75 127.3C34.92 123.51 30.71 121.41 26.44 119.71C22.34 118.07 18.12 116.58 13.9 115.28C12.72 114.92 12.06 113.67 12.43 112.49C12.63 111.85 13.1 111.33 13.73 111.08C17.02 109.73 19.35 108.18 21.07 106.19C25.38 101.2 25.85 91.67 22.08 85.79C20.77 83.76 18.91 82.07 16.96 80.37C16.41 79.89 16.35 79.06 16.82 78.51C17.17 78.12 17.71 77.97 18.21 78.12C20.21 78.77 22.34 78.94 24.41 78.6C24.8 78.54 25.19 78.48 25.59 78.43C27.44 78.16 29.19 77.92 30.6 76.86C30.75 76.75 30.88 76.63 31.01 76.49C32.19 75.17 32.92 73.25 33.25 70.61C34.1 63.75 31.91 60.13 28.22 54.97C27.31 53.71 26.44 52.4 25.6 51.13C24.98 50.2 24.34 49.24 23.69 48.31C22.85 47.13 21.93 46.01 20.96 44.94C20.68 44.63 20.41 44.31 20.13 43.99C19.68 43.46 19.74 42.66 20.27 42.2C20.66 41.87 21.21 41.8 21.67 42.03C22.33 42.36 22.99 42.66 23.69 42.98C24.85 43.54 26.04 44.22 27.11 44.95C27.59 45.26 28.09 45.58 28.57 45.87C31.98 47.92 35.46 49.95 38.92 51.9C44.79 55.22 51.66 58.8 58.89 59.3C61.02 59.45 62.63 59.26 63.96 58.7C68.52 56.79 73.01 49.24 74.34 43.39C74.55 42.45 75.28 41.72 76.22 41.51C77.18 41.28 78.17 41.63 78.79 42.39C79.78 43.65 80.88 44.82 82.08 45.88C84.3 48 87.33 50.54 90.85 51.26C96.31 52.38 100.97 50.76 105.1 46.31C110.01 41.01 114.5 35.33 118.53 29.32C119.08 28.48 120.17 28.18 121.07 28.64C121.98 29.06 122.43 30.1 122.1 31.05C121.5 32.9 120.82 35.04 120.27 37.19C118.71 43.24 118.57 48.24 119.84 52.47C120.58 55.16 122.43 57.41 124.92 58.67C127.83 60.14 131.49 60.27 134.95 59.02C135.72 58.74 136.59 58.89 137.22 59.42C137.86 59.94 138.18 60.77 138.05 61.59C137.58 64.48 137.59 67.44 138.09 70.33C139.61 78.67 145.35 83.38 155.13 84.35C156.12 84.44 156.95 85.12 157.23 86.08C157.51 87.03 157.19 88.07 156.41 88.7C151.55 92.63 147.97 96.5 145.15 100.89C141.91 105.94 144.47 113.74 147.95 119.36C150.6 123.64 154.11 127.22 156.88 129.85C157.6 130.54 157.63 131.67 156.95 132.39C156.43 132.94 155.63 133.1 154.93 132.81L144.69 128.41C141.99 127.25 139.19 126.04 136.24 125.94C130.67 125.75 125.26 130.4 124.42 136.08C124.33 136.74 123.92 137.31 123.33 137.61C122.72 137.93 121.99 137.93 121.37 137.62C117.25 135.54 112.99 133.73 108.63 132.2C104.42 130.72 99.54 131.03 95.25 133.06C91.44 134.86 87.59 138.58 85.65 142.34C85.09 143.41 83.77 143.83 82.7 143.27C82.38 143.1 82.1 142.86 81.89 142.55C77.23 135.67 70.06 133.18 62.21 135.72C57.4 137.28 53.16 140.42 49.65 143.29C45.44 146.73 41.45 150.43 37.71 154.38C37.41 154.71 36.99 154.92 36.54 154.96ZM18.53 79.77C20.35 81.37 22.06 83.01 23.33 84.99C27.5 91.47 26.98 101.63 22.2 107.17C20.33 109.34 17.81 111.02 14.29 112.46C13.99 112.57 13.8 112.87 13.82 113.19C13.83 113.5 14.04 113.77 14.34 113.85C18.6 115.17 22.86 116.67 26.99 118.32C31.54 120.14 36.04 122.4 38.1 126.64C39.44 129.41 39.48 132.59 39.35 135.34C39.05 141.34 37.92 147.28 35.97 152.97C35.91 153.14 35.98 153.33 36.14 153.42C36.29 153.52 36.51 153.49 36.63 153.35C40.41 149.36 44.44 145.61 48.7 142.13C52.33 139.17 56.71 135.93 61.75 134.3C70.27 131.54 78.07 134.24 83.13 141.71C83.27 141.92 83.51 142.04 83.76 142.02C84 142.01 84.22 141.87 84.32 141.65C86.4 137.63 90.53 133.64 94.61 131.71C99.26 129.52 104.55 129.18 109.12 130.79C113.54 132.35 117.86 134.18 122.05 136.29C122.23 136.38 122.46 136.38 122.64 136.29C122.81 136.2 122.92 136.05 122.95 135.86C123.89 129.46 130 124.24 136.29 124.45C139.52 124.56 142.58 125.88 145.28 127.04L155.52 131.43C155.66 131.51 155.82 131.46 155.89 131.32C155.99 131.2 155.97 131.03 155.85 130.93C153.02 128.24 149.42 124.57 146.68 120.15C142.96 114.14 140.28 105.71 143.9 100.08C146.77 95.62 150.55 91.51 155.47 87.53C155.78 87.29 155.91 86.88 155.8 86.5C155.69 86.13 155.37 85.87 154.98 85.83C144.6 84.81 138.25 79.54 136.62 70.59C136.09 67.54 136.08 64.42 136.57 61.36C136.62 61.06 136.5 60.76 136.27 60.57C136.04 60.38 135.73 60.32 135.46 60.42C131.61 61.81 127.52 61.66 124.24 60C121.38 58.56 119.26 55.98 118.4 52.9C117.06 48.4 117.2 43.14 118.82 36.82C119.38 34.63 120.07 32.46 120.68 30.59C120.77 30.35 120.66 30.08 120.42 29.98C120.19 29.85 119.9 29.93 119.77 30.15C115.7 36.22 111.16 41.96 106.19 47.32C101.74 52.12 96.48 53.94 90.54 52.72C86.66 51.93 83.46 49.25 81.09 47C79.83 45.88 78.67 44.65 77.62 43.33C77.37 43.01 76.96 42.86 76.56 42.96C76.18 43.04 75.88 43.34 75.8 43.72C74.39 49.91 69.68 57.92 64.53 60.08C62.98 60.73 61.15 60.96 58.79 60.79C51.24 60.27 44.2 56.6 38.19 53.2C34.71 51.24 31.22 49.21 27.8 47.15C27.3 46.85 26.79 46.52 26.3 46.2C25.29 45.52 24.24 44.9 23.14 44.37C22.78 44.2 22.34 44 21.97 43.83C22.01 43.88 22.05 43.92 22.09 43.96C23.09 45.07 24.04 46.24 24.92 47.45C25.57 48.4 26.22 49.37 26.84 50.3C27.68 51.56 28.54 52.86 29.43 54.1C33.22 59.39 35.64 63.41 34.73 70.8C34.37 73.74 33.51 75.93 32.12 77.49C31.93 77.7 31.72 77.89 31.49 78.06C29.78 79.34 27.75 79.63 25.8 79.9C25.41 79.96 25.03 80.01 24.65 80.08C22.61 80.41 20.53 80.3 18.53 79.77Z" fill="#061C3F" fill-opacity="1.000000" fill-rule="nonzero"/>
		</g>
	</g>
	<g mask="url(#mask1_18593)">
		<g style="mix-blend-mode:normal">
			<path id="Path 15633" d="M144.1 34.34C143.01 35.52 141.84 36.62 140.69 37.74L137.23 41.1C134.92 43.34 132.61 45.58 130.3 47.81C130.09 48 129.77 48 129.57 47.79C129.39 47.6 129.38 47.31 129.55 47.1C131.62 44.64 133.7 42.19 135.79 39.75L138.91 36.08C139.96 34.86 140.98 33.61 142.08 32.45C142.61 31.9 143.49 31.88 144.04 32.41C144.58 32.93 144.61 33.79 144.1 34.34Z" fill="#FF5672" fill-opacity="1.000000" fill-rule="nonzero"/>
		</g>
	</g>
	<g mask="url(#mask1_18593)">
		<g style="mix-blend-mode:normal">
			<path id="Path 15634" d="M131.54 32.05C131.71 32.63 131.71 33.24 131.54 33.81L131.06 35.45C130.74 36.54 130.39 37.62 130.05 38.7C129.35 40.86 128.62 43.02 127.76 45.14C127.66 45.41 127.36 45.54 127.1 45.44C126.87 45.35 126.74 45.12 126.77 44.89C127.05 42.61 127.46 40.38 127.9 38.14C128.13 37.03 128.35 35.92 128.6 34.81L128.97 33.15C129.1 32.56 129.4 32.03 129.82 31.61C130.24 31.21 130.91 31.23 131.3 31.65C131.41 31.77 131.49 31.9 131.54 32.05Z" fill="#FF5672" fill-opacity="1.000000" fill-rule="nonzero"/>
		</g>
	</g>
	<g mask="url(#mask1_18593)">
		<g style="mix-blend-mode:normal">
			<path id="Path 15635" d="M145.8 45.05C145.44 45.57 144.93 45.99 144.35 46.25L142.67 47C141.56 47.5 140.43 47.97 139.31 48.46C137.05 49.4 134.78 50.32 132.45 51.12C132.18 51.21 131.89 51.07 131.79 50.8C131.71 50.58 131.8 50.32 132 50.2C134.07 48.86 136.2 47.65 138.33 46.45C139.41 45.87 140.48 45.27 141.56 44.71L143.19 43.86C143.75 43.56 144.39 43.42 145.03 43.45C145.59 43.5 146.02 43.99 145.97 44.55C145.96 44.73 145.9 44.9 145.8 45.05Z" fill="#FF5672" fill-opacity="1.000000" fill-rule="nonzero"/>
		</g>
	</g>
	<g mask="url(#mask1_18593)">
		<g style="mix-blend-mode:normal">
			<path id="Path 15636" d="M12.06 148.14C13.14 146.95 14.3 145.83 15.43 144.7L18.86 141.3C21.13 139.03 23.42 136.77 25.71 134.51C25.91 134.31 26.23 134.31 26.43 134.52C26.62 134.7 26.63 135 26.46 135.2C24.42 137.69 22.37 140.16 20.31 142.63L17.23 146.34C16.2 147.57 15.19 148.83 14.1 150.01C13.58 150.57 12.7 150.59 12.14 150.07C11.6 149.56 11.56 148.7 12.06 148.14Z" fill="#FF5672" fill-opacity="1.000000" fill-rule="nonzero"/>
		</g>
	</g>
	<g mask="url(#mask1_18593)">
		<g style="mix-blend-mode:normal">
			<path id="Path 15637" d="M10.28 135.98C10.66 135.52 11.17 135.18 11.75 135.01L13.38 134.51C14.46 134.17 15.55 133.87 16.65 133.55C18.84 132.95 21.04 132.37 23.28 131.91C23.56 131.85 23.83 132.03 23.9 132.3C23.95 132.54 23.83 132.78 23.61 132.88C21.56 133.9 19.47 134.79 17.37 135.66C16.32 136.08 15.26 136.51 14.2 136.91L12.61 137.52C12.05 137.73 11.44 137.78 10.86 137.66C10.29 137.52 9.94 136.96 10.08 136.4C10.11 136.25 10.18 136.1 10.28 135.98Z" fill="#FF5672" fill-opacity="1.000000" fill-rule="nonzero"/>
		</g>
	</g>
	<g mask="url(#mask1_18593)">
		<g style="mix-blend-mode:normal">
			<path id="Path 15638" d="M23.26 150.23C23.18 149.59 23.27 148.95 23.52 148.36L24.25 146.67C24.72 145.55 25.24 144.44 25.73 143.32C26.76 141.1 27.81 138.88 28.98 136.72C29.11 136.47 29.42 136.37 29.68 136.5C29.89 136.61 30 136.86 29.93 137.09C29.32 139.48 28.57 141.81 27.81 144.14C27.41 145.29 27.03 146.46 26.61 147.61L25.99 149.33C25.78 149.94 25.4 150.47 24.91 150.88C24.47 151.23 23.82 151.15 23.47 150.71C23.36 150.57 23.29 150.4 23.26 150.23Z" fill="#FF5672" fill-opacity="1.000000" fill-rule="nonzero"/>
		</g>
	</g>
	<g mask="url(#mask1_18593)">
		<g style="mix-blend-mode:normal">
			<path id="Path 15639" d="M6.92 52.77C8.2 53.74 9.41 54.8 10.64 55.84L14.32 58.95C16.77 61.03 19.22 63.11 21.67 65.2C21.88 65.38 21.91 65.71 21.72 65.92C21.55 66.12 21.26 66.16 21.04 66.01C18.39 64.19 15.75 62.36 13.11 60.52L9.15 57.77C7.84 56.85 6.5 55.95 5.23 54.97C4.63 54.49 4.53 53.62 5 53.02C5.47 52.43 6.32 52.32 6.92 52.77Z" fill="#FF5672" fill-opacity="1.000000" fill-rule="nonzero"/>
		</g>
	</g>
	<g mask="url(#mask1_18593)">
		<g style="mix-blend-mode:normal">
			<path id="Path 15640" d="M18.88 49.95C19.37 50.3 19.75 50.78 19.97 51.33L20.61 52.91C21.04 53.96 21.43 55.03 21.84 56.09C22.63 58.22 23.4 60.36 24.05 62.56C24.13 62.83 23.98 63.12 23.71 63.21C23.48 63.28 23.23 63.18 23.11 62.97C21.92 61.02 20.85 59.01 19.81 56.99C19.3 55.98 18.77 54.97 18.29 53.94L17.54 52.41C17.28 51.87 17.18 51.27 17.26 50.67C17.34 50.1 17.87 49.7 18.44 49.78C18.6 49.81 18.75 49.87 18.88 49.95Z" fill="#FF5672" fill-opacity="1.000000" fill-rule="nonzero"/>
		</g>
	</g>
	<g mask="url(#mask1_18593)">
		<g style="mix-blend-mode:normal">
			<path id="Path 15641" d="M5.8 64.11C6.42 63.97 7.08 64.01 7.68 64.21L9.42 64.79C10.59 65.17 11.74 65.58 12.89 65.98C15.2 66.81 17.49 67.66 19.75 68.65C20.01 68.76 20.14 69.06 20.03 69.32C19.93 69.55 19.69 69.67 19.46 69.63C17.03 69.22 14.64 68.68 12.26 68.12C11.07 67.82 9.88 67.54 8.7 67.22L6.92 66.75C6.3 66.59 5.74 66.27 5.29 65.81C4.91 65.4 4.93 64.75 5.34 64.36C5.47 64.24 5.63 64.15 5.8 64.11Z" fill="#FF5672" fill-opacity="1.000000" fill-rule="nonzero"/>
		</g>
	</g>
	<g mask="url(#mask1_18593)">
		<g style="mix-blend-mode:normal">
			<path id="Path 15642" d="M150.97 104.66L151.39 106.43C151.42 106.54 151.5 106.62 151.6 106.66L153.3 107.32C153.47 107.39 153.56 107.58 153.49 107.75C153.47 107.82 153.42 107.88 153.35 107.92L151.8 108.87C151.7 108.93 151.64 109.03 151.64 109.14L151.54 110.96C151.53 111.14 151.37 111.29 151.19 111.28C151.11 111.27 151.04 111.24 150.98 111.2L149.6 110.01C149.52 109.94 149.4 109.91 149.3 109.94L147.53 110.41C147.35 110.46 147.17 110.35 147.12 110.17C147.1 110.1 147.11 110.02 147.14 109.95L147.84 108.27C147.88 108.17 147.87 108.05 147.81 107.96L146.82 106.43C146.72 106.27 146.76 106.07 146.92 105.97C146.98 105.92 147.05 105.91 147.13 105.91L148.95 106.06C149.06 106.07 149.16 106.02 149.23 105.94L150.39 104.52C150.5 104.38 150.71 104.36 150.85 104.47C150.91 104.52 150.95 104.58 150.97 104.66Z" fill="#FF5672" fill-opacity="1.000000" fill-rule="nonzero"/>
		</g>
	</g>
	<g mask="url(#mask1_18593)">
		<g style="mix-blend-mode:normal">
			<path id="Path 15643" d="M76.8 144.43L77.23 146.2C77.25 146.31 77.33 146.39 77.43 146.44L79.13 147.09C79.31 147.16 79.39 147.35 79.33 147.52C79.3 147.59 79.25 147.65 79.19 147.69L77.63 148.64C77.54 148.7 77.48 148.8 77.47 148.91L77.37 150.73C77.36 150.92 77.2 151.06 77.02 151.05C76.95 151.05 76.87 151.02 76.82 150.97L75.43 149.78C75.35 149.71 75.24 149.68 75.13 149.71L73.37 150.18C73.19 150.23 73 150.12 72.96 149.94C72.94 149.87 72.94 149.8 72.97 149.73L73.67 148.04C73.71 147.94 73.7 147.82 73.64 147.73L72.65 146.2C72.55 146.04 72.6 145.84 72.75 145.74C72.81 145.7 72.89 145.68 72.96 145.68L74.78 145.83C74.89 145.84 75 145.79 75.07 145.71L76.22 144.29C76.33 144.15 76.54 144.13 76.69 144.24C76.75 144.29 76.79 144.35 76.8 144.43Z" fill="#FF5672" fill-opacity="1.000000" fill-rule="nonzero"/>
		</g>
	</g>
	<g mask="url(#mask1_18593)">
		<g style="mix-blend-mode:normal">
			<path id="Path 15644" d="M155.69 114.71L155.96 115.86C155.98 115.93 156.03 115.99 156.09 116.01L157.19 116.44C157.31 116.48 157.36 116.6 157.32 116.72L156.22 117.44C156.16 117.47 156.12 117.54 156.12 117.61L156.05 118.79C156.05 118.91 155.94 119 155.82 118.99C155.78 118.99 155.73 118.97 155.7 118.94L154.8 118.17C154.75 118.13 154.67 118.11 154.6 118.13L153.46 118.43C153.35 118.46 153.23 118.39 153.2 118.28C153.19 118.23 153.19 118.18 153.21 118.14L153.66 117.05C153.69 116.98 153.68 116.91 153.64 116.85L153 115.86C152.94 115.76 152.97 115.62 153.07 115.56C153.11 115.53 153.16 115.52 153.2 115.52L154.38 115.62C154.45 115.62 154.52 115.6 154.56 115.54L155.31 114.63C155.38 114.53 155.52 114.52 155.61 114.59C155.65 114.62 155.68 114.66 155.69 114.71Z" fill="#FF5672" fill-opacity="1.000000" fill-rule="nonzero"/>
		</g>
	</g>
	<g mask="url(#mask1_18593)">
		<g style="mix-blend-mode:normal">
			<path id="Path 15645" d="M58 49.99L56.17 49.95C56.06 49.95 55.96 49.89 55.9 49.8L54.9 48.27C54.8 48.11 54.6 48.07 54.44 48.17C54.38 48.21 54.33 48.27 54.31 48.34L53.7 50.06C53.67 50.17 53.58 50.25 53.47 50.27L51.71 50.75C51.53 50.8 51.43 50.98 51.47 51.16C51.49 51.23 51.54 51.3 51.6 51.34L53.05 52.45C53.13 52.52 53.18 52.62 53.18 52.73L53.09 54.55C53.08 54.74 53.22 54.89 53.4 54.9C53.48 54.91 53.55 54.89 53.61 54.85L55.11 53.81C55.2 53.75 55.32 53.73 55.42 53.77L57.13 54.42C57.3 54.49 57.49 54.4 57.56 54.23C57.58 54.16 57.59 54.08 57.57 54.01L57.04 52.27C57.01 52.16 57.04 52.05 57.1 51.96L58.25 50.54C58.37 50.4 58.34 50.19 58.2 50.07C58.14 50.02 58.07 50 58 49.99Z" fill="#FF5672" fill-opacity="1.000000" fill-rule="nonzero"/>
		</g>
	</g>
	<g mask="url(#mask1_18593)">
		<g style="mix-blend-mode:normal">
			<path id="Path 15646" d="M47.31 47.22L46.13 47.19C46.06 47.19 45.99 47.16 45.96 47.1L45.31 46.11C45.25 46.01 45.11 45.98 45.01 46.05L44.53 47.27C44.51 47.34 44.45 47.39 44.39 47.41L43.25 47.71C43.13 47.75 43.06 47.86 43.09 47.98C43.11 48.03 43.13 48.07 43.17 48.09L44.11 48.81C44.17 48.85 44.2 48.92 44.19 48.99L44.13 50.17C44.13 50.29 44.22 50.39 44.34 50.4C44.39 50.4 44.43 50.39 44.47 50.36L45.45 49.69C45.5 49.65 45.58 49.64 45.65 49.67L46.75 50.09C46.86 50.13 46.98 50.07 47.03 49.96C47.04 49.92 47.05 49.87 47.03 49.82L46.69 48.69C46.67 48.62 46.69 48.55 46.74 48.49L47.48 47.58C47.55 47.48 47.54 47.35 47.44 47.27C47.4 47.24 47.36 47.22 47.31 47.22Z" fill="#FF5672" fill-opacity="1.000000" fill-rule="nonzero"/>
		</g>
	</g>
	<g mask="url(#mask1_18593)">
		<g style="mix-blend-mode:normal">
			<path id="Path 15647" d="M71.81 140.91L70.63 140.89C70.56 140.88 70.5 140.85 70.46 140.79L69.81 139.8C69.75 139.7 69.61 139.67 69.51 139.74L69.04 140.96C69.01 141.03 68.96 141.08 68.89 141.1L67.75 141.41C67.63 141.44 67.57 141.55 67.6 141.67C67.61 141.72 67.64 141.76 67.67 141.78L68.61 142.5C68.67 142.55 68.7 142.61 68.7 142.69L68.64 143.86C68.63 143.98 68.72 144.08 68.84 144.09C68.89 144.09 68.94 144.08 68.98 144.05L69.95 143.38C70.01 143.34 70.08 143.33 70.15 143.36L71.25 143.78C71.36 143.82 71.49 143.77 71.53 143.65C71.55 143.61 71.55 143.56 71.53 143.51L71.2 142.38C71.18 142.32 71.19 142.24 71.24 142.19L71.98 141.27C72.05 141.17 72.04 141.04 71.95 140.96C71.91 140.93 71.86 140.92 71.81 140.91Z" fill="#FF5672" fill-opacity="1.000000" fill-rule="nonzero"/>
		</g>
	</g>
	<g style="mix-blend-mode:normal">
		<path id="£395" d="M92.09 111.83C92.09 111.58 92.14 111.4 92.23 111.29C92.33 111.19 92.44 111.07 92.56 110.94C92.63 110.85 92.65 110.76 92.63 110.69C92.62 110.61 92.64 110.52 92.71 110.42Q92.76 110.38 92.85 110.38C92.91 110.38 92.94 110.36 92.94 110.33C93 110.18 93.04 110.07 93.06 110.01C93.07 109.94 93.13 109.83 93.23 109.68L93.46 109.44C93.52 109.34 93.54 109.26 93.53 109.18C93.51 109.11 93.53 109.02 93.6 108.92C93.6 108.89 93.61 108.88 93.64 108.9C93.68 108.91 93.7 108.89 93.7 108.83C93.73 108.71 93.81 108.54 93.93 108.33C94.06 108.13 94.15 107.95 94.22 107.8C94.47 107.26 94.74 106.75 95.03 106.27Q95.48 105.53 95.86 104.79C95.42 104.66 95 104.59 94.58 104.57C94.18 104.56 93.8 104.5 93.46 104.41C93.3 104.35 93.16 104.29 93.01 104.23C92.87 104.16 92.72 104.09 92.56 104.03L92.33 104.03C92.27 103.97 92.21 103.92 92.14 103.89C92.08 103.86 92.02 103.82 91.95 103.76Q91.91 103.76 91.82 103.78C91.76 103.79 91.71 103.79 91.68 103.76L91.68 103.65C91.68 103.62 91.64 103.61 91.58 103.63Q91.48 103.65 91.44 103.65L91.44 103.52Q91.39 103.52 91.3 103.54C91.24 103.55 91.21 103.55 91.21 103.52C91.14 103.45 91.05 103.38 90.95 103.29C90.84 103.19 90.75 103.14 90.69 103.14C90.62 103.14 90.55 103.09 90.47 103C90.4 102.91 90.29 102.83 90.16 102.77C90.01 102.64 89.85 102.51 89.69 102.39Q89.55 102.27 89.39 102.21L89.39 102.21Q89.29 102.17 89.18 102.15C89.09 101.87 88.93 101.66 88.71 101.51C88.49 101.35 88.31 101.14 88.15 100.89C87.99 100.6 87.79 100.38 87.54 100.22C87.45 99.82 87.3 99.45 87.11 99.12C86.93 98.79 86.77 98.45 86.64 98.11C86.58 97.89 86.54 97.69 86.53 97.5C86.51 97.31 86.47 97.09 86.41 96.85Q86.41 96.82 86.4 96.81Q86.38 96.79 86.34 96.79Q86.32 96.79 86.3 96.78Q86.27 96.76 86.27 96.7C86.27 96.55 86.24 96.4 86.17 96.26Q86.08 96.04 86.03 95.71Q85.99 95.2 86.17 94.45C86.2 94.17 86.22 93.89 86.22 93.62C86.22 93.36 86.28 93.08 86.41 92.8C86.41 92.77 86.43 92.76 86.46 92.77C86.49 92.79 86.52 92.77 86.55 92.71L86.55 92.57C86.58 92.51 86.63 92.38 86.71 92.19C86.79 92 86.87 91.83 86.93 91.67C86.93 91.61 86.94 91.58 86.97 91.58C87.01 91.58 87.02 91.57 87.02 91.54C87.08 91.47 87.1 91.4 87.09 91.31Q87.07 91.2 87.11 91.13Q87.13 91.09 87.16 91.06Q87.2 91.02 87.3 91C87.36 90.98 87.4 90.95 87.4 90.92C87.43 90.88 87.44 90.85 87.42 90.8C87.41 90.75 87.4 90.72 87.4 90.69Q87.45 90.64 87.54 90.62Q87.63 90.59 87.67 90.55C87.67 90.52 87.67 90.48 87.65 90.43C87.64 90.38 87.64 90.34 87.67 90.31C87.67 90.28 87.71 90.25 87.79 90.24C87.87 90.22 87.92 90.2 87.92 90.17C87.95 90.14 87.95 90.1 87.92 90.05C87.89 90.01 87.89 89.97 87.92 89.93C87.98 89.87 88.04 89.82 88.1 89.79C88.16 89.76 88.23 89.71 88.29 89.65C88.32 89.62 88.32 89.58 88.29 89.54C88.26 89.49 88.26 89.44 88.29 89.41Q88.62 89.18 89.02 88.78C89.28 88.51 89.55 88.26 89.8 88.01C89.86 87.94 89.9 87.88 89.94 87.82C89.97 87.76 90.01 87.7 90.07 87.63C90.1 87.63 90.14 87.64 90.19 87.66C90.24 87.67 90.28 87.66 90.31 87.63Q90.36 87.59 90.38 87.52C90.4 87.47 90.42 87.42 90.45 87.39C90.48 87.36 90.52 87.36 90.57 87.39C90.61 87.42 90.65 87.42 90.69 87.39L90.69 87.26Q90.74 87.26 90.83 87.28C90.89 87.29 90.92 87.29 90.92 87.26C90.98 87.22 91.11 87.14 91.31 87C91.52 86.86 91.69 86.78 91.82 86.78Q92.05 86.74 92.33 86.5C92.49 86.44 92.67 86.4 92.87 86.38Q93.18 86.36 93.46 86.27C93.49 86.27 93.5 86.25 93.5 86.2C93.5 86.15 93.53 86.13 93.6 86.13C93.76 86.13 93.87 86.12 93.93 86.11C93.99 86.09 94.09 86.05 94.22 85.98Q94.35 85.94 94.49 85.94C94.59 85.94 94.75 85.92 94.96 85.89Q95.2 85.84 95.41 85.84Q95.63 85.84 95.99 85.75Q96.14 85.75 96.23 85.68C96.3 85.64 96.37 85.61 96.46 85.61Q96.66 85.66 96.91 85.66Q97.18 85.66 97.5 85.75C97.5 85.78 97.5 85.8 97.52 85.8Q97.53 85.8 97.54 85.8Q97.55 85.81 97.55 85.84C97.55 85.87 97.57 85.89 97.6 85.89C97.78 85.92 97.99 85.94 98.21 85.94Q98.54 85.94 98.86 85.98C98.89 86.01 98.91 86.05 98.91 86.08Q98.91 86.09 98.91 86.1L98.91 86.1Q98.93 86.13 99.01 86.13C99.2 86.16 99.35 86.18 99.47 86.18C99.6 86.18 99.78 86.21 100 86.27C100.24 86.3 100.48 86.33 100.72 86.36C100.96 86.39 101.14 86.44 101.26 86.5C101.29 86.54 101.35 86.56 101.44 86.58C101.54 86.59 101.61 86.62 101.64 86.65C101.7 86.71 101.76 86.78 101.82 86.88C101.88 86.97 102 87.01 102.16 87.01C102.22 87.01 102.28 87.05 102.34 87.12C102.41 87.18 102.47 87.22 102.53 87.26C102.63 87.29 102.7 87.33 102.76 87.39C102.83 87.42 102.87 87.47 102.9 87.52C102.94 87.56 102.99 87.6 103.05 87.63C103.11 87.7 103.19 87.74 103.28 87.77Q103.52 87.96 103.73 88.2Q103.95 88.43 104.18 88.67C104.34 88.82 104.5 88.95 104.67 89.07C104.84 89.18 104.98 89.29 105.07 89.41C105.07 89.44 105.06 89.49 105.05 89.54C105.03 89.58 105.04 89.62 105.07 89.65L105.16 89.65Q105.17 89.66 105.18 89.67Q105.2 89.72 105.16 89.79Q105.13 89.86 105.15 89.91Q105.15 89.92 105.16 89.93C105.32 90.03 105.48 90.22 105.63 90.5C105.79 90.78 105.94 91.04 106.06 91.29C106.12 91.45 106.18 91.62 106.24 91.8C106.31 91.97 106.37 92.13 106.44 92.28C106.47 92.34 106.5 92.37 106.53 92.35C106.56 92.33 106.57 92.36 106.57 92.43C106.57 92.52 106.61 92.6 106.69 92.66C106.77 92.72 106.8 92.82 106.8 92.95C106.8 93.01 106.82 93.05 106.85 93.06C106.89 93.08 106.92 93.11 106.95 93.18C106.95 93.24 106.94 93.3 106.93 93.37C106.91 93.43 106.92 93.49 106.95 93.55Q107.04 93.89 107.09 94.97C107.12 95.68 107.11 96.31 107.04 96.85L107 96.89C106.97 96.92 106.95 96.96 106.95 96.99C106.95 97.08 106.97 97.2 107 97.36C107.03 97.52 107.01 97.67 106.95 97.83C106.95 97.87 106.93 97.88 106.87 97.88Q106.85 97.88 106.83 97.89Q106.8 97.91 106.8 97.97C106.8 98.09 106.73 98.27 106.57 98.49C106.54 98.52 106.51 98.53 106.48 98.53C106.45 98.53 106.44 98.55 106.44 98.58C106.37 98.67 106.35 98.76 106.37 98.84C106.38 98.92 106.36 99.01 106.29 99.1C106.29 99.16 106.26 99.21 106.2 99.25Q106.15 99.27 106.11 99.3Q106.08 99.34 106.06 99.38Q106 99.44 105.99 99.51Q105.98 99.55 105.99 99.59C106 99.67 105.98 99.75 105.92 99.85C105.92 99.92 105.9 99.94 105.86 99.92C105.83 99.91 105.82 99.93 105.82 99.99C105.79 100.05 105.72 100.18 105.63 100.37C105.54 100.55 105.48 100.73 105.45 100.89C105.42 100.98 105.4 101.06 105.4 101.12Q105.4 101.21 105.3 101.36Q105.25 101.45 105.23 101.45Q105.21 101.45 105.16 101.5C105.13 101.59 105.12 101.68 105.14 101.76C105.15 101.84 105.13 101.92 105.07 102.01C105.04 102.04 105.01 102.05 104.98 102.03C104.95 102.02 104.93 102.06 104.93 102.15C104.93 102.22 104.88 102.29 104.78 102.37C104.69 102.44 104.62 102.53 104.55 102.62C104.42 102.81 104.31 103 104.2 103.19C104.09 103.38 103.96 103.56 103.8 103.76Q103.77 103.8 103.74 103.84Q103.71 103.87 103.66 103.89Q103.61 103.92 103.58 103.95Q103.54 103.99 103.52 104.03C103.52 104.06 103.53 104.1 103.54 104.16C103.56 104.2 103.55 104.24 103.52 104.27L103.43 104.27L103.43 104.5L103.28 104.5C103.28 104.53 103.29 104.58 103.3 104.65C103.32 104.71 103.31 104.76 103.28 104.79L103.14 104.79C103.14 104.82 103.15 104.87 103.17 104.93C103.18 104.99 103.17 105.02 103.14 105.02L103.05 105.02C103.02 105.05 103.01 105.1 103.03 105.17C103.04 105.23 103.05 105.27 103.05 105.31L102.9 105.31L102.9 105.53L102.76 105.53C102.76 105.57 102.77 105.61 102.79 105.68C102.8 105.75 102.79 105.78 102.76 105.78L102.67 105.78C102.64 105.81 102.63 105.85 102.65 105.91C102.66 105.97 102.67 106.02 102.67 106.05L102.53 106.05C102.5 106.08 102.5 106.12 102.53 106.18C102.57 106.22 102.57 106.26 102.53 106.29L102.39 106.29C102.39 106.32 102.39 106.37 102.41 106.43C102.43 106.49 102.42 106.52 102.39 106.52L102.29 106.52C102.26 106.55 102.26 106.6 102.27 106.67C102.29 106.73 102.29 106.78 102.29 106.81C102.14 106.93 102 107.11 101.87 107.35C101.75 107.58 101.64 107.81 101.55 108.02C101.45 108.22 101.35 108.4 101.26 108.58C101.17 108.74 101.09 108.91 101.03 109.07Q101.02 109.08 101.02 109.09Q100.99 109.13 101.03 109.21Q101.07 109.28 101.05 109.29Q101.04 109.3 101.03 109.3L100.88 109.3C100.88 109.33 100.89 109.37 100.91 109.44C100.92 109.5 100.91 109.55 100.88 109.59L100.74 109.59C100.74 109.62 100.75 109.65 100.77 109.7C100.78 109.75 100.78 109.78 100.74 109.81L100.65 109.81C100.62 109.85 100.62 109.89 100.65 109.96Q100.69 110.03 100.67 110.05Q100.66 110.06 100.65 110.06L100.52 110.06C100.52 110.09 100.52 110.13 100.54 110.19C100.55 110.25 100.55 110.3 100.52 110.33C100.39 110.42 100.3 110.53 100.25 110.64C100.21 110.75 100.12 110.9 100 111.09C99.96 111.12 99.93 111.13 99.92 111.11C99.9 111.1 99.9 111.12 99.9 111.18C99.9 111.21 99.88 111.28 99.85 111.38C99.82 111.47 99.79 111.54 99.76 111.6Q99.71 111.65 99.62 111.65C99.56 111.65 99.53 111.67 99.53 111.7Q99.51 111.71 99.5 111.73Q99.48 111.77 99.49 111.83Q99.53 111.93 99.53 111.97C99.49 111.97 99.44 111.96 99.38 111.95C99.32 111.93 99.27 111.94 99.24 111.97L99.15 112.21C99.06 112.27 98.96 112.3 98.86 112.28C98.77 112.27 98.69 112.29 98.63 112.35Q98.63 112.35 98.63 112.35Q98.59 112.36 98.56 112.48C98.55 112.55 98.52 112.59 98.48 112.59C98.45 112.62 98.41 112.62 98.37 112.59C98.32 112.56 98.28 112.56 98.25 112.59L98.12 112.73C98.06 112.79 98.01 112.82 97.97 112.82C97.94 112.85 97.82 112.84 97.61 112.8C97.41 112.75 97.28 112.76 97.22 112.82C97.13 112.95 96.82 113 96.3 112.98Q95.52 112.96 94.96 112.96C94.62 112.96 94.26 112.97 93.88 112.98C93.51 113 93.16 112.95 92.85 112.82Q92.67 112.5 92.47 112.27C92.35 112.11 92.22 111.96 92.09 111.83ZM55.88 93.06C56.12 93.11 56.38 93.16 56.66 93.22C56.82 93.16 57.02 93.03 57.27 92.84C57.36 92.78 57.45 92.71 57.52 92.61C57.61 92.52 57.7 92.44 57.79 92.37C57.94 92.22 58.12 92.07 58.33 91.94Q58.64 91.72 58.91 91.49L59.43 90.97C59.68 90.72 59.84 90.54 59.9 90.45C60.06 90.32 60.24 90.16 60.44 89.96C60.65 89.76 60.73 89.59 60.7 89.46C60.67 89.43 60.64 89.41 60.61 89.41C60.58 89.41 60.57 89.38 60.57 89.32C60.53 89.2 60.5 89.11 60.49 89.07Q60.46 89 60.42 88.85C60.39 88.82 60.37 88.79 60.37 88.76L60.32 88.71C60.1 88.46 59.81 88.23 59.45 88.04C59.09 87.83 58.84 87.63 58.68 87.44C58.65 87.41 58.6 87.41 58.53 87.44Q58.46 87.48 58.42 87.45L58.42 87.45Q58.41 87.45 58.4 87.44C58.34 87.41 58.3 87.37 58.28 87.32C58.27 87.28 58.23 87.24 58.17 87.21C58.04 87.15 57.93 87.1 57.83 87.07C57.74 87.03 57.65 86.98 57.55 86.92Q57.54 86.92 57.54 86.92Q57.5 86.91 57.48 86.83Q57.46 86.74 57.41 86.69C57.35 86.66 57.29 86.64 57.23 86.62C57.16 86.61 57.1 86.59 57.03 86.56C56.94 86.49 56.84 86.44 56.74 86.41C56.65 86.38 56.58 86.34 56.51 86.31Q56.47 86.27 56 86.18C55.94 86.18 55.88 86.16 55.81 86.13C55.75 86.1 55.69 86.08 55.62 86.08Q54.69 85.84 53.44 85.71Q52.19 85.57 51.26 85.8Q50.98 85.87 50.69 85.93L50.69 85.93L50.69 85.93Q50.44 85.98 50.19 86.02Q49.65 86.08 49.33 86.18C49.17 86.24 48.98 86.3 48.76 86.36Q48.44 86.45 48.34 86.56C48.28 86.62 48.19 86.64 48.08 86.62C47.97 86.61 47.89 86.63 47.83 86.69Q47.83 86.7 47.82 86.71Q47.81 86.73 47.73 86.69Q47.65 86.66 47.61 86.68Q47.6 86.68 47.59 86.69Q47.5 86.74 47.45 86.81C47.42 86.85 47.37 86.89 47.3 86.92C47.21 86.98 47.11 87.03 47 87.07Q46.84 87.12 46.69 87.21L46.69 87.3C46.66 87.33 46.62 87.34 46.58 87.32C46.53 87.31 46.49 87.3 46.46 87.3C46.4 87.33 46.35 87.38 46.31 87.45Q46.29 87.5 46.26 87.53Q46.22 87.56 46.18 87.59L46.08 87.59C45.93 87.59 45.84 87.64 45.82 87.75C45.81 87.86 45.72 87.88 45.57 87.82Q45.54 88.02 45.43 88.16L45.43 88.16Q45.36 88.25 45.26 88.31Q45.22 88.34 45.18 88.36L45.18 88.36Q44.97 88.51 44.81 88.71C44.75 88.77 44.71 88.86 44.7 88.98C44.68 89.08 44.64 89.17 44.58 89.23C44.42 89.38 44.28 89.5 44.16 89.58C44.03 89.66 43.96 89.79 43.93 89.99Q43.93 90.04 43.9 90.06Q43.89 90.06 43.87 90.05C43.84 90.04 43.81 90.05 43.78 90.08C43.72 90.17 43.68 90.27 43.66 90.36C43.65 90.46 43.61 90.53 43.55 90.59Q43.31 91.06 43.17 91.11Q43.16 91.11 43.15 91.12Q43.14 91.13 43.17 91.2Q43.21 91.28 43.18 91.32L43.18 91.32Q43.18 91.33 43.17 91.34C43.14 91.41 43.09 91.46 43.03 91.49C42.97 91.52 42.94 91.55 42.94 91.58C42.87 91.67 42.84 91.78 42.86 91.89Q42.88 92.05 42.79 92.24C42.73 92.43 42.67 92.61 42.61 92.79C42.55 92.95 42.48 93.15 42.41 93.36C42.38 93.43 42.36 93.47 42.34 93.49C42.33 93.5 42.31 93.54 42.27 93.6C42.12 94.1 42.06 94.61 42.09 95.15Q42.1 95.3 42.1 95.45Q42.08 96.1 41.8 96.74L39.51 96.74C39.38 96.84 39.26 96.94 39.14 97.03Q38.98 97.17 38.89 97.41C38.51 97.62 38.31 97.87 38.28 98.16Q38.1 98.82 38.3 99.81Q38.52 100.8 38.52 101.45C38.8 101.6 38.97 101.78 39.05 101.99Q39.06 102.01 39.07 102.03L39.07 102.03L39.07 102.03Q39.21 102.31 39.65 102.44C39.93 102.53 40.25 102.54 40.61 102.46C40.97 102.38 41.37 102.38 41.8 102.44C41.9 102.69 41.93 102.99 41.9 103.33C41.87 103.68 41.92 103.96 42.05 104.18C41.79 104.43 41.59 104.68 41.45 104.95C41.31 105.22 41.13 105.48 40.91 105.73C40.66 105.82 40.42 105.93 40.19 106.06Q39.83 106.25 39.65 106.48C39.62 106.51 39.57 106.51 39.52 106.48Q39.48 106.45 39.44 106.45Q39.42 106.46 39.41 106.48C39.31 106.54 39.23 106.63 39.15 106.76C39.08 106.88 38.99 106.99 38.89 107.08Q38.66 107.32 38.56 107.39C38.5 107.44 38.43 107.56 38.37 107.75C38.31 108.03 38.32 108.36 38.4 108.74C38.48 109.11 38.52 109.36 38.52 109.48Q38.52 109.56 38.49 109.62Q38.48 109.64 38.47 109.65Q38.42 109.72 38.37 109.86C38.31 110.2 38.29 110.51 38.3 110.78C38.32 111.05 38.31 111.34 38.28 111.65C38.47 111.93 38.68 112.14 38.89 112.26C39.17 112.79 39.67 113 40.39 112.87C40.96 112.84 41.56 112.8 42.21 112.75C42.85 112.71 43.42 112.67 43.93 112.64Q44.76 112.59 45.46 112.57Q46.18 112.55 46.84 112.5C47.12 112.5 47.39 112.49 47.66 112.48C47.92 112.45 48.2 112.46 48.48 112.5C48.92 112.56 49.32 112.64 49.7 112.73C50.08 112.82 50.48 112.87 50.88 112.87C51.13 112.87 51.44 112.84 51.8 112.78Q52.34 112.68 52.85 112.64C53.17 112.64 53.5 112.65 53.84 112.68L54.87 112.78C55.31 112.81 55.75 112.8 56.21 112.75C56.66 112.71 57.11 112.67 57.55 112.64C58.05 112.61 58.55 112.6 59.05 112.61C59.56 112.63 59.98 112.56 60.32 112.4Q60.32 112.21 60.42 112.12C60.58 112.02 60.71 111.95 60.82 111.9C60.92 111.86 61.01 111.73 61.08 111.51C61.11 111.35 61.1 111.2 61.05 111.04C61 110.88 60.96 110.69 60.93 110.47C60.87 109.94 60.86 109.44 60.89 108.98Q60.93 108.27 60.93 107.46C60.81 107.25 60.64 107.1 60.42 107C60.2 106.9 60.03 106.73 59.9 106.48C59.09 106.54 58.29 106.51 57.5 106.41Q56.76 106.3 56.01 106.3Q55.59 106.3 55.16 106.34C54.78 106.37 54.39 106.44 54 106.56Q53.42 106.72 52.85 106.72C52.69 106.72 52.53 106.7 52.35 106.67Q52.1 106.62 51.87 106.57C51.33 106.54 50.8 106.53 50.26 106.54Q49.47 106.57 48.95 106.48C48.86 106.44 48.76 106.44 48.64 106.45C48.54 106.47 48.48 106.43 48.48 106.34L48.48 102.3L52.99 102.3C53.18 102.02 53.48 101.73 53.89 101.45C53.86 100.82 53.89 100.24 53.98 99.69C54.07 99.14 54.09 98.54 54.02 97.88C53.84 97.72 53.66 97.58 53.49 97.46C53.32 97.33 53.15 97.18 52.99 97.03C52.33 97.03 51.68 97.02 51.02 97.01C50.36 96.99 49.8 96.96 49.33 96.89Q49.09 96.85 48.85 96.82C48.7 96.8 48.57 96.74 48.48 96.65Q48.48 96 48.67 95.46Q48.86 94.92 48.86 94.25C49.14 94.04 49.37 93.78 49.54 93.46C49.71 93.15 49.94 92.87 50.22 92.61C50.56 92.45 50.9 92.32 51.23 92.21C51.56 92.1 51.9 91.99 52.25 91.86C52.25 91.96 52.28 92 52.36 91.98C52.44 91.97 52.52 91.98 52.61 92.01C52.84 92.04 53.1 92.08 53.42 92.14C53.73 92.2 53.93 92.28 54.02 92.37L54.27 92.37C54.3 92.37 54.33 92.41 54.36 92.48Q54.38 92.52 54.41 92.56L54.42 92.56Q54.45 92.59 54.5 92.61C54.56 92.64 54.62 92.64 54.68 92.61C54.75 92.58 54.81 92.58 54.87 92.61C54.9 92.61 54.94 92.65 54.99 92.73Q55.04 92.81 55.11 92.84Q55.14 92.84 55.16 92.84C55.41 92.94 55.65 93.02 55.88 93.06ZM66.55 85.96Q65.96 85.98 65.31 85.84Q64.98 86.08 64.62 86.39C64.39 86.59 64.24 86.86 64.18 87.21C64.02 87.81 64 88.48 64.13 89.23C64.26 89.98 64.28 90.68 64.18 91.34C64.21 91.5 64.28 91.61 64.39 91.67C64.5 91.73 64.58 91.84 64.65 92.01C64.78 92.1 64.87 92.22 64.93 92.36C64.99 92.5 65.12 92.58 65.31 92.61C65.5 92.55 65.71 92.51 65.94 92.48C66.18 92.45 66.34 92.41 66.43 92.37L66.67 92.37C66.89 92.31 67.01 92.28 67.04 92.28C67.08 92.28 67.13 92.31 67.19 92.37C67.22 92.41 67.3 92.42 67.42 92.41C67.55 92.38 67.64 92.37 67.71 92.37C67.99 92.44 68.25 92.5 68.47 92.54Q68.83 92.61 69.3 92.61C69.46 92.61 69.6 92.6 69.7 92.57C69.81 92.54 69.94 92.52 70.1 92.52C70.45 92.46 70.78 92.44 71.09 92.45C71.4 92.47 71.73 92.49 72.08 92.52C72.2 92.52 72.35 92.51 72.51 92.48C72.69 92.45 72.84 92.49 72.97 92.61C72.78 93.33 72.52 94.01 72.19 94.63C71.86 95.26 71.54 95.89 71.23 96.52C71.2 96.58 71.17 96.63 71.14 96.68C71.11 96.72 71.09 96.76 71.09 96.79C71.09 96.92 71.05 97.02 70.96 97.08C70.89 97.14 70.85 97.2 70.85 97.26C70.82 97.39 70.77 97.49 70.69 97.55C70.61 97.61 70.57 97.69 70.57 97.78C70.57 97.91 70.53 98 70.45 98.06C70.37 98.13 70.33 98.21 70.33 98.31C70.33 98.37 70.32 98.39 70.29 98.37C70.26 98.36 70.23 98.38 70.2 98.44C70.13 98.5 70.11 98.58 70.13 98.68C70.14 98.78 70.13 98.85 70.1 98.91L69.96 98.91Q69.95 98.92 69.94 98.93Q69.92 98.98 69.96 99.05Q70 99.12 69.98 99.16Q69.97 99.18 69.96 99.19C69.89 99.26 69.84 99.3 69.79 99.31C69.75 99.33 69.71 99.37 69.68 99.43C69.68 99.58 69.6 99.74 69.44 99.9Q69.31 100.03 69.28 100.18L69.28 100.18Q69.26 100.29 69.3 100.42C69.49 100.48 69.66 100.59 69.79 100.75C69.94 100.9 70.12 101.01 70.33 101.07C70.46 101.1 70.61 101.1 70.76 101.07C70.92 101.04 71.08 101.04 71.23 101.07C71.86 101.13 72.51 101.2 73.18 101.27C73.85 101.33 74.46 101.43 74.99 101.59C75.34 101.87 75.61 102.2 75.81 102.57Q76.12 103.14 76.5 103.71C76.37 103.99 76.28 104.27 76.23 104.57C76.19 104.87 76.15 105.17 76.12 105.49C75.96 105.49 75.89 105.57 75.89 105.73C75.89 105.79 75.87 105.81 75.83 105.8C75.8 105.78 75.77 105.81 75.74 105.87C75.59 106.02 75.43 106.19 75.27 106.38C75.11 106.57 74.97 106.73 74.84 106.85C74.72 106.98 74.54 107.04 74.3 107.04Q73.96 107.04 73.72 107.08Q73.67 107.1 73.62 107.12Q73.24 107.23 72.82 107.23C72.67 107.23 72.48 107.19 72.26 107.12C72.04 107.03 71.9 106.99 71.84 106.99C71.78 106.96 71.73 106.95 71.7 106.97C71.67 106.98 71.64 106.99 71.61 106.99C71.16 106.87 70.71 106.74 70.24 106.6C69.78 106.46 69.34 106.34 68.92 106.25L68.52 106.09C68.41 106.03 68.27 105.99 68.08 105.96Q68 105.96 67.98 105.93L67.98 105.93Q67.98 105.92 67.98 105.91C67.98 105.88 67.97 105.87 67.94 105.87C67.69 105.81 67.48 105.76 67.3 105.73C67.14 105.7 67.02 105.65 66.95 105.58Q66.87 105.53 66.79 105.51Q66.57 105.45 66.29 105.58C66.13 105.65 66.02 105.74 65.94 105.84C65.86 105.95 65.78 106.04 65.69 106.1C65.66 106.14 65.65 106.18 65.66 106.22C65.68 106.27 65.69 106.31 65.69 106.34L65.31 106.72C65.25 106.81 65.2 106.9 65.17 107C65.14 107.1 65.09 107.17 65.02 107.23C64.81 107.58 64.57 107.94 64.32 108.33C64.07 108.72 64.05 109.03 64.28 109.25C64.34 109.31 64.34 109.4 64.3 109.52C64.25 109.62 64.24 109.71 64.28 109.77C64.34 109.86 64.4 109.93 64.46 109.99C64.52 110.03 64.58 110.09 64.65 110.15C64.71 110.18 64.81 110.25 64.93 110.38Q64.93 110.39 64.93 110.39Q64.95 110.41 65.02 110.38C65.09 110.35 65.14 110.35 65.17 110.38C65.26 110.44 65.33 110.5 65.38 110.57C65.42 110.63 65.48 110.69 65.54 110.76Q65.69 110.85 65.85 110.89C65.95 110.92 66.06 110.97 66.16 111.04C66.22 111.04 66.25 111.07 66.25 111.13Q66.25 111.23 66.29 111.27L66.48 111.36C66.51 111.39 66.57 111.41 66.67 111.41C66.73 111.41 66.76 111.43 66.76 111.47C66.76 111.5 66.78 111.51 66.81 111.51C67.03 111.6 67.2 111.68 67.33 111.74C67.45 111.8 67.58 111.9 67.71 112.03L67.71 112.03Q67.71 112.08 67.87 112.1C67.98 112.11 68.05 112.14 68.08 112.17C68.24 112.26 68.41 112.33 68.61 112.37Q68.92 112.44 69.3 112.55C69.52 112.61 69.72 112.67 69.89 112.73C70.06 112.79 70.26 112.85 70.48 112.91Q70.85 113.02 71.34 113.02L72.22 113.02C72.47 113.05 72.62 113.08 72.66 113.11C72.71 113.14 72.76 113.11 72.82 113.02C72.89 112.98 72.98 112.97 73.09 113C73.19 113.04 73.28 113.05 73.34 113.02C73.94 112.95 74.55 112.86 75.18 112.75C75.8 112.64 76.33 112.53 76.77 112.4C77.12 112.3 77.32 112.23 77.39 112.17C77.42 112.14 77.46 112.13 77.51 112.14C77.55 112.16 77.59 112.17 77.62 112.17L77.62 112.03C77.65 111.99 77.7 111.98 77.76 112.01C77.83 112.02 77.88 112.03 77.91 112.03L77.91 111.88C77.91 111.85 77.94 111.85 78 111.88Q78.07 111.92 78.12 111.89L78.12 111.89Q78.13 111.89 78.14 111.88L78.14 111.79C78.17 111.76 78.21 111.75 78.25 111.77C78.3 111.78 78.35 111.79 78.38 111.79L78.38 111.65C78.41 111.62 78.45 111.61 78.51 111.63Q78.61 111.65 78.65 111.65L78.65 111.51C78.65 111.47 78.68 111.47 78.74 111.51C78.81 111.54 78.86 111.54 78.89 111.51L78.89 111.41L79.12 111.41L79.12 111.27C79.15 111.24 79.2 111.23 79.26 111.25C79.33 111.26 79.38 111.27 79.41 111.27C79.47 111.24 79.51 111.2 79.52 111.13C79.54 111.07 79.58 111.04 79.64 111.04C79.77 111 79.85 110.94 79.88 110.85C79.91 110.76 79.96 110.68 80.02 110.62Q80.06 110.62 80.16 110.64C80.22 110.66 80.27 110.65 80.31 110.62C80.37 110.59 80.43 110.53 80.49 110.46C80.55 110.37 80.61 110.3 80.67 110.24C80.74 110.18 80.82 110.14 80.91 110.12C81.01 110.11 81.08 110.07 81.14 110C81.14 109.85 81.18 109.73 81.26 109.65L81.43 109.48Q81.44 109.48 81.45 109.48Q81.46 109.46 81.43 109.39Q81.39 109.32 81.41 109.27Q81.42 109.26 81.43 109.25C81.49 109.16 81.56 109.08 81.64 109.02C81.72 108.95 81.78 108.86 81.81 108.74C81.81 108.61 81.85 108.51 81.92 108.45C82 108.39 82.04 108.33 82.04 108.27C82.04 108.2 82.05 108.17 82.08 108.17C82.11 108.17 82.14 108.16 82.18 108.13C82.24 107.97 82.31 107.79 82.37 107.59C82.43 107.38 82.49 107.18 82.55 106.99C82.62 106.78 82.68 106.59 82.74 106.42C82.81 106.24 82.87 106.06 82.93 105.87C82.96 105.75 82.96 105.64 82.93 105.55C82.9 105.45 82.9 105.34 82.93 105.21C82.93 105.08 82.95 104.97 82.98 104.88C83.01 104.79 83.04 104.69 83.07 104.59C83.1 104.19 83.09 103.77 83.05 103.33C83 102.89 82.96 102.51 82.93 102.2C82.9 101.95 82.89 101.76 82.89 101.62C82.89 101.48 82.86 101.37 82.8 101.31Q82.78 101.31 82.78 101.31Q82.76 101.29 82.8 101.22C82.83 101.15 82.83 101.1 82.8 101.07C82.73 100.92 82.67 100.81 82.62 100.75C82.58 100.68 82.55 100.57 82.55 100.42C82.55 100.36 82.54 100.33 82.51 100.35C82.48 100.36 82.45 100.36 82.42 100.33C82.36 100.16 82.32 100.03 82.3 99.92C82.29 99.82 82.24 99.73 82.18 99.66C82.14 99.66 82.14 99.63 82.15 99.57C82.17 99.51 82.18 99.46 82.18 99.43L82.04 99.43C82.01 99.4 82.01 99.36 82.04 99.31C82.07 99.26 82.07 99.22 82.04 99.19C82.01 99.13 81.95 99.07 81.88 99.01C81.8 98.94 81.73 98.88 81.66 98.82C81.51 98.63 81.37 98.49 81.26 98.4Q81.1 98.25 80.91 98.02L80.72 97.73C80.69 97.7 80.67 97.64 80.67 97.55C80.61 97.49 80.52 97.46 80.41 97.48C80.3 97.49 80.22 97.47 80.16 97.41L80.16 97.26C80.13 97.26 80.09 97.27 80.04 97.3C80 97.31 79.96 97.3 79.93 97.26C79.87 97.23 79.83 97.19 79.83 97.15C79.83 97.1 79.82 97.06 79.79 97.03Q79.55 96.89 79.24 96.82C79.04 96.77 78.87 96.67 78.74 96.52C79.09 95.7 79.43 94.89 79.75 94.09C80.08 93.29 80.42 92.5 80.78 91.72L81.33 90.48C81.55 89.99 81.79 89.65 82.04 89.46C82.07 89.46 82.08 89.43 82.06 89.37C82.05 89.31 82.04 89.26 82.04 89.23L82.18 89.23Q82.19 89.22 82.2 89.2Q82.22 89.16 82.18 89.09Q82.14 89.02 82.16 89Q82.16 89 82.18 89C82.18 88.93 82.21 88.9 82.27 88.9C82.34 88.9 82.39 88.88 82.42 88.85C82.48 88.79 82.51 88.73 82.51 88.67C82.51 88.61 82.52 88.54 82.55 88.47L82.69 88.47C82.69 88.44 82.68 88.39 82.67 88.33C82.65 88.27 82.66 88.23 82.69 88.2C82.69 88.17 82.72 88.13 82.78 88.1C82.85 88.07 82.9 88.02 82.93 87.96C83.09 87.74 83.16 87.54 83.16 87.35Q83.04 86.98 82.79 86.75L82.79 86.75Q82.75 86.72 82.71 86.69C82.52 86.53 82.34 86.33 82.18 86.08C81.55 86.02 80.94 86.02 80.34 86.08Q79.46 86.18 78.51 86.22C77.64 86.22 76.77 86.17 75.92 86.06Q74.66 85.89 73.34 85.84C72.84 85.81 72.36 85.81 71.91 85.84C71.45 85.87 70.98 85.9 70.48 85.94Q69.82 85.98 69.13 85.96C68.68 85.94 68.23 85.94 67.8 85.94C67.36 85.94 66.94 85.94 66.55 85.96ZM112 85.94C111.83 86 111.71 85.97 111.65 85.84C111.52 85.81 111.47 85.86 111.49 85.97Q111.5 86.09 111.45 86.18Q111.44 86.2 111.42 86.22C111.26 86.38 111.09 86.52 110.91 86.65C110.74 86.77 110.61 86.96 110.52 87.21Q110.48 87.39 110.52 87.73Q110.57 88.06 110.52 88.33C110.52 88.52 110.51 88.71 110.48 88.88C110.44 89.05 110.43 89.21 110.43 89.37C110.43 89.47 110.44 89.54 110.48 89.58C110.51 89.63 110.52 89.68 110.52 89.75C110.55 89.81 110.56 89.89 110.54 89.99C110.53 90.08 110.52 90.15 110.52 90.22C110.61 90.93 110.65 91.64 110.64 92.33C110.62 93.02 110.58 93.74 110.52 94.5Q110.48 95.86 110.45 97.27Q110.43 98.67 110.52 99.66C110.58 99.97 110.63 100.29 110.66 100.6C110.69 100.91 110.74 101.15 110.81 101.31C110.81 101.34 110.84 101.37 110.9 101.38Q110.99 101.4 111.04 101.45C111.1 101.51 111.12 101.58 111.11 101.64C111.09 101.71 111.11 101.77 111.18 101.83C111.21 101.89 111.27 101.93 111.36 101.94C111.46 101.96 111.48 102.04 111.42 102.2C111.82 102.2 112.2 102.19 112.54 102.17C112.88 102.16 113.23 102.16 113.57 102.2Q113.95 102.2 114.3 102.28C114.53 102.32 114.79 102.34 115.08 102.34C115.49 102.28 115.87 102.19 116.21 102.06C116.5 102.03 116.7 101.95 116.82 101.83C116.85 101.8 116.91 101.79 117 101.81C117.1 101.82 117.17 101.83 117.2 101.83C117.26 101.83 117.29 101.81 117.29 101.76C117.29 101.71 117.31 101.68 117.34 101.68C117.43 101.65 117.52 101.63 117.61 101.63C117.71 101.63 117.82 101.62 117.95 101.59L118.98 101.31C119.32 101.21 119.62 101.16 119.87 101.16C120.28 101.19 120.66 101.3 121.02 101.5C121.39 101.69 121.8 101.8 122.27 101.83C122.3 102.26 122.44 102.68 122.67 103.07C122.91 103.46 123.03 103.84 123.03 104.23C122.99 104.29 122.96 104.31 122.95 104.3C122.93 104.28 122.91 104.29 122.88 104.32C122.82 104.47 122.77 104.64 122.74 104.81C122.71 104.98 122.68 105.11 122.65 105.21L122.51 105.21Q122.5 105.23 122.49 105.24Q122.46 105.29 122.48 105.35Q122.51 105.44 122.51 105.49C122.44 105.65 122.38 105.79 122.32 105.91C122.26 106.04 122.19 106.18 122.13 106.34C121.73 106.49 121.31 106.66 120.88 106.83C120.46 107 120.03 107.18 119.6 107.37C119.5 107.28 119.39 107.22 119.29 107.19Q119.13 107.14 118.98 107.08C118.79 107.05 118.59 107.02 118.37 106.99C118.15 106.96 118.01 106.92 117.95 106.85C117.82 106.79 117.73 106.71 117.66 106.6C117.6 106.49 117.54 106.4 117.47 106.34C117.44 106.34 117.41 106.35 117.36 106.36C117.31 106.38 117.26 106.37 117.2 106.34C117.17 106.31 117.15 106.28 117.15 106.25C117.12 106.22 117.1 106.17 117.1 106.1C116.88 105.91 116.68 105.76 116.49 105.64C116.3 105.51 116.09 105.37 115.83 105.21C115.8 105.21 115.79 105.2 115.79 105.17C115.79 105.13 115.76 105.11 115.7 105.11C115.63 105.05 115.59 105 115.57 104.97C115.55 104.94 115.52 104.9 115.46 104.83Q115.45 104.83 115.43 104.82Q115.39 104.8 115.32 104.83Q115.24 104.87 115.2 104.85Q115.19 104.84 115.18 104.83L115.18 104.74C115.18 104.71 115.15 104.7 115.08 104.72C115.02 104.74 114.97 104.74 114.94 104.74C114.34 104.58 113.77 104.57 113.22 104.7C112.67 104.82 112.2 104.91 111.79 104.97C111.63 105 111.46 105 111.27 104.95C111.08 104.9 110.96 104.99 110.9 105.21C110.74 105.31 110.61 105.44 110.52 105.61Q110.38 105.87 110.14 106.1C110.27 106.23 110.34 106.37 110.34 106.53C110.34 106.69 110.37 106.84 110.43 106.99C110.46 107.15 110.51 107.34 110.59 107.57C110.67 107.78 110.74 107.92 110.81 107.98C110.81 108.01 110.8 108.06 110.79 108.13C110.77 108.19 110.78 108.24 110.81 108.27L110.9 108.27C110.93 108.27 110.94 108.3 110.92 108.36C110.91 108.42 110.9 108.46 110.9 108.5C110.96 108.56 111.03 108.63 111.11 108.69C111.18 108.75 111.24 108.81 111.28 108.87C111.34 108.93 111.39 108.97 111.42 108.99C111.45 109 111.49 109.05 111.55 109.11Q111.56 109.12 111.57 109.13Q111.59 109.18 111.55 109.25Q111.52 109.33 111.54 109.37Q111.54 109.38 111.55 109.39C111.58 109.42 111.62 109.44 111.67 109.44C111.72 109.44 111.76 109.45 111.79 109.48C111.86 109.55 111.88 109.62 111.86 109.68C111.85 109.74 111.87 109.8 111.93 109.86C112.02 109.99 112.13 110.11 112.25 110.22C112.38 110.32 112.53 110.46 112.68 110.62C112.75 110.68 112.81 110.75 112.87 110.82C112.93 110.9 113 110.97 113.06 111.04C113.22 111.2 113.34 111.34 113.44 111.47C113.53 111.59 113.65 111.65 113.81 111.65Q113.96 111.65 114.04 111.72Q114.07 111.74 114.09 111.77C114.16 111.84 114.24 111.88 114.33 111.88C114.45 111.91 114.54 111.96 114.61 112.03C114.67 112.09 114.74 112.14 114.8 112.17Q114.94 112.17 115.03 112.24Q115.06 112.26 115.08 112.28C115.15 112.36 115.23 112.4 115.32 112.4C115.38 112.4 115.41 112.42 115.41 112.45C115.41 112.48 115.42 112.52 115.46 112.55C115.62 112.61 115.78 112.63 115.95 112.61C116.12 112.6 116.29 112.61 116.44 112.64C116.47 112.64 116.49 112.66 116.49 112.71C116.49 112.75 116.52 112.78 116.58 112.78C117.05 112.94 117.71 113 118.55 112.96C119.4 112.93 120.09 112.91 120.63 112.91C120.66 112.91 120.69 112.89 120.72 112.84Q120.75 112.8 120.74 112.78Q120.74 112.78 120.72 112.78C121.04 112.74 121.31 112.73 121.56 112.73C121.81 112.73 122 112.7 122.13 112.64C122.32 112.58 122.52 112.55 122.74 112.55C122.8 112.55 122.83 112.52 122.83 112.48C122.83 112.42 122.85 112.4 122.88 112.4C123.07 112.34 123.27 112.3 123.46 112.28C123.67 112.27 123.85 112.23 124.02 112.17C124.05 112.14 124.06 112.11 124.06 112.1C124.06 112.08 124.09 112.06 124.15 112.03L124.24 112.03C124.31 112.03 124.34 112.01 124.34 111.98C124.34 111.94 124.35 111.91 124.38 111.88Q124.62 111.79 124.83 111.74C124.98 111.71 125.08 111.68 125.14 111.65C125.29 111.59 125.44 111.54 125.58 111.49C125.72 111.44 125.87 111.41 126.03 111.41C126.22 111.1 126.45 110.82 126.73 110.59C127.02 110.36 127.29 110.11 127.54 109.86C127.63 109.77 127.73 109.64 127.84 109.47C127.95 109.29 128.07 109.14 128.19 109.01C128.32 108.83 128.46 108.64 128.62 108.46C128.77 108.27 128.88 108.08 128.95 107.89C128.98 107.76 129.02 107.65 129.06 107.54C129.11 107.43 129.15 107.32 129.18 107.23Q129.27 106.99 129.32 106.85C129.35 106.76 129.39 106.69 129.42 106.62L129.42 106.48C129.42 106.41 129.44 106.38 129.49 106.38Q129.54 106.38 129.55 106.36Q129.56 106.35 129.56 106.34C129.62 106.18 129.65 106 129.65 105.8C129.65 105.59 129.66 105.4 129.7 105.21C129.76 104.71 129.79 104.29 129.79 103.96C129.79 103.63 129.76 103.25 129.7 102.82C129.66 102.59 129.65 102.38 129.65 102.18C129.65 101.98 129.62 101.78 129.56 101.59C129.53 101.5 129.49 101.4 129.44 101.31C129.4 101.21 129.35 101.13 129.32 101.07C129.25 100.98 129.22 100.89 129.22 100.82C129.22 100.73 129.21 100.65 129.18 100.55C129.15 100.4 129.08 100.25 128.98 100.1C128.89 99.93 128.83 99.84 128.8 99.81C128.77 99.78 128.76 99.74 128.78 99.69C128.79 99.64 128.8 99.6 128.8 99.57C128.77 99.51 128.73 99.46 128.69 99.43C128.64 99.4 128.6 99.35 128.57 99.29L128.57 99.19C128.54 99.1 128.44 98.97 128.28 98.82C128.1 98.54 127.92 98.28 127.74 98.04C127.58 97.8 127.43 97.54 127.3 97.26C127.08 97.23 126.86 97.13 126.62 96.96Q126.26 96.7 126.17 96.52Q126.16 96.51 126.15 96.5Q126.11 96.48 126.03 96.52C125.97 96.55 125.92 96.55 125.89 96.52C125.85 96.48 125.82 96.45 125.79 96.4C125.76 96.35 125.72 96.3 125.66 96.27C125.56 96.21 125.47 96.17 125.37 96.14C125.28 96.11 125.2 96.08 125.14 96.04Q125 95.91 124.62 95.91C124.56 95.91 124.53 95.89 124.53 95.86L124.53 95.76Q124.15 95.67 123.77 95.62C123.52 95.59 123.35 95.51 123.26 95.39L122.88 95.39C122.82 95.39 122.79 95.38 122.79 95.34C122.79 95.31 122.77 95.29 122.74 95.29C122.65 95.26 122.55 95.25 122.43 95.26C122.32 95.28 122.23 95.29 122.13 95.29C122 95.26 121.9 95.23 121.82 95.2C121.75 95.16 121.68 95.15 121.62 95.15C121.17 95.09 120.82 95.06 120.55 95.06C120.29 95.06 120.02 95.09 119.74 95.15C119.33 95.21 118.94 95.26 118.55 95.29C118.18 95.32 117.77 95.35 117.34 95.39C117.4 94.82 117.38 94.32 117.29 93.89C117.2 93.44 117.17 92.94 117.2 92.37C119.01 92.44 120.74 92.44 122.39 92.36C124.03 92.28 125.7 92.28 127.4 92.37Q127.54 92.12 127.76 91.97Q127.82 91.93 127.88 91.89C128.09 91.78 128.27 91.64 128.43 91.49C128.43 90.7 128.42 89.93 128.41 89.18C128.39 88.43 128.35 87.7 128.28 86.97Q128.01 86.74 127.77 86.49C127.61 86.31 127.46 86.13 127.3 85.94C125.77 85.84 124.21 85.87 122.63 86.02C121.04 86.15 119.45 86.18 117.85 86.08Q117.62 86.08 117.41 86.04Q117.2 85.98 116.96 85.94Q116.44 85.84 116.13 85.87C115.93 85.88 115.71 85.9 115.46 85.94C115.39 85.97 115.33 85.97 115.27 85.96C115.21 85.94 115.15 85.94 115.08 85.94C115.02 85.94 114.98 85.97 114.98 86.03L114.94 86.08C114.56 86.15 114.26 86.17 114.02 86.15Q113.67 86.13 113.3 86.08Q112.74 85.98 112.54 85.94C112.36 85.87 112.18 85.87 112 85.94ZM99.9 93.69C99.65 93.54 99.42 93.37 99.22 93.18C99.01 92.98 98.86 92.83 98.77 92.71C98.74 92.67 98.69 92.67 98.63 92.68C98.57 92.7 98.52 92.71 98.48 92.71C98.45 92.67 98.44 92.63 98.44 92.57C98.44 92.51 98.42 92.46 98.39 92.43Q98.3 92.37 98.01 92.37Q97.74 92.37 97.5 92.28Q97.5 92.28 97.5 92.28C97.34 92.25 97.19 92.21 97.03 92.17C96.87 92.12 96.74 92.08 96.61 92.05C96.51 92.02 96.44 92.03 96.4 92.07C96.35 92.12 96.3 92.16 96.23 92.19C95.98 92.25 95.74 92.3 95.5 92.33C95.27 92.36 95.09 92.39 94.96 92.43C94.81 92.49 94.72 92.53 94.71 92.54C94.69 92.56 94.66 92.61 94.59 92.71C94.56 92.71 94.51 92.7 94.47 92.68C94.42 92.67 94.38 92.67 94.35 92.71Q94.35 92.71 94.34 92.71Q94.3 92.72 94.28 92.8C94.27 92.86 94.25 92.91 94.22 92.95C94.18 92.98 94.14 92.98 94.09 92.95C94.04 92.91 94 92.91 93.97 92.95C93.82 93.04 93.7 93.16 93.6 93.3C93.5 93.44 93.38 93.52 93.23 93.55Q93.23 94.12 93.13 94.56C93.06 94.86 93 95.15 92.94 95.44C93 95.5 93.06 95.59 93.1 95.72C93.16 95.85 93.2 95.92 93.23 95.95L93.23 96.09C93.23 96.15 93.24 96.18 93.27 96.18C93.3 96.18 93.32 96.2 93.32 96.23C93.38 96.39 93.42 96.56 93.43 96.73C93.45 96.9 93.5 97.06 93.6 97.22C93.63 97.28 93.71 97.36 93.81 97.46C93.92 97.55 94 97.64 94.07 97.73C94.29 97.92 94.46 98.06 94.58 98.13C94.71 98.21 94.89 98.28 95.11 98.35C95.17 98.38 95.23 98.41 95.27 98.44Q95.34 98.49 95.48 98.49Q95.56 98.49 95.58 98.52Q95.58 98.53 95.58 98.53C95.58 98.57 95.6 98.58 95.63 98.58C95.78 98.64 95.96 98.68 96.15 98.7C96.36 98.71 96.56 98.77 96.75 98.87C96.9 98.71 97.08 98.6 97.29 98.53C97.5 98.47 97.69 98.41 97.88 98.35C98.1 98.25 98.3 98.16 98.48 98.06C98.67 97.97 98.9 97.9 99.15 97.83C99.4 97.42 99.65 97.02 99.9 96.63Q100.27 96.04 100.52 95.33Q100.41 94.87 100.21 94.54Q100 94.21 99.9 93.69Z" fill="#D3004C" fill-opacity="1.000000" fill-rule="evenodd"/>
	</g>
	<g style="mix-blend-mode:normal">
		<path id="FROM" d="M103.97 68.35C103.91 68.33 103.86 68.28 103.83 68.21C103.61 68.22 103.44 68.29 103.32 68.42Q103.15 68.61 103.02 68.74Q102.6 69.18 102.19 69.62C101.92 69.91 101.65 70.17 101.37 70.39Q101.36 70.39 101.36 70.4Q101.35 70.42 101.37 70.45Q101.38 70.49 101.37 70.51Q101.37 70.51 101.37 70.52L101.19 70.7C101.15 70.72 101.1 70.74 101.06 70.75C101.02 70.76 100.98 70.78 100.95 70.81C100.8 70.96 100.64 71.12 100.45 71.31Q100.18 71.6 100 71.82C99.99 71.83 99.97 71.83 99.95 71.82C99.93 71.8 99.91 71.8 99.89 71.82C99.82 71.88 99.77 71.95 99.74 72.02C99.71 72.09 99.66 72.15 99.58 72.22L99.3 72.5C99.18 72.62 99.04 72.74 98.88 72.88C98.85 72.91 98.83 72.93 98.8 72.96C98.78 72.99 98.75 73.02 98.71 73.05C98.68 73.08 98.63 73.1 98.58 73.11C98.53 73.11 98.49 73.13 98.47 73.16Q98.31 73.3 98.24 73.42Q98.19 73.52 98.13 73.52Q98.12 73.52 98.11 73.52Q98.09 73.49 98.08 73.47C98.07 73.45 98.06 73.44 98.05 73.42C98.01 73.4 97.99 73.38 97.98 73.37C97.96 73.36 97.95 73.35 97.93 73.34Q97.9 73.34 97.9 73.33Q97.9 73.33 97.9 73.33C97.91 73.32 97.91 73.31 97.89 73.3C97.8 73.23 97.72 73.16 97.64 73.08C97.57 72.99 97.52 72.92 97.47 72.88C97.4 72.8 97.32 72.74 97.24 72.68C97.16 72.62 97.12 72.56 97.12 72.52C97.12 72.49 97.11 72.48 97.1 72.49C97.08 72.5 97.07 72.49 97.05 72.46C96.98 72.34 96.89 72.24 96.79 72.16C96.69 72.08 96.6 72 96.53 71.93C96.51 71.92 96.51 71.9 96.53 71.88C96.54 71.85 96.54 71.83 96.53 71.82C96.46 71.75 96.35 71.66 96.21 71.56C96.07 71.45 96 71.36 96 71.29C96 71.26 95.99 71.25 95.98 71.25Q95.96 71.25 95.93 71.23C95.86 71.12 95.78 71.05 95.7 71C95.62 70.94 95.54 70.88 95.47 70.81C95.35 70.69 95.24 70.57 95.14 70.45C95.04 70.34 94.93 70.22 94.81 70.1Q94.77 70.04 94.7 70C94.66 69.98 94.64 69.96 94.64 69.93C94.64 69.9 94.63 69.89 94.61 69.9C94.6 69.9 94.59 69.89 94.59 69.86Q94.42 69.62 94.21 69.44Q94 69.27 93.82 69.09C93.69 68.99 93.57 68.87 93.47 68.74C93.35 68.62 93.23 68.51 93.11 68.4C92.98 68.29 92.84 68.21 92.7 68.17Q92.7 68.1 92.67 68.09Q92.66 68.08 92.63 68.1Q92.56 68.14 92.49 68.18Q92.44 68.22 92.39 68.27C92.32 68.33 92.25 68.39 92.17 68.45C92.19 68.95 92.18 69.45 92.15 69.95C92.12 70.45 92.13 70.91 92.17 71.33C92.17 71.39 92.18 71.44 92.19 71.49C92.21 71.53 92.21 71.58 92.21 71.64C92.21 71.72 92.2 71.82 92.17 71.96C92.14 72.1 92.12 72.19 92.11 72.22C92.06 72.38 92.04 72.51 92.06 72.62C92.08 72.73 92.09 72.84 92.11 72.94L92.11 73.23C92.14 73.73 92.15 74.29 92.15 74.92C92.15 75.55 92.14 76.09 92.11 76.53Q92.02 77.54 92.11 78.35C92.12 78.63 92.13 78.9 92.13 79.18C92.13 79.45 92.14 79.72 92.17 80C92.33 80.22 92.54 80.44 92.81 80.66C93.45 80.62 94.05 80.68 94.59 80.84C94.66 80.68 94.77 80.54 94.92 80.42C95.07 80.3 95.17 80.15 95.23 79.96C95.26 79.89 95.26 79.79 95.24 79.69C95.22 79.58 95.21 79.47 95.23 79.36C95.23 79.32 95.23 79.29 95.25 79.26C95.27 79.23 95.28 79.18 95.3 79.12L95.3 78.77C95.3 78.62 95.29 78.48 95.27 78.34C95.26 78.2 95.24 78.05 95.23 77.89C95.23 77.82 95.23 77.74 95.24 77.66C95.24 77.58 95.24 77.5 95.23 77.41C95.21 77.32 95.2 77.24 95.18 77.17C95.17 77.09 95.16 77.02 95.16 76.94C95.19 76.62 95.24 76.36 95.3 76.17C95.3 76.15 95.29 76.11 95.29 76.07C95.28 76.02 95.28 75.98 95.3 75.93C95.3 75.92 95.3 75.9 95.32 75.89C95.33 75.88 95.34 75.88 95.34 75.89C95.34 75.83 95.33 75.79 95.32 75.77C95.3 75.74 95.3 75.71 95.3 75.65C95.26 75.49 95.25 75.34 95.26 75.21C95.27 75.08 95.26 74.94 95.23 74.81C95.37 74.93 95.5 75.05 95.6 75.18C95.71 75.3 95.82 75.42 95.93 75.54C96.05 75.65 96.17 75.76 96.29 75.87C96.4 75.97 96.52 76.09 96.64 76.24C96.68 76.29 96.74 76.34 96.8 76.39C96.87 76.45 96.93 76.52 96.99 76.59Q97.03 76.64 97.05 76.71C97.07 76.75 97.09 76.79 97.12 76.83C97.15 76.86 97.18 76.89 97.21 76.91C97.24 76.93 97.27 76.97 97.29 77.01Q97.34 77.06 97.38 77.08Q97.41 77.1 97.47 77.19L97.65 77.36Q97.71 77.43 97.75 77.47Q97.78 77.52 97.89 77.54Q97.92 77.54 97.92 77.55Q97.93 77.55 97.92 77.56C97.92 77.57 97.92 77.58 97.93 77.58C98.1 77.67 98.2 77.68 98.26 77.6C98.32 77.52 98.41 77.41 98.53 77.3C98.69 77.14 98.86 76.99 99.02 76.85C99.19 76.71 99.34 76.56 99.48 76.42C99.5 76.39 99.51 76.36 99.51 76.33C99.5 76.3 99.51 76.27 99.54 76.24C99.6 76.17 99.67 76.11 99.74 76.06C99.81 76 99.88 75.96 99.94 75.93Q99.95 75.93 99.95 75.93Q99.96 75.92 99.97 75.91C99.98 75.9 99.99 75.89 100 75.89Q100.14 75.78 100.18 75.71C100.19 75.7 100.21 75.69 100.23 75.7C100.25 75.71 100.27 75.71 100.29 75.71C100.3 75.7 100.32 75.68 100.32 75.65Q100.34 75.6 100.36 75.58Q100.36 75.58 100.37 75.57Q100.39 75.56 100.42 75.58Q100.46 75.6 100.48 75.59Q100.48 75.59 100.49 75.58C100.53 75.54 100.58 75.47 100.62 75.4C100.66 75.31 100.71 75.24 100.78 75.16C100.8 75.14 100.83 75.11 100.86 75.09C100.89 75.06 100.92 75.03 100.95 74.99C100.96 74.97 100.98 74.94 101.01 74.88C101.04 74.82 101.08 74.82 101.12 74.87L101.12 77.47C101.12 77.94 101.13 78.39 101.14 78.81C101.14 79.22 101.12 79.64 101.06 80.07C101.16 80.13 101.28 80.25 101.41 80.42C101.48 80.47 101.55 80.52 101.6 80.58C101.65 80.64 101.73 80.68 101.83 80.71Q102.14 80.81 102.6 80.74C102.91 80.69 103.19 80.68 103.43 80.71Q103.44 80.68 103.46 80.66Q103.49 80.64 103.53 80.64C103.58 80.64 103.63 80.63 103.65 80.59C103.67 80.58 103.68 80.56 103.69 80.54C103.69 80.52 103.7 80.5 103.72 80.49C103.75 80.46 103.78 80.45 103.81 80.46C103.84 80.46 103.87 80.45 103.9 80.42Q103.96 80.37 104.03 80.28Q104.1 80.18 104.14 80.13Q104.16 80.11 104.19 80.1Q104.21 80.1 104.23 80.1Q104.25 80.1 104.26 80.1Q104.28 80.08 104.25 80C104.24 79.64 104.24 79.28 104.26 78.93C104.28 78.59 104.28 78.24 104.25 77.89C104.24 77.7 104.21 77.51 104.18 77.33C104.15 77.15 104.14 76.96 104.14 76.77C104.14 76.62 104.15 76.48 104.16 76.33C104.17 76.18 104.18 76.04 104.18 75.89C104.18 75.79 104.17 75.69 104.16 75.59C104.15 75.5 104.14 75.4 104.14 75.29Q104.12 75.05 104.11 74.89Q104.1 74.72 104.14 74.63L104.14 74.46C104.15 74.2 104.16 73.93 104.16 73.67C104.16 73.4 104.17 73.17 104.18 72.98Q104.23 72.66 104.18 72.38C104.15 72.2 104.14 72.02 104.14 71.86C104.11 71.32 104.11 70.77 104.13 70.21C104.15 69.65 104.15 69.07 104.14 68.45C104.1 68.41 104.04 68.38 103.97 68.35ZM59.19 68.27Q58.36 68.23 57.72 68.19Q57.54 68.39 57.35 68.5Q57.3 68.53 57.26 68.57L57.26 68.57Q57.16 68.68 57.13 68.85Q57.13 68.89 57.15 68.94L57.19 69.03Q57.23 69.25 57.2 69.44Q57.17 69.64 57.19 69.82L57.19 69.82L57.19 69.82Q57.19 69.83 57.19 69.84Q57.21 70.28 57.26 70.79Q57.3 71.29 57.32 71.79C57.34 72.12 57.34 72.43 57.32 72.74Q57.3 73.2 57.19 73.56C57.15 73.69 57.13 73.81 57.15 73.92Q57.17 74.08 57.19 74.15Q57.21 74.19 57.19 74.26Q57.18 74.29 57.18 74.33Q57.18 74.36 57.19 74.39Q57.26 74.92 57.26 75.51Q57.23 75.69 57.21 75.84C57.2 75.93 57.19 76.03 57.19 76.15C57.19 76.23 57.2 76.31 57.21 76.39Q57.23 76.51 57.26 76.61C57.26 76.7 57.25 76.8 57.25 76.89C57.24 76.99 57.24 77.08 57.26 77.16C57.26 77.34 57.27 77.51 57.29 77.67Q57.31 77.81 57.31 77.95Q57.31 78.06 57.3 78.16Q57.3 78.4 57.25 78.61C57.21 78.75 57.19 78.89 57.19 79.04Q57.17 79.28 57.2 79.49C57.22 79.62 57.24 79.73 57.26 79.81Q57.26 79.87 57.23 79.95Q57.23 79.96 57.23 79.97L57.23 79.97Q57.22 80.04 57.26 80.11C57.28 80.26 57.34 80.38 57.43 80.49C57.52 80.59 57.62 80.7 57.72 80.81C58.05 80.74 58.4 80.73 58.76 80.76Q59.3 80.81 59.83 80.81C60.06 80.65 60.26 80.46 60.42 80.22Q60.4 80.21 60.39 80.19Q60.34 80.15 60.36 80.05Q60.38 79.91 60.38 79.87L60.34 79.83C60.32 79.83 60.32 79.82 60.32 79.81C60.27 79.53 60.25 79.26 60.27 78.99Q60.29 78.6 60.32 78.16C60.33 77.88 60.34 77.59 60.33 77.31C60.32 77.02 60.32 76.75 60.32 76.51Q60.32 76.35 60.3 76.18Q60.29 76.04 60.36 75.99Q60.37 75.98 60.38 75.98C60.95 75.95 61.51 75.96 62.04 76.01Q62.85 76.09 63.68 76.05C63.89 76.03 64.08 76.01 64.25 76.01Q64.52 76 64.67 75.91Q64.72 75.91 64.77 75.85C64.81 75.8 64.83 75.76 64.85 75.73C64.88 75.71 64.9 75.67 64.93 75.63Q64.95 75.58 64.98 75.57Q65 75.56 65.02 75.56C64.97 75.27 64.95 74.95 64.97 74.6C64.99 74.24 64.99 73.9 64.98 73.56C64.9 73.53 64.85 73.49 64.8 73.44C64.76 73.39 64.72 73.33 64.67 73.27C64.6 73.21 64.52 73.19 64.44 73.2Q64.32 73.23 64.21 73.2Q63.7 73.16 63.06 73.14Q62.43 73.12 61.9 73.14C61.81 73.15 61.72 73.17 61.63 73.18C61.55 73.2 61.46 73.2 61.37 73.2C61.34 73.2 61.31 73.2 61.28 73.18C61.26 73.17 61.2 73.15 61.13 73.14C60.97 73.13 60.82 73.12 60.68 73.13C60.54 73.14 60.44 73.1 60.38 73.03Q60.27 72.66 60.3 72.15Q60.34 71.64 60.32 71.2C61.06 71.19 61.79 71.21 62.49 71.27C63.05 71.3 63.59 71.31 64.12 71.29C64.65 71.28 65.17 71.28 65.68 71.31C65.79 71.26 65.87 71.18 65.94 71.08Q65.95 71.06 65.97 71.03Q66.07 70.92 66.21 70.85L66.21 68.67C66.11 68.64 66.03 68.59 65.98 68.52C65.93 68.45 65.87 68.39 65.79 68.36Q65.46 68.21 64.97 68.26C64.64 68.29 64.34 68.29 64.08 68.26C64.02 68.24 63.96 68.22 63.91 68.21C63.86 68.19 63.8 68.19 63.72 68.19C63.67 68.19 63.63 68.19 63.6 68.21Q63.57 68.23 63.51 68.26C63.45 68.26 63.39 68.25 63.35 68.25C63.31 68.24 63.26 68.24 63.2 68.26C63.11 68.27 63.02 68.29 62.93 68.3C62.84 68.31 62.76 68.32 62.67 68.32C62.54 68.31 62.4 68.29 62.26 68.26C62.12 68.23 61.99 68.2 61.85 68.19C61.66 68.17 61.48 68.18 61.32 68.2Q61.06 68.23 60.78 68.26Q60.03 68.3 59.19 68.27ZM89.22 78.73C89.09 78.79 88.94 78.9 88.76 79.08Q88.69 79.13 88.64 79.19Q88.61 79.24 88.58 79.29Q88.58 79.29 88.58 79.29Q88.52 79.41 88.41 79.5C88.34 79.56 88.25 79.6 88.15 79.64Q88.01 79.69 87.88 79.78C87.85 79.8 87.83 79.82 87.82 79.84C87.8 79.86 87.78 79.88 87.75 79.91C87.72 79.94 87.69 79.96 87.65 79.97C87.61 79.98 87.57 80 87.51 80.03Q87.49 80.04 87.49 80.05Q87.49 80.06 87.49 80.06Q87.5 80.06 87.5 80.06Q87.5 80.07 87.46 80.09C87.4 80.09 87.35 80.11 87.31 80.16C87.26 80.2 87.21 80.24 87.16 80.27C87.11 80.3 87.07 80.31 87.03 80.32C87 80.33 86.96 80.35 86.93 80.37C86.91 80.39 86.88 80.41 86.87 80.43C86.86 80.46 86.83 80.47 86.8 80.49C86.79 80.5 86.77 80.51 86.75 80.5C86.73 80.49 86.71 80.49 86.69 80.49L86.6 80.58C86.57 80.61 86.52 80.64 86.45 80.66C86.36 80.71 86.26 80.74 86.14 80.76C86.03 80.78 85.92 80.81 85.81 80.84C85.8 80.85 85.78 80.86 85.75 80.85Q85.71 80.84 85.68 80.84C85.65 80.87 85.63 80.88 85.61 80.88C85.6 80.88 85.56 80.89 85.51 80.91C85.46 80.92 85.38 80.93 85.26 80.94C85.14 80.95 85.01 80.96 84.87 80.97L84.85 80.99C84.83 81.01 84.82 81.01 84.8 81.01C84.64 81.03 84.43 81.03 84.16 81.01C83.9 81 83.68 80.99 83.5 80.97Q83.44 80.95 83.36 80.97C83.31 80.99 83.26 80.99 83.22 80.97C83.13 80.94 83.04 80.91 82.94 80.88C82.85 80.85 82.74 80.82 82.62 80.79C82.45 80.72 82.27 80.65 82.1 80.59C81.92 80.52 81.74 80.45 81.57 80.37C81.55 80.37 81.53 80.38 81.5 80.39Q81.47 80.4 81.45 80.39Q81.44 80.38 81.43 80.37L81.43 80.31C81.42 80.31 81.4 80.31 81.38 80.32C81.36 80.33 81.34 80.32 81.33 80.31L81.33 80.27Q81.32 80.26 81.31 80.26Q81.24 80.22 81.17 80.22Q81.08 80.22 81.04 80.2C81.01 80.17 80.97 80.13 80.93 80.08C80.89 80.03 80.84 79.99 80.8 79.96C80.75 79.93 80.71 79.89 80.67 79.84C80.64 79.79 80.6 79.75 80.55 79.72C80.53 79.7 80.5 79.69 80.47 79.69C80.44 79.69 80.41 79.69 80.38 79.67C80.35 79.64 80.33 79.62 80.32 79.61C80.32 79.59 80.3 79.57 80.27 79.54C80.23 79.51 80.19 79.48 80.15 79.43C80.11 79.39 80.07 79.35 80.03 79.32C80 79.28 79.96 79.24 79.91 79.2C79.87 79.16 79.83 79.12 79.79 79.08C79.76 79.05 79.72 79.02 79.67 78.97C79.63 78.93 79.59 78.88 79.57 78.84C79.54 78.81 79.53 78.78 79.53 78.75C79.54 78.72 79.53 78.69 79.5 78.66C79.47 78.63 79.45 78.61 79.43 78.61C79.42 78.6 79.4 78.58 79.39 78.55C79.36 78.52 79.33 78.5 79.31 78.48C79.29 78.47 79.27 78.46 79.26 78.44Q79.19 78.29 79.08 78.13C79.05 78.09 79.03 78.04 79 78C78.98 77.96 78.95 77.91 78.91 77.84C78.89 77.82 78.87 77.79 78.85 77.78C78.83 77.77 78.81 77.74 78.79 77.72Q78.75 77.65 78.73 77.55Q78.71 77.45 78.66 77.36C78.66 77.35 78.66 77.34 78.64 77.35Q78.64 77.35 78.63 77.35Q78.62 77.35 78.62 77.32C78.61 77.29 78.6 77.27 78.61 77.25Q78.62 77.23 78.62 77.19C78.61 77.17 78.58 77.15 78.55 77.13C78.52 77.11 78.5 77.09 78.49 77.08C78.41 76.87 78.34 76.64 78.27 76.37C78.22 76.25 78.18 76.15 78.13 76.05C78.09 75.94 78.05 75.83 78.02 75.71C78 75.58 77.98 75.45 77.97 75.32C77.96 75.19 77.95 75.05 77.92 74.9C77.9 74.87 77.9 74.82 77.92 74.77C77.93 74.71 77.93 74.67 77.92 74.66C77.88 74.63 77.87 74.6 77.88 74.58C77.89 74.56 77.9 74.49 77.92 74.37Q77.94 74.15 77.95 73.88C77.96 73.69 77.98 73.52 78.02 73.36C78.04 73.33 78.05 73.31 78.06 73.31C78.06 73.3 78.07 73.28 78.09 73.25C78.14 73.09 78.19 72.91 78.24 72.72C78.3 72.53 78.37 72.35 78.44 72.17C78.44 72.16 78.44 72.14 78.43 72.12C78.43 72.09 78.43 72.07 78.44 72.06L78.49 72.06L78.49 71.95L78.55 71.95C78.6 71.85 78.63 71.75 78.65 71.66C78.67 71.56 78.7 71.48 78.73 71.42C78.74 71.39 78.76 71.37 78.78 71.36Q78.82 71.33 78.86 71.29L78.98 71.17C79.05 71.11 79.08 71.05 79.08 71.01C79.08 70.96 79.11 70.92 79.17 70.88C79.23 70.85 79.28 70.81 79.32 70.77C79.35 70.73 79.36 70.7 79.36 70.67C79.35 70.65 79.36 70.62 79.39 70.59C79.4 70.57 79.42 70.57 79.44 70.57C79.46 70.57 79.48 70.55 79.5 70.52C79.53 70.49 79.54 70.46 79.53 70.43C79.53 70.4 79.54 70.38 79.57 70.35C79.58 70.33 79.6 70.33 79.62 70.33C79.64 70.33 79.66 70.32 79.67 70.3C79.71 70.27 79.72 70.24 79.71 70.21C79.7 70.18 79.71 70.16 79.74 70.13C79.76 70.1 79.78 70.08 79.8 70.08C79.82 70.08 79.84 70.07 79.85 70.06Q79.96 69.93 80.03 69.8Q80.08 69.68 80.17 69.62Q80.19 69.6 80.21 69.59C80.23 69.57 80.27 69.54 80.32 69.53C80.37 69.52 80.44 69.49 80.51 69.47C80.53 69.45 80.53 69.44 80.52 69.43Q80.52 69.43 80.52 69.43Q80.52 69.42 80.55 69.4C80.57 69.4 80.6 69.4 80.64 69.39C80.69 69.38 80.72 69.37 80.73 69.35Q80.75 69.34 80.77 69.33Q80.79 69.31 80.8 69.29C80.81 69.26 80.83 69.24 80.87 69.22C80.88 69.22 80.9 69.23 80.92 69.23C80.94 69.24 80.96 69.24 80.97 69.22L80.97 69.18Q80.98 69.18 80.98 69.17Q81 69.16 81.04 69.18Q81.07 69.2 81.08 69.19Q81.08 69.19 81.08 69.18L81.08 69.11C81.1 69.11 81.12 69.11 81.15 69.12C81.18 69.13 81.2 69.13 81.21 69.11C81.24 69.08 81.28 69.06 81.32 69.04Q81.39 69 81.5 68.94C81.53 68.92 81.54 68.91 81.53 68.9C81.52 68.89 81.54 68.88 81.57 68.87Q81.61 68.87 81.63 68.85Q81.68 68.85 81.7 68.84C81.71 68.83 81.73 68.83 81.74 68.83C81.77 68.81 81.8 68.79 81.81 68.76C81.83 68.73 81.84 68.71 81.85 68.69Q81.88 68.69 81.92 68.71Q81.95 68.72 81.97 68.7Q81.98 68.7 81.98 68.69L81.98 68.67Q81.97 68.66 81.97 68.65Q81.97 68.65 81.98 68.65C82 68.64 82.02 68.63 82.04 68.64C82.06 68.65 82.08 68.65 82.1 68.65L82.1 68.58Q82.12 68.58 82.16 68.6C82.19 68.6 82.2 68.6 82.2 68.58C82.24 68.56 82.28 68.55 82.33 68.55C82.38 68.56 82.42 68.55 82.44 68.52C82.49 68.47 82.59 68.43 82.75 68.4Q82.98 68.34 83.15 68.3Q83.33 68.26 83.66 68.25C83.89 68.24 84.13 68.23 84.38 68.23Q84.65 68.23 84.93 68.21Q85.22 68.19 85.46 68.23Q85.57 68.26 85.66 68.31C85.72 68.35 85.78 68.38 85.86 68.41Q85.88 68.41 85.92 68.4C85.95 68.39 85.98 68.39 85.99 68.41L85.99 68.48C86.06 68.51 86.15 68.53 86.24 68.55Q86.39 68.58 86.52 68.65Q86.53 68.65 86.54 68.65Q86.57 68.67 86.58 68.7Q86.61 68.74 86.63 68.76Q86.63 68.77 86.64 68.77Q86.66 68.78 86.69 68.76Q86.73 68.75 86.75 68.76Q86.75 68.76 86.76 68.76L86.76 68.83C86.77 68.83 86.79 68.82 86.81 68.82C86.84 68.81 86.86 68.81 86.87 68.83L86.87 68.87L86.98 68.87C87.01 68.9 87.05 68.92 87.1 68.94Q87.18 68.96 87.29 69C87.3 69 87.31 69.01 87.3 69.03Q87.3 69.03 87.3 69.04Q87.3 69.05 87.33 69.05C87.39 69.06 87.44 69.09 87.48 69.13C87.53 69.16 87.58 69.2 87.64 69.22C87.67 69.24 87.69 69.25 87.69 69.26C87.7 69.26 87.72 69.27 87.75 69.29C87.78 69.3 87.8 69.32 87.82 69.34C87.83 69.36 87.85 69.38 87.88 69.4Q87.88 69.42 87.99 69.47C88.11 69.55 88.22 69.64 88.34 69.72Q88.52 69.84 88.7 69.99Q88.74 70.04 88.76 70.1C88.78 70.15 88.81 70.17 88.87 70.17C88.9 70.17 88.98 70.23 89.1 70.35Q89.29 70.52 89.36 70.59Q89.36 70.61 89.34 70.65Q89.33 70.68 89.34 70.69Q89.35 70.7 89.36 70.7Q89.4 70.74 89.45 70.78C89.49 70.8 89.51 70.83 89.53 70.87C89.53 70.89 89.54 70.91 89.55 70.94C89.57 70.97 89.58 70.99 89.58 71.01Q89.6 71.03 89.64 71.04Q89.68 71.05 89.71 71.07C89.71 71.09 89.7 71.1 89.7 71.13C89.69 71.15 89.69 71.16 89.71 71.18C89.74 71.23 89.77 71.27 89.81 71.3C89.86 71.34 89.9 71.39 89.93 71.47C89.94 71.48 89.94 71.51 89.94 71.53C89.93 71.56 89.93 71.58 89.93 71.6L89.99 71.6C89.99 71.61 89.99 71.63 89.98 71.66C89.97 71.68 89.98 71.7 89.99 71.71L90.06 71.71C90.06 71.73 90.06 71.75 90.05 71.78C90.04 71.8 90.05 71.82 90.06 71.82C90.08 71.85 90.1 71.89 90.14 71.94C90.17 71.99 90.2 72.05 90.23 72.12C90.23 72.14 90.23 72.17 90.22 72.19C90.22 72.22 90.22 72.24 90.23 72.24L90.28 72.24L90.28 72.34C90.32 72.38 90.34 72.41 90.33 72.45C90.33 72.48 90.33 72.53 90.35 72.59C90.36 72.62 90.37 72.64 90.38 72.66L90.41 72.72C90.41 72.75 90.41 72.79 90.4 72.83C90.39 72.88 90.4 72.91 90.41 72.94C90.41 72.97 90.42 72.99 90.43 73.01C90.45 73.02 90.45 73.04 90.45 73.08C90.51 73.4 90.56 73.75 90.59 74.14Q90.63 74.72 90.59 75.36C90.57 75.58 90.53 75.82 90.45 76.07C90.44 76.18 90.42 76.29 90.41 76.41Q90.39 76.57 90.35 76.73C90.27 76.92 90.18 77.09 90.08 77.24C89.98 77.4 89.87 77.55 89.75 77.72C89.66 77.88 89.57 78.03 89.48 78.19C89.38 78.34 89.29 78.52 89.22 78.73ZM75.13 76.57C75.04 76.4 74.95 76.21 74.88 76.02C74.95 75.98 75.04 75.92 75.14 75.85C75.24 75.77 75.31 75.71 75.34 75.67C75.35 75.66 75.37 75.66 75.39 75.67C75.42 75.68 75.44 75.68 75.45 75.67C75.48 75.66 75.5 75.64 75.52 75.62C75.53 75.59 75.55 75.57 75.58 75.56C75.69 75.49 75.76 75.42 75.79 75.37C75.83 75.32 75.87 75.24 75.94 75.14L76 75.14Q76 75.12 75.99 75.08C75.98 75.05 75.99 75.02 76 75.01L76.04 75.01C76.06 75.01 76.06 74.99 76.05 74.97Q76.04 74.92 76.04 74.9L76.22 74.72L76.22 74.66C76.22 74.63 76.23 74.61 76.24 74.62C76.26 74.63 76.27 74.63 76.29 74.61C76.35 74.51 76.39 74.39 76.43 74.25C76.47 74.11 76.51 74.01 76.58 73.95C76.6 73.94 76.62 73.89 76.63 73.81Q76.64 73.69 76.64 73.67C76.64 73.64 76.65 73.62 76.66 73.62C76.68 73.62 76.69 73.62 76.7 73.6C76.73 73.48 76.74 73.38 76.74 73.31C76.73 73.22 76.73 73.11 76.75 72.96C76.76 72.92 76.78 72.89 76.79 72.88C76.81 72.86 76.82 72.83 76.82 72.79Q76.86 72.5 76.86 72.14Q76.86 71.78 76.82 71.53C76.82 71.51 76.81 71.49 76.79 71.48C76.78 71.47 76.76 71.45 76.75 71.42C76.75 71.39 76.75 71.36 76.76 71.33C76.76 71.31 76.76 71.28 76.75 71.25C76.75 71.2 76.74 71.17 76.73 71.16C76.71 71.14 76.7 71.11 76.7 71.07Q76.7 71.04 76.69 71.03Q76.68 71.03 76.67 71.03Q76.65 71.03 76.64 71.02Q76.64 71.01 76.64 71.01Q76.62 70.92 76.62 70.86Q76.62 70.81 76.58 70.72Q76.56 70.58 76.5 70.47L76.5 70.47L76.5 70.47Q76.48 70.44 76.46 70.41Q76.46 70.41 76.45 70.41Q76.45 70.4 76.46 70.37C76.48 70.34 76.48 70.32 76.46 70.3C76.45 70.27 76.43 70.25 76.4 70.24C76.37 70.24 76.35 70.22 76.35 70.19C76.34 70.12 76.31 70.07 76.25 70.05Q76.2 70.02 76.18 69.98Q76.18 69.97 76.18 69.95C76.16 69.89 76.14 69.86 76.1 69.84C76.06 69.82 76.03 69.8 76 69.77L76 69.66C75.99 69.64 75.97 69.61 75.95 69.6C75.93 69.58 75.9 69.56 75.87 69.53Q75.8 69.44 75.68 69.37Q75.56 69.29 75.45 69.18C75.44 69.17 75.43 69.15 75.43 69.13Q75.43 69.1 75.42 69.08L75.42 69.08L75.42 69.08Q75.41 69.07 75.41 69.07C75.38 69.04 75.35 69.03 75.32 69.04C75.29 69.04 75.26 69.03 75.23 69Q75.14 68.94 75.12 68.87Q75.1 68.81 75.06 68.76C75.01 68.73 74.97 68.72 74.93 68.73C74.9 68.74 74.86 68.73 74.81 68.72L74.81 68.65C74.8 68.64 74.78 68.63 74.76 68.64C74.74 68.65 74.72 68.65 74.7 68.65Q74.59 68.61 74.43 68.52C74.32 68.46 74.24 68.42 74.17 68.41Q74.14 68.41 74.13 68.39Q74.13 68.39 74.13 68.39Q74.13 68.38 74.13 68.37Q74.12 68.36 74.11 68.36Q74.02 68.32 73.88 68.32Q73.76 68.32 73.63 68.3C73.29 68.24 72.89 68.22 72.41 68.24Q71.71 68.26 71.23 68.3Q71.1 68.32 70.95 68.34Q70.81 68.36 70.68 68.36C70.63 68.36 70.6 68.35 70.58 68.33C70.55 68.31 70.53 68.3 70.5 68.3Q70.17 68.24 69.85 68.27L69.85 68.27Q69.81 68.27 69.76 68.28C69.52 68.31 69.3 68.31 69.09 68.3C69 68.29 68.91 68.27 68.81 68.26C68.72 68.24 68.64 68.23 68.57 68.23Q68.54 68.23 68.53 68.24L68.53 68.24L68.53 68.24Q68.5 68.25 68.49 68.27Q68.45 68.3 68.39 68.3C68.31 68.3 68.24 68.3 68.15 68.29C68.07 68.28 67.99 68.29 67.91 68.3C67.88 68.3 67.85 68.31 67.81 68.32L67.73 68.36Q67.69 68.36 67.62 68.34C67.57 68.33 67.54 68.34 67.51 68.36C67.47 68.38 67.44 68.39 67.43 68.41C67.43 68.42 67.41 68.45 67.37 68.48C67.32 68.52 67.26 68.55 67.21 68.57C67.16 68.6 67.12 68.62 67.09 68.65C67.06 68.68 67.04 68.71 67.01 68.73Q66.98 68.76 66.98 68.83C67 69.32 67.03 69.84 67.07 70.38C67.11 70.91 67.12 71.44 67.09 71.95Q67.09 72.02 67.07 72.05C67.05 72.07 67.04 72.1 67.03 72.12Q67.02 72.14 67.02 72.17L67.02 72.17L67.02 72.17L67.02 72.17Q67.01 72.22 67.03 72.27Q67.04 72.32 67.03 72.37L67.03 72.37L67.03 72.37L67.03 72.37Q67.03 72.39 67.03 72.41C66.98 72.91 66.97 73.42 66.98 73.95C67 74.46 67.01 74.99 67.04 75.51Q67.07 76.29 67.1 77.04C67.12 77.55 67.12 78.04 67.09 78.51C67.08 78.64 67.05 78.77 67.03 78.91C67 79.05 66.98 79.19 66.98 79.32Q66.97 79.41 66.98 79.49Q66.98 79.51 66.98 79.53C67 79.6 67.01 79.67 67.03 79.74C67.04 79.86 67.05 79.96 67.05 80.07C67.05 80.17 67.06 80.26 67.09 80.33Q67.11 80.37 67.12 80.37Q67.12 80.37 67.12 80.36C67.13 80.36 67.14 80.36 67.16 80.37C67.22 80.48 67.27 80.56 67.33 80.63C67.39 80.7 67.45 80.77 67.51 80.86C67.63 80.85 67.77 80.83 67.93 80.83L68.41 80.8C68.57 80.8 68.72 80.79 68.86 80.78C69 80.78 69.11 80.76 69.2 80.73C69.33 80.7 69.44 80.69 69.53 80.71C69.62 80.72 69.71 80.71 69.8 80.69Q69.82 80.66 69.83 80.62C69.84 80.59 69.85 80.57 69.86 80.55C69.89 80.54 69.92 80.53 69.95 80.53C69.98 80.53 70.01 80.52 70.04 80.51Q70.06 80.49 70.06 80.44C70.06 80.42 70.07 80.39 70.1 80.37C70.14 80.36 70.17 80.36 70.21 80.36C70.24 80.37 70.24 80.34 70.22 80.27C70.14 79.94 70.11 79.62 70.11 79.29C70.12 78.96 70.13 78.63 70.15 78.31C70.17 78.1 70.17 77.91 70.16 77.73Q70.15 77.45 70.15 77.21C70.15 77.15 70.15 77.08 70.14 77.01Q70.13 76.95 70.15 76.91Q70.17 76.87 70.22 76.83C70.8 76.89 71.39 76.91 71.98 76.9C72.05 77.03 72.12 77.16 72.2 77.28C72.29 77.39 72.37 77.53 72.46 77.67Q72.54 77.75 72.56 77.84Q72.57 77.88 72.57 77.91Q72.57 77.94 72.58 77.95Q72.58 77.95 72.59 77.95C72.6 77.94 72.62 77.94 72.63 77.96C72.66 78 72.68 78.04 72.67 78.08C72.66 78.12 72.67 78.16 72.7 78.2C72.7 78.23 72.72 78.25 72.76 78.25C72.79 78.26 72.81 78.28 72.81 78.31Q72.81 78.35 72.83 78.35Q72.83 78.35 72.83 78.35C72.85 78.35 72.86 78.36 72.87 78.38C72.91 78.43 72.93 78.5 72.94 78.56C72.96 78.63 72.97 78.68 72.99 78.73Q73.01 78.77 73.02 78.81L73.05 78.9C73.05 78.93 73.06 78.95 73.07 78.95C73.09 78.95 73.09 78.95 73.09 78.97C73.13 79.04 73.16 79.12 73.19 79.2C73.21 79.28 73.24 79.36 73.27 79.43C73.33 79.52 73.38 79.6 73.41 79.67Q73.41 79.71 73.42 79.72Q73.42 79.72 73.43 79.72C73.44 79.72 73.45 79.73 73.45 79.74C73.48 79.8 73.5 79.86 73.51 79.93C73.53 79.99 73.55 80.05 73.58 80.09Q73.67 80.29 73.78 80.38C73.85 80.44 73.94 80.49 74.05 80.55C74.22 80.66 74.34 80.74 74.39 80.79L76.46 80.79C76.54 80.68 76.63 80.58 76.73 80.5C76.83 80.42 76.92 80.32 76.99 80.2C76.9 80.08 76.83 79.97 76.77 79.85C76.71 79.73 76.65 79.61 76.58 79.5C76.54 79.42 76.5 79.35 76.44 79.27C76.38 79.19 76.35 79.12 76.35 79.08Q76.35 79.06 76.34 79.05Q76.33 79.04 76.32 79.05C76.3 79.06 76.29 79.05 76.29 79.04C76.27 79 76.27 78.97 76.29 78.95C76.3 78.92 76.3 78.89 76.29 78.86C76.29 78.85 76.27 78.83 76.23 78.81Q76.18 78.77 76.18 78.73L76.18 78.73Q76.18 78.73 76.18 78.73Q76.13 78.66 76.11 78.6C76.1 78.55 76.08 78.5 76.04 78.44C76 78.31 75.94 78.21 75.87 78.13C75.85 78.13 75.85 78.12 75.87 78.09C75.88 78.06 75.89 78.04 75.87 78.02L75.82 78.02C75.81 78.01 75.81 77.99 75.81 77.97C75.82 77.95 75.82 77.93 75.82 77.91L75.76 77.91C75.74 77.9 75.74 77.88 75.75 77.85C75.76 77.82 75.76 77.79 75.76 77.78L75.72 77.69C75.7 77.67 75.68 77.64 75.65 77.6Q75.64 77.6 75.64 77.6Q75.63 77.59 75.64 77.56Q75.65 77.52 75.65 77.5C75.63 77.47 75.61 77.45 75.58 77.43Q75.54 77.41 75.52 77.38C75.49 77.33 75.47 77.28 75.46 77.23C75.46 77.19 75.44 77.13 75.41 77.08C75.32 76.92 75.23 76.75 75.13 76.57ZM86.63 77.14C86.7 77.04 86.78 76.95 86.88 76.86C86.97 76.77 87.03 76.67 87.04 76.55C87.04 76.52 87.05 76.51 87.06 76.51Q87.07 76.51 87.07 76.51Q87.09 76.5 87.11 76.48C87.14 76.41 87.16 76.34 87.18 76.28C87.19 76.21 87.21 76.16 87.22 76.13C87.29 76.01 87.33 75.92 87.33 75.85C87.33 75.8 87.35 75.78 87.38 75.78L87.4 75.78C87.43 75.71 87.43 75.62 87.41 75.53C87.39 75.43 87.38 75.34 87.4 75.25C87.41 75.15 87.43 75.05 87.44 74.97Q87.46 74.83 87.46 74.72C87.46 74.62 87.45 74.52 87.44 74.43C87.43 74.33 87.41 74.23 87.4 74.13Q87.38 73.98 87.38 73.82C87.38 73.72 87.36 73.62 87.33 73.54Q87.32 73.47 87.29 73.41L87.29 73.41Q87.28 73.37 87.25 73.33Q87.24 73.31 87.23 73.29Q87.19 73.2 87.16 73.12L87.04 72.9C87.03 72.88 87.02 72.86 87.03 72.83C87.04 72.8 87.04 72.78 87.04 72.76L86.98 72.76Q86.97 72.76 86.97 72.76Q86.96 72.75 86.98 72.72Q87 72.69 86.98 72.67Q86.98 72.66 86.98 72.66L86.93 72.66L86.93 72.54Q86.92 72.52 86.9 72.51Q86.89 72.5 86.87 72.5C86.84 72.5 86.82 72.49 86.8 72.48C86.73 72.41 86.67 72.34 86.61 72.27C86.56 72.21 86.51 72.14 86.45 72.06C86.41 72 86.37 71.95 86.33 71.91C86.29 71.86 86.26 71.83 86.23 71.82C86.19 71.82 86.17 71.81 86.18 71.81C86.18 71.8 86.18 71.79 86.17 71.78Q86.08 71.73 86.02 71.71C85.99 71.7 85.95 71.67 85.93 71.64C85.89 71.63 85.87 71.61 85.87 71.59C85.86 71.57 85.84 71.55 85.81 71.53C85.61 71.37 85.43 71.28 85.29 71.25C85.23 71.22 85.11 71.21 84.94 71.23C84.77 71.24 84.67 71.23 84.63 71.18C84.63 71.16 84.61 71.16 84.58 71.17C84.55 71.18 84.53 71.18 84.51 71.18C84.35 71.15 84.2 71.15 84.06 71.18C83.93 71.21 83.82 71.23 83.74 71.25Q83.62 71.25 83.47 71.23C83.37 71.21 83.29 71.22 83.22 71.25C83.17 71.26 83.14 71.28 83.14 71.29C83.13 71.31 83.11 71.33 83.08 71.36Q83.08 71.36 83.08 71.36Q83.07 71.37 83.04 71.36Q83.01 71.34 82.99 71.35Q82.98 71.35 82.98 71.36C82.95 71.37 82.92 71.4 82.89 71.44C82.86 71.47 82.83 71.51 82.8 71.53L82.73 71.53C82.7 71.53 82.69 71.54 82.7 71.56C82.71 71.57 82.7 71.58 82.69 71.6Q82.49 71.73 82.44 71.78C82.43 71.79 82.41 71.79 82.39 71.78C82.37 71.76 82.35 71.76 82.34 71.78L82.22 71.89C82.18 71.93 82.16 71.97 82.16 72C82.15 72.07 82.12 72.11 82.07 72.11C82.03 72.12 82 72.14 81.98 72.17C81.95 72.2 81.93 72.24 81.92 72.3C81.9 72.35 81.88 72.39 81.85 72.41C81.84 72.43 81.82 72.44 81.79 72.45C81.77 72.45 81.76 72.46 81.74 72.48C81.71 72.51 81.7 72.54 81.71 72.57C81.72 72.6 81.71 72.63 81.68 72.66C81.65 72.7 81.61 72.74 81.56 72.76C81.52 72.79 81.5 72.84 81.5 72.9C81.5 72.94 81.49 72.98 81.46 73.02Q81.41 73.08 81.39 73.12C81.33 73.22 81.28 73.31 81.24 73.4C81.19 73.49 81.16 73.57 81.15 73.64C81.08 74.01 81.07 74.37 81.12 74.72C81.18 75.08 81.19 75.45 81.15 75.85C81.21 75.9 81.24 75.97 81.26 76.03C81.27 76.1 81.3 76.17 81.33 76.24C81.33 76.26 81.33 76.27 81.35 76.27C81.36 76.27 81.38 76.28 81.39 76.31C81.42 76.38 81.45 76.45 81.48 76.52C81.51 76.58 81.54 76.63 81.57 76.66C81.58 76.67 81.58 76.7 81.56 76.73C81.55 76.76 81.55 76.77 81.57 76.77C81.58 76.8 81.6 76.82 81.62 76.83C81.64 76.85 81.66 76.87 81.68 76.9C81.71 76.93 81.74 76.97 81.79 77.01C81.85 77.06 81.89 77.1 81.92 77.14C81.98 77.2 82.03 77.27 82.08 77.33C82.14 77.4 82.17 77.45 82.2 77.5C82.28 77.55 82.34 77.59 82.38 77.6C82.42 77.62 82.48 77.64 82.56 77.67L82.56 77.72C82.57 77.73 82.59 77.73 82.62 77.73Q82.66 77.72 82.69 77.72L82.69 77.78C82.69 77.79 82.7 77.8 82.73 77.79C82.76 77.78 82.78 77.78 82.8 77.78L82.8 77.84C82.81 77.86 82.83 77.86 82.85 77.85C82.87 77.83 82.89 77.83 82.91 77.84L82.91 77.89C82.92 77.91 82.95 77.91 82.98 77.9Q83.02 77.89 83.04 77.89L83.04 77.96C83.04 77.97 83.06 77.98 83.08 77.97Q83.13 77.96 83.15 77.96L83.15 78.02C83.17 78.02 83.19 78.02 83.22 78.01C83.25 78 83.27 78.01 83.28 78.02C83.4 78.05 83.54 78.07 83.69 78.09C83.84 78.11 83.98 78.12 84.1 78.13C84.13 78.15 84.17 78.17 84.24 78.2Q84.33 78.24 84.37 78.21L84.37 78.21Q84.38 78.2 84.38 78.2Q84.43 78.16 84.45 78.16Q84.47 78.16 84.56 78.13Q84.8 78.09 85 78.05C85.13 78.03 85.26 78 85.39 77.96C85.55 77.9 85.71 77.84 85.86 77.76Q86.08 77.65 86.27 77.54Q86.37 77.43 86.45 77.35C86.51 77.28 86.57 77.22 86.63 77.14ZM73.2 71.65C73.23 71.66 73.28 71.68 73.34 71.71L73.42 71.79C73.44 71.81 73.47 71.83 73.51 71.84C73.57 72.13 73.61 72.4 73.62 72.65Q73.63 73.01 73.58 73.49C73.55 73.52 73.51 73.53 73.47 73.53C73.43 73.52 73.38 73.52 73.34 73.54C73.31 73.55 73.29 73.57 73.27 73.6C73.26 73.63 73.24 73.65 73.23 73.67C73.16 73.69 73.09 73.71 73.02 73.72C72.96 73.73 72.89 73.75 72.81 73.78Q72.8 73.78 72.8 73.78Q72.79 73.79 72.79 73.81Q72.79 73.82 72.78 73.83Q72.77 73.84 72.75 73.84C72.72 73.84 72.69 73.84 72.65 73.83C72.63 73.83 72.6 73.83 72.57 73.84C72.5 73.86 72.43 73.86 72.37 73.86C72.31 73.86 72.22 73.87 72.11 73.89C72.08 73.9 72.05 73.91 72.03 73.93C72.01 73.94 71.98 73.95 71.93 73.95C71.86 73.95 71.78 73.94 71.7 73.93C71.62 73.91 71.54 73.9 71.45 73.89C71.24 73.87 71.03 73.87 70.81 73.89C70.59 73.9 70.37 73.9 70.15 73.89C70.08 73.52 70.05 73.11 70.08 72.67C70.11 72.22 70.15 71.83 70.22 71.49C70.29 71.43 70.36 71.41 70.43 71.42C70.51 71.44 70.59 71.44 70.68 71.42C70.73 71.41 70.77 71.39 70.8 71.38C70.82 71.36 70.86 71.36 70.92 71.36C71.02 71.36 71.13 71.36 71.24 71.38C71.35 71.39 71.46 71.41 71.58 71.42C71.85 71.44 72.1 71.43 72.36 71.4C72.62 71.37 72.83 71.4 72.99 71.49L72.99 71.49Q73.01 71.49 73.02 71.54Q73.03 71.59 73.05 71.6L73.05 71.6C73.11 71.63 73.16 71.64 73.2 71.65Z" fill="#D3004C" fill-opacity="1.000000" fill-rule="evenodd"/>
	</g>
	<mask id="mask1_19140" mask-type="alpha" maskUnits="userSpaceOnUse" x="109.158325" y="0.000000" width="80.623901" height="70.805664">
		<g style="mix-blend-mode:normal">
			<rect id="Rectangle 2888" x="109.158325" width="80.623932" height="70.805733" fill="#C4C4C4" fill-opacity="1.000000"/>
		</g>
	</mask>
	<g mask="url(#mask1_19140)">
		<g style="mix-blend-mode:normal">
			<path id="Path 21004" d="M125.48 13.81L122.73 6.48C121.89 4.25 123.03 1.75 125.27 0.91C127.51 0.07 130 1.21 130.84 3.44L133.59 10.77L125.48 13.81Z" fill="#2694ED" fill-opacity="1.000000" fill-rule="nonzero"/>
		</g>
	</g>
	<g mask="url(#mask1_19140)">
		<g style="mix-blend-mode:normal">
			<path id="Path 21005" d="M125.27 0.91C126.09 0.6 126.96 0.56 127.75 0.75C127.56 0.79 127.38 0.84 127.19 0.91C124.95 1.75 123.81 4.25 124.65 6.48L127.16 13.18L125.48 13.81L122.73 6.48C121.89 4.25 123.03 1.75 125.27 0.91Z" fill="#A670C6" fill-opacity="1.000000" fill-rule="nonzero"/>
		</g>
	</g>
	<g mask="url(#mask1_19140)">
		<g style="mix-blend-mode:normal">
			<path id="Path 21006" d="M173.45 13.81L176.2 6.48C177.04 4.25 175.9 1.75 173.66 0.91C171.42 0.07 168.93 1.21 168.09 3.44L165.34 10.77L173.45 13.81Z" fill="#2694ED" fill-opacity="1.000000" fill-rule="nonzero"/>
		</g>
	</g>
	<g mask="url(#mask1_19140)">
		<g style="mix-blend-mode:normal">
			<path id="Path 21007" d="M171.72 33.19L127.21 33.19L109.79 70.16L189.14 70.16L171.72 33.19Z" fill="#F4EFED" fill-opacity="1.000000" fill-rule="nonzero"/>
		</g>
	</g>
	<g mask="url(#mask1_19140)">
		<g style="mix-blend-mode:normal">
			<path id="Path 21008" d="M171.72 33.19L168.24 33.19L185.65 70.16L189.14 70.16L171.72 33.19Z" fill="#D6D1CF" fill-opacity="1.000000" fill-rule="nonzero"/>
		</g>
	</g>
	<g mask="url(#mask1_19140)">
		<g style="mix-blend-mode:normal">
			<path id="Path 21009" d="M127.21 33.19L130.69 33.19L113.28 70.16L109.79 70.16L127.21 33.19Z" fill="#FFFFFF" fill-opacity="1.000000" fill-rule="nonzero"/>
		</g>
	</g>
	<g mask="url(#mask1_19140)">
		<g style="mix-blend-mode:normal">
			<path id="Path 21010" d="M189.14 70.8L109.79 70.8C109.57 70.8 109.37 70.69 109.25 70.5C109.14 70.32 109.12 70.09 109.21 69.89L126.63 32.91C126.74 32.69 126.96 32.55 127.21 32.55L171.72 32.55C171.97 32.55 172.19 32.69 172.3 32.91L189.72 69.89C189.81 70.09 189.8 70.32 189.68 70.5C189.56 70.69 189.36 70.8 189.14 70.8ZM110.8 69.52L188.13 69.52L171.32 33.83L127.62 33.83L110.8 69.52Z" fill="#690589" fill-opacity="1.000000" fill-rule="nonzero"/>
		</g>
	</g>
	<g mask="url(#mask1_19140)">
		<g style="mix-blend-mode:normal">
			<path id="Path 21011" d="M121.8 52.37C121.71 52.37 121.62 52.35 121.53 52.31C121.21 52.16 121.07 51.78 121.23 51.46L123.03 47.62C123.18 47.3 123.57 47.16 123.89 47.31C124.21 47.46 124.34 47.84 124.19 48.16L122.38 52C122.27 52.23 122.04 52.37 121.8 52.37Z" fill="#690589" fill-opacity="1.000000" fill-rule="nonzero"/>
		</g>
	</g>
	<g mask="url(#mask1_19140)">
		<g style="mix-blend-mode:normal">
			<path id="Path 21012" d="M165.76 70.8L133.17 70.8C132.97 70.8 132.79 70.71 132.67 70.56C132.55 70.4 132.5 70.2 132.55 70.01L141.25 33.04C141.32 32.75 141.58 32.55 141.88 32.55L157.05 32.55C157.35 32.55 157.61 32.75 157.68 33.04L166.39 70.01C166.43 70.2 166.39 70.4 166.26 70.56C166.14 70.71 165.96 70.8 165.76 70.8ZM133.98 69.52L164.95 69.52L156.55 33.83L142.38 33.83L133.98 69.52Z" fill="#690589" fill-opacity="1.000000" fill-rule="nonzero"/>
		</g>
	</g>
	<g mask="url(#mask1_19140)">
		<g style="mix-blend-mode:normal">
			<path id="Path 21013" d="M175.93 43.69L123 43.69C122.65 43.69 122.36 43.4 122.36 43.05C122.36 42.69 122.65 42.41 123 42.41L175.93 42.41C176.28 42.41 176.57 42.69 176.57 43.05C176.57 43.4 176.29 43.69 175.93 43.69Z" fill="#690589" fill-opacity="1.000000" fill-rule="nonzero"/>
		</g>
	</g>
	<g mask="url(#mask1_19140)">
		<g style="mix-blend-mode:normal">
			<path id="Path 21014" d="M182.47 57.39L116.46 57.39C116.11 57.39 115.82 57.1 115.82 56.75C115.82 56.4 116.11 56.11 116.46 56.11L182.47 56.11C182.83 56.11 183.11 56.4 183.11 56.75C183.11 57.1 182.83 57.39 182.47 57.39Z" fill="#690589" fill-opacity="1.000000" fill-rule="nonzero"/>
		</g>
	</g>
	<g mask="url(#mask1_19140)">
		<g style="mix-blend-mode:normal">
			<path id="Path 21015" d="M166.37 49.08L127.76 49.08L125.48 13.81L133.59 10.77L166.37 49.08Z" fill="#FCC24C" fill-opacity="1.000000" fill-rule="nonzero"/>
		</g>
	</g>
	<g mask="url(#mask1_19140)">
		<g style="mix-blend-mode:normal">
			<path id="Path 21016" d="M132.56 49.08L171.17 49.08L173.45 13.81L165.34 10.77L132.56 49.08Z" fill="#D3004C" fill-opacity="1.000000" fill-rule="nonzero"/>
		</g>
	</g>
	<g mask="url(#mask1_19140)">
		<g style="mix-blend-mode:normal">
			<path id="Path 21017" d="M170.95 12.88L168.61 49.08L171.17 49.08L173.45 13.81L170.95 12.88Z" fill="#8D0334" fill-opacity="1.000000" fill-rule="nonzero"/>
		</g>
	</g>
	<g mask="url(#mask1_19140)">
		<g style="mix-blend-mode:normal">
			<path id="Path 21018" d="M127.98 12.88L130.32 49.08L127.76 49.08L125.48 13.81L127.98 12.88Z" fill="#FCE06A" fill-opacity="1.000000" fill-rule="nonzero"/>
		</g>
	</g>
	<g mask="url(#mask1_19140)">
		<g style="mix-blend-mode:normal">
			<path id="Path 21019" d="M166.37 49.72L127.76 49.72C127.42 49.72 127.14 49.45 127.12 49.12L124.84 13.85C124.82 13.57 124.99 13.31 125.26 13.21L133.36 10.17C133.62 10.08 133.9 10.15 134.08 10.36L166.86 48.66C167.02 48.85 167.06 49.12 166.95 49.34C166.85 49.57 166.62 49.72 166.37 49.72ZM128.36 48.44L164.98 48.44L133.39 11.53L126.15 14.24L128.36 48.44Z" fill="#690589" fill-opacity="1.000000" fill-rule="nonzero"/>
		</g>
	</g>
	<g mask="url(#mask1_19140)">
		<g style="mix-blend-mode:normal">
			<path id="Path 21020" d="M171.17 49.72L132.56 49.72C132.31 49.72 132.08 49.57 131.98 49.34C131.88 49.12 131.91 48.85 132.07 48.66L164.86 10.36C165.03 10.15 165.31 10.08 165.57 10.17L173.67 13.21C173.94 13.31 174.11 13.57 174.09 13.85L171.81 49.12C171.79 49.45 171.51 49.72 171.17 49.72ZM133.95 48.44L170.57 48.44L172.78 14.24L165.54 11.53L133.95 48.44Z" fill="#690589" fill-opacity="1.000000" fill-rule="nonzero"/>
		</g>
	</g>
	<g mask="url(#mask1_19140)">
		<g style="mix-blend-mode:normal">
			<path id="Path 21021" d="M125.48 14.45C125.39 14.45 125.3 14.43 125.22 14.39C125.06 14.32 124.94 14.2 124.88 14.04L122.14 6.71C121.17 4.14 122.48 1.27 125.04 0.31C127.61 -0.65 130.48 0.65 131.44 3.22L134.19 10.55C134.31 10.88 134.14 11.25 133.81 11.37L125.71 14.41C125.63 14.44 125.56 14.45 125.48 14.45ZM126.78 1.28C126.35 1.28 125.92 1.35 125.49 1.51C123.59 2.22 122.62 4.36 123.33 6.26L125.86 12.99L132.77 10.4L130.24 3.67C129.69 2.19 128.28 1.28 126.78 1.28Z" fill="#690589" fill-opacity="1.000000" fill-rule="nonzero"/>
		</g>
	</g>
	<g mask="url(#mask1_19140)">
		<g style="mix-blend-mode:normal">
			<path id="Path 21022" d="M128.47 9.45C130.71 8.61 133 9.2 133.59 10.77C134.18 12.34 132.84 14.3 130.6 15.14C128.36 15.97 126.07 15.38 125.48 13.81C124.89 12.24 126.23 10.29 128.47 9.45Z" fill="#FCC24C" fill-opacity="1.000000" fill-rule="nonzero"/>
		</g>
	</g>
	<g mask="url(#mask1_19140)">
		<g style="mix-blend-mode:normal">
			<path id="Path 21023" d="M128.59 16.15C126.86 16.15 125.39 15.38 124.88 14.04C124.17 12.14 125.68 9.81 128.24 8.85C130.81 7.89 133.48 8.65 134.19 10.55C134.55 11.51 134.37 12.59 133.68 13.59C133.05 14.52 132.03 15.28 130.83 15.74C130.07 16.02 129.31 16.15 128.59 16.15ZM130.5 9.71C129.92 9.71 129.3 9.82 128.69 10.05C126.82 10.75 125.62 12.37 126.08 13.59C126.54 14.8 128.5 15.24 130.38 14.54C131.34 14.18 132.14 13.58 132.63 12.87C133.07 12.22 133.2 11.55 132.99 11C132.68 10.18 131.69 9.71 130.5 9.71Z" fill="#690589" fill-opacity="1.000000" fill-rule="nonzero"/>
		</g>
	</g>
	<g mask="url(#mask1_19140)">
		<g style="mix-blend-mode:normal">
			<path id="Path 21024" d="M173.66 0.91C172.84 0.6 171.98 0.56 171.18 0.75C171.37 0.79 171.56 0.84 171.74 0.91C173.98 1.75 175.12 4.25 174.28 6.48L171.77 13.18L173.45 13.81L176.2 6.48C177.04 4.25 175.9 1.75 173.66 0.91Z" fill="#6A348A" fill-opacity="1.000000" fill-rule="nonzero"/>
		</g>
	</g>
	<g mask="url(#mask1_19140)">
		<g style="mix-blend-mode:normal">
			<path id="Path 21025" d="M173.45 14.45C173.37 14.45 173.3 14.44 173.23 14.41L165.12 11.37C164.79 11.25 164.62 10.88 164.74 10.55L167.49 3.22C168.45 0.65 171.32 -0.65 173.89 0.31C176.45 1.27 177.76 4.14 176.8 6.71L174.05 14.04C173.99 14.2 173.87 14.32 173.71 14.39C173.63 14.43 173.54 14.45 173.45 14.45ZM166.17 10.4L173.08 12.99L175.6 6.26C176.31 4.36 175.34 2.22 173.44 1.51C171.53 0.8 169.4 1.76 168.69 3.67L166.17 10.4Z" fill="#690589" fill-opacity="1.000000" fill-rule="nonzero"/>
		</g>
	</g>
	<g mask="url(#mask1_19140)">
		<g style="mix-blend-mode:normal">
			<path id="Path 21026" d="M165.34 10.77C165.93 9.2 168.22 8.61 170.46 9.45C172.7 10.29 174.04 12.24 173.45 13.81C172.86 15.39 170.57 15.98 168.33 15.14C166.09 14.3 164.75 12.35 165.34 10.77Z" fill="#FCC24C" fill-opacity="1.000000" fill-rule="nonzero"/>
		</g>
	</g>
	<g mask="url(#mask1_19140)">
		<g style="mix-blend-mode:normal">
			<path id="Path 21027" d="M170.34 16.15C169.62 16.15 168.86 16.02 168.11 15.74C166.9 15.28 165.89 14.52 165.25 13.59C164.56 12.59 164.38 11.51 164.74 10.55C165.45 8.65 168.12 7.89 170.69 8.85C173.25 9.81 174.76 12.14 174.05 14.04C173.55 15.38 172.07 16.15 170.34 16.15ZM168.44 9.71C167.25 9.71 166.25 10.18 165.94 11C165.73 11.56 165.86 12.22 166.3 12.87C166.79 13.58 167.59 14.18 168.55 14.54C170.43 15.24 172.39 14.8 172.85 13.59C173.31 12.37 172.11 10.75 170.24 10.05C169.63 9.82 169.01 9.71 168.44 9.71Z" fill="#690589" fill-opacity="1.000000" fill-rule="nonzero"/>
		</g>
	</g>
</svg>
