<svg width="151.622803" height="96.288574" viewBox="0 0 151.623 96.2886" fill="none" xmlns="http://www.w3.org/2000/svg" xmlns:xlink="http://www.w3.org/1999/xlink">
	<desc>
			Created with Pixso.
	</desc>
	<defs/>
	<mask id="mask1_17274" mask-type="alpha" maskUnits="userSpaceOnUse" x="0.000000" y="0.000000" width="151.622681" height="96.288574">
		<g style="mix-blend-mode:normal">
			<rect id="Rectangle 2643" y="12.625000" width="144.854324" height="83.983109" transform="rotate(-5 0.000000 12.625000)" fill="#C4C4C4" fill-opacity="1.000000"/>
		</g>
	</mask>
	<g mask="url(#mask1_17274)">
		<g style="mix-blend-mode:normal">
			<path id="Path 15583" d="M26.8 19.33C27.2 19.27 27.61 19.22 28.02 19.18C28.43 19.13 28.84 19.1 29.25 19.09C30.08 19.06 30.9 19.07 31.73 19.12C32.55 19.17 33.37 19.28 34.19 19.41C34.6 19.47 35 19.55 35.41 19.64L36.01 19.77C36.21 19.82 36.39 19.86 36.58 19.89C37.32 20.06 38.08 20.17 38.84 20.25C39.61 20.35 40.38 20.38 41.15 20.4C42.72 20.42 44.29 20.34 45.85 20.18C46.09 20.16 46.31 20.33 46.33 20.57C46.35 20.77 46.23 20.95 46.05 21.02C44.49 21.6 42.86 21.95 41.2 22.07C40.37 22.13 39.53 22.14 38.69 22.09C37.85 22.03 37.01 21.92 36.19 21.75C35.98 21.71 35.77 21.66 35.57 21.61L35 21.47C34.62 21.38 34.24 21.31 33.86 21.23C33.09 21.07 32.32 20.94 31.55 20.81C30.77 20.7 29.99 20.59 29.21 20.51L28.62 20.45L28.03 20.4C27.63 20.37 27.24 20.34 26.84 20.29C26.57 20.26 26.35 20.02 26.38 19.75C26.41 19.53 26.58 19.36 26.8 19.33Z" fill="#FFFFFF" fill-opacity="1.000000" fill-rule="nonzero"/>
		</g>
	</g>
	<g mask="url(#mask1_17274)">
		<g style="mix-blend-mode:normal">
			<path id="Path 15584" d="M118.39 6.39C120.82 5.16 123.51 4.54 126.23 4.58C126.91 4.57 127.59 4.63 128.27 4.68C128.95 4.78 129.62 4.86 130.29 5.01C131.63 5.28 132.93 5.68 134.19 6.21C136.72 7.24 139.04 8.72 141.04 10.58C142.03 11.51 142.93 12.53 143.73 13.63C144.52 14.72 145.2 15.88 145.76 17.09C145.88 17.34 145.77 17.64 145.52 17.75C145.3 17.85 145.05 17.79 144.91 17.6C144.14 16.57 143.35 15.56 142.49 14.62C142.06 14.16 141.64 13.7 141.17 13.27C140.95 13.05 140.73 12.83 140.49 12.63C140.24 12.42 140.02 12.21 139.77 12.01C137.85 10.41 135.7 9.09 133.4 8.09C132.26 7.59 131.07 7.19 129.86 6.88C128.65 6.57 127.41 6.37 126.17 6.27C123.64 6.06 121.1 6.34 118.68 7.09C118.48 7.15 118.26 7.04 118.2 6.84C118.14 6.66 118.22 6.47 118.39 6.39Z" fill="#FFFFFF" fill-opacity="1.000000" fill-rule="nonzero"/>
		</g>
	</g>
	<g mask="url(#mask1_17274)">
		<g style="mix-blend-mode:normal">
			<path id="Path 15585" d="M128.47 1.83C129.63 1.67 130.79 1.67 131.95 1.83C133.1 1.99 134.24 2.27 135.33 2.67C136.43 3.05 137.48 3.57 138.47 4.19C139.45 4.81 140.35 5.57 141.11 6.45C141.29 6.66 141.27 6.98 141.05 7.16C140.9 7.29 140.7 7.32 140.52 7.24C139.49 6.8 138.52 6.32 137.54 5.87C136.56 5.42 135.59 4.98 134.6 4.58C133.62 4.18 132.61 3.82 131.58 3.49C130.56 3.16 129.51 2.89 128.43 2.59C128.22 2.53 128.1 2.32 128.16 2.11C128.2 1.96 128.32 1.85 128.47 1.83Z" fill="#FFFFFF" fill-opacity="1.000000" fill-rule="nonzero"/>
		</g>
	</g>
	<g mask="url(#mask1_17274)">
		<g style="mix-blend-mode:normal">
			<path id="Path 15586" d="M4.03 49.34C4.02 45.1 4.96 40.91 6.79 37.08C11.98 26.51 23.72 22.45 34.77 25.11C41.6 26.76 48.95 25.26 55.1 21.89C57.78 20.42 58.85 18.08 61.02 16.13C63.23 14.13 66.3 12.74 69.1 11.81C75.12 9.79 81.88 9.82 87.78 12.22C91.23 13.63 94.36 15.74 97.76 17.26C101.16 18.77 105.07 19.68 108.61 18.51C112.65 17.17 115.41 13.42 119.18 11.44C125.95 7.89 134.81 11.02 139.58 16.99C144.36 22.95 145.72 31 145.54 38.64C145.37 46.26 143.7 54.14 138.98 60.13C135.82 64.14 130.36 67.89 125.07 67.98C118.88 68.09 113.09 66.08 106.64 67C97.77 68.26 94.89 73.56 88.83 79.03C82.51 84.74 71.06 86.46 63.72 81.58C59.96 79.08 58.56 77.45 53.55 77.6C49.09 77.72 44.7 79.19 41.47 82.14C36.64 86.55 34.18 91.79 27.34 93.76C26.02 94.14 24.1 93.98 23.93 92.63C23.87 92.13 24.1 91.64 24.31 91.18C25.84 87.79 26.01 83.51 23.74 80.56C20.52 76.39 14.68 74.77 11.07 70.66C9.25 68.6 7.94 66.13 6.89 63.58C5 59.07 4.03 54.23 4.03 49.34Z" fill="#FCD100" fill-opacity="1.000000" fill-rule="nonzero"/>
		</g>
	</g>
	<g mask="url(#mask1_17274)">
		<g style="mix-blend-mode:normal">
			<path id="Path 15587" d="M9.25 42.5C9.7 40.39 10.53 38.38 11.69 36.56C11.99 36.1 12.3 35.66 12.64 35.24C12.81 35.03 12.97 34.81 13.16 34.61L13.71 34C14.46 33.22 15.29 32.51 16.18 31.87C17.07 31.25 18.01 30.7 18.99 30.24C19.49 30.03 19.99 29.8 20.5 29.63C20.76 29.54 21.01 29.44 21.27 29.37L22.05 29.15C22.31 29.07 22.58 29.02 22.84 28.96C23.11 28.9 23.37 28.85 23.63 28.8L24.43 28.69C24.7 28.65 24.97 28.61 25.24 28.6C26.3 28.5 27.38 28.49 28.44 28.58C28.6 28.59 28.72 28.73 28.7 28.89C28.69 29.03 28.58 29.14 28.44 29.15C27.4 29.21 26.37 29.33 25.35 29.51L24.97 29.57L24.6 29.65L23.84 29.81C23.35 29.95 22.85 30.06 22.37 30.23C20.42 30.83 18.58 31.74 16.91 32.92C15.25 34.09 13.8 35.53 12.62 37.19C11.44 38.88 10.49 40.72 9.8 42.66C9.74 42.8 9.57 42.87 9.43 42.82C9.3 42.77 9.23 42.63 9.25 42.5Z" fill="#FCF9EB" fill-opacity="1.000000" fill-rule="nonzero"/>
		</g>
	</g>
	<g mask="url(#mask1_17274)">
		<g style="mix-blend-mode:normal">
			<path id="Path 15588" d="M111.41 22.03C112.31 21.34 113.17 20.69 114.02 20.01L116.59 17.95C117.47 17.24 118.39 16.58 119.34 15.97C119.83 15.66 120.35 15.39 120.89 15.16C121.43 14.94 122 14.79 122.59 14.72C122.7 14.7 122.8 14.78 122.81 14.89C122.82 14.97 122.78 15.05 122.71 15.09C121.76 15.62 120.88 16.25 120.07 16.98C119.25 17.69 118.44 18.44 117.58 19.16C116.71 19.91 115.79 20.58 114.81 21.16C113.82 21.77 112.74 22.2 111.61 22.46C111.48 22.48 111.35 22.4 111.32 22.27C111.31 22.18 111.34 22.08 111.41 22.03Z" fill="#FCF9EB" fill-opacity="1.000000" fill-rule="nonzero"/>
		</g>
	</g>
	<g mask="url(#mask1_17274)">
		<g style="mix-blend-mode:normal">
			<path id="Path 15589" d="M62.18 21.19C62.51 20.65 62.87 20.13 63.27 19.64C63.68 19.14 64.15 18.68 64.66 18.29C65.17 17.89 65.7 17.53 66.26 17.22C66.81 16.9 67.38 16.61 67.96 16.36C69.12 15.84 70.32 15.44 71.55 15.16C72.79 14.87 74.05 14.74 75.31 14.78C75.46 14.79 75.57 14.91 75.57 15.06C75.56 15.18 75.49 15.27 75.37 15.31C74.19 15.64 73.02 15.96 71.88 16.35C70.75 16.72 69.62 17.16 68.51 17.62C67.41 18.07 66.34 18.61 65.33 19.22C64.83 19.53 64.36 19.88 63.91 20.26C63.46 20.65 63.03 21.09 62.56 21.5C62.46 21.6 62.3 21.59 62.21 21.48C62.14 21.4 62.13 21.28 62.18 21.19Z" fill="#FCF9EB" fill-opacity="1.000000" fill-rule="nonzero"/>
		</g>
	</g>
	<g mask="url(#mask1_17274)">
		<g style="mix-blend-mode:normal">
			<path id="Path 15590" d="M139.59 16.99C138.56 15.71 137.38 14.58 136.06 13.61C139.73 19.19 140.95 26.22 140.97 32.96C140.99 40.59 139.52 48.51 134.95 54.62C131.9 58.7 126.54 62.59 121.25 62.82C115.06 63.08 109.22 61.22 102.8 62.3C93.96 63.79 91.22 69.16 85.3 74.78C79.12 80.65 67.72 82.66 60.26 77.97C56.44 75.57 55 73.97 49.99 74.24C45.53 74.48 41.19 76.06 38.03 79.1C33.36 83.58 31.03 88.82 24.39 91C24.36 91.06 24.34 91.12 24.31 91.18C24.1 91.64 23.87 92.13 23.93 92.63C24.1 93.99 26.02 94.14 27.34 93.76C34.18 91.79 36.64 86.55 41.47 82.15C44.7 79.19 49.09 77.72 53.55 77.6C58.57 77.45 59.96 79.08 63.72 81.58C71.06 86.46 82.51 84.74 88.83 79.03C94.89 73.56 97.77 68.27 106.64 67C113.09 66.08 118.88 68.09 125.07 67.98C130.36 67.89 135.82 64.14 138.98 60.13C143.7 54.14 145.37 46.26 145.54 38.64C145.72 31 144.36 22.95 139.59 16.99Z" fill="#D3004C" fill-opacity="1.000000" fill-rule="nonzero"/>
		</g>
	</g>
	<g mask="url(#mask1_17274)">
		<g style="mix-blend-mode:normal">
			<path id="Path 15591" d="M13.43 72.84C15.01 74.06 16.75 75.08 18.43 76.14C16.93 74.89 15.19 73.87 13.43 72.84Z" fill="#3AB7DD" fill-opacity="1.000000" fill-rule="nonzero"/>
		</g>
	</g>
	<g mask="url(#mask1_17274)">
		<g style="mix-blend-mode:normal">
			<path id="Path 15592" d="M26.51 94.6C25.69 94.71 24.86 94.54 24.15 94.13C23.65 93.82 23.32 93.3 23.26 92.71C23.22 92.11 23.36 91.5 23.66 90.97C25.26 87.42 25.1 83.45 23.2 80.98C21.6 78.91 19.32 77.49 16.92 75.99C14.68 74.6 12.36 73.16 10.56 71.11C8.91 69.25 7.51 66.87 6.26 63.84C4.34 59.24 3.35 54.31 3.35 49.33L4.03 49.34L3.35 49.33C3.33 44.99 4.3 40.7 6.18 36.78C8.67 31.63 13.01 27.61 18.33 25.5C23.38 23.46 29.28 23.09 34.93 24.45C41.13 25.95 48.37 24.8 54.77 21.3C56.33 20.44 57.32 19.26 58.36 18C59.04 17.16 59.77 16.36 60.56 15.62C62.52 13.85 65.32 12.35 68.88 11.16C75.19 9.05 82.18 9.2 88.04 11.59C89.92 12.4 91.75 13.31 93.53 14.33C94.99 15.13 96.5 15.95 98.04 16.63C102.01 18.41 105.5 18.82 108.39 17.86C110.58 17.13 112.38 15.66 114.28 14.11C115.71 12.93 117.19 11.72 118.87 10.84C126.22 6.98 135.45 10.72 140.12 16.56C144.38 21.89 146.44 29.33 146.23 38.65C146.02 47.8 143.76 55.17 139.51 60.55C136.55 64.31 131.29 68.15 125.95 68.62C125.66 68.64 125.37 68.66 125.08 68.66C122.44 68.71 119.85 68.37 117.34 68.05C113.93 67.61 110.39 67.15 106.73 67.67C100.16 68.61 97.06 71.77 93.14 75.77C91.95 76.99 90.71 78.25 89.29 79.53C86.09 82.42 81.52 84.39 76.74 84.95C71.7 85.54 66.95 84.55 63.34 82.15C62.76 81.76 62.25 81.41 61.75 81.06C59.07 79.19 57.59 78.16 53.57 78.28C49.01 78.41 44.87 79.96 41.93 82.65C40.58 83.92 39.31 85.26 38.11 86.66C35.23 89.91 32.51 92.98 27.53 94.41C27.19 94.51 26.85 94.57 26.51 94.6ZM25.81 25.08C17.82 25.78 10.93 30.2 7.4 37.38C5.61 41.11 4.69 45.2 4.71 49.34C4.72 54.14 5.67 58.89 7.52 63.32C8.71 66.21 10.03 68.46 11.58 70.21C13.25 72.11 15.48 73.5 17.64 74.84C20.04 76.33 22.53 77.88 24.27 80.15C26.48 83.01 26.74 87.45 24.93 91.46C24.75 91.77 24.62 92.19 24.61 92.54C24.63 92.73 24.73 92.9 24.89 92.99C25.36 93.3 26.31 93.35 27.15 93.11C31.75 91.78 34.34 88.85 37.09 85.76C38.32 84.31 39.63 82.94 41.01 81.64C44.19 78.73 48.64 77.06 53.53 76.92C58 76.79 59.81 78.04 62.53 79.94C63.02 80.28 63.53 80.64 64.09 81.01C70.81 85.48 81.93 84.34 88.38 78.52C89.77 77.27 90.99 76.02 92.17 74.82C96.11 70.8 99.5 67.33 106.54 66.33C110.39 65.78 114.01 66.25 117.52 66.7C119.98 67.02 122.52 67.34 125.06 67.3C130.24 67.21 135.52 63.42 138.44 59.71C142.5 54.56 144.66 47.46 144.86 38.62C145.07 29.62 143.11 22.49 139.05 17.41C134.73 12 126.23 8.52 119.5 12.05C117.94 12.86 116.52 14.03 115.14 15.16C113.23 16.73 111.25 18.35 108.82 19.15C105.59 20.22 101.78 19.79 97.48 17.88C95.9 17.17 94.36 16.33 92.87 15.52C91.14 14.53 89.36 13.64 87.53 12.85C81.96 10.59 75.32 10.44 69.31 12.45C65.93 13.58 63.29 14.99 61.47 16.63C60.73 17.33 60.04 18.08 59.41 18.87C58.33 20.17 57.21 21.51 55.42 22.49C48.73 26.15 41.14 27.35 34.61 25.78C31.73 25.07 28.76 24.84 25.81 25.08Z" fill="#061C3F" fill-opacity="1.000000" fill-rule="nonzero"/>
		</g>
	</g>
	<g mask="url(#mask1_17274)">
		<g style="mix-blend-mode:normal">
			<path id="Path 15593" d="M141.62 79.91C141.31 79.88 141 79.77 140.74 79.6C140.52 79.46 140.33 79.27 140.18 79.06L139.37 77.76C138.83 76.9 138.31 76.02 137.8 75.13C137.3 74.24 136.81 73.34 136.34 72.42C135.88 71.51 135.42 70.58 135.03 69.62C134.86 69.2 135.06 68.73 135.47 68.56C135.75 68.44 136.08 68.5 136.31 68.7C137.09 69.4 137.82 70.13 138.53 70.88C139.24 71.62 139.93 72.38 140.6 73.15C141.27 73.92 141.92 74.7 142.57 75.5L143.52 76.69C143.67 76.9 143.78 77.14 143.85 77.4C143.92 77.7 143.92 78.03 143.85 78.33C143.61 79.35 142.65 80.02 141.62 79.91Z" fill="#FFFFFF" fill-opacity="1.000000" fill-rule="nonzero"/>
		</g>
	</g>
	<g mask="url(#mask1_17274)">
		<g style="mix-blend-mode:normal">
			<path id="Path 15594" d="M8.5 11.92C8.81 11.96 9.11 12.08 9.38 12.25C9.59 12.4 9.78 12.59 9.92 12.81L10.71 14.11C11.23 14.99 11.73 15.88 12.22 16.78C12.71 17.68 13.18 18.59 13.62 19.51C14.07 20.44 14.51 21.38 14.88 22.35C15.04 22.77 14.83 23.24 14.42 23.39C14.13 23.5 13.81 23.44 13.58 23.24C12.81 22.53 12.11 21.78 11.41 21.02C10.71 20.26 10.04 19.49 9.39 18.7C8.73 17.92 8.09 17.12 7.47 16.32L6.54 15.1C6.2 14.62 6.1 14.02 6.25 13.45C6.5 12.45 7.47 11.79 8.5 11.92Z" fill="#FFFFFF" fill-opacity="1.000000" fill-rule="nonzero"/>
		</g>
	</g>
	<g mask="url(#mask1_17274)">
		<g style="mix-blend-mode:normal">
			<path id="Path 15595" d="M18.4 12.46C18.7 12.77 18.85 13.19 18.81 13.62L18.65 14.74C18.55 15.48 18.42 16.22 18.29 16.96C18.15 17.7 18.01 18.45 17.83 19.18C17.66 19.92 17.48 20.66 17.25 21.39C17.15 21.7 16.81 21.88 16.5 21.78C16.28 21.71 16.12 21.52 16.09 21.3C15.98 20.54 15.92 19.78 15.87 19.02C15.82 18.27 15.8 17.51 15.77 16.76C15.76 16.01 15.76 15.26 15.78 14.51L15.81 13.38C15.83 12.95 16.05 12.55 16.4 12.3C17 11.83 17.87 11.9 18.4 12.46Z" fill="#FFFFFF" fill-opacity="1.000000" fill-rule="nonzero"/>
		</g>
	</g>
	<g mask="url(#mask1_17274)">
		<g style="mix-blend-mode:normal">
			<path id="Path 15596" d="M3.42 20.79C3.8 20.58 4.25 20.56 4.65 20.72L5.68 21.17C6.37 21.48 7.05 21.8 7.72 22.13C8.4 22.47 9.07 22.81 9.73 23.18C10.39 23.55 11.05 23.92 11.69 24.35C11.97 24.53 12.04 24.9 11.86 25.18C11.73 25.37 11.51 25.47 11.28 25.44C10.52 25.34 9.78 25.19 9.04 25.03C8.3 24.87 7.56 24.68 6.83 24.49C6.11 24.3 5.38 24.09 4.67 23.87L3.59 23.53C3.19 23.39 2.87 23.07 2.72 22.67C2.43 21.95 2.74 21.14 3.42 20.79Z" fill="#FFFFFF" fill-opacity="1.000000" fill-rule="nonzero"/>
		</g>
	</g>
	<g mask="url(#mask1_17274)">
		<g style="mix-blend-mode:normal">
			<path id="Path 15597" d="M116.39 8.35C116.44 8.36 116.53 8.36 116.58 8.36C116.62 8.35 116.68 8.34 116.71 8.33C116.76 8.31 116.83 8.28 116.87 8.26C116.91 8.22 116.98 8.17 117.01 8.13C117.04 8.09 117.07 8.05 117.09 8.01C117.1 7.99 117.13 7.88 117.14 7.86C117.15 7.8 117.15 7.74 117.13 7.68C117.12 7.62 117.1 7.56 117.06 7.52C116.99 7.42 116.89 7.36 116.78 7.33L116.65 7.33C116.57 7.33 116.5 7.36 116.43 7.41C116.38 7.47 116.26 7.62 116.25 7.7L116.33 7.53L116.43 7.41C116.42 7.42 116.34 7.52 116.33 7.53L116.43 7.41L116.59 7.46C116.53 7.45 116.49 7.39 116.43 7.41C116.37 7.42 116.25 7.5 116.2 7.53C116.11 7.61 116.05 7.71 116.02 7.82L116.01 7.94C116.02 8.02 116.05 8.1 116.1 8.17C116.16 8.22 116.31 8.34 116.39 8.35Z" fill="#72F2FE" fill-opacity="1.000000" fill-rule="nonzero"/>
		</g>
	</g>
	<g mask="url(#mask1_17274)">
		<g style="mix-blend-mode:normal">
			<path id="Path 15598" d="M48.12 20.63L49.63 20.16C49.87 20.07 49.98 19.81 49.9 19.58C49.81 19.35 49.55 19.23 49.31 19.31L47.8 19.78C47.57 19.87 47.45 20.13 47.54 20.36C47.63 20.59 47.89 20.71 48.12 20.63Z" fill="#FFFFFF" fill-opacity="1.000000" fill-rule="nonzero"/>
		</g>
	</g>
	<g mask="url(#mask1_17274)">
		<g style="mix-blend-mode:normal">
			<path id="Path 15599" d="M9 44.3C8.83 45.03 8.73 45.77 8.69 46.52C8.67 46.68 8.77 46.84 8.94 46.87C9.1 46.9 9.26 46.8 9.29 46.63C9.33 45.88 9.43 45.14 9.6 44.41C9.63 44.24 9.52 44.08 9.35 44.05C9.19 44.02 9.03 44.13 9 44.3Z" fill="#FCF9EB" fill-opacity="1.000000" fill-rule="nonzero"/>
		</g>
	</g>
	<g mask="url(#mask1_17274)">
		<g style="mix-blend-mode:normal">
			<path id="Path 15600" d="M8.95 47.98C9.11 47.96 9.23 47.81 9.21 47.65C9.19 47.49 9.06 47.37 8.9 47.38C8.73 47.4 8.61 47.55 8.63 47.72C8.65 47.87 8.79 47.99 8.95 47.98Z" fill="#FCF9EB" fill-opacity="1.000000" fill-rule="nonzero"/>
		</g>
	</g>
	<g mask="url(#mask1_17274)">
		<g style="mix-blend-mode:normal">
			<path id="Path 15601" d="M77.15 15.34C77.32 15.32 77.44 15.17 77.42 15.01C77.4 14.85 77.26 14.73 77.1 14.74C76.93 14.76 76.82 14.91 76.84 15.08C76.85 15.24 76.99 15.35 77.15 15.34Z" fill="#FCF9EB" fill-opacity="1.000000" fill-rule="nonzero"/>
		</g>
	</g>
	<g mask="url(#mask1_17274)">
		<g style="mix-blend-mode:normal">
			<path id="Path 15602" d="M78.28 15.34C78.34 15.34 78.39 15.34 78.45 15.34C78.47 15.34 78.64 15.34 78.56 15.34C78.67 15.35 78.77 15.36 78.88 15.38C79.09 15.4 79.3 15.45 79.51 15.52C79.59 15.53 79.68 15.51 79.74 15.47C79.88 15.37 79.91 15.18 79.81 15.04C79.77 14.98 79.7 14.94 79.62 14.92C79.17 14.79 78.7 14.72 78.23 14.74C78.07 14.76 77.94 14.9 77.96 15.07C77.97 15.24 78.12 15.36 78.28 15.34Z" fill="#FCF9EB" fill-opacity="1.000000" fill-rule="nonzero"/>
		</g>
	</g>
	<g mask="url(#mask1_17274)">
		<g style="mix-blend-mode:normal">
			<path id="Path 15603" d="M124.34 14.76C124.4 14.74 124.46 14.72 124.52 14.7C124.61 14.68 124.54 14.69 124.63 14.67C124.75 14.65 124.87 14.63 124.98 14.62C125.1 14.61 125.22 14.6 125.34 14.6C125.43 14.61 125.36 14.6 125.46 14.61C125.52 14.61 125.58 14.62 125.65 14.62C125.81 14.66 125.97 14.55 126.01 14.39C126.04 14.23 125.94 14.07 125.77 14.03C125.22 13.96 124.65 14.02 124.12 14.19C123.97 14.25 123.89 14.42 123.95 14.58C124.01 14.73 124.18 14.81 124.34 14.76Z" fill="#FCF9EB" fill-opacity="1.000000" fill-rule="nonzero"/>
		</g>
	</g>
	<g mask="url(#mask1_17274)">
		<g style="mix-blend-mode:normal">
			<path id="Path 15604" d="M25.14 77.49C26.47 78.96 27.33 80.8 27.59 82.77C27.64 83.15 28.24 83.1 28.19 82.72C27.93 80.64 27.03 78.7 25.63 77.14C25.37 76.86 24.88 77.21 25.14 77.49Z" fill="#FCF9EB" fill-opacity="1.000000" fill-rule="nonzero"/>
		</g>
	</g>
	<g mask="url(#mask1_17274)">
		<g style="mix-blend-mode:normal">
			<path id="Path 15605" d="M20.76 68.38C20.07 68.45 19.38 68.25 18.82 67.84C18.28 67.44 17.83 66.95 17.48 66.39C17.15 65.86 16.87 65.3 16.67 64.71C16.48 64.19 16.34 63.77 16.24 63.4C15.89 62.22 15.65 61.02 15.51 59.8C15.39 58.75 15.29 57.61 15.2 56.32C15.16 55.62 15.13 54.88 15.11 54.13C15.1 53.27 15.12 52.36 15.19 51.43C15.26 50.47 15.39 49.51 15.57 48.57C15.76 47.6 16.05 46.65 16.44 45.74C16.83 44.84 17.39 44.01 18.07 43.3C18.81 42.53 19.76 41.98 20.79 41.71C21.16 41.61 21.53 41.54 21.91 41.5C22.53 41.45 23.15 41.5 23.75 41.66C24.62 41.9 25.42 42.29 26.13 42.84C26.83 43.37 27.46 44.01 27.99 44.72C28.49 45.39 28.95 46.08 29.36 46.81C29.76 47.5 30.12 48.2 30.44 48.89L31.26 50.62C31.85 51.83 32.42 53.11 32.94 54.39C33.48 55.71 33.92 57.07 34.27 58.45C34.4 58.99 34.5 59.53 34.56 60.08C34.65 60.76 34.65 61.45 34.56 62.13C34.48 62.84 34.25 63.53 33.89 64.16C33.43 64.95 32.66 65.52 31.77 65.73C31.54 65.79 31.31 65.83 31.08 65.85C30.16 65.94 29.25 65.65 28.56 65.05C27.87 64.45 27.31 63.72 26.91 62.9C26.52 62.13 26.19 61.32 25.93 60.49C25.92 60.43 25.9 60.37 25.88 60.32C25.39 60.53 24.9 60.74 24.41 60.95C24.43 61.17 24.45 61.39 24.47 61.63C24.53 62.43 24.51 63.23 24.4 64.03C24.29 64.86 24.04 65.66 23.65 66.41C23.19 67.32 22.36 68 21.37 68.27C21.17 68.33 20.97 68.36 20.76 68.38ZM23.08 51.83C23.1 52.33 23.14 52.81 23.18 53.25C23.31 53.19 23.44 53.24 23.57 53.18C23.52 53.02 23.45 52.8 23.36 52.52C23.28 52.27 23.19 52.08 23.08 51.83Z" fill="#061C3F" fill-opacity="1.000000" fill-rule="nonzero"/>
		</g>
	</g>
	<g mask="url(#mask1_17274)">
		<g style="mix-blend-mode:normal">
			<path id="Path 15606" d="M38.29 64.07C37.54 63.92 36.85 63.56 36.3 63.01C35.81 62.53 35.38 61.98 35.03 61.39C34.66 60.77 34.33 60.13 34.06 59.46C33.78 58.81 33.53 58.16 33.31 57.54C33.09 56.9 32.9 56.3 32.75 55.73C32.6 55.2 32.49 54.76 32.4 54.41C32.25 53.78 32.09 52.99 31.93 52.05C31.77 51.1 31.65 50.08 31.57 49.02C31.48 47.94 31.45 46.85 31.48 45.76C31.5 44.7 31.62 43.64 31.84 42.6C32.03 41.64 32.4 40.72 32.91 39.89C33.47 38.97 34.37 38.32 35.42 38.07C35.53 38.04 35.65 38.02 35.77 38.01C36.43 37.97 37.08 38.15 37.64 38.5C38.24 38.86 38.79 39.29 39.29 39.79C39.85 40.33 40.37 40.9 40.86 41.5C41.35 42.11 41.84 42.74 42.3 43.37C42.31 43.32 42.34 43.31 42.35 43.26C42.51 42.48 42.7 41.68 42.93 40.9C43.15 40.14 43.42 39.39 43.75 38.66C44.05 38 44.42 37.38 44.87 36.81C45.37 36.16 46.07 35.71 46.86 35.53C47.04 35.49 47.22 35.46 47.4 35.45C48.33 35.36 49.26 35.6 50.04 36.12C50.88 36.68 51.61 37.41 52.18 38.26C52.79 39.16 53.32 40.12 53.73 41.13C54.16 42.14 54.54 43.17 54.87 44.19C55.2 45.2 55.47 46.17 55.69 47.07C55.9 47.94 56.06 48.67 56.17 49.22L56.35 50.11C56.43 50.5 56.51 50.94 56.6 51.43C56.69 51.94 56.77 52.48 56.84 53.04C56.92 53.64 56.98 54.2 57.02 54.74C57.07 55.31 57.09 55.88 57.08 56.46C57.07 57.02 57.02 57.58 56.92 58.12C56.81 58.72 56.58 59.28 56.23 59.77C55.83 60.34 55.22 60.74 54.53 60.88C54.45 60.9 54.37 60.91 54.29 60.92C53.73 60.97 52.88 60.82 52.05 59.82C51.54 59.19 51.1 58.51 50.74 57.78C50.32 57 49.89 56.09 49.47 55.08C49.45 55.03 49.43 54.97 49.41 54.92C49.35 55.79 49.25 56.65 49.1 57.5C48.97 58.3 48.74 59.08 48.41 59.82C47.85 61.01 47.03 61.41 46.45 61.55C46.35 61.57 46.24 61.58 46.14 61.59C45.41 61.66 44.68 61.38 43.96 60.77C43.35 60.22 42.8 59.61 42.33 58.95C42.07 58.58 41.8 58.2 41.53 57.78C41.56 58.34 41.55 58.9 41.52 59.46C41.47 60.31 41.31 61.16 41.03 61.97C40.73 62.93 39.99 63.69 39.04 64.02L38.67 64.14L38.29 64.07Z" fill="#061C3F" fill-opacity="1.000000" fill-rule="nonzero"/>
		</g>
	</g>
	<g mask="url(#mask1_17274)">
		<g style="mix-blend-mode:normal">
			<path id="Path 15607" d="M60.42 58.94C59.63 59.02 58.85 58.77 58.26 58.25C57.76 57.81 57.35 57.28 57.05 56.69C56.76 56.14 56.54 55.55 56.38 54.95C56.24 54.41 56.14 53.97 56.07 53.6C55.83 52.4 55.69 51.18 55.65 49.95C55.62 48.9 55.62 47.76 55.65 46.46C55.67 45.76 55.7 45.03 55.75 44.27C55.81 43.41 55.91 42.51 56.06 41.59C56.21 40.64 56.42 39.69 56.68 38.77C56.95 37.82 57.32 36.9 57.79 36.03C58.26 35.16 58.88 34.39 59.62 33.74C60.43 33.03 61.41 32.57 62.47 32.39C62.67 32.35 62.87 32.32 63.07 32.31C63.87 32.23 64.67 32.33 65.42 32.6C66.26 32.91 67.03 33.37 67.69 33.97C68.34 34.57 68.91 35.26 69.37 36.01C69.82 36.72 70.21 37.45 70.56 38.21C70.89 38.93 71.19 39.66 71.46 40.38L72.12 42.17C72.6 43.43 73.06 44.75 73.47 46.08C73.89 47.44 74.22 48.83 74.45 50.23C74.53 50.78 74.58 51.33 74.59 51.88C74.62 52.56 74.56 53.25 74.41 53.92C74.27 54.63 73.98 55.29 73.58 55.89C73.05 56.64 72.23 57.13 71.32 57.26C71.2 57.28 71.09 57.3 70.97 57.31C69.94 57.42 68.91 57.05 68.18 56.31C67.56 55.65 67.06 54.87 66.73 54.03C66.41 53.22 66.15 52.39 65.97 51.54C65.95 51.48 65.94 51.42 65.93 51.37C65.42 51.54 64.92 51.71 64.41 51.87C64.42 52.09 64.42 52.31 64.42 52.55C64.41 53.35 64.32 54.15 64.14 54.94C63.96 55.75 63.64 56.53 63.19 57.24C62.65 58.11 61.77 58.71 60.76 58.9C60.65 58.92 60.53 58.93 60.42 58.94ZM63.88 42.67C63.86 43.17 63.85 43.64 63.85 44.09C63.98 44.04 64.12 44.1 64.25 44.06C64.21 43.89 64.16 43.67 64.09 43.38C64.03 43.12 63.96 42.93 63.88 42.67Z" fill="#061C3F" fill-opacity="1.000000" fill-rule="nonzero"/>
		</g>
	</g>
	<g mask="url(#mask1_17274)">
		<g style="mix-blend-mode:normal">
			<path id="Path 15608" d="M78.32 56.07C77.64 56.13 76.95 56.09 76.28 55.96C75.55 55.83 74.86 55.53 74.27 55.08C73.54 54.5 73.07 53.65 72.96 52.72C72.87 51.94 72.9 51.15 73.06 50.38C73.2 49.55 73.38 48.68 73.62 47.8C73.84 46.93 74.1 46.07 74.37 45.25C74.64 44.46 74.86 43.83 75.02 43.36C75.53 42 76.05 40.61 76.59 39.24L76.66 39.05C76.08 39.28 75.48 39.44 74.86 39.54C74.76 39.56 74.65 39.57 74.54 39.58C74.21 39.61 73.89 39.61 73.56 39.58C73.1 39.54 72.65 39.44 72.22 39.27C71.74 39.09 71.3 38.8 70.94 38.43C70.52 37.98 70.24 37.42 70.15 36.82C70.01 35.95 70.18 35.06 70.64 34.3C71.04 33.61 71.56 33 72.17 32.49C72.8 31.95 73.48 31.47 74.21 31.06C74.94 30.64 75.7 30.27 76.48 29.95C77.23 29.64 77.96 29.38 78.66 29.17C79.28 28.98 79.91 28.83 80.55 28.73C80.74 28.71 80.92 28.69 81.1 28.67C82.24 28.54 83.39 28.7 84.46 29.12C85.4 29.51 86.58 30.46 86.87 32.68C86.92 33.03 86.87 33.38 86.65 34.18C86.51 34.71 86.32 35.35 86.07 36.14C85.82 36.89 85.55 37.73 85.24 38.66C84.93 39.6 84.62 40.55 84.29 41.53C83.96 42.5 83.65 43.45 83.34 44.39C83.05 45.3 82.78 46.13 82.53 46.87C82.92 46.78 83.32 46.7 83.73 46.64C83.86 46.62 84 46.61 84.14 46.59C84.41 46.57 84.69 46.56 84.98 46.56C85.5 46.56 86.01 46.64 86.51 46.79C87.03 46.96 87.52 47.24 87.93 47.61C88.46 48.1 88.8 48.77 88.87 49.5C88.98 50.3 88.79 51.11 88.34 51.78C87.96 52.34 87.48 52.84 86.93 53.24C86.37 53.65 85.76 54 85.13 54.28C84.52 54.56 83.89 54.81 83.26 55.04C82.62 55.26 82.01 55.44 81.43 55.58C80.84 55.73 80.36 55.83 79.95 55.89C79.53 55.95 79.06 56.01 78.56 56.05L78.32 56.07Z" fill="#061C3F" fill-opacity="1.000000" fill-rule="nonzero"/>
		</g>
	</g>
	<g mask="url(#mask1_17274)">
		<g style="mix-blend-mode:normal">
			<path id="Path 15609" d="M89.92 54.67C89.79 54.68 89.66 54.69 89.52 54.7C89.05 54.74 88.58 54.72 88.12 54.63C87.6 54.54 87.11 54.34 86.67 54.04C86.06 53.62 85.67 52.96 85.59 52.23C85.5 51.6 85.56 50.95 85.77 50.35C85.96 49.83 86.24 49.34 86.6 48.92C86.96 48.5 87.37 48.13 87.84 47.84C87.95 47.78 88.05 47.72 88.16 47.66C88.16 46.86 88.15 46.07 88.14 45.31C88.13 44.23 88.07 43.14 87.98 42.06C87.87 40.91 87.52 36.86 87.52 36.86C87.39 36.86 87.25 36.86 87.11 36.85C86.63 36.83 86.15 36.73 85.7 36.57C85.23 36.4 84.8 36.16 84.42 35.84C83.9 35.39 83.57 34.76 83.49 34.08C83.33 32.93 83.75 31.77 84.62 30.99C85.34 30.31 86.17 29.77 87.08 29.39C87.97 29.01 88.89 28.71 89.83 28.49C90.57 28.32 91.32 28.18 92.07 28.08C92.16 28.07 92.25 28.06 92.35 28.05C92.64 28.03 92.98 28.01 93.38 28C93.98 27.98 94.58 28.02 95.17 28.13C95.78 28.23 96.37 28.43 96.92 28.72C97.72 29.14 98.25 29.94 98.34 30.83C98.41 31.46 98.31 32.1 98.05 32.68C97.82 33.19 97.48 33.65 97.06 34.02C96.69 34.35 96.28 34.64 95.84 34.87C95.8 34.89 95.77 34.91 95.73 34.92C95.9 36.82 96.03 38.69 96.12 40.48C96.21 42.13 96.25 43.87 96.25 45.66C96.68 45.73 97.1 45.86 97.49 46.06C97.95 46.3 98.35 46.64 98.67 47.05C99.03 47.53 99.25 48.1 99.3 48.7C99.4 49.5 99.2 50.31 98.74 50.98C98.35 51.54 97.85 52.02 97.27 52.39C96.7 52.76 96.1 53.06 95.48 53.31C94.87 53.56 94.25 53.77 93.61 53.95C93 54.12 92.41 54.26 91.87 54.38C91.3 54.49 90.85 54.57 90.5 54.61C90.33 54.63 90.13 54.65 89.92 54.67Z" fill="#061C3F" fill-opacity="1.000000" fill-rule="nonzero"/>
		</g>
	</g>
	<g mask="url(#mask1_17274)">
		<g style="mix-blend-mode:normal">
			<path id="Path 15610" d="M112.86 51.93C111.95 52 111.05 51.79 110.27 51.33C109.59 50.94 108.98 50.44 108.44 49.87C107.93 49.32 107.47 48.73 107.06 48.1C106.72 47.56 106.43 47.08 106.19 46.63L106.18 47.14C106.17 47.65 106.14 48.16 106.07 48.67C106 49.23 105.86 49.78 105.66 50.31C105.41 50.96 104.98 51.52 104.42 51.92C104.11 52.14 103.77 52.29 103.41 52.38C103.31 52.41 103.18 52.44 103.05 52.49L102.89 52.54L102.59 52.57C101.78 52.65 100.96 52.41 100.32 51.9C99.79 51.47 99.34 50.95 99 50.35C98.66 49.75 98.37 49.12 98.16 48.46C97.95 47.82 97.77 47.18 97.63 46.55C97.48 45.93 97.37 45.34 97.29 44.8C97.21 44.27 97.16 43.85 97.12 43.54C97.07 43.04 97.02 42.35 96.96 41.42C96.91 40.48 96.89 39.43 96.91 38.3C96.93 37.17 96.99 35.99 97.09 34.8C97.19 33.62 97.38 32.46 97.68 31.32C97.94 30.29 98.37 29.31 98.96 28.42C99.59 27.46 100.61 26.83 101.75 26.71C102.78 26.63 103.85 26.93 104.66 27.58C105.35 28.12 105.97 28.76 106.49 29.48C107.01 30.18 107.45 30.93 107.83 31.71C108.04 32.15 108.23 32.53 108.39 32.88C108.4 32.81 108.4 32.75 108.4 32.69C108.4 32.07 108.44 31.43 108.5 30.8C108.56 30.13 108.7 29.47 108.9 28.84C109.11 28.2 109.43 27.61 109.87 27.1C110.4 26.49 111.14 26.11 111.95 26.05C112.87 25.97 113.82 26.27 114.51 26.88C115.09 27.4 115.58 28.03 115.92 28.73C116.29 29.45 116.57 30.2 116.78 30.98C116.99 31.74 117.17 32.5 117.31 33.24C117.45 33.98 117.55 34.68 117.62 35.32C117.68 35.94 117.73 36.44 117.75 36.79C117.78 37.27 117.81 37.91 117.82 38.77C117.84 39.61 117.82 40.56 117.77 41.57C117.73 42.59 117.63 43.65 117.49 44.73C117.36 45.77 117.14 46.81 116.84 47.81C116.56 48.74 116.13 49.61 115.56 50.4C114.94 51.27 113.93 51.83 112.86 51.93Z" fill="#061C3F" fill-opacity="1.000000" fill-rule="nonzero"/>
		</g>
	</g>
	<g mask="url(#mask1_17274)">
		<g style="mix-blend-mode:normal">
			<path id="Path 15611" d="M125.7 51.88C125.6 51.89 125.49 51.9 125.39 51.91C124.4 51.97 123.41 51.8 122.5 51.42C121.67 51.06 120.9 50.56 120.23 49.94C119.56 49.32 118.97 48.62 118.49 47.84C118.01 47.09 117.6 46.3 117.26 45.48C116.93 44.68 116.67 43.86 116.47 43.03C116.29 42.26 116.17 41.49 116.11 40.71C116.04 39.64 116.07 38.57 116.18 37.51C116.3 36.36 116.52 35.23 116.83 34.12C117.15 32.98 117.58 31.87 118.11 30.82C118.65 29.74 119.34 28.75 120.16 27.87C120.98 26.99 121.95 26.25 123.01 25.69C124.05 25.16 125.19 24.84 126.36 24.75C126.5 24.73 126.65 24.72 126.79 24.72C127.71 24.67 128.63 24.81 129.5 25.13C130.3 25.43 131.04 25.88 131.67 26.45C132.32 27.03 132.83 27.73 133.19 28.52C133.57 29.31 133.77 30.18 133.8 31.06L133.81 31.34C133.82 31.72 133.82 32.2 133.81 32.77C133.8 33.43 133.69 34.09 133.5 34.72C133.39 35.08 133.24 35.43 133.05 35.76C133.15 35.78 133.25 35.8 133.35 35.82C133.98 35.95 134.59 36.19 135.15 36.52C135.94 36.96 136.44 37.78 136.47 38.69C136.52 39.74 136.22 40.77 135.61 41.62C135.16 42.24 134.55 42.72 133.84 43C133.66 43.74 133.44 44.46 133.18 45.18C132.78 46.28 132.24 47.32 131.57 48.28C130.88 49.25 130.03 50.08 129.04 50.74C128.04 51.4 126.89 51.79 125.7 51.88ZM124.79 43.07C124.94 43.06 125.08 43.03 125.22 42.96C125.12 42.91 125.02 42.85 124.92 42.78C124.74 42.67 124.57 42.54 124.42 42.39C124.44 42.46 124.46 42.53 124.49 42.59C124.55 42.77 124.67 42.93 124.79 43.07ZM126.12 32.79C126.08 32.82 126.04 32.85 126 32.88C125.72 33.13 125.49 33.43 125.32 33.76C125.06 34.25 124.86 34.77 124.71 35.3C124.54 35.91 124.4 36.54 124.3 37.17C124.28 37.31 124.26 37.46 124.24 37.6C124.3 37.53 124.37 37.46 124.45 37.39C125.03 36.88 125.71 36.48 126.45 36.22C126.52 36.2 126.58 36.17 126.65 36.15C126.32 35.56 126.13 34.9 126.12 34.22C126.11 33.9 126.11 33.58 126.12 33.26C126.12 33.1 126.12 32.95 126.12 32.79Z" fill="#061C3F" fill-opacity="1.000000" fill-rule="nonzero"/>
		</g>
	</g>
	<g mask="url(#mask1_17274)">
		<g style="mix-blend-mode:normal">
			<path id="Path 15612" d="M32.81 58.82C32.92 59.3 33 59.78 33.06 60.26C33.13 60.82 33.13 61.38 33.06 61.93C33 62.45 32.84 62.95 32.58 63.4C32.32 63.84 31.89 64.15 31.39 64.26C30.75 64.47 30.05 64.33 29.54 63.89C29.01 63.42 28.57 62.85 28.26 62.21C27.9 61.51 27.61 60.79 27.38 60.04C27.15 59.29 26.96 58.69 26.82 58.24C25.45 58.86 24.09 59.45 22.75 60.01C22.83 60.47 22.9 61.05 22.96 61.74C23.01 62.44 22.99 63.13 22.9 63.82C22.81 64.48 22.61 65.12 22.31 65.71C22.04 66.25 21.54 66.65 20.96 66.81C20.53 66.95 20.07 66.88 19.71 66.62C19.33 66.33 19.01 65.98 18.76 65.58C18.49 65.15 18.26 64.69 18.09 64.21C17.92 63.72 17.79 63.31 17.69 62.98C17.37 61.88 17.15 60.76 17.01 59.63C16.88 58.5 16.79 57.35 16.71 56.22C16.68 55.63 16.64 54.92 16.63 54.1C16.61 53.28 16.64 52.43 16.7 51.54C16.77 50.64 16.88 49.74 17.06 48.85C17.22 47.99 17.48 47.15 17.83 46.35C18.15 45.61 18.6 44.93 19.16 44.35C19.71 43.77 20.42 43.37 21.19 43.17C21.89 42.96 22.64 42.94 23.36 43.12C24.03 43.31 24.66 43.62 25.22 44.04C25.81 44.5 26.34 45.03 26.78 45.63C27.24 46.24 27.67 46.89 28.05 47.56C28.42 48.22 28.77 48.88 29.07 49.53C29.38 50.19 29.65 50.76 29.89 51.27C30.48 52.47 31.03 53.71 31.54 54.96C32.05 56.22 32.47 57.51 32.81 58.82ZM25.15 53.19C25.09 52.96 24.97 52.58 24.8 52.05C24.62 51.51 24.41 50.99 24.17 50.49C23.95 50.01 23.66 49.57 23.31 49.18C23.08 48.85 22.67 48.69 22.27 48.78C22.07 48.84 21.91 49.02 21.8 49.33C21.68 49.7 21.61 50.08 21.59 50.46C21.55 50.94 21.55 51.42 21.57 51.9C21.59 52.42 21.63 52.91 21.67 53.38C21.71 53.85 21.76 54.27 21.82 54.64C21.88 55.02 21.92 55.28 21.94 55.45C23.12 55.02 24.27 54.55 25.38 54.04C25.29 53.7 25.24 53.53 25.15 53.19Z" fill="#FCF9EB" fill-opacity="1.000000" fill-rule="nonzero"/>
		</g>
	</g>
	<g mask="url(#mask1_17274)">
		<g style="mix-blend-mode:normal">
			<path id="Path 15613" d="M55.51 54.86C55.56 55.38 55.58 55.91 55.57 56.43C55.56 56.9 55.52 57.37 55.43 57.84C55.37 58.21 55.22 58.57 55.01 58.88C54.82 59.15 54.55 59.34 54.23 59.4C53.91 59.47 53.57 59.28 53.21 58.85C52.77 58.3 52.39 57.71 52.07 57.08C51.68 56.32 51.27 55.46 50.87 54.49C50.47 53.52 50.08 52.54 49.7 51.53C49.33 50.53 48.99 49.54 48.67 48.57C48.36 47.6 48.09 46.76 47.88 46.04C47.92 46.82 47.95 47.69 47.99 48.66C48.03 49.62 48.04 50.61 48.03 51.61C48.01 52.62 47.97 53.61 47.91 54.59C47.86 55.47 47.76 56.36 47.61 57.23C47.51 57.9 47.32 58.56 47.04 59.18C46.8 59.69 46.49 59.98 46.12 60.07C45.78 60.14 45.39 59.99 44.95 59.62C44.43 59.15 43.96 58.62 43.56 58.05C43.03 57.32 42.54 56.57 42.09 55.79C41.6 54.95 41.12 54.1 40.67 53.24C40.21 52.38 39.8 51.56 39.42 50.79C39.05 50.01 38.75 49.36 38.51 48.83C38.61 49.25 38.72 49.71 38.82 50.21C38.93 50.72 39.01 51.08 39.06 51.29C39.09 51.39 39.16 51.72 39.28 52.27C39.4 52.82 39.52 53.49 39.64 54.27C39.76 55.06 39.86 55.9 39.95 56.8C40.04 57.65 40.06 58.51 40.01 59.36C39.97 60.07 39.84 60.78 39.61 61.45C39.46 61.98 39.08 62.39 38.57 62.58C38.11 62.49 37.68 62.26 37.35 61.92C36.95 61.53 36.61 61.08 36.32 60.6C35.99 60.05 35.7 59.47 35.45 58.88C35.19 58.25 34.96 57.64 34.74 57.04C34.53 56.43 34.35 55.87 34.21 55.34C34.07 54.81 33.95 54.38 33.87 54.05C33.73 53.46 33.58 52.71 33.43 51.8C33.27 50.89 33.16 49.92 33.08 48.9C33 47.86 32.97 46.83 32.99 45.79C33.01 44.83 33.12 43.86 33.32 42.92C33.48 42.13 33.77 41.38 34.19 40.69C34.53 40.11 35.1 39.69 35.76 39.54C36.16 39.48 36.55 39.58 36.88 39.8C37.37 40.11 37.83 40.46 38.24 40.87C38.75 41.37 39.23 41.9 39.68 42.45C40.16 43.05 40.63 43.65 41.09 44.26C41.54 44.88 41.95 45.47 42.31 46.04C42.68 46.61 42.98 47.1 43.22 47.5C43.28 46.99 43.36 46.39 43.46 45.7C43.57 45.02 43.69 44.3 43.84 43.55C43.99 42.8 44.17 42.06 44.38 41.32C44.58 40.63 44.83 39.95 45.13 39.29C45.37 38.74 45.68 38.23 46.05 37.76C46.33 37.38 46.73 37.12 47.18 37C47.88 36.85 48.62 36.98 49.21 37.38C49.9 37.84 50.48 38.43 50.94 39.12C51.49 39.93 51.96 40.8 52.34 41.71C52.75 42.69 53.12 43.67 53.43 44.65C53.75 45.63 54.01 46.55 54.21 47.42C54.42 48.28 54.58 48.98 54.69 49.52C54.73 49.74 54.79 50.03 54.87 50.41C54.94 50.79 55.02 51.21 55.11 51.69C55.19 52.17 55.27 52.68 55.34 53.22C55.41 53.77 55.47 54.32 55.51 54.86Z" fill="#FCF9EB" fill-opacity="1.000000" fill-rule="nonzero"/>
		</g>
	</g>
	<g mask="url(#mask1_17274)">
		<g style="mix-blend-mode:normal">
			<path id="Path 15614" d="M72.95 50.48C73.02 50.96 73.07 51.44 73.08 51.93C73.1 52.49 73.05 53.05 72.93 53.6C72.83 54.11 72.63 54.59 72.33 55.02C72.03 55.44 71.58 55.71 71.07 55.77C70.42 55.92 69.73 55.72 69.26 55.25C68.77 54.73 68.39 54.12 68.13 53.46C67.84 52.73 67.61 51.99 67.44 51.22C67.28 50.45 67.14 49.84 67.04 49.38C65.63 49.88 64.22 50.35 62.84 50.79C62.89 51.25 62.91 51.84 62.9 52.54C62.89 53.23 62.81 53.92 62.66 54.6C62.52 55.25 62.27 55.86 61.91 56.42C61.6 56.94 61.07 57.3 60.47 57.41C60.04 57.51 59.58 57.4 59.25 57.11C58.9 56.79 58.61 56.41 58.39 55.99C58.16 55.54 57.98 55.06 57.85 54.57C57.72 54.07 57.62 53.65 57.55 53.31C57.33 52.19 57.2 51.05 57.17 49.91C57.13 48.77 57.14 47.63 57.16 46.49C57.18 45.9 57.21 45.19 57.26 44.37C57.31 43.56 57.41 42.71 57.55 41.83C57.69 40.93 57.89 40.05 58.14 39.18C58.37 38.34 58.7 37.53 59.12 36.76C59.5 36.05 60.01 35.41 60.62 34.88C61.22 34.35 61.95 34.01 62.74 33.88C63.46 33.73 64.21 33.78 64.9 34.02C65.55 34.26 66.16 34.63 66.67 35.1C67.22 35.6 67.7 36.18 68.09 36.81C68.5 37.46 68.86 38.14 69.18 38.84C69.5 39.54 69.78 40.22 70.03 40.9C70.28 41.58 70.51 42.18 70.7 42.7C71.18 43.95 71.62 45.23 72.02 46.52C72.42 47.82 72.73 49.14 72.95 50.48ZM65.82 44.21C65.78 43.97 65.69 43.58 65.57 43.03C65.44 42.49 65.27 41.95 65.08 41.43C64.9 40.93 64.65 40.47 64.34 40.05C64.13 39.7 63.74 39.51 63.34 39.56C63.09 39.64 62.9 39.83 62.82 40.07C62.67 40.43 62.56 40.8 62.51 41.18C62.43 41.65 62.39 42.13 62.37 42.61C62.35 43.12 62.34 43.62 62.34 44.09C62.34 44.57 62.35 44.99 62.38 45.36C62.41 45.74 62.42 46.01 62.43 46.17C63.64 45.85 64.82 45.48 65.97 45.07C65.91 44.73 65.88 44.55 65.82 44.21Z" fill="#FCF9EB" fill-opacity="1.000000" fill-rule="nonzero"/>
		</g>
	</g>
	<g mask="url(#mask1_17274)">
		<g style="mix-blend-mode:normal">
			<path id="Path 15615" d="M85.37 32.88C85.34 33.19 85.28 33.5 85.18 33.8C85.05 34.3 84.86 34.93 84.62 35.68C84.38 36.42 84.11 37.26 83.8 38.19C83.49 39.12 83.18 40.07 82.85 41.05C82.52 42.02 82.2 42.98 81.9 43.92C81.59 44.87 81.31 45.72 81.06 46.48C80.8 47.24 80.59 47.89 80.42 48.41C80.25 48.94 80.14 49.27 80.1 49.4C80.7 49.1 81.33 48.84 81.96 48.62C82.6 48.4 83.26 48.24 83.93 48.14C84.28 48.1 84.63 48.07 84.98 48.08C85.34 48.07 85.7 48.13 86.04 48.24C86.36 48.34 86.66 48.51 86.91 48.73C87.18 48.99 87.34 49.33 87.37 49.7C87.43 50.14 87.32 50.58 87.07 50.95C86.79 51.36 86.44 51.73 86.03 52.02C85.55 52.37 85.04 52.66 84.5 52.91C83.92 53.17 83.34 53.4 82.75 53.61C82.2 53.81 81.64 53.98 81.07 54.12C80.54 54.24 80.09 54.34 79.73 54.39C79.27 54.46 78.76 54.52 78.2 54.56C77.65 54.61 77.11 54.58 76.57 54.48C76.07 54.39 75.6 54.19 75.19 53.88C74.77 53.53 74.51 53.02 74.46 52.48C74.39 51.86 74.42 51.24 74.55 50.63C74.68 49.84 74.86 49.03 75.08 48.18C75.3 47.34 75.55 46.52 75.81 45.74C76.07 44.95 76.29 44.33 76.45 43.87C76.95 42.5 77.47 41.14 78 39.79C78.53 38.43 79.04 37.06 79.55 35.68C78.81 36.23 78.02 36.72 77.21 37.14C76.4 37.58 75.53 37.89 74.63 38.04C74.32 38.09 74.01 38.1 73.69 38.07C73.38 38.04 73.06 37.97 72.77 37.86C72.49 37.76 72.24 37.59 72.03 37.38C71.82 37.16 71.69 36.88 71.65 36.58C71.56 36.05 71.67 35.51 71.95 35.06C72.27 34.52 72.68 34.04 73.16 33.64C73.72 33.16 74.32 32.73 74.96 32.37C75.63 31.99 76.33 31.65 77.05 31.35C77.76 31.06 78.44 30.82 79.09 30.62C79.64 30.45 80.2 30.32 80.76 30.23C81.8 30.04 82.88 30.14 83.87 30.51C84.71 30.87 85.21 31.66 85.37 32.88Z" fill="#FCF9EB" fill-opacity="1.000000" fill-rule="nonzero"/>
		</g>
	</g>
	<g mask="url(#mask1_17274)">
		<g style="mix-blend-mode:normal">
			<path id="Path 15616" d="M96.83 30.99C96.87 31.35 96.82 31.72 96.67 32.05C96.52 32.37 96.31 32.66 96.05 32.89C95.77 33.14 95.46 33.36 95.13 33.53C94.81 33.7 94.47 33.84 94.13 33.95C94.34 36.22 94.5 38.42 94.61 40.55C94.72 42.68 94.76 44.88 94.73 47.16L94.92 47.14C95.24 47.11 95.57 47.1 95.89 47.14C96.2 47.17 96.51 47.26 96.79 47.4C97.05 47.54 97.29 47.73 97.47 47.97C97.66 48.23 97.77 48.54 97.8 48.86C97.85 49.31 97.74 49.75 97.49 50.12C97.21 50.52 96.85 50.86 96.43 51.12C95.95 51.43 95.44 51.7 94.91 51.91C94.35 52.13 93.78 52.33 93.2 52.49C92.63 52.65 92.08 52.79 91.56 52.89C91.04 53 90.62 53.07 90.3 53.11C90.06 53.14 89.76 53.17 89.41 53.19C89.07 53.22 88.72 53.2 88.39 53.14C88.08 53.09 87.79 52.97 87.53 52.8C87.28 52.62 87.11 52.34 87.09 52.03C87.03 51.64 87.07 51.24 87.19 50.87C87.32 50.51 87.52 50.18 87.76 49.89C88.01 49.59 88.31 49.34 88.64 49.13C88.96 48.93 89.31 48.76 89.67 48.63C89.67 47.51 89.67 46.4 89.65 45.29C89.64 44.18 89.58 43.06 89.48 41.93L89.18 38.53L88.89 35.15C88.75 35.19 88.61 35.22 88.49 35.25C88.36 35.28 88.25 35.3 88.14 35.31C87.83 35.35 87.51 35.36 87.19 35.34C86.86 35.32 86.53 35.26 86.21 35.15C85.91 35.04 85.64 34.89 85.4 34.69C85.17 34.48 85.02 34.19 84.99 33.88C84.9 33.21 85.15 32.53 85.67 32.08C86.25 31.53 86.94 31.09 87.68 30.78C88.48 30.43 89.32 30.16 90.17 29.97C90.85 29.8 91.55 29.68 92.24 29.58C92.54 29.55 92.93 29.52 93.42 29.51C93.92 29.49 94.41 29.53 94.9 29.62C95.35 29.69 95.79 29.84 96.2 30.05C96.56 30.23 96.8 30.59 96.83 30.99Z" fill="#FCF9EB" fill-opacity="1.000000" fill-rule="nonzero"/>
		</g>
	</g>
	<g mask="url(#mask1_17274)">
		<g style="mix-blend-mode:normal">
			<path id="Path 15617" d="M116.24 36.9C116.27 37.34 116.29 37.97 116.31 38.79C116.32 39.61 116.31 40.52 116.26 41.5C116.22 42.49 116.13 43.5 115.99 44.53C115.88 45.49 115.68 46.44 115.39 47.36C115.17 48.12 114.82 48.84 114.35 49.49C113.98 50.02 113.39 50.37 112.74 50.42C112.14 50.47 111.54 50.33 111.03 50.02C110.48 49.7 109.98 49.3 109.55 48.84C109.1 48.36 108.69 47.83 108.34 47.28C107.98 46.72 107.68 46.21 107.43 45.74C106.91 44.75 106.39 43.78 105.87 42.82C105.34 41.87 104.84 40.89 104.35 39.9C104.38 40.24 104.39 40.41 104.43 40.75C104.51 41.61 104.58 42.47 104.65 43.33C104.72 44.19 104.73 45.05 104.69 45.9C104.68 46.24 104.67 46.65 104.67 47.11C104.66 47.57 104.63 48.02 104.57 48.47C104.51 48.91 104.4 49.34 104.24 49.76C104.11 50.12 103.87 50.45 103.55 50.68C103.4 50.78 103.24 50.86 103.07 50.91C102.92 50.94 102.75 50.99 102.57 51.05C102.13 51.1 101.6 50.98 101.25 50.71C100.87 50.4 100.55 50.02 100.31 49.59C100.02 49.08 99.78 48.54 99.6 47.98C99.4 47.38 99.24 46.79 99.1 46.2C98.97 45.62 98.86 45.08 98.79 44.57C98.72 44.07 98.66 43.67 98.63 43.37C98.58 42.91 98.53 42.23 98.47 41.33C98.42 40.43 98.4 39.43 98.42 38.33C98.44 37.23 98.5 36.09 98.6 34.92C98.69 33.84 98.87 32.76 99.14 31.71C99.35 30.85 99.71 30.03 100.21 29.28C100.58 28.69 101.2 28.29 101.9 28.22C102.56 28.15 103.22 28.35 103.73 28.77C104.32 29.23 104.84 29.77 105.27 30.37C105.73 31 106.13 31.67 106.47 32.37C106.81 33.07 107.09 33.65 107.32 34.12C107.76 35.04 108.18 35.95 108.6 36.86C109.01 37.76 109.41 38.69 109.8 39.63C109.82 39.67 109.88 39.78 109.95 39.96C110.03 40.13 110.12 40.33 110.22 40.54C110.32 40.77 110.45 41.04 110.6 41.33C110.57 41.07 110.55 40.88 110.54 40.77C110.52 40.67 110.5 40.56 110.49 40.47C110.49 40.38 110.48 40.27 110.47 40.13C110.46 39.98 110.44 39.76 110.41 39.46C110.35 38.81 110.27 38.13 110.2 37.47C110.14 36.8 110.08 36.15 110.03 35.5C110.01 35.22 109.98 34.83 109.95 34.32C109.92 33.82 109.91 33.28 109.91 32.7C109.92 32.12 109.95 31.53 110.01 30.94C110.06 30.39 110.17 29.84 110.34 29.31C110.48 28.87 110.71 28.45 111.01 28.09C111.29 27.77 111.68 27.57 112.11 27.55C112.62 27.5 113.13 27.68 113.52 28.02C113.96 28.42 114.32 28.89 114.58 29.42C114.89 30.05 115.14 30.7 115.32 31.38C115.52 32.1 115.69 32.82 115.82 33.52C115.95 34.22 116.05 34.87 116.11 35.47C116.17 36.08 116.22 36.55 116.24 36.9Z" fill="#FCF9EB" fill-opacity="1.000000" fill-rule="nonzero"/>
		</g>
	</g>
	<g mask="url(#mask1_17274)">
		<g style="mix-blend-mode:normal">
			<path id="Path 15618" d="M132.54 41.79C132.37 42.77 132.11 43.73 131.76 44.66C131.41 45.63 130.93 46.55 130.33 47.4C129.75 48.22 129.03 48.92 128.2 49.48C127.34 50.04 126.34 50.36 125.32 50.39C124.56 50.44 123.8 50.32 123.1 50.03C122.42 49.73 121.8 49.33 121.26 48.83C120.68 48.3 120.18 47.69 119.77 47.03C119.34 46.35 118.97 45.64 118.66 44.9C118.36 44.18 118.12 43.44 117.94 42.68C117.78 42 117.67 41.3 117.62 40.6C117.56 39.62 117.58 38.64 117.69 37.66C117.8 36.6 118 35.55 118.29 34.52C118.58 33.48 118.97 32.47 119.46 31.5C119.93 30.55 120.54 29.68 121.26 28.9C121.97 28.15 122.8 27.52 123.72 27.04C124.69 26.54 125.77 26.26 126.86 26.23C127.58 26.19 128.29 26.3 128.96 26.55C129.59 26.78 130.17 27.13 130.66 27.57C131.15 28.02 131.55 28.56 131.82 29.16C132.11 29.77 132.27 30.43 132.29 31.11C132.29 31.22 132.29 31.28 132.3 31.38C132.31 31.75 132.31 32.2 132.3 32.74C132.29 33.26 132.2 33.78 132.05 34.28C131.91 34.75 131.67 35.19 131.34 35.56C130.98 35.95 130.48 36.16 129.95 36.15C129.36 36.22 128.76 36.07 128.27 35.73C127.88 35.43 127.67 34.9 127.63 34.15C127.62 33.87 127.62 33.59 127.63 33.3C127.64 33.02 127.63 32.73 127.62 32.45C127.63 32.11 127.53 31.77 127.36 31.47C127.2 31.25 126.89 31.15 126.42 31.17C125.91 31.19 125.41 31.38 125.02 31.72C124.59 32.1 124.24 32.55 123.98 33.05C123.68 33.63 123.43 34.25 123.26 34.88C123.07 35.55 122.91 36.24 122.8 36.93C122.7 37.58 122.63 38.24 122.6 38.9C122.57 39.53 122.57 40.07 122.6 40.51C122.62 40.87 122.66 41.29 122.73 41.76C122.79 42.23 122.91 42.68 123.07 43.12C123.21 43.52 123.43 43.88 123.73 44.19C124.01 44.48 124.4 44.62 124.8 44.59C125.47 44.58 126.1 44.3 126.55 43.82C127 43.31 127.29 42.69 127.4 42.03C127.11 42 126.82 41.95 126.54 41.87C126.26 41.8 125.99 41.68 125.74 41.52C125.5 41.36 125.29 41.15 125.14 40.91C124.69 40.14 124.82 39.16 125.45 38.53C125.89 38.14 126.41 37.84 126.96 37.65C127.55 37.44 128.15 37.29 128.77 37.22C129.39 37.14 129.89 37.09 130.27 37.08C130.54 37.07 130.94 37.07 131.46 37.1C131.99 37.12 132.51 37.18 133.02 37.3C133.49 37.4 133.95 37.57 134.37 37.82C134.71 37.99 134.94 38.35 134.96 38.74C134.99 39.45 134.79 40.16 134.38 40.75C133.94 41.33 133.27 41.71 132.54 41.79Z" fill="#FCF9EB" fill-opacity="1.000000" fill-rule="nonzero"/>
		</g>
	</g>
</svg>
