<svg width="184.659058" height="165.732910" viewBox="0 0 184.659 165.733" fill="none" xmlns="http://www.w3.org/2000/svg" xmlns:xlink="http://www.w3.org/1999/xlink">
	<desc>
			Created with Pixso.
	</desc>
	<defs/>
	<mask id="mask1_17201" mask-type="alpha" maskUnits="userSpaceOnUse" x="0.000000" y="0.000000" width="184.658936" height="165.732910">
		<g style="mix-blend-mode:normal">
			<rect id="Rectangle 2644" x="43.999512" width="151.706100" height="117.455444" transform="rotate(22 43.999512 0.000000)" fill="#C4C4C4" fill-opacity="1.000000"/>
		</g>
	</mask>
	<g mask="url(#mask1_17201)">
		<g style="mix-blend-mode:normal">
			<path id="Path 15619" d="M54.31 46.72C54.55 46.69 54.78 46.63 55 46.55C57.14 45.77 58.78 44.01 60.08 42.14C64.14 36.36 64 32.08 63.11 25.44C62.76 22.79 62.56 20.11 62.25 17.44C62.03 15.6 61.54 13.75 61.12 11.89C61.06 11.61 61.24 11.33 61.52 11.27C61.73 11.22 61.94 11.3 62.06 11.48C62.51 12.11 62.99 12.72 63.46 13.34C64.56 14.77 65.39 16.5 66.32 18.06C68.38 21.49 70.49 24.89 72.64 28.26C76.45 34.24 80.89 40.57 87.03 44.4C88.58 45.37 90.29 46.19 92.11 46.36C97.29 46.83 104.97 42.24 109.1 37.46C109.76 36.72 110.89 36.65 111.63 37.3C111.92 37.57 112.13 37.92 112.2 38.32C112.49 39.94 112.93 41.53 113.51 43.07C114.64 46.49 116.17 49.95 118.94 52.24C123.66 56.14 128.91 56.66 134.57 54.69C141.43 52.3 148.1 49.38 154.51 45.95C155.12 45.63 155.88 45.85 156.21 46.47C156.48 46.96 156.38 47.57 155.98 47.96C154.43 49.46 152.9 50.97 151.45 52.55C147.88 56.46 144.75 61.01 143.71 66.2C142.24 73.5 147.77 78.98 154.61 79.96C155.48 80.1 156.08 80.92 155.95 81.79C155.91 82.05 155.8 82.29 155.65 82.5C153.82 84.9 152.41 87.59 151.46 90.45C148.44 99.98 153 106.88 160.23 111.68C161.01 112.2 161.22 113.26 160.69 114.04C160.44 114.42 160.04 114.69 159.59 114.77C154.04 115.84 148.74 117.51 143.7 120.33C137.86 123.61 136.72 132.62 137.12 138.66C137.42 143.32 138.64 147.85 140.11 152.3C140.3 152.85 140 153.44 139.45 153.63C139.04 153.77 138.58 153.63 138.3 153.29L131.32 144.6C129.42 142.22 127.45 139.79 124.81 138.27C119.56 135.25 112.19 137.06 108.64 141.88C108.19 142.48 107.33 142.59 106.74 142.13C106.62 142.05 106.52 141.94 106.44 141.82C103.75 138.02 100.82 134.4 97.66 130.97C94.42 127.44 89.69 125.44 84.93 125.21C80.59 125.01 75.22 126.55 71.65 129.03C70.99 129.48 70.09 129.31 69.64 128.66C69.5 128.46 69.42 128.23 69.4 127.99C68.52 119.79 63.52 113.64 54.61 112.06C49.68 111.19 44.61 111.87 39.69 112.85C34.33 113.91 29.04 115.32 23.85 117.06C23.26 117.26 22.62 116.95 22.42 116.35C22.27 115.93 22.39 115.47 22.71 115.16C27.04 111.1 30.78 106.45 33.83 101.34C35.28 98.91 36.6 96.27 36.7 93.43C36.87 88.88 33.93 84.86 30.98 81.38C28.11 77.98 25.1 74.7 21.95 71.54C21.37 70.96 21.38 70.02 21.96 69.44C22.28 69.13 22.72 68.97 23.17 69.02C26.28 69.33 29.4 69.23 32.29 68.11C39 65.51 43.82 56.9 43.23 49.81C43.02 47.26 42.13 44.82 41.2 42.41C41.09 42.12 41.24 41.79 41.53 41.68C41.74 41.6 41.98 41.65 42.14 41.81C43.68 43.4 45.58 44.61 47.68 45.33C49.82 46.05 51.98 47.09 54.31 46.72Z" fill="#FCD100" fill-opacity="1.000000" fill-rule="nonzero"/>
		</g>
	</g>
	<g mask="url(#mask1_17201)">
		<g style="mix-blend-mode:normal">
			<path id="Path 15620" d="M59.11 49.71C60.14 48.85 61.08 47.91 61.93 46.88C62.78 45.86 63.56 44.78 64.27 43.65C64.99 42.53 65.65 41.37 66.24 40.18C66.82 38.97 67.34 37.74 67.78 36.47C67.83 36.32 68 36.24 68.15 36.3C68.27 36.34 68.35 36.46 68.34 36.6C68.18 37.99 67.83 39.35 67.31 40.65C67.05 41.3 66.76 41.94 66.44 42.56C66.11 43.18 65.76 43.78 65.38 44.37C64.62 45.55 63.75 46.65 62.78 47.66C61.8 48.67 60.67 49.52 59.42 50.17C59.28 50.24 59.11 50.19 59.04 50.05C58.98 49.93 59.01 49.79 59.11 49.71Z" fill="#FCF9EB" fill-opacity="1.000000" fill-rule="nonzero"/>
		</g>
	</g>
	<g mask="url(#mask1_17201)">
		<g style="mix-blend-mode:normal">
			<path id="Path 15621" d="M42.07 66.48C42.42 65.83 42.8 65.21 43.17 64.59L44.28 62.74C44.64 62.12 44.99 61.49 45.34 60.86C45.69 60.23 46.03 59.59 46.4 58.95C46.5 58.77 46.73 58.71 46.91 58.81C47.05 58.89 47.12 59.05 47.09 59.21C46.93 59.95 46.71 60.67 46.42 61.37C46.13 62.07 45.8 62.75 45.42 63.4C45.04 64.06 44.61 64.68 44.14 65.27C43.67 65.87 43.13 66.4 42.54 66.88C42.4 66.99 42.2 66.96 42.1 66.83C42.02 66.73 42.01 66.59 42.07 66.48Z" fill="#FCF9EB" fill-opacity="1.000000" fill-rule="nonzero"/>
		</g>
	</g>
	<g mask="url(#mask1_17201)">
		<g style="mix-blend-mode:normal">
			<path id="Path 15622" d="M37.02 70.87C37.18 70.63 37.36 70.41 37.57 70.22C37.76 70.03 37.97 69.85 38.19 69.68C38.4 69.52 38.63 69.37 38.86 69.23C39.11 69.08 39.37 68.97 39.64 68.88C39.85 68.81 40.08 68.93 40.15 69.14C40.18 69.24 40.17 69.34 40.13 69.43C40 69.7 39.83 69.95 39.63 70.16C39.23 70.59 38.76 70.94 38.24 71.19C37.97 71.33 37.69 71.42 37.39 71.47C37.18 71.49 36.99 71.35 36.96 71.14C36.94 71.05 36.97 70.95 37.02 70.87Z" fill="#FCF9EB" fill-opacity="1.000000" fill-rule="nonzero"/>
		</g>
	</g>
	<g mask="url(#mask1_17201)">
		<g style="mix-blend-mode:normal">
			<path id="Path 15623" d="M146.11 98.09C146.43 98.93 146.69 99.75 146.95 100.56C147.22 101.37 147.48 102.17 147.76 102.97C148.05 103.77 148.35 104.56 148.66 105.36C148.98 106.16 149.31 106.96 149.62 107.81C149.7 108.02 149.59 108.26 149.37 108.34C149.23 108.39 149.08 108.36 148.96 108.26C148.27 107.64 147.67 106.93 147.16 106.15C146.65 105.37 146.22 104.54 145.88 103.67C145.53 102.8 145.29 101.9 145.16 100.97C145.01 100.05 145.01 99.11 145.15 98.18C145.2 97.91 145.46 97.73 145.73 97.77C145.9 97.8 146.05 97.93 146.11 98.09Z" fill="#FCF9EB" fill-opacity="1.000000" fill-rule="nonzero"/>
		</g>
	</g>
	<g mask="url(#mask1_17201)">
		<g style="mix-blend-mode:normal">
			<path id="Path 15624" d="M141.42 77.06C141.9 77.5 142.33 77.94 142.78 78.38C143.21 78.82 143.66 79.24 144.11 79.66C144.57 80.08 145.03 80.48 145.51 80.88L146.95 82.09C147.12 82.23 147.15 82.48 147.01 82.64C146.9 82.77 146.72 82.82 146.56 82.76C145.94 82.53 145.35 82.22 144.79 81.86C144.23 81.5 143.7 81.09 143.22 80.63C142.72 80.19 142.27 79.69 141.88 79.15C141.48 78.62 141.14 78.04 140.89 77.42C140.83 77.25 140.91 77.06 141.08 76.99C141.2 76.94 141.33 76.97 141.42 77.06Z" fill="#FCF9EB" fill-opacity="1.000000" fill-rule="nonzero"/>
		</g>
	</g>
	<g mask="url(#mask1_17201)">
		<g style="mix-blend-mode:normal">
			<path id="Path 15625" d="M132.48 60.14C132.89 59.91 133.31 59.71 133.75 59.54C134.17 59.37 134.6 59.22 135.03 59.08C135.46 58.93 135.89 58.81 136.34 58.7C136.8 58.58 137.27 58.51 137.74 58.49C137.93 58.49 138.09 58.64 138.1 58.83C138.1 58.94 138.05 59.05 137.96 59.12C137.58 59.4 137.17 59.64 136.74 59.84C135.88 60.25 134.96 60.52 134.02 60.63C133.54 60.69 133.05 60.69 132.57 60.63C132.43 60.61 132.33 60.47 132.35 60.33C132.36 60.25 132.41 60.18 132.48 60.14Z" fill="#FCF9EB" fill-opacity="1.000000" fill-rule="nonzero"/>
		</g>
	</g>
	<g mask="url(#mask1_17201)">
		<g style="mix-blend-mode:normal">
			<path id="Path 15626" d="M127.89 60.18C128.12 60.1 128.36 60.05 128.6 60.02C128.83 59.99 129.07 59.97 129.3 59.97C129.53 59.96 129.77 59.98 130 60.01C130.25 60.05 130.49 60.13 130.71 60.24C130.91 60.35 130.99 60.6 130.89 60.8C130.86 60.86 130.81 60.91 130.75 60.95C130.53 61.09 130.29 61.19 130.03 61.24C129.78 61.29 129.54 61.31 129.29 61.3C129.04 61.29 128.79 61.26 128.55 61.21C128.3 61.16 128.05 61.07 127.82 60.96C127.62 60.85 127.54 60.59 127.65 60.38C127.7 60.29 127.79 60.22 127.89 60.18Z" fill="#FCF9EB" fill-opacity="1.000000" fill-rule="nonzero"/>
		</g>
	</g>
	<g mask="url(#mask1_17201)">
		<g style="mix-blend-mode:normal">
			<path id="Path 15627" d="M96.58 50.62C97.37 50.26 98.15 49.94 98.93 49.61C99.71 49.28 100.47 48.93 101.25 48.59C102.01 48.25 102.78 47.88 103.54 47.52C104.31 47.15 105.08 46.77 105.87 46.42C106.01 46.36 106.18 46.42 106.24 46.56C106.29 46.67 106.27 46.8 106.18 46.88C105.53 47.48 104.84 48.02 104.1 48.5C103.36 48.98 102.59 49.41 101.8 49.79C101 50.17 100.18 50.49 99.33 50.73C98.48 50.99 97.6 51.14 96.71 51.18C96.55 51.19 96.42 51.06 96.41 50.9C96.4 50.78 96.47 50.67 96.58 50.62Z" fill="#FCF9EB" fill-opacity="1.000000" fill-rule="nonzero"/>
		</g>
	</g>
	<g mask="url(#mask1_17201)">
		<g style="mix-blend-mode:normal">
			<path id="Path 15628" d="M89.18 50.44C89.57 50.44 89.95 50.47 90.32 50.51C90.69 50.54 91.05 50.58 91.42 50.62C91.78 50.66 92.14 50.7 92.51 50.75C92.89 50.8 93.27 50.87 93.63 50.96C93.85 51.02 93.98 51.24 93.92 51.45C93.89 51.57 93.8 51.67 93.68 51.72C93.29 51.86 92.89 51.94 92.48 51.97C92.07 52 91.67 51.99 91.26 51.94C90.86 51.89 90.46 51.8 90.07 51.67C89.68 51.55 89.31 51.39 88.96 51.18C88.78 51.06 88.72 50.81 88.83 50.63C88.91 50.51 89.04 50.44 89.18 50.44Z" fill="#FCF9EB" fill-opacity="1.000000" fill-rule="nonzero"/>
		</g>
	</g>
	<g mask="url(#mask1_17201)">
		<g style="mix-blend-mode:normal">
			<path id="Path 15629" d="M160.22 111.68C159.76 111.37 159.32 111.06 158.88 110.73C158.13 110.66 157.41 110.41 156.77 110.02C156.93 110.14 157.02 110.22 157.18 110.33C157.88 110.74 158.11 111.64 157.7 112.35C157.46 112.74 157.06 113.01 156.6 113.06C151.37 113.78 146.38 115.04 141.65 117.34C136.17 120.01 135.13 128.02 135.53 133.43C135.8 137.1 136.72 140.7 137.9 144.26C137.51 142.41 137.25 140.54 137.12 138.65C136.72 132.62 137.86 123.61 143.7 120.33C148.73 117.51 154.04 115.84 159.59 114.77C160.51 114.6 161.12 113.71 160.95 112.78C160.87 112.33 160.6 111.94 160.22 111.68Z" fill="#E62B57" fill-opacity="1.000000" fill-rule="nonzero"/>
		</g>
	</g>
	<g mask="url(#mask1_17201)">
		<g style="mix-blend-mode:normal">
			<path id="Path 15630" d="M36.7 93.43C36.6 96.13 35.4 98.66 34.03 101C35.5 99.27 36.85 97.44 38.07 95.53C39.43 93.42 40.66 91.12 40.75 88.59C40.89 84.52 38.09 80.8 35.31 77.56C32.81 74.66 30.21 71.84 27.5 69.12C26.06 69.21 24.61 69.17 23.17 69.02C22.35 68.93 21.62 69.52 21.53 70.34C21.48 70.78 21.64 71.22 21.95 71.54C25.09 74.7 28.1 77.98 30.98 81.38C33.93 84.86 36.87 88.88 36.7 93.43Z" fill="#E62B57" fill-opacity="1.000000" fill-rule="nonzero"/>
		</g>
	</g>
	<g mask="url(#mask1_17201)">
		<g style="mix-blend-mode:normal">
			<path id="Path 15631" d="M138.39 146.43C138.13 146.92 137.53 147.11 137.03 146.85C136.91 146.78 136.79 146.69 136.71 146.57L130.1 138.49C128.29 136.28 126.43 134.03 123.93 132.55C118.97 129.62 112.04 130.92 108.72 135.07C108.2 135.71 107.15 135.62 106.64 134.92C104.08 131.39 101.31 128.02 98.33 124.83C95.26 121.53 90.8 119.54 86.31 119.12C82.22 118.75 77.17 119.89 73.82 121.95C73.13 122.35 72.26 122.11 71.86 121.42C71.78 121.27 71.72 121.1 71.69 120.92C70.83 113.55 66.1 107.84 57.7 106.03C53.05 105.03 48.27 105.42 43.65 106.08C38.62 106.79 33.64 107.82 28.74 109.15C28.6 109.19 28.46 109.2 28.31 109.18C26.57 111.29 24.7 113.29 22.71 115.16C22.25 115.59 22.23 116.31 22.67 116.77C22.97 117.09 23.43 117.2 23.85 117.06C29.04 115.32 34.33 113.91 39.69 112.85C44.61 111.87 49.68 111.19 54.61 112.06C63.52 113.64 68.52 119.79 69.4 127.99C69.48 128.78 70.19 129.36 70.98 129.28C71.22 129.25 71.45 129.17 71.65 129.03C75.22 126.55 80.59 125 84.93 125.21C89.69 125.44 94.42 127.44 97.67 130.97C100.82 134.4 103.75 138.02 106.44 141.82C106.86 142.44 107.71 142.6 108.33 142.18C108.45 142.1 108.55 142 108.64 141.88C112.19 137.06 119.56 135.25 124.81 138.27C127.45 139.79 129.42 142.22 131.32 144.6L138.3 153.29C138.66 153.74 139.33 153.81 139.78 153.45C140.12 153.17 140.25 152.71 140.11 152.3C139.47 150.36 138.88 148.4 138.39 146.43Z" fill="#E62B57" fill-opacity="1.000000" fill-rule="nonzero"/>
		</g>
	</g>
	<g mask="url(#mask1_17201)">
		<g style="mix-blend-mode:normal">
			<path id="Path 15632" d="M22.78 117.74C22.4 117.58 22.08 117.3 21.87 116.95C21.41 116.19 21.54 115.21 22.2 114.62C26.48 110.6 30.18 106 33.19 100.96C34.5 98.76 35.86 96.14 35.96 93.41C36.11 89.2 33.38 85.37 30.41 81.86C27.56 78.49 24.54 75.2 21.42 72.07C20.55 71.2 20.56 69.78 21.43 68.91C21.91 68.44 22.57 68.21 23.24 68.28C26.78 68.63 29.57 68.36 32.02 67.41C38.17 65.03 43.06 56.83 42.49 49.87C42.29 47.47 41.44 45.09 40.51 42.68C40.25 42 40.58 41.24 41.26 40.98C41.75 40.79 42.3 40.91 42.67 41.28C44.13 42.79 45.93 43.94 47.92 44.62C48.3 44.75 48.67 44.88 49.04 45.02C50.8 45.65 52.46 46.25 54.2 45.98C54.38 45.96 54.56 45.91 54.74 45.85C56.4 45.24 57.95 43.89 59.47 41.71C63.44 36.05 63.22 31.83 62.38 25.54C62.17 24 62.01 22.43 61.87 20.92C61.76 19.81 61.64 18.66 61.51 17.53C61.31 16.1 61.03 14.68 60.68 13.28C60.58 12.87 60.49 12.46 60.39 12.05C60.24 11.37 60.67 10.69 61.36 10.54C61.86 10.42 62.38 10.62 62.67 11.04C63.1 11.64 63.54 12.21 64.01 12.82C64.77 13.86 65.5 15.03 66.1 16.17C66.38 16.67 66.67 17.19 66.96 17.67C69.01 21.08 71.13 24.51 73.27 27.86C76.89 33.54 81.28 39.92 87.43 43.76C89.23 44.89 90.74 45.48 92.18 45.61C97.11 46.06 104.62 41.51 108.54 36.97C109.16 36.24 110.16 35.94 111.08 36.19C112.03 36.44 112.75 37.21 112.93 38.17C113.22 39.75 113.64 41.3 114.2 42.8C115.17 45.71 116.65 49.38 119.42 51.66C123.72 55.22 128.59 55.98 134.32 53.98C141.15 51.61 147.78 48.7 154.16 45.29C155.04 44.8 156.14 45.06 156.72 45.88C157.33 46.68 157.23 47.81 156.5 48.5C155.11 49.84 153.5 51.42 152 53.06C147.79 57.67 145.32 62.02 144.44 66.35C143.84 69.07 144.41 71.92 146.02 74.2C147.9 76.87 151.07 78.7 154.71 79.23C155.53 79.34 156.22 79.88 156.53 80.64C156.85 81.4 156.75 82.28 156.25 82.95C154.47 85.28 153.09 87.89 152.17 90.68C149.61 98.76 152.45 105.62 160.64 111.06C161.47 111.6 161.89 112.6 161.68 113.57C161.49 114.55 160.72 115.32 159.73 115.5C153.6 116.69 148.62 118.43 144.07 120.98C138.84 123.92 137.43 132.01 137.86 138.61C138.19 143.63 139.62 148.43 140.82 152.06C141.14 153 140.63 154.02 139.69 154.33C138.98 154.57 138.19 154.34 137.72 153.75L130.74 145.06C128.9 142.77 126.99 140.39 124.44 138.92C119.61 136.14 112.65 137.7 109.24 142.32C108.85 142.86 108.22 143.17 107.56 143.16C106.87 143.15 106.22 142.81 105.83 142.25C103.16 138.48 100.25 134.88 97.12 131.48C94.1 128.2 89.64 126.19 84.9 125.96C80.69 125.76 75.54 127.24 72.07 129.64C71.08 130.33 69.71 130.08 69.03 129.08C68.82 128.78 68.69 128.43 68.65 128.07C67.77 119.8 62.6 114.24 54.48 112.8C49.5 111.91 44.29 112.7 39.84 113.58C34.51 114.64 29.25 116.04 24.09 117.77C23.67 117.91 23.2 117.9 22.78 117.74ZM42.18 42.89C43.04 45.16 43.78 47.4 43.97 49.75C44.61 57.43 39.38 66.16 32.56 68.8C29.88 69.84 26.88 70.14 23.09 69.76C22.77 69.72 22.47 69.89 22.33 70.18C22.2 70.46 22.25 70.8 22.48 71.02C25.63 74.17 28.68 77.5 31.55 80.9C34.72 84.64 37.62 88.75 37.45 93.46C37.34 96.53 35.88 99.36 34.47 101.73C31.39 106.89 27.6 111.59 23.22 115.71C23.08 115.82 23.05 116.03 23.15 116.18C23.24 116.35 23.44 116.42 23.62 116.35C28.83 114.6 34.15 113.19 39.55 112.11C44.13 111.21 49.52 110.4 54.74 111.33C63.56 112.89 69.18 118.94 70.14 127.91C70.16 128.16 70.32 128.37 70.55 128.48C70.76 128.58 71.02 128.56 71.22 128.42C74.94 125.84 80.46 124.25 84.97 124.47C90.1 124.71 94.93 126.9 98.21 130.47C101.39 133.92 104.34 137.56 107.05 141.39C107.17 141.56 107.36 141.66 107.57 141.67C107.76 141.67 107.93 141.59 108.04 141.44C111.88 136.23 119.73 134.49 125.18 137.62C127.98 139.24 130.06 141.83 131.91 144.13L138.88 152.82C138.97 152.95 139.14 152.98 139.26 152.9C139.4 152.83 139.47 152.67 139.41 152.53C138.17 148.82 136.71 143.89 136.38 138.7C135.91 131.65 137.5 122.95 143.34 119.68C147.97 117.08 153.24 115.24 159.45 114.04C159.84 113.97 160.14 113.66 160.22 113.28C160.3 112.9 160.14 112.51 159.81 112.3C151.13 106.53 148 98.89 150.75 90.22C151.72 87.28 153.17 84.52 155.05 82.05C155.23 81.81 155.27 81.49 155.15 81.21C155.04 80.94 154.79 80.74 154.5 80.7C150.46 80.12 146.92 78.06 144.8 75.06C142.95 72.45 142.29 69.18 142.98 66.05C143.91 61.45 146.49 56.87 150.89 52.05C152.42 50.38 154.05 48.78 155.46 47.42C155.65 47.25 155.68 46.96 155.51 46.76C155.37 46.54 155.09 46.47 154.86 46.61C148.42 50.06 141.71 52.99 134.81 55.39C128.63 57.54 123.14 56.67 118.46 52.81C115.41 50.29 113.84 46.42 112.8 43.32C112.21 41.74 111.77 40.11 111.47 38.46C111.39 38.05 111.09 37.73 110.7 37.63C110.32 37.52 109.92 37.65 109.67 37.95C105.52 42.74 97.6 47.61 92.04 47.1C90.36 46.94 88.65 46.29 86.63 45.03C80.22 41.03 75.72 34.48 72.01 28.66C69.86 25.3 67.73 21.86 65.68 18.44C65.38 17.94 65.08 17.41 64.8 16.9C64.23 15.82 63.59 14.78 62.87 13.8C62.63 13.48 62.34 13.1 62.09 12.77C62.11 12.83 62.12 12.88 62.13 12.94C62.5 14.39 62.79 15.87 62.99 17.35C63.13 18.49 63.24 19.65 63.35 20.77C63.5 22.27 63.65 23.83 63.85 25.34C64.72 31.8 64.97 36.48 60.7 42.57C58.99 45 57.21 46.53 55.25 47.25C54.99 47.35 54.71 47.42 54.43 47.46C52.31 47.79 50.39 47.09 48.53 46.42C48.17 46.29 47.81 46.15 47.44 46.03C45.49 45.37 43.69 44.3 42.18 42.89Z" fill="#061C3F" fill-opacity="1.000000" fill-rule="nonzero"/>
		</g>
	</g>
	<g mask="url(#mask1_17201)">
		<g style="mix-blend-mode:normal">
			<path id="Path 15633" d="M174.38 61.73C172.87 62.26 171.31 62.68 169.77 63.13L165.14 64.47C162.05 65.37 158.96 66.26 155.87 67.14C155.6 67.22 155.31 67.06 155.24 66.79C155.16 66.53 155.29 66.26 155.54 66.17C158.52 64.97 161.51 63.78 164.5 62.6L168.98 60.83C170.48 60.24 171.96 59.62 173.49 59.11C174.21 58.87 175 59.27 175.23 59.99C175.47 60.71 175.09 61.48 174.38 61.73Z" fill="#FF5672" fill-opacity="1.000000" fill-rule="nonzero"/>
		</g>
	</g>
	<g mask="url(#mask1_17201)">
		<g style="mix-blend-mode:normal">
			<path id="Path 15634" d="M164.36 53.81C164.24 54.4 163.96 54.94 163.54 55.36L162.34 56.58C161.55 57.4 160.74 58.19 159.93 58.99C158.29 60.56 156.64 62.12 154.88 63.6C154.67 63.78 154.34 63.76 154.16 63.54C154 63.36 153.99 63.1 154.13 62.9C155.44 61.03 156.86 59.25 158.29 57.48C159.01 56.61 159.73 55.72 160.47 54.87L161.58 53.57C161.97 53.12 162.48 52.79 163.06 52.62C163.61 52.46 164.19 52.79 164.34 53.35C164.38 53.5 164.39 53.66 164.36 53.81Z" fill="#FF5672" fill-opacity="1.000000" fill-rule="nonzero"/>
		</g>
	</g>
	<g mask="url(#mask1_17201)">
		<g style="mix-blend-mode:normal">
			<path id="Path 15635" d="M170.86 71.98C170.29 72.27 169.65 72.4 169.01 72.36L167.18 72.23C165.96 72.15 164.74 72.04 163.52 71.94C161.08 71.71 158.65 71.46 156.22 71.07C155.93 71.03 155.74 70.77 155.78 70.48C155.82 70.25 156.01 70.07 156.25 70.05C158.71 69.84 161.15 69.77 163.6 69.71C164.83 69.7 166.05 69.68 167.27 69.69L169.11 69.7C169.75 69.7 170.37 69.88 170.92 70.21C171.4 70.51 171.54 71.15 171.24 71.62C171.15 71.77 171.01 71.9 170.86 71.98Z" fill="#FF5672" fill-opacity="1.000000" fill-rule="nonzero"/>
		</g>
	</g>
	<g mask="url(#mask1_17201)">
		<g style="mix-blend-mode:normal">
			<path id="Path 15636" d="M4.37 100.22C5.88 99.67 7.43 99.23 8.97 98.76L13.58 97.37C16.66 96.43 19.74 95.51 22.82 94.59C23.09 94.51 23.38 94.66 23.46 94.94C23.53 95.19 23.4 95.46 23.16 95.56C20.19 96.79 17.22 98.02 14.24 99.23L9.78 101.06C8.29 101.66 6.81 102.3 5.3 102.83C4.57 103.07 3.79 102.69 3.54 101.96C3.3 101.25 3.67 100.48 4.37 100.22Z" fill="#FF5672" fill-opacity="1.000000" fill-rule="nonzero"/>
		</g>
	</g>
	<g mask="url(#mask1_17201)">
		<g style="mix-blend-mode:normal">
			<path id="Path 15637" d="M8.51 88.65C9.06 88.42 9.67 88.36 10.26 88.48L11.93 88.8C13.05 89.01 14.15 89.26 15.27 89.49C17.49 89.99 19.7 90.5 21.9 91.16C22.17 91.23 22.33 91.52 22.25 91.79C22.19 92.02 21.97 92.18 21.73 92.17C19.45 92.11 17.18 91.91 14.92 91.69C13.79 91.57 12.65 91.46 11.53 91.31L9.84 91.1C9.25 91.03 8.69 90.78 8.23 90.4C7.79 90.02 7.75 89.35 8.13 88.92C8.23 88.8 8.36 88.71 8.51 88.65Z" fill="#FF5672" fill-opacity="1.000000" fill-rule="nonzero"/>
		</g>
	</g>
	<g mask="url(#mask1_17201)">
		<g style="mix-blend-mode:normal">
			<path id="Path 15638" d="M13.28 107.32C13.5 106.72 13.89 106.19 14.39 105.79L15.82 104.65C16.77 103.88 17.74 103.13 18.71 102.38C20.66 100.9 22.62 99.44 24.67 98.08C24.91 97.91 25.23 97.97 25.39 98.21C25.53 98.41 25.51 98.68 25.34 98.86C23.67 100.67 21.92 102.38 20.16 104.08C19.26 104.91 18.38 105.76 17.47 106.58L16.11 107.81C15.64 108.24 15.06 108.54 14.43 108.67C13.87 108.77 13.34 108.4 13.24 107.84C13.21 107.67 13.22 107.49 13.28 107.32Z" fill="#FF5672" fill-opacity="1.000000" fill-rule="nonzero"/>
		</g>
	</g>
	<g mask="url(#mask1_17201)">
		<g style="mix-blend-mode:normal">
			<path id="Path 15639" d="M44.6 13.6C45.28 15.06 45.85 16.56 46.45 18.05L48.23 22.53C49.43 25.52 50.61 28.5 51.79 31.49C51.89 31.76 51.77 32.06 51.5 32.16C51.26 32.26 50.98 32.15 50.86 31.92C49.37 29.07 47.9 26.21 46.43 23.35L44.23 19.06C43.5 17.63 42.74 16.21 42.08 14.75C41.77 14.05 42.09 13.23 42.79 12.92C43.48 12.62 44.28 12.92 44.6 13.6Z" fill="#FF5672" fill-opacity="1.000000" fill-rule="nonzero"/>
		</g>
	</g>
	<g mask="url(#mask1_17201)">
		<g style="mix-blend-mode:normal">
			<path id="Path 15640" d="M56.49 16.73C56.76 17.26 56.87 17.86 56.8 18.46L56.62 20.15C56.51 21.28 56.36 22.41 56.22 23.54C55.92 25.79 55.59 28.04 55.13 30.28C55.08 30.56 54.81 30.75 54.53 30.7C54.29 30.65 54.12 30.45 54.11 30.21C53.98 27.92 53.98 25.65 54 23.37C54.03 22.24 54.04 21.1 54.09 19.97L54.16 18.27C54.18 17.67 54.37 17.09 54.72 16.6C55.06 16.13 55.71 16.03 56.18 16.37C56.31 16.47 56.41 16.59 56.49 16.73Z" fill="#FF5672" fill-opacity="1.000000" fill-rule="nonzero"/>
		</g>
	</g>
	<g mask="url(#mask1_17201)">
		<g style="mix-blend-mode:normal">
			<path id="Path 15641" d="M38.29 23.09C38.91 23.26 39.47 23.59 39.91 24.06L41.17 25.38C42.02 26.26 42.84 27.17 43.68 28.07C45.32 29.88 46.95 31.71 48.48 33.64C48.66 33.86 48.63 34.19 48.4 34.37C48.22 34.52 47.95 34.52 47.76 34.37C45.81 32.87 43.95 31.27 42.11 29.65C41.2 28.84 40.28 28.03 39.39 27.19L38.04 25.95C37.57 25.51 37.23 24.96 37.05 24.35C36.9 23.8 37.22 23.24 37.77 23.09C37.94 23.04 38.12 23.04 38.29 23.09Z" fill="#FF5672" fill-opacity="1.000000" fill-rule="nonzero"/>
		</g>
	</g>
	<g mask="url(#mask1_17201)">
		<g style="mix-blend-mode:normal">
			<path id="Path 15642" d="M147.44 127.04L146.97 128.8C146.95 128.91 146.97 129.02 147.05 129.11L148.24 130.49C148.36 130.63 148.35 130.84 148.21 130.96C148.15 131.01 148.08 131.04 148.01 131.04L146.18 131.15C146.07 131.15 145.98 131.21 145.92 131.31L144.97 132.87C144.88 133.03 144.67 133.08 144.52 132.99C144.45 132.95 144.4 132.89 144.38 132.82L143.71 131.12C143.67 131.02 143.58 130.94 143.48 130.92L141.7 130.5C141.52 130.46 141.41 130.28 141.45 130.1C141.46 130.03 141.5 129.96 141.56 129.92L142.97 128.76C143.06 128.69 143.1 128.58 143.09 128.47L142.94 126.65C142.92 126.47 143.06 126.31 143.24 126.29C143.31 126.29 143.39 126.3 143.45 126.34L144.99 127.33C145.08 127.39 145.2 127.4 145.3 127.35L146.98 126.65C147.15 126.57 147.35 126.65 147.42 126.82C147.45 126.89 147.45 126.97 147.44 127.04Z" fill="#FF5672" fill-opacity="1.000000" fill-rule="nonzero"/>
		</g>
	</g>
	<g mask="url(#mask1_17201)">
		<g style="mix-blend-mode:normal">
			<path id="Path 15643" d="M63.28 127.33L62.82 129.1C62.79 129.21 62.82 129.32 62.89 129.4L64.08 130.78C64.2 130.92 64.19 131.13 64.05 131.25C64 131.3 63.92 131.33 63.85 131.34L62.03 131.44C61.92 131.45 61.82 131.51 61.76 131.61L60.82 133.17C60.72 133.33 60.52 133.38 60.36 133.28C60.3 133.25 60.25 133.19 60.22 133.12L59.55 131.42C59.51 131.32 59.43 131.24 59.32 131.21L57.54 130.8C57.36 130.76 57.25 130.58 57.29 130.4C57.31 130.33 57.35 130.26 57.41 130.21L58.82 129.06C58.9 128.99 58.95 128.88 58.94 128.77L58.78 126.95C58.77 126.77 58.9 126.61 59.08 126.59C59.16 126.58 59.23 126.6 59.3 126.64L60.83 127.62C60.93 127.68 61.04 127.69 61.14 127.65L62.82 126.94C62.99 126.87 63.19 126.95 63.26 127.12C63.29 127.19 63.3 127.26 63.28 127.33Z" fill="#FF5672" fill-opacity="1.000000" fill-rule="nonzero"/>
		</g>
	</g>
	<g mask="url(#mask1_17201)">
		<g style="mix-blend-mode:normal">
			<path id="Path 15644" d="M146.88 138.13L146.58 139.27C146.56 139.34 146.58 139.42 146.63 139.47L147.4 140.36C147.48 140.45 147.47 140.59 147.38 140.67L146.07 140.79C146 140.79 145.93 140.83 145.9 140.89L145.29 141.9C145.23 142 145.09 142.04 144.99 141.98C144.95 141.95 144.92 141.91 144.9 141.87L144.47 140.77C144.44 140.7 144.39 140.66 144.32 140.64L143.17 140.37C143.05 140.34 142.98 140.23 143.01 140.11C143.02 140.06 143.05 140.02 143.08 139.99L143.99 139.24C144.05 139.2 144.08 139.13 144.07 139.06L143.97 137.88C143.96 137.76 144.05 137.66 144.17 137.65C144.22 137.64 144.26 137.66 144.3 137.68L145.3 138.32C145.36 138.36 145.43 138.36 145.5 138.34L146.58 137.88C146.69 137.83 146.82 137.88 146.87 137.99C146.89 138.03 146.89 138.09 146.88 138.13Z" fill="#FF5672" fill-opacity="1.000000" fill-rule="nonzero"/>
		</g>
	</g>
	<g mask="url(#mask1_17201)">
		<g style="mix-blend-mode:normal">
			<path id="Path 15645" d="M91.01 35.13L89.42 34.23C89.32 34.18 89.26 34.08 89.25 33.97L89.08 32.15C89.07 31.97 88.91 31.83 88.72 31.85C88.65 31.85 88.58 31.88 88.52 31.93L87.18 33.17C87.1 33.24 86.99 33.27 86.88 33.25L85.1 32.84C84.92 32.8 84.74 32.91 84.7 33.09C84.68 33.16 84.69 33.24 84.72 33.31L85.48 34.97C85.53 35.07 85.52 35.18 85.47 35.28L84.53 36.85C84.43 37 84.48 37.21 84.64 37.3C84.71 37.34 84.78 37.36 84.86 37.35L86.67 37.14C86.78 37.13 86.89 37.17 86.96 37.25L88.16 38.63C88.28 38.77 88.49 38.78 88.63 38.66C88.69 38.61 88.72 38.55 88.74 38.47L89.1 36.68C89.12 36.58 89.19 36.49 89.3 36.44L90.97 35.73C91.14 35.65 91.22 35.46 91.15 35.29C91.12 35.22 91.07 35.16 91.01 35.13Z" fill="#FF5672" fill-opacity="1.000000" fill-rule="nonzero"/>
		</g>
	</g>
	<g mask="url(#mask1_17201)">
		<g style="mix-blend-mode:normal">
			<path id="Path 15646" d="M82.87 27.66L81.84 27.08C81.78 27.05 81.74 26.99 81.73 26.91L81.63 25.74C81.62 25.62 81.51 25.53 81.39 25.54L80.4 26.4C80.35 26.45 80.27 26.47 80.2 26.45L79.05 26.19C78.94 26.16 78.82 26.23 78.79 26.35C78.78 26.4 78.79 26.45 78.81 26.49L79.3 27.56C79.33 27.63 79.33 27.7 79.29 27.76L78.68 28.77C78.62 28.88 78.66 29.01 78.76 29.07C78.8 29.1 78.85 29.11 78.89 29.1L80.07 28.96C80.14 28.96 80.21 28.98 80.25 29.04L81.03 29.93C81.11 30.02 81.25 30.03 81.34 29.95C81.37 29.91 81.4 29.87 81.41 29.83L81.64 28.67C81.65 28.6 81.7 28.54 81.77 28.51L82.85 28.05C82.96 28 83.01 27.88 82.97 27.77C82.95 27.72 82.91 27.69 82.87 27.66Z" fill="#FF5672" fill-opacity="1.000000" fill-rule="nonzero"/>
		</g>
	</g>
	<g mask="url(#mask1_17201)">
		<g style="mix-blend-mode:normal">
			<path id="Path 15647" d="M60.52 121.89L59.49 121.31C59.43 121.28 59.39 121.21 59.38 121.14L59.28 119.97C59.27 119.85 59.16 119.76 59.04 119.77L58.05 120.63C58 120.68 57.92 120.69 57.85 120.68L56.7 120.42C56.59 120.39 56.47 120.46 56.44 120.58C56.43 120.63 56.44 120.67 56.46 120.72L56.95 121.79C56.98 121.85 56.97 121.93 56.94 121.99L56.33 123C56.27 123.11 56.31 123.24 56.41 123.3C56.45 123.32 56.5 123.33 56.54 123.33L57.72 123.19C57.79 123.19 57.86 123.21 57.9 123.27L58.68 124.15C58.76 124.24 58.89 124.25 58.98 124.18C59.02 124.14 59.04 124.1 59.05 124.06L59.29 122.9C59.3 122.83 59.35 122.77 59.41 122.74L60.5 122.28C60.61 122.23 60.66 122.11 60.61 122C60.6 121.95 60.56 121.91 60.52 121.89Z" fill="#FF5672" fill-opacity="1.000000" fill-rule="nonzero"/>
		</g>
	</g>
	<g mask="url(#mask1_17201)">
		<g style="mix-blend-mode:normal">
			<path id="Path 15648" d="M46.78 85.06C45.96 84.77 45.4 84 45.38 83.13L44.92 66.34L45.49 65.85C47.81 63.87 52.1 64.15 54.94 64.33C55.18 64.35 55.41 64.36 55.62 64.37C58.72 64.55 61.07 64.95 62.61 65.57C62.85 65.67 63.08 65.78 63.31 65.9C64.92 66.78 65.93 67.9 66.31 69.22C66.5 70 66.55 70.84 66.43 71.63C66.23 73.17 65.74 74.37 64.97 75.2C65.08 75.32 65.19 75.45 65.29 75.58C66.06 76.6 66.31 78 66.06 79.87C65.69 82.53 64.28 83.85 63.15 84.48C61.89 85.19 60.19 85.55 57.97 85.57C57.05 85.58 55.99 85.53 54.97 85.48C52.66 85.36 51.54 85.33 49.22 85.35C48.06 85.35 47.38 85.28 46.89 85.11C46.85 85.09 46.81 85.08 46.78 85.06Z" fill="#061C3F" fill-opacity="1.000000" fill-rule="nonzero"/>
		</g>
	</g>
	<g mask="url(#mask1_17201)">
		<g style="mix-blend-mode:normal">
			<path id="Path 15649" d="M71.32 83.87C71.23 83.83 71.14 83.8 71.05 83.76C69.88 83.25 68.81 82.53 67.91 81.63C65.91 79.59 65.12 76.43 65.61 72.47C65.76 70.84 66.27 69.27 67.1 67.86C67.88 66.56 69.01 65.51 70.36 64.83C72.84 63.59 75.82 63.32 79.22 64.01C80.51 64.26 81.77 64.63 83 65.11C83.21 65.19 83.41 65.28 83.61 65.37C84.89 65.95 86.05 66.76 87.03 67.76C89.08 69.93 89.59 73.36 88.4 77.14C87.32 80.59 85.55 82.95 83.15 84.15C80.83 85.31 78.15 85.56 74.97 84.91C73.73 84.68 72.51 84.33 71.32 83.87ZM77.68 71.51C77.34 72.44 77.1 73.4 76.94 74.38C76.77 75.24 76.65 76.11 76.58 76.98C76.87 76.15 77.1 75.31 77.28 74.45C77.51 73.49 77.63 72.5 77.68 71.51Z" fill="#061C3F" fill-opacity="1.000000" fill-rule="nonzero"/>
		</g>
	</g>
	<g mask="url(#mask1_17201)">
		<g style="mix-blend-mode:normal">
			<path id="Path 15650" d="M92.15 95.83C91.88 95.73 91.62 95.61 91.34 95.48C90.1 94.94 88.91 94.26 87.81 93.47C86.78 92.71 85.92 91.77 85.24 90.68C83.78 88.25 83.74 85 85.12 81.25C85.64 79.71 86.49 78.29 87.61 77.1C88.66 76.02 90 75.25 91.46 74.89C93.9 74.31 96.58 74.59 99.41 75.74C99.69 75.85 99.97 75.97 100.24 76.09C101.64 76.72 102.97 77.5 104.19 78.42C105.3 79.27 106.24 80.32 106.97 81.52C109.02 85.04 107.36 88.96 106.17 90.96C104.33 94.07 102.07 95.96 99.47 96.59C97.17 97.14 94.78 96.89 92.15 95.83ZM97.04 83.05C96.5 83.88 96.04 84.76 95.66 85.68C95.31 86.46 95 87.27 94.74 88.09C95.19 87.36 95.6 86.6 95.96 85.81C96.41 84.93 96.76 84 97.04 83.05Z" fill="#061C3F" fill-opacity="1.000000" fill-rule="nonzero"/>
		</g>
	</g>
	<g mask="url(#mask1_17201)">
		<g style="mix-blend-mode:normal">
			<path id="Path 15651" d="M120.42 108.12C119.89 107.87 119.39 107.56 118.95 107.18C118.16 106.55 117.25 105.75 116.09 104.64C115.01 103.61 114.45 102.69 114.39 101.88C114.32 101.86 114.26 101.83 114.19 101.8C114.14 101.79 114.1 101.77 114.05 101.74C113.41 101.42 112.81 101.01 112.28 100.52C111.47 99.83 111.1 99.4 110.9 98.96C110.55 98.95 110.2 98.87 109.88 98.73C108.94 98.29 108.05 97.75 107.24 97.1C107.12 97.01 106.97 96.9 106.81 96.78C106.52 96.56 106.15 96.29 105.72 95.97C104.85 95.33 104.35 94.88 104.07 94.44C103.54 93.71 103.52 92.72 104.04 91.98L113.06 79.06C113.51 78.41 114.47 77.81 116.44 78.6C116.64 78.68 116.86 78.78 117.08 78.89C118.39 79.53 119.64 80.3 120.79 81.2C122.12 82.23 122.97 83.16 123.38 84.04C123.86 85.09 123.94 85.96 123.62 86.72C123.3 87.51 123.02 88.18 122.76 88.8C123.26 88.49 123.8 88.17 124.42 87.79C125.58 87.1 126.99 87.66 127.45 87.85C127.69 87.95 127.95 88.06 128.21 88.2C129.54 88.89 130.76 89.78 131.82 90.84C132.72 91.67 133.5 92.62 134.15 93.66C135.06 95.31 134.61 96.27 134.06 96.79L122.42 107.81C121.88 108.31 121.09 108.43 120.42 108.12Z" fill="#061C3F" fill-opacity="1.000000" fill-rule="nonzero"/>
		</g>
	</g>
	<g mask="url(#mask1_17201)">
		<g style="mix-blend-mode:normal">
			<path id="Path 15652" d="M125.37 116.8C124.52 116.45 123.71 115.78 122.89 114.77C122.08 113.76 121.6 112.86 121.42 112.02C121.25 111.19 121.34 109.94 122.78 108.71C123.59 107.96 124.71 107.64 125.79 107.86C125.73 107.13 126 106.42 126.51 105.91C129.48 103.04 132.52 100.07 135.46 97.16C135.96 96.67 136.7 96.54 137.34 96.82C137.69 96.96 138.14 97.23 139.15 98.23C140.2 99.29 141.18 100.41 142.1 101.59C143.25 103.06 143.67 104.02 143.55 104.88C143.49 105.37 143.22 105.82 142.82 106.11C140.7 107.65 138.46 109.16 136.29 110.62C135.14 111.4 133.99 112.18 132.85 112.96C132.36 113.3 131.52 113.6 130.3 113.17C130.32 113.4 130.31 113.62 130.28 113.85C130.15 114.81 129.63 115.67 128.84 116.23C127.36 117.35 126.01 117.07 125.37 116.8Z" fill="#061C3F" fill-opacity="1.000000" fill-rule="nonzero"/>
		</g>
	</g>
	<g mask="url(#mask1_17201)">
		<g style="mix-blend-mode:normal">
			<path id="Path 15653" d="M55.05 83.91C52.72 83.79 51.56 83.77 49.21 83.78C48.61 83.81 48 83.76 47.41 83.63C47.15 83.58 46.96 83.36 46.94 83.09C46.8 77.74 46.65 72.39 46.51 67.04C48.52 65.32 53.15 65.8 55.53 65.94C58.95 66.13 61.33 66.61 62.56 67.28C63.81 67.96 64.55 68.77 64.81 69.65C64.95 70.24 64.97 70.84 64.88 71.43C64.71 72.71 64.33 73.65 63.74 74.23C63.28 74.74 62.64 75.07 61.96 75.13C62.79 75.36 63.52 75.85 64.04 76.53C64.55 77.2 64.7 78.25 64.51 79.66C64.28 81.31 63.56 82.45 62.38 83.12C61.36 83.69 59.88 83.99 57.95 84C57.14 84.01 56.17 83.97 55.05 83.91ZM55.64 73.04C56.63 73.09 57.17 72.56 57.24 71.43C57.31 70.98 57.19 70.52 56.92 70.15C56.7 69.88 56.37 69.71 56.02 69.69C55.64 69.66 55.44 69.66 55.05 69.64L54.9 73.01C55.2 73.02 55.34 73.03 55.64 73.04ZM54.58 80.17C54.86 80.18 54.99 80.18 55.27 80.2C56.2 80.25 56.71 79.72 56.78 78.58C56.85 78.13 56.74 77.68 56.48 77.3C56.28 77.03 55.98 76.87 55.64 76.84C55.28 76.82 55.1 76.81 54.73 76.8C54.67 78.15 54.64 78.82 54.58 80.17Z" fill="#FCF9EB" fill-opacity="1.000000" fill-rule="nonzero"/>
		</g>
	</g>
	<g mask="url(#mask1_17201)">
		<g style="mix-blend-mode:normal">
			<path id="Path 15654" d="M75.28 83.38C74.05 83.15 72.84 82.79 71.67 82.32C70.68 81.89 69.77 81.28 69.01 80.51C67.02 78.49 66.84 75.3 67.16 72.66C67.29 71.26 67.73 69.9 68.43 68.68C69.06 67.63 69.97 66.78 71.07 66.23C73.18 65.17 75.83 64.92 78.91 65.54C80.31 65.81 81.66 66.23 82.96 66.8C84.07 67.3 85.07 68 85.92 68.86C87.9 70.96 87.71 74.13 86.91 76.67C85.96 79.67 84.48 81.73 82.45 82.75C80.42 83.76 78.07 83.95 75.28 83.38ZM75.25 79.01C75.65 79.58 76.43 79.73 77.02 79.37C77.28 79.18 77.57 78.71 77.88 77.97C78.28 76.94 78.59 75.87 78.81 74.78C79.07 73.72 79.23 72.63 79.28 71.54C79.29 70.76 79.2 70.23 79.02 69.95C78.55 69.37 77.75 69.21 77.09 69.56C76.82 69.74 76.53 70.2 76.23 70.92C75.85 71.95 75.57 73.01 75.4 74.09C75.17 75.17 75.04 76.28 75.01 77.38C75.01 78.19 75.09 78.73 75.25 79.01Z" fill="#FCF9EB" fill-opacity="1.000000" fill-rule="nonzero"/>
		</g>
	</g>
	<g mask="url(#mask1_17201)">
		<g style="mix-blend-mode:normal">
			<path id="Path 15655" d="M92 94.06C90.85 93.56 89.76 92.94 88.74 92.21C87.87 91.57 87.14 90.77 86.57 89.85C85.11 87.43 85.67 84.28 86.59 81.79C87.04 80.46 87.76 79.24 88.72 78.21C89.57 77.33 90.65 76.71 91.83 76.41C94.12 75.87 96.75 76.21 99.59 77.52C100.88 78.09 102.11 78.81 103.24 79.66C104.19 80.4 105.01 81.3 105.64 82.34C107.09 84.83 106.18 87.87 104.82 90.17C103.22 92.87 101.31 94.54 99.1 95.07C96.89 95.6 94.57 95.24 92 94.06ZM92.97 89.8C93.22 90.44 93.94 90.77 94.59 90.55C94.89 90.42 95.28 90.03 95.75 89.38C96.37 88.46 96.92 87.5 97.38 86.49C97.87 85.51 98.27 84.49 98.58 83.44C98.76 82.68 98.8 82.14 98.68 81.83C98.37 81.17 97.62 80.82 96.91 81.02C96.6 81.13 96.21 81.51 95.76 82.14C95.16 83.06 94.65 84.03 94.23 85.04C93.76 86.05 93.38 87.09 93.09 88.16C92.91 88.94 92.87 89.49 92.97 89.8Z" fill="#FCF9EB" fill-opacity="1.000000" fill-rule="nonzero"/>
		</g>
	</g>
	<g mask="url(#mask1_17201)">
		<g style="mix-blend-mode:normal">
			<path id="Path 15656" d="M108.17 95.84C107.82 95.58 107.32 95.19 106.65 94.71C106.17 94.4 105.74 94.02 105.37 93.58C105.2 93.38 105.18 93.09 105.32 92.87C108.33 88.57 111.34 84.26 114.35 79.95C114.57 79.64 115.25 79.74 116.4 80.3C117.62 80.89 118.77 81.61 119.83 82.44C120.96 83.31 121.67 84.08 121.95 84.7C122.24 85.32 122.31 85.79 122.17 86.11C121.13 88.66 120.58 89.93 119.46 92.44L119.65 92.61C121.86 91.19 122.97 90.49 125.23 89.13C125.63 88.89 126.39 89.03 127.5 89.59C128.69 90.21 129.78 91 130.72 91.95C131.51 92.68 132.2 93.51 132.78 94.42C133.12 95.04 133.19 95.45 132.98 95.65C129.1 99.32 125.22 103 121.35 106.67C121.19 106.82 120.72 106.57 119.92 105.94C119.12 105.32 118.21 104.5 117.17 103.5C116.13 102.51 115.75 101.85 116.08 101.49C116.97 100.52 118.66 98.9 121.17 96.65L120.99 96.47C118.79 97.99 117.7 98.77 115.55 100.34C115.28 100.49 114.96 100.48 114.7 100.32C114.19 100.05 113.72 99.72 113.3 99.33C112.72 98.83 112.4 98.5 112.34 98.32C112.28 98.09 112.32 97.85 112.45 97.66C113.67 95.29 114.26 94.09 115.42 91.68L115.23 91.52C113.35 94.41 111.99 96.32 111.21 97.29C110.94 97.64 109.91 97.12 108.17 95.84Z" fill="#FCF9EB" fill-opacity="1.000000" fill-rule="nonzero"/>
		</g>
	</g>
	<g mask="url(#mask1_17201)">
		<g style="mix-blend-mode:normal">
			<path id="Path 15657" d="M138.05 99.34C139.05 100.36 139.99 101.43 140.86 102.55C141.87 103.84 142.2 104.63 141.89 104.85C138.7 107.16 135.27 109.39 131.96 111.67C131.62 111.9 131.12 111.86 130.46 111.55C129.8 111.24 129.1 110.62 128.36 109.7C127.34 108.45 127.09 107.57 127.64 107.01C130.63 104.11 133.6 101.2 136.56 98.28C136.69 98.14 137.19 98.49 138.05 99.34ZM125.97 115.36C125.24 114.99 124.6 114.45 124.11 113.78C123.57 113.18 123.18 112.47 122.95 111.69C122.83 111.09 123.11 110.49 123.8 109.9C124.94 108.92 126.24 109.26 127.64 110.99C129.03 112.73 129.1 114.08 127.9 114.98C127.22 115.5 126.58 115.62 125.97 115.36Z" fill="#FCF9EB" fill-opacity="1.000000" fill-rule="nonzero"/>
		</g>
	</g>
</svg>
