<svg width="201.679077" height="189.852783" viewBox="0 0 201.679 189.853" fill="none" xmlns="http://www.w3.org/2000/svg" xmlns:xlink="http://www.w3.org/1999/xlink">
	<desc>
			Created with Pixso.
	</desc>
	<defs/>
	<mask id="mask1_17242" mask-type="alpha" maskUnits="userSpaceOnUse" x="0.000000" y="0.000000" width="201.679077" height="189.852783">
		<g style="mix-blend-mode:normal">
			<rect id="Rectangle 2642" y="74.671143" width="159.053497" height="130.451202" transform="rotate(-28 0.000000 74.671143)" fill="#C4C4C4" fill-opacity="1.000000"/>
		</g>
	</mask>
	<g mask="url(#mask1_17242)">
		<g style="mix-blend-mode:normal">
			<path id="Path 15553" d="M53.17 103.87L17.47 80.57C17.15 80.37 17.06 79.94 17.27 79.63C17.41 79.41 17.65 79.3 17.9 79.32L62.27 83C62.65 83.03 62.98 82.75 63.01 82.37C63.02 82.26 63 82.14 62.96 82.04L55.68 65.26C55.53 64.91 55.69 64.5 56.03 64.35C56.19 64.29 56.37 64.28 56.53 64.33L70.74 69.18C71.1 69.3 71.49 69.11 71.62 68.75C71.63 68.69 71.64 68.64 71.65 68.58L72.71 55.59C72.74 55.21 73.07 54.93 73.45 54.97C73.54 54.97 73.63 55 73.71 55.04L90.85 64.17C91.18 64.35 91.59 64.23 91.77 63.89C91.83 63.78 91.86 63.66 91.85 63.54L90.46 27.91C90.45 27.53 90.74 27.21 91.12 27.2C91.36 27.19 91.59 27.31 91.72 27.51L110.13 55.68C110.34 55.99 110.77 56.08 111.08 55.88C111.13 55.84 111.18 55.8 111.22 55.76L122.67 42.87C122.92 42.59 123.35 42.56 123.64 42.81C123.67 42.85 123.71 42.88 123.74 42.92L129.88 51.48C130.1 51.78 130.53 51.86 130.84 51.63C130.9 51.59 130.96 51.53 131.01 51.46L150.35 22.5C150.56 22.18 150.98 22.1 151.3 22.31C151.52 22.45 151.63 22.71 151.6 22.97L146.2 61.35C146.15 61.68 146.34 61.99 146.65 62.1L163.66 68.21C164.02 68.34 164.2 68.73 164.07 69.09C164.05 69.16 164.01 69.23 163.97 69.29L157.32 77.65C157.08 77.95 157.13 78.38 157.43 78.62L170.69 88.89C170.98 89.12 171.04 89.55 170.8 89.85C170.75 89.92 170.67 89.99 170.59 90.03L159.77 95.78C159.44 95.96 159.31 96.37 159.49 96.71C159.54 96.81 159.62 96.9 159.72 96.96L187.64 115.36C187.96 115.57 188.05 116 187.84 116.31C187.69 116.54 187.42 116.66 187.15 116.61L154.39 110.74C154.01 110.67 153.66 110.92 153.59 111.3L153.4 120.85C153.4 121.23 153.08 121.53 152.7 121.52C152.64 121.52 152.58 121.51 152.52 121.49L139.1 117.46C138.74 117.35 138.36 117.55 138.25 117.92C138.23 117.98 138.22 118.05 138.22 118.12L138.57 147.4C138.57 147.78 138.27 148.09 137.89 148.1C137.71 148.1 137.54 148.03 137.41 147.91L117.24 128.99C116.97 128.73 116.53 128.74 116.27 129.02C116.21 129.08 116.16 129.16 116.13 129.25L109.32 147.62C109.18 147.97 108.79 148.15 108.43 148.02C108.38 148 108.34 147.98 108.29 147.95L99.74 142.23C99.43 142.02 99 142.1 98.79 142.42C98.76 142.47 98.73 142.52 98.71 142.58L88.26 173.71C88.14 174.07 87.75 174.27 87.39 174.15C87.16 174.07 86.98 173.87 86.94 173.62L81.78 145.84C81.71 145.47 81.36 145.23 80.98 145.3C80.89 145.31 80.8 145.35 80.73 145.4L68.13 153.83C67.81 154.04 67.39 153.95 67.18 153.64C67.09 153.51 67.05 153.35 67.06 153.19L68.29 141.25C68.33 140.88 68.05 140.54 67.68 140.5C67.63 140.5 67.58 140.5 67.53 140.5L38.82 143.72C38.45 143.76 38.11 143.49 38.07 143.11C38.05 142.93 38.1 142.75 38.21 142.61L54.68 121.8C54.91 121.51 54.86 121.08 54.56 120.84C54.51 120.8 54.44 120.76 54.37 120.73L44.1 116.99C43.74 116.86 43.56 116.47 43.69 116.11C43.71 116.04 43.76 115.96 43.81 115.9L53.31 104.89C53.56 104.61 53.45 104.12 53.17 103.87Z" fill="#FCD100" fill-opacity="1.000000" fill-rule="nonzero"/>
		</g>
	</g>
	<g mask="url(#mask1_17242)">
		<g style="mix-blend-mode:normal">
			<path id="Path 15554" d="M183.5 112.63C183.38 112.93 183.06 113.11 182.74 113.06L150.5 108.16C150.11 108.11 149.75 108.37 149.69 108.76L149.3 117.87C149.27 118.26 148.94 118.56 148.55 118.53C148.5 118.53 148.46 118.52 148.41 118.51L135.24 114.94C134.87 114.84 134.48 115.06 134.38 115.44C134.37 115.49 134.36 115.54 134.36 115.59L134.05 143.64C134.04 143.95 133.84 144.21 133.55 144.29L137.41 147.91C137.69 148.17 138.12 148.16 138.38 147.88C138.5 147.75 138.57 147.58 138.57 147.4L138.22 118.12C138.21 117.74 138.52 117.43 138.9 117.43C138.97 117.43 139.04 117.44 139.1 117.46L152.52 121.5C152.88 121.61 153.27 121.4 153.37 121.04C153.39 120.98 153.4 120.91 153.4 120.85L153.58 111.41C153.59 111.03 153.9 110.73 154.28 110.73L187.15 116.61C187.52 116.68 187.88 116.43 187.94 116.06C187.99 115.79 187.88 115.52 187.65 115.36L183.5 112.63Z" fill="#D3004C" fill-opacity="1.000000" fill-rule="nonzero"/>
		</g>
	</g>
	<g mask="url(#mask1_17242)">
		<g style="mix-blend-mode:normal">
			<path id="Path 15555" d="M151.59 22.97C151.65 22.6 151.39 22.25 151.01 22.2C150.75 22.16 150.49 22.28 150.35 22.5L149.58 23.65C149.68 23.78 149.73 23.96 149.69 24.13L143.51 61.03C143.45 61.33 143.63 61.63 143.93 61.73L160.61 67.21C160.94 67.32 161.12 67.68 161.01 68.01C160.99 68.09 160.94 68.17 160.89 68.23L154.13 76.39C153.9 76.66 153.92 77.06 154.19 77.29L167.09 86.86C167.37 87.08 167.42 87.49 167.2 87.78C167.14 87.86 167.06 87.92 166.97 87.96L156.15 93.71C155.83 93.87 155.69 94.25 155.84 94.58C155.89 94.69 155.97 94.78 156.07 94.84L164.57 100.16L159.72 96.96C159.4 96.75 159.31 96.33 159.52 96.01C159.58 95.92 159.67 95.84 159.77 95.78L170.59 90.03C170.92 89.86 171.05 89.44 170.87 89.11C170.82 89.02 170.76 88.95 170.68 88.89L157.43 78.62C157.13 78.39 157.08 77.96 157.31 77.66L163.96 69.29C164.2 68.99 164.15 68.56 163.85 68.32C163.8 68.28 163.73 68.24 163.66 68.21L146.65 62.1C146.34 61.99 146.15 61.68 146.2 61.36L151.59 22.97Z" fill="#D3004C" fill-opacity="1.000000" fill-rule="nonzero"/>
		</g>
	</g>
	<g mask="url(#mask1_17242)">
		<g style="mix-blend-mode:normal">
			<path id="Path 15556" d="M113.39 126.47C113.09 126.22 112.65 126.26 112.4 126.56C112.35 126.61 112.31 126.68 112.28 126.75L105.14 144.5C104.99 144.86 104.58 145.04 104.22 144.89L95.8 139.55C95.47 139.35 95.03 139.46 94.83 139.8C94.81 139.83 94.79 139.87 94.77 139.91L85.42 165.43L86.94 173.62C87.01 173.99 87.36 174.24 87.74 174.17C87.98 174.12 88.18 173.95 88.26 173.71L98.71 142.58C98.83 142.22 99.22 142.03 99.58 142.15C99.64 142.17 99.69 142.2 99.74 142.23L108.29 147.95C108.61 148.16 109.03 148.08 109.24 147.76C109.27 147.72 109.3 147.67 109.32 147.62L116.13 129.25C116.16 129.18 116.19 129.12 116.24 129.06L113.39 126.47Z" fill="#D3004C" fill-opacity="1.000000" fill-rule="nonzero"/>
		</g>
	</g>
	<g mask="url(#mask1_17242)">
		<g style="mix-blend-mode:normal">
			<path id="Path 15557" d="M68.29 141.25L68.05 143.58C68.39 143.11 68.68 142.59 68.89 142.04C69.36 140.73 68.37 139.13 67.04 138.79C66.74 138.73 66.44 138.69 66.13 138.67C61.93 138.38 57.42 139.47 53.24 140.02L38.76 141.92L38.21 142.61C37.97 142.91 38.02 143.34 38.32 143.58C38.46 143.69 38.64 143.74 38.82 143.72L67.53 140.5C67.91 140.46 68.25 140.73 68.29 141.11C68.29 141.16 68.29 141.21 68.29 141.25Z" fill="#D3004C" fill-opacity="1.000000" fill-rule="nonzero"/>
		</g>
	</g>
	<g mask="url(#mask1_17242)">
		<g style="mix-blend-mode:normal">
			<path id="Path 15558" d="M81.78 145.84L82.38 149.05L82.38 148.59C82.37 146.09 83.55 143.64 80.75 142.17C78.84 141.16 77.51 142.44 76 143.46L71.1 146.77L67.47 149.23L67.06 153.19C67.02 153.57 67.3 153.9 67.67 153.94C67.83 153.96 67.99 153.92 68.13 153.83L80.73 145.4C81.04 145.19 81.47 145.27 81.68 145.59C81.73 145.66 81.77 145.75 81.78 145.84Z" fill="#D3004C" fill-opacity="1.000000" fill-rule="nonzero"/>
		</g>
	</g>
	<g mask="url(#mask1_17242)">
		<g style="mix-blend-mode:normal">
			<path id="Path 15559" d="M138.58 148.72C138.55 148.74 138.52 148.76 138.48 148.77C137.94 149.01 137.3 148.9 136.87 148.5L116.82 129.69L110.06 147.9C109.78 148.67 108.93 149.06 108.16 148.77C108.05 148.73 107.94 148.68 107.85 148.62L99.42 142.98L89.02 173.97C88.76 174.75 87.92 175.16 87.14 174.9C86.63 174.73 86.25 174.3 86.15 173.77L81.03 146.16L68.57 154.49C67.89 154.95 66.97 154.77 66.51 154.08C66.32 153.8 66.23 153.45 66.27 153.11L67.48 141.31L38.91 144.51C38.1 144.6 37.36 144.02 37.27 143.2C37.23 142.81 37.34 142.42 37.58 142.12L53.95 121.43L43.82 117.74C43.05 117.46 42.66 116.61 42.94 115.84C43 115.67 43.09 115.51 43.21 115.38L52.62 104.47L17.03 81.24C16.35 80.79 16.15 79.87 16.6 79.19C16.9 78.73 17.43 78.47 17.97 78.52L62.15 82.18L54.94 65.57C54.62 64.82 54.96 63.95 55.72 63.62C56.05 63.47 56.44 63.46 56.78 63.58L70.86 68.37L71.91 55.53C71.98 54.71 72.7 54.1 73.51 54.17C73.71 54.19 73.91 54.24 74.09 54.34L91.05 63.38L89.66 27.94C89.63 27.12 90.27 26.43 91.09 26.4C91.61 26.38 92.1 26.63 92.39 27.07L110.72 55.11L122.07 42.34C122.61 41.73 123.55 41.67 124.17 42.21C124.25 42.29 124.32 42.37 124.39 42.46L130.43 50.88L149.68 22.05C150.14 21.37 151.06 21.19 151.74 21.64C152.22 21.96 152.47 22.52 152.39 23.08L147 61.38L163.93 67.46C164.7 67.74 165.1 68.59 164.83 69.36C164.77 69.52 164.69 69.66 164.59 69.78L158.01 78.06L171.18 88.25C171.82 88.76 171.94 89.69 171.44 90.34C171.31 90.5 171.15 90.64 170.96 90.74L160.32 96.4L188.09 114.7C188.77 115.15 188.96 116.07 188.51 116.75C188.18 117.25 187.59 117.5 187.01 117.4L154.38 111.55L154.2 120.87C154.19 121.69 153.51 122.34 152.69 122.32C152.56 122.32 152.42 122.3 152.29 122.26L139.02 118.27L139.37 147.39C139.38 147.95 139.07 148.46 138.58 148.72ZM116.07 128.18C116.19 128.12 116.31 128.07 116.44 128.04C116.92 127.93 117.43 128.06 117.79 128.4L137.77 147.15L137.42 118.13C137.41 117.31 138.07 116.64 138.89 116.63C139.04 116.63 139.19 116.65 139.33 116.69L152.61 120.69L152.78 111.39C152.8 110.57 153.47 109.92 154.29 109.93C154.37 109.93 154.45 109.94 154.53 109.96L186.75 115.73L159.28 97.63C158.6 97.18 158.41 96.26 158.86 95.57C158.99 95.36 159.18 95.19 159.4 95.08L170.06 89.41L156.95 79.25C156.3 78.75 156.18 77.82 156.68 77.17L163.24 68.91L146.38 62.85C145.72 62.61 145.31 61.94 145.41 61.24L150.74 23.35L131.67 51.9C131.22 52.58 130.29 52.77 129.61 52.31C129.46 52.21 129.33 52.09 129.23 51.94L123.17 43.51L111.82 56.29C111.27 56.9 110.33 56.96 109.72 56.41C109.62 56.33 109.54 56.23 109.46 56.12L91.28 28.29L92.65 63.51C92.69 64.33 92.05 65.02 91.23 65.05C90.97 65.06 90.7 65 90.47 64.88L73.49 55.83L72.45 68.65C72.38 69.46 71.66 70.07 70.85 70.01C70.72 70 70.6 69.97 70.49 69.93L56.51 65.17L63.69 81.72C64.01 82.48 63.67 83.35 62.92 83.68C62.69 83.77 62.45 83.81 62.2 83.79L18.28 80.15L53.6 103.2C54.29 103.65 54.48 104.57 54.03 105.26C54 105.31 53.96 105.36 53.92 105.41L44.52 116.3L54.65 119.98C55.42 120.26 55.81 121.12 55.53 121.89C55.48 122.04 55.4 122.18 55.3 122.3L39 142.89L67.44 139.71C68.26 139.62 68.99 140.2 69.08 141.02C69.1 141.12 69.1 141.23 69.08 141.34L67.88 153.03L80.28 144.73C80.96 144.28 81.89 144.46 82.34 145.14C82.45 145.31 82.53 145.5 82.57 145.7L87.64 173.05L97.95 142.33C98.22 141.55 99.06 141.13 99.84 141.39C99.96 141.44 100.08 141.49 100.19 141.57L108.62 147.21L115.38 128.97C115.51 128.63 115.75 128.35 116.07 128.18Z" fill="#061C3F" fill-opacity="1.000000" fill-rule="nonzero"/>
		</g>
	</g>
	<g mask="url(#mask1_17242)">
		<g style="mix-blend-mode:normal">
			<path id="Path 15560" d="M112.83 26.54C113.72 31.93 116.31 48.33 115.9 54.95C115.84 55.83 116.5 56.58 117.38 56.64C117.43 56.65 117.48 56.65 117.52 56.65L121.72 56.54C122.48 56.52 123.13 55.95 123.25 55.19C124 50.37 126.5 33.43 125.63 25.57C125.54 24.74 124.81 24.12 123.97 24.17L114.31 24.7C113.44 24.74 112.77 25.49 112.81 26.36C112.82 26.42 112.82 26.48 112.83 26.54Z" fill="#D3004C" fill-opacity="1.000000" fill-rule="nonzero"/>
		</g>
	</g>
	<g mask="url(#mask1_17242)">
		<g style="mix-blend-mode:normal">
			<path id="Path 15561" d="M116.96 60.38L120.63 60.45C121.24 60.46 121.72 60.96 121.72 61.57C121.69 62.82 121.52 64.1 121.22 65.32C121.07 65.82 120.59 66.15 120.07 66.1L116.38 65.81C115.77 65.77 115.32 65.24 115.36 64.63C115.37 64.58 115.37 64.54 115.38 64.49C115.6 63.48 115.75 62.46 115.84 61.43C115.87 60.84 116.37 60.37 116.96 60.38Z" fill="#D3004C" fill-opacity="1.000000" fill-rule="nonzero"/>
		</g>
	</g>
	<g mask="url(#mask1_17242)">
		<g style="mix-blend-mode:normal">
			<path id="Path 15562" d="M122.8 57.06C122.47 57.23 122.11 57.33 121.74 57.34L117.54 57.44C116.23 57.48 115.13 56.43 115.1 55.12C115.09 55.04 115.1 54.97 115.1 54.9C115.51 48.32 112.87 31.63 112.04 26.67C111.83 25.37 112.71 24.14 114.01 23.93C114.09 23.91 114.18 23.9 114.27 23.9L123.92 23.37C125.19 23.3 126.29 24.23 126.43 25.49C127.3 33.41 124.82 50.32 124.04 55.32C123.92 56.06 123.46 56.71 122.8 57.06ZM113.62 26.41C114.68 32.82 117.11 48.43 116.7 55C116.68 55.23 116.76 55.45 116.92 55.61C117.07 55.77 117.28 55.85 117.5 55.85L121.7 55.74C122.08 55.73 122.4 55.45 122.46 55.07C123.23 50.13 125.69 33.39 124.84 25.66C124.79 25.25 124.43 24.94 124.01 24.97L114.36 25.49C113.92 25.52 113.6 25.97 113.62 26.41Z" fill="#061C3F" fill-opacity="1.000000" fill-rule="nonzero"/>
		</g>
	</g>
	<g mask="url(#mask1_17242)">
		<g style="mix-blend-mode:normal">
			<path id="Path 15563" d="M121.05 66.68C120.73 66.85 120.37 66.93 120.01 66.9L116.32 66.61C115.27 66.53 114.49 65.61 114.57 64.56C114.57 64.49 114.58 64.41 114.6 64.33C114.81 63.36 114.96 62.38 115.04 61.39C115.09 60.36 115.95 59.56 116.98 59.58L120.64 59.65C121.69 59.66 122.53 60.53 122.52 61.58C122.48 62.9 122.31 64.26 121.99 65.54C121.84 66.03 121.5 66.44 121.05 66.68ZM116.8 61.22C116.7 61.27 116.64 61.36 116.64 61.47C116.55 62.54 116.39 63.6 116.17 64.65C116.15 64.74 116.17 64.82 116.22 64.89C116.28 64.96 116.36 65.01 116.45 65.01L120.14 65.31C120.28 65.32 120.42 65.23 120.46 65.09C120.74 63.93 120.9 62.75 120.92 61.56C120.92 61.48 120.89 61.4 120.84 61.34C120.78 61.28 120.7 61.24 120.62 61.24L116.95 61.18C116.9 61.18 116.84 61.19 116.8 61.22Z" fill="#061C3F" fill-opacity="1.000000" fill-rule="nonzero"/>
		</g>
	</g>
	<g mask="url(#mask1_17242)">
		<g style="mix-blend-mode:normal">
			<path id="Path 15564" d="M116.31 28.1C116.68 29.12 116.98 30.17 117.22 31.23C117.46 32.29 117.64 33.36 117.78 34.44C117.91 35.52 117.99 36.6 118.01 37.69C118.04 38.78 118 39.86 117.88 40.94C117.86 41.07 117.74 41.16 117.61 41.15C117.5 41.13 117.42 41.05 117.41 40.94C117.28 39.87 117.18 38.81 117.07 37.75C116.96 36.68 116.84 35.63 116.71 34.57C116.58 33.51 116.43 32.46 116.28 31.4L115.81 28.22C115.79 28.08 115.89 27.95 116.03 27.93C116.15 27.91 116.27 27.99 116.31 28.1Z" fill="#FCF9EB" fill-opacity="1.000000" fill-rule="nonzero"/>
		</g>
	</g>
	<g mask="url(#mask1_17242)">
		<g style="mix-blend-mode:normal">
			<path id="Path 15565" d="M117.48 42.14C117.51 42.24 117.52 42.35 117.53 42.45C117.54 42.56 117.54 42.62 117.53 42.73C117.53 42.83 117.6 42.91 117.7 42.92C117.8 42.92 117.88 42.84 117.88 42.75C117.9 42.52 117.88 42.29 117.82 42.07C117.8 41.97 117.71 41.91 117.61 41.93C117.52 41.95 117.46 42.05 117.48 42.14Z" fill="#FCF9EB" fill-opacity="1.000000" fill-rule="nonzero"/>
		</g>
	</g>
	<g mask="url(#mask1_17242)">
		<g style="mix-blend-mode:normal">
			<path id="Path 15566" d="M23.38 96.1C28.36 98.33 43.56 105.02 50.07 106.31C50.93 106.48 51.5 107.31 51.33 108.17C51.32 108.22 51.31 108.27 51.29 108.31L50.12 112.34C49.91 113.08 49.2 113.56 48.43 113.48C43.57 112.98 26.55 111.07 19.18 108.23C18.4 107.92 17.99 107.06 18.25 106.26L21.22 97.06C21.49 96.22 22.38 95.76 23.22 96.03C23.27 96.05 23.33 96.07 23.38 96.1Z" fill="#D3004C" fill-opacity="1.000000" fill-rule="nonzero"/>
		</g>
	</g>
	<g mask="url(#mask1_17242)">
		<g style="mix-blend-mode:normal">
			<path id="Path 15567" d="M55.05 108.73L54.18 112.29C54.03 112.88 54.39 113.48 54.98 113.62C56.2 113.91 57.48 114.08 58.73 114.1C59.26 114.08 59.69 113.71 59.79 113.19L60.45 109.55C60.56 108.95 60.16 108.37 59.56 108.26C59.52 108.25 59.47 108.25 59.43 108.25C58.39 108.2 57.37 108.09 56.35 107.91C55.77 107.79 55.19 108.15 55.05 108.73Z" fill="#D3004C" fill-opacity="1.000000" fill-rule="nonzero"/>
		</g>
	</g>
	<g mask="url(#mask1_17242)">
		<g style="mix-blend-mode:normal">
			<path id="Path 15568" d="M49.71 114.01C49.3 114.23 48.82 114.32 48.35 114.27C43.32 113.75 26.33 111.84 18.89 108.97C17.71 108.52 17.09 107.22 17.49 106.01L20.46 96.81C20.86 95.56 22.21 94.87 23.46 95.27C23.55 95.3 23.63 95.33 23.71 95.37C28.29 97.43 43.76 104.25 50.22 105.53C51.52 105.78 52.36 107.03 52.11 108.33C52.1 108.4 52.08 108.47 52.06 108.54L50.89 112.56C50.71 113.18 50.28 113.7 49.71 114.01ZM22.36 96.85C22.18 96.94 22.04 97.11 21.98 97.3L19.01 106.5C18.88 106.9 19.08 107.33 19.47 107.48C26.72 110.28 43.53 112.17 48.51 112.68C48.89 112.72 49.24 112.48 49.35 112.12L50.53 108.09C50.59 107.88 50.56 107.65 50.44 107.46C50.33 107.27 50.13 107.14 49.91 107.09C43.46 105.82 28.98 99.49 23.05 96.82C22.85 96.73 22.56 96.76 22.36 96.85Z" fill="#061C3F" fill-opacity="1.000000" fill-rule="nonzero"/>
		</g>
	</g>
	<g mask="url(#mask1_17242)">
		<g style="mix-blend-mode:normal">
			<path id="Path 15569" d="M59.59 114.68C59.33 114.82 59.05 114.89 58.76 114.9C57.44 114.88 56.13 114.72 54.84 114.41C53.81 114.19 53.16 113.17 53.39 112.15L54.28 108.53C54.52 107.54 55.51 106.91 56.51 107.12C57.49 107.3 58.48 107.41 59.47 107.45C60.52 107.51 61.32 108.41 61.26 109.46C61.26 109.54 61.25 109.61 61.24 109.69L60.57 113.34C60.47 113.91 60.1 114.41 59.59 114.68ZM55.83 108.92L54.95 112.48C54.93 112.56 54.95 112.64 54.99 112.72C55.03 112.78 55.1 112.83 55.18 112.85C56.34 113.13 57.52 113.28 58.71 113.3C58.85 113.3 58.98 113.19 59 113.05L59.66 109.41C59.68 109.32 59.66 109.23 59.6 109.16C59.55 109.09 59.47 109.05 59.38 109.04C58.31 109 57.24 108.88 56.19 108.69C56.03 108.66 55.87 108.76 55.83 108.92Z" fill="#061C3F" fill-opacity="1.000000" fill-rule="nonzero"/>
		</g>
	</g>
	<g mask="url(#mask1_17242)">
		<g style="mix-blend-mode:normal">
			<path id="Path 15570" d="M24.25 99.4L27.2 100.67C28.19 101.08 29.17 101.5 30.16 101.89C31.15 102.29 32.14 102.67 33.14 103.05C34.13 103.43 35.14 103.8 36.14 104.19C36.26 104.24 36.32 104.38 36.27 104.5C36.23 104.6 36.13 104.66 36.02 104.65C34.95 104.49 33.88 104.25 32.84 103.95C31.79 103.65 30.77 103.29 29.76 102.89C28.75 102.48 27.76 102.03 26.8 101.53C25.83 101.03 24.9 100.47 24 99.85C23.89 99.77 23.86 99.61 23.94 99.49C24.01 99.39 24.14 99.36 24.25 99.4Z" fill="#FCF9EB" fill-opacity="1.000000" fill-rule="nonzero"/>
		</g>
	</g>
	<g mask="url(#mask1_17242)">
		<g style="mix-blend-mode:normal">
			<path id="Path 15571" d="M37.11 104.88C37.22 104.94 37.33 104.99 37.44 105.03C37.56 105.07 37.67 105.1 37.79 105.12C37.84 105.12 37.89 105.1 37.92 105.07C38 105 38 104.89 37.93 104.82C37.91 104.8 37.84 104.77 37.81 104.76L37.93 104.82C37.78 104.79 37.55 104.7 37.41 104.64C37.36 104.61 37.35 104.6 37.3 104.58C37.26 104.55 37.21 104.54 37.16 104.55C37.07 104.58 37.01 104.67 37.03 104.77C37.04 104.81 37.07 104.85 37.11 104.88Z" fill="#FCF9EB" fill-opacity="1.000000" fill-rule="nonzero"/>
		</g>
	</g>
	<g mask="url(#mask1_17242)">
		<g style="mix-blend-mode:normal">
			<path id="Path 15572" d="M32.41 69.43L49.2 75.74C49.57 75.88 49.99 75.7 50.13 75.33C50.23 75.06 50.16 74.75 49.95 74.55L36.4 61.69C36.11 61.42 35.66 61.43 35.38 61.72C35.33 61.77 35.29 61.83 35.26 61.9L32.02 68.43C31.84 68.79 32.06 69.25 32.41 69.43Z" fill="#FFCC5A" fill-opacity="1.000000" fill-rule="nonzero"/>
		</g>
	</g>
	<g mask="url(#mask1_17242)">
		<g style="mix-blend-mode:normal">
			<path id="Path 15573" d="M187.15 95.4L173.18 96.72C172.9 96.74 172.71 96.99 172.73 97.26C172.75 97.42 172.84 97.56 172.98 97.64L193.79 109.18C194.03 109.31 194.33 109.22 194.46 108.98C194.54 108.84 194.54 108.66 194.46 108.51L187.63 95.66C187.53 95.48 187.34 95.38 187.15 95.4Z" fill="#D3004C" fill-opacity="1.000000" fill-rule="nonzero"/>
		</g>
	</g>
	<g mask="url(#mask1_17242)">
		<g style="mix-blend-mode:normal">
			<path id="Path 15574" d="M131.98 38.06L135.22 24.76C135.27 24.56 135.4 24.4 135.58 24.3L143.38 20.16C143.73 19.97 144.16 20.1 144.35 20.45C144.47 20.68 144.46 20.96 144.32 21.17L133.29 38.61C133.08 38.95 132.63 39.05 132.3 38.83C132.04 38.67 131.91 38.36 131.98 38.06Z" fill="#FFCC5A" fill-opacity="1.000000" fill-rule="nonzero"/>
		</g>
	</g>
	<g mask="url(#mask1_17242)">
		<g style="mix-blend-mode:normal">
			<path id="Path 15575" d="M32.41 69.43L49.2 75.74C49.57 75.88 49.99 75.7 50.13 75.33C50.23 75.06 50.16 74.75 49.95 74.55L36.4 61.69C36.11 61.42 35.66 61.43 35.38 61.72C35.33 61.77 35.29 61.83 35.26 61.9L32.02 68.43C31.84 68.79 32.06 69.25 32.41 69.43Z" fill="#D3004C" fill-opacity="1.000000" fill-rule="nonzero"/>
		</g>
	</g>
	<g mask="url(#mask1_17242)">
		<g style="mix-blend-mode:normal">
			<path id="Path 15576" d="M131.98 38.06L135.22 24.76C135.27 24.56 135.4 24.4 135.58 24.3L143.38 20.16C143.73 19.97 144.16 20.1 144.35 20.45C144.47 20.68 144.46 20.96 144.32 21.17L133.29 38.61C133.08 38.95 132.63 39.05 132.3 38.83C132.04 38.67 131.91 38.36 131.98 38.06Z" fill="#D3004C" fill-opacity="1.000000" fill-rule="nonzero"/>
		</g>
	</g>
	<g mask="url(#mask1_17242)">
		<g style="mix-blend-mode:normal">
			<path id="Path 15577" d="M85.08 127.45C83.96 128.12 82.75 128.64 81.49 128.98C80.29 129.31 79.06 129.48 77.81 129.5C76.58 129.51 75.35 129.36 74.16 129.05C72.97 128.74 71.83 128.27 70.76 127.66C69.68 127.05 68.68 126.3 67.78 125.44C66.85 124.54 66.04 123.52 65.38 122.4C64.07 120.22 63.32 117.75 63.19 115.2C63.13 113.96 63.22 112.72 63.46 111.5C63.7 110.28 64.1 109.1 64.65 107.98C65.21 106.85 65.92 105.8 66.76 104.87C67.65 103.89 68.68 103.05 69.81 102.38C71.51 101.34 73.38 100.61 75.34 100.24C79.02 99.53 82.82 100.46 85.76 102.79C88.35 104.87 90.26 107.69 91.26 110.86C91.63 112.07 91.85 113.33 91.91 114.59C91.97 115.83 91.88 117.08 91.62 118.3C91.37 119.53 90.95 120.71 90.38 121.82C89.18 124.16 87.34 126.11 85.08 127.45ZM76.29 112.75C76.02 112.91 75.78 113.12 75.59 113.37C75.43 113.6 75.32 113.86 75.27 114.14C75.21 114.43 75.22 114.73 75.28 115.02C75.35 115.38 75.48 115.71 75.67 116.02C75.87 116.36 76.13 116.66 76.41 116.93C76.67 117.18 76.97 117.38 77.3 117.53C77.56 117.65 77.85 117.71 78.13 117.7C78.39 117.69 78.63 117.62 78.84 117.48C79.1 117.33 79.33 117.12 79.5 116.87C79.66 116.63 79.76 116.36 79.81 116.08C79.86 115.74 79.84 115.41 79.77 115.08C79.69 114.71 79.55 114.36 79.36 114.04C79.17 113.71 78.92 113.42 78.64 113.16C78.4 112.94 78.12 112.76 77.82 112.64C77.57 112.54 77.29 112.49 77.02 112.51C76.76 112.52 76.51 112.61 76.29 112.75Z" fill="#061C3F" fill-opacity="1.000000" fill-rule="nonzero"/>
		</g>
	</g>
	<g mask="url(#mask1_17242)">
		<g style="mix-blend-mode:normal">
			<path id="Path 15578" d="M94.55 121.96L93.71 120.2C92.75 118.18 91.79 116.16 90.83 114.13C89.89 112.14 88.9 110.12 87.9 108.13C86.91 106.15 85.88 104.16 84.84 102.21C83.79 100.27 82.7 98.33 81.57 96.45L80.7 94.99L91.55 87.86L91.61 87.97C91.79 87.65 91.99 87.35 92.21 87.06C92.65 86.49 93.19 86.01 93.81 85.64C94.4 85.28 95.03 84.97 95.68 84.73C96.33 84.49 97.01 84.36 97.7 84.34C98.33 84.33 98.96 84.43 99.56 84.64C99.73 84.13 99.95 83.63 100.2 83.15C100.54 82.52 100.96 81.94 101.45 81.42C103.01 79.83 105.09 78.86 107.31 78.68C108.57 78.64 109.83 78.87 110.99 79.36C112.13 79.85 113.19 80.52 114.12 81.35C115.03 82.15 115.87 83.03 116.64 83.97C117.4 84.89 118.11 85.85 118.77 86.85C119.4 87.81 119.96 88.71 120.45 89.52C121.42 91.16 122.36 92.84 123.23 94.53C124.09 96.2 124.95 97.91 125.78 99.6L126.46 101L114.94 108.65L105.95 114.46L106.24 114.98L94.55 121.96Z" fill="#061C3F" fill-opacity="1.000000" fill-rule="nonzero"/>
		</g>
	</g>
	<g mask="url(#mask1_17242)">
		<g style="mix-blend-mode:normal">
			<path id="Path 15579" d="M138.92 96.35C137.19 97.41 135.27 98.12 133.27 98.46C129.48 99.09 125.59 98.14 122.53 95.82C120.92 94.6 119.57 93.08 118.55 91.34C117.75 90.01 117.11 88.59 116.65 87.11C116.21 85.68 115.93 84.2 115.83 82.71C115.74 81.24 115.84 79.77 116.11 78.32C116.68 75.36 118.07 72.62 120.14 70.42C121.23 69.25 122.49 68.24 123.87 67.43C124.39 67.12 124.96 66.8 125.58 66.49C126.21 66.18 126.85 65.89 127.51 65.64C128.19 65.38 128.89 65.17 129.59 65.01C130.3 64.84 131.03 64.75 131.76 64.74L132.87 64.72L137.04 73.02C137.28 72.86 139.27 71.56 139.27 71.56L147.37 84.56L147.28 85.19C147.11 86.4 146.74 87.58 146.19 88.67C145.64 89.76 144.98 90.78 144.22 91.72C143.45 92.66 142.61 93.54 141.69 94.33C140.83 95.08 139.9 95.76 138.92 96.35Z" fill="#061C3F" fill-opacity="1.000000" fill-rule="nonzero"/>
		</g>
	</g>
	<g mask="url(#mask1_17242)">
		<g style="mix-blend-mode:normal">
			<path id="Path 15580" d="M88.14 108.2C88.74 109.2 89.21 110.26 89.56 111.38C89.88 112.45 90.08 113.56 90.14 114.67C90.19 115.77 90.11 116.87 89.88 117.94C89.66 119.01 89.3 120.04 88.8 121.01C87.75 123.05 86.14 124.75 84.16 125.92C83.19 126.51 82.13 126.97 81.03 127.27C79.97 127.56 78.89 127.71 77.79 127.72C76.72 127.73 75.65 127.6 74.61 127.33C73.57 127.06 72.57 126.65 71.63 126.12C70.68 125.58 69.8 124.92 69.01 124.16C68.19 123.37 67.48 122.47 66.9 121.49C65.74 119.56 65.08 117.37 64.96 115.11C64.91 114.02 64.99 112.92 65.2 111.84C65.41 110.78 65.76 109.74 66.24 108.76C66.73 107.78 67.35 106.87 68.08 106.06C68.85 105.21 69.74 104.48 70.72 103.9C72.24 102.97 73.91 102.32 75.65 101.99C78.84 101.36 82.13 102.17 84.67 104.19C86.07 105.29 87.24 106.65 88.14 108.2ZM80.88 113.13C80.6 112.65 80.24 112.22 79.83 111.84C79.43 111.48 78.97 111.2 78.48 110.99C78 110.8 77.48 110.71 76.96 110.73C76.4 110.76 75.85 110.93 75.38 111.23C74.88 111.51 74.46 111.9 74.13 112.37C73.83 112.8 73.63 113.28 73.52 113.8C73.42 114.32 73.43 114.85 73.54 115.37C73.65 115.92 73.86 116.45 74.15 116.93C74.43 117.41 74.79 117.85 75.2 118.23C75.6 118.61 76.07 118.93 76.58 119.15C77.07 119.37 77.6 119.48 78.14 119.48C78.71 119.47 79.27 119.3 79.75 119C80.25 118.71 80.68 118.31 80.99 117.83C81.29 117.38 81.48 116.88 81.56 116.34C81.64 115.8 81.62 115.25 81.5 114.71C81.39 114.15 81.18 113.62 80.88 113.13Z" fill="#FFFFFF" fill-opacity="1.000000" fill-rule="nonzero"/>
		</g>
	</g>
	<g mask="url(#mask1_17242)">
		<g style="mix-blend-mode:normal">
			<path id="Path 15581" d="M118.92 90.43C119.89 92.04 120.8 93.68 121.65 95.34C122.51 97.01 123.35 98.69 124.18 100.38L115.73 105.99C114.81 103.87 113.87 101.77 112.9 99.67C111.93 97.58 110.86 95.54 109.68 93.57C109.6 93.44 109.47 93.23 109.27 92.93C109.07 92.62 108.84 92.28 108.58 91.9C108.31 91.53 108.03 91.14 107.73 90.75C107.45 90.38 107.14 90.03 106.82 89.7C106.58 89.44 106.3 89.21 105.99 89.02C105.73 88.87 105.52 88.84 105.35 88.94C104.97 89.14 104.72 89.52 104.68 89.95C104.64 90.41 104.69 90.88 104.83 91.32C104.97 91.8 105.16 92.27 105.4 92.71C105.64 93.16 105.83 93.52 106 93.79C106.28 94.27 106.57 94.73 106.88 95.2C107.19 95.66 107.49 96.14 107.79 96.63C108.83 98.38 109.83 100.15 110.79 101.94C111.74 103.72 112.68 105.53 113.6 107.36L105.76 112.46C104.85 110.34 103.9 108.24 102.93 106.17C101.95 104.09 100.87 102.06 99.7 100.09C99.62 99.96 99.48 99.74 99.27 99.42C99.07 99.1 98.83 98.75 98.56 98.36C98.29 97.97 97.99 97.57 97.67 97.16C97.35 96.76 97.04 96.4 96.73 96.08C96.48 95.81 96.19 95.56 95.88 95.36C95.61 95.2 95.39 95.17 95.21 95.28C94.93 95.44 94.74 95.72 94.7 96.03C94.64 96.41 94.65 96.8 94.74 97.17C94.84 97.62 94.98 98.06 95.16 98.49C95.36 98.95 95.56 99.39 95.77 99.81C95.99 100.24 96.2 100.62 96.4 100.97C96.6 101.32 96.74 101.58 96.83 101.76L103.85 114.34L95.32 119.44C94.36 117.42 93.4 115.4 92.43 113.37C91.47 111.34 90.49 109.33 89.49 107.33C88.49 105.33 87.46 103.35 86.4 101.38C85.34 99.4 84.24 97.46 83.09 95.54L90.95 90.38L92.09 92.37C92.15 91.87 92.24 91.39 92.36 90.9C92.48 90.4 92.65 89.91 92.85 89.44C93.06 88.98 93.31 88.54 93.62 88.14C93.92 87.75 94.3 87.41 94.72 87.16C95.22 86.86 95.74 86.6 96.29 86.4C96.75 86.22 97.24 86.13 97.74 86.11C98.23 86.11 98.72 86.2 99.18 86.39C99.73 86.62 100.24 86.93 100.69 87.31C100.82 86.7 100.96 86.12 101.13 85.56C101.29 85.02 101.5 84.49 101.77 83.99C102.03 83.5 102.36 83.04 102.75 82.64C103.98 81.39 105.62 80.61 107.37 80.46C108.38 80.42 109.38 80.6 110.3 80.99C111.27 81.41 112.16 81.98 112.94 82.68C113.78 83.42 114.56 84.23 115.27 85.1C115.99 85.97 116.66 86.88 117.28 87.83C117.9 88.76 118.44 89.63 118.92 90.43Z" fill="#FFFFFF" fill-opacity="1.000000" fill-rule="nonzero"/>
		</g>
	</g>
	<g mask="url(#mask1_17242)">
		<g style="mix-blend-mode:normal">
			<path id="Path 15582" d="M145.52 84.96C145.38 85.97 145.07 86.96 144.6 87.87C144.11 88.85 143.52 89.76 142.84 90.61C142.14 91.47 141.37 92.26 140.53 92.98C139.75 93.67 138.9 94.29 138 94.83C136.47 95.77 134.77 96.41 132.99 96.7C129.67 97.27 126.27 96.43 123.59 94.4C122.17 93.32 120.97 91.97 120.07 90.43C119.35 89.23 118.77 87.94 118.35 86.59C117.94 85.3 117.69 83.96 117.61 82.6C117.52 81.28 117.61 79.96 117.86 78.66C118.36 76.03 119.6 73.59 121.44 71.63C122.42 70.59 123.55 69.68 124.79 68.95C125.27 68.66 125.8 68.37 126.38 68.08C126.96 67.79 127.55 67.53 128.15 67.3C128.75 67.07 129.36 66.88 129.99 66.74C130.58 66.6 131.18 66.53 131.78 66.51L135.18 73.26C134.4 73.41 133.65 73.64 132.93 73.95C132.23 74.26 131.55 74.61 130.89 75C130.02 75.51 129.25 76.14 128.57 76.88C127.96 77.55 127.48 78.33 127.17 79.18C126.87 80.02 126.76 80.9 126.85 81.79C126.96 82.77 127.29 83.72 127.82 84.56C128.16 85.14 128.59 85.66 129.07 86.12C129.54 86.56 130.08 86.9 130.66 87.14C131.24 87.38 131.86 87.48 132.48 87.45C133.15 87.41 133.81 87.2 134.38 86.84C134.83 86.57 135.24 86.25 135.61 85.88C135.98 85.52 136.26 85.08 136.44 84.6L135.72 83.24L131.61 85.6L128.78 80.4C130.43 79.34 132.08 78.29 133.74 77.24C135.4 76.19 137.06 75.13 138.72 74.04L145.52 84.96Z" fill="#FFFFFF" fill-opacity="1.000000" fill-rule="nonzero"/>
		</g>
	</g>
</svg>
