<svg width="178.823242" height="176.631836" viewBox="0 0 178.823 176.632" fill="none" xmlns="http://www.w3.org/2000/svg" xmlns:xlink="http://www.w3.org/1999/xlink">
	<desc>
			Created with Pixso.
	</desc>
	<defs/>
	<mask id="mask1_45247" mask-type="alpha" maskUnits="userSpaceOnUse" x="0.000000" y="0.000000" width="178.823242" height="176.631836">
		<g style="mix-blend-mode:normal">
			<rect id="Rectangle 3488" width="178.823395" height="176.631836" fill="#C4C4C4" fill-opacity="1.000000"/>
		</g>
	</mask>
	<g mask="url(#mask1_45247)">
		<g style="mix-blend-mode:normal">
			<path id="Path 24753" d="M64.45 48.69C99.52 48.69 127.94 77.11 127.94 112.18C127.94 147.24 99.52 175.67 64.45 175.67C29.39 175.67 0.96 147.24 0.96 112.18C0.96 77.11 29.39 48.69 64.45 48.69Z" fill="#FFFFFF" fill-opacity="1.000000" fill-rule="nonzero"/>
		</g>
	</g>
	<g mask="url(#mask1_45247)">
		<g style="mix-blend-mode:normal">
			<path id="Path 24754" d="M68.8 57.2C101.57 57.2 128.14 83.76 128.14 116.53C128.14 149.3 101.57 175.86 68.8 175.86C36.04 175.86 9.47 149.3 9.47 116.53C9.47 83.76 36.04 57.2 68.8 57.2Z" fill="#FCD100" fill-opacity="1.000000" fill-rule="nonzero"/>
		</g>
	</g>
	<g mask="url(#mask1_45247)">
		<g style="mix-blend-mode:normal">
			<path id="Path 24755" d="M64.45 172.88C56.25 172.88 48.3 171.28 40.82 168.11C33.59 165.05 27.1 160.68 21.52 155.1C15.95 149.53 11.57 143.03 8.51 135.81C5.35 128.32 3.74 120.37 3.74 112.18C3.74 103.98 5.35 96.03 8.51 88.55C11.57 81.32 15.95 74.82 21.52 69.25C27.1 63.67 33.59 59.3 40.82 56.24C48.3 53.08 56.25 51.47 64.45 51.47C72.65 51.47 80.6 53.08 88.08 56.24C95.31 59.3 101.8 63.67 107.38 69.25C112.95 74.83 117.33 81.32 120.39 88.55C123.55 96.03 125.16 103.98 125.16 112.18C125.16 120.37 123.55 128.32 120.39 135.81C117.33 143.03 112.95 149.53 107.38 155.1C101.8 160.68 95.31 165.05 88.08 168.11C80.6 171.28 72.65 172.88 64.45 172.88ZM64.45 52.47C31.53 52.47 4.74 79.25 4.74 112.18C4.74 145.1 31.53 171.88 64.45 171.88C97.37 171.88 124.16 145.1 124.16 112.18C124.16 79.26 97.37 52.47 64.45 52.47Z" fill="#000000" fill-opacity="1.000000" fill-rule="nonzero"/>
		</g>
	</g>
	<g mask="url(#mask1_45247)">
		<g style="mix-blend-mode:normal">
			<path id="Path 24756" d="M64.45 116.91C61.84 116.91 59.71 114.79 59.71 112.17C59.71 109.56 61.84 107.44 64.45 107.44C67.06 107.44 69.19 109.56 69.19 112.17C69.19 114.79 67.06 116.91 64.45 116.91ZM64.45 108.21C62.26 108.21 60.48 109.99 60.48 112.18C60.48 114.36 62.26 116.15 64.45 116.15C66.64 116.15 68.42 114.37 68.42 112.18C68.42 109.99 66.64 108.21 64.45 108.21Z" fill="#000000" fill-opacity="1.000000" fill-rule="nonzero"/>
		</g>
	</g>
	<g mask="url(#mask1_45247)">
		<g style="mix-blend-mode:normal">
			<path id="Path 24757" d="M64.45 60.62C71.44 60.62 77.11 66.29 77.11 73.28C77.11 80.27 71.44 85.93 64.45 85.93C57.46 85.93 51.8 80.27 51.8 73.28C51.8 66.29 57.46 60.62 64.45 60.62Z" fill="#000000" fill-opacity="1.000000" fill-rule="nonzero"/>
		</g>
	</g>
	<g mask="url(#mask1_45247)">
		<g style="mix-blend-mode:normal">
			<path id="Path 24758" d="M30.77 80.07C37.76 80.07 43.42 85.74 43.42 92.73C43.42 99.72 37.76 105.38 30.77 105.38C23.78 105.38 18.11 99.72 18.11 92.73C18.11 85.74 23.78 80.07 30.77 80.07Z" fill="#000000" fill-opacity="1.000000" fill-rule="nonzero"/>
		</g>
	</g>
	<g mask="url(#mask1_45247)">
		<g style="mix-blend-mode:normal">
			<path id="Path 24759" d="M98.14 80.07C105.13 80.07 110.8 85.74 110.8 92.73C110.8 99.72 105.13 105.38 98.14 105.38C91.15 105.38 85.48 99.72 85.48 92.73C85.48 85.74 91.15 80.07 98.14 80.07Z" fill="#000000" fill-opacity="1.000000" fill-rule="nonzero"/>
		</g>
	</g>
	<g mask="url(#mask1_45247)">
		<g style="mix-blend-mode:normal">
			<path id="Path 24760" d="M64.45 138.42C71.44 138.42 77.11 144.08 77.11 151.07C77.11 158.06 71.44 163.73 64.45 163.73C57.46 163.73 51.8 158.06 51.8 151.07C51.8 144.08 57.46 138.42 64.45 138.42Z" fill="#000000" fill-opacity="1.000000" fill-rule="nonzero"/>
		</g>
	</g>
	<g mask="url(#mask1_45247)">
		<g style="mix-blend-mode:normal">
			<path id="Path 24761" d="M30.77 118.97C37.76 118.97 43.42 124.63 43.42 131.62C43.42 138.61 37.76 144.28 30.77 144.28C23.78 144.28 18.11 138.61 18.11 131.62C18.11 124.63 23.78 118.97 30.77 118.97Z" fill="#000000" fill-opacity="1.000000" fill-rule="nonzero"/>
		</g>
	</g>
	<g mask="url(#mask1_45247)">
		<g style="mix-blend-mode:normal">
			<path id="Path 24762" d="M98.14 118.97C105.13 118.97 110.8 124.63 110.8 131.62C110.8 138.61 105.13 144.28 98.14 144.28C91.15 144.28 85.48 138.61 85.48 131.62C85.48 124.63 91.15 118.97 98.14 118.97Z" fill="#000000" fill-opacity="1.000000" fill-rule="nonzero"/>
		</g>
	</g>
	<g mask="url(#mask1_45247)">
		<g style="mix-blend-mode:normal">
			<path id="Path 24763" d="M64.45 98.1C66.36 98.1 67.91 99.64 67.91 101.55C67.91 103.46 66.36 105.01 64.45 105.01C62.54 105.01 61 103.46 61 101.55C61 99.64 62.54 98.1 64.45 98.1Z" fill="#000000" fill-opacity="1.000000" fill-rule="nonzero"/>
		</g>
	</g>
	<g mask="url(#mask1_45247)">
		<g style="mix-blend-mode:normal">
			<path id="Path 24764" d="M55.25 103.41C57.16 103.41 58.71 104.96 58.71 106.86C58.71 108.77 57.16 110.32 55.25 110.32C53.34 110.32 51.8 108.77 51.8 106.86C51.8 104.96 53.34 103.41 55.25 103.41Z" fill="#000000" fill-opacity="1.000000" fill-rule="nonzero"/>
		</g>
	</g>
	<g mask="url(#mask1_45247)">
		<g style="mix-blend-mode:normal">
			<path id="Path 24765" d="M73.65 103.41C75.56 103.41 77.11 104.96 77.11 106.86C77.11 108.77 75.56 110.32 73.65 110.32C71.74 110.32 70.2 108.77 70.2 106.86C70.2 104.96 71.74 103.41 73.65 103.41Z" fill="#000000" fill-opacity="1.000000" fill-rule="nonzero"/>
		</g>
	</g>
	<g mask="url(#mask1_45247)">
		<g style="mix-blend-mode:normal">
			<path id="Path 24766" d="M64.45 119.34C66.36 119.34 67.91 120.89 67.91 122.8C67.91 124.71 66.36 126.25 64.45 126.25C62.54 126.25 61 124.71 61 122.8C61 120.89 62.54 119.34 64.45 119.34Z" fill="#000000" fill-opacity="1.000000" fill-rule="nonzero"/>
		</g>
	</g>
	<g mask="url(#mask1_45247)">
		<g style="mix-blend-mode:normal">
			<path id="Path 24767" d="M55.25 114.03C57.16 114.03 58.71 115.58 58.71 117.49C58.71 119.39 57.16 120.94 55.25 120.94C53.34 120.94 51.8 119.39 51.8 117.49C51.8 115.58 53.34 114.03 55.25 114.03Z" fill="#000000" fill-opacity="1.000000" fill-rule="nonzero"/>
		</g>
	</g>
	<g mask="url(#mask1_45247)">
		<g style="mix-blend-mode:normal">
			<path id="Path 24768" d="M73.65 114.03C75.56 114.03 77.11 115.58 77.11 117.49C77.11 119.39 75.56 120.94 73.65 120.94C71.74 120.94 70.2 119.39 70.2 117.49C70.2 115.58 71.74 114.03 73.65 114.03Z" fill="#000000" fill-opacity="1.000000" fill-rule="nonzero"/>
		</g>
	</g>
	<g mask="url(#mask1_45247)">
		<g style="mix-blend-mode:normal">
			<path id="Path 24769" d="M119.62 111.79L81.4 111.79C81.3 107.41 79.55 103.3 76.44 100.19C75.47 99.22 74.4 98.38 73.26 97.69L92.37 64.59C92.48 64.4 92.41 64.17 92.23 64.06C92.04 63.96 91.81 64.02 91.7 64.2L72.59 97.3C70.13 95.95 67.34 95.22 64.45 95.22C61.56 95.22 58.78 95.95 56.31 97.3L37.2 64.2C37.09 64.02 36.86 63.96 36.67 64.06C36.49 64.17 36.43 64.4 36.53 64.59L55.64 97.69C54.5 98.38 53.43 99.22 52.46 100.19C49.35 103.3 47.6 107.41 47.5 111.79L9.28 111.79C9.07 111.79 8.9 111.96 8.9 112.18C8.9 112.39 9.07 112.56 9.28 112.56L47.51 112.56C47.6 116.95 49.35 121.05 52.46 124.16C53.44 125.13 54.5 125.97 55.64 126.67L36.53 159.77C36.43 159.95 36.49 160.18 36.67 160.29C36.74 160.32 36.8 160.34 36.87 160.34C37 160.34 37.13 160.27 37.2 160.15L56.31 127.05C58.78 128.41 61.56 129.13 64.45 129.13C67.35 129.13 70.13 128.41 72.6 127.05L91.71 160.15C91.78 160.28 91.91 160.34 92.04 160.34C92.1 160.34 92.17 160.32 92.23 160.29C92.41 160.18 92.48 159.95 92.37 159.77L73.26 126.67C74.41 125.97 75.47 125.13 76.44 124.16C79.55 121.05 81.3 116.95 81.4 112.56L119.62 112.56C119.83 112.56 120.01 112.39 120.01 112.18C120.01 111.96 119.83 111.79 119.62 111.79ZM64.45 128.2C55.61 128.2 48.42 121.01 48.42 112.17C48.42 103.34 55.61 96.14 64.45 96.14C73.29 96.14 80.48 103.34 80.48 112.17C80.48 121.01 73.29 128.2 64.45 128.2Z" fill="#000000" fill-opacity="1.000000" fill-rule="nonzero"/>
		</g>
	</g>
	<g mask="url(#mask1_45247)">
		<g style="mix-blend-mode:normal">
			<path id="Path 24770" d="M178.79 0.41C178.76 0.12 178.43 -0.13 178.14 0.06C177.64 0.39 177.24 0.87 176.83 1.3C176.42 1.72 176.01 2.14 175.6 2.56C174.75 3.42 173.9 4.27 173.04 5.11C171.35 6.76 169.64 8.4 167.95 10.06C167.9 10.09 167.85 10.13 167.82 10.19C166.24 13.36 164.33 16.36 162.13 19.13C159.88 20.69 157.51 22.07 155.02 23.22C154.71 23.37 154.39 23.51 154.08 23.65C152.52 24.33 150.92 24.92 149.29 25.43C147.51 25.97 145.7 26.4 143.88 26.71C143.64 26.76 143.4 26.79 143.16 26.83C139.06 27.47 134.9 27.55 130.75 27.22C130.52 27.21 130.29 27.19 130.05 27.16C129.41 27.11 128.78 27.04 128.14 26.96C124.24 26.49 120.39 25.66 116.57 24.67C116.29 24.6 116 24.53 115.72 24.45C112.48 23.6 109.27 22.64 106.07 21.72C103.93 21.1 101.79 20.47 99.64 19.86C99.38 19.78 99.13 19.71 98.87 19.63C93.87 18.22 88.84 16.9 83.72 16.02C82.76 15.85 81.79 15.7 80.82 15.56C80.42 15.5 80.02 15.45 79.62 15.4C73.47 14.62 67.15 14.55 61.18 16.24C60.91 16.31 60.64 16.39 60.37 16.48C59.89 16.58 59.39 16.69 58.92 16.83C58.7 16.9 58.48 16.97 58.27 17.06C57.59 17.33 56.92 17.62 56.25 17.91C54.92 18.5 53.65 19.21 52.41 19.99C49.91 21.54 47.53 23.26 45.24 25.09C40.63 28.78 36.42 32.91 32.38 37.19C31.91 37.69 31.45 38.2 30.99 38.71C26.18 43.53 22.02 49.02 18.53 54.88C18.3 55.26 18.07 55.66 17.85 56.05C17.29 57 16.76 57.97 16.24 58.94C13.94 63.24 11.95 67.7 10.2 72.25C9.9 73.05 9.6 73.85 9.31 74.65C8.08 78.06 6.97 81.52 5.98 85.02C5.66 85.7 5.35 86.39 5.06 87.09C1.7 95.04 0 103.48 0 112.18C0 120.88 1.7 129.32 5.06 137.26C8.31 144.94 12.95 151.83 18.87 157.75C24.79 163.67 31.68 168.32 39.36 171.56C47.31 174.92 55.75 176.63 64.45 176.63C73.15 176.63 81.59 174.92 89.54 171.56C96.43 168.64 102.7 164.59 108.2 159.51C125.08 148.1 136.18 128.78 136.18 106.86C136.18 71.8 107.76 43.37 72.69 43.37C60.53 43.37 49.16 46.8 39.5 52.73C39.45 52.75 39.41 52.77 39.36 52.79C32.62 55.64 26.49 59.57 21.08 64.49C21.51 63.4 21.96 62.31 22.41 61.23C22.61 60.76 22.81 60.29 23.02 59.82C24.5 56.43 26.12 53.1 27.93 49.86C28.37 49.06 28.83 48.26 29.3 47.47C29.59 46.98 29.89 46.49 30.19 46C32.68 41.98 35.46 38.13 38.57 34.57C41.27 32.55 44.15 30.82 47.24 29.49C47.79 29.26 48.34 29.04 48.9 28.84C49.36 28.68 49.82 28.52 50.28 28.38C56.43 26.5 63.03 26.57 69.39 27.42C69.75 27.47 70.11 27.52 70.46 27.57C70.63 27.6 70.8 27.62 70.96 27.65C77.07 28.58 83.04 30.17 88.98 31.87C89.39 31.99 89.8 32.11 90.22 32.23C91.1 32.49 91.98 32.74 92.85 33C97.62 34.39 102.52 35.78 107.48 36.87C107.87 36.95 108.26 37.04 108.66 37.12C113.47 38.12 118.32 38.82 123.18 38.93C123.53 38.93 123.88 38.94 124.23 38.94C128.33 38.96 132.42 38.56 136.47 37.55C136.76 37.48 137.05 37.41 137.33 37.33C137.73 37.22 138.14 37.11 138.54 36.99C142.26 35.88 145.86 34.3 149.22 32.31C149.76 31.99 150.3 31.66 150.82 31.32C151.62 30.8 152.41 30.26 153.18 29.69C153.41 29.55 153.63 29.4 153.87 29.27C154.83 28.71 155.73 28.01 156.63 27.35C158.47 26.01 160.18 24.44 161.86 22.9C164.94 20.09 167.79 17.06 170.41 13.82C172.9 11.13 175.07 8.15 176.82 4.94C177.58 3.55 178.21 2.09 178.79 0.63C178.83 0.55 178.82 0.48 178.79 0.41ZM8.84 79.22C9.67 76.88 10.55 74.57 11.49 72.28C12.32 71.39 13.15 70.51 13.99 69.63C16.06 67.47 18.17 65.35 20.31 63.26C19.93 64.26 19.57 65.25 19.22 66.26C19.1 66.37 18.99 66.49 18.87 66.6C14.81 70.66 11.35 75.18 8.53 80.1C8.63 79.81 8.74 79.51 8.84 79.22ZM29.43 60.4C39.42 53.61 51.49 49.65 64.45 49.65C98.93 49.65 126.98 77.7 126.98 112.18C126.98 134.71 115 154.5 97.07 165.51C87.56 171.34 76.39 174.71 64.45 174.71C29.97 174.71 1.92 146.65 1.92 112.18C1.92 96.21 7.94 81.62 17.82 70.56L19.45 68.81C22.47 65.67 25.81 62.85 29.43 60.4ZM20.88 61.77C20.05 62.53 19.23 63.3 18.42 64.07C16.41 65.96 14.44 67.9 12.5 69.87C14.01 66.39 15.68 62.98 17.52 59.66C18.38 58.12 19.28 56.61 20.22 55.12C20.53 54.83 20.83 54.54 21.14 54.25C22.82 52.71 24.53 51.22 26.3 49.79C24.26 53.67 22.47 57.68 20.88 61.77ZM28.95 45.07C28.35 46.07 27.77 47.08 27.22 48.1C26.7 48.49 26.18 48.88 25.67 49.28C24.47 50.21 23.3 51.18 22.15 52.17C24.46 48.79 27 45.56 29.8 42.55C30.52 41.77 31.27 41 32.03 40.25C30.95 41.82 29.92 43.43 28.95 45.07ZM44.41 28.56C43.45 29.05 42.52 29.58 41.59 30.14C44.99 27.32 49.15 24.32 53 22.07C53.71 21.65 54.49 21.21 55.18 20.86C55.23 20.83 55.33 20.78 55.38 20.75C53.91 22.45 52.48 24.18 51.1 25.95C50.62 26.08 50.15 26.22 49.68 26.37C47.85 26.96 46.1 27.7 44.41 28.56ZM52.62 25.57C53.25 24.83 53.89 24.09 54.54 23.35C55.66 22.06 56.81 20.8 57.98 19.55C64.31 16.93 71.23 16.67 77.98 17.39C75.83 20 73.62 22.58 71.41 25.13C71.31 25.24 71.21 25.35 71.12 25.46C65 24.54 58.66 24.23 52.62 25.57ZM73.31 25.82C73.08 25.78 72.86 25.74 72.63 25.7C74.89 23.02 77.11 20.31 79.28 17.55C79.81 17.61 80.35 17.69 80.88 17.77C86.47 18.58 91.95 19.97 97.38 21.5C97.03 21.94 96.68 22.37 96.33 22.81C94.39 25.21 92.46 27.63 90.5 30.02C84.83 28.38 79.14 26.82 73.31 25.82ZM95.67 31.52C94.34 31.13 93.02 30.75 91.69 30.36C93.92 27.52 96.11 24.65 98.25 21.74C99.93 22.22 101.6 22.71 103.27 23.19C106.95 24.26 110.71 25.34 114.51 26.27C114.31 26.57 114.12 26.87 113.92 27.17C112.16 29.81 110.4 32.45 108.65 35.09C104.28 34.06 99.96 32.76 95.67 31.52ZM117.74 36.76C115.07 36.44 112.43 35.95 109.8 35.36C110.38 34.46 110.95 33.57 111.52 32.67C112.83 30.62 114.14 28.56 115.44 26.5C119.95 27.57 124.53 28.44 129.12 28.86C128.89 29.27 128.66 29.67 128.43 30.08C127.07 32.48 125.67 34.85 124.24 37.21C122.07 37.18 119.9 37.02 117.74 36.76ZM125.26 37.21C126.86 34.48 128.4 31.72 129.87 28.92C134 29.26 138.14 29.22 142.25 28.64C141.95 29.22 141.65 29.8 141.34 30.38C140.45 32.05 139.52 33.7 138.55 35.33C134.22 36.62 129.75 37.19 125.26 37.21ZM139.71 34.97C140.89 32.86 141.99 30.71 143.04 28.52C144.33 28.32 145.61 28.06 146.89 27.75C148.96 27.24 151 26.58 152.99 25.78C152.75 26.24 152.5 26.69 152.25 27.14C151.82 27.92 151.38 28.7 150.93 29.47C147.47 31.78 143.71 33.65 139.71 34.97ZM152.48 28.38C153.02 27.38 153.54 26.37 154.03 25.34C155.6 24.67 157.14 23.92 158.63 23.08C156.73 25.02 154.68 26.79 152.48 28.38ZM177.18 2.37C175.45 5.49 173.4 8.42 171.06 11.09C171.01 11.15 170.96 11.2 170.91 11.26C169.45 12.97 167.94 14.92 166.38 16.54C165.37 17.61 164.33 18.66 163.27 19.69C163.97 18.73 164.63 17.75 165.26 16.75C165.66 16.09 166.05 15.42 166.42 14.74C167.15 13.4 167.77 11.99 168.33 10.58C170.2 9.06 171.98 7.45 173.71 5.78C174.56 4.97 175.41 4.15 176.24 3.31C176.56 3 176.87 2.69 177.18 2.37Z" fill="#000000" fill-opacity="1.000000" fill-rule="nonzero"/>
		</g>
	</g>
</svg>
