<svg width="449.390625" height="106.573242" viewBox="0 0 449.391 106.573" fill="none" xmlns="http://www.w3.org/2000/svg" xmlns:xlink="http://www.w3.org/1999/xlink">
	<desc>
			Created with Pixso.
	</desc>
	<defs/>
	<g style="mix-blend-mode:normal">
		<path id="CF_Rectangle_Blue_SVG" d="M415.28 100.37C399.3 100.37 399.3 99.43 383.33 99.43C367.35 99.43 367.35 100.92 351.37 100.92C335.4 100.92 335.4 104.07 319.42 104.07C303.45 104.07 303.45 102.53 287.47 102.53C271.49 102.53 271.49 103.68 255.52 103.68C239.54 103.68 239.54 101.74 223.57 101.74C207.59 101.74 207.59 105.48 191.61 105.48C175.64 105.48 175.64 104.73 159.66 104.73C143.68 104.73 143.68 101.8 127.7 101.8C111.71 101.8 111.72 106.57 95.75 106.57C79.77 106.57 79.77 100.21 63.79 100.21C47.8 100.21 47.81 106.23 31.82 106.23C16.31 106.23 8.96 97.19 8.96 90.2C8.96 82.82 6.23 82.82 6.23 75.44C6.23 68.06 0 68.06 0 60.68C0 53.3 5.33 53.3 5.33 45.92C5.33 38.54 2.19 38.54 2.19 31.16C2.19 23.78 3.49 23.78 3.49 16.4C3.48 9.41 16.31 0.84 31.82 0.84C47.33 0.84 47.79 5.51 63.77 5.51C79.74 5.51 79.74 0.3 95.73 0.3C111.71 0.3 111.71 4.36 127.68 4.36C143.66 4.36 143.66 1.5 159.63 1.5C175.61 1.5 175.61 4.41 191.59 4.41C207.56 4.41 207.56 4.97 223.54 4.97C239.52 4.97 239.52 5.57 255.49 5.57C271.47 5.57 271.47 0 287.45 0C303.44 0 303.43 6.33 319.41 6.33C335.4 6.33 335.39 5.06 351.37 5.06C367.34 5.06 367.34 4.02 383.33 4.02C399.31 4.02 399.3 1.49 415.29 1.49C431.27 1.49 446.79 9.41 446.79 16.4C446.79 23.78 444.22 23.78 444.22 31.16C444.22 38.54 449.39 38.54 449.39 45.92C449.39 53.3 436.59 53.3 436.59 60.68C436.59 68.06 445.45 68.06 445.45 75.44C445.45 82.83 435.01 82.82 435.01 90.21C435.01 97.2 430.79 100.37 415.28 100.37Z" fill="#E50151" fill-opacity="1.000000" fill-rule="nonzero"/>
		<path id="CF_Rectangle_Blue_SVG" d="M383.33 99.43C367.35 99.43 367.35 100.92 351.37 100.92C335.4 100.92 335.4 104.07 319.42 104.07C303.45 104.07 303.45 102.53 287.47 102.53C271.49 102.53 271.49 103.68 255.52 103.68C239.54 103.68 239.54 101.74 223.57 101.74C207.59 101.74 207.59 105.48 191.61 105.48C175.64 105.48 175.64 104.73 159.66 104.73C143.68 104.73 143.68 101.8 127.7 101.8C111.71 101.8 111.72 106.57 95.75 106.57C79.77 106.57 79.77 100.21 63.79 100.21C47.8 100.21 47.81 106.23 31.82 106.23C16.31 106.23 8.96 97.19 8.96 90.2C8.96 82.82 6.23 82.82 6.23 75.44C6.23 68.06 0 68.06 0 60.68C0 53.3 5.33 53.3 5.33 45.92C5.33 38.54 2.19 38.54 2.19 31.16C2.19 23.78 3.49 23.78 3.49 16.4C3.48 9.41 16.31 0.84 31.82 0.84C47.33 0.84 47.79 5.51 63.77 5.51C79.74 5.51 79.74 0.3 95.73 0.3C111.71 0.3 111.71 4.36 127.68 4.36C143.66 4.36 143.66 1.5 159.63 1.5C175.61 1.5 175.61 4.41 191.59 4.41C207.56 4.41 207.56 4.97 223.54 4.97C239.52 4.97 239.52 5.57 255.49 5.57C271.47 5.57 271.47 0 287.45 0C303.44 0 303.43 6.33 319.41 6.33C335.4 6.33 335.39 5.06 351.37 5.06C367.34 5.06 367.34 4.02 383.33 4.02C399.31 4.02 399.3 1.49 415.29 1.49C431.27 1.49 446.79 9.41 446.79 16.4C446.79 23.78 444.22 23.78 444.22 31.16C444.22 38.54 449.39 38.54 449.39 45.92C449.39 53.3 436.59 53.3 436.59 60.68C436.59 68.06 445.45 68.06 445.45 75.44C445.45 82.83 435.01 82.82 435.01 90.21C435.01 97.2 430.79 100.37 415.28 100.37C399.3 100.37 399.3 99.43 383.33 99.43Z" stroke="#707070" stroke-opacity="0" stroke-width="1.000000"/>
	</g>
</svg>
