<svg xmlns="http://www.w3.org/2000/svg" xmlns:xlink="http://www.w3.org/1999/xlink" width="36.022" height="36.925" viewBox="0 0 36.022 36.925">
  <defs>
    <clipPath id="clip-path">
      <rect id="Rectangle_1191" data-name="Rectangle 1191" width="36.022" height="36.925" transform="translate(0 0)" fill="none"/>
    </clipPath>
  </defs>
  <g id="Group_236" data-name="Group 236" transform="translate(0 0)">
    <g id="Group_235" data-name="Group 235" clip-path="url(#clip-path)">
      <path id="Path_610" data-name="Path 610" d="M23.478.338S16.166,2.525,15.6,9.774A11.042,11.042,0,0,0,4.908,11.2c-5.1,3.934-7.532,13.266,3.171,18.069a106.838,106.838,0,0,0,19.315,6.636S34.361,18.7,35.049,12.557,33.989-1.294,23.478.338" fill="#e50151"/>
      <path id="Path_611" data-name="Path 611" d="M36.014,10.43c-.009-.5-.066-.982-.1-1.473a14.4,14.4,0,0,0-.646-2.886l-.247-.7L34.7,4.7a9.219,9.219,0,0,0-.757-1.284,5.285,5.285,0,0,0-.47-.579,5.939,5.939,0,0,0-.5-.547,7.717,7.717,0,0,0-1.172-.9L31.172,1c-.214-.116-.449-.19-.672-.286s-.446-.191-.678-.259l-.7-.168a6.324,6.324,0,0,0-.7-.153L27.708.065C27.469.044,27.233.014,27,0l-.71.012a19.587,19.587,0,0,0-2.822.23h-.007l-.008,0a13.293,13.293,0,0,0-2.955,1.42c-.235.139-.458.3-.687.452s-.438.332-.658.5a7.8,7.8,0,0,0-.625.542,7.362,7.362,0,0,0-.592.58c-.184.206-.393.394-.557.618l-.511.666c-.159.228-.293.475-.445.712a4.615,4.615,0,0,0-.4.744c-.115.257-.251.51-.348.775l-.263.81a4.823,4.823,0,0,0-.2.828l-.023.124a12.466,12.466,0,0,0-2.842-.708,11.059,11.059,0,0,0-3.629.174A11.187,11.187,0,0,0,5.326,9.867l-.753.525-.186.132-.2.17-.32.28a10.958,10.958,0,0,0-1.275,1.307A11.412,11.412,0,0,0,.762,15.413a12.261,12.261,0,0,0-.539,1.731c-.064.3-.094.6-.14.9a4.636,4.636,0,0,0-.078.9l0,.906c.02.3.075.6.112.9a9.54,9.54,0,0,0,.435,1.745,8.163,8.163,0,0,0,.364.817,5.849,5.849,0,0,0,.413.789l.5.735.247.366.3.328A9.654,9.654,0,0,0,3.6,26.769a10.2,10.2,0,0,0,1.367,1.073l.727.476a5.256,5.256,0,0,0,.744.438l1.54.8c1.044.446,2.078.917,3.113,1.38,1.028.479,2.1.9,3.144,1.349s2.116.859,3.178,1.277,2.135.81,3.212,1.194c1.07.4,2.173.713,3.262,1.069,1.1.323,2.189.646,3.33.928l.692.172.288-.692c1.452-3.485,2.832-6.982,4.145-10.522l.935-2.673c.292-.9.611-1.787.879-2.7s.538-1.818.789-2.736.492-1.839.676-2.794c.1-.472.187-.949.241-1.447l.1-.76L36,11.9c.042-.454.015-.977.016-1.471m-1.677-.021c-.036.445-.052.862-.112,1.342l-.078.7-.117.632c-.07.433-.175.875-.29,1.318-.189.886-.457,1.778-.71,2.665s-.537,1.774-.833,2.659q-.847,2.658-1.782,5.305c-1.124,3.31-2.323,6.607-3.57,9.876-.845-.183-1.7-.383-2.544-.588-1.089-.289-2.182-.567-3.267-.877s-2.178-.6-3.256-.945c-1.082-.33-2.163-.664-3.222-1.049s-2.146-.708-3.194-1.152S9.256,29.447,8.211,29L6.718,28.25c-.123-.065-.252-.123-.371-.193L6,27.822l-.69-.469a9.426,9.426,0,0,1-1.289-1.048,8.39,8.39,0,0,1-1.111-1.22l-.261-.317-.211-.351-.414-.7a4.96,4.96,0,0,1-.316-.748,6.806,6.806,0,0,1-.27-.76,8.3,8.3,0,0,1-.261-1.581c-.011-.266-.042-.53-.038-.8l.068-.795a3.831,3.831,0,0,1,.13-.785c.062-.258.105-.52.182-.773A10.682,10.682,0,0,1,2.108,16a12,12,0,0,1,1.746-2.632,13.091,13.091,0,0,1,1.13-1.1l.324-.278.081-.069.04-.034.008-.007.158-.108.648-.444A10.763,10.763,0,0,1,9.1,10.088a10.5,10.5,0,0,1,3.135-.34,10.932,10.932,0,0,1,3.14.527l.712.241.06-.7.066-.77a4.332,4.332,0,0,1,.1-.771l.16-.761c.061-.253.162-.494.242-.743a4.026,4.026,0,0,1,.292-.728c.115-.236.222-.477.352-.707l.425-.669c.137-.228.319-.422.478-.636a4.7,4.7,0,0,1,.528-.6,7.372,7.372,0,0,1,.574-.558c.2-.172.4-.362.613-.52s.424-.331.648-.481A12.887,12.887,0,0,1,23.5.432,19.079,19.079,0,0,1,26.282.269l.7.015c.23.028.459.071.686.106L28.352.5a6.233,6.233,0,0,1,.663.188l.655.206c.212.083.409.2.612.3s.411.194.6.319l.543.4a2.451,2.451,0,0,1,.505.438l.459.484a4.906,4.906,0,0,1,.392.536,4.34,4.34,0,0,1,.36.557,8.044,8.044,0,0,1,.543,1.209l.219.625.151.65a14.555,14.555,0,0,1,.305,2.654c-.009.449.008.9-.021,1.342" fill="#0f0f0f"/>
    </g>
  </g>
</svg>
