<svg xmlns="http://www.w3.org/2000/svg" xmlns:xlink="http://www.w3.org/1999/xlink" width="24.919" height="35.433" viewBox="0 0 24.919 35.433">
  <defs>
    <clipPath id="clip-path">
      <rect id="Rectangle_1194" data-name="Rectangle 1194" width="24.919" height="35.433" fill="none"/>
    </clipPath>
  </defs>
  <g id="Group_262" data-name="Group 262" clip-path="url(#clip-path)">
    <path id="Path_1726" data-name="Path 1726" d="M30.459,6.14A7.778,7.778,0,0,0,25.841.729a.39.39,0,0,0-.485.154.306.306,0,0,0-.065-.027c-.67-.3-1.378-.5-2.042-.812a.37.37,0,0,0-.493.13A31.177,31.177,0,0,0,18.4,8.47a.356.356,0,0,0,.092.349c.537.486,1.193.811,1.728,1.3a.362.362,0,0,0,.493.008.311.311,0,0,0,.179.084c2.928.435,3.953,3.427,3.411,6.047a5.164,5.164,0,0,1-2,3.244,4.224,4.224,0,0,1-4.127.095c.007-.015.014-.03.022-.044a.367.367,0,0,0-.215-.529l-2.592-.864a.358.358,0,0,0-.407.165c-1.321,2.613-2.966,5.081-3.926,7.864a.3.3,0,0,0,.086.346.477.477,0,0,0,.08.061c.817.458,1.341,1.267,2.161,1.728a.377.377,0,0,0,.222.043c2.665,2.344,6.313.12,8.534-1.878a28.31,28.31,0,0,0,7.7-12.309,15.337,15.337,0,0,0,.62-8.037M13.431,27.5c-.569-.41-1.016-.966-1.6-1.366a62.493,62.493,0,0,1,3.632-7.19l1.91.637c-1.3,2.648-2.51,5.34-3.947,7.92M20.385,9.326c-.4-.3-.836-.56-1.224-.879A30.266,30.266,0,0,1,23.2.805c.483.2.981.362,1.464.56C22.843,3.8,21.97,6.751,20.385,9.326" transform="translate(-5.835 0)" fill="#231f20"/>
    <path id="Path_1727" data-name="Path 1727" d="M33.02,13.846a27.571,27.571,0,0,1-7.206,12.942c-1.941,1.966-5.683,4.893-8.323,2.583,1.375-2.473,2.54-5.047,3.781-7.586a5.079,5.079,0,0,0,4.6.013,5.642,5.642,0,0,0,2.48-3.546c.8-3-.456-6.663-3.822-7.183C26.1,8.443,26.948,5.422,28.9,3.022a.387.387,0,0,0,.056-.1A7.1,7.1,0,0,1,33.02,7.3a12.514,12.514,0,0,1,0,6.547" transform="translate(-9.253 -1.548)" fill="#fff"/>
    <path id="Path_1728" data-name="Path 1728" d="M33.02,13.846a27.571,27.571,0,0,1-7.206,12.942c-1.941,1.966-5.683,4.893-8.323,2.583,1.375-2.473,2.54-5.047,3.781-7.586a5.079,5.079,0,0,0,4.6.013,5.642,5.642,0,0,0,2.48-3.546c.8-3-.456-6.663-3.822-7.183C26.1,8.443,26.948,5.422,28.9,3.022a.387.387,0,0,0,.056-.1A7.1,7.1,0,0,1,33.02,7.3,12.514,12.514,0,0,1,33.02,13.846Z" transform="translate(-9.253 -1.548)" fill="none" stroke="#231f20" stroke-miterlimit="10" stroke-width="0.352"/>
    <path id="Path_1729" data-name="Path 1729" d="M8.711,60.44a8.2,8.2,0,0,1-2.388,3.317c-.282.21-.731.515-1.1.376-.464-.173-.547-.914-.6-1.322l-.658.277c.484,1,.73,2.517-.357,3.234-1.063.7-2.271-.134-2.911-1-.271-.369-.9-.011-.622.364.87,1.185,2.469,2.186,3.9,1.263,1.454-.941,1.279-2.851.616-4.219-.195-.4-.708-.089-.658.278a2.256,2.256,0,0,0,.854,1.712,1.564,1.564,0,0,0,1.546-.1A7.881,7.881,0,0,0,9.333,60.8c.184-.421-.437-.788-.622-.364" transform="translate(0 -31.873)" fill="#231f20"/>
  </g>
</svg>
