<svg id="Star-6" data-name="Star" xmlns="http://www.w3.org/2000/svg" xmlns:xlink="http://www.w3.org/1999/xlink" width="168.687" height="25.586" viewBox="0 0 168.687 25.586">
  <defs>
    <clipPath id="clip-path">
      <path id="Star" d="M13.255.61C13-.2,12.587-.2,12.332.61L9.424,9.875.729,10.42c-.849.053-.975.5-.282.992l6.941,4.951L4.754,24.756c-.256.815.1,1.072.8.581l7.244-5.13,7.244,5.13c.692.49,1.05.231.8-.581L18.2,16.362l6.941-4.951c.692-.494.567-.938-.282-.992l-8.695-.545Z" transform="translate(0 0)" fill="#fff"/>
    </clipPath>
  </defs>
  <g id="_03_Icon_Star_01_Prime" data-name="03 Icon / Star / 01 Prime" transform="translate(0 0)">
    <path id="Star-7" data-name="Star" d="M13.255.61C13-.2,12.587-.2,12.332.61L9.424,9.875.729,10.42c-.849.053-.975.5-.282.992l6.941,4.951L4.754,24.756c-.256.815.1,1.072.8.581l7.244-5.13,7.244,5.13c.692.49,1.05.231.8-.581L18.2,16.362l6.941-4.951c.692-.494.567-.938-.282-.992l-8.695-.545Z" transform="translate(0 0)" fill="#fff"/>
  </g>
  <g id="_03_Icon_Star_01_Prime_Copy" data-name="03 Icon / Star / 01 Prime Copy" transform="translate(34.239 0)">
    <path id="Star-8" data-name="Star" d="M13.255.61C13-.2,12.587-.2,12.332.61L9.424,9.875.729,10.42c-.849.053-.975.5-.282.992l6.941,4.951L4.754,24.756c-.256.815.1,1.072.8.581l7.244-5.13,7.244,5.13c.692.49,1.05.231.8-.581L18.2,16.362l6.941-4.951c.692-.494.567-.938-.282-.992l-8.695-.545Z" transform="translate(0 0)" fill="#fff"/>
  </g>
  <g id="_03_Icon_Star_01_Prime_Copy_3" data-name="03 Icon / Star / 01 Prime Copy 3" transform="translate(107.106 0)">
    <path id="Star-9" data-name="Star" d="M13.255.61C13-.2,12.587-.2,12.332.61L9.424,9.875.729,10.42c-.849.053-.975.5-.282.992l6.941,4.951L4.754,24.756c-.256.815.1,1.072.8.581l7.244-5.13,7.244,5.13c.692.49,1.05.231.8-.581L18.2,16.362l6.941-4.951c.692-.494.567-.938-.282-.992l-8.695-.545Z" transform="translate(0 0)" fill="#fff"/>
  </g>
  <g id="_03_Icon_Star_01_Prime_Copy_2" data-name="03 Icon / Star / 01 Prime Copy 2" transform="translate(70.233 0)">
    <path id="Star-10" data-name="Star" d="M13.255.61C13-.2,12.587-.2,12.332.61L9.424,9.875.729,10.42c-.849.053-.975.5-.282.992l6.941,4.951L4.754,24.756c-.256.815.1,1.072.8.581l7.244-5.13,7.244,5.13c.692.49,1.05.231.8-.581L18.2,16.362l6.941-4.951c.692-.494.567-.938-.282-.992l-8.695-.545Z" transform="translate(0 0)" fill="#fff"/>
  </g>
  <g id="_03_Icon_Star_01_Prime_Copy_4" data-name="03 Icon / Star / 01 Prime Copy 4" transform="translate(143.101 0)">
    <path id="Star-11" data-name="Star" d="M13.255.61C13-.2,12.587-.2,12.332.61L9.424,9.875.729,10.42c-.849.053-.975.5-.282.992l6.941,4.951L4.754,24.756c-.256.815.1,1.072.8.581l7.244-5.13,7.244,5.13c.692.49,1.05.231.8-.581L18.2,16.362l6.941-4.951c.692-.494.567-.938-.282-.992l-8.695-.545Z" transform="translate(0 0)" fill="#fff"/>
  </g>
</svg>
