<svg width="141.615967" height="180.440430" viewBox="0 0 141.616 180.44" fill="none" xmlns="http://www.w3.org/2000/svg" xmlns:xlink="http://www.w3.org/1999/xlink">
	<desc>
			Created with Pixso.
	</desc>
	<defs/>
	<g style="mix-blend-mode:normal">
		<path id="Path 35444" d="M133.7 57.79L111.19 163.67L95.88 166.28L67.04 171.19L72.24 145.05L74.64 133.01L72.68 129.36L68 120.69L71.32 105.05L79.13 99.07L105.48 64.88L99.25 35.21L108.36 25.7L117.22 27.58L122.87 37.95L133.7 57.79Z" fill="#FE7234" fill-opacity="1.000000" fill-rule="nonzero"/>
	</g>
	<mask id="mask1_36659" mask-type="alpha" maskUnits="userSpaceOnUse" x="0.000000" y="0.000000" width="141.615967" height="180.440430">
		<g style="mix-blend-mode:normal">
			<rect id="Rectangle 3822" x="33.467773" width="110.564209" height="160.970642" transform="rotate(12 33.467773 0.000000)" fill="#C4C4C4" fill-opacity="1.000000"/>
		</g>
	</mask>
	<g mask="url(#mask1_36659)">
		<g style="mix-blend-mode:normal">
			<path id="Path 35445" d="M133.22 57.69L132.62 60.52L130.98 68.22L128.56 79.6L125.61 93.5L122.38 108.71L119.11 124.08L116.06 138.41L113.49 150.53L111.63 159.28L111.05 161.98C110.96 162.44 110.78 162.93 110.75 163.39C110.75 163.45 110.73 163.51 110.72 163.57L111.16 163.19C105.94 164.08 100.72 164.96 95.49 165.85C88.53 167.04 81.58 168.22 74.62 169.41C72.08 169.84 69.54 170.27 67.01 170.7C67.18 170.9 67.34 171.09 67.51 171.29L70.6 155.79C71.45 151.53 72.3 147.27 73.15 143.02C73.77 139.9 74.39 136.78 75.01 133.67C75.07 133.34 75.17 133.06 75.05 132.74C74.86 132.25 74.53 131.77 74.28 131.31C73.8 130.42 73.32 129.53 72.84 128.65C72.09 127.26 71.35 125.88 70.6 124.5C69.92 123.23 69.29 121.91 68.54 120.68C68.53 120.66 68.42 120.43 68.4 120.43C68.61 120.39 68.38 121.05 68.54 120.68C68.68 120.36 68.67 119.87 68.74 119.53L69.67 115.15L71.65 105.82C71.67 105.77 71.84 105.18 71.8 105.15C72.01 105.32 71.35 105.56 71.73 105.34C71.93 105.23 72.1 105.06 72.28 104.92L76.2 101.92C77.43 100.98 78.92 100.15 79.87 98.91C81.06 97.37 82.25 95.82 83.44 94.28C87.68 88.77 91.92 83.27 96.17 77.76C99.28 73.72 102.4 69.67 105.52 65.62C105.76 65.32 105.97 65.12 105.94 64.7C105.89 64.17 105.71 63.62 105.6 63.09C105.02 60.34 104.44 57.58 103.86 54.82C102.56 48.62 101.26 42.42 99.95 36.22C99.87 35.83 99.79 35.44 99.71 35.06L99.61 35.54C102.26 32.76 104.92 29.99 107.58 27.22C107.96 26.82 108.34 26.42 108.72 26.03C108.56 26.08 108.41 26.12 108.26 26.17L112.25 27.02L115.24 27.66C115.77 27.77 116.47 28.06 117.01 28.04C117.28 28.02 116.84 27.75 116.84 27.9C116.85 28.02 117.04 28.26 117.1 28.37C117.44 29 117.79 29.63 118.13 30.27C119.1 32.03 120.06 33.8 121.02 35.56C123.72 40.52 126.43 45.48 129.13 50.43C130.52 52.98 131.9 55.52 133.29 58.06C133.59 58.61 134.4 58.08 134.1 57.53C131 51.84 127.9 46.15 124.8 40.47C123.95 38.91 123.11 37.36 122.26 35.81C121.28 34.02 120.31 32.23 119.33 30.44L118.1 28.19C117.96 27.92 117.83 27.55 117.63 27.32C117.36 27.01 116.79 27 116.42 26.92L113.69 26.34C112.01 25.98 110.34 25.58 108.65 25.26C107.87 25.12 107.23 26.17 106.75 26.68C105.39 28.1 104.03 29.52 102.66 30.94C101.52 32.14 100.37 33.34 99.22 34.54C98.96 34.81 98.75 34.95 98.79 35.37C98.8 35.54 98.86 35.72 98.9 35.89C99.49 38.7 100.08 41.5 100.67 44.3L104.93 64.62C104.96 64.76 104.99 64.9 105.02 65.03L105.12 64.55C103.47 66.69 101.83 68.83 100.18 70.96C96.74 75.43 93.29 79.91 89.84 84.38C86.82 88.31 83.79 92.23 80.77 96.16C80.13 96.99 79.47 97.81 78.84 98.65C78.65 98.83 78.42 99.01 78.21 99.17L75.14 101.52C74.09 102.32 73.03 103.13 71.98 103.93C71.6 104.22 70.98 104.54 70.83 105.01C70.63 105.63 70.55 106.33 70.42 106.97L69.63 110.67L67.93 118.67C67.8 119.28 67.59 119.93 67.53 120.55C67.48 121.04 67.94 121.61 68.16 122.03C69.41 124.33 70.65 126.63 71.89 128.93C72.17 129.44 72.44 129.95 72.72 130.46L73.73 132.33C73.85 132.55 73.96 132.78 74.09 133C74.39 133.49 74.04 132.95 74.17 132.91C74.01 132.96 73.81 134.7 73.78 134.87C73.51 136.2 73.25 137.53 72.98 138.85C72.58 140.88 72.18 142.91 71.77 144.94C71.05 148.54 70.34 152.14 69.62 155.73C68.66 160.56 67.7 165.39 66.74 170.22C66.68 170.51 66.62 170.8 66.56 171.09C66.51 171.37 66.74 171.73 67.07 171.67C73.27 170.62 79.47 169.56 85.67 168.51C90.64 167.66 95.62 166.81 100.59 165.97C104.14 165.36 107.68 164.76 111.22 164.16C111.44 164.12 111.62 164 111.67 163.77L112.27 160.95L113.9 153.25L116.32 141.86L119.28 127.97L122.51 112.75L125.78 97.39L128.82 83.06L131.4 70.94L133.26 62.19C133.55 60.82 133.88 59.45 134.13 58.07C134.14 58.01 134.16 57.95 134.17 57.9C134.3 57.28 133.35 57.08 133.22 57.69Z" fill="#101010" fill-opacity="1.000000" fill-rule="nonzero"/>
		</g>
	</g>
	<g mask="url(#mask1_36659)">
		<g style="mix-blend-mode:normal">
			<path id="Path 35446" d="M108.36 25.7L58.29 15.06L49.18 24.58L99.25 35.23L108.36 25.7Z" fill="#FBD04E" fill-opacity="1.000000" fill-rule="nonzero"/>
		</g>
	</g>
	<g mask="url(#mask1_36659)">
		<g style="mix-blend-mode:normal">
			<path id="Path 35447" d="M108.46 25.22L106.36 24.78L100.83 23.6L93 21.94L83.99 20.02L74.89 18.09L66.84 16.38L61 15.14C60.14 14.95 59.29 14.73 58.42 14.59C57.95 14.51 57.54 15.14 57.25 15.44C56.37 16.35 55.5 17.27 54.62 18.19C52.8 20.09 50.98 22 49.15 23.9L48.82 24.25C48.56 24.52 48.72 24.98 49.07 25.06L51.17 25.5L56.71 26.68L64.53 28.34L73.54 30.26L82.65 32.19L90.69 33.9L96.53 35.14C97.39 35.33 98.25 35.55 99.11 35.69C99.58 35.77 99.99 35.14 100.28 34.84L102.91 32.09C104.73 30.19 106.56 28.28 108.38 26.38L108.72 26.03C109.15 25.57 108.43 24.92 108 25.37C106.97 26.44 105.95 27.52 104.92 28.59C103.28 30.3 101.65 32.01 100.01 33.72C99.64 34.11 99.26 34.5 98.89 34.9C99.04 34.85 99.19 34.8 99.35 34.75L98.01 34.46L94.37 33.69L88.99 32.55L82.42 31.15L75.19 29.61L67.93 28.07L61.15 26.63L55.43 25.41L51.31 24.54C50.66 24.4 50.01 24.22 49.36 24.12C49.45 24.39 49.45 24.64 49.54 24.91C50.56 23.84 51.59 22.76 52.61 21.69C54.25 19.98 55.88 18.27 57.52 16.56C57.89 16.17 58.27 15.78 58.65 15.38L58.19 15.53L59.52 15.82L63.16 16.59L68.55 17.73L75.11 19.13L82.34 20.67L89.61 22.21L96.38 23.65L102.1 24.87L106.22 25.74C106.87 25.88 107.52 26.03 108.17 26.16C108.78 26.29 109.07 25.35 108.46 25.22Z" fill="#101010" fill-opacity="1.000000" fill-rule="nonzero"/>
		</g>
	</g>
	<g mask="url(#mask1_36659)">
		<g style="mix-blend-mode:normal">
			<path id="Path 35448" d="M105.48 64.88L56.05 54.37L49.18 24.58L99.25 35.22C101.32 45.11 103.4 55 105.48 64.88Z" fill="#2B8F75" fill-opacity="1.000000" fill-rule="nonzero"/>
		</g>
	</g>
	<g mask="url(#mask1_36659)">
		<g style="mix-blend-mode:normal">
			<path id="Path 35449" d="M105.58 64.41L85.96 60.23L67.51 56.31L56.15 53.9C56.27 54.01 56.39 54.11 56.51 54.22C56.28 53.24 56.05 52.25 55.83 51.26C55.28 48.9 54.73 46.53 54.19 44.16C53.52 41.28 52.86 38.41 52.2 35.53C51.63 33.05 51.05 30.58 50.48 28.1C50.29 27.28 50.11 26.46 49.92 25.65C49.83 25.26 49.77 24.85 49.65 24.48C49.46 24.69 49.26 24.85 49.07 25.06L68.66 29.22L88.11 33.36L99.14 35.7C99.02 35.59 98.9 35.49 98.78 35.38C100.4 43.07 102.02 50.76 103.64 58.46C104.1 60.65 104.56 62.84 105.02 65.03C105.07 65.29 105.4 65.42 105.63 65.34C105.91 65.26 105.99 64.98 105.94 64.73C104.32 57.04 102.71 49.34 101.09 41.65C100.63 39.46 100.17 37.26 99.71 35.07C99.67 34.91 99.5 34.78 99.35 34.75L79.76 30.59L60.31 26.45L49.28 24.11C48.89 24.02 48.63 24.39 48.71 24.74C48.94 25.72 49.17 26.71 49.4 27.69C49.94 30.06 50.49 32.43 51.03 34.8C51.7 37.67 52.36 40.55 53.02 43.43C53.6 45.9 54.17 48.38 54.74 50.86C54.93 51.68 55.12 52.49 55.3 53.31C55.39 53.7 55.46 54.1 55.57 54.48C55.61 54.64 55.79 54.82 55.95 54.85L75.57 59.02L94.02 62.94L105.38 65.36C105.99 65.49 106.19 64.54 105.58 64.41Z" fill="#101010" fill-opacity="1.000000" fill-rule="nonzero"/>
		</g>
	</g>
	<g mask="url(#mask1_36659)">
		<g style="mix-blend-mode:normal">
			<path id="Path 35450" d="M56.05 54.37L27.52 87.56L79.24 98.55L105.48 64.88L56.05 54.37Z" fill="#6ACEB6" fill-opacity="1.000000" fill-rule="nonzero"/>
		</g>
	</g>
	<g mask="url(#mask1_36659)">
		<g style="mix-blend-mode:normal">
			<path id="Path 35451" d="M55.69 54.05C54.74 55.15 53.79 56.25 52.84 57.36C50.57 60.01 48.29 62.65 46.01 65.3C43.27 68.5 40.52 71.69 37.78 74.88C35.41 77.64 33.04 80.4 30.67 83.16C29.52 84.49 28.33 85.81 27.21 87.18C26.97 87.45 27.05 87.96 27.42 88.04L28.81 88.33L32.56 89.13L38.14 90.31L44.92 91.75L52.37 93.34L59.86 94.93L66.88 96.42L72.78 97.68L77.04 98.58C77.71 98.73 78.38 98.89 79.05 99.01C79.21 99.04 79.5 99.01 79.6 98.88C80.47 97.76 81.34 96.65 82.21 95.53C84.3 92.85 86.39 90.16 88.48 87.48L96.07 77.75C98.25 74.94 100.44 72.14 102.62 69.34C103.68 67.98 104.76 66.64 105.79 65.27C106.02 64.98 105.96 64.49 105.58 64.41L104.26 64.12L100.66 63.36L95.34 62.23L88.85 60.85L81.74 59.34L74.56 57.81L67.87 56.39L62.24 55.19L58.17 54.33C57.52 54.19 56.88 54.04 56.23 53.92C55.62 53.79 55.33 54.72 55.95 54.85L57.27 55.13L60.87 55.9L66.19 57.03L72.68 58.41L79.79 59.92L86.97 61.44L93.66 62.87L99.29 64.06L103.36 64.93C104 65.06 104.65 65.26 105.29 65.34C105.21 65.07 105.21 64.82 105.12 64.55L102.51 67.91L96.24 75.95C93.71 79.2 91.18 82.44 88.65 85.69C86.47 88.49 84.28 91.29 82.1 94.1C81.38 95.02 80.67 95.93 79.95 96.85C79.62 97.28 79.21 97.7 78.93 98.17C79.08 98.12 79.19 98.13 79.34 98.08L77.96 97.78L74.2 96.98L68.62 95.8L61.85 94.36L54.39 92.77L46.9 91.18L39.89 89.69L33.98 88.44L29.72 87.53C29.06 87.39 28.38 87.19 27.71 87.1L27.88 87.89C28.83 86.78 29.78 85.68 30.73 84.58C33 81.93 35.28 79.28 37.56 76.63C40.3 73.44 43.05 70.25 45.79 67.05C48.16 64.29 50.53 61.54 52.9 58.78C54.05 57.44 55.24 56.12 56.36 54.76C56.77 54.28 56.1 53.57 55.69 54.05Z" fill="#101010" fill-opacity="1.000000" fill-rule="nonzero"/>
		</g>
	</g>
	<g mask="url(#mask1_36659)">
		<g style="mix-blend-mode:normal">
			<path id="Path 35452" d="M57.55 58.14L34.69 85.64L76.68 94.57L98.31 66.8L57.55 58.14Z" fill="#2B8F75" fill-opacity="1.000000" fill-rule="nonzero"/>
		</g>
	</g>
	<g mask="url(#mask1_36659)">
		<g style="mix-blend-mode:normal">
			<path id="Path 35453" d="M57.19 57.81C56.43 58.72 55.67 59.64 54.91 60.56C53.1 62.74 51.28 64.92 49.47 67.1C47.26 69.76 45.05 72.41 42.84 75.07C40.95 77.35 39.05 79.63 37.15 81.92C36.22 83.03 35.27 84.13 34.37 85.27C34.13 85.55 34.21 86.04 34.59 86.12L35.71 86.35L38.77 87.01L43.28 87.96L48.8 89.14L54.84 90.42L60.92 91.71L66.61 92.92L71.42 93.94L74.88 94.68C75.42 94.79 75.96 94.92 76.51 95.03C76.67 95.06 76.94 95.03 77.04 94.89C77.76 93.97 78.48 93.05 79.19 92.13C80.92 89.91 82.64 87.7 84.37 85.49C86.45 82.81 88.54 80.14 90.62 77.46C92.42 75.15 94.22 72.85 96.01 70.54C96.89 69.42 97.78 68.31 98.64 67.18C98.86 66.89 98.8 66.41 98.42 66.32L97.33 66.09L94.35 65.46L89.97 64.53L84.63 63.39L78.78 62.15L72.84 60.89L67.33 59.72L62.67 58.73L59.31 58.01C58.78 57.9 58.25 57.77 57.72 57.68C57.11 57.54 56.84 58.48 57.45 58.61L58.54 58.84L61.51 59.48L65.89 60.41L71.24 61.54L77.09 62.79L83.03 64.05L88.54 65.22L93.2 66.21L96.56 66.92C97.08 67.04 97.62 67.19 98.15 67.26C98.06 66.99 98.04 66.74 97.96 66.47C97.24 67.39 96.52 68.32 95.8 69.24C94.08 71.45 92.35 73.66 90.63 75.88C88.54 78.55 86.46 81.23 84.37 83.91C82.57 86.21 80.78 88.52 78.98 90.82C78.39 91.59 77.79 92.35 77.2 93.11C76.92 93.47 76.6 93.81 76.36 94.19C76.51 94.14 76.63 94.14 76.78 94.09L75.66 93.85L72.59 93.2L68.09 92.24L62.57 91.07L56.53 89.79L50.45 88.49L44.76 87.28L39.95 86.26L36.49 85.53C35.95 85.41 35.41 85.26 34.86 85.18C34.95 85.45 34.96 85.7 35.05 85.97C35.81 85.05 36.57 84.14 37.33 83.22C39.14 81.04 40.96 78.85 42.77 76.67C44.98 74.02 47.19 71.36 49.4 68.71C51.29 66.42 53.19 64.14 55.09 61.86C56.02 60.74 56.97 59.64 57.87 58.51C58.27 58.03 57.59 57.33 57.19 57.81Z" fill="#101010" fill-opacity="1.000000" fill-rule="nonzero"/>
		</g>
	</g>
	<g mask="url(#mask1_36659)">
		<g style="mix-blend-mode:normal">
			<path id="Path 35454" d="M71.32 105.05L14.21 92.91L27.52 87.56L79.13 99.08L71.32 105.05Z" fill="#FBD04E" fill-opacity="1.000000" fill-rule="nonzero"/>
		</g>
	</g>
	<g mask="url(#mask1_36659)">
		<g style="mix-blend-mode:normal">
			<path id="Path 35455" d="M71.42 104.57L69.9 104.25L65.74 103.36L59.59 102.06L52.09 100.46L43.88 98.72L35.59 96.95L27.86 95.31L21.33 93.92L16.63 92.92C15.89 92.77 15.15 92.56 14.41 92.45C14.42 92.76 14.35 93.06 14.36 93.37C15.86 92.77 17.36 92.16 18.87 91.56C21.26 90.6 23.65 89.64 26.04 88.68C26.58 88.46 27.13 88.24 27.67 88.02C27.59 88.03 27.5 88.03 27.42 88.04C27.88 88.14 28.34 88.24 28.8 88.34C30.05 88.62 31.3 88.9 32.55 89.18C34.4 89.59 36.26 90.01 38.12 90.42C40.38 90.93 42.63 91.43 44.89 91.93C47.36 92.48 49.84 93.04 52.31 93.59C54.8 94.14 57.3 94.7 59.8 95.26C62.12 95.78 64.45 96.3 66.78 96.82C68.74 97.26 70.71 97.69 72.68 98.13C74.09 98.45 75.51 98.76 76.93 99.08C77.59 99.23 78.27 99.43 78.95 99.53C78.89 99.24 78.92 98.96 78.87 98.67L72.02 103.9C71.7 104.15 71.38 104.39 71.06 104.64C70.56 105.02 71.09 105.84 71.59 105.45C73.87 103.71 76.15 101.96 78.43 100.22C78.76 99.97 79.08 99.73 79.4 99.48C79.72 99.23 79.66 98.7 79.23 98.6L77.03 98.11L71.23 96.81L63.04 94.99C59.91 94.29 56.78 93.59 53.65 92.89C50.5 92.19 47.35 91.48 44.2 90.78C41.44 90.17 38.67 89.55 35.91 88.93C33.94 88.49 31.97 88.05 30.01 87.62C29.22 87.44 28.42 87.21 27.63 87.08C27.42 87.05 27.26 87.14 27.07 87.22C26.7 87.37 26.32 87.52 25.95 87.67C24.65 88.19 23.35 88.71 22.05 89.23L14.51 92.26C14.36 92.32 14.21 92.38 14.06 92.45C13.62 92.62 13.62 93.28 14.11 93.38L15.64 93.71L19.79 94.59L25.94 95.9L33.44 97.49L41.65 99.24L49.94 101L57.67 102.64L64.21 104.03L68.9 105.03C69.64 105.19 70.38 105.36 71.13 105.5C71.74 105.63 72.04 104.7 71.42 104.57Z" fill="#101010" fill-opacity="1.000000" fill-rule="nonzero"/>
		</g>
	</g>
	<g mask="url(#mask1_36659)">
		<g style="mix-blend-mode:normal">
			<rect id="Rectangle 3818" x="14.215820" y="92.912109" width="58.386463" height="15.996223" transform="rotate(12 14.215820 92.912109)" fill="#FBD04E" fill-opacity="1.000000"/>
		</g>
	</g>
	<g mask="url(#mask1_36659)">
		<g style="mix-blend-mode:normal">
			<path id="Path 35456" d="M68.1 120.22L66.56 119.89L62.41 119.01L56.26 117.7L48.76 116.11L40.57 114.37L32.25 112.6L24.54 110.96L18 109.57L13.3 108.57C12.57 108.41 11.83 108.22 11.08 108.1C11.21 108.29 11.24 108.46 11.36 108.66L12.49 103.36L14.28 94.93L14.69 93.01L14.11 93.38L15.65 93.71L19.8 94.59L25.95 95.9L33.45 97.49L41.64 99.23L49.96 101L57.67 102.64L64.2 104.03L68.9 105.03C69.64 105.19 70.38 105.38 71.12 105.5C71 105.31 70.97 105.14 70.85 104.95L69.72 110.24L67.93 118.67L67.52 120.59C67.39 121.2 68.34 121.41 68.47 120.79L69.6 115.5L71.39 107.07L71.8 105.15C71.85 104.89 71.68 104.63 71.42 104.57L69.88 104.24L65.74 103.36L59.59 102.06L52.08 100.46L43.89 98.72L35.57 96.95L27.87 95.31L21.33 93.92L16.63 92.92C15.89 92.77 15.15 92.6 14.41 92.45C14.15 92.4 13.79 92.55 13.74 92.81L12.61 98.1L10.82 106.53L10.41 108.45C10.35 108.71 10.53 108.97 10.78 109.03L12.32 109.36L16.47 110.24L22.62 111.55L30.12 113.14L38.31 114.88L46.63 116.65L54.34 118.29L60.88 119.68L65.58 120.68C66.32 120.83 67.05 121 67.8 121.15C68.41 121.28 68.71 120.35 68.1 120.22Z" fill="#101010" fill-opacity="1.000000" fill-rule="nonzero"/>
		</g>
	</g>
	<g mask="url(#mask1_36659)">
		<g style="mix-blend-mode:normal">
			<path id="Path 35457" d="M10.88 108.55L23.97 122.24L74.64 133.01L68 120.69L10.88 108.55Z" fill="#FE7234" fill-opacity="1.000000" fill-rule="nonzero"/>
		</g>
	</g>
	<g mask="url(#mask1_36659)">
		<g style="mix-blend-mode:normal">
			<path id="Path 35458" d="M10.56 108.91C11.88 110.3 13.2 111.68 14.53 113.07L21.32 120.17C22 120.88 22.69 121.6 23.37 122.31C23.58 122.53 23.74 122.69 24.04 122.75L27.63 123.51L34.85 125.05L44.19 127.03L54.28 129.18L63.65 131.17L70.83 132.7L74.39 133.45L74.54 133.48C74.98 133.58 75.25 133.1 75.05 132.74C73.92 130.65 72.79 128.56 71.66 126.47C70.9 125.06 70.14 123.65 69.38 122.24C69.14 121.79 68.89 121.34 68.65 120.88C68.51 120.62 68.41 120.32 68.1 120.22C67.9 120.16 67.69 120.13 67.49 120.09L65.77 119.72L59.63 118.42L50.89 116.56L40.79 114.41L30.55 112.24L21.35 110.28L14.49 108.82L11.13 108.11L10.99 108.08C10.37 107.95 10.17 108.9 10.78 109.03L12.31 109.35L16.48 110.24L22.61 111.54L30.09 113.13L38.32 114.88L46.62 116.65L54.36 118.29L60.88 119.68L65.57 120.67C66.31 120.83 67.05 121.03 67.8 121.15L67.59 120.96C68.34 122.35 69.09 123.74 69.84 125.13C71.03 127.34 72.23 129.55 73.42 131.75L74.24 133.27C74.41 133.03 74.58 132.78 74.75 132.53L72.28 132.01L65.88 130.65L56.92 128.74L46.9 126.62L37.25 124.56L29.38 122.89L24.73 121.9C24.56 121.87 24.25 121.73 24.07 121.76C24.21 121.74 24.37 121.98 24.22 121.8C24.15 121.71 24.07 121.64 23.99 121.56C23.71 121.27 23.43 120.98 23.15 120.69C21.05 118.49 18.95 116.29 16.85 114.09C15.06 112.22 13.28 110.36 11.5 108.49C11.4 108.39 11.22 108.21 11.13 108.11C10.7 107.66 10.13 108.46 10.56 108.91Z" fill="#101010" fill-opacity="1.000000" fill-rule="nonzero"/>
		</g>
	</g>
	<g mask="url(#mask1_36659)">
		<g style="mix-blend-mode:normal">
			<path id="Path 35459" d="M66.79 171.13L16.22 160.38L23.97 122.24L74.89 133.06L66.79 171.13Z" fill="#FBD04E" fill-opacity="1.000000" fill-rule="nonzero"/>
		</g>
	</g>
	<g mask="url(#mask1_36659)">
		<g style="mix-blend-mode:normal">
			<path id="Path 35460" d="M66.9 170.66L65.53 170.37L61.86 169.59L56.42 168.43L49.78 167.02L42.5 165.47L35.16 163.91L28.33 162.46L22.53 161.23L18.38 160.35C17.72 160.21 17.07 160.04 16.41 159.93C16.53 160.12 16.57 160.29 16.7 160.49C16.77 160.15 16.84 159.81 16.9 159.47C17.09 158.54 17.28 157.62 17.47 156.69C17.74 155.33 18.02 153.96 18.3 152.59C18.64 150.92 18.98 149.25 19.32 147.58C19.69 145.76 20.06 143.93 20.43 142.1C20.8 140.25 21.18 138.41 21.55 136.56C21.9 134.84 22.25 133.12 22.6 131.4C22.9 129.95 23.19 128.49 23.49 127.04L24.13 123.89C24.23 123.4 24.36 122.9 24.43 122.4C24.24 122.53 24.06 122.59 23.87 122.71L25.24 123L28.94 123.79L34.42 124.96L41.11 126.38L48.41 127.93L55.83 129.51L62.7 130.97L68.53 132.21L72.72 133.1C73.38 133.24 74.04 133.41 74.7 133.52C74.57 133.33 74.54 133.15 74.41 132.96L74.2 133.98L73.61 136.75L72.74 140.84L71.67 145.84L70.51 151.31L69.34 156.84L68.24 161.99L67.32 166.35L66.65 169.48C66.54 169.98 66.43 170.47 66.33 170.97C66.2 171.58 67.14 171.85 67.27 171.24L67.49 170.22L68.07 167.45L68.94 163.36L70.01 158.36L71.17 152.89L72.35 147.36L73.44 142.21L74.37 137.85L75.03 134.72C75.14 134.22 75.26 133.72 75.35 133.23C75.4 132.97 75.25 132.64 74.99 132.59L73.62 132.29L69.92 131.51L64.44 130.34L57.75 128.92L50.44 127.37L43.02 125.79L36.15 124.33L30.32 123.09L26.13 122.2C25.48 122.06 24.82 121.91 24.15 121.78C23.9 121.73 23.54 121.88 23.49 122.14C23.42 122.48 23.35 122.82 23.28 123.16C23.1 124.08 22.91 125 22.72 125.93C22.44 127.3 22.17 128.66 21.89 130.03C21.55 131.7 21.21 133.37 20.87 135.04C20.5 136.87 20.13 138.69 19.76 140.52C19.38 142.37 19.01 144.21 18.63 146.06C18.28 147.78 17.94 149.5 17.59 151.22C17.29 152.68 17 154.13 16.7 155.59C16.49 156.63 16.27 157.68 16.06 158.73C15.96 159.22 15.85 159.72 15.76 160.22C15.71 160.48 15.86 160.81 16.12 160.86L17.48 161.15L21.15 161.93L26.6 163.09L33.24 164.5L40.52 166.05L47.86 167.61L54.68 169.06L60.49 170.29L64.64 171.17C65.29 171.31 65.95 171.46 66.61 171.59C67.22 171.72 67.51 170.79 66.9 170.66Z" fill="#101010" fill-opacity="1.000000" fill-rule="nonzero"/>
		</g>
	</g>
	<g mask="url(#mask1_36659)">
		<g style="mix-blend-mode:normal">
			<path id="Path 35461" d="M54.47 168.51L25.8 162.42L27.34 155.14C28.06 151.77 31.38 149.62 34.75 150.33L51.2 153.83C54.58 154.55 56.73 157.86 56.01 161.24L54.47 168.51Z" fill="#2B8F75" fill-opacity="1.000000" fill-rule="nonzero"/>
		</g>
	</g>
	<g mask="url(#mask1_36659)">
		<g style="mix-blend-mode:normal">
			<path id="Path 35462" d="M54.57 168.04L51.71 167.43L44.86 165.98L36.59 164.22L29.41 162.69L27.07 162.19C26.7 162.11 26.32 162.01 25.95 161.95C26.07 162.15 26.15 162.33 26.27 162.52L27.14 158.46L27.67 155.94C27.8 155.34 27.91 154.73 28.16 154.16C29.22 151.74 31.85 150.3 34.45 150.77C35.27 150.92 36.08 151.11 36.9 151.29L42.16 152.4L47.75 153.59L50.97 154.28C53.02 154.71 54.72 156.14 55.38 158.15C55.71 159.15 55.74 160.19 55.52 161.21C55.4 161.81 55.27 162.4 55.14 163L54.06 168.07L53.99 168.41C53.86 169.02 54.81 169.23 54.94 168.62L55.83 164.43L56.36 161.94C56.51 161.22 56.65 160.52 56.63 159.78C56.58 156.89 54.58 154.33 51.83 153.49C50.95 153.22 50.03 153.08 49.14 152.89L43.81 151.76L38.12 150.55C37.06 150.33 36 150.1 34.94 149.88C32.6 149.38 30.14 150.11 28.5 151.88C27.67 152.78 27.11 153.89 26.86 155.08C26.74 155.65 26.62 156.21 26.5 156.78L25.4 161.96L25.32 162.32C25.27 162.58 25.44 162.84 25.7 162.89L28.56 163.5L35.4 164.96L43.68 166.72L50.85 168.24C52 168.49 53.15 168.77 54.32 168.98C54.93 169.11 55.18 168.17 54.57 168.04Z" fill="#101010" fill-opacity="1.000000" fill-rule="nonzero"/>
		</g>
	</g>
	<g mask="url(#mask1_36659)">
		<g style="mix-blend-mode:normal">
			<path id="Path 35463" d="M57.53 149.78L30.62 144.06C30.13 143.96 29.82 143.48 29.93 143L32.4 131.37C32.5 130.88 32.98 130.57 33.46 130.68L60.37 136.39C60.86 136.5 61.17 136.98 61.07 137.46L58.6 149.09C58.49 149.58 58.01 149.89 57.53 149.78Z" fill="#2B8F75" fill-opacity="1.000000" fill-rule="nonzero"/>
		</g>
	</g>
	<g mask="url(#mask1_36659)">
		<g style="mix-blend-mode:normal">
			<path id="Path 35464" d="M57.63 149.31L56.12 148.99L52.24 148.16L46.96 147.04L41.2 145.82L35.94 144.7L32.13 143.89L31.07 143.66C30.92 143.63 30.72 143.62 30.59 143.54C30.25 143.34 30.46 142.83 30.52 142.53L30.93 140.59L32.12 135.03C32.36 133.86 32.6 132.69 32.86 131.52C32.93 131.2 33.19 131.11 33.47 131.17L34.25 131.34L37.63 132.06L42.67 133.13L48.41 134.35L53.88 135.51L58.12 136.41C58.81 136.56 59.51 136.71 60.2 136.86C60.51 136.92 60.63 137.15 60.57 137.46C60.48 137.9 60.38 138.35 60.29 138.79L59.17 144.05L58.21 148.55C58.14 148.88 58.11 149.39 57.63 149.31C57.01 149.2 56.81 150.15 57.43 150.26C58.19 150.39 58.89 149.94 59.07 149.19C59.09 149.1 59.11 149 59.13 148.91L59.49 147.22L60.68 141.64L61.52 137.69C61.69 136.88 61.29 136.12 60.46 135.92C60.27 135.87 60.08 135.84 59.9 135.8L56.77 135.13L51.8 134.08L45.98 132.84L40.35 131.64L35.9 130.7L33.66 130.22C32.87 130.05 32.12 130.46 31.92 131.27C31.84 131.6 31.78 131.93 31.71 132.26L30.62 137.41L29.59 142.25C29.49 142.7 29.34 143.17 29.49 143.63C29.69 144.2 30.18 144.47 30.73 144.58L33.26 145.12L37.88 146.1L43.59 147.32L49.35 148.54L54.18 149.57L57.04 150.18L57.43 150.26C58.04 150.39 58.24 149.44 57.63 149.31Z" fill="#101010" fill-opacity="1.000000" fill-rule="nonzero"/>
		</g>
	</g>
	<g mask="url(#mask1_36659)">
		<g style="mix-blend-mode:normal">
			<rect id="Rectangle 3819" x="14.215820" y="92.912109" width="58.386463" height="3.080731" transform="rotate(12 14.215820 92.912109)" fill="#FE7234" fill-opacity="1.000000"/>
		</g>
	</g>
	<g mask="url(#mask1_36659)">
		<g style="mix-blend-mode:normal">
			<path id="Path 35465" d="M70.78 107.58L69.24 107.26L65.1 106.38L58.95 105.07L51.44 103.47L43.25 101.73L34.93 99.96L27.22 98.33L20.69 96.94L15.99 95.94C15.25 95.78 14.51 95.59 13.77 95.47C13.89 95.66 13.92 95.83 14.05 96.02L14.69 93.01C14.49 93.13 14.3 93.26 14.11 93.38L15.65 93.71L19.8 94.59L25.95 95.9L33.45 97.49L41.64 99.23L49.96 101L57.67 102.64L64.2 104.03L68.9 105.03C69.64 105.19 70.38 105.38 71.12 105.5L70.85 104.95L70.21 107.96C70.07 108.57 71.03 108.77 71.16 108.16L71.8 105.15C71.85 104.89 71.68 104.63 71.42 104.57L69.88 104.24L65.74 103.36L59.59 102.06L52.08 100.46L43.89 98.72L35.57 96.95L27.87 95.31L21.33 93.92L16.63 92.92C15.89 92.77 15.15 92.6 14.41 92.45C14.15 92.4 13.79 92.55 13.74 92.81L13.09 95.82C13.04 96.08 13.21 96.34 13.47 96.4L15.01 96.72L19.15 97.6L25.3 98.91L32.81 100.51L41 102.25L49.32 104.02L57.03 105.65L63.56 107.04L68.26 108.04C69 108.2 69.74 108.37 70.48 108.52C71.09 108.64 71.39 107.71 70.78 107.58Z" fill="#101010" fill-opacity="1.000000" fill-rule="nonzero"/>
		</g>
	</g>
	<g mask="url(#mask1_36659)">
		<g style="mix-blend-mode:normal">
			<path id="Path 35466" d="M49.18 24.58L50.42 29.99C67.08 33.54 83.73 37.1 100.39 40.65C100.01 38.84 99.63 37.03 99.25 35.23L49.18 24.58Z" fill="#1C5647" fill-opacity="1.000000" fill-rule="nonzero"/>
		</g>
	</g>
	<g mask="url(#mask1_36659)">
		<g style="mix-blend-mode:normal">
			<path id="Path 35467" d="M48.71 24.73C49.08 26.31 49.44 27.89 49.81 29.47C49.86 29.69 49.91 29.92 49.96 30.14C50 30.31 50.17 30.43 50.32 30.47C56.82 31.85 63.33 33.24 69.83 34.63C76.33 36.01 82.83 37.4 89.33 38.79C92.98 39.57 96.63 40.34 100.28 41.12C100.68 41.21 100.92 40.84 100.85 40.49C100.47 38.69 100.09 36.88 99.71 35.07C99.67 34.91 99.5 34.78 99.35 34.75L98.01 34.46L94.36 33.69L88.98 32.55L82.41 31.15L75.2 29.62L67.92 28.07L61.14 26.63L55.43 25.41L51.31 24.54C50.66 24.4 50.01 24.25 49.36 24.12C48.75 23.99 48.46 24.93 49.07 25.06L50.41 25.34L54.06 26.12L59.44 27.26L66.01 28.66L73.22 30.19L80.5 31.74L87.28 33.18L92.99 34.39L97.11 35.27C97.76 35.41 98.41 35.58 99.06 35.68C98.94 35.58 98.9 35.49 98.78 35.38C99.16 37.18 99.54 38.99 99.92 40.8C100.11 40.59 100.3 40.38 100.49 40.17C93.98 38.78 87.48 37.4 80.98 36.01C74.48 34.62 67.98 33.24 61.48 31.85C57.83 31.07 54.18 30.3 50.52 29.52C50.64 29.62 50.76 29.73 50.88 29.84C50.52 28.26 50.16 26.68 49.79 25.11C49.74 24.88 49.69 24.66 49.64 24.43C49.58 24.17 49.26 24.04 49.02 24.12C48.75 24.21 48.65 24.48 48.71 24.73Z" fill="#101010" fill-opacity="1.000000" fill-rule="nonzero"/>
		</g>
	</g>
	<g mask="url(#mask1_36659)">
		<g style="mix-blend-mode:normal">
			<path id="Path 35468" d="M51.28 167.41L29.15 162.71L30.24 157.62C30.88 154.6 33.84 152.68 36.85 153.32L48.07 155.71C51.08 156.35 53 159.31 52.36 162.32L51.28 167.41Z" fill="#101010" fill-opacity="1.000000" fill-rule="nonzero"/>
		</g>
	</g>
	<g mask="url(#mask1_36659)">
		<g style="mix-blend-mode:normal">
			<path id="Path 35469" d="M133.7 57.79L133.24 59.92C132.75 60.36 132.18 60.72 131.56 60.98C129.43 61.85 126.64 61.17 125.51 59.16C124.43 57.25 125.03 54.86 125.67 52.76C124.56 53.88 122.81 54.31 121.31 53.82C119.81 53.33 118.65 51.94 118.43 50.38C117.93 51.79 116.77 53.01 115.31 53.32C113.85 53.64 112.16 52.89 111.62 51.5C111.04 50.02 111.85 48.3 113.11 47.34C114.36 46.38 115.96 46.02 117.52 45.74C116.84 43.99 117.09 41.91 118.17 40.37C119.23 38.87 121.04 37.94 122.87 37.95L133.7 57.79Z" fill="#D6EADF" fill-opacity="1.000000" fill-rule="nonzero"/>
		</g>
	</g>
	<g mask="url(#mask1_36659)">
		<g style="mix-blend-mode:normal">
			<path id="Path 35470" d="M133.22 57.69L132.77 59.82C132.81 59.75 132.85 59.67 132.88 59.6C131.49 60.82 129.5 61.24 127.76 60.5C126.99 60.17 126.34 59.63 125.92 58.9C125.45 58.08 125.35 57.11 125.42 56.19C125.5 55.06 125.82 53.94 126.14 52.86C126.29 52.37 125.62 52.12 125.31 52.43C124.31 53.43 122.74 53.81 121.4 53.35C120.12 52.9 119.12 51.69 118.92 50.35C118.88 50.14 118.75 49.95 118.53 49.91C118.34 49.87 118.07 49.96 118 50.16C117.63 51.17 116.94 52.08 115.97 52.58C115.08 53.03 114.04 53.01 113.17 52.53C112.31 52.05 111.8 51.14 111.93 50.15C112.09 49.06 112.79 48.12 113.69 47.52C114.84 46.77 116.22 46.47 117.55 46.22C117.84 46.17 118.1 45.91 117.98 45.59C117.49 44.29 117.51 42.82 118.07 41.55C118.6 40.35 119.57 39.39 120.78 38.87C121.45 38.58 122.17 38.44 122.9 38.43C122.76 38.36 122.61 38.28 122.46 38.21C122.82 38.87 123.18 39.53 123.54 40.19C124.41 41.77 125.27 43.35 126.13 44.92C127.17 46.84 128.21 48.75 129.26 50.67C130.16 52.32 131.06 53.97 131.96 55.62C132.39 56.42 132.79 57.25 133.27 58.03C133.39 58.26 133.75 58.34 133.96 58.2C134.2 58.05 134.23 57.76 134.1 57.53C133.74 56.87 133.38 56.21 133.02 55.55C132.16 53.97 131.3 52.39 130.44 50.82C129.4 48.9 128.35 46.99 127.31 45.07C126.41 43.42 125.51 41.77 124.61 40.12C124.18 39.33 123.78 38.49 123.3 37.72C123.21 37.56 123.01 37.46 122.84 37.46C121.32 37.47 119.85 38.06 118.71 39.06C117.5 40.11 116.79 41.65 116.68 43.24C116.61 44.14 116.73 45.05 117.06 45.89C117.2 45.68 117.34 45.47 117.49 45.25C116.09 45.51 114.67 45.81 113.43 46.54C112.26 47.23 111.31 48.35 111.03 49.7C110.76 50.98 111.2 52.31 112.26 53.09C113.29 53.85 114.65 54.09 115.87 53.67C117.27 53.19 118.36 51.98 118.86 50.61L117.94 50.41C118.15 51.78 118.93 52.99 120.08 53.76C121.24 54.53 122.71 54.7 124.03 54.29C124.79 54.06 125.47 53.64 126.03 53.09C125.75 52.94 125.47 52.8 125.19 52.66C124.41 55.27 123.69 58.68 126.15 60.66C127.2 61.5 128.57 61.89 129.91 61.83C130.58 61.8 131.25 61.65 131.87 61.38C132.24 61.21 132.59 61.02 132.92 60.79C133.2 60.6 133.63 60.35 133.72 60.02C133.91 59.32 134.02 58.6 134.17 57.9C134.3 57.28 133.35 57.08 133.22 57.69Z" fill="#101010" fill-opacity="1.000000" fill-rule="nonzero"/>
		</g>
	</g>
	<g mask="url(#mask1_36659)">
		<g style="mix-blend-mode:normal">
			<path id="Path 35471" d="M103.5 142.07C102.53 144.92 99.63 146.09 98.86 146.47C98.34 146.72 97.88 146.89 97.55 147C97.62 147.44 97.68 148.07 97.55 148.81C97.49 149.18 97.1 151.98 95 152.53C93.4 152.95 91.62 152.22 90.59 150.93C89.55 149.64 89.2 147.89 89.42 146.25C88.2 147.85 85.81 148.44 83.99 147.58C82.29 146.77 81.25 144.78 81.5 142.93C81.24 144.33 80.91 145.72 80.21 146.95C79.91 147.46 78.52 149.61 76.6 149.63C74.81 149.65 72.93 147.81 72.34 145.07C73.11 141.05 73.88 137.03 74.64 133.01L72.68 129.36L72.7 128.41C74.5 125.96 77.88 124.81 80.81 125.63C81.32 125.77 81.82 125.98 82.28 126.24C84.47 127.43 86.05 129.74 86.27 132.23C87.24 131 88.38 129.75 89.9 129.37C91.42 128.98 93.36 129.88 93.47 131.45C94.75 130.39 96.16 129.27 97.82 129.19C99.37 129.12 100.85 130 101.8 131.22C102.76 132.43 103.26 133.95 103.59 135.46C104.07 137.64 104.22 139.96 103.5 142.07Z" fill="#D6EADF" fill-opacity="1.000000" fill-rule="nonzero"/>
		</g>
	</g>
	<g mask="url(#mask1_36659)">
		<g style="mix-blend-mode:normal">
			<path id="Path 35472" d="M103.03 141.97C102.66 143.03 101.92 143.95 101.05 144.63C100.67 144.92 100.27 145.19 99.86 145.42C99.68 145.52 99.5 145.62 99.32 145.71C99.25 145.74 99.18 145.78 99.11 145.81C99.08 145.83 99.02 145.86 98.98 145.88C98.46 146.12 97.94 146.36 97.39 146.54C97.21 146.6 97.03 146.82 97.06 147.03C97.19 147.81 97.14 148.58 96.95 149.35C96.91 149.51 96.87 149.67 96.82 149.83C96.81 149.86 96.75 150.04 96.78 149.97C96.74 150.07 96.69 150.18 96.65 150.28C96.57 150.47 96.48 150.66 96.37 150.84C96.26 151.03 96.19 151.12 96.04 151.3C95.4 152.04 94.43 152.29 93.43 152.1C92.3 151.89 91.3 151.19 90.68 150.23C89.95 149.1 89.73 147.68 89.89 146.35C89.92 146.13 89.84 145.92 89.64 145.82C89.46 145.72 89.19 145.75 89.06 145.92C88.23 147 86.87 147.57 85.52 147.48C84.14 147.39 82.96 146.51 82.37 145.28C82.03 144.59 81.88 143.79 81.98 143.03C82.01 142.77 81.87 142.51 81.6 142.45C81.35 142.4 81.07 142.57 81.02 142.83C80.78 144.17 80.46 145.53 79.77 146.73C79.73 146.81 79.68 146.89 79.63 146.97C79.59 147.03 79.55 147.09 79.51 147.14C79.49 147.18 79.44 147.24 79.42 147.27C79.19 147.58 78.93 147.88 78.66 148.15C78.07 148.71 77.32 149.16 76.47 149.14C76.16 149.13 75.78 149.02 75.45 148.86C75.05 148.66 74.73 148.41 74.42 148.1C73.56 147.24 73.06 146.09 72.8 144.92C72.81 145 72.81 145.09 72.82 145.17C73.42 141.99 74.03 138.81 74.64 135.63C74.79 134.83 74.94 134.04 75.09 133.25C75.13 133.05 75.12 132.88 75.03 132.7C74.99 132.62 74.95 132.55 74.91 132.48C74.58 131.86 74.24 131.24 73.91 130.62C73.63 130.11 73.36 129.6 73.08 129.1C73.11 129.17 73.13 129.25 73.16 129.33C73.17 129.01 73.18 128.7 73.19 128.38C73.14 128.5 73.1 128.62 73.06 128.74C74.38 126.96 76.52 125.9 78.73 125.85C81.03 125.8 83.19 127 84.51 128.87C85.21 129.87 85.67 131.03 85.78 132.26C85.82 132.65 86.36 132.9 86.63 132.56C87.39 131.59 88.26 130.55 89.42 130.04C90.36 129.64 91.45 129.67 92.25 130.27C92.67 130.58 92.94 130.98 92.99 131.48C93.01 131.81 93.44 132.1 93.74 131.86C94.67 131.08 95.64 130.27 96.81 129.88C97.98 129.49 99.16 129.72 100.18 130.37C101.23 131.05 101.96 132.13 102.43 133.27C102.93 134.5 103.23 135.84 103.4 137.17C103.6 138.78 103.55 140.42 103.03 141.97C102.94 142.22 103.16 142.5 103.4 142.55C103.68 142.61 103.89 142.42 103.98 142.17C104.47 140.69 104.57 139.1 104.42 137.55C104.28 136.09 103.98 134.6 103.45 133.23C102.95 131.9 102.18 130.64 101.03 129.78C99.87 128.92 98.47 128.51 97.04 128.81C95.56 129.11 94.34 130.1 93.21 131.04L93.96 131.42C93.84 130.11 92.76 129.2 91.54 128.9C90.13 128.55 88.75 129.12 87.67 130.03C87.01 130.58 86.44 131.23 85.91 131.91C86.19 132 86.47 132.1 86.75 132.2C86.57 130.17 85.57 128.27 84.06 126.91C82.47 125.48 80.38 124.74 78.25 124.9C76.23 125.06 74.28 125.96 72.89 127.43C72.6 127.73 72.23 128.08 72.21 128.51C72.2 128.78 72.18 129.07 72.19 129.34C72.2 129.66 72.48 130.02 72.63 130.29C73.16 131.29 73.7 132.28 74.24 133.27C74.21 133.15 74.19 133.03 74.17 132.91C73.72 135.28 73.26 137.66 72.81 140.03L72.12 143.64C72.07 143.93 72.01 144.21 71.96 144.5C71.93 144.62 71.9 144.75 71.88 144.88C71.85 145.08 71.88 145.23 71.92 145.42C72.03 145.88 72.18 146.33 72.38 146.75C73.04 148.23 74.22 149.66 75.86 150.03C77.41 150.38 78.82 149.49 79.79 148.35C81.09 146.85 81.62 144.94 81.98 143.03L81.02 142.83C80.81 144.52 81.47 146.28 82.79 147.37C84.09 148.47 85.9 148.73 87.5 148.17C88.39 147.87 89.2 147.32 89.78 146.58C89.5 146.43 89.22 146.29 88.94 146.15C88.76 147.56 88.95 148.99 89.59 150.27C90.22 151.52 91.32 152.47 92.65 152.9C93.83 153.29 95.28 153.22 96.28 152.42C97.06 151.78 97.52 150.87 97.8 149.92C98.09 148.97 98.2 147.95 98.03 146.97L97.7 147.46C98.01 147.36 98.32 147.24 98.62 147.11C98.8 147.03 98.97 146.95 99.15 146.86C99.51 146.7 99.94 146.49 100.28 146.3C101.25 145.76 102.16 145.07 102.86 144.21C103.35 143.59 103.72 142.92 103.98 142.17C104.06 141.92 103.84 141.64 103.6 141.6C103.32 141.53 103.11 141.72 103.03 141.97Z" fill="#101010" fill-opacity="1.000000" fill-rule="nonzero"/>
		</g>
	</g>
	<g mask="url(#mask1_36659)">
		<g style="mix-blend-mode:normal">
			<path id="Path 35473" d="M107.96 124.51C105.87 126.71 103.82 128.95 101.8 131.22C100.85 130 99.37 129.12 97.82 129.19C96.16 129.27 94.75 130.39 93.47 131.45C93.36 129.88 91.42 128.98 89.9 129.37C88.38 129.76 87.24 131 86.27 132.23C86.05 129.74 84.47 127.43 82.28 126.24C82.4 121.88 82.79 117.54 83.46 113.24C84.86 116 86.46 118.67 88.23 121.22C89.3 119.69 90.11 117.99 90.91 116.3C91.88 119.17 92.86 122.03 93.83 124.9C95.41 123.26 97 121.61 98.58 119.97C98.84 122.2 99.1 124.44 99.36 126.67C102.23 125.95 105.09 125.23 107.96 124.51Z" fill="#FBD04E" fill-opacity="1.000000" fill-rule="nonzero"/>
		</g>
	</g>
	<g mask="url(#mask1_36659)">
		<g style="mix-blend-mode:normal">
			<path id="Path 35474" d="M107.6 124.18C105.51 126.38 103.46 128.62 101.45 130.89C101.7 130.91 101.96 130.93 102.21 130.95C101.35 129.88 100.16 129.01 98.78 128.77C97.42 128.53 96.12 128.98 94.98 129.7C94.35 130.1 93.78 130.57 93.21 131.04L93.96 131.42C93.84 130.11 92.76 129.2 91.54 128.9C90.13 128.55 88.75 129.12 87.67 130.03C87.01 130.58 86.44 131.23 85.91 131.91C86.19 132 86.47 132.1 86.75 132.2C86.51 129.52 84.85 127.1 82.51 125.8L82.77 126.21C82.86 122.85 83.11 119.5 83.54 116.17C83.66 115.22 83.79 114.28 83.93 113.34C83.64 113.39 83.34 113.45 83.05 113.5C84.46 116.27 86.05 118.94 87.83 121.48C88.05 121.81 88.46 121.74 88.67 121.44C89.73 119.9 90.54 118.21 91.34 116.52C91.04 116.5 90.75 116.48 90.45 116.45C91.42 119.32 92.4 122.19 93.37 125.05C93.49 125.4 93.94 125.49 94.2 125.23C95.78 123.58 97.36 121.94 98.94 120.29L98.09 120C98.35 122.23 98.61 124.46 98.88 126.7C98.92 127.03 99.2 127.21 99.52 127.13C102.38 126.41 105.24 125.69 108.11 124.97C108.36 124.91 108.5 124.59 108.42 124.35C108.33 124.09 108.06 123.98 107.8 124.05C104.94 124.76 102.07 125.49 99.21 126.21C99.42 126.35 99.64 126.5 99.85 126.64C99.58 124.41 99.32 122.17 99.06 119.94C99.01 119.52 98.52 119.33 98.22 119.64C96.64 121.28 95.06 122.93 93.48 124.57L94.3 124.75C93.32 121.88 92.35 119.01 91.37 116.15C91.24 115.76 90.66 115.69 90.48 116.08C89.68 117.76 88.87 119.46 87.8 120.99C88.08 120.98 88.36 120.97 88.64 120.95C86.87 118.41 85.27 115.74 83.87 112.97C83.68 112.6 83.04 112.74 82.98 113.13C82.46 116.52 82.11 119.94 81.92 123.36C81.86 124.33 81.82 125.3 81.8 126.27C81.79 126.43 81.92 126.59 82.06 126.67C84.1 127.8 85.57 129.92 85.78 132.26C85.82 132.65 86.36 132.9 86.63 132.56C87.39 131.59 88.26 130.55 89.42 130.04C90.36 129.64 91.45 129.67 92.25 130.27C92.67 130.58 92.94 130.98 92.99 131.48C93.01 131.81 93.44 132.1 93.74 131.86C94.83 130.95 96.05 129.9 97.51 129.71C99.03 129.51 100.47 130.33 101.4 131.48C101.59 131.72 101.94 131.8 102.16 131.55C104.18 129.27 106.23 127.04 108.32 124.83C108.75 124.38 108.03 123.73 107.6 124.18Z" fill="#101010" fill-opacity="1.000000" fill-rule="nonzero"/>
		</g>
	</g>
	<g mask="url(#mask1_36659)">
		<g style="mix-blend-mode:normal">
			<path id="Path 35475" d="M116.01 88.17C114.55 88.62 113.03 87.88 111.53 87.59C110.03 87.29 108.02 87.85 107.9 89.38C107.82 90.53 108.88 91.4 109.84 92.05C108.55 92.02 107.22 92 106.01 92.44L103.75 88.86L98.12 87.12L107.46 84.2L101.25 80.52L108.65 79.91L107.96 73.31L113.24 77.79C112.72 79.03 112.51 80.41 112.64 81.75C112.88 84.21 114.19 86.49 116.01 88.17Z" fill="#FBD04E" fill-opacity="1.000000" fill-rule="nonzero"/>
		</g>
	</g>
	<g mask="url(#mask1_36659)">
		<g style="mix-blend-mode:normal">
			<path id="Path 35476" d="M115.86 87.71C114.9 87.99 113.89 87.7 112.96 87.44C112.07 87.2 111.19 86.95 110.25 87.05C109.44 87.13 108.59 87.42 108.01 88.02C107.42 88.64 107.26 89.56 107.57 90.34C107.95 91.29 108.8 91.92 109.61 92.48L109.81 91.56C108.47 91.54 107.06 91.51 105.79 92.01L106.35 92.21C106.02 91.65 105.68 91.1 105.34 90.55C104.95 89.91 104.59 89.25 104.17 88.63C104.05 88.44 103.86 88.39 103.66 88.33C103.36 88.23 103.06 88.14 102.77 88.05C101.86 87.77 100.96 87.49 100.05 87.21C99.44 87.02 98.83 86.83 98.22 86.64L98.27 87.58C99.32 87.25 100.37 86.92 101.42 86.6C103.1 86.07 104.78 85.55 106.46 85.02C106.85 84.9 107.23 84.78 107.61 84.66C108.03 84.53 108.03 83.97 107.69 83.77C105.87 82.69 104.05 81.62 102.24 80.54L101.47 80.08L101.28 81C103.43 80.83 105.59 80.65 107.74 80.47C108.05 80.45 108.36 80.42 108.67 80.39C108.93 80.37 109.16 80.15 109.13 79.88C108.93 77.95 108.73 76.03 108.53 74.1L108.44 73.28C108.17 73.41 107.9 73.54 107.63 73.67C109.17 74.98 110.72 76.29 112.26 77.6C112.48 77.78 112.7 77.97 112.91 78.15C112.88 77.96 112.85 77.76 112.81 77.57C112.15 79.15 111.95 80.88 112.27 82.56C112.55 84.02 113.15 85.4 114.01 86.61C114.49 87.31 115.06 87.95 115.68 88.53C116.15 88.95 116.8 88.23 116.34 87.81C114.35 85.96 112.98 83.36 113.1 80.6C113.13 79.71 113.33 78.83 113.67 78.01C113.76 77.82 113.74 77.58 113.57 77.43C112.03 76.12 110.48 74.81 108.94 73.51C108.72 73.32 108.5 73.14 108.28 72.95C107.98 72.69 107.43 72.9 107.47 73.34C107.67 75.27 107.87 77.2 108.07 79.12C108.1 79.4 108.13 79.67 108.16 79.94C108.31 79.77 108.46 79.6 108.62 79.42C106.46 79.6 104.3 79.78 102.15 79.96C101.84 79.98 101.53 80.01 101.22 80.03C100.72 80.07 100.61 80.71 101.02 80.95C102.84 82.02 104.65 83.1 106.47 84.18C106.73 84.33 106.98 84.48 107.24 84.63C107.26 84.33 107.29 84.04 107.31 83.74C106.26 84.07 105.21 84.39 104.16 84.72C102.48 85.25 100.8 85.77 99.12 86.3C98.73 86.42 98.35 86.54 97.96 86.66C97.47 86.81 97.58 87.46 98.02 87.59L102.95 89.12C103.18 89.19 103.41 89.26 103.64 89.34C103.54 89.27 103.44 89.2 103.34 89.13L105.26 92.28L105.54 92.74C105.64 92.91 105.9 93.01 106.1 92.93C107.29 92.46 108.61 92.51 109.87 92.54C110.08 92.54 110.27 92.35 110.31 92.15C110.36 91.92 110.24 91.74 110.06 91.62C109.49 91.23 108.82 90.75 108.52 90.1C108.26 89.53 108.39 88.96 108.83 88.58C109.28 88.18 109.99 88.02 110.6 88C111.43 87.97 112.24 88.26 113.04 88.47C114.06 88.75 115.12 88.93 116.17 88.63C116.77 88.45 116.46 87.53 115.86 87.71Z" fill="#101010" fill-opacity="1.000000" fill-rule="nonzero"/>
		</g>
	</g>
	<g mask="url(#mask1_36659)">
		<g style="mix-blend-mode:normal">
			<path id="Path 35477" d="M54.67 99.33L50.28 98.39C49.44 98.22 48.9 97.38 49.08 96.55L49.19 96.04C49.37 95.2 50.2 94.66 51.04 94.84L55.43 95.77C56.26 95.95 56.8 96.78 56.63 97.62L56.52 98.13C56.34 98.96 55.51 99.5 54.67 99.33Z" fill="#1C5647" fill-opacity="1.000000" fill-rule="nonzero"/>
		</g>
	</g>
	<g mask="url(#mask1_36659)">
		<g style="mix-blend-mode:normal">
			<path id="Path 35478" d="M54.77 98.85L51.81 98.22C51.36 98.12 50.9 98.03 50.45 97.93C49.84 97.8 49.44 97.27 49.56 96.64C49.61 96.4 49.64 96.11 49.75 95.89C49.93 95.54 50.28 95.31 50.67 95.29C51.02 95.27 51.41 95.41 51.74 95.48L55.17 96.21C55.37 96.25 55.55 96.3 55.72 96.41C56.07 96.66 56.23 97.1 56.15 97.52C56.09 97.8 56.06 98.14 55.89 98.39C55.65 98.76 55.2 98.93 54.77 98.85C54.16 98.73 53.95 99.68 54.57 99.8C55.72 100.02 56.76 99.28 57.01 98.16C57.1 97.73 57.19 97.32 57.1 96.88C56.98 96.31 56.63 95.83 56.14 95.53C55.72 95.28 55.19 95.22 54.72 95.12L52.57 94.66C52.1 94.56 51.63 94.46 51.16 94.36C50.11 94.15 49.06 94.76 48.75 95.8C48.65 96.13 48.57 96.5 48.56 96.84C48.55 97.39 48.79 97.93 49.17 98.32C49.61 98.77 50.19 98.87 50.77 98.99L54.57 99.8C55.18 99.93 55.38 98.98 54.77 98.85Z" fill="#101010" fill-opacity="1.000000" fill-rule="nonzero"/>
		</g>
	</g>
	<g mask="url(#mask1_36659)">
		<g style="mix-blend-mode:normal">
			<path id="Path 35479" d="M54.7 96.83C54.5 96.97 53.87 97.37 53.09 97.24C52.2 97.09 51.74 96.37 51.62 96.18L53.72 86.3L56.8 86.95L54.7 96.83Z" fill="#6ACEB6" fill-opacity="1.000000" fill-rule="nonzero"/>
		</g>
	</g>
	<g mask="url(#mask1_36659)">
		<g style="mix-blend-mode:normal">
			<path id="Path 35480" d="M54.43 96.42C54.04 96.7 53.55 96.87 53.04 96.73C52.56 96.61 52.25 96.27 52.03 95.91C52.05 96.04 52.07 96.16 52.1 96.28L54.2 86.4C54 86.53 53.81 86.65 53.62 86.77L56.7 87.43C56.57 87.24 56.45 87.04 56.32 86.85L55.61 90.2L54.48 95.51L54.22 96.73C54.09 97.34 55.04 97.55 55.17 96.93L55.88 93.58L57.01 88.27L57.27 87.05C57.33 86.8 57.16 86.53 56.9 86.48L53.82 85.82C53.56 85.77 53.3 85.94 53.25 86.2L51.85 92.75C51.62 93.84 51.34 94.93 51.16 96.03C51.09 96.39 51.35 96.67 51.58 96.93C51.83 97.2 52.15 97.43 52.5 97.57C53.33 97.9 54.24 97.74 54.96 97.24C55.48 96.88 54.95 96.07 54.43 96.42Z" fill="#101010" fill-opacity="1.000000" fill-rule="nonzero"/>
		</g>
	</g>
	<g mask="url(#mask1_36659)">
		<g style="mix-blend-mode:normal">
			<path id="Path 35481" d="M59.26 86.06C59.7 84.01 58.39 81.99 56.34 81.56C54.28 81.12 52.27 82.43 51.83 84.48C51.39 86.53 52.7 88.55 54.76 88.99C56.81 89.43 58.83 88.11 59.26 86.06Z" fill="#FF7271" fill-opacity="1.000000" fill-rule="nonzero"/>
		</g>
	</g>
	<g mask="url(#mask1_36659)">
		<g style="mix-blend-mode:normal">
			<path id="Path 35482" d="M59.74 86.16C60.1 84.39 59.32 82.58 57.78 81.62C56.3 80.69 54.27 80.8 52.9 81.9C51.5 83.03 50.9 84.95 51.49 86.67C52.09 88.38 53.71 89.53 55.52 89.56C57.54 89.59 59.31 88.11 59.74 86.16C59.87 85.55 58.92 85.35 58.79 85.96C58.49 87.28 57.4 88.36 56.05 88.55C54.64 88.75 53.28 88.05 52.61 86.8C51.95 85.58 52.19 84.01 53.13 83C54.07 82.01 55.59 81.67 56.85 82.22C58.29 82.85 59.1 84.41 58.79 85.96C58.66 86.57 59.61 86.78 59.74 86.16Z" fill="#101010" fill-opacity="1.000000" fill-rule="nonzero"/>
		</g>
	</g>
	<g mask="url(#mask1_36659)">
		<g style="mix-blend-mode:normal">
			<path id="Path 35483" d="M66.58 101.86L62.19 100.93C61.35 100.75 60.81 99.92 60.99 99.08L61.1 98.57C61.28 97.73 62.11 97.19 62.95 97.37L67.34 98.3C68.17 98.48 68.71 99.31 68.54 100.15L68.43 100.66C68.25 101.5 67.42 102.04 66.58 101.86Z" fill="#1C5647" fill-opacity="1.000000" fill-rule="nonzero"/>
		</g>
	</g>
	<g mask="url(#mask1_36659)">
		<g style="mix-blend-mode:normal">
			<path id="Path 35484" d="M66.68 101.38L63.72 100.75C63.26 100.66 62.81 100.56 62.36 100.46C61.75 100.33 61.35 99.8 61.47 99.17C61.52 98.93 61.55 98.64 61.66 98.42C61.84 98.07 62.19 97.84 62.58 97.82C62.93 97.8 63.32 97.94 63.65 98.01L67.08 98.74C67.28 98.78 67.46 98.83 67.63 98.94C67.98 99.19 68.14 99.63 68.06 100.05C68 100.34 67.97 100.67 67.8 100.92C67.56 101.29 67.11 101.46 66.68 101.38C66.07 101.27 65.86 102.22 66.48 102.33C67.63 102.55 68.67 101.82 68.92 100.69C69.01 100.26 69.1 99.85 69.01 99.41C68.89 98.84 68.54 98.36 68.04 98.06C67.63 97.81 67.1 97.75 66.63 97.65L64.48 97.19C64.01 97.09 63.54 96.99 63.07 96.9C62.01 96.69 60.96 97.29 60.66 98.33C60.56 98.66 60.48 99.03 60.47 99.37C60.46 99.92 60.69 100.46 61.08 100.85C61.52 101.3 62.1 101.4 62.68 101.53L66.48 102.33C67.09 102.46 67.29 101.51 66.68 101.38Z" fill="#101010" fill-opacity="1.000000" fill-rule="nonzero"/>
		</g>
	</g>
	<g mask="url(#mask1_36659)">
		<g style="mix-blend-mode:normal">
			<path id="Path 35485" d="M66.61 99.36C66.41 99.5 65.78 99.9 65 99.77C64.11 99.62 63.64 98.9 63.53 98.71L65.63 88.83L68.71 89.48L66.61 99.36Z" fill="#6ACEB6" fill-opacity="1.000000" fill-rule="nonzero"/>
		</g>
	</g>
	<g mask="url(#mask1_36659)">
		<g style="mix-blend-mode:normal">
			<path id="Path 35486" d="M66.34 98.96C65.95 99.23 65.46 99.4 64.95 99.26C64.47 99.14 64.16 98.8 63.94 98.45C63.96 98.57 63.98 98.69 64.01 98.81L66.11 88.93C65.91 89.06 65.72 89.18 65.53 89.31L68.6 89.96L68.23 89.38L67.52 92.73L66.39 98.04L66.13 99.26C66 99.87 66.95 100.08 67.08 99.46L67.79 96.11L68.92 90.81L69.18 89.59C69.24 89.33 69.06 89.06 68.81 89.01L65.73 88.36C65.47 88.3 65.21 88.47 65.15 88.73L63.76 95.28C63.53 96.37 63.25 97.46 63.06 98.56C63 98.92 63.26 99.21 63.49 99.46C63.74 99.73 64.06 99.97 64.41 100.1C65.24 100.43 66.15 100.27 66.87 99.77C67.39 99.42 66.86 98.6 66.34 98.96Z" fill="#101010" fill-opacity="1.000000" fill-rule="nonzero"/>
		</g>
	</g>
	<g mask="url(#mask1_36659)">
		<g style="mix-blend-mode:normal">
			<path id="Path 35487" d="M71.17 88.59C71.61 86.54 70.3 84.52 68.25 84.09C66.19 83.65 64.17 84.96 63.74 87.01C63.3 89.07 64.61 91.08 66.67 91.52C68.72 91.96 70.74 90.65 71.17 88.59Z" fill="#FF7271" fill-opacity="1.000000" fill-rule="nonzero"/>
		</g>
	</g>
	<g mask="url(#mask1_36659)">
		<g style="mix-blend-mode:normal">
			<path id="Path 35488" d="M71.65 88.69C72.01 86.92 71.23 85.11 69.69 84.15C68.21 83.22 66.18 83.34 64.81 84.43C63.4 85.56 62.81 87.48 63.4 89.2C64 90.91 65.62 92.06 67.43 92.09C69.45 92.12 71.22 90.64 71.65 88.69C71.78 88.08 70.83 87.88 70.7 88.49C70.4 89.82 69.31 90.89 67.95 91.08C66.55 91.28 65.19 90.58 64.51 89.34C63.86 88.11 64.1 86.54 65.04 85.53C65.98 84.54 67.49 84.2 68.75 84.75C70.2 85.39 71.01 86.95 70.7 88.49C70.57 89.11 71.52 89.31 71.65 88.69Z" fill="#101010" fill-opacity="1.000000" fill-rule="nonzero"/>
		</g>
	</g>
	<g mask="url(#mask1_36659)">
		<g style="mix-blend-mode:normal">
			<path id="Path 35489" d="M57.55 58.14L51.17 65.81L68.21 60.4L57.55 58.14Z" fill="#D6EADF" fill-opacity="1.000000" fill-rule="nonzero"/>
		</g>
	</g>
	<g mask="url(#mask1_36659)">
		<g style="mix-blend-mode:normal">
			<path id="Path 35490" d="M57.19 57.81C56.48 58.67 55.76 59.53 55.04 60.39C53.9 61.77 52.75 63.15 51.61 64.52C51.35 64.84 51.08 65.16 50.81 65.48C50.51 65.85 50.85 66.42 51.33 66.27C51.89 66.09 52.46 65.91 53.03 65.73C54.38 65.3 55.74 64.87 57.09 64.44C58.73 63.92 60.36 63.4 62 62.88C63.42 62.43 64.85 61.98 66.27 61.53C66.95 61.31 67.66 61.12 68.33 60.87C68.8 60.73 68.78 60.03 68.31 59.93L64.71 59.16L58.97 57.94L57.65 57.66C57.04 57.53 56.84 58.48 57.45 58.61L61.05 59.38L66.8 60.6L68.11 60.88C68.09 60.56 68.08 60.25 68.06 59.94C67.49 60.12 66.93 60.3 66.36 60.48C65 60.91 63.65 61.34 62.3 61.77C60.66 62.29 59.02 62.81 57.39 63.33C55.96 63.78 54.54 64.23 53.12 64.68C52.65 64.83 52.19 64.98 51.72 65.12C51.5 65.19 51.27 65.25 51.05 65.34C51.22 65.6 51.36 65.87 51.53 66.14C52.25 65.27 52.97 64.41 53.68 63.55C54.83 62.17 55.97 60.8 57.12 59.42C57.38 59.1 57.65 58.78 57.91 58.46C58.31 57.98 57.59 57.33 57.19 57.81Z" fill="#101010" fill-opacity="1.000000" fill-rule="nonzero"/>
		</g>
	</g>
	<g mask="url(#mask1_36659)">
		<g style="mix-blend-mode:normal">
			<path id="Path 35491" d="M47.86 69.8L72.89 61.4L78.53 62.59L43.93 74.52L47.86 69.8Z" fill="#D6EADF" fill-opacity="1.000000" fill-rule="nonzero"/>
		</g>
	</g>
	<g mask="url(#mask1_36659)">
		<g style="mix-blend-mode:normal">
			<path id="Path 35492" d="M48.01 70.26C48.84 69.98 49.67 69.7 50.5 69.42C52.49 68.76 54.48 68.09 56.47 67.42C58.88 66.61 61.29 65.8 63.7 64.99C65.78 64.29 67.86 63.6 69.95 62.9C70.64 62.66 71.33 62.43 72.02 62.2C72.34 62.09 72.68 62 73 61.87C72.91 61.88 72.87 61.87 72.79 61.87L77.73 62.92L78.43 63.07C78.41 62.76 78.39 62.45 78.37 62.13C78.07 62.24 77.76 62.35 77.45 62.45C76.61 62.74 75.77 63.03 74.94 63.32C73.69 63.75 72.45 64.18 71.21 64.6C69.7 65.13 68.19 65.65 66.68 66.17C65.02 66.74 63.36 67.31 61.69 67.88C60.02 68.46 58.34 69.04 56.66 69.62C55.11 70.16 53.55 70.69 51.99 71.23L48.03 72.6L45.18 73.58C44.73 73.73 44.27 73.86 43.83 74.04C44 74.31 44.12 74.59 44.29 74.85C45.43 73.47 46.58 72.09 47.73 70.72C47.89 70.52 48.05 70.32 48.22 70.13C48.62 69.64 47.9 68.99 47.5 69.47L44.06 73.61C43.9 73.8 43.73 74 43.57 74.2C43.27 74.56 43.6 75.15 44.08 74.99C44.39 74.88 44.7 74.77 45.01 74.67C45.84 74.38 46.68 74.09 47.52 73.8C48.76 73.37 50 72.94 51.25 72.52L55.78 70.95C57.44 70.38 59.1 69.81 60.76 69.24L65.79 67.5C67.35 66.96 68.91 66.43 70.46 65.89L74.43 64.52C75.38 64.2 76.33 63.87 77.28 63.54C77.73 63.39 78.18 63.24 78.62 63.08C79.07 62.92 79.1 62.22 78.63 62.12L75.38 61.43L73.47 61.02C73.23 60.97 72.95 60.87 72.71 60.94C72.28 61.07 71.86 61.23 71.45 61.37C70.51 61.68 69.57 61.99 68.64 62.31C65.9 63.23 63.16 64.15 60.43 65.07C57.66 66 54.89 66.92 52.12 67.85C50.67 68.34 49.21 68.8 47.77 69.31C47.18 69.51 47.42 70.46 48.01 70.26Z" fill="#101010" fill-opacity="1.000000" fill-rule="nonzero"/>
		</g>
	</g>
	<g mask="url(#mask1_36659)">
		<g style="mix-blend-mode:normal">
			<path id="Path 35493" d="M129.31 78.45L123.26 106.87C122.25 106.79 121.2 106.38 120.28 105.92C117.45 104.48 114.71 102.21 114.19 99.09C113.41 100.4 113.49 102.24 112.28 103.16C111.53 103.74 110.47 103.76 109.57 103.45C108.68 103.14 107.91 102.55 107.17 101.97C107.62 103.99 107.12 106.21 105.85 107.85C105.56 108.23 105.22 108.58 104.79 108.77C103.39 109.41 101.9 108.15 100.88 107.01C100.26 108.16 99.53 109.41 98.28 109.79C97.2 110.11 96.02 109.67 95.12 108.99C93.62 107.86 92.64 106.05 92.52 104.18C92.44 103.04 92.68 101.85 93.38 100.95C94.15 99.95 95.39 99.41 96.63 99.23C97.88 99.05 99.14 99.19 100.39 99.33C99.9 97.73 99.95 95.71 101.28 94.68C102.97 93.39 105.36 94.5 107.49 94.59C106.25 93.92 105.37 92.59 105.29 91.17C105.2 89.76 105.93 88.32 107.13 87.57C109.09 86.36 111.61 87.1 113.78 87.86C111.94 86.6 110.8 84.38 110.85 82.14C110.89 79.91 112.12 77.74 114 76.55C115.24 75.77 116.7 75.4 118.15 75.25C120.93 74.96 123.78 75.4 126.34 76.52C127.42 77 128.47 77.62 129.31 78.45Z" fill="#D6EADF" fill-opacity="1.000000" fill-rule="nonzero"/>
		</g>
	</g>
	<g mask="url(#mask1_36659)">
		<g style="mix-blend-mode:normal">
			<path id="Path 35494" d="M128.83 78.34L128.23 81.17L126.79 87.95L125.04 96.18L123.53 103.28L123.03 105.62C122.96 105.98 122.85 106.35 122.8 106.72C122.99 106.6 123.17 106.52 123.37 106.4C121.67 106.24 120.06 105.35 118.67 104.41C117.45 103.59 116.32 102.57 115.55 101.31C115.12 100.62 114.81 99.86 114.67 99.06C114.59 98.6 114.01 98.42 113.75 98.87C113.35 99.57 113.17 100.37 112.93 101.14C112.73 101.79 112.47 102.48 111.87 102.86C111.26 103.25 110.48 103.22 109.81 103.02C108.94 102.76 108.2 102.16 107.49 101.61C107.09 101.3 106.6 101.64 106.7 102.12C107.02 103.57 106.81 105.12 106.15 106.45C105.85 107.07 105.44 107.76 104.86 108.17C104.32 108.55 103.69 108.51 103.12 108.23C102.37 107.87 101.76 107.26 101.2 106.65C100.99 106.41 100.58 106.53 100.44 106.79C99.89 107.83 99.16 109.2 97.86 109.39C96.46 109.59 95.09 108.54 94.29 107.49C93.45 106.39 92.97 105.04 92.99 103.65C93 102.89 93.19 102.13 93.6 101.48C93.96 100.91 94.52 100.47 95.13 100.18C96.73 99.41 98.58 99.62 100.29 99.81C100.65 99.85 100.97 99.56 100.85 99.18C100.47 97.92 100.37 96.25 101.38 95.25C102.33 94.29 103.83 94.52 105.02 94.73C105.85 94.87 106.68 95.04 107.52 95.08C108.03 95.1 108.1 94.37 107.71 94.16C106.14 93.29 105.31 91.31 106.04 89.61C106.39 88.78 107.02 88.09 107.86 87.74C108.69 87.39 109.61 87.36 110.49 87.48C111.58 87.63 112.64 87.97 113.67 88.34C114.12 88.5 114.49 87.77 114.1 87.5C112.74 86.55 111.8 85.12 111.45 83.49C111.11 81.84 111.52 80.09 112.46 78.7C113.49 77.2 115.07 76.34 116.82 75.95C118.76 75.51 120.85 75.56 122.8 75.93C125.01 76.36 127.35 77.21 128.98 78.81C129.43 79.24 130.08 78.52 129.63 78.09C128.05 76.53 125.84 75.64 123.71 75.13C121.58 74.62 119.31 74.52 117.15 74.9C115.15 75.26 113.27 76.1 111.98 77.73C110.81 79.21 110.19 81.14 110.4 83.03C110.64 85.09 111.75 87.04 113.45 88.22C113.59 87.94 113.73 87.67 113.88 87.39C111.92 86.7 109.61 85.97 107.58 86.8C105.46 87.67 104.31 90.1 105.01 92.3C105.38 93.45 106.2 94.44 107.27 95.02L107.46 94.11C105.92 94.03 104.42 93.44 102.86 93.6C102.08 93.67 101.35 93.96 100.76 94.49C100.16 95.04 99.81 95.83 99.69 96.62C99.53 97.58 99.65 98.56 99.93 99.49C100.12 99.28 100.31 99.07 100.49 98.86C98.69 98.65 96.78 98.45 95.05 99.16C94.3 99.46 93.6 99.91 93.09 100.54C92.52 101.23 92.18 102.1 92.07 102.99C91.87 104.65 92.32 106.35 93.26 107.72C94.19 109.09 95.69 110.29 97.41 110.38C99.36 110.47 100.5 108.75 101.31 107.23C101.06 107.28 100.8 107.32 100.55 107.37C101.6 108.53 103.26 109.97 104.94 109.24C105.77 108.87 106.34 108.09 106.79 107.33C107.23 106.56 107.54 105.71 107.69 104.83C107.87 103.83 107.84 102.81 107.63 101.82C107.36 101.99 107.1 102.16 106.84 102.33C108.05 103.27 109.42 104.27 111.05 104.12C111.76 104.05 112.44 103.76 112.93 103.23C113.4 102.72 113.66 102.06 113.86 101.41C114.08 100.7 114.24 99.97 114.62 99.31L113.7 99.12C114.29 102.47 117.08 104.81 119.96 106.3C120.95 106.81 122.04 107.25 123.16 107.35C123.43 107.37 123.68 107.26 123.74 106.98L124.34 104.15L125.78 97.37L127.53 89.14L129.04 82.04C129.28 80.89 129.56 79.75 129.77 78.6C129.9 77.98 128.96 77.73 128.83 78.34Z" fill="#101010" fill-opacity="1.000000" fill-rule="nonzero"/>
		</g>
	</g>
	<g mask="url(#mask1_36659)">
		<g style="mix-blend-mode:normal">
			<path id="Path 35495" d="M67.86 44.44C68.53 47.89 67.28 50.31 65.06 49.84C62.84 49.37 60.49 46.19 59.82 42.73C59.15 39.28 60.41 36.86 62.63 37.33C64.85 37.8 67.19 40.99 67.86 44.44Z" fill="#D6EADF" fill-opacity="1.000000" fill-rule="nonzero"/>
		</g>
	</g>
	<g mask="url(#mask1_36659)">
		<g style="mix-blend-mode:normal">
			<path id="Path 35496" d="M67.38 44.47C67.59 45.6 67.67 46.8 67.31 47.91C67.21 48.25 67 48.63 66.77 48.89C66.53 49.14 66.31 49.29 65.95 49.38C65.9 49.38 65.8 49.4 65.75 49.41C65.65 49.42 65.55 49.42 65.45 49.41C65.4 49.41 65.32 49.4 65.27 49.39C65.15 49.37 65.03 49.34 64.91 49.3C64.62 49.22 64.16 48.97 63.87 48.77C63.01 48.15 62.33 47.31 61.78 46.43C61.14 45.38 60.67 44.23 60.38 43.03C60.12 41.93 60.01 40.73 60.27 39.61C60.33 39.37 60.38 39.21 60.47 39.01C60.5 38.92 60.54 38.84 60.58 38.76C60.61 38.71 60.64 38.67 60.66 38.62C60.67 38.61 60.77 38.46 60.73 38.51C60.79 38.43 60.85 38.35 60.92 38.28C60.95 38.25 60.98 38.21 61.02 38.18C61.08 38.13 61.19 38.04 61.25 38C61.29 37.97 61.33 37.95 61.37 37.93C61.72 37.79 62.11 37.73 62.47 37.8C62.88 37.87 63.2 38.02 63.58 38.25C64.53 38.83 65.31 39.79 65.9 40.75C66.63 41.93 67.13 43.24 67.4 44.59C67.45 44.85 67.79 44.98 68.02 44.9C68.29 44.81 68.38 44.55 68.32 44.29C68.06 42.95 67.56 41.65 66.87 40.47C66.27 39.44 65.5 38.46 64.54 37.74C63.75 37.15 62.74 36.65 61.71 36.82C60.73 36.97 59.99 37.66 59.6 38.56C59.1 39.71 59.07 41.04 59.25 42.26C59.45 43.65 59.9 44.98 60.55 46.21C61.12 47.31 61.87 48.35 62.81 49.16C63.59 49.84 64.57 50.39 65.63 50.39C66.62 50.38 67.44 49.79 67.91 48.95C68.5 47.92 68.6 46.63 68.5 45.47C68.47 45.12 68.41 44.76 68.35 44.41C68.3 44.15 68.12 43.94 67.83 43.96C67.6 43.97 67.33 44.21 67.38 44.47Z" fill="#101010" fill-opacity="1.000000" fill-rule="nonzero"/>
		</g>
	</g>
	<g mask="url(#mask1_36659)">
		<g style="mix-blend-mode:normal">
			<path id="Path 35497" d="M81.09 47.25C81.76 50.71 80.5 53.12 78.28 52.65C76.06 52.18 73.72 49 73.05 45.54C72.38 42.09 73.63 39.67 75.85 40.14C78.07 40.61 80.42 43.8 81.09 47.25Z" fill="#D6EADF" fill-opacity="1.000000" fill-rule="nonzero"/>
		</g>
	</g>
	<g mask="url(#mask1_36659)">
		<g style="mix-blend-mode:normal">
			<path id="Path 35498" d="M80.6 47.28C80.82 48.41 80.89 49.61 80.54 50.73C80.43 51.06 80.23 51.45 79.99 51.7C79.76 51.96 79.54 52.1 79.18 52.19C79.13 52.2 79.02 52.21 78.97 52.22C78.87 52.23 78.77 52.23 78.67 52.22C78.62 52.22 78.54 52.21 78.49 52.2C78.37 52.18 78.25 52.15 78.14 52.11C77.85 52.03 77.38 51.78 77.09 51.58C76.24 50.96 75.56 50.13 75.01 49.24C74.36 48.19 73.89 47.04 73.61 45.85C73.34 44.74 73.23 43.54 73.5 42.42C73.55 42.19 73.6 42.02 73.69 41.82C73.73 41.73 73.77 41.65 73.81 41.57C73.83 41.52 73.86 41.48 73.89 41.43C73.9 41.42 73.99 41.27 73.96 41.32C74.01 41.24 74.08 41.16 74.14 41.09C74.18 41.06 74.21 41.02 74.24 40.99C74.3 40.94 74.41 40.85 74.48 40.81C74.52 40.78 74.56 40.76 74.6 40.74C74.95 40.6 75.33 40.54 75.7 40.61C76.1 40.69 76.42 40.83 76.81 41.06C77.75 41.65 78.53 42.6 79.13 43.56C79.86 44.74 80.36 46.05 80.63 47.4C80.68 47.66 81.01 47.79 81.24 47.71C81.51 47.62 81.6 47.36 81.55 47.1C81.28 45.76 80.78 44.46 80.09 43.28C79.49 42.25 78.73 41.27 77.77 40.55C76.97 39.96 75.96 39.47 74.94 39.63C73.96 39.78 73.22 40.47 72.83 41.37C72.33 42.52 72.3 43.85 72.48 45.07C72.68 46.46 73.13 47.79 73.77 49.03C74.34 50.12 75.09 51.17 76.03 51.97C76.82 52.65 77.79 53.2 78.86 53.2C79.84 53.19 80.66 52.6 81.14 51.77C81.73 50.73 81.82 49.44 81.72 48.28C81.69 47.93 81.64 47.57 81.57 47.22C81.52 46.97 81.35 46.75 81.06 46.77C80.82 46.78 80.55 47.02 80.6 47.28Z" fill="#101010" fill-opacity="1.000000" fill-rule="nonzero"/>
		</g>
	</g>
	<g mask="url(#mask1_36659)">
		<g style="mix-blend-mode:normal">
			<path id="Path 35499" d="M94.31 50.06C94.98 53.52 93.73 55.93 91.51 55.46C89.29 54.99 86.94 51.81 86.27 48.35C85.6 44.9 86.86 42.48 89.08 42.95C91.3 43.43 93.64 46.61 94.31 50.06Z" fill="#D6EADF" fill-opacity="1.000000" fill-rule="nonzero"/>
		</g>
	</g>
	<g mask="url(#mask1_36659)">
		<g style="mix-blend-mode:normal">
			<path id="Path 35500" d="M93.83 50.09C94.04 51.22 94.12 52.42 93.76 53.54C93.66 53.88 93.45 54.26 93.22 54.51C92.99 54.77 92.76 54.91 92.4 55C92.35 55.01 92.25 55.03 92.2 55.03C92.1 55.04 92 55.04 91.9 55.03C91.85 55.03 91.77 55.02 91.72 55.01C91.6 54.99 91.48 54.96 91.36 54.92C91.07 54.84 90.61 54.6 90.32 54.39C89.46 53.77 88.78 52.94 88.23 52.05C87.59 51 87.12 49.85 86.83 48.66C86.57 47.55 86.46 46.35 86.72 45.23C86.78 45 86.83 44.83 86.92 44.63C86.95 44.54 86.99 44.46 87.04 44.38C87.06 44.34 87.09 44.29 87.11 44.24C87.12 44.23 87.22 44.08 87.18 44.13C87.24 44.05 87.3 43.98 87.37 43.9C87.4 43.87 87.43 43.83 87.47 43.8C87.53 43.75 87.64 43.66 87.7 43.62C87.74 43.59 87.78 43.57 87.82 43.55C88.17 43.41 88.56 43.35 88.92 43.42C89.33 43.5 89.65 43.64 90.03 43.88C90.98 44.46 91.76 45.41 92.35 46.37C93.08 47.55 93.58 48.86 93.85 50.22C93.9 50.47 94.24 50.6 94.47 50.52C94.74 50.43 94.83 50.17 94.77 49.91C94.51 48.57 94.01 47.27 93.32 46.09C92.72 45.07 91.95 44.08 90.99 43.36C90.2 42.77 89.19 42.28 88.16 42.44C87.18 42.59 86.44 43.29 86.05 44.18C85.55 45.33 85.52 46.66 85.7 47.89C85.9 49.27 86.35 50.6 87 51.84C87.57 52.93 88.32 53.98 89.26 54.79C90.04 55.46 91.02 56.01 92.08 56.01C93.07 56 93.89 55.41 94.36 54.58C94.95 53.54 95.05 52.25 94.95 51.09C94.92 50.74 94.86 50.38 94.8 50.03C94.75 49.78 94.57 49.56 94.28 49.58C94.05 49.59 93.78 49.83 93.83 50.09Z" fill="#101010" fill-opacity="1.000000" fill-rule="nonzero"/>
		</g>
	</g>
	<g mask="url(#mask1_36659)">
		<g style="mix-blend-mode:normal">
			<path id="Path 35501" d="M61.95 37.85C62.75 41.01 63.56 44.17 64.37 47.33C64.6 48.23 64.83 49.14 65.06 50.05C65.22 50.66 66.14 50.35 65.99 49.74C65.18 46.58 64.37 43.42 63.57 40.26C63.33 39.35 63.1 38.45 62.87 37.54C62.72 36.93 61.79 37.24 61.95 37.85Z" fill="#101010" fill-opacity="1.000000" fill-rule="nonzero"/>
		</g>
	</g>
	<g mask="url(#mask1_36659)">
		<g style="mix-blend-mode:normal">
			<path id="Path 35502" d="M74.98 40.4C75.79 43.56 76.6 46.72 77.4 49.88C77.64 50.79 77.87 51.7 78.1 52.6C78.25 53.21 79.18 52.9 79.02 52.3C78.22 49.14 77.41 45.98 76.6 42.82C76.37 41.91 76.14 41 75.91 40.09C75.75 39.49 74.83 39.79 74.98 40.4Z" fill="#101010" fill-opacity="1.000000" fill-rule="nonzero"/>
		</g>
	</g>
	<g mask="url(#mask1_36659)">
		<g style="mix-blend-mode:normal">
			<path id="Path 35503" d="M88.1 43.18C88.91 46.34 89.72 49.5 90.53 52.66C90.76 53.57 90.99 54.47 91.22 55.38C91.37 55.99 92.3 55.68 92.14 55.08C91.34 51.91 90.53 48.75 89.72 45.59C89.49 44.69 89.26 43.78 89.03 42.87C88.87 42.26 87.95 42.57 88.1 43.18Z" fill="#101010" fill-opacity="1.000000" fill-rule="nonzero"/>
		</g>
	</g>
	<g mask="url(#mask1_36659)">
		<g style="mix-blend-mode:normal">
			<path id="Path 35504" d="M113.56 152.53L111.19 163.67L95.88 166.28C95.79 165.83 95.76 165.36 95.78 164.91C95.84 163.86 96.17 162.77 96.96 162.07C97.68 161.44 98.69 161.21 99.66 161.24C100.62 161.27 101.56 161.53 102.5 161.75C102.59 161.77 102.69 161.79 102.78 161.76C102.88 161.72 102.94 161.61 102.99 161.52C103.45 160.6 103.74 159.6 104.36 158.78C104.98 157.97 106.09 157.39 107.02 157.81C107.27 157.92 107.55 158.09 107.77 157.94C107.91 157.84 107.95 157.66 107.99 157.5C108.43 155.51 109.81 153.71 111.69 152.93C112.28 152.69 112.92 152.56 113.56 152.53Z" fill="#D6EADF" fill-opacity="1.000000" fill-rule="nonzero"/>
		</g>
	</g>
	<g mask="url(#mask1_36659)">
		<g style="mix-blend-mode:normal">
			<path id="Path 35505" d="M113.08 152.43L112.28 156.2L111.01 162.19L110.72 163.57L111.16 163.19C109.43 163.48 107.69 163.78 105.95 164.07C103.21 164.54 100.47 165.01 97.72 165.47C97.1 165.58 96.47 165.69 95.85 165.79L96.36 166.25C96.07 164.71 96.36 162.65 98.01 161.99C98.81 161.67 99.69 161.68 100.53 161.82C101.02 161.89 101.51 162.01 101.99 162.13C102.47 162.24 102.98 162.39 103.32 161.91C103.57 161.54 103.72 161.09 103.89 160.69C104.07 160.27 104.25 159.86 104.48 159.46C104.85 158.85 105.44 158.25 106.19 158.17C106.57 158.13 106.83 158.28 107.18 158.4C107.64 158.57 108.14 158.44 108.35 157.97C108.51 157.61 108.55 157.2 108.69 156.83C108.83 156.46 109 156.1 109.2 155.75C110.13 154.18 111.74 153.1 113.59 153.02C114.21 153 114.16 152.02 113.53 152.05C111.74 152.12 110.09 153.02 108.96 154.41C108.41 155.09 108 155.85 107.72 156.68C107.65 156.87 107.6 157.06 107.55 157.25C107.54 157.3 107.46 157.5 107.48 157.54C107.45 157.51 107.38 157.44 107.34 157.42C107.25 157.38 107.15 157.34 107.05 157.3C106.83 157.23 106.61 157.19 106.38 157.19C105.51 157.17 104.67 157.67 104.11 158.31C103.49 159.03 103.17 159.94 102.79 160.79C102.74 160.89 102.7 161 102.65 161.1C102.63 161.14 102.51 161.31 102.52 161.35C102.38 161.32 102.19 161.18 102.06 161.14C101.54 161.02 101.03 160.9 100.5 160.83C99.59 160.71 98.64 160.71 97.77 161.04C96.82 161.4 96.08 162.12 95.69 163.06C95.28 164.08 95.19 165.23 95.39 166.31C95.43 166.54 95.62 166.81 95.9 166.76C97.64 166.47 99.38 166.17 101.11 165.88C103.86 165.41 106.6 164.94 109.34 164.48C109.97 164.37 110.59 164.26 111.22 164.16C111.44 164.12 111.62 164 111.67 163.77L112.47 160L113.74 154.02L114.03 152.64C114.16 152.02 113.21 151.82 113.08 152.43Z" fill="#101010" fill-opacity="1.000000" fill-rule="nonzero"/>
		</g>
	</g>
	<g mask="url(#mask1_36659)">
		<g style="mix-blend-mode:normal">
			<path id="Path 35506" d="M109.43 132.65C108.11 132.28 106.26 132.47 105.32 132.69C103.36 133.16 101.42 133.82 99.82 135.04C99.38 135.37 98.96 135.77 98.73 136.27C98.5 136.77 98.5 137.41 98.84 137.85C99.1 138.17 99.52 138.34 99.92 138.47C102.97 139.44 106.45 138.92 109.09 137.11C110.56 136.11 112.07 133.39 109.43 132.65Z" fill="#6ACEB6" fill-opacity="1.000000" fill-rule="nonzero"/>
		</g>
	</g>
	<g mask="url(#mask1_36659)">
		<g style="mix-blend-mode:normal">
			<path id="Path 35507" d="M109.53 132.17C108.41 131.87 107.18 131.91 106.04 132.07C104.91 132.23 103.78 132.56 102.71 132.96C101.52 133.39 100.35 133.97 99.37 134.78C98.91 135.16 98.47 135.6 98.25 136.17C98.03 136.75 98.02 137.39 98.32 137.94C98.65 138.52 99.28 138.78 99.89 138.97C100.44 139.14 101 139.26 101.57 139.33C102.75 139.49 103.94 139.47 105.1 139.25C106.27 139.03 107.39 138.64 108.44 138.08C109.22 137.66 109.95 137.15 110.49 136.43C110.99 135.77 111.43 134.92 111.35 134.06C111.26 133.04 110.45 132.44 109.53 132.17C109.28 132.1 109 132.31 108.95 132.55C108.89 132.82 109.07 133.05 109.33 133.13C109.67 133.22 109.93 133.35 110.16 133.6C110.18 133.63 110.26 133.74 110.28 133.77C110.31 133.83 110.33 133.9 110.35 133.96C110.36 134 110.38 134.08 110.38 134.12C110.39 134.18 110.39 134.25 110.39 134.32C110.38 134.36 110.38 134.4 110.37 134.45C110.35 134.58 110.3 134.79 110.27 134.86C110.2 135.08 110.01 135.43 109.84 135.68C109.81 135.72 109.77 135.78 109.74 135.82C109.69 135.88 109.65 135.93 109.6 135.99C109.49 136.12 109.38 136.24 109.26 136.36C109.11 136.5 109.12 136.49 108.97 136.6C108.79 136.74 108.6 136.86 108.41 136.98C107.54 137.51 106.59 137.9 105.6 138.15C104.6 138.41 103.56 138.5 102.52 138.45C102.03 138.43 101.54 138.36 101.06 138.26C100.55 138.16 100.01 138.04 99.55 137.8C99.18 137.6 99.01 137.26 99.07 136.84C99.14 136.35 99.49 135.96 99.85 135.64C100.65 134.94 101.64 134.42 102.63 134.03C103.69 133.6 104.87 133.23 105.97 133.06C107.07 132.89 108.24 132.83 109.33 133.13C109.93 133.29 110.13 132.34 109.53 132.17Z" fill="#101010" fill-opacity="1.000000" fill-rule="nonzero"/>
		</g>
	</g>
	<g mask="url(#mask1_36659)">
		<g style="mix-blend-mode:normal">
			<path id="Path 35508" d="M107.51 113.12C107.65 112.24 107.43 111.22 106.98 110.31C105 106.29 103.99 104.29 101.91 103.86C101.74 103.82 99.8 103.45 98.68 104.58C97.36 105.91 98.12 108.4 98.49 109.59C98.74 110.42 99.63 112.83 102 114.33C102.93 114.92 104.03 115.32 105.13 115.21C106.63 115.05 107.34 114.19 107.51 113.12Z" fill="#6ACEB6" fill-opacity="1.000000" fill-rule="nonzero"/>
		</g>
	</g>
	<g mask="url(#mask1_36659)">
		<g style="mix-blend-mode:normal">
			<path id="Path 35509" d="M107.99 113.22C108.1 112.47 108.01 111.73 107.79 111.01C107.55 110.25 107.14 109.53 106.78 108.82C106.21 107.68 105.64 106.53 104.91 105.5C104.38 104.76 103.73 104.06 102.89 103.67C102.23 103.37 101.5 103.26 100.78 103.29C99.59 103.33 98.41 103.83 97.84 104.93C97.24 106.08 97.43 107.48 97.73 108.69C98.2 110.61 99.05 112.41 100.51 113.78C101.61 114.83 103.05 115.63 104.59 115.71C105.85 115.77 107.21 115.23 107.75 114.02C107.86 113.76 107.94 113.49 107.99 113.22C108.09 112.6 107.14 112.4 107.04 113.01C106.96 113.46 106.82 113.82 106.5 114.14C106.17 114.47 105.66 114.65 105.18 114.71C103.84 114.88 102.53 114.22 101.52 113.38C100.71 112.71 100.07 111.87 99.57 110.95C99.27 110.39 99.03 109.72 98.83 109.05C98.54 108.07 98.28 106.99 98.49 105.97C98.59 105.49 98.83 105.03 99.23 104.74C99.58 104.49 100.02 104.34 100.41 104.29C100.62 104.27 100.82 104.26 101.03 104.26C101.12 104.26 101.21 104.26 101.3 104.27C101.35 104.27 101.43 104.28 101.47 104.28C101.72 104.31 101.96 104.36 102.2 104.44C102.24 104.45 102.32 104.48 102.36 104.5C102.44 104.54 102.52 104.57 102.6 104.61C102.66 104.65 102.73 104.68 102.79 104.72C102.83 104.75 102.87 104.77 102.9 104.79C103.05 104.91 103.27 105.08 103.4 105.21C103.55 105.35 103.7 105.52 103.79 105.64C104.55 106.57 105.11 107.67 105.66 108.75C106.03 109.46 106.43 110.18 106.72 110.93C106.98 111.58 107.14 112.31 107.04 113.01C107 113.27 107.14 113.53 107.41 113.59C107.66 113.64 107.95 113.48 107.99 113.22Z" fill="#101010" fill-opacity="1.000000" fill-rule="nonzero"/>
		</g>
	</g>
	<g mask="url(#mask1_36659)">
		<g style="mix-blend-mode:normal">
			<path id="Path 35510" d="M122.89 74.66C123.25 72.8 122.72 71.29 122.23 69.93C121.69 68.45 120.87 66.19 119.33 65.83C119.13 65.78 118.36 65.6 117.74 66C117.41 66.21 117.24 66.5 117.18 66.64C116.15 68.82 116.27 71.4 116.98 73.7C117.36 74.91 118.25 77.14 119.95 77.46C120.05 77.48 120.78 77.6 121.48 77.22C122.51 76.65 122.75 75.4 122.89 74.66Z" fill="#6ACEB6" fill-opacity="1.000000" fill-rule="nonzero"/>
		</g>
	</g>
	<g mask="url(#mask1_36659)">
		<g style="mix-blend-mode:normal">
			<path id="Path 35511" d="M123.37 74.76C123.77 72.56 123.01 70.37 122.14 68.37C121.74 67.44 121.24 66.43 120.4 65.82C119.7 65.3 118.68 65.07 117.84 65.4C117.33 65.61 116.94 66 116.71 66.49C116.43 67.09 116.23 67.72 116.11 68.36C115.87 69.59 115.89 70.86 116.1 72.08C116.28 73.11 116.55 74.13 116.98 75.08C117.38 75.97 117.9 76.86 118.72 77.44C119.63 78.08 120.84 78.17 121.81 77.59C122.81 76.99 123.16 75.84 123.37 74.76C123.48 74.15 122.53 73.95 122.42 74.56C122.28 75.29 122.11 76.11 121.51 76.61C121.17 76.9 120.73 77.01 120.29 77.01C120.4 77.01 120.18 77 120.16 77C120.13 76.99 120.09 76.99 120.05 76.98C119.85 76.95 119.71 76.9 119.53 76.8C118.83 76.44 118.36 75.7 118.01 75C117.64 74.26 117.39 73.45 117.2 72.65C116.95 71.59 116.84 70.47 116.94 69.39C117 68.84 117.1 68.29 117.26 67.76C117.38 67.35 117.54 66.86 117.81 66.57C118.07 66.29 118.51 66.21 118.81 66.23C119.13 66.26 119.39 66.33 119.65 66.48C120.32 66.87 120.77 67.69 121.09 68.39C121.51 69.29 121.86 70.25 122.15 71.2C122.48 72.3 122.63 73.42 122.42 74.56C122.3 75.18 123.25 75.38 123.37 74.76Z" fill="#101010" fill-opacity="1.000000" fill-rule="nonzero"/>
		</g>
	</g>
	<g mask="url(#mask1_36659)">
		<g style="mix-blend-mode:normal">
			<path id="Path 35512" d="M64.59 113.52C64.91 112.05 63.97 110.6 62.49 110.29C61.02 109.97 59.57 110.91 59.26 112.39C58.95 113.86 59.89 115.31 61.36 115.62C62.83 115.93 64.28 114.99 64.59 113.52Z" fill="#6ACEB6" fill-opacity="1.000000" fill-rule="nonzero"/>
		</g>
	</g>
	<g mask="url(#mask1_36659)">
		<g style="mix-blend-mode:normal">
			<path id="Path 35513" d="M65.07 113.62C65.33 112.29 64.76 110.96 63.63 110.23C62.52 109.51 60.98 109.6 59.95 110.43C58.89 111.27 58.44 112.7 58.89 113.99C59.33 115.28 60.54 116.13 61.89 116.16C63.41 116.2 64.74 115.08 65.07 113.62C65.21 113.01 64.26 112.81 64.12 113.42C63.92 114.32 63.18 115.04 62.25 115.17C61.3 115.3 60.36 114.81 59.92 113.95C59.5 113.12 59.66 112.1 60.29 111.42C60.92 110.76 61.94 110.52 62.78 110.88C63.78 111.31 64.33 112.36 64.12 113.42C64 114.03 64.95 114.24 65.07 113.62Z" fill="#101010" fill-opacity="1.000000" fill-rule="nonzero"/>
		</g>
	</g>
	<g mask="url(#mask1_36659)">
		<g style="mix-blend-mode:normal">
			<path id="Path 35514" d="M46.12 109.59C46.43 108.12 45.49 106.67 44.02 106.36C42.55 106.05 41.1 106.99 40.79 108.46C40.48 109.93 41.42 111.38 42.89 111.69C44.36 112.01 45.81 111.07 46.12 109.59Z" fill="#6ACEB6" fill-opacity="1.000000" fill-rule="nonzero"/>
		</g>
	</g>
	<g mask="url(#mask1_36659)">
		<g style="mix-blend-mode:normal">
			<path id="Path 35515" d="M46.6 109.69C46.86 108.37 46.29 107.04 45.16 106.31C44.05 105.59 42.51 105.68 41.48 106.5C40.42 107.35 39.97 108.78 40.42 110.07C40.86 111.35 42.07 112.2 43.42 112.24C44.94 112.28 46.27 111.16 46.6 109.69C46.74 109.08 45.78 108.88 45.65 109.49C45.44 110.39 44.71 111.12 43.78 111.24C42.83 111.38 41.88 110.89 41.45 110.03C41.03 109.2 41.19 108.17 41.82 107.5C42.44 106.83 43.46 106.59 44.31 106.95C45.3 107.38 45.86 108.43 45.65 109.49C45.52 110.11 46.47 110.31 46.6 109.69Z" fill="#101010" fill-opacity="1.000000" fill-rule="nonzero"/>
		</g>
	</g>
	<g mask="url(#mask1_36659)">
		<g style="mix-blend-mode:normal">
			<path id="Path 35516" d="M27.65 105.67C27.96 104.2 27.02 102.75 25.55 102.43C24.08 102.12 22.63 103.06 22.32 104.53C22.01 106.01 22.95 107.45 24.42 107.77C25.89 108.08 27.34 107.14 27.65 105.67Z" fill="#6ACEB6" fill-opacity="1.000000" fill-rule="nonzero"/>
		</g>
	</g>
	<g mask="url(#mask1_36659)">
		<g style="mix-blend-mode:normal">
			<path id="Path 35517" d="M28.13 105.77C28.39 104.44 27.82 103.11 26.69 102.38C25.58 101.66 24.04 101.75 23 102.57C21.95 103.42 21.5 104.85 21.95 106.14C22.39 107.42 23.6 108.28 24.95 108.31C26.47 108.35 27.8 107.23 28.13 105.77C28.26 105.16 27.31 104.95 27.17 105.57C26.97 106.46 26.24 107.19 25.31 107.32C24.36 107.45 23.41 106.96 22.98 106.1C22.56 105.27 22.72 104.24 23.35 103.57C23.97 102.9 24.99 102.67 25.84 103.03C26.83 103.45 27.39 104.5 27.17 105.57C27.05 106.18 28 106.38 28.13 105.77Z" fill="#101010" fill-opacity="1.000000" fill-rule="nonzero"/>
		</g>
	</g>
	<g mask="url(#mask1_36659)">
		<g style="mix-blend-mode:normal">
			<rect id="Rectangle 3820" x="39.051758" y="131.867188" width="4.309832" height="13.182126" transform="rotate(12 39.051758 131.867188)" fill="#B34E54" fill-opacity="1.000000"/>
		</g>
	</g>
	<g mask="url(#mask1_36659)">
		<g style="mix-blend-mode:normal">
			<path id="Path 35518" d="M40.62 145.18L36.94 144.39L36.41 144.28L36.78 144.86L37.71 140.49L39.19 133.54L39.52 131.96C39.33 132.09 39.14 132.21 38.95 132.34L42.63 133.12L43.16 133.23C43.04 133.04 42.91 132.85 42.79 132.66L41.86 137.02L40.38 143.97L40.05 145.55C39.92 146.16 40.87 146.37 41 145.75L41.93 141.39L43.4 134.44L43.74 132.86C43.79 132.6 43.62 132.34 43.36 132.28L39.68 131.5L39.15 131.39C38.89 131.33 38.63 131.5 38.57 131.76L37.64 136.13L36.17 143.08L35.83 144.66C35.78 144.91 35.95 145.18 36.21 145.23L39.89 146.02L40.42 146.13C41.03 146.26 41.24 145.31 40.62 145.18Z" fill="#101010" fill-opacity="1.000000" fill-rule="nonzero"/>
		</g>
	</g>
	<g mask="url(#mask1_36659)">
		<g style="mix-blend-mode:normal">
			<rect id="Rectangle 3821" x="49.569580" y="134.102539" width="4.309832" height="13.182126" transform="rotate(12 49.569580 134.102539)" fill="#B34E54" fill-opacity="1.000000"/>
		</g>
	</g>
	<g mask="url(#mask1_36659)">
		<g style="mix-blend-mode:normal">
			<path id="Path 35519" d="M51.14 147.41L47.46 146.63L46.92 146.52L47.3 147.09L48.23 142.73L49.7 135.78L50.04 134.2C49.85 134.32 49.66 134.45 49.46 134.57L53.15 135.36L53.68 135.47C53.55 135.28 53.43 135.09 53.3 134.89L52.38 139.26L50.9 146.21L50.56 147.79C50.43 148.4 51.38 148.6 51.52 147.99L52.44 143.62L53.92 136.67L54.26 135.1C54.31 134.84 54.14 134.57 53.88 134.52L50.2 133.74L49.67 133.62C49.41 133.57 49.14 133.74 49.09 134L48.16 138.36L46.68 145.31L46.35 146.89C46.29 147.15 46.47 147.41 46.72 147.47L50.41 148.25L50.94 148.36C51.55 148.49 51.75 147.54 51.14 147.41Z" fill="#101010" fill-opacity="1.000000" fill-rule="nonzero"/>
		</g>
	</g>
	<g mask="url(#mask1_36659)">
		<g style="mix-blend-mode:normal">
			<path id="Path 35520" d="M51.58 14.33C53.32 13.03 55.19 11.71 57.18 10.38C59.17 9.06 61.11 7.85 62.99 6.75C60.98 10.35 58.97 13.96 56.97 17.56C61.75 19.25 66.54 20.94 71.32 22.63C66.34 22.96 61.35 23.28 56.37 23.6C57.17 28.07 57.82 32.56 58.3 37.08C55.85 33.38 53.4 29.69 50.94 26C48.86 29.15 46.77 32.31 44.69 35.47C45.55 31.99 46.42 28.52 47.28 25.04C42.78 24 38.28 22.96 33.78 21.93C38.32 20.91 42.87 19.9 47.41 18.89C44.88 15.13 42.34 11.38 39.81 7.63C43.73 9.86 47.66 12.1 51.58 14.33Z" fill="#D6EADF" fill-opacity="1.000000" fill-rule="nonzero"/>
		</g>
	</g>
	<g mask="url(#mask1_36659)">
		<g style="mix-blend-mode:normal">
			<path id="Path 35521" d="M51.85 14.74C54.71 12.6 57.67 10.58 60.71 8.7C61.55 8.18 62.4 7.66 63.25 7.16C63.02 6.95 62.79 6.74 62.56 6.53C60.55 10.13 58.54 13.73 56.53 17.33C56.36 17.64 56.58 17.93 56.87 18.03C60.58 19.35 64.3 20.66 68.02 21.98C69.09 22.35 70.15 22.73 71.22 23.11C71.24 22.79 71.27 22.47 71.29 22.15L59.62 22.9C58.52 22.98 57.43 23.05 56.34 23.12C56.1 23.13 55.83 23.37 55.88 23.63C56.51 27.11 57.04 30.6 57.47 34.1C57.6 35.1 57.71 36.1 57.82 37.1C58.12 37.01 58.41 36.91 58.71 36.81C56.8 33.94 54.9 31.07 52.99 28.2L51.35 25.73C51.13 25.4 50.71 25.47 50.51 25.77C48.43 28.93 46.34 32.09 44.26 35.24C44.56 35.35 44.86 35.46 45.17 35.57C46.03 32.09 46.89 28.62 47.75 25.14C47.82 24.88 47.63 24.62 47.38 24.56C43.87 23.76 40.36 22.95 36.85 22.14C35.86 21.91 34.87 21.68 33.88 21.45C33.9 21.76 33.91 22.08 33.93 22.39C37.46 21.6 41 20.81 44.53 20.02C45.54 19.8 46.55 19.57 47.56 19.35C47.87 19.28 47.98 18.86 47.82 18.62C45.84 15.7 43.87 12.78 41.9 9.86C41.34 9.03 40.78 8.2 40.22 7.37C40.01 7.6 39.79 7.83 39.58 8.06C42.64 9.8 45.7 11.54 48.75 13.28C49.62 13.77 50.49 14.27 51.36 14.76C51.9 15.07 52.35 14.21 51.81 13.9C48.75 12.16 45.69 10.42 42.64 8.68L40.03 7.2C39.61 6.96 39.13 7.5 39.4 7.89C41.37 10.82 43.35 13.74 45.32 16.66L47 19.15C47.09 18.91 47.17 18.66 47.26 18.42C43.72 19.21 40.19 20 36.65 20.79C35.64 21.01 34.63 21.24 33.62 21.46C33.13 21.57 33.24 22.3 33.68 22.4C37.18 23.21 40.69 24.02 44.2 24.83C45.19 25.06 46.19 25.29 47.18 25.52C47.05 25.32 46.93 25.13 46.8 24.94C45.94 28.41 45.08 31.89 44.22 35.37C44.16 35.6 44.31 35.84 44.53 35.92C44.77 36 44.99 35.9 45.12 35.69C47.21 32.53 49.29 29.38 51.37 26.22C51.09 26.23 50.81 26.25 50.53 26.26C52.44 29.13 54.35 32 56.26 34.87C56.8 35.7 57.35 36.52 57.9 37.34C58.16 37.73 58.84 37.54 58.79 37.05C58.41 33.54 57.94 30.04 57.37 26.56C57.2 25.56 57.03 24.57 56.85 23.57C56.7 23.75 56.55 23.92 56.4 24.09C60.29 23.84 64.18 23.58 68.07 23.33C69.16 23.26 70.26 23.19 71.35 23.12C71.59 23.1 71.79 22.91 71.8 22.67C71.82 22.41 71.66 22.24 71.42 22.16C67.7 20.84 63.99 19.53 60.27 18.21C59.2 17.83 58.13 17.46 57.07 17.08C57.18 17.31 57.29 17.55 57.4 17.78C59.41 14.18 61.41 10.58 63.42 6.98C63.67 6.53 63.12 6.11 62.72 6.35C59.64 8.16 56.64 10.1 53.72 12.17C52.91 12.75 52.11 13.33 51.32 13.92C51.11 14.08 51.02 14.36 51.17 14.59C51.31 14.8 51.64 14.89 51.85 14.74Z" fill="#101010" fill-opacity="1.000000" fill-rule="nonzero"/>
		</g>
	</g>
</svg>
