<svg width="159.706055" height="161.375000" viewBox="0 0 159.706 161.375" fill="none" xmlns="http://www.w3.org/2000/svg" xmlns:xlink="http://www.w3.org/1999/xlink">
	<desc>
			Created with Pixso.
	</desc>
	<defs/>
	<mask id="mask1_36043" mask-type="alpha" maskUnits="userSpaceOnUse" x="0.000000" y="0.000000" width="159.706055" height="161.375000">
		<g style="mix-blend-mode:normal">
			<rect id="Rectangle 3830" width="159.706299" height="161.375000" fill="#C4C4C4" fill-opacity="1.000000"/>
		</g>
	</mask>
	<g mask="url(#mask1_36043)">
		<g style="mix-blend-mode:normal">
			<path id="Path 35771" d="M141.02 44.65C141.06 45.19 141.05 45.76 140.98 46.47C140.87 47.14 140.72 47.81 140.56 48.47C140.41 49.09 140.17 49.69 139.89 50.41C139.61 51.03 139.31 51.65 138.97 52.24C138.59 52.9 138.18 53.53 137.74 54.16C136.62 55.52 135.6 56.55 134.49 57.45C134.04 57.78 133.54 58.15 132.98 58.44C132.41 58.75 131.83 59.01 131.23 59.27C130 59.76 128.63 60.15 127.05 60.48C125.74 60.77 124.41 61.02 122.99 61.24C120.96 61.51 118.96 61.66 117.64 61.76C116.43 61.86 115.13 61.91 113.69 61.91C113.15 61.91 112.61 61.9 112.07 61.89C111.18 61.87 110.29 61.84 109.41 61.77L108.71 61.73C108.01 61.67 107.3 61.62 106.59 61.58L105.16 61.53L103.73 61.47C102.85 61.44 101.97 61.36 101.11 61.27L100.92 61.24C100.35 61.15 99.78 61.06 99.26 60.91C98.57 60.73 97.91 60.51 97.25 60.26C96.48 59.91 95.83 59.57 95.21 59.18C94.52 58.76 93.86 58.33 93.21 57.86C92.88 57.61 92.6 57.35 92.34 57.05C92.22 56.88 92.1 56.68 91.96 56.4C91.86 56.13 91.76 55.84 91.68 55.55L91.57 55.26C91.48 54.95 91.21 54.74 90.9 54.74L90.71 54.77C90.54 54.81 90.37 54.94 90.27 55.12C90.18 55.29 90.17 55.45 90.22 55.62L90.31 55.91C90.43 56.33 90.55 56.74 90.73 57.12C90.93 57.54 91.14 57.87 91.36 58.15C91.58 58.44 91.84 58.68 92.11 58.93C92.78 59.57 93.52 60.11 94.22 60.6C95.11 61.25 95.89 61.71 96.68 62.04C97.31 62.3 98.26 62.68 99.34 62.93L100.37 63.19C100.34 63.32 100.38 63.49 100.48 63.74L100.71 64.29L100.95 64.84C101.24 65.55 101.5 66.3 101.7 67.07L101.75 67.26C101.86 67.66 101.97 68.07 102.06 68.49L102.26 69.71C102.43 71.23 102.5 72.62 102.5 73.94C102.49 75.28 102.34 76.66 102.2 77.84C101.94 79.56 101.61 81.35 101.21 83.29C100.85 84.93 100.32 86.56 99.56 88.4C98.08 91.76 96.34 94.77 94.41 97.32L94.29 97.6L93.96 97.92C93.62 98.26 93.3 98.59 92.96 98.88L92.8 99C92.52 99.22 92.2 99.4 91.78 99.58C91.33 99.76 90.87 99.91 90.41 100.06L90.07 100.13C89.54 99.45 88.93 98.84 88.21 98.27C87.79 97.93 87.36 97.6 86.93 97.29C86.73 97.16 86.5 97.09 86.26 97.09C85.88 97.09 85.48 97.26 85.23 97.51C84.97 97.76 84.81 98.17 84.83 98.6C84.84 98.96 84.98 99.28 85.23 99.49C86.2 100.31 87.04 101.09 87.79 101.87C88.48 102.61 89.1 103.38 89.79 104.25L89.94 104.43C90.76 105.51 91.56 106.6 92.33 107.72C93.25 109.04 94.04 110.39 94.63 111.43C95.3 112.6 96.01 113.87 96.66 115.23C97.33 116.6 97.96 118 98.57 119.4C99.83 122.44 100.92 125.61 101.79 128.8C102.27 130.58 102.73 132.36 103.14 134.15C103.46 135.5 103.76 137.08 104.1 139.13C104.29 140.62 104.5 142.35 104.53 144.06C104.54 144.98 104.53 145.89 104.5 146.81C104.48 147.6 104.4 148.4 104.32 149.19L104.28 149.41C104.25 149.72 104.21 150.03 104.16 150.34C104.02 151.24 103.77 152.17 103.41 153.12C103.11 153.78 102.76 154.37 102.36 154.92C101.96 155.38 101.5 155.83 100.86 156.36C100.35 156.74 99.82 157.06 99.25 157.34C98.6 157.59 98.04 157.75 97.53 157.84C97.26 157.87 97 157.87 96.74 157.87C96.38 157.87 96.03 157.86 95.63 157.81C94.98 157.7 94.35 157.58 93.72 157.41C93.02 157.22 92.35 156.98 91.67 156.73C90.88 156.4 90.21 156.06 89.61 155.69C88.93 155.31 88.3 154.86 87.71 154.42C86.63 153.54 85.61 152.61 84.57 151.6C83.48 150.5 82.53 149.33 81.74 148.33C81.09 147.47 80.53 146.7 79.99 145.91C79.44 145.11 78.89 144.23 78.27 143.14C77.25 141.41 76.46 139.62 75.74 137.92C75.14 136.5 74.52 134.83 73.72 132.5L73.3 131.33C72.84 130.03 72.39 128.73 71.97 127.42C71.3 125.23 70.73 123.09 70.36 121.68C69.81 119.69 69.44 117.91 69.2 116.25L69.13 116.01C68.68 111.99 68.66 108.43 69.07 105.12C69.19 104.4 69.33 103.73 69.5 103.06C69.72 102.26 69.99 101.47 70.28 100.68C70.37 100.46 70.35 100.19 70.23 99.94C70.07 99.66 69.8 99.43 69.52 99.35C69.42 99.32 69.32 99.31 69.23 99.31C68.77 99.31 68.36 99.63 68.18 100.12C67.86 101 67.56 101.91 67.28 102.89C67.11 103.56 66.97 104.33 66.85 105.23L66.8 105.56C66.49 107.43 66.44 109.28 66.4 111.11L66.4 111.31C66.38 112.66 66.42 114.16 66.54 116.17L66.31 116.15C65.51 116.33 64.69 116.46 63.77 116.6L63.43 116.62L63.24 116.7L61.58 116.89L60.03 117.1C59.11 117.21 58.19 117.29 57.26 117.34C56.8 117.36 56.34 117.37 55.87 117.37C55.3 117.37 54.73 117.36 54.16 117.35L53.88 117.34C51.34 117.29 49.25 117.15 47.28 116.91C45.81 116.69 44.55 116.46 43.44 116.2C42.68 116.01 41.95 115.81 41.21 115.56C40.64 115.37 40.08 115.15 39.53 114.92L39.35 114.84C38.92 114.64 38.39 114.39 37.88 114.12C37.28 113.8 36.71 113.46 36.13 113.1L35.88 112.94C34.81 112.29 33.86 111.7 32.97 111.04C32.49 110.65 32.03 110.25 31.57 109.82C31.27 109.52 30.99 109.19 30.57 108.71L30.32 108.43C30.1 108.16 29.87 108.04 29.57 108.04C29.29 108.04 29.03 108.15 28.84 108.34C28.47 108.72 28.47 109.29 28.84 109.74C29.99 111.08 31.27 112.48 32.82 113.61C33.58 114.16 34.33 114.7 35.09 115.23C35.92 115.8 36.7 116.28 37.46 116.7C38.56 117.29 39.82 117.86 41.33 118.46L41.2 118.69L41.03 119.16L40.86 119.62C40.5 120.41 40.05 121.15 39.45 121.98C39 122.52 38.53 123.06 38.06 123.59L37.86 123.81L37.68 124.03C37.13 124.64 36.58 125.25 36.07 125.89C35.43 126.69 34.83 127.51 34.25 128.35C33.81 128.99 33.42 129.67 33.04 130.35L32.82 130.74C31.94 132.34 31.18 134.08 30.51 136.07C30.16 137.13 29.89 138.25 29.6 139.44L29.55 139.66L29.42 140.23L29.18 141.22C28.91 142.3 28.61 143.37 28.32 144.44L27.88 146.05C27.47 147.61 26.99 149.06 26.41 150.5C26.19 150.96 25.96 151.43 25.7 151.87C25.41 152.35 25.1 152.8 24.78 153.26C24.36 153.77 23.93 154.28 23.47 154.77C22.98 155.27 22.43 155.72 21.95 156.1C21.37 156.5 20.56 157.05 19.68 157.44C19.09 157.67 18.5 157.85 17.89 158C17.45 158.13 16.98 158.18 16.49 158.24C15.97 158.28 15.47 158.3 14.97 158.3C14.51 158.3 14.06 158.28 13.58 158.22C12.91 158.1 12.3 157.94 11.73 157.71C11.06 157.41 10.43 157.03 9.8 156.57C9.34 156.18 8.85 155.69 8.16 154.94C7.9 154.6 7.66 154.25 7.46 153.87C7.19 153.4 6.96 152.91 6.74 152.42C6.32 151.42 5.95 150.36 5.63 149.27C5.31 148.14 5.12 147.02 4.99 146.07C4.78 144.31 4.6 142.57 4.65 140.75C4.69 138.83 4.83 136.87 5.06 134.95L5.14 134.38C5.31 133.05 5.57 131.04 6.01 129.12C6.3 127.89 6.59 126.81 6.9 125.8C7.2 124.88 7.55 123.97 7.91 123.07C9.14 120.23 10.28 117.96 11.51 115.93C12.2 114.78 12.91 113.65 13.67 112.55L14.07 111.96C14.67 111.08 15.27 110.2 15.9 109.36L16.05 109.16C16.22 108.98 16.32 108.85 16.4 108.72L16.79 108.21L17.08 107.85C17.97 106.72 18.82 105.66 19.7 104.68C20.78 103.47 21.86 102.3 23.1 101.29C23.51 101 23.91 100.73 24.33 100.45C24.77 100.16 25.03 99.64 24.98 99.1C25.41 98.35 25.14 97.39 24.38 96.92C23.5 96.37 22.67 95.82 21.85 95.21C21.07 94.6 20.51 94.1 20.07 93.64C19.42 92.97 18.84 92.31 18.24 91.56C16.98 89.9 15.73 88.05 14.53 86.09C13.06 83.65 12.05 81.21 11.71 80.16L11.54 80.36L11.45 79.91C10.86 78.4 10.37 77.14 9.96 75.82C9.47 74.27 9.11 72.72 8.88 71.2C8.68 69.34 8.69 67.52 8.9 65.79C9.08 64.76 9.27 63.96 9.5 63.27C9.62 62.9 9.75 62.54 9.88 62.19C10.05 61.72 10.22 61.26 10.38 60.73C10.51 60.27 10.63 59.84 10.66 59.39C10.68 59.12 10.71 58.72 10.63 58.34C10.55 57.99 10.41 57.6 10.2 57.14C9.93 56.54 9.58 55.96 9.25 55.4L8.99 54.99C8.18 53.62 7.33 52.27 6.48 50.93L6.19 50.46C5.29 49.02 4.37 47.43 3.46 45.74C3.04 44.96 2.62 44.1 2.15 43.02C1.9 42.32 1.64 41.57 1.5 40.81C1.47 40.57 1.47 40.38 1.59 40.1C1.68 40.15 1.79 40.22 2.02 40.38C2.48 40.78 2.91 41.23 3.34 41.74C4.3 43.05 5.06 44.43 6.05 46.39L6.21 46.69C6.97 48.18 7.76 49.73 8.61 51.2C9.08 52.02 9.6 52.78 10.16 53.47C10.72 54.18 11.48 55.07 12.44 55.75C13.13 56.24 14.02 56.63 15.07 56.91C15.33 57 15.6 57.04 15.94 57.09L16.26 57.16C16.65 57.23 17.02 57.33 17.5 57.45C18.33 57.69 19.09 57.94 19.82 58.22C20.45 58.52 20.96 58.79 21.43 59.09C21.87 59.37 22.3 59.67 22.73 59.99C23.8 60.86 24.85 61.79 25.93 62.82C26.84 63.71 27.61 64.62 28.59 65.81C28.99 66.32 29.37 66.85 29.74 67.4C30.15 68.01 30.51 68.63 30.88 69.26C31.14 69.7 31.36 70.16 31.68 70.81L31.79 71.03C32.2 71.88 32.52 72.58 32.83 73.3C33.39 74.7 33.76 75.84 34.02 76.89C34.13 77.34 34.23 77.8 34.33 78.25L34.49 78.94C34.62 79.55 34.71 80.17 34.79 80.8L34.81 81.03C34.85 81.42 34.88 81.8 34.9 82.18C34.93 82.75 34.93 83.31 34.93 83.88C34.94 84.68 34.86 85.53 34.8 86.27L34.75 86.69C34.64 87.44 34.51 88.19 34.31 88.93C34.14 89.61 33.89 90.22 33.51 91.15C33.35 91.53 33.19 91.88 33 92.23C32.73 92.71 32.44 93.16 32.12 93.63C31.87 93.96 31.59 94.28 31.32 94.6L31.08 94.89L30.88 95.11C30.6 95.44 30.6 95.89 30.89 96.16C31.01 96.3 31.21 96.38 31.43 96.38C31.63 96.38 31.83 96.29 31.97 96.13C32.57 95.45 33.25 94.69 33.81 93.86C34.36 93.08 34.8 92.21 35.16 91.46C35.35 91.05 35.55 90.63 35.71 90.2L35.84 89.94L36.04 89.95C36.98 89.66 37.9 89.34 38.83 89.01C39.71 88.7 40.65 88.43 41.62 88.2C43.54 87.76 45.58 87.47 47.22 87.24C51.01 86.78 55.03 86.61 57.71 86.5L57.93 86.49C59.46 86.42 60.97 86.37 62.48 86.37C62.84 86.37 63.19 86.37 63.55 86.38C65.46 86.42 67.17 86.48 68.83 86.68L69.03 86.71C70.07 86.87 71.08 87.1 72.04 87.43L72.12 87.69C72.4 88.56 72.74 89.41 73.07 90.21C73.42 91.01 73.71 91.68 74.17 92.52C74.3 92.75 74.43 92.99 74.59 93.22C74.89 93.63 75.21 94.02 75.56 94.39C75.72 94.55 75.96 94.64 76.2 94.64C76.37 94.64 76.54 94.6 76.67 94.54C76.87 94.41 77.04 94.16 77.09 93.91C77.14 93.66 77.1 93.46 76.98 93.29C76.52 92.63 76.14 91.96 75.83 91.25C75.21 89.77 74.68 88.23 74.25 86.68C73.77 85 73.49 83.29 73.26 81.68C73.17 80.9 73.08 80.11 73.04 79.32C73 78.39 72.99 77.47 73.01 76.53C73.04 74.89 73.16 73.16 73.36 71.41C73.73 69.08 74.15 67.09 74.65 65.34C74.96 64.25 75.28 63.16 75.64 62.08C75.96 61.12 76.32 60.18 76.7 59.24C77.8 56.71 79.14 54.38 80.66 52.3C81 51.88 81.35 51.46 81.74 51.08L82.17 50.67C82.41 50.62 82.67 50.54 82.91 50.45C83.46 50.26 84.04 50 84.61 49.68C85.29 49.29 85.96 48.9 86.6 48.46C87.1 48.13 87.32 47.6 87.18 47.07C87.09 46.75 86.89 46.49 86.61 46.32C86.43 46.21 86.19 46.15 85.96 46.15C85.83 46.15 85.73 46.16 85.66 46.2L84.54 46.63L84.07 46.82L83.73 46.94C82.92 47.25 82.32 47.46 81.69 47.59C81.42 47.62 81.14 47.63 80.87 47.63C80.55 47.63 80.24 47.61 79.92 47.58C78.67 47.39 77.53 47.11 76.46 46.72C75.96 46.49 75.47 46.25 74.97 45.99C74.4 45.7 73.89 45.36 73.29 44.94C72.81 44.58 72.42 44.26 72.08 43.91C71.61 43.42 71.15 42.93 70.72 42.41C69.09 40.27 67.83 38.18 66.87 36.04C66.21 34.23 65.7 32.32 65.36 30.35C65.2 28.54 65.21 26.76 65.22 25.03C65.24 23 65.33 21.3 65.52 19.68C65.64 19.04 65.77 18.39 65.93 17.75C66.12 17.06 66.35 16.39 66.6 15.72C67.18 14.39 67.88 13.15 68.42 12.21C69.02 11.14 69.76 9.99 70.69 8.72C71.7 7.43 72.78 6.32 74 5.31C74.41 5.01 74.84 4.76 75.37 4.52C76.28 4.17 77.26 3.92 78.38 3.74C78.78 3.69 79.16 3.68 79.55 3.68C80.13 3.68 80.71 3.72 81.29 3.78C81.9 3.88 82.44 4.01 82.94 4.19C83.07 4.3 83.15 4.38 83.2 4.44C83.42 4.67 83.63 4.8 83.91 4.88C84.49 5.34 84.91 5.84 85.35 6.4C85.69 6.83 86.05 7.24 86.41 7.65L86.53 7.79C86.79 8.08 87.05 8.38 87.3 8.69C87.66 9.2 87.99 9.73 88.3 10.26L88.75 10.99C89.32 11.9 89.85 12.83 90.39 13.77L90.63 14.17C91.15 15.09 91.61 15.89 92.01 16.72C92.69 18.11 93.12 19.11 93.38 19.97L93.51 19.7L93.69 20.21C94.21 21.72 94.61 22.88 94.94 23.94C95.36 25.34 95.62 26.84 95.83 28.14C96.12 30.53 96.14 32.99 95.9 35.43C95.89 35.62 95.94 35.81 96.08 35.99C96.08 36.17 96.14 36.32 96.2 36.42C96.33 36.65 96.54 36.81 96.78 36.86C96.87 36.88 96.94 36.89 97.01 36.89C97.18 36.89 97.36 36.83 97.52 36.77L97.74 36.65C98.61 36.32 99.23 36.08 99.84 35.89L100.09 35.83L101.23 35.5L102.16 35.24C103.58 34.83 105.11 34.5 106.72 34.25C108.11 34.08 109.5 33.99 111.13 33.9C112.63 33.81 114.2 33.77 115.8 33.77C117.32 33.77 118.85 33.78 120.37 33.85C121.75 33.91 123.25 34.03 124.94 34.21L125.31 34.27C126.71 34.48 128.15 34.7 129.64 35.02C131.35 35.4 132.94 35.87 134.39 36.41C134.87 36.62 135.33 36.86 135.78 37.13C136.15 37.36 136.5 37.6 136.99 37.95C137.3 38.21 137.61 38.48 137.89 38.78C138.24 39.14 138.57 39.51 138.89 39.89C139.17 40.26 139.43 40.64 139.66 41.04C139.92 41.51 140.15 41.97 140.37 42.45C140.67 43.25 140.89 43.97 141.02 44.65ZM153.64 38.28C153.27 38.53 152.87 38.77 152.47 39C151.83 39.38 151.18 39.74 150.53 40.1L149.49 40.68C147.55 41.76 145.79 42.81 143.95 43.99C144.04 44.82 144.03 45.62 143.91 46.52C143.84 47.03 143.76 47.55 143.6 47.95L145.06 48.2L145.37 48.23C146.68 48.36 147.78 48.47 148.87 48.49L149.38 48.51L149.64 48.51L150.02 48.51C150.64 48.51 151.25 48.52 151.88 48.56L152.08 48.6C151.93 47.71 151.85 47 151.85 46.34C151.85 44.43 152.34 42.53 152.76 41.09C153 40.29 153.28 39.49 153.6 38.61C153.65 38.5 153.68 38.43 153.73 38.4C153.72 38.4 153.65 38.28 153.64 38.28Z" fill="#E50151" fill-opacity="1.000000" fill-rule="nonzero"/>
		</g>
	</g>
	<g mask="url(#mask1_36043)">
		<g style="mix-blend-mode:normal">
			<path id="Path 35772" d="M100.2 45.37C100.2 42.46 102.63 40.03 105.55 40.03C108.46 40.03 110.89 42.46 110.89 45.37C110.89 48.29 108.46 50.72 105.55 50.72C102.63 50.72 100.2 48.29 100.2 45.37ZM85 109C84.55 109.26 84.21 109.7 84.07 110.2C83.94 110.68 83.98 111.35 84.28 111.76C85.36 113.24 86.42 114.72 87.52 116.19C88.54 117.56 89.57 118.93 90.54 120.33C91.53 121.75 92.34 123.29 93.13 124.83C93.83 126.2 94.45 127.63 95.05 129.05C95.43 129.98 95.83 130.92 96.14 131.88C96.53 133.1 96.87 134.33 97.16 135.58C97.37 136.5 98.4 137.03 99.27 136.78C99.7 136.66 100.07 136.38 100.3 135.99C100.55 135.56 100.55 135.14 100.47 134.67C99.86 130.58 98.34 126.65 96.67 122.89C95.85 121.04 94.8 119.29 93.64 117.63C92.53 116.05 91.32 114.53 90.17 112.98C89.35 111.9 88.57 110.81 87.77 109.72C87.45 109.28 87.11 108.94 86.56 108.79C86.39 108.74 86.21 108.72 86.03 108.72C85.67 108.72 85.32 108.81 85 109ZM97.62 142.22C97.71 143.92 97.78 145.61 97.63 147.31C97.54 148.32 98.54 149.17 99.48 149.17C99.97 149.17 100.45 148.97 100.79 148.62C101.17 148.25 101.28 147.82 101.33 147.31C101.52 145.61 101.46 143.93 101.36 142.22C101.31 141.2 100.56 140.35 99.49 140.35C98.51 140.35 97.56 141.2 97.62 142.22ZM31.16 120.63C30.19 122.16 29.2 123.69 28.36 125.29C27.47 127.02 26.77 128.82 26.11 130.63C24.83 134.18 23.77 137.8 22.35 141.3C22.27 141.58 22.27 141.86 22.35 142.14C22.45 142.54 22.72 142.89 23.08 143.1C23.77 143.5 24.89 143.31 25.25 142.52C25.9 141.16 26.51 139.79 27.03 138.37C27.46 137.2 27.87 136.01 28.25 134.81C28.95 132.6 29.63 130.39 30.5 128.25C30.97 127.25 31.47 126.27 32.04 125.33C32.66 124.29 33.3 123.28 33.95 122.26C34.41 121.52 34.1 120.49 33.37 120.05C33.11 119.91 32.84 119.84 32.57 119.84C32.01 119.84 31.48 120.13 31.16 120.63ZM18.95 147.12C18.33 148.15 17.69 149.16 16.98 150.14C16.88 150.25 16.79 150.36 16.69 150.47C15.94 151.33 15.84 152.6 16.69 153.45C17.54 154.3 18.81 154.2 19.67 153.45C20.98 152.3 21.9 150.85 22.8 149.37C23.44 148.34 23.04 146.92 22 146.32C21.66 146.12 21.28 146.02 20.9 146.02C20.13 146.02 19.38 146.42 18.95 147.12ZM15.74 62.16C15.25 62.45 14.89 62.93 14.74 63.47C14.59 64.04 14.66 64.65 14.96 65.16C15.27 65.69 15.71 65.96 16.27 66.16C16.61 66.3 16.96 66.43 17.31 66.57C18.11 66.93 18.88 67.32 19.6 67.83C20.12 68.26 20.63 68.69 21.09 69.19C21.61 69.75 22.11 70.33 22.6 70.93C23.91 72.83 25.01 74.83 25.94 76.93C26.13 77.4 26.32 77.88 26.5 78.35C26.69 78.84 26.92 79.23 27.38 79.5C27.82 79.75 28.36 79.82 28.85 79.69C29.89 79.4 30.41 78.35 30.18 77.34C29.8 75.65 29.34 73.99 28.58 72.42C27.94 71.08 27.23 69.81 26.38 68.58C25.48 67.28 24.37 66.06 23.16 65.04C22.23 64.26 21.24 63.59 20.14 63.06C19.27 62.63 18.34 62.3 17.43 61.94C17.26 61.88 17.08 61.86 16.89 61.86C16.49 61.86 16.06 61.98 15.74 62.16ZM38.94 108.42C38.59 108.63 38.33 108.97 38.23 109.36C38.11 109.77 38.17 110.2 38.38 110.57C38.61 110.95 38.92 111.12 39.32 111.28C40.62 111.83 41.92 112.38 43.26 112.84C43.91 113.06 44.55 113.29 45.2 113.48C45.67 113.63 46.14 113.76 46.62 113.88C47.57 114.12 48.55 114.25 49.53 114.32C51 114.43 52.49 114.38 53.94 114.21C55.51 114.04 57.06 113.81 58.55 113.27C59.32 112.99 59.85 112.24 59.61 111.39C59.39 110.58 58.54 110.12 57.73 110.33C56.83 110.56 55.92 110.7 54.99 110.83C52.86 111.09 50.72 111.22 48.58 110.98C47.01 110.74 45.49 110.25 43.98 109.76C42.67 109.34 41.41 108.79 40.15 108.26C40.04 108.22 39.91 108.2 39.77 108.2C39.48 108.2 39.17 108.29 38.94 108.42ZM94.66 65.48C94.03 65.65 93.48 66.07 93.15 66.64C92.84 67.16 92.66 67.98 92.9 68.58C93.31 69.6 93.77 70.63 94.11 71.68C94.43 72.66 94.67 73.63 94.87 74.64C94.89 74.87 94.92 75.1 94.95 75.34C95.08 76.47 95.03 77.62 94.9 78.76C94.77 79.67 94.65 80.58 94.45 81.47C94.14 82.82 93.77 84.14 93.36 85.45C93.09 86.29 93.52 87.24 94.26 87.67C95.13 88.18 96.48 87.93 96.95 86.97C97.67 85.5 98.43 83.97 98.87 82.39C99.45 80.33 99.92 78.26 99.93 76.11C99.94 74.5 99.65 72.88 99.27 71.33C99.12 70.69 98.86 70.08 98.63 69.47C98.35 68.72 98.05 67.98 97.75 67.24C97.49 66.6 97.21 66.09 96.59 65.74C96.21 65.51 95.77 65.39 95.32 65.39C95.1 65.39 94.87 65.42 94.66 65.48ZM76.05 9.65C75.41 10.02 74.93 10.65 74.73 11.37C74.53 12.11 74.63 12.92 75.02 13.58C75.42 14.26 76.01 14.64 76.73 14.9C77.1 15.03 77.46 15.17 77.82 15.3C78.53 15.63 79.21 15.98 79.85 16.43C80.66 17.11 81.36 17.86 82.04 18.67C82.91 19.89 83.58 21.2 84.19 22.57C84.9 24.37 85.38 26.22 85.82 28.1C86 28.94 86.84 29.52 87.68 29.52C88.68 29.52 89.68 28.64 89.61 27.59C89.48 25.75 89.28 23.94 88.92 22.13C88.63 20.71 88.16 19.33 87.6 18C86.93 16.4 86.13 14.95 85 13.62C83.93 12.36 82.64 11.29 81.15 10.55C80.23 10.08 79.23 9.72 78.26 9.36C78.04 9.28 77.79 9.24 77.54 9.24C77.02 9.24 76.47 9.41 76.05 9.65Z" fill="#FEFEFE" fill-opacity="1.000000" fill-rule="nonzero"/>
		</g>
	</g>
	<g mask="url(#mask1_36043)">
		<g style="mix-blend-mode:normal">
			<path id="Path 35773" d="M159.29 38.1C159.21 37.73 159.08 37.38 158.95 37.05C158.86 36.84 158.78 36.63 158.69 36.44C158.66 36.35 158.6 36.26 158.55 36.17C158.42 35.97 158.31 35.82 158.2 35.68C158.13 35.59 158.05 35.5 157.97 35.42C157.85 35.3 157.74 35.19 157.59 35.07C157.37 34.9 157.11 34.79 156.82 34.71C156.68 34.67 156.47 34.61 156.33 34.61C156.16 34.61 155.97 34.64 155.75 34.68C155.39 34.77 155.07 35.05 154.89 35.43C154.8 35.43 154.69 35.46 154.59 35.5C154.48 35.55 154.36 35.61 154.25 35.67C154.08 35.78 153.93 35.86 153.78 35.95C153.51 36.11 153.26 36.27 153.02 36.41C152.66 36.64 152.29 36.86 151.93 37.07C151.48 37.33 151.02 37.58 150.57 37.84L149.61 38.38C148.35 39.1 147.02 39.95 145.3 41.14C144.71 41.55 144.11 41.94 143.52 42.33L143.52 42.14C143.4 41.72 143.23 41.29 143.03 40.84C142.83 40.42 142.61 39.97 142.33 39.48C141.89 38.71 141.29 37.92 140.55 37.13C140.24 36.79 139.91 36.47 139.57 36.16C139.45 36.05 139.31 35.97 139.19 35.87C138.91 35.64 138.63 35.41 138.33 35.2L138.19 35.1C137.87 34.89 137.56 34.69 137.24 34.5C136.75 34.22 136.17 33.95 135.64 33.73C134.74 33.35 133.83 33.1 133.06 32.9C132.13 32.64 131.2 32.41 130.26 32.2C129.58 32.06 128.91 31.95 128.23 31.83L127.89 31.77L127.51 31.7C126.57 31.54 125.63 31.4 124.69 31.29C123.02 31.09 121.22 30.95 119.18 30.89C117.7 30.84 116.2 30.79 114.71 30.79C114.31 30.79 113.92 30.79 113.52 30.8C113.05 30.81 112.57 30.83 112.1 30.84C111.71 30.86 111.32 30.87 110.92 30.88L110.59 30.89L110.19 30.91L109.24 30.95C109.41 30.19 109.7 28.64 109.85 26.95C110.01 25.02 110.03 23.28 109.92 21.61C109.85 20.69 109.73 19.77 109.55 18.86C109.46 18.42 109.35 17.94 109.22 17.45C109.12 17.04 109 16.62 108.86 16.22C108.53 15.31 108.12 14.36 107.61 13.32C107.24 12.56 106.8 11.83 106.37 11.11L106.22 10.88C105.26 9.25 104.11 7.69 102.79 6.25C102.33 5.74 101.83 5.28 101.31 4.82C100.34 3.99 99.31 3.22 98.29 2.51C97.87 2.23 97.46 1.97 97.05 1.74C95.87 1.07 94.69 0.61 93.47 0.33C92.44 0.11 91.3 0 89.98 0C89.49 0 89.01 0.01 88.53 0.04C87.74 0.08 86.9 0.15 86.13 0.37C85.66 0.5 85.18 0.71 84.69 1.01L84.45 1.18C84.25 1.09 84.02 1.03 83.8 0.96C83.17 0.75 82.48 0.59 81.6 0.5C81.15 0.45 80.7 0.43 80.24 0.43C79.83 0.43 79.42 0.45 79.01 0.48C78 0.58 77.01 0.84 76.09 1.1C75.19 1.35 74.39 1.66 73.63 2.05C72.94 2.39 72.3 2.85 71.48 3.58C70.27 4.66 69.14 5.9 68.06 7.36C67.7 7.84 67.35 8.35 67 8.89C66.29 9.96 65.6 11.14 64.91 12.44C64.44 13.32 64.01 14.26 63.65 15.23C63.48 15.66 63.34 16.09 63.2 16.54C63.07 16.98 62.95 17.46 62.85 17.94C62.65 18.79 62.52 19.66 62.43 20.52C62.4 20.78 62.37 21.04 62.35 21.3C62.28 22.11 62.24 22.91 62.2 23.68L62.19 24.05L62.17 24.28C62.11 25.9 62.05 27.57 62.06 29.22C62.06 29.85 62.13 30.52 62.18 31.18C62.29 32.44 62.45 33.73 62.75 35.13C62.87 35.72 63.04 36.3 63.22 36.9C63.54 37.92 63.96 38.96 64.48 40.04C64.57 40.21 64.64 40.38 64.73 40.56C65.66 42.36 66.73 43.97 67.9 45.37C67.93 45.4 67.95 45.44 67.98 45.47C68.67 46.28 69.27 46.88 69.89 47.38C70.54 47.9 71.44 48.62 72.44 49.17C73.3 49.64 74.23 50.01 74.95 50.29C75.79 50.61 76.72 50.83 77.8 50.94C78.42 51.01 79.03 51.06 79.64 51.06L79.13 51.55C78.73 52.04 78.45 52.44 78.16 52.84C77.67 53.53 77.18 54.26 76.72 55.02C76.23 55.81 75.71 56.72 75.26 57.57C74.86 58.34 74.52 59.15 74.19 59.95L74.07 60.24C73.73 61.08 73.43 61.94 73.14 62.79C72.82 63.73 72.54 64.64 72.29 65.54C72.05 66.43 71.83 67.32 71.65 68.19C71.26 70 70.99 71.84 70.83 73.71C70.66 75.57 70.6 77.47 70.65 79.37C70.66 79.66 70.69 79.97 70.71 80.28C70.75 80.86 70.81 81.47 70.89 82.13C71.01 82.98 71.14 83.85 71.3 84.69C71.21 84.64 71.11 84.61 71 84.57C70.8 84.49 70.6 84.43 70.38 84.38C69.71 84.21 68.95 84.06 67.83 83.89C65.81 83.61 63.88 83.58 62.26 83.58C60.8 83.58 59.45 83.65 58.18 83.72C57.93 83.74 57.64 83.75 57.4 83.76L56.78 83.8C54.93 83.91 53.11 84.04 51.27 84.24C50.02 84.38 48.56 84.55 47.09 84.79C45.61 85.04 44.13 85.36 43.02 85.62C41.78 85.89 40.54 86.24 39.33 86.66C38.71 86.87 38.11 87.1 37.5 87.33C37.16 87.46 36.81 87.58 36.46 87.7C36.48 87.65 36.48 87.62 36.49 87.57C36.66 87.02 36.75 86.57 36.81 86.12C36.93 85.29 37.02 84.36 37.07 83.31C37.11 82.3 37.08 81.44 37 80.69C36.8 79.02 36.54 77.06 35.96 75.08C35.84 74.65 35.66 74.07 35.45 73.45C35.33 73.12 35.21 72.79 35.08 72.45C34.66 71.44 34.28 70.53 33.84 69.65C33.72 69.4 33.61 69.19 33.49 68.95C32.87 67.71 32.25 66.65 31.62 65.71C31.42 65.42 31.22 65.14 31.02 64.87C30.64 64.37 30.25 63.92 29.87 63.46C29.42 62.92 28.96 62.4 28.5 61.91C28.08 61.46 27.67 61 27.24 60.59C26.62 60 25.97 59.44 25.33 58.88L25.16 58.73C24.88 58.5 24.62 58.3 24.36 58.09C24.02 57.81 23.68 57.57 23.35 57.34C23.21 57.25 23.06 57.13 22.93 57.04C22.73 56.92 22.54 56.81 22.35 56.7C22.22 56.62 22.09 56.54 21.96 56.46C21.63 56.29 21.31 56.13 20.99 55.99C20.28 55.66 19.56 55.42 18.63 55.15C18.02 54.96 17.4 54.81 16.77 54.66C16.1 54.54 15.4 54.39 14.74 54.17C14.51 54.06 14.18 53.89 13.87 53.7C13.73 53.62 13.6 53.55 13.47 53.45C13.14 53.17 12.81 52.86 12.49 52.52C12.1 52.11 11.72 51.67 11.32 51.17C10.29 49.71 9.43 48.13 8.6 46.59L8.38 46.18L8.24 45.93L8.16 45.77C7.94 45.36 7.7 44.94 7.47 44.52C6.97 43.62 6.46 42.71 5.9 41.84C5.45 41.11 4.82 40.35 4.1 39.66C4 39.57 3.9 39.5 3.8 39.42C3.41 39.1 3.02 38.83 2.63 38.64C2.59 38.61 2.48 38.57 2.42 38.54C2.35 38.51 2.31 38.48 2.23 38.45C2.05 38.39 1.84 38.34 1.62 38.34C1.49 38.34 1.38 38.36 1.29 38.4C1.07 38.46 0.88 38.53 0.64 38.69C0.41 38.83 0.2 39.11 0.12 39.39C-0.14 40.19 0.06 41.08 0.26 41.76C0.38 42.18 0.51 42.59 0.67 43C1.11 44.11 1.44 44.89 1.8 45.58C2.73 47.43 3.78 49.29 5.19 51.62C5.78 52.58 6.37 53.55 6.93 54.52L7.2 54.99C7.31 55.18 7.4 55.35 7.51 55.53C7.73 55.92 7.93 56.3 8.12 56.66C8.24 56.89 8.37 57.13 8.47 57.36C8.59 57.66 8.69 57.95 8.76 58.24C8.76 58.38 8.76 58.53 8.75 58.7C8.69 58.99 8.6 59.28 8.49 59.58L8.06 60.52C7.86 60.95 7.66 61.38 7.47 61.81C7.07 62.76 6.76 63.66 6.54 64.57C6.29 65.55 6.16 66.52 6.03 67.52C5.96 68.1 5.92 68.76 5.89 69.47C5.88 69.69 5.86 69.9 5.86 70.14C5.85 71.2 5.98 72.32 6.17 73.47C6.29 74.17 6.4 74.86 6.59 75.6C6.81 76.46 7.08 77.29 7.39 78.12C7.44 78.27 7.5 78.42 7.56 78.57C7.84 79.29 8.13 80.01 8.43 80.74C8.72 81.42 9 82.04 9.28 82.67C9.53 83.24 9.79 83.78 10.04 84.31C10.29 84.83 10.54 85.35 10.78 85.84C11.64 87.51 12.73 89.15 13.6 90.47C14.83 92.33 15.97 93.86 17.14 95.24C18.33 96.62 19.86 97.96 21.45 99.02L21.64 99.12C21.22 99.37 20.8 99.69 20.4 100.05C19.8 100.57 19.23 101.18 18.73 101.73C17.42 103.14 16.25 104.49 14.95 106.07L14.41 106.73L14.14 107.06C14.04 107.15 13.94 107.27 13.88 107.39C12.84 108.71 11.8 110.11 10.87 111.44C9.94 112.78 9.06 114.12 8.26 115.46C7.84 116.15 7.4 116.96 7.02 117.69L6.86 118C6.43 118.81 6.03 119.65 5.66 120.48C4.9 122.21 4.12 124.05 3.59 126C3.33 126.94 3.08 127.88 2.9 128.85C2.7 129.82 2.55 130.79 2.4 131.76C2.12 133.64 1.83 135.65 1.66 137.69C1.5 139.81 1.48 141.63 1.59 143.26C1.72 145.28 1.98 147.24 2.35 149.06C2.46 149.58 2.6 150.1 2.75 150.61C3.09 151.74 3.54 152.84 4 153.9C4.08 154.08 4.15 154.26 4.23 154.43C4.45 154.94 4.74 155.42 5.08 155.92C5.32 156.28 5.58 156.64 5.9 157.04C6.15 157.37 6.46 157.67 6.77 157.96C6.87 158.06 6.96 158.13 7.06 158.22C7.68 158.78 8.24 159.22 8.79 159.55C9.51 159.99 10.21 160.33 10.93 160.61C11.9 160.99 13.06 161.19 14.46 161.22C15.69 161.22 16.77 161.06 17.68 160.91C19.27 160.63 20.87 159.99 22.32 159.05C22.32 159.09 22.35 159.13 22.39 159.17C22.43 159.21 22.52 159.28 22.59 159.32L23.27 159.65L23.44 159.73C24.07 160.03 24.7 160.32 25.34 160.56C25.87 160.76 26.39 160.92 26.93 161.04C27.47 161.16 28.01 161.23 28.58 161.23C29.27 161.23 30.02 161.14 30.95 160.97C32.04 160.74 33.18 160.37 34.24 159.88C35.2 159.45 36.07 159.01 36.89 158.52C38.36 157.66 39.86 156.49 41.49 154.94C42.73 153.75 43.87 152.3 45.16 150.25C45.5 149.73 45.8 149.2 46.09 148.66C46.72 147.47 47.26 146.25 47.76 145.08L48.06 144.36C48.53 143.24 48.97 142.14 49.37 141.1C49.53 140.67 49.7 140.24 49.85 139.81C49.89 139.71 49.92 139.59 49.96 139.49C50.18 138.85 50.41 138.17 50.63 137.46C50.66 137.39 50.68 137.32 50.7 137.24C50.98 136.38 51.24 135.47 51.46 134.56C51.9 132.71 52.24 130.78 52.52 128.66C52.71 127.13 52.79 125.69 52.77 124.38C52.72 123.04 52.67 121.73 52.47 120.46C52.54 120.5 52.62 120.52 52.72 120.54C52.81 120.55 52.91 120.56 53.01 120.57C53.39 120.59 53.73 120.62 54.04 120.64C54.41 120.66 54.76 120.68 55.07 120.69C55.64 120.72 56.14 120.73 56.61 120.73C57 120.73 57.39 120.72 57.78 120.71C59.38 120.65 60.96 120.35 62.7 119.99C64.21 119.67 65.64 119.36 66.97 118.82C67.09 119.89 67.34 121.11 67.69 122.55C68.18 124.61 68.68 126.5 69.21 128.31C69.58 129.58 70.01 130.85 70.45 132.11L70.56 132.42L70.9 133.42L71.01 133.73C71.26 134.5 71.51 135.22 71.77 135.94C71.94 136.43 72.13 136.91 72.31 137.38C72.48 137.84 72.65 138.31 72.84 138.76C73.25 139.74 73.66 140.71 74.1 141.67C74.45 142.47 74.85 143.23 75.26 144L75.42 144.3C75.5 144.46 75.6 144.61 75.69 144.76C76.52 146.27 77.46 147.67 78.33 148.88C78.36 148.93 78.39 148.98 78.42 149.03C78.45 149.06 78.48 149.1 78.51 149.14C79.56 150.63 80.78 152.15 82.15 153.67C83.33 154.95 84.66 156.19 86.13 157.34C87.01 158.01 87.76 158.54 88.56 158.97C89.41 159.42 90.36 159.85 91.53 160.3C92.45 160.67 93.4 160.89 94.12 161.05C94.21 161.07 94.31 161.09 94.41 161.11C94.81 161.19 95.27 161.25 95.84 161.31C95.97 161.32 96.1 161.34 96.24 161.35C96.43 161.36 96.62 161.37 96.81 161.37C97.8 161.37 98.84 161.18 99.91 160.8C100.49 160.6 101.06 160.34 101.59 160.05C102.14 159.74 102.66 159.33 103.07 159.01C104.2 158.1 105.08 157.1 105.79 155.92C106.03 155.53 106.24 155.08 106.44 154.6C106.52 154.4 106.61 154.21 106.69 153.99C107.22 154.35 107.77 154.62 108.36 154.86C109.34 155.26 110.48 155.48 111.82 155.57C111.97 155.57 112.12 155.58 112.27 155.58C113.25 155.58 114.28 155.39 115.26 155.03C116.43 154.6 117.52 153.96 118.81 152.94C120.01 151.98 121.08 150.71 122.01 149.14C122.52 148.28 122.91 147.3 123.22 146.53C123.24 146.49 123.25 146.46 123.26 146.42C123.41 146.03 123.54 145.65 123.64 145.29L123.69 145.04L123.74 144.85C123.83 144.43 123.91 144.08 123.98 143.72C124.16 142.7 124.27 141.63 124.35 140.47C124.47 138.48 124.18 136.49 123.85 134.45C123.74 133.75 123.58 133.06 123.42 132.37L123.3 131.84C123.09 130.92 122.86 130 122.61 129.09C122.37 128.21 122.09 127.23 121.77 126.23C121.53 125.5 121.29 124.75 120.99 124.02C120.6 123.06 120.19 122.1 119.74 121.16C119.3 120.29 118.84 119.43 118.37 118.56C117.46 116.89 116.41 115.23 115.42 113.69C115.15 113.26 114.84 112.83 114.55 112.39C114.19 111.88 113.82 111.35 113.43 110.83C113.02 110.27 112.61 109.72 112.16 109.15C111.56 108.41 110.97 107.66 110.34 106.95C109.68 106.2 109 105.49 108.3 104.78C106.79 103.23 105.54 102.01 104.35 100.94L103.68 100.33C102.57 99.34 101.54 98.41 100.47 97.54C100.06 97.22 99.21 96.53 98.3 95.98C98.43 95.84 98.54 95.67 98.65 95.5C98.81 95.27 98.96 95.03 99.11 94.78C100.18 92.96 101.01 91.34 101.66 89.84C102.07 88.9 102.43 87.99 102.74 87.07C102.81 86.88 102.87 86.69 102.93 86.48C103.12 85.87 103.3 85.18 103.51 84.32C103.85 82.72 104.15 81 104.42 79.2C104.57 78.2 104.7 77.21 104.8 76.2C104.9 75.29 104.93 74.37 104.96 73.45C105 71.69 104.86 69.79 104.56 67.81C104.42 66.93 104.18 66.06 103.95 65.27C103.86 64.99 103.74 64.73 103.64 64.46C103.51 64.12 103.4 63.78 103.25 63.44C103.82 63.56 104.44 63.6 105.06 63.63C105.97 63.69 106.88 63.75 107.78 63.85L108.68 63.95C109.28 64.02 109.88 64.1 110.49 64.16C112.47 64.34 114.46 64.43 116.39 64.43C117.97 64.43 119.74 64.37 121.63 64.24C122.52 64.17 123.42 64.06 124.33 63.93C125.25 63.78 126.22 63.6 127.14 63.38C128.77 63.01 130.67 62.52 132.5 61.68C133.46 61.25 134.23 60.85 134.92 60.41C135.83 59.83 136.65 59.14 137.39 58.47C138.12 57.83 138.77 57.13 139.32 56.51C139.9 55.88 140.47 55.13 141.06 54.23C141.49 53.6 141.9 52.86 142.36 51.91C142.65 51.32 142.92 50.7 143.14 50.07L143.31 50.11L143.43 50.14C143.69 50.16 143.94 50.18 144.19 50.21C144.94 50.32 145.6 50.47 146.25 50.62L146.6 50.7C147.44 50.88 148.4 51.03 149.53 51.16C150.28 51.25 151.06 51.29 151.81 51.33L152.13 51.36L152.47 51.37L152.78 51.39C153.32 51.42 153.85 51.45 154.38 51.45L154.78 51.45C155 51.45 155.24 51.38 155.45 51.25C155.6 51.24 155.8 51.2 156 51.14C156.47 51.02 156.96 50.76 157.35 50.39C158.17 49.65 158.77 48.55 159.15 47.14C159.4 46.19 159.5 45.24 159.62 44.1C159.69 43.21 159.72 42.31 159.69 41.4C159.66 40.39 159.53 39.28 159.29 38.1ZM140.91 46.46C140.8 47.13 140.66 47.79 140.49 48.45C140.32 49.12 140.07 49.77 139.83 50.37C139.55 51 139.25 51.62 138.91 52.21C138.53 52.87 138.12 53.5 137.68 54.11C136.63 55.4 135.59 56.46 134.5 57.35C133.97 57.74 133.49 58.09 132.95 58.38C132.38 58.69 131.8 58.95 131.21 59.21C129.93 59.7 128.56 60.09 127.03 60.42C125.63 60.73 124.3 60.98 122.98 61.17C120.96 61.43 118.96 61.59 117.63 61.69C116.47 61.78 115.17 61.83 113.69 61.83C113.15 61.83 112.61 61.82 112.07 61.81C111.18 61.8 110.3 61.76 109.41 61.7L108.71 61.65C108.01 61.6 107.3 61.54 106.59 61.51L105.16 61.45L103.73 61.4C102.85 61.36 101.98 61.29 101.11 61.19L100.92 61.16C100.36 61.08 99.81 61 99.28 60.85C98.6 60.67 97.94 60.45 97.27 60.2C96.5 59.85 95.86 59.51 95.24 59.13C94.56 58.71 93.89 58.28 93.25 57.81C92.92 57.55 92.64 57.28 92.39 57C92.27 56.84 92.15 56.64 92.03 56.38C91.92 56.1 91.83 55.81 91.74 55.52L91.64 55.23C91.53 54.89 91.24 54.66 90.9 54.66C90.82 54.66 90.74 54.69 90.69 54.71C90.49 54.76 90.32 54.89 90.22 55.09C90.12 55.27 90.1 55.46 90.16 55.65L90.24 55.91C90.36 56.33 90.48 56.75 90.67 57.14C90.85 57.54 91.05 57.88 91.31 58.2C91.53 58.49 91.78 58.74 92.06 58.99C92.7 59.59 93.39 60.1 94.17 60.65C95.05 61.3 95.84 61.76 96.65 62.1C97.28 62.37 98.23 62.75 99.3 62.98C99.63 63.06 99.96 63.13 100.29 63.18C100.27 63.32 100.31 63.52 100.42 63.77L100.65 64.32L100.88 64.86C101.18 65.6 101.43 66.35 101.64 67.09L101.69 67.28C101.8 67.68 101.9 68.09 101.99 68.5L102.18 69.72C102.35 71.22 102.43 72.6 102.43 73.94C102.41 75.3 102.27 76.67 102.12 77.84C101.87 79.54 101.55 81.32 101.14 83.27C100.78 84.9 100.26 86.52 99.5 88.37C98.04 91.69 96.3 94.7 94.35 97.29L94.23 97.54C93.79 97.99 93.36 98.44 92.93 98.82L92.75 98.95C92.48 99.16 92.17 99.33 91.75 99.53C91.3 99.7 90.85 99.85 90.38 100L90.13 100.08C89.58 99.39 88.96 98.78 88.26 98.21C87.84 97.87 87.41 97.54 86.96 97.23C86.77 97.09 86.51 97.02 86.25 97.02C85.87 97.02 85.45 97.19 85.18 97.46C84.9 97.73 84.74 98.15 84.76 98.59C84.77 98.98 84.92 99.32 85.18 99.54C86.14 100.35 86.98 101.13 87.74 101.93C88.54 102.77 89.28 103.72 89.88 104.48C90.71 105.56 91.51 106.64 92.28 107.75C93.14 109.01 93.89 110.28 94.57 111.46C95.25 112.66 95.96 113.93 96.6 115.26C97.27 116.63 97.9 118.02 98.51 119.42C99.76 122.45 100.84 125.61 101.72 128.83C102.21 130.6 102.67 132.38 103.08 134.17C103.4 135.56 103.71 137.19 104.02 139.14C104.22 140.71 104.43 142.39 104.45 144.06C104.47 144.98 104.45 145.89 104.43 146.81C104.41 147.6 104.32 148.4 104.24 149.19L104.21 149.41C104.17 149.72 104.13 150.03 104.08 150.34C103.96 151.2 103.71 152.13 103.34 153.09C103.04 153.76 102.69 154.34 102.3 154.87C101.89 155.35 101.44 155.79 100.82 156.3C100.27 156.71 99.75 157.03 99.22 157.28C98.6 157.52 98.05 157.67 97.53 157.76C97.26 157.79 97 157.8 96.74 157.8C96.38 157.8 96.03 157.78 95.67 157.74C95.02 157.63 94.38 157.52 93.74 157.35C93.05 157.16 92.37 156.92 91.7 156.67C90.93 156.34 90.26 156 89.64 155.64C88.95 155.24 88.29 154.76 87.76 154.37C86.64 153.46 85.63 152.54 84.62 151.54C83.55 150.48 82.59 149.3 81.8 148.29C81.14 147.42 80.58 146.67 80.05 145.88C79.49 145.06 78.92 144.15 78.32 143.11C77.31 141.37 76.49 139.5 75.79 137.89C75.18 136.39 74.56 134.71 73.78 132.47L73.37 131.3C72.91 130 72.45 128.7 72.04 127.39C71.39 125.3 70.83 123.23 70.42 121.66C69.89 119.66 69.51 117.89 69.26 116.23L69.21 116C68.76 112 68.74 108.44 69.14 105.13C69.28 104.42 69.4 103.75 69.57 103.09C69.78 102.28 70.05 101.5 70.34 100.71C70.44 100.46 70.42 100.18 70.29 99.91C70.13 99.61 69.84 99.38 69.54 99.29C69.44 99.25 69.33 99.24 69.22 99.24C68.74 99.24 68.31 99.57 68.12 100.09C67.75 101.08 67.46 101.99 67.22 102.87C67.01 103.68 66.88 104.5 66.77 105.23L66.72 105.56C66.41 107.53 66.37 109.54 66.33 111.31C66.3 112.86 66.37 114.48 66.53 116.11L66.29 116.09C65.46 116.28 64.61 116.4 63.77 116.52L63.41 116.56L63.23 116.64L61.57 116.81L60.02 117.02C59.1 117.13 58.19 117.22 57.26 117.27C56.8 117.29 56.34 117.29 55.87 117.29C55.3 117.29 54.73 117.29 54.16 117.27L53.88 117.27C51.34 117.21 49.25 117.07 47.3 116.83C45.78 116.61 44.53 116.38 43.46 116.14C42.71 115.95 41.97 115.75 41.23 115.5C40.67 115.31 40.11 115.09 39.55 114.86L39.37 114.78C38.95 114.58 38.42 114.33 37.91 114.06C37.31 113.74 36.74 113.4 36.16 113.04L35.91 112.89C34.9 112.27 33.92 111.66 33.02 110.99C32.54 110.59 32.08 110.19 31.63 109.76C31.27 109.42 30.94 109.04 30.62 108.66L30.37 108.38C30.13 108.1 29.88 107.97 29.57 107.97C29.28 107.97 29 108.08 28.79 108.28C28.39 108.69 28.39 109.31 28.79 109.79C29.95 111.14 31.23 112.54 32.79 113.67C33.54 114.21 34.3 114.75 35.06 115.29C35.83 115.83 36.61 116.31 37.43 116.75C38.56 117.37 39.77 117.9 41.04 118.34C41.1 118.36 41.14 118.38 41.19 118.4L41.14 118.67L40.97 119.13L40.8 119.59C40.44 120.37 39.99 121.11 39.39 121.93C38.95 122.48 38.48 123.01 38.01 123.54L37.81 123.76L37.62 123.98C37.07 124.59 36.53 125.2 36.01 125.85C35.38 126.65 34.77 127.47 34.19 128.31C33.75 128.96 33.36 129.64 32.98 130.32L32.76 130.71C31.87 132.31 31.12 134.05 30.45 136.04C30.08 137.15 29.8 138.3 29.54 139.42L29.49 139.64L29.36 140.21L29.12 141.2C28.85 142.28 28.55 143.35 28.25 144.42L27.82 146.03C27.39 147.6 26.91 149.05 26.35 150.46C26.13 150.94 25.91 151.4 25.64 151.85C25.35 152.32 25.04 152.77 24.72 153.22C24.31 153.72 23.87 154.23 23.41 154.71C22.95 155.18 22.44 155.61 21.93 156.03C21.24 156.51 20.49 157.01 19.65 157.39C19.06 157.61 18.48 157.78 17.87 157.94C17.43 158.05 16.96 158.11 16.49 158.16C15.97 158.2 15.47 158.23 14.97 158.23C14.52 158.23 14.06 158.21 13.59 158.15C12.98 158.05 12.38 157.89 11.76 157.66C11.09 157.34 10.47 156.96 9.85 156.51C9.37 156.11 8.86 155.61 8.21 154.89C7.96 154.57 7.71 154.22 7.51 153.85C7.24 153.37 7.02 152.89 6.8 152.39C6.37 151.35 6 150.29 5.7 149.24C5.38 148.16 5.2 147.03 5.06 146.07C4.86 144.37 4.67 142.55 4.72 140.75C4.77 138.73 4.91 136.78 5.14 134.96L5.21 134.39C5.39 133.03 5.65 130.99 6.08 129.14C6.36 127.93 6.65 126.84 6.97 125.83C7.27 124.91 7.62 124 7.97 123.1C9.19 120.28 10.33 118.01 11.57 115.96C12.25 114.82 12.97 113.69 13.72 112.59L14.13 111.99C14.72 111.12 15.32 110.25 15.96 109.41L16.1 109.22C16.27 109.02 16.37 108.88 16.45 108.77L16.78 108.35C17.82 107.04 18.76 105.84 19.75 104.73C20.83 103.52 21.91 102.35 23.14 101.34C23.54 101.05 23.95 100.78 24.37 100.5C24.84 100.2 25.1 99.66 25.04 99.13C25.48 98.36 25.21 97.36 24.41 96.86C23.48 96.28 22.66 95.72 21.9 95.15C21.17 94.58 20.61 94.09 20.12 93.58C19.52 92.98 18.92 92.3 18.29 91.52C17.04 89.86 15.8 88.03 14.59 86.06C13.32 83.95 12.35 81.79 11.65 80.13L11.64 80.24L11.54 79.95C10.98 78.5 10.45 77.17 10.02 75.79C9.54 74.27 9.18 72.73 8.96 71.2C8.76 69.34 8.76 67.52 8.98 65.79C9.16 64.73 9.34 63.96 9.57 63.3C9.69 62.93 9.82 62.57 9.95 62.21C10.12 61.75 10.29 61.29 10.42 60.81C10.57 60.34 10.7 59.87 10.73 59.38C10.75 59.06 10.77 58.69 10.69 58.32C10.59 57.87 10.42 57.46 10.26 57.11C9.99 56.52 9.66 55.95 9.31 55.37L9.05 54.96C8.24 53.59 7.39 52.24 6.54 50.89L6.24 50.43C5.36 49.02 4.45 47.43 3.52 45.71C3.08 44.91 2.67 44.04 2.21 42.99C1.96 42.3 1.71 41.56 1.57 40.8C1.54 40.58 1.54 40.39 1.55 40.18C1.68 40.25 1.83 40.33 1.97 40.43C2.39 40.79 2.82 41.23 3.28 41.79C4.25 43.1 5.04 44.54 5.92 46.29C6.66 47.74 7.58 49.55 8.55 51.24C8.99 52.01 9.51 52.77 10.1 53.52C10.74 54.32 11.46 55.15 12.41 55.81C13.11 56.31 14 56.7 15.05 56.97C15.33 57.06 15.63 57.11 15.92 57.17L16.25 57.23C16.67 57.31 17.07 57.41 17.48 57.52C18.31 57.75 19.06 58 19.79 58.28C20.42 58.58 20.93 58.85 21.4 59.14C21.84 59.42 22.26 59.72 22.68 60.04C23.74 60.89 24.78 61.82 25.87 62.87C26.82 63.79 27.64 64.77 28.53 65.86C28.93 66.37 29.31 66.88 29.68 67.43C30.09 68.04 30.45 68.67 30.82 69.29C31.12 69.79 31.37 70.31 31.62 70.83L31.73 71.05C32.14 71.91 32.46 72.61 32.77 73.32C33.32 74.71 33.69 75.86 33.95 76.91C34.12 77.59 34.27 78.28 34.41 78.96C34.54 79.56 34.63 80.18 34.71 80.8L34.73 81.03C34.77 81.42 34.81 81.8 34.83 82.18C34.86 82.75 34.86 83.3 34.86 83.88C34.87 84.68 34.79 85.52 34.72 86.27L34.68 86.69C34.56 87.44 34.44 88.17 34.25 88.91C34.06 89.61 33.8 90.26 33.51 90.97C33.33 91.4 33.15 91.82 32.94 92.2C32.67 92.68 32.38 93.13 32.07 93.58C31.74 94.01 31.37 94.43 31.02 94.84L30.83 95.06C30.52 95.42 30.52 95.91 30.84 96.22C30.99 96.37 31.21 96.46 31.43 96.46C31.65 96.46 31.85 96.37 31.99 96.22C32.69 95.42 33.33 94.69 33.87 93.9C34.4 93.13 34.84 92.28 35.22 91.48C35.41 91.07 35.61 90.65 35.77 90.23L35.83 90.02L36.06 90C37 89.71 37.93 89.41 38.86 89.08C39.79 88.75 40.73 88.48 41.64 88.26C43.45 87.85 45.31 87.58 47.22 87.32C51.08 86.84 55.04 86.68 57.93 86.57C59.46 86.5 60.97 86.44 62.48 86.44C62.83 86.44 63.19 86.45 63.55 86.46C65.35 86.49 67.11 86.54 68.83 86.75L69.02 86.79C70.02 86.93 71.01 87.16 71.98 87.46L72.06 87.71C72.35 88.64 72.7 89.5 73.01 90.23C73.33 90.98 73.62 91.69 74.01 92.36C74.17 92.67 74.34 92.97 74.54 93.25C74.83 93.68 75.16 94.07 75.51 94.44C75.69 94.62 75.94 94.72 76.2 94.72C76.38 94.72 76.55 94.67 76.7 94.59C76.92 94.46 77.1 94.2 77.17 93.92C77.22 93.67 77.17 93.43 77.04 93.26C76.6 92.63 76.22 91.96 75.89 91.22C75.28 89.72 74.74 88.19 74.31 86.66C73.82 84.94 73.54 83.18 73.34 81.68C73.25 80.9 73.16 80.11 73.12 79.32C73.07 78.39 73.07 77.47 73.09 76.53C73.12 74.81 73.23 73.09 73.44 71.42C73.78 69.13 74.2 67.15 74.71 65.37C75.02 64.27 75.35 63.18 75.71 62.1C76.03 61.15 76.39 60.21 76.76 59.26C77.87 56.72 79.2 54.4 80.71 52.36C81.05 51.93 81.4 51.52 81.79 51.14L82.19 50.74C82.43 50.68 82.69 50.6 82.94 50.51C83.48 50.33 84.06 50.07 84.64 49.73C85.33 49.35 86 48.95 86.64 48.51C87.17 48.16 87.4 47.6 87.24 47.04C87.15 46.71 86.93 46.43 86.64 46.26C86.45 46.14 86.2 46.08 85.96 46.08C85.82 46.08 85.71 46.1 85.63 46.14L84.51 46.57L84.04 46.76L83.71 46.88C83 47.14 82.35 47.38 81.68 47.52C81.41 47.54 81.14 47.55 80.87 47.55C80.56 47.55 80.24 47.54 79.93 47.51C78.7 47.32 77.57 47.05 76.49 46.66C75.99 46.43 75.5 46.19 75 45.93C74.37 45.61 73.79 45.2 73.34 44.88C72.87 44.51 72.48 44.2 72.13 43.86C71.66 43.37 71.21 42.88 70.77 42.37C69.15 40.23 67.89 38.15 66.94 36.02C66.26 34.17 65.76 32.26 65.44 30.34C65.27 28.56 65.29 26.76 65.3 25.02C65.31 22.97 65.41 21.28 65.6 19.69C65.71 19.06 65.84 18.41 66 17.78C66.18 17.08 66.41 16.42 66.66 15.75C67.22 14.48 67.89 13.27 68.48 12.24C69.13 11.09 69.87 9.96 70.74 8.78C71.76 7.49 72.84 6.37 74.05 5.36C74.43 5.08 74.87 4.83 75.4 4.58C76.3 4.23 77.28 3.99 78.39 3.82C78.78 3.77 79.16 3.76 79.55 3.76C80.13 3.76 80.71 3.8 81.28 3.86C81.9 3.95 82.42 4.08 82.89 4.24C83.02 4.35 83.09 4.43 83.15 4.5C83.4 4.74 83.61 4.87 83.87 4.94C84.46 5.4 84.88 5.92 85.3 6.45C85.63 6.88 85.99 7.3 86.35 7.7L86.48 7.84C86.74 8.14 87 8.43 87.24 8.74C87.6 9.24 87.93 9.76 88.25 10.29L88.69 11.02C89.26 11.94 89.8 12.87 90.33 13.8L90.5 14.1C91.05 15.05 91.53 15.88 91.95 16.75C92.48 17.82 92.97 18.9 93.45 19.99L93.45 19.83C94.05 21.58 94.51 22.79 94.87 23.97C95.29 25.34 95.54 26.78 95.75 28.14C96.05 30.56 96.07 33.01 95.82 35.43C95.81 35.63 95.87 35.82 96.01 35.99C96.01 36.15 96.06 36.32 96.14 36.45C96.27 36.69 96.49 36.86 96.76 36.92C96.86 36.96 96.94 36.97 97.01 36.97C97.21 36.97 97.39 36.9 97.55 36.83L97.77 36.71C98.63 36.38 99.26 36.14 99.87 35.96L100.11 35.89L101.25 35.57L102.18 35.3C103.71 34.87 105.24 34.54 106.72 34.33C108.21 34.14 109.7 34.05 111.13 33.97C112.66 33.89 114.23 33.85 115.79 33.85C117.32 33.85 118.85 33.86 120.37 33.93C121.82 33.99 123.29 34.11 124.88 34.28C126.38 34.5 127.99 34.74 129.62 35.1C131.28 35.46 132.87 35.92 134.36 36.47C134.84 36.68 135.3 36.92 135.75 37.18C136.16 37.44 136.55 37.72 136.94 38C137.25 38.27 137.56 38.54 137.84 38.83C138.19 39.19 138.51 39.56 138.84 39.94C139.11 40.3 139.37 40.68 139.6 41.07C139.86 41.53 140.09 41.99 140.31 42.47C140.6 43.27 140.81 43.98 140.95 44.65C140.99 45.17 140.98 45.73 140.91 46.46ZM153.54 38.58C153.22 39.46 152.94 40.26 152.7 41.06C152.24 42.62 151.77 44.46 151.77 46.33C151.77 46.94 151.87 47.55 152 48.13C152.02 48.18 152.04 48.32 152.05 48.37C152.06 48.4 152.07 48.44 152.08 48.48L151.88 48.48C151.25 48.45 150.64 48.44 150.01 48.44L149.64 48.44L149.38 48.43C149.21 48.43 149.04 48.43 148.87 48.42C147.71 48.39 146.52 48.28 145.38 48.16L145.07 48.13L143.66 47.98C143.8 47.61 143.89 47.16 143.98 46.53C144.1 45.61 144.11 44.82 143.99 44.04C145.65 42.98 147.41 41.92 149.52 40.73L150.56 40.15C151.22 39.8 151.86 39.44 152.5 39.06C152.9 38.83 153.29 38.59 153.68 38.34C153.61 38.4 153.57 38.49 153.54 38.58ZM157.12 46.12L157.09 46.35L157.05 46.57C156.99 46.98 156.86 47.42 156.66 47.92C156.53 48.18 156.39 48.43 156.24 48.68C156.1 48.82 155.97 48.96 155.83 49.09C155.77 49.12 155.7 49.16 155.63 49.19C155.52 49.09 155.35 49.09 155.22 49.04C155.18 49.03 155.15 48.99 155.12 48.98C154.92 48.94 154.73 48.9 154.54 48.85C154.48 48.8 154.44 48.75 154.4 48.7C154.33 48.6 154.27 48.5 154.23 48.42C154.19 48.31 154.17 48.19 154.14 48.09C154.06 47.8 153.98 47.52 153.92 47.22C153.87 46.76 153.83 46.28 153.86 45.81C153.89 45.44 153.92 45.1 153.96 44.77C154.16 43.39 154.52 41.88 155.09 40.01L155.48 38.79L155.86 37.56C156.05 37.74 156.2 38.04 156.32 38.31C156.66 39.25 156.9 40.27 157.08 41.52C157.26 43.07 157.28 44.58 157.12 46.12ZM109.13 47.09C109.13 48.3 108.13 49.31 106.91 49.31C105.7 49.31 104.69 48.3 104.69 47.09C104.69 45.88 105.7 44.87 106.91 44.87C108.13 44.87 109.13 45.88 109.13 47.09Z" fill="#161616" fill-opacity="1.000000" fill-rule="nonzero"/>
		</g>
	</g>
</svg>
