<svg width="119.886223" height="105.649414" viewBox="0 0 119.886 105.649" fill="none" xmlns="http://www.w3.org/2000/svg" xmlns:xlink="http://www.w3.org/1999/xlink">
	<desc>
			Created with Pixso.
	</desc>
	<defs/>
	<mask id="mask1_13777" mask-type="alpha" maskUnits="userSpaceOnUse" x="0.000000" y="0.000000" width="119.886215" height="105.649414">
		<g style="mix-blend-mode:normal">
			<rect id="Rectangle 3713" width="119.886215" height="105.649323" fill="#C4C4C4" fill-opacity="1.000000"/>
		</g>
	</mask>
	<g mask="url(#mask1_13777)">
		<g style="mix-blend-mode:normal">
			<path id="Path 31844" d="M83.07 78.17C70.1 97.65 69.37 97.59 66.14 97.68C64.63 97.73 63.11 97.49 61.65 97.13C56 95.74 32.05 88.2 9.96 79.22C6.58 77.84 2.63 76.64 1.46 73.96C-0.14 81.34 5.11 84.69 12.12 87.57C24.45 92.63 55.83 105.91 68.99 104.32C71.41 104.03 72.59 103.38 74.48 101.71C81.55 95.47 88.86 81.64 94.9 72.42C101.17 62.85 108.61 51.81 114.82 39.84C116.7 36.24 118.53 32.38 118.69 28.24C118.81 25.02 117.87 21.66 115.55 19.36C116.05 21.98 114.34 26.33 113.43 28.58C107.11 44.27 106.82 42.46 83.07 78.17Z" fill="#304654" fill-opacity="1.000000" fill-rule="nonzero"/>
		</g>
	</g>
	<g mask="url(#mask1_13777)">
		<g style="mix-blend-mode:normal">
			<path id="Path 31845" d="M115.08 18.69C113.57 15.29 89.69 9.93 57.25 2C54.69 1.38 51.86 0.95 49.23 1.35C48.72 1.42 48.28 1.51 47.91 1.88C45.19 4.51 39.57 20.13 39.13 20.83C38.94 21.14 38.65 21.45 38.42 21.76C59.43 27.81 90.15 36.38 95.12 37.93C99.11 39.18 103.06 40.75 107.21 41.4C108.5 39.13 109.68 36.8 110.69 34.37C112.17 30.8 116.26 22.54 115.2 19.03C115.15 18.99 115.1 18.94 115.05 18.89C114.97 18.83 115.01 18.73 115.08 18.69ZM103.64 33.71C103.58 33.91 105.27 34.27 68.37 24.71C44.38 18.49 45.63 18.89 45.7 18.69C46.06 17.66 49.16 8.79 49.38 8.17C49.77 7.07 50.2 7 51.26 7.23C63.75 10 83.54 14.5 95.83 18.04C98.62 18.85 107.66 21.73 107.68 21.75C107.79 21.82 107.99 21.11 103.64 33.71Z" fill="#FFFFFF" fill-opacity="1.000000" fill-rule="nonzero"/>
		</g>
	</g>
	<g mask="url(#mask1_13777)">
		<g style="mix-blend-mode:normal">
			<path id="Path 31846" d="M107.43 21.93C100.18 19.7 94.49 17.4 66.52 10.95C61.81 9.87 57.1 8.81 52.38 7.76C50.47 7.33 50.09 6.95 49.55 8.48C46.64 16.81 46.93 15.96 46 18.64C90.13 30.07 102.65 33.31 103.43 33.52C104.76 29.66 106.09 25.8 107.43 21.93Z" fill="#6EC6FA" fill-opacity="1.000000" fill-rule="nonzero"/>
		</g>
	</g>
	<g mask="url(#mask1_13777)">
		<g style="mix-blend-mode:normal">
			<path id="Path 31847" d="M62.55 97.07C64.42 97.45 67.46 97.78 69 96.66C73.55 93.36 85.57 73.19 100.78 51.36C102.99 48.19 105.15 44.99 107.07 41.64C102.73 40.95 98 39.02 93.64 37.76C80.97 34.1 55.32 26.9 38.25 21.99C26.26 37.69 16.44 50.76 3.45 67.97C2.5 69.24 1.42 70.69 1.39 72.35C1.37 73.83 2.27 75.02 3.41 75.86C7.98 79.23 53.92 95.31 62.55 97.07ZM45.12 83.57C45.08 83.61 45.02 83.65 44.96 83.63C40.03 81.9 34.96 80.71 30.07 78.56C30.01 78.54 29.98 78.43 30.02 78.38C31.98 75.75 34.29 73.39 36.11 70.65C36.31 70.36 42.72 73.19 50.72 75.13C50.99 75.19 50.99 75.07 45.12 83.57ZM59.65 63.19C59.92 63.28 60.05 62.91 54.04 71.63C53.96 71.76 54.2 71.78 50.3 70.64C46.43 69.5 42.58 68.3 38.9 66.64C38.81 66.6 38.82 66.49 38.87 66.43C44.72 59.21 44.62 58.48 44.89 58.58C49.02 59.97 54.6 61.44 59.65 63.19ZM47.7 54.02C49.45 51.29 51.46 48.72 53.07 45.9C53.25 45.6 62.07 48.58 67.85 50.16C68.09 50.23 68.27 49.77 62.81 58.96C62.73 59.11 62.87 59.08 59.5 57.99C47.46 54.1 47.53 54.26 47.7 54.02ZM65.56 89.53C65.39 89.79 51.23 84.78 51.21 84.77C51.05 84.7 51.1 84.55 51.18 84.52C53.09 81.93 54.85 79.24 56.63 76.56C56.72 76.41 56.57 76.46 59.72 77.45C60.32 77.64 71.05 80.93 71.22 81.13C71.34 81.23 71.76 80.55 65.56 89.53ZM74.49 77.59C74.45 77.64 74.4 77.66 74.34 77.65C69.75 76.38 66.02 75.22 59.64 72.84C59.24 72.69 59.77 72.75 65.24 64.52C65.33 64.37 65.17 64.42 68.37 65.42C69.27 65.71 79.93 68.97 80.15 69.19C80.28 69.29 80.62 68.7 74.49 77.59ZM83.25 64.92C83.17 65.06 83.33 65.04 79.94 63.95C67.94 60.06 67.97 60.23 68.14 59.97C69.9 57.25 71.9 54.68 73.52 51.86C73.69 51.56 82.5 54.53 88.29 56.12C88.54 56.19 88.57 55.99 83.25 64.92ZM85.17 41.91C85.2 41.86 85.27 41.84 85.32 41.85C89.41 42.69 93.42 43.89 97.29 45.45C97.44 45.51 97.38 45.75 97.22 45.71C97.24 45.8 94.51 49.85 94.44 49.92C94 50.4 93.32 50 92.83 49.83C92.81 49.82 83.29 46.5 83.25 46.48C82.89 46.26 83.06 46.21 85.17 41.91ZM69.6 37.05C69.63 36.99 69.7 36.97 69.76 36.99C73.84 37.83 77.85 39.03 81.72 40.58C81.87 40.65 81.81 40.89 81.65 40.84C81.67 40.91 81.66 40.71 80.13 43.11C78.56 45.6 78.88 45.54 77.26 44.97C77.23 44.96 67.74 41.65 67.68 41.61C67.32 41.4 67.51 41.33 69.6 37.05ZM54.73 32.23C54.75 32.18 54.83 32.16 54.88 32.17C58.74 33.06 62.5 34.32 66.13 35.9C66.27 35.96 66.17 36.19 66.03 36.14C66.05 36.24 63.58 40.21 63.53 40.26C63.12 40.8 62.49 40.41 61.98 40.22C52.34 36.53 52.99 36.79 52.93 36.73C52.69 36.53 52.75 36.6 54.73 32.23ZM37.39 30.54C39.35 26.18 39.21 26.43 39.35 26.46C43.21 27.35 46.98 28.61 50.6 30.2C50.74 30.26 50.64 30.49 50.5 30.44C50.52 30.53 48.06 34.49 48.01 34.56C47.59 35.1 46.96 34.71 46.46 34.52C45.25 34.05 38.93 31.64 37.74 31.18C37.36 31.03 37.19 30.99 37.39 30.54ZM27.28 47.59C29.03 44.86 31.04 42.3 32.65 39.47C32.83 39.18 41.89 42.21 47.43 43.73C47.68 43.8 47.69 43.61 42.39 52.53C42.36 52.58 42.3 52.62 42.24 52.6C29.78 48.42 27.04 47.94 27.28 47.59ZM18.77 58.62C20.59 56.18 22.66 53.93 24.35 51.39C24.45 51.25 24.28 51.28 27.48 52.31C28.24 52.56 39.02 56 39.19 56.17C39.32 56.27 39.66 55.68 33.53 64.57C33.42 64.71 33.62 64.71 30.3 63.38C18.75 58.76 18.59 58.86 18.77 58.62ZM9.85 70.56C11.78 67.96 13.96 65.53 15.76 62.83C15.96 62.53 24.58 66.11 30.21 68.07C30.28 68.1 30.34 68.18 30.29 68.27C24.27 76.98 24.58 76.62 24.45 76.57C15.53 72.87 9.63 70.85 9.85 70.56Z" fill="#304654" fill-opacity="1.000000" fill-rule="nonzero"/>
		</g>
	</g>
	<g mask="url(#mask1_13777)">
		<g style="mix-blend-mode:normal">
			<path id="Path 31848" d="M87.29 47.62C94.15 50.01 93.87 50.01 94.16 49.82C94.41 49.64 96.78 45.7 96.9 45.61C96.81 45.59 96.76 45.58 96.73 45.52C93.04 44.07 89.24 42.93 85.36 42.13C83.3 46.32 83.34 46.15 83.42 46.26C83.45 46.31 83.15 46.16 87.29 47.62Z" fill="#FFFFFF" fill-opacity="1.000000" fill-rule="nonzero"/>
		</g>
	</g>
	<g mask="url(#mask1_13777)">
		<g style="mix-blend-mode:normal">
			<path id="Path 31849" d="M73.7 52.08C72.12 54.82 70.18 57.32 68.46 59.97C73.26 61.58 78.15 63.04 83.08 64.7C84.74 61.91 86.39 59.12 88.05 56.33C82.7 54.86 78.25 53.29 73.7 52.08Z" fill="#FFFFFF" fill-opacity="1.000000" fill-rule="nonzero"/>
		</g>
	</g>
	<g mask="url(#mask1_13777)">
		<g style="mix-blend-mode:normal">
			<path id="Path 31850" d="M78.59 44.95C78.84 44.79 81.21 40.84 81.33 40.75C81.24 40.72 81.19 40.71 81.16 40.65C77.47 39.21 73.67 38.07 69.79 37.26C67.71 41.51 67.77 41.28 67.85 41.4C67.86 41.42 77.46 44.76 77.48 44.76C77.78 44.87 78.29 45.15 78.59 44.95Z" fill="#FFFFFF" fill-opacity="1.000000" fill-rule="nonzero"/>
		</g>
	</g>
	<g mask="url(#mask1_13777)">
		<g style="mix-blend-mode:normal">
			<path id="Path 31851" d="M65.41 64.74C63.63 67.42 61.8 70.07 59.88 72.65C64.48 74.36 68.48 75.75 74.32 77.37C76.16 74.69 78.01 72.02 79.85 69.35C74.13 67.37 70.33 66.4 65.41 64.74Z" fill="#FFFFFF" fill-opacity="1.000000" fill-rule="nonzero"/>
		</g>
	</g>
	<g mask="url(#mask1_13777)">
		<g style="mix-blend-mode:normal">
			<path id="Path 31852" d="M56.8 76.78C55.06 79.4 53.34 82.04 51.46 84.57C51.53 84.6 60.83 87.87 65.39 89.3C67.24 86.63 69.08 83.96 70.92 81.29C65.34 79.35 61.66 78.41 56.8 76.78Z" fill="#FFFFFF" fill-opacity="1.000000" fill-rule="nonzero"/>
		</g>
	</g>
	<g mask="url(#mask1_13777)">
		<g style="mix-blend-mode:normal">
			<path id="Path 31853" d="M53.25 46.12C51.67 48.86 49.73 51.36 48.01 54.01C52.81 55.61 57.71 57.09 62.63 58.74C64.29 55.95 65.95 53.16 67.61 50.37C62.11 48.86 57.94 47.37 53.25 46.12Z" fill="#FFFFFF" fill-opacity="1.000000" fill-rule="nonzero"/>
		</g>
	</g>
	<g mask="url(#mask1_13777)">
		<g style="mix-blend-mode:normal">
			<path id="Path 31854" d="M63.3 40.13C63.42 40 65.66 36.11 65.73 36.05C65.66 36.02 65.6 36.01 65.57 35.95C62.13 34.47 58.57 33.3 54.92 32.45C52.89 36.94 52.95 36.48 53.34 36.63C63.49 40.56 63.03 40.45 63.3 40.13Z" fill="#FFFFFF" fill-opacity="1.000000" fill-rule="nonzero"/>
		</g>
	</g>
	<g mask="url(#mask1_13777)">
		<g style="mix-blend-mode:normal">
			<path id="Path 31855" d="M44.91 58.86C43.43 61.06 40.9 64.33 39.17 66.47C44.06 68.67 48.66 69.86 53.87 71.41C55.72 68.73 57.56 66.06 59.41 63.39C53.76 61.43 49.74 60.48 44.91 58.86Z" fill="#FFFFFF" fill-opacity="1.000000" fill-rule="nonzero"/>
		</g>
	</g>
	<g mask="url(#mask1_13777)">
		<g style="mix-blend-mode:normal">
			<path id="Path 31856" d="M36.27 70.88C34.49 73.54 32.26 75.84 30.34 78.39C35.46 80.62 39.93 81.59 44.95 83.34C46.79 80.68 48.63 78.01 50.47 75.34C44.76 73.95 41.64 72.69 36.27 70.88Z" fill="#FFFFFF" fill-opacity="1.000000" fill-rule="nonzero"/>
		</g>
	</g>
	<g mask="url(#mask1_13777)">
		<g style="mix-blend-mode:normal">
			<path id="Path 31857" d="M44.89 33.64C47.3 34.56 47.5 34.75 47.77 34.43C47.85 34.33 50.19 30.35 50.2 30.34C50.13 30.32 50.07 30.31 50.04 30.25C46.6 28.77 43.04 27.59 39.39 26.75C37.37 31.23 37.42 30.78 37.82 30.92C38.13 31.04 43.85 33.24 44.89 33.64Z" fill="#FFFFFF" fill-opacity="1.000000" fill-rule="nonzero"/>
		</g>
	</g>
	<g mask="url(#mask1_13777)">
		<g style="mix-blend-mode:normal">
			<path id="Path 31858" d="M32.83 39.69C31.25 42.43 29.31 44.93 27.6 47.58C31.85 49.01 37.63 50.77 42.22 52.31C43.87 49.52 45.53 46.73 47.19 43.94C41.39 42.34 37.51 40.93 32.83 39.69Z" fill="#FFFFFF" fill-opacity="1.000000" fill-rule="nonzero"/>
		</g>
	</g>
	<g mask="url(#mask1_13777)">
		<g style="mix-blend-mode:normal">
			<path id="Path 31859" d="M24.52 51.61C22.87 54.08 20.87 56.26 19.1 58.63C24.3 60.76 28.65 62.39 33.36 64.34C35.2 61.67 37.05 59 38.89 56.33C33.52 54.46 29.42 53.26 24.52 51.61Z" fill="#FFFFFF" fill-opacity="1.000000" fill-rule="nonzero"/>
		</g>
	</g>
	<g mask="url(#mask1_13777)">
		<g style="mix-blend-mode:normal">
			<path id="Path 31860" d="M15.93 63.05C14.17 65.68 12.06 68.04 10.17 70.57C14.74 72.45 19.66 74.31 24.43 76.28C26.28 73.61 28.12 70.94 29.97 68.26C24.75 66.45 20.39 64.56 15.93 63.05Z" fill="#FFFFFF" fill-opacity="1.000000" fill-rule="nonzero"/>
		</g>
	</g>
	<g mask="url(#mask1_13777)">
		<g style="mix-blend-mode:normal">
			<path id="Path 31861" d="" fill="#13202B" fill-opacity="1.000000" fill-rule="nonzero"/>
		</g>
	</g>
	<g mask="url(#mask1_13777)">
		<g style="mix-blend-mode:normal">
			<path id="Path 31862" d="" fill="#13202B" fill-opacity="1.000000" fill-rule="nonzero"/>
		</g>
	</g>
	<g mask="url(#mask1_13777)">
		<g style="mix-blend-mode:normal">
			<path id="Path 31863" d="" fill="#13202B" fill-opacity="1.000000" fill-rule="nonzero"/>
		</g>
	</g>
	<g mask="url(#mask1_13777)">
		<g style="mix-blend-mode:normal">
			<path id="Path 31864" d="" fill="#13202B" fill-opacity="1.000000" fill-rule="nonzero"/>
		</g>
	</g>
	<g mask="url(#mask1_13777)">
		<g style="mix-blend-mode:normal">
			<path id="Path 31865" d="" fill="#13202B" fill-opacity="1.000000" fill-rule="nonzero"/>
		</g>
	</g>
	<g mask="url(#mask1_13777)">
		<g style="mix-blend-mode:normal">
			<path id="Path 31866" d="" fill="#13202B" fill-opacity="1.000000" fill-rule="nonzero"/>
		</g>
	</g>
	<g mask="url(#mask1_13777)">
		<g style="mix-blend-mode:normal">
			<path id="Path 31867" d="" fill="#13202B" fill-opacity="1.000000" fill-rule="nonzero"/>
		</g>
	</g>
	<g mask="url(#mask1_13777)">
		<g style="mix-blend-mode:normal">
			<path id="Path 31868" d="" fill="#13202B" fill-opacity="1.000000" fill-rule="nonzero"/>
		</g>
	</g>
	<g mask="url(#mask1_13777)">
		<g style="mix-blend-mode:normal">
			<path id="Path 31869" d="" fill="#13202B" fill-opacity="1.000000" fill-rule="nonzero"/>
		</g>
	</g>
	<g mask="url(#mask1_13777)">
		<g style="mix-blend-mode:normal">
			<path id="Path 31870" d="" fill="#13202B" fill-opacity="1.000000" fill-rule="nonzero"/>
		</g>
	</g>
	<g mask="url(#mask1_13777)">
		<g style="mix-blend-mode:normal">
			<path id="Path 31871" d="" fill="#13202B" fill-opacity="1.000000" fill-rule="nonzero"/>
		</g>
	</g>
	<g mask="url(#mask1_13777)">
		<g style="mix-blend-mode:normal">
			<path id="Path 31872" d="M38.65 21.69C38.99 21.82 39.3 21.78 39.58 21.62C39.1 21.14 38.62 20.66 38.14 20.18C38.78 20.45 39.41 20.72 40.05 20.99C40.23 20.12 39.44 19.36 38.52 19.8C38.39 19.86 38.25 20.05 38.14 20.18C38.09 20.29 38.08 20.33 38.03 20.43C37.83 20.92 38.21 21.51 38.65 21.69Z" fill="#13202B" fill-opacity="1.000000" fill-rule="nonzero"/>
		</g>
	</g>
	<g mask="url(#mask1_13777)">
		<g style="mix-blend-mode:normal">
			<path id="Path 31873" d="M39.58 21.62C39.72 21.53 39.86 21.41 39.97 21.25C40.01 21.16 40.03 21.08 40.05 20.99C39.41 20.72 38.78 20.45 38.14 20.18C38.62 20.66 39.1 21.14 39.58 21.62Z" fill="#13202B" fill-opacity="1.000000" fill-rule="nonzero"/>
		</g>
	</g>
	<g mask="url(#mask1_13777)">
		<g style="mix-blend-mode:normal">
			<path id="Path 31874" d="" fill="#13202B" fill-opacity="1.000000" fill-rule="nonzero"/>
		</g>
	</g>
	<g mask="url(#mask1_13777)">
		<g style="mix-blend-mode:normal">
			<path id="Path 31875" d="M6.58 78.82C12.27 81.18 18 83.44 23.77 85.59C35.34 89.92 47.07 93.83 58.92 97.32C61.5 98.08 64.19 98.85 66.91 98.56C68.25 98.41 69.28 98.03 70.28 97.16C72.29 95.4 73.88 93.07 75.45 90.93C81.27 82.93 86.57 74.54 92.05 66.3C95.39 61.3 98.78 56.33 102.21 51.39C105.42 46.77 108.53 42.07 110.87 36.94C111.76 34.98 112.5 33.16 113.35 31.16C114.21 29.14 115.06 27.12 115.7 25.02C116.55 22.27 117.54 18.28 114.56 16.48C112.58 15.29 110.26 14.56 108.08 13.84C104.71 12.73 101.29 11.77 97.86 10.84C89.35 8.54 80.78 6.49 72.21 4.43C68.23 3.47 64.25 2.52 60.28 1.53C57.96 0.96 55.65 0.35 53.25 0.13C51.63 -0.02 49.72 -0.15 48.14 0.36C47.11 0.7 46.46 1.68 45.9 2.55C45.09 3.84 44.42 5.23 43.77 6.61C42.19 10 40.8 13.48 39.42 16.96C39.01 18.01 38.6 19.06 38.16 20.11C38.27 19.98 38.39 19.87 38.52 19.8C39.44 19.36 40.23 20.12 40.05 20.99C41.21 18.21 42.3 15.4 43.45 12.62C44.69 9.61 45.94 6.48 47.69 3.7C47.83 3.48 47.97 3.26 48.12 3.05C48.15 3.01 48.18 2.97 48.21 2.93C48.28 2.84 48.36 2.75 48.44 2.66C48.51 2.59 48.58 2.53 48.64 2.46C48.69 2.44 48.77 2.4 48.78 2.4C48.83 2.38 48.89 2.36 48.94 2.34C49.06 2.31 49.18 2.29 49.3 2.27C49.34 2.26 49.38 2.26 49.42 2.25C49.41 2.25 49.31 2.27 49.3 2.27C49.32 2.27 49.37 2.26 49.42 2.25C49.83 2.21 50.32 2.17 50.73 2.16C51.84 2.13 52.96 2.2 54.06 2.34C56.2 2.62 58.28 3.22 60.37 3.74C62.25 4.2 64.13 4.66 66.01 5.12C74.36 7.14 82.72 9.12 91.05 11.25C94.82 12.21 98.59 13.21 102.34 14.3C105.18 15.12 108.03 15.98 110.8 17.06C111.04 17.15 111.28 17.25 111.51 17.35C111.53 17.35 111.64 17.4 111.68 17.42C111.81 17.48 111.95 17.53 112.08 17.59C112.47 17.77 112.86 17.96 113.23 18.17C113.38 18.25 113.52 18.33 113.66 18.42C113.72 18.46 113.79 18.51 113.85 18.55C113.91 18.61 113.98 18.68 114.04 18.74C114.08 18.79 114.12 18.86 114.16 18.92C114.19 18.98 114.22 19.04 114.25 19.1C114.29 19.24 114.34 19.42 114.38 19.56C114.39 19.6 114.39 19.63 114.4 19.67C114.4 19.66 114.42 19.87 114.43 19.9C114.56 21.59 114.06 23.22 113.53 24.87C112.91 26.78 112.14 28.64 111.35 30.49C110.52 32.41 109.74 34.35 108.86 36.24C107.71 38.73 106.38 41.12 104.94 43.45C102.03 48.16 98.72 52.62 95.61 57.21C89.56 66.13 83.71 75.21 77.63 84.12C76.51 85.77 75.38 87.4 74.22 89.02C73.29 90.31 72.35 91.59 71.45 92.71C70.73 93.61 69.99 94.5 69.16 95.3C69.02 95.43 68.88 95.57 68.73 95.69C68.67 95.75 68.61 95.8 68.55 95.85C68.43 95.92 68.22 96.06 68.11 96.13C67.87 96.15 67.57 96.31 67.35 96.36C64.88 96.88 62.25 96.09 59.9 95.4C57.03 94.56 54.17 93.69 51.32 92.8C45.62 91.02 39.95 89.14 34.31 87.16C28.67 85.18 23.06 83.11 17.49 80.94C14.71 79.85 11.93 78.74 9.17 77.61C7.12 76.77 4.57 76.03 3.06 74.3C1.39 72.37 3.01 70.09 4.25 68.44C3.91 68.9 3.35 69.14 2.8 68.82C2.35 68.55 2.08 67.83 2.42 67.37C0.8 69.53 -0.67 72.24 0.87 74.86C2.09 76.94 4.46 77.94 6.58 78.82Z" fill="#13202B" fill-opacity="1.000000" fill-rule="nonzero"/>
		</g>
	</g>
	<g mask="url(#mask1_13777)">
		<g style="mix-blend-mode:normal">
			<path id="Path 31876" d="M2.8 68.82C3.35 69.14 3.91 68.9 4.25 68.44C4.6 67.98 4.33 67.25 3.87 66.99C3.33 66.67 2.77 66.91 2.42 67.37C2.08 67.83 2.35 68.55 2.8 68.82Z" fill="#13202B" fill-opacity="1.000000" fill-rule="nonzero"/>
		</g>
	</g>
	<g mask="url(#mask1_13777)">
		<g style="mix-blend-mode:normal">
			<path id="Path 31877" d="M3.87 66.99C4.33 67.25 4.6 67.98 4.25 68.44C9.77 61.13 15.29 53.82 20.82 46.51C24.3 41.9 27.78 37.3 31.27 32.7C33.17 30.18 35.08 27.66 36.99 25.15C37.8 24.08 38.61 23.02 39.43 21.95C39.52 21.84 39.6 21.73 39.69 21.62C39.68 21.61 39.58 21.62 39.58 21.62C39.3 21.78 38.99 21.82 38.65 21.69C38.21 21.51 37.83 20.92 38.03 20.43C38.08 20.33 38.12 20.22 38.16 20.11C38.01 20.3 37.88 20.52 37.76 20.67C37.06 21.58 36.36 22.5 35.66 23.42C33.92 25.71 32.17 28.01 30.43 30.31C27.15 34.64 23.88 38.97 20.6 43.3C15.34 50.26 10.08 57.23 4.82 64.19C4.02 65.25 3.22 66.31 2.42 67.37C2.77 66.91 3.33 66.67 3.87 66.99Z" fill="#13202B" fill-opacity="1.000000" fill-rule="nonzero"/>
		</g>
	</g>
	<g mask="url(#mask1_13777)">
		<g style="mix-blend-mode:normal">
			<path id="Path 31878" d="" fill="#13202B" fill-opacity="1.000000" fill-rule="nonzero"/>
		</g>
	</g>
	<g mask="url(#mask1_13777)">
		<g style="mix-blend-mode:normal">
			<path id="Path 31879" d="" fill="#13202B" fill-opacity="1.000000" fill-rule="nonzero"/>
		</g>
	</g>
	<g mask="url(#mask1_13777)">
		<g style="mix-blend-mode:normal">
			<path id="Path 31880" d="" fill="#13202B" fill-opacity="1.000000" fill-rule="nonzero"/>
		</g>
	</g>
	<g mask="url(#mask1_13777)">
		<g style="mix-blend-mode:normal">
			<path id="Path 31881" d="" fill="#13202B" fill-opacity="1.000000" fill-rule="nonzero"/>
		</g>
	</g>
	<g mask="url(#mask1_13777)">
		<g style="mix-blend-mode:normal">
			<path id="Path 31882" d="" fill="#13202B" fill-opacity="1.000000" fill-rule="nonzero"/>
		</g>
	</g>
	<g mask="url(#mask1_13777)">
		<g style="mix-blend-mode:normal">
			<path id="Path 31883" d="" fill="#13202B" fill-opacity="1.000000" fill-rule="nonzero"/>
		</g>
	</g>
	<g mask="url(#mask1_13777)">
		<g style="mix-blend-mode:normal">
			<path id="Path 31884" d="" fill="#13202B" fill-opacity="1.000000" fill-rule="nonzero"/>
		</g>
	</g>
	<g mask="url(#mask1_13777)">
		<g style="mix-blend-mode:normal">
			<path id="Path 31885" d="M51.58 26.76C56.27 28.1 60.97 29.43 65.66 30.76C70.33 32.08 75 33.41 79.67 34.73C84.24 36.04 88.82 37.34 93.39 38.66C97.44 39.83 101.38 41.42 105.51 42.3C105.99 42.4 106.47 42.49 106.95 42.56C107.5 42.64 108.12 42.42 108.26 41.82C108.37 41.31 108.1 40.61 107.52 40.51C103.35 39.87 99.37 38.29 95.37 37.04C90.94 35.65 86.44 34.46 81.98 33.19C77.32 31.86 72.66 30.54 67.99 29.21C63.3 27.88 58.6 26.55 53.9 25.22C49.33 23.92 44.75 22.61 40.18 21.3C39.61 21.14 39.05 20.97 38.48 20.81C37.95 20.66 37.3 21 37.18 21.55C37.05 22.12 37.35 22.69 37.92 22.86C42.47 24.17 47.03 25.47 51.58 26.76Z" fill="#13202B" fill-opacity="1.000000" fill-rule="nonzero"/>
		</g>
	</g>
	<g mask="url(#mask1_13777)">
		<g style="mix-blend-mode:normal">
			<path id="Path 31886" d="" fill="#13202B" fill-opacity="1.000000" fill-rule="nonzero"/>
		</g>
	</g>
	<g mask="url(#mask1_13777)">
		<g style="mix-blend-mode:normal">
			<path id="Path 31887" d="" fill="#13202B" fill-opacity="1.000000" fill-rule="nonzero"/>
		</g>
	</g>
	<g mask="url(#mask1_13777)">
		<g style="mix-blend-mode:normal">
			<path id="Path 31888" d="" fill="#13202B" fill-opacity="1.000000" fill-rule="nonzero"/>
		</g>
	</g>
	<g mask="url(#mask1_13777)">
		<g style="mix-blend-mode:normal">
			<path id="Path 31889" d="" fill="#13202B" fill-opacity="1.000000" fill-rule="nonzero"/>
		</g>
	</g>
	<g mask="url(#mask1_13777)">
		<g style="mix-blend-mode:normal">
			<path id="Path 31890" d="M46.85 19.01C46.97 18.67 47.09 18.33 47.2 17.99C46.84 17.89 46.47 17.8 46.11 17.7C46.35 18.14 46.6 18.57 46.85 19.01Z" fill="#13202B" fill-opacity="1.000000" fill-rule="nonzero"/>
		</g>
	</g>
	<g mask="url(#mask1_13777)">
		<g style="mix-blend-mode:normal">
			<path id="Path 31891" d="" fill="#13202B" fill-opacity="1.000000" fill-rule="nonzero"/>
		</g>
	</g>
	<g mask="url(#mask1_13777)">
		<g style="mix-blend-mode:normal">
			<path id="Path 31892" d="M103.8 32.65C103.48 32.57 103.16 32.49 102.83 32.4C102.72 32.73 102.61 33.06 102.49 33.39C102.93 33.15 103.36 32.9 103.8 32.65Z" fill="#13202B" fill-opacity="1.000000" fill-rule="nonzero"/>
		</g>
	</g>
	<g mask="url(#mask1_13777)">
		<g style="mix-blend-mode:normal">
			<path id="Path 31893" d="M50.55 8.3C50.6 8.22 50.72 8.15 50.74 8.08C50.74 8.09 50.6 8.25 50.55 8.3Z" fill="#13202B" fill-opacity="1.000000" fill-rule="nonzero"/>
		</g>
	</g>
	<g mask="url(#mask1_13777)">
		<g style="mix-blend-mode:normal">
			<path id="Path 31894" d="" fill="#13202B" fill-opacity="1.000000" fill-rule="nonzero"/>
		</g>
	</g>
	<g mask="url(#mask1_13777)">
		<g style="mix-blend-mode:normal">
			<path id="Path 31895" d="" fill="#13202B" fill-opacity="1.000000" fill-rule="nonzero"/>
		</g>
	</g>
	<g mask="url(#mask1_13777)">
		<g style="mix-blend-mode:normal">
			<path id="Path 31896" d="M108.62 22.13C108.8 21.61 108.41 20.95 107.88 20.83C108.45 21 108.75 21.56 108.62 22.13Z" fill="#13202B" fill-opacity="1.000000" fill-rule="nonzero"/>
		</g>
	</g>
	<g mask="url(#mask1_13777)">
		<g style="mix-blend-mode:normal">
			<path id="Path 31897" d="" fill="#13202B" fill-opacity="1.000000" fill-rule="nonzero"/>
		</g>
	</g>
	<g mask="url(#mask1_13777)">
		<g style="mix-blend-mode:normal">
			<path id="Path 31898" d="M68.12 25.6C75.6 27.54 83.09 29.48 90.57 31.42L103.23 34.7C103.82 34.85 104.35 34.51 104.54 33.96C105.9 30.02 107.26 26.07 108.62 22.13C108.49 22.68 107.84 23.03 107.31 22.87C106.99 22.77 106.67 22.68 106.36 22.58C106.32 22.56 106.28 22.55 106.24 22.54C105.1 25.83 103.97 29.12 102.84 32.4C103.16 32.49 103.48 32.57 103.8 32.65C103.36 32.9 102.93 33.15 102.49 33.39L102.84 32.4C95.63 30.54 88.43 28.67 81.22 26.8C73.74 24.86 66.25 22.92 58.77 20.98C54.91 19.99 51.06 18.99 47.2 17.99C47.09 18.33 46.97 18.67 46.85 19.01C46.6 18.57 46.35 18.14 46.11 17.7C46.47 17.8 46.84 17.89 47.2 17.99C48.19 15.16 49.15 12.33 50.15 9.52C50.26 9.22 50.37 8.92 50.48 8.63C50.51 8.54 50.55 8.46 50.58 8.37C50.56 8.37 50.47 8.31 50.46 8.31C50.35 8.31 50.51 8.37 50.58 8.37C50.62 8.34 50.6 8.23 50.63 8.21C50.67 8.16 50.74 8.09 50.74 8.08C50.72 8.15 50.62 8.29 50.58 8.37C50.75 8.4 51.02 8.4 51.19 8.44C52.51 8.73 53.83 9.03 55.15 9.33C57.52 9.86 59.89 10.4 62.27 10.94C66.23 11.85 70.19 12.77 74.15 13.71C77.17 14.43 80.19 15.16 83.21 15.92C85.48 16.48 87.75 17.06 90.01 17.67C91.73 18.13 93.44 18.6 95.15 19.1C96.51 19.49 97.86 19.9 99.22 20.32C100.4 20.68 101.58 21.06 102.76 21.44C103.92 21.81 105.08 22.18 106.24 22.54C106.35 22.21 106.46 21.89 106.57 21.57C106.77 21 107.29 20.69 107.88 20.83C106.63 20.44 105.38 20.05 104.14 19.65C102.96 19.28 101.78 18.9 100.6 18.53C99.29 18.11 97.97 17.71 96.66 17.33C95.02 16.85 93.38 16.38 91.74 15.94C89.59 15.35 87.43 14.79 85.27 14.25C82.39 13.52 79.51 12.81 76.62 12.12C72.84 11.21 69.06 10.33 65.27 9.46C62.97 8.93 60.67 8.4 58.36 7.88C57.1 7.6 55.83 7.31 54.57 7.03C53.91 6.88 53.25 6.73 52.59 6.58C51.92 6.43 51.2 6.18 50.51 6.19C49.86 6.2 49.26 6.47 48.9 7.01C48.69 7.33 48.57 7.7 48.44 8.06C47.56 10.36 46.8 12.71 45.99 15.03C45.6 16.17 45.2 17.31 44.8 18.44C44.62 18.98 45.02 19.61 45.54 19.75C53.07 21.7 60.59 23.65 68.12 25.6Z" fill="#13202B" fill-opacity="1.000000" fill-rule="nonzero"/>
		</g>
	</g>
	<g mask="url(#mask1_13777)">
		<g style="mix-blend-mode:normal">
			<path id="Path 31899" d="" fill="#13202B" fill-opacity="1.000000" fill-rule="nonzero"/>
		</g>
	</g>
	<g mask="url(#mask1_13777)">
		<g style="mix-blend-mode:normal">
			<path id="Path 31900" d="M106.57 21.57C106.46 21.89 106.35 22.21 106.24 22.54C106.28 22.55 106.32 22.56 106.36 22.58C106.68 22.67 106.99 22.77 107.31 22.87C107.84 23.03 108.49 22.68 108.62 22.13C108.75 21.56 108.45 21 107.88 20.83C107.29 20.69 106.77 21 106.57 21.57Z" fill="#13202B" fill-opacity="1.000000" fill-rule="nonzero"/>
		</g>
	</g>
	<g mask="url(#mask1_13777)">
		<g style="mix-blend-mode:normal">
			<path id="Path 31901" d="M50.6 8.32C50.57 8.4 50.5 8.54 50.55 8.45C50.56 8.42 50.59 8.34 50.6 8.32Z" fill="#13202B" fill-opacity="1.000000" fill-rule="nonzero"/>
		</g>
	</g>
	<g mask="url(#mask1_13777)">
		<g style="mix-blend-mode:normal">
			<path id="Path 31902" d="" fill="#13202B" fill-opacity="1.000000" fill-rule="nonzero"/>
		</g>
	</g>
	<g mask="url(#mask1_13777)">
		<g style="mix-blend-mode:normal">
			<path id="Path 31903" d="" fill="#13202B" fill-opacity="1.000000" fill-rule="nonzero"/>
		</g>
	</g>
	<g mask="url(#mask1_13777)">
		<g style="mix-blend-mode:normal">
			<path id="Path 31904" d="" fill="#13202B" fill-opacity="1.000000" fill-rule="nonzero"/>
		</g>
	</g>
	<g mask="url(#mask1_13777)">
		<g style="mix-blend-mode:normal">
			<path id="Path 31905" d="" fill="#13202B" fill-opacity="1.000000" fill-rule="nonzero"/>
		</g>
	</g>
	<g mask="url(#mask1_13777)">
		<g style="mix-blend-mode:normal">
			<path id="Path 31906" d="" fill="#13202B" fill-opacity="1.000000" fill-rule="nonzero"/>
		</g>
	</g>
	<g mask="url(#mask1_13777)">
		<g style="mix-blend-mode:normal">
			<path id="Path 31907" d="" fill="#13202B" fill-opacity="1.000000" fill-rule="nonzero"/>
		</g>
	</g>
	<g mask="url(#mask1_13777)">
		<g style="mix-blend-mode:normal">
			<path id="Path 31908" d="" fill="#13202B" fill-opacity="1.000000" fill-rule="nonzero"/>
		</g>
	</g>
	<g mask="url(#mask1_13777)">
		<g style="mix-blend-mode:normal">
			<path id="Path 31909" d="M0.38 73.32C-0.29 76.14 -0.17 79.11 1.42 81.62C3.18 84.39 6.15 86.2 9.06 87.55C12.65 89.22 16.39 90.63 20.06 92.12C25.15 94.18 30.27 96.17 35.45 98.03C41.08 100.04 46.78 101.92 52.58 103.41C57.3 104.62 62.26 105.74 67.17 105.64C68.94 105.6 70.78 105.39 72.41 104.64C74.32 103.76 75.92 102.15 77.32 100.63C81.48 96.11 84.85 90.85 88.12 85.67C90.96 81.18 93.6 76.55 96.53 72.11C101.83 64.09 107.12 56.05 111.89 47.7C114.25 43.58 116.7 39.38 118.4 34.94C119.88 31.05 120.53 26.66 119.03 22.68C118.37 20.9 117.34 19.28 115.89 18.05C115.46 17.68 114.82 17.62 114.39 18.05C114.01 18.43 113.95 19.18 114.39 19.55C117.19 21.93 118.07 25.75 117.68 29.29C117.18 33.79 114.83 37.93 112.72 41.84C108.27 50.11 103.22 58.05 98.08 65.9C96.29 68.63 94.46 71.33 92.75 74.1C91.36 76.34 90 78.6 88.62 80.85C85.43 86.03 82.2 91.23 78.44 96.02C76.92 97.95 75.31 99.87 73.42 101.45C73.32 101.54 73.22 101.62 73.13 101.7C73.11 101.7 73.05 101.76 73.01 101.78C72.81 101.93 72.61 102.08 72.4 102.21C72.06 102.44 71.7 102.63 71.34 102.81C71.26 102.83 71.12 102.89 71.05 102.92C70.86 102.98 70.68 103.04 70.49 103.09C70.12 103.19 69.75 103.27 69.37 103.34C69.27 103.35 69.17 103.37 69.06 103.39C69.04 103.39 68.98 103.4 68.95 103.4C68.73 103.42 68.51 103.45 68.29 103.46C67.83 103.5 67.36 103.52 66.89 103.52C65.89 103.53 64.89 103.48 63.89 103.39C63.32 103.34 62.76 103.27 62.2 103.2C61.99 103.18 62.05 103.18 61.93 103.17C61.8 103.15 61.67 103.13 61.55 103.11C61.23 103.06 60.91 103.01 60.59 102.96C59.35 102.76 58.11 102.52 56.88 102.25C51.31 101.04 45.85 99.36 40.46 97.53C35.08 95.71 29.77 93.71 24.5 91.62C20.72 90.13 16.96 88.57 13.21 87.02C10.86 86.05 8.5 85.08 6.39 83.63C4.22 82.15 2.53 80.19 2.16 77.6C2 76.5 2.14 75.08 2.43 73.89C2.75 72.56 0.7 71.99 0.38 73.32Z" fill="#13202B" fill-opacity="1.000000" fill-rule="nonzero"/>
		</g>
	</g>
	<g mask="url(#mask1_13777)">
		<g style="mix-blend-mode:normal">
			<path id="Path 31910" d="" fill="#13202B" fill-opacity="1.000000" fill-rule="nonzero"/>
		</g>
	</g>
	<g mask="url(#mask1_13777)">
		<g style="mix-blend-mode:normal">
			<path id="Path 31911" d="" fill="#13202B" fill-opacity="1.000000" fill-rule="nonzero"/>
		</g>
	</g>
	<g mask="url(#mask1_13777)">
		<g style="mix-blend-mode:normal">
			<path id="Path 31912" d="" fill="#13202B" fill-opacity="1.000000" fill-rule="nonzero"/>
		</g>
	</g>
	<g mask="url(#mask1_13777)">
		<g style="mix-blend-mode:normal">
			<path id="Path 31913" d="M83.42 63.83C83.17 63.75 82.91 63.67 82.66 63.58C82.52 63.83 82.37 64.07 82.22 64.32C82.62 64.16 83.02 64 83.42 63.83Z" fill="#13202B" fill-opacity="1.000000" fill-rule="nonzero"/>
		</g>
	</g>
	<g mask="url(#mask1_13777)">
		<g style="mix-blend-mode:normal">
			<path id="Path 31914" d="M89.3 56.34C89.3 56.38 89.29 56.42 89.29 56.46C89.29 56.42 89.3 56.38 89.3 56.34Z" fill="#13202B" fill-opacity="1.000000" fill-rule="nonzero"/>
		</g>
	</g>
	<g mask="url(#mask1_13777)">
		<g style="mix-blend-mode:normal">
			<path id="Path 31915" d="M73.35 52.95C73.61 53.02 73.87 53.09 74.13 53.16C74.27 52.93 74.41 52.7 74.55 52.46C74.15 52.63 73.75 52.79 73.35 52.95Z" fill="#13202B" fill-opacity="1.000000" fill-rule="nonzero"/>
		</g>
	</g>
	<g mask="url(#mask1_13777)">
		<g style="mix-blend-mode:normal">
			<path id="Path 31916" d="M88.77 55.32C88.26 55.07 87.64 55.21 87.34 55.71C87.1 56.11 86.87 56.5 86.64 56.9C87.08 57.02 87.53 57.15 87.97 57.27C88.41 57.39 88.92 57.19 89.16 56.8C89.19 56.75 89.23 56.67 89.25 56.62C89.26 56.57 89.28 56.5 89.29 56.46C89.29 56.42 89.3 56.38 89.3 56.34C89.31 55.94 89.12 55.52 88.77 55.32Z" fill="#13202B" fill-opacity="1.000000" fill-rule="nonzero"/>
		</g>
	</g>
	<g mask="url(#mask1_13777)">
		<g style="mix-blend-mode:normal">
			<path id="Path 31917" d="M88.79 55.33C89.14 55.53 89.31 55.89 89.3 56.29C89.32 55.91 89.14 55.52 88.79 55.33Z" fill="#13202B" fill-opacity="1.000000" fill-rule="nonzero"/>
		</g>
	</g>
	<g mask="url(#mask1_13777)">
		<g style="mix-blend-mode:normal">
			<path id="Path 31918" d="M69.17 60.58C69.41 60.2 69.66 59.83 69.9 59.47C69.45 59.32 68.99 59.17 68.54 59.02C68.75 59.54 68.96 60.06 69.17 60.58Z" fill="#13202B" fill-opacity="1.000000" fill-rule="nonzero"/>
		</g>
	</g>
	<g mask="url(#mask1_13777)">
		<g style="mix-blend-mode:normal">
			<path id="Path 31919" d="M89.16 56.8C89.2 56.74 89.22 56.68 89.25 56.61C89.23 56.67 89.19 56.75 89.16 56.8Z" fill="#13202B" fill-opacity="1.000000" fill-rule="nonzero"/>
		</g>
	</g>
	<g mask="url(#mask1_13777)">
		<g style="mix-blend-mode:normal">
			<path id="Path 31920" d="M87.97 57.27C87.53 57.15 87.08 57.02 86.64 56.9L82.66 63.58C82.92 63.67 83.17 63.75 83.42 63.83C83.02 64 82.62 64.16 82.22 64.32C82.37 64.07 82.52 63.83 82.66 63.58C79.02 62.37 75.35 61.24 71.69 60.06C71.1 59.86 70.5 59.66 69.9 59.47C69.66 59.83 69.41 60.2 69.17 60.58C68.96 60.06 68.75 59.54 68.54 59.02C68.99 59.17 69.45 59.32 69.9 59.47C71.32 57.37 72.83 55.33 74.13 53.16C73.87 53.09 73.61 53.02 73.35 52.95C73.75 52.79 74.15 52.63 74.55 52.46C74.41 52.7 74.27 52.93 74.13 53.16C77.57 54.1 80.96 55.22 84.38 56.24C85.13 56.47 85.88 56.68 86.64 56.9C86.87 56.5 87.1 56.11 87.34 55.71C87.64 55.21 88.26 55.07 88.77 55.32C88.7 55.28 88.62 55.25 88.54 55.23C84.63 54.15 80.79 52.89 76.91 51.75C75.92 51.45 74.92 51.17 73.91 50.9C73.46 50.79 72.95 50.98 72.72 51.39C71.1 54.22 69.1 56.78 67.34 59.51C66.95 60.11 67.35 60.86 67.97 61.06C71.86 62.37 75.79 63.58 79.7 64.84C80.75 65.18 81.81 65.53 82.86 65.88C83.3 66.03 83.83 65.78 84.06 65.39C85.76 62.53 87.46 59.66 89.16 56.8C88.92 57.19 88.41 57.39 87.97 57.27Z" fill="#13202B" fill-opacity="1.000000" fill-rule="nonzero"/>
		</g>
	</g>
	<g mask="url(#mask1_13777)">
		<g style="mix-blend-mode:normal">
			<path id="Path 31921" d="" fill="#13202B" fill-opacity="1.000000" fill-rule="nonzero"/>
		</g>
	</g>
	<g mask="url(#mask1_13777)">
		<g style="mix-blend-mode:normal">
			<path id="Path 31922" d="M60.59 73.25C60.85 72.9 61.1 72.55 61.35 72.2C60.89 72.03 60.42 71.86 59.96 71.69C60.17 72.21 60.38 72.73 60.59 73.25Z" fill="#13202B" fill-opacity="1.000000" fill-rule="nonzero"/>
		</g>
	</g>
	<g mask="url(#mask1_13777)">
		<g style="mix-blend-mode:normal">
			<path id="Path 31923" d="" fill="#13202B" fill-opacity="1.000000" fill-rule="nonzero"/>
		</g>
	</g>
	<g mask="url(#mask1_13777)">
		<g style="mix-blend-mode:normal">
			<path id="Path 31924" d="" fill="#13202B" fill-opacity="1.000000" fill-rule="nonzero"/>
		</g>
	</g>
	<g mask="url(#mask1_13777)">
		<g style="mix-blend-mode:normal">
			<path id="Path 31925" d="M74.65 76.5C74.41 76.43 74.17 76.36 73.93 76.29C73.77 76.52 73.62 76.76 73.46 76.99C73.86 76.82 74.26 76.66 74.65 76.5Z" fill="#13202B" fill-opacity="1.000000" fill-rule="nonzero"/>
		</g>
	</g>
	<g mask="url(#mask1_13777)">
		<g style="mix-blend-mode:normal">
			<path id="Path 31926" d="M65.07 65.61C65.31 65.69 65.55 65.76 65.78 65.84C65.94 65.6 66.11 65.36 66.27 65.12C65.87 65.28 65.47 65.45 65.07 65.61Z" fill="#13202B" fill-opacity="1.000000" fill-rule="nonzero"/>
		</g>
	</g>
	<g mask="url(#mask1_13777)">
		<g style="mix-blend-mode:normal">
			<path id="Path 31927" d="M59.39 73.73C63.09 75.11 66.81 76.42 70.59 77.54C71.75 77.89 72.92 78.22 74.09 78.54C74.57 78.68 75.02 78.45 75.29 78.06C77.16 75.35 79.02 72.65 80.89 69.94C80.63 70.26 80.17 70.44 79.78 70.3C79.32 70.14 78.86 69.99 78.4 69.83C76.91 71.99 75.42 74.14 73.93 76.29C74.17 76.36 74.41 76.43 74.65 76.5C74.26 76.66 73.86 76.82 73.46 76.99C73.62 76.76 73.77 76.52 73.93 76.29C70.38 75.29 66.86 74.19 63.39 72.94C62.71 72.7 62.03 72.45 61.35 72.2C61.1 72.55 60.85 72.9 60.59 73.25C60.38 72.73 60.17 72.21 59.96 71.69C60.42 71.86 60.89 72.03 61.35 72.2C62.87 70.12 64.35 67.99 65.78 65.84C65.54 65.76 65.31 65.69 65.07 65.61C65.47 65.45 65.87 65.28 66.27 65.12C66.11 65.36 65.94 65.6 65.78 65.84C69.24 66.98 72.75 67.99 76.21 69.11C76.94 69.34 77.67 69.59 78.4 69.83L79.15 68.75C79.44 68.32 79.91 68.13 80.39 68.28C76.51 66.93 72.53 65.75 68.62 64.53C67.62 64.22 66.62 63.9 65.63 63.56C65.17 63.41 64.69 63.67 64.44 64.05C62.61 66.8 60.73 69.52 58.76 72.18C58.56 72.44 58.58 72.84 58.7 73.12C58.84 73.44 59.07 73.62 59.39 73.73Z" fill="#13202B" fill-opacity="1.000000" fill-rule="nonzero"/>
		</g>
	</g>
	<g mask="url(#mask1_13777)">
		<g style="mix-blend-mode:normal">
			<path id="Path 31928" d="M79.14 68.75L78.4 69.83C78.86 69.99 79.32 70.14 79.78 70.3C80.17 70.44 80.63 70.26 80.89 69.94C80.9 69.92 80.97 69.82 80.98 69.8C81.01 69.75 81.07 69.62 81.08 69.56C81.21 68.99 80.92 68.49 80.39 68.28C79.91 68.13 79.44 68.32 79.14 68.75Z" fill="#13202B" fill-opacity="1.000000" fill-rule="nonzero"/>
		</g>
	</g>
	<g mask="url(#mask1_13777)">
		<g style="mix-blend-mode:normal">
			<path id="Path 31929" d="M81.08 69.56C81.07 69.61 81.05 69.66 81.03 69.71C81.26 69.25 81.04 68.6 80.6 68.36C80.53 68.33 80.46 68.3 80.39 68.28C80.92 68.49 81.21 68.99 81.08 69.56Z" fill="#13202B" fill-opacity="1.000000" fill-rule="nonzero"/>
		</g>
	</g>
	<g mask="url(#mask1_13777)">
		<g style="mix-blend-mode:normal">
			<path id="Path 31930" d="M56.46 77.65C56.7 77.73 56.94 77.81 57.18 77.88C57.34 77.64 57.5 77.4 57.66 77.16C57.26 77.32 56.86 77.48 56.46 77.65Z" fill="#13202B" fill-opacity="1.000000" fill-rule="nonzero"/>
		</g>
	</g>
	<g mask="url(#mask1_13777)">
		<g style="mix-blend-mode:normal">
			<path id="Path 31931" d="M50.97 85.67C51.03 85.69 51.09 85.71 51.16 85.72C51.09 85.69 51.03 85.68 50.97 85.67L51.52 85.66C51.67 85.07 51.83 84.48 51.98 83.89C51.76 83.71 51.8 83.73 51.6 83.65C51.21 83.81 50.72 83.95 50.33 84.11C50.41 84.01 50.48 83.91 50.55 83.81C50.11 84.19 50.01 85.01 50.48 85.39C50.74 85.59 50.66 85.55 50.97 85.67Z" fill="#13202B" fill-opacity="1.000000" fill-rule="nonzero"/>
		</g>
	</g>
	<g mask="url(#mask1_13777)">
		<g style="mix-blend-mode:normal">
			<path id="Path 31932" d="M65.73 88.44C65.49 88.36 65.26 88.29 65.02 88.21C64.86 88.45 64.69 88.69 64.53 88.93C64.93 88.76 65.33 88.6 65.73 88.44Z" fill="#13202B" fill-opacity="1.000000" fill-rule="nonzero"/>
		</g>
	</g>
	<g mask="url(#mask1_13777)">
		<g style="mix-blend-mode:normal">
			<path id="Path 31933" d="" fill="#13202B" fill-opacity="1.000000" fill-rule="nonzero"/>
		</g>
	</g>
	<g mask="url(#mask1_13777)">
		<g style="mix-blend-mode:normal">
			<path id="Path 31934" d="" fill="#13202B" fill-opacity="1.000000" fill-rule="nonzero"/>
		</g>
	</g>
	<g mask="url(#mask1_13777)">
		<g style="mix-blend-mode:normal">
			<path id="Path 31935" d="" fill="#13202B" fill-opacity="1.000000" fill-rule="nonzero"/>
		</g>
	</g>
	<g mask="url(#mask1_13777)">
		<g style="mix-blend-mode:normal">
			<path id="Path 31936" d="M70.85 82.24C70.39 82.08 69.93 81.93 69.47 81.77C67.99 83.92 66.5 86.06 65.02 88.21C65.26 88.29 65.49 88.36 65.73 88.44C65.33 88.6 64.93 88.76 64.53 88.93C64.69 88.69 64.86 88.45 65.02 88.21C62.89 87.53 60.77 86.81 58.65 86.09C56.75 85.43 54.85 84.77 52.94 84.11C52.69 84.47 52.43 84.83 52.16 85.18C51.94 85.48 51.56 85.76 51.16 85.71C51.42 85.79 51.68 85.91 51.93 86C52.74 86.28 53.55 86.56 54.36 86.85C56.69 87.66 59.02 88.46 61.36 89.24C62.62 89.66 63.89 90.08 65.16 90.48C65.64 90.63 66.1 90.38 66.36 90C68.23 87.29 70.1 84.59 71.96 81.88C71.7 82.2 71.24 82.38 70.85 82.24Z" fill="#13202B" fill-opacity="1.000000" fill-rule="nonzero"/>
		</g>
	</g>
	<g mask="url(#mask1_13777)">
		<g style="mix-blend-mode:normal">
			<path id="Path 31937" d="M70.22 80.68C69.97 81.05 69.72 81.41 69.47 81.77C69.93 81.93 70.39 82.08 70.85 82.24C71.24 82.38 71.7 82.2 71.96 81.88C71.97 81.87 72.05 81.76 72.06 81.74C72.08 81.69 72.14 81.56 72.16 81.5C72.29 80.93 71.99 80.43 71.46 80.22C70.99 80.07 70.51 80.26 70.22 80.68Z" fill="#13202B" fill-opacity="1.000000" fill-rule="nonzero"/>
		</g>
	</g>
	<g mask="url(#mask1_13777)">
		<g style="mix-blend-mode:normal">
			<path id="Path 31938" d="M51.5 83.63C51.86 83.71 52.3 83.89 52.65 84.01C52.75 84.04 52.85 84.08 52.94 84.11C54.41 82.07 55.79 79.98 57.18 77.88C56.94 77.8 56.7 77.73 56.46 77.65C56.86 77.48 57.26 77.32 57.66 77.16C57.5 77.4 57.34 77.64 57.18 77.88C60.54 78.99 63.95 79.97 67.32 81.06C68.04 81.29 68.75 81.53 69.47 81.77C69.72 81.41 69.97 81.05 70.22 80.68C70.51 80.26 70.99 80.07 71.46 80.22C67.68 78.9 63.79 77.75 59.97 76.55C58.98 76.25 58 75.93 57.02 75.6C56.56 75.44 56.08 75.71 55.83 76.09C54.1 78.68 52.4 81.3 50.55 83.81C50.67 83.71 50.8 83.64 50.95 83.62C51.14 83.59 51.32 83.6 51.5 83.63Z" fill="#13202B" fill-opacity="1.000000" fill-rule="nonzero"/>
		</g>
	</g>
	<g mask="url(#mask1_13777)">
		<g style="mix-blend-mode:normal">
			<path id="Path 31939" d="" fill="#13202B" fill-opacity="1.000000" fill-rule="nonzero"/>
		</g>
	</g>
	<g mask="url(#mask1_13777)">
		<g style="mix-blend-mode:normal">
			<path id="Path 31940" d="M72.16 81.5C72.14 81.56 72.12 81.6 72.1 81.65C72.33 81.19 72.12 80.54 71.67 80.3C71.6 80.27 71.53 80.24 71.46 80.22C71.99 80.43 72.29 80.93 72.16 81.5Z" fill="#13202B" fill-opacity="1.000000" fill-rule="nonzero"/>
		</g>
	</g>
	<g mask="url(#mask1_13777)">
		<g style="mix-blend-mode:normal">
			<path id="Path 31941" d="M51.5 83.63C51.32 83.6 51.14 83.59 50.95 83.62C50.8 83.64 50.67 83.71 50.55 83.81C50.48 83.91 50.41 84.01 50.33 84.11L51.5 83.63Z" fill="#13202B" fill-opacity="1.000000" fill-rule="nonzero"/>
		</g>
	</g>
	<g mask="url(#mask1_13777)">
		<g style="mix-blend-mode:normal">
			<path id="Path 31942" d="M52.16 85.18C52.43 84.83 52.69 84.47 52.94 84.11C52.85 84.08 52.75 84.04 52.65 84.01C52.3 83.89 51.96 83.73 51.6 83.65C51.8 83.73 51.76 83.71 51.99 83.89C51.83 84.48 51.67 85.07 51.52 85.66L50.95 85.66C51.02 85.68 51.09 85.69 51.16 85.71C51.56 85.76 51.94 85.48 52.16 85.18Z" fill="#13202B" fill-opacity="1.000000" fill-rule="nonzero"/>
		</g>
	</g>
	<g mask="url(#mask1_13777)">
		<g style="mix-blend-mode:normal">
			<path id="Path 31943" d="" fill="#13202B" fill-opacity="1.000000" fill-rule="nonzero"/>
		</g>
	</g>
	<g mask="url(#mask1_13777)">
		<g style="mix-blend-mode:normal">
			<path id="Path 31944" d="" fill="#13202B" fill-opacity="1.000000" fill-rule="nonzero"/>
		</g>
	</g>
	<g mask="url(#mask1_13777)">
		<g style="mix-blend-mode:normal">
			<path id="Path 31945" d="" fill="#13202B" fill-opacity="1.000000" fill-rule="nonzero"/>
		</g>
	</g>
	<g mask="url(#mask1_13777)">
		<g style="mix-blend-mode:normal">
			<path id="Path 31946" d="M68.86 50.38C68.86 50.42 68.85 50.46 68.84 50.5C68.85 50.46 68.86 50.42 68.86 50.38Z" fill="#13202B" fill-opacity="1.000000" fill-rule="nonzero"/>
		</g>
	</g>
	<g mask="url(#mask1_13777)">
		<g style="mix-blend-mode:normal">
			<path id="Path 31947" d="M62.98 57.87C62.72 57.79 62.47 57.71 62.22 57.62C62.07 57.87 61.93 58.11 61.78 58.36C62.18 58.2 62.58 58.04 62.98 57.87Z" fill="#13202B" fill-opacity="1.000000" fill-rule="nonzero"/>
		</g>
	</g>
	<g mask="url(#mask1_13777)">
		<g style="mix-blend-mode:normal">
			<path id="Path 31948" d="M52.91 46.99C53.17 47.06 53.43 47.13 53.69 47.2C53.83 46.97 53.97 46.74 54.1 46.5C53.7 46.67 53.31 46.83 52.91 46.99Z" fill="#13202B" fill-opacity="1.000000" fill-rule="nonzero"/>
		</g>
	</g>
	<g mask="url(#mask1_13777)">
		<g style="mix-blend-mode:normal">
			<path id="Path 31949" d="M68.35 49.37C68.69 49.57 68.87 49.94 68.86 50.33C68.87 49.95 68.69 49.56 68.35 49.37Z" fill="#13202B" fill-opacity="1.000000" fill-rule="nonzero"/>
		</g>
	</g>
	<g mask="url(#mask1_13777)">
		<g style="mix-blend-mode:normal">
			<path id="Path 31950" d="M68.32 49.36C67.82 49.11 67.19 49.25 66.89 49.75L66.19 50.94C66.64 51.06 67.08 51.19 67.53 51.31C67.97 51.43 68.48 51.23 68.72 50.84C68.75 50.79 68.78 50.71 68.8 50.66C68.82 50.61 68.84 50.54 68.84 50.5C68.85 50.46 68.86 50.42 68.86 50.38C68.87 49.98 68.67 49.56 68.32 49.36Z" fill="#13202B" fill-opacity="1.000000" fill-rule="nonzero"/>
		</g>
	</g>
	<g mask="url(#mask1_13777)">
		<g style="mix-blend-mode:normal">
			<path id="Path 31951" d="M48.73 54.62C48.97 54.24 49.21 53.88 49.46 53.51C49 53.36 48.55 53.21 48.09 53.06C48.3 53.58 48.51 54.1 48.73 54.62Z" fill="#13202B" fill-opacity="1.000000" fill-rule="nonzero"/>
		</g>
	</g>
	<g mask="url(#mask1_13777)">
		<g style="mix-blend-mode:normal">
			<path id="Path 31952" d="M68.72 50.84C68.75 50.78 68.78 50.72 68.8 50.66C68.78 50.71 68.75 50.79 68.72 50.84Z" fill="#13202B" fill-opacity="1.000000" fill-rule="nonzero"/>
		</g>
	</g>
	<g mask="url(#mask1_13777)">
		<g style="mix-blend-mode:normal">
			<path id="Path 31953" d="M67.53 51.31C67.08 51.19 66.64 51.06 66.19 50.94L62.22 57.62C62.47 57.71 62.72 57.79 62.98 57.87C62.58 58.04 62.18 58.2 61.78 58.36C61.93 58.12 62.07 57.87 62.22 57.62C58.57 56.41 54.9 55.28 51.25 54.1C50.65 53.9 50.06 53.7 49.46 53.51C49.21 53.88 48.97 54.24 48.73 54.62C48.51 54.1 48.3 53.58 48.09 53.06C48.55 53.21 49 53.36 49.46 53.51C50.87 51.41 52.38 49.37 53.69 47.2C53.43 47.13 53.17 47.06 52.91 46.99C53.31 46.83 53.7 46.67 54.1 46.5C53.97 46.74 53.83 46.97 53.69 47.2C57.13 48.14 60.52 49.27 63.93 50.28C64.69 50.51 65.44 50.72 66.19 50.94L66.89 49.75C67.19 49.25 67.82 49.11 68.32 49.36C68.25 49.32 68.18 49.29 68.09 49.27C64.19 48.2 60.35 46.93 56.47 45.79C55.47 45.49 54.47 45.21 53.47 44.95C53.02 44.83 52.51 45.02 52.27 45.43C50.66 48.26 48.65 50.82 46.89 53.55C46.5 54.15 46.91 54.9 47.53 55.1C51.42 56.41 55.35 57.62 59.25 58.88C60.31 59.22 61.36 59.57 62.41 59.92C62.86 60.07 63.38 59.82 63.61 59.43C65.31 56.57 67.01 53.71 68.72 50.84C68.48 51.23 67.97 51.43 67.53 51.31Z" fill="#13202B" fill-opacity="1.000000" fill-rule="nonzero"/>
		</g>
	</g>
	<g mask="url(#mask1_13777)">
		<g style="mix-blend-mode:normal">
			<path id="Path 31954" d="" fill="#13202B" fill-opacity="1.000000" fill-rule="nonzero"/>
		</g>
	</g>
	<g mask="url(#mask1_13777)">
		<g style="mix-blend-mode:normal">
			<path id="Path 31955" d="M40.36 65.99C40.07 65.86 39.78 65.74 39.5 65.61C39.57 66.16 39.64 66.72 39.71 67.27C40.02 66.89 40.33 66.5 40.64 66.11C40.55 66.07 40.45 66.03 40.36 65.99Z" fill="#13202B" fill-opacity="1.000000" fill-rule="nonzero"/>
		</g>
	</g>
	<g mask="url(#mask1_13777)">
		<g style="mix-blend-mode:normal">
			<path id="Path 31956" d="M54.21 70.54C53.97 70.47 53.73 70.4 53.49 70.33C53.33 70.56 53.17 70.79 53.01 71.03C53.41 70.86 53.81 70.7 54.21 70.54Z" fill="#13202B" fill-opacity="1.000000" fill-rule="nonzero"/>
		</g>
	</g>
	<g mask="url(#mask1_13777)">
		<g style="mix-blend-mode:normal">
			<path id="Path 31957" d="" fill="#13202B" fill-opacity="1.000000" fill-rule="nonzero"/>
		</g>
	</g>
	<g mask="url(#mask1_13777)">
		<g style="mix-blend-mode:normal">
			<path id="Path 31958" d="" fill="#13202B" fill-opacity="1.000000" fill-rule="nonzero"/>
		</g>
	</g>
	<g mask="url(#mask1_13777)">
		<g style="mix-blend-mode:normal">
			<path id="Path 31959" d="" fill="#13202B" fill-opacity="1.000000" fill-rule="nonzero"/>
		</g>
	</g>
	<g mask="url(#mask1_13777)">
		<g style="mix-blend-mode:normal">
			<path id="Path 31960" d="M58.7 62.79C58.45 63.15 58.2 63.51 57.95 63.87C58.41 64.03 58.87 64.18 59.33 64.34C59.72 64.48 60.18 64.3 60.45 63.98C60.46 63.97 60.53 63.86 60.54 63.84C60.56 63.79 60.63 63.66 60.64 63.6C60.77 63.03 60.48 62.53 59.95 62.32C59.47 62.17 59 62.36 58.7 62.79Z" fill="#13202B" fill-opacity="1.000000" fill-rule="nonzero"/>
		</g>
	</g>
	<g mask="url(#mask1_13777)">
		<g style="mix-blend-mode:normal">
			<path id="Path 31961" d="" fill="#13202B" fill-opacity="1.000000" fill-rule="nonzero"/>
		</g>
	</g>
	<g mask="url(#mask1_13777)">
		<g style="mix-blend-mode:normal">
			<path id="Path 31962" d="M40.18 63.28C40.06 63.44 39.94 63.6 39.81 63.75C39.45 64.21 39.09 64.67 38.73 65.13C38.56 65.35 38.38 65.56 38.21 65.77C37.99 66.05 37.87 66.31 37.92 66.67C37.96 66.97 38.13 67.31 38.43 67.44C42.18 69.14 46.1 70.37 50.05 71.53C51.25 71.88 52.45 72.23 53.65 72.58C54.12 72.73 54.58 72.48 54.84 72.1C56.71 69.39 58.58 66.69 60.45 63.98C60.18 64.3 59.72 64.48 59.33 64.34C58.87 64.18 58.41 64.03 57.95 63.87C56.46 66.03 54.98 68.18 53.49 70.33C53.73 70.4 53.97 70.47 54.21 70.54C53.81 70.7 53.41 70.86 53.01 71.03C53.17 70.79 53.33 70.56 53.49 70.33C49.8 69.24 46.08 68.22 42.48 66.84C41.97 66.65 41.46 66.45 40.95 66.24C40.9 66.22 40.84 66.19 40.78 66.17C40.77 66.17 40.69 66.13 40.64 66.11L40.78 66.17C40.76 66.16 40.66 66.12 40.64 66.11C40.33 66.5 40.02 66.89 39.71 67.27C39.64 66.72 39.57 66.16 39.5 65.61C39.78 65.74 40.07 65.86 40.36 65.99C40.45 66.03 40.55 66.07 40.64 66.11C41.88 64.56 43.09 62.98 44.26 61.38C44.61 60.91 44.94 60.44 45.28 59.96C45.04 59.88 44.81 59.81 44.57 59.73C44.97 59.56 45.37 59.4 45.77 59.24C45.61 59.48 45.44 59.72 45.28 59.96C48.75 61.1 52.28 62.06 55.76 63.16C56.49 63.39 57.22 63.63 57.95 63.87C58.2 63.51 58.45 63.15 58.7 62.79C59 62.36 59.47 62.17 59.95 62.32C56.06 60.97 52.06 59.84 48.13 58.64C47.13 58.33 46.13 58.01 45.14 57.68C44.68 57.53 44.19 57.79 43.94 58.17C43.06 59.5 42.1 60.78 41.13 62.05C40.89 62.36 40.67 62.71 40.4 62.99C40.35 63.06 40.24 63.21 40.18 63.28Z" fill="#13202B" fill-opacity="1.000000" fill-rule="nonzero"/>
		</g>
	</g>
	<g mask="url(#mask1_13777)">
		<g style="mix-blend-mode:normal">
			<path id="Path 31963" d="M60.64 63.6C60.63 63.66 60.61 63.71 60.58 63.75C60.81 63.3 60.6 62.64 60.15 62.41C60.08 62.37 60.01 62.34 59.95 62.32C60.48 62.53 60.77 63.03 60.64 63.6Z" fill="#13202B" fill-opacity="1.000000" fill-rule="nonzero"/>
		</g>
	</g>
	<g mask="url(#mask1_13777)">
		<g style="mix-blend-mode:normal">
			<path id="Path 31964" d="" fill="#13202B" fill-opacity="1.000000" fill-rule="nonzero"/>
		</g>
	</g>
	<g mask="url(#mask1_13777)">
		<g style="mix-blend-mode:normal">
			<path id="Path 31965" d="M44.57 59.73C44.81 59.81 45.04 59.88 45.28 59.96C45.44 59.72 45.61 59.48 45.77 59.24C45.37 59.4 44.97 59.56 44.57 59.73Z" fill="#13202B" fill-opacity="1.000000" fill-rule="nonzero"/>
		</g>
	</g>
	<g mask="url(#mask1_13777)">
		<g style="mix-blend-mode:normal">
			<path id="Path 31966" d="M31.22 77.77C31.06 77.7 30.83 77.6 30.67 77.53L31.05 78.98C31.11 78.9 31.17 78.82 31.24 78.73C31.26 78.71 31.34 78.6 31.36 78.57C31.46 78.45 31.55 78.33 31.65 78.2C31.7 78.14 31.76 78.08 31.81 78.01C31.66 77.95 31.52 77.89 31.37 77.83C31.32 77.81 31.27 77.79 31.22 77.77Z" fill="#13202B" fill-opacity="1.000000" fill-rule="nonzero"/>
		</g>
	</g>
	<g mask="url(#mask1_13777)">
		<g style="mix-blend-mode:normal">
			<path id="Path 31967" d="" fill="#13202B" fill-opacity="1.000000" fill-rule="nonzero"/>
		</g>
	</g>
	<g mask="url(#mask1_13777)">
		<g style="mix-blend-mode:normal">
			<path id="Path 31968" d="" fill="#13202B" fill-opacity="1.000000" fill-rule="nonzero"/>
		</g>
	</g>
	<g mask="url(#mask1_13777)">
		<g style="mix-blend-mode:normal">
			<path id="Path 31969" d="" fill="#13202B" fill-opacity="1.000000" fill-rule="nonzero"/>
		</g>
	</g>
	<g mask="url(#mask1_13777)">
		<g style="mix-blend-mode:normal">
			<path id="Path 31970" d="M45.28 82.48C45.05 82.4 44.82 82.32 44.59 82.24C44.42 82.48 44.25 82.72 44.08 82.97C44.48 82.8 44.88 82.64 45.28 82.48Z" fill="#13202B" fill-opacity="1.000000" fill-rule="nonzero"/>
		</g>
	</g>
	<g mask="url(#mask1_13777)">
		<g style="mix-blend-mode:normal">
			<path id="Path 31971" d="" fill="#13202B" fill-opacity="1.000000" fill-rule="nonzero"/>
		</g>
	</g>
	<g mask="url(#mask1_13777)">
		<g style="mix-blend-mode:normal">
			<path id="Path 31972" d="" fill="#13202B" fill-opacity="1.000000" fill-rule="nonzero"/>
		</g>
	</g>
	<g mask="url(#mask1_13777)">
		<g style="mix-blend-mode:normal">
			<path id="Path 31973" d="M41.36 83.42C42.49 83.77 43.61 84.13 44.72 84.52C45.18 84.69 45.66 84.41 45.92 84.04C47.78 81.34 49.64 78.64 51.5 75.94C51.24 76.24 50.8 76.38 50.41 76.28C49.92 76.17 49.44 76.04 48.95 75.92C47.5 78.02 46.04 80.13 44.59 82.24C44.82 82.32 45.05 82.4 45.28 82.48C44.88 82.64 44.48 82.8 44.08 82.97C44.25 82.72 44.42 82.48 44.59 82.24C41.01 81.03 37.36 80.06 33.81 78.78C33.28 78.59 32.75 78.39 32.22 78.18C32.08 78.12 31.95 78.07 31.81 78.01C31.76 78.08 31.7 78.14 31.65 78.2C31.55 78.33 31.46 78.45 31.36 78.57C31.34 78.6 31.26 78.71 31.24 78.73C31.17 78.82 31.11 78.9 31.05 78.98L30.67 77.53C30.83 77.6 30.99 77.67 31.15 77.74C31.2 77.76 31.32 77.81 31.37 77.83C31.52 77.89 31.66 77.95 31.81 78.01C32 77.77 32.2 77.53 32.4 77.29C32.92 76.65 33.45 76.03 33.97 75.4C34.9 74.29 35.8 73.16 36.64 71.98C36.4 71.9 36.17 71.82 35.94 71.74C36.34 71.58 36.74 71.42 37.14 71.26C36.98 71.5 36.8 71.74 36.64 71.98C39.96 73.12 43.27 74.33 46.65 75.29C47.41 75.51 48.18 75.72 48.95 75.92C49.22 75.52 49.5 75.12 49.77 74.73C50.11 74.24 50.68 74.06 51.22 74.34C51.28 74.37 51.32 74.41 51.37 74.45C51.26 74.35 51.13 74.28 50.97 74.24C47.04 73.29 43.22 72.03 39.41 70.7C38.44 70.36 37.47 70.03 36.51 69.7C36.04 69.54 35.56 69.81 35.31 70.19C35.07 70.54 34.83 70.89 34.58 71.23C34.45 71.41 34.32 71.59 34.18 71.77C34.12 71.85 34.06 71.93 34 72C33.49 72.66 32.89 73.4 32.35 74.04C31.29 75.32 30.21 76.58 29.22 77.91C28.9 78.34 29.11 79.15 29.6 79.36C33.41 81.04 37.4 82.18 41.36 83.42Z" fill="#13202B" fill-opacity="1.000000" fill-rule="nonzero"/>
		</g>
	</g>
	<g mask="url(#mask1_13777)">
		<g style="mix-blend-mode:normal">
			<path id="Path 31974" d="M49.77 74.73C49.5 75.12 49.22 75.52 48.95 75.92C49.44 76.04 49.92 76.17 50.41 76.28C50.8 76.38 51.24 76.24 51.5 75.94L51.6 75.8C51.63 75.76 51.64 75.73 51.66 75.69C51.68 75.64 51.7 75.59 51.71 75.54C51.79 75.21 51.71 74.84 51.5 74.58C51.47 74.55 51.4 74.47 51.37 74.45C51.32 74.41 51.28 74.37 51.22 74.34C50.68 74.06 50.11 74.24 49.77 74.73Z" fill="#13202B" fill-opacity="1.000000" fill-rule="nonzero"/>
		</g>
	</g>
	<g mask="url(#mask1_13777)">
		<g style="mix-blend-mode:normal">
			<path id="Path 31975" d="M51.5 75.94C51.57 75.87 51.62 75.78 51.66 75.69C51.64 75.73 51.63 75.76 51.6 75.8L51.5 75.94Z" fill="#13202B" fill-opacity="1.000000" fill-rule="nonzero"/>
		</g>
	</g>
	<g mask="url(#mask1_13777)">
		<g style="mix-blend-mode:normal">
			<path id="Path 31976" d="M51.71 75.54C51.7 75.59 51.68 75.64 51.66 75.69C51.83 75.34 51.75 74.88 51.5 74.58C51.71 74.84 51.79 75.21 51.71 75.54Z" fill="#13202B" fill-opacity="1.000000" fill-rule="nonzero"/>
		</g>
	</g>
	<g mask="url(#mask1_13777)">
		<g style="mix-blend-mode:normal">
			<path id="Path 31977" d="M35.94 71.74C36.17 71.82 36.4 71.9 36.64 71.98C36.8 71.74 36.98 71.5 37.14 71.26C36.74 71.42 36.34 71.58 35.94 71.74Z" fill="#13202B" fill-opacity="1.000000" fill-rule="nonzero"/>
		</g>
	</g>
	<g mask="url(#mask1_13777)">
		<g style="mix-blend-mode:normal">
			<path id="Path 31978" d="" fill="#13202B" fill-opacity="1.000000" fill-rule="nonzero"/>
		</g>
	</g>
	<g mask="url(#mask1_13777)">
		<g style="mix-blend-mode:normal">
			<path id="Path 31979" d="M42.56 51.45C42.31 51.36 42.05 51.28 41.8 51.19C41.65 51.44 41.51 51.69 41.36 51.93C41.76 51.77 42.16 51.61 42.56 51.45Z" fill="#13202B" fill-opacity="1.000000" fill-rule="nonzero"/>
		</g>
	</g>
	<g mask="url(#mask1_13777)">
		<g style="mix-blend-mode:normal">
			<path id="Path 31980" d="" fill="#13202B" fill-opacity="1.000000" fill-rule="nonzero"/>
		</g>
	</g>
	<g mask="url(#mask1_13777)">
		<g style="mix-blend-mode:normal">
			<path id="Path 31981" d="" fill="#13202B" fill-opacity="1.000000" fill-rule="nonzero"/>
		</g>
	</g>
	<g mask="url(#mask1_13777)">
		<g style="mix-blend-mode:normal">
			<path id="Path 31982" d="M28.31 48.19C28.55 47.82 28.79 47.45 29.04 47.08C28.58 46.93 28.13 46.78 27.67 46.63C27.88 47.15 28.09 47.67 28.31 48.19Z" fill="#13202B" fill-opacity="1.000000" fill-rule="nonzero"/>
		</g>
	</g>
	<g mask="url(#mask1_13777)">
		<g style="mix-blend-mode:normal">
			<path id="Path 31983" d="M48.44 43.95C48.44 43.99 48.43 44.03 48.42 44.07C48.43 44.03 48.44 43.99 48.44 43.95Z" fill="#13202B" fill-opacity="1.000000" fill-rule="nonzero"/>
		</g>
	</g>
	<g mask="url(#mask1_13777)">
		<g style="mix-blend-mode:normal">
			<path id="Path 31984" d="M47.9 42.93C47.4 42.68 46.77 42.82 46.48 43.32L45.77 44.51C46.22 44.63 46.66 44.76 47.11 44.88C47.55 45 48.06 44.8 48.3 44.41C48.33 44.36 48.36 44.29 48.38 44.23C48.4 44.19 48.42 44.11 48.42 44.07C48.43 44.03 48.44 43.99 48.44 43.95C48.45 43.55 48.25 43.13 47.9 42.93Z" fill="#13202B" fill-opacity="1.000000" fill-rule="nonzero"/>
		</g>
	</g>
	<g mask="url(#mask1_13777)">
		<g style="mix-blend-mode:normal">
			<path id="Path 31985" d="M32.49 40.56C32.75 40.63 33.01 40.7 33.27 40.78C33.41 40.54 33.55 40.31 33.68 40.08C33.29 40.24 32.89 40.4 32.49 40.56Z" fill="#13202B" fill-opacity="1.000000" fill-rule="nonzero"/>
		</g>
	</g>
	<g mask="url(#mask1_13777)">
		<g style="mix-blend-mode:normal">
			<path id="Path 31986" d="M47.93 42.94C48.27 43.14 48.45 43.51 48.44 43.91C48.45 43.52 48.27 43.13 47.93 42.94Z" fill="#13202B" fill-opacity="1.000000" fill-rule="nonzero"/>
		</g>
	</g>
	<g mask="url(#mask1_13777)">
		<g style="mix-blend-mode:normal">
			<path id="Path 31987" d="M48.3 44.41C48.33 44.35 48.36 44.29 48.38 44.23C48.36 44.29 48.33 44.36 48.3 44.41Z" fill="#13202B" fill-opacity="1.000000" fill-rule="nonzero"/>
		</g>
	</g>
	<g mask="url(#mask1_13777)">
		<g style="mix-blend-mode:normal">
			<path id="Path 31988" d="M47.11 44.88C46.66 44.76 46.22 44.63 45.77 44.51C44.45 46.74 43.12 48.97 41.8 51.19C42.05 51.28 42.31 51.36 42.56 51.45C42.16 51.61 41.76 51.77 41.36 51.93C41.51 51.69 41.65 51.44 41.8 51.19C38.15 49.98 34.49 48.85 30.83 47.67C30.23 47.48 29.64 47.28 29.04 47.08C28.79 47.45 28.55 47.82 28.31 48.19C28.09 47.67 27.88 47.15 27.67 46.63C28.13 46.78 28.58 46.93 29.04 47.08C30.45 44.98 31.96 42.95 33.27 40.78C33.01 40.7 32.75 40.63 32.49 40.56C32.89 40.4 33.29 40.24 33.68 40.08C33.55 40.31 33.41 40.54 33.27 40.78C36.71 41.71 40.1 42.84 43.52 43.85C44.27 44.08 45.02 44.29 45.77 44.51L46.48 43.32C46.77 42.82 47.4 42.68 47.9 42.93C47.83 42.89 47.76 42.86 47.67 42.84C43.77 41.77 39.93 40.5 36.05 39.36C35.05 39.06 34.05 38.78 33.05 38.52C32.6 38.4 32.09 38.59 31.85 39C30.24 41.83 28.23 44.39 26.47 47.12C26.08 47.72 26.49 48.47 27.11 48.68C31 49.98 34.93 51.19 38.83 52.45C39.89 52.79 40.94 53.14 41.99 53.49C42.44 53.64 42.96 53.39 43.19 53C44.89 50.14 46.6 47.28 48.3 44.41C48.06 44.8 47.55 45 47.11 44.88Z" fill="#13202B" fill-opacity="1.000000" fill-rule="nonzero"/>
		</g>
	</g>
	<g mask="url(#mask1_13777)">
		<g style="mix-blend-mode:normal">
			<path id="Path 31989" d="" fill="#13202B" fill-opacity="1.000000" fill-rule="nonzero"/>
		</g>
	</g>
	<g mask="url(#mask1_13777)">
		<g style="mix-blend-mode:normal">
			<path id="Path 31990" d="M33.69 63.48C33.47 63.38 33.24 63.29 33.02 63.2L32.5 63.96C32.89 63.8 33.29 63.64 33.69 63.48Z" fill="#13202B" fill-opacity="1.000000" fill-rule="nonzero"/>
		</g>
	</g>
	<g mask="url(#mask1_13777)">
		<g style="mix-blend-mode:normal">
			<path id="Path 31991" d="" fill="#13202B" fill-opacity="1.000000" fill-rule="nonzero"/>
		</g>
	</g>
	<g mask="url(#mask1_13777)">
		<g style="mix-blend-mode:normal">
			<path id="Path 31992" d="" fill="#13202B" fill-opacity="1.000000" fill-rule="nonzero"/>
		</g>
	</g>
	<g mask="url(#mask1_13777)">
		<g style="mix-blend-mode:normal">
			<path id="Path 31993" d="" fill="#13202B" fill-opacity="1.000000" fill-rule="nonzero"/>
		</g>
	</g>
	<g mask="url(#mask1_13777)">
		<g style="mix-blend-mode:normal">
			<path id="Path 31994" d="" fill="#13202B" fill-opacity="1.000000" fill-rule="nonzero"/>
		</g>
	</g>
	<g mask="url(#mask1_13777)">
		<g style="mix-blend-mode:normal">
			<path id="Path 31995" d="M19.8 59.22C19.92 59.07 20.03 58.92 20.14 58.77C20.17 58.74 20.23 58.66 20.25 58.64C20.23 58.65 20.16 58.75 20.14 58.77C20.19 58.71 20.26 58.62 20.25 58.64C20.3 58.57 20.35 58.5 20.4 58.43C20.46 58.36 20.51 58.3 20.57 58.23C20.1 58.04 19.63 57.85 19.17 57.66C19.38 58.18 19.59 58.7 19.8 59.22Z" fill="#13202B" fill-opacity="1.000000" fill-rule="nonzero"/>
		</g>
	</g>
	<g mask="url(#mask1_13777)">
		<g style="mix-blend-mode:normal">
			<path id="Path 31996" d="M38.18 55.72L37.44 56.81C37.9 56.96 38.36 57.12 38.82 57.28C39.21 57.42 39.67 57.24 39.93 56.92C39.94 56.9 40.01 56.8 40.02 56.78C40.04 56.73 40.11 56.59 40.12 56.54C40.25 55.97 39.96 55.46 39.43 55.26C38.95 55.11 38.48 55.3 38.18 55.72Z" fill="#13202B" fill-opacity="1.000000" fill-rule="nonzero"/>
		</g>
	</g>
	<g mask="url(#mask1_13777)">
		<g style="mix-blend-mode:normal">
			<path id="Path 31997" d="M40.12 56.54C40.11 56.59 40.09 56.64 40.07 56.69C40.29 56.23 40.08 55.58 39.64 55.34C39.57 55.31 39.5 55.28 39.43 55.26C39.96 55.46 40.25 55.97 40.12 56.54Z" fill="#13202B" fill-opacity="1.000000" fill-rule="nonzero"/>
		</g>
	</g>
	<g mask="url(#mask1_13777)">
		<g style="mix-blend-mode:normal">
			<path id="Path 31998" d="M18.6 59.71C22.4 61.28 26.24 62.75 30.05 64.27C31.08 64.68 32.1 65.1 33.13 65.52C33.58 65.71 34.08 65.39 34.33 65.04C36.19 62.33 38.06 59.62 39.93 56.92C39.67 57.24 39.21 57.42 38.82 57.28C38.36 57.12 37.9 56.96 37.44 56.81L33.02 63.2C33.24 63.29 33.47 63.38 33.69 63.48C33.29 63.64 32.89 63.8 32.5 63.96L33.02 63.2C29.45 61.74 25.84 60.35 22.25 58.91C21.69 58.69 21.13 58.46 20.57 58.23C20.51 58.3 20.46 58.36 20.4 58.43C20.35 58.5 20.3 58.57 20.25 58.64C20.23 58.66 20.17 58.74 20.14 58.77C20.03 58.92 19.92 59.07 19.8 59.22C19.59 58.7 19.38 58.18 19.17 57.66C19.63 57.85 20.1 58.04 20.57 58.23C20.74 58.01 20.91 57.8 21.08 57.58C21.54 57.02 22.01 56.45 22.47 55.89C23.31 54.85 24.12 53.8 24.89 52.71C24.65 52.63 24.42 52.56 24.18 52.48C24.58 52.32 24.98 52.15 25.38 51.99C25.22 52.23 25.05 52.47 24.89 52.71C28.34 53.86 31.81 54.93 35.26 56.07C35.99 56.31 36.71 56.56 37.44 56.81L38.18 55.72C38.48 55.3 38.95 55.11 39.43 55.26C35.57 53.91 31.62 52.67 27.72 51.41C26.73 51.09 25.74 50.77 24.75 50.43C24.29 50.28 23.8 50.54 23.55 50.92C23.1 51.6 22.63 52.26 22.14 52.91C22.08 52.98 22.02 53.06 21.97 53.13C21.94 53.16 21.9 53.22 21.88 53.25C21.76 53.4 21.65 53.54 21.53 53.68C21.31 53.97 21.08 54.25 20.85 54.53C19.88 55.72 18.89 56.91 17.97 58.15C17.77 58.41 17.8 58.81 17.92 59.09C18.06 59.42 18.29 59.58 18.6 59.71Z" fill="#13202B" fill-opacity="1.000000" fill-rule="nonzero"/>
		</g>
	</g>
	<g mask="url(#mask1_13777)">
		<g style="mix-blend-mode:normal">
			<path id="Path 31999" d="M24.18 52.48C24.42 52.56 24.65 52.63 24.89 52.71C25.05 52.47 25.22 52.23 25.38 51.99C24.98 52.15 24.58 52.32 24.18 52.48Z" fill="#13202B" fill-opacity="1.000000" fill-rule="nonzero"/>
		</g>
	</g>
	<g mask="url(#mask1_13777)">
		<g style="mix-blend-mode:normal">
			<path id="Path 32000" d="" fill="#13202B" fill-opacity="1.000000" fill-rule="nonzero"/>
		</g>
	</g>
	<g mask="url(#mask1_13777)">
		<g style="mix-blend-mode:normal">
			<path id="Path 32001" d="M24.77 75.42C24.54 75.32 24.32 75.23 24.09 75.14C23.92 75.4 23.74 75.65 23.57 75.9C23.97 75.74 24.37 75.58 24.77 75.42Z" fill="#13202B" fill-opacity="1.000000" fill-rule="nonzero"/>
		</g>
	</g>
	<g mask="url(#mask1_13777)">
		<g style="mix-blend-mode:normal">
			<path id="Path 32002" d="" fill="#13202B" fill-opacity="1.000000" fill-rule="nonzero"/>
		</g>
	</g>
	<g mask="url(#mask1_13777)">
		<g style="mix-blend-mode:normal">
			<path id="Path 32003" d="" fill="#13202B" fill-opacity="1.000000" fill-rule="nonzero"/>
		</g>
	</g>
	<g mask="url(#mask1_13777)">
		<g style="mix-blend-mode:normal">
			<path id="Path 32004" d="" fill="#13202B" fill-opacity="1.000000" fill-rule="nonzero"/>
		</g>
	</g>
	<g mask="url(#mask1_13777)">
		<g style="mix-blend-mode:normal">
			<path id="Path 32005" d="M15.6 63.92C15.83 64 16.06 64.08 16.29 64.16C16.46 63.92 16.63 63.68 16.79 63.43C16.39 63.59 15.99 63.76 15.6 63.92Z" fill="#13202B" fill-opacity="1.000000" fill-rule="nonzero"/>
		</g>
	</g>
	<g mask="url(#mask1_13777)">
		<g style="mix-blend-mode:normal">
			<path id="Path 32006" d="M9.68 71.65C13.47 73.22 17.31 74.69 21.12 76.21C22.15 76.62 23.18 77.04 24.2 77.46C24.65 77.65 25.15 77.33 25.4 76.98C27.27 74.27 29.13 71.57 31 68.86C30.74 69.18 30.28 69.36 29.89 69.22C29.43 69.06 28.97 68.9 28.52 68.73C27.04 70.87 25.57 73.01 24.09 75.14C24.32 75.23 24.54 75.32 24.77 75.42C24.37 75.58 23.97 75.74 23.57 75.9C23.74 75.65 23.92 75.4 24.09 75.14C20.52 73.68 16.91 72.29 13.32 70.85C12.76 70.63 12.2 70.4 11.64 70.17C11.59 70.23 11.54 70.29 11.49 70.35C11.45 70.4 11.41 70.46 11.37 70.51C11.35 70.54 11.28 70.62 11.26 70.65C11.13 70.82 11 70.99 10.88 71.16C10.66 70.64 10.45 70.12 10.24 69.6C10.71 69.79 11.17 69.98 11.64 70.17C11.83 69.92 12.02 69.68 12.21 69.44C12.71 68.82 13.21 68.2 13.71 67.57C14.6 66.46 15.47 65.33 16.29 64.16C16.06 64.08 15.83 64 15.6 63.92C15.99 63.76 16.39 63.59 16.79 63.43C16.63 63.68 16.46 63.92 16.29 64.16C19.68 65.34 23.01 66.7 26.37 67.95C27.09 68.22 27.8 68.48 28.52 68.73C28.76 68.38 29.01 68.02 29.26 67.66C29.55 67.24 30.03 67.05 30.5 67.2C26.68 65.86 22.89 64.32 19.09 62.91C18.12 62.55 17.14 62.2 16.16 61.87C15.7 61.72 15.21 61.98 14.96 62.36C14.49 63.06 14 63.75 13.5 64.43C13.37 64.59 13.24 64.76 13.11 64.93C13.05 65.01 12.92 65.17 12.86 65.25C12.61 65.57 12.35 65.9 12.09 66.22C11.07 67.5 10.03 68.77 9.04 70.09C8.85 70.35 8.87 70.75 8.99 71.03C9.13 71.36 9.36 71.52 9.68 71.65Z" fill="#13202B" fill-opacity="1.000000" fill-rule="nonzero"/>
		</g>
	</g>
	<g mask="url(#mask1_13777)">
		<g style="mix-blend-mode:normal">
			<path id="Path 32007" d="" fill="#13202B" fill-opacity="1.000000" fill-rule="nonzero"/>
		</g>
	</g>
	<g mask="url(#mask1_13777)">
		<g style="mix-blend-mode:normal">
			<path id="Path 32008" d="M10.88 71.16C11 70.99 11.13 70.82 11.26 70.65C11.28 70.62 11.35 70.54 11.37 70.51C11.35 70.53 11.28 70.63 11.26 70.65C11.32 70.58 11.38 70.49 11.37 70.51C11.41 70.46 11.45 70.4 11.49 70.35C11.54 70.29 11.59 70.23 11.64 70.17C11.17 69.98 10.71 69.79 10.24 69.6C10.45 70.12 10.66 70.64 10.88 71.16Z" fill="#13202B" fill-opacity="1.000000" fill-rule="nonzero"/>
		</g>
	</g>
	<g mask="url(#mask1_13777)">
		<g style="mix-blend-mode:normal">
			<path id="Path 32009" d="M29.26 67.66C29.01 68.02 28.76 68.38 28.52 68.73C28.97 68.9 29.43 69.06 29.89 69.22C30.28 69.36 30.74 69.18 31 68.86C31.01 68.84 31.09 68.74 31.09 68.72C31.12 68.67 31.18 68.53 31.2 68.48C31.33 67.91 31.03 67.4 30.5 67.2C30.03 67.05 29.55 67.24 29.26 67.66Z" fill="#13202B" fill-opacity="1.000000" fill-rule="nonzero"/>
		</g>
	</g>
	<g mask="url(#mask1_13777)">
		<g style="mix-blend-mode:normal">
			<path id="Path 32010" d="M31.2 68.48C31.18 68.53 31.16 68.58 31.14 68.63C31.37 68.17 31.15 67.52 30.71 67.28C30.64 67.25 30.57 67.22 30.5 67.2C31.03 67.4 31.33 67.91 31.2 68.48Z" fill="#13202B" fill-opacity="1.000000" fill-rule="nonzero"/>
		</g>
	</g>
	<g mask="url(#mask1_13777)">
		<g style="mix-blend-mode:normal">
			<path id="Path 32011" d="M96.56 46.48C96.7 46.52 96.83 46.56 96.97 46.6C96.73 46.5 96.48 46.41 96.24 46.31C96.33 46.39 96.44 46.44 96.56 46.48Z" fill="#13202B" fill-opacity="1.000000" fill-rule="nonzero"/>
		</g>
	</g>
	<g mask="url(#mask1_13777)">
		<g style="mix-blend-mode:normal">
			<path id="Path 32012" d="" fill="#13202B" fill-opacity="1.000000" fill-rule="nonzero"/>
		</g>
	</g>
	<g mask="url(#mask1_13777)">
		<g style="mix-blend-mode:normal">
			<path id="Path 32013" d="" fill="#13202B" fill-opacity="1.000000" fill-rule="nonzero"/>
		</g>
	</g>
	<g mask="url(#mask1_13777)">
		<g style="mix-blend-mode:normal">
			<path id="Path 32014" d="M93.71 48.9C93.69 48.93 93.66 48.97 93.6 49.06C93.68 49.03 93.8 48.88 93.71 48.9C93.57 48.95 93.74 48.92 93.97 48.97C93.8 48.96 94.25 49.05 94.08 48.99C93.96 48.96 93.83 48.94 93.71 48.9Z" fill="#13202B" fill-opacity="1.000000" fill-rule="nonzero"/>
		</g>
	</g>
	<g mask="url(#mask1_13777)">
		<g style="mix-blend-mode:normal">
			<path id="Path 32015" d="M93.6 49.06C93.63 49.02 93.65 48.98 93.68 48.94C93.65 48.98 93.63 49.02 93.6 49.06C93.57 49.08 93.51 49.13 93.49 49.15C93.47 49.17 93.55 49.1 93.6 49.06Z" fill="#13202B" fill-opacity="1.000000" fill-rule="nonzero"/>
		</g>
	</g>
	<g mask="url(#mask1_13777)">
		<g style="mix-blend-mode:normal">
			<path id="Path 32016" d="" fill="#13202B" fill-opacity="1.000000" fill-rule="nonzero"/>
		</g>
	</g>
	<g mask="url(#mask1_13777)">
		<g style="mix-blend-mode:normal">
			<path id="Path 32017" d="M93.6 49.06C93.66 48.97 93.69 48.93 93.71 48.9C93.68 48.94 93.63 49.02 93.6 49.06Z" fill="#13202B" fill-opacity="1.000000" fill-rule="nonzero"/>
		</g>
	</g>
	<g mask="url(#mask1_13777)">
		<g style="mix-blend-mode:normal">
			<path id="Path 32018" d="M85.01 43C85.3 43.06 85.58 43.13 85.87 43.19C85.98 42.96 86.09 42.74 86.21 42.51C85.81 42.68 85.41 42.84 85.01 43Z" fill="#13202B" fill-opacity="1.000000" fill-rule="nonzero"/>
		</g>
	</g>
	<g mask="url(#mask1_13777)">
		<g style="mix-blend-mode:normal">
			<path id="Path 32019" d="M95.82 45.18C95.79 45.32 95.79 45.46 95.8 45.59C95.89 45.45 95.98 45.31 96.07 45.17C96.38 44.68 96.96 44.53 97.47 44.77L97.53 44.55C97.4 44.51 97.26 44.47 97.13 44.43C96.6 44.28 95.95 44.62 95.82 45.18Z" fill="#13202B" fill-opacity="1.000000" fill-rule="nonzero"/>
		</g>
	</g>
	<g mask="url(#mask1_13777)">
		<g style="mix-blend-mode:normal">
			<path id="Path 32020" d="M97.52 44.79C97.35 45.4 97.14 45.99 96.97 46.6C97.22 46.67 97.49 46.63 97.73 46.52C97.79 46.42 97.84 46.33 97.9 46.24C98.2 45.77 98.01 45.05 97.52 44.79Z" fill="#13202B" fill-opacity="1.000000" fill-rule="nonzero"/>
		</g>
	</g>
	<g mask="url(#mask1_13777)">
		<g style="mix-blend-mode:normal">
			<path id="Path 32021" d="M97.52 44.79C98.01 45.05 98.2 45.77 97.9 46.24C97.84 46.33 97.79 46.42 97.73 46.52C97.99 46.38 98.21 46.15 98.27 45.86C98.41 45.25 98.09 44.78 97.53 44.55L97.52 44.79Z" fill="#13202B" fill-opacity="1.000000" fill-rule="nonzero"/>
		</g>
	</g>
	<g mask="url(#mask1_13777)">
		<g style="mix-blend-mode:normal">
			<path id="Path 32022" d="M83.77 47.66C85.1 48.15 86.45 48.6 87.79 49.06C89.11 49.52 90.43 49.98 91.75 50.44C92.3 50.63 92.84 50.84 93.4 51.01C93.68 51.1 93.98 51.11 94.27 51.05C94.88 50.92 95.27 50.37 95.6 49.89C96.18 49.05 96.69 48.17 97.23 47.3C97.4 47.04 97.56 46.78 97.73 46.52C97.49 46.63 97.22 46.67 96.97 46.6C96.83 46.56 96.7 46.52 96.56 46.48C96.44 46.44 96.33 46.39 96.24 46.32C96 46.22 95.76 46.13 95.52 46.04C95.05 46.8 94.58 47.56 94.1 48.31C93.98 48.5 93.85 48.69 93.73 48.88C93.84 48.91 93.96 48.96 94.08 48.99C94.25 49.05 93.73 48.97 93.9 48.97C93.67 48.93 93.63 49.03 93.77 48.99C93.86 48.96 93.71 49.03 93.62 49.06C93.57 49.1 93.47 49.17 93.49 49.15C93.51 49.13 93.6 49.09 93.62 49.06C93.66 49.03 93.69 48.92 93.73 48.88C93.55 48.82 93.38 48.76 93.2 48.7C91.84 48.23 90.49 47.75 89.13 47.28C87.66 46.78 86.18 46.28 84.71 45.75C84.57 46.06 84.34 46.35 84.18 46.64C84.19 46.6 84.21 46.55 84.23 46.49C84.32 46.16 84.21 45.77 83.97 45.52C84.07 45.63 83.68 45.34 83.8 45.39C83.82 45.4 83.95 45.52 83.97 45.52C84.21 45.62 84.47 45.67 84.71 45.75C84.8 45.56 84.82 45.34 84.91 45.15C85.23 44.49 85.55 43.84 85.87 43.19C85.58 43.13 85.3 43.06 85.01 43C85.41 42.84 85.81 42.68 86.21 42.51C86.09 42.74 85.98 42.96 85.87 43.19C89.15 43.91 92.38 44.86 95.52 46.04C95.62 45.89 95.71 45.74 95.8 45.59C95.79 45.46 95.79 45.32 95.82 45.18C95.95 44.62 96.6 44.28 97.13 44.43C97.26 44.47 97.4 44.51 97.53 44.55C93.66 43 89.66 41.8 85.57 40.95C85.14 40.86 84.59 41.01 84.37 41.44C83.69 42.83 83.03 44.22 82.33 45.6C82.18 45.9 82.09 46.18 82.18 46.52C82.37 47.23 83.16 47.44 83.77 47.66Z" fill="#13202B" fill-opacity="1.000000" fill-rule="nonzero"/>
		</g>
	</g>
	<g mask="url(#mask1_13777)">
		<g style="mix-blend-mode:normal">
			<path id="Path 32023" d="M95.8 45.59C95.71 45.74 95.62 45.89 95.52 46.04C95.76 46.13 96 46.22 96.24 46.32C96 46.14 95.84 45.88 95.8 45.59Z" fill="#13202B" fill-opacity="1.000000" fill-rule="nonzero"/>
		</g>
	</g>
	<g mask="url(#mask1_13777)">
		<g style="mix-blend-mode:normal">
			<path id="Path 32024" d="M83.95 45.48C84.17 45.58 83.76 45.39 83.83 45.42C83.85 45.43 83.92 45.46 83.95 45.48C83.93 45.47 83.85 45.43 83.83 45.42C83.71 45.37 84.05 45.58 83.95 45.48C84.2 45.72 84.32 46.16 84.23 46.49C84.21 46.55 84.19 46.6 84.18 46.64C84.34 46.35 84.49 46.04 84.64 45.73C84.39 45.64 84.19 45.57 83.95 45.48Z" fill="#13202B" fill-opacity="1.000000" fill-rule="nonzero"/>
		</g>
	</g>
	<g mask="url(#mask1_13777)">
		<g style="mix-blend-mode:normal">
			<path id="Path 32025" d="M96.07 45.17C95.98 45.31 95.89 45.45 95.8 45.59C95.84 45.88 96 46.14 96.24 46.32C96.48 46.41 96.73 46.5 96.97 46.6C97.14 45.99 97.3 45.38 97.47 44.77C96.96 44.53 96.38 44.68 96.07 45.17Z" fill="#13202B" fill-opacity="1.000000" fill-rule="nonzero"/>
		</g>
	</g>
	<g mask="url(#mask1_13777)">
		<g style="mix-blend-mode:normal">
			<path id="Path 32026" d="M83.95 45.47C83.92 45.46 83.85 45.43 83.83 45.42C83.76 45.39 84.17 45.58 83.95 45.47Z" fill="#13202B" fill-opacity="1.000000" fill-rule="nonzero"/>
		</g>
	</g>
	<g mask="url(#mask1_13777)">
		<g style="mix-blend-mode:normal">
			<path id="Path 32027" d="M68.38 40.61C68.35 40.6 68.28 40.57 68.26 40.56C68.19 40.53 68.6 40.72 68.38 40.61Z" fill="#13202B" fill-opacity="1.000000" fill-rule="nonzero"/>
		</g>
	</g>
	<g mask="url(#mask1_13777)">
		<g style="mix-blend-mode:normal">
			<path id="Path 32028" d="" fill="#13202B" fill-opacity="1.000000" fill-rule="nonzero"/>
		</g>
	</g>
	<g mask="url(#mask1_13777)">
		<g style="mix-blend-mode:normal">
			<path id="Path 32029" d="M78.14 44.04C78.12 44.06 78.09 44.11 78.03 44.19C78.12 44.16 78.23 44.01 78.14 44.04C78 44.08 78.17 44.06 78.4 44.1C78.23 44.1 78.68 44.18 78.51 44.13C78.39 44.09 78.26 44.08 78.14 44.04Z" fill="#13202B" fill-opacity="1.000000" fill-rule="nonzero"/>
		</g>
	</g>
	<g mask="url(#mask1_13777)">
		<g style="mix-blend-mode:normal">
			<path id="Path 32030" d="" fill="#13202B" fill-opacity="1.000000" fill-rule="nonzero"/>
		</g>
	</g>
	<g mask="url(#mask1_13777)">
		<g style="mix-blend-mode:normal">
			<path id="Path 32031" d="M80.99 41.62C81.13 41.66 81.26 41.7 81.4 41.74C81.16 41.64 80.91 41.55 80.67 41.45C80.76 41.52 80.87 41.58 80.99 41.62Z" fill="#13202B" fill-opacity="1.000000" fill-rule="nonzero"/>
		</g>
	</g>
	<g mask="url(#mask1_13777)">
		<g style="mix-blend-mode:normal">
			<path id="Path 32032" d="M78.03 44.19C78.09 44.11 78.12 44.06 78.14 44.04C78.11 44.08 78.06 44.15 78.03 44.19Z" fill="#13202B" fill-opacity="1.000000" fill-rule="nonzero"/>
		</g>
	</g>
	<g mask="url(#mask1_13777)">
		<g style="mix-blend-mode:normal">
			<path id="Path 32033" d="M78.03 44.19C78.06 44.15 78.08 44.11 78.11 44.07C78.08 44.12 78.06 44.16 78.03 44.19C78 44.22 77.94 44.26 77.92 44.29C77.9 44.31 77.98 44.24 78.03 44.19Z" fill="#13202B" fill-opacity="1.000000" fill-rule="nonzero"/>
		</g>
	</g>
	<g mask="url(#mask1_13777)">
		<g style="mix-blend-mode:normal">
			<path id="Path 32034" d="" fill="#13202B" fill-opacity="1.000000" fill-rule="nonzero"/>
		</g>
	</g>
	<g mask="url(#mask1_13777)">
		<g style="mix-blend-mode:normal">
			<path id="Path 32035" d="M80.25 40.31C80.22 40.45 80.22 40.59 80.23 40.73C80.32 40.59 80.41 40.45 80.5 40.31C80.81 39.82 81.39 39.66 81.9 39.91C81.92 39.83 81.94 39.76 81.96 39.69C81.83 39.65 81.69 39.61 81.56 39.57C81.03 39.41 80.38 39.76 80.25 40.31Z" fill="#13202B" fill-opacity="1.000000" fill-rule="nonzero"/>
		</g>
	</g>
	<g mask="url(#mask1_13777)">
		<g style="mix-blend-mode:normal">
			<path id="Path 32036" d="M81.95 39.93C82.44 40.19 82.63 40.91 82.33 41.38C82.27 41.47 82.22 41.56 82.16 41.65C82.42 41.52 82.64 41.29 82.7 41C82.84 40.38 82.52 39.91 81.96 39.69C81.94 39.76 81.97 39.85 81.95 39.93Z" fill="#13202B" fill-opacity="1.000000" fill-rule="nonzero"/>
		</g>
	</g>
	<g mask="url(#mask1_13777)">
		<g style="mix-blend-mode:normal">
			<path id="Path 32037" d="M68.2 42.8C69.53 43.29 70.88 43.74 72.22 44.2C73.54 44.66 74.86 45.11 76.18 45.57C76.73 45.76 77.27 45.98 77.83 46.14C78.12 46.23 78.41 46.25 78.7 46.18C79.31 46.05 79.7 45.51 80.03 45.03C80.61 44.19 81.12 43.3 81.66 42.44C81.83 42.18 81.99 41.91 82.16 41.65C81.92 41.77 81.65 41.81 81.4 41.74C81.26 41.7 81.13 41.66 80.99 41.62C80.87 41.58 80.76 41.52 80.67 41.45C80.43 41.36 80.19 41.27 79.96 41.18C79.48 41.93 79.01 42.69 78.53 43.45C78.41 43.64 78.28 43.83 78.15 44.01C78.27 44.05 78.39 44.09 78.51 44.13C78.68 44.18 78.16 44.1 78.33 44.11C78.1 44.06 78.06 44.16 78.2 44.12C78.29 44.1 78.14 44.17 78.06 44.2C78 44.24 77.9 44.31 77.92 44.29C77.94 44.26 78.03 44.22 78.06 44.2C78.09 44.16 78.12 44.06 78.15 44.01C77.98 43.96 77.81 43.9 77.63 43.84C76.27 43.36 74.92 42.89 73.56 42.42C72.09 41.91 70.61 41.41 69.14 40.89C69 41.2 68.77 41.48 68.61 41.78C68.62 41.74 68.64 41.69 68.66 41.63C68.75 41.29 68.64 40.91 68.4 40.66C68.5 40.76 68.11 40.48 68.23 40.53C68.25 40.54 68.38 40.65 68.4 40.66C68.64 40.75 68.9 40.8 69.14 40.89C69.23 40.7 69.25 40.47 69.34 40.28C69.66 39.63 69.98 38.98 70.3 38.32C70.02 38.26 69.73 38.2 69.44 38.14C69.84 37.97 70.24 37.81 70.64 37.65C70.53 37.87 70.41 38.1 70.3 38.32C73.58 39.04 76.81 39.99 79.96 41.18C80.05 41.03 80.14 40.88 80.23 40.73C80.22 40.59 80.22 40.45 80.25 40.31C80.38 39.76 81.03 39.41 81.56 39.57C81.69 39.61 81.83 39.65 81.96 39.69C78.09 38.14 74.09 36.93 70 36.09C69.57 36 69.02 36.14 68.8 36.58C68.12 37.96 67.46 39.36 66.76 40.74C66.61 41.03 66.52 41.32 66.61 41.66C66.8 42.37 67.59 42.58 68.2 42.8Z" fill="#13202B" fill-opacity="1.000000" fill-rule="nonzero"/>
		</g>
	</g>
	<g mask="url(#mask1_13777)">
		<g style="mix-blend-mode:normal">
			<path id="Path 32038" d="M81.95 39.93L81.4 41.74C81.65 41.81 81.92 41.77 82.16 41.65C82.22 41.56 82.27 41.47 82.33 41.38C82.63 40.91 82.44 40.19 81.95 39.93Z" fill="#13202B" fill-opacity="1.000000" fill-rule="nonzero"/>
		</g>
	</g>
	<g mask="url(#mask1_13777)">
		<g style="mix-blend-mode:normal">
			<path id="Path 32039" d="M80.5 40.31C80.41 40.45 80.32 40.59 80.23 40.73C80.27 41.02 80.43 41.28 80.67 41.45C80.91 41.55 81.16 41.64 81.4 41.74L81.9 39.91C81.39 39.66 80.81 39.82 80.5 40.31Z" fill="#13202B" fill-opacity="1.000000" fill-rule="nonzero"/>
		</g>
	</g>
	<g mask="url(#mask1_13777)">
		<g style="mix-blend-mode:normal">
			<path id="Path 32040" d="M69.44 38.14C69.73 38.2 70.01 38.26 70.3 38.33C70.41 38.1 70.53 37.87 70.64 37.65C70.24 37.81 69.84 37.97 69.44 38.14Z" fill="#13202B" fill-opacity="1.000000" fill-rule="nonzero"/>
		</g>
	</g>
	<g mask="url(#mask1_13777)">
		<g style="mix-blend-mode:normal">
			<path id="Path 32041" d="M68.38 40.61C68.6 40.72 68.19 40.53 68.26 40.56C68.28 40.57 68.35 40.6 68.38 40.61C68.36 40.6 68.28 40.57 68.26 40.56C68.14 40.51 68.49 40.71 68.38 40.61C68.63 40.86 68.75 41.29 68.66 41.62C68.64 41.69 68.62 41.74 68.61 41.78C68.77 41.48 68.92 41.17 69.07 40.86C68.82 40.77 68.62 40.7 68.38 40.61Z" fill="#13202B" fill-opacity="1.000000" fill-rule="nonzero"/>
		</g>
	</g>
	<g mask="url(#mask1_13777)">
		<g style="mix-blend-mode:normal">
			<path id="Path 32042" d="M80.23 40.73C80.14 40.88 80.05 41.03 79.96 41.17C80.19 41.26 80.43 41.36 80.67 41.45C80.43 41.28 80.27 41.02 80.23 40.73Z" fill="#13202B" fill-opacity="1.000000" fill-rule="nonzero"/>
		</g>
	</g>
	<g mask="url(#mask1_13777)">
		<g style="mix-blend-mode:normal">
			<path id="Path 32043" d="" fill="#13202B" fill-opacity="1.000000" fill-rule="nonzero"/>
		</g>
	</g>
	<g mask="url(#mask1_13777)">
		<g style="mix-blend-mode:normal">
			<path id="Path 32044" d="M62.64 39.45C62.69 39.44 62.78 39.42 62.82 39.4C62.87 39.4 62.94 39.39 62.98 39.38C63.06 39.4 63.29 39.43 63.18 39.39C63.15 39.38 63.02 39.39 62.98 39.38C62.88 39.35 62.87 39.29 62.77 39.25C62.74 39.31 62.68 39.4 62.64 39.45Z" fill="#13202B" fill-opacity="1.000000" fill-rule="nonzero"/>
		</g>
	</g>
	<g mask="url(#mask1_13777)">
		<g style="mix-blend-mode:normal">
			<path id="Path 32045" d="" fill="#13202B" fill-opacity="1.000000" fill-rule="nonzero"/>
		</g>
	</g>
	<g mask="url(#mask1_13777)">
		<g style="mix-blend-mode:normal">
			<path id="Path 32046" d="" fill="#13202B" fill-opacity="1.000000" fill-rule="nonzero"/>
		</g>
	</g>
	<g mask="url(#mask1_13777)">
		<g style="mix-blend-mode:normal">
			<path id="Path 32047" d="M53.94 36.86C53.94 36.85 53.98 36.75 53.98 36.74C53.95 36.82 53.92 36.92 53.94 36.86Z" fill="#13202B" fill-opacity="1.000000" fill-rule="nonzero"/>
		</g>
	</g>
	<g mask="url(#mask1_13777)">
		<g style="mix-blend-mode:normal">
			<path id="Path 32048" d="" fill="#13202B" fill-opacity="1.000000" fill-rule="nonzero"/>
		</g>
	</g>
	<g mask="url(#mask1_13777)">
		<g style="mix-blend-mode:normal">
			<path id="Path 32049" d="" fill="#13202B" fill-opacity="1.000000" fill-rule="nonzero"/>
		</g>
	</g>
	<g mask="url(#mask1_13777)">
		<g style="mix-blend-mode:normal">
			<path id="Path 32050" d="" fill="#13202B" fill-opacity="1.000000" fill-rule="nonzero"/>
		</g>
	</g>
	<g mask="url(#mask1_13777)">
		<g style="mix-blend-mode:normal">
			<path id="Path 32051" d="" fill="#13202B" fill-opacity="1.000000" fill-rule="nonzero"/>
		</g>
	</g>
	<g mask="url(#mask1_13777)">
		<g style="mix-blend-mode:normal">
			<path id="Path 32052" d="" fill="#13202B" fill-opacity="1.000000" fill-rule="nonzero"/>
		</g>
	</g>
	<g mask="url(#mask1_13777)">
		<g style="mix-blend-mode:normal">
			<path id="Path 32053" d="" fill="#13202B" fill-opacity="1.000000" fill-rule="nonzero"/>
		</g>
	</g>
	<g mask="url(#mask1_13777)">
		<g style="mix-blend-mode:normal">
			<path id="Path 32054" d="M53.6 35.74C53.58 35.73 53.52 35.7 53.5 35.7C53.4 35.66 53.51 35.7 53.6 35.74Z" fill="#13202B" fill-opacity="1.000000" fill-rule="nonzero"/>
		</g>
	</g>
	<g mask="url(#mask1_13777)">
		<g style="mix-blend-mode:normal">
			<path id="Path 32055" d="" fill="#13202B" fill-opacity="1.000000" fill-rule="nonzero"/>
		</g>
	</g>
	<g mask="url(#mask1_13777)">
		<g style="mix-blend-mode:normal">
			<path id="Path 32056" d="M64.65 36.05C64.57 36.18 64.49 36.32 64.41 36.46C64.5 36.49 64.58 36.53 64.67 36.56C64.69 36.57 64.78 36.61 64.82 36.63C64.9 36.66 64.97 36.69 65.04 36.72C64.82 36.55 64.69 36.32 64.65 36.05Z" fill="#13202B" fill-opacity="1.000000" fill-rule="nonzero"/>
		</g>
	</g>
	<g mask="url(#mask1_13777)">
		<g style="mix-blend-mode:normal">
			<path id="Path 32057" d="M66.26 35.19C65.77 34.98 65.18 35.12 64.9 35.61C64.81 35.75 64.73 35.9 64.65 36.05C64.69 36.32 64.82 36.55 65.04 36.72C65.2 36.79 65.36 36.86 65.53 36.93C65.77 36.35 66.02 35.77 66.26 35.19Z" fill="#13202B" fill-opacity="1.000000" fill-rule="nonzero"/>
		</g>
	</g>
	<g mask="url(#mask1_13777)">
		<g style="mix-blend-mode:normal">
			<path id="Path 32058" d="" fill="#13202B" fill-opacity="1.000000" fill-rule="nonzero"/>
		</g>
	</g>
	<g mask="url(#mask1_13777)">
		<g style="mix-blend-mode:normal">
			<path id="Path 32059" d="M52.6 37.6C53.52 38.01 54.47 38.34 55.41 38.7C56.52 39.12 57.63 39.55 58.74 39.97C59.54 40.28 60.35 40.58 61.15 40.89C61.62 41.07 62.09 41.31 62.59 41.43C63.41 41.64 64 41.19 64.45 40.56C65.06 39.72 65.52 38.76 66.04 37.87C66.22 37.56 66.4 37.24 66.59 36.93C66.35 37.07 66.06 37.13 65.78 37.04C65.66 37 65.53 36.96 65.4 36.92C65.26 36.87 65.14 36.8 65.04 36.72C64.97 36.69 64.9 36.66 64.82 36.63C64.78 36.61 64.69 36.57 64.67 36.56C64.58 36.53 64.5 36.49 64.41 36.46C63.92 37.31 63.44 38.17 62.92 39.02C62.87 39.1 62.82 39.17 62.77 39.25C62.87 39.29 62.98 39.33 63.08 39.37C63.11 39.38 63.15 39.38 63.18 39.39C63.29 39.43 63.16 39.39 63.08 39.37C63.03 39.37 62.87 39.4 62.82 39.4C62.78 39.42 62.7 39.46 62.65 39.47C62.62 39.5 62.54 39.55 62.53 39.57C62.54 39.54 62.63 39.49 62.65 39.47C62.69 39.42 62.74 39.31 62.77 39.25C61.95 38.94 61.05 38.59 60.22 38.28C59.02 37.82 57.82 37.36 56.62 36.9C55.85 36.61 55.08 36.32 54.32 36.02C54.23 36.22 54.14 36.42 54.04 36.62C54.03 36.66 54.01 36.7 53.99 36.74C53.98 36.77 53.96 36.83 53.94 36.86C53.92 36.92 53.96 36.82 53.99 36.74C54 36.72 54.04 36.66 54.04 36.62C53.98 36.42 54.01 36.28 53.88 36.06C53.92 36.12 53.65 35.78 53.73 35.86C53.69 35.81 53.66 35.78 53.63 35.76C53.54 35.72 53.4 35.66 53.5 35.7C53.52 35.7 53.61 35.75 53.63 35.76C53.86 35.85 54.08 35.93 54.32 36.02C54.62 35.36 54.92 34.7 55.21 34.04C55.29 33.87 55.37 33.7 55.44 33.53C55.15 33.46 54.86 33.39 54.56 33.32C54.96 33.16 55.36 32.99 55.76 32.83C55.66 33.07 55.55 33.3 55.44 33.53C57.05 33.93 58.63 34.38 60.2 34.9C61.12 35.2 62.03 35.53 62.94 35.87C63.39 36.05 63.85 36.23 64.3 36.41C64.33 36.43 64.37 36.44 64.41 36.46C64.49 36.32 64.57 36.18 64.65 36.05C64.62 35.91 64.63 35.76 64.66 35.61C64.78 35.07 65.44 34.7 65.97 34.87C66.09 34.91 66.22 34.95 66.35 34.99C66.32 35.06 66.29 35.12 66.26 35.19C66.77 35.46 67.01 36.2 66.73 36.68C66.68 36.76 66.64 36.84 66.59 36.93C66.78 36.81 66.95 36.63 67.03 36.43C67.22 35.99 67.08 35.31 66.6 35.1C62.9 33.48 59.07 32.18 55.13 31.27C54.71 31.18 54.12 31.33 53.93 31.76C53.4 32.93 52.87 34.1 52.34 35.27C52.17 35.65 51.88 36.09 51.89 36.52C51.89 36.56 51.9 36.6 51.91 36.63C51.9 36.58 51.89 36.48 51.89 36.52C51.89 36.55 51.9 36.61 51.91 36.63C51.92 36.7 51.94 36.77 51.94 36.83C51.96 36.92 51.99 37.01 52.05 37.13C52.17 37.35 52.37 37.5 52.6 37.6Z" fill="#13202B" fill-opacity="1.000000" fill-rule="nonzero"/>
		</g>
	</g>
	<g mask="url(#mask1_13777)">
		<g style="mix-blend-mode:normal">
			<path id="Path 32060" d="M66.35 35.23C66.11 35.81 65.77 36.35 65.53 36.93C65.36 36.86 65.2 36.79 65.04 36.72C65.14 36.8 65.26 36.87 65.4 36.92C65.53 36.96 65.66 37 65.78 37.04C66.06 37.13 66.35 37.07 66.59 36.93C66.64 36.85 66.68 36.76 66.73 36.68C67.01 36.2 66.86 35.49 66.35 35.23Z" fill="#13202B" fill-opacity="1.000000" fill-rule="nonzero"/>
		</g>
	</g>
	<g mask="url(#mask1_13777)">
		<g style="mix-blend-mode:normal">
			<path id="Path 32061" d="M66.26 35.19C66.29 35.12 66.32 35.06 66.35 34.99C66.22 34.95 66.09 34.91 65.97 34.87C65.44 34.7 64.78 35.07 64.66 35.61C64.63 35.76 64.62 35.91 64.65 36.05C64.73 35.9 64.81 35.75 64.9 35.61C65.18 35.12 65.77 34.98 66.26 35.19Z" fill="#13202B" fill-opacity="1.000000" fill-rule="nonzero"/>
		</g>
	</g>
	<g mask="url(#mask1_13777)">
		<g style="mix-blend-mode:normal">
			<path id="Path 32062" d="M51.91 36.63C51.92 36.73 51.94 36.89 51.94 36.85C51.93 36.79 51.92 36.71 51.91 36.63Z" fill="#13202B" fill-opacity="1.000000" fill-rule="nonzero"/>
		</g>
	</g>
	<g mask="url(#mask1_13777)">
		<g style="mix-blend-mode:normal">
			<path id="Path 32063" d="M54.56 33.32C54.86 33.39 55.15 33.46 55.44 33.53C55.55 33.3 55.66 33.07 55.76 32.83C55.36 32.99 54.96 33.16 54.56 33.32Z" fill="#13202B" fill-opacity="1.000000" fill-rule="nonzero"/>
		</g>
	</g>
	<g mask="url(#mask1_13777)">
		<g style="mix-blend-mode:normal">
			<path id="Path 32064" d="M54 36.34C54.01 36.39 54.01 36.45 54.01 36.51C54.01 36.45 54.01 36.39 54 36.34Z" fill="#13202B" fill-opacity="1.000000" fill-rule="nonzero"/>
		</g>
	</g>
	<g mask="url(#mask1_13777)">
		<g style="mix-blend-mode:normal">
			<path id="Path 32065" d="" fill="#13202B" fill-opacity="1.000000" fill-rule="nonzero"/>
		</g>
	</g>
	<g mask="url(#mask1_13777)">
		<g style="mix-blend-mode:normal">
			<path id="Path 32066" d="" fill="#13202B" fill-opacity="1.000000" fill-rule="nonzero"/>
		</g>
	</g>
	<g mask="url(#mask1_13777)">
		<g style="mix-blend-mode:normal">
			<path id="Path 32067" d="" fill="#13202B" fill-opacity="1.000000" fill-rule="nonzero"/>
		</g>
	</g>
	<g mask="url(#mask1_13777)">
		<g style="mix-blend-mode:normal">
			<path id="Path 32068" d="M53.62 35.74C53.64 35.77 53.69 35.81 53.73 35.86C53.65 35.78 53.92 36.12 53.88 36.06C54.01 36.28 53.94 36.33 54.01 36.53C54 36.48 54.01 36.39 54 36.34C54.01 36.39 54.01 36.48 54.01 36.53C54 36.58 54 36.63 53.99 36.66C54.01 36.62 53.99 36.57 54.01 36.53C54.1 36.33 54.23 36.22 54.32 36.02C54.08 35.93 53.85 35.84 53.62 35.74Z" fill="#13202B" fill-opacity="1.000000" fill-rule="nonzero"/>
		</g>
	</g>
	<g mask="url(#mask1_13777)">
		<g style="mix-blend-mode:normal">
			<path id="Path 32069" d="" fill="#13202B" fill-opacity="1.000000" fill-rule="nonzero"/>
		</g>
	</g>
	<g mask="url(#mask1_13777)">
		<g style="mix-blend-mode:normal">
			<path id="Path 32070" d="" fill="#13202B" fill-opacity="1.000000" fill-rule="nonzero"/>
		</g>
	</g>
	<g mask="url(#mask1_13777)">
		<g style="mix-blend-mode:normal">
			<path id="Path 32071" d="" fill="#13202B" fill-opacity="1.000000" fill-rule="nonzero"/>
		</g>
	</g>
	<g mask="url(#mask1_13777)">
		<g style="mix-blend-mode:normal">
			<path id="Path 32072" d="M47.12 33.75C47.16 33.73 47.26 33.72 47.3 33.7C47.34 33.69 47.41 33.68 47.46 33.68C47.53 33.7 47.76 33.72 47.66 33.69C47.62 33.68 47.49 33.69 47.46 33.68C47.35 33.64 47.35 33.59 47.25 33.55C47.21 33.6 47.15 33.7 47.12 33.75Z" fill="#13202B" fill-opacity="1.000000" fill-rule="nonzero"/>
		</g>
	</g>
	<g mask="url(#mask1_13777)">
		<g style="mix-blend-mode:normal">
			<path id="Path 32073" d="M38.42 31.15C38.42 31.14 38.46 31.05 38.46 31.04C38.43 31.12 38.39 31.21 38.42 31.15Z" fill="#13202B" fill-opacity="1.000000" fill-rule="nonzero"/>
		</g>
	</g>
	<g mask="url(#mask1_13777)">
		<g style="mix-blend-mode:normal">
			<path id="Path 32074" d="" fill="#13202B" fill-opacity="1.000000" fill-rule="nonzero"/>
		</g>
	</g>
	<g mask="url(#mask1_13777)">
		<g style="mix-blend-mode:normal">
			<path id="Path 32075" d="" fill="#13202B" fill-opacity="1.000000" fill-rule="nonzero"/>
		</g>
	</g>
	<g mask="url(#mask1_13777)">
		<g style="mix-blend-mode:normal">
			<path id="Path 32076" d="M38.07 30.03C38.05 30.02 37.99 30 37.97 29.99C37.88 29.95 37.98 30 38.07 30.03Z" fill="#13202B" fill-opacity="1.000000" fill-rule="nonzero"/>
		</g>
	</g>
	<g mask="url(#mask1_13777)">
		<g style="mix-blend-mode:normal">
			<path id="Path 32077" d="" fill="#13202B" fill-opacity="1.000000" fill-rule="nonzero"/>
		</g>
	</g>
	<g mask="url(#mask1_13777)">
		<g style="mix-blend-mode:normal">
			<path id="Path 32078" d="" fill="#13202B" fill-opacity="1.000000" fill-rule="nonzero"/>
		</g>
	</g>
	<g mask="url(#mask1_13777)">
		<g style="mix-blend-mode:normal">
			<path id="Path 32079" d="" fill="#13202B" fill-opacity="1.000000" fill-rule="nonzero"/>
		</g>
	</g>
	<g mask="url(#mask1_13777)">
		<g style="mix-blend-mode:normal">
			<path id="Path 32080" d="" fill="#13202B" fill-opacity="1.000000" fill-rule="nonzero"/>
		</g>
	</g>
	<g mask="url(#mask1_13777)">
		<g style="mix-blend-mode:normal">
			<path id="Path 32081" d="" fill="#13202B" fill-opacity="1.000000" fill-rule="nonzero"/>
		</g>
	</g>
	<g mask="url(#mask1_13777)">
		<g style="mix-blend-mode:normal">
			<path id="Path 32082" d="" fill="#13202B" fill-opacity="1.000000" fill-rule="nonzero"/>
		</g>
	</g>
	<g mask="url(#mask1_13777)">
		<g style="mix-blend-mode:normal">
			<path id="Path 32083" d="M50.74 29.48C50.24 29.27 49.66 29.42 49.37 29.9C49.29 30.05 49.2 30.2 49.12 30.34C49.16 30.61 49.3 30.85 49.51 31.02C49.67 31.09 49.84 31.16 50 31.23C50.25 30.65 50.49 30.07 50.74 29.48Z" fill="#13202B" fill-opacity="1.000000" fill-rule="nonzero"/>
		</g>
	</g>
	<g mask="url(#mask1_13777)">
		<g style="mix-blend-mode:normal">
			<path id="Path 32084" d="M49.12 30.34C49.04 30.48 48.96 30.61 48.88 30.75C48.97 30.79 49.06 30.82 49.14 30.86C49.16 30.87 49.25 30.91 49.3 30.92C49.37 30.95 49.44 30.99 49.51 31.02C49.3 30.85 49.16 30.61 49.12 30.34Z" fill="#13202B" fill-opacity="1.000000" fill-rule="nonzero"/>
		</g>
	</g>
	<g mask="url(#mask1_13777)">
		<g style="mix-blend-mode:normal">
			<path id="Path 32085" d="" fill="#13202B" fill-opacity="1.000000" fill-rule="nonzero"/>
		</g>
	</g>
	<g mask="url(#mask1_13777)">
		<g style="mix-blend-mode:normal">
			<path id="Path 32086" d="M37.07 31.89C37.99 32.31 38.95 32.64 39.89 33C41 33.42 42.11 33.84 43.22 34.27C44.02 34.57 44.82 34.88 45.62 35.19C46.09 35.37 46.57 35.6 47.06 35.73C47.88 35.93 48.47 35.48 48.93 34.85C49.53 34.01 49.99 33.06 50.51 32.17C50.69 31.85 50.88 31.54 51.06 31.22C50.82 31.37 50.53 31.43 50.25 31.33C50.13 31.29 50 31.25 49.88 31.21C49.74 31.17 49.61 31.1 49.51 31.02C49.44 30.99 49.37 30.95 49.3 30.92C49.25 30.91 49.16 30.87 49.14 30.86C49.06 30.82 48.97 30.79 48.88 30.75C48.39 31.61 47.91 32.47 47.4 33.31C47.35 33.39 47.3 33.47 47.25 33.55C47.35 33.59 47.45 33.63 47.55 33.66C47.59 33.67 47.62 33.68 47.66 33.69C47.76 33.72 47.63 33.68 47.55 33.66C47.51 33.67 47.34 33.69 47.3 33.7C47.26 33.72 47.17 33.75 47.13 33.77C47.09 33.79 47.01 33.84 47 33.86C47.01 33.83 47.11 33.79 47.13 33.77C47.16 33.71 47.21 33.6 47.25 33.55C46.42 33.23 45.52 32.89 44.69 32.57C43.49 32.11 42.29 31.65 41.09 31.19C40.32 30.9 39.56 30.61 38.79 30.31C38.7 30.52 38.61 30.72 38.52 30.92C38.5 30.96 38.48 31 38.47 31.04C38.45 31.06 38.43 31.12 38.42 31.15C38.39 31.21 38.43 31.12 38.47 31.04C38.47 31.01 38.51 30.95 38.52 30.92C38.45 30.71 38.49 30.58 38.35 30.35C38.39 30.42 38.13 30.07 38.2 30.15C38.16 30.11 38.13 30.08 38.1 30.05C38.01 30.01 37.88 29.95 37.97 29.99C37.99 30 38.08 30.04 38.1 30.05C38.33 30.14 38.56 30.22 38.79 30.31C39.09 29.65 39.39 29 39.69 28.34C39.76 28.17 39.84 28 39.92 27.83C39.62 27.76 39.33 27.68 39.04 27.61C39.44 27.45 39.83 27.29 40.23 27.13C40.13 27.36 40.02 27.59 39.92 27.83C41.52 28.22 43.1 28.67 44.67 29.19C45.59 29.5 46.51 29.82 47.41 30.17C47.87 30.34 48.32 30.52 48.77 30.71C48.81 30.72 48.84 30.74 48.88 30.75C48.96 30.62 49.04 30.48 49.12 30.34C49.1 30.2 49.1 30.06 49.13 29.91C49.26 29.37 49.91 28.99 50.44 29.17C50.57 29.21 50.69 29.25 50.82 29.29C50.79 29.35 50.76 29.42 50.74 29.48C51.24 29.75 51.49 30.49 51.21 30.97C51.16 31.06 51.11 31.14 51.06 31.22C51.26 31.1 51.42 30.93 51.51 30.72C51.69 30.28 51.56 29.61 51.07 29.4C47.37 27.77 43.54 26.48 39.6 25.57C39.18 25.47 38.6 25.62 38.4 26.06C37.87 27.23 37.34 28.39 36.81 29.56C36.64 29.94 36.35 30.38 36.36 30.82C36.37 30.85 36.37 30.89 36.38 30.93C36.37 30.87 36.36 30.78 36.36 30.82C36.37 30.84 36.38 30.91 36.38 30.93C36.39 30.99 36.41 31.07 36.41 31.13C36.43 31.22 36.46 31.3 36.52 31.42C36.64 31.64 36.85 31.8 37.07 31.89Z" fill="#13202B" fill-opacity="1.000000" fill-rule="nonzero"/>
		</g>
	</g>
	<g mask="url(#mask1_13777)">
		<g style="mix-blend-mode:normal">
			<path id="Path 32087" d="M50.74 29.48C50.76 29.42 50.79 29.35 50.82 29.29C50.69 29.25 50.57 29.21 50.44 29.17C49.91 28.99 49.26 29.37 49.13 29.91C49.1 30.06 49.1 30.2 49.12 30.34C49.2 30.2 49.29 30.05 49.37 29.9C49.66 29.42 50.24 29.27 50.74 29.48Z" fill="#13202B" fill-opacity="1.000000" fill-rule="nonzero"/>
		</g>
	</g>
	<g mask="url(#mask1_13777)">
		<g style="mix-blend-mode:normal">
			<path id="Path 32088" d="M50.82 29.52C50.58 30.1 50.25 30.65 50 31.23C49.84 31.16 49.67 31.09 49.51 31.02C49.61 31.1 49.74 31.17 49.88 31.21C50 31.25 50.13 31.29 50.25 31.33C50.53 31.43 50.82 31.37 51.06 31.22C51.11 31.14 51.16 31.06 51.21 30.97C51.49 30.49 51.33 29.79 50.82 29.52Z" fill="#13202B" fill-opacity="1.000000" fill-rule="nonzero"/>
		</g>
	</g>
	<g mask="url(#mask1_13777)">
		<g style="mix-blend-mode:normal">
			<path id="Path 32089" d="M36.38 30.93C36.39 31.03 36.41 31.19 36.41 31.14C36.4 31.09 36.39 31 36.38 30.93Z" fill="#13202B" fill-opacity="1.000000" fill-rule="nonzero"/>
		</g>
	</g>
	<g mask="url(#mask1_13777)">
		<g style="mix-blend-mode:normal">
			<path id="Path 32090" d="M38.09 30.04C38.12 30.07 38.16 30.11 38.2 30.15C38.13 30.07 38.39 30.42 38.35 30.35C38.49 30.58 38.41 30.62 38.48 30.83C38.48 30.77 38.48 30.69 38.48 30.64C38.49 30.69 38.48 30.77 38.48 30.83C38.48 30.87 38.47 30.92 38.47 30.96C38.48 30.92 38.46 30.87 38.48 30.83C38.57 30.62 38.7 30.52 38.79 30.31C38.56 30.22 38.32 30.13 38.09 30.04Z" fill="#13202B" fill-opacity="1.000000" fill-rule="nonzero"/>
		</g>
	</g>
	<g mask="url(#mask1_13777)">
		<g style="mix-blend-mode:normal">
			<path id="Path 32091" d="" fill="#13202B" fill-opacity="1.000000" fill-rule="nonzero"/>
		</g>
	</g>
	<g mask="url(#mask1_13777)">
		<g style="mix-blend-mode:normal">
			<path id="Path 32092" d="M38.48 30.64C38.48 30.69 38.48 30.75 38.48 30.8C38.49 30.74 38.49 30.69 38.48 30.64Z" fill="#13202B" fill-opacity="1.000000" fill-rule="nonzero"/>
		</g>
	</g>
	<g mask="url(#mask1_13777)">
		<g style="mix-blend-mode:normal">
			<path id="Path 32093" d="" fill="#13202B" fill-opacity="1.000000" fill-rule="nonzero"/>
		</g>
	</g>
	<g mask="url(#mask1_13777)">
		<g style="mix-blend-mode:normal">
			<path id="Path 32094" d="" fill="#13202B" fill-opacity="1.000000" fill-rule="nonzero"/>
		</g>
	</g>
	<g mask="url(#mask1_13777)">
		<g style="mix-blend-mode:normal">
			<path id="Path 32095" d="" fill="#13202B" fill-opacity="1.000000" fill-rule="nonzero"/>
		</g>
	</g>
	<g mask="url(#mask1_13777)">
		<g style="mix-blend-mode:normal">
			<path id="Path 32096" d="M39.04 27.61C39.33 27.68 39.62 27.76 39.92 27.83C40.02 27.59 40.13 27.36 40.23 27.13C39.83 27.29 39.44 27.45 39.04 27.61Z" fill="#13202B" fill-opacity="1.000000" fill-rule="nonzero"/>
		</g>
	</g>
</svg>
