<svg width="227.891113" height="197.426270" viewBox="0 0 227.891 197.426" fill="none" xmlns="http://www.w3.org/2000/svg" xmlns:xlink="http://www.w3.org/1999/xlink">
	<desc>
			Created with Pixso.
	</desc>
	<defs/>
	<mask id="mask1_36570" mask-type="alpha" maskUnits="userSpaceOnUse" x="0.000000" y="0.000000" width="170.532227" height="197.425781">
		<g style="mix-blend-mode:normal">
			<rect id="Rectangle 2887" y="48.353516" width="91.246758" height="175.782578" transform="rotate(-32 0.000000 48.353516)" fill="#C4C4C4" fill-opacity="1.000000"/>
		</g>
	</mask>
	<g mask="url(#mask1_36570)">
		<mask id="mask1_36573" mask-type="alpha" maskUnits="userSpaceOnUse" x="0.000000" y="0.000000" width="170.532227" height="197.425781">
			<g style="mix-blend-mode:normal">
				<rect id="Rectangle 2886" y="48.353516" width="91.246758" height="175.782578" transform="rotate(-32 0.000000 48.353516)" fill="#C4C4C4" fill-opacity="1.000000"/>
			</g>
		</mask>
		<g mask="url(#mask1_36573)">
			<g style="mix-blend-mode:normal">
				<path id="Path 20994" d="M132.73 169.8C131.83 168.42 107.13 128.69 97.68 113.49C97.47 113.14 97.18 112.89 96.87 112.72C96.21 112.37 95.35 112.37 94.69 112.8C93.66 113.43 93.36 114.78 93.98 115.77C94.06 115.91 94.15 116.06 94.26 116.22C98.9 123.65 128.33 171.07 129.18 172.29C129.41 172.6 129.71 172.83 130.06 172.99C130.73 173.32 131.56 173.24 132.22 172.81C133.19 172.12 133.43 170.76 132.73 169.8Z" fill="#F9DCB0" fill-opacity="1.000000" fill-rule="nonzero"/>
			</g>
		</g>
		<g mask="url(#mask1_36573)">
			<g style="mix-blend-mode:normal">
				<path id="Path 20995" d="M97.68 113.49C97.47 113.14 97.18 112.89 96.87 112.72C96.21 112.37 95.35 112.37 94.69 112.8C93.66 113.43 93.36 114.78 93.98 115.77C94.06 115.91 94.15 116.06 94.26 116.22C98.9 123.65 128.33 171.07 129.18 172.29C129.41 172.6 129.71 172.83 130.06 172.99C130.73 173.32 131.56 173.24 132.22 172.81C133.19 172.12 133.43 170.76 132.73 169.8C131.83 168.42 107.13 128.69 97.68 113.49Z" stroke="#231F20" stroke-opacity="1.000000" stroke-width="1.000000"/>
			</g>
		</g>
		<g mask="url(#mask1_36573)">
			<g opacity="0.500000" style="mix-blend-mode:multiply">
				<mask id="mask1_36584" mask-type="alpha" maskUnits="userSpaceOnUse" x="92.620850" y="111.431152" width="41.644775" height="62.779297">
					<g style="mix-blend-mode:normal">
						<rect id="Rectangle 2884" x="92.620850" y="113.907715" width="4.673562" height="71.107834" transform="rotate(-32 92.620850 113.907715)" fill="#C4C4C4" fill-opacity="1.000000"/>
					</g>
				</mask>
				<g mask="url(#mask1_36584)">
					<g style="mix-blend-mode:normal">
						<path id="Path 20996" d="M132.73 169.8C131.83 168.42 107.13 128.69 97.68 113.49C97.47 113.14 97.18 112.89 96.87 112.72C96.21 112.37 95.35 112.37 94.69 112.8C93.66 113.43 93.36 114.78 93.98 115.77C94.06 115.91 94.15 116.06 94.26 116.22C97.51 114.68 96.66 115.98 114.7 144.42C130.03 168.59 133.73 171.63 130.03 172.91C130.71 173.24 131.56 173.24 132.22 172.81C133.19 172.12 133.43 170.76 132.73 169.8Z" fill="#BF7E5A" fill-opacity="1.000000" fill-rule="nonzero"/>
					</g>
				</g>
				<g mask="url(#mask1_36584)">
					<g style="mix-blend-mode:normal">
						<path id="Path 20997" d="M97.68 113.49C97.47 113.14 97.18 112.89 96.87 112.72C96.21 112.37 95.35 112.37 94.69 112.8C93.66 113.43 93.36 114.78 93.98 115.77C94.06 115.91 94.15 116.06 94.26 116.22C97.51 114.68 96.66 115.98 114.7 144.42C130.03 168.59 133.73 171.63 130.03 172.91C130.71 173.24 131.56 173.24 132.22 172.81C133.19 172.12 133.43 170.76 132.73 169.8C131.83 168.42 107.13 128.69 97.68 113.49Z" stroke="#231F20" stroke-opacity="1.000000" stroke-width="1.000000"/>
					</g>
				</g>
			</g>
		</g>
		<g mask="url(#mask1_36573)">
			<g style="mix-blend-mode:normal">
				<path id="Path 20998" d="M111.25 124.35C112 123.45 111.04 122.23 111.89 121.33C112.59 120.6 113.54 121.1 115.06 120.62C116.08 120.29 116.84 119.53 118.3 118.05C120.74 115.59 121.95 114.36 121.83 113.11C121.68 111.54 120.06 111.21 120.15 109.76C120.25 108.44 121.57 108.45 122.07 106.92C122.77 104.8 120.7 103.46 121.56 101.4C121.96 100.43 122.56 100.42 122.72 99.45C122.92 98.21 122.04 97.73 121.9 96.44C121.7 94.71 123.13 94.23 123.63 92.24C124.17 90.09 122.44 89.62 122.27 86.36C122.15 84.02 122.94 83.76 122.43 82.32C121.66 80.14 119.56 80.08 119.35 78.39C119.16 76.67 121.25 76.02 120.99 74.51C120.66 72.56 116.91 72.46 116.63 70.44C116.48 69.33 117.63 69.11 117.66 67.72C117.69 65.68 115.63 65.22 114 62.28C112.64 59.8 113.64 59.28 112.22 56.77C110.88 54.39 110.01 54.87 108.38 52.26C106.89 49.89 107.49 49.26 105.83 46.9C104.57 45.08 104.05 45.18 103.23 43.58C102.22 41.6 102.75 40.91 101.78 39.35C100.92 37.97 100.37 38.27 98.47 36.44C96.01 34.09 96.36 33.04 94.6 32.07C92.74 31.04 92.13 32.1 89.96 31.22C86.78 29.93 86.83 27.11 84.63 26.86C82.29 26.61 80.86 29.64 79.07 28.9C78.08 28.5 78.1 27.44 76.8 27.07C75.78 26.77 75.36 27.3 74.39 26.92C73.35 26.5 73.48 25.63 72.6 25.33C71.26 24.85 70.53 25.97 68.29 26.29C65.95 26.64 64 25.81 63.39 25.5C61.94 24.8 62.15 24.35 60.49 23.3C59.77 22.84 56.24 20.7 54.39 21.95C53.38 22.62 53.79 23.66 52.99 24.04C52.76 24.15 52.53 24.16 52.26 24.11C51.02 23.88 49.42 22.1 47.96 20.97C47.07 20.28 46.23 19.83 45.56 20.09C44.17 20.65 45.19 24.03 43.46 24.93C41.92 25.72 40.02 23.63 38.6 24.57C37.7 25.16 38.25 26.1 37.25 27.37C35.81 29.22 33.34 28.84 33.17 29.88C33.01 30.82 35 31.25 34.98 32.4C34.95 33.95 31.3 34.14 30.76 36.72C30.53 37.76 30.62 38.39 30.83 38.81C31.3 39.75 31.97 39.78 32.13 40.36C32.52 41.8 28.13 42.92 27.61 45.67C27.19 47.87 29.62 48.92 28.87 50.84C28.37 52.16 26.74 53.1 26.46 54.61C26.16 56.18 27.06 56.47 26.78 58.02C26.4 60.19 24.5 60.4 24.39 62.19C24.29 63.79 25.76 63.97 26.01 66C26.08 66.62 25.99 66.95 24.67 70.71C23.65 73.66 23.51 74.02 23.57 74.75C23.71 76.18 24.4 76.24 25.02 78.23C25.7 80.44 25 80.82 25.6 82.44C26.48 84.81 28.41 84.34 29 86.56C29.68 89.07 28.1 90.52 29.18 92.39C30.17 94.09 32.14 93.95 32.42 95.55C32.61 96.58 31.82 96.93 32.01 98.23C32.15 99.22 32.69 99.58 33.59 100.89C35.06 103.06 34.4 103.54 35.49 104.63C37.52 106.67 39.41 105.87 40.23 107.43C41.1 109.14 39.17 110.79 40.12 112.26C41.04 113.68 43.21 112.64 44.42 114.14C45.69 115.71 44 117.66 45.24 119.28C46.39 120.77 48.28 119.68 50.09 121.37C51.47 122.67 50.64 123.6 52.07 125.27C53.79 127.24 55.34 126.39 56.92 128.44C57.96 129.77 57.85 130.89 58.92 131.27C59.86 131.61 60.34 130.91 61.52 131C63.19 131.13 63.45 132.58 65.18 133.6C68.02 135.27 70.15 132.9 72.75 134.6C74.47 135.72 74.11 137.12 75.67 137.53C76.47 137.75 77.13 137.52 80.51 136.25C81.87 135.46 83.98 134.52 86.48 134.71C87.34 134.79 87.91 135.4 88.93 135.28C89.28 135.23 89.55 135.13 89.77 134.99C90.47 134.61 90.84 133.94 91.86 133.43C92.85 132.94 93.65 132.98 94.39 133.12C95.36 133.27 96.18 133.56 97.09 132.97C98.62 131.96 97.91 130.05 99.62 128.5C100.7 127.53 102.07 127.3 103.01 127.24C103.59 126.51 104.49 125.63 105.79 125.16C108.28 124.24 110.31 125.48 111.25 124.35Z" fill="#FFDBE5" fill-opacity="1.000000" fill-rule="nonzero"/>
			</g>
		</g>
		<g mask="url(#mask1_36573)">
			<g style="mix-blend-mode:normal">
				<path id="Path 20999" d="M111.89 121.33C112.59 120.6 113.54 121.1 115.06 120.62C116.08 120.29 116.84 119.53 118.3 118.05C120.74 115.59 121.95 114.36 121.83 113.11C121.68 111.54 120.06 111.21 120.15 109.76C120.25 108.44 121.57 108.45 122.07 106.92C122.77 104.8 120.7 103.46 121.56 101.4C121.96 100.43 122.56 100.42 122.72 99.45C122.92 98.21 122.04 97.73 121.9 96.44C121.7 94.71 123.13 94.23 123.63 92.24C124.17 90.09 122.44 89.62 122.27 86.36C122.15 84.02 122.94 83.76 122.43 82.32C121.66 80.14 119.56 80.08 119.35 78.39C119.16 76.67 121.25 76.02 120.99 74.51C120.66 72.56 116.91 72.46 116.63 70.44C116.48 69.33 117.63 69.11 117.66 67.72C117.69 65.68 115.63 65.22 114 62.28C112.64 59.8 113.64 59.28 112.22 56.77C110.88 54.39 110.01 54.87 108.38 52.26C106.89 49.89 107.49 49.26 105.83 46.9C104.57 45.08 104.05 45.18 103.23 43.58C102.22 41.6 102.75 40.91 101.78 39.35C100.92 37.97 100.37 38.27 98.47 36.44C96.01 34.09 96.36 33.04 94.6 32.07C92.74 31.04 92.13 32.1 89.96 31.22C86.78 29.93 86.83 27.11 84.63 26.86C82.29 26.61 80.86 29.64 79.07 28.9C78.08 28.5 78.1 27.44 76.8 27.07C75.78 26.77 75.36 27.3 74.39 26.92C73.35 26.5 73.48 25.63 72.6 25.33C71.26 24.85 70.53 25.97 68.29 26.29C65.95 26.64 64 25.81 63.39 25.5C61.94 24.8 62.15 24.35 60.49 23.3C59.77 22.84 56.24 20.7 54.39 21.95C53.38 22.62 53.79 23.66 52.99 24.04C52.76 24.15 52.53 24.16 52.26 24.11C51.02 23.88 49.42 22.1 47.96 20.97C47.07 20.28 46.23 19.83 45.56 20.09C44.17 20.65 45.19 24.03 43.46 24.93C41.92 25.72 40.02 23.63 38.6 24.57C37.7 25.16 38.25 26.1 37.25 27.37C35.81 29.22 33.34 28.84 33.17 29.88C33.01 30.82 35 31.25 34.98 32.4C34.95 33.95 31.3 34.14 30.76 36.72C30.53 37.76 30.62 38.39 30.83 38.81C31.3 39.75 31.97 39.78 32.13 40.36C32.52 41.8 28.13 42.92 27.61 45.67C27.19 47.87 29.62 48.92 28.87 50.84C28.37 52.16 26.74 53.1 26.46 54.61C26.16 56.18 27.06 56.47 26.78 58.02C26.4 60.19 24.5 60.4 24.39 62.19C24.29 63.79 25.76 63.97 26.01 66C26.08 66.62 25.99 66.95 24.67 70.71C23.65 73.66 23.51 74.02 23.57 74.75C23.71 76.18 24.4 76.24 25.02 78.23C25.7 80.44 25 80.82 25.6 82.44C26.48 84.81 28.41 84.34 29 86.56C29.68 89.07 28.1 90.52 29.18 92.39C30.17 94.09 32.14 93.95 32.42 95.55C32.61 96.58 31.82 96.93 32.01 98.23C32.15 99.22 32.69 99.58 33.59 100.89C35.06 103.06 34.4 103.54 35.49 104.63C37.52 106.67 39.41 105.87 40.23 107.43C41.1 109.14 39.17 110.79 40.12 112.26C41.04 113.68 43.21 112.64 44.42 114.14C45.69 115.71 44 117.66 45.24 119.28C46.39 120.77 48.28 119.68 50.09 121.37C51.47 122.67 50.64 123.6 52.07 125.27C53.79 127.24 55.34 126.39 56.92 128.44C57.96 129.77 57.85 130.89 58.92 131.27C59.86 131.61 60.34 130.91 61.52 131C63.19 131.13 63.45 132.58 65.18 133.6C68.02 135.27 70.15 132.9 72.75 134.6C74.47 135.72 74.11 137.12 75.67 137.53C76.47 137.75 77.13 137.52 80.51 136.25C81.87 135.46 83.98 134.52 86.48 134.71C87.34 134.79 87.91 135.4 88.93 135.28C89.28 135.23 89.55 135.13 89.77 134.99C90.47 134.61 90.84 133.94 91.86 133.43C92.85 132.94 93.65 132.98 94.39 133.12C95.36 133.27 96.18 133.56 97.09 132.97C98.62 131.96 97.91 130.05 99.62 128.5C100.7 127.53 102.07 127.3 103.01 127.24C103.59 126.51 104.49 125.63 105.79 125.16C108.28 124.24 110.31 125.48 111.25 124.35C112 123.45 111.04 122.23 111.89 121.33Z" stroke="#231F20" stroke-opacity="1.000000" stroke-width="1.000000"/>
			</g>
		</g>
		<g mask="url(#mask1_36573)">
			<g style="mix-blend-mode:normal">
				<path id="Path 21000" d="M111.25 124.35C112 123.45 111.04 122.23 111.89 121.33C112.59 120.6 113.54 121.1 115.06 120.62C116.08 120.28 116.84 119.53 118.3 118.05C120.74 115.59 121.95 114.36 121.83 113.11C121.68 111.54 120.06 111.21 120.15 109.76C120.25 108.44 121.57 108.45 122.07 106.92C122.77 104.8 120.7 103.46 121.56 101.4C121.96 100.43 122.56 100.42 122.72 99.45C122.92 98.21 122.04 97.73 121.9 96.44C121.7 94.71 123.13 94.23 123.63 92.24C124.17 90.09 122.44 89.62 122.27 86.36C122.15 84.02 122.94 83.76 122.43 82.32C121.66 80.14 119.56 80.08 119.35 78.39C119.16 76.67 121.25 76.02 120.99 74.51C120.66 72.56 116.91 72.46 116.63 70.44C116.48 69.33 117.63 69.11 117.66 67.72C117.69 65.68 115.63 65.22 114 62.28C112.64 59.8 113.64 59.28 112.22 56.77C110.88 54.39 110.01 54.87 108.38 52.26C106.89 49.89 107.49 49.26 105.83 46.9C104.57 45.08 104.05 45.18 103.23 43.57C102.22 41.6 102.75 40.91 101.78 39.35C100.92 37.97 100.37 38.27 98.47 36.44C96.01 34.09 96.36 33.04 94.6 32.07C92.74 31.04 92.13 32.1 89.96 31.22C86.78 29.93 86.83 27.11 84.63 26.86C82.29 26.61 80.86 29.64 79.07 28.9C78.08 28.5 78.1 27.44 76.8 27.07C75.78 26.77 75.36 27.3 74.39 26.92C73.35 26.5 73.48 25.63 72.6 25.33C71.26 24.85 70.53 25.96 68.29 26.29C65.95 26.64 64 25.81 63.39 25.5C61.94 24.8 62.15 24.35 60.49 23.3C59.77 22.84 56.24 20.7 54.39 21.95C53.38 22.62 53.79 23.66 52.99 24.04C52.76 24.14 52.53 24.16 52.26 24.11C54.86 24.96 55.84 26.13 56.23 27.09C56.52 27.79 56.42 28.17 56.55 28.81C56.55 28.81 56.66 29.21 56.8 29.56C57.27 30.85 58.45 31.83 59.2 32.81C60.62 34.66 59.82 35.57 60.81 36.19C62.5 37.24 64.68 34.56 66.88 35.55C68.24 36.16 68.9 37.58 69.23 38.5C69.54 39.5 70.12 40.83 71.37 41.68C73.82 43.34 76.11 41.27 79.35 42.67C81.69 43.69 81.03 45.01 84.18 46.82C86.86 48.36 88.37 47.98 89.03 49.34C89.93 51.2 87.59 52.87 88.35 54.54C89.51 57.1 95.86 55.17 97.28 57.83C98.27 59.69 95.54 61.31 96.11 64.25C96.88 68.18 102.31 68.05 103.34 71.97C104.3 75.61 100.24 78.17 101.69 81.05C102.82 83.29 105.62 82.43 106.87 84.73C108.5 87.73 104.56 90.86 106.13 93.64C107.57 96.19 112 95.55 112.62 98.13C112.72 98.56 112.62 99.14 112.43 100.3C112.04 102.68 111.27 103.03 111.27 104.45C111.27 107.17 112.72 108.23 112.09 109.16C111.17 110.52 107.51 109 106.89 110.26C106.43 111.2 108.08 112.48 107.55 113.44C107.01 114.41 105.04 113.62 104.37 114.59C103.47 115.88 106.03 118.72 105.32 119.43C104.79 119.96 103.19 118.53 102.33 119.14C101.2 119.93 102.86 123.13 101.65 124.09C100.73 124.81 98.96 123.64 98.53 124.27C98.11 124.88 99.74 126.17 99.27 127.17C98.92 127.92 97.78 127.66 97.12 128.61C96.71 129.19 96.71 129.89 96.77 130.38C95.98 131.29 95.19 132.2 94.39 133.12C95.36 133.27 96.18 133.56 97.09 132.97C98.62 131.96 97.91 130.05 99.62 128.5C100.7 127.53 102.07 127.3 103.01 127.24C103.59 126.51 104.49 125.63 105.79 125.16C108.28 124.24 110.31 125.48 111.25 124.35Z" fill="#FFBDD2" fill-opacity="1.000000" fill-rule="nonzero"/>
			</g>
		</g>
		<g mask="url(#mask1_36573)">
			<g style="mix-blend-mode:normal">
				<path id="Path 21001" d="M111.89 121.33C112.59 120.6 113.54 121.1 115.06 120.62C116.08 120.28 116.84 119.53 118.3 118.05C120.74 115.59 121.95 114.36 121.83 113.11C121.68 111.54 120.06 111.21 120.15 109.76C120.25 108.44 121.57 108.45 122.07 106.92C122.77 104.8 120.7 103.46 121.56 101.4C121.96 100.43 122.56 100.42 122.72 99.45C122.92 98.21 122.04 97.73 121.9 96.44C121.7 94.71 123.13 94.23 123.63 92.24C124.17 90.09 122.44 89.62 122.27 86.36C122.15 84.02 122.94 83.76 122.43 82.32C121.66 80.14 119.56 80.08 119.35 78.39C119.16 76.67 121.25 76.02 120.99 74.51C120.66 72.56 116.91 72.46 116.63 70.44C116.48 69.33 117.63 69.11 117.66 67.72C117.69 65.68 115.63 65.22 114 62.28C112.64 59.8 113.64 59.28 112.22 56.77C110.88 54.39 110.01 54.87 108.38 52.26C106.89 49.89 107.49 49.26 105.83 46.9C104.57 45.08 104.05 45.18 103.23 43.57C102.22 41.6 102.75 40.91 101.78 39.35C100.92 37.97 100.37 38.27 98.47 36.44C96.01 34.09 96.36 33.04 94.6 32.07C92.74 31.04 92.13 32.1 89.96 31.22C86.78 29.93 86.83 27.11 84.63 26.86C82.29 26.61 80.86 29.64 79.07 28.9C78.08 28.5 78.1 27.44 76.8 27.07C75.78 26.77 75.36 27.3 74.39 26.92C73.35 26.5 73.48 25.63 72.6 25.33C71.26 24.85 70.53 25.96 68.29 26.29C65.95 26.64 64 25.81 63.39 25.5C61.94 24.8 62.15 24.35 60.49 23.3C59.77 22.84 56.24 20.7 54.39 21.95C53.38 22.62 53.79 23.66 52.99 24.04C52.76 24.14 52.53 24.16 52.26 24.11C54.86 24.96 55.84 26.13 56.23 27.09C56.52 27.79 56.42 28.17 56.55 28.81C56.55 28.81 56.66 29.21 56.8 29.56C57.27 30.85 58.45 31.83 59.2 32.81C60.62 34.66 59.82 35.57 60.81 36.19C62.5 37.24 64.68 34.56 66.88 35.55C68.24 36.16 68.9 37.58 69.23 38.5C69.54 39.5 70.12 40.83 71.37 41.68C73.82 43.34 76.11 41.27 79.35 42.67C81.69 43.69 81.03 45.01 84.18 46.82C86.86 48.36 88.37 47.98 89.03 49.34C89.93 51.2 87.59 52.87 88.35 54.54C89.51 57.1 95.86 55.17 97.28 57.83C98.27 59.69 95.54 61.31 96.11 64.25C96.88 68.18 102.31 68.05 103.34 71.97C104.3 75.61 100.24 78.17 101.69 81.05C102.82 83.29 105.62 82.43 106.87 84.73C108.5 87.73 104.56 90.86 106.13 93.64C107.57 96.19 112 95.55 112.62 98.13C112.72 98.56 112.62 99.14 112.43 100.3C112.04 102.68 111.27 103.03 111.27 104.45C111.27 107.17 112.72 108.23 112.09 109.16C111.17 110.52 107.51 109 106.89 110.26C106.43 111.2 108.08 112.48 107.55 113.44C107.01 114.41 105.04 113.62 104.37 114.59C103.47 115.88 106.03 118.72 105.32 119.43C104.79 119.96 103.19 118.53 102.33 119.14C101.2 119.93 102.86 123.13 101.65 124.09C100.73 124.81 98.96 123.64 98.53 124.27C98.11 124.88 99.74 126.17 99.27 127.17C98.92 127.92 97.78 127.66 97.12 128.61C96.71 129.19 96.71 129.89 96.77 130.38C95.98 131.29 95.19 132.2 94.39 133.12C95.36 133.27 96.18 133.56 97.09 132.97C98.62 131.96 97.91 130.05 99.62 128.5C100.7 127.53 102.07 127.3 103.01 127.24C103.59 126.51 104.49 125.63 105.79 125.16C108.28 124.24 110.31 125.48 111.25 124.35C112 123.45 111.04 122.23 111.89 121.33Z" stroke="#231F20" stroke-opacity="1.000000" stroke-width="1.000000"/>
			</g>
		</g>
		<g mask="url(#mask1_36573)">
			<g opacity="0.500000">
				<mask id="mask1_36589" mask-type="alpha" maskUnits="userSpaceOnUse" x="0.000244" y="19.022949" width="111.188477" height="132.152344">
					<g style="mix-blend-mode:normal">
						<rect id="Rectangle 2885" x="0.000244" y="48.353516" width="55.348724" height="121.245232" transform="rotate(-32 0.000244 48.353516)" fill="#C4C4C4" fill-opacity="1.000000"/>
					</g>
				</mask>
				<g mask="url(#mask1_36589)">
					<g style="mix-blend-mode:normal">
						<path id="Path 21002" d="M89.77 134.99C85.38 133.54 83.73 131.6 83.06 130.05C82.64 129.08 82.25 127.47 81.16 127.23C80.2 127.02 79.67 128.08 78.72 127.84C77.56 127.55 77.88 125.77 76.37 124.89C75.31 124.26 74.62 124.85 73.64 124.09C72.86 123.48 73.1 122.94 72.46 122.11C70.95 120.14 67.8 120.77 67.57 119.62C67.45 119.01 68.32 118.71 68.19 118.03C67.97 116.93 65.5 117.01 65.3 116.02C65.12 115.12 67.06 114.52 66.96 113.37C66.88 112.56 65.88 112.55 65 111.33C63.96 109.9 64.71 109.04 63.89 107.83C62.63 105.98 59.89 106.55 59.67 105.47C59.45 104.34 62.39 103.12 62.12 102.36C61.88 101.68 59.48 102.7 58.09 101.49C56.75 100.32 57.96 98.47 56.63 96.91C55.12 95.15 52.05 95.74 51.92 94.81C51.84 94.2 53.17 93.97 53.28 93.02C53.43 91.8 51.37 91.32 51.17 89.76C50.97 88.23 52.82 87.67 52.62 86.37C52.33 84.5 48.31 84.41 48.01 82.45C47.82 81.24 49.25 80.6 48.92 79.35C48.57 78.01 46.68 77.76 46.76 77.22C46.9 76.27 52.74 76.62 52.87 75.75C52.98 75.01 48.9 74.25 48.87 72.73C48.85 71.97 49.89 71.87 50.42 70.59C51.03 69.14 50.1 68.31 50.24 66.62C50.46 64.01 53.16 62.93 52.71 62.03C52.24 61.09 49.26 62.02 48.84 61.05C48.53 60.32 50.02 59.4 49.68 58.59C49.43 58.01 48.55 58.18 46.74 57.49C45.48 57 44.56 56.65 44.45 56.03C44.22 54.85 47.09 53.74 46.83 52.82C46.6 52.03 44.34 52.28 44.16 51.47C44.03 50.86 45.24 50.46 45.2 49.53C45.17 48.76 44.33 48.62 44.3 47.87C44.27 46.92 45.54 46.53 45.4 45.81C45.28 45.14 44.15 45.22 43.88 44.42C43.63 43.64 44.54 43.12 44.28 42.39C43.97 41.5 42.58 41.79 42.27 41.04C41.79 39.86 45.02 38.08 44.34 36.51C44.12 35.99 43.67 35.83 43.63 35.22C43.57 34.37 44.38 33.36 45.31 33.15C46.49 32.88 47.32 34.02 47.74 33.71C48.33 33.27 46.45 31.15 46.99 28.8C47.38 27.13 48.62 26.94 49.04 25.31C49.45 23.68 48.68 22.08 47.96 20.97C47.3 20.43 46.31 19.78 45.56 20.09C44.17 20.65 45.19 24.03 43.46 24.93C41.92 25.72 40.02 23.63 38.6 24.57C37.7 25.16 38.25 26.1 37.25 27.37C35.81 29.21 33.34 28.84 33.17 29.88C33.01 30.82 35 31.25 34.98 32.4C34.95 33.95 31.3 34.14 30.76 36.72C30.53 37.76 30.62 38.39 30.83 38.81C31.3 39.75 31.97 39.78 32.13 40.35C32.52 41.8 28.13 42.92 27.61 45.67C27.19 47.87 29.62 48.92 28.87 50.84C28.37 52.16 26.74 53.1 26.46 54.61C26.16 56.18 27.06 56.47 26.78 58.02C26.4 60.19 24.5 60.4 24.39 62.19C24.29 63.79 25.76 63.97 26.02 66C26.08 66.62 25.99 66.95 24.67 70.71C23.65 73.66 23.51 74.02 23.57 74.74C23.71 76.18 24.4 76.24 25.02 78.23C25.7 80.44 25 80.82 25.6 82.44C26.48 84.81 28.41 84.34 29 86.56C29.68 89.07 28.1 90.52 29.18 92.39C30.17 94.09 32.14 93.95 32.42 95.55C32.61 96.58 31.83 96.93 32.01 98.23C32.15 99.22 32.69 99.58 33.59 100.89C35.06 103.06 34.4 103.53 35.49 104.63C37.52 106.67 39.41 105.87 40.23 107.43C41.1 109.14 39.17 110.79 40.12 112.26C41.04 113.68 43.21 112.64 44.42 114.14C45.69 115.71 44 117.66 45.24 119.28C46.39 120.77 48.28 119.68 50.09 121.37C51.47 122.67 50.64 123.6 52.07 125.27C53.79 127.24 55.34 126.39 56.92 128.44C57.96 129.77 57.85 130.89 58.92 131.27C59.86 131.61 60.34 130.91 61.52 131C63.19 131.13 63.45 132.58 65.18 133.6C68.02 135.27 70.15 132.9 72.75 134.6C74.47 135.72 74.11 137.12 75.67 137.53C76.47 137.75 77.13 137.52 80.51 136.25C81.87 135.46 83.98 134.52 86.48 134.71C86.83 134.74 87.76 135.48 88.93 135.28C89.3 135.21 89.59 135.09 89.77 134.99Z" fill="#FFBDD2" fill-opacity="1.000000" fill-rule="nonzero"/>
					</g>
				</g>
				<g mask="url(#mask1_36589)">
					<g style="mix-blend-mode:normal">
						<path id="Path 21003" d="M83.06 130.05C82.64 129.08 82.25 127.47 81.16 127.23C80.2 127.02 79.67 128.08 78.72 127.84C77.56 127.55 77.88 125.77 76.37 124.89C75.31 124.26 74.62 124.85 73.64 124.09C72.86 123.48 73.1 122.94 72.46 122.11C70.95 120.14 67.8 120.77 67.57 119.62C67.45 119.01 68.32 118.71 68.19 118.03C67.97 116.93 65.5 117.01 65.3 116.02C65.12 115.12 67.06 114.52 66.96 113.37C66.88 112.56 65.88 112.55 65 111.33C63.96 109.9 64.71 109.04 63.89 107.83C62.63 105.98 59.89 106.55 59.67 105.47C59.45 104.34 62.39 103.12 62.12 102.36C61.88 101.68 59.48 102.7 58.09 101.49C56.75 100.32 57.96 98.47 56.63 96.91C55.12 95.15 52.05 95.74 51.92 94.81C51.84 94.2 53.17 93.97 53.28 93.02C53.43 91.8 51.37 91.32 51.17 89.76C50.97 88.23 52.82 87.67 52.62 86.37C52.33 84.5 48.31 84.41 48.01 82.45C47.82 81.24 49.25 80.6 48.92 79.35C48.57 78.01 46.68 77.76 46.76 77.22C46.9 76.27 52.74 76.62 52.87 75.75C52.98 75.01 48.9 74.25 48.87 72.73C48.85 71.97 49.89 71.87 50.42 70.59C51.03 69.14 50.1 68.31 50.24 66.62C50.46 64.01 53.16 62.93 52.71 62.03C52.24 61.09 49.26 62.02 48.84 61.05C48.53 60.32 50.02 59.4 49.68 58.59C49.43 58.01 48.55 58.18 46.74 57.49C45.48 57 44.56 56.65 44.45 56.03C44.22 54.85 47.09 53.74 46.83 52.82C46.6 52.03 44.34 52.28 44.16 51.47C44.03 50.86 45.24 50.46 45.2 49.53C45.17 48.76 44.33 48.62 44.3 47.87C44.27 46.92 45.54 46.53 45.4 45.81C45.28 45.14 44.15 45.22 43.88 44.42C43.63 43.64 44.54 43.12 44.28 42.39C43.97 41.5 42.58 41.79 42.27 41.04C41.79 39.86 45.02 38.08 44.34 36.51C44.12 35.99 43.67 35.83 43.63 35.22C43.57 34.37 44.38 33.36 45.31 33.15C46.49 32.88 47.32 34.02 47.74 33.71C48.33 33.27 46.45 31.15 46.99 28.8C47.38 27.13 48.62 26.94 49.04 25.31C49.45 23.68 48.68 22.08 47.96 20.97C47.3 20.43 46.31 19.78 45.56 20.09C44.17 20.65 45.19 24.03 43.46 24.93C41.92 25.72 40.02 23.63 38.6 24.57C37.7 25.16 38.25 26.1 37.25 27.37C35.81 29.21 33.34 28.84 33.17 29.88C33.01 30.82 35 31.25 34.98 32.4C34.95 33.95 31.3 34.14 30.76 36.72C30.53 37.76 30.62 38.39 30.83 38.81C31.3 39.75 31.97 39.78 32.13 40.35C32.52 41.8 28.13 42.92 27.61 45.67C27.19 47.87 29.62 48.92 28.87 50.84C28.37 52.16 26.74 53.1 26.46 54.61C26.16 56.18 27.06 56.47 26.78 58.02C26.4 60.19 24.5 60.4 24.39 62.19C24.29 63.79 25.76 63.97 26.02 66C26.08 66.62 25.99 66.95 24.67 70.71C23.65 73.66 23.51 74.02 23.57 74.74C23.71 76.18 24.4 76.24 25.02 78.23C25.7 80.44 25 80.82 25.6 82.44C26.48 84.81 28.41 84.34 29 86.56C29.68 89.07 28.1 90.52 29.18 92.39C30.17 94.09 32.14 93.95 32.42 95.55C32.61 96.58 31.83 96.93 32.01 98.23C32.15 99.22 32.69 99.58 33.59 100.89C35.06 103.06 34.4 103.53 35.49 104.63C37.52 106.67 39.41 105.87 40.23 107.43C41.1 109.14 39.17 110.79 40.12 112.26C41.04 113.68 43.21 112.64 44.42 114.14C45.69 115.71 44 117.66 45.24 119.28C46.39 120.77 48.28 119.68 50.09 121.37C51.47 122.67 50.64 123.6 52.07 125.27C53.79 127.24 55.34 126.39 56.92 128.44C57.96 129.77 57.85 130.89 58.92 131.27C59.86 131.61 60.34 130.91 61.52 131C63.19 131.13 63.45 132.58 65.18 133.6C68.02 135.27 70.15 132.9 72.75 134.6C74.47 135.72 74.11 137.12 75.67 137.53C76.47 137.75 77.13 137.52 80.51 136.25C81.87 135.46 83.98 134.52 86.48 134.71C86.83 134.74 87.76 135.48 88.93 135.28C89.3 135.21 89.59 135.09 89.77 134.99C85.38 133.54 83.73 131.6 83.06 130.05Z" stroke="#231F20" stroke-opacity="1.000000" stroke-width="1.000000"/>
					</g>
				</g>
			</g>
		</g>
	</g>
	<mask id="mask1_36593" mask-type="alpha" maskUnits="userSpaceOnUse" x="113.173340" y="40.812988" width="114.717773" height="156.612793">
		<g style="mix-blend-mode:normal">
			<rect id="Rectangle 2887" x="158.922363" y="40.812988" width="72.942841" height="140.520935" transform="rotate(19 158.922363 40.812988)" fill="#C4C4C4" fill-opacity="1.000000"/>
		</g>
	</mask>
	<g mask="url(#mask1_36593)">
		<mask id="mask1_36596" mask-type="alpha" maskUnits="userSpaceOnUse" x="113.173340" y="40.812988" width="114.717773" height="156.612793">
			<g style="mix-blend-mode:normal">
				<rect id="Rectangle 2886" x="158.922363" y="40.812988" width="72.942841" height="140.520935" transform="rotate(19 158.922363 40.812988)" fill="#C4C4C4" fill-opacity="1.000000"/>
			</g>
		</mask>
		<g mask="url(#mask1_36596)">
			<g style="mix-blend-mode:normal">
				<path id="Path 20994" d="M150.25 184.37C150.65 183.12 162.9 147.79 167.59 134.26C167.7 133.96 167.71 133.65 167.66 133.38C167.55 132.79 167.12 132.25 166.52 132.06C165.61 131.74 164.62 132.23 164.31 133.11C164.27 133.24 164.22 133.37 164.18 133.51C161.89 140.14 147.24 182.27 146.91 183.42C146.83 183.72 146.84 184.02 146.92 184.31C147.05 184.9 147.52 185.38 148.12 185.57C149.04 185.82 150 185.29 150.25 184.37Z" fill="#F9DCB0" fill-opacity="1.000000" fill-rule="nonzero"/>
			</g>
		</g>
		<g mask="url(#mask1_36596)">
			<g style="mix-blend-mode:normal">
				<path id="Path 20995" d="M167.59 134.26C167.7 133.96 167.71 133.65 167.66 133.38C167.55 132.79 167.12 132.25 166.52 132.06C165.61 131.74 164.62 132.23 164.31 133.11C164.27 133.24 164.22 133.37 164.18 133.51C161.89 140.14 147.24 182.27 146.91 183.42C146.83 183.72 146.84 184.02 146.92 184.31C147.05 184.9 147.52 185.38 148.12 185.57C149.04 185.82 150 185.29 150.25 184.37C150.65 183.12 162.9 147.79 167.59 134.26Z" stroke="#231F20" stroke-opacity="1.000000" stroke-width="1.000000"/>
			</g>
		</g>
		<g mask="url(#mask1_36596)">
			<g opacity="0.500000" style="mix-blend-mode:multiply">
				<mask id="mask1_36607" mask-type="alpha" maskUnits="userSpaceOnUse" x="146.285889" y="131.333008" width="22.039062" height="54.963379">
					<g style="mix-blend-mode:normal">
						<rect id="Rectangle 2884" x="164.792480" y="131.333008" width="3.736055" height="56.843742" transform="rotate(19 164.792480 131.333008)" fill="#C4C4C4" fill-opacity="1.000000"/>
					</g>
				</mask>
				<g mask="url(#mask1_36607)">
					<g style="mix-blend-mode:normal">
						<path id="Path 20996" d="M150.25 184.37C150.65 183.12 162.9 147.79 167.59 134.26C167.7 133.96 167.71 133.65 167.66 133.38C167.55 132.79 167.12 132.25 166.52 132.06C165.61 131.74 164.62 132.23 164.31 133.11C164.27 133.24 164.22 133.37 164.18 133.51C166.77 134.76 165.53 134.89 156.94 160.4C149.63 182.08 149.61 185.91 146.95 184.26C147.09 184.85 147.52 185.38 148.12 185.57C149.04 185.82 150 185.29 150.25 184.37Z" fill="#BF7E5A" fill-opacity="1.000000" fill-rule="nonzero"/>
					</g>
				</g>
				<g mask="url(#mask1_36607)">
					<g style="mix-blend-mode:normal">
						<path id="Path 20997" d="M167.59 134.26C167.7 133.96 167.71 133.65 167.66 133.38C167.55 132.79 167.12 132.25 166.52 132.06C165.61 131.74 164.62 132.23 164.31 133.11C164.27 133.24 164.22 133.37 164.18 133.51C166.77 134.76 165.53 134.89 156.94 160.4C149.63 182.08 149.61 185.91 146.95 184.26C147.09 184.85 147.52 185.38 148.12 185.57C149.04 185.82 150 185.29 150.25 184.37C150.65 183.12 162.9 147.79 167.59 134.26Z" stroke="#231F20" stroke-opacity="1.000000" stroke-width="1.000000"/>
					</g>
				</g>
			</g>
		</g>
		<g mask="url(#mask1_36596)">
			<g style="mix-blend-mode:normal">
				<path id="Path 20998" d="M167.67 148.16C168.61 148.17 168.88 146.96 169.87 147.04C170.68 147.1 170.84 147.95 171.91 148.65C172.63 149.12 173.48 149.21 175.13 149.37C177.89 149.65 179.26 149.78 179.98 149.07C180.88 148.2 180.27 147.02 181.22 146.35C182.08 145.75 182.74 146.58 183.94 146.12C185.61 145.49 185.4 143.52 187.11 143.02C187.92 142.78 188.23 143.15 188.91 142.76C189.79 142.26 189.64 141.47 190.37 140.73C191.34 139.74 192.36 140.39 193.85 139.7C195.46 138.95 194.88 137.64 196.81 135.89C198.21 134.64 198.77 135 199.41 133.96C200.38 132.39 199.35 131.05 200.3 130.07C201.27 129.09 202.73 130.06 203.53 129.14C204.58 127.95 202.76 125.58 203.87 124.38C204.48 123.73 205.2 124.33 206.08 123.65C207.36 122.64 206.61 121.13 207.62 118.64C208.47 116.55 209.3 116.9 210.14 114.76C210.95 112.73 210.21 112.43 211.01 110.11C211.74 107.99 212.43 108.05 213.06 105.83C213.56 104.13 213.23 103.86 213.82 102.54C214.54 100.92 215.24 100.91 215.71 99.52C216.14 98.28 215.67 98.09 215.86 95.99C216.08 93.28 216.91 92.98 216.63 91.39C216.33 89.71 215.37 89.87 214.82 88.08C214.02 85.46 215.8 84.07 214.84 82.58C213.82 81 211.22 81.64 210.78 80.15C210.53 79.33 211.2 78.82 210.78 77.82C210.45 77.04 209.91 77.04 209.65 76.24C209.39 75.38 210 75.03 209.74 74.33C209.37 73.26 208.31 73.37 206.98 72.14C205.58 70.86 205.12 69.23 205.01 68.7C204.71 67.45 205.09 67.35 204.91 65.79C204.83 65.11 204.39 61.84 202.69 61.32C201.76 61.03 201.32 61.81 200.68 61.5C200.5 61.41 200.37 61.27 200.27 61.09C199.79 60.19 200.09 58.31 200.06 56.83C200.04 55.93 199.89 55.18 199.4 54.9C198.35 54.32 196.76 56.65 195.33 56.03C194.07 55.47 194.41 53.24 193.11 52.83C192.29 52.56 191.98 53.38 190.7 53.4C188.82 53.43 187.82 51.71 187.08 52.13C186.42 52.5 187.15 53.95 186.43 54.52C185.45 55.28 183.5 53.11 181.62 54.07C180.86 54.45 180.51 54.82 180.36 55.16C180.01 55.93 180.33 56.36 180.05 56.75C179.35 57.72 176.45 55.56 174.47 56.62C172.9 57.46 173.47 59.5 171.9 60C170.83 60.36 169.42 59.81 168.34 60.4C167.22 61 167.49 61.71 166.38 62.32C164.84 63.17 163.76 62.09 162.59 62.93C161.55 63.67 162.17 64.68 161.04 65.85C160.69 66.21 160.44 66.31 157.44 67.39C155.09 68.24 154.8 68.33 154.38 68.74C153.56 69.54 153.87 70 152.94 71.39C151.91 72.92 151.33 72.68 150.62 73.87C149.59 75.61 150.85 76.57 149.77 78.05C148.56 79.74 146.86 79.48 146.24 81.09C145.68 82.57 146.76 83.72 145.91 84.7C145.36 85.33 144.75 85.02 144.04 85.79C143.49 86.38 143.54 86.89 143.18 88.11C142.57 90.12 141.94 89.95 141.81 91.17C141.57 93.46 143.01 94.24 142.46 95.53C141.83 96.93 139.83 96.56 139.4 97.89C138.98 99.17 140.71 100 140.39 101.51C140.06 103.09 137.99 103.01 137.62 104.6C137.26 106.06 138.9 106.69 138.75 108.67C138.64 110.18 137.64 110.13 137.33 111.86C136.97 113.92 138.27 114.45 137.8 116.47C137.49 117.78 136.75 118.27 137.04 119.13C137.31 119.88 137.98 119.83 138.52 120.61C139.28 121.71 138.51 122.6 138.75 124.19C139.14 126.8 141.68 126.93 141.94 129.4C142.1 131.03 141.05 131.51 141.58 132.69C141.85 133.29 142.33 133.59 144.82 135.05C145.99 135.5 147.64 136.33 148.77 137.98C149.16 138.55 149.06 139.22 149.65 139.79C149.86 139.99 150.06 140.1 150.26 140.17C150.84 140.41 151.45 140.31 152.28 140.68C153.08 141.05 153.46 141.57 153.75 142.1C154.13 142.78 154.37 143.44 155.19 143.7C156.59 144.14 157.42 142.74 159.25 143.02C160.39 143.2 161.22 143.94 161.73 144.5C162.48 144.49 163.48 144.61 164.42 145.18C166.24 146.26 166.49 148.14 167.67 148.16Z" fill="#FFDBE5" fill-opacity="1.000000" fill-rule="nonzero"/>
			</g>
		</g>
		<g mask="url(#mask1_36596)">
			<g style="mix-blend-mode:normal">
				<path id="Path 20999" d="M169.87 147.04C170.68 147.1 170.84 147.95 171.91 148.65C172.63 149.12 173.48 149.21 175.13 149.37C177.89 149.65 179.26 149.78 179.98 149.07C180.88 148.2 180.27 147.02 181.22 146.35C182.08 145.75 182.74 146.58 183.94 146.12C185.61 145.49 185.4 143.52 187.11 143.02C187.92 142.78 188.23 143.15 188.91 142.76C189.79 142.26 189.64 141.47 190.37 140.73C191.34 139.74 192.36 140.39 193.85 139.7C195.46 138.95 194.88 137.64 196.81 135.89C198.21 134.64 198.77 135 199.41 133.96C200.38 132.39 199.35 131.05 200.3 130.07C201.27 129.09 202.73 130.06 203.53 129.14C204.58 127.95 202.76 125.58 203.87 124.38C204.48 123.73 205.2 124.33 206.08 123.65C207.36 122.64 206.61 121.13 207.62 118.64C208.47 116.55 209.3 116.9 210.14 114.76C210.95 112.73 210.21 112.43 211.01 110.11C211.74 107.99 212.43 108.05 213.06 105.83C213.56 104.13 213.23 103.86 213.82 102.54C214.54 100.92 215.24 100.91 215.71 99.52C216.14 98.28 215.67 98.09 215.86 95.99C216.08 93.28 216.91 92.98 216.63 91.39C216.33 89.71 215.37 89.87 214.82 88.08C214.02 85.46 215.8 84.07 214.84 82.58C213.82 81 211.22 81.64 210.78 80.15C210.53 79.33 211.2 78.82 210.78 77.82C210.45 77.04 209.91 77.04 209.65 76.24C209.39 75.38 210 75.03 209.74 74.33C209.37 73.26 208.31 73.37 206.98 72.14C205.58 70.86 205.12 69.23 205.01 68.7C204.71 67.45 205.09 67.35 204.91 65.79C204.83 65.11 204.39 61.84 202.69 61.32C201.76 61.03 201.32 61.81 200.68 61.5C200.5 61.41 200.37 61.27 200.27 61.09C199.79 60.19 200.09 58.31 200.06 56.83C200.04 55.93 199.89 55.18 199.4 54.9C198.35 54.32 196.76 56.65 195.33 56.03C194.07 55.47 194.41 53.24 193.11 52.83C192.29 52.56 191.98 53.38 190.7 53.4C188.82 53.43 187.82 51.71 187.08 52.13C186.42 52.5 187.15 53.95 186.43 54.52C185.45 55.28 183.5 53.11 181.62 54.07C180.86 54.45 180.51 54.82 180.36 55.16C180.01 55.93 180.33 56.36 180.05 56.75C179.35 57.72 176.45 55.56 174.47 56.62C172.9 57.46 173.47 59.5 171.9 60C170.83 60.36 169.42 59.81 168.34 60.4C167.22 61 167.49 61.71 166.38 62.32C164.84 63.17 163.76 62.09 162.59 62.93C161.55 63.67 162.17 64.68 161.04 65.85C160.69 66.21 160.44 66.31 157.44 67.39C155.09 68.24 154.8 68.33 154.38 68.74C153.56 69.54 153.87 70 152.94 71.39C151.91 72.92 151.33 72.68 150.62 73.87C149.59 75.61 150.85 76.57 149.77 78.05C148.56 79.74 146.86 79.48 146.24 81.09C145.68 82.57 146.76 83.72 145.91 84.7C145.36 85.33 144.75 85.02 144.04 85.79C143.49 86.38 143.54 86.89 143.18 88.11C142.57 90.12 141.94 89.95 141.81 91.17C141.57 93.46 143.01 94.24 142.46 95.53C141.83 96.93 139.83 96.56 139.4 97.89C138.98 99.17 140.71 100 140.39 101.51C140.06 103.09 137.99 103.01 137.62 104.6C137.26 106.06 138.9 106.69 138.75 108.67C138.64 110.18 137.64 110.13 137.33 111.86C136.97 113.92 138.27 114.45 137.8 116.47C137.49 117.78 136.75 118.27 137.04 119.13C137.31 119.88 137.98 119.83 138.52 120.61C139.28 121.71 138.51 122.6 138.75 124.19C139.14 126.8 141.68 126.93 141.94 129.4C142.1 131.03 141.05 131.51 141.58 132.69C141.85 133.29 142.33 133.59 144.82 135.05C145.99 135.5 147.64 136.33 148.77 137.98C149.16 138.55 149.06 139.22 149.65 139.79C149.86 139.99 150.06 140.1 150.26 140.17C150.84 140.41 151.45 140.31 152.28 140.68C153.08 141.05 153.46 141.57 153.75 142.1C154.13 142.78 154.37 143.44 155.19 143.7C156.59 144.14 157.42 142.74 159.25 143.02C160.39 143.2 161.22 143.94 161.73 144.5C162.48 144.49 163.48 144.61 164.42 145.18C166.24 146.26 166.49 148.14 167.67 148.16C168.61 148.17 168.88 146.96 169.87 147.04Z" stroke="#231F20" stroke-opacity="1.000000" stroke-width="1.000000"/>
			</g>
		</g>
		<g mask="url(#mask1_36596)">
			<g style="mix-blend-mode:normal">
				<path id="Path 21000" d="M167.67 148.16C168.61 148.17 168.88 146.96 169.87 147.04C170.68 147.1 170.84 147.95 171.91 148.65C172.63 149.12 173.48 149.21 175.13 149.37C177.89 149.65 179.26 149.78 179.98 149.07C180.88 148.2 180.27 147.02 181.22 146.35C182.08 145.75 182.74 146.58 183.94 146.12C185.61 145.49 185.4 143.52 187.11 143.02C187.92 142.78 188.23 143.15 188.91 142.76C189.79 142.26 189.64 141.47 190.37 140.73C191.34 139.74 192.36 140.39 193.85 139.7C195.46 138.95 194.88 137.64 196.81 135.89C198.21 134.64 198.77 135 199.41 133.96C200.38 132.39 199.35 131.05 200.3 130.07C201.27 129.09 202.73 130.06 203.53 129.14C204.58 127.95 202.76 125.58 203.87 124.38C204.48 123.73 205.2 124.33 206.08 123.65C207.36 122.64 206.61 121.13 207.62 118.64C208.47 116.55 209.3 116.9 210.14 114.76C210.95 112.73 210.21 112.43 211.01 110.11C211.74 107.99 212.43 108.05 213.06 105.83C213.56 104.13 213.23 103.86 213.82 102.54C214.54 100.92 215.24 100.91 215.71 99.52C216.14 98.28 215.67 98.09 215.86 95.99C216.08 93.28 216.91 92.98 216.63 91.39C216.33 89.71 215.37 89.87 214.82 88.08C214.02 85.46 215.8 84.07 214.84 82.58C213.82 81 211.22 81.64 210.78 80.15C210.53 79.33 211.2 78.82 210.78 77.82C210.45 77.04 209.91 77.04 209.65 76.24C209.39 75.38 210 75.03 209.74 74.33C209.37 73.26 208.31 73.37 206.98 72.14C205.58 70.86 205.12 69.23 205.01 68.7C204.71 67.45 205.09 67.35 204.91 65.79C204.83 65.11 204.39 61.84 202.69 61.32C201.76 61.03 201.32 61.81 200.68 61.5C200.5 61.41 200.37 61.27 200.27 61.09C201.05 63.13 200.81 64.32 200.41 65.05C200.13 65.58 199.84 65.71 199.51 66.12C199.51 66.12 199.32 66.38 199.16 66.64C198.6 67.58 198.58 68.81 198.35 69.77C197.92 71.59 196.95 71.55 197.06 72.47C197.26 74.05 200.03 74.06 200.52 75.92C200.82 77.07 200.28 78.2 199.87 78.87C199.4 79.56 198.87 80.59 198.97 81.79C199.17 84.15 201.61 84.54 202.36 87.25C202.91 89.22 201.76 89.47 202.22 92.34C202.61 94.78 203.6 95.53 203.09 96.62C202.39 98.11 200.17 97.5 199.52 98.81C198.51 100.82 202.91 103.8 201.97 106.02C201.32 107.57 198.93 106.68 197.39 108.52C195.34 110.97 198.15 114.28 196.24 116.89C194.46 119.33 190.83 118.09 189.77 120.44C188.94 122.26 190.88 123.57 190.08 125.51C189.04 128.03 185.11 127.15 184.17 129.53C183.31 131.71 185.94 134.14 184.65 135.82C184.44 136.1 184.03 136.33 183.21 136.8C181.53 137.75 180.93 137.44 180.05 138.16C178.35 139.53 178.43 140.96 177.53 141.04C176.23 141.15 175.33 138.11 174.23 138.36C173.42 138.55 173.45 140.22 172.59 140.37C171.71 140.52 171.21 138.9 170.28 138.97C169.02 139.07 168.54 142.09 167.75 142C167.15 141.94 167.23 140.22 166.42 139.99C165.36 139.69 164.21 142.34 163 142.06C162.09 141.86 161.93 140.16 161.33 140.22C160.73 140.27 160.75 141.92 159.9 142.14C159.26 142.3 158.84 141.46 157.91 141.53C157.35 141.57 156.91 141.92 156.64 142.2C155.67 142.17 154.71 142.13 153.75 142.1C154.13 142.78 154.37 143.44 155.19 143.7C156.59 144.14 157.42 142.74 159.25 143.02C160.39 143.2 161.22 143.94 161.73 144.5C162.48 144.49 163.48 144.61 164.42 145.18C166.24 146.26 166.49 148.14 167.67 148.16Z" fill="#FFBDD2" fill-opacity="1.000000" fill-rule="nonzero"/>
			</g>
		</g>
		<g mask="url(#mask1_36596)">
			<g style="mix-blend-mode:normal">
				<path id="Path 21001" d="M169.87 147.04C170.68 147.1 170.84 147.95 171.91 148.65C172.63 149.12 173.48 149.21 175.13 149.37C177.89 149.65 179.26 149.78 179.98 149.07C180.88 148.2 180.27 147.02 181.22 146.35C182.08 145.75 182.74 146.58 183.94 146.12C185.61 145.49 185.4 143.52 187.11 143.02C187.92 142.78 188.23 143.15 188.91 142.76C189.79 142.26 189.64 141.47 190.37 140.73C191.34 139.74 192.36 140.39 193.85 139.7C195.46 138.95 194.88 137.64 196.81 135.89C198.21 134.64 198.77 135 199.41 133.96C200.38 132.39 199.35 131.05 200.3 130.07C201.27 129.09 202.73 130.06 203.53 129.14C204.58 127.95 202.76 125.58 203.87 124.38C204.48 123.73 205.2 124.33 206.08 123.65C207.36 122.64 206.61 121.13 207.62 118.64C208.47 116.55 209.3 116.9 210.14 114.76C210.95 112.73 210.21 112.43 211.01 110.11C211.74 107.99 212.43 108.05 213.06 105.83C213.56 104.13 213.23 103.86 213.82 102.54C214.54 100.92 215.24 100.91 215.71 99.52C216.14 98.28 215.67 98.09 215.86 95.99C216.08 93.28 216.91 92.98 216.63 91.39C216.33 89.71 215.37 89.87 214.82 88.08C214.02 85.46 215.8 84.07 214.84 82.58C213.82 81 211.22 81.64 210.78 80.15C210.53 79.33 211.2 78.82 210.78 77.82C210.45 77.04 209.91 77.04 209.65 76.24C209.39 75.38 210 75.03 209.74 74.33C209.37 73.26 208.31 73.37 206.98 72.14C205.58 70.86 205.12 69.23 205.01 68.7C204.71 67.45 205.09 67.35 204.91 65.79C204.83 65.11 204.39 61.84 202.69 61.32C201.76 61.03 201.32 61.81 200.68 61.5C200.5 61.41 200.37 61.27 200.27 61.09C201.05 63.13 200.81 64.32 200.41 65.05C200.13 65.58 199.84 65.71 199.51 66.12C199.51 66.12 199.32 66.38 199.16 66.64C198.6 67.58 198.58 68.81 198.35 69.77C197.92 71.59 196.95 71.55 197.06 72.47C197.26 74.05 200.03 74.06 200.52 75.92C200.82 77.07 200.28 78.2 199.87 78.87C199.4 79.56 198.87 80.59 198.97 81.79C199.17 84.15 201.61 84.54 202.36 87.25C202.91 89.22 201.76 89.47 202.22 92.34C202.61 94.78 203.6 95.53 203.09 96.62C202.39 98.11 200.17 97.5 199.52 98.81C198.51 100.82 202.91 103.8 201.97 106.02C201.32 107.57 198.93 106.68 197.39 108.52C195.34 110.97 198.15 114.28 196.24 116.89C194.46 119.33 190.83 118.09 189.77 120.44C188.94 122.26 190.88 123.57 190.08 125.51C189.04 128.03 185.11 127.15 184.17 129.53C183.31 131.71 185.94 134.14 184.65 135.82C184.44 136.1 184.03 136.33 183.21 136.8C181.53 137.75 180.93 137.44 180.05 138.16C178.35 139.53 178.43 140.96 177.53 141.04C176.23 141.15 175.33 138.11 174.23 138.36C173.42 138.55 173.45 140.22 172.59 140.37C171.71 140.52 171.21 138.9 170.28 138.97C169.02 139.07 168.54 142.09 167.75 142C167.15 141.94 167.23 140.22 166.42 139.99C165.36 139.69 164.21 142.34 163 142.06C162.09 141.86 161.93 140.16 161.33 140.22C160.73 140.27 160.75 141.92 159.9 142.14C159.26 142.3 158.84 141.46 157.91 141.53C157.35 141.57 156.91 141.92 156.64 142.2C155.67 142.17 154.71 142.13 153.75 142.1C154.13 142.78 154.37 143.44 155.19 143.7C156.59 144.14 157.42 142.74 159.25 143.02C160.39 143.2 161.22 143.94 161.73 144.5C162.48 144.49 163.48 144.61 164.42 145.18C166.24 146.26 166.49 148.14 167.67 148.16C168.61 148.17 168.88 146.96 169.87 147.04Z" stroke="#231F20" stroke-opacity="1.000000" stroke-width="1.000000"/>
			</g>
		</g>
		<g mask="url(#mask1_36596)">
			<g opacity="0.500000">
				<mask id="mask1_36612" mask-type="alpha" maskUnits="userSpaceOnUse" x="127.367188" y="40.812988" width="73.390381" height="106.048340">
					<g style="mix-blend-mode:normal">
						<rect id="Rectangle 2885" x="158.922363" y="40.812988" width="44.245880" height="96.923676" transform="rotate(19 158.922363 40.812988)" fill="#C4C4C4" fill-opacity="1.000000"/>
					</g>
				</mask>
				<g mask="url(#mask1_36612)">
					<g style="mix-blend-mode:normal">
						<path id="Path 21002" d="M150.26 140.17C148.95 136.72 149.32 134.72 149.95 133.52C150.34 132.76 151.14 131.72 150.75 130.92C150.39 130.21 149.46 130.42 149.14 129.71C148.74 128.84 150 128.14 149.79 126.77C149.64 125.79 148.93 125.66 148.91 124.67C148.9 123.87 149.35 123.75 149.55 122.93C150.02 121.01 148.04 119.36 148.64 118.64C148.95 118.26 149.58 118.65 149.93 118.23C150.51 117.54 149.21 116.04 149.73 115.42C150.2 114.86 151.55 115.76 152.21 115.12C152.67 114.67 152.18 114.03 152.49 112.87C152.86 111.51 153.77 111.55 154.11 110.43C154.62 108.71 152.89 107.29 153.45 106.62C154.05 105.91 156.28 107.12 156.61 106.58C156.92 106.08 155.08 105.11 155.13 103.63C155.19 102.21 156.94 102.03 157.24 100.42C157.58 98.6 155.66 96.98 156.18 96.44C156.52 96.09 157.32 96.79 157.97 96.39C158.81 95.86 158.07 94.34 158.93 93.43C159.78 92.54 161.06 93.41 161.77 92.63C162.79 91.51 160.82 88.97 161.89 87.79C162.55 87.07 163.66 87.63 164.28 86.8C164.93 85.91 164.14 84.61 164.51 84.39C165.17 84 167.89 87.8 168.5 87.44C169.01 87.14 167.43 84.22 168.36 83.44C168.82 83.04 169.41 83.64 170.47 83.33C171.68 82.97 171.73 81.98 172.85 81.21C174.57 80.04 176.61 81.17 176.94 80.44C177.28 79.68 175.21 78.29 175.6 77.54C175.9 76.98 177.22 77.44 177.55 76.82C177.79 76.38 177.24 75.92 176.76 74.45C176.42 73.42 176.18 72.67 176.51 72.29C177.13 71.56 179.26 72.78 179.7 72.15C180.07 71.62 178.78 70.33 179.2 69.82C179.51 69.43 180.37 69.98 180.93 69.49C181.39 69.08 181.05 68.49 181.51 68.09C182.08 67.59 182.96 68.19 183.34 67.74C183.69 67.33 183.08 66.67 183.44 66.1C183.79 65.55 184.58 65.85 184.9 65.33C185.29 64.68 184.42 63.96 184.73 63.4C185.22 62.5 187.95 63.61 188.58 62.4C188.79 62 188.67 61.64 189.02 61.32C189.53 60.85 190.56 60.84 191.16 61.31C191.92 61.91 191.62 63 192.03 63.1C192.6 63.25 192.97 61.02 194.71 60.17C195.94 59.57 196.68 60.25 197.9 59.68C199.12 59.12 199.73 57.84 200.06 56.83C200.06 56.15 199.97 55.21 199.4 54.9C198.35 54.32 196.76 56.65 195.33 56.03C194.07 55.47 194.41 53.24 193.11 52.83C192.29 52.56 191.98 53.38 190.7 53.4C188.82 53.43 187.82 51.71 187.08 52.13C186.42 52.5 187.15 53.95 186.43 54.52C185.45 55.28 183.5 53.11 181.62 54.07C180.86 54.45 180.51 54.82 180.36 55.16C180.01 55.93 180.33 56.36 180.05 56.75C179.35 57.72 176.45 55.56 174.47 56.62C172.9 57.46 173.47 59.5 171.9 60C170.83 60.36 169.42 59.82 168.34 60.4C167.22 61 167.49 61.71 166.38 62.32C164.84 63.17 163.76 62.09 162.59 62.93C161.55 63.67 162.17 64.68 161.04 65.85C160.69 66.21 160.44 66.31 157.44 67.39C155.1 68.24 154.8 68.33 154.38 68.74C153.56 69.54 153.87 70 152.94 71.39C151.91 72.92 151.33 72.68 150.62 73.87C149.59 75.61 150.85 76.57 149.77 78.05C148.56 79.74 146.86 79.48 146.24 81.09C145.68 82.57 146.76 83.72 145.91 84.7C145.36 85.33 144.75 85.02 144.04 85.79C143.49 86.38 143.54 86.89 143.18 88.11C142.57 90.12 141.94 89.95 141.81 91.17C141.57 93.46 143.01 94.24 142.46 95.53C141.83 96.93 139.83 96.56 139.4 97.89C138.98 99.17 140.71 100 140.39 101.51C140.06 103.09 137.99 103.01 137.62 104.6C137.26 106.06 138.9 106.69 138.75 108.67C138.64 110.18 137.64 110.13 137.33 111.86C136.97 113.92 138.27 114.45 137.8 116.47C137.49 117.78 136.75 118.27 137.04 119.13C137.31 119.88 137.98 119.84 138.52 120.61C139.28 121.71 138.51 122.6 138.75 124.19C139.14 126.8 141.68 126.93 141.94 129.4C142.1 131.03 141.05 131.52 141.58 132.69C141.85 133.29 142.33 133.59 144.82 135.05C145.99 135.5 147.64 136.33 148.77 137.98C148.93 138.21 148.95 139.17 149.65 139.79C149.88 139.99 150.1 140.1 150.26 140.17Z" fill="#FFBDD2" fill-opacity="1.000000" fill-rule="nonzero"/>
					</g>
				</g>
				<g mask="url(#mask1_36612)">
					<g style="mix-blend-mode:normal">
						<path id="Path 21003" d="M149.95 133.52C150.34 132.76 151.14 131.72 150.75 130.92C150.39 130.21 149.46 130.42 149.14 129.71C148.74 128.84 150 128.14 149.79 126.77C149.64 125.79 148.93 125.66 148.91 124.67C148.9 123.87 149.35 123.75 149.55 122.93C150.02 121.01 148.04 119.36 148.64 118.64C148.95 118.26 149.58 118.65 149.93 118.23C150.51 117.54 149.21 116.04 149.73 115.42C150.2 114.86 151.55 115.76 152.21 115.12C152.67 114.67 152.18 114.03 152.49 112.87C152.86 111.51 153.77 111.55 154.11 110.43C154.62 108.71 152.89 107.29 153.45 106.62C154.05 105.91 156.28 107.12 156.61 106.58C156.92 106.08 155.08 105.11 155.13 103.63C155.19 102.21 156.94 102.03 157.24 100.42C157.58 98.6 155.66 96.98 156.18 96.44C156.52 96.09 157.32 96.79 157.97 96.39C158.81 95.86 158.07 94.34 158.93 93.43C159.78 92.54 161.06 93.41 161.77 92.63C162.79 91.51 160.82 88.97 161.89 87.79C162.55 87.07 163.66 87.63 164.28 86.8C164.93 85.91 164.14 84.61 164.51 84.39C165.17 84 167.89 87.8 168.5 87.44C169.01 87.14 167.43 84.22 168.36 83.44C168.82 83.04 169.41 83.64 170.47 83.33C171.68 82.97 171.73 81.98 172.85 81.21C174.57 80.04 176.61 81.17 176.94 80.44C177.28 79.68 175.21 78.29 175.6 77.54C175.9 76.98 177.22 77.44 177.55 76.82C177.79 76.38 177.24 75.92 176.76 74.45C176.42 73.42 176.18 72.67 176.51 72.29C177.13 71.56 179.26 72.78 179.7 72.15C180.07 71.62 178.78 70.33 179.2 69.82C179.51 69.43 180.37 69.98 180.93 69.49C181.39 69.08 181.05 68.49 181.51 68.09C182.08 67.59 182.96 68.19 183.34 67.74C183.69 67.33 183.08 66.67 183.44 66.1C183.79 65.55 184.58 65.85 184.9 65.33C185.29 64.68 184.42 63.96 184.73 63.4C185.22 62.5 187.95 63.61 188.58 62.4C188.79 62 188.67 61.64 189.02 61.32C189.53 60.85 190.56 60.84 191.16 61.31C191.92 61.91 191.62 63 192.03 63.1C192.6 63.25 192.97 61.02 194.71 60.17C195.94 59.57 196.68 60.25 197.9 59.68C199.12 59.12 199.73 57.84 200.06 56.83C200.06 56.15 199.97 55.21 199.4 54.9C198.35 54.32 196.76 56.65 195.33 56.03C194.07 55.47 194.41 53.24 193.11 52.83C192.29 52.56 191.98 53.38 190.7 53.4C188.82 53.43 187.82 51.71 187.08 52.13C186.42 52.5 187.15 53.95 186.43 54.52C185.45 55.28 183.5 53.11 181.62 54.07C180.86 54.45 180.51 54.82 180.36 55.16C180.01 55.93 180.33 56.36 180.05 56.75C179.35 57.72 176.45 55.56 174.47 56.62C172.9 57.46 173.47 59.5 171.9 60C170.83 60.36 169.42 59.82 168.34 60.4C167.22 61 167.49 61.71 166.38 62.32C164.84 63.17 163.76 62.09 162.59 62.93C161.55 63.67 162.17 64.68 161.04 65.85C160.69 66.21 160.44 66.31 157.44 67.39C155.1 68.24 154.8 68.33 154.38 68.74C153.56 69.54 153.87 70 152.94 71.39C151.91 72.92 151.33 72.68 150.62 73.87C149.59 75.61 150.85 76.57 149.77 78.05C148.56 79.74 146.86 79.48 146.24 81.09C145.68 82.57 146.76 83.72 145.91 84.7C145.36 85.33 144.75 85.02 144.04 85.79C143.49 86.38 143.54 86.89 143.18 88.11C142.57 90.12 141.94 89.95 141.81 91.17C141.57 93.46 143.01 94.24 142.46 95.53C141.83 96.93 139.83 96.56 139.4 97.89C138.98 99.17 140.71 100 140.39 101.51C140.06 103.09 137.99 103.01 137.62 104.6C137.26 106.06 138.9 106.69 138.75 108.67C138.64 110.18 137.64 110.13 137.33 111.86C136.97 113.92 138.27 114.45 137.8 116.47C137.49 117.78 136.75 118.27 137.04 119.13C137.31 119.88 137.98 119.84 138.52 120.61C139.28 121.71 138.51 122.6 138.75 124.19C139.14 126.8 141.68 126.93 141.94 129.4C142.1 131.03 141.05 131.52 141.58 132.69C141.85 133.29 142.33 133.59 144.82 135.05C145.99 135.5 147.64 136.33 148.77 137.98C148.93 138.21 148.95 139.17 149.65 139.79C149.88 139.99 150.1 140.1 150.26 140.17C148.95 136.72 149.32 134.72 149.95 133.52Z" stroke="#231F20" stroke-opacity="1.000000" stroke-width="1.000000"/>
					</g>
				</g>
			</g>
		</g>
	</g>
</svg>
