<svg width="78.916504" height="78.916016" viewBox="0 0 78.9165 78.916" fill="none" xmlns="http://www.w3.org/2000/svg" xmlns:xlink="http://www.w3.org/1999/xlink">
	<desc>
			Created with Pixso.
	</desc>
	<defs/>
	<g style="mix-blend-mode:normal">
		<path id="Path 22752" d="M40.14 0C18.35 -0.38 0.38 16.98 0 38.77C-0.38 60.55 16.98 78.52 38.76 78.9C60.55 79.29 78.52 61.93 78.91 40.14C79.29 18.35 61.93 0.38 40.14 0ZM39.63 52.66C38.47 53.78 37.13 54.66 35.61 55.3C33.55 56.17 31.12 56.58 28.32 56.53C25.75 56.49 23.46 56.01 21.44 55.1C19.42 54.19 17.72 52.96 16.33 51.39C14.94 49.83 13.89 47.99 13.17 45.86C12.45 43.74 12.11 41.44 12.15 38.97C12.19 36.44 12.64 34.14 13.5 32.04C14.36 29.94 15.54 28.14 17.05 26.64C18.56 25.13 20.36 23.97 22.45 23.16C24.54 22.34 26.82 21.96 29.32 22C30.58 22.02 31.78 22.16 32.89 22.4C34.01 22.65 35.05 22.97 36.02 23.38C36.99 23.8 37.87 24.29 38.69 24.86C38.99 25.07 39.28 25.29 39.56 25.52C40.31 26.13 40.42 27.24 39.83 28L38.13 30.21C37.95 30.42 37.75 30.62 37.51 30.79C37.27 30.97 36.93 31.05 36.49 31.04C36.22 31.03 35.96 30.95 35.73 30.83C35.49 30.7 35.24 30.55 34.97 30.37C34.69 30.19 34.39 29.99 34.06 29.78C33.73 29.56 33.34 29.36 32.89 29.18C32.44 28.99 31.91 28.83 31.3 28.7C30.69 28.56 29.98 28.49 29.16 28.47C27.86 28.45 26.67 28.67 25.58 29.13C24.5 29.59 23.56 30.27 22.76 31.18C21.96 32.09 21.34 33.21 20.89 34.54C20.45 35.87 20.21 37.39 20.18 39.11C20.15 40.84 20.35 42.38 20.8 43.73C21.25 45.09 21.87 46.23 22.67 47.17C23.46 48.1 24.4 48.82 25.47 49.31C26.55 49.81 27.7 50.07 28.94 50.09C29.65 50.11 30.3 50.08 30.89 50.02C31.48 49.96 32.03 49.86 32.54 49.7C33.06 49.55 33.54 49.34 33.99 49.08C34.45 48.82 34.91 48.48 35.38 48.07C35.57 47.92 35.77 47.8 35.99 47.7C36.21 47.6 36.43 47.56 36.67 47.56C36.85 47.56 37.03 47.6 37.22 47.68C37.4 47.75 37.58 47.87 37.75 48.04L39.69 50.16C40.35 50.88 40.32 51.99 39.63 52.66ZM67.01 25.24C66.98 27.22 65.35 28.8 63.37 28.76L52.77 28.58L52.62 37.32L64.43 37.53L64.38 40.13C64.35 42.11 62.71 43.69 60.74 43.65L52.51 43.51L52.28 56.95L44.22 56.81L44.82 22.27L67.06 22.66L67.01 25.24Z" fill="#FFFFFF" fill-opacity="1.000000" fill-rule="nonzero"/>
	</g>
</svg>
