<svg width="209.844482" height="121.658203" viewBox="0 0 209.844 121.658" fill="none" xmlns="http://www.w3.org/2000/svg" xmlns:xlink="http://www.w3.org/1999/xlink">
	<desc>
			Created with Pixso.
	</desc>
	<defs/>
	<mask id="mask1_36832" mask-type="alpha" maskUnits="userSpaceOnUse" x="0.000000" y="0.000000" width="209.844482" height="121.658203">
		<g style="mix-blend-mode:normal">
			<rect id="Rectangle 3817" x="13.214111" width="198.562698" height="94.947731" transform="rotate(8 13.214111 0.000000)" fill="#C4C4C4" fill-opacity="1.000000"/>
		</g>
	</mask>
	<g mask="url(#mask1_36832)">
		<g style="mix-blend-mode:normal">
			<path id="Path 35400" d="M201.77 76.45C191.35 82.87 143.2 112.55 142.84 112.77C143.94 99.27 143.92 100.02 143.79 99.97C133.52 95.99 123.36 91.97 113.25 87.88C114.15 85.31 115.89 82.22 118.5 77.27C119.27 75.81 119.99 74.26 121.06 73C128.27 77.78 137.99 81.42 146.27 83.91C147.8 84.37 148.12 83.98 150.58 82.42C155.96 79 161.66 75.12 167.09 71.72C168.08 71.1 156.61 66.76 155.5 66.35C152.84 65.37 150.15 64.45 147.45 63.57C147.79 63.3 148.13 63.03 148.47 62.76C150.42 61.2 150.4 58.58 152.07 56.73C159.21 59.62 166.36 62.51 173.7 65.04C176.69 66.08 176.68 65.98 179.4 64.33C185.68 60.57 189.89 58.04 194.47 55.3C194.58 55.23 194.51 55.08 194.4 55.07L194.71 54.91C195.05 55.32 195.26 55.81 195.43 56.31C195.91 57.77 201.67 76.41 201.77 76.45Z" fill="#844131" fill-opacity="1.000000" fill-rule="nonzero"/>
		</g>
	</g>
	<g mask="url(#mask1_36832)">
		<g style="mix-blend-mode:normal">
			<path id="Path 35401" d="M194.71 54.91L194.4 55.07C194.33 55.06 195.47 54.39 178.48 64.58C177.9 64.93 177.3 65.32 176.62 65.43C174.74 65.72 154.02 57.23 152.26 56.52C153.33 55.43 153.25 55.62 168.15 47.34C170.23 46.19 170.71 46.11 173.69 47.13C194.39 54.18 193.86 53.91 194.71 54.91Z" fill="#AC6145" fill-opacity="1.000000" fill-rule="nonzero"/>
		</g>
	</g>
	<g mask="url(#mask1_36832)">
		<g style="mix-blend-mode:normal">
			<path id="Path 35402" d="M166.81 71.59C156.5 78.05 148.72 83.71 147.42 83.82C146.88 83.87 146.43 83.69 144.89 83.2C136.66 80.55 128.45 77.55 121.23 72.8C122.27 71.66 123.08 71.22 128.16 68.33C131.07 66.67 134.2 64.94 137.4 63.22C140.82 61.39 140.11 61.47 143.75 62.65C150.38 64.78 157.24 67.06 163.52 69.87C165.08 70.57 166.22 70.96 166.81 71.59Z" fill="#AC6145" fill-opacity="1.000000" fill-rule="nonzero"/>
		</g>
	</g>
	<g mask="url(#mask1_36832)">
		<g style="mix-blend-mode:normal">
			<path id="Path 35403" d="M160.92 51.06C153.52 55.18 153.09 55.33 152.15 56.24C150.49 57.82 150.31 60.14 149.06 61.79C148.62 62.36 148.03 62.78 147.15 63.47C145.43 62.9 143.7 62.35 141.97 61.8C140.08 61.2 140.25 61.32 132.85 65.4C132.6 64.83 129.26 57.42 129.25 57.4C128.71 56.39 129.51 56.89 112.7 50.45C112.87 47.83 113.05 46.15 115.1 43.77C116.12 44.21 115.1 43.8 133.44 50.39C139.15 52.43 138.84 52.77 142.53 50.86C148.73 47.66 152.58 44.9 157.39 41.24C157.53 41.36 157.66 41.48 157.77 41.63C158.08 42.05 158.25 42.56 158.4 43.05C159.75 47.35 159.69 47.64 160.92 51.06Z" fill="#844131" fill-opacity="1.000000" fill-rule="nonzero"/>
		</g>
	</g>
	<g mask="url(#mask1_36832)">
		<g style="mix-blend-mode:normal">
			<path id="Path 35404" d="M157.17 41.08C153.08 44.19 149.54 46.82 143.54 50.04C138.89 52.52 139.51 52.29 134.33 50.43C114.57 43.35 116.22 43.96 115.29 43.56C118.8 39.65 124.15 38.45 128.42 35.77C133.53 32.55 133.31 32.57 140.99 35.01C148.03 37.25 156.26 40.45 157.17 41.08Z" fill="#AC6145" fill-opacity="1.000000" fill-rule="nonzero"/>
		</g>
	</g>
	<g mask="url(#mask1_36832)">
		<g style="mix-blend-mode:normal">
			<path id="Path 35405" d="M142.57 112.83C131.35 108.53 120.21 104.05 109.12 99.43C80.49 87.49 6.78 54.37 6.77 54.35C6.77 54.32 7.85 49.71 8.97 47.23C9.47 46.11 9.99 44.88 13.87 44.77C42.22 58.31 62.29 66.74 77.22 73.24C77.16 73.4 77.37 73.58 77.43 73.43C90.88 79.15 100.98 83.2 112.93 88.04C112.95 88.13 113.08 88.19 113.14 88.13C132.54 95.96 143.59 100.15 143.6 100.17C143.61 100.19 142.9 108.72 142.57 112.83Z" fill="#844131" fill-opacity="1.000000" fill-rule="nonzero"/>
		</g>
	</g>
	<g mask="url(#mask1_36832)">
		<g style="mix-blend-mode:normal">
			<path id="Path 35406" d="M132.62 65.53C121.44 71.7 121.15 71.77 119.23 75.33C117.56 78.46 113.97 85.09 113 87.79C100.14 82.59 88.47 77.74 77.56 73.1C78.3 71.2 82.53 60.75 83.35 59.67C83.49 59.5 83.65 59.34 83.82 59.21C84.14 59.66 85.48 60.2 85.69 60.3C92.72 63.67 100.03 65.9 107.35 68.12C109.76 68.84 108.86 68.99 113.94 66.1C118.05 63.75 128.96 57.53 129 57.49C129.13 57.73 132.51 65.28 132.62 65.53Z" fill="#844131" fill-opacity="1.000000" fill-rule="nonzero"/>
		</g>
	</g>
	<g mask="url(#mask1_36832)">
		<g style="mix-blend-mode:normal">
			<path id="Path 35407" d="M128.87 57.29C128.82 57.3 129.62 56.84 111.05 67.45C109.05 68.59 109.51 68.51 106.49 67.59C91.18 62.96 84.21 59.48 84.03 59.05C84.68 58.6 92.84 53.69 101.17 49.15C104.52 47.32 104.38 47.55 107.98 48.93C129.75 57.26 128.38 56.62 128.87 57.29Z" fill="#AC6145" fill-opacity="1.000000" fill-rule="nonzero"/>
		</g>
	</g>
	<g mask="url(#mask1_36832)">
		<g style="mix-blend-mode:normal">
			<path id="Path 35408" d="M126.18 36.74C121.76 39 116.32 40.62 113.63 45.41C112.49 47.43 112.55 48.83 112.44 50.36C103.33 46.86 104.97 46.74 99.6 49.71C98.42 50.36 97.03 51.13 95.84 51.81C92.38 41.68 92.61 42.41 85.58 39.57C76.15 35.77 79.06 36.94 77.96 36.5C79.14 34.43 79.78 31.78 81.17 30.4C103.31 38.27 101.9 37.84 102.61 37.82C103.55 37.78 103.01 37.81 123.2 27.77C123.6 28.6 124.77 32.47 126.18 36.74Z" fill="#844131" fill-opacity="1.000000" fill-rule="nonzero"/>
		</g>
	</g>
	<g mask="url(#mask1_36832)">
		<g style="mix-blend-mode:normal">
			<path id="Path 35409" d="M123.07 27.54C103.31 37.37 103.52 37.48 102.67 37.55C101.95 37.61 103.14 37.94 81.39 30.2C82.32 29.38 83.05 29.2 92.76 23.73C93.08 23.66 96.83 21.18 98.98 20.7C100.91 20.26 101.38 20.66 114.67 24.33C121.63 26.25 122.29 26.17 123.07 27.54Z" fill="#AC6145" fill-opacity="1.000000" fill-rule="nonzero"/>
		</g>
	</g>
	<g mask="url(#mask1_36832)">
		<g style="mix-blend-mode:normal">
			<path id="Path 35410" d="M95.61 51.95C89.96 55.14 84.31 58.54 83.84 58.86C83 59.46 82.95 59.54 80.42 65.43C79.11 68.51 78.28 70.55 77.32 72.99C66.2 68.26 55.9 63.78 43.85 58.36C44.74 56.08 45.67 53.82 46.59 51.55C48.63 46.53 48.61 46.13 49.37 45.31C55.47 48.14 64.23 52.09 70.54 54.48C72.16 55.1 73.28 55.33 74.86 54.58C76.16 53.97 81.59 50.34 82.89 49.45C85.9 47.39 88.85 45.26 91.73 43.04C93.03 44.46 93.57 46.05 95.61 51.95Z" fill="#844131" fill-opacity="1.000000" fill-rule="nonzero"/>
		</g>
	</g>
	<g mask="url(#mask1_36832)">
		<g style="mix-blend-mode:normal">
			<path id="Path 35411" d="M91.55 42.85C88.86 44.91 76.43 54.06 73.8 54.69C73 54.89 72.18 54.76 71.4 54.51C67.35 53.22 53.45 46.91 49.57 45.11C50.5 44.27 60.2 38.97 71.65 34.24C90.58 41.88 90.32 41.61 91.55 42.85Z" fill="#AC6145" fill-opacity="1.000000" fill-rule="nonzero"/>
		</g>
	</g>
	<g mask="url(#mask1_36832)">
		<g style="mix-blend-mode:normal">
			<path id="Path 35412" d="M92.55 23.56C78.55 31.5 81.43 28.62 78.35 35.18C78.16 35.59 77.95 36 77.72 36.4C71.57 33.92 71.72 33.98 71.7 33.97C71.24 34.09 65.61 36.54 64.09 37.24C64.16 37 63.37 30.96 62.57 30.24C62.22 29.83 61.11 29.46 60.37 29.12C56.6 27.41 51.71 25.27 47.76 23.68C48.02 21.63 48.97 19.7 50.27 18.35C52.68 19.43 55.1 20.48 57.54 21.48C66.45 25.16 69.17 26.09 73.06 24.72C76.61 23.47 85.19 18.6 88.77 16.39C90.27 18.43 91.1 21.41 92.55 23.56Z" fill="#844131" fill-opacity="1.000000" fill-rule="nonzero"/>
		</g>
	</g>
	<g mask="url(#mask1_36832)">
		<g style="mix-blend-mode:normal">
			<path id="Path 35413" d="M88.61 16.18C82.67 19.85 76.4 23.05 74 24.07C71.24 25.25 69.2 25.41 65.85 24.38C62.05 23.2 54.08 19.76 50.47 18.15C52.44 16.24 55.04 15.27 65.13 10.54C69.33 8.57 69.17 8.8 73.64 10.2C85.97 14.09 86.86 13.96 88.61 16.18Z" fill="#AC6145" fill-opacity="1.000000" fill-rule="nonzero"/>
		</g>
	</g>
	<g mask="url(#mask1_36832)">
		<g style="mix-blend-mode:normal">
			<path id="Path 35414" d="M63.91 37.33C62.52 37.97 49.92 43.95 49.24 45.07C48.44 45.86 48.28 46.65 46.74 50.47C45.69 53.06 44.62 55.65 43.61 58.25C32.94 53.46 24.2 49.4 14.42 44.75C14.52 44.68 16.89 32.93 18.34 31.42C24.82 36.25 32.46 38.91 40.13 41.51C40.34 41.58 40.57 41.74 40.77 41.6C40.9 41.51 41.05 41.42 41.16 41.31C41.54 40.93 41.09 41.19 43.16 40.05C49.76 36.42 55.85 33.47 62.42 30.52C62.83 31.03 62.96 31.83 63.09 32.43C63.77 35.39 63.73 37.26 63.91 37.33Z" fill="#844131" fill-opacity="1.000000" fill-rule="nonzero"/>
		</g>
	</g>
	<g mask="url(#mask1_36832)">
		<g style="mix-blend-mode:normal">
			<path id="Path 35415" d="M62.23 30.32C55.39 33.35 48.36 36.85 41.76 40.53C40.72 41.11 41.52 40.77 40.61 41.39C32.82 38.76 25.06 36.1 18.53 31.23C20.97 29.04 38.87 21.57 40.1 21.44C42.35 21.2 61.81 29.96 62.23 30.32Z" fill="#AC6145" fill-opacity="1.000000" fill-rule="nonzero"/>
		</g>
	</g>
	<g mask="url(#mask1_36832)">
		<g style="mix-blend-mode:normal">
			<path id="Path 35416" d="M143.32 113.86C147.17 111.48 151.03 109.1 154.89 106.73C158.75 104.35 162.6 101.97 166.46 99.6C170.3 97.23 174.14 94.86 177.99 92.49C181.84 90.12 185.7 87.74 189.56 85.36C193.4 83 197.24 80.63 201.08 78.26C201.57 77.96 202.06 77.66 202.54 77.36C203.01 77.07 203.09 76.3 202.75 75.89C202.36 75.42 201.78 75.37 201.28 75.68C197.42 78.06 193.56 80.44 189.7 82.81C185.85 85.19 181.99 87.57 178.13 89.94C174.29 92.31 170.45 94.68 166.61 97.05C162.75 99.42 158.89 101.8 155.03 104.18C151.19 106.54 147.35 108.91 143.51 111.28C143.02 111.58 142.54 111.88 142.05 112.18C141.58 112.47 141.5 113.24 141.84 113.65C142.23 114.12 142.81 114.17 143.32 113.86Z" fill="#13202B" fill-opacity="1.000000" fill-rule="nonzero"/>
		</g>
	</g>
	<g mask="url(#mask1_36832)">
		<g style="mix-blend-mode:normal">
			<path id="Path 35417" d="M143.1 112.05C133.63 108.42 124.22 104.67 114.84 100.8C105.82 97.09 96.83 93.27 87.87 89.39C79.18 85.62 70.51 81.79 61.86 77.93C53.26 74.09 44.68 70.23 36.1 66.37C27.49 62.51 18.88 58.66 10.25 54.85C9.18 54.38 8.11 53.91 7.04 53.45C7.25 53.82 7.46 54.19 7.67 54.56C8.14 52.51 8.7 50.45 9.44 48.49C9.65 47.94 9.87 47.37 10.18 46.86C10.08 47.03 10.45 46.53 10.36 46.61C10.6 46.39 10.9 46.25 11.2 46.13C11.87 45.88 12.58 45.79 13.29 45.73C13.54 45.71 13.8 45.7 14.05 45.69C14.14 45.68 14.24 45.68 14.33 45.68C13.99 45.69 14.12 45.68 14.2 45.68C14.8 45.7 15.26 45.4 15.39 44.79C15.8 42.82 16.25 40.87 16.74 38.93C17.1 37.51 17.47 36.09 17.92 34.69C18.1 34.11 18.3 33.53 18.54 32.96C18.62 32.75 18.72 32.55 18.81 32.35C18.85 32.29 18.93 32.15 18.97 32.09C19.1 32 19.31 31.8 19.44 31.71C19.78 31.46 20.15 31.24 20.52 31.02C20.87 30.81 21.33 30.56 21.82 30.3C22.4 30 22.98 29.71 23.56 29.42C26.27 28.09 29.04 26.86 31.81 25.68C34.13 24.69 36.46 23.72 38.82 22.84C39.16 22.71 39.5 22.58 39.85 22.46C39.96 22.43 40.08 22.39 40.19 22.35C40.34 22.38 40.56 22.4 40.71 22.43C40.87 22.46 41.02 22.51 41.18 22.55C41.31 22.58 41.52 22.64 41.64 22.68C44.04 23.41 46.37 24.38 48.68 25.33C51.37 26.43 54.03 27.59 56.69 28.77C58.34 29.5 59.98 30.25 61.61 31C61.66 31.01 61.77 31.09 61.81 31.09C61.91 31.08 61.67 31.04 61.61 31C61.88 31.5 62.04 32.01 62.15 32.55C62.43 33.86 62.59 35.2 62.73 36.53C62.75 36.8 62.78 37.06 62.8 37.33C62.91 38.68 64.99 38.41 64.88 37.06C64.81 36.12 64.7 35.18 64.57 34.24C64.38 32.9 64.21 31.37 63.59 30.15C63.22 29.44 62.66 29.16 61.98 28.85C61.18 28.48 60.38 28.11 59.58 27.75C54.4 25.42 49.19 23.07 43.83 21.2C42.37 20.68 40.75 19.97 39.21 20.47C37.17 21.13 35.18 21.99 33.21 22.81C30.28 24.03 27.38 25.29 24.51 26.64C22.35 27.65 20.05 28.66 18.11 30.07C17.42 30.58 17.01 31.19 16.67 31.98C16.1 33.29 15.72 34.67 15.34 36.04C14.61 38.66 13.99 41.32 13.42 43.98C13.38 44.15 13.34 44.32 13.31 44.49C13.7 44.2 14.1 43.9 14.49 43.6C13.17 43.57 11.81 43.7 10.56 44.13C9.05 44.66 8.31 45.71 7.72 47.12C6.77 49.41 6.14 51.86 5.58 54.26C5.48 54.71 5.81 55.2 6.21 55.38C14.86 59.17 23.48 63.02 32.1 66.89C40.69 70.74 49.26 74.6 57.85 78.44C66.48 82.3 75.13 86.13 83.8 89.91C92.71 93.79 101.65 97.61 110.64 101.34C119.95 105.21 129.31 108.97 138.71 112.61C139.89 113.07 141.08 113.53 142.27 113.98C143.53 114.47 144.37 112.54 143.1 112.05Z" fill="#13202B" fill-opacity="1.000000" fill-rule="nonzero"/>
		</g>
	</g>
	<g mask="url(#mask1_36832)">
		<g style="mix-blend-mode:normal">
			<path id="Path 35418" d="M14.21 46.38C22.35 50.27 30.54 54.05 38.76 57.76C47.1 61.52 55.47 65.2 63.88 68.81C72.38 72.46 80.9 76.04 89.45 79.57C97.96 83.08 106.49 86.53 115.04 89.94C123.41 93.28 131.79 96.58 140.19 99.84C141.23 100.25 142.28 100.65 143.32 101.06C144.58 101.54 145.42 99.62 144.16 99.13C135.74 95.87 127.34 92.57 118.96 89.24C110.45 85.86 101.97 82.44 93.51 78.96C84.95 75.45 76.42 71.88 67.91 68.25C59.45 64.63 51.02 60.95 42.62 57.19C34.4 53.51 26.22 49.75 18.08 45.89C17.07 45.41 16.05 44.93 15.04 44.45C13.82 43.86 12.99 45.8 14.21 46.38Z" fill="#13202B" fill-opacity="1.000000" fill-rule="nonzero"/>
		</g>
	</g>
	<g mask="url(#mask1_36832)">
		<g style="mix-blend-mode:normal">
			<path id="Path 35419" d="M142.7 99.94C142.62 101.89 142.36 103.84 142.07 105.77C141.82 107.45 141.53 109.12 141.22 110.79C141.16 111.12 141.1 111.45 141.04 111.78C140.93 112.32 141.39 112.91 141.93 112.96C142.52 113.02 143 112.65 143.12 112.07C143.68 109.19 144.17 106.29 144.51 103.38C144.64 102.34 144.74 101.29 144.78 100.24C144.8 99.69 144.49 99.11 143.89 99.05C143.37 99 142.72 99.36 142.7 99.94Z" fill="#13202B" fill-opacity="1.000000" fill-rule="nonzero"/>
		</g>
	</g>
	<g mask="url(#mask1_36832)">
		<g style="mix-blend-mode:normal">
			<path id="Path 35420" d="M43.2 57.13C42.94 53.64 42.66 50.14 42.39 46.65C42.28 45.18 42.15 43.72 42.06 42.25C42.05 42.09 42.04 41.94 42.04 41.78C42.03 41.73 42.03 41.67 42.03 41.61C42.04 41.39 42 41.87 42.04 41.78C42.1 41.61 41.83 42 41.88 41.91C41.93 41.83 41.98 41.69 42.03 41.61C42.03 41.61 41.95 41.9 42.04 41.78C42.08 41.76 41.99 41.64 42.03 41.61C42.1 41.57 42.14 41.72 42.04 41.78L42.13 41.67C44.14 40.54 46.17 39.44 48.22 38.37C52.32 36.23 56.47 34.21 60.68 32.31C61.2 32.08 61.72 31.84 62.24 31.61C62.74 31.39 63.06 30.77 62.82 30.24C62.58 29.74 61.98 29.43 61.44 29.67C57.16 31.57 52.93 33.59 48.76 35.73C46.68 36.8 44.61 37.91 42.56 39.04C42.02 39.34 41.47 39.63 40.94 39.94C40.68 40.09 40.45 40.28 40.28 40.52C40.23 40.62 40.12 40.76 40.07 40.87C39.88 41.28 39.94 41.77 39.96 42.21C40.02 43.48 40.14 44.75 40.24 46.01C40.49 49.24 40.74 52.46 40.99 55.69C41.03 56.26 41.07 56.83 41.12 57.4C41.16 57.95 41.76 58.4 42.29 58.31C42.88 58.21 43.25 57.72 43.2 57.13Z" fill="#13202B" fill-opacity="1.000000" fill-rule="nonzero"/>
		</g>
	</g>
	<g mask="url(#mask1_36832)">
		<g style="mix-blend-mode:normal">
			<path id="Path 35421" d="M17.73 32.1C20.33 34.05 23.17 35.69 26.1 37.09C29.01 38.48 32.03 39.65 35.07 40.73C36.78 41.34 38.49 41.92 40.21 42.5C40.73 42.68 41.38 42.52 41.59 41.96C41.78 41.46 41.6 40.76 41.04 40.57C38.01 39.55 34.98 38.52 32 37.35C29.05 36.19 26.15 34.88 23.39 33.32C23.19 33.2 22.99 33.08 22.79 32.96C22.75 32.94 22.71 32.92 22.66 32.89C22.76 32.95 22.55 32.82 22.54 32.81C22.48 32.78 22.43 32.75 22.38 32.72C22 32.49 21.63 32.26 21.26 32.02C20.5 31.52 19.76 31 19.03 30.45C18.59 30.12 17.89 30.16 17.55 30.63C17.23 31.08 17.26 31.75 17.73 32.1Z" fill="#13202B" fill-opacity="1.000000" fill-rule="nonzero"/>
		</g>
	</g>
	<g mask="url(#mask1_36832)">
		<g style="mix-blend-mode:normal">
			<path id="Path 35422" d="M45.02 58.25C46.19 55.23 47.35 52.2 48.53 49.18C48.79 48.5 49.05 47.83 49.34 47.17C49.42 46.97 49.51 46.77 49.6 46.58C49.64 46.5 49.67 46.43 49.71 46.36C49.83 46.18 49.93 46.05 50.08 45.89C50.17 45.82 50.2 45.8 50.29 45.73C50.59 45.51 50.9 45.32 51.21 45.12C51.43 44.99 51.64 44.86 51.86 44.73C51.97 44.67 52.08 44.6 52.2 44.54C52.25 44.5 52.31 44.47 52.37 44.44C52.41 44.42 52.45 44.39 52.49 44.37C52.59 44.31 52.22 44.52 52.37 44.44C52.98 44.09 53.63 43.73 54.25 43.4C55.76 42.58 57.29 41.79 58.83 41.02C62.55 39.16 66.32 37.4 70.14 35.77C70.63 35.57 71.11 35.37 71.59 35.17C72.1 34.96 72.4 34.31 72.16 33.8C71.93 33.28 71.34 33 70.79 33.22C66.87 34.84 63.01 36.62 59.2 38.5C56.28 39.94 53.36 41.42 50.56 43.08C49.7 43.59 48.71 44.1 48.13 44.94C47.56 45.77 47.22 46.75 46.86 47.68C45.78 50.38 44.76 53.11 43.7 55.83C43.5 56.36 43.29 56.88 43.09 57.41C42.89 57.93 43.09 58.59 43.64 58.8C44.15 58.99 44.81 58.8 45.02 58.25Z" fill="#13202B" fill-opacity="1.000000" fill-rule="nonzero"/>
		</g>
	</g>
	<g mask="url(#mask1_36832)">
		<g style="mix-blend-mode:normal">
			<path id="Path 35423" d="M71.23 35.06C74.68 36.45 78.13 37.84 81.57 39.22C83.45 39.97 85.32 40.72 87.18 41.49C88.03 41.84 88.88 42.18 89.7 42.6C89.81 42.65 89.92 42.72 90.03 42.78C90.19 42.88 90.37 43.02 90.52 43.14C90.57 43.18 90.62 43.22 90.66 43.26C90.78 43.36 90.89 43.47 91.01 43.58C91.06 43.64 91.12 43.7 91.17 43.76C91.38 44 91.56 44.26 91.74 44.53C91.78 44.59 91.82 44.66 91.86 44.72C91.94 44.87 92.05 45.07 92.13 45.22C92.9 46.77 93.4 48.46 93.95 50.1C94.13 50.63 94.3 51.17 94.49 51.7C94.66 52.22 95.36 52.5 95.86 52.27C96.4 52.02 96.62 51.46 96.43 50.9C95.8 49.06 95.25 47.17 94.5 45.37C93.93 44 93.19 42.7 92.07 41.7C91.66 41.34 91.22 41.04 90.74 40.78C90.03 40.39 89.27 40.08 88.52 39.77C86.82 39.05 85.1 38.37 83.39 37.68C80.15 36.38 76.91 35.08 73.68 33.78C73.14 33.56 72.61 33.35 72.07 33.13C71.56 32.93 70.89 33.14 70.69 33.68C70.49 34.2 70.69 34.84 71.23 35.06Z" fill="#13202B" fill-opacity="1.000000" fill-rule="nonzero"/>
		</g>
	</g>
	<g mask="url(#mask1_36832)">
		<g style="mix-blend-mode:normal">
			<path id="Path 35424" d="M78.73 72.72C79.38 71.05 80.05 69.39 80.74 67.74C81.65 65.53 82.55 63.3 83.61 61.16C83.7 60.98 83.79 60.8 83.88 60.62C83.94 60.51 84.11 60.32 84.12 60.19C84.12 60.23 83.95 60.47 84.04 60.32C84.06 60.3 84.1 60.22 84.12 60.19C84.14 60.17 84.24 60.06 84.26 60.03C84.27 60.01 83.97 60.32 84.12 60.19C84.54 59.85 85.04 59.5 85.5 59.2C87.31 58.05 89.18 56.97 91.05 55.9C91.62 55.57 92.19 55.24 92.76 54.91C92.82 54.88 92.88 54.85 92.94 54.81C93.09 54.73 93.26 54.63 93.4 54.55C93.7 54.38 93.99 54.22 94.28 54.05C95.37 53.44 96.45 52.82 97.54 52.21C99.05 51.37 100.57 50.52 102.09 49.69C102.61 49.4 103.13 49.12 103.69 48.91C103.78 48.88 103.86 48.85 103.95 48.83C104.11 48.8 104.32 48.77 104.49 48.75C104.57 48.76 104.65 48.77 104.73 48.78C104.81 48.79 104.9 48.81 104.98 48.82C105.02 48.83 105.06 48.84 105.1 48.85C104.95 48.77 105.29 48.9 105.33 48.92C105.43 48.95 105.53 48.98 105.62 49.02C105.87 49.1 106.11 49.2 106.36 49.29L107.99 49.92C109.08 50.33 110.17 50.75 111.27 51.17C115.64 52.85 120.02 54.52 124.4 56.2C125.38 56.58 126.36 56.96 127.35 57.33C127.5 57.39 127.65 57.44 127.8 57.51C127.86 57.55 127.88 57.54 127.94 57.59C127.99 57.66 128.03 57.7 128.08 57.78C128.15 57.9 128.26 58.08 128.32 58.2C128.49 58.54 128.64 58.88 128.8 59.23C129.34 60.44 129.85 61.67 130.37 62.89C130.76 63.81 131.16 64.73 131.56 65.64C131.77 66.14 132.4 66.45 132.93 66.21C133.44 65.98 133.74 65.38 133.5 64.84C132.78 63.18 132.07 61.52 131.36 59.86C131 59.02 130.65 58.16 130.24 57.34C129.98 56.83 129.69 56.32 129.24 55.94C128.94 55.69 128.57 55.54 128.21 55.41C123.92 53.79 119.65 52.13 115.37 50.49C113.16 49.65 110.94 48.8 108.73 47.95C107.69 47.55 106.66 47.11 105.59 46.82C104.77 46.6 103.96 46.64 103.15 46.88C102.25 47.15 101.43 47.67 100.61 48.12C99.83 48.55 99.06 48.98 98.28 49.41C96.05 50.65 93.82 51.91 91.6 53.18C89.51 54.37 87.42 55.57 85.37 56.82C84.71 57.22 84.04 57.63 83.4 58.07C82.99 58.36 82.62 58.65 82.36 59.08C81.87 59.88 81.47 60.74 81.08 61.59C80.56 62.73 80.07 63.87 79.59 65.02C78.72 67.08 77.88 69.15 77.06 71.22C76.97 71.45 76.88 71.67 76.8 71.89C76.6 72.4 76.8 73.06 77.34 73.27C77.86 73.47 78.51 73.27 78.73 72.72Z" fill="#13202B" fill-opacity="1.000000" fill-rule="nonzero"/>
		</g>
	</g>
	<g mask="url(#mask1_36832)">
		<g style="mix-blend-mode:normal">
			<path id="Path 35425" d="M128.26 56.57C124.14 58.93 120.02 61.3 115.9 63.67C115.26 64.03 114.63 64.4 113.99 64.76C113.86 64.84 113.72 64.92 113.59 65C113.52 65.04 113.44 65.08 113.37 65.12C113.13 65.26 112.87 65.4 112.63 65.54C111.91 65.95 111.19 66.35 110.47 66.73C110.06 66.94 109.66 67.16 109.24 67.32C109.17 67.35 109.1 67.37 109.03 67.39C108.96 67.38 108.97 67.39 108.89 67.38C108.75 67.35 109.25 67.47 109.03 67.39C108.92 67.35 108.71 67.3 108.59 67.27C107.14 66.83 105.69 66.39 104.25 65.95C98.37 64.14 92.51 62.18 86.93 59.58C86.6 59.43 86.27 59.27 85.93 59.11C85.81 59.04 85.57 58.98 85.48 58.88L85.59 58.95C85.55 58.93 85.51 58.92 85.48 58.88C85.51 58.91 85.56 58.92 85.59 58.95C85.77 59.22 85.74 59.52 85.54 59.86C85.89 59.43 85.82 58.72 85.37 58.39C84.9 58.05 84.26 58.1 83.89 58.56C83.5 59.04 83.51 59.73 83.9 60.22C84.19 60.59 84.59 60.79 85.01 60.99C85.7 61.33 86.4 61.66 87.11 61.97C88.55 62.62 90 63.23 91.47 63.8C94.39 64.94 97.35 65.96 100.33 66.91C101.83 67.39 103.35 67.86 104.86 68.32C105.89 68.63 106.93 68.92 107.95 69.26C108.19 69.34 108.42 69.43 108.68 69.48C109.41 69.6 110.15 69.24 110.79 68.92C112.57 68.04 114.29 67 116.02 66.01C119.85 63.81 123.67 61.6 127.51 59.4C128.18 59.02 128.85 58.63 129.53 58.25C130.01 57.97 130.07 57.18 129.74 56.78C129.34 56.29 128.78 56.28 128.26 56.57Z" fill="#13202B" fill-opacity="1.000000" fill-rule="nonzero"/>
		</g>
	</g>
	<g mask="url(#mask1_36832)">
		<g style="mix-blend-mode:normal">
			<path id="Path 35426" d="M111.19 85.04C110.98 81.1 110.75 77.17 110.56 73.23C110.51 72.34 110.47 71.44 110.45 70.55C110.44 70.39 110.44 70.24 110.44 70.08C110.44 70.01 110.44 69.95 110.44 69.88C110.44 69.67 110.44 69.52 110.46 69.31C110.48 68.92 110.53 68.53 110.6 68.15C110.7 67.6 110.26 67.01 109.71 66.96C109.12 66.9 108.62 67.27 108.52 67.85C108.36 68.75 108.34 69.65 108.36 70.57C108.39 72.84 108.55 75.12 108.68 77.39C108.82 80.03 108.97 82.67 109.11 85.31C109.14 85.86 109.76 86.31 110.29 86.22C110.88 86.12 111.23 85.63 111.19 85.04Z" fill="#13202B" fill-opacity="1.000000" fill-rule="nonzero"/>
		</g>
	</g>
	<g mask="url(#mask1_36832)">
		<g style="mix-blend-mode:normal">
			<path id="Path 35427" d="M50.01 46.75C56.04 49.55 62.16 52.18 68.35 54.62C69.64 55.12 70.98 55.77 72.37 55.94C73.49 56.07 74.55 55.78 75.54 55.26C76.92 54.53 78.22 53.64 79.53 52.79C80.88 51.92 82.21 51.03 83.53 50.13C86.53 48.08 89.47 45.94 92.35 43.73C92.78 43.39 92.92 42.7 92.55 42.25C92.19 41.82 91.55 41.69 91.08 42.05C86.06 45.91 80.86 49.53 75.48 52.88C75.34 52.97 75.19 53.06 75.04 53.15C74.98 53.18 74.87 53.25 74.8 53.28C74.56 53.41 74.32 53.53 74.07 53.64C73.95 53.68 73.84 53.72 73.72 53.76C73.67 53.78 73.61 53.79 73.56 53.81C73.79 53.72 73.8 53.75 73.72 53.76C73.49 53.81 73.19 53.87 72.94 53.88C72.84 53.87 72.65 53.85 72.55 53.84C72.42 53.82 72.3 53.8 72.18 53.77C72.12 53.76 72.06 53.74 71.99 53.73C71.95 53.72 71.91 53.71 71.86 53.69C72.01 53.74 72.07 53.75 71.99 53.73C71.34 53.53 70.69 53.28 70.06 53.03C67 51.84 63.97 50.6 60.96 49.32C57.56 47.88 54.19 46.37 50.84 44.82C50.35 44.59 49.66 44.85 49.46 45.37C49.25 45.91 49.47 46.5 50.01 46.75Z" fill="#13202B" fill-opacity="1.000000" fill-rule="nonzero"/>
		</g>
	</g>
	<g mask="url(#mask1_36832)">
		<g style="mix-blend-mode:normal">
			<path id="Path 35428" d="M75.19 71.51C75.06 67.73 74.95 63.96 74.81 60.18C74.76 58.85 74.75 57.48 74.54 56.16C74.47 55.7 74.34 55.25 74.22 54.8C74.06 54.27 73.32 54 72.84 54.23C72.28 54.48 72.11 55.03 72.27 55.6C72.29 55.68 72.32 55.76 72.34 55.84C72.4 56.04 72.26 55.52 72.3 55.71C72.31 55.75 72.33 55.8 72.34 55.84C72.38 56.01 72.41 56.16 72.44 56.32C72.52 56.77 72.56 57.22 72.59 57.67C72.75 59.85 72.78 62.04 72.85 64.22C72.94 66.74 73.02 69.26 73.1 71.78C73.12 72.33 73.76 72.78 74.28 72.69C74.89 72.58 75.21 72.1 75.19 71.51Z" fill="#13202B" fill-opacity="1.000000" fill-rule="nonzero"/>
		</g>
	</g>
	<g mask="url(#mask1_36832)">
		<g style="mix-blend-mode:normal">
			<path id="Path 35429" d="M114.67 87.3C114.7 87.16 114.74 87.02 114.78 86.88C114.73 87.05 114.85 86.66 114.86 86.63C114.95 86.35 115.05 86.08 115.16 85.81C115.37 85.28 115.61 84.77 115.86 84.26C116.37 83.23 116.92 82.23 117.46 81.21C118.22 79.76 118.98 78.31 119.75 76.86C119.99 76.4 120.24 75.94 120.5 75.49C120.6 75.3 120.7 75.12 120.8 74.94C120.85 74.87 120.89 74.79 120.94 74.72C120.89 74.8 120.79 74.97 120.88 74.81C120.9 74.77 120.91 74.75 120.94 74.72C121.21 74.27 121.51 73.83 121.86 73.45C121.94 73.36 122.02 73.28 122.1 73.19C122.34 72.99 122.66 72.75 122.92 72.57C123.73 72 124.58 71.48 125.43 70.97C125.96 70.65 126.5 70.33 127.04 70.01C127.33 69.84 127.63 69.67 127.92 69.5C128.06 69.42 128.2 69.34 128.35 69.26C128.42 69.22 128.5 69.17 128.57 69.13C129.8 68.43 131.08 67.72 132.32 67.03C134.33 65.92 136.35 64.82 138.38 63.74C138.66 63.59 138.95 63.44 139.23 63.29C139.48 63.15 139.74 63.02 140 62.9C140.08 62.87 140.16 62.83 140.25 62.8C140.29 62.78 140.34 62.77 140.38 62.75C140.56 62.69 140.27 62.81 140.25 62.8C140.28 62.82 140.52 62.73 140.56 62.73C140.7 62.79 140.98 62.75 141.13 62.78C141.17 62.79 141.44 62.86 141.3 62.82C141.37 62.85 141.52 62.89 141.59 62.92C142.17 63.1 142.74 63.29 143.32 63.47C144.43 63.83 145.54 64.19 146.65 64.55C151.16 66.03 155.65 67.58 160.05 69.38C161.76 70.09 163.49 70.79 165.13 71.65C165.33 71.75 165.52 71.86 165.71 71.97C165.73 71.98 165.46 71.81 165.58 71.89C165.6 71.9 165.69 71.96 165.71 71.97C165.8 72.03 165.92 72.11 166.01 72.17C166.28 72.36 166.52 72.58 166.77 72.8C166.82 72.86 166.86 72.92 166.9 72.98C167 73.1 167.08 73.22 167.16 73.35C167.2 73.42 167.22 73.45 167.25 73.53C167.32 73.67 167.38 73.81 167.43 73.95C167.56 74.29 167.65 74.63 167.76 74.97C167.78 75.08 167.81 75.21 167.84 75.32C167.89 75.54 167.94 75.75 167.99 75.96C168.65 78.82 169.41 81.64 170.39 84.41C170.76 85.45 171.15 86.48 171.56 87.51C171.77 88.02 172.42 88.32 172.94 88.08C173.46 87.84 173.73 87.25 173.51 86.71C172.74 84.78 172.02 82.82 171.41 80.83C171.29 80.44 171.18 80.05 171.07 79.66C171.01 79.48 170.96 79.3 170.91 79.12C170.89 79.04 170.87 78.97 170.85 78.89C170.84 78.85 170.83 78.8 170.82 78.76C170.77 78.6 170.83 78.79 170.85 78.89C170.72 78.28 170.52 77.58 170.37 76.97C169.98 75.3 169.74 73.48 168.8 72.01C167.76 70.39 165.78 69.59 164.1 68.83C159.7 66.86 155.17 65.2 150.6 63.66C148.31 62.88 146.02 62.14 143.72 61.4C142.69 61.07 141.64 60.61 140.54 60.63C139.79 60.64 139.1 60.99 138.45 61.33C136.72 62.25 135 63.18 133.28 64.12C130.75 65.5 128.24 66.9 125.75 68.35C124.72 68.95 123.7 69.56 122.7 70.19C122.07 70.59 121.42 71 120.86 71.5C119.86 72.38 119.2 73.52 118.55 74.67C117.94 75.77 117.36 76.89 116.77 78C115.78 79.89 114.74 81.75 113.81 83.67C113.29 84.74 112.86 85.85 112.59 87.01C112.46 87.55 112.95 88.15 113.48 88.2C114.09 88.25 114.53 87.88 114.67 87.3Z" fill="#13202B" fill-opacity="1.000000" fill-rule="nonzero"/>
		</g>
	</g>
	<g mask="url(#mask1_36832)">
		<g style="mix-blend-mode:normal">
			<path id="Path 35430" d="M120.65 74.03C125.67 77.37 131.22 79.77 136.88 81.78C139.7 82.78 142.54 83.69 145.39 84.6C146.17 84.84 146.97 85.1 147.8 84.98C148.42 84.88 148.99 84.48 149.51 84.17C151.07 83.24 152.6 82.26 154.14 81.3C157.82 78.99 161.5 76.68 165.19 74.37C165.85 73.96 166.5 73.54 167.16 73.13C167.63 72.84 167.71 72.07 167.37 71.66C166.98 71.19 166.39 71.14 165.9 71.45C161.89 73.96 157.88 76.48 153.88 78.99C152.13 80.09 150.38 81.2 148.62 82.27C148.41 82.39 148.21 82.51 148.01 82.63C147.97 82.65 147.93 82.67 147.89 82.7C148.02 82.62 148.18 82.54 148.01 82.63C147.95 82.66 147.95 82.67 147.89 82.7C147.73 82.78 147.5 82.88 147.34 82.94C147.73 82.79 147.61 82.88 147.46 82.9C147.41 82.9 147.39 82.94 147.34 82.94C147.25 82.93 147.09 82.9 147 82.88C146.9 82.87 146.8 82.84 146.71 82.82C146.93 82.87 146.62 82.79 146.6 82.78C146.41 82.72 146.23 82.67 146.04 82.61C145.34 82.38 144.64 82.16 143.93 81.93C142.53 81.48 141.12 81.02 139.72 80.55C136.92 79.6 134.15 78.58 131.44 77.41C130.09 76.83 128.75 76.22 127.44 75.55C126.8 75.23 126.16 74.9 125.53 74.55C125.23 74.38 124.92 74.21 124.62 74.03C124.46 73.95 124.31 73.86 124.16 73.77C124.08 73.72 124 73.67 123.91 73.62C124.1 73.73 123.81 73.56 123.78 73.54C123.16 73.17 122.56 72.78 121.96 72.38C121.5 72.08 120.83 72.07 120.48 72.55C120.17 72.98 120.16 73.7 120.65 74.03Z" fill="#13202B" fill-opacity="1.000000" fill-rule="nonzero"/>
		</g>
	</g>
	<g mask="url(#mask1_36832)">
		<g style="mix-blend-mode:normal">
			<path id="Path 35431" d="M145.02 100.7C146.25 96.76 147.22 92.77 147.76 88.67C147.92 87.46 148.04 86.26 148.15 85.04C148.2 84.5 147.84 83.91 147.25 83.86C146.71 83.81 146.12 84.17 146.07 84.75C145.72 88.75 145.09 92.71 144.05 96.59C144.01 96.73 143.97 96.87 143.94 97C143.92 97.06 143.9 97.13 143.89 97.19C143.88 97.21 143.81 97.46 143.85 97.33C143.83 97.41 143.78 97.58 143.75 97.66C143.71 97.8 143.67 97.94 143.63 98.08C143.46 98.68 143.27 99.27 143.09 99.87C142.92 100.39 143.07 101.03 143.63 101.25C144.12 101.43 144.84 101.26 145.02 100.7Z" fill="#13202B" fill-opacity="1.000000" fill-rule="nonzero"/>
		</g>
	</g>
	<g mask="url(#mask1_36832)">
		<g style="mix-blend-mode:normal">
			<path id="Path 35432" d="M173.88 87.75C173.93 87.68 174.07 87.43 174.15 87.42C174.12 87.45 174.09 87.48 174.06 87.51C174.1 87.48 174.12 87.45 174.15 87.42C174.21 87.37 174.28 87.32 174.33 87.28C174.56 87.1 174.81 86.95 175.06 86.81C175.56 86.51 176.08 86.24 176.52 85.86C177.11 85.33 177.54 84.68 177.76 83.92C177.98 83.16 178.04 82.39 178.07 81.61C178.18 78.24 178.22 74.86 178.18 71.49C178.16 69.63 178.11 67.77 178.05 65.91C178.03 65.35 177.39 64.91 176.87 65C176.26 65.1 175.94 65.59 175.96 66.18C176.02 67.8 176.06 69.42 176.09 71.04C176.1 71.85 176.11 72.66 176.11 73.47C176.11 73.87 176.11 74.27 176.11 74.66C176.11 74.84 176.11 75.01 176.11 75.18C176.11 75.19 176.1 75.54 176.11 75.31C176.11 75.45 176.1 75.59 176.1 75.73C176.09 77.33 176.06 78.93 176.01 80.54C175.99 81.27 175.99 82.02 175.88 82.75C175.86 82.89 175.82 83.04 175.8 83.18C175.77 83.26 175.73 83.41 175.69 83.49C175.66 83.57 175.63 83.65 175.59 83.73C175.5 83.86 175.37 84.04 175.26 84.17C175.19 84.23 175.11 84.3 175.03 84.36C174.91 84.45 174.8 84.53 174.67 84.61C174.41 84.78 174.13 84.93 173.86 85.09C173.24 85.45 172.65 85.86 172.23 86.45C171.91 86.89 171.93 87.58 172.41 87.92C172.85 88.24 173.54 88.23 173.88 87.75Z" fill="#13202B" fill-opacity="1.000000" fill-rule="nonzero"/>
		</g>
	</g>
	<g mask="url(#mask1_36832)">
		<g style="mix-blend-mode:normal">
			<path id="Path 35433" d="M149.15 63.39C150.2 62.48 150.8 61.26 151.32 60C151.54 59.44 151.77 58.88 152.04 58.35C152.08 58.28 152.12 58.21 152.16 58.13C152.22 58.02 152.32 57.86 152.4 57.75C152.49 57.62 152.59 57.5 152.69 57.38C152.78 57.26 152.88 57.15 152.98 57.05C153.11 56.91 152.99 57.04 152.88 57.15C152.91 57.12 152.95 57.07 152.98 57.05C153.05 56.99 153.09 56.95 153.16 56.9C153.53 56.59 153.95 56.33 154.36 56.08C154.7 55.88 155.03 55.68 155.37 55.48C155.47 55.43 155.57 55.37 155.67 55.31C155.74 55.28 155.77 55.26 155.83 55.22C156.09 55.08 156.34 54.93 156.6 54.79C160.31 52.71 164.04 50.67 167.76 48.6C168.33 48.28 168.9 47.95 169.5 47.67C169.7 47.58 169.9 47.49 170.11 47.42C170.16 47.41 170.22 47.4 170.27 47.37C170.38 47.35 170.45 47.35 170.56 47.34C170.67 47.33 170.78 47.33 170.89 47.32C170.88 47.32 170.61 47.31 170.78 47.32C170.84 47.33 170.83 47.31 170.89 47.32C171.15 47.34 171.48 47.41 171.73 47.47C171.79 47.48 172.2 47.57 171.9 47.51C172.07 47.54 172.23 47.61 172.39 47.66C172.77 47.78 173.14 47.91 173.52 48.04C176.12 48.93 178.73 49.82 181.34 50.71C184.38 51.74 187.43 52.75 190.45 53.83C191.18 54.09 191.9 54.35 192.62 54.64C192.84 54.74 193.06 54.83 193.28 54.94C193.37 54.98 193.46 55.03 193.54 55.07C193.58 55.09 193.61 55.11 193.65 55.13C193.79 55.21 193.36 54.95 193.54 55.07C193.66 55.15 193.75 55.21 193.85 55.3C193.97 55.45 194.13 55.66 194.23 55.81C194.26 55.85 194.29 55.9 194.32 55.94C194.39 56.04 194.15 55.63 194.23 55.81C194.34 56.04 194.46 56.35 194.54 56.58C195.04 58.05 195.49 59.53 195.95 61C197.14 64.82 198.33 68.65 199.53 72.47C199.97 73.89 200.41 75.31 200.86 76.73C201.02 77.25 201.75 77.52 202.23 77.3C202.78 77.04 202.98 76.49 202.8 75.93C201.36 71.32 199.92 66.71 198.49 62.1C197.89 60.18 197.3 58.26 196.67 56.35C196.48 55.77 196.31 55.18 195.99 54.66C195.75 54.28 195.48 53.92 195.14 53.63C194.39 53 193.36 52.66 192.46 52.33C189.97 51.39 187.44 50.57 184.93 49.71C182.67 48.95 180.42 48.18 178.17 47.42C176.73 46.92 175.29 46.43 173.84 45.94C172.69 45.54 171.47 45.1 170.23 45.26C169.04 45.41 167.99 46.09 166.96 46.66C165.71 47.35 164.45 48.05 163.2 48.74C161.34 49.77 159.48 50.8 157.63 51.83C156.46 52.47 155.29 53.12 154.13 53.79C153.54 54.13 152.95 54.47 152.39 54.86C152.01 55.11 151.67 55.4 151.35 55.73C150.45 56.65 149.93 57.84 149.45 59.01C149.22 59.56 149 60.11 148.71 60.64C148.69 60.68 148.66 60.73 148.64 60.78C148.55 60.91 148.44 61.08 148.34 61.2C148.27 61.31 148.18 61.41 148.09 61.51C148.04 61.57 147.99 61.62 147.93 61.68C147.51 62.04 147.3 62.72 147.68 63.18C148.02 63.6 148.71 63.77 149.15 63.39Z" fill="#13202B" fill-opacity="1.000000" fill-rule="nonzero"/>
		</g>
	</g>
	<g mask="url(#mask1_36832)">
		<g style="mix-blend-mode:normal">
			<path id="Path 35434" d="M151.66 57.55C152.59 57.93 153.52 58.31 154.45 58.68C156.2 59.39 157.95 60.09 159.7 60.78C161.78 61.6 163.86 62.42 165.94 63.21C167.85 63.94 169.77 64.65 171.69 65.32C173.02 65.78 174.36 66.27 175.73 66.55C176.14 66.63 176.56 66.66 176.97 66.57C177.38 66.49 177.74 66.33 178.11 66.13C178.91 65.71 179.68 65.24 180.46 64.78C181.93 63.91 183.4 63.02 184.86 62.14C187.42 60.6 189.98 59.06 192.54 57.52C193.37 57.02 194.19 56.53 195.02 56.03C195.49 55.75 195.56 54.97 195.23 54.56C194.83 54.08 194.26 54.05 193.75 54.35C190.9 56.07 188.04 57.79 185.18 59.51C183.48 60.53 181.77 61.56 180.07 62.58C179.55 62.89 179.03 63.2 178.52 63.5C178.32 63.62 178.13 63.73 177.94 63.84C177.89 63.86 177.85 63.89 177.81 63.91C177.72 63.96 178.08 63.76 177.94 63.84C177.86 63.88 177.76 63.94 177.68 63.98C177.33 64.18 176.97 64.38 176.59 64.51C176.54 64.52 176.46 64.52 176.41 64.53C176.01 64.48 175.67 64.39 175.28 64.29C175.09 64.23 175.53 64.36 175.41 64.32C175.38 64.31 175.31 64.3 175.28 64.29C175.2 64.26 175.16 64.25 175.09 64.23C174.93 64.18 174.77 64.13 174.61 64.09C174.26 63.98 173.91 63.86 173.56 63.74C171.74 63.14 169.95 62.47 168.15 61.8C166.07 61.02 163.99 60.21 161.92 59.4C160.06 58.67 158.2 57.93 156.35 57.18C155.19 56.72 154.03 56.25 152.87 55.78C152.74 55.73 152.62 55.67 152.49 55.62C151.98 55.42 151.31 55.63 151.11 56.17C150.91 56.69 151.11 57.33 151.66 57.55Z" fill="#13202B" fill-opacity="1.000000" fill-rule="nonzero"/>
		</g>
	</g>
	<g mask="url(#mask1_36832)">
		<g style="mix-blend-mode:normal">
			<path id="Path 35435" d="M113.71 49.09C113.74 48.62 113.82 48.16 113.93 47.71C113.92 47.69 113.96 47.62 113.97 47.59C114 47.49 114.03 47.38 114.07 47.28C114.15 47.05 114.24 46.83 114.34 46.6C114.43 46.41 114.53 46.21 114.63 46.02C114.68 45.92 114.73 45.82 114.79 45.73C114.84 45.66 114.87 45.62 114.91 45.55C115.17 45.15 115.45 44.78 115.76 44.42C115.9 44.25 116.05 44.08 116.2 43.92C116.28 43.83 116.36 43.75 116.44 43.67C116.48 43.63 116.52 43.59 116.56 43.55C116.9 43.22 117.29 42.89 117.66 42.6C118.03 42.31 118.41 42.04 118.79 41.79C118.99 41.65 119.2 41.52 119.41 41.4C119.51 41.33 119.62 41.27 119.73 41.21C119.62 41.27 119.93 41.09 119.95 41.08C121.81 40.04 123.79 39.22 125.71 38.29C126.71 37.8 127.69 37.29 128.64 36.71C129.4 36.25 130.15 35.76 130.91 35.3C131.06 35.21 131.21 35.12 131.36 35.03C131.44 34.99 131.58 34.91 131.66 34.87C131.93 34.73 132.21 34.59 132.5 34.48C132.62 34.43 132.75 34.38 132.88 34.34C132.95 34.32 133.01 34.31 133.08 34.28C133.36 34.22 133.67 34.19 133.96 34.18C134.04 34.17 134.11 34.18 134.18 34.17C134.17 34.17 133.79 34.17 133.96 34.18C134 34.18 134.14 34.17 134.18 34.17C134.35 34.18 134.5 34.2 134.67 34.22C135.04 34.26 135.41 34.33 135.78 34.41C135.98 34.46 136.18 34.51 136.37 34.56C136.43 34.57 136.48 34.59 136.53 34.6C136.68 34.65 136.8 34.68 136.95 34.73C137.49 34.89 138.03 35.05 138.57 35.21C142.99 36.56 147.35 38.07 151.66 39.74C152.74 40.16 153.82 40.59 154.9 41.03C155.39 41.24 155.9 41.43 156.38 41.67C156.45 41.7 156.7 41.88 156.52 41.75C156.62 41.81 156.72 41.87 156.81 41.95C156.85 41.98 156.89 42.03 156.94 42.06C157.02 42.17 157.09 42.28 157.17 42.39C157.05 42.21 157.2 42.46 157.23 42.53C157.28 42.63 157.32 42.73 157.36 42.84C157.45 43.08 157.52 43.32 157.6 43.56C157.77 44.11 157.94 44.66 158.11 45.22C158.45 46.34 158.79 47.46 159.14 48.58L159.66 50.29C159.82 50.81 160.55 51.08 161.03 50.86C161.59 50.6 161.78 50.05 161.6 49.49C160.89 47.17 160.2 44.84 159.47 42.52C159.31 42 159.1 41.51 158.81 41.06C158.46 40.52 157.95 40.15 157.41 39.84C156.94 39.58 156.42 39.39 155.92 39.18C155.38 38.96 154.85 38.74 154.31 38.53C149.89 36.76 145.41 35.17 140.88 33.74C139.74 33.38 138.6 33.03 137.46 32.7C136.6 32.45 135.73 32.21 134.84 32.12C133.43 31.98 132.11 32.27 130.86 32.92C130.1 33.32 129.38 33.78 128.66 34.23C128.24 34.49 127.83 34.75 127.42 35.01C127.31 35.07 127.2 35.14 127.09 35.2C127.04 35.23 126.98 35.26 126.93 35.29C126.68 35.43 126.38 35.6 126.13 35.73C124.2 36.75 122.17 37.57 120.23 38.56C118.29 39.55 116.49 40.69 114.94 42.22C113.47 43.66 112.36 45.42 111.85 47.42C111.73 47.87 111.66 48.33 111.63 48.79C111.59 49.34 111.93 49.92 112.52 49.98C113.06 50.03 113.67 49.67 113.71 49.09Z" fill="#13202B" fill-opacity="1.000000" fill-rule="nonzero"/>
		</g>
	</g>
	<g mask="url(#mask1_36832)">
		<g style="mix-blend-mode:normal">
			<path id="Path 35436" d="M115.28 44.85C119.75 46.45 124.22 48.06 128.69 49.68C130.93 50.48 133.17 51.3 135.42 52.08C136.35 52.41 137.29 52.76 138.26 52.97C138.97 53.13 139.72 53.03 140.42 52.83C141.1 52.64 141.74 52.3 142.37 51.98C143 51.66 143.62 51.33 144.25 50.99C145.54 50.3 146.82 49.57 148.08 48.81C150.53 47.34 152.9 45.75 155.2 44.06C155.77 43.64 156.33 43.21 156.89 42.78C157.33 42.44 157.46 41.75 157.1 41.31C156.74 40.87 156.09 40.74 155.63 41.1C153.38 42.84 151.05 44.47 148.65 45.99C148.06 46.37 147.46 46.74 146.85 47.11C146.56 47.28 146.27 47.45 145.98 47.62C145.84 47.7 145.71 47.78 145.57 47.87C145.48 47.91 145.4 47.96 145.32 48.01C145.26 48.04 145.21 48.07 145.15 48.11C143.91 48.81 142.67 49.47 141.4 50.12C141.12 50.26 140.85 50.4 140.56 50.53C140.42 50.6 140.28 50.66 140.14 50.71C140.05 50.75 139.97 50.78 139.88 50.81C139.82 50.83 139.76 50.85 139.71 50.86C139.5 50.91 139.29 50.94 139.08 50.95C139.01 50.95 138.95 50.96 138.88 50.96C138.68 50.97 139.27 50.96 139.08 50.95C139.05 50.95 138.91 50.96 138.88 50.96C138.79 50.95 138.77 50.93 138.68 50.92C138.56 50.9 138.45 50.87 138.34 50.84C138.25 50.81 138.21 50.8 138.13 50.78C137.64 50.63 137.15 50.46 136.66 50.29C134.62 49.59 132.6 48.85 130.57 48.12C126.45 46.64 122.34 45.15 118.22 43.68C117.52 43.42 116.81 43.17 116.11 42.92C115.6 42.74 114.94 42.91 114.73 43.47C114.54 43.97 114.72 44.65 115.28 44.85Z" fill="#13202B" fill-opacity="1.000000" fill-rule="nonzero"/>
		</g>
	</g>
	<g mask="url(#mask1_36832)">
		<g style="mix-blend-mode:normal">
			<path id="Path 35437" d="M138.46 52.7C138.83 55.6 139.19 58.51 139.56 61.42C139.63 61.97 140.18 62.42 140.74 62.33C141.3 62.23 141.72 61.73 141.65 61.15C141.28 58.24 140.91 55.33 140.54 52.43C140.47 51.88 139.92 51.42 139.36 51.52C138.8 51.62 138.38 52.11 138.46 52.7Z" fill="#13202B" fill-opacity="1.000000" fill-rule="nonzero"/>
		</g>
	</g>
	<g mask="url(#mask1_36832)">
		<g style="mix-blend-mode:normal">
			<path id="Path 35438" d="M78.99 36.45C79.76 35.7 80.21 34.79 80.55 33.78C80.69 33.33 80.83 32.88 80.99 32.44C81.07 32.22 81.16 32.01 81.26 31.8C81.28 31.76 81.42 31.57 81.41 31.53C81.45 31.47 81.47 31.44 81.51 31.38C81.62 31.24 81.73 31.1 81.85 30.98C82.35 30.53 82.98 30.22 83.56 29.89C83.63 29.84 83.69 29.81 83.77 29.77C83.93 29.67 84.09 29.58 84.25 29.49C84.65 29.27 85.04 29.05 85.44 28.83C86.55 28.21 87.67 27.6 88.79 26.98C90.46 26.06 92.12 25.13 93.79 24.21C94.82 23.64 95.85 23.04 96.9 22.51C97.32 22.3 97.74 22.1 98.17 21.93C98.35 21.86 98.54 21.79 98.73 21.72C98.81 21.7 98.89 21.67 98.97 21.65C99.01 21.63 99.06 21.62 99.11 21.61C99.23 21.57 98.79 21.69 98.97 21.65C99.27 21.58 99.66 21.5 99.97 21.48C100.05 21.47 100.12 21.47 100.19 21.47C100.34 21.47 100.46 21.48 100.61 21.5C101.25 21.57 101.87 21.74 102.49 21.91C104.62 22.5 106.75 23.09 108.88 23.67C111.63 24.43 114.37 25.17 117.12 25.93C117.55 26.05 117.98 26.17 118.41 26.29C118.5 26.31 118.62 26.35 118.71 26.37C118.87 26.42 119.04 26.47 119.2 26.51C119.68 26.65 120.16 26.79 120.64 26.94C120.91 27.03 121.18 27.11 121.45 27.22C121.53 27.26 121.62 27.29 121.7 27.33C121.73 27.35 121.76 27.37 121.79 27.39C121.87 27.42 121.53 27.21 121.7 27.33C121.79 27.4 121.83 27.44 121.92 27.52C121.97 27.56 122.02 27.61 122.07 27.65C122.23 27.8 121.84 27.42 121.92 27.52C121.95 27.55 122.04 27.63 122.07 27.65C122.12 27.71 122.14 27.75 122.18 27.81C122.46 28.36 122.68 28.94 122.88 29.53C123.33 30.82 123.75 32.12 124.18 33.42C124.52 34.43 124.85 35.44 125.19 36.45C125.37 36.97 126.07 37.25 126.56 37.02C127.11 36.77 127.32 36.21 127.14 35.65C126.53 33.84 125.94 32.03 125.33 30.22C125.04 29.35 124.76 28.47 124.42 27.62C124.11 26.88 123.71 26.26 123.09 25.75C122.75 25.48 122.35 25.31 121.95 25.16C120.89 24.8 119.8 24.52 118.73 24.21C116.41 23.57 114.08 22.94 111.76 22.3C109.89 21.79 108.02 21.27 106.15 20.76C105 20.44 103.84 20.12 102.69 19.8C102.08 19.64 101.47 19.47 100.85 19.41C99.21 19.24 97.67 19.78 96.22 20.5C95.17 21.03 94.15 21.62 93.12 22.2C92.2 22.7 91.28 23.21 90.37 23.72C88.06 25 85.74 26.26 83.44 27.56C82.56 28.05 81.63 28.52 80.81 29.12C79.64 29.98 79.12 31.37 78.69 32.72C78.55 33.13 78.42 33.55 78.23 33.95C78.19 34.06 78.14 34.16 78.08 34.26C78.16 34.11 78.02 34.36 78.01 34.38C77.96 34.46 77.9 34.54 77.84 34.62C77.79 34.68 77.52 34.97 77.72 34.77C77.51 34.98 77.35 35.16 77.31 35.47C77.28 35.72 77.35 36.04 77.51 36.24C77.84 36.64 78.57 36.86 78.99 36.45Z" fill="#13202B" fill-opacity="1.000000" fill-rule="nonzero"/>
		</g>
	</g>
	<g mask="url(#mask1_36832)">
		<g style="mix-blend-mode:normal">
			<path id="Path 35439" d="M81.67 31.55C84.97 32.73 88.27 33.9 91.57 35.08C93.55 35.79 95.54 36.5 97.52 37.2C98.54 37.56 99.55 37.93 100.58 38.27C101.06 38.43 101.55 38.61 102.05 38.71C102.29 38.76 102.53 38.75 102.77 38.73C102.89 38.72 103.01 38.71 103.12 38.69C103.51 38.6 103.85 38.45 104.2 38.28C104.98 37.92 105.75 37.54 106.52 37.16C108.12 36.36 109.72 35.57 111.31 34.77C114.11 33.37 116.91 31.98 119.7 30.59C120.6 30.14 121.49 29.7 122.39 29.25C122.88 29.01 123.21 28.42 122.96 27.88C122.74 27.4 122.12 27.05 121.59 27.31C118.47 28.86 115.36 30.41 112.24 31.96C110.38 32.89 108.52 33.82 106.65 34.75C105.71 35.22 104.77 35.69 103.82 36.14C103.46 36.31 103.09 36.5 102.72 36.63C102.56 36.69 102.87 36.6 102.85 36.6C102.82 36.6 102.75 36.63 102.72 36.63C102.66 36.64 102.65 36.63 102.6 36.63C102.53 36.64 102.47 36.65 102.4 36.65C102.25 36.67 102.59 36.63 102.6 36.63C102.57 36.62 102.43 36.66 102.4 36.65C102.29 36.64 102.26 36.61 102.15 36.58C101.92 36.52 102.45 36.67 102.29 36.62C102.24 36.61 102.19 36.59 102.15 36.58C102.03 36.55 101.92 36.51 101.81 36.47C100.97 36.2 100.13 35.9 99.29 35.6C97.58 35 95.86 34.38 94.15 33.77C91.21 32.72 88.27 31.67 85.33 30.63C84.39 30.29 83.45 29.96 82.51 29.62C81.99 29.44 81.33 29.62 81.12 30.17C80.93 30.67 81.12 31.36 81.67 31.55Z" fill="#13202B" fill-opacity="1.000000" fill-rule="nonzero"/>
		</g>
	</g>
	<g mask="url(#mask1_36832)">
		<g style="mix-blend-mode:normal">
			<path id="Path 35440" d="M101.78 38.27C102.07 40.82 102.34 43.37 102.62 45.92C102.67 46.34 102.71 46.75 102.77 47.16C102.81 47.44 102.87 47.75 103.06 47.98C103.26 48.22 103.49 48.34 103.8 48.4C103.85 48.43 103.51 48.32 103.55 48.33C103.84 48.42 104.11 48.46 104.41 48.34C104.8 48.19 105.07 47.81 105.14 47.4C105.18 47.13 105.1 46.79 104.92 46.58C104.73 46.34 104.49 46.23 104.19 46.15C103.65 46.02 103.05 46.52 103 47.05C102.94 47.66 103.32 48.09 103.9 48.23C103.66 48.1 103.47 47.97 103.24 47.83C103.17 47.67 103.12 47.52 103.05 47.36C103.11 47.14 103.16 46.92 103.22 46.7L103.64 46.38C103.82 46.36 103.97 46.35 104.15 46.33C104.16 46.33 104.39 46.4 104.38 46.4C104.38 46.4 104.15 46.33 104.15 46.33C104.03 46.3 104.44 46.43 104.38 46.4C104.62 46.52 104.74 46.69 104.85 46.92C104.76 46.73 104.92 47.26 104.88 47.04C104.87 46.95 104.85 46.85 104.84 46.76C104.66 45.5 104.55 44.24 104.41 42.98C104.23 41.32 104.05 39.66 103.87 38C103.81 37.45 103.24 37 102.69 37.09C102.12 37.19 101.72 37.69 101.78 38.27Z" fill="#13202B" fill-opacity="1.000000" fill-rule="nonzero"/>
		</g>
	</g>
	<g mask="url(#mask1_36832)">
		<g style="mix-blend-mode:normal">
			<path id="Path 35441" d="M48.81 22.93C48.83 22.74 48.86 22.56 48.89 22.37C48.91 22.29 48.93 22.2 48.95 22.12C48.96 22.08 48.97 22.03 48.98 21.99C49.1 21.64 49.23 21.32 49.4 20.98C49.44 20.91 49.48 20.83 49.52 20.75C49.54 20.72 49.56 20.68 49.58 20.64C49.52 20.75 49.63 20.56 49.64 20.54C49.67 20.5 49.69 20.47 49.72 20.43C49.77 20.35 49.83 20.26 49.89 20.18C50.11 19.87 50.35 19.58 50.6 19.3C50.66 19.23 50.72 19.17 50.78 19.11C50.81 19.07 50.84 19.04 50.87 19.01C51.01 18.88 51.14 18.76 51.29 18.63C51.38 18.55 51.48 18.47 51.58 18.39C51.71 18.29 51.83 18.19 51.96 18.09C52.23 17.89 52.5 17.7 52.78 17.52C52.94 17.42 53.1 17.32 53.26 17.23C53.36 17.18 53.51 17.09 53.61 17.04C54.73 16.43 55.89 15.88 57.05 15.33C59.17 14.33 61.3 13.34 63.43 12.35C64.17 12 64.91 11.66 65.64 11.31C66.35 10.98 67.05 10.63 67.78 10.35C67.92 10.3 68.06 10.25 68.2 10.2C68.26 10.18 68.32 10.17 68.39 10.15C68.64 10.09 68.9 10.04 69.16 10.03C69.22 10.02 69.28 10.02 69.33 10.02C69.45 10.01 69.15 10.02 69.16 10.03C69.19 10.03 69.31 10.02 69.33 10.02C69.47 10.03 69.56 10.04 69.7 10.05C69.98 10.09 70.26 10.14 70.54 10.21C70.61 10.23 70.68 10.24 70.75 10.26C70.79 10.27 71.02 10.34 70.88 10.3C70.74 10.26 70.98 10.33 71.02 10.34C71.13 10.37 71.24 10.4 71.35 10.44C71.77 10.57 72.19 10.7 72.61 10.83C73.38 11.07 74.15 11.31 74.92 11.55C76.18 11.95 77.45 12.34 78.71 12.74C80.32 13.24 81.93 13.73 83.53 14.26C84.31 14.52 85.09 14.77 85.83 15.1C85.95 15.16 86.06 15.21 86.18 15.27C86.23 15.3 86.28 15.32 86.33 15.35C86.49 15.44 86.18 15.27 86.18 15.27C86.35 15.39 86.6 15.53 86.77 15.66C86.99 15.82 87.2 15.99 87.4 16.18C87.43 16.2 87.59 16.37 87.49 16.26C87.6 16.39 87.8 16.61 87.9 16.75C88.1 17 88.28 17.26 88.46 17.53C88.54 17.66 88.61 17.78 88.69 17.91C88.73 17.99 88.81 18.13 88.85 18.2C89.47 19.37 89.96 20.61 90.57 21.79C90.89 22.42 91.24 23.04 91.65 23.62C91.96 24.08 92.69 24.18 93.12 23.83C93.58 23.46 93.66 22.84 93.33 22.36C93.24 22.22 93.14 22.09 93.06 21.95C93.01 21.88 92.87 21.55 92.8 21.53C92.76 21.46 92.69 21.33 92.66 21.26C92.57 21.1 92.49 20.95 92.41 20.79C92.11 20.18 91.83 19.56 91.55 18.94C90.97 17.69 90.35 16.41 89.47 15.34C88.78 14.52 87.96 13.83 87.01 13.34C86.39 13.02 85.73 12.79 85.07 12.57C83.68 12.09 82.28 11.66 80.87 11.22C78.22 10.39 75.57 9.57 72.91 8.74C71.57 8.31 70.19 7.81 68.75 7.95C67.34 8.09 66.02 8.82 64.76 9.41C62.3 10.56 59.84 11.7 57.39 12.85C56.03 13.49 54.68 14.12 53.35 14.81C52.55 15.22 51.75 15.66 51.02 16.17C49.51 17.24 48.19 18.62 47.39 20.3C47.05 21.03 46.82 21.83 46.72 22.63C46.66 23.18 47.04 23.77 47.62 23.82C48.17 23.87 48.74 23.51 48.81 22.93Z" fill="#13202B" fill-opacity="1.000000" fill-rule="nonzero"/>
		</g>
	</g>
	<g mask="url(#mask1_36832)">
		<g style="mix-blend-mode:normal">
			<path id="Path 35442" d="M50.73 19.6C53.65 20.91 56.59 22.14 59.56 23.31C61.01 23.88 62.46 24.45 63.92 24.97C65.11 25.39 66.32 25.77 67.56 26.02C68.53 26.21 69.53 26.29 70.52 26.22C71.47 26.15 72.4 25.91 73.3 25.6C74.34 25.24 75.34 24.77 76.33 24.29C77.7 23.62 79.07 22.93 80.43 22.21C83.54 20.57 86.6 18.82 89.59 16.96C90.06 16.67 90.14 15.9 89.8 15.49C89.41 15.02 88.83 14.97 88.33 15.28C87.02 16.09 85.71 16.88 84.38 17.65C84.24 17.73 84.09 17.81 83.95 17.89C83.86 17.94 83.78 17.99 83.69 18.04C83.87 17.94 83.58 18.1 83.58 18.11C83.26 18.29 82.94 18.47 82.62 18.65C81.95 19.02 81.28 19.39 80.6 19.75C79.28 20.46 77.95 21.15 76.6 21.82C75.49 22.37 74.37 22.93 73.22 23.39C72.8 23.56 72.37 23.71 71.93 23.84C71.87 23.86 71.82 23.87 71.76 23.89C71.67 23.91 71.61 23.92 71.52 23.94C71.3 23.99 71.08 24.03 70.86 24.07C70.65 24.1 70.45 24.12 70.25 24.13C70.15 24.14 70.06 24.14 69.97 24.15C69.87 24.15 69.41 24.13 69.8 24.16C69.36 24.13 68.92 24.11 68.49 24.05C67.98 23.97 67.47 23.87 66.97 23.74C66.86 23.71 66.73 23.69 66.62 23.64C66.54 23.62 66.45 23.59 66.37 23.57C66.06 23.47 65.74 23.37 65.43 23.27C64.02 22.8 62.64 22.25 61.26 21.72C57.99 20.45 54.76 19.1 51.57 17.67C51.07 17.45 50.39 17.7 50.19 18.22C49.98 18.76 50.2 19.36 50.73 19.6Z" fill="#13202B" fill-opacity="1.000000" fill-rule="nonzero"/>
		</g>
	</g>
	<g mask="url(#mask1_36832)">
		<g style="mix-blend-mode:normal">
			<path id="Path 35443" d="M69.42 25.93C69.72 28.29 70.02 30.65 70.32 33.01C70.39 33.55 70.94 34.01 71.5 33.91C72.06 33.82 72.48 33.32 72.41 32.74C72.11 30.38 71.81 28.02 71.51 25.66C71.44 25.11 70.89 24.65 70.33 24.75C69.77 24.85 69.35 25.34 69.42 25.93Z" fill="#13202B" fill-opacity="1.000000" fill-rule="nonzero"/>
		</g>
	</g>
</svg>
