<svg width="90.547852" height="104.556152" viewBox="0 0 90.5479 104.556" fill="none" xmlns="http://www.w3.org/2000/svg" xmlns:xlink="http://www.w3.org/1999/xlink">
	<desc>
			Created with Pixso.
	</desc>
	<defs/>
	<g style="mix-blend-mode:normal">
		<path id="Path 27208" d="M53.4 38.37L51.62 45.92L45.93 51.19L47.71 43.64L53.4 38.37Z" fill="#83D5D5" fill-opacity="1.000000" fill-rule="evenodd"/>
	</g>
	<g style="mix-blend-mode:normal">
		<path id="Path 27209" d="M61.37 52.29L53.95 54.56L46.53 52.29L53.95 50.03L61.37 52.29Z" fill="#83D5D5" fill-opacity="1.000000" fill-rule="evenodd"/>
	</g>
	<g style="mix-blend-mode:normal">
		<path id="Path 27210" d="M53.36 66.19L47.67 60.93L45.89 53.38L51.58 58.65L53.36 66.19Z" fill="#83D5D5" fill-opacity="1.000000" fill-rule="evenodd"/>
	</g>
	<g style="mix-blend-mode:normal">
		<path id="Path 27211" d="M37.32 66.28L39 58.7L44.63 53.36L42.94 60.93L37.32 66.28Z" fill="#83D5D5" fill-opacity="1.000000" fill-rule="evenodd"/>
	</g>
	<g style="mix-blend-mode:normal">
		<path id="Path 27212" d="M29.17 52.46L36.56 50.1L44 52.27L36.62 54.62L29.17 52.46Z" fill="#83D5D5" fill-opacity="1.000000" fill-rule="evenodd"/>
	</g>
	<g style="mix-blend-mode:normal">
		<path id="Path 27213" d="M37 38.45L42.76 43.65L44.63 51.18L38.88 45.98L37 38.45Z" fill="#83D5D5" fill-opacity="1.000000" fill-rule="evenodd"/>
	</g>
	<g style="mix-blend-mode:normal">
		<rect id="Rectangle 3551" x="44.447266" y="8.503418" width="1.652830" height="43.773266" fill="#83D5D5" fill-opacity="1.000000"/>
	</g>
	<g style="mix-blend-mode:normal">
		<path id="Path 27214" d="M45.27 0L42.4 5.17L42.24 8.5L37.89 9.97L45.27 14.16L52.65 9.97L48.2 8.5L48.09 5.17L45.27 0Z" fill="#83D5D5" fill-opacity="1.000000" fill-rule="nonzero"/>
	</g>
	<g style="mix-blend-mode:normal">
		<path id="Path 27215" d="M45.21 30.74L33.06 19.2L33.12 23.09L45.27 34.63L45.21 30.74Z" fill="#83D5D5" fill-opacity="1.000000" fill-rule="evenodd"/>
	</g>
	<g style="mix-blend-mode:normal">
		<path id="Path 27216" d="M45.33 30.74L57.48 19.2L57.42 23.09L45.27 34.63L45.33 30.74Z" fill="#83D5D5" fill-opacity="1.000000" fill-rule="evenodd"/>
	</g>
	<g style="mix-blend-mode:normal">
		<path id="Path 27217" d="M45.33 37.67L54.91 28.7L54.85 30.39L45.27 39.37L45.33 37.67Z" fill="#83D5D5" fill-opacity="1.000000" fill-rule="evenodd"/>
	</g>
	<g style="mix-blend-mode:normal">
		<path id="Path 27218" d="M45.21 37.67L35.62 28.7L35.69 30.39L45.27 39.37L45.21 37.67Z" fill="#83D5D5" fill-opacity="1.000000" fill-rule="evenodd"/>
	</g>
	<g style="mix-blend-mode:normal">
		<path id="Path 27219" d="M45.33 21.37L51.13 15.57L51.07 23.52L45.27 29.33L45.33 21.37Z" fill="#83D5D5" fill-opacity="1.000000" fill-rule="evenodd"/>
	</g>
	<g style="mix-blend-mode:normal">
		<path id="Path 27220" d="M45.21 21.37L39.4 15.57L39.47 23.52L45.27 29.33L45.21 21.37Z" fill="#83D5D5" fill-opacity="1.000000" fill-rule="evenodd"/>
	</g>
	<g style="mix-blend-mode:normal">
		<path id="Path 27221" d="M83.59 31.1L82.76 29.67L44.86 51.56L45.68 52.99L83.59 31.1Z" fill="#83D5D5" fill-opacity="1.000000" fill-rule="evenodd"/>
	</g>
	<g style="mix-blend-mode:normal">
		<path id="Path 27222" d="M78.27 33.22L85.6 37.51L84.65 32.93L87.48 31.17L90.54 26.13L84.63 26.24L81.66 27.77L78.22 24.73L78.27 33.22Z" fill="#83D5D5" fill-opacity="1.000000" fill-rule="nonzero"/>
	</g>
	<g style="mix-blend-mode:normal">
		<path id="Path 27223" d="M63.89 41.45L67.81 25.16L64.47 27.16L60.55 43.45L63.89 41.45Z" fill="#83D5D5" fill-opacity="1.000000" fill-rule="evenodd"/>
	</g>
	<g style="mix-blend-mode:normal">
		<path id="Path 27224" d="M63.95 41.56L80.02 46.31L76.62 48.2L60.55 43.45L63.95 41.56Z" fill="#83D5D5" fill-opacity="1.000000" fill-rule="evenodd"/>
	</g>
	<g style="mix-blend-mode:normal">
		<path id="Path 27225" d="M57.94 45.03L70.5 48.84L69.01 49.63L56.45 45.82L57.94 45.03Z" fill="#83D5D5" fill-opacity="1.000000" fill-rule="evenodd"/>
	</g>
	<g style="mix-blend-mode:normal">
		<path id="Path 27226" d="M57.88 44.92L60.86 32.14L59.43 33.04L56.45 45.82L57.88 44.92Z" fill="#83D5D5" fill-opacity="1.000000" fill-rule="evenodd"/>
	</g>
	<g style="mix-blend-mode:normal">
		<path id="Path 27227" d="M72.06 36.88L79.99 39L73.07 42.92L65.14 40.8L72.06 36.88Z" fill="#83D5D5" fill-opacity="1.000000" fill-rule="evenodd"/>
	</g>
	<g style="mix-blend-mode:normal">
		<path id="Path 27228" d="M72 36.77L74.12 28.84L67.27 32.87L65.14 40.8L72 36.77Z" fill="#83D5D5" fill-opacity="1.000000" fill-rule="evenodd"/>
	</g>
	<g style="mix-blend-mode:normal">
		<path id="Path 27229" d="M82.76 74.87L83.59 73.44L45.68 51.56L44.86 52.99L82.76 74.87Z" fill="#83D5D5" fill-opacity="1.000000" fill-rule="evenodd"/>
	</g>
	<g style="mix-blend-mode:normal">
		<path id="Path 27230" d="M78.27 71.33L78.22 79.82L81.71 76.7L84.65 78.27L90.54 78.41L87.5 73.34L84.69 71.54L85.6 67.03L78.27 71.33Z" fill="#83D5D5" fill-opacity="1.000000" fill-rule="nonzero"/>
	</g>
	<g style="mix-blend-mode:normal">
		<path id="Path 27231" d="M63.95 62.99L80.02 58.23L76.62 56.34L60.55 61.09L63.95 62.99Z" fill="#83D5D5" fill-opacity="1.000000" fill-rule="evenodd"/>
	</g>
	<g style="mix-blend-mode:normal">
		<path id="Path 27232" d="M63.89 63.09L67.81 79.38L64.47 77.38L60.55 61.09L63.89 63.09Z" fill="#83D5D5" fill-opacity="1.000000" fill-rule="evenodd"/>
	</g>
	<g style="mix-blend-mode:normal">
		<path id="Path 27233" d="M57.88 59.63L60.86 72.41L59.43 71.51L56.45 58.73L57.88 59.63Z" fill="#83D5D5" fill-opacity="1.000000" fill-rule="evenodd"/>
	</g>
	<g style="mix-blend-mode:normal">
		<path id="Path 27234" d="M57.94 59.52L70.5 55.71L69.01 54.91L56.45 58.73L57.94 59.52Z" fill="#83D5D5" fill-opacity="1.000000" fill-rule="evenodd"/>
	</g>
	<g style="mix-blend-mode:normal">
		<path id="Path 27235" d="M72 67.78L74.12 75.7L67.27 71.67L65.14 63.75L72 67.78Z" fill="#83D5D5" fill-opacity="1.000000" fill-rule="evenodd"/>
	</g>
	<g style="mix-blend-mode:normal">
		<path id="Path 27236" d="M72.06 67.67L79.99 65.55L73.07 61.62L65.14 63.75L72.06 67.67Z" fill="#83D5D5" fill-opacity="1.000000" fill-rule="evenodd"/>
	</g>
	<g style="mix-blend-mode:normal">
		<rect id="Rectangle 3552" x="44.447266" y="52.276855" width="1.652830" height="43.773266" fill="#83D5D5" fill-opacity="1.000000"/>
	</g>
	<g style="mix-blend-mode:normal">
		<path id="Path 27237" d="M37.89 94.58L42.34 96.05L42.44 99.38L45.27 104.55L48.14 99.38L48.29 96.05L52.65 94.58L45.27 90.38L37.89 94.58Z" fill="#83D5D5" fill-opacity="1.000000" fill-rule="nonzero"/>
	</g>
	<g style="mix-blend-mode:normal">
		<path id="Path 27238" d="M45.33 73.81L57.48 85.35L57.42 81.45L45.27 69.91L45.33 73.81Z" fill="#83D5D5" fill-opacity="1.000000" fill-rule="evenodd"/>
	</g>
	<g style="mix-blend-mode:normal">
		<path id="Path 27239" d="M45.21 73.81L33.06 85.35L33.12 81.45L45.27 69.91L45.21 73.81Z" fill="#83D5D5" fill-opacity="1.000000" fill-rule="evenodd"/>
	</g>
	<g style="mix-blend-mode:normal">
		<path id="Path 27240" d="M45.21 66.87L35.62 75.84L35.69 74.15L45.27 65.18L45.21 66.87Z" fill="#83D5D5" fill-opacity="1.000000" fill-rule="evenodd"/>
	</g>
	<g style="mix-blend-mode:normal">
		<path id="Path 27241" d="M45.33 66.87L54.91 75.84L54.85 74.15L45.27 65.18L45.33 66.87Z" fill="#83D5D5" fill-opacity="1.000000" fill-rule="evenodd"/>
	</g>
	<g style="mix-blend-mode:normal">
		<path id="Path 27242" d="M45.21 83.18L39.4 88.98L39.47 81.02L45.27 75.22L45.21 83.18Z" fill="#83D5D5" fill-opacity="1.000000" fill-rule="evenodd"/>
	</g>
	<g style="mix-blend-mode:normal">
		<path id="Path 27243" d="M45.33 83.18L51.13 88.98L51.07 81.02L45.27 75.22L45.33 83.18Z" fill="#83D5D5" fill-opacity="1.000000" fill-rule="evenodd"/>
	</g>
	<g style="mix-blend-mode:normal">
		<rect id="Rectangle 3553" x="6.951172" y="73.447754" width="43.772743" height="1.650750" transform="rotate(-29.9951 6.951172 73.447754)" fill="#83D5D5" fill-opacity="1.000000"/>
	</g>
	<g style="mix-blend-mode:normal">
		<path id="Path 27244" d="M5.9 71.62L3.06 73.38L0 78.41L5.91 78.31L8.87 76.78L12.32 79.82L12.27 71.33L4.94 67.03L5.9 71.62Z" fill="#83D5D5" fill-opacity="1.000000" fill-rule="nonzero"/>
	</g>
	<g style="mix-blend-mode:normal">
		<path id="Path 27245" d="M26.65 63.09L22.73 79.38L26.07 77.38L29.99 61.09L26.65 63.09Z" fill="#83D5D5" fill-opacity="1.000000" fill-rule="evenodd"/>
	</g>
	<g style="mix-blend-mode:normal">
		<path id="Path 27246" d="M26.59 62.99L10.52 58.23L13.92 56.34L29.99 61.09L26.59 62.99Z" fill="#83D5D5" fill-opacity="1.000000" fill-rule="evenodd"/>
	</g>
	<g style="mix-blend-mode:normal">
		<path id="Path 27247" d="M32.59 59.52L20.03 55.71L21.53 54.91L34.09 58.73L32.59 59.52Z" fill="#83D5D5" fill-opacity="1.000000" fill-rule="evenodd"/>
	</g>
	<g style="mix-blend-mode:normal">
		<path id="Path 27248" d="M32.66 59.63L29.68 72.41L31.11 71.51L34.09 58.73L32.66 59.63Z" fill="#83D5D5" fill-opacity="1.000000" fill-rule="evenodd"/>
	</g>
	<g style="mix-blend-mode:normal">
		<path id="Path 27249" d="M18.48 67.67L10.55 65.55L17.47 61.62L25.39 63.75L18.48 67.67Z" fill="#83D5D5" fill-opacity="1.000000" fill-rule="evenodd"/>
	</g>
	<g style="mix-blend-mode:normal">
		<path id="Path 27250" d="M18.54 67.78L16.41 75.7L23.27 71.67L25.39 63.75L18.54 67.78Z" fill="#83D5D5" fill-opacity="1.000000" fill-rule="evenodd"/>
	</g>
	<g style="mix-blend-mode:normal">
		<rect id="Rectangle 3554" x="6.951172" y="31.107910" width="1.650751" height="43.772747" transform="rotate(-60.0049 6.951172 31.107910)" fill="#83D5D5" fill-opacity="1.000000"/>
	</g>
	<g style="mix-blend-mode:normal">
		<path id="Path 27251" d="M8.83 27.85L5.89 26.27L0 26.13L3.04 31.2L5.85 33.01L4.94 37.51L12.27 33.22L12.32 24.73L8.83 27.85Z" fill="#83D5D5" fill-opacity="1.000000" fill-rule="nonzero"/>
	</g>
	<g style="mix-blend-mode:normal">
		<path id="Path 27252" d="M26.59 41.56L10.52 46.31L13.92 48.2L29.99 43.45L26.59 41.56Z" fill="#83D5D5" fill-opacity="1.000000" fill-rule="evenodd"/>
	</g>
	<g style="mix-blend-mode:normal">
		<path id="Path 27253" d="M26.65 41.45L22.73 25.16L26.07 27.16L29.99 43.45L26.65 41.45Z" fill="#83D5D5" fill-opacity="1.000000" fill-rule="evenodd"/>
	</g>
	<g style="mix-blend-mode:normal">
		<path id="Path 27254" d="M32.66 44.92L29.68 32.14L31.11 33.04L34.09 45.82L32.66 44.92Z" fill="#83D5D5" fill-opacity="1.000000" fill-rule="evenodd"/>
	</g>
	<g style="mix-blend-mode:normal">
		<path id="Path 27255" d="M32.59 45.03L20.03 48.84L21.53 49.63L34.09 45.82L32.59 45.03Z" fill="#83D5D5" fill-opacity="1.000000" fill-rule="evenodd"/>
	</g>
	<g style="mix-blend-mode:normal">
		<path id="Path 27256" d="M18.54 36.77L16.41 28.84L23.27 32.87L25.39 40.8L18.54 36.77Z" fill="#83D5D5" fill-opacity="1.000000" fill-rule="evenodd"/>
	</g>
	<g style="mix-blend-mode:normal">
		<path id="Path 27257" d="M18.48 36.88L10.55 39L17.47 42.92L25.39 40.8L18.48 36.88Z" fill="#83D5D5" fill-opacity="1.000000" fill-rule="evenodd"/>
	</g>
</svg>
