<svg width="180.545166" height="172.345215" viewBox="0 0 180.545 172.345" fill="none" xmlns="http://www.w3.org/2000/svg" xmlns:xlink="http://www.w3.org/1999/xlink">
	<desc>
			Created with Pixso.
	</desc>
	<defs/>
	<mask id="mask1_37947" mask-type="alpha" maskUnits="userSpaceOnUse" x="0.000000" y="0.000000" width="180.545105" height="172.345215">
		<g style="mix-blend-mode:normal">
			<rect id="Rectangle 3809" x="27.726501" width="155.678848" height="145.310242" transform="rotate(11 27.726501 0.000000)" fill="#C4C4C4" fill-opacity="1.000000"/>
		</g>
	</mask>
	<g mask="url(#mask1_37947)">
		<g style="mix-blend-mode:normal">
			<path id="Path 35305" d="M49.97 60.25C55.07 35.09 79.6 18.82 104.77 23.92C129.52 28.93 145.74 52.79 141.3 77.65C146.61 84.42 144.45 93.03 143 96.97C158.35 70.79 149.56 37.12 123.38 21.77C97.19 6.43 63.52 15.22 48.18 41.4C43.19 49.91 40.59 59.59 40.64 69.45C44.12 70.2 47.24 72.46 49.41 74.42C48.87 69.69 49.06 64.92 49.97 60.25ZM147.25 67.52C145.8 67.24 146.24 65 147.68 65.28C149.13 65.56 148.69 67.8 147.25 67.52ZM148.11 61.97C148.23 62.04 148.34 62.15 148.42 62.27C148.51 62.39 148.57 62.53 148.58 62.68C148.63 62.82 148.63 62.98 148.6 63.13L148.57 63.26C148.53 63.46 148.44 63.64 148.31 63.8L148.09 63.99C147.92 64.1 147.73 64.17 147.54 64.18L147.23 64.16C146.94 64.09 146.68 63.92 146.5 63.67C146.41 63.55 146.36 63.41 146.34 63.27C146.3 63.12 146.29 62.96 146.33 62.81L146.35 62.68C146.39 62.48 146.48 62.3 146.62 62.15C146.69 62.08 146.76 62.02 146.84 61.95C147 61.84 147.19 61.78 147.39 61.76L147.69 61.78C147.85 61.81 147.99 61.87 148.11 61.97ZM144.91 54.38C145.16 54.2 145.47 54.14 145.77 54.19C146.07 54.25 146.33 54.43 146.5 54.68C147.3 56.16 147.79 57.79 147.96 59.46C148.01 60.1 147.53 60.65 146.9 60.69C146.27 60.74 145.72 60.27 145.67 59.64C145.64 59.28 145.59 58.93 145.53 58.58C145.51 58.5 145.48 58.35 145.46 58.27C145.42 58.1 145.37 57.93 145.32 57.75C145.22 57.41 145.1 57.07 144.96 56.74C144.89 56.57 144.82 56.41 144.74 56.24C144.71 56.16 144.66 56.08 144.63 56C144.47 55.75 144.38 55.4 144.42 55.1C144.48 54.81 144.66 54.54 144.91 54.38ZM81.72 19.97C83.16 20.25 82.72 22.49 81.28 22.21C79.83 21.93 80.27 19.68 81.72 19.97ZM51.73 44.9C51.67 44.99 51.61 45.08 51.55 45.16C51.45 45.32 51.35 45.49 51.25 45.65C51.07 45.97 50.9 46.29 50.75 46.61C50.59 46.93 50.45 47.25 50.33 47.58C50.31 47.67 50.26 47.76 50.23 47.84C50.18 48.02 50.11 48.24 50.06 48.42C49.93 49.03 49.34 49.43 48.72 49.32C48.1 49.2 47.7 48.6 47.82 47.98C48.28 46.34 49.02 44.79 50.02 43.41C50.39 42.89 51.19 42.95 51.64 43.31C51.86 43.51 52 43.79 52.02 44.09C52.02 44.39 51.92 44.68 51.73 44.9ZM52.97 40.69C54.42 40.97 53.98 43.22 52.54 42.94C51.09 42.66 51.54 40.41 52.97 40.69Z" fill="#FCD100" fill-opacity="1.000000" fill-rule="nonzero"/>
		</g>
	</g>
	<g mask="url(#mask1_37947)">
		<g style="mix-blend-mode:normal">
			<path id="Path 35306" d="M104.48 23.49C79.25 18.6 54.84 35.09 49.96 60.32C49.06 64.96 48.87 69.72 49.41 74.42C50.51 75.41 51.54 76.48 52.48 77.63C52.46 77.36 51.5 68.2 57.71 62.91C57.78 62.54 57.84 62.17 57.91 61.79C61.96 40.98 82.13 27.39 102.95 31.44C122.42 35.23 135.8 53.23 133.82 72.97C136.24 73.36 138.47 74.53 140.15 76.31C140.56 76.73 140.95 77.17 141.31 77.63C145.98 52.53 129.54 28.36 104.48 23.49ZM67.82 37.36C67.78 37.56 67.69 37.74 67.56 37.9L67.34 38.09C67.17 38.2 66.98 38.27 66.79 38.29L66.48 38.26C66.33 38.24 66.18 38.18 66.06 38.08C65.93 38.01 65.82 37.91 65.75 37.78C65.58 37.53 65.52 37.22 65.56 36.92L65.59 36.79C65.63 36.59 65.72 36.41 65.85 36.26C65.92 36.19 66 36.13 66.07 36.06C66.24 35.95 66.43 35.89 66.62 35.87L66.93 35.89C67.08 35.91 67.22 35.97 67.34 36.07C67.6 36.22 67.77 36.48 67.82 36.78C67.86 36.92 67.87 37.08 67.83 37.23L67.82 37.36ZM102.51 26.9C101.55 26.62 100.55 26.44 99.55 26.36L99.41 26.33C99.26 26.32 99.11 26.32 98.96 26.32C98.74 26.31 98.52 26.32 98.29 26.32C97.77 26.35 97.24 26.4 96.73 26.48C96.1 26.53 95.54 26.06 95.5 25.43C95.45 24.8 95.92 24.25 96.55 24.2C98.69 23.9 100.87 24.06 102.95 24.66C103.56 24.8 103.96 25.39 103.85 26.01C103.73 26.62 103.13 27.02 102.51 26.9ZM106.38 28.42C104.94 28.14 105.38 25.9 106.82 26.18C108.27 26.46 107.83 28.7 106.38 28.42ZM136 59.33C136.03 59.13 136.12 58.94 136.26 58.79L136.48 58.6C136.64 58.48 136.83 58.42 137.03 58.4L137.34 58.42C137.78 58.51 138.13 58.85 138.22 59.3C138.27 59.45 138.27 59.6 138.23 59.75L138.21 59.9C138.17 60.1 138.08 60.28 137.94 60.43C137.87 60.5 137.8 60.56 137.72 60.63C137.56 60.74 137.37 60.8 137.17 60.82L136.86 60.8C136.71 60.78 136.57 60.72 136.45 60.62C136.2 60.47 136.02 60.21 135.97 59.91C135.93 59.76 135.92 59.61 135.96 59.46L136 59.33Z" fill="#4EB946" fill-opacity="1.000000" fill-rule="nonzero"/>
		</g>
	</g>
	<g mask="url(#mask1_37947)">
		<g style="mix-blend-mode:normal">
			<path id="Path 35307" d="M102.93 31.43C82.12 27.38 61.96 40.98 57.91 61.79C57.84 62.17 57.76 62.54 57.71 62.91C59.7 61.21 62.44 59.91 66.17 59.44C66.71 59.37 67.23 59.31 67.74 59.28C73.2 43.9 90.09 35.86 105.47 41.32C119.08 46.15 127.2 60.11 124.67 74.33C127.45 73.21 130.67 72.45 133.81 72.97C135.79 53.22 122.41 35.22 102.93 31.43ZM91.25 36.5C89.81 36.22 90.25 33.98 91.69 34.26C93.14 34.54 92.7 36.78 91.25 36.5ZM124.93 49.19C124.65 49.76 123.96 49.99 123.39 49.71C123.15 49.58 122.96 49.37 122.85 49.12C122.27 47.96 121.54 46.87 120.69 45.88C120.51 45.64 120.45 45.32 120.51 45.02C120.57 44.72 120.75 44.46 121 44.3C121.25 44.12 121.56 44.06 121.86 44.11C122.16 44.18 122.41 44.36 122.59 44.6C123.54 45.72 124.34 46.96 124.97 48.29C125.09 48.58 125.07 48.91 124.93 49.19ZM125.36 53.07C123.91 52.79 124.35 50.54 125.79 50.82C127.24 51.1 126.8 53.35 125.36 53.07Z" fill="#169FDB" fill-opacity="1.000000" fill-rule="nonzero"/>
		</g>
	</g>
	<g mask="url(#mask1_37947)">
		<g style="mix-blend-mode:normal">
			<path id="Path 35308" d="M101.25 40.12C86.87 37.32 72.62 45.47 67.74 59.28C70.3 59.05 72.88 59.29 75.35 60C80.39 48.82 93.53 43.84 104.72 48.87C114.11 53.11 119.36 63.24 117.4 73.36L117.36 73.56C117.44 75.3 117.34 77.04 117.05 78.76C119.38 76.95 121.95 75.46 124.68 74.33C127.53 58.44 117.1 43.2 101.25 40.12Z" fill="#E50151" fill-opacity="1.000000" fill-rule="nonzero"/>
		</g>
	</g>
	<g mask="url(#mask1_37947)">
		<g style="mix-blend-mode:normal">
			<path id="Path 35309" d="M99.84 47.32C89.73 45.36 79.59 50.61 75.36 60C83.09 62.35 84.95 69.06 84.95 69.06C84.95 69.06 92.56 56.83 106.44 59.54C115.21 61.25 117.13 68.48 117.36 73.56L117.4 73.36C119.74 61.32 111.88 49.66 99.84 47.32ZM85.01 56.9C83.56 56.62 84 54.38 85.44 54.66C86.89 54.94 86.45 57.18 85.01 56.9ZM94.43 51.39C94.11 51.42 93.8 51.46 93.48 51.52L93.34 51.54C93.2 51.57 92.98 51.63 92.84 51.67C92.27 51.82 91.72 52.02 91.18 52.25L90.76 52.45C90.69 52.49 90.62 52.52 90.55 52.56C90.28 52.71 90.02 52.86 89.75 53.03C89.49 53.19 89.28 53.35 89.05 53.52C88.94 53.61 88.83 53.7 88.72 53.79L88.5 53.98C88.08 54.44 87.37 54.48 86.89 54.08C86.42 53.66 86.37 52.94 86.79 52.47C88.84 50.57 91.46 49.38 94.25 49.1C94.88 49.06 95.42 49.55 95.45 50.18C95.49 50.79 95.04 51.33 94.43 51.39Z" fill="#FF6101" fill-opacity="1.000000" fill-rule="nonzero"/>
		</g>
	</g>
	<g mask="url(#mask1_37947)">
		<g style="mix-blend-mode:normal">
			<path id="Path 35310" d="M115.4 123.2C115.37 123.18 115.33 123.16 115.3 123.16L115.4 123.2Z" fill="#8DD2D4" fill-opacity="1.000000" fill-rule="nonzero"/>
		</g>
	</g>
	<g mask="url(#mask1_37947)">
		<g style="mix-blend-mode:normal">
			<path id="Path 35311" d="M142.11 99.11C142.45 98.41 142.75 97.69 143.01 96.96C144.46 93.01 146.62 84.41 141.31 77.64C140.95 77.18 140.56 76.74 140.16 76.32C138.47 74.54 136.24 73.37 133.82 72.98C130.69 72.47 127.46 73.23 124.69 74.34C121.95 75.47 119.39 76.95 117.05 78.76C117.34 77.04 117.44 75.3 117.36 73.56C117.13 68.48 115.21 61.26 106.43 59.54C92.55 56.84 84.94 69.06 84.94 69.06C84.94 69.06 83.08 62.34 75.35 60C72.88 59.29 70.3 59.05 67.75 59.28C67.24 59.31 66.71 59.37 66.18 59.44C62.44 59.91 59.71 61.21 57.72 62.91C51.5 68.2 52.46 77.36 52.49 77.63C51.55 76.48 50.52 75.41 49.41 74.42C47.24 72.47 44.12 70.22 40.64 69.45C37.72 68.82 34.55 69.25 31.49 71.82C21.6 80.14 28.8 92.7 28.8 92.7C28.8 92.7 15.18 93.97 17.1 105.92C18.61 115.32 27.5 113.43 31.24 112.19C31.2 111.96 31.23 111.72 31.35 111.52C33.57 107.98 37.12 105.48 41.2 104.61C41.36 102.41 41.82 100.12 43.5 98.59C43.93 98.13 44.64 98.08 45.12 98.48C45.55 98.86 45.68 99.68 45.22 100.1C43.74 101.45 43.51 103.59 43.42 105.51C43.4 105.99 43.39 106.46 43.41 106.94C43.42 107.16 43.44 107.37 43.46 107.59C43.47 107.71 43.49 107.82 43.5 107.95L43.54 108.17C43.58 108.37 43.64 108.58 43.71 108.77C43.75 108.88 43.79 108.98 43.84 109.08L43.9 109.2L44.08 109.47L44.17 109.58L44.41 109.79L44.54 109.87C45.11 110.14 45.35 110.82 45.09 111.39C44.82 111.97 44.14 112.21 43.56 111.94C41.76 110.89 41.2 108.91 41.13 106.96C40.9 107.02 40.68 107.08 40.46 107.15C40.03 107.29 39.62 107.44 39.21 107.62C38.42 107.95 37.68 108.37 36.98 108.86C36.59 109.14 36.22 109.42 35.87 109.7C35.68 109.85 35.3 110.22 35.01 110.5C34.69 110.83 34.38 111.18 34.1 111.55C33.96 111.72 33.83 111.9 33.7 112.08C33.59 112.23 33.49 112.39 33.4 112.55C33.15 113 32.64 113.24 32.13 113.15C30.59 116.79 27.96 125.89 37.08 131.39C46.31 136.97 52.64 124.78 52.64 124.78C52.64 124.78 49.6 137.02 63.64 142.46C77.87 147.97 86.45 132.6 86.45 132.6C86.45 132.6 85.54 146.03 95.46 146.91C105.38 147.79 109.51 134.66 109.51 134.66C109.51 134.66 116.8 148.98 129.17 146.3C141.54 143.63 138.85 125.77 138.85 125.77C138.85 125.77 155.37 131.16 158.2 118.43C158.35 117.79 158.45 117.14 158.51 116.49C160.05 101.3 142.11 99.11 142.11 99.11ZM23.98 109.52C23.56 109.98 22.85 110.02 22.37 109.62C19.31 107.34 18.69 103.01 20.97 99.95C21.21 99.63 21.48 99.33 21.77 99.06C22.19 98.6 22.9 98.55 23.38 98.95C23.81 99.33 23.94 100.14 23.49 100.57C21.54 102.25 21.33 105.19 23.01 107.14C23.26 107.43 23.56 107.7 23.88 107.92C24.34 108.34 24.39 109.05 23.98 109.52ZM33.61 92.63C33.53 92.76 33.43 92.87 33.3 92.95L32.99 93.15C32.83 93.27 32.64 93.33 32.44 93.35L32.14 93.33C31.94 93.29 31.75 93.2 31.6 93.07L31.41 92.85C31.32 92.73 31.26 92.59 31.24 92.44C31.2 92.29 31.2 92.14 31.23 91.99C31.25 91.84 31.32 91.69 31.41 91.58C31.48 91.45 31.59 91.34 31.71 91.26L32.03 91.05C32.19 90.94 32.38 90.87 32.58 90.86L32.88 90.88C33.08 90.91 33.27 91 33.42 91.14L33.61 91.36C33.7 91.48 33.76 91.62 33.77 91.77C33.82 91.91 33.82 92.07 33.79 92.22C33.77 92.37 33.7 92.51 33.61 92.63ZM36.56 76.2C35.72 76.59 34.99 77.18 34.42 77.92C33.85 78.67 33.41 79.5 33.11 80.39C32.36 82.82 32.54 85.37 32.83 87.85C32.88 88.48 32.41 89.03 31.78 89.08C31.15 89.13 30.6 88.65 30.55 88.02C30.21 85.14 30.08 82.19 31.04 79.41C31.82 77.04 33.54 75.09 35.81 74.04C36.4 73.84 37.05 74.15 37.27 74.74C37.46 75.34 37.15 75.98 36.56 76.2ZM119.89 79.78C122.73 80.52 124.21 83.15 125.41 85.61C125.69 86.18 125.23 86.86 124.71 87.07C124.41 87.16 124.1 87.14 123.82 87.01C123.55 86.87 123.35 86.64 123.24 86.36L123.05 85.97L122.95 85.78C122.81 85.52 122.67 85.25 122.52 84.99C122.24 84.5 121.93 84.03 121.58 83.58L121.43 83.39C121.33 83.3 121.21 83.19 121.12 83.08C120.93 82.89 120.73 82.72 120.52 82.56L120.41 82.48C120.29 82.4 120.11 82.32 119.98 82.26C119.85 82.19 119.74 82.15 119.62 82.11L119.43 82.07C118.82 81.94 118.42 81.34 118.52 80.73C118.62 80.1 119.26 79.68 119.89 79.78ZM101.8 64.82C104.58 63.95 107.57 65.3 109.17 67.64C110.48 69.66 110.78 72.17 109.98 74.44C111.79 75.19 113.18 76.93 112.81 78.99C112.56 80.45 110.31 80 110.57 78.56C110.57 78.53 110.58 78.35 110.59 78.33C110.59 78.25 110.58 78.17 110.57 78.09L110.56 77.99C110.53 77.91 110.51 77.83 110.48 77.76L110.42 77.65C110.37 77.56 110.32 77.48 110.26 77.39C110.19 77.27 110.09 77.16 109.97 77.07C109.73 76.83 109.45 76.66 109.13 76.55C108.77 76.43 108.4 76.36 108.03 76.34C107.08 76.31 106.12 76.43 105.2 76.68C104.8 76.77 104.41 76.89 104.04 77.06C103.89 77.12 103.76 77.2 103.64 77.3C103.51 77.39 103.59 77.32 103.53 77.39C103.46 77.47 103.39 77.55 103.33 77.63C102.91 78.1 102.19 78.14 101.71 77.73C101.25 77.31 101.2 76.6 101.61 76.12C102.34 75.17 103.5 74.73 104.63 74.47C105.63 74.22 106.67 74.08 107.7 74.06C108.4 72.42 108.26 70.55 107.32 69.03C106.33 67.51 104.42 66.39 102.54 66.99C101.94 67.2 101.29 66.88 101.08 66.29C100.87 65.69 101.21 65.03 101.8 64.82ZM92.13 98.43C92.6 97.86 93.22 97.45 93.93 97.23C94.64 97.02 95.4 97.05 96.09 97.32C96.66 97.56 97.12 98.01 97.38 98.58C97.93 99.67 97.74 101.18 96.63 101.87C96.1 102.21 95.41 102.07 95.04 101.56C94.69 101.04 94.83 100.33 95.35 99.97C95.36 99.96 95.39 99.9 95.39 99.88C95.4 99.83 95.38 99.78 95.38 99.73L95.32 99.57L95.22 99.45L94.96 99.37C94.88 99.38 94.79 99.38 94.71 99.39C94.59 99.43 94.47 99.47 94.36 99.52C94.25 99.58 94.14 99.65 94.04 99.73C93.97 99.8 93.9 99.86 93.83 99.94C93.42 100.41 92.69 100.46 92.22 100.04C91.74 99.63 91.71 98.9 92.13 98.43ZM94.08 78.62C95.53 78.9 95.09 81.15 93.65 80.87C92.2 80.59 92.64 78.34 94.08 78.62ZM83.76 78.82C88.14 81.48 89.53 87.18 86.87 91.55C84.22 95.92 78.52 97.31 74.15 94.66C69.77 92 68.38 86.3 71.04 81.93C73.05 78.62 76.91 76.91 80.72 77.65C81.79 77.85 82.83 78.25 83.76 78.82ZM76.3 103.04C75.93 104.95 72.91 105.98 69.56 105.32C66.2 104.67 63.79 102.59 64.16 100.68C64.53 98.77 67.55 97.75 70.9 98.4C74.26 99.06 76.67 101.13 76.3 103.04ZM76.6 70.71C77.2 70.93 77.34 71.73 77.12 72.24C76.85 72.85 76.14 72.96 75.58 72.76C75.49 72.74 75.32 72.71 75.23 72.67L74.72 72.57L74.53 72.56C74.36 72.55 74.11 72.55 73.93 72.56C73.76 72.58 73.57 72.61 73.41 72.63L73.1 72.71C72.93 72.76 72.76 72.82 72.59 72.88C72.51 72.91 72.43 72.95 72.35 72.98L72.24 73.04C71.94 73.19 71.66 73.37 71.39 73.58L71.18 73.74C71.06 73.86 70.88 74.03 70.77 74.16C70.65 74.29 70.54 74.43 70.44 74.57C70.39 74.64 70.32 74.75 70.28 74.82C70.19 74.98 70.11 75.14 70.04 75.3C70 75.38 69.96 75.46 69.94 75.54L69.98 75.42C69.97 75.48 69.97 75.49 69.94 75.54C69.81 76.15 69.21 76.6 68.59 76.5C67.97 76.37 67.57 75.78 67.69 75.16C68.21 73.38 69.45 71.9 71.1 71.06C72.8 70.18 74.8 70.05 76.6 70.71ZM73.09 62.31C74.54 62.59 74.1 64.84 72.66 64.56C71.21 64.28 71.65 62.03 73.09 62.31ZM68.98 61.82C69.61 61.76 70.17 62.22 70.24 62.85C70.3 63.48 69.84 64.04 69.21 64.1C67.38 64.1 65.56 64.71 64.11 65.83C62.65 66.99 61.62 68.61 61.21 70.43C61.09 71.05 60.49 71.46 59.87 71.34C59.25 71.21 58.85 70.62 58.97 70C60.04 65.3 64.17 61.93 68.98 61.82ZM52.49 112C52.46 112.14 52.38 112.28 52.28 112.39L52.1 112.62C51.97 112.77 51.8 112.88 51.62 112.95L51.33 113.01C51.12 113.02 50.92 112.98 50.73 112.89L50.48 112.73C50.37 112.64 50.28 112.51 50.22 112.38C50.03 111.96 50.09 111.47 50.38 111.11C50.44 111.03 50.5 110.96 50.56 110.88C50.69 110.73 50.86 110.62 51.04 110.55L51.33 110.49C51.54 110.48 51.74 110.52 51.93 110.61L52.17 110.77C52.53 111.07 52.65 111.56 52.49 112ZM61.53 94.35C61.11 94.82 60.39 94.87 59.92 94.45C59.72 94.25 59.51 94.05 59.28 93.88C59.21 93.85 59.15 93.8 59.08 93.76C58.96 93.7 58.83 93.64 58.7 93.59L58.5 93.55L58.09 93.47L57.91 93.43C57.79 93.43 57.65 93.43 57.54 93.45L57.32 93.47L57.14 93.51C57.08 93.53 57.02 93.54 56.97 93.56C56.84 93.61 56.72 93.65 56.59 93.71L56.42 93.8C56.31 93.87 56.2 93.94 56.09 94.02L55.95 94.13C55.77 94.32 55.6 94.52 55.45 94.74C55.08 95.26 54.27 95.19 53.83 94.84C53.31 94.42 53.39 93.72 53.73 93.23C54.58 92.04 55.91 91.28 57.37 91.15C57.4 91.16 57.44 91.16 57.48 91.15C57.32 89.32 57.91 87.49 58.8 85.87C59.77 84.11 61.15 82.22 63.23 81.74C63.82 81.55 64.47 81.86 64.69 82.45C64.87 82.98 64.59 83.76 63.98 83.9C63.76 83.95 63.55 84.02 63.34 84.11C63.22 84.15 63.1 84.21 63 84.29C62.69 84.48 62.4 84.71 62.16 84.99C61.64 85.56 61.19 86.2 60.84 86.89C60.04 88.34 59.43 90 59.85 91.6C60.45 91.86 60.99 92.25 61.44 92.74C61.89 93.17 61.93 93.88 61.53 94.35ZM70.95 139.95C69.2 140.59 67.37 140.38 65.65 139.77C62.89 138.78 60.47 136.7 58.68 134.42C56.87 132.19 55.8 129.47 55.59 126.61C55.53 125.98 55.99 125.42 56.62 125.36C57.24 125.29 57.81 125.75 57.87 126.38C57.94 127.73 58.27 129.11 58.84 130.33C59.88 132.53 61.44 134.43 63.39 135.88C64.38 136.66 65.48 137.27 66.66 137.71C67.79 138.15 69.05 138.18 70.21 137.79C71.57 137.28 72.33 139.44 70.95 139.95ZM74.48 139.43C73.03 139.15 73.47 136.9 74.91 137.19C76.36 137.47 75.92 139.71 74.48 139.43ZM79.29 128.11C78.87 128.63 78.17 128.55 77.67 128.21C77.61 128.17 77.46 128.1 77.39 128.07L77.19 127.99L76.29 127.81C76.22 127.8 76.1 127.8 76.02 127.8C75.87 127.8 75.72 127.81 75.56 127.82C75.25 127.84 74.94 127.88 74.64 127.93L74.12 128.01L73.92 128.06C73.68 128.11 73.45 128.18 73.22 128.27L73.05 128.34L72.86 128.46C72.81 128.51 72.76 128.56 72.75 128.58C72.62 129.19 72.04 129.54 71.43 129.44C70.81 129.32 70.4 128.72 70.52 128.1C71.02 126.4 72.69 125.97 74.23 125.69C73.64 124.18 73.45 122.52 73.7 120.91C74.03 118.87 75.04 117 76.58 115.61C77 115.15 77.71 115.1 78.19 115.5C78.62 115.88 78.76 116.7 78.3 117.12C75.86 119.22 75.18 122.71 76.65 125.57L76.79 125.57C77.66 125.67 78.49 125.98 79.2 126.49C79.71 126.85 79.64 127.67 79.29 128.11ZM105.08 111.99C104.53 113.37 103.67 114.59 102.57 115.58C100.87 117.08 98.35 118.14 94.56 117.87C91.35 117.64 89 116.6 87.3 115.25C85.9 114.13 84.77 112.72 84 111.1C83.34 109.75 83.91 108.11 85.27 107.45C85.7 107.25 86.17 107.15 86.64 107.18L102.73 108.2C104.23 108.29 105.38 109.58 105.29 111.09C105.28 111.4 105.2 111.71 105.08 111.99ZM104.36 91.69C105.33 86.67 110.19 83.38 115.22 84.35C120.25 85.31 123.54 90.18 122.57 95.21C121.6 100.24 116.73 103.53 111.71 102.56C106.69 101.58 103.38 96.71 104.36 91.69ZM116.99 122.73C116.7 123.29 116.02 123.51 115.45 123.24L115.3 123.18C115.25 123.16 115.11 123.14 115.06 123.13C114.92 123.14 114.7 123.15 114.56 123.17C114.49 123.2 114.4 123.21 114.33 123.24L114.12 123.32L113.98 123.39C113.91 123.43 113.78 123.52 113.71 123.56C113.65 123.6 113.59 123.65 113.53 123.7C113.42 123.81 113.31 123.92 113.22 124.04C113.17 124.1 113.12 124.16 113.08 124.22C113.08 124.24 113.04 124.3 113.01 124.33C112.92 124.49 112.83 124.65 112.76 124.8C112.68 124.95 112.63 125.13 112.56 125.28C112.54 125.39 112.5 125.51 112.47 125.62C112.38 125.95 112.32 126.29 112.28 126.61C113.25 126.71 114.18 127.09 114.93 127.73C115.4 128.14 115.45 128.87 115.03 129.34C114.61 129.82 113.89 129.87 113.42 129.45L113.21 129.28C113.07 129.2 112.9 129.12 112.76 129.06C112.69 129.03 112.62 129 112.55 128.97C112.39 128.93 112.22 128.9 112.06 128.88C111.97 128.89 111.89 128.85 111.8 128.86C111.72 128.86 111.49 128.92 111.36 128.91L111.11 128.98C111.06 129.01 110.99 129.04 110.93 129.06C110.87 129.1 110.77 129.17 110.72 129.21C110.64 129.3 110.49 129.42 110.42 129.52C110.4 129.57 110.35 129.62 110.32 129.67C110.23 129.81 110.16 129.95 110.12 130.11L110.18 129.93L110.12 130.11C110.1 130.18 110.12 130.2 110.11 130.28C110.1 130.34 110.09 130.39 110.08 130.45C110.08 130.57 110.11 130.69 110.11 130.81C110.14 130.88 110.16 130.99 110.19 131.07C110.37 131.67 110.04 132.31 109.43 132.5C108.86 132.67 108.25 132.38 108.03 131.82C107.74 131.11 107.7 130.32 107.9 129.57C108.2 128.48 108.93 127.56 109.93 127.02C110.11 125.35 110.5 123.57 111.7 122.33C112.89 121.09 114.82 120.43 116.5 121.19C117.03 121.49 117.25 122.17 116.99 122.73ZM115.99 114.37C112.64 113.72 110.23 111.64 110.6 109.73C110.97 107.82 113.98 106.8 117.34 107.45C120.69 108.1 123.11 110.18 122.74 112.09C122.37 114 119.35 115.02 115.99 114.37ZM125.1 142.17C123.65 141.89 124.09 139.65 125.53 139.93C126.98 140.21 126.54 142.46 125.1 142.17ZM138.6 80.37C139.12 80.02 139.83 80.16 140.18 80.67C142.32 84.27 142.98 88.55 142.04 92.62C141.92 93.24 141.32 93.65 140.7 93.53C140.08 93.4 139.67 92.81 139.79 92.19C140.63 88.71 140.09 85.05 138.29 81.96C137.92 81.43 138.07 80.73 138.6 80.37ZM139.9 97.8C138.45 97.52 138.89 95.28 140.33 95.56C141.78 95.84 141.34 98.08 139.9 97.8ZM133.89 113.48C135.34 113.76 134.9 116.01 133.46 115.72C132.01 115.44 132.44 113.2 133.89 113.48ZM129.97 140.92C129.43 141.26 128.73 141.11 128.38 140.58C128.05 140.06 128.19 139.38 128.69 139.03C132.37 136.76 134.43 132.59 133.97 128.29C133.92 127.66 134.39 127.11 135.02 127.06C135.66 127.01 136.21 127.48 136.25 128.11C136.77 133.23 134.33 138.2 129.97 140.92ZM151.28 116.19C150.71 116.23 150.02 115.76 150.05 115.14C150.18 112.68 149.38 110.27 147.82 108.37C147.09 107.46 146.21 106.68 145.24 106.03C144.23 105.38 143.1 104.94 141.91 104.73C140.46 104.47 140.9 102.22 142.35 102.49C143.61 102.72 144.82 103.16 145.94 103.8C149.83 106.02 152.56 110.41 152.33 114.95C152.28 115.58 151.95 116.14 151.28 116.19ZM151.82 121.44C150.37 121.16 150.81 118.92 152.26 119.2C153.7 119.48 153.27 121.72 151.82 121.44Z" fill="#8DD2D4" fill-opacity="1.000000" fill-rule="nonzero"/>
		</g>
	</g>
	<g mask="url(#mask1_37947)">
		<g style="mix-blend-mode:normal">
			<path id="Path 35312" d="" fill="#8DD2D4" fill-opacity="1.000000" fill-rule="nonzero"/>
		</g>
	</g>
	<g mask="url(#mask1_37947)">
		<g style="mix-blend-mode:normal">
			<path id="Path 35313" d="" fill="#8DD2D4" fill-opacity="1.000000" fill-rule="nonzero"/>
		</g>
	</g>
	<g mask="url(#mask1_37947)">
		<g style="mix-blend-mode:normal">
			<path id="Path 35314" d="" fill="#8DD2D4" fill-opacity="1.000000" fill-rule="nonzero"/>
		</g>
	</g>
	<g mask="url(#mask1_37947)">
		<g style="mix-blend-mode:normal">
			<path id="Path 35315" d="" fill="#8DD2D4" fill-opacity="1.000000" fill-rule="nonzero"/>
		</g>
	</g>
	<g mask="url(#mask1_37947)">
		<g style="mix-blend-mode:normal">
			<path id="Path 35316" d="M102.73 108.21L86.65 107.19C85.14 107.09 83.84 108.23 83.74 109.74C83.71 110.21 83.8 110.68 84 111.1C84.77 112.71 85.9 114.13 87.29 115.24C89.32 112.91 94.75 108.46 102.57 115.58C103.66 114.59 104.52 113.36 105.08 111.99C105.66 110.6 105 109 103.61 108.41C103.33 108.3 103.03 108.23 102.73 108.21Z" fill="#154883" fill-opacity="1.000000" fill-rule="nonzero"/>
		</g>
	</g>
	<g mask="url(#mask1_37947)">
		<g style="mix-blend-mode:normal">
			<path id="Path 35317" d="M69.85 84.99C68.88 90.02 72.17 94.88 77.2 95.85C78.27 96.05 79.36 96.07 80.44 95.9C76.07 93.24 74.67 87.54 77.33 83.17C78.73 80.86 81.08 79.27 83.75 78.84C82.82 78.27 81.79 77.87 80.71 77.66C75.69 76.69 70.83 79.97 69.85 84.99Z" fill="#FFFFFF" fill-opacity="1.000000" fill-rule="nonzero"/>
		</g>
	</g>
	<g mask="url(#mask1_37947)">
		<g style="mix-blend-mode:normal">
			<path id="Path 35318" d="M76.16 86.22C75.42 90.02 77.13 93.89 80.45 95.9C85.5 95.07 88.92 90.3 88.09 85.25C87.65 82.59 86.07 80.25 83.76 78.84C79.94 79.47 76.9 82.41 76.16 86.22Z" fill="#154883" fill-opacity="1.000000" fill-rule="nonzero"/>
		</g>
	</g>
	<g mask="url(#mask1_37947)">
		<g style="mix-blend-mode:normal">
			<path id="Path 35319" d="M110.66 92.92C111.4 89.11 114.43 86.17 118.26 85.55C113.89 82.9 108.19 84.29 105.54 88.67C102.89 93.04 104.29 98.73 108.66 101.38C110.54 102.52 112.77 102.96 114.94 102.61C111.63 100.59 109.92 96.73 110.66 92.92Z" fill="#FFFFFF" fill-opacity="1.000000" fill-rule="nonzero"/>
		</g>
	</g>
	<g mask="url(#mask1_37947)">
		<g style="mix-blend-mode:normal">
			<path id="Path 35320" d="M110.66 92.92C109.92 96.73 111.63 100.59 114.94 102.6C119.99 101.78 123.41 97.01 122.58 91.96C122.15 89.29 120.57 86.95 118.26 85.55C114.43 86.17 111.4 89.11 110.66 92.92Z" fill="#154883" fill-opacity="1.000000" fill-rule="nonzero"/>
		</g>
	</g>
	<g mask="url(#mask1_37947)">
		<g style="mix-blend-mode:normal">
			<path id="Path 35321" d="M92.22 100.04C92.7 100.45 93.42 100.4 93.84 99.94C93.9 99.86 93.97 99.8 94.04 99.73C94.14 99.65 94.25 99.58 94.36 99.51C94.48 99.46 94.59 99.42 94.71 99.39C94.8 99.38 94.88 99.37 94.97 99.37L95.14 99.4L95.26 99.48L95.38 99.73C95.37 99.77 95.39 99.83 95.39 99.87L95.36 99.97C94.84 100.33 94.7 101.03 95.05 101.56C95.41 102.07 96.11 102.2 96.64 101.87C97.75 101.18 97.94 99.66 97.39 98.57C97.12 98.01 96.66 97.56 96.09 97.32C95.4 97.05 94.64 97.02 93.93 97.23C93.23 97.45 92.6 97.86 92.13 98.42C91.72 98.9 91.76 99.61 92.22 100.04Z" fill="#154883" fill-opacity="1.000000" fill-rule="nonzero"/>
		</g>
	</g>
	<g mask="url(#mask1_37947)">
		<g style="mix-blend-mode:normal">
			<path id="Path 35322" d="M67.66 75.2C67.54 75.82 67.95 76.42 68.57 76.54C69.18 76.64 69.77 76.25 69.91 75.64C69.92 75.58 69.93 75.52 69.96 75.47L69.91 75.64C69.93 75.55 69.97 75.42 70.02 75.34C70.09 75.18 70.16 75.02 70.25 74.87C70.29 74.79 70.34 74.72 70.39 74.65C70.49 74.51 70.62 74.34 70.74 74.2C70.86 74.07 70.98 73.95 71.11 73.82L71.36 73.62C71.63 73.42 71.91 73.24 72.21 73.08L72.32 73.03C72.4 73 72.48 72.96 72.57 72.93C72.73 72.86 72.9 72.81 73.07 72.76L73.33 72.69C73.5 72.66 73.74 72.63 73.91 72.61C74.08 72.59 74.25 72.58 74.43 72.59L74.69 72.62L75.21 72.72C75.3 72.73 75.38 72.75 75.47 72.78C76.03 72.99 76.82 72.89 77.09 72.29C77.32 71.77 77.17 70.97 76.57 70.75C74.76 70.1 72.76 70.24 71.06 71.14C69.42 71.97 68.19 73.44 67.66 75.2Z" fill="#154883" fill-opacity="1.000000" fill-rule="nonzero"/>
		</g>
	</g>
	<g mask="url(#mask1_37947)">
		<g style="mix-blend-mode:normal">
			<path id="Path 35323" d="M119.45 82.03L119.64 82.06C119.76 82.11 119.88 82.16 120 82.22C120.12 82.27 120.26 82.35 120.38 82.43L120.53 82.52C120.75 82.68 120.95 82.85 121.14 83.04C121.23 83.15 121.32 83.25 121.43 83.35L121.59 83.54C121.93 83.99 122.24 84.46 122.52 84.95C122.67 85.21 122.82 85.47 122.95 85.74L123.05 85.93L123.25 86.32C123.35 86.6 123.56 86.83 123.82 86.97C124.1 87.1 124.42 87.12 124.71 87.03C125.23 86.82 125.69 86.14 125.41 85.57C124.21 83.11 122.74 80.47 119.89 79.74C119.27 79.62 118.67 80.03 118.55 80.64C118.42 81.27 118.82 81.89 119.45 82.03Z" fill="#154883" fill-opacity="1.000000" fill-rule="nonzero"/>
		</g>
	</g>
	<g mask="url(#mask1_37947)">
		<g style="mix-blend-mode:normal">
			<path id="Path 35324" d="" fill="#154883" fill-opacity="1.000000" fill-rule="nonzero"/>
		</g>
	</g>
	<g mask="url(#mask1_37947)">
		<g style="mix-blend-mode:normal">
			<path id="Path 35325" d="M35.8 74.04C33.54 75.09 31.81 77.04 31.04 79.41C30.08 82.19 30.21 85.15 30.54 88.02C30.59 88.65 31.14 89.13 31.77 89.08C32.4 89.03 32.88 88.48 32.83 87.85C32.54 85.36 32.35 82.83 33.11 80.39C33.41 79.5 33.85 78.67 34.42 77.92C34.98 77.18 35.72 76.59 36.56 76.2C37.15 75.98 37.46 75.34 37.27 74.74C37.05 74.15 36.4 73.83 35.8 74.04Z" fill="#154883" fill-opacity="1.000000" fill-rule="nonzero"/>
		</g>
	</g>
	<g mask="url(#mask1_37947)">
		<g style="mix-blend-mode:normal">
			<path id="Path 35326" d="M33.61 91.37L33.42 91.15C33.27 91.02 33.08 90.93 32.88 90.89L32.58 90.87C32.38 90.89 32.19 90.95 32.03 91.06L31.71 91.27C31.59 91.35 31.48 91.46 31.41 91.59C31.32 91.71 31.26 91.85 31.23 92C31.2 92.15 31.2 92.31 31.25 92.46C31.26 92.6 31.32 92.74 31.41 92.86L31.6 93.08C31.75 93.21 31.94 93.31 32.14 93.34L32.44 93.36C32.64 93.35 32.83 93.28 32.99 93.17L33.31 92.96C33.43 92.88 33.54 92.78 33.61 92.65C33.7 92.53 33.77 92.38 33.79 92.23C33.82 92.08 33.82 91.93 33.77 91.78C33.76 91.63 33.7 91.49 33.61 91.37Z" fill="#154883" fill-opacity="1.000000" fill-rule="nonzero"/>
		</g>
	</g>
	<g mask="url(#mask1_37947)">
		<g style="mix-blend-mode:normal">
			<path id="Path 35327" d="M70.19 137.79C69.03 138.18 67.77 138.15 66.63 137.71C65.46 137.27 64.36 136.65 63.37 135.88C61.42 134.43 59.86 132.52 58.82 130.33C58.25 129.1 57.92 127.78 57.85 126.43C57.82 125.8 57.28 125.32 56.65 125.35C56.02 125.38 55.53 125.92 55.57 126.55C55.77 129.41 56.85 132.19 58.66 134.42C60.44 136.69 62.87 138.78 65.63 139.76C67.35 140.38 69.18 140.59 70.93 139.95C72.32 139.44 71.57 137.28 70.19 137.79Z" fill="#154883" fill-opacity="1.000000" fill-rule="nonzero"/>
		</g>
	</g>
	<g mask="url(#mask1_37947)">
		<g style="mix-blend-mode:normal">
			<path id="Path 35328" d="M74.91 137.18C73.46 136.9 73.02 139.15 74.47 139.43C75.91 139.71 76.35 137.47 74.91 137.18Z" fill="#154883" fill-opacity="1.000000" fill-rule="nonzero"/>
		</g>
	</g>
	<g mask="url(#mask1_37947)">
		<g style="mix-blend-mode:normal">
			<path id="Path 35329" d="M152.31 114.96C152.54 110.43 149.82 106.03 145.92 103.8C144.81 103.17 143.59 102.73 142.33 102.5C140.88 102.23 140.44 104.48 141.89 104.74C143.08 104.95 144.21 105.39 145.22 106.04C146.19 106.68 147.07 107.47 147.81 108.38C149.36 110.28 150.16 112.69 150.03 115.15C150 115.76 150.7 116.24 151.26 116.2C151.94 116.14 152.28 115.58 152.31 114.96Z" fill="#154883" fill-opacity="1.000000" fill-rule="nonzero"/>
		</g>
	</g>
	<g mask="url(#mask1_37947)">
		<g style="mix-blend-mode:normal">
			<path id="Path 35330" d="M152.24 119.19C150.8 118.91 150.36 121.16 151.81 121.44C153.25 121.72 153.69 119.47 152.24 119.19Z" fill="#154883" fill-opacity="1.000000" fill-rule="nonzero"/>
		</g>
	</g>
	<g mask="url(#mask1_37947)">
		<g style="mix-blend-mode:normal">
			<path id="Path 35331" d="M33.4 112.54C33.49 112.38 33.6 112.23 33.71 112.08C33.83 111.9 33.97 111.72 34.11 111.55C34.39 111.18 34.7 110.83 35.01 110.49C35.29 110.21 35.67 109.85 35.87 109.7C36.23 109.41 36.6 109.12 36.98 108.85C37.68 108.37 38.43 107.95 39.21 107.61C39.62 107.44 40.04 107.28 40.46 107.15C40.68 107.08 40.91 107.02 41.13 106.96C41.2 108.9 41.72 110.87 43.52 111.92C44.08 112.21 44.77 112 45.07 111.44C45.36 110.88 45.15 110.19 44.59 109.89L44.46 109.83L44.16 109.57L44.08 109.47L43.9 109.2L43.83 109.08C43.79 108.97 43.74 108.87 43.71 108.77C43.64 108.57 43.58 108.37 43.53 108.16L43.5 107.95C43.48 107.83 43.47 107.71 43.46 107.59C43.43 107.37 43.42 107.15 43.41 106.93C43.39 106.46 43.4 105.98 43.42 105.5C43.5 103.59 43.74 101.44 45.21 100.09C45.67 99.67 45.54 98.85 45.11 98.48C44.63 98.08 43.92 98.12 43.5 98.58C41.82 100.12 41.35 102.39 41.2 104.6C37.11 105.48 33.56 107.97 31.35 111.52C31.23 111.72 31.19 111.95 31.24 112.18C31.3 112.55 31.53 112.88 31.86 113.06C31.95 113.1 32.04 113.13 32.13 113.15C32.64 113.24 33.15 113 33.4 112.54Z" fill="#4EA7DD" fill-opacity="1.000000" fill-rule="nonzero"/>
		</g>
	</g>
	<g mask="url(#mask1_37947)">
		<g style="mix-blend-mode:normal">
			<path id="Path 35332" d="M70.89 98.4C74.25 99.05 76.66 101.13 76.29 103.04C75.92 104.95 72.9 105.98 69.55 105.32C66.2 104.67 63.78 102.59 64.15 100.68C64.52 98.77 67.54 97.75 70.89 98.4Z" fill="#EF5F84" fill-opacity="1.000000" fill-rule="nonzero"/>
		</g>
	</g>
	<g mask="url(#mask1_37947)">
		<g style="mix-blend-mode:normal">
			<path id="Path 35333" d="M117.33 107.43C120.68 108.08 123.1 110.16 122.73 112.07C122.36 113.98 119.34 115 115.99 114.35C112.64 113.7 110.22 111.62 110.59 109.71C110.96 107.8 113.98 106.78 117.33 107.43Z" fill="#EF5F84" fill-opacity="1.000000" fill-rule="nonzero"/>
		</g>
	</g>
	<g mask="url(#mask1_37947)">
		<g style="mix-blend-mode:normal">
			<path id="Path 35334" d="M87.3 115.25C89 116.6 91.36 117.64 94.56 117.87C98.35 118.14 100.88 117.08 102.57 115.58C94.76 108.46 89.33 112.91 87.3 115.25Z" fill="#EF5F84" fill-opacity="1.000000" fill-rule="nonzero"/>
		</g>
	</g>
	<g mask="url(#mask1_37947)">
		<g style="mix-blend-mode:normal">
			<path id="Path 35335" d="M116.46 121.16C114.78 120.4 112.89 121.02 111.66 122.31C110.43 123.59 110.07 125.33 109.89 126.99C108.9 127.54 108.17 128.47 107.88 129.56C107.67 130.31 107.72 131.1 108.01 131.81C108.24 132.4 108.9 132.69 109.49 132.46C110.05 132.24 110.34 131.63 110.16 131.06C110.13 130.98 110.1 130.91 110.08 130.83C110.07 130.71 110.06 130.55 110.05 130.44C110.06 130.38 110.07 130.32 110.09 130.27C110.1 130.19 110.11 130.11 110.13 130.03L110.15 129.92L110.13 130.03C110.17 129.88 110.2 129.79 110.3 129.66C110.33 129.61 110.36 129.56 110.39 129.5C110.44 129.42 110.56 129.32 110.64 129.23C110.7 129.19 110.8 129.12 110.86 129.08C110.93 129.06 111.03 129 111.09 128.97L111.28 128.91C111.41 128.93 111.64 128.85 111.77 128.85C111.91 128.85 111.95 128.86 112.04 128.85C112.21 128.87 112.36 128.92 112.53 128.96C112.59 128.99 112.67 129.01 112.73 129.04C112.87 129.11 113.01 129.18 113.15 129.26L113.39 129.44C113.86 129.86 114.59 129.82 115.01 129.35C115.44 128.88 115.4 128.15 114.93 127.73C114.17 127.09 113.24 126.69 112.25 126.6L112.45 125.61C112.47 125.5 112.51 125.4 112.54 125.29C112.6 125.13 112.66 124.94 112.74 124.79C112.81 124.63 112.9 124.47 112.99 124.32C113 124.31 113.05 124.22 113.06 124.21C113.1 124.15 113.15 124.09 113.19 124.03C113.29 123.91 113.4 123.81 113.5 123.7C113.57 123.65 113.63 123.59 113.69 123.55C113.76 123.5 113.82 123.46 113.88 123.42L114.1 123.3L114.31 123.22C114.38 123.2 114.45 123.18 114.52 123.16C114.66 123.14 114.82 123.13 114.97 123.12C115.01 123.13 115.13 123.13 115.18 123.15L115.43 123.23C115.99 123.53 116.68 123.33 116.98 122.77C117.28 122.21 117.02 121.46 116.46 121.16ZM115.3 123.15C115.34 123.15 115.4 123.21 115.43 123.23L115.3 123.15Z" fill="#4EA7DD" fill-opacity="1.000000" fill-rule="nonzero"/>
		</g>
	</g>
	<g mask="url(#mask1_37947)">
		<g style="mix-blend-mode:normal">
			<path id="Path 35336" d="M59.86 71.35C60.48 71.45 61.07 71.05 61.2 70.44C61.61 68.62 62.63 67 64.1 65.84C65.55 64.72 67.32 64.12 69.15 64.11C69.78 64.08 70.26 63.54 70.23 62.91C70.19 62.28 69.65 61.79 69.02 61.83C64.2 61.93 60.02 65.3 58.95 70C58.84 70.62 59.24 71.22 59.86 71.35Z" fill="#FFFFFF" fill-opacity="1.000000" fill-rule="nonzero"/>
		</g>
	</g>
	<g mask="url(#mask1_37947)">
		<g style="mix-blend-mode:normal">
			<path id="Path 35337" d="M72.64 64.57C74.09 64.85 74.53 62.6 73.08 62.32C71.64 62.04 71.2 64.29 72.64 64.57Z" fill="#FFFFFF" fill-opacity="1.000000" fill-rule="nonzero"/>
		</g>
	</g>
	<g mask="url(#mask1_37947)">
		<g style="mix-blend-mode:normal">
			<path id="Path 35338" d="M23.88 107.92C21.76 106.45 21.24 103.55 22.71 101.44C22.93 101.12 23.19 100.82 23.49 100.57C23.94 100.14 23.81 99.33 23.38 98.95C22.9 98.55 22.19 98.6 21.77 99.06C18.99 101.67 18.85 106.04 21.46 108.83C21.74 109.12 22.04 109.39 22.37 109.64C22.85 110.04 23.56 109.99 23.98 109.52C24.39 109.05 24.34 108.34 23.88 107.92Z" fill="#FFFFFF" fill-opacity="1.000000" fill-rule="nonzero"/>
		</g>
	</g>
	<g mask="url(#mask1_37947)">
		<g style="mix-blend-mode:normal">
			<path id="Path 35339" d="M102.56 66.98C104.43 66.39 106.33 67.5 107.34 69.03C108.25 70.54 108.39 72.4 107.69 74.02C106.65 74.05 105.62 74.19 104.62 74.44C103.48 74.7 102.33 75.14 101.59 76.08C101.19 76.56 101.24 77.28 101.7 77.7C102.18 78.11 102.89 78.06 103.32 77.6C103.38 77.51 103.45 77.43 103.52 77.36C103.58 77.29 103.5 77.35 103.63 77.26C103.75 77.17 103.88 77.09 104.03 77.02C104.4 76.86 104.79 76.73 105.19 76.65C106.11 76.39 107.07 76.28 108.02 76.3C108.39 76.33 108.76 76.4 109.12 76.52C109.43 76.62 109.72 76.8 109.96 77.03C110.08 77.12 110.18 77.23 110.25 77.36C110.31 77.44 110.36 77.53 110.41 77.62C110.42 77.64 110.46 77.71 110.47 77.73C110.5 77.8 110.52 77.88 110.55 77.95C110.54 77.97 110.56 78.05 110.56 78.06C110.57 78.14 110.58 78.22 110.58 78.3C110.58 78.31 110.56 78.5 110.56 78.52C110.3 79.97 112.55 80.41 112.8 78.96C113.16 76.92 111.78 75.16 109.97 74.41C110.77 72.14 110.47 69.64 109.16 67.63C107.57 65.29 104.58 63.92 101.8 64.81C101.2 65.02 100.89 65.67 101.1 66.27C101.31 66.87 101.96 67.19 102.56 66.98Z" fill="#4EA7DD" fill-opacity="1.000000" fill-rule="nonzero"/>
		</g>
	</g>
	<g mask="url(#mask1_37947)">
		<g style="mix-blend-mode:normal">
			<path id="Path 35340" d="M139.8 92.16C139.68 92.78 140.08 93.38 140.7 93.5C141.32 93.62 141.92 93.22 142.04 92.6C142.98 88.52 142.32 84.25 140.19 80.65C139.83 80.13 139.12 79.99 138.6 80.34C138.07 80.7 137.93 81.41 138.29 81.93C140.09 85.02 140.63 88.68 139.8 92.16Z" fill="#FFFFFF" fill-opacity="1.000000" fill-rule="nonzero"/>
		</g>
	</g>
	<g mask="url(#mask1_37947)">
		<g style="mix-blend-mode:normal">
			<path id="Path 35341" d="M139.89 97.78C141.34 98.06 141.78 95.81 140.33 95.53C138.88 95.25 138.44 97.5 139.89 97.78Z" fill="#FFFFFF" fill-opacity="1.000000" fill-rule="nonzero"/>
		</g>
	</g>
	<g mask="url(#mask1_37947)">
		<g style="mix-blend-mode:normal">
			<path id="Path 35342" d="M61.42 92.74C60.98 92.25 60.44 91.86 59.83 91.6C59.41 90 60.02 88.34 60.82 86.89C61.18 86.2 61.62 85.56 62.15 84.99C62.39 84.71 62.67 84.48 62.99 84.29C63.09 84.21 63.2 84.15 63.32 84.11C63.53 84.02 63.75 83.95 63.97 83.9C64.57 83.77 64.85 82.98 64.67 82.45C64.45 81.86 63.81 81.55 63.21 81.74C61.14 82.22 59.75 84.11 58.78 85.87C57.9 87.49 57.31 89.32 57.46 91.15C57.43 91.14 57.39 91.14 57.35 91.15C55.9 91.28 54.57 92.04 53.71 93.23C53.37 93.72 53.3 94.43 53.82 94.84C54.25 95.19 55.07 95.26 55.43 94.74C55.58 94.52 55.75 94.32 55.94 94.13L56.08 94.02C56.18 93.94 56.29 93.87 56.41 93.8C56.38 93.82 56.49 93.75 56.54 93.73C56.66 93.67 56.82 93.61 56.95 93.57C57.01 93.54 57.07 93.53 57.12 93.51L57.25 93.48L57.52 93.45C57.65 93.44 57.77 93.44 57.88 93.43L58.08 93.47L58.49 93.55L58.62 93.58C58.75 93.63 58.94 93.7 59.06 93.76C59.13 93.8 59.2 93.85 59.27 93.88C59.49 94.05 59.71 94.25 59.9 94.46C60.38 94.87 61.1 94.83 61.52 94.35C61.92 93.88 61.88 93.17 61.42 92.74Z" fill="#4EA7DD" fill-opacity="1.000000" fill-rule="nonzero"/>
		</g>
	</g>
	<g mask="url(#mask1_37947)">
		<g style="mix-blend-mode:normal">
			<path id="Path 35343" d="" fill="#4EA7DD" fill-opacity="1.000000" fill-rule="nonzero"/>
		</g>
	</g>
	<g mask="url(#mask1_37947)">
		<g style="mix-blend-mode:normal">
			<path id="Path 35344" d="" fill="#4EA7DD" fill-opacity="1.000000" fill-rule="nonzero"/>
		</g>
	</g>
	<g mask="url(#mask1_37947)">
		<g style="mix-blend-mode:normal">
			<path id="Path 35345" d="M79.18 126.49C78.47 125.99 77.64 125.67 76.78 125.58L76.64 125.57C75.17 122.71 75.84 119.22 78.28 117.12C78.74 116.71 78.6 115.88 78.18 115.51C77.7 115.11 76.99 115.15 76.56 115.61C75.03 117 74.01 118.87 73.68 120.92C73.44 122.53 73.62 124.18 74.22 125.7C72.66 125.97 71.01 126.4 70.51 128.1C70.38 128.72 70.79 129.32 71.41 129.44C72.02 129.55 72.61 129.15 72.75 128.55C72.75 128.54 72.87 128.45 72.85 128.47L73.04 128.34L73.2 128.28C73.43 128.19 73.67 128.12 73.9 128.06L74.11 128.02L74.62 127.93C74.93 127.88 75.24 127.85 75.55 127.83C75.7 127.81 75.85 127.81 76.01 127.81C76.08 127.82 76.16 127.81 76.24 127.81C76.54 127.85 76.85 127.93 77.15 127.99L77.4 128.08C77.47 128.11 77.53 128.14 77.6 128.18C78.09 128.52 78.88 128.64 79.3 128.12C79.64 127.68 79.71 126.85 79.18 126.49Z" fill="#4EA7DD" fill-opacity="1.000000" fill-rule="nonzero"/>
		</g>
	</g>
	<g mask="url(#mask1_37947)">
		<g style="mix-blend-mode:normal">
			<path id="Path 35346" d="M135.01 127.06C134.38 127.11 133.91 127.66 133.95 128.29C134.41 132.59 132.35 136.76 128.67 139.03C128.15 139.39 128.03 140.1 128.39 140.62C128.75 141.12 129.43 141.25 129.95 140.92C134.31 138.2 136.75 133.23 136.24 128.11C136.18 127.49 135.64 127.02 135.01 127.06Z" fill="#FFFFFF" fill-opacity="1.000000" fill-rule="nonzero"/>
		</g>
	</g>
	<g mask="url(#mask1_37947)">
		<g style="mix-blend-mode:normal">
			<path id="Path 35347" d="M125.53 139.91C124.08 139.63 123.64 141.88 125.09 142.16C126.54 142.44 126.97 140.19 125.53 139.91Z" fill="#FFFFFF" fill-opacity="1.000000" fill-rule="nonzero"/>
		</g>
	</g>
	<g mask="url(#mask1_37947)">
		<g style="mix-blend-mode:normal">
			<path id="Path 35348" d="M51.63 43.29C51.18 42.93 50.38 42.87 50.01 43.39C49.01 44.78 48.27 46.32 47.81 47.96C47.69 48.58 48.09 49.18 48.71 49.31C49.33 49.42 49.93 49.02 50.07 48.4C50.1 48.22 50.17 48.05 50.22 47.87C50.24 47.78 50.3 47.65 50.33 47.56C50.46 47.23 50.6 46.91 50.75 46.59C50.91 46.27 51.07 45.95 51.26 45.63C51.35 45.47 51.45 45.31 51.55 45.16C51.61 45.08 51.67 44.97 51.73 44.88C51.93 44.65 52.03 44.35 52.02 44.04C51.98 43.75 51.84 43.48 51.63 43.29Z" fill="#FFFFFF" fill-opacity="1.000000" fill-rule="nonzero"/>
		</g>
	</g>
	<g mask="url(#mask1_37947)">
		<g style="mix-blend-mode:normal">
			<path id="Path 35349" d="M52.97 40.69C51.53 40.41 51.09 42.66 52.54 42.94C53.98 43.22 54.43 40.98 52.97 40.69Z" fill="#FFFFFF" fill-opacity="1.000000" fill-rule="nonzero"/>
		</g>
	</g>
	<g mask="url(#mask1_37947)">
		<g style="mix-blend-mode:normal">
			<path id="Path 35350" d="M102.95 24.67C100.87 24.07 98.69 23.91 96.55 24.21C95.92 24.22 95.42 24.74 95.43 25.37C95.44 26 95.96 26.5 96.59 26.49C96.64 26.49 96.68 26.49 96.73 26.48C97.24 26.41 97.76 26.36 98.28 26.34C98.51 26.34 98.73 26.34 98.96 26.34C99.11 26.34 99.26 26.35 99.41 26.35L99.54 26.38C100.55 26.47 101.54 26.65 102.51 26.93C103.13 27.05 103.73 26.64 103.85 26.02C103.96 25.4 103.56 24.81 102.95 24.67Z" fill="#FFFFFF" fill-opacity="1.000000" fill-rule="nonzero"/>
		</g>
	</g>
	<g mask="url(#mask1_37947)">
		<g style="mix-blend-mode:normal">
			<path id="Path 35351" d="M106.82 26.19C105.37 25.91 104.93 28.15 106.38 28.44C107.83 28.72 108.27 26.47 106.82 26.19Z" fill="#FFFFFF" fill-opacity="1.000000" fill-rule="nonzero"/>
		</g>
	</g>
	<g mask="url(#mask1_37947)">
		<g style="mix-blend-mode:normal">
			<path id="Path 35352" d="M122.6 44.62C122.42 44.37 122.16 44.2 121.87 44.13C121.57 44.07 121.26 44.14 121.01 44.31C120.76 44.48 120.58 44.74 120.52 45.04C120.45 45.34 120.52 45.65 120.7 45.9C121.55 46.89 122.28 47.97 122.86 49.14C122.97 49.39 123.16 49.59 123.4 49.72C123.96 50 124.65 49.78 124.93 49.21C125.07 48.93 125.09 48.61 124.99 48.32C124.35 46.99 123.55 45.74 122.6 44.62Z" fill="#FFFFFF" fill-opacity="1.000000" fill-rule="nonzero"/>
		</g>
	</g>
	<g mask="url(#mask1_37947)">
		<g style="mix-blend-mode:normal">
			<path id="Path 35353" d="M125.79 50.82C124.35 50.54 123.91 52.79 125.36 53.07C126.81 53.35 127.24 51.1 125.79 50.82Z" fill="#FFFFFF" fill-opacity="1.000000" fill-rule="nonzero"/>
		</g>
	</g>
	<g mask="url(#mask1_37947)">
		<g style="mix-blend-mode:normal">
			<path id="Path 35354" d="M94.25 49.11C91.47 49.4 88.85 50.58 86.79 52.48C86.38 52.96 86.42 53.68 86.89 54.09C87.37 54.5 88.08 54.45 88.51 53.99L88.63 53.89C88.74 53.79 88.94 53.63 89.06 53.54C89.28 53.37 89.52 53.2 89.76 53.04C90.01 52.88 90.27 52.72 90.55 52.58C90.62 52.54 90.69 52.5 90.76 52.47L91.18 52.27C91.72 52.03 92.28 51.84 92.85 51.68C92.98 51.64 93.12 51.61 93.26 51.58L93.49 51.53C93.8 51.48 94.12 51.43 94.43 51.4C95.06 51.34 95.52 50.78 95.46 50.15C95.4 49.54 94.86 49.08 94.25 49.11Z" fill="#FFFFFF" fill-opacity="1.000000" fill-rule="nonzero"/>
		</g>
	</g>
	<g mask="url(#mask1_37947)">
		<g style="mix-blend-mode:normal">
			<path id="Path 35355" d="M85.44 54.66C84 54.38 83.56 56.62 85.01 56.9C86.46 57.19 86.89 54.94 85.44 54.66Z" fill="#FFFFFF" fill-opacity="1.000000" fill-rule="nonzero"/>
		</g>
	</g>
	<g mask="url(#mask1_37947)">
		<g style="mix-blend-mode:normal">
			<path id="Path 35356" d="M144.62 56C144.66 56.08 144.7 56.16 144.74 56.24C144.82 56.41 144.89 56.57 144.96 56.74C145.09 57.07 145.21 57.41 145.32 57.75C145.37 57.93 145.41 58.1 145.46 58.27C145.48 58.35 145.49 58.43 145.51 58.51C145.58 58.87 145.64 59.28 145.67 59.64C145.72 60.27 146.27 60.74 146.9 60.69C147.53 60.64 148 60.09 147.95 59.46C147.79 57.79 147.29 56.16 146.49 54.68C146.33 54.43 146.06 54.25 145.77 54.19C145.47 54.14 145.16 54.2 144.91 54.37C144.65 54.54 144.47 54.8 144.41 55.1C144.37 55.4 144.47 55.75 144.62 56Z" fill="#FFFFFF" fill-opacity="1.000000" fill-rule="nonzero"/>
		</g>
	</g>
	<g mask="url(#mask1_37947)">
		<g style="mix-blend-mode:normal">
			<path id="Path 35357" d="M146.83 61.96C146.76 62.03 146.69 62.09 146.61 62.16C146.48 62.31 146.39 62.5 146.35 62.69L146.33 62.82C146.29 62.97 146.29 63.13 146.34 63.28C146.36 63.42 146.41 63.56 146.5 63.68C146.67 63.93 146.93 64.1 147.23 64.17L147.53 64.19C147.73 64.18 147.92 64.11 148.09 64L148.31 63.81C148.44 63.65 148.53 63.47 148.57 63.27L148.6 63.14C148.63 62.99 148.63 62.83 148.58 62.69C148.56 62.54 148.51 62.4 148.42 62.28C148.34 62.16 148.23 62.05 148.1 61.98C147.98 61.88 147.84 61.82 147.69 61.8L147.38 61.78C147.19 61.79 147 61.86 146.83 61.96Z" fill="#FFFFFF" fill-opacity="1.000000" fill-rule="nonzero"/>
		</g>
	</g>
	<g mask="url(#mask1_37947)">
		<g style="mix-blend-mode:normal">
			<path id="Path 35358" d="M147.25 67.52C148.69 67.8 149.13 65.56 147.68 65.28C146.24 65 145.8 67.24 147.25 67.52Z" fill="#FFFFFF" fill-opacity="1.000000" fill-rule="nonzero"/>
		</g>
	</g>
	<g mask="url(#mask1_37947)">
		<g style="mix-blend-mode:normal">
			<path id="Path 35359" d="M136.14 60.33C136.22 60.45 136.33 60.56 136.46 60.63C136.58 60.72 136.72 60.79 136.87 60.81L137.18 60.83C137.38 60.81 137.57 60.74 137.73 60.63C137.81 60.57 137.88 60.5 137.95 60.44C138.09 60.29 138.18 60.1 138.21 59.9L138.24 59.78C138.28 59.63 138.27 59.47 138.23 59.32C138.13 58.88 137.78 58.54 137.34 58.45L137.04 58.43C136.84 58.44 136.65 58.51 136.48 58.62L136.26 58.81C136.13 58.97 136.04 59.15 136 59.35L135.98 59.46C135.95 59.61 135.95 59.77 135.99 59.91C136.01 60.06 136.06 60.2 136.14 60.33Z" fill="#FFFFFF" fill-opacity="1.000000" fill-rule="nonzero"/>
		</g>
	</g>
	<g mask="url(#mask1_37947)">
		<g style="mix-blend-mode:normal">
			<path id="Path 35360" d="M67.67 36.37C67.59 36.25 67.48 36.14 67.35 36.07C67.23 35.98 67.09 35.91 66.94 35.89L66.63 35.87C66.44 35.89 66.25 35.95 66.08 36.06C66.01 36.13 65.93 36.19 65.86 36.26C65.73 36.41 65.64 36.59 65.6 36.79L65.57 36.92C65.53 37.22 65.59 37.53 65.76 37.78C65.83 37.91 65.94 38.02 66.07 38.09C66.19 38.18 66.34 38.25 66.49 38.27L66.8 38.29C66.99 38.27 67.18 38.2 67.35 38.09L67.57 37.9C67.7 37.75 67.79 37.56 67.83 37.36L67.86 37.23C67.89 37.08 67.89 36.93 67.84 36.78C67.82 36.63 67.76 36.49 67.67 36.37Z" fill="#FFFFFF" fill-opacity="1.000000" fill-rule="nonzero"/>
		</g>
	</g>
	<g mask="url(#mask1_37947)">
		<g style="mix-blend-mode:normal">
			<path id="Path 35361" d="M91.69 34.26C90.25 33.98 89.81 36.22 91.25 36.5C92.7 36.78 93.14 34.54 91.69 34.26Z" fill="#FFFFFF" fill-opacity="1.000000" fill-rule="nonzero"/>
		</g>
	</g>
	<g mask="url(#mask1_37947)">
		<g style="mix-blend-mode:normal">
			<path id="Path 35362" d="M81.28 22.21C82.72 22.49 83.16 20.25 81.72 19.97C80.27 19.68 79.83 21.93 81.28 22.21Z" fill="#FFFFFF" fill-opacity="1.000000" fill-rule="nonzero"/>
		</g>
	</g>
	<g mask="url(#mask1_37947)">
		<g style="mix-blend-mode:normal">
			<path id="Path 35363" d="M93.64 80.87C95.09 81.15 95.52 78.9 94.08 78.62C92.63 78.34 92.19 80.58 93.64 80.87Z" fill="#FFFFFF" fill-opacity="1.000000" fill-rule="nonzero"/>
		</g>
	</g>
	<g mask="url(#mask1_37947)">
		<g style="mix-blend-mode:normal">
			<path id="Path 35364" d="M133.89 113.48C132.45 113.2 132.01 115.44 133.46 115.72C134.9 116.01 135.33 113.76 133.89 113.48Z" fill="#FFFFFF" fill-opacity="1.000000" fill-rule="nonzero"/>
		</g>
	</g>
	<g mask="url(#mask1_37947)">
		<g style="mix-blend-mode:normal">
			<path id="Path 35365" d="M52.43 111.13C52.37 110.99 52.28 110.87 52.17 110.77L51.92 110.61C51.74 110.52 51.53 110.48 51.32 110.49L51.03 110.55C50.85 110.62 50.68 110.73 50.55 110.88C50.49 110.96 50.43 111.03 50.37 111.11C50.06 111.46 50 111.96 50.22 112.38C50.27 112.51 50.36 112.63 50.48 112.73L50.72 112.89C50.91 112.98 51.11 113.02 51.32 113.01L51.61 112.95C51.8 112.88 51.96 112.77 52.09 112.62L52.27 112.39C52.58 112.04 52.65 111.54 52.43 111.13Z" fill="#FFFFFF" fill-opacity="1.000000" fill-rule="nonzero"/>
		</g>
	</g>
	<g mask="url(#mask1_37947)">
		<g style="mix-blend-mode:normal">
			<path id="Path 35366" d="M26.94 55.08L29.47 49.12L35.93 48.86C36.31 48.85 36.62 48.54 36.61 48.15C36.6 47.88 36.43 47.63 36.17 47.53L30.21 44.99L29.96 38.53C29.96 38.15 29.64 37.85 29.26 37.85C28.98 37.85 28.74 38.02 28.63 38.28L26.09 44.24L19.64 44.49C19.25 44.5 18.95 44.81 18.95 45.19C18.95 45.47 19.12 45.72 19.38 45.82L25.34 48.36L25.59 54.82C25.57 55.2 25.87 55.52 26.25 55.54C26.56 55.56 26.84 55.37 26.94 55.08Z" fill="#FCD100" fill-opacity="1.000000" fill-rule="nonzero"/>
		</g>
	</g>
	<g mask="url(#mask1_37947)">
		<g style="mix-blend-mode:normal">
			<path id="Path 35367" d="M168.63 87.86L162.67 85.33L162.42 78.87C162.41 78.49 162.1 78.18 161.72 78.18C161.44 78.19 161.19 78.35 161.09 78.61L158.55 84.57L152.09 84.83C151.71 84.83 151.41 85.15 151.42 85.53C151.42 85.81 151.59 86.06 151.85 86.16L157.81 88.71L158.06 95.16C158.07 95.54 158.38 95.85 158.76 95.85C159.04 95.85 159.29 95.68 159.39 95.42L161.93 89.46L168.39 89.21C168.77 89.21 169.09 88.91 169.09 88.53C169.1 88.23 168.92 87.96 168.63 87.86Z" fill="#FCD100" fill-opacity="1.000000" fill-rule="nonzero"/>
		</g>
	</g>
	<g mask="url(#mask1_37947)">
		<g style="mix-blend-mode:normal">
			<path id="Path 35368" d="M50.12 146.29L46.45 144.73L46.3 140.76C46.29 140.53 46.1 140.34 45.87 140.34C45.7 140.34 45.54 140.44 45.48 140.6L43.92 144.27L39.94 144.43C39.71 144.44 39.52 144.64 39.53 144.87C39.54 145.03 39.64 145.18 39.78 145.24L43.45 146.81L43.61 150.78C43.62 151.02 43.82 151.2 44.06 151.19C44.22 151.18 44.36 151.08 44.43 150.94L45.99 147.25L49.97 147.09C50.2 147.07 50.37 146.86 50.35 146.63C50.34 146.49 50.25 146.36 50.12 146.29Z" fill="#FCD100" fill-opacity="1.000000" fill-rule="nonzero"/>
		</g>
	</g>
</svg>
