<svg width="121.487793" height="163.068848" viewBox="0 0 121.488 163.069" fill="none" xmlns="http://www.w3.org/2000/svg" xmlns:xlink="http://www.w3.org/1999/xlink">
	<desc>
			Created with Pixso.
	</desc>
	<defs/>
	<mask id="mask1_36025" mask-type="alpha" maskUnits="userSpaceOnUse" x="0.000000" y="0.000000" width="121.487793" height="163.068848">
		<g style="mix-blend-mode:normal">
			<rect id="Rectangle 3785" x="23.366211" width="99.344826" height="149.366837" transform="rotate(9 23.366211 0.000000)" fill="#C4C4C4" fill-opacity="1.000000"/>
		</g>
	</mask>
	<g mask="url(#mask1_36025)">
		<g style="mix-blend-mode:normal">
			<path id="Path 34738" d="M23.54 139.78L19.25 144.84L8.07 133.78C8.83 127.35 9.59 120.9 10.34 114.49C10.94 109.35 11.53 104.23 12.12 99.21C17.17 55.94 21.42 18.96 21.42 18.96C33.01 9.13 37.53 6.24 37.53 6.24L39.24 9.19L27 110.97L25.17 126.22L23.54 139.78Z" fill="#A0483C" fill-opacity="1.000000" fill-rule="nonzero"/>
		</g>
	</g>
	<g mask="url(#mask1_36025)">
		<g style="mix-blend-mode:normal">
			<path id="Path 34739" d="M25.17 126.22L10.34 114.49C10.94 109.35 11.53 104.23 12.12 99.21L27 110.97L25.17 126.22Z" fill="#F4B251" fill-opacity="1.000000" fill-rule="nonzero"/>
		</g>
	</g>
	<g mask="url(#mask1_36025)">
		<g style="mix-blend-mode:normal">
			<path id="Path 34740" d="M37.54 6.24C37.54 6.24 24.99 82.59 19.25 144.84C19.25 144.84 32.09 150.98 55.4 155.12C78.71 159.26 90.55 158.02 90.55 158.02C90.55 158.02 111.35 85.93 119.84 16.62C119.84 16.62 69.49 7.29 37.54 6.24Z" fill="#F4B251" fill-opacity="1.000000" fill-rule="nonzero"/>
		</g>
	</g>
	<g mask="url(#mask1_36025)">
		<g style="mix-blend-mode:normal">
			<path id="Path 34741" d="M61.09 148.4C59.65 148.17 58.18 147.92 56.7 147.66C42.49 145.14 32.29 141.83 26.84 139.79C31.65 90.37 40.4 33.31 43.45 14.09C61.14 15.16 82.79 18.2 98.63 20.71C103.91 21.54 108.47 22.31 111.89 22.9C104.52 77.87 89.93 133.53 85.25 150.63C80.57 150.6 72.47 150.2 61.09 148.4Z" fill="#1CD16E" fill-opacity="1.000000" fill-rule="nonzero"/>
		</g>
	</g>
	<g mask="url(#mask1_36025)">
		<g style="mix-blend-mode:normal">
			<path id="Path 34742" d="M65.52 33.46C56.72 36.1 47.68 48.73 51.59 64.35C55.5 79.98 73.88 81.72 82.34 76.22C92.88 69.37 94.67 54.55 90.51 44.97C86.17 34.98 76.01 30.31 65.52 33.46Z" fill="#A0483C" fill-opacity="1.000000" fill-rule="nonzero"/>
		</g>
	</g>
	<g mask="url(#mask1_36025)">
		<g style="mix-blend-mode:normal">
			<path id="Path 34743" d="M50.9 24.99C49.25 25.48 47.55 27.86 48.28 30.79C48.99 33.61 52.47 34.06 54.06 33.02C56.04 31.73 56.38 28.95 55.59 27.15C54.81 25.34 52.87 24.39 50.9 24.99Z" fill="#F4B251" fill-opacity="1.000000" fill-rule="nonzero"/>
		</g>
	</g>
	<g mask="url(#mask1_36025)">
		<g style="mix-blend-mode:normal">
			<path id="Path 34744" d="M97.97 32.44C96.31 32.94 94.61 35.31 95.35 38.25C96.05 41.07 99.54 41.51 101.13 40.48C103.11 39.19 103.45 36.4 102.66 34.6C101.85 32.72 99.94 31.85 97.97 32.44Z" fill="#F4B251" fill-opacity="1.000000" fill-rule="nonzero"/>
		</g>
	</g>
	<g mask="url(#mask1_36025)">
		<g style="mix-blend-mode:normal">
			<path id="Path 34745" d="M43.31 72.89C41.66 73.39 39.96 75.76 40.69 78.7C41.4 81.52 44.88 81.96 46.47 80.93C48.45 79.64 48.79 76.85 48.01 75.05C47.23 73.25 45.28 72.3 43.31 72.89Z" fill="#F4B251" fill-opacity="1.000000" fill-rule="nonzero"/>
		</g>
	</g>
	<g mask="url(#mask1_36025)">
		<g style="mix-blend-mode:normal">
			<path id="Path 34746" d="M90.38 80.35C88.73 80.84 87.03 83.22 87.76 86.15C88.47 88.97 91.95 89.42 93.54 88.38C95.52 87.09 95.86 84.31 95.07 82.51C94.26 80.63 92.35 79.75 90.38 80.35Z" fill="#F4B251" fill-opacity="1.000000" fill-rule="nonzero"/>
		</g>
	</g>
	<g mask="url(#mask1_36025)">
		<g style="mix-blend-mode:normal">
			<path id="Path 34747" d="M43.62 129.64C41.96 130.14 40.26 132.51 41 135.45C41.7 138.27 45.19 138.71 46.78 137.68C48.76 136.39 49.09 133.61 48.31 131.8C47.53 130 45.59 129.05 43.62 129.64Z" fill="#F4B251" fill-opacity="1.000000" fill-rule="nonzero"/>
		</g>
	</g>
	<g mask="url(#mask1_36025)">
		<g style="mix-blend-mode:normal">
			<path id="Path 34748" d="M72.54 134.22C70.89 134.72 69.19 137.09 69.92 140.03C70.63 142.85 74.11 143.29 75.7 142.26C77.68 140.97 78.02 138.19 77.24 136.39C76.46 134.58 74.51 133.63 72.54 134.22Z" fill="#F4B251" fill-opacity="1.000000" fill-rule="nonzero"/>
		</g>
	</g>
	<g mask="url(#mask1_36025)">
		<g style="mix-blend-mode:normal">
			<path id="Path 34749" d="M58.09 133.02C56.44 133.51 54.74 135.89 55.48 138.82C56.18 141.64 59.66 142.08 61.25 141.05C63.23 139.76 63.57 136.98 62.79 135.17C61.97 133.3 60.07 132.42 58.09 133.02Z" fill="#F4B251" fill-opacity="1.000000" fill-rule="nonzero"/>
		</g>
	</g>
	<g mask="url(#mask1_36025)">
		<g style="mix-blend-mode:normal">
			<path id="Path 34750" d="M69.13 72.25C66.23 71.79 59.46 69.56 57.43 62.57C55.4 55.59 57.38 50.17 59.14 46.93C61.09 43.32 64.12 40.53 67.05 39.65C69.48 38.92 71.88 38.74 74.18 39.1C79.01 39.87 82.96 43.02 85.02 47.77C87.75 54.06 87.28 65.54 79.28 70.74C76.93 72.26 72.95 72.86 69.13 72.25Z" fill="#F4B251" fill-opacity="1.000000" fill-rule="nonzero"/>
		</g>
	</g>
	<g mask="url(#mask1_36025)">
		<g style="mix-blend-mode:normal">
			<path id="Path 34751" d="M58.25 90.95C51.1 93.09 43.76 103.35 46.93 116.03C49.98 128.2 65.03 130.12 71.89 125.66C80.45 120.1 81.91 108.07 78.53 100.29C75.01 92.18 66.76 88.39 58.25 90.95Z" fill="#A0483C" fill-opacity="1.000000" fill-rule="nonzero"/>
		</g>
	</g>
	<g mask="url(#mask1_36025)">
		<g style="mix-blend-mode:normal">
			<path id="Path 34752" d="M61.36 121.24C59.22 120.9 54.1 119.54 52.77 114.25C51.44 108.92 52.73 104.9 54.04 102.47C55.76 99.29 58.13 97.63 59.77 97.14C61.58 96.6 63.37 96.46 65.08 96.73C68.62 97.29 71.52 99.61 73.04 103.09C75.07 107.79 74.75 116.34 68.83 120.18C67.45 121.08 64.6 121.75 61.36 121.24Z" fill="#F4B251" fill-opacity="1.000000" fill-rule="nonzero"/>
		</g>
	</g>
	<g mask="url(#mask1_36025)">
		<g style="mix-blend-mode:normal">
			<path id="Path 34753" d="M120.88 16.75C120.95 16.16 120.58 15.62 120.03 15.52C119.53 15.43 69.25 6.17 37.59 5.12C37.54 5.12 37.5 5.13 37.46 5.13C37.32 5.15 37.13 5.2 37.02 5.28C36.83 5.4 32.29 8.32 20.78 18.08C20.56 18.27 20.41 18.54 20.38 18.84C20.33 19.21 16.07 56.31 11.08 99.09C10.49 104.11 9.89 109.23 9.29 114.37L7.03 133.66C6.99 134.01 7.11 134.36 7.35 134.6L18.52 145.67C18.55 145.69 18.62 145.75 18.65 145.77C18.68 145.8 18.75 145.84 18.79 145.86C18.92 145.92 32.03 152.11 55.2 156.22C56.79 156.5 58.31 156.76 59.79 156.99C79.94 160.19 90.17 159.18 90.63 159.13C91.06 159.09 91.42 158.77 91.55 158.33C91.75 157.61 112.48 85.35 120.88 16.75ZM11.45 113.97C11.95 109.7 12.45 105.45 12.94 101.26L22.07 108.48C21.57 112.72 21.08 116.97 20.61 121.2L11.45 113.97ZM22.41 19.54C29.43 13.59 33.81 10.25 36.09 8.58C34.39 19.17 27.69 61.65 22.37 105.9L13.24 98.69C17.9 58.76 21.9 23.93 22.41 19.54ZM11.15 116.55L20.32 123.8C19.63 130.1 18.99 136.35 18.41 142.47L9.18 133.33L11.15 116.55ZM89.75 156.96C86.89 157.14 75.36 157.52 55.59 154.02C35.64 150.48 23.29 145.41 20.37 144.12C25.71 86.57 36.94 16.48 38.41 7.39C67.51 8.49 111.59 16.27 118.66 17.55C110.67 81.88 91.97 149.13 89.75 156.96ZM112.08 21.8C107.74 21.05 103.27 20.31 98.81 19.6C83.49 17.17 61.47 14.06 43.53 12.98C42.98 12.94 42.5 13.36 42.41 13.93C38.99 35.51 30.54 90.98 25.79 139.7C25.74 140.21 26.02 140.68 26.47 140.85C32.5 143.1 42.6 146.3 56.51 148.77C57.99 149.03 59.47 149.28 60.92 149.51C72.28 151.31 80.4 151.72 85.22 151.75C85.7 151.75 86.12 151.41 86.25 150.92C90.64 134.92 105.51 78.39 112.93 23.04C113.01 22.44 112.63 21.89 112.08 21.8ZM84.47 149.5C79.64 149.43 71.89 148.98 61.27 147.3C59.84 147.07 58.37 146.82 56.9 146.56C43.7 144.22 33.99 141.22 27.97 139.02C32.65 91.32 40.83 37.38 44.32 15.27C62.01 16.4 83.45 19.44 98.46 21.82C102.57 22.47 106.69 23.15 110.7 23.84C103.38 77.78 89.08 132.59 84.47 149.5ZM50.58 64.66C52.13 70.86 56.32 75.65 62.38 78.17C64.15 78.91 66.03 79.42 67.94 79.73C73.36 80.58 78.98 79.7 82.87 77.18C93.85 70.05 95.88 54.65 91.47 44.48C89.23 39.34 85.53 35.46 80.76 33.26C76 31.07 70.64 30.77 65.26 32.38C60.5 33.81 55.92 37.88 53.01 43.26C49.58 49.61 48.71 57.21 50.58 64.66ZM54.82 44.35C57.46 39.47 61.56 35.8 65.79 34.54C75.85 31.52 85.4 35.9 89.55 45.46C93.59 54.75 91.78 68.79 81.81 75.27C77.08 78.34 69.42 78.67 63.18 76.08C59.33 74.48 54.37 71.1 52.61 64.04C50.89 57.17 51.67 50.17 54.82 44.35ZM49.98 34.24C50.38 34.4 50.79 34.52 51.21 34.58C52.43 34.78 53.68 34.57 54.59 33.98C57.07 32.37 57.53 28.93 56.55 26.66C55.52 24.3 53.09 23.17 50.63 23.91C49.53 24.24 48.47 25.17 47.81 26.38C47.05 27.79 46.85 29.47 47.26 31.1C47.63 32.54 48.59 33.66 49.98 34.24ZM49.62 27.48C50 26.78 50.59 26.23 51.16 26.06C51.64 25.92 52.11 25.89 52.54 25.96C53.46 26.1 54.23 26.7 54.64 27.64C55.17 28.85 55.07 31.07 53.52 32.07C52.97 32.43 51.82 32.58 50.78 32.15C50.24 31.92 49.54 31.45 49.3 30.48C48.96 29.13 49.29 28.1 49.62 27.48ZM97.7 31.37C96.59 31.7 95.54 32.62 94.87 33.84C94.11 35.25 93.92 36.92 94.33 38.56C94.69 40 95.66 41.12 97.05 41.69C97.44 41.86 97.86 41.97 98.28 42.04C99.49 42.23 100.75 42.02 101.66 41.43C104.13 39.83 104.6 36.39 103.62 34.12C102.59 31.76 100.16 30.63 97.7 31.37ZM100.59 39.53C100.04 39.89 98.89 40.04 97.85 39.61C97.3 39.38 96.61 38.91 96.36 37.94C96.02 36.58 96.36 35.56 96.69 34.93C97.07 34.23 97.66 33.69 98.23 33.52C98.71 33.38 99.17 33.35 99.61 33.42C100.52 33.56 101.3 34.15 101.71 35.09C102.23 36.31 102.14 38.52 100.59 39.53ZM48.96 74.57C47.94 72.21 45.51 71.08 43.05 71.81C41.94 72.15 40.88 73.07 40.22 74.29C39.46 75.7 39.27 77.37 39.68 79.01C40.04 80.45 41 81.57 42.4 82.14C42.79 82.31 43.21 82.42 43.63 82.49C44.84 82.68 46.1 82.47 47 81.88C49.48 80.28 49.95 76.84 48.96 74.57ZM45.94 79.98C45.39 80.34 44.23 80.49 43.2 80.06C42.65 79.83 41.95 79.36 41.71 78.39C41.37 77.03 41.7 76 42.04 75.38C42.42 74.68 43.01 74.14 43.58 73.97C44.05 73.83 44.52 73.8 44.95 73.87C45.87 74.01 46.64 74.6 47.05 75.54C47.58 76.76 47.49 78.97 45.94 79.98ZM90.11 79.27C89.01 79.6 87.95 80.53 87.29 81.75C86.53 83.15 86.33 84.83 86.75 86.46C87.11 87.91 88.07 89.02 89.46 89.6C89.86 89.76 90.27 89.88 90.69 89.94C91.91 90.14 93.16 89.93 94.07 89.34C96.55 87.73 97.01 84.29 96.03 82.02C95 79.66 92.57 78.53 90.11 79.27ZM93.01 87.43C92.45 87.79 91.3 87.94 90.26 87.51C89.72 87.29 89.02 86.81 88.78 85.85C88.44 84.49 88.77 83.46 89.11 82.84C89.48 82.14 90.08 81.6 90.65 81.43C91.12 81.28 91.59 81.25 92.02 81.32C92.94 81.47 93.71 82.06 94.12 83C94.65 84.21 94.55 86.43 93.01 87.43ZM43.35 128.57C42.24 128.9 41.19 129.83 40.53 131.05C39.77 132.45 39.57 134.13 39.98 135.76C40.34 137.2 41.31 138.32 42.7 138.9C43.09 139.06 43.51 139.18 43.93 139.24C45.15 139.44 46.4 139.23 47.31 138.64C49.78 137.03 50.25 133.59 49.27 131.32C48.24 128.96 45.81 127.83 43.35 128.57ZM46.24 136.73C45.69 137.09 44.54 137.24 43.5 136.81C42.96 136.59 42.26 136.11 42.02 135.14C41.68 133.79 42.01 132.76 42.34 132.14C42.72 131.44 43.31 130.89 43.88 130.73C44.36 130.58 44.83 130.55 45.26 130.62C46.17 130.76 46.95 131.36 47.36 132.3C47.89 133.51 47.79 135.73 46.24 136.73ZM72.28 133.15C71.17 133.48 70.11 134.41 69.45 135.63C68.69 137.03 68.5 138.71 68.91 140.34C69.27 141.79 70.24 142.9 71.63 143.48C72.02 143.64 72.44 143.76 72.86 143.83C74.07 144.02 75.33 143.81 76.24 143.22C78.71 141.61 79.18 138.17 78.19 135.9C77.17 133.54 74.74 132.41 72.28 133.15ZM75.17 141.31C74.62 141.67 73.47 141.82 72.43 141.39C71.88 141.17 71.19 140.69 70.94 139.73C70.6 138.37 70.94 137.34 71.27 136.72C71.65 136.02 72.24 135.48 72.81 135.31C73.29 135.16 73.75 135.13 74.18 135.2C75.1 135.35 75.88 135.94 76.29 136.88C76.81 138.09 76.72 140.31 75.17 141.31ZM57.83 131.94C56.72 132.28 55.67 133.2 55.01 134.42C54.24 135.83 54.05 137.5 54.46 139.14C54.82 140.58 55.79 141.69 57.18 142.27C57.57 142.44 57.99 142.55 58.41 142.62C59.63 142.81 60.88 142.6 61.79 142.01C64.26 140.41 64.73 136.97 63.75 134.7C62.72 132.34 60.29 131.21 57.83 131.94ZM60.72 140.11C60.17 140.47 59.02 140.62 57.98 140.19C57.43 139.96 56.74 139.49 56.49 138.52C56.15 137.16 56.49 136.13 56.82 135.51C57.2 134.81 57.79 134.27 58.36 134.1C58.84 133.96 59.3 133.92 59.74 133.99C60.65 134.14 61.43 134.73 61.84 135.67C62.36 136.89 62.27 139.1 60.72 140.11ZM68.96 73.37C73 74.01 77.26 73.35 79.81 71.7C88.34 66.16 88.87 53.96 85.97 47.29C83.76 42.21 79.53 38.82 74.36 38C71.9 37.62 69.36 37.81 66.79 38.58C63.6 39.54 60.32 42.53 58.23 46.39C55.38 51.66 54.77 57.23 56.43 62.93C58.32 69.47 64.36 72.64 68.96 73.37ZM60.05 47.48C61.87 44.12 64.65 41.54 67.32 40.74C69.6 40.05 71.85 39.88 74.01 40.22C78.49 40.93 82.15 43.86 84.06 48.27C86.63 54.17 86.21 64.95 78.74 69.79C76.63 71.16 72.84 71.71 69.31 71.15C68.42 71.01 60.57 69.57 58.44 62.23C56.97 57.15 57.51 52.18 60.05 47.48ZM72.43 126.62C81.44 120.77 83.11 108.15 79.49 99.81C77.65 95.59 74.61 92.4 70.7 90.6C66.79 88.8 62.4 88.55 57.98 89.88C54.07 91.05 50.31 94.39 47.92 98.81C45.1 104.01 44.39 110.24 45.92 116.35C47.2 121.44 50.64 125.38 55.62 127.45C57.07 128.05 58.61 128.47 60.17 128.72C64.61 129.42 69.23 128.7 72.43 126.62ZM56.42 125.36C53.34 124.08 49.37 121.37 47.95 115.73C46.57 110.2 47.2 104.57 49.73 99.89C51.85 95.98 55.13 93.04 58.52 92.03C66.59 89.61 74.25 93.13 77.58 100.78C80.82 108.25 79.37 119.52 71.37 124.71C67.64 127.14 61.35 127.41 56.42 125.36ZM74 102.61C72.34 98.79 69.15 96.24 65.26 95.63C63.4 95.33 61.47 95.48 59.51 96.07C57.67 96.63 55.02 98.46 53.14 101.94C51.73 104.55 50.34 108.86 51.77 114.56C53.25 120.48 58.85 121.98 61.19 122.36C64.93 122.95 67.93 122.07 69.36 121.14C75.82 116.95 76.2 107.69 74 102.61ZM68.3 119.24C67.12 120 64.51 120.61 61.54 120.14C59.6 119.83 54.97 118.61 53.8 113.95C52.55 108.98 53.74 105.27 54.96 103.02C56.51 100.14 58.6 98.66 60.04 98.23C61.71 97.73 63.35 97.6 64.91 97.84C68.1 98.35 70.72 100.44 72.09 103.59C73.96 107.9 73.68 115.74 68.3 119.24Z" fill="#000000" fill-opacity="1.000000" fill-rule="nonzero"/>
		</g>
	</g>
</svg>
