<svg width="277.912109" height="176.772461" viewBox="0 0 277.912 176.772" fill="none" xmlns="http://www.w3.org/2000/svg" xmlns:xlink="http://www.w3.org/1999/xlink">
	<desc>
			Created with Pixso.
	</desc>
	<defs/>
	<mask id="mask1_19727" mask-type="alpha" maskUnits="userSpaceOnUse" x="0.000000" y="0.000000" width="277.912109" height="176.772461">
		<g style="mix-blend-mode:normal">
			<rect id="Rectangle 2876" y="4.798584" width="274.952148" height="172.000122" transform="rotate(-0.999999 0.000000 4.798584)" fill="#C4C4C4" fill-opacity="1.000000"/>
		</g>
	</mask>
	<g mask="url(#mask1_19727)">
		<g style="mix-blend-mode:normal">
			<path id="Path 20708" d="M261.39 4.83C258.92 4.8 257.04 2.89 257.04 0.41L265.98 0.37C265.99 2.86 263.91 4.87 261.39 4.83Z" fill="#1A1818" fill-opacity="1.000000" fill-rule="evenodd"/>
		</g>
	</g>
	<g mask="url(#mask1_19727)">
		<g style="mix-blend-mode:normal">
			<path id="Path 20709" d="M243.43 5.13C240.97 5.09 239.08 3.15 239.08 0.67L247.98 0.84C247.89 3.27 245.87 5.16 243.43 5.13Z" fill="#1A1818" fill-opacity="1.000000" fill-rule="evenodd"/>
		</g>
	</g>
	<g mask="url(#mask1_19727)">
		<g style="mix-blend-mode:normal">
			<path id="Path 20710" d="M261.68 13.94C264.08 13.88 266.14 15.84 266.21 18.25C266.26 20.66 264.31 22.69 261.89 22.75C259.45 22.8 257.45 20.9 257.39 18.46C257.34 16.05 259.27 14 261.68 13.94Z" fill="#1A1818" fill-opacity="1.000000" fill-rule="evenodd"/>
		</g>
	</g>
	<g mask="url(#mask1_19727)">
		<g style="mix-blend-mode:normal">
			<path id="Path 20711" d="M225.58 5.43C223.11 5.44 221.16 3.52 221.13 1.05L230 0.99C230 3.4 228.01 5.4 225.58 5.43Z" fill="#1A1818" fill-opacity="1.000000" fill-rule="evenodd"/>
		</g>
	</g>
	<g mask="url(#mask1_19727)">
		<g style="mix-blend-mode:normal">
			<path id="Path 20712" d="M270.73 13.62C268.25 13.69 266.27 11.79 266.2 9.34C266.14 6.9 268.09 4.83 270.5 4.77C272.88 4.7 275 6.71 275.06 9.1C275.13 11.51 273.16 13.56 270.73 13.62Z" fill="#1A1818" fill-opacity="1.000000" fill-rule="evenodd"/>
		</g>
	</g>
	<g mask="url(#mask1_19727)">
		<g style="mix-blend-mode:normal">
			<path id="Path 20713" d="M252.66 13.94C250.19 13.95 248.25 12.01 248.24 9.54C248.22 7.11 250.23 5.08 252.64 5.08C255.04 5.08 257.11 7.13 257.1 9.51C257.1 11.94 255.1 13.93 252.66 13.94Z" fill="#1A1818" fill-opacity="1.000000" fill-rule="evenodd"/>
		</g>
	</g>
	<g mask="url(#mask1_19727)">
		<g style="mix-blend-mode:normal">
			<path id="Path 20714" d="M234.77 14.23C232.32 14.29 230.34 12.38 230.29 9.93C230.24 7.51 232.19 5.47 234.59 5.43C237 5.38 239.05 7.35 239.1 9.76C239.15 12.17 237.19 14.19 234.77 14.23Z" fill="#1A1818" fill-opacity="1.000000" fill-rule="evenodd"/>
		</g>
	</g>
	<g mask="url(#mask1_19727)">
		<g style="mix-blend-mode:normal">
			<path id="Path 20715" d="M216.86 14.54C214.43 14.62 212.4 12.7 212.34 10.26C212.28 7.83 214.24 5.81 216.68 5.78C219.03 5.76 220.97 7.59 221.09 9.95C221.21 12.39 219.3 14.45 216.86 14.54Z" fill="#1A1818" fill-opacity="1.000000" fill-rule="evenodd"/>
		</g>
	</g>
	<g mask="url(#mask1_19727)">
		<g style="mix-blend-mode:normal">
			<path id="Path 20716" d="M253.08 23.12C255.44 23.19 257.32 25.1 257.34 27.45C257.36 29.88 255.38 31.89 252.95 31.88C250.51 31.87 248.56 29.88 248.58 27.44C248.61 25.01 250.64 23.05 253.08 23.12Z" fill="#1A1818" fill-opacity="1.000000" fill-rule="evenodd"/>
		</g>
	</g>
	<g mask="url(#mask1_19727)">
		<g style="mix-blend-mode:normal">
			<path id="Path 20717" d="M270.77 22.81C273.21 22.72 275.25 24.65 275.3 27.08C275.35 29.43 273.52 31.42 271.19 31.56C268.75 31.7 266.67 29.83 266.55 27.4C266.44 24.96 268.33 22.89 270.77 22.81Z" fill="#1A1818" fill-opacity="1.000000" fill-rule="evenodd"/>
		</g>
	</g>
	<g mask="url(#mask1_19727)">
		<g style="mix-blend-mode:normal">
			<path id="Path 20718" d="M243.76 14.29C246.2 14.25 248.2 16.23 248.2 18.66C248.2 21.01 246.33 22.96 244 23.05C241.55 23.13 239.52 21.23 239.45 18.79C239.37 16.36 241.32 14.33 243.76 14.29Z" fill="#1A1818" fill-opacity="1.000000" fill-rule="evenodd"/>
		</g>
	</g>
	<g mask="url(#mask1_19727)">
		<g style="mix-blend-mode:normal">
			<path id="Path 20719" d="M225.92 14.61C228.29 14.65 230.18 16.53 230.23 18.88C230.28 21.32 228.33 23.34 225.9 23.37C223.46 23.38 221.48 21.42 221.48 18.98C221.48 16.54 223.49 14.58 225.92 14.61Z" fill="#1A1818" fill-opacity="1.000000" fill-rule="evenodd"/>
		</g>
	</g>
	<g mask="url(#mask1_19727)">
		<g style="mix-blend-mode:normal">
			<path id="Path 20720" d="M189.77 6.02C187.33 6.11 185.3 4.2 185.24 1.76L193.98 1.43C194.11 3.86 192.2 5.94 189.77 6.02Z" fill="#1A1818" fill-opacity="1.000000" fill-rule="evenodd"/>
		</g>
	</g>
	<g mask="url(#mask1_19727)">
		<g style="mix-blend-mode:normal">
			<path id="Path 20721" d="M207.71 5.71C205.26 5.78 203.25 3.85 203.2 1.41L211.94 1.15C212.05 3.58 210.14 5.64 207.71 5.71Z" fill="#1A1818" fill-opacity="1.000000" fill-rule="evenodd"/>
		</g>
	</g>
	<g mask="url(#mask1_19727)">
		<g style="mix-blend-mode:normal">
			<path id="Path 20722" d="M198.82 14.83C196.38 14.87 194.37 12.87 194.39 10.43C194.41 7.99 196.43 6.07 198.9 6.14C201.28 6.22 203.11 8.12 203.09 10.52C203.06 12.89 201.17 14.8 198.82 14.83Z" fill="#1A1818" fill-opacity="1.000000" fill-rule="evenodd"/>
		</g>
	</g>
	<g mask="url(#mask1_19727)">
		<g style="mix-blend-mode:normal">
			<path id="Path 20723" d="M234.88 23.47C237.37 23.42 239.34 25.34 239.34 27.82C239.33 30.19 237.45 32.12 235.09 32.17C232.66 32.23 230.64 30.25 230.63 27.81C230.63 25.46 232.52 23.54 234.88 23.47Z" fill="#1A1818" fill-opacity="1.000000" fill-rule="evenodd"/>
		</g>
	</g>
	<g mask="url(#mask1_19727)">
		<g style="mix-blend-mode:normal">
			<path id="Path 20724" d="M208.01 15C210.39 15.05 212.2 16.92 212.2 19.32C212.19 21.68 210.32 23.6 207.98 23.65C205.58 23.69 203.54 21.69 203.54 19.29C203.55 16.86 205.54 14.94 208.01 15Z" fill="#1A1818" fill-opacity="1.000000" fill-rule="evenodd"/>
		</g>
	</g>
	<g mask="url(#mask1_19727)">
		<g style="mix-blend-mode:normal">
			<path id="Path 20725" d="M261.81 32.03C264.3 31.88 266.31 33.67 266.4 36.15C266.49 38.52 264.73 40.5 262.39 40.66C260 40.83 257.86 38.91 257.76 36.51C257.65 34.17 259.45 32.19 261.81 32.03Z" fill="#1A1818" fill-opacity="1.000000" fill-rule="evenodd"/>
		</g>
	</g>
	<g mask="url(#mask1_19727)">
		<g style="mix-blend-mode:normal">
			<path id="Path 20726" d="M244.14 32.37C246.63 32.36 248.49 34.3 248.41 36.82C248.33 39.18 246.35 41.05 244.01 40.96C241.69 40.89 239.77 38.89 239.8 36.58C239.84 34.22 241.74 32.37 244.14 32.37Z" fill="#1A1818" fill-opacity="1.000000" fill-rule="evenodd"/>
		</g>
	</g>
	<g mask="url(#mask1_19727)">
		<g style="mix-blend-mode:normal">
			<path id="Path 20727" d="M171.68 6.29C169.36 6.3 167.37 4.37 167.32 2.06L175.91 1.76C176.02 4.24 174.11 6.28 171.68 6.29Z" fill="#1A1818" fill-opacity="1.000000" fill-rule="evenodd"/>
		</g>
	</g>
	<g mask="url(#mask1_19727)">
		<g style="mix-blend-mode:normal">
			<path id="Path 20728" d="M180.81 15.1C178.5 15.11 176.49 13.13 176.47 10.82C176.46 8.46 178.36 6.56 180.75 6.54C183.18 6.52 185.02 8.33 185.04 10.76C185.05 13.15 183.16 15.09 180.81 15.1Z" fill="#1A1818" fill-opacity="1.000000" fill-rule="evenodd"/>
		</g>
	</g>
	<g mask="url(#mask1_19727)">
		<g style="mix-blend-mode:normal">
			<path id="Path 20729" d="M216.98 23.85C219.48 23.81 221.36 25.72 221.3 28.24C221.25 30.61 219.31 32.49 216.97 32.46C214.65 32.41 212.7 30.43 212.7 28.13C212.7 25.78 214.59 23.89 216.98 23.85Z" fill="#1A1818" fill-opacity="1.000000" fill-rule="evenodd"/>
		</g>
	</g>
	<g mask="url(#mask1_19727)">
		<g style="mix-blend-mode:normal">
			<path id="Path 20730" d="M189.83 15.39C192.24 15.33 194.1 17.11 194.15 19.52C194.2 21.89 192.35 23.86 190.02 23.91C187.74 23.95 185.69 22 185.63 19.71C185.57 17.38 187.46 15.44 189.83 15.39Z" fill="#1A1818" fill-opacity="1.000000" fill-rule="evenodd"/>
		</g>
	</g>
	<g mask="url(#mask1_19727)">
		<g style="mix-blend-mode:normal">
			<path id="Path 20731" d="M271.3 40.92C273.7 40.94 275.49 42.79 275.48 45.22C275.44 47.58 273.49 49.5 271.17 49.45C268.88 49.39 266.9 47.36 266.94 45.09C266.99 42.74 268.91 40.9 271.3 40.92Z" fill="#1A1818" fill-opacity="1.000000" fill-rule="evenodd"/>
		</g>
	</g>
	<g mask="url(#mask1_19727)">
		<g style="mix-blend-mode:normal">
			<path id="Path 20732" d="M226.13 32.74C228.53 32.71 230.39 34.57 230.39 36.98C230.38 39.34 228.41 41.29 226.09 41.22C223.87 41.17 221.95 39.25 221.9 37.05C221.84 34.71 223.76 32.76 226.13 32.74Z" fill="#1A1818" fill-opacity="1.000000" fill-rule="evenodd"/>
		</g>
	</g>
	<g mask="url(#mask1_19727)">
		<g style="mix-blend-mode:normal">
			<path id="Path 20733" d="M253.15 41.27C255.44 41.2 257.32 42.91 257.46 45.18C257.61 47.54 255.84 49.55 253.51 49.7C251.24 49.83 249.14 47.94 249.03 45.64C248.92 43.33 250.81 41.33 253.15 41.27Z" fill="#1A1818" fill-opacity="1.000000" fill-rule="evenodd"/>
		</g>
	</g>
	<g mask="url(#mask1_19727)">
		<g style="mix-blend-mode:normal">
			<path id="Path 20734" d="M198.91 24.26C201.2 24.18 203.11 25.9 203.24 28.18C203.38 30.53 201.57 32.55 199.22 32.65C196.91 32.74 194.87 30.79 194.86 28.47C194.84 26.22 196.65 24.34 198.91 24.26Z" fill="#1A1818" fill-opacity="1.000000" fill-rule="evenodd"/>
		</g>
	</g>
	<g mask="url(#mask1_19727)">
		<g style="mix-blend-mode:normal">
			<path id="Path 20735" d="M208.07 33.12C210.35 33.04 212.28 34.85 212.35 37.12C212.42 39.42 210.63 41.31 208.34 41.39C206.03 41.46 204.14 39.69 204.07 37.39C204 35.1 205.79 33.2 208.07 33.12Z" fill="#1A1818" fill-opacity="1.000000" fill-rule="evenodd"/>
		</g>
	</g>
	<g mask="url(#mask1_19727)">
		<g style="mix-blend-mode:normal">
			<path id="Path 20736" d="M153.68 6.41C151.37 6.41 149.54 4.56 149.55 2.26L157.83 2.28C157.83 4.56 155.97 6.41 153.68 6.41Z" fill="#1A1818" fill-opacity="1.000000" fill-rule="evenodd"/>
		</g>
	</g>
	<g mask="url(#mask1_19727)">
		<g style="mix-blend-mode:normal">
			<path id="Path 20737" d="M235.29 41.63C237.57 41.61 239.45 43.47 239.46 45.75C239.47 48.03 237.63 49.89 235.34 49.91C233.03 49.92 231.19 48.1 231.18 45.8C231.17 43.5 233 41.64 235.29 41.63Z" fill="#1A1818" fill-opacity="1.000000" fill-rule="evenodd"/>
		</g>
	</g>
	<g mask="url(#mask1_19727)">
		<g style="mix-blend-mode:normal">
			<path id="Path 20738" d="M162.99 15.19C160.66 15.27 158.82 13.57 158.73 11.26C158.65 8.97 160.4 7.06 162.66 6.97C164.91 6.88 166.85 8.69 166.95 10.93C167.04 13.2 165.27 15.09 162.99 15.19Z" fill="#1A1818" fill-opacity="1.000000" fill-rule="evenodd"/>
		</g>
	</g>
	<g mask="url(#mask1_19727)">
		<g style="mix-blend-mode:normal">
			<path id="Path 20739" d="M262.46 50.17C264.62 50.2 266.45 51.99 266.52 54.14C266.6 56.41 264.79 58.3 262.5 58.35C260.15 58.39 258.37 56.65 258.36 54.3C258.34 52.01 260.2 50.14 262.46 50.17Z" fill="#1A1818" fill-opacity="1.000000" fill-rule="evenodd"/>
		</g>
	</g>
	<g mask="url(#mask1_19727)">
		<g style="mix-blend-mode:normal">
			<path id="Path 20740" d="M171.89 15.82C174.13 15.77 176.06 17.65 176.07 19.88C176.1 22.16 174.23 23.99 171.94 23.98C169.61 23.98 167.87 22.19 167.9 19.84C167.94 17.64 169.7 15.85 171.89 15.82Z" fill="#1A1818" fill-opacity="1.000000" fill-rule="evenodd"/>
		</g>
	</g>
	<g mask="url(#mask1_19727)">
		<g style="mix-blend-mode:normal">
			<path id="Path 20741" d="M180.99 24.67C183.19 24.6 185.17 26.53 185.18 28.73C185.18 30.99 183.31 32.8 181 32.75C178.78 32.72 177.1 31.01 177.09 28.75C177.09 26.56 178.81 24.74 180.99 24.67Z" fill="#1A1818" fill-opacity="1.000000" fill-rule="evenodd"/>
		</g>
	</g>
	<g mask="url(#mask1_19727)">
		<g style="mix-blend-mode:normal">
			<path id="Path 20742" d="M244.29 50.52C246.48 50.43 248.49 52.32 248.52 54.53C248.56 56.79 246.7 58.62 244.4 58.61C242.17 58.6 240.48 56.91 240.45 54.66C240.41 52.45 242.11 50.63 244.29 50.52Z" fill="#1A1818" fill-opacity="1.000000" fill-rule="evenodd"/>
		</g>
	</g>
	<g mask="url(#mask1_19727)">
		<g style="mix-blend-mode:normal">
			<path id="Path 20743" d="M217.27 42.01C219.4 41.97 221.31 43.76 221.42 45.9C221.53 48.13 219.71 50.04 217.42 50.09C215.17 50.13 213.43 48.5 213.34 46.27C213.25 43.97 215.02 42.05 217.27 42.01Z" fill="#1A1818" fill-opacity="1.000000" fill-rule="evenodd"/>
		</g>
	</g>
	<g mask="url(#mask1_19727)">
		<g style="mix-blend-mode:normal">
			<path id="Path 20744" d="M190.12 33.55C192.25 33.47 194.2 35.31 194.27 37.44C194.34 39.62 192.57 41.48 190.37 41.55C188.12 41.61 186.34 39.94 186.27 37.7C186.2 35.49 187.94 33.62 190.12 33.55Z" fill="#1A1818" fill-opacity="1.000000" fill-rule="evenodd"/>
		</g>
	</g>
	<g mask="url(#mask1_19727)">
		<g style="mix-blend-mode:normal">
			<path id="Path 20745" d="M226.43 50.92C228.58 50.89 230.45 52.72 230.48 54.86C230.51 57.03 228.73 58.83 226.53 58.87C224.33 58.89 222.56 57.17 222.53 54.96C222.5 52.78 224.27 50.95 226.43 50.92Z" fill="#1A1818" fill-opacity="1.000000" fill-rule="evenodd"/>
		</g>
	</g>
	<g mask="url(#mask1_19727)">
		<g style="mix-blend-mode:normal">
			<path id="Path 20746" d="M271.42 59.12C273.56 59.04 275.47 60.84 275.55 62.99C275.62 65.15 273.87 67 271.69 67.07C269.47 67.14 267.67 65.44 267.6 63.24C267.53 61.05 269.25 59.2 271.42 59.12Z" fill="#1A1818" fill-opacity="1.000000" fill-rule="evenodd"/>
		</g>
	</g>
	<g mask="url(#mask1_19727)">
		<g style="mix-blend-mode:normal">
			<path id="Path 20747" d="M144.91 15.35C142.72 15.38 140.92 13.62 140.92 11.41C140.92 9.21 142.72 7.43 144.91 7.46C147.01 7.5 148.74 9.21 148.81 11.3C148.87 13.5 147.11 15.33 144.91 15.35Z" fill="#1A1818" fill-opacity="1.000000" fill-rule="evenodd"/>
		</g>
	</g>
	<g mask="url(#mask1_19727)">
		<g style="mix-blend-mode:normal">
			<path id="Path 20748" d="M135.77 6.53C133.56 6.55 131.78 4.78 131.78 2.57L139.67 2.48C139.72 4.67 137.96 6.5 135.77 6.53Z" fill="#1A1818" fill-opacity="1.000000" fill-rule="evenodd"/>
		</g>
	</g>
	<g mask="url(#mask1_19727)">
		<g style="mix-blend-mode:normal">
			<path id="Path 20749" d="M199.25 42.49C201.38 42.42 203.15 44.03 203.28 46.17C203.41 48.38 201.71 50.26 199.51 50.33C197.32 50.39 195.47 48.62 195.46 46.43C195.44 44.31 197.12 42.57 199.25 42.49Z" fill="#1A1818" fill-opacity="1.000000" fill-rule="evenodd"/>
		</g>
	</g>
	<g mask="url(#mask1_19727)">
		<g style="mix-blend-mode:normal">
			<path id="Path 20750" d="M253.54 59.52C255.68 59.49 257.41 61.14 257.49 63.28C257.57 65.5 255.83 67.33 253.63 67.35C251.44 67.37 249.63 65.55 249.66 63.36C249.7 61.24 251.41 59.55 253.54 59.52Z" fill="#1A1818" fill-opacity="1.000000" fill-rule="evenodd"/>
		</g>
	</g>
	<g mask="url(#mask1_19727)">
		<g style="mix-blend-mode:normal">
			<path id="Path 20751" d="M153.86 16.33C155.99 16.25 157.77 17.87 157.9 20C158.02 22.22 156.33 24.09 154.13 24.16C151.94 24.23 150.09 22.46 150.08 20.26C150.06 18.14 151.73 16.4 153.86 16.33Z" fill="#1A1818" fill-opacity="1.000000" fill-rule="evenodd"/>
		</g>
	</g>
	<g mask="url(#mask1_19727)">
		<g style="mix-blend-mode:normal">
			<path id="Path 20752" d="M163.05 25.2C165.23 25.15 166.92 26.77 167 28.94C167.07 31.17 165.31 32.99 163.1 32.97C161 32.95 159.25 31.19 159.23 29.1C159.21 26.97 160.9 25.25 163.05 25.2Z" fill="#1A1818" fill-opacity="1.000000" fill-rule="evenodd"/>
		</g>
	</g>
	<g mask="url(#mask1_19727)">
		<g style="mix-blend-mode:normal">
			<path id="Path 20753" d="M172.13 34.09C174.32 34.01 176 35.58 176.07 37.75C176.14 39.9 174.52 41.68 172.41 41.75C170.34 41.83 168.5 40.12 168.41 38.04C168.32 35.95 170 34.16 172.13 34.09Z" fill="#1A1818" fill-opacity="1.000000" fill-rule="evenodd"/>
		</g>
	</g>
	<g mask="url(#mask1_19727)">
		<g style="mix-blend-mode:normal">
			<path id="Path 20754" d="M235.57 59.93C237.75 59.9 239.39 61.5 239.42 63.69C239.45 65.83 237.78 67.58 235.67 67.61C233.6 67.63 231.79 65.87 231.76 63.8C231.72 61.7 233.42 59.97 235.57 59.93Z" fill="#1A1818" fill-opacity="1.000000" fill-rule="evenodd"/>
		</g>
	</g>
	<g mask="url(#mask1_19727)">
		<g style="mix-blend-mode:normal">
			<path id="Path 20755" d="M208.44 51.43C210.63 51.38 212.28 52.97 212.32 55.16C212.36 57.31 210.69 59.06 208.59 59.1C206.52 59.13 204.7 57.38 204.65 55.31C204.6 53.21 206.3 51.47 208.44 51.43Z" fill="#1A1818" fill-opacity="1.000000" fill-rule="evenodd"/>
		</g>
	</g>
	<g mask="url(#mask1_19727)">
		<g style="mix-blend-mode:normal">
			<path id="Path 20756" d="M262.86 68.49C264.91 68.54 266.47 70.16 266.49 72.22C266.5 74.33 264.76 76.11 262.7 76.08C260.65 76.05 258.84 74.2 258.91 72.17C258.96 70.08 260.74 68.43 262.86 68.49Z" fill="#1A1818" fill-opacity="1.000000" fill-rule="evenodd"/>
		</g>
	</g>
	<g mask="url(#mask1_19727)">
		<g style="mix-blend-mode:normal">
			<path id="Path 20757" d="M181.38 42.96C183.53 42.93 185.19 44.58 185.18 46.75C185.17 48.76 183.55 50.45 181.56 50.54C179.52 50.62 177.64 48.85 177.59 46.81C177.53 44.73 179.27 42.98 181.38 42.96Z" fill="#1A1818" fill-opacity="1.000000" fill-rule="evenodd"/>
		</g>
	</g>
	<g mask="url(#mask1_19727)">
		<g style="mix-blend-mode:normal">
			<path id="Path 20758" d="M217.83 60.31C219.87 60.39 221.43 62.05 221.41 64.12C221.37 66.14 219.7 67.83 217.71 67.85C215.64 67.87 213.82 66.04 213.87 64C213.92 61.9 215.71 60.23 217.83 60.31Z" fill="#1A1818" fill-opacity="1.000000" fill-rule="evenodd"/>
		</g>
	</g>
	<g mask="url(#mask1_19727)">
		<g style="mix-blend-mode:normal">
			<path id="Path 20759" d="M244.57 68.85C246.61 68.74 248.35 70.28 248.49 72.31C248.62 74.43 246.96 76.26 244.85 76.32C242.86 76.37 241.09 74.71 241.01 72.71C240.93 70.71 242.54 68.95 244.57 68.85Z" fill="#1A1818" fill-opacity="1.000000" fill-rule="evenodd"/>
		</g>
	</g>
	<g mask="url(#mask1_19727)">
		<g style="mix-blend-mode:normal">
			<path id="Path 20760" d="M127.04 15.43C125 15.52 123.26 13.91 123.18 11.87C123.11 9.83 124.72 8.1 126.76 8.02C128.79 7.94 130.52 9.54 130.6 11.59C130.68 13.63 129.09 15.34 127.04 15.43Z" fill="#1A1818" fill-opacity="1.000000" fill-rule="evenodd"/>
		</g>
	</g>
	<g mask="url(#mask1_19727)">
		<g style="mix-blend-mode:normal">
			<path id="Path 20761" d="M190.44 51.83C192.48 51.77 194.21 53.38 194.26 55.42C194.32 57.47 192.72 59.18 190.67 59.25C188.63 59.31 186.91 57.7 186.84 55.66C186.77 53.62 188.4 51.9 190.44 51.83Z" fill="#1A1818" fill-opacity="1.000000" fill-rule="evenodd"/>
		</g>
	</g>
	<g mask="url(#mask1_19727)">
		<g style="mix-blend-mode:normal">
			<path id="Path 20762" d="M117.67 6.6C115.61 6.56 113.99 4.86 114.04 2.8L121.46 2.99C121.41 5.03 119.71 6.66 117.67 6.6Z" fill="#1A1818" fill-opacity="1.000000" fill-rule="evenodd"/>
		</g>
	</g>
	<g mask="url(#mask1_19727)">
		<g style="mix-blend-mode:normal">
			<path id="Path 20763" d="M136.04 16.85C138.08 16.85 139.75 18.52 139.74 20.56C139.74 22.6 138.06 24.27 136.03 24.27C133.98 24.26 132.32 22.58 132.33 20.54C132.33 18.5 133.99 16.84 136.04 16.85Z" fill="#1A1818" fill-opacity="1.000000" fill-rule="evenodd"/>
		</g>
	</g>
	<g mask="url(#mask1_19727)">
		<g style="mix-blend-mode:normal">
			<path id="Path 20764" d="M145.09 25.69C147.11 25.64 148.84 27.31 148.86 29.34C148.88 31.31 147.36 32.92 145.38 33.03C143.29 33.14 141.59 31.6 141.52 29.52C141.44 27.45 143.03 25.74 145.09 25.69Z" fill="#1A1818" fill-opacity="1.000000" fill-rule="evenodd"/>
		</g>
	</g>
	<g mask="url(#mask1_19727)">
		<g style="mix-blend-mode:normal">
			<path id="Path 20765" d="M226.71 69.21C228.72 69.17 230.45 70.84 230.47 72.84C230.48 74.79 228.97 76.39 227 76.49C224.91 76.6 223.26 75.09 223.18 73.02C223.11 70.95 224.69 69.26 226.71 69.21Z" fill="#1A1818" fill-opacity="1.000000" fill-rule="evenodd"/>
		</g>
	</g>
	<g mask="url(#mask1_19727)">
		<g style="mix-blend-mode:normal">
			<path id="Path 20766" d="M271.67 77.41C273.66 77.3 275.45 78.92 275.54 80.92C275.62 82.95 274.03 84.64 271.97 84.69C269.88 84.75 268.27 83.2 268.25 81.1C268.23 79.14 269.72 77.52 271.67 77.41Z" fill="#1A1818" fill-opacity="1.000000" fill-rule="evenodd"/>
		</g>
	</g>
	<g mask="url(#mask1_19727)">
		<g style="mix-blend-mode:normal">
			<path id="Path 20767" d="M154.22 34.53C156.21 34.48 157.96 36.16 157.98 38.15C158.01 40.18 156.37 41.82 154.31 41.82C152.22 41.82 150.66 40.23 150.7 38.13C150.73 36.16 152.27 34.59 154.22 34.53Z" fill="#1A1818" fill-opacity="1.000000" fill-rule="evenodd"/>
		</g>
	</g>
	<g mask="url(#mask1_19727)">
		<g style="mix-blend-mode:normal">
			<path id="Path 20768" d="M199.73 60.72C201.64 60.74 203.3 62.38 203.34 64.28C203.39 66.31 201.74 67.96 199.67 67.96C197.58 67.95 196.04 66.33 196.11 64.22C196.18 62.25 197.78 60.69 199.73 60.72Z" fill="#1A1818" fill-opacity="1.000000" fill-rule="evenodd"/>
		</g>
	</g>
	<g mask="url(#mask1_19727)">
		<g style="mix-blend-mode:normal">
			<path id="Path 20769" d="M163.48 43.38C165.39 43.4 167.05 45.04 167.1 46.93C167.15 48.97 165.5 50.62 163.43 50.62C161.43 50.62 159.91 49.12 159.86 47.11C159.82 45.04 161.45 43.36 163.48 43.38Z" fill="#1A1818" fill-opacity="1.000000" fill-rule="evenodd"/>
		</g>
	</g>
	<g mask="url(#mask1_19727)">
		<g style="mix-blend-mode:normal">
			<path id="Path 20770" d="M172.43 52.25C174.32 52.15 176.09 53.78 176.19 55.69C176.29 57.62 174.73 59.31 172.76 59.39C170.73 59.47 169.13 58.02 169.06 56.01C168.97 54.03 170.49 52.34 172.43 52.25Z" fill="#1A1818" fill-opacity="1.000000" fill-rule="evenodd"/>
		</g>
	</g>
	<g mask="url(#mask1_19727)">
		<g style="mix-blend-mode:normal">
			<path id="Path 20771" d="M253.73 77.77C255.7 77.67 257.53 79.4 257.53 81.38C257.53 83.33 255.95 84.91 253.97 84.95C251.94 84.99 250.4 83.52 250.34 81.5C250.28 79.52 251.79 77.87 253.73 77.77Z" fill="#1A1818" fill-opacity="1.000000" fill-rule="evenodd"/>
		</g>
	</g>
	<g mask="url(#mask1_19727)">
		<g style="mix-blend-mode:normal">
			<path id="Path 20772" d="M208.79 69.62C210.69 69.6 212.38 71.24 212.41 73.14C212.43 75.07 210.84 76.69 208.88 76.71C206.89 76.74 205.34 75.23 205.31 73.24C205.28 71.28 206.86 69.64 208.79 69.62Z" fill="#1A1818" fill-opacity="1.000000" fill-rule="evenodd"/>
		</g>
	</g>
	<g mask="url(#mask1_19727)">
		<g style="mix-blend-mode:normal">
			<path id="Path 20773" d="M235.81 78.13C237.7 78.05 239.42 79.66 239.51 81.58C239.59 83.49 238.02 85.16 236.07 85.22C234.07 85.29 232.48 83.81 232.42 81.84C232.35 79.87 233.88 78.21 235.81 78.13Z" fill="#1A1818" fill-opacity="1.000000" fill-rule="evenodd"/>
		</g>
	</g>
	<g mask="url(#mask1_19727)">
		<g style="mix-blend-mode:normal">
			<path id="Path 20774" d="M127.06 26.21C128.94 26.12 130.54 27.56 130.68 29.45C130.82 31.4 129.3 33.1 127.34 33.17C125.37 33.24 123.74 31.68 123.72 29.72C123.7 27.85 125.2 26.28 127.06 26.21Z" fill="#1A1818" fill-opacity="1.000000" fill-rule="evenodd"/>
		</g>
	</g>
	<g mask="url(#mask1_19727)">
		<g style="mix-blend-mode:normal">
			<path id="Path 20775" d="M118 17.38C119.96 17.34 121.59 18.96 121.55 20.92C121.52 22.79 119.99 24.32 118.12 24.35C116.16 24.38 114.56 22.79 114.58 20.82C114.6 18.95 116.14 17.42 118 17.38Z" fill="#1A1818" fill-opacity="1.000000" fill-rule="evenodd"/>
		</g>
	</g>
	<g mask="url(#mask1_19727)">
		<g style="mix-blend-mode:normal">
			<path id="Path 20776" d="M181.71 61.2C183.6 61.19 185.15 62.68 185.21 64.56C185.28 66.43 183.82 68.04 181.96 68.15C180 68.28 178.32 66.77 178.25 64.81C178.17 62.86 179.76 61.2 181.71 61.2Z" fill="#1A1818" fill-opacity="1.000000" fill-rule="evenodd"/>
		</g>
	</g>
	<g mask="url(#mask1_19727)">
		<g style="mix-blend-mode:normal">
			<path id="Path 20777" d="M109.2 15.52C107.24 15.66 105.54 14.16 105.45 12.2C105.35 10.25 106.92 8.58 108.88 8.56C110.76 8.53 112.32 10 112.41 11.88C112.49 13.75 111.06 15.37 109.2 15.52Z" fill="#1A1818" fill-opacity="1.000000" fill-rule="evenodd"/>
		</g>
	</g>
	<g mask="url(#mask1_19727)">
		<g style="mix-blend-mode:normal">
			<path id="Path 20778" d="M99.85 6.68C97.98 6.7 96.39 5.21 96.32 3.34L103.21 2.99C103.33 4.98 101.8 6.65 99.85 6.68Z" fill="#1A1818" fill-opacity="1.000000" fill-rule="evenodd"/>
		</g>
	</g>
	<g mask="url(#mask1_19727)">
		<g style="mix-blend-mode:normal">
			<path id="Path 20779" d="M263.06 86.79C264.99 86.8 266.46 88.27 266.47 90.2C266.49 92.08 264.99 93.64 263.12 93.68C261.16 93.73 259.53 92.1 259.58 90.14C259.62 88.28 261.17 86.78 263.06 86.79Z" fill="#1A1818" fill-opacity="1.000000" fill-rule="evenodd"/>
		</g>
	</g>
	<g mask="url(#mask1_19727)">
		<g style="mix-blend-mode:normal">
			<path id="Path 20780" d="M136.22 35.08C138.14 35.02 139.67 36.42 139.77 38.34C139.86 40.32 138.31 41.98 136.35 41.98C134.47 41.98 132.93 40.46 132.88 38.59C132.84 36.72 134.33 35.15 136.22 35.08Z" fill="#1A1818" fill-opacity="1.000000" fill-rule="evenodd"/>
		</g>
	</g>
	<g mask="url(#mask1_19727)">
		<g style="mix-blend-mode:normal">
			<path id="Path 20781" d="M245.11 87.17C247.05 87.19 248.45 88.63 248.44 90.58C248.42 92.45 246.87 93.99 245.03 93.96C243.2 93.92 241.63 92.32 241.65 90.49C241.68 88.64 243.22 87.16 245.11 87.17Z" fill="#1A1818" fill-opacity="1.000000" fill-rule="evenodd"/>
		</g>
	</g>
	<g mask="url(#mask1_19727)">
		<g style="mix-blend-mode:normal">
			<path id="Path 20782" d="M217.91 78.63C219.86 78.6 221.34 80.02 221.36 81.98C221.39 83.88 219.89 85.44 218.02 85.46C216.16 85.48 214.56 83.93 214.53 82.08C214.5 80.2 216 78.66 217.91 78.63Z" fill="#1A1818" fill-opacity="1.000000" fill-rule="evenodd"/>
		</g>
	</g>
	<g mask="url(#mask1_19727)">
		<g style="mix-blend-mode:normal">
			<path id="Path 20783" d="M190.81 70.15C192.74 70.12 194.19 71.52 194.22 73.46C194.25 75.34 192.77 76.91 190.92 76.93C189.08 76.96 187.49 75.4 187.45 73.57C187.41 71.72 188.92 70.18 190.81 70.15Z" fill="#1A1818" fill-opacity="1.000000" fill-rule="evenodd"/>
		</g>
	</g>
	<g mask="url(#mask1_19727)">
		<g style="mix-blend-mode:normal">
			<path id="Path 20784" d="M145.35 43.96C147.31 43.89 148.81 45.29 148.87 47.23C148.93 49.15 147.48 50.72 145.6 50.79C143.74 50.85 142.11 49.33 142.04 47.47C141.97 45.61 143.46 44.02 145.35 43.96Z" fill="#1A1818" fill-opacity="1.000000" fill-rule="evenodd"/>
		</g>
	</g>
	<g mask="url(#mask1_19727)">
		<g style="mix-blend-mode:normal">
			<path id="Path 20785" d="M154.58 52.84C156.42 52.81 157.85 54.13 157.95 55.96C158.05 57.87 156.64 59.48 154.77 59.57C152.96 59.66 151.29 58.09 151.22 56.28C151.15 54.43 152.68 52.87 154.58 52.84Z" fill="#1A1818" fill-opacity="1.000000" fill-rule="evenodd"/>
		</g>
	</g>
	<g mask="url(#mask1_19727)">
		<g style="mix-blend-mode:normal">
			<path id="Path 20786" d="M163.57 61.71C165.39 61.61 166.92 62.95 167.04 64.74C167.18 66.64 165.72 68.28 163.85 68.32C162.11 68.38 160.51 66.89 160.43 65.14C160.34 63.37 161.77 61.81 163.57 61.71Z" fill="#1A1818" fill-opacity="1.000000" fill-rule="evenodd"/>
		</g>
	</g>
	<g mask="url(#mask1_19727)">
		<g style="mix-blend-mode:normal">
			<path id="Path 20787" d="M227.14 87.55C228.95 87.56 230.39 89 230.41 90.82C230.42 92.62 228.98 94.13 227.2 94.18C225.36 94.22 223.72 92.58 223.78 90.76C223.84 88.96 225.33 87.54 227.14 87.55Z" fill="#1A1818" fill-opacity="1.000000" fill-rule="evenodd"/>
		</g>
	</g>
	<g mask="url(#mask1_19727)">
		<g style="mix-blend-mode:normal">
			<path id="Path 20788" d="M199.97 79.04C201.88 79.02 203.37 80.55 203.3 82.47C203.23 84.26 201.69 85.72 199.93 85.67C198.16 85.62 196.66 84.05 196.68 82.31C196.69 80.52 198.16 79.07 199.97 79.04Z" fill="#1A1818" fill-opacity="1.000000" fill-rule="evenodd"/>
		</g>
	</g>
	<g mask="url(#mask1_19727)">
		<g style="mix-blend-mode:normal">
			<path id="Path 20789" d="M271.99 95.76C273.8 95.66 275.34 96.99 275.47 98.79C275.6 100.69 274.14 102.33 272.26 102.38C270.52 102.42 268.92 100.92 268.85 99.18C268.76 97.42 270.19 95.85 271.99 95.76Z" fill="#1A1818" fill-opacity="1.000000" fill-rule="evenodd"/>
		</g>
	</g>
	<g mask="url(#mask1_19727)">
		<g style="mix-blend-mode:normal">
			<path id="Path 20790" d="M254.23 96.1C256.03 96.12 257.5 97.63 257.47 99.43C257.43 101.15 256.05 102.53 254.32 102.59C252.48 102.65 251.01 101.22 250.98 99.4C250.96 97.57 252.41 96.1 254.23 96.1Z" fill="#1A1818" fill-opacity="1.000000" fill-rule="evenodd"/>
		</g>
	</g>
	<g mask="url(#mask1_19727)">
		<g style="mix-blend-mode:normal">
			<path id="Path 20791" d="M172.78 70.57C174.57 70.5 176.11 71.95 176.15 73.74C176.19 75.55 174.74 77.04 172.92 77.06C171.18 77.07 169.76 75.74 169.67 74C169.57 72.19 170.97 70.64 172.78 70.57Z" fill="#1A1818" fill-opacity="1.000000" fill-rule="evenodd"/>
		</g>
	</g>
	<g mask="url(#mask1_19727)">
		<g style="mix-blend-mode:normal">
			<path id="Path 20792" d="M109.13 26.77C110.91 26.71 112.47 28.21 112.47 29.99C112.48 31.8 110.98 33.24 109.15 33.19C107.38 33.13 106.07 31.79 106.07 30.01C106.06 28.25 107.4 26.84 109.13 26.77Z" fill="#1A1818" fill-opacity="1.000000" fill-rule="evenodd"/>
		</g>
	</g>
	<g mask="url(#mask1_19727)">
		<g style="mix-blend-mode:normal">
			<path id="Path 20793" d="M209.09 87.93C210.88 87.89 212.4 89.42 212.38 91.19C212.36 93.01 210.85 94.41 208.99 94.33C207.22 94.27 205.95 92.9 205.97 91.1C205.99 89.36 207.36 87.97 209.09 87.93Z" fill="#1A1818" fill-opacity="1.000000" fill-rule="evenodd"/>
		</g>
	</g>
	<g mask="url(#mask1_19727)">
		<g style="mix-blend-mode:normal">
			<path id="Path 20794" d="M100.07 17.94C101.77 17.93 103.25 19.32 103.32 21.02C103.42 22.83 101.98 24.33 100.14 24.36C98.37 24.38 96.99 23.08 96.92 21.32C96.84 19.48 98.26 17.96 100.07 17.94Z" fill="#1A1818" fill-opacity="1.000000" fill-rule="evenodd"/>
		</g>
	</g>
	<g mask="url(#mask1_19727)">
		<g style="mix-blend-mode:normal">
			<path id="Path 20795" d="M118.24 35.6C120.02 35.52 121.59 37 121.6 38.79C121.63 40.6 120.15 42.05 118.31 42.02C116.54 41.98 115.22 40.64 115.2 38.86C115.18 37.1 116.51 35.68 118.24 35.6Z" fill="#1A1818" fill-opacity="1.000000" fill-rule="evenodd"/>
		</g>
	</g>
	<g mask="url(#mask1_19727)">
		<g style="mix-blend-mode:normal">
			<path id="Path 20796" d="M127.47 44.44C129.21 44.41 130.76 45.95 130.73 47.7C130.69 49.49 129.2 50.87 127.37 50.8C125.6 50.73 124.35 49.39 124.38 47.6C124.4 45.88 125.77 44.48 127.47 44.44Z" fill="#1A1818" fill-opacity="1.000000" fill-rule="evenodd"/>
		</g>
	</g>
	<g mask="url(#mask1_19727)">
		<g style="mix-blend-mode:normal">
			<path id="Path 20797" d="M90.83 15.5C89.07 15.44 87.8 14.11 87.82 12.32C87.83 10.59 89.18 9.19 90.88 9.15C92.64 9.1 94.19 10.63 94.17 12.37C94.15 14.16 92.66 15.56 90.83 15.5Z" fill="#1A1818" fill-opacity="1.000000" fill-rule="evenodd"/>
		</g>
	</g>
	<g mask="url(#mask1_19727)">
		<g style="mix-blend-mode:normal">
			<path id="Path 20798" d="M236.26 96.46C237.92 96.46 239.38 97.87 239.46 99.54C239.53 101.32 238.09 102.8 236.27 102.81C234.5 102.82 233.16 101.55 233.11 99.78C233.05 97.97 234.47 96.47 236.26 96.46Z" fill="#1A1818" fill-opacity="1.000000" fill-rule="evenodd"/>
		</g>
	</g>
	<g mask="url(#mask1_19727)">
		<g style="mix-blend-mode:normal">
			<path id="Path 20799" d="M81.67 6.67C79.91 6.6 78.66 5.26 78.68 3.48L85.04 3.56C85 5.35 83.5 6.73 81.67 6.67Z" fill="#1A1818" fill-opacity="1.000000" fill-rule="evenodd"/>
		</g>
	</g>
	<g mask="url(#mask1_19727)">
		<g style="mix-blend-mode:normal">
			<path id="Path 20800" d="M136.67 53.3C138.34 53.31 139.81 54.76 139.84 56.43C139.87 58.2 138.37 59.64 136.55 59.59C134.78 59.55 133.52 58.2 133.55 56.42C133.57 54.7 134.99 53.28 136.67 53.3Z" fill="#1A1818" fill-opacity="1.000000" fill-rule="evenodd"/>
		</g>
	</g>
	<g mask="url(#mask1_19727)">
		<g style="mix-blend-mode:normal">
			<path id="Path 20801" d="M181.93 79.46C183.68 79.39 185.26 80.96 185.23 82.69C185.2 84.38 183.77 85.75 182.05 85.76C180.27 85.77 178.96 84.48 178.93 82.7C178.9 80.97 180.24 79.52 181.93 79.46Z" fill="#1A1818" fill-opacity="1.000000" fill-rule="evenodd"/>
		</g>
	</g>
	<g mask="url(#mask1_19727)">
		<g style="mix-blend-mode:normal">
			<path id="Path 20802" d="M145.71 62.15C147.35 62.1 148.89 63.55 148.95 65.21C149.01 66.88 147.61 68.34 145.89 68.4C144.13 68.45 142.76 67.16 142.71 65.4C142.66 63.68 144.03 62.2 145.71 62.15Z" fill="#1A1818" fill-opacity="1.000000" fill-rule="evenodd"/>
		</g>
	</g>
	<g mask="url(#mask1_19727)">
		<g style="mix-blend-mode:normal">
			<path id="Path 20803" d="M218.28 96.87C219.95 96.87 221.44 98.36 221.41 100.03C221.38 101.64 220.03 102.99 218.41 103.05C216.65 103.11 215.26 101.81 215.22 100.04C215.18 98.33 216.59 96.86 218.28 96.87Z" fill="#1A1818" fill-opacity="1.000000" fill-rule="evenodd"/>
		</g>
	</g>
	<g mask="url(#mask1_19727)">
		<g style="mix-blend-mode:normal">
			<path id="Path 20804" d="M263.3 105.07C264.98 105.04 266.47 106.51 266.48 108.18C266.47 109.79 265.14 111.17 263.52 111.25C261.76 111.33 260.35 110.04 260.29 108.29C260.23 106.57 261.61 105.1 263.3 105.07Z" fill="#1A1818" fill-opacity="1.000000" fill-rule="evenodd"/>
		</g>
	</g>
	<g mask="url(#mask1_19727)">
		<g style="mix-blend-mode:normal">
			<path id="Path 20805" d="M191.12 88.41C192.82 88.36 194.29 89.83 194.25 91.53C194.22 93.16 192.88 94.49 191.24 94.52C189.51 94.55 188.11 93.16 188.13 91.42C188.16 89.79 189.5 88.43 191.12 88.41Z" fill="#1A1818" fill-opacity="1.000000" fill-rule="evenodd"/>
		</g>
	</g>
	<g mask="url(#mask1_19727)">
		<g style="mix-blend-mode:normal">
			<path id="Path 20806" d="M154.97 71.06C156.59 71.09 157.96 72.44 158 74.06C158.05 75.76 156.63 77.2 154.9 77.18C153.17 77.16 151.81 75.72 151.89 73.99C151.96 72.36 153.35 71.04 154.97 71.06Z" fill="#1A1818" fill-opacity="1.000000" fill-rule="evenodd"/>
		</g>
	</g>
	<g mask="url(#mask1_19727)">
		<g style="mix-blend-mode:normal">
			<path id="Path 20807" d="M245.38 105.48C247.04 105.48 248.37 106.77 248.4 108.44C248.44 110.18 247.02 111.59 245.29 111.52C243.65 111.47 242.35 110.08 242.36 108.45C242.39 106.8 243.72 105.49 245.38 105.48Z" fill="#1A1818" fill-opacity="1.000000" fill-rule="evenodd"/>
		</g>
	</g>
	<g mask="url(#mask1_19727)">
		<g style="mix-blend-mode:normal">
			<path id="Path 20808" d="M164.06 80.01C165.75 80 167.03 81.28 167.03 82.96C167.03 84.63 165.71 85.97 164.07 85.97C162.47 85.96 161.08 84.58 161.07 82.97C161.07 81.32 162.38 80.02 164.06 80.01Z" fill="#1A1818" fill-opacity="1.000000" fill-rule="evenodd"/>
		</g>
	</g>
	<g mask="url(#mask1_19727)">
		<g style="mix-blend-mode:normal">
			<path id="Path 20809" d="M200.3 97.39C202 97.37 203.26 98.63 203.24 100.35C203.22 101.94 202 103.21 200.44 103.27C198.85 103.34 197.39 101.98 197.34 100.38C197.3 98.74 198.62 97.4 200.3 97.39Z" fill="#1A1818" fill-opacity="1.000000" fill-rule="evenodd"/>
		</g>
	</g>
	<g mask="url(#mask1_19727)">
		<g style="mix-blend-mode:normal">
			<path id="Path 20810" d="M100.53 36.23C102.23 36.29 103.41 37.61 103.32 39.34C103.23 40.91 101.94 42.14 100.39 42.13C98.79 42.11 97.39 40.67 97.43 39.08C97.47 37.42 98.83 36.18 100.53 36.23Z" fill="#1A1818" fill-opacity="1.000000" fill-rule="evenodd"/>
		</g>
	</g>
	<g mask="url(#mask1_19727)">
		<g style="mix-blend-mode:normal">
			<path id="Path 20811" d="M227.57 105.9C229.17 105.97 230.33 107.18 230.34 108.8C230.35 110.47 229 111.83 227.38 111.79C225.77 111.76 224.39 110.31 224.44 108.72C224.5 107.07 225.87 105.83 227.57 105.9Z" fill="#1A1818" fill-opacity="1.000000" fill-rule="evenodd"/>
		</g>
	</g>
	<g mask="url(#mask1_19727)">
		<g style="mix-blend-mode:normal">
			<path id="Path 20812" d="M91.3 27.44C92.92 27.44 94.12 28.61 94.16 30.24C94.2 31.91 92.86 33.3 91.24 33.28C89.75 33.25 88.37 31.91 88.32 30.41C88.26 28.79 89.62 27.43 91.3 27.44Z" fill="#1A1818" fill-opacity="1.000000" fill-rule="evenodd"/>
		</g>
	</g>
	<g mask="url(#mask1_19727)">
		<g style="mix-blend-mode:normal">
			<path id="Path 20813" d="M82.14 18.61C83.77 18.61 84.97 19.78 85.01 21.4C85.06 23.07 83.73 24.46 82.11 24.45C80.63 24.43 79.24 23.08 79.18 21.6C79.11 19.98 80.47 18.61 82.14 18.61Z" fill="#1A1818" fill-opacity="1.000000" fill-rule="evenodd"/>
		</g>
	</g>
	<g mask="url(#mask1_19727)">
		<g style="mix-blend-mode:normal">
			<path id="Path 20814" d="M272.41 114.12C274.04 114.09 275.28 115.22 275.37 116.83C275.46 118.51 274.2 119.92 272.57 119.96C270.98 120 269.51 118.56 269.54 116.98C269.56 115.43 270.83 114.17 272.41 114.12Z" fill="#1A1818" fill-opacity="1.000000" fill-rule="evenodd"/>
		</g>
	</g>
	<g mask="url(#mask1_19727)">
		<g style="mix-blend-mode:normal">
			<path id="Path 20815" d="M109.54 45.09C111.17 45.08 112.38 46.24 112.43 47.87C112.49 49.54 111.17 50.94 109.55 50.93C108.06 50.92 106.66 49.58 106.59 48.09C106.52 46.47 107.87 45.09 109.54 45.09Z" fill="#1A1818" fill-opacity="1.000000" fill-rule="evenodd"/>
		</g>
	</g>
	<g mask="url(#mask1_19727)">
		<g style="mix-blend-mode:normal">
			<path id="Path 20816" d="M118.73 53.92C120.36 53.94 121.54 55.1 121.57 56.74C121.61 58.41 120.26 59.79 118.64 59.75C117.14 59.72 115.77 58.37 115.73 56.87C115.69 55.24 117.06 53.9 118.73 53.92Z" fill="#1A1818" fill-opacity="1.000000" fill-rule="evenodd"/>
		</g>
	</g>
	<g mask="url(#mask1_19727)">
		<g style="mix-blend-mode:normal">
			<path id="Path 20817" d="M127.75 62.76C129.37 62.72 130.62 63.88 130.69 65.49C130.76 67.08 129.57 68.42 128.02 68.54C126.43 68.65 124.92 67.25 124.91 65.65C124.91 64.11 126.18 62.81 127.75 62.76Z" fill="#1A1818" fill-opacity="1.000000" fill-rule="evenodd"/>
		</g>
	</g>
	<g mask="url(#mask1_19727)">
		<g style="mix-blend-mode:normal">
			<path id="Path 20818" d="M73.16 15.58C71.58 15.68 70.07 14.27 70.07 12.67C70.08 11.13 71.35 9.85 72.94 9.81C74.55 9.77 75.8 10.95 75.85 12.56C75.9 14.14 74.72 15.48 73.16 15.58Z" fill="#1A1818" fill-opacity="1.000000" fill-rule="evenodd"/>
		</g>
	</g>
	<g mask="url(#mask1_19727)">
		<g style="mix-blend-mode:normal">
			<path id="Path 20819" d="M173.27 88.93C174.88 88.95 176.08 90.18 176.07 91.8C176.07 93.37 174.81 94.68 173.26 94.71C171.67 94.73 170.23 93.25 170.3 91.68C170.37 90.12 171.68 88.91 173.27 88.93Z" fill="#1A1818" fill-opacity="1.000000" fill-rule="evenodd"/>
		</g>
	</g>
	<g mask="url(#mask1_19727)">
		<g style="mix-blend-mode:normal">
			<path id="Path 20820" d="M254.45 114.49C256.05 114.44 257.32 115.65 257.36 117.24C257.41 118.82 256.16 120.15 254.61 120.2C253.08 120.24 251.7 118.94 251.65 117.4C251.61 115.87 252.88 114.53 254.45 114.49Z" fill="#1A1818" fill-opacity="1.000000" fill-rule="evenodd"/>
		</g>
	</g>
	<g mask="url(#mask1_19727)">
		<g style="mix-blend-mode:normal">
			<path id="Path 20821" d="M63.81 6.73C62.28 6.7 60.96 5.33 60.98 3.81L66.7 3.88C66.67 5.44 65.35 6.76 63.81 6.73Z" fill="#1A1818" fill-opacity="1.000000" fill-rule="evenodd"/>
		</g>
	</g>
	<g mask="url(#mask1_19727)">
		<g style="mix-blend-mode:normal">
			<path id="Path 20822" d="M209.39 106.31C210.96 106.26 212.26 107.52 212.27 109.09C212.29 110.66 210.98 111.97 209.43 111.95C207.95 111.92 206.71 110.74 206.64 109.25C206.56 107.7 207.82 106.35 209.39 106.31Z" fill="#1A1818" fill-opacity="1.000000" fill-rule="evenodd"/>
		</g>
	</g>
	<g mask="url(#mask1_19727)">
		<g style="mix-blend-mode:normal">
			<path id="Path 20823" d="M137.06 71.63C138.54 71.67 139.74 72.86 139.78 74.35C139.83 75.92 138.57 77.25 137 77.27C135.44 77.28 134.14 75.99 134.15 74.42C134.17 72.86 135.49 71.59 137.06 71.63Z" fill="#1A1818" fill-opacity="1.000000" fill-rule="evenodd"/>
		</g>
	</g>
	<g mask="url(#mask1_19727)">
		<g style="mix-blend-mode:normal">
			<path id="Path 20824" d="M182.26 97.82C183.82 97.77 185.16 99.06 185.14 100.61C185.15 102.18 183.82 103.43 182.23 103.37C180.72 103.31 179.59 102.13 179.6 100.59C179.61 99.09 180.79 97.87 182.26 97.82Z" fill="#1A1818" fill-opacity="1.000000" fill-rule="evenodd"/>
		</g>
	</g>
	<g mask="url(#mask1_19727)">
		<g style="mix-blend-mode:normal">
			<path id="Path 20825" d="M145.97 80.48C147.53 80.4 148.88 81.68 148.9 83.23C148.92 84.71 147.76 85.94 146.26 86.02C144.73 86.1 143.5 85.04 143.37 83.52C143.24 81.94 144.42 80.56 145.97 80.48Z" fill="#1A1818" fill-opacity="1.000000" fill-rule="evenodd"/>
		</g>
	</g>
	<g mask="url(#mask1_19727)">
		<g style="mix-blend-mode:normal">
			<path id="Path 20826" d="M236.43 114.84C237.98 114.77 239.33 116.04 239.36 117.6C239.38 119.16 238.07 120.43 236.49 120.4C234.97 120.36 233.83 119.19 233.81 117.66C233.79 116.16 234.96 114.92 236.43 114.84Z" fill="#1A1818" fill-opacity="1.000000" fill-rule="evenodd"/>
		</g>
	</g>
	<g mask="url(#mask1_19727)">
		<g style="mix-blend-mode:normal">
			<path id="Path 20827" d="M191.41 106.73C192.8 106.68 194.18 108 194.2 109.4C194.23 110.77 193.1 111.97 191.7 112.07C190.17 112.18 188.93 111.11 188.86 109.58C188.78 108.08 189.94 106.78 191.41 106.73Z" fill="#1A1818" fill-opacity="1.000000" fill-rule="evenodd"/>
		</g>
	</g>
	<g mask="url(#mask1_19727)">
		<g style="mix-blend-mode:normal">
			<path id="Path 20828" d="M155.22 89.39C156.63 89.37 157.98 90.73 157.97 92.11C157.95 93.49 156.82 94.66 155.41 94.73C153.86 94.82 152.66 93.72 152.61 92.18C152.57 90.67 153.76 89.4 155.22 89.39Z" fill="#1A1818" fill-opacity="1.000000" fill-rule="evenodd"/>
		</g>
	</g>
	<g mask="url(#mask1_19727)">
		<g style="mix-blend-mode:normal">
			<path id="Path 20829" d="M263.66 123.44C264.99 123.44 266.27 124.63 266.37 125.96C266.49 127.41 265.3 128.71 263.81 128.78C262.26 128.85 261.07 127.75 261.03 126.21C261 124.71 262.21 123.43 263.66 123.44Z" fill="#1A1818" fill-opacity="1.000000" fill-rule="evenodd"/>
		</g>
	</g>
	<g mask="url(#mask1_19727)">
		<g style="mix-blend-mode:normal">
			<path id="Path 20830" d="M218.56 115.24C219.96 115.22 221.32 116.57 221.32 117.96C221.3 119.34 220.16 120.51 218.76 120.58C217.22 120.66 216.02 119.57 215.96 118.04C215.91 116.53 217.1 115.25 218.56 115.24Z" fill="#1A1818" fill-opacity="1.000000" fill-rule="evenodd"/>
		</g>
	</g>
	<g mask="url(#mask1_19727)">
		<g style="mix-blend-mode:normal">
			<path id="Path 20831" d="M91.43 45.62C92.85 45.53 94.22 46.8 94.25 48.23C94.27 49.62 93.15 50.81 91.75 50.89C90.31 50.98 89.12 49.96 88.99 48.55C88.84 47.05 89.95 45.72 91.43 45.62Z" fill="#1A1818" fill-opacity="1.000000" fill-rule="evenodd"/>
		</g>
	</g>
	<g mask="url(#mask1_19727)">
		<g style="mix-blend-mode:normal">
			<path id="Path 20832" d="M82.4 36.8C83.84 36.77 85.16 38.1 85.12 39.52C85.08 40.91 83.9 42.05 82.51 42.07C80.98 42.1 79.8 40.91 79.83 39.39C79.87 37.98 81.02 36.82 82.4 36.8Z" fill="#1A1818" fill-opacity="1.000000" fill-rule="evenodd"/>
		</g>
	</g>
	<g mask="url(#mask1_19727)">
		<g style="mix-blend-mode:normal">
			<path id="Path 20833" d="M100.66 54.45C102.09 54.41 103.42 55.73 103.4 57.15C103.36 58.63 102.08 59.81 100.57 59.72C99.15 59.64 98.09 58.5 98.12 57.06C98.14 55.65 99.28 54.49 100.66 54.45Z" fill="#1A1818" fill-opacity="1.000000" fill-rule="evenodd"/>
		</g>
	</g>
	<g mask="url(#mask1_19727)">
		<g style="mix-blend-mode:normal">
			<path id="Path 20834" d="M73.17 28.02C74.55 27.94 75.79 29.05 75.9 30.44C76.03 31.92 74.83 33.21 73.33 33.23C71.92 33.24 70.76 32.13 70.72 30.72C70.67 29.31 71.78 28.1 73.17 28.02Z" fill="#1A1818" fill-opacity="1.000000" fill-rule="evenodd"/>
		</g>
	</g>
	<g mask="url(#mask1_19727)">
		<g style="mix-blend-mode:normal">
			<path id="Path 20835" d="M245.68 123.85C247.06 123.84 248.27 124.99 248.31 126.38C248.36 127.87 247.12 129.11 245.62 129.06C244.21 129.02 243.1 127.85 243.11 126.43C243.12 125.03 244.28 123.87 245.68 123.85Z" fill="#1A1818" fill-opacity="1.000000" fill-rule="evenodd"/>
		</g>
	</g>
	<g mask="url(#mask1_19727)">
		<g style="mix-blend-mode:normal">
			<path id="Path 20836" d="M164.4 98.33C165.8 98.33 166.97 99.49 166.99 100.88C167.02 102.37 165.75 103.58 164.27 103.51C162.86 103.44 161.77 102.26 161.8 100.86C161.83 99.45 163 98.32 164.4 98.33Z" fill="#1A1818" fill-opacity="1.000000" fill-rule="evenodd"/>
		</g>
	</g>
	<g mask="url(#mask1_19727)">
		<g style="mix-blend-mode:normal">
			<path id="Path 20837" d="M109.97 63.34C111.37 63.4 112.51 64.6 112.48 65.99C112.44 67.38 111.26 68.52 109.87 68.53C108.46 68.53 107.31 67.41 107.28 66C107.24 64.51 108.49 63.28 109.97 63.34Z" fill="#1A1818" fill-opacity="1.000000" fill-rule="evenodd"/>
		</g>
	</g>
	<g mask="url(#mask1_19727)">
		<g style="mix-blend-mode:normal">
			<path id="Path 20838" d="M64.12 19.28C65.58 19.25 66.69 20.33 66.7 21.77C66.71 23.21 65.59 24.36 64.2 24.37C62.81 24.38 61.63 23.23 61.6 21.85C61.58 20.45 62.7 19.3 64.12 19.28Z" fill="#1A1818" fill-opacity="1.000000" fill-rule="evenodd"/>
		</g>
	</g>
	<g mask="url(#mask1_19727)">
		<g style="mix-blend-mode:normal">
			<path id="Path 20839" d="M119.02 72.24C120.47 72.24 121.55 73.34 121.54 74.79C121.53 76.2 120.37 77.35 118.97 77.33C117.59 77.31 116.43 76.13 116.44 74.75C116.44 73.35 117.58 72.23 119.02 72.24Z" fill="#1A1818" fill-opacity="1.000000" fill-rule="evenodd"/>
		</g>
	</g>
	<g mask="url(#mask1_19727)">
		<g style="mix-blend-mode:normal">
			<path id="Path 20840" d="M173.5 107.32C174.91 107.3 175.89 108.22 175.96 109.62C176.03 111.04 174.92 112.26 173.55 112.26C172.21 112.27 170.97 111.01 171.02 109.68C171.07 108.38 172.17 107.34 173.5 107.32Z" fill="#1A1818" fill-opacity="1.000000" fill-rule="evenodd"/>
		</g>
	</g>
	<g mask="url(#mask1_19727)">
		<g style="mix-blend-mode:normal">
			<path id="Path 20841" d="M128.17 81.11C129.64 81.12 130.67 82.2 130.63 83.68C130.57 85.01 129.53 86.09 128.22 86.12C126.86 86.17 125.63 84.99 125.6 83.63C125.58 82.23 126.73 81.11 128.17 81.11Z" fill="#1A1818" fill-opacity="1.000000" fill-rule="evenodd"/>
		</g>
	</g>
	<g mask="url(#mask1_19727)">
		<g style="mix-blend-mode:normal">
			<path id="Path 20842" d="M200.54 115.79C202.02 115.73 203.09 116.77 203.11 118.24C203.12 119.58 202.12 120.69 200.82 120.8C199.47 120.9 198.18 119.78 198.1 118.41C198.01 117.04 199.12 115.84 200.54 115.79Z" fill="#1A1818" fill-opacity="1.000000" fill-rule="evenodd"/>
		</g>
	</g>
	<g mask="url(#mask1_19727)">
		<g style="mix-blend-mode:normal">
			<path id="Path 20843" d="M227.62 124.3C229.11 124.24 230.19 125.26 230.21 126.74C230.23 128.08 229.24 129.2 227.94 129.31C226.59 129.43 225.31 128.32 225.21 126.95C225.11 125.57 226.21 124.36 227.62 124.3Z" fill="#1A1818" fill-opacity="1.000000" fill-rule="evenodd"/>
		</g>
	</g>
	<g mask="url(#mask1_19727)">
		<g style="mix-blend-mode:normal">
			<path id="Path 20844" d="M272.74 132.54C274.14 132.5 275.16 133.42 275.23 134.81C275.31 136.24 274.24 137.45 272.86 137.48C271.53 137.51 270.27 136.26 270.29 134.94C270.33 133.63 271.42 132.57 272.74 132.54Z" fill="#1A1818" fill-opacity="1.000000" fill-rule="evenodd"/>
		</g>
	</g>
	<g mask="url(#mask1_19727)">
		<g style="mix-blend-mode:normal">
			<path id="Path 20845" d="M45.89 6.67C44.66 6.66 43.45 5.51 43.38 4.28L48.32 4.05C48.38 5.47 47.25 6.68 45.89 6.67Z" fill="#1A1818" fill-opacity="1.000000" fill-rule="evenodd"/>
		</g>
	</g>
	<g mask="url(#mask1_19727)">
		<g style="mix-blend-mode:normal">
			<path id="Path 20846" d="M55.26 15.51C53.92 15.65 52.61 14.55 52.5 13.18C52.37 11.81 53.48 10.58 54.89 10.5C56.37 10.43 57.46 11.44 57.5 12.91C57.54 14.25 56.56 15.38 55.26 15.51Z" fill="#1A1818" fill-opacity="1.000000" fill-rule="evenodd"/>
		</g>
	</g>
	<g mask="url(#mask1_19727)">
		<g style="mix-blend-mode:normal">
			<path id="Path 20847" d="M137.21 90C138.58 89.96 139.63 90.92 139.69 92.29C139.75 93.62 138.76 94.78 137.46 94.88C136.16 94.99 134.81 93.76 134.81 92.43C134.79 91.15 135.89 90.04 137.21 90Z" fill="#1A1818" fill-opacity="1.000000" fill-rule="evenodd"/>
		</g>
	</g>
	<g mask="url(#mask1_19727)">
		<g style="mix-blend-mode:normal">
			<path id="Path 20848" d="M254.78 132.91C256.11 132.87 257.19 133.89 257.22 135.23C257.26 136.54 256.2 137.67 254.91 137.71C253.65 137.74 252.46 136.61 252.42 135.35C252.39 134.07 253.47 132.95 254.78 132.91Z" fill="#1A1818" fill-opacity="1.000000" fill-rule="evenodd"/>
		</g>
	</g>
	<g mask="url(#mask1_19727)">
		<g style="mix-blend-mode:normal">
			<path id="Path 20849" d="M209.76 124.73C211.07 124.72 212.15 125.81 212.13 127.12C212.12 128.36 211.14 129.37 209.91 129.44C208.59 129.52 207.45 128.47 207.41 127.16C207.37 125.85 208.44 124.74 209.76 124.73Z" fill="#1A1818" fill-opacity="1.000000" fill-rule="evenodd"/>
		</g>
	</g>
	<g mask="url(#mask1_19727)">
		<g style="mix-blend-mode:normal">
			<path id="Path 20850" d="M146.39 98.88C147.63 98.87 148.69 99.85 148.78 101.09C148.86 102.43 147.81 103.56 146.47 103.59C145.21 103.6 144.15 102.63 144.08 101.38C144 100.04 145.05 98.9 146.39 98.88Z" fill="#1A1818" fill-opacity="1.000000" fill-rule="evenodd"/>
		</g>
	</g>
	<g mask="url(#mask1_19727)">
		<g style="mix-blend-mode:normal">
			<path id="Path 20851" d="M182.73 116.22C184.06 116.26 185.12 117.43 185.02 118.75C184.93 120 183.87 120.96 182.61 120.93C181.27 120.9 180.24 119.75 180.34 118.4C180.42 117.14 181.47 116.19 182.73 116.22Z" fill="#1A1818" fill-opacity="1.000000" fill-rule="evenodd"/>
		</g>
	</g>
	<g mask="url(#mask1_19727)">
		<g style="mix-blend-mode:normal">
			<path id="Path 20852" d="M155.54 107.77C156.72 107.76 157.84 108.84 157.86 110.03C157.88 111.25 156.88 112.26 155.6 112.28C154.28 112.31 153.35 111.41 153.35 110.08C153.34 108.8 154.31 107.78 155.54 107.77Z" fill="#1A1818" fill-opacity="1.000000" fill-rule="evenodd"/>
		</g>
	</g>
	<g mask="url(#mask1_19727)">
		<g style="mix-blend-mode:normal">
			<path id="Path 20853" d="M236.81 133.27C238.1 133.23 239.26 134.39 239.22 135.68C239.16 136.92 238.13 137.88 236.86 137.87C235.57 137.87 234.61 136.92 234.61 135.61C234.6 134.33 235.56 133.31 236.81 133.27Z" fill="#1A1818" fill-opacity="1.000000" fill-rule="evenodd"/>
		</g>
	</g>
	<g mask="url(#mask1_19727)">
		<g style="mix-blend-mode:normal">
			<path id="Path 20854" d="M64.49 37.48C65.68 37.48 66.77 38.58 66.78 39.76C66.79 40.98 65.77 41.98 64.49 41.99C63.17 42 62.26 41.09 62.26 39.76C62.27 38.48 63.26 37.47 64.49 37.48Z" fill="#1A1818" fill-opacity="1.000000" fill-rule="evenodd"/>
		</g>
	</g>
	<g mask="url(#mask1_19727)">
		<g style="mix-blend-mode:normal">
			<path id="Path 20855" d="M73.56 46.29C74.74 46.26 75.87 47.32 75.92 48.51C75.97 49.75 75 50.76 73.71 50.82C72.36 50.87 71.44 49.99 71.4 48.66C71.36 47.38 72.32 46.34 73.56 46.29Z" fill="#1A1818" fill-opacity="1.000000" fill-rule="evenodd"/>
		</g>
	</g>
	<g mask="url(#mask1_19727)">
		<g style="mix-blend-mode:normal">
			<path id="Path 20856" d="M82.7 55.12C83.89 55.09 85.01 56.15 85.06 57.34C85.1 58.58 84.13 59.6 82.85 59.64C81.5 59.69 80.57 58.81 80.54 57.49C80.51 56.2 81.47 55.16 82.7 55.12Z" fill="#1A1818" fill-opacity="1.000000" fill-rule="evenodd"/>
		</g>
	</g>
	<g mask="url(#mask1_19727)">
		<g style="mix-blend-mode:normal">
			<path id="Path 20857" d="M101.12 72.78C102.3 72.83 103.39 73.97 103.34 75.13C103.31 76.35 102.24 77.32 100.98 77.3C99.67 77.28 98.79 76.33 98.82 74.99C98.87 73.73 99.9 72.73 101.12 72.78Z" fill="#1A1818" fill-opacity="1.000000" fill-rule="evenodd"/>
		</g>
	</g>
	<g mask="url(#mask1_19727)">
		<g style="mix-blend-mode:normal">
			<path id="Path 20858" d="M91.8 63.95C92.98 63.88 94.13 64.93 94.2 66.12C94.27 67.35 93.3 68.4 92.03 68.46C90.68 68.54 89.73 67.69 89.68 66.36C89.63 65.08 90.57 64.01 91.8 63.95Z" fill="#1A1818" fill-opacity="1.000000" fill-rule="evenodd"/>
		</g>
	</g>
	<g mask="url(#mask1_19727)">
		<g style="mix-blend-mode:normal">
			<path id="Path 20859" d="M191.67 125.15C192.81 125.06 194.01 126.14 194.07 127.3C194.12 128.51 193.1 129.57 191.85 129.59C190.54 129.61 189.61 128.69 189.62 127.37C189.64 126.22 190.55 125.22 191.67 125.15Z" fill="#1A1818" fill-opacity="1.000000" fill-rule="evenodd"/>
		</g>
	</g>
	<g mask="url(#mask1_19727)">
		<g style="mix-blend-mode:normal">
			<path id="Path 20860" d="M55.36 28.69C56.53 28.7 57.66 29.87 57.61 31.01C57.57 32.13 56.6 33.08 55.44 33.13C54.12 33.19 53.18 32.3 53.15 30.98C53.14 29.71 54.16 28.66 55.36 28.69Z" fill="#1A1818" fill-opacity="1.000000" fill-rule="evenodd"/>
		</g>
	</g>
	<g mask="url(#mask1_19727)">
		<g style="mix-blend-mode:normal">
			<path id="Path 20861" d="M110.25 81.64C111.42 81.69 112.52 82.87 112.44 84.01C112.37 85.15 111.4 86.06 110.23 86.08C108.92 86.12 107.99 85.2 107.99 83.88C108 82.63 109.05 81.59 110.25 81.64Z" fill="#1A1818" fill-opacity="1.000000" fill-rule="evenodd"/>
		</g>
	</g>
	<g mask="url(#mask1_19727)">
		<g style="mix-blend-mode:normal">
			<path id="Path 20862" d="M263.85 141.91C265 141.83 266.18 142.94 266.19 144.09C266.21 145.2 265.25 146.2 264.12 146.26C262.93 146.34 261.96 145.53 261.83 144.35C261.71 143.13 262.65 141.98 263.85 141.91Z" fill="#1A1818" fill-opacity="1.000000" fill-rule="evenodd"/>
		</g>
	</g>
	<g mask="url(#mask1_19727)">
		<g style="mix-blend-mode:normal">
			<path id="Path 20863" d="M46.17 19.91C47.33 19.89 48.46 21.03 48.42 22.18C48.37 23.39 47.25 24.37 46.02 24.28C44.85 24.18 44.01 23.25 44.04 22.05C44.08 20.91 45.05 19.94 46.17 19.91Z" fill="#1A1818" fill-opacity="1.000000" fill-rule="evenodd"/>
		</g>
	</g>
	<g mask="url(#mask1_19727)">
		<g style="mix-blend-mode:normal">
			<path id="Path 20864" d="M119.36 90.59C120.5 90.61 121.49 91.61 121.46 92.77C121.44 93.91 120.44 94.88 119.28 94.86C118.11 94.84 117.17 93.87 117.19 92.7C117.2 91.53 118.19 90.58 119.36 90.59Z" fill="#1A1818" fill-opacity="1.000000" fill-rule="evenodd"/>
		</g>
	</g>
	<g mask="url(#mask1_19727)">
		<g style="mix-blend-mode:normal">
			<path id="Path 20865" d="M218.81 133.7C219.97 133.64 221.17 134.81 221.12 135.97C221.09 137.11 220.07 138.08 218.91 138.07C217.7 138.07 216.78 137.18 216.76 135.96C216.73 134.8 217.67 133.77 218.81 133.7Z" fill="#1A1818" fill-opacity="1.000000" fill-rule="evenodd"/>
		</g>
	</g>
	<g mask="url(#mask1_19727)">
		<g style="mix-blend-mode:normal">
			<path id="Path 20866" d="M164.65 116.77C165.84 116.74 166.81 117.67 166.83 118.86C166.85 120.02 165.9 121 164.74 121.02C163.57 121.04 162.6 120.11 162.57 118.94C162.54 117.78 163.5 116.79 164.65 116.77Z" fill="#1A1818" fill-opacity="1.000000" fill-rule="evenodd"/>
		</g>
	</g>
	<g mask="url(#mask1_19727)">
		<g style="mix-blend-mode:normal">
			<path id="Path 20867" d="M128.44 99.51C129.58 99.5 130.4 100.26 130.49 101.39C130.57 102.59 129.73 103.58 128.57 103.65C127.45 103.7 126.4 102.74 126.36 101.63C126.31 100.48 127.25 99.53 128.44 99.51Z" fill="#1A1818" fill-opacity="1.000000" fill-rule="evenodd"/>
		</g>
	</g>
	<g mask="url(#mask1_19727)">
		<g style="mix-blend-mode:normal">
			<path id="Path 20868" d="M37.09 15.4C35.97 15.41 34.95 14.41 34.96 13.29C34.97 12.12 35.93 11.21 37.13 11.25C38.27 11.28 39.07 12.07 39.11 13.22C39.16 14.4 38.24 15.39 37.09 15.4Z" fill="#1A1818" fill-opacity="1.000000" fill-rule="evenodd"/>
		</g>
	</g>
	<g mask="url(#mask1_19727)">
		<g style="mix-blend-mode:normal">
			<path id="Path 20869" d="M245.94 142.37C247.15 142.33 248.06 143.21 248.07 144.43C248.07 145.52 247.25 146.44 246.18 146.52C245.06 146.62 243.99 145.7 243.91 144.56C243.84 143.41 244.76 142.41 245.94 142.37Z" fill="#1A1818" fill-opacity="1.000000" fill-rule="evenodd"/>
		</g>
	</g>
	<g mask="url(#mask1_19727)">
		<g style="mix-blend-mode:normal">
			<path id="Path 20870" d="M200.83 134.24C202.01 134.18 202.85 134.93 202.93 136.08C203.01 137.29 202.09 138.32 200.93 138.3C199.92 138.28 198.91 137.3 198.88 136.28C198.85 135.21 199.72 134.3 200.83 134.24Z" fill="#1A1818" fill-opacity="1.000000" fill-rule="evenodd"/>
		</g>
	</g>
	<g mask="url(#mask1_19727)">
		<g style="mix-blend-mode:normal">
			<path id="Path 20871" d="M137.63 108.43C138.76 108.44 139.58 109.28 139.56 110.43C139.54 111.51 138.61 112.44 137.56 112.41C136.55 112.38 135.56 111.35 135.58 110.35C135.6 109.28 136.52 108.41 137.63 108.43Z" fill="#1A1818" fill-opacity="1.000000" fill-rule="evenodd"/>
		</g>
	</g>
	<g mask="url(#mask1_19727)">
		<g style="mix-blend-mode:normal">
			<path id="Path 20872" d="M173.87 125.76C175.01 125.77 175.83 126.62 175.8 127.76C175.78 128.86 174.86 129.78 173.8 129.75C172.79 129.71 171.8 128.69 171.81 127.68C171.84 126.61 172.76 125.75 173.87 125.76Z" fill="#1A1818" fill-opacity="1.000000" fill-rule="evenodd"/>
		</g>
	</g>
	<g mask="url(#mask1_19727)">
		<g style="mix-blend-mode:normal">
			<path id="Path 20873" d="M27.97 6.5C26.98 6.52 25.93 5.51 25.89 4.52L29.88 4.43C29.9 5.53 29.03 6.47 27.97 6.5Z" fill="#1A1818" fill-opacity="1.000000" fill-rule="evenodd"/>
		</g>
	</g>
	<g mask="url(#mask1_19727)">
		<g style="mix-blend-mode:normal">
			<path id="Path 20874" d="M227.96 142.78C229.11 142.73 229.96 143.51 230.01 144.66C230.05 145.77 229.2 146.72 228.13 146.76C227.14 146.8 226.07 145.83 226.02 144.84C225.96 143.78 226.86 142.83 227.96 142.78Z" fill="#1A1818" fill-opacity="1.000000" fill-rule="evenodd"/>
		</g>
	</g>
	<g mask="url(#mask1_19727)">
		<g style="mix-blend-mode:normal">
			<path id="Path 20875" d="M273.15 151.01C274.16 151.03 274.97 151.79 275.04 152.8C275.12 153.88 274.28 154.85 273.2 154.89C272.19 154.94 271.18 153.99 271.16 152.97C271.14 151.91 272.06 151 273.15 151.01Z" fill="#1A1818" fill-opacity="1.000000" fill-rule="evenodd"/>
		</g>
	</g>
	<g mask="url(#mask1_19727)">
		<g style="mix-blend-mode:normal">
			<path id="Path 20876" d="M83.06 73.49C84.14 73.49 85.04 74.45 84.96 75.53C84.89 76.52 84.02 77.28 82.99 77.24C81.95 77.2 81.2 76.4 81.22 75.35C81.25 74.33 82.06 73.5 83.06 73.49Z" fill="#1A1818" fill-opacity="1.000000" fill-rule="evenodd"/>
		</g>
	</g>
	<g mask="url(#mask1_19727)">
		<g style="mix-blend-mode:normal">
			<path id="Path 20877" d="M64.77 55.84C65.85 55.83 66.76 56.79 66.69 57.86C66.61 58.86 65.74 59.63 64.72 59.6C63.69 59.56 62.92 58.76 62.93 57.7C62.96 56.69 63.78 55.86 64.77 55.84Z" fill="#1A1818" fill-opacity="1.000000" fill-rule="evenodd"/>
		</g>
	</g>
	<g mask="url(#mask1_19727)">
		<g style="mix-blend-mode:normal">
			<path id="Path 20878" d="M73.82 64.67C74.89 64.6 75.85 65.52 75.83 66.59C75.82 67.59 74.97 68.41 73.96 68.42C72.91 68.44 72.1 67.68 72.07 66.63C72.04 65.61 72.82 64.74 73.82 64.67Z" fill="#1A1818" fill-opacity="1.000000" fill-rule="evenodd"/>
		</g>
	</g>
	<g mask="url(#mask1_19727)">
		<g style="mix-blend-mode:normal">
			<path id="Path 20879" d="M255.1 151.39C256.05 151.37 256.97 152.22 257.01 153.16C257.06 154.14 256.26 154.99 255.24 155.03C254.17 155.08 253.41 154.38 253.38 153.31C253.34 152.29 254.12 151.43 255.1 151.39Z" fill="#1A1818" fill-opacity="1.000000" fill-rule="evenodd"/>
		</g>
	</g>
	<g mask="url(#mask1_19727)">
		<g style="mix-blend-mode:normal">
			<path id="Path 20880" d="M92.2 82.36C93.15 82.35 94.06 83.22 94.07 84.17C94.1 85.16 93.28 85.97 92.25 86C91.18 86.03 90.45 85.31 90.44 84.23C90.43 83.21 91.22 82.36 92.2 82.36Z" fill="#1A1818" fill-opacity="1.000000" fill-rule="evenodd"/>
		</g>
	</g>
	<g mask="url(#mask1_19727)">
		<g style="mix-blend-mode:normal">
			<path id="Path 20881" d="M210.03 143.2C210.98 143.17 211.9 144.02 211.94 144.97C211.99 145.95 211.19 146.79 210.17 146.84C209.08 146.88 208.33 146.18 208.3 145.11C208.28 144.09 209.05 143.23 210.03 143.2Z" fill="#1A1818" fill-opacity="1.000000" fill-rule="evenodd"/>
		</g>
	</g>
	<g mask="url(#mask1_19727)">
		<g style="mix-blend-mode:normal">
			<path id="Path 20882" d="M146.79 117.35C147.74 117.38 148.62 118.29 148.6 119.23C148.59 120.19 147.72 121 146.71 121C145.64 120.99 144.93 120.24 144.95 119.16C144.98 118.13 145.81 117.31 146.79 117.35Z" fill="#1A1818" fill-opacity="1.000000" fill-rule="evenodd"/>
		</g>
	</g>
	<g mask="url(#mask1_19727)">
		<g style="mix-blend-mode:normal">
			<path id="Path 20883" d="M55.71 47.05C56.66 47.09 57.54 48 57.52 48.94C57.5 49.9 56.63 50.71 55.63 50.7C54.55 50.69 53.85 49.94 53.88 48.85C53.91 47.84 54.73 47.02 55.71 47.05Z" fill="#1A1818" fill-opacity="1.000000" fill-rule="evenodd"/>
		</g>
	</g>
	<g mask="url(#mask1_19727)">
		<g style="mix-blend-mode:normal">
			<path id="Path 20884" d="M182.98 134.68C183.92 134.68 184.82 135.55 184.84 136.5C184.86 137.49 184.06 138.3 183.01 138.33C181.94 138.35 181.2 137.63 181.2 136.55C181.19 135.52 182 134.69 182.98 134.68Z" fill="#1A1818" fill-opacity="1.000000" fill-rule="evenodd"/>
		</g>
	</g>
	<g mask="url(#mask1_19727)">
		<g style="mix-blend-mode:normal">
			<path id="Path 20885" d="M46.41 38.27C47.32 38.21 48.33 39.15 48.33 40.07C48.35 41.05 47.43 41.88 46.42 41.82C45.44 41.78 44.79 41.08 44.78 40.08C44.78 39.14 45.52 38.32 46.41 38.27Z" fill="#1A1818" fill-opacity="1.000000" fill-rule="evenodd"/>
		</g>
	</g>
	<g mask="url(#mask1_19727)">
		<g style="mix-blend-mode:normal">
			<path id="Path 20886" d="M101.39 91.23C102.24 91.26 103.12 92.12 103.16 92.95C103.22 93.92 102.35 94.78 101.33 94.77C100.33 94.76 99.66 94.11 99.62 93.11C99.58 92.09 100.42 91.2 101.39 91.23Z" fill="#1A1818" fill-opacity="1.000000" fill-rule="evenodd"/>
		</g>
	</g>
	<g mask="url(#mask1_19727)">
		<g style="mix-blend-mode:normal">
			<path id="Path 20887" d="M155.79 126.28C156.7 126.24 157.67 127.2 157.63 128.1C157.59 129 156.77 129.75 155.86 129.73C154.92 129.72 154.2 129 154.18 128.06C154.16 127.14 154.9 126.34 155.79 126.28Z" fill="#1A1818" fill-opacity="1.000000" fill-rule="evenodd"/>
		</g>
	</g>
	<g mask="url(#mask1_19727)">
		<g style="mix-blend-mode:normal">
			<path id="Path 20888" d="M35.67 31.39C35.6 30.48 36.29 29.62 37.19 29.51C38.11 29.41 39.12 30.3 39.14 31.23C39.15 32.13 38.39 32.92 37.47 32.96C36.52 33 35.75 32.33 35.67 31.39Z" fill="#1A1818" fill-opacity="1.000000" fill-rule="evenodd"/>
		</g>
	</g>
	<g mask="url(#mask1_19727)">
		<g style="mix-blend-mode:normal">
			<path id="Path 20889" d="M237.08 151.81C237.98 151.74 238.98 152.71 238.95 153.62C238.93 154.51 238.12 155.27 237.2 155.27C236.24 155.27 235.52 154.58 235.48 153.62C235.46 152.7 236.18 151.87 237.08 151.81Z" fill="#1A1818" fill-opacity="1.000000" fill-rule="evenodd"/>
		</g>
	</g>
	<g mask="url(#mask1_19727)">
		<g style="mix-blend-mode:normal">
			<path id="Path 20890" d="M110.44 100.12C111.3 100.1 112.17 100.9 112.23 101.76C112.29 102.66 111.57 103.48 110.66 103.56C109.64 103.65 108.8 102.89 108.8 101.86C108.79 100.94 109.54 100.15 110.44 100.12Z" fill="#1A1818" fill-opacity="1.000000" fill-rule="evenodd"/>
		</g>
	</g>
	<g mask="url(#mask1_19727)">
		<g style="mix-blend-mode:normal">
			<path id="Path 20891" d="M28.42 20.81C29.27 20.89 29.89 21.58 29.88 22.46C29.87 23.4 29.08 24.15 28.16 24.11C27.26 24.06 26.51 23.21 26.58 22.32C26.64 21.39 27.47 20.72 28.42 20.81Z" fill="#1A1818" fill-opacity="1.000000" fill-rule="evenodd"/>
		</g>
	</g>
	<g mask="url(#mask1_19727)">
		<g style="mix-blend-mode:normal">
			<path id="Path 20892" d="M191.95 143.82C192.87 143.73 193.57 144.27 193.67 145.17C193.77 146.15 193.09 146.98 192.15 147C191.36 147.02 190.55 146.29 190.49 145.49C190.43 144.66 191.08 143.91 191.95 143.82Z" fill="#1A1818" fill-opacity="1.000000" fill-rule="evenodd"/>
		</g>
	</g>
	<g mask="url(#mask1_19727)">
		<g style="mix-blend-mode:normal">
			<path id="Path 20893" d="M219.26 152.33C220.19 152.35 220.79 152.96 220.78 153.88C220.77 154.74 220.09 155.48 219.28 155.5C218.39 155.53 217.55 154.67 217.6 153.79C217.66 152.95 218.38 152.32 219.26 152.33Z" fill="#1A1818" fill-opacity="1.000000" fill-rule="evenodd"/>
		</g>
	</g>
	<g mask="url(#mask1_19727)">
		<g style="mix-blend-mode:normal">
			<path id="Path 20894" d="M119.67 109.14C120.58 109.16 121.2 109.79 121.19 110.7C121.19 111.56 120.5 112.3 119.68 112.32C118.79 112.35 117.95 111.48 118.01 110.6C118.07 109.76 118.79 109.13 119.67 109.14Z" fill="#1A1818" fill-opacity="1.000000" fill-rule="evenodd"/>
		</g>
	</g>
	<g mask="url(#mask1_19727)">
		<g style="mix-blend-mode:normal">
			<path id="Path 20895" d="M165.01 135.36C165.93 135.34 166.56 135.99 166.52 136.92C166.48 137.8 165.94 138.28 165.12 138.41C164.35 138.52 163.48 137.71 163.44 136.93C163.41 136.13 164.16 135.37 165.01 135.36Z" fill="#1A1818" fill-opacity="1.000000" fill-rule="evenodd"/>
		</g>
	</g>
	<g mask="url(#mask1_19727)">
		<g style="mix-blend-mode:normal">
			<path id="Path 20896" d="M264.29 160.58C265.2 160.56 265.84 161.22 265.79 162.14C265.75 163.03 265.22 163.51 264.4 163.64C263.63 163.75 262.76 162.93 262.72 162.15C262.68 161.36 263.44 160.59 264.29 160.58Z" fill="#1A1818" fill-opacity="1.000000" fill-rule="evenodd"/>
		</g>
	</g>
	<g mask="url(#mask1_19727)">
		<g style="mix-blend-mode:normal">
			<path id="Path 20897" d="M19.2 15.16C18.44 15.28 17.56 14.46 17.52 13.68C17.49 12.88 18.25 12.12 19.09 12.11C20.01 12.1 20.64 12.75 20.6 13.67C20.55 14.56 20.02 15.04 19.2 15.16Z" fill="#1A1818" fill-opacity="1.000000" fill-rule="evenodd"/>
		</g>
	</g>
	<g mask="url(#mask1_19727)">
		<g style="mix-blend-mode:normal">
			<path id="Path 20898" d="M128.94 118.06C129.81 118.18 130.26 118.71 130.23 119.58C130.21 120.46 129.63 120.91 128.82 121.01C128.04 121.1 127.23 120.25 127.27 119.46C127.3 118.63 128.11 117.94 128.94 118.06Z" fill="#1A1818" fill-opacity="1.000000" fill-rule="evenodd"/>
		</g>
	</g>
	<g mask="url(#mask1_19727)">
		<g style="mix-blend-mode:normal">
			<path id="Path 20899" d="M246.74 160.94C247.01 161.33 247.61 161.84 247.7 162.43C247.83 163.27 247.15 163.75 246.31 163.74C245.43 163.74 244.95 163.22 244.97 162.34C245.01 161.48 245.51 161.01 246.74 160.94Z" fill="#1A1818" fill-opacity="1.000000" fill-rule="evenodd"/>
		</g>
	</g>
	<g mask="url(#mask1_19727)">
		<g style="mix-blend-mode:normal">
			<path id="Path 20900" d="M10.04 6.13C9.21 6.18 8.61 5.6 8.61 4.77L11.37 4.88C11.28 5.64 10.82 6.07 10.04 6.13Z" fill="#1A1818" fill-opacity="1.000000" fill-rule="evenodd"/>
		</g>
	</g>
	<g mask="url(#mask1_19727)">
		<g style="mix-blend-mode:normal">
			<path id="Path 20901" d="M202.63 154.25C202.6 154.98 201.83 155.68 201.1 155.44C200.6 155.26 200.21 154.71 199.47 154.08C200.27 153.51 200.71 153.01 201.25 152.87C201.9 152.7 202.66 153.56 202.63 154.25Z" fill="#1A1818" fill-opacity="1.000000" fill-rule="evenodd"/>
		</g>
	</g>
	<g mask="url(#mask1_19727)">
		<g style="mix-blend-mode:normal">
			<path id="Path 20902" d="M175.52 145.66C175.53 146.39 174.81 147.13 174.08 146.93C173.56 146.79 173.15 146.27 172.38 145.69C173.14 145.07 173.55 144.54 174.06 144.36C174.7 144.14 175.51 144.96 175.52 145.66Z" fill="#1A1818" fill-opacity="1.000000" fill-rule="evenodd"/>
		</g>
	</g>
	<g mask="url(#mask1_19727)">
		<g style="mix-blend-mode:normal">
			<path id="Path 20903" d="M56.24 65.48C56.52 65.83 57.15 66.29 57.28 66.87C57.44 67.56 56.88 68.09 56.1 68.15C55.32 68.21 54.83 67.87 54.7 67.08C54.56 66.32 55.14 65.56 56.24 65.48Z" fill="#1A1818" fill-opacity="1.000000" fill-rule="evenodd"/>
		</g>
	</g>
	<g mask="url(#mask1_19727)">
		<g style="mix-blend-mode:normal">
			<path id="Path 20904" d="M46.81 56.69C47.51 56.68 48.36 57.47 48.16 58.11C47.99 58.64 47.48 59.05 46.87 59.83C46.27 59.08 45.74 58.67 45.59 58.16C45.36 57.44 46.08 56.69 46.81 56.69Z" fill="#1A1818" fill-opacity="1.000000" fill-rule="evenodd"/>
		</g>
	</g>
	<g mask="url(#mask1_19727)">
		<g style="mix-blend-mode:normal">
			<path id="Path 20905" d="M66.48 75.73C66.47 76.46 65.7 77.18 64.99 76.95C64.47 76.79 64.08 76.25 63.32 75.63C64.11 75.04 64.54 74.53 65.06 74.38C65.72 74.18 66.49 75.03 66.48 75.73Z" fill="#1A1818" fill-opacity="1.000000" fill-rule="evenodd"/>
		</g>
	</g>
	<g mask="url(#mask1_19727)">
		<g style="mix-blend-mode:normal">
			<path id="Path 20906" d="M137.74 127.04C138.33 127.08 138.87 127.66 139.8 128.23C139.01 128.87 138.61 129.42 138.09 129.58C137.31 129.84 136.65 129.21 136.63 128.39C136.6 127.6 137.06 126.98 137.74 127.04Z" fill="#1A1818" fill-opacity="1.000000" fill-rule="evenodd"/>
		</g>
	</g>
	<g mask="url(#mask1_19727)">
		<g style="mix-blend-mode:normal">
			<path id="Path 20907" d="M74.31 82.64C74.9 83.55 75.49 84.07 75.56 84.65C75.64 85.33 75.04 85.82 74.25 85.82C73.42 85.81 72.77 85.18 73 84.4C73.16 83.87 73.68 83.45 74.31 82.64Z" fill="#1A1818" fill-opacity="1.000000" fill-rule="evenodd"/>
		</g>
	</g>
	<g mask="url(#mask1_19727)">
		<g style="mix-blend-mode:normal">
			<path id="Path 20908" d="M38.93 49.12C38.99 49.85 38.58 50.49 37.81 50.41C37.28 50.36 36.79 49.89 35.92 49.4C36.71 48.72 37.09 48.12 37.6 48.01C38.3 47.84 38.88 48.36 38.93 49.12Z" fill="#1A1818" fill-opacity="1.000000" fill-rule="evenodd"/>
		</g>
	</g>
	<g mask="url(#mask1_19727)">
		<g style="mix-blend-mode:normal">
			<path id="Path 20909" d="M229.6 162.63C229.64 163.35 229.22 163.98 228.45 163.9C227.93 163.84 227.46 163.36 226.58 162.85C227.38 162.18 227.79 161.59 228.3 161.49C229.01 161.33 229.57 161.87 229.6 162.63Z" fill="#1A1818" fill-opacity="1.000000" fill-rule="evenodd"/>
		</g>
	</g>
	<g mask="url(#mask1_19727)">
		<g style="mix-blend-mode:normal">
			<path id="Path 20910" d="M84.6 93.32C84.72 94.01 84.22 94.55 83.43 94.57C82.65 94.59 82.09 94.15 82.2 93.4C82.28 92.88 82.79 92.42 83.33 91.6C83.93 92.38 84.52 92.8 84.6 93.32Z" fill="#1A1818" fill-opacity="1.000000" fill-rule="evenodd"/>
		</g>
	</g>
	<g mask="url(#mask1_19727)">
		<g style="mix-blend-mode:normal">
			<path id="Path 20911" d="M92.48 100.98C93.22 100.83 93.85 101.42 93.74 102.17C93.66 102.68 93.08 103.13 92.43 104C91.89 103.08 91.35 102.57 91.37 102.07C91.4 101.67 92.03 101.06 92.48 100.98Z" fill="#1A1818" fill-opacity="1.000000" fill-rule="evenodd"/>
		</g>
	</g>
	<g mask="url(#mask1_19727)">
		<g style="mix-blend-mode:normal">
			<path id="Path 20912" d="M274.48 170.83C274.44 171.26 273.95 171.91 273.54 172.02C272.82 172.2 272.23 171.64 272.31 170.9C272.35 170.45 272.86 170.05 273.41 169.3C273.94 170.02 274.5 170.44 274.48 170.83Z" fill="#1A1818" fill-opacity="1.000000" fill-rule="evenodd"/>
		</g>
	</g>
	<g mask="url(#mask1_19727)">
		<g style="mix-blend-mode:normal">
			<path id="Path 20913" d="M148.16 137.17C148.12 137.93 147.69 138.5 146.89 138.29C146.44 138.17 146.09 137.64 145.4 137.04C146.18 136.58 146.6 136.16 147.09 136.09C147.78 135.99 148.19 136.5 148.16 137.17Z" fill="#1A1818" fill-opacity="1.000000" fill-rule="evenodd"/>
		</g>
	</g>
	<g mask="url(#mask1_19727)">
		<g style="mix-blend-mode:normal">
			<path id="Path 20914" d="M29.66 40.4C29.62 41.15 29.19 41.72 28.41 41.52C27.95 41.4 27.6 40.87 26.9 40.28C27.68 39.81 28.11 39.4 28.59 39.32C29.27 39.22 29.69 39.73 29.66 40.4Z" fill="#1A1818" fill-opacity="1.000000" fill-rule="evenodd"/>
		</g>
	</g>
	<g mask="url(#mask1_19727)">
		<g style="mix-blend-mode:normal">
			<path id="Path 20915" d="M101.71 110.02C101.93 109.95 102.63 110.57 102.65 110.89C102.67 111.34 102.24 111.81 101.79 112.65C101.2 111.87 100.6 111.44 100.62 111.04C100.64 110.66 101.25 110.16 101.71 110.02Z" fill="#1A1818" fill-opacity="1.000000" fill-rule="evenodd"/>
		</g>
	</g>
	<g mask="url(#mask1_19727)">
		<g style="mix-blend-mode:normal">
			<path id="Path 20916" d="M110.87 118.85C111.18 119.19 111.71 119.53 111.73 119.88C111.75 120.22 111.23 120.6 110.74 121.22C110.32 120.54 109.85 120.12 109.91 119.77C109.97 119.42 110.53 119.15 110.87 118.85Z" fill="#1A1818" fill-opacity="1.000000" fill-rule="evenodd"/>
		</g>
	</g>
	<g mask="url(#mask1_19727)">
		<g style="mix-blend-mode:normal">
			<path id="Path 20917" d="M256.39 171.13C256.38 171.49 255.87 172.09 255.56 172.11C255.23 172.13 254.64 171.63 254.57 171.27C254.5 170.94 254.96 170.5 255.36 169.82C255.87 170.43 256.4 170.79 256.39 171.13Z" fill="#1A1818" fill-opacity="1.000000" fill-rule="evenodd"/>
		</g>
	</g>
	<g mask="url(#mask1_19727)">
		<g style="mix-blend-mode:normal">
			<path id="Path 20918" d="M210.28 162.1C210.65 162.1 211.02 162.61 211.38 162.88C211.1 163.25 210.87 163.83 210.52 163.91C210.19 163.99 209.74 163.56 209.02 163.2C209.61 162.65 209.94 162.11 210.28 162.1Z" fill="#1A1818" fill-opacity="1.000000" fill-rule="evenodd"/>
		</g>
	</g>
	<g mask="url(#mask1_19727)">
		<g style="mix-blend-mode:normal">
			<path id="Path 20919" d="M20.35 31.57C20.31 31.93 19.74 32.24 19.42 32.57C19.09 32.23 18.54 31.92 18.49 31.55C18.44 31.21 18.96 30.81 19.43 30.16C19.88 30.82 20.39 31.23 20.35 31.57Z" fill="#1A1818" fill-opacity="1.000000" fill-rule="evenodd"/>
		</g>
	</g>
	<g mask="url(#mask1_19727)">
		<g style="mix-blend-mode:normal">
			<path id="Path 20920" d="M184.22 154.46C184.23 154.79 183.69 155.39 183.33 155.43C182.99 155.47 182.56 154.99 181.89 154.55C182.52 154.06 182.91 153.55 183.26 153.58C183.62 153.6 184.21 154.13 184.22 154.46Z" fill="#1A1818" fill-opacity="1.000000" fill-rule="evenodd"/>
		</g>
	</g>
	<g mask="url(#mask1_19727)">
		<g style="mix-blend-mode:normal">
			<path id="Path 20921" d="M157.03 146.03C157.11 146.19 156.59 146.62 156.21 147.09C155.84 146.64 155.41 146.34 155.42 146.06C155.43 145.73 155.84 145.41 156.08 145.1C156.42 145.4 156.87 145.65 157.03 146.03Z" fill="#1A1818" fill-opacity="1.000000" fill-rule="evenodd"/>
		</g>
	</g>
	<g mask="url(#mask1_19727)">
		<g style="mix-blend-mode:normal">
			<path id="Path 20922" d="M238.4 171.67C238.07 171.9 237.75 172.29 237.42 172.3C237.15 172.31 236.85 171.86 236.43 171.48C236.9 171.12 237.34 170.62 237.49 170.69C237.86 170.88 238.1 171.33 238.4 171.67Z" fill="#1A1818" fill-opacity="1.000000" fill-rule="evenodd"/>
		</g>
	</g>
	<g mask="url(#mask1_19727)">
		<g style="mix-blend-mode:normal">
			<path id="Path 20923" d="M10.23 21.86C10.54 22.18 11.02 22.47 11.12 22.84C11.2 23.18 10.85 23.62 10.69 24.01C10.49 23.89 10.3 23.78 10.09 23.66C9.88 23.35 9.48 23.03 9.51 22.74C9.55 22.43 9.97 22.15 10.23 21.86Z" fill="#1A1818" fill-opacity="1.000000" fill-rule="evenodd"/>
		</g>
	</g>
	<g mask="url(#mask1_19727)">
		<g style="mix-blend-mode:normal">
			<path id="Path 20924" d="M120.77 128.57C120.63 128.94 120.18 129.19 119.84 129.48C119.61 129.18 119.19 128.88 119.19 128.59C119.19 128.28 119.61 127.97 119.95 127.52C120.33 127.98 120.84 128.39 120.77 128.57Z" fill="#1A1818" fill-opacity="1.000000" fill-rule="evenodd"/>
		</g>
	</g>
	<g mask="url(#mask1_19727)">
		<g style="mix-blend-mode:normal">
			<path id="Path 20925" d="M193.13 163.25C192.87 163.52 192.67 163.89 192.35 164.02C192.2 164.09 191.86 163.66 191.46 163.34C191.85 163.02 192.12 162.67 192.36 162.68C192.62 162.68 192.87 163.04 193.13 163.25Z" fill="#1A1818" fill-opacity="1.000000" fill-rule="evenodd"/>
		</g>
	</g>
	<g mask="url(#mask1_19727)">
		<g style="mix-blend-mode:normal">
			<path id="Path 20926" d="M1.11 14.61C0.97 14.69 0.59 14.3 0.16 14C0.52 13.66 0.75 13.28 1 13.27C1.27 13.26 1.55 13.59 1.82 13.77C1.59 14.07 1.41 14.46 1.11 14.61Z" fill="#1A1818" fill-opacity="1.000000" fill-rule="evenodd"/>
		</g>
	</g>
	<g mask="url(#mask1_19727)">
		<g style="mix-blend-mode:normal">
			<path id="Path 20927" d="M129.65 137.51C129.7 137.59 129.33 138.1 129.19 138.08C128.9 138.04 128.63 137.79 128.19 137.53C128.55 137.25 128.78 136.92 128.95 136.96C129.22 137.01 129.5 137.26 129.65 137.51Z" fill="#1A1818" fill-opacity="1.000000" fill-rule="evenodd"/>
		</g>
	</g>
	<g mask="url(#mask1_19727)">
		<g style="mix-blend-mode:normal">
			<path id="Path 20928" d="M219.39 171.33C219.66 171.39 219.98 171.62 220.1 171.86C220.17 172.01 219.89 172.31 219.68 172.73C219.32 172.35 219.02 172.15 218.91 171.86C218.87 171.75 219.27 171.29 219.39 171.33Z" fill="#1A1818" fill-opacity="1.000000" fill-rule="evenodd"/>
		</g>
	</g>
	<g mask="url(#mask1_19727)">
		<g style="mix-blend-mode:normal">
			<path id="Path 20929" d="M165.33 154.05C165.58 154.34 165.9 154.58 165.87 154.71C165.79 155 165.52 155.24 165.32 155.49C165.11 155.24 164.82 155.01 164.73 154.72C164.69 154.6 165.05 154.35 165.33 154.05Z" fill="#1A1818" fill-opacity="1.000000" fill-rule="evenodd"/>
		</g>
	</g>
	<g mask="url(#mask1_19727)">
		<g style="mix-blend-mode:normal">
			<path id="Path 20930" d="M56.82 85.05C56.64 85.1 56.4 85.23 56.29 85.16C56.08 85.04 55.95 84.79 55.72 84.5C56.06 84.38 56.35 84.22 56.39 84.27C56.58 84.5 56.69 84.78 56.82 85.05Z" fill="#1A1818" fill-opacity="1.000000" fill-rule="evenodd"/>
		</g>
	</g>
</svg>
