<svg width="112.341309" height="384.901367" viewBox="0 0 112.341 384.901" fill="none" xmlns="http://www.w3.org/2000/svg" xmlns:xlink="http://www.w3.org/1999/xlink">
	<desc>
			Created with Pixso.
	</desc>
	<defs/>
	<mask id="mask1_40557" mask-type="alpha" maskUnits="userSpaceOnUse" x="0.000000" y="0.000000" width="112.341309" height="384.901367">
		<g style="mix-blend-mode:normal">
			<rect id="Rectangle 1184" x="6.686523" rx="21.000000" width="105.670898" height="383.115479" transform="rotate(0.999999 6.686523 0.000000)" fill="#C4C4C4" fill-opacity="1.000000"/>
		</g>
	</mask>
	<g mask="url(#mask1_40557)">
		<g style="mix-blend-mode:normal">
			<path id="Path 244" d="M8.79 110.96C6.49 110.97 4.66 112.87 4.67 115.22C4.67 117.62 6.46 119.38 8.87 119.36C11.19 119.34 13.11 117.43 13.07 115.15C13.03 112.88 11.05 110.94 8.79 110.96Z" fill="#1A1818" fill-opacity="1.000000" fill-rule="evenodd"/>
		</g>
	</g>
	<g mask="url(#mask1_40557)">
		<g style="mix-blend-mode:normal">
			<path id="Path 245" d="M8.63 133.25C6.46 133.13 4.52 134.85 4.32 137.04C4.12 139.46 5.75 141.41 8.11 141.57C10.47 141.74 12.48 140.03 12.64 137.72C12.79 135.5 10.88 133.37 8.63 133.25Z" fill="#1A1818" fill-opacity="1.000000" fill-rule="evenodd"/>
		</g>
	</g>
	<g mask="url(#mask1_40557)">
		<g style="mix-blend-mode:normal">
			<path id="Path 246" d="M8.97 97.05C11.33 97.18 13.32 95.41 13.42 93.11C13.52 90.86 11.59 88.78 9.33 88.72C7.14 88.65 5.25 90.4 5.1 92.61C4.93 95.03 6.6 96.94 8.97 97.05Z" fill="#1A1818" fill-opacity="1.000000" fill-rule="evenodd"/>
		</g>
	</g>
	<g mask="url(#mask1_40557)">
		<g style="mix-blend-mode:normal">
			<path id="Path 247" d="M9.7 74.78C11.93 74.73 13.77 72.9 13.78 70.72C13.8 68.46 11.74 66.44 9.5 66.5C7.3 66.57 5.53 68.38 5.49 70.63C5.47 73.01 7.31 74.83 9.7 74.78Z" fill="#1A1818" fill-opacity="1.000000" fill-rule="evenodd"/>
		</g>
	</g>
	<g mask="url(#mask1_40557)">
		<g style="mix-blend-mode:normal">
			<path id="Path 248" d="M8.16 155.59C5.96 155.52 4.07 157.31 3.97 159.54C3.87 161.79 5.56 163.67 7.8 163.79C10.15 163.92 12.16 162.08 12.18 159.76C12.2 157.59 10.32 155.65 8.16 155.59Z" fill="#1A1818" fill-opacity="1.000000" fill-rule="evenodd"/>
		</g>
	</g>
	<g mask="url(#mask1_40557)">
		<g style="mix-blend-mode:normal">
			<path id="Path 249" d="M9.75 52.49C12.09 52.62 14.1 50.76 14.13 48.45C14.14 46.29 12.25 44.34 10.1 44.28C7.9 44.22 6.01 46.01 5.92 48.23C5.82 50.49 7.52 52.36 9.75 52.49Z" fill="#1A1818" fill-opacity="1.000000" fill-rule="evenodd"/>
		</g>
	</g>
	<g mask="url(#mask1_40557)">
		<g style="mix-blend-mode:normal">
			<path id="Path 250" d="M7.74 177.97C5.48 177.92 3.64 179.72 3.63 181.96C3.62 184.19 5.49 186.04 7.71 186.01C9.95 185.98 11.73 184.12 11.66 181.86C11.61 179.7 9.91 178.01 7.74 177.97Z" fill="#1A1818" fill-opacity="1.000000" fill-rule="evenodd"/>
		</g>
	</g>
	<g mask="url(#mask1_40557)">
		<g style="mix-blend-mode:normal">
			<path id="Path 251" d="M10.29 30.16C12.44 30.2 14.2 28.54 14.31 26.37C14.43 24.06 12.76 22.26 10.45 22.22C8.29 22.18 6.5 23.82 6.38 25.95C6.26 28.15 8.08 30.11 10.29 30.16Z" fill="#1A1818" fill-opacity="1.000000" fill-rule="evenodd"/>
		</g>
	</g>
	<g mask="url(#mask1_40557)">
		<g style="mix-blend-mode:normal">
			<path id="Path 252" d="M20.71 78.1C18.46 78.02 16.59 79.76 16.56 81.96C16.54 84.03 18.28 85.86 20.34 85.97C22.54 86.08 24.4 84.3 24.44 82.05C24.46 79.86 22.9 78.2 20.71 78.1Z" fill="#1A1818" fill-opacity="1.000000" fill-rule="evenodd"/>
		</g>
	</g>
	<g mask="url(#mask1_40557)">
		<g style="mix-blend-mode:normal">
			<path id="Path 253" d="M20.3 100.36C18.06 100.28 16.19 102.03 16.17 104.24C16.16 106.3 17.9 108.14 19.97 108.23C22.17 108.33 24.02 106.55 24.05 104.3C24.07 102.1 22.5 100.45 20.3 100.36Z" fill="#1A1818" fill-opacity="1.000000" fill-rule="evenodd"/>
		</g>
	</g>
	<g mask="url(#mask1_40557)">
		<g style="mix-blend-mode:normal">
			<path id="Path 254" d="M19.98 122.63C17.73 122.51 15.84 124.23 15.79 126.44C15.73 128.61 17.63 130.53 19.79 130.5C21.92 130.47 23.61 128.78 23.66 126.62C23.71 124.42 22.16 122.73 19.98 122.63Z" fill="#1A1818" fill-opacity="1.000000" fill-rule="evenodd"/>
		</g>
	</g>
	<g mask="url(#mask1_40557)">
		<g style="mix-blend-mode:normal">
			<path id="Path 255" d="M7.31 200.38C5.18 200.35 3.39 202.03 3.33 204.12C3.26 206.28 5.19 208.24 7.34 208.18C9.44 208.13 11.12 206.36 11.13 204.23C11.13 202.03 9.53 200.41 7.31 200.38Z" fill="#1A1818" fill-opacity="1.000000" fill-rule="evenodd"/>
		</g>
	</g>
	<g mask="url(#mask1_40557)">
		<g style="mix-blend-mode:normal">
			<path id="Path 256" d="M19.48 144.93C17.33 144.87 15.54 146.5 15.43 148.6C15.31 150.75 17.23 152.75 19.38 152.73C21.47 152.72 23.19 150.97 23.23 148.84C23.26 146.63 21.68 144.98 19.48 144.93Z" fill="#1A1818" fill-opacity="1.000000" fill-rule="evenodd"/>
		</g>
	</g>
	<g mask="url(#mask1_40557)">
		<g style="mix-blend-mode:normal">
			<path id="Path 257" d="M20.98 63.69C23.07 63.64 24.78 61.88 24.78 59.75C24.79 57.44 23.04 55.78 20.71 55.89C18.6 55.98 16.89 57.81 16.99 59.88C17.08 61.95 18.94 63.72 20.98 63.69Z" fill="#1A1818" fill-opacity="1.000000" fill-rule="evenodd"/>
		</g>
	</g>
	<g mask="url(#mask1_40557)">
		<g style="mix-blend-mode:normal">
			<path id="Path 258" d="M10.74 7.81C12.83 7.82 14.58 6.04 14.6 3.92C14.61 1.73 12.98 0.08 10.77 0.06C8.66 0.05 6.86 1.81 6.86 3.88C6.85 5.94 8.71 7.8 10.74 7.81Z" fill="#1A1818" fill-opacity="1.000000" fill-rule="evenodd"/>
		</g>
	</g>
	<g mask="url(#mask1_40557)">
		<g style="mix-blend-mode:normal">
			<path id="Path 259" d="M21.09 41.33C23.17 41.47 25.03 39.75 25.11 37.64C25.19 35.46 23.57 33.73 21.4 33.68C19.27 33.63 17.46 35.37 17.46 37.46C17.46 39.44 19.11 41.2 21.09 41.33Z" fill="#1A1818" fill-opacity="1.000000" fill-rule="evenodd"/>
		</g>
	</g>
	<g mask="url(#mask1_40557)">
		<g style="mix-blend-mode:normal">
			<path id="Path 260" d="M19.09 167.24C16.96 167.18 15.14 168.91 15.12 171.01C15.11 173.08 16.95 174.94 19.01 174.91C20.99 174.89 22.69 173.23 22.78 171.22C22.87 169.04 21.26 167.3 19.09 167.24Z" fill="#1A1818" fill-opacity="1.000000" fill-rule="evenodd"/>
		</g>
	</g>
	<g mask="url(#mask1_40557)">
		<g style="mix-blend-mode:normal">
			<path id="Path 261" d="M18.7 189.56C16.56 189.49 14.81 191.23 14.87 193.39C14.92 195.46 16.58 197.06 18.63 197.04C20.67 197.01 22.32 195.36 22.34 193.33C22.36 191.32 20.72 189.61 18.7 189.56Z" fill="#1A1818" fill-opacity="1.000000" fill-rule="evenodd"/>
		</g>
	</g>
	<g mask="url(#mask1_40557)">
		<g style="mix-blend-mode:normal">
			<path id="Path 262" d="M6.69 222.75C4.66 222.85 3.09 224.57 3.16 226.62C3.23 228.68 4.89 230.27 6.95 230.24C8.99 230.2 10.63 228.54 10.64 226.5C10.63 224.38 8.81 222.64 6.69 222.75Z" fill="#1A1818" fill-opacity="1.000000" fill-rule="evenodd"/>
		</g>
	</g>
	<g mask="url(#mask1_40557)">
		<g style="mix-blend-mode:normal">
			<path id="Path 263" d="M31.47 89.6C29.43 89.61 27.82 91.24 27.81 93.33C27.81 95.41 29.41 97 31.51 96.99C33.56 96.98 35.22 95.33 35.2 93.31C35.19 91.3 33.46 89.6 31.47 89.6Z" fill="#1A1818" fill-opacity="1.000000" fill-rule="evenodd"/>
		</g>
	</g>
	<g mask="url(#mask1_40557)">
		<g style="mix-blend-mode:normal">
			<path id="Path 264" d="M30.76 134.13C28.71 134.1 27.07 135.72 27.04 137.78C27 139.88 28.57 141.48 30.66 141.5C32.72 141.53 34.4 139.91 34.42 137.88C34.44 135.89 32.74 134.15 30.76 134.13Z" fill="#1A1818" fill-opacity="1.000000" fill-rule="evenodd"/>
		</g>
	</g>
	<g mask="url(#mask1_40557)">
		<g style="mix-blend-mode:normal">
			<path id="Path 265" d="M21.75 18.88C23.81 18.86 25.46 17.19 25.43 15.17C25.39 13.18 23.65 11.48 21.67 11.5C19.62 11.52 18.04 13.16 18.05 15.25C18.06 17.34 19.65 18.9 21.75 18.88Z" fill="#1A1818" fill-opacity="1.000000" fill-rule="evenodd"/>
		</g>
	</g>
	<g mask="url(#mask1_40557)">
		<g style="mix-blend-mode:normal">
			<path id="Path 266" d="M31.06 111.86C29.01 111.88 27.42 113.52 27.43 115.61C27.43 117.69 29.04 119.27 31.13 119.25C33.18 119.23 34.85 117.56 34.81 115.54C34.79 113.55 33.05 111.84 31.06 111.86Z" fill="#1A1818" fill-opacity="1.000000" fill-rule="evenodd"/>
		</g>
	</g>
	<g mask="url(#mask1_40557)">
		<g style="mix-blend-mode:normal">
			<path id="Path 267" d="M31.46 74.66C33.55 74.87 35.34 73.44 35.55 71.4C35.74 69.46 34.13 67.56 32.15 67.38C30.24 67.21 28.52 68.64 28.29 70.57C28.02 72.7 29.38 74.45 31.46 74.66Z" fill="#1A1818" fill-opacity="1.000000" fill-rule="evenodd"/>
		</g>
	</g>
	<g mask="url(#mask1_40557)">
		<g style="mix-blend-mode:normal">
			<path id="Path 268" d="M32.3 52.37C34.26 52.36 35.86 50.81 35.91 48.9C35.96 46.93 34.18 45.12 32.23 45.15C30.17 45.17 28.6 46.87 28.68 48.98C28.76 50.97 30.27 52.39 32.3 52.37Z" fill="#1A1818" fill-opacity="1.000000" fill-rule="evenodd"/>
		</g>
	</g>
	<g mask="url(#mask1_40557)">
		<g style="mix-blend-mode:normal">
			<path id="Path 269" d="M30.37 156.44C28.33 156.41 26.7 158.09 26.74 160.19C26.77 162.19 28.24 163.65 30.26 163.67C32.24 163.7 33.86 162.22 33.97 160.29C34.07 158.34 32.34 156.48 30.37 156.44Z" fill="#1A1818" fill-opacity="1.000000" fill-rule="evenodd"/>
		</g>
	</g>
	<g mask="url(#mask1_40557)">
		<g style="mix-blend-mode:normal">
			<path id="Path 270" d="M18.11 211.94C16.19 212.01 14.66 213.62 14.66 215.59C14.67 217.58 16.17 219.09 18.17 219.11C20.13 219.12 21.77 217.58 21.83 215.66C21.89 213.7 20.07 211.88 18.11 211.94Z" fill="#1A1818" fill-opacity="1.000000" fill-rule="evenodd"/>
		</g>
	</g>
	<g mask="url(#mask1_40557)">
		<g style="mix-blend-mode:normal">
			<path id="Path 271" d="M6.47 245.2C4.53 245.22 2.97 246.84 2.98 248.79C3 250.77 4.55 252.3 6.53 252.28C8.46 252.26 10.09 250.62 10.07 248.72C10.04 246.82 8.35 245.17 6.47 245.2Z" fill="#1A1818" fill-opacity="1.000000" fill-rule="evenodd"/>
		</g>
	</g>
	<g mask="url(#mask1_40557)">
		<g style="mix-blend-mode:normal">
			<path id="Path 272" d="M30.12 178.8C28.23 178.69 26.52 180.23 26.42 182.16C26.3 184.15 27.74 185.77 29.72 185.88C31.67 185.98 33.35 184.49 33.47 182.56C33.6 180.68 32.03 178.92 30.12 178.8Z" fill="#1A1818" fill-opacity="1.000000" fill-rule="evenodd"/>
		</g>
	</g>
	<g mask="url(#mask1_40557)">
		<g style="mix-blend-mode:normal">
			<path id="Path 273" d="M32.6 30.03C34.53 30.05 36.16 28.44 36.14 26.52C36.12 24.57 34.48 23 32.53 23.05C30.59 23.11 29.06 24.77 29.16 26.72C29.24 28.55 30.75 30.01 32.6 30.03Z" fill="#1A1818" fill-opacity="1.000000" fill-rule="evenodd"/>
		</g>
	</g>
	<g mask="url(#mask1_40557)">
		<g style="mix-blend-mode:normal">
			<path id="Path 274" d="M42.21 123.5C40.25 123.39 38.59 124.93 38.57 126.86C38.53 128.78 40.17 130.41 42.08 130.37C43.92 130.33 45.4 128.82 45.43 126.98C45.46 125.09 44.08 123.59 42.21 123.5Z" fill="#1A1818" fill-opacity="1.000000" fill-rule="evenodd"/>
		</g>
	</g>
	<g mask="url(#mask1_40557)">
		<g style="mix-blend-mode:normal">
			<path id="Path 275" d="M42.71 101.25C40.75 101.08 39.05 102.55 38.95 104.49C38.86 106.4 40.43 108.09 42.37 108.11C44.2 108.13 45.72 106.69 45.82 104.83C45.91 102.93 44.59 101.41 42.71 101.25Z" fill="#1A1818" fill-opacity="1.000000" fill-rule="evenodd"/>
		</g>
	</g>
	<g mask="url(#mask1_40557)">
		<g style="mix-blend-mode:normal">
			<path id="Path 276" d="M42.91 78.98C40.95 78.91 39.33 80.47 39.34 82.41C39.36 84.23 40.85 85.77 42.66 85.84C44.6 85.91 46.22 84.34 46.21 82.38C46.21 80.5 44.8 79.04 42.91 78.98Z" fill="#1A1818" fill-opacity="1.000000" fill-rule="evenodd"/>
		</g>
	</g>
	<g mask="url(#mask1_40557)">
		<g style="mix-blend-mode:normal">
			<path id="Path 277" d="M29.5 201.28C27.63 201.29 26.13 202.75 26.1 204.59C26.08 206.38 27.6 207.99 29.4 208.05C31.33 208.13 32.93 206.53 32.89 204.55C32.85 202.64 31.43 201.27 29.5 201.28Z" fill="#1A1818" fill-opacity="1.000000" fill-rule="evenodd"/>
		</g>
	</g>
	<g mask="url(#mask1_40557)">
		<g style="mix-blend-mode:normal">
			<path id="Path 278" d="M43.06 63.55C44.99 63.62 46.57 62.03 46.54 60.05C46.5 58.14 45.1 56.77 43.16 56.78C41.28 56.79 39.78 58.26 39.76 60.09C39.73 61.87 41.27 63.48 43.06 63.55Z" fill="#1A1818" fill-opacity="1.000000" fill-rule="evenodd"/>
		</g>
	</g>
	<g mask="url(#mask1_40557)">
		<g style="mix-blend-mode:normal">
			<path id="Path 279" d="M41.72 145.82C39.84 145.78 38.29 147.18 38.2 149.02C38.11 150.89 39.79 152.63 41.66 152.61C43.5 152.57 44.96 151.08 44.98 149.2C45 147.28 43.64 145.86 41.72 145.82Z" fill="#1A1818" fill-opacity="1.000000" fill-rule="evenodd"/>
		</g>
	</g>
	<g mask="url(#mask1_40557)">
		<g style="mix-blend-mode:normal">
			<path id="Path 280" d="M33.02 7.68C34.84 7.68 36.32 6.17 36.33 4.29C36.34 2.37 34.96 0.98 33.01 0.98C31.14 0.99 29.62 2.46 29.64 4.3C29.64 6.06 31.27 7.68 33.02 7.68Z" fill="#1A1818" fill-opacity="1.000000" fill-rule="evenodd"/>
		</g>
	</g>
	<g mask="url(#mask1_40557)">
		<g style="mix-blend-mode:normal">
			<path id="Path 281" d="M17.99 234.47C16.02 234.37 14.38 235.92 14.39 237.86C14.41 239.64 15.96 241.22 17.75 241.25C19.59 241.28 21.1 239.83 21.17 237.96C21.23 236.02 19.9 234.56 17.99 234.47Z" fill="#1A1818" fill-opacity="1.000000" fill-rule="evenodd"/>
		</g>
	</g>
	<g mask="url(#mask1_40557)">
		<g style="mix-blend-mode:normal">
			<path id="Path 282" d="M41.23 168.16C39.48 168.16 38 169.52 37.89 171.23C37.77 172.95 39.36 174.7 41.1 174.78C42.9 174.88 44.47 173.36 44.51 171.51C44.55 169.6 43.13 168.16 41.23 168.16Z" fill="#1A1818" fill-opacity="1.000000" fill-rule="evenodd"/>
		</g>
	</g>
	<g mask="url(#mask1_40557)">
		<g style="mix-blend-mode:normal">
			<path id="Path 283" d="M6.19 267.75C4.34 267.7 2.75 269.19 2.75 270.99C2.73 272.73 4.41 274.41 6.14 274.38C7.85 274.36 9.29 272.94 9.37 271.19C9.46 269.29 8.09 267.8 6.19 267.75Z" fill="#1A1818" fill-opacity="1.000000" fill-rule="evenodd"/>
		</g>
	</g>
	<g mask="url(#mask1_40557)">
		<g style="mix-blend-mode:normal">
			<path id="Path 284" d="M43.35 41.22C45.14 41.35 46.75 39.88 46.84 38.03C46.93 36.12 45.54 34.64 43.64 34.6C41.78 34.55 40.22 36.05 40.21 37.87C40.22 39.5 41.7 41.09 43.35 41.22Z" fill="#1A1818" fill-opacity="1.000000" fill-rule="evenodd"/>
		</g>
	</g>
	<g mask="url(#mask1_40557)">
		<g style="mix-blend-mode:normal">
			<path id="Path 285" d="M40.82 190.48C39.08 190.49 37.65 191.91 37.63 193.65C37.62 195.39 39.02 196.85 40.76 196.91C42.6 196.96 44.13 195.43 44.07 193.59C44.01 191.84 42.57 190.47 40.82 190.48Z" fill="#1A1818" fill-opacity="1.000000" fill-rule="evenodd"/>
		</g>
	</g>
	<g mask="url(#mask1_40557)">
		<g style="mix-blend-mode:normal">
			<path id="Path 286" d="M29.22 223.68C27.48 223.63 25.99 225.02 25.9 226.75C25.82 228.46 27.21 230 28.93 230.1C30.77 230.23 32.36 228.74 32.35 226.89C32.36 225.14 30.96 223.72 29.22 223.68Z" fill="#1A1818" fill-opacity="1.000000" fill-rule="evenodd"/>
		</g>
	</g>
	<g mask="url(#mask1_40557)">
		<g style="mix-blend-mode:normal">
			<path id="Path 287" d="M53.13 135.06C51.4 134.95 49.93 136.31 49.83 138.06C49.74 139.86 51.01 141.27 52.8 141.35C54.59 141.43 56.04 140.13 56.13 138.39C56.21 136.68 54.85 135.15 53.13 135.06Z" fill="#1A1818" fill-opacity="1.000000" fill-rule="evenodd"/>
		</g>
	</g>
	<g mask="url(#mask1_40557)">
		<g style="mix-blend-mode:normal">
			<path id="Path 288" d="M53.37 112.79C51.64 112.77 50.24 114.17 50.22 115.94C50.19 117.74 51.54 119.1 53.34 119.11C55.1 119.12 56.52 117.72 56.53 115.99C56.54 114.26 55.1 112.81 53.37 112.79Z" fill="#1A1818" fill-opacity="1.000000" fill-rule="evenodd"/>
		</g>
	</g>
	<g mask="url(#mask1_40557)">
		<g style="mix-blend-mode:normal">
			<path id="Path 289" d="M53.81 90.53C52.08 90.49 50.64 91.87 50.6 93.63C50.56 95.44 51.88 96.81 53.68 96.84C55.44 96.87 56.89 95.51 56.92 93.77C56.94 92.05 55.53 90.58 53.81 90.53Z" fill="#1A1818" fill-opacity="1.000000" fill-rule="evenodd"/>
		</g>
	</g>
	<g mask="url(#mask1_40557)">
		<g style="mix-blend-mode:normal">
			<path id="Path 290" d="M43.84 18.73C45.62 18.8 47.07 17.47 47.14 15.73C47.21 14.02 45.82 12.51 44.1 12.43C42.38 12.34 40.91 13.7 40.83 15.46C40.76 17.27 42.04 18.66 43.84 18.73Z" fill="#1A1818" fill-opacity="1.000000" fill-rule="evenodd"/>
		</g>
	</g>
	<g mask="url(#mask1_40557)">
		<g style="mix-blend-mode:normal">
			<path id="Path 291" d="M17.39 256.9C15.65 256.92 14.29 258.33 14.29 260.12C14.31 261.91 15.69 263.25 17.49 263.22C19.25 263.19 20.64 261.76 20.61 260.02C20.58 258.31 19.11 256.89 17.39 256.9Z" fill="#1A1818" fill-opacity="1.000000" fill-rule="evenodd"/>
		</g>
	</g>
	<g mask="url(#mask1_40557)">
		<g style="mix-blend-mode:normal">
			<path id="Path 292" d="M54.32 52.2C56.09 52.3 57.59 50.94 57.62 49.23C57.65 47.7 56.27 46.2 54.72 46.09C53.02 45.96 51.52 47.37 51.49 49.12C51.46 50.86 52.6 52.11 54.32 52.2Z" fill="#1A1818" fill-opacity="1.000000" fill-rule="evenodd"/>
		</g>
	</g>
	<g mask="url(#mask1_40557)">
		<g style="mix-blend-mode:normal">
			<path id="Path 293" d="M54.1 74.52C55.86 74.54 57.31 73.13 57.28 71.41C57.24 69.71 55.71 68.25 54.04 68.31C52.42 68.36 51.11 69.69 51.05 71.34C50.98 73.17 52.26 74.51 54.1 74.52Z" fill="#1A1818" fill-opacity="1.000000" fill-rule="evenodd"/>
		</g>
	</g>
	<g mask="url(#mask1_40557)">
		<g style="mix-blend-mode:normal">
			<path id="Path 294" d="M40.55 212.84C38.85 212.79 37.42 214.24 37.45 216.01C37.48 217.74 38.66 218.93 40.41 218.96C42.05 219 43.45 217.76 43.57 216.15C43.69 214.52 42.2 212.89 40.55 212.84Z" fill="#1A1818" fill-opacity="1.000000" fill-rule="evenodd"/>
		</g>
	</g>
	<g mask="url(#mask1_40557)">
		<g style="mix-blend-mode:normal">
			<path id="Path 295" d="M52.61 157.38C50.89 157.36 49.5 158.82 49.55 160.59C49.6 162.32 50.81 163.5 52.55 163.51C54.2 163.52 55.59 162.25 55.68 160.64C55.77 159.01 54.25 157.4 52.61 157.38Z" fill="#1A1818" fill-opacity="1.000000" fill-rule="evenodd"/>
		</g>
	</g>
	<g mask="url(#mask1_40557)">
		<g style="mix-blend-mode:normal">
			<path id="Path 296" d="M5.72 290.21C4.12 290.22 2.77 291.58 2.73 293.22C2.7 294.92 3.91 296.19 5.6 296.26C7.24 296.32 8.66 295.07 8.78 293.47C8.9 291.85 7.35 290.2 5.72 290.21Z" fill="#1A1818" fill-opacity="1.000000" fill-rule="evenodd"/>
		</g>
	</g>
	<g mask="url(#mask1_40557)">
		<g style="mix-blend-mode:normal">
			<path id="Path 297" d="M28.64 246.08C27.03 246.16 25.75 247.54 25.77 249.18C25.8 250.89 27.04 252.12 28.75 252.13C30.38 252.13 31.78 250.81 31.83 249.22C31.87 247.59 30.25 246 28.64 246.08Z" fill="#1A1818" fill-opacity="1.000000" fill-rule="evenodd"/>
		</g>
	</g>
	<g mask="url(#mask1_40557)">
		<g style="mix-blend-mode:normal">
			<path id="Path 298" d="M52.19 179.76C50.58 179.75 49.24 181.11 49.23 182.75C49.23 184.4 50.52 185.7 52.18 185.71C53.8 185.7 55.19 184.36 55.19 182.76C55.18 181.21 53.75 179.76 52.19 179.76Z" fill="#1A1818" fill-opacity="1.000000" fill-rule="evenodd"/>
		</g>
	</g>
	<g mask="url(#mask1_40557)">
		<g style="mix-blend-mode:normal">
			<path id="Path 299" d="M54.76 29.85C56.4 29.92 57.79 28.64 57.83 27C57.86 25.37 56.53 24.01 54.89 24.01C53.36 24.01 52.08 25.21 51.98 26.73C51.87 28.35 53.15 29.77 54.76 29.85Z" fill="#1A1818" fill-opacity="1.000000" fill-rule="evenodd"/>
		</g>
	</g>
	<g mask="url(#mask1_40557)">
		<g style="mix-blend-mode:normal">
			<path id="Path 300" d="M17.08 279.43C15.41 279.41 14.06 280.78 14.12 282.44C14.18 283.96 15.47 285.23 16.98 285.26C18.65 285.29 20 283.92 19.95 282.26C19.91 280.7 18.65 279.46 17.08 279.43Z" fill="#1A1818" fill-opacity="1.000000" fill-rule="evenodd"/>
		</g>
	</g>
	<g mask="url(#mask1_40557)">
		<g style="mix-blend-mode:normal">
			<path id="Path 301" d="M40.02 235.41C38.43 235.43 37.2 236.64 37.19 238.2C37.19 239.8 38.66 241.2 40.25 241.09C41.77 240.99 42.94 239.69 42.89 238.12C42.85 236.53 41.64 235.38 40.02 235.41Z" fill="#1A1818" fill-opacity="1.000000" fill-rule="evenodd"/>
		</g>
	</g>
	<g mask="url(#mask1_40557)">
		<g style="mix-blend-mode:normal">
			<path id="Path 302" d="M65.41 63.36C66.94 63.38 68.17 62.12 68.2 60.55C68.22 58.91 67.1 57.77 65.45 57.77C63.87 57.76 62.6 58.98 62.61 60.51C62.61 61.98 63.95 63.34 65.41 63.36Z" fill="#1A1818" fill-opacity="1.000000" fill-rule="evenodd"/>
		</g>
	</g>
	<g mask="url(#mask1_40557)">
		<g style="mix-blend-mode:normal">
			<path id="Path 303" d="M65.02 85.66C66.56 85.68 67.8 84.47 67.86 82.89C67.92 81.28 66.81 80.05 65.21 79.97C63.63 79.89 62.31 81.02 62.18 82.55C62.05 84.14 63.41 85.64 65.02 85.66Z" fill="#1A1818" fill-opacity="1.000000" fill-rule="evenodd"/>
		</g>
	</g>
	<g mask="url(#mask1_40557)">
		<g style="mix-blend-mode:normal">
			<path id="Path 304" d="M51.72 202.27C50.14 202.3 48.9 203.55 48.94 205.08C48.99 206.56 50.37 207.9 51.84 207.86C53.36 207.84 54.57 206.56 54.55 204.97C54.54 203.32 53.4 202.23 51.72 202.27Z" fill="#1A1818" fill-opacity="1.000000" fill-rule="evenodd"/>
		</g>
	</g>
	<g mask="url(#mask1_40557)">
		<g style="mix-blend-mode:normal">
			<path id="Path 305" d="M64.37 107.91C65.88 108.09 67.28 106.95 67.46 105.41C67.66 103.79 66.66 102.47 65.08 102.25C63.39 102.03 61.91 103.19 61.79 104.83C61.67 106.31 62.88 107.75 64.37 107.91Z" fill="#1A1818" fill-opacity="1.000000" fill-rule="evenodd"/>
		</g>
	</g>
	<g mask="url(#mask1_40557)">
		<g style="mix-blend-mode:normal">
			<path id="Path 306" d="M64.28 124.49C62.7 124.48 61.44 125.68 61.4 127.22C61.36 128.82 62.8 130.25 64.39 130.18C65.92 130.12 67.12 128.83 67.1 127.26C67.08 125.66 65.91 124.49 64.28 124.49Z" fill="#1A1818" fill-opacity="1.000000" fill-rule="evenodd"/>
		</g>
	</g>
	<g mask="url(#mask1_40557)">
		<g style="mix-blend-mode:normal">
			<path id="Path 307" d="M64.04 146.81C62.47 146.73 61.14 147.88 61.04 149.41C60.95 150.86 62.24 152.29 63.72 152.4C65.23 152.51 66.54 151.31 66.64 149.73C66.73 148.06 65.71 146.88 64.04 146.81Z" fill="#1A1818" fill-opacity="1.000000" fill-rule="evenodd"/>
		</g>
	</g>
	<g mask="url(#mask1_40557)">
		<g style="mix-blend-mode:normal">
			<path id="Path 308" d="M55.27 7.48C56.77 7.48 58.02 6.17 58 4.61C57.97 3 56.78 1.89 55.14 1.97C53.71 2.02 52.51 3.22 52.48 4.61C52.45 6.03 53.86 7.48 55.27 7.48Z" fill="#1A1818" fill-opacity="1.000000" fill-rule="evenodd"/>
		</g>
	</g>
	<g mask="url(#mask1_40557)">
		<g style="mix-blend-mode:normal">
			<path id="Path 309" d="M28.35 268.7C26.91 268.7 25.67 269.84 25.56 271.22C25.45 272.63 26.79 274.13 28.23 274.21C29.73 274.29 31.04 273.04 31.08 271.48C31.12 269.84 29.98 268.69 28.35 268.7Z" fill="#1A1818" fill-opacity="1.000000" fill-rule="evenodd"/>
		</g>
	</g>
	<g mask="url(#mask1_40557)">
		<g style="mix-blend-mode:normal">
			<path id="Path 310" d="M65.69 40.99C67.18 41.07 68.51 39.79 68.51 38.26C68.52 36.79 67.44 35.65 65.97 35.58C64.45 35.5 63.1 36.77 63.1 38.26C63.1 39.62 64.33 40.91 65.69 40.99Z" fill="#1A1818" fill-opacity="1.000000" fill-rule="evenodd"/>
		</g>
	</g>
	<g mask="url(#mask1_40557)">
		<g style="mix-blend-mode:normal">
			<path id="Path 311" d="M5.38 312.86C3.95 312.84 2.69 313.97 2.59 315.36C2.49 316.79 3.83 318.24 5.27 318.27C6.66 318.3 7.91 317.14 8 315.73C8.1 314.15 6.95 312.89 5.38 312.86Z" fill="#1A1818" fill-opacity="1.000000" fill-rule="evenodd"/>
		</g>
	</g>
	<g mask="url(#mask1_40557)">
		<g style="mix-blend-mode:normal">
			<path id="Path 312" d="M63.68 169.15C62.17 169.04 60.79 170.29 60.76 171.78C60.74 173.22 62.16 174.61 63.59 174.56C64.98 174.5 66.16 173.29 66.18 171.87C66.21 170.39 65.15 169.24 63.68 169.15Z" fill="#1A1818" fill-opacity="1.000000" fill-rule="evenodd"/>
		</g>
	</g>
	<g mask="url(#mask1_40557)">
		<g style="mix-blend-mode:normal">
			<path id="Path 313" d="M51.32 224.64C49.87 224.68 48.73 225.9 48.77 227.36C48.82 228.82 50.04 229.97 51.5 229.92C52.92 229.87 54.1 228.61 54.04 227.18C53.99 225.75 52.76 224.59 51.32 224.64Z" fill="#1A1818" fill-opacity="1.000000" fill-rule="evenodd"/>
		</g>
	</g>
	<g mask="url(#mask1_40557)">
		<g style="mix-blend-mode:normal">
			<path id="Path 314" d="M39.69 257.87C38.26 257.86 37.12 259.06 37.15 260.54C37.19 261.95 38.17 262.94 39.58 263C41.05 263.06 42.28 261.93 42.3 260.51C42.32 259.12 41.09 257.87 39.69 257.87Z" fill="#1A1818" fill-opacity="1.000000" fill-rule="evenodd"/>
		</g>
	</g>
	<g mask="url(#mask1_40557)">
		<g style="mix-blend-mode:normal">
			<path id="Path 315" d="M63 191.48C61.68 191.54 60.62 192.63 60.59 193.99C60.53 195.49 61.62 196.62 63.13 196.61C64.58 196.62 65.77 195.42 65.72 194.01C65.68 192.6 64.39 191.41 63 191.48Z" fill="#1A1818" fill-opacity="1.000000" fill-rule="evenodd"/>
		</g>
	</g>
	<g mask="url(#mask1_40557)">
		<g style="mix-blend-mode:normal">
			<path id="Path 316" d="M16.86 302.01C15.54 301.89 14.36 302.85 14.15 304.19C13.94 305.72 14.86 306.94 16.34 307.12C17.81 307.28 19.1 306.28 19.25 304.85C19.39 303.47 18.26 302.13 16.86 302.01Z" fill="#1A1818" fill-opacity="1.000000" fill-rule="evenodd"/>
		</g>
	</g>
	<g mask="url(#mask1_40557)">
		<g style="mix-blend-mode:normal">
			<path id="Path 317" d="M75.8 113.81C74.39 113.68 73.17 114.83 73.14 116.3C73.1 117.74 74.02 118.74 75.44 118.82C76.92 118.92 78.16 117.82 78.17 116.4C78.19 115.16 77.05 113.92 75.8 113.81Z" fill="#1A1818" fill-opacity="1.000000" fill-rule="evenodd"/>
		</g>
	</g>
	<g mask="url(#mask1_40557)">
		<g style="mix-blend-mode:normal">
			<path id="Path 318" d="M65.91 18.45C67.38 18.61 68.67 17.6 68.78 16.17C68.88 14.84 67.65 13.47 66.29 13.43C64.98 13.39 63.85 14.44 63.76 15.79C63.66 17.23 64.53 18.28 65.91 18.45Z" fill="#1A1818" fill-opacity="1.000000" fill-rule="evenodd"/>
		</g>
	</g>
	<g mask="url(#mask1_40557)">
		<g style="mix-blend-mode:normal">
			<path id="Path 319" d="M76.13 91.54C74.7 91.46 73.5 92.67 73.53 94.17C73.57 95.62 74.58 96.58 76.03 96.57C77.42 96.56 78.53 95.49 78.56 94.14C78.58 92.88 77.39 91.61 76.13 91.54Z" fill="#1A1818" fill-opacity="1.000000" fill-rule="evenodd"/>
		</g>
	</g>
	<g mask="url(#mask1_40557)">
		<g style="mix-blend-mode:normal">
			<path id="Path 320" d="M76.24 74.26C77.6 74.34 78.8 73.32 78.88 72C78.97 70.76 77.81 69.43 76.55 69.34C75.25 69.23 74.05 70.32 73.96 71.66C73.87 73.09 74.83 74.18 76.24 74.26Z" fill="#1A1818" fill-opacity="1.000000" fill-rule="evenodd"/>
		</g>
	</g>
	<g mask="url(#mask1_40557)">
		<g style="mix-blend-mode:normal">
			<path id="Path 321" d="M75.17 136.11C73.84 136.14 72.77 137.28 72.8 138.66C72.81 140.08 73.85 141.08 75.28 141.05C76.64 141.02 77.77 139.87 77.73 138.57C77.7 137.31 76.41 136.09 75.17 136.11Z" fill="#1A1818" fill-opacity="1.000000" fill-rule="evenodd"/>
		</g>
	</g>
	<g mask="url(#mask1_40557)">
		<g style="mix-blend-mode:normal">
			<path id="Path 322" d="M28.15 291.16C26.84 291.06 25.64 292.14 25.56 293.49C25.47 294.91 26.42 296 27.83 296.08C29.2 296.16 30.39 295.15 30.48 293.82C30.57 292.58 29.4 291.26 28.15 291.16Z" fill="#1A1818" fill-opacity="1.000000" fill-rule="evenodd"/>
		</g>
	</g>
	<g mask="url(#mask1_40557)">
		<g style="mix-blend-mode:normal">
			<path id="Path 323" d="M50.95 247.12C49.62 247.16 48.56 248.32 48.63 249.67C48.69 250.92 49.69 251.88 50.94 251.92C52.29 251.96 53.45 250.85 53.45 249.54C53.45 248.26 52.24 247.08 50.95 247.12Z" fill="#1A1818" fill-opacity="1.000000" fill-rule="evenodd"/>
		</g>
	</g>
	<g mask="url(#mask1_40557)">
		<g style="mix-blend-mode:normal">
			<path id="Path 324" d="M76.53 51.95C77.87 52.09 79.08 51.08 79.18 49.76C79.28 48.49 78.15 47.21 76.88 47.15C75.68 47.09 74.56 48.04 74.41 49.27C74.23 50.63 75.17 51.82 76.53 51.95Z" fill="#1A1818" fill-opacity="1.000000" fill-rule="evenodd"/>
		</g>
	</g>
	<g mask="url(#mask1_40557)">
		<g style="mix-blend-mode:normal">
			<path id="Path 325" d="M74.94 158.44C73.74 158.39 72.62 159.35 72.46 160.57C72.29 161.94 73.21 163.13 74.59 163.26C75.93 163.39 77.15 162.38 77.25 161.06C77.35 159.8 76.2 158.5 74.94 158.44Z" fill="#1A1818" fill-opacity="1.000000" fill-rule="evenodd"/>
		</g>
	</g>
	<g mask="url(#mask1_40557)">
		<g style="mix-blend-mode:normal">
			<path id="Path 326" d="M62.48 218.71C63.83 218.85 65.03 217.84 65.14 216.51C65.24 215.24 64.11 213.97 62.83 213.91C61.64 213.85 60.52 214.8 60.37 216.02C60.19 217.39 61.12 218.58 62.48 218.71Z" fill="#1A1818" fill-opacity="1.000000" fill-rule="evenodd"/>
		</g>
	</g>
	<g mask="url(#mask1_40557)">
		<g style="mix-blend-mode:normal">
			<path id="Path 327" d="M4.87 335.6C3.61 335.63 2.6 336.66 2.64 337.87C2.68 339.05 3.82 340.13 4.97 340.11C6.17 340.08 7.16 339.01 7.15 337.76C7.14 336.43 6.22 335.56 4.87 335.6Z" fill="#1A1818" fill-opacity="1.000000" fill-rule="evenodd"/>
		</g>
	</g>
	<g mask="url(#mask1_40557)">
		<g style="mix-blend-mode:normal">
			<path id="Path 328" d="M74.58 180.93C73.33 180.87 72.21 181.8 72.13 183.01C72.06 184.16 73.1 185.34 74.27 185.44C75.47 185.53 76.55 184.57 76.64 183.31C76.73 181.96 75.9 181.01 74.58 180.93Z" fill="#1A1818" fill-opacity="1.000000" fill-rule="evenodd"/>
		</g>
	</g>
	<g mask="url(#mask1_40557)">
		<g style="mix-blend-mode:normal">
			<path id="Path 329" d="M39.45 280.52C38.2 280.45 37.08 281.39 37 282.59C36.92 283.74 37.95 284.92 39.12 285.03C40.33 285.13 41.41 284.17 41.5 282.9C41.6 281.56 40.77 280.6 39.45 280.52Z" fill="#1A1818" fill-opacity="1.000000" fill-rule="evenodd"/>
		</g>
	</g>
	<g mask="url(#mask1_40557)">
		<g style="mix-blend-mode:normal">
			<path id="Path 330" d="M77.09 29.61C78.32 29.65 79.33 28.65 79.36 27.38C79.4 26.04 78.52 25.13 77.19 25.12C75.92 25.1 74.87 26.07 74.87 27.29C74.85 28.47 75.92 29.59 77.09 29.61Z" fill="#1A1818" fill-opacity="1.000000" fill-rule="evenodd"/>
		</g>
	</g>
	<g mask="url(#mask1_40557)">
		<g style="mix-blend-mode:normal">
			<path id="Path 331" d="M16.53 324.73C15.28 324.58 14.1 325.52 14.02 326.73C13.94 327.85 15.11 329.1 16.25 329.11C17.35 329.12 18.33 328.17 18.41 327.02C18.48 325.78 17.73 324.86 16.53 324.73Z" fill="#1A1818" fill-opacity="1.000000" fill-rule="evenodd"/>
		</g>
	</g>
	<g mask="url(#mask1_40557)">
		<g style="mix-blend-mode:normal">
			<path id="Path 332" d="M86.71 125.58C85.47 125.48 84.37 126.5 84.39 127.71C84.4 128.78 85.44 129.82 86.5 129.84C87.62 129.86 88.58 128.94 88.64 127.8C88.7 126.64 87.85 125.67 86.71 125.58Z" fill="#1A1818" fill-opacity="1.000000" fill-rule="evenodd"/>
		</g>
	</g>
	<g mask="url(#mask1_40557)">
		<g style="mix-blend-mode:normal">
			<path id="Path 333" d="M62.43 240.79C63.54 240.73 64.48 239.72 64.45 238.58C64.43 237.28 63.39 236.36 62.09 236.49C60.97 236.61 60.06 237.68 60.17 238.77C60.27 239.8 61.44 240.84 62.43 240.79Z" fill="#1A1818" fill-opacity="1.000000" fill-rule="evenodd"/>
		</g>
	</g>
	<g mask="url(#mask1_40557)">
		<g style="mix-blend-mode:normal">
			<path id="Path 334" d="M87.41 81.06C86.28 81 85.25 81.89 85.16 82.99C85.06 84.12 86.22 85.34 87.35 85.33C88.46 85.31 89.41 84.34 89.43 83.2C89.44 82.04 88.58 81.11 87.41 81.06Z" fill="#1A1818" fill-opacity="1.000000" fill-rule="evenodd"/>
		</g>
	</g>
	<g mask="url(#mask1_40557)">
		<g style="mix-blend-mode:normal">
			<path id="Path 335" d="M74.21 203.3C72.98 203.19 71.87 204.22 71.89 205.43C71.92 206.49 72.96 207.54 74.01 207.56C75.13 207.58 76.1 206.66 76.15 205.52C76.21 204.36 75.36 203.39 74.21 203.3Z" fill="#1A1818" fill-opacity="1.000000" fill-rule="evenodd"/>
		</g>
	</g>
	<g mask="url(#mask1_40557)">
		<g style="mix-blend-mode:normal">
			<path id="Path 336" d="M87.1 103.31C85.88 103.21 84.75 104.23 84.76 105.44C84.79 106.5 85.83 107.56 86.88 107.59C87.99 107.62 88.97 106.69 89.04 105.55C89.1 104.39 88.25 103.41 87.1 103.31Z" fill="#1A1818" fill-opacity="1.000000" fill-rule="evenodd"/>
		</g>
	</g>
	<g mask="url(#mask1_40557)">
		<g style="mix-blend-mode:normal">
			<path id="Path 337" d="M77.47 7.08C78.65 7.12 79.6 6.23 79.61 5.08C79.62 3.96 78.63 2.96 77.51 3C76.33 3.06 75.67 3.75 75.53 4.89C75.39 6.06 76.27 7.03 77.47 7.08Z" fill="#1A1818" fill-opacity="1.000000" fill-rule="evenodd"/>
		</g>
	</g>
	<g mask="url(#mask1_40557)">
		<g style="mix-blend-mode:normal">
			<path id="Path 338" d="M27.7 313.86C26.57 313.8 25.59 314.72 25.57 315.87C25.54 316.97 26.27 317.82 27.35 317.93C28.52 318.05 29.54 317.24 29.64 316.09C29.73 314.99 28.82 313.93 27.7 313.86Z" fill="#1A1818" fill-opacity="1.000000" fill-rule="evenodd"/>
		</g>
	</g>
	<g mask="url(#mask1_40557)">
		<g style="mix-blend-mode:normal">
			<path id="Path 339" d="M86.06 147.88C84.9 147.94 84.03 148.93 84.12 150.11C84.2 151.18 85.05 151.98 86.13 151.99C87.29 152.01 88.25 151.05 88.22 149.91C88.19 148.78 87.18 147.83 86.06 147.88Z" fill="#1A1818" fill-opacity="1.000000" fill-rule="evenodd"/>
		</g>
	</g>
	<g mask="url(#mask1_40557)">
		<g style="mix-blend-mode:normal">
			<path id="Path 340" d="M50.57 269.72C49.52 269.75 48.64 270.58 48.56 271.63C48.48 272.79 49.4 273.81 50.55 273.85C51.73 273.89 52.7 272.96 52.7 271.81C52.7 270.65 51.72 269.7 50.57 269.72Z" fill="#1A1818" fill-opacity="1.000000" fill-rule="evenodd"/>
		</g>
	</g>
	<g mask="url(#mask1_40557)">
		<g style="mix-blend-mode:normal">
			<path id="Path 341" d="M87.59 62.82C88.68 62.88 89.61 62.13 89.71 61.09C89.82 59.99 88.83 58.89 87.72 58.89C86.7 58.88 85.82 59.77 85.78 60.82C85.73 61.96 86.46 62.77 87.59 62.82Z" fill="#1A1818" fill-opacity="1.000000" fill-rule="evenodd"/>
		</g>
	</g>
	<g mask="url(#mask1_40557)">
		<g style="mix-blend-mode:normal">
			<path id="Path 342" d="M88.15 40.5C89.22 40.48 90.12 39.53 90.04 38.52C89.97 37.53 88.88 36.56 87.93 36.72C86.93 36.9 86.27 37.51 86.24 38.61C86.2 39.74 87 40.54 88.15 40.5Z" fill="#1A1818" fill-opacity="1.000000" fill-rule="evenodd"/>
		</g>
	</g>
	<g mask="url(#mask1_40557)">
		<g style="mix-blend-mode:normal">
			<path id="Path 343" d="M85.72 170.28C84.71 170.39 84.01 170.95 83.92 172.05C83.81 173.19 84.55 174.03 85.7 174.06C86.74 174.1 87.72 173.2 87.72 172.21C87.72 171.24 86.68 170.18 85.72 170.28Z" fill="#1A1818" fill-opacity="1.000000" fill-rule="evenodd"/>
		</g>
	</g>
	<g mask="url(#mask1_40557)">
		<g style="mix-blend-mode:normal">
			<path id="Path 344" d="M73.7 229.43C74.44 229.24 75.06 228.53 75.49 228.23C75.57 226.78 74.57 225.72 73.62 225.82C72.61 225.93 71.92 226.48 71.84 227.58C71.78 228.66 72.67 229.68 73.7 229.43Z" fill="#1A1818" fill-opacity="1.000000" fill-rule="evenodd"/>
		</g>
	</g>
	<g mask="url(#mask1_40557)">
		<g style="mix-blend-mode:normal">
			<path id="Path 345" d="M60.15 260.81C60.09 261.91 61.07 262.92 62.08 262.6C62.82 262.37 63.39 261.6 64.42 260.75C63.31 259.98 62.66 259.21 61.91 259.1C60.93 258.96 60.21 259.7 60.15 260.81Z" fill="#1A1818" fill-opacity="1.000000" fill-rule="evenodd"/>
		</g>
	</g>
	<g mask="url(#mask1_40557)">
		<g style="mix-blend-mode:normal">
			<path id="Path 346" d="M38.57 303.09C38.21 303.49 37.43 304.02 37.16 304.74C36.79 305.76 37.68 306.74 38.78 306.8C39.88 306.88 40.5 306.24 40.74 305.26C40.96 304.31 40.04 303.21 38.57 303.09Z" fill="#1A1818" fill-opacity="1.000000" fill-rule="evenodd"/>
		</g>
	</g>
	<g mask="url(#mask1_40557)">
		<g style="mix-blend-mode:normal">
			<path id="Path 347" d="M85.05 192.7C84.68 193.12 83.86 193.65 83.69 194.34C83.44 195.33 84.18 196.08 85.2 196.19C86.29 196.31 86.93 195.7 87.04 194.64C87.15 193.56 86.58 192.94 85.05 192.7Z" fill="#1A1818" fill-opacity="1.000000" fill-rule="evenodd"/>
		</g>
	</g>
	<g mask="url(#mask1_40557)">
		<g style="mix-blend-mode:normal">
			<path id="Path 348" d="M4.39 358.41C3.43 358.51 2.88 359.06 2.82 360.01C2.76 360.93 3.62 361.79 4.54 361.8C5.49 361.82 6.24 361 6.22 360.01C6.2 358.99 5.41 358.31 4.39 358.41Z" fill="#1A1818" fill-opacity="1.000000" fill-rule="evenodd"/>
		</g>
	</g>
	<g mask="url(#mask1_40557)">
		<g style="mix-blend-mode:normal">
			<path id="Path 349" d="M96.18 116.78C96.22 117.66 97.22 118.68 97.99 118.39C98.65 118.16 99.13 117.5 100.07 116.71C99.11 116.01 98.59 115.38 97.94 115.21C97.03 114.96 96.15 115.87 96.18 116.78Z" fill="#1A1818" fill-opacity="1.000000" fill-rule="evenodd"/>
		</g>
	</g>
	<g mask="url(#mask1_40557)">
		<g style="mix-blend-mode:normal">
			<path id="Path 350" d="M96.57 94.45C96.56 95.32 97.52 96.38 98.31 96.13C98.97 95.93 99.49 95.29 100.45 94.55C99.53 93.8 99.04 93.15 98.4 92.94C97.51 92.66 96.57 93.55 96.57 94.45Z" fill="#1A1818" fill-opacity="1.000000" fill-rule="evenodd"/>
		</g>
	</g>
	<g mask="url(#mask1_40557)">
		<g style="mix-blend-mode:normal">
			<path id="Path 351" d="M15.76 346.92C15.04 347.9 14.42 348.43 14.24 349.09C14.01 349.9 15.07 350.84 15.93 350.82C16.82 350.79 17.71 349.84 17.42 348.95C17.2 348.32 16.53 347.84 15.76 346.92Z" fill="#1A1818" fill-opacity="1.000000" fill-rule="evenodd"/>
		</g>
	</g>
	<g mask="url(#mask1_40557)">
		<g style="mix-blend-mode:normal">
			<path id="Path 352" d="M88.41 18.01C89.23 18.32 90.1 17.32 90.07 15.85C89.72 15.61 89.18 15 88.53 14.84C87.61 14.61 86.55 15.61 86.85 16.43C87.09 17.08 87.77 17.77 88.41 18.01Z" fill="#1A1818" fill-opacity="1.000000" fill-rule="evenodd"/>
		</g>
	</g>
	<g mask="url(#mask1_40557)">
		<g style="mix-blend-mode:normal">
			<path id="Path 353" d="M48.61 294.04C48.82 294.69 49.47 295.4 50.1 295.68C50.9 296.02 51.95 295.02 51.77 294.09C51.65 293.43 51.08 292.87 50.85 292.5C49.39 292.39 48.35 293.21 48.61 294.04Z" fill="#1A1818" fill-opacity="1.000000" fill-rule="evenodd"/>
		</g>
	</g>
	<g mask="url(#mask1_40557)">
		<g style="mix-blend-mode:normal">
			<path id="Path 354" d="M97.1 72.31C97.14 73.25 97.83 73.92 98.7 73.75C99.34 73.62 99.85 72.89 100.84 72.09C99.78 71.45 99.2 70.84 98.55 70.76C97.6 70.63 97.07 71.4 97.1 72.31Z" fill="#1A1818" fill-opacity="1.000000" fill-rule="evenodd"/>
		</g>
	</g>
	<g mask="url(#mask1_40557)">
		<g style="mix-blend-mode:normal">
			<path id="Path 355" d="M97.48 137.49C96.49 137.49 95.84 138.14 95.97 139.01C96.07 139.65 96.77 140.2 97.49 141.19C98.18 140.19 98.84 139.64 98.95 139C99.12 138.07 98.43 137.5 97.48 137.49Z" fill="#1A1818" fill-opacity="1.000000" fill-rule="evenodd"/>
		</g>
	</g>
	<g mask="url(#mask1_40557)">
		<g style="mix-blend-mode:normal">
			<path id="Path 356" d="M71.86 249.9C71.87 250.76 72.36 251.4 73.21 251.29C73.8 251.21 74.35 250.69 75.36 250.1C74.49 249.34 74.06 248.74 73.49 248.51C72.71 248.2 71.85 249.01 71.86 249.9Z" fill="#1A1818" fill-opacity="1.000000" fill-rule="evenodd"/>
		</g>
	</g>
	<g mask="url(#mask1_40557)">
		<g style="mix-blend-mode:normal">
			<path id="Path 357" d="M100.43 50.02C100.56 49.11 99.87 48.38 98.96 48.59C98.44 48.7 97.79 49.48 97.74 50.01C97.69 50.5 98.37 51.05 99 51.97C99.71 51.06 100.36 50.58 100.43 50.02Z" fill="#1A1818" fill-opacity="1.000000" fill-rule="evenodd"/>
		</g>
	</g>
	<g mask="url(#mask1_40557)">
		<g style="mix-blend-mode:normal">
			<path id="Path 358" d="M86.4 216.7C86.33 216.13 85.71 215.62 85.05 214.67C84.39 215.56 83.82 216.03 83.66 216.6C83.46 217.4 83.94 218.02 84.82 218.08C85.78 218.16 86.5 217.66 86.4 216.7Z" fill="#1A1818" fill-opacity="1.000000" fill-rule="evenodd"/>
		</g>
	</g>
	<g mask="url(#mask1_40557)">
		<g style="mix-blend-mode:normal">
			<path id="Path 359" d="M25.84 338.33C25.9 339.21 26.5 339.71 27.3 339.52C27.88 339.37 28.35 338.81 29.25 338.17C28.33 337.49 27.82 336.86 27.26 336.78C26.29 336.65 25.79 337.37 25.84 338.33Z" fill="#1A1818" fill-opacity="1.000000" fill-rule="evenodd"/>
		</g>
	</g>
	<g mask="url(#mask1_40557)">
		<g style="mix-blend-mode:normal">
			<path id="Path 360" d="M95.76 161.15C95.55 161.95 96.04 162.56 96.92 162.63C97.88 162.69 98.61 162.21 98.5 161.25C98.44 160.67 97.8 160.16 97.15 159.22C96.49 160.1 95.91 160.57 95.76 161.15Z" fill="#1A1818" fill-opacity="1.000000" fill-rule="evenodd"/>
		</g>
	</g>
	<g mask="url(#mask1_40557)">
		<g style="mix-blend-mode:normal">
			<path id="Path 361" d="M60.34 283.25C60.36 283.66 61.23 284.43 61.51 284.34C62.06 284.17 62.83 283.56 62.86 283.08C62.9 282.58 62.16 282.04 61.42 281.08C60.87 282.12 60.32 282.7 60.34 283.25Z" fill="#1A1818" fill-opacity="1.000000" fill-rule="evenodd"/>
		</g>
	</g>
	<g mask="url(#mask1_40557)">
		<g style="mix-blend-mode:normal">
			<path id="Path 362" d="M37.38 327.2C37.35 327.6 38.02 328.32 38.46 328.4C38.88 328.48 39.42 327.89 40.26 327.37C39.48 326.75 39.01 326.09 38.58 326.1C38.14 326.13 37.41 326.78 37.38 327.2Z" fill="#1A1818" fill-opacity="1.000000" fill-rule="evenodd"/>
		</g>
	</g>
	<g mask="url(#mask1_40557)">
		<g style="mix-blend-mode:normal">
			<path id="Path 363" d="M95.56 183.49C95.59 183.94 96.24 184.65 96.65 184.66C97.05 184.69 97.77 184.02 97.82 183.57C97.88 183.15 97.29 182.64 96.75 181.81C96.15 182.59 95.52 183.07 95.56 183.49Z" fill="#1A1818" fill-opacity="1.000000" fill-rule="evenodd"/>
		</g>
	</g>
	<g mask="url(#mask1_40557)">
		<g style="mix-blend-mode:normal">
			<path id="Path 364" d="M99.44 28.86C99.87 28.89 100.35 28.27 101.14 27.68C100.32 27.13 99.81 26.53 99.39 26.59C98.95 26.64 98.27 27.34 98.29 27.74C98.3 28.15 99 28.82 99.44 28.86Z" fill="#1A1818" fill-opacity="1.000000" fill-rule="evenodd"/>
		</g>
	</g>
	<g mask="url(#mask1_40557)">
		<g style="mix-blend-mode:normal">
			<path id="Path 365" d="M48.82 316.39C48.73 316.61 49.34 317.13 49.8 317.72C50.25 317.18 50.78 316.82 50.78 316.45C50.8 316.07 50.29 315.69 50.01 315.3C49.59 315.66 49.01 315.94 48.82 316.39Z" fill="#1A1818" fill-opacity="1.000000" fill-rule="evenodd"/>
		</g>
	</g>
	<g mask="url(#mask1_40557)">
		<g style="mix-blend-mode:normal">
			<path id="Path 366" d="M84.59 238.04C84.2 238.08 83.87 238.62 83.51 238.94C83.9 239.32 84.26 239.92 84.73 240.03C85.15 240.14 85.69 239.72 86.19 239.53C86.04 239.28 85.88 239.01 85.73 238.76C85.36 238.5 84.94 238 84.59 238.04Z" fill="#1A1818" fill-opacity="1.000000" fill-rule="evenodd"/>
		</g>
	</g>
	<g mask="url(#mask1_40557)">
		<g style="mix-blend-mode:normal">
			<path id="Path 367" d="M107.55 150.4C107.85 150.67 108.14 151.13 108.47 151.15C108.78 151.17 109.11 150.75 109.63 150.39C109.15 149.96 108.75 149.42 108.57 149.48C108.16 149.62 107.88 150.08 107.55 150.4Z" fill="#1A1818" fill-opacity="1.000000" fill-rule="evenodd"/>
		</g>
	</g>
	<g mask="url(#mask1_40557)">
		<g style="mix-blend-mode:normal">
			<path id="Path 368" d="M95.4 205.76C95.45 206.13 95.98 206.55 96.39 206.72C96.54 206.79 97.21 206.22 97.2 205.94C97.2 205.53 96.81 205.13 96.43 204.46C95.93 205.05 95.36 205.45 95.4 205.76Z" fill="#1A1818" fill-opacity="1.000000" fill-rule="evenodd"/>
		</g>
	</g>
	<g mask="url(#mask1_40557)">
		<g style="mix-blend-mode:normal">
			<path id="Path 369" d="M71.96 272.05C72.1 272.47 72.49 273.01 72.86 273.09C73.16 273.16 73.6 272.61 74.22 272.14C73.57 271.73 73.2 271.31 72.8 271.29C72.52 271.27 71.9 271.89 71.96 272.05Z" fill="#1A1818" fill-opacity="1.000000" fill-rule="evenodd"/>
		</g>
	</g>
	<g mask="url(#mask1_40557)">
		<g style="mix-blend-mode:normal">
			<path id="Path 370" d="M109.64 84.39C109.95 84.41 110.29 83.97 110.8 83.58C110.31 83.17 109.9 82.62 109.71 82.69C109.32 82.84 109.03 83.31 108.7 83.64C109.01 83.91 109.32 84.37 109.64 84.39Z" fill="#1A1818" fill-opacity="1.000000" fill-rule="evenodd"/>
		</g>
	</g>
	<g mask="url(#mask1_40557)">
		<g style="mix-blend-mode:normal">
			<path id="Path 371" d="M4.13 381.45C3.98 381.38 3.51 381.87 3.01 382.23C3.47 382.65 3.77 383.11 4.08 383.12C4.4 383.14 4.74 382.72 5.07 382.49C4.77 382.12 4.53 381.66 4.13 381.45Z" fill="#1A1818" fill-opacity="1.000000" fill-rule="evenodd"/>
		</g>
	</g>
	<g mask="url(#mask1_40557)">
		<g style="mix-blend-mode:normal">
			<path id="Path 372" d="M100.66 5.64C100.54 5.23 100.12 4.9 99.82 4.53C99.53 4.81 99.04 5.06 99 5.38C98.95 5.68 99.34 6.06 99.67 6.61C100.13 6.18 100.71 5.82 100.66 5.64Z" fill="#1A1818" fill-opacity="1.000000" fill-rule="evenodd"/>
		</g>
	</g>
	<g mask="url(#mask1_40557)">
		<g style="mix-blend-mode:normal">
			<path id="Path 373" d="M109.28 106.75C109.42 106.81 110.08 106.24 110.08 105.96C110.08 105.56 109.69 105.16 109.32 104.49C108.81 105.08 108.23 105.48 108.28 105.79C108.32 106.16 108.85 106.58 109.28 106.75Z" fill="#1A1818" fill-opacity="1.000000" fill-rule="evenodd"/>
		</g>
	</g>
	<g mask="url(#mask1_40557)">
		<g style="mix-blend-mode:normal">
			<path id="Path 374" d="M108.64 128.98C108.94 129.08 109.43 128.6 110.13 128.23C109.56 127.72 109.24 127.26 108.85 127.17C108.57 127.12 107.87 127.64 107.9 127.8C107.99 128.25 108.28 128.85 108.64 128.98Z" fill="#1A1818" fill-opacity="1.000000" fill-rule="evenodd"/>
		</g>
	</g>
	<g mask="url(#mask1_40557)">
		<g style="mix-blend-mode:normal">
			<path id="Path 375" d="M15.63 370.65C15.48 370.57 14.95 370.88 14.87 371.1C14.78 371.36 14.96 371.97 15.1 371.99C15.47 372.06 15.89 371.9 16.63 371.76C16.17 371.22 15.96 370.82 15.63 370.65Z" fill="#1A1818" fill-opacity="1.000000" fill-rule="evenodd"/>
		</g>
	</g>
	<g mask="url(#mask1_40557)">
		<g style="mix-blend-mode:normal">
			<path id="Path 376" d="M110 61.98C110.17 62.07 110.55 61.72 111.07 61.46C110.58 61.01 110.33 60.66 109.98 60.52C109.85 60.46 109.28 60.97 109.32 61.12C109.41 61.45 109.69 61.84 110 61.98Z" fill="#1A1818" fill-opacity="1.000000" fill-rule="evenodd"/>
		</g>
	</g>
</svg>
