<svg width="163.000000" height="154.000000" viewBox="0 0 163 154" fill="none" xmlns="http://www.w3.org/2000/svg" xmlns:xlink="http://www.w3.org/1999/xlink">
	<desc>
			Created with Pixso.
	</desc>
	<defs/>
	<mask id="mask1_667" mask-type="alpha" maskUnits="userSpaceOnUse" x="0.000000" y="0.000000" width="163.000000" height="154.000000">
		<g style="mix-blend-mode:normal">
			<rect id="Rectangle 3530" width="163.000000" height="154.000000" fill="#73ED27" fill-opacity="1.000000"/>
		</g>
	</mask>
	<g mask="url(#mask1_667)">
		<g style="mix-blend-mode:normal">
			<path id="Path 26675" d="M55.93 -0.1C56.14 0.19 56.68 0.37 56.83 0.66C57.06 1.14 57.22 6.65 57.22 7.66C57.21 11.98 56.39 14.48 58.3 18.76C59.97 22.52 61.29 24.11 62 28.52C62.22 29.89 62.08 31.91 62.46 33.15C63.13 35.34 66.94 35.74 68.74 34.69C71.97 30.91 73.26 25.98 79.33 27.21C81.5 27.64 82.41 30.01 84.82 30.05C86.23 30.07 88 29.24 89.09 28.36C93.84 24.49 88.99 20.99 88.71 16.56C88.52 13.66 90.62 7.59 92.68 5.52C95.8 2.37 103.53 3.05 105.42 7.46C108.7 15.1 93.64 30.41 105.1 35.23C110.61 37.55 113.65 29.72 117.85 27.65C123.1 25.06 124.96 32.19 123.49 36.08C121.35 41.76 116.51 41.76 112 43.9C104.15 47.62 109.87 53.78 117.18 52.65C123.18 51.72 134.73 39.58 142.16 36.45C148.08 33.96 160.71 31.79 162.66 40.31L162.66 42.6C162.07 44.19 161.49 47.25 159.87 48.06C158.22 48.89 154.11 47.63 152.11 47.43C144.98 46.71 139.02 47.87 132.5 50.69C129.73 51.88 123.23 54.83 122.03 57.5C119.3 63.6 128.06 63.79 128.61 68.9C129.21 74.52 123.79 74.48 122.12 78.18C120.19 82.46 126.32 86.02 129.82 86.5C136.82 87.45 139.92 83.34 147.29 88.34C154.87 93.48 155.7 102.6 155.04 111.1C154.5 118.07 148.95 121.53 143.59 115.93C137.39 109.45 138.68 98.31 132.91 93.58C130.84 91.89 124.51 88.94 121.9 89.12C119.29 89.3 116.57 93.04 116.4 95.58C116.08 100.43 122.55 106.76 125 111.14C126.64 114.07 129.74 120.93 126.56 123.53C122.86 126.56 117.26 125.78 116.44 120.46C115.58 114.89 116.34 106.67 110.8 103.23C108.29 101.68 104.26 100.99 101.91 103.2C99.02 105.92 103.2 112.38 99.72 114.73C95.85 117.35 93.77 113.97 92.07 110.79C90.65 108.12 89.76 103.4 88.2 101.43C86.75 99.6 83.93 99.86 82.76 101.83C79.3 107.65 84.85 120.53 87.4 126.39C89.4 130.98 93.83 137.44 92.4 142.49C91.31 146.32 87.59 146.95 85.31 143.47C81.46 137.64 82.27 129.09 81.31 122.31C80.52 116.76 77.68 104.95 74.34 100.56C72.42 98.03 69.1 100.33 68 102.57C64.75 109.16 69.94 111.88 71.12 117.26C71.5 119.01 71.74 123.08 71.05 124.69C69.79 127.64 61.75 127.77 59.95 125.12C55.71 118.89 65.16 108.74 60.72 101.48C57.87 96.83 55.82 100.25 54.19 103.5C47.96 115.99 48.11 130.35 45.19 143.55C44.02 148.83 41.64 152.38 36.12 153.66L34.08 153.66C31.03 152.6 30.58 148.97 30.77 146.16C31.12 140.99 38.45 130.91 41.08 125.71C45.8 116.34 48.56 106.38 51.31 96.29C50.86 93.59 48.29 94.14 47.08 96.13C46.51 97.07 46.32 98.66 45.63 99.52C43.91 101.66 38.16 100.34 37.65 97.61C37.14 94.86 39.41 92.26 38.19 88.94C36.89 85.39 33.42 83.43 30.39 86.56C28.85 88.14 27 91.57 25.43 93.54C22.54 97.18 17.41 104.25 12.86 98.77C6.21 90.74 21.19 87.5 25.96 84.66C29.13 82.77 31.71 79.74 31.26 75.79C30.95 73.11 29.1 72.16 26.73 73.49C21.35 76.53 18.48 87 11.57 87.81C4.84 88.6 1.64 85.41 0.03 79.19C0.12 78.05 -0.09 76.76 0.03 75.64C1.12 65.44 14.56 66.5 21.76 65.72C26.92 65.16 32.95 63.57 37.77 61.66C39.92 60.81 43.65 59.08 40.85 56.41C38.56 54.21 31.33 55.03 28.17 54.23C25.63 53.58 23.65 48.78 26.27 46.85C29.87 44.18 35.53 49.37 38.99 50.78C41.69 51.87 44 52.65 46.52 50.59C49.43 48.22 45.29 41.85 43.48 39.68C39.27 34.65 33.59 33.76 30.23 27.52C27.59 22.61 26.27 13.64 29.4 8.81C31.43 5.69 34.68 5.2 37.4 7.89C41.45 11.91 40.73 25.12 43.27 31.25C44.35 33.86 49.52 41.2 52.87 39.4C55.83 37.81 53.41 33.13 53.17 30.49C52.58 23.71 57.05 19.58 54.2 12.69C53.26 10.41 50.09 6.6 50.08 4.35C50.08 2.09 52.65 0.71 54.41 -0.1L55.93 -0.1Z" fill="#73ED27" fill-opacity="1.000000" fill-rule="nonzero"/>
		</g>
	</g>
</svg>
