<svg width="144.660156" height="144.660156" viewBox="0 0 144.66 144.66" fill="none" xmlns="http://www.w3.org/2000/svg" xmlns:xlink="http://www.w3.org/1999/xlink">
	<desc>
			Created with Pixso.
	</desc>
	<defs/>
	<mask id="mask1_36900" mask-type="alpha" maskUnits="userSpaceOnUse" x="0.000000" y="0.000000" width="144.660156" height="144.660156">
		<g style="mix-blend-mode:normal">
			<rect id="Rectangle 3948" width="144.660156" height="144.660156" fill="#C4C4C4" fill-opacity="1.000000"/>
		</g>
	</mask>
	<g mask="url(#mask1_36900)">
		<mask id="mask1_36903" mask-type="alpha" maskUnits="userSpaceOnUse" x="0.000000" y="0.000000" width="144.660156" height="144.660156">
			<g style="mix-blend-mode:normal">
				<rect id="Rectangle 3947" width="144.660156" height="144.660156" fill="#C4C4C4" fill-opacity="1.000000"/>
			</g>
		</mask>
		<g mask="url(#mask1_36903)">
			<g opacity="0.199997">
				<mask id="mask1_36960" mask-type="alpha" maskUnits="userSpaceOnUse" x="18.912109" y="17.552734" width="110.752930" height="116.256348">
					<g style="mix-blend-mode:normal">
						<rect id="Rectangle 3919" x="18.912109" y="17.552734" width="110.752838" height="116.256363" fill="#C4C4C4" fill-opacity="1.000000"/>
					</g>
				</mask>
				<g mask="url(#mask1_36960)">
					<g style="mix-blend-mode:normal">
						<path id="Path 36611" d="M101.86 94.02C111.57 92.34 124.19 87.72 128 75.18C128.1 74.85 130.44 66.95 129.39 56.8C128.42 47.39 124.23 34.27 109.75 25.2C103.36 21.2 95.84 18.67 88.02 17.9C73.75 16.49 46.96 18.17 27.93 45.36C27.73 45.67 22.94 53.09 20.41 63.99C18.06 74.08 17.31 89.15 27.09 103.62C29.17 106.69 31.72 109.47 34.68 111.87C40.63 116.68 53.23 125.27 67.47 125.27C73.48 125.27 79.78 123.74 86 119.74C86.07 119.7 93.09 114.89 90.77 105.61C90.75 105.54 90.72 105.47 90.69 105.4C90.68 105.38 90.05 104.05 89.56 102.37C90.96 104.96 92.53 107.77 94.26 110.69C98.41 117.71 104.01 126.28 110.44 133.8C114.17 131.49 117.67 128.85 120.9 125.92C116.68 116.46 110.51 105.01 101.86 94.02ZM70.98 105.87C70.79 107.03 69.85 108.04 68.35 108.69C66.69 109.42 64.59 109.62 62.43 109.26C58.22 108.55 55.03 105.8 55.46 103.26C55.65 102.1 56.59 101.1 58.09 100.44C59.21 99.95 60.53 99.7 61.93 99.7C62.61 99.7 63.31 99.76 64.01 99.87C68.22 100.58 71.41 103.33 70.98 105.87Z" fill="#000072" fill-opacity="1.000000" fill-rule="nonzero"/>
					</g>
				</g>
			</g>
		</g>
		<g mask="url(#mask1_36903)">
			<g style="mix-blend-mode:normal">
				<path id="Path 36612" d="M106.66 22.81C100.24 18.79 92.94 16.41 85.41 15.67C71.18 14.26 45 16.01 26.34 42.66C26.34 42.66 7.01 72.3 25.5 99.66C27.55 102.68 30.04 105.37 32.88 107.67C41.43 114.59 62.65 128.47 82.87 115.48C82.87 115.48 89.34 111.17 87.19 102.55C87.19 102.55 86.13 100.35 85.64 97.91C85.05 94.94 86.79 92.03 89.68 91.15C90.14 91.01 90.64 90.87 91.19 90.74C92.15 90.51 93.13 90.34 94.12 90.25C106.36 89.14 120.46 84.58 124.44 71.53C124.44 71.53 133.95 39.9 106.66 22.81ZM69.58 102.72C69.04 105.91 64.64 107.84 59.74 107.02C54.85 106.19 51.32 102.94 51.86 99.74C52.4 96.54 56.8 94.62 61.69 95.44C66.58 96.26 70.11 99.52 69.58 102.72Z" fill="#FFB74D" fill-opacity="1.000000" fill-rule="nonzero"/>
			</g>
		</g>
		<g mask="url(#mask1_36903)">
			<g style="mix-blend-mode:normal">
				<path id="Path 36613" d="M64.93 121.94C50.84 121.94 38.36 113.54 32.18 108.53C29.22 106.13 26.66 103.36 24.58 100.28C14.8 85.82 15.55 70.75 17.9 60.65C20.44 49.75 25.21 42.36 25.41 42.05C41.5 19.06 63.11 14.21 78.38 14.21C80.75 14.21 83.15 14.33 85.52 14.56C93.34 15.34 100.86 17.86 107.25 21.87C121.73 30.93 125.92 44.05 126.89 53.46C127.93 63.61 125.6 71.51 125.5 71.85C120.96 86.77 103.95 90.48 94.22 91.36C93.32 91.44 92.39 91.6 91.45 91.82C90.96 91.94 90.47 92.07 90.01 92.21C87.66 92.93 86.25 95.28 86.73 97.69C87.18 99.96 88.18 102.04 88.19 102.06C88.22 102.13 88.25 102.2 88.27 102.28C90.59 111.55 83.56 116.36 83.49 116.41C77.77 120.08 71.53 121.94 64.93 121.94ZM27.27 43.28C27.04 43.64 22.44 50.91 20.05 61.23C16.81 75.26 18.95 87.98 26.43 99.03C28.38 101.93 30.79 104.54 33.58 106.8C39.54 111.62 51.53 119.72 64.93 119.72C71.1 119.72 76.93 117.98 82.28 114.55C82.49 114.4 87.99 110.57 86.13 102.92C85.9 102.43 85 100.39 84.55 98.12C83.84 94.59 85.91 91.13 89.36 90.09C89.87 89.93 90.4 89.79 90.93 89.66C91.97 89.41 93.01 89.23 94.02 89.14C103.19 88.31 119.21 84.88 123.37 71.2C123.4 71.13 125.68 63.33 124.67 53.61C123.32 40.68 117.06 30.63 106.07 23.75C99.96 19.93 92.78 17.52 85.3 16.77C83.01 16.55 80.68 16.43 78.38 16.43C63.64 16.43 42.81 21.09 27.27 43.28ZM61.99 108.32C61.19 108.32 60.37 108.25 59.56 108.11C53.98 107.18 50.11 103.42 50.76 99.56C51.3 96.37 54.87 94.14 59.44 94.14C60.25 94.14 61.06 94.21 61.87 94.34C67.46 95.28 71.32 99.04 70.67 102.9C70.14 106.09 66.57 108.32 61.99 108.32ZM59.44 96.36C56.03 96.36 53.3 97.86 52.96 99.92C52.53 102.47 55.72 105.21 59.93 105.92C60.62 106.04 61.31 106.09 61.99 106.09C65.4 106.09 68.13 104.6 68.48 102.53C68.91 99.99 65.71 97.24 61.51 96.54C60.82 96.42 60.12 96.36 59.44 96.36Z" fill="#000072" fill-opacity="1.000000" fill-rule="nonzero"/>
			</g>
		</g>
		<g mask="url(#mask1_36903)">
			<g opacity="0.199997">
				<mask id="mask1_36964" mask-type="alpha" maskUnits="userSpaceOnUse" x="59.701660" y="54.062012" width="35.517334" height="51.522949">
					<g style="mix-blend-mode:normal">
						<rect id="Rectangle 3920" x="59.701660" y="54.062012" width="35.517414" height="51.523167" fill="#C4C4C4" fill-opacity="1.000000"/>
					</g>
				</mask>
				<g mask="url(#mask1_36964)">
					<g style="mix-blend-mode:normal">
						<path id="Path 36614" d="M93.74 88.41C94.14 87.67 94.15 86.74 93.67 85.98L92.98 84.88C92.42 83.99 91.37 83.59 90.4 83.81L82.29 74.42C82.61 73.63 82.56 72.7 82.08 71.93C81.73 71.38 81.21 70.99 80.63 70.8C80.77 64.65 79.16 60.1 75.86 57.27C71.02 53.14 63.88 53.97 61.04 54.51C60.44 54.63 59.95 55.06 59.77 55.65C59.59 56.24 59.75 56.87 60.18 57.3C62.3 59.44 62.88 63.85 63.02 65.65C63.16 67.4 63.6 69.01 64.31 70.44C66.44 74.73 69.97 75.76 71.97 75.98C71.81 76.67 71.92 77.41 72.32 78.05C72.8 78.83 73.62 79.27 74.46 79.32L79.39 90.72C79.17 91 79 91.33 78.92 91.69C78.78 92.31 78.89 92.96 79.23 93.5L79.92 94.6C80.37 95.33 81.16 95.73 81.96 95.73C82.09 95.73 82.21 95.71 82.34 95.69C83.77 98.53 85.55 101.91 87.62 105.58C87.59 104.64 87.46 103.62 87.19 102.55C87.19 102.55 86.12 100.35 85.64 97.91C85.04 94.94 86.79 92.03 89.68 91.15C90.14 91.01 90.64 90.87 91.19 90.74C92.15 90.51 93.13 90.34 94.12 90.25C94.48 90.22 94.85 90.18 95.21 90.14C94.73 89.56 94.24 88.99 93.74 88.41Z" fill="#000072" fill-opacity="1.000000" fill-rule="nonzero"/>
					</g>
				</g>
			</g>
		</g>
		<g mask="url(#mask1_36903)">
			<g opacity="0.100006">
				<mask id="mask1_36968" mask-type="alpha" maskUnits="userSpaceOnUse" x="30.293457" y="75.278809" width="20.676270" height="12.741211">
					<g style="mix-blend-mode:normal">
						<rect id="Rectangle 3921" x="30.293457" y="75.278809" width="20.676226" height="12.741200" fill="#000000" fill-opacity="1.000000"/>
					</g>
				</mask>
				<g mask="url(#mask1_36968)">
					<g style="mix-blend-mode:normal">
						<path id="Path 36615" d="M39.12 75.86C44.77 74.39 50.02 75.79 50.85 78.98C51.68 82.18 47.78 85.96 42.13 87.43C36.48 88.9 31.23 87.5 30.4 84.31C29.57 81.11 33.47 77.33 39.12 75.86Z" fill="#000000" fill-opacity="1.000000" fill-rule="nonzero"/>
					</g>
				</g>
			</g>
		</g>
		<g mask="url(#mask1_36903)">
			<g opacity="0.199997">
				<mask id="mask1_36972" mask-type="alpha" maskUnits="userSpaceOnUse" x="27.260742" y="28.097656" width="98.785156" height="92.735352">
					<g style="mix-blend-mode:normal">
						<rect id="Rectangle 3922" x="27.260742" y="28.097656" width="98.785179" height="92.735245" fill="#C4C4C4" fill-opacity="1.000000"/>
					</g>
				</mask>
				<g mask="url(#mask1_36972)">
					<g style="mix-blend-mode:normal">
						<path id="Path 36616" d="M113.54 28.09C127.52 45.36 120.82 67.63 120.82 67.63C116.85 80.69 102.75 85.25 90.5 86.36C89.52 86.45 88.54 86.61 87.57 86.85C87.02 86.98 86.52 87.12 86.07 87.26C83.18 88.13 81.43 91.05 82.02 94.01C82.51 96.46 83.57 98.65 83.57 98.65C85.73 107.28 79.26 111.59 79.26 111.59C59.04 124.57 37.81 110.69 29.27 103.77C28.57 103.21 27.9 102.63 27.26 102.02C28.92 104.1 30.81 105.99 32.88 107.66C41.43 114.59 62.65 128.47 82.87 115.48C82.87 115.48 89.34 111.17 87.19 102.55C87.19 102.55 86.12 100.35 85.64 97.91C85.05 94.94 86.79 92.03 89.68 91.15C90.14 91.01 90.64 90.87 91.19 90.74C92.15 90.51 93.13 90.34 94.12 90.25C106.36 89.14 120.46 84.58 124.44 71.52C124.44 71.52 132.21 45.68 113.54 28.09Z" fill="#000072" fill-opacity="1.000000" fill-rule="nonzero"/>
					</g>
				</g>
			</g>
		</g>
		<g mask="url(#mask1_36903)">
			<g opacity="0.199997">
				<mask id="mask1_36976" mask-type="alpha" maskUnits="userSpaceOnUse" x="33.834473" y="26.643555" width="84.321045" height="51.977051">
					<g style="mix-blend-mode:normal">
						<rect id="Rectangle 3923" x="33.834473" y="26.643555" width="84.321053" height="51.976982" fill="#C4C4C4" fill-opacity="1.000000"/>
					</g>
				</mask>
				<g mask="url(#mask1_36976)">
					<g style="mix-blend-mode:normal">
						<path id="Path 36617" d="M49.9 55.11C49.59 53.88 48.78 52.81 47.67 52.18L44.17 50.2C43.76 49.97 43.32 49.81 42.86 49.71L40.96 49.29C38.87 48.84 36.75 49.85 35.79 51.76L35.23 52.88C35.06 53.22 34.94 53.58 34.85 53.95L33.94 58.05C33.63 59.46 33.98 60.92 34.9 62.03L37.03 64.61C37.91 65.68 39.23 66.3 40.62 66.3L41.56 66.3C43.17 66.3 44.7 65.44 45.54 64.07L46.17 63.04C46.53 62.44 47.06 61.98 47.64 61.75C47.85 61.66 48.05 61.56 48.25 61.44C49.9 60.42 50.71 58.35 50.22 56.4L49.9 55.11Z" fill="#000072" fill-opacity="1.000000" fill-rule="nonzero"/>
					</g>
				</g>
				<g mask="url(#mask1_36976)">
					<g style="mix-blend-mode:normal">
						<path id="Path 36618" d="M67.21 32.61L65.88 31.45C64.94 30.64 63.79 30.12 62.56 29.96L61.34 29.8C59.5 29.56 57.61 29.93 55.99 30.83L53.4 32.28C52.63 32.72 51.9 33.25 51.25 33.85L50.05 34.97C48.96 35.99 48.78 37.69 49.64 38.91C49.86 39.23 49.99 39.66 49.96 40.04L49.85 41.23C49.81 41.74 49.89 42.25 50.1 42.73L50.34 43.26C50.72 44.13 51.51 44.77 52.44 44.98C52.66 45.03 52.88 45.05 53.09 45.05C53.72 45.05 54.34 44.86 54.85 44.49L55.16 44.27C55.4 44.1 55.68 43.99 55.98 43.97L63.77 43.37C64.53 43.31 65.23 42.98 65.75 42.42L67.82 40.21C68.37 39.62 68.66 38.81 68.62 38L68.49 35.25C68.44 34.24 67.98 33.27 67.21 32.61Z" fill="#000072" fill-opacity="1.000000" fill-rule="nonzero"/>
					</g>
				</g>
				<g mask="url(#mask1_36976)">
					<g style="mix-blend-mode:normal">
						<path id="Path 36619" d="M94.72 35.22C94.57 35.01 94.47 34.77 94.41 34.51L93.97 32.46C93.52 30.41 92 28.73 90 28.08L86.71 27.01C84.79 26.39 82.74 26.55 80.93 27.45L78.62 28.6C77.89 28.97 77.32 29.59 77.02 30.34L76.6 31.4C76.1 32.63 76.39 34.04 77.33 34.98L77.48 35.13C77.74 35.39 77.92 35.72 78 36.09L78.39 37.92C78.53 38.55 78.84 39.12 79.29 39.58L81.14 41.42C82.5 42.78 84.22 43.66 86.12 43.96L94.97 45.34C95.14 45.37 95.32 45.38 95.49 45.38C95.88 45.38 96.28 45.31 96.65 45.17C97.63 44.81 98.36 44.03 98.66 43.04C98.97 42.05 98.8 40.99 98.2 40.15L94.72 35.22Z" fill="#000072" fill-opacity="1.000000" fill-rule="nonzero"/>
					</g>
				</g>
				<g mask="url(#mask1_36976)">
					<g style="mix-blend-mode:normal">
						<path id="Path 36620" d="M118 51.15C117.03 45.18 114.17 42.17 111.94 40.69C111.13 40.15 110.11 39.97 109.16 40.2C108.21 40.43 107.42 41.02 106.94 41.86C105.38 44.63 106.2 48.78 106.4 49.68C105.26 54.69 107.42 56.38 109.16 57.74C110.23 58.57 111.51 59 112.78 59C113.47 59 114.16 58.87 114.8 58.61C118.24 57.23 118.39 53.11 118 51.15Z" fill="#000072" fill-opacity="1.000000" fill-rule="nonzero"/>
					</g>
				</g>
				<g mask="url(#mask1_36976)">
					<g style="mix-blend-mode:normal">
						<path id="Path 36621" d="M110.41 65.57C109.64 64.68 108.44 64.28 107.28 64.52L105.77 64.85C105.46 64.91 105.16 65.03 104.88 65.18L104.37 65.47C103.34 66.04 102.7 67.13 102.7 68.31C102.7 68.62 102.62 68.93 102.47 69.2C102.07 69.92 101.32 71.24 100.76 72.22C99.96 73.62 100.25 75.42 101.46 76.49C102.09 77.06 102.6 77.48 102.95 77.76C103.36 78.07 103.84 78.28 104.35 78.37L105.38 78.56C105.58 78.6 105.77 78.62 105.97 78.62C106.59 78.62 107.2 78.44 107.74 78.09L111.12 75.89C111.58 75.59 111.96 75.17 112.22 74.68L113.49 72.27C114.12 71.07 113.96 69.64 113.07 68.62L110.41 65.57Z" fill="#000072" fill-opacity="1.000000" fill-rule="nonzero"/>
					</g>
				</g>
			</g>
		</g>
		<g mask="url(#mask1_36903)">
			<g opacity="0.500000">
				<mask id="mask1_36984" mask-type="alpha" maskUnits="userSpaceOnUse" x="53.227539" y="99.116211" width="19.189209" height="11.154297">
					<g style="mix-blend-mode:normal">
						<rect id="Rectangle 3924" x="53.227539" y="99.116211" width="19.189102" height="11.154528" fill="#C4C4C4" fill-opacity="1.000000"/>
					</g>
				</mask>
				<g mask="url(#mask1_36984)">
					<g style="mix-blend-mode:normal">
						<path id="Path 36622" d="M61.23 110.06C62.05 110.2 62.86 110.27 63.66 110.27C65.38 110.27 67.01 109.95 68.41 109.34C70.62 108.37 72.02 106.78 72.34 104.85C72.69 102.76 71.72 100.71 69.88 99.11C70.59 100.29 70.89 101.59 70.67 102.9C70.35 104.83 68.95 106.43 66.74 107.39C65.34 108.01 63.71 108.32 61.99 108.32C61.19 108.32 60.38 108.25 59.56 108.11C56.99 107.68 54.79 106.65 53.22 105.29C54.61 107.59 57.54 109.44 61.23 110.06Z" fill="#FFFFFF" fill-opacity="1.000000" fill-rule="nonzero"/>
					</g>
				</g>
			</g>
		</g>
		<g mask="url(#mask1_36903)">
			<g opacity="0.500000">
				<mask id="mask1_36988" mask-type="alpha" maskUnits="userSpaceOnUse" x="18.589355" y="16.442383" width="97.923096" height="86.738770">
					<g style="mix-blend-mode:normal">
						<rect id="Rectangle 3925" x="18.589355" y="16.442383" width="97.923149" height="86.738594" fill="#C4C4C4" fill-opacity="1.000000"/>
					</g>
				</mask>
				<g mask="url(#mask1_36988)">
					<g style="mix-blend-mode:normal">
						<path id="Path 36623" d="M106.07 23.75C99.96 19.93 92.78 17.52 85.3 16.78C82.58 16.51 79.4 16.36 75.9 16.48C70.76 16.67 64.92 17.47 58.87 19.4C48.13 22.82 36.71 29.8 27.27 43.28C27.04 43.64 22.44 50.91 20.05 61.23C16.81 75.26 18.95 87.98 26.42 99.03C27.41 100.49 28.51 101.87 29.71 103.18C29.14 102.46 28.6 101.73 28.09 100.98C20.62 89.92 18.47 77.2 21.72 63.17C24.11 52.85 28.71 45.58 28.93 45.23C38.46 31.63 50 24.64 60.82 21.25C62.56 21.84 65.28 21.86 68.2 21.2C70.69 20.64 72.83 19.69 74.23 18.64C79.05 18.22 83.41 18.37 86.96 18.72C94.45 19.46 101.63 21.87 107.74 25.7C111.11 27.81 114.03 30.22 116.51 32.92C113.71 29.42 110.23 26.36 106.07 23.75Z" fill="#FFFFFF" fill-opacity="1.000000" fill-rule="nonzero"/>
					</g>
				</g>
			</g>
		</g>
		<g mask="url(#mask1_36903)">
			<g style="mix-blend-mode:normal">
				<path id="Path 36624" d="M80.85 84.37C80.85 84.37 98.79 125.25 120.94 141.61C122.39 142.68 124.37 141.27 123.83 139.55C120.41 128.64 110.25 101.5 88.61 80.07L80.85 84.37Z" fill="#E67E22" fill-opacity="1.000000" fill-rule="nonzero"/>
			</g>
		</g>
		<g mask="url(#mask1_36903)">
			<g style="mix-blend-mode:normal">
				<path id="Path 36625" d="M122.04 142.96C121.44 142.96 120.86 142.76 120.37 142.39C108.79 133.85 98.42 118.62 91.75 107.35C84.55 95.18 80.01 84.86 79.96 84.76C79.76 84.3 79.94 83.76 80.38 83.52L88.14 79.22C88.52 79.01 88.99 79.08 89.3 79.38C111.14 101 121.37 128.46 124.76 139.26C125.03 140.13 124.88 141.05 124.35 141.78C123.81 142.52 122.94 142.96 122.04 142.96ZM82.11 84.79C84.76 90.6 101.55 126.07 121.52 140.83C121.68 140.95 121.86 141.01 122.04 141.01C122.32 141.01 122.61 140.86 122.78 140.62C122.9 140.47 123.01 140.2 122.9 139.84C119.58 129.26 109.62 102.51 88.44 81.28L82.11 84.79Z" fill="#000072" fill-opacity="1.000000" fill-rule="nonzero"/>
			</g>
		</g>
		<g mask="url(#mask1_36903)">
			<g opacity="0.199997">
				<mask id="mask1_36992" mask-type="alpha" maskUnits="userSpaceOnUse" x="84.616211" y="80.077637" width="39.307617" height="61.911621">
					<g style="mix-blend-mode:normal">
						<rect id="Rectangle 3926" x="84.616211" y="80.077637" width="39.307518" height="61.911400" fill="#C4C4C4" fill-opacity="1.000000"/>
					</g>
				</mask>
				<g mask="url(#mask1_36992)">
					<g style="mix-blend-mode:normal">
						<path id="Path 36626" d="M123.83 139.55C120.41 128.64 110.25 101.5 88.61 80.07L84.85 82.15C86.88 84.16 88.8 86.23 90.63 88.32L84.61 91.88L85.12 93.46L88.33 92.39C91.08 91.47 94.09 92.41 95.85 94.71C109.53 112.59 116.7 131.43 119.66 140.63C120.09 140.97 120.51 141.29 120.94 141.61C122.39 142.68 124.37 141.27 123.83 139.55Z" fill="#000072" fill-opacity="1.000000" fill-rule="nonzero"/>
					</g>
				</g>
			</g>
		</g>
		<g mask="url(#mask1_36903)">
			<g opacity="0.500000">
				<mask id="mask1_36996" mask-type="alpha" maskUnits="userSpaceOnUse" x="82.112549" y="81.282715" width="40.376953" height="59.732422">
					<g style="mix-blend-mode:normal">
						<rect id="Rectangle 3927" x="82.112549" y="81.282715" width="40.376980" height="59.732212" fill="#C4C4C4" fill-opacity="1.000000"/>
					</g>
				</mask>
				<g mask="url(#mask1_36996)">
					<g style="mix-blend-mode:normal">
						<path id="Path 36627" d="M83.91 85.48L89.52 82.38C89.17 82.01 88.81 81.64 88.44 81.28L82.11 84.79C84.76 90.59 101.55 126.07 121.52 140.83C121.93 141.13 122.3 140.99 122.49 140.89C102.88 125.77 86.53 91.21 83.91 85.48Z" fill="#FFFFFF" fill-opacity="1.000000" fill-rule="nonzero"/>
					</g>
				</g>
			</g>
		</g>
		<g mask="url(#mask1_36903)">
			<g style="mix-blend-mode:normal">
				<path id="Path 36628" d="M82.19 88.38L91.72 82.4L82.91 72.19L76.84 76L82.19 88.38Z" fill="#C5D3E2" fill-opacity="1.000000" fill-rule="nonzero"/>
			</g>
		</g>
		<g mask="url(#mask1_36903)">
			<g style="mix-blend-mode:normal">
				<path id="Path 36629" d="M82.19 89.35C82.1 89.35 82 89.34 81.91 89.31C81.63 89.22 81.41 89.02 81.3 88.76L75.95 76.39C75.76 75.94 75.91 75.43 76.32 75.17L82.39 71.37C82.8 71.11 83.33 71.19 83.64 71.56L92.46 81.76C92.64 81.98 92.73 82.26 92.68 82.55C92.64 82.83 92.48 83.07 92.24 83.23L82.71 89.2C82.55 89.3 82.37 89.35 82.19 89.35ZM78.06 76.38L82.64 86.95L90.24 82.18L82.72 73.46L78.06 76.38Z" fill="#000072" fill-opacity="1.000000" fill-rule="nonzero"/>
			</g>
		</g>
		<g mask="url(#mask1_36903)">
			<g opacity="0.699997">
				<mask id="mask1_37000" mask-type="alpha" maskUnits="userSpaceOnUse" x="78.069336" y="73.465820" width="5.252197" height="13.488770">
					<g style="mix-blend-mode:normal">
						<rect id="Rectangle 3928" x="78.069336" y="73.465820" width="5.252196" height="13.488655" fill="#C4C4C4" fill-opacity="1.000000"/>
					</g>
				</mask>
				<g mask="url(#mask1_37000)">
					<g style="mix-blend-mode:normal">
						<path id="Path 36630" d="M83.32 86.52L78.77 76.02L82.77 73.52L78.06 76.38L82.64 86.95L83.32 86.52Z" fill="#FFFFFF" fill-opacity="1.000000" fill-rule="nonzero"/>
					</g>
				</g>
			</g>
		</g>
		<g mask="url(#mask1_36903)">
			<g style="mix-blend-mode:normal">
				<path id="Path 36631" d="M84.46 92.15L94.13 86.08C94.87 85.62 95.09 84.65 94.63 83.91L93.94 82.82C93.48 82.08 92.51 81.86 91.78 82.32L82.1 88.39C81.36 88.85 81.14 89.82 81.6 90.56L82.29 91.66C82.75 92.39 83.72 92.61 84.46 92.15Z" fill="#C5D3E2" fill-opacity="1.000000" fill-rule="nonzero"/>
			</g>
		</g>
		<g mask="url(#mask1_36903)">
			<g style="mix-blend-mode:normal">
				<path id="Path 36632" d="M83.62 93.23C82.79 93.23 82.03 92.8 81.59 92.1L80.9 91C80.19 89.88 80.53 88.39 81.66 87.69L91.33 81.61C91.72 81.37 92.16 81.25 92.61 81.25C93.44 81.25 94.21 81.67 94.65 82.37L95.34 83.47C96.04 84.6 95.7 86.08 94.58 86.79L84.9 92.86C84.52 93.1 84.07 93.23 83.62 93.23ZM92.61 82.92C92.47 82.92 92.34 82.95 92.22 83.03L82.54 89.1C82.2 89.31 82.09 89.77 82.31 90.11L83 91.21C83.13 91.43 83.37 91.56 83.62 91.56C83.76 91.56 83.89 91.52 84.01 91.44L93.69 85.37C94.03 85.16 94.14 84.7 93.92 84.36L93.23 83.26C93.1 83.04 92.87 82.92 92.61 82.92Z" fill="#000072" fill-opacity="1.000000" fill-rule="nonzero"/>
			</g>
		</g>
		<g mask="url(#mask1_36903)">
			<g opacity="0.699997">
				<mask id="mask1_37004" mask-type="alpha" maskUnits="userSpaceOnUse" x="82.202148" y="82.919922" width="10.984375" height="8.640137">
					<g style="mix-blend-mode:normal">
						<rect id="Rectangle 3929" x="82.202148" y="82.919922" width="10.984349" height="8.640215" fill="#C4C4C4" fill-opacity="1.000000"/>
					</g>
				</mask>
				<g mask="url(#mask1_37004)">
					<g style="mix-blend-mode:normal">
						<path id="Path 36633" d="M83.55 91.49L82.87 90.39C82.76 90.23 82.73 90.03 82.77 89.84C82.82 89.64 82.93 89.48 83.1 89.38L92.78 83.31C92.9 83.23 93.03 83.19 93.17 83.19C93.02 83.02 92.83 82.91 92.61 82.91C92.48 82.91 92.34 82.95 92.22 83.03L82.54 89.1C82.38 89.2 82.26 89.37 82.22 89.56C82.17 89.75 82.21 89.95 82.31 90.11L83 91.21C83.13 91.43 83.32 91.48 83.55 91.49Z" fill="#FFFFFF" fill-opacity="1.000000" fill-rule="nonzero"/>
					</g>
				</g>
			</g>
		</g>
		<g mask="url(#mask1_36903)">
			<g style="mix-blend-mode:normal">
				<path id="Path 36634" d="M77.31 75.7L82.44 72.49C83.33 71.93 83.59 70.76 83.04 69.87C82.48 68.98 81.31 68.71 80.42 69.27L75.29 72.49C74.4 73.05 74.14 74.22 74.69 75.1C75.25 75.99 76.42 76.26 77.31 75.7Z" fill="#C5D3E2" fill-opacity="1.000000" fill-rule="nonzero"/>
			</g>
		</g>
		<g mask="url(#mask1_36903)">
			<g style="mix-blend-mode:normal">
				<path id="Path 36635" d="M76.3 76.83C75.35 76.83 74.49 76.35 73.99 75.55C73.6 74.93 73.47 74.2 73.64 73.49C73.8 72.78 74.23 72.17 74.85 71.78L79.98 68.57C80.41 68.29 80.92 68.15 81.43 68.15C82.38 68.15 83.24 68.63 83.74 69.43C84.54 70.7 84.16 72.39 82.88 73.19L77.75 76.41C77.32 76.68 76.81 76.83 76.3 76.83ZM81.43 69.82C81.23 69.82 81.04 69.87 80.87 69.98L75.73 73.2C75.49 73.35 75.33 73.58 75.26 73.86C75.2 74.14 75.25 74.42 75.4 74.66C75.6 74.97 75.93 75.16 76.3 75.16C76.5 75.16 76.7 75.1 76.86 75L82 71.78C82.49 71.47 82.64 70.81 82.33 70.31C82.13 70 81.8 69.82 81.43 69.82Z" fill="#000072" fill-opacity="1.000000" fill-rule="nonzero"/>
			</g>
		</g>
		<g mask="url(#mask1_36903)">
			<g opacity="0.699997">
				<mask id="mask1_37008" mask-type="alpha" maskUnits="userSpaceOnUse" x="75.241943" y="69.821777" width="6.927246" height="5.323730">
					<g style="mix-blend-mode:normal">
						<rect id="Rectangle 3930" x="75.241943" y="69.821777" width="6.927294" height="5.323947" fill="#C4C4C4" fill-opacity="1.000000"/>
					</g>
				</mask>
				<g mask="url(#mask1_37008)">
					<g style="mix-blend-mode:normal">
						<path id="Path 36636" d="M75.96 74.94C75.64 74.44 75.79 73.79 76.29 73.48L81.42 70.26C81.6 70.15 81.79 70.09 81.98 70.09C82.05 70.09 82.11 70.1 82.16 70.11C81.96 69.92 81.7 69.82 81.43 69.82C81.24 69.82 81.04 69.87 80.87 69.98L75.73 73.2C75.24 73.51 75.09 74.17 75.4 74.66C75.57 74.93 75.83 75.09 76.12 75.14C76.06 75.08 76 75.02 75.96 74.94Z" fill="#FFFFFF" fill-opacity="1.000000" fill-rule="nonzero"/>
					</g>
				</g>
			</g>
		</g>
		<g mask="url(#mask1_36903)">
			<g opacity="0.199997">
				<mask id="mask1_37012" mask-type="alpha" maskUnits="userSpaceOnUse" x="75.944824" y="69.713379" width="7.250488" height="5.919434">
					<g style="mix-blend-mode:normal">
						<rect id="Rectangle 3931" x="75.944824" y="69.713379" width="7.250415" height="5.919566" fill="#C4C4C4" fill-opacity="1.000000"/>
					</g>
				</mask>
				<g mask="url(#mask1_37012)">
					<g style="mix-blend-mode:normal">
						<path id="Path 36637" d="M81.13 69.71C81.13 69.71 81.88 71.31 75.94 75.11L76.82 75.63L82.92 72.01L83.19 70.01L81.13 69.71Z" fill="#000072" fill-opacity="1.000000" fill-rule="nonzero"/>
					</g>
				</g>
			</g>
		</g>
		<g mask="url(#mask1_36903)">
			<g opacity="0.199997">
				<mask id="mask1_37016" mask-type="alpha" maskUnits="userSpaceOnUse" x="77.429199" y="72.699219" width="14.059326" height="15.310547">
					<g style="mix-blend-mode:normal">
						<rect id="Rectangle 3932" x="77.429199" y="72.699219" width="14.059257" height="15.310575" fill="#C4C4C4" fill-opacity="1.000000"/>
					</g>
				</mask>
				<g mask="url(#mask1_37016)">
					<g style="mix-blend-mode:normal">
						<path id="Path 36638" d="M77.83 77.37L79.37 76.61C81.11 75.76 83.2 76.5 84.01 78.26C85.14 80.73 85.77 84.19 82.19 86.5L82.39 88L91.48 82.16L83.19 72.69L77.42 76.34L77.83 77.37Z" fill="#000072" fill-opacity="1.000000" fill-rule="nonzero"/>
					</g>
				</g>
			</g>
		</g>
		<g mask="url(#mask1_36903)">
			<g opacity="0.199997">
				<mask id="mask1_37020" mask-type="alpha" maskUnits="userSpaceOnUse" x="82.732666" y="81.975586" width="12.406982" height="10.141602">
					<g style="mix-blend-mode:normal">
						<rect id="Rectangle 3933" x="82.732666" y="81.975586" width="12.406957" height="10.141793" fill="#C4C4C4" fill-opacity="1.000000"/>
					</g>
				</mask>
				<g mask="url(#mask1_37020)">
					<g style="mix-blend-mode:normal">
						<path id="Path 36639" d="M90.7 83.58C90.7 83.58 92.53 85.39 82.73 91.84L84.03 92.11L94.66 85.56L95.13 83.96L93.15 81.97L90.7 83.58Z" fill="#000072" fill-opacity="1.000000" fill-rule="nonzero"/>
					</g>
				</g>
			</g>
		</g>
		<g mask="url(#mask1_36903)">
			<g style="mix-blend-mode:normal">
				<path id="Path 36640" d="M75.06 72.55C75.06 72.55 69.39 73.11 66.68 67.15C66.1 65.87 65.78 64.48 65.66 63.08C65.51 61.22 65 57.43 63.25 54.97C62.63 54.1 63.14 52.9 64.19 52.75C69.74 51.99 81.86 52.18 81.32 68.63L75.06 72.55Z" fill="#D3623B" fill-opacity="1.000000" fill-rule="nonzero"/>
			</g>
		</g>
		<g mask="url(#mask1_36903)">
			<g style="mix-blend-mode:normal">
				<path id="Path 36641" d="M74.66 73.54C73.22 73.54 68.32 73.11 65.79 67.55C65.19 66.23 64.82 64.75 64.69 63.15C64.57 61.64 64.1 57.85 62.45 55.53C61.96 54.84 61.87 53.96 62.2 53.19C62.54 52.43 63.23 51.9 64.05 51.79C65.22 51.63 66.37 51.55 67.49 51.55C72.06 51.55 75.81 52.92 78.33 55.53C81.15 58.44 82.49 62.86 82.3 68.66C82.29 68.99 82.11 69.28 81.84 69.46L75.57 73.38C75.44 73.46 75.3 73.5 75.15 73.52C75.12 73.52 74.95 73.54 74.66 73.54ZM67.49 53.49C66.46 53.49 65.39 53.57 64.32 53.72C64.11 53.75 64.03 53.88 63.99 53.96C63.96 54.03 63.91 54.21 64.04 54.4C65.9 57.02 66.46 60.91 66.63 63C66.74 64.37 67.06 65.63 67.57 66.75C69.61 71.24 73.52 71.59 74.66 71.59L80.36 68.08C80.44 63.09 79.29 59.32 76.93 56.88C74.76 54.63 71.58 53.49 67.49 53.49Z" fill="#000072" fill-opacity="1.000000" fill-rule="nonzero"/>
			</g>
		</g>
		<g mask="url(#mask1_36903)">
			<g style="mix-blend-mode:normal">
				<path id="Path 36642" d="M77.75 65.23C77.75 65.23 77.96 65.45 78.23 65.81C78.37 65.99 78.53 66.2 78.67 66.45C78.83 66.69 78.97 66.97 79.1 67.26C79.16 67.4 79.23 67.55 79.27 67.7C79.32 67.85 79.38 68 79.41 68.14C79.45 68.29 79.48 68.44 79.5 68.58C79.52 68.72 79.55 68.86 79.55 68.99C79.56 69.11 79.56 69.23 79.56 69.34C79.56 69.44 79.55 69.54 79.55 69.61C79.54 69.76 79.53 69.85 79.53 69.85C79.51 70.24 79.17 70.54 78.78 70.51C78.39 70.48 78.1 70.14 78.13 69.76C78.13 69.69 78.15 69.62 78.17 69.56C78.17 69.56 78.21 69.46 78.24 69.36C78.26 69.31 78.29 69.25 78.31 69.18C78.33 69.1 78.35 69.02 78.38 68.92C78.41 68.83 78.41 68.73 78.43 68.62C78.45 68.5 78.46 68.38 78.46 68.26C78.48 68.13 78.47 68 78.46 67.86C78.47 67.73 78.44 67.59 78.43 67.45C78.4 67.17 78.34 66.89 78.27 66.63C78.2 66.36 78.12 66.12 78.04 65.91C77.89 65.5 77.75 65.23 77.75 65.23Z" fill="#000072" fill-opacity="1.000000" fill-rule="nonzero"/>
			</g>
		</g>
		<g mask="url(#mask1_36903)">
			<g style="mix-blend-mode:normal">
				<path id="Path 36643" d="M74.13 68.85C74.13 68.85 74.29 69.03 74.54 69.26C74.67 69.37 74.82 69.5 74.99 69.63C75.16 69.76 75.34 69.88 75.53 69.99C75.63 70.04 75.72 70.09 75.82 70.13C75.91 70.17 76 70.22 76.09 70.25C76.19 70.27 76.27 70.31 76.35 70.33C76.44 70.34 76.51 70.37 76.58 70.37C76.72 70.39 76.83 70.4 76.91 70.39C76.98 70.39 77.03 70.39 77.03 70.39C77.42 70.38 77.76 70.69 77.76 71.09C77.77 71.48 77.46 71.8 77.07 71.81C76.97 71.81 76.88 71.79 76.8 71.76C76.8 71.76 76.73 71.73 76.61 71.69C76.49 71.65 76.33 71.57 76.15 71.46C76.06 71.41 75.97 71.34 75.87 71.28C75.77 71.21 75.69 71.13 75.59 71.05C75.5 70.98 75.41 70.88 75.32 70.79C75.24 70.71 75.16 70.61 75.08 70.51C74.92 70.32 74.78 70.12 74.66 69.92C74.54 69.73 74.45 69.55 74.37 69.39C74.21 69.07 74.13 68.85 74.13 68.85Z" fill="#000072" fill-opacity="1.000000" fill-rule="nonzero"/>
			</g>
		</g>
		<g mask="url(#mask1_36903)">
			<g opacity="0.500000">
				<mask id="mask1_37024" mask-type="alpha" maskUnits="userSpaceOnUse" x="63.598633" y="53.640625" width="12.051025" height="17.956543">
					<g style="mix-blend-mode:normal">
						<rect id="Rectangle 3934" x="63.598633" y="53.640625" width="12.051031" height="17.956694" fill="#C4C4C4" fill-opacity="1.000000"/>
					</g>
				</mask>
				<g mask="url(#mask1_37024)">
					<g style="mix-blend-mode:normal">
						<path id="Path 36644" d="M68.83 66.52C68.23 65.31 67.87 63.93 67.74 62.43C67.56 60.17 66.95 56.22 64.99 53.64C64.47 53.69 64 53.76 63.59 53.83C65.79 56.39 66.44 60.62 66.63 62.99C66.75 64.49 67.12 65.86 67.72 67.07C69.87 71.41 73.82 71.61 74.75 71.59L75.64 71.03C74.42 71.01 70.85 70.57 68.83 66.52Z" fill="#FFFFFF" fill-opacity="1.000000" fill-rule="nonzero"/>
					</g>
				</g>
			</g>
		</g>
		<g mask="url(#mask1_36903)">
			<g style="mix-blend-mode:normal">
				<path id="Path 36645" d="M64.29 52.74C63.22 52.88 62.65 54.12 63.28 55.01C65 57.47 65.51 61.22 65.66 63.07C65.71 63.62 65.79 64.17 65.9 64.72C66.19 64.9 67.38 65.59 68.69 64.47C69.11 64.11 69.41 63.68 69.59 63.21C69.73 62.87 69.81 62.53 69.82 62.18C69.84 61.61 69.93 60.83 70.24 60.08C70.72 58.88 72.03 58.09 73.31 58.21C73.78 58.25 74.27 58.36 74.71 58.6C76.37 59.49 78.73 59.19 79.62 59.04C76.19 52.2 68.47 52.18 64.29 52.74Z" fill="#29B6F6" fill-opacity="1.000000" fill-rule="nonzero"/>
			</g>
		</g>
		<g mask="url(#mask1_36903)">
			<g style="mix-blend-mode:normal">
				<path id="Path 36646" d="M67.08 65.96C66.31 65.96 65.74 65.66 65.46 65.49C65.27 65.37 65.14 65.17 65.09 64.95C64.97 64.37 64.88 63.72 64.83 63.14C64.7 61.62 64.24 57.84 62.59 55.48C62.14 54.83 62.06 54.01 62.38 53.27C62.7 52.53 63.38 52.02 64.18 51.91C65.3 51.76 66.41 51.69 67.49 51.69C71.76 51.69 77.47 52.9 80.37 58.66C80.48 58.9 80.48 59.18 80.37 59.41C80.25 59.65 80.02 59.81 79.76 59.86C79.28 59.94 78.51 60.05 77.65 60.05C76.32 60.05 75.19 59.81 74.31 59.33C74.03 59.18 73.66 59.08 73.23 59.04C72.31 58.95 71.35 59.55 71.01 60.39C70.75 61.05 70.67 61.74 70.65 62.21C70.63 62.65 70.54 63.09 70.37 63.52C70.12 64.13 69.73 64.68 69.24 65.1C68.57 65.67 67.85 65.96 67.08 65.96ZM66.65 64.22C66.77 64.25 66.92 64.29 67.08 64.29C67.44 64.29 67.8 64.13 68.15 63.83C68.44 63.58 68.67 63.26 68.82 62.9C68.92 62.65 68.98 62.4 68.98 62.15C69.01 61.55 69.11 60.64 69.47 59.76C70.08 58.25 71.74 57.22 73.39 57.38C74.04 57.44 74.62 57.6 75.1 57.86C75.73 58.2 76.61 58.38 77.65 58.38C77.86 58.38 78.07 58.37 78.27 58.36C75.62 54.25 71.01 53.35 67.49 53.35C66.49 53.35 65.45 53.43 64.4 53.57C64.08 53.61 63.95 53.84 63.91 53.94C63.86 54.04 63.79 54.28 63.96 54.53C65.77 57.12 66.32 60.95 66.49 63C66.53 63.41 66.58 63.81 66.65 64.22Z" fill="#000072" fill-opacity="1.000000" fill-rule="nonzero"/>
			</g>
		</g>
		<g mask="url(#mask1_36903)">
			<g opacity="0.500000">
				<mask id="mask1_37028" mask-type="alpha" maskUnits="userSpaceOnUse" x="63.857666" y="53.359375" width="10.919922" height="10.930176">
					<g style="mix-blend-mode:normal">
						<rect id="Rectangle 3935" x="63.857666" y="53.359375" width="10.919835" height="10.930405" fill="#C4C4C4" fill-opacity="1.000000"/>
					</g>
				</mask>
				<g mask="url(#mask1_37028)">
					<g style="mix-blend-mode:normal">
						<path id="Path 36647" d="M66.82 64.26C66.84 64.26 66.94 64.28 66.97 64.28C67.02 64.28 67.14 64.28 67.19 64.28C67.23 64.27 67.32 64.26 67.36 64.25C67.44 64.23 67.58 64.19 67.67 64.15C67.64 63.95 67.62 63.76 67.6 63.56C67.47 61.87 67.09 59.24 66.1 56.95C66.04 56.81 66.02 56.66 66.05 56.52C66.14 56.11 66.18 55.63 66.14 55.13C66.12 54.87 66.08 54.62 66.02 54.39C65.98 54.22 66.1 54.07 66.26 54.06C68.29 53.96 71.98 53.85 74.77 55.05C71.52 53.2 67.56 53.19 64.83 53.51C64.75 53.52 64.67 53.53 64.6 53.54C64.53 53.55 64.47 53.56 64.4 53.57C64.09 53.61 63.95 53.84 63.91 53.94C63.87 54.04 63.79 54.28 63.96 54.53C64.03 54.63 64.12 54.77 64.19 54.88C64.23 54.94 64.26 54.99 64.3 55.05C64.39 55.2 64.47 55.34 64.55 55.5C64.83 56.03 65.11 56.65 65.32 57.22C65.37 57.37 65.43 57.55 65.48 57.7C65.52 57.83 65.59 58.05 65.63 58.18C65.68 58.37 65.73 58.55 65.78 58.74C65.81 58.83 65.83 58.93 65.86 59.02C65.89 59.15 65.92 59.27 65.94 59.39C65.97 59.48 65.99 59.58 66.01 59.67C66.03 59.79 66.06 59.91 66.08 60.03C66.1 60.12 66.12 60.21 66.13 60.3C66.15 60.42 66.18 60.53 66.19 60.64C66.23 60.82 66.26 61 66.28 61.18C66.3 61.27 66.31 61.35 66.32 61.44C66.33 61.55 66.35 61.66 66.36 61.77C66.37 61.85 66.38 61.93 66.39 62.01C66.41 62.12 66.42 62.23 66.43 62.35C66.44 62.41 66.44 62.47 66.45 62.52C66.47 62.69 66.48 62.85 66.49 63C66.53 63.41 66.58 63.82 66.65 64.22C66.69 64.23 66.78 64.25 66.82 64.26Z" fill="#FFFFFF" fill-opacity="1.000000" fill-rule="nonzero"/>
					</g>
				</g>
			</g>
		</g>
		<g mask="url(#mask1_36903)">
			<g opacity="0.199997">
				<mask id="mask1_37032" mask-type="alpha" maskUnits="userSpaceOnUse" x="72.607910" y="53.699219" width="8.498291" height="19.057617">
					<g style="mix-blend-mode:normal">
						<rect id="Rectangle 3936" x="72.607910" y="53.699219" width="8.498400" height="19.057850" fill="#C4C4C4" fill-opacity="1.000000"/>
					</g>
				</mask>
				<g mask="url(#mask1_37032)">
					<g style="mix-blend-mode:normal">
						<path id="Path 36648" d="M73.16 53.69C73.16 53.69 80.74 68.98 72.6 71.49L72.74 72.46L74.77 72.75L80.87 69.31C80.87 69.31 83.17 57.59 73.16 53.69Z" fill="#000072" fill-opacity="1.000000" fill-rule="nonzero"/>
					</g>
				</g>
			</g>
		</g>
		<g mask="url(#mask1_36903)">
			<g style="mix-blend-mode:normal">
				<path id="Path 36649" d="M44.18 60.45L43.55 61.48C42.83 62.66 41.55 63.38 40.16 63.38L39.23 63.38C38.05 63.38 36.92 62.85 36.17 61.94L34.05 59.37C33.27 58.42 32.96 57.17 33.23 55.98L34.14 51.88C34.21 51.56 34.32 51.26 34.47 50.97L35.02 49.85C35.84 48.23 37.64 47.36 39.42 47.75L41.33 48.16C41.71 48.25 42.09 48.39 42.44 48.59L45.94 50.56C46.89 51.1 47.57 52 47.84 53.06L48.16 54.35C48.57 55.98 47.93 57.74 46.5 58.62C46.34 58.72 46.17 58.81 45.99 58.88C45.23 59.18 44.61 59.75 44.18 60.45Z" fill="#29B6F6" fill-opacity="1.000000" fill-rule="nonzero"/>
			</g>
		</g>
		<g mask="url(#mask1_36903)">
			<g style="mix-blend-mode:normal">
				<path id="Path 36650" d="M40.16 64.08L39.23 64.08C37.83 64.08 36.52 63.46 35.63 62.38L33.51 59.81C32.59 58.69 32.24 57.24 32.55 55.83L33.46 51.73C33.55 51.36 33.67 51 33.84 50.66L34.4 49.54C35.2 47.95 36.8 46.96 38.57 46.96C38.91 46.96 39.24 47 39.57 47.07L41.47 47.48C41.93 47.58 42.37 47.75 42.78 47.98L46.28 49.96C47.39 50.58 48.2 51.65 48.51 52.89L48.83 54.18C49.32 56.13 48.51 58.2 46.86 59.21C46.66 59.33 46.46 59.44 46.25 59.52C45.67 59.76 45.14 60.21 44.78 60.81L44.15 61.84C43.3 63.22 41.78 64.08 40.16 64.08ZM38.57 48.35C37.33 48.35 36.2 49.04 35.65 50.16L35.09 51.28C34.97 51.52 34.88 51.77 34.82 52.03L33.91 56.13C33.69 57.12 33.93 58.14 34.58 58.92L36.71 61.5C37.33 62.25 38.25 62.68 39.23 62.68L40.16 62.68C41.3 62.68 42.37 62.08 42.96 61.12L43.59 60.09C44.11 59.23 44.87 58.58 45.73 58.23C45.87 58.18 46 58.11 46.13 58.03C47.27 57.33 47.83 55.88 47.48 54.51L47.16 53.23C46.94 52.36 46.37 51.61 45.6 51.17L42.09 49.19C41.81 49.03 41.5 48.91 41.18 48.84L39.27 48.43C39.04 48.38 38.81 48.35 38.57 48.35Z" fill="#000072" fill-opacity="1.000000" fill-rule="nonzero"/>
			</g>
		</g>
		<g mask="url(#mask1_36903)">
			<g opacity="0.500000">
				<mask id="mask1_37036" mask-type="alpha" maskUnits="userSpaceOnUse" x="33.835205" y="48.355469" width="13.050293" height="11.502441">
					<g style="mix-blend-mode:normal">
						<rect id="Rectangle 3937" x="33.835205" y="48.355469" width="13.050191" height="11.502677" fill="#C4C4C4" fill-opacity="1.000000"/>
					</g>
				</mask>
				<g mask="url(#mask1_37036)">
					<g style="mix-blend-mode:normal">
						<path id="Path 36651" d="M45.6 51.17L42.09 49.19C41.81 49.03 41.5 48.91 41.18 48.84L39.27 48.43C39.04 48.37 38.8 48.35 38.57 48.35C37.35 48.35 36.21 49.03 35.65 50.16L35.27 50.92L35.09 51.28C34.97 51.52 34.88 51.77 34.82 52.03L34.09 55.31L33.91 56.13C33.69 57.12 33.93 58.14 34.58 58.92L35.35 59.85C34.75 59.08 34.53 58.1 34.74 57.15L35.28 54.76C35.56 54.45 35.81 54.04 35.97 53.55C36.16 52.97 36.2 52.4 36.1 51.94L36.48 51.18C37.04 50.06 38.19 49.37 39.41 49.37C39.64 49.37 39.87 49.4 40.1 49.45L42.01 49.86C42.33 49.93 42.64 50.05 42.93 50.21L46.43 52.19C46.59 52.28 46.74 52.39 46.88 52.5C46.59 51.95 46.15 51.48 45.6 51.17Z" fill="#FFFFFF" fill-opacity="1.000000" fill-rule="nonzero"/>
					</g>
				</g>
			</g>
		</g>
		<g mask="url(#mask1_36903)">
			<g style="mix-blend-mode:normal">
				<path id="Path 36652" d="M49.26 37.88L49.15 39.06C49.12 39.46 49.18 39.86 49.34 40.22L49.58 40.75C49.88 41.42 50.48 41.92 51.2 42.08C51.85 42.22 52.52 42.08 53.06 41.7L53.36 41.48C53.71 41.23 54.11 41.09 54.54 41.05L62.33 40.45C62.91 40.41 63.45 40.15 63.85 39.72L65.92 37.51C66.34 37.05 66.57 36.44 66.54 35.81L66.41 33.06C66.37 32.23 65.99 31.45 65.36 30.91L64.03 29.75C63.2 29.03 62.17 28.57 61.08 28.43L59.86 28.27C58.16 28.05 56.44 28.38 54.94 29.22L52.35 30.67C51.62 31.08 50.95 31.57 50.34 32.14L49.14 33.26C48.29 34.05 48.16 35.34 48.82 36.29C49.13 36.74 49.31 37.33 49.26 37.88Z" fill="#90CE3E" fill-opacity="1.000000" fill-rule="nonzero"/>
			</g>
		</g>
		<g mask="url(#mask1_36903)">
			<g style="mix-blend-mode:normal">
				<path id="Path 36653" d="M51.71 42.83C51.49 42.83 51.27 42.8 51.05 42.75C50.12 42.55 49.33 41.9 48.95 41.03L48.71 40.5C48.5 40.03 48.41 39.51 48.46 39L48.57 37.81C48.6 37.43 48.5 37.05 48.28 36.73C47.42 35.51 47.57 33.77 48.66 32.75L49.86 31.63C50.51 31.02 51.24 30.5 52.01 30.06L54.6 28.61C56.22 27.71 58.11 27.34 59.95 27.58L61.16 27.74C62.4 27.9 63.55 28.41 64.49 29.23L65.82 30.38C66.59 31.05 67.05 32.01 67.1 33.03L67.23 35.78C67.27 36.59 66.98 37.39 66.42 37.98L64.36 40.2C63.84 40.75 63.14 41.09 62.38 41.15L54.59 41.75C54.29 41.77 54.01 41.87 53.77 42.05L53.46 42.26C52.95 42.63 52.34 42.83 51.71 42.83ZM58.83 28.9C57.59 28.9 56.36 29.22 55.28 29.82L52.69 31.27C52.01 31.65 51.38 32.12 50.81 32.65L49.61 33.77C49.02 34.32 48.93 35.23 49.39 35.89C49.8 36.47 50.02 37.23 49.95 37.94L49.85 39.13C49.82 39.4 49.87 39.68 49.98 39.94L50.22 40.47C50.43 40.94 50.85 41.29 51.35 41.4C51.8 41.5 52.28 41.4 52.65 41.13L52.96 40.91C53.41 40.59 53.93 40.4 54.48 40.36L62.28 39.76C62.68 39.73 63.06 39.55 63.34 39.25L65.41 37.03C65.71 36.72 65.87 36.28 65.85 35.85L65.71 33.09C65.68 32.46 65.39 31.85 64.91 31.44L63.58 30.28C62.84 29.65 61.95 29.24 60.99 29.12L59.77 28.96C59.46 28.92 59.14 28.9 58.83 28.9Z" fill="#000072" fill-opacity="1.000000" fill-rule="nonzero"/>
			</g>
		</g>
		<g mask="url(#mask1_36903)">
			<g opacity="0.500000">
				<mask id="mask1_37040" mask-type="alpha" maskUnits="userSpaceOnUse" x="49.101807" y="28.902344" width="16.216309" height="12.396484">
					<g style="mix-blend-mode:normal">
						<rect id="Rectangle 3938" x="49.101807" y="28.902344" width="16.216305" height="12.396386" fill="#C4C4C4" fill-opacity="1.000000"/>
					</g>
				</mask>
				<g mask="url(#mask1_37040)">
					<g style="mix-blend-mode:normal">
						<path id="Path 36654" d="M64.91 31.43L63.58 30.28C62.84 29.64 61.95 29.24 60.99 29.12L59.77 28.96C59.46 28.92 59.15 28.9 58.84 28.9C57.66 28.9 56.49 29.19 55.45 29.74C55.39 29.76 55.34 29.79 55.28 29.82L52.69 31.27C52.01 31.65 51.38 32.12 50.81 32.65L50.55 32.89L49.61 33.76C49.02 34.32 48.93 35.23 49.39 35.89C49.8 36.47 50.02 37.23 49.95 37.94L49.85 39.13C49.82 39.4 49.87 39.68 49.98 39.94L50.22 40.47C50.38 40.84 50.68 41.13 51.05 41.29L50.81 40.77C50.7 40.52 50.65 40.24 50.68 39.96L50.79 38.77C50.85 38.06 50.66 37.35 50.25 36.77C49.79 36.11 49.86 35.15 50.45 34.6L51.64 33.48C51.68 33.45 51.72 33.41 51.76 33.38C52.38 33.34 53.14 33.07 53.86 32.57C54.48 32.15 54.96 31.64 55.25 31.14L56.12 30.66C57.2 30.05 58.44 29.73 59.67 29.73C59.98 29.73 60.29 29.75 60.6 29.79L61.82 29.95C62.78 30.08 63.68 30.48 64.41 31.11L65.31 31.9C65.2 31.73 65.06 31.57 64.91 31.43Z" fill="#FFFFFF" fill-opacity="1.000000" fill-rule="nonzero"/>
					</g>
				</g>
			</g>
		</g>
		<g mask="url(#mask1_36903)">
			<g style="mix-blend-mode:normal">
				<path id="Path 36655" d="M76.58 32.41L76.43 32.27C75.69 31.52 75.46 30.41 75.85 29.43L76.28 28.38C76.51 27.78 76.96 27.29 77.54 27L79.85 25.85C81.48 25.03 83.37 24.89 85.1 25.45L88.4 26.52C90.17 27.1 91.5 28.57 91.9 30.39L92.34 32.44C92.42 32.78 92.56 33.11 92.77 33.39L96.24 38.32C97.24 39.73 96.63 41.69 95.02 42.3C94.6 42.46 94.14 42.5 93.69 42.43L84.84 41.05C83.1 40.77 81.48 39.95 80.24 38.7L78.39 36.86C78.04 36.5 77.79 36.05 77.68 35.55L77.29 33.72C77.18 33.22 76.94 32.77 76.58 32.41Z" fill="#FFCA28" fill-opacity="1.000000" fill-rule="nonzero"/>
			</g>
		</g>
		<g mask="url(#mask1_36903)">
			<g style="mix-blend-mode:normal">
				<path id="Path 36656" d="M94.1 43.16C93.93 43.16 93.75 43.15 93.58 43.12L84.73 41.73C82.83 41.43 81.11 40.56 79.75 39.2L77.9 37.35C77.45 36.9 77.14 36.33 77 35.7L76.61 33.86C76.53 33.5 76.35 33.16 76.09 32.9L75.94 32.76C75 31.82 74.71 30.41 75.21 29.18L75.63 28.12C75.93 27.36 76.5 26.75 77.23 26.38L79.54 25.22C81.31 24.34 83.43 24.18 85.32 24.79L88.61 25.86C90.61 26.51 92.13 28.19 92.58 30.24L93.02 32.29C93.08 32.54 93.18 32.78 93.33 32.99L96.81 37.92C97.41 38.77 97.58 39.82 97.27 40.82C96.97 41.81 96.24 42.58 95.26 42.95C94.89 43.09 94.5 43.16 94.1 43.16ZM82.96 25.81C81.99 25.81 81.03 26.04 80.16 26.47L77.85 27.62C77.43 27.84 77.1 28.19 76.92 28.63L76.5 29.69C76.21 30.41 76.38 31.23 76.93 31.77L77.07 31.92C77.52 32.37 77.83 32.94 77.97 33.57L78.36 35.41C78.44 35.77 78.62 36.1 78.88 36.37L80.73 38.21C81.88 39.36 83.34 40.1 84.95 40.36L93.8 41.75C94.13 41.8 94.47 41.76 94.78 41.65C95.34 41.43 95.77 40.98 95.94 40.41C96.12 39.83 96.02 39.22 95.68 38.72L92.2 33.8C91.94 33.43 91.76 33.02 91.66 32.58L91.22 30.53C90.88 28.96 89.71 27.68 88.18 27.18L84.89 26.11C84.26 25.91 83.61 25.81 82.96 25.81Z" fill="#000072" fill-opacity="1.000000" fill-rule="nonzero"/>
			</g>
		</g>
		<g mask="url(#mask1_36903)">
			<g opacity="0.500000">
				<mask id="mask1_37044" mask-type="alpha" maskUnits="userSpaceOnUse" x="76.364746" y="25.811035" width="14.019287" height="11.396484">
					<g style="mix-blend-mode:normal">
						<rect id="Rectangle 3939" x="76.364746" y="25.811035" width="14.019210" height="11.396453" fill="#C4C4C4" fill-opacity="1.000000"/>
					</g>
				</mask>
				<g mask="url(#mask1_37044)">
					<g style="mix-blend-mode:normal">
						<path id="Path 36657" d="M79.2 36.24L78.8 34.41C78.67 33.78 78.36 33.21 77.9 32.75L77.76 32.61C77.21 32.06 77.05 31.25 77.33 30.53L77.76 29.47C77.93 29.03 78.26 28.67 78.69 28.46L81 27.3C81.88 26.86 82.83 26.64 83.79 26.64C84.44 26.64 85.09 26.74 85.72 26.95L89.02 28.02C89.52 28.18 89.97 28.43 90.38 28.74C89.83 28.02 89.07 27.47 88.19 27.18L84.89 26.11C84.25 25.91 83.6 25.81 82.95 25.81C82 25.81 81.04 26.03 80.16 26.47L77.85 27.62C77.43 27.84 77.1 28.2 76.92 28.64L76.5 29.69C76.21 30.41 76.38 31.23 76.93 31.78L77.07 31.92C77.52 32.37 77.83 32.94 77.97 33.57L78.36 35.41C78.44 35.77 78.62 36.11 78.88 36.37L79.72 37.2C79.46 36.94 79.27 36.61 79.2 36.24Z" fill="#FFFFFF" fill-opacity="1.000000" fill-rule="nonzero"/>
					</g>
				</g>
			</g>
		</g>
		<g mask="url(#mask1_36903)">
			<g style="mix-blend-mode:normal">
				<path id="Path 36658" d="M106.16 39.98C106.96 38.56 108.82 38.15 110.17 39.04C112.13 40.35 114.97 43.19 115.92 49.04C115.92 49.04 116.96 54.21 113.15 55.74C111.5 56.41 109.61 56.07 108.2 54.97C106.51 53.65 104.6 52.17 105.72 47.46C105.72 47.46 104.55 42.82 106.16 39.98Z" fill="#FFA726" fill-opacity="1.000000" fill-rule="nonzero"/>
			</g>
		</g>
		<g mask="url(#mask1_36903)">
			<g style="mix-blend-mode:normal">
				<path id="Path 36659" d="M111.38 56.78C110.1 56.78 108.82 56.33 107.77 55.51C106.03 54.15 103.87 52.47 105.01 47.46C104.81 46.56 103.99 42.4 105.55 39.63C106.17 38.55 107.33 37.88 108.6 37.88C109.3 37.88 109.97 38.08 110.55 38.46C112.78 39.94 115.64 42.95 116.61 48.92C117 50.88 116.85 55 113.41 56.39C112.77 56.65 112.09 56.78 111.38 56.78ZM108.6 39.27C107.83 39.27 107.13 39.67 106.76 40.32C105.31 42.89 106.39 47.24 106.4 47.28C106.43 47.39 106.43 47.51 106.4 47.62C105.38 51.89 106.95 53.11 108.62 54.41C109.86 55.38 111.52 55.65 112.89 55.1C116.11 53.8 115.28 49.36 115.24 49.17C114.35 43.67 111.78 40.95 109.79 39.62C109.43 39.39 109.02 39.27 108.6 39.27Z" fill="#000072" fill-opacity="1.000000" fill-rule="nonzero"/>
			</g>
		</g>
		<g mask="url(#mask1_36903)">
			<g opacity="0.500000">
				<mask id="mask1_37048" mask-type="alpha" maskUnits="userSpaceOnUse" x="106.007080" y="39.271973" width="4.358398" height="15.595703">
					<g style="mix-blend-mode:normal">
						<rect id="Rectangle 3940" x="106.007080" y="39.271973" width="4.358480" height="15.595869" fill="#C4C4C4" fill-opacity="1.000000"/>
					</g>
				</mask>
				<g mask="url(#mask1_37048)">
					<g style="mix-blend-mode:normal">
						<path id="Path 36660" d="M107.23 48.17C107.26 48.06 107.26 47.95 107.23 47.84C107.22 47.8 106.14 43.45 107.6 40.88C107.88 40.37 108.35 40.02 108.92 39.88C109.09 39.84 109.26 39.82 109.43 39.82C109.75 39.82 110.07 39.9 110.36 40.04C110.17 39.89 109.97 39.75 109.79 39.62C109.43 39.39 109.01 39.27 108.59 39.27C108.43 39.27 108.26 39.29 108.09 39.33C107.52 39.46 107.05 39.82 106.76 40.32C105.31 42.89 106.39 47.24 106.4 47.29C106.43 47.39 106.43 47.51 106.4 47.62C105.38 51.89 106.95 53.11 108.62 54.41C108.84 54.58 109.08 54.73 109.32 54.86C107.71 53.6 106.25 52.33 107.23 48.17Z" fill="#FFFFFF" fill-opacity="1.000000" fill-rule="nonzero"/>
					</g>
				</g>
			</g>
		</g>
		<g mask="url(#mask1_36903)">
			<g style="mix-blend-mode:normal">
				<path id="Path 36661" d="M104.53 63.3L106.04 62.98C106.95 62.78 107.89 63.1 108.5 63.8L111.15 66.85C111.85 67.65 111.98 68.79 111.49 69.72L110.22 72.13C110.01 72.52 109.71 72.85 109.35 73.09L105.97 75.28C105.42 75.64 104.76 75.77 104.12 75.66L103.08 75.47C102.68 75.39 102.31 75.23 101.98 74.98C101.59 74.68 101.05 74.21 100.53 73.75C99.56 72.89 99.33 71.47 99.98 70.34C100.59 69.27 101.3 68 101.69 67.31C101.89 66.93 102 66.51 102 66.08C102 65.15 102.5 64.3 103.31 63.85L103.82 63.57C104.04 63.44 104.28 63.35 104.53 63.3Z" fill="#FF3600" fill-opacity="1.000000" fill-rule="nonzero"/>
			</g>
		</g>
		<g mask="url(#mask1_36903)">
			<g style="mix-blend-mode:normal">
				<path id="Path 36662" d="M104.57 76.39C104.38 76.39 104.18 76.37 103.99 76.34L102.96 76.15C102.45 76.06 101.97 75.85 101.56 75.53C101.21 75.26 100.7 74.84 100.07 74.27C98.86 73.2 98.57 71.4 99.37 70C99.93 69.01 100.68 67.69 101.08 66.97C101.23 66.7 101.31 66.39 101.31 66.08C101.31 64.9 101.95 63.81 102.98 63.24L103.49 62.96C103.77 62.8 104.07 62.69 104.38 62.62L105.89 62.3C106.11 62.25 106.34 62.23 106.57 62.23C107.51 62.23 108.41 62.63 109.02 63.34L111.68 66.4C112.56 67.42 112.73 68.85 112.1 70.04L110.83 72.46C110.57 72.95 110.19 73.37 109.73 73.67L106.34 75.87C105.82 76.21 105.2 76.39 104.57 76.39ZM106.57 63.62C106.44 63.62 106.31 63.63 106.18 63.66L104.67 63.98C104.49 64.02 104.32 64.08 104.16 64.17L103.65 64.46C103.06 64.78 102.7 65.41 102.7 66.08C102.7 66.62 102.56 67.16 102.3 67.64C101.9 68.37 101.14 69.7 100.58 70.68C100.1 71.52 100.28 72.59 100.99 73.23C101.6 73.77 102.08 74.18 102.41 74.43C102.64 74.61 102.92 74.73 103.21 74.78L104.24 74.97C104.71 75.05 105.19 74.96 105.59 74.7L108.97 72.5C109.23 72.33 109.45 72.09 109.6 71.81L110.87 69.39C111.23 68.71 111.14 67.89 110.63 67.31L107.97 64.25C107.62 63.85 107.11 63.62 106.57 63.62Z" fill="#000072" fill-opacity="1.000000" fill-rule="nonzero"/>
			</g>
		</g>
		<g mask="url(#mask1_36903)">
			<g opacity="0.500000">
				<mask id="mask1_37052" mask-type="alpha" maskUnits="userSpaceOnUse" x="100.315430" y="63.621094" width="7.670410" height="11.066895">
					<g style="mix-blend-mode:normal">
						<rect id="Rectangle 3941" x="100.315430" y="63.621094" width="7.670298" height="11.066657" fill="#C4C4C4" fill-opacity="1.000000"/>
					</g>
				</mask>
				<g mask="url(#mask1_37052)">
					<g style="mix-blend-mode:normal">
						<path id="Path 36663" d="M101.83 73.79C101.11 73.15 100.94 72.08 101.41 71.24C101.98 70.25 102.73 68.92 103.13 68.2C103.39 67.72 103.53 67.18 103.53 66.64C103.53 65.96 103.9 65.34 104.49 65.01L105 64.73C105.16 64.64 105.33 64.58 105.51 64.54L107.02 64.21C107.14 64.19 107.28 64.17 107.4 64.17C107.6 64.17 107.8 64.2 107.98 64.26C107.62 63.85 107.1 63.62 106.57 63.62C106.44 63.62 106.31 63.63 106.18 63.66L104.67 63.98C104.49 64.02 104.32 64.08 104.16 64.17L103.65 64.46C103.06 64.78 102.69 65.41 102.69 66.08C102.69 66.63 102.56 67.17 102.3 67.64C101.9 68.37 101.14 69.7 100.58 70.68C100.1 71.52 100.28 72.59 100.99 73.23C101.6 73.78 102.08 74.18 102.41 74.43C102.55 74.54 102.7 74.62 102.86 74.68C102.58 74.45 102.24 74.15 101.83 73.79Z" fill="#FFFFFF" fill-opacity="1.000000" fill-rule="nonzero"/>
					</g>
				</g>
			</g>
		</g>
		<g mask="url(#mask1_36903)">
			<g opacity="0.199997">
				<mask id="mask1_37056" mask-type="alpha" maskUnits="userSpaceOnUse" x="33.524170" y="51.928711" width="14.760986" height="11.457031">
					<g style="mix-blend-mode:normal">
						<rect id="Rectangle 3942" x="33.524170" y="51.928711" width="14.760995" height="11.457070" fill="#C4C4C4" fill-opacity="1.000000"/>
					</g>
				</mask>
				<g mask="url(#mask1_37056)">
					<g style="mix-blend-mode:normal">
						<path id="Path 36664" d="M33.52 57.98C33.52 57.98 33.56 58.26 33.62 58.73C33.74 58.95 33.88 59.17 34.05 59.37L36.17 61.94C36.92 62.85 38.05 63.38 39.23 63.38L40.17 63.38C41.55 63.38 42.83 62.66 43.55 61.48L44.18 60.45C44.61 59.75 45.23 59.18 45.99 58.88C46.17 58.81 46.34 58.72 46.5 58.62C47.93 57.74 48.57 55.98 48.16 54.35L47.84 53.06C47.74 52.65 47.57 52.27 47.35 51.92L47.02 52.03C47.02 52.03 43.38 60.87 33.52 57.98Z" fill="#000072" fill-opacity="1.000000" fill-rule="nonzero"/>
					</g>
				</g>
			</g>
		</g>
		<g mask="url(#mask1_36903)">
			<g opacity="0.199997">
				<mask id="mask1_37060" mask-type="alpha" maskUnits="userSpaceOnUse" x="49.272461" y="30.677246" width="17.274414" height="11.458008">
					<g style="mix-blend-mode:normal">
						<rect id="Rectangle 3943" x="49.272461" y="30.677246" width="17.274307" height="11.458183" fill="#C4C4C4" fill-opacity="1.000000"/>
					</g>
				</mask>
				<g mask="url(#mask1_37060)">
					<g style="mix-blend-mode:normal">
						<path id="Path 36665" d="M65.36 30.91L65.09 30.67C65.03 31.37 64.02 38.21 49.27 39.78L49.95 41.33C50.27 41.7 50.71 41.97 51.2 42.08C51.85 42.22 52.52 42.08 53.06 41.7L53.36 41.48C53.71 41.23 54.11 41.09 54.54 41.05L62.33 40.45C62.91 40.41 63.45 40.15 63.85 39.72L65.92 37.51C66.34 37.05 66.57 36.44 66.54 35.81L66.41 33.06C66.37 32.23 65.99 31.45 65.36 30.91Z" fill="#000072" fill-opacity="1.000000" fill-rule="nonzero"/>
					</g>
				</g>
			</g>
		</g>
		<g mask="url(#mask1_36903)">
			<g opacity="0.199997">
				<mask id="mask1_37064" mask-type="alpha" maskUnits="userSpaceOnUse" x="79.218262" y="33.521484" width="17.512207" height="8.948242">
					<g style="mix-blend-mode:normal">
						<rect id="Rectangle 3944" x="79.218262" y="33.521484" width="17.512329" height="8.948317" fill="#C4C4C4" fill-opacity="1.000000"/>
					</g>
				</mask>
				<g mask="url(#mask1_37064)">
					<g style="mix-blend-mode:normal">
						<path id="Path 36666" d="M95.02 42.3C96.63 41.69 97.24 39.73 96.24 38.32L92.85 33.52C92.4 34.51 88.95 41.26 79.21 36.88L79.33 37.79L80.24 38.7C81.48 39.95 83.1 40.77 84.84 41.04L93.69 42.43C94.14 42.5 94.6 42.46 95.02 42.3Z" fill="#000072" fill-opacity="1.000000" fill-rule="nonzero"/>
					</g>
				</g>
			</g>
		</g>
		<g mask="url(#mask1_36903)">
			<g opacity="0.199997">
				<mask id="mask1_37068" mask-type="alpha" maskUnits="userSpaceOnUse" x="108.757812" y="40.194336" width="7.299805" height="15.891113">
					<g style="mix-blend-mode:normal">
						<rect id="Rectangle 3945" x="108.757812" y="40.194336" width="7.299920" height="15.891183" fill="#C4C4C4" fill-opacity="1.000000"/>
					</g>
				</mask>
				<g mask="url(#mask1_37068)">
					<g style="mix-blend-mode:normal">
						<path id="Path 36667" d="M111.61 40.19L111.3 40.27C111.3 40.27 115.98 55.92 108.75 54.81L111.26 56.08C111.9 56.1 112.54 55.99 113.15 55.74C116.96 54.21 115.92 49.04 115.92 49.04C115.19 44.52 113.33 41.8 111.61 40.19Z" fill="#000072" fill-opacity="1.000000" fill-rule="nonzero"/>
					</g>
				</g>
			</g>
		</g>
		<g mask="url(#mask1_36903)">
			<g opacity="0.199997">
				<mask id="mask1_37072" mask-type="alpha" maskUnits="userSpaceOnUse" x="102.362061" y="63.785645" width="9.423828" height="11.916016">
					<g style="mix-blend-mode:normal">
						<rect id="Rectangle 3946" x="102.362061" y="63.785645" width="9.423820" height="11.915886" fill="#C4C4C4" fill-opacity="1.000000"/>
					</g>
				</mask>
				<g mask="url(#mask1_37072)">
					<g style="mix-blend-mode:normal">
						<path id="Path 36668" d="M108.5 63.8C108.61 64.77 110.16 72.13 102.36 74.55L103.55 75.55L104.12 75.66C104.76 75.77 105.42 75.64 105.97 75.28L109.35 73.09C109.71 72.85 110.01 72.52 110.22 72.13L111.49 69.72C111.98 68.79 111.85 67.65 111.15 66.85L108.5 63.8Z" fill="#000072" fill-opacity="1.000000" fill-rule="nonzero"/>
					</g>
				</g>
			</g>
		</g>
	</g>
</svg>
