<svg width="83.930359" height="117.307861" viewBox="0 0 83.9304 117.308" fill="none" xmlns="http://www.w3.org/2000/svg" xmlns:xlink="http://www.w3.org/1999/xlink">
	<desc>
			Created with Pixso.
	</desc>
	<defs/>
	<mask id="mask1_14301" mask-type="alpha" maskUnits="userSpaceOnUse" x="0.000000" y="0.000000" width="83.930359" height="117.307861">
		<g style="mix-blend-mode:normal">
			<rect id="Rectangle 3714" width="83.930359" height="117.307953" fill="#C4C4C4" fill-opacity="1.000000"/>
		</g>
	</mask>
	<g mask="url(#mask1_14301)">
		<g style="mix-blend-mode:normal">
			<path id="Path 32097" d="M35.04 85.39C32.6 85.27 30.07 85.02 27.7 84.41C22.91 83.18 17.73 79.85 15.88 81.83C15.03 82.73 15.47 83.83 16.24 84.61C17.24 85.64 18.61 86.28 19.95 86.74C26.94 89.15 34.87 90.01 42.94 88.93C42.97 88.84 43.1 88.84 43.13 88.9C79.49 83.92 94.2 44.25 74 16.51C66.9 6.75 56.57 0.82 51.86 0.91C48.65 0.99 48.76 3.81 50.62 4.38C63.01 8.68 73.57 18.32 77.49 30.83C86.13 58.43 64.7 86.89 35.04 85.39Z" fill="#A5AEBE" fill-opacity="1.000000" fill-rule="nonzero"/>
		</g>
	</g>
	<g mask="url(#mask1_14301)">
		<g style="mix-blend-mode:normal">
			<path id="Path 32098" d="M56.46 29.88C55.32 29.3 54.47 28.13 53.34 27.67C52.33 27.26 51.34 27.62 50.3 27.38C48.3 26.92 47.31 24.89 45.05 23.4C38.76 19.21 30.03 21.46 26.11 28.62C24.86 30.91 24.19 34.05 25.8 36.04C27.48 38.12 30.61 37.71 33.04 38.26C36.18 38.97 37.49 41.5 37.08 43.39C36.88 44.37 36.2 45.15 36.09 46.16C35.77 48.93 37.98 51.3 36.93 54.31C36.08 56.78 34.04 58.1 33.54 61.93C32.96 66.42 35.25 70.52 37.49 71.68C39.69 72.82 40.93 70.63 42.36 69.69C45.47 67.64 50.05 68.09 52.4 65.03C53.71 63.33 53.28 61.14 53.87 59.2C55.25 54.65 61.41 53.6 63.98 49.75C65.26 47.86 63.49 47.9 62.42 46.78C61.03 45.31 61.19 43.13 62.22 42.69C63.72 42.07 63.76 45.07 66.24 44.18C68.26 43.46 68.7 40.85 70.15 40.09C70.78 39.76 71.44 39.99 71.82 40.55C72.58 41.64 72.39 43.28 72.57 44.52C72.83 46.35 74.14 46.89 74.15 55C78.21 39.59 71.44 23.73 60.72 15.07C60.38 15.49 60.02 15.78 59.45 15.83C56.82 16.08 55.21 12.35 51.91 13.41C51.08 13.67 50.33 14.13 49.5 14.38C47.47 14.98 45.88 13.95 42.99 14.71C42.02 14.96 40.96 15.35 40.29 16.13C39.66 16.87 39.51 18.14 40.41 18.74C42.21 19.94 45.89 17.58 48.96 18.87C51.47 19.92 50.72 21.57 51.61 22.49C52.26 23.17 53.22 22.34 53.99 22.66C55.09 23.13 54.52 24.87 55.03 25.86C55.47 26.73 56.58 26.34 57.36 26.51C60.36 27.2 59.33 31.32 56.46 29.88Z" fill="#66AF3A" fill-opacity="1.000000" fill-rule="nonzero"/>
		</g>
	</g>
	<g mask="url(#mask1_14301)">
		<g style="mix-blend-mode:normal">
			<path id="Path 32099" d="M3.26 58.04C15.3 90.04 64.59 88.99 73.99 55.59C73.85 55.49 74.13 52.34 73.62 49.21C73.19 46.52 72.52 45.64 72.37 44.52C72.18 43.18 72.39 41.47 71.54 40.5C71.23 40.15 70.76 40.03 70.32 40.23C68.86 40.88 68.05 44.61 65.33 44.54C63.68 44.5 63.47 42.61 62.42 42.84C61.55 43.03 61.09 44.96 62.47 46.54C63.57 47.78 65.7 47.75 63.99 50.08C61.45 53.57 55.98 54.76 54.29 58.62C53.47 60.49 53.93 62.58 53.06 64.36C51.4 67.72 46.5 67.96 43.68 69.2C41.32 70.25 40.74 71.86 39.17 72.16C36.51 72.67 32.59 67.76 33.34 61.93C33.83 58.12 35.83 56.7 36.69 54.39C37.84 51.33 35.52 48.93 35.9 46.07C36.05 44.91 36.64 44.34 36.86 43.46C37.08 42.59 36.89 41.67 36.47 40.9C34.5 37.29 30.11 38.78 27.12 37.32C22.96 35.3 24.38 28.74 29.09 24.58C33.47 20.71 39.37 20.13 44.06 22.58C46.26 23.73 47.11 24.93 48.27 25.98C50.75 28.2 51.87 26.72 53.63 27.59C55.02 28.27 56.79 30.71 58.27 29.82C59.3 29.21 59.29 27.34 57.55 26.77C56.54 26.44 55.15 27.1 54.72 25.62C54.46 24.72 54.7 23.44 54.11 22.96C53.46 22.44 52.54 23.24 51.75 22.85C50.43 22.18 51.54 19.48 47.93 18.76C44.99 18.18 40.96 20.5 39.78 18.34C39.39 17.64 39.57 16.73 40.05 16.12C41.09 14.75 43.71 14.18 45.45 14.21C46.59 14.23 47.75 14.54 48.88 14.32C51.49 13.83 52.44 11.61 56.51 14.44C57.25 14.95 57.96 15.49 58.89 15.62C59.8 15.74 60.19 15.43 60.57 14.95C49.73 6.3 36.58 5.88 24.51 10.81C17.12 13.83 10.84 19.04 6.57 25.85C8.75 29.34 6.46 31.66 6.72 34.02C6.94 35.97 8.73 37.45 9.8 39.18C12.95 44.27 6.72 48.82 4.79 51.68C3.63 53.4 2.66 56.06 3.26 58.04Z" fill="#6EC6FA" fill-opacity="1.000000" fill-rule="nonzero"/>
		</g>
	</g>
	<g mask="url(#mask1_14301)">
		<g style="mix-blend-mode:normal">
			<path id="Path 32100" d="M62.54 114.14C64.48 113.71 66.05 113.3 67.46 112.08C68.96 110.8 69.11 109.37 68.37 108.13C66.95 105.76 63.9 105.91 59.26 104.66C55.41 103.63 50.24 101.78 47.14 99.3C45.99 98.37 45.15 97.24 44.5 95.93C43.75 97.21 42.25 97.55 40.78 97.83C38.95 98.17 37.19 98.13 35.33 97.48C34.72 97.27 33.61 96.85 33.31 96.27C32.79 97.17 32.09 97.95 31.32 98.66C23.84 105.54 11.52 105.8 10.01 109.96C9.49 111.38 10.98 112.34 12.32 113.02C22.31 118.14 51.63 116.56 62.54 114.14Z" fill="#304654" fill-opacity="1.000000" fill-rule="nonzero"/>
		</g>
	</g>
	<g mask="url(#mask1_14301)">
		<g style="mix-blend-mode:normal">
			<path id="Path 32101" d="M52.79 5.41C51.71 6.5 50.78 8.47 50.38 9.1C51.68 9.54 52.65 9.96 53.91 10.56C54.63 9.33 55.34 7.99 55.36 6.54C54.51 6.14 53.66 5.76 52.79 5.41Z" fill="#A5AEBE" fill-opacity="1.000000" fill-rule="nonzero"/>
		</g>
	</g>
	<g mask="url(#mask1_14301)">
		<g style="mix-blend-mode:normal">
			<path id="Path 32102" d="M34.52 96.94C36.64 97.93 38.86 98.03 41.11 97.56C42.46 97.28 43.75 96.94 44.39 95.71C43.11 93.02 42.78 89.83 42.9 89.14C40.08 89.51 37.24 89.65 34.4 89.56C34.52 91.75 34.48 94.22 33.41 96.1C33.56 96.13 33.33 96.39 34.52 96.94Z" fill="#A5AEBE" fill-opacity="1.000000" fill-rule="nonzero"/>
		</g>
	</g>
	<g mask="url(#mask1_14301)">
		<g style="mix-blend-mode:normal">
			<path id="Path 32103" d="M25.13 82.62C25.46 82.15 26.15 80.31 26.31 79.76C25.25 79.44 24.2 79.07 23.16 78.66C23.16 79.07 21.93 81.1 21.9 82.07C22.85 82.41 23.61 82.8 24.61 83.18C24.79 83 24.98 82.83 25.13 82.62Z" fill="#A5AEBE" fill-opacity="1.000000" fill-rule="nonzero"/>
		</g>
	</g>
	<g mask="url(#mask1_14301)">
		<g style="mix-blend-mode:normal">
			<path id="Path 32104" d="M6.45 26.04C0.84 35.1 -0.84 46.15 2.89 57.01C2.78 55.07 3.73 52.76 4.89 51.2C7.29 47.95 13.01 43.88 9.16 38.6C8.01 37.02 6.39 35.48 6.51 33.36C6.62 31.34 8.29 29.12 6.45 26.04Z" fill="#66AF3A" fill-opacity="1.000000" fill-rule="nonzero"/>
		</g>
	</g>
	<g mask="url(#mask1_14301)">
		<g style="mix-blend-mode:normal">
			<path id="Path 32105" d="" fill="#13202B" fill-opacity="1.000000" fill-rule="nonzero"/>
		</g>
	</g>
	<g mask="url(#mask1_14301)">
		<g style="mix-blend-mode:normal">
			<path id="Path 32106" d="" fill="#13202B" fill-opacity="1.000000" fill-rule="nonzero"/>
		</g>
	</g>
	<g mask="url(#mask1_14301)">
		<g style="mix-blend-mode:normal">
			<path id="Path 32107" d="" fill="#13202B" fill-opacity="1.000000" fill-rule="nonzero"/>
		</g>
	</g>
	<g mask="url(#mask1_14301)">
		<g style="mix-blend-mode:normal">
			<path id="Path 32108" d="" fill="#13202B" fill-opacity="1.000000" fill-rule="nonzero"/>
		</g>
	</g>
	<g mask="url(#mask1_14301)">
		<g style="mix-blend-mode:normal">
			<path id="Path 32109" d="M52.55 9.96C52.36 10.3 52.45 10.87 52.84 11.04C53.23 11.23 53.7 11.15 53.93 10.76C54.13 10.41 54.03 9.86 53.64 9.67C53.25 9.5 52.79 9.56 52.55 9.96Z" fill="#13202B" fill-opacity="1.000000" fill-rule="nonzero"/>
		</g>
	</g>
	<g mask="url(#mask1_14301)">
		<g style="mix-blend-mode:normal">
			<path id="Path 32110" d="M13.72 74.03C16.68 76.36 19.98 78.2 23.51 79.54C26.97 80.86 30.62 81.66 34.31 82.01C38.01 82.36 41.75 82.21 45.43 81.6C49.05 81.01 52.58 79.93 55.92 78.39C59.29 76.84 62.43 74.79 65.13 72.23C67.86 69.63 70.15 66.54 71.91 63.21C73.69 59.83 74.95 56.18 75.64 52.42C76.32 48.65 76.45 44.8 75.94 41C75.43 37.15 74.38 33.41 72.85 29.84C71.33 26.3 69.33 22.98 66.9 19.99C64.51 17.03 61.68 14.43 58.5 12.33C56.96 11.31 55.33 10.42 53.64 9.67C54.03 9.86 54.13 10.41 53.93 10.76C53.7 11.15 53.23 11.23 52.84 11.04C56.2 12.54 59.3 14.59 62 17.08C64.72 19.58 67.04 22.47 68.93 25.64C70.82 28.81 72.29 32.23 73.27 35.8C74.25 39.34 74.76 42.99 74.66 46.67C74.56 50.34 73.88 53.97 72.68 57.44C71.49 60.9 69.77 64.17 67.58 67.09C65.41 69.99 62.73 72.54 59.69 74.51C56.77 76.41 53.57 77.85 50.24 78.86C46.84 79.88 43.33 80.46 39.78 80.58C36.22 80.71 32.64 80.39 29.16 79.59C25.69 78.8 22.32 77.54 19.21 75.8C15.99 74 13.09 71.69 10.63 68.95C8.04 66.07 5.95 62.72 4.44 59.15C2.95 55.61 2 51.81 1.7 47.98C1.39 44.14 1.71 40.29 2.67 36.56C3.62 32.9 5.15 29.41 7.16 26.21C9.17 23 11.66 20.11 14.53 17.65C17.44 15.15 20.76 13.15 24.28 11.65C27.93 10.11 31.83 9.06 35.76 8.62C39.71 8.18 43.74 8.3 47.61 9.23C49.41 9.66 51.17 10.25 52.84 11.04C52.45 10.87 52.36 10.3 52.55 9.96C52.79 9.56 53.25 9.5 53.64 9.67C49.93 7.92 45.9 7.02 41.81 6.83C37.66 6.63 33.46 7.14 29.45 8.21C25.52 9.26 21.71 10.85 18.25 12.98C14.9 15.04 11.87 17.64 9.31 20.62C6.75 23.61 4.62 26.97 3.07 30.59C1.49 34.25 0.47 38.11 0.13 42.09C-0.22 46.09 0.13 50.16 1.09 54.06C2.05 57.98 3.65 61.76 5.8 65.17C7.93 68.54 10.59 71.56 13.72 74.03Z" fill="#13202B" fill-opacity="1.000000" fill-rule="nonzero"/>
		</g>
	</g>
	<g mask="url(#mask1_14301)">
		<g style="mix-blend-mode:normal">
			<path id="Path 32111" d="" fill="#13202B" fill-opacity="1.000000" fill-rule="nonzero"/>
		</g>
	</g>
	<g mask="url(#mask1_14301)">
		<g style="mix-blend-mode:normal">
			<path id="Path 32112" d="M25.39 83.65C25.76 83.35 26.02 82.93 26.21 82.51C26.54 81.79 26.8 81.04 27.09 80.3C27.16 80.12 27.1 79.85 27.01 79.69C26.91 79.53 26.72 79.37 26.53 79.33C26.08 79.22 25.72 79.46 25.56 79.88C25.41 80.26 25.26 80.65 25.11 81.03C25.06 81.18 25 81.33 24.94 81.48C24.93 81.5 24.9 81.56 24.9 81.58C24.85 81.69 24.91 81.53 24.94 81.48C24.91 81.53 24.86 81.66 24.84 81.71C24.75 81.9 24.65 82.09 24.53 82.27C24.47 82.34 24.34 82.47 24.27 82.52C24.12 82.64 24.04 82.91 24.04 83.09C24.04 83.28 24.12 83.51 24.27 83.65C24.42 83.79 24.62 83.89 24.83 83.88C25.06 83.87 25.22 83.79 25.39 83.65Z" fill="#13202B" fill-opacity="1.000000" fill-rule="nonzero"/>
		</g>
	</g>
	<g mask="url(#mask1_14301)">
		<g style="mix-blend-mode:normal">
			<path id="Path 32113" d="" fill="#13202B" fill-opacity="1.000000" fill-rule="nonzero"/>
		</g>
	</g>
	<g mask="url(#mask1_14301)">
		<g style="mix-blend-mode:normal">
			<path id="Path 32114" d="" fill="#13202B" fill-opacity="1.000000" fill-rule="nonzero"/>
		</g>
	</g>
	<g mask="url(#mask1_14301)">
		<g style="mix-blend-mode:normal">
			<path id="Path 32115" d="M22.93 81.01C23 80.85 23.07 80.69 23.15 80.53C23.35 80.07 23.55 79.62 23.75 79.17C23.84 78.97 23.89 78.78 23.83 78.56C23.78 78.37 23.64 78.17 23.47 78.08C23.12 77.9 22.56 77.96 22.38 78.37C22.02 79.18 21.64 79.99 21.3 80.82C21.14 81.22 21.02 81.63 21.01 82.07C21 82.48 21.38 82.88 21.8 82.86C22.24 82.84 22.59 82.51 22.59 82.07C22.6 82.03 22.6 81.99 22.6 81.96C22.6 81.98 22.6 82.04 22.59 82.07C22.61 81.99 22.6 81.98 22.6 81.96C22.61 81.91 22.62 81.86 22.63 81.82C22.68 81.62 22.76 81.43 22.83 81.24C22.85 81.21 22.87 81.16 22.88 81.13C22.87 81.15 22.85 81.19 22.83 81.24C22.87 81.17 22.9 81.08 22.93 81.01Z" fill="#13202B" fill-opacity="1.000000" fill-rule="nonzero"/>
		</g>
	</g>
	<g mask="url(#mask1_14301)">
		<g style="mix-blend-mode:normal">
			<path id="Path 32116" d="M22.59 82.04C22.59 82.02 22.61 81.91 22.61 81.9C22.61 81.92 22.6 81.97 22.59 82.04Z" fill="#13202B" fill-opacity="1.000000" fill-rule="nonzero"/>
		</g>
	</g>
	<g mask="url(#mask1_14301)">
		<g style="mix-blend-mode:normal">
			<path id="Path 32117" d="" fill="#13202B" fill-opacity="1.000000" fill-rule="nonzero"/>
		</g>
	</g>
	<g mask="url(#mask1_14301)">
		<g style="mix-blend-mode:normal">
			<path id="Path 32118" d="" fill="#13202B" fill-opacity="1.000000" fill-rule="nonzero"/>
		</g>
	</g>
	<g mask="url(#mask1_14301)">
		<g style="mix-blend-mode:normal">
			<path id="Path 32119" d="M54.71 10.91C55.45 9.66 56.1 8.35 56.25 6.89C56.29 6.47 55.86 6.08 55.46 6.09C54.99 6.12 54.71 6.44 54.66 6.89C54.67 6.87 54.67 6.97 54.65 7.01C54.66 6.99 54.66 6.91 54.66 6.89C54.66 6.9 54.65 6.99 54.65 7.01C54.63 7.11 54.62 7.18 54.6 7.27C54.56 7.43 54.52 7.6 54.47 7.76C54.42 7.93 54.36 8.09 54.29 8.26C54.27 8.31 54.25 8.37 54.23 8.43C54.21 8.47 54.17 8.56 54.15 8.6C53.91 9.12 53.63 9.62 53.34 10.11C53.12 10.47 53.24 11 53.62 11.2C54 11.4 54.48 11.29 54.71 10.91Z" fill="#13202B" fill-opacity="1.000000" fill-rule="nonzero"/>
		</g>
	</g>
	<g mask="url(#mask1_14301)">
		<g style="mix-blend-mode:normal">
			<path id="Path 32120" d="M53.23 4.88C52.91 4.59 52.42 4.57 52.1 4.88C51.65 5.32 51.28 5.87 50.93 6.39C50.5 7.02 50.11 7.68 49.79 8.37C49.7 8.57 49.65 8.76 49.71 8.98C49.76 9.17 49.91 9.37 50.08 9.46C50.42 9.64 50.98 9.58 51.16 9.17C51.47 8.49 51.86 7.85 52.27 7.23C52.37 7.08 52.47 6.94 52.58 6.79C52.62 6.73 52.67 6.67 52.71 6.61C52.86 6.43 53.06 6.17 53.23 6C53.52 5.71 53.54 5.17 53.23 4.88Z" fill="#13202B" fill-opacity="1.000000" fill-rule="nonzero"/>
		</g>
	</g>
	<g mask="url(#mask1_14301)">
		<g style="mix-blend-mode:normal">
			<path id="Path 32121" d="" fill="#13202B" fill-opacity="1.000000" fill-rule="nonzero"/>
		</g>
	</g>
	<g mask="url(#mask1_14301)">
		<g style="mix-blend-mode:normal">
			<path id="Path 32122" d="" fill="#13202B" fill-opacity="1.000000" fill-rule="nonzero"/>
		</g>
	</g>
	<g mask="url(#mask1_14301)">
		<g style="mix-blend-mode:normal">
			<path id="Path 32123" d="" fill="#13202B" fill-opacity="1.000000" fill-rule="nonzero"/>
		</g>
	</g>
	<g mask="url(#mask1_14301)">
		<g style="mix-blend-mode:normal">
			<path id="Path 32124" d="" fill="#13202B" fill-opacity="1.000000" fill-rule="nonzero"/>
		</g>
	</g>
	<g mask="url(#mask1_14301)">
		<g style="mix-blend-mode:normal">
			<path id="Path 32125" d="" fill="#13202B" fill-opacity="1.000000" fill-rule="nonzero"/>
		</g>
	</g>
	<g mask="url(#mask1_14301)">
		<g style="mix-blend-mode:normal">
			<path id="Path 32126" d="" fill="#13202B" fill-opacity="1.000000" fill-rule="nonzero"/>
		</g>
	</g>
	<g mask="url(#mask1_14301)">
		<g style="mix-blend-mode:normal">
			<path id="Path 32127" d="" fill="#13202B" fill-opacity="1.000000" fill-rule="nonzero"/>
		</g>
	</g>
	<g mask="url(#mask1_14301)">
		<g style="mix-blend-mode:normal">
			<path id="Path 32128" d="" fill="#13202B" fill-opacity="1.000000" fill-rule="nonzero"/>
		</g>
	</g>
	<g mask="url(#mask1_14301)">
		<g style="mix-blend-mode:normal">
			<path id="Path 32129" d="" fill="#13202B" fill-opacity="1.000000" fill-rule="nonzero"/>
		</g>
	</g>
	<g mask="url(#mask1_14301)">
		<g style="mix-blend-mode:normal">
			<path id="Path 32130" d="" fill="#13202B" fill-opacity="1.000000" fill-rule="nonzero"/>
		</g>
	</g>
	<g mask="url(#mask1_14301)">
		<g style="mix-blend-mode:normal">
			<path id="Path 32131" d="" fill="#13202B" fill-opacity="1.000000" fill-rule="nonzero"/>
		</g>
	</g>
	<g mask="url(#mask1_14301)">
		<g style="mix-blend-mode:normal">
			<path id="Path 32132" d="M72.05 65.41C69.67 69.17 66.7 72.53 63.27 75.35C59.79 78.21 55.82 80.49 51.6 82.04C47.09 83.69 42.31 84.53 37.51 84.55C34.94 84.57 32.36 84.36 29.83 83.93C28.69 83.74 27.59 83.49 26.49 83.12C25.34 82.73 24.2 82.28 23.06 81.84C21.98 81.43 20.9 81.02 19.79 80.71C18.9 80.46 17.93 80.22 17 80.32C16.02 80.43 15.14 81.03 14.73 81.95C14.22 83.06 14.67 84.19 15.43 85.06C16.34 86.1 17.64 86.79 18.91 87.31C20.33 87.89 21.84 88.3 23.32 88.68C26.34 89.46 29.44 89.95 32.55 90.16C38.75 90.59 45.06 89.9 51.02 88.11C56.63 86.43 61.89 83.77 66.51 80.17C70.87 76.78 74.61 72.6 77.49 67.89C80.41 63.11 82.37 57.81 83.27 52.28C84.21 46.45 84.16 40.48 82.99 34.68C81.94 29.5 80 24.49 77.32 19.93C74.82 15.7 71.68 11.83 68.03 8.54C64.58 5.43 60.6 2.67 56.25 0.97C54.49 0.29 52.25 -0.39 50.38 0.26C49.25 0.65 48.34 1.61 48.43 2.87C48.51 4 49.31 4.91 50.38 5.24C49.45 4.92 49.81 3.47 50.71 3.68C50.64 3.64 50.5 3.57 50.44 3.52C50.51 3.56 50.32 3.42 50.26 3.37C50.24 3.34 50.19 3.27 50.18 3.26C50.16 3.23 50.12 3.15 50.09 3.09C50.08 3.04 50.03 2.92 50.02 2.87C50.02 2.83 50.01 2.68 50.01 2.63C50.04 2.56 50.06 2.46 50.08 2.39C50.11 2.34 50.13 2.29 50.16 2.24C50.18 2.21 50.24 2.14 50.25 2.13C50.28 2.1 50.32 2.07 50.36 2.03C50.46 1.97 50.61 1.87 50.72 1.82C50.81 1.79 50.92 1.75 51.01 1.72C51.08 1.71 51.14 1.69 51.21 1.68C51.23 1.67 51.34 1.65 51.39 1.64C51.43 1.64 51.52 1.63 51.54 1.63C51.65 1.62 51.75 1.61 51.86 1.61C52.84 1.59 53.72 1.8 54.7 2.11C55.96 2.51 57.16 3.06 58.33 3.67C60.23 4.65 62.03 5.8 63.75 7.07C67.43 9.8 70.7 13.15 73.4 16.86C76.36 20.92 78.68 25.45 80.2 30.25C81.87 35.51 82.56 41.02 82.29 46.53C82.02 52.11 80.81 57.66 78.45 62.74C76.18 67.63 72.99 72.06 69.12 75.8C65.2 79.61 60.6 82.66 55.57 84.8C50 87.17 43.96 88.45 37.92 88.66C31.9 88.87 25.84 88.03 20.13 86.07C18.91 85.65 17.65 85.06 16.73 84.12C16.41 83.79 16.18 83.47 16.09 83.07C16.07 82.98 16.07 82.86 16.12 82.71C16.15 82.63 16.26 82.43 16.37 82.32C16.49 82.19 16.62 82.09 16.76 81.99C16.85 81.97 17 81.92 17.09 81.9C17.1 81.9 17.16 81.89 17.2 81.89C17.28 81.89 17.36 81.89 17.44 81.89C17.54 81.89 17.63 81.89 17.73 81.9C17.78 81.9 17.98 81.93 17.98 81.92C18.99 82.07 19.99 82.41 20.95 82.75C23.14 83.52 25.27 84.51 27.51 85.08C29.95 85.71 32.54 85.96 35.04 86.08C39.89 86.33 44.79 85.79 49.45 84.42C53.8 83.14 57.94 81.15 61.65 78.56C65.35 75.97 68.6 72.82 71.32 69.23C74 65.71 76.11 61.78 77.6 57.62C79.12 53.38 79.96 48.89 80.08 44.39C80.2 39.75 79.54 35.07 78.16 30.64C76.56 25.53 73.83 20.82 70.32 16.78C66.85 12.77 62.61 9.42 57.96 6.87C55.67 5.62 53.18 4.54 50.71 3.68C51.68 3.98 51.36 5.54 50.38 5.24C55.44 6.99 60.21 9.67 64.32 13.11C68.43 16.55 71.9 20.74 74.35 25.51C76.6 29.9 77.92 34.78 78.35 39.69C78.75 44.21 78.39 48.77 77.29 53.17C76.21 57.5 74.43 61.64 72.05 65.41Z" fill="#13202B" fill-opacity="1.000000" fill-rule="nonzero"/>
		</g>
	</g>
	<g mask="url(#mask1_14301)">
		<g style="mix-blend-mode:normal">
			<path id="Path 32133" d="M50.8 3.71C49.9 3.5 49.45 4.92 50.38 5.24C51.36 5.54 51.78 4.01 50.8 3.71Z" fill="#13202B" fill-opacity="1.000000" fill-rule="nonzero"/>
		</g>
	</g>
	<g mask="url(#mask1_14301)">
		<g style="mix-blend-mode:normal">
			<path id="Path 32134" d="" fill="#13202B" fill-opacity="1.000000" fill-rule="nonzero"/>
		</g>
	</g>
	<g mask="url(#mask1_14301)">
		<g style="mix-blend-mode:normal">
			<path id="Path 32135" d="" fill="#13202B" fill-opacity="1.000000" fill-rule="nonzero"/>
		</g>
	</g>
	<g mask="url(#mask1_14301)">
		<g style="mix-blend-mode:normal">
			<path id="Path 32136" d="" fill="#13202B" fill-opacity="1.000000" fill-rule="nonzero"/>
		</g>
	</g>
	<g mask="url(#mask1_14301)">
		<g style="mix-blend-mode:normal">
			<path id="Path 32137" d="" fill="#13202B" fill-opacity="1.000000" fill-rule="nonzero"/>
		</g>
	</g>
	<g mask="url(#mask1_14301)">
		<g style="mix-blend-mode:normal">
			<path id="Path 32138" d="" fill="#13202B" fill-opacity="1.000000" fill-rule="nonzero"/>
		</g>
	</g>
	<g mask="url(#mask1_14301)">
		<g style="mix-blend-mode:normal">
			<path id="Path 32139" d="" fill="#13202B" fill-opacity="1.000000" fill-rule="nonzero"/>
		</g>
	</g>
	<g mask="url(#mask1_14301)">
		<g style="mix-blend-mode:normal">
			<path id="Path 32140" d="" fill="#13202B" fill-opacity="1.000000" fill-rule="nonzero"/>
		</g>
	</g>
	<g mask="url(#mask1_14301)">
		<g style="mix-blend-mode:normal">
			<path id="Path 32141" d="" fill="#13202B" fill-opacity="1.000000" fill-rule="nonzero"/>
		</g>
	</g>
	<g mask="url(#mask1_14301)">
		<g style="mix-blend-mode:normal">
			<path id="Path 32142" d="" fill="#13202B" fill-opacity="1.000000" fill-rule="nonzero"/>
		</g>
	</g>
	<g mask="url(#mask1_14301)">
		<g style="mix-blend-mode:normal">
			<path id="Path 32143" d="" fill="#13202B" fill-opacity="1.000000" fill-rule="nonzero"/>
		</g>
	</g>
	<g mask="url(#mask1_14301)">
		<g style="mix-blend-mode:normal">
			<path id="Path 32144" d="" fill="#13202B" fill-opacity="1.000000" fill-rule="nonzero"/>
		</g>
	</g>
	<g mask="url(#mask1_14301)">
		<g style="mix-blend-mode:normal">
			<path id="Path 32145" d="" fill="#13202B" fill-opacity="1.000000" fill-rule="nonzero"/>
		</g>
	</g>
	<g mask="url(#mask1_14301)">
		<g style="mix-blend-mode:normal">
			<path id="Path 32146" d="" fill="#13202B" fill-opacity="1.000000" fill-rule="nonzero"/>
		</g>
	</g>
	<g mask="url(#mask1_14301)">
		<g style="mix-blend-mode:normal">
			<path id="Path 32147" d="" fill="#13202B" fill-opacity="1.000000" fill-rule="nonzero"/>
		</g>
	</g>
	<g mask="url(#mask1_14301)">
		<g style="mix-blend-mode:normal">
			<path id="Path 32148" d="M33.48 92.67C33.47 92.78 33.46 92.9 33.45 93.02C33.44 93.06 33.44 93.11 33.43 93.15C33.43 93.17 33.41 93.32 33.4 93.35C33.31 93.88 33.18 94.41 32.99 94.92C32.97 94.96 32.96 95 32.94 95.03C32.94 95.05 32.9 95.14 32.89 95.15C32.85 95.25 32.8 95.35 32.75 95.45C32.62 95.71 32.47 95.96 32.31 96.21C32.23 96.32 32.15 96.44 32.06 96.55C32.06 96.56 31.98 96.66 31.97 96.67C31.99 96.65 32.05 96.57 32.06 96.55C32.03 96.59 31.97 96.67 31.97 96.67C31.94 96.71 31.9 96.75 31.87 96.8C31.65 97.06 31.42 97.31 31.18 97.56C30.67 98.07 30.13 98.54 29.56 98.98C29.09 99.35 28.46 99.8 27.89 100.16C27.27 100.56 26.63 100.93 25.97 101.28C23.55 102.57 21.11 103.47 18.49 104.37C16.33 105.11 14.09 105.78 12.07 106.85C11.15 107.34 10.27 107.95 9.64 108.79C9.21 109.35 8.93 110.06 9.02 110.78C9.12 111.68 9.69 112.36 10.4 112.89C11.44 113.68 12.66 114.22 13.88 114.66C17.2 115.88 20.78 116.39 24.28 116.75C28.54 117.2 32.82 117.33 37.09 117.3C41.41 117.27 45.73 117.08 50.03 116.72C53.64 116.43 57.25 116.03 60.82 115.39C63.3 114.94 65.92 114.47 67.93 112.85C69.16 111.86 69.97 110.37 69.59 108.77C69.21 107.13 67.79 106.02 66.3 105.44C65.53 105.13 64.71 104.96 63.9 104.8C63.05 104.64 62.2 104.47 61.36 104.27C59.65 103.87 57.95 103.39 56.29 102.83C53.52 101.9 50.76 100.78 48.34 99.09C48.23 99 48.11 98.92 47.99 98.83C47.98 98.83 47.9 98.77 47.88 98.75C47.9 98.76 47.98 98.82 47.99 98.83C47.94 98.79 47.87 98.74 47.88 98.75C47.84 98.72 47.8 98.69 47.77 98.66C47.56 98.49 47.36 98.32 47.17 98.14C46.94 97.92 46.72 97.69 46.52 97.45C46.41 97.32 46.33 97.22 46.28 97.16C46.17 97 46.06 96.84 45.95 96.68C45.16 95.47 44.68 94.28 44.31 92.9C43.96 91.59 43.79 90.5 43.77 89.17C43.76 88.74 43.41 88.37 42.97 88.37C42.55 88.37 42.17 88.74 42.18 89.17C42.23 91.96 42.97 94.88 44.44 97.27C45.14 98.39 46.03 99.32 47.08 100.12C48.1 100.89 49.22 101.54 50.36 102.11C53.31 103.59 56.47 104.66 59.66 105.49C60.51 105.71 61.36 105.9 62.22 106.08C63.04 106.26 63.88 106.39 64.7 106.6C65.44 106.79 66.17 107.03 66.81 107.47C67.03 107.62 67.29 107.85 67.51 108.11C67.57 108.18 67.66 108.3 67.74 108.44C67.79 108.51 67.83 108.59 67.87 108.66C67.88 108.68 67.94 108.8 67.94 108.81C68.19 109.41 68.15 109.97 67.9 110.47C67.75 110.76 67.63 110.93 67.45 111.13C67.21 111.4 66.92 111.65 66.69 111.82C66.31 112.09 65.9 112.34 65.47 112.55C65.4 112.58 65.32 112.61 65.26 112.64C65.55 112.48 65.25 112.65 65.15 112.68C64.19 113.05 63.19 113.29 62.2 113.5C60.78 113.81 59.34 114.05 57.9 114.26C57.71 114.29 57.52 114.32 57.34 114.34C57.24 114.36 57.13 114.37 57.03 114.39C56.98 114.39 56.92 114.4 56.87 114.41C56.44 114.46 55.95 114.53 55.52 114.58C54.61 114.69 53.69 114.79 52.77 114.89C48.62 115.3 44.46 115.56 40.29 115.66C35.98 115.77 31.66 115.73 27.35 115.43C26.33 115.36 25.31 115.27 24.28 115.17C23.8 115.12 23.32 115.06 22.84 115C22.65 114.98 22.45 114.95 22.26 114.93C22.22 114.92 22.03 114.9 21.99 114.89C21.86 114.87 21.72 114.85 21.59 114.83C19.89 114.58 18.19 114.27 16.53 113.83C15.8 113.63 15.08 113.41 14.37 113.15C14.21 113.1 14.05 113.04 13.9 112.98C13.82 112.95 13.74 112.92 13.66 112.88C13.63 112.87 13.59 112.85 13.55 112.84C13.26 112.71 12.96 112.57 12.67 112.43C12.17 112.17 11.65 111.88 11.2 111.52C10.93 111.3 10.8 111.14 10.66 110.87C10.64 110.82 10.62 110.75 10.61 110.7C10.61 110.69 10.59 110.59 10.59 110.56C10.59 110.51 10.59 110.47 10.59 110.42C10.66 110.12 10.72 109.97 10.95 109.66C11.07 109.52 11.32 109.26 11.52 109.1C11.55 109.07 11.7 108.95 11.69 108.96C11.75 108.91 11.8 108.87 11.86 108.83C12.03 108.71 12.21 108.6 12.39 108.5C12.79 108.26 13.21 108.05 13.63 107.85C13.73 107.8 13.84 107.76 13.94 107.71C14 107.69 14.05 107.66 14.11 107.64C14.38 107.53 14.68 107.4 14.95 107.3C15.47 107.1 16 106.91 16.53 106.72C19.01 105.85 21.51 105.04 23.93 104C26.61 102.86 29.18 101.43 31.4 99.52C32.37 98.68 33.28 97.72 33.93 96.6C34.48 95.65 34.82 94.59 34.97 93.5C35.15 92.25 35.15 91 35.11 89.74C35.09 89.31 34.75 88.95 34.31 88.95C33.89 88.95 33.51 89.31 33.52 89.74C33.54 90.42 33.55 91.1 33.53 91.79C33.52 92.08 33.51 92.37 33.48 92.67Z" fill="#13202B" fill-opacity="1.000000" fill-rule="nonzero"/>
		</g>
	</g>
	<g mask="url(#mask1_14301)">
		<g style="mix-blend-mode:normal">
			<path id="Path 32149" d="" fill="#13202B" fill-opacity="1.000000" fill-rule="nonzero"/>
		</g>
	</g>
	<g mask="url(#mask1_14301)">
		<g style="mix-blend-mode:normal">
			<path id="Path 32150" d="" fill="#13202B" fill-opacity="1.000000" fill-rule="nonzero"/>
		</g>
	</g>
	<g mask="url(#mask1_14301)">
		<g style="mix-blend-mode:normal">
			<path id="Path 32151" d="" fill="#13202B" fill-opacity="1.000000" fill-rule="nonzero"/>
		</g>
	</g>
	<g mask="url(#mask1_14301)">
		<g style="mix-blend-mode:normal">
			<path id="Path 32152" d="" fill="#13202B" fill-opacity="1.000000" fill-rule="nonzero"/>
		</g>
	</g>
	<g mask="url(#mask1_14301)">
		<g style="mix-blend-mode:normal">
			<path id="Path 32153" d="" fill="#13202B" fill-opacity="1.000000" fill-rule="nonzero"/>
		</g>
	</g>
	<g mask="url(#mask1_14301)">
		<g style="mix-blend-mode:normal">
			<path id="Path 32154" d="" fill="#13202B" fill-opacity="1.000000" fill-rule="nonzero"/>
		</g>
	</g>
	<g mask="url(#mask1_14301)">
		<g style="mix-blend-mode:normal">
			<path id="Path 32155" d="" fill="#13202B" fill-opacity="1.000000" fill-rule="nonzero"/>
		</g>
	</g>
	<g mask="url(#mask1_14301)">
		<g style="mix-blend-mode:normal">
			<path id="Path 32156" d="M35.07 96.45C35.03 96.43 34.98 96.41 34.94 96.39C34.85 96.35 34.77 96.31 34.68 96.26C34.55 96.19 34.41 96.11 34.29 96.03C34.25 95.99 34.18 95.94 34.14 95.9C34.14 95.9 34.07 95.8 34.07 95.8C33.89 95.42 33.32 95.29 32.98 95.51C32.6 95.76 32.51 96.19 32.7 96.6C32.95 97.14 33.58 97.49 34.09 97.74C34.87 98.11 35.7 98.36 36.55 98.52C38.55 98.9 40.63 98.73 42.57 98.11C43.57 97.79 44.52 97.27 45.07 96.34C45.29 95.98 45.17 95.45 44.79 95.26C44.41 95.05 43.93 95.16 43.7 95.54C43.67 95.59 43.63 95.64 43.59 95.7C43.56 95.74 43.49 95.83 43.45 95.87C43.4 95.92 43.35 95.97 43.29 96.02C43.27 96.05 43.17 96.1 43.14 96.13C42.99 96.22 42.85 96.3 42.69 96.38C42.65 96.4 42.61 96.41 42.57 96.43C42.48 96.47 42.38 96.5 42.29 96.54C41.92 96.66 41.53 96.76 41.15 96.84C40.92 96.89 40.69 96.94 40.47 96.98C40.34 97 40.21 97.03 40.09 97.05C40.03 97.06 39.98 97.06 39.93 97.07C39.48 97.12 38.93 97.16 38.47 97.15C38.25 97.14 38.03 97.13 37.82 97.11C37.72 97.1 37.61 97.09 37.51 97.08C37.47 97.07 37.34 97.05 37.29 97.05C36.88 96.98 36.48 96.9 36.08 96.79C35.9 96.74 35.72 96.68 35.54 96.62C35.46 96.6 35.38 96.57 35.3 96.54C35.27 96.53 35.15 96.48 35.07 96.45Z" fill="#13202B" fill-opacity="1.000000" fill-rule="nonzero"/>
		</g>
	</g>
	<g mask="url(#mask1_14301)">
		<g style="mix-blend-mode:normal">
			<path id="Path 32157" d="" fill="#13202B" fill-opacity="1.000000" fill-rule="nonzero"/>
		</g>
	</g>
	<g mask="url(#mask1_14301)">
		<g style="mix-blend-mode:normal">
			<path id="Path 32158" d="" fill="#13202B" fill-opacity="1.000000" fill-rule="nonzero"/>
		</g>
	</g>
	<g mask="url(#mask1_14301)">
		<g style="mix-blend-mode:normal">
			<path id="Path 32159" d="" fill="#13202B" fill-opacity="1.000000" fill-rule="nonzero"/>
		</g>
	</g>
	<g mask="url(#mask1_14301)">
		<g style="mix-blend-mode:normal">
			<path id="Path 32160" d="" fill="#13202B" fill-opacity="1.000000" fill-rule="nonzero"/>
		</g>
	</g>
	<g mask="url(#mask1_14301)">
		<g style="mix-blend-mode:normal">
			<path id="Path 32161" d="" fill="#13202B" fill-opacity="1.000000" fill-rule="nonzero"/>
		</g>
	</g>
	<g mask="url(#mask1_14301)">
		<g style="mix-blend-mode:normal">
			<path id="Path 32162" d="" fill="#13202B" fill-opacity="1.000000" fill-rule="nonzero"/>
		</g>
	</g>
	<g mask="url(#mask1_14301)">
		<g style="mix-blend-mode:normal">
			<path id="Path 32163" d="" fill="#13202B" fill-opacity="1.000000" fill-rule="nonzero"/>
		</g>
	</g>
	<g mask="url(#mask1_14301)">
		<g style="mix-blend-mode:normal">
			<path id="Path 32164" d="" fill="#13202B" fill-opacity="1.000000" fill-rule="nonzero"/>
		</g>
	</g>
	<g mask="url(#mask1_14301)">
		<g style="mix-blend-mode:normal">
			<path id="Path 32165" d="" fill="#13202B" fill-opacity="1.000000" fill-rule="nonzero"/>
		</g>
	</g>
	<g mask="url(#mask1_14301)">
		<g style="mix-blend-mode:normal">
			<path id="Path 32166" d="" fill="#13202B" fill-opacity="1.000000" fill-rule="nonzero"/>
		</g>
	</g>
	<g mask="url(#mask1_14301)">
		<g style="mix-blend-mode:normal">
			<path id="Path 32167" d="" fill="#13202B" fill-opacity="1.000000" fill-rule="nonzero"/>
		</g>
	</g>
	<g mask="url(#mask1_14301)">
		<g style="mix-blend-mode:normal">
			<path id="Path 32168" d="" fill="#13202B" fill-opacity="1.000000" fill-rule="nonzero"/>
		</g>
	</g>
	<g mask="url(#mask1_14301)">
		<g style="mix-blend-mode:normal">
			<path id="Path 32169" d="" fill="#13202B" fill-opacity="1.000000" fill-rule="nonzero"/>
		</g>
	</g>
	<g mask="url(#mask1_14301)">
		<g style="mix-blend-mode:normal">
			<path id="Path 32170" d="" fill="#13202B" fill-opacity="1.000000" fill-rule="nonzero"/>
		</g>
	</g>
	<g mask="url(#mask1_14301)">
		<g style="mix-blend-mode:normal">
			<path id="Path 32171" d="M9.74 42.65C9.71 42.81 9.68 43.02 9.64 43.18C9.57 43.47 9.49 43.75 9.39 44.03C9.36 44.1 9.33 44.18 9.3 44.25C9.24 44.39 9.14 44.62 9.07 44.76C8.8 45.31 8.47 45.83 8.11 46.33C8.06 46.4 8.01 46.46 7.96 46.53C7.85 46.66 7.68 46.88 7.57 47C7.36 47.26 7.15 47.51 6.93 47.76C6.03 48.77 5.1 49.76 4.29 50.85C3.59 51.79 3.06 52.85 2.68 53.95C2.31 55.03 2.08 56.23 2.22 57.37C2.26 57.67 2.31 57.98 2.4 58.28C2.52 58.67 2.96 58.96 3.37 58.83C3.77 58.7 4.05 58.28 3.93 57.85C3.89 57.73 3.86 57.61 3.83 57.48C3.82 57.44 3.82 57.39 3.81 57.35C3.78 57.08 3.76 56.72 3.78 56.45C3.78 56.32 3.79 56.19 3.81 56.06C3.81 56.02 3.85 55.77 3.85 55.76C3.9 55.49 3.96 55.21 4.04 54.95C4.12 54.66 4.21 54.38 4.31 54.11C4.35 53.99 4.39 53.85 4.46 53.73C4.49 53.66 4.56 53.51 4.59 53.44C4.82 52.95 5.09 52.48 5.39 52.03C5.47 51.91 5.55 51.79 5.64 51.68C5.69 51.61 5.74 51.55 5.79 51.48C5.99 51.22 6.28 50.88 6.49 50.63C6.92 50.12 7.37 49.64 7.81 49.14C8.7 48.16 9.57 47.14 10.22 45.98C10.86 44.83 11.31 43.55 11.36 42.23C11.4 41.02 11.03 39.86 10.4 38.83C10.1 38.35 9.76 37.91 9.41 37.46C9.25 37.26 9.09 37.05 8.93 36.85C8.89 36.8 8.85 36.75 8.81 36.7C8.73 36.59 8.64 36.46 8.55 36.35C8.26 35.96 7.99 35.55 7.77 35.11C7.74 35.06 7.72 35 7.69 34.95C7.66 34.94 7.57 34.61 7.55 34.58C7.52 34.47 7.49 34.36 7.46 34.25C7.45 34.19 7.44 34.13 7.43 34.07C7.4 33.78 7.4 33.43 7.42 33.13C7.43 33.11 7.43 33.05 7.44 33.01C7.45 32.93 7.47 32.85 7.48 32.77C7.52 32.6 7.56 32.42 7.61 32.25C7.77 31.61 7.98 30.99 8.09 30.34C8.32 28.95 8.14 27.56 7.57 26.27C7.45 25.98 7.3 25.7 7.13 25.44C6.91 25.09 6.41 24.92 6.04 25.15C5.69 25.38 5.52 25.87 5.76 26.24C5.92 26.49 6.05 26.75 6.18 27.02C6.19 27.04 6.21 27.1 6.23 27.13C6.25 27.2 6.28 27.27 6.31 27.35C6.36 27.51 6.41 27.67 6.45 27.83C6.49 27.97 6.52 28.12 6.54 28.26C6.55 28.32 6.56 28.38 6.57 28.43C6.57 28.45 6.58 28.54 6.59 28.58C6.62 28.89 6.62 29.21 6.6 29.52C6.59 29.6 6.59 29.68 6.58 29.76C6.55 29.93 6.51 30.16 6.47 30.34C6.4 30.65 6.31 30.96 6.22 31.28C6.03 31.96 5.85 32.65 5.81 33.36C5.75 34.5 6.15 35.59 6.75 36.53C7.05 37 7.39 37.43 7.72 37.86C7.88 38.07 8.04 38.27 8.2 38.47C8.24 38.52 8.27 38.56 8.31 38.6C8.38 38.71 8.49 38.85 8.57 38.95C8.86 39.36 9.14 39.79 9.37 40.25C9.4 40.31 9.42 40.36 9.45 40.42C9.49 40.54 9.54 40.66 9.58 40.78C9.63 40.93 9.66 41.08 9.7 41.23C9.71 41.29 9.72 41.35 9.73 41.42C9.73 41.44 9.74 41.51 9.75 41.53C9.78 41.83 9.78 42.13 9.76 42.43C9.75 42.5 9.75 42.58 9.74 42.65Z" fill="#13202B" fill-opacity="1.000000" fill-rule="nonzero"/>
		</g>
	</g>
	<g mask="url(#mask1_14301)">
		<g style="mix-blend-mode:normal">
			<path id="Path 32172" d="" fill="#13202B" fill-opacity="1.000000" fill-rule="nonzero"/>
		</g>
	</g>
	<g mask="url(#mask1_14301)">
		<g style="mix-blend-mode:normal">
			<path id="Path 32173" d="" fill="#13202B" fill-opacity="1.000000" fill-rule="nonzero"/>
		</g>
	</g>
	<g mask="url(#mask1_14301)">
		<g style="mix-blend-mode:normal">
			<path id="Path 32174" d="" fill="#13202B" fill-opacity="1.000000" fill-rule="nonzero"/>
		</g>
	</g>
	<g mask="url(#mask1_14301)">
		<g style="mix-blend-mode:normal">
			<path id="Path 32175" d="" fill="#13202B" fill-opacity="1.000000" fill-rule="nonzero"/>
		</g>
	</g>
	<g mask="url(#mask1_14301)">
		<g style="mix-blend-mode:normal">
			<path id="Path 32176" d="" fill="#13202B" fill-opacity="1.000000" fill-rule="nonzero"/>
		</g>
	</g>
	<g mask="url(#mask1_14301)">
		<g style="mix-blend-mode:normal">
			<path id="Path 32177" d="" fill="#13202B" fill-opacity="1.000000" fill-rule="nonzero"/>
		</g>
	</g>
	<g mask="url(#mask1_14301)">
		<g style="mix-blend-mode:normal">
			<path id="Path 32178" d="" fill="#13202B" fill-opacity="1.000000" fill-rule="nonzero"/>
		</g>
	</g>
	<g mask="url(#mask1_14301)">
		<g style="mix-blend-mode:normal">
			<path id="Path 32179" d="" fill="#13202B" fill-opacity="1.000000" fill-rule="nonzero"/>
		</g>
	</g>
	<g mask="url(#mask1_14301)">
		<g style="mix-blend-mode:normal">
			<path id="Path 32180" d="" fill="#13202B" fill-opacity="1.000000" fill-rule="nonzero"/>
		</g>
	</g>
	<g mask="url(#mask1_14301)">
		<g style="mix-blend-mode:normal">
			<path id="Path 32181" d="" fill="#13202B" fill-opacity="1.000000" fill-rule="nonzero"/>
		</g>
	</g>
	<g mask="url(#mask1_14301)">
		<g style="mix-blend-mode:normal">
			<path id="Path 32182" d="" fill="#13202B" fill-opacity="1.000000" fill-rule="nonzero"/>
		</g>
	</g>
	<g mask="url(#mask1_14301)">
		<g style="mix-blend-mode:normal">
			<path id="Path 32183" d="" fill="#13202B" fill-opacity="1.000000" fill-rule="nonzero"/>
		</g>
	</g>
	<g mask="url(#mask1_14301)">
		<g style="mix-blend-mode:normal">
			<path id="Path 32184" d="" fill="#13202B" fill-opacity="1.000000" fill-rule="nonzero"/>
		</g>
	</g>
	<g mask="url(#mask1_14301)">
		<g style="mix-blend-mode:normal">
			<path id="Path 32185" d="" fill="#13202B" fill-opacity="1.000000" fill-rule="nonzero"/>
		</g>
	</g>
	<g mask="url(#mask1_14301)">
		<g style="mix-blend-mode:normal">
			<path id="Path 32186" d="" fill="#13202B" fill-opacity="1.000000" fill-rule="nonzero"/>
		</g>
	</g>
	<g mask="url(#mask1_14301)">
		<g style="mix-blend-mode:normal">
			<path id="Path 32187" d="" fill="#13202B" fill-opacity="1.000000" fill-rule="nonzero"/>
		</g>
	</g>
	<g mask="url(#mask1_14301)">
		<g style="mix-blend-mode:normal">
			<path id="Path 32188" d="" fill="#13202B" fill-opacity="1.000000" fill-rule="nonzero"/>
		</g>
	</g>
	<g mask="url(#mask1_14301)">
		<g style="mix-blend-mode:normal">
			<path id="Path 32189" d="" fill="#13202B" fill-opacity="1.000000" fill-rule="nonzero"/>
		</g>
	</g>
	<g mask="url(#mask1_14301)">
		<g style="mix-blend-mode:normal">
			<path id="Path 32190" d="" fill="#13202B" fill-opacity="1.000000" fill-rule="nonzero"/>
		</g>
	</g>
	<g mask="url(#mask1_14301)">
		<g style="mix-blend-mode:normal">
			<path id="Path 32191" d="" fill="#13202B" fill-opacity="1.000000" fill-rule="nonzero"/>
		</g>
	</g>
	<g mask="url(#mask1_14301)">
		<g style="mix-blend-mode:normal">
			<path id="Path 32192" d="" fill="#13202B" fill-opacity="1.000000" fill-rule="nonzero"/>
		</g>
	</g>
	<g mask="url(#mask1_14301)">
		<g style="mix-blend-mode:normal">
			<path id="Path 32193" d="" fill="#13202B" fill-opacity="1.000000" fill-rule="nonzero"/>
		</g>
	</g>
	<g mask="url(#mask1_14301)">
		<g style="mix-blend-mode:normal">
			<path id="Path 32194" d="" fill="#13202B" fill-opacity="1.000000" fill-rule="nonzero"/>
		</g>
	</g>
	<g mask="url(#mask1_14301)">
		<g style="mix-blend-mode:normal">
			<path id="Path 32195" d="" fill="#13202B" fill-opacity="1.000000" fill-rule="nonzero"/>
		</g>
	</g>
	<g mask="url(#mask1_14301)">
		<g style="mix-blend-mode:normal">
			<path id="Path 32196" d="" fill="#13202B" fill-opacity="1.000000" fill-rule="nonzero"/>
		</g>
	</g>
	<g mask="url(#mask1_14301)">
		<g style="mix-blend-mode:normal">
			<path id="Path 32197" d="" fill="#13202B" fill-opacity="1.000000" fill-rule="nonzero"/>
		</g>
	</g>
	<g mask="url(#mask1_14301)">
		<g style="mix-blend-mode:normal">
			<path id="Path 32198" d="" fill="#13202B" fill-opacity="1.000000" fill-rule="nonzero"/>
		</g>
	</g>
	<g mask="url(#mask1_14301)">
		<g style="mix-blend-mode:normal">
			<path id="Path 32199" d="" fill="#13202B" fill-opacity="1.000000" fill-rule="nonzero"/>
		</g>
	</g>
	<g mask="url(#mask1_14301)">
		<g style="mix-blend-mode:normal">
			<path id="Path 32200" d="" fill="#13202B" fill-opacity="1.000000" fill-rule="nonzero"/>
		</g>
	</g>
	<g mask="url(#mask1_14301)">
		<g style="mix-blend-mode:normal">
			<path id="Path 32201" d="" fill="#13202B" fill-opacity="1.000000" fill-rule="nonzero"/>
		</g>
	</g>
	<g mask="url(#mask1_14301)">
		<g style="mix-blend-mode:normal">
			<path id="Path 32202" d="" fill="#13202B" fill-opacity="1.000000" fill-rule="nonzero"/>
		</g>
	</g>
	<g mask="url(#mask1_14301)">
		<g style="mix-blend-mode:normal">
			<path id="Path 32203" d="" fill="#13202B" fill-opacity="1.000000" fill-rule="nonzero"/>
		</g>
	</g>
	<g mask="url(#mask1_14301)">
		<g style="mix-blend-mode:normal">
			<path id="Path 32204" d="" fill="#13202B" fill-opacity="1.000000" fill-rule="nonzero"/>
		</g>
	</g>
	<g mask="url(#mask1_14301)">
		<g style="mix-blend-mode:normal">
			<path id="Path 32205" d="" fill="#13202B" fill-opacity="1.000000" fill-rule="nonzero"/>
		</g>
	</g>
	<g mask="url(#mask1_14301)">
		<g style="mix-blend-mode:normal">
			<path id="Path 32206" d="" fill="#13202B" fill-opacity="1.000000" fill-rule="nonzero"/>
		</g>
	</g>
	<g mask="url(#mask1_14301)">
		<g style="mix-blend-mode:normal">
			<path id="Path 32207" d="" fill="#13202B" fill-opacity="1.000000" fill-rule="nonzero"/>
		</g>
	</g>
	<g mask="url(#mask1_14301)">
		<g style="mix-blend-mode:normal">
			<path id="Path 32208" d="" fill="#13202B" fill-opacity="1.000000" fill-rule="nonzero"/>
		</g>
	</g>
	<g mask="url(#mask1_14301)">
		<g style="mix-blend-mode:normal">
			<path id="Path 32209" d="" fill="#13202B" fill-opacity="1.000000" fill-rule="nonzero"/>
		</g>
	</g>
	<g mask="url(#mask1_14301)">
		<g style="mix-blend-mode:normal">
			<path id="Path 32210" d="" fill="#13202B" fill-opacity="1.000000" fill-rule="nonzero"/>
		</g>
	</g>
	<g mask="url(#mask1_14301)">
		<g style="mix-blend-mode:normal">
			<path id="Path 32211" d="" fill="#13202B" fill-opacity="1.000000" fill-rule="nonzero"/>
		</g>
	</g>
	<g mask="url(#mask1_14301)">
		<g style="mix-blend-mode:normal">
			<path id="Path 32212" d="" fill="#13202B" fill-opacity="1.000000" fill-rule="nonzero"/>
		</g>
	</g>
	<g mask="url(#mask1_14301)">
		<g style="mix-blend-mode:normal">
			<path id="Path 32213" d="" fill="#13202B" fill-opacity="1.000000" fill-rule="nonzero"/>
		</g>
	</g>
	<g mask="url(#mask1_14301)">
		<g style="mix-blend-mode:normal">
			<path id="Path 32214" d="" fill="#13202B" fill-opacity="1.000000" fill-rule="nonzero"/>
		</g>
	</g>
	<g mask="url(#mask1_14301)">
		<g style="mix-blend-mode:normal">
			<path id="Path 32215" d="" fill="#13202B" fill-opacity="1.000000" fill-rule="nonzero"/>
		</g>
	</g>
	<g mask="url(#mask1_14301)">
		<g style="mix-blend-mode:normal">
			<path id="Path 32216" d="" fill="#13202B" fill-opacity="1.000000" fill-rule="nonzero"/>
		</g>
	</g>
	<g mask="url(#mask1_14301)">
		<g style="mix-blend-mode:normal">
			<path id="Path 32217" d="" fill="#13202B" fill-opacity="1.000000" fill-rule="nonzero"/>
		</g>
	</g>
	<g mask="url(#mask1_14301)">
		<g style="mix-blend-mode:normal">
			<path id="Path 32218" d="" fill="#13202B" fill-opacity="1.000000" fill-rule="nonzero"/>
		</g>
	</g>
	<g mask="url(#mask1_14301)">
		<g style="mix-blend-mode:normal">
			<path id="Path 32219" d="" fill="#13202B" fill-opacity="1.000000" fill-rule="nonzero"/>
		</g>
	</g>
	<g mask="url(#mask1_14301)">
		<g style="mix-blend-mode:normal">
			<path id="Path 32220" d="" fill="#13202B" fill-opacity="1.000000" fill-rule="nonzero"/>
		</g>
	</g>
	<g mask="url(#mask1_14301)">
		<g style="mix-blend-mode:normal">
			<path id="Path 32221" d="M57.26 29.24C57.24 29.23 57.03 29.16 57.04 29.16C56.82 29.07 56.62 28.95 56.42 28.81C56.21 28.67 56.17 28.64 55.99 28.49C55.8 28.33 55.61 28.16 55.41 28C55.04 27.69 54.66 27.37 54.23 27.12C53.74 26.83 53.2 26.65 52.63 26.59C52.02 26.52 51.41 26.62 50.8 26.57C49.95 26.5 49.21 25.91 48.56 25.3C47.87 24.66 47.24 23.96 46.51 23.36C43.95 21.29 40.7 20.25 37.41 20.43C34.08 20.61 30.9 21.97 28.43 24.21C27.12 25.4 26.03 26.84 25.21 28.41C24.28 30.19 23.74 32.21 24.07 34.23C24.22 35.19 24.65 36.1 25.3 36.83C25.98 37.58 26.9 38.07 27.86 38.35C28.83 38.63 29.84 38.72 30.83 38.83C31.07 38.85 31.3 38.88 31.53 38.9C31.58 38.91 31.64 38.92 31.7 38.93C31.82 38.94 32.01 38.97 32.13 38.99C32.61 39.07 33.08 39.17 33.54 39.32C33.76 39.39 33.93 39.46 34.06 39.52C34.27 39.63 34.48 39.75 34.67 39.88C34.81 39.98 34.77 39.95 34.88 40.04C34.97 40.12 35.05 40.19 35.13 40.27C35.21 40.35 35.29 40.43 35.36 40.52C35.4 40.56 35.44 40.6 35.48 40.64C35.6 40.82 35.79 41.09 35.89 41.28C36.03 41.54 36.05 41.58 36.13 41.85C36.16 41.96 36.19 42.06 36.21 42.17C36.22 42.19 36.25 42.43 36.25 42.39C36.27 42.61 36.27 42.83 36.24 43.05C36.24 43.04 36.2 43.25 36.19 43.27C36.17 43.39 36.13 43.5 36.09 43.61C36 43.85 35.86 44.09 35.74 44.33C35.49 44.86 35.3 45.39 35.22 45.97C35.07 47.05 35.3 48.13 35.58 49.17C35.72 49.67 35.88 50.17 36.01 50.67C36.08 50.92 36.14 51.18 36.2 51.44C36.25 51.7 36.28 51.89 36.3 52.1C36.4 53.13 36.17 54.01 35.7 54.91C35.2 55.86 34.56 56.72 34.03 57.65C33.51 58.58 33.1 59.59 32.85 60.64C32.01 64.19 32.88 68.29 35.33 71.05C36.19 72.02 37.43 72.93 38.8 72.9C39.81 72.88 40.65 72.32 41.39 71.67C41.76 71.34 42.11 70.98 42.5 70.68C42.88 70.39 43.36 70.12 43.82 69.9C45.76 68.98 48.05 68.71 50.07 67.83C51.48 67.21 52.82 66.27 53.56 64.89C54.14 63.81 54.29 62.62 54.4 61.42C54.43 61.16 54.45 60.89 54.49 60.62C54.48 60.65 54.49 60.58 54.5 60.52C54.51 60.42 54.49 60.56 54.49 60.62C54.49 60.58 54.51 60.43 54.51 60.42C54.53 60.29 54.56 60.16 54.58 60.03C54.64 59.74 54.72 59.45 54.82 59.17C54.84 59.1 54.87 59.03 54.9 58.95C54.91 58.93 54.96 58.82 54.98 58.78C55.07 58.6 55.17 58.42 55.27 58.24C55.37 58.09 55.47 57.94 55.58 57.79C55.56 57.82 55.6 57.76 55.66 57.68C55.65 57.7 55.59 57.78 55.58 57.79C55.59 57.78 55.65 57.69 55.66 57.68C55.73 57.6 55.8 57.51 55.88 57.42C56.14 57.13 56.42 56.86 56.71 56.6C56.85 56.47 57 56.35 57.14 56.24C57.17 56.21 57.28 56.13 57.29 56.12C57.37 56.06 57.44 56 57.52 55.95C57.85 55.7 58.19 55.47 58.53 55.24C59.96 54.3 61.43 53.45 62.76 52.36C63.42 51.82 64.01 51.21 64.53 50.52C65.1 49.76 65.66 48.75 65.09 47.82C64.85 47.42 64.46 47.15 64.08 46.9C63.88 46.77 63.68 46.65 63.48 46.52C63.44 46.49 63.39 46.46 63.35 46.43C63.26 46.36 63.16 46.26 63.08 46.18C63.01 46.11 62.95 46.04 62.88 45.97C62.86 45.93 62.82 45.88 62.79 45.84C62.69 45.69 62.6 45.52 62.52 45.35C62.51 45.33 62.46 45.22 62.45 45.18C62.43 45.1 62.4 45.02 62.38 44.93C62.36 44.85 62.35 44.77 62.33 44.69C62.32 44.64 62.32 44.58 62.31 44.54C62.3 44.39 62.32 44.24 62.32 44.09C62.34 44.01 62.37 43.85 62.39 43.77C62.42 43.72 62.47 43.63 62.49 43.58C62.53 43.56 62.63 43.49 62.62 43.5L62.49 43.58C62.5 43.58 62.61 43.5 62.62 43.5C62.61 43.5 62.51 43.58 62.49 43.58C62.5 43.59 62.61 43.51 62.62 43.5C62.65 43.53 62.84 43.71 62.87 43.74C62.94 43.81 63.01 43.89 63.07 43.97C63.23 44.15 63.37 44.33 63.54 44.5C64.35 45.27 65.53 45.41 66.56 45.02C67.68 44.58 68.43 43.72 69.09 42.75C69.38 42.32 69.67 41.84 69.97 41.45C70.1 41.28 70.25 41.12 70.41 40.98C70.4 41 70.55 40.89 70.57 40.88C70.55 40.89 70.63 40.85 70.69 40.82C70.67 40.83 70.59 40.87 70.57 40.88C70.58 40.87 70.66 40.83 70.69 40.82C70.67 40.8 70.86 40.8 70.81 40.81C70.83 40.83 70.95 40.91 70.98 40.93C71.03 41.01 71.16 41.18 71.2 41.26C71.22 41.31 71.24 41.35 71.26 41.4C71.31 41.52 71.36 41.67 71.39 41.8C71.69 42.91 71.52 44.12 71.8 45.26C71.95 45.86 72.22 46.42 72.4 47.01C72.58 47.59 72.72 48.18 72.84 48.78C73.27 50.98 73.26 53.26 73.26 55.52C73.26 56.54 74.85 56.54 74.85 55.52C74.85 53.1 74.83 50.68 74.36 48.3C74.25 47.72 74.1 47.15 73.93 46.59C73.75 46 73.48 45.44 73.33 44.84C73.06 43.72 73.22 42.51 72.92 41.38C72.69 40.5 72.17 39.54 71.23 39.29C70.25 39.02 69.36 39.67 68.79 40.41C68.1 41.28 67.61 42.32 66.79 43.06C66.53 43.31 66.15 43.51 65.77 43.6C65.42 43.69 65.11 43.68 64.81 43.49C64.79 43.47 64.67 43.38 64.66 43.37C64.59 43.3 64.52 43.23 64.45 43.15C64.3 42.98 64.17 42.81 64.02 42.64C63.65 42.25 63.17 41.94 62.62 41.93C61.79 41.92 61.2 42.49 60.91 43.21C60.33 44.7 61.04 46.58 62.23 47.56C62.62 47.87 63.06 48.11 63.46 48.39C63.4 48.33 63.56 48.46 63.58 48.48C63.57 48.47 63.47 48.4 63.46 48.39C63.47 48.4 63.57 48.47 63.58 48.48C63.63 48.53 63.68 48.58 63.73 48.63C63.73 48.63 63.75 48.71 63.75 48.76C63.75 48.74 63.73 48.65 63.73 48.63C63.72 48.64 63.71 48.86 63.69 48.9C63.66 48.96 63.59 49.07 63.56 49.13C63.45 49.3 63.34 49.47 63.22 49.63C63.2 49.66 63.14 49.75 63.13 49.76C63.07 49.83 63.01 49.9 62.95 49.97C62.81 50.14 62.66 50.29 62.51 50.45C62.23 50.73 61.94 50.99 61.63 51.24C61.56 51.3 61.48 51.36 61.41 51.42C61.37 51.45 61.31 51.5 61.28 51.52C61.1 51.65 60.92 51.78 60.74 51.91C60.05 52.39 59.34 52.84 58.63 53.29C57.26 54.17 55.84 55.07 54.76 56.3C53.78 57.41 53.16 58.71 52.96 60.18C52.88 60.76 52.83 61.34 52.77 61.92C52.76 61.98 52.75 62.05 52.74 62.11C52.74 62.16 52.73 62.22 52.73 62.22C52.73 62.22 52.74 62.13 52.74 62.11C52.72 62.24 52.7 62.43 52.67 62.56C52.63 62.83 52.56 63.1 52.49 63.36C52.45 63.48 52.4 63.61 52.36 63.73C52.33 63.8 52.28 63.9 52.25 63.97C52.13 64.21 51.99 64.43 51.83 64.65C51.81 64.68 51.74 64.76 51.73 64.78C51.68 64.84 51.62 64.89 51.57 64.95C51.46 65.07 51.33 65.19 51.2 65.3C51.14 65.36 51.07 65.41 51.01 65.47C50.98 65.49 50.94 65.52 50.91 65.54C50.74 65.67 50.56 65.78 50.38 65.89C48.63 66.94 46.53 67.25 44.55 67.91C43.44 68.29 42.38 68.77 41.45 69.5C41.05 69.81 40.68 70.17 40.3 70.52C40.21 70.6 40.12 70.67 40.03 70.75C39.99 70.78 39.88 70.86 39.84 70.89C39.75 70.96 39.65 71.02 39.55 71.08C39.5 71.11 39.45 71.13 39.4 71.16C39.29 71.2 39.09 71.27 38.98 71.29C38.95 71.3 38.85 71.32 38.85 71.32C38.84 71.31 38.94 71.3 38.98 71.29C38.85 71.29 38.68 71.31 38.55 71.3C38.49 71.29 38.42 71.28 38.36 71.26C38.23 71.23 38.1 71.18 37.97 71.13C37.9 71.1 37.8 71.04 37.73 71C37.6 70.93 37.47 70.85 37.34 70.76C37.31 70.73 37.23 70.67 37.23 70.67C37.24 70.69 37.33 70.74 37.34 70.76C37.3 70.73 37.23 70.67 37.23 70.67C37.18 70.64 37.14 70.6 37.1 70.57C36.97 70.45 36.83 70.33 36.71 70.2C36.59 70.08 36.48 69.96 36.37 69.83C36.31 69.77 36.26 69.7 36.2 69.63C36.17 69.59 36.12 69.52 36.09 69.48C35.86 69.17 35.65 68.84 35.47 68.51C35.37 68.33 35.27 68.15 35.18 67.96C35.14 67.87 35.09 67.78 35.05 67.69C35.03 67.65 35.01 67.6 34.99 67.56C34.83 67.16 34.67 66.7 34.55 66.29C34.42 65.85 34.32 65.41 34.25 64.96C34.19 64.62 34.15 64.15 34.13 63.68C34.1 62.67 34.18 61.87 34.42 60.93C34.67 59.91 35.04 59.06 35.57 58.17C36.13 57.24 36.77 56.36 37.24 55.37C37.72 54.36 37.99 53.27 37.89 52.14C37.8 51.06 37.48 50.02 37.18 48.98C37.04 48.47 36.9 47.97 36.81 47.45C36.78 47.26 36.77 47.12 36.76 46.86C36.75 46.75 36.75 46.63 36.76 46.51C36.76 46.45 36.76 46.39 36.76 46.33C36.76 46.34 36.78 46.17 36.78 46.17C36.86 45.66 37.07 45.23 37.29 44.77C37.56 44.24 37.75 43.72 37.82 43.12C38.07 41.1 36.67 39.05 34.9 38.17C33.98 37.72 32.98 37.51 31.98 37.38C31.48 37.31 30.99 37.26 30.49 37.2C29.96 37.14 29.67 37.12 29.17 37.02C28.71 36.94 28.26 36.83 27.82 36.66C27.78 36.65 27.74 36.63 27.71 36.62C27.61 36.57 27.45 36.49 27.35 36.44C27.26 36.39 27.17 36.33 27.08 36.27C26.95 36.19 26.9 36.16 26.84 36.11C26.47 35.78 26.27 35.56 26.06 35.19C26 35.08 25.95 34.98 25.89 34.87C25.88 34.83 25.84 34.74 25.82 34.7C25.75 34.48 25.69 34.27 25.64 34.05C25.59 33.78 25.59 33.81 25.57 33.53C25.55 33.3 25.55 33.07 25.55 32.83C25.57 32.31 25.61 32.04 25.72 31.53C25.83 31.06 25.97 30.6 26.15 30.15C26.21 29.98 26.26 29.86 26.37 29.64C26.47 29.42 26.58 29.21 26.7 28.99C26.9 28.61 27.13 28.24 27.37 27.87C27.49 27.69 27.61 27.51 27.74 27.33C27.8 27.25 27.87 27.16 27.93 27.08C27.97 27.03 28.02 26.96 28.06 26.91C28.59 26.26 29.17 25.66 29.8 25.11C29.95 24.98 30.1 24.86 30.25 24.74C30.23 24.75 30.31 24.69 30.37 24.65C30.36 24.66 30.26 24.73 30.25 24.74C30.27 24.73 30.36 24.65 30.37 24.65C30.47 24.58 30.58 24.5 30.67 24.43C31.01 24.19 31.35 23.97 31.7 23.76C32.04 23.56 32.39 23.38 32.74 23.21C32.82 23.17 32.91 23.13 33 23.09C33.02 23.08 33.16 23.02 33.2 23C33.37 22.93 33.54 22.86 33.72 22.8C34.45 22.53 35.21 22.32 35.97 22.18C36.14 22.15 36.31 22.13 36.48 22.1C36.52 22.1 36.62 22.08 36.65 22.08C36.77 22.07 36.88 22.06 37 22.05C37.39 22.01 37.78 22 38.17 22C38.55 22 38.92 22.01 39.3 22.05C39.39 22.06 39.48 22.06 39.57 22.08C39.6 22.08 39.72 22.09 39.77 22.1C39.81 22.11 39.87 22.11 39.87 22.11C39.92 22.12 39.96 22.13 40.01 22.14C40.11 22.15 40.21 22.17 40.31 22.19C41.07 22.33 41.81 22.54 42.53 22.82C42.6 22.85 42.67 22.88 42.74 22.91C42.76 22.92 42.88 22.97 42.91 22.99C43.1 23.07 43.29 23.16 43.47 23.26C43.83 23.44 44.17 23.64 44.51 23.86C44.66 23.96 44.82 24.06 44.97 24.17C45.05 24.23 45.13 24.29 45.2 24.34C45.24 24.37 45.32 24.43 45.35 24.46C45.69 24.73 46.01 25.03 46.33 25.33C47.06 26.05 47.76 26.81 48.62 27.38C49.05 27.67 49.53 27.9 50.04 28.03C50.65 28.19 51.28 28.16 51.91 28.15C52.17 28.15 52.44 28.14 52.69 28.2C52.8 28.22 52.9 28.25 53 28.28C53.04 28.3 53.08 28.31 53.12 28.33C53.57 28.55 53.92 28.81 54.26 29.1C55.03 29.74 55.79 30.43 56.76 30.75C57.66 31.03 58.68 30.85 59.29 30.1C59.81 29.47 60.01 28.57 59.76 27.77C59.43 26.74 58.44 25.99 57.38 25.81C57.1 25.77 56.83 25.75 56.55 25.75C56.28 25.76 56.03 25.79 55.83 25.72C55.8 25.71 55.69 25.64 55.7 25.63C55.68 25.6 55.63 25.51 55.62 25.48C55.6 25.44 55.59 25.4 55.58 25.35C55.55 25.26 55.54 25.18 55.52 25.09C55.52 25.07 55.51 25.01 55.5 24.99C55.48 24.81 55.47 24.62 55.46 24.44C55.43 24.06 55.41 23.66 55.3 23.29C55.18 22.85 54.95 22.47 54.57 22.2C54.1 21.87 53.55 21.85 53 21.94C52.89 21.96 52.77 21.99 52.66 22.01C52.64 22.02 52.41 22.06 52.42 22.06C52.37 22.07 52.24 22.07 52.21 22.07C52.17 22.05 52.1 21.99 52.1 22C52.12 22.02 52.19 22.06 52.21 22.07C52.18 22.04 52.11 22.01 52.1 22C52.09 21.97 51.96 21.75 51.96 21.78C51.89 21.59 51.83 21.39 51.78 21.2C51.65 20.73 51.51 20.26 51.24 19.85C50.95 19.41 50.59 19.05 50.16 18.74C48.39 17.46 46.16 17.72 44.14 18.08C43.89 18.13 43.63 18.17 43.38 18.22C43.17 18.25 42.85 18.31 42.71 18.33C42.71 18.33 42.51 18.35 42.44 18.36C42.34 18.37 42.23 18.38 42.13 18.38C41.92 18.39 41.7 18.4 41.49 18.38C41.45 18.38 41.41 18.38 41.37 18.37C41.27 18.35 41.16 18.33 41.07 18.3C41.03 18.29 41 18.28 40.96 18.27C40.9 18.23 40.84 18.2 40.78 18.16C40.78 18.16 40.68 18.07 40.65 18.04C40.62 18 40.57 17.93 40.55 17.89C40.53 17.84 40.5 17.75 40.48 17.7C40.47 17.61 40.46 17.49 40.46 17.4C40.47 17.36 40.49 17.24 40.5 17.19C40.51 17.14 40.53 17.08 40.55 17.03C40.59 16.93 40.68 16.77 40.74 16.68C40.77 16.63 40.82 16.58 40.86 16.53C40.92 16.47 40.99 16.4 41.05 16.34C41.08 16.32 41.2 16.23 41.2 16.23C41.36 16.12 41.52 16.01 41.69 15.92C41.78 15.87 41.87 15.83 41.96 15.79C42.01 15.76 42.05 15.74 42.1 15.72C42.32 15.63 42.58 15.55 42.8 15.48C43.23 15.35 43.67 15.26 44.11 15.19C44.16 15.18 44.24 15.17 44.29 15.17C44.4 15.16 44.5 15.15 44.6 15.14C44.83 15.12 45.05 15.11 45.28 15.11C45.8 15.1 46.31 15.15 46.83 15.21C47.45 15.27 48.07 15.32 48.69 15.25C49.26 15.18 49.8 15.03 50.32 14.82C50.57 14.72 50.82 14.61 51.07 14.5C51.18 14.45 51.3 14.4 51.41 14.35C51.46 14.32 51.51 14.3 51.56 14.28C51.76 14.2 52.04 14.09 52.25 14.03C52.36 14 52.46 13.98 52.57 13.96C52.58 13.95 52.64 13.94 52.67 13.94C52.71 13.93 52.81 13.92 52.82 13.92C53.88 13.85 54.83 14.39 55.72 14.98C56.54 15.53 57.29 16.15 58.27 16.4C59.24 16.66 60.36 16.56 61.06 15.77C61.34 15.45 61.37 14.96 61.06 14.65C60.77 14.36 60.22 14.32 59.93 14.65C59.91 14.67 59.78 14.79 59.79 14.79C59.74 14.82 59.65 14.87 59.65 14.87C59.67 14.87 59.77 14.8 59.79 14.79C59.76 14.81 59.65 14.88 59.65 14.87C59.58 14.9 59.5 14.92 59.42 14.94C59.36 14.94 59.25 14.95 59.18 14.95C58.89 14.94 58.4 14.8 58.12 14.66C57.66 14.44 57.27 14.12 56.86 13.84C56.39 13.51 55.91 13.2 55.4 12.95C54.32 12.41 53.17 12.17 51.99 12.46C51.03 12.69 50.22 13.21 49.35 13.49C48.18 13.86 47.03 13.6 45.83 13.53C44.94 13.48 44.04 13.57 43.17 13.75C41.43 14.11 39.23 15.03 38.92 17.02C38.75 18.1 39.22 19.21 40.25 19.68C41.14 20.08 42.12 20 43.07 19.87C43.57 19.8 44.07 19.7 44.56 19.61C45.06 19.52 45.51 19.45 45.96 19.4C46.46 19.35 46.96 19.34 47.46 19.38C47.51 19.39 47.6 19.41 47.66 19.42C47.77 19.44 47.88 19.46 47.99 19.49C48.09 19.51 48.2 19.54 48.31 19.58C48.36 19.59 48.41 19.61 48.46 19.63C48.46 19.63 48.58 19.68 48.61 19.68C48.8 19.76 48.98 19.86 49.16 19.98C49.18 19.99 49.35 20.11 49.35 20.1C49.44 20.18 49.54 20.26 49.62 20.35C49.69 20.42 49.76 20.49 49.81 20.57C49.81 20.56 49.92 20.74 49.93 20.75C49.98 20.84 50.02 20.92 50.06 21.01C50.09 21.08 50.13 21.21 50.15 21.28C50.43 22.21 50.7 23.3 51.77 23.59C52.33 23.75 52.84 23.56 53.39 23.48C53.43 23.48 53.55 23.47 53.59 23.47C53.61 23.48 53.73 23.53 53.71 23.52C53.7 23.51 53.6 23.48 53.59 23.47C53.61 23.5 53.69 23.49 53.71 23.52C53.71 23.54 53.75 23.64 53.76 23.66C53.78 23.74 53.8 23.81 53.81 23.88C53.82 23.93 53.83 24.04 53.84 24.04C53.83 24.02 53.81 23.91 53.81 23.88C53.82 23.94 53.84 24.04 53.84 24.04C53.84 24.12 53.85 24.2 53.86 24.28C53.89 24.69 53.92 25.1 53.99 25.51C54.17 26.54 54.87 27.24 55.92 27.33C56.2 27.36 56.47 27.33 56.74 27.34C56.8 27.34 56.86 27.34 56.92 27.34C57.03 27.36 57.22 27.4 57.33 27.43C57.53 27.49 57.59 27.53 57.81 27.67C57.85 27.71 57.93 27.77 57.96 27.81C58 27.85 58.04 27.88 58.08 27.93C58.1 27.96 58.12 28 58.14 28.03C58.17 28.07 58.2 28.12 58.22 28.17C58.24 28.23 58.25 28.31 58.27 28.37C58.27 28.46 58.27 28.62 58.27 28.7C58.26 28.75 58.2 28.88 58.19 28.9C58.16 28.96 58.12 29.01 58.1 29.06C58.09 29.08 57.99 29.18 57.97 29.19C57.93 29.2 57.71 29.28 57.72 29.29C57.64 29.29 57.56 29.29 57.48 29.29C57.5 29.28 57.29 29.25 57.26 29.24Z" fill="#13202B" fill-opacity="1.000000" fill-rule="nonzero"/>
		</g>
	</g>
	<g mask="url(#mask1_14301)">
		<g style="mix-blend-mode:normal">
			<path id="Path 32222" d="" fill="#13202B" fill-opacity="1.000000" fill-rule="nonzero"/>
		</g>
	</g>
	<g mask="url(#mask1_14301)">
		<g style="mix-blend-mode:normal">
			<path id="Path 32223" d="" fill="#13202B" fill-opacity="1.000000" fill-rule="nonzero"/>
		</g>
	</g>
	<g mask="url(#mask1_14301)">
		<g style="mix-blend-mode:normal">
			<path id="Path 32224" d="" fill="#13202B" fill-opacity="1.000000" fill-rule="nonzero"/>
		</g>
	</g>
	<g mask="url(#mask1_14301)">
		<g style="mix-blend-mode:normal">
			<path id="Path 32225" d="" fill="#13202B" fill-opacity="1.000000" fill-rule="nonzero"/>
		</g>
	</g>
	<g mask="url(#mask1_14301)">
		<g style="mix-blend-mode:normal">
			<path id="Path 32226" d="" fill="#13202B" fill-opacity="1.000000" fill-rule="nonzero"/>
		</g>
	</g>
	<g mask="url(#mask1_14301)">
		<g style="mix-blend-mode:normal">
			<path id="Path 32227" d="" fill="#13202B" fill-opacity="1.000000" fill-rule="nonzero"/>
		</g>
	</g>
	<g mask="url(#mask1_14301)">
		<g style="mix-blend-mode:normal">
			<path id="Path 32228" d="" fill="#13202B" fill-opacity="1.000000" fill-rule="nonzero"/>
		</g>
	</g>
	<g mask="url(#mask1_14301)">
		<g style="mix-blend-mode:normal">
			<path id="Path 32229" d="" fill="#13202B" fill-opacity="1.000000" fill-rule="nonzero"/>
		</g>
	</g>
	<g mask="url(#mask1_14301)">
		<g style="mix-blend-mode:normal">
			<path id="Path 32230" d="" fill="#13202B" fill-opacity="1.000000" fill-rule="nonzero"/>
		</g>
	</g>
	<g mask="url(#mask1_14301)">
		<g style="mix-blend-mode:normal">
			<path id="Path 32231" d="" fill="#13202B" fill-opacity="1.000000" fill-rule="nonzero"/>
		</g>
	</g>
	<g mask="url(#mask1_14301)">
		<g style="mix-blend-mode:normal">
			<path id="Path 32232" d="" fill="#13202B" fill-opacity="1.000000" fill-rule="nonzero"/>
		</g>
	</g>
	<g mask="url(#mask1_14301)">
		<g style="mix-blend-mode:normal">
			<path id="Path 32233" d="" fill="#13202B" fill-opacity="1.000000" fill-rule="nonzero"/>
		</g>
	</g>
	<g mask="url(#mask1_14301)">
		<g style="mix-blend-mode:normal">
			<path id="Path 32234" d="" fill="#13202B" fill-opacity="1.000000" fill-rule="nonzero"/>
		</g>
	</g>
	<g mask="url(#mask1_14301)">
		<g style="mix-blend-mode:normal">
			<path id="Path 32235" d="" fill="#13202B" fill-opacity="1.000000" fill-rule="nonzero"/>
		</g>
	</g>
	<g mask="url(#mask1_14301)">
		<g style="mix-blend-mode:normal">
			<path id="Path 32236" d="" fill="#13202B" fill-opacity="1.000000" fill-rule="nonzero"/>
		</g>
	</g>
	<g mask="url(#mask1_14301)">
		<g style="mix-blend-mode:normal">
			<path id="Path 32237" d="" fill="#13202B" fill-opacity="1.000000" fill-rule="nonzero"/>
		</g>
	</g>
	<g mask="url(#mask1_14301)">
		<g style="mix-blend-mode:normal">
			<path id="Path 32238" d="" fill="#13202B" fill-opacity="1.000000" fill-rule="nonzero"/>
		</g>
	</g>
	<g mask="url(#mask1_14301)">
		<g style="mix-blend-mode:normal">
			<path id="Path 32239" d="" fill="#13202B" fill-opacity="1.000000" fill-rule="nonzero"/>
		</g>
	</g>
	<g mask="url(#mask1_14301)">
		<g style="mix-blend-mode:normal">
			<path id="Path 32240" d="" fill="#13202B" fill-opacity="1.000000" fill-rule="nonzero"/>
		</g>
	</g>
	<g mask="url(#mask1_14301)">
		<g style="mix-blend-mode:normal">
			<path id="Path 32241" d="" fill="#13202B" fill-opacity="1.000000" fill-rule="nonzero"/>
		</g>
	</g>
	<g mask="url(#mask1_14301)">
		<g style="mix-blend-mode:normal">
			<path id="Path 32242" d="" fill="#13202B" fill-opacity="1.000000" fill-rule="nonzero"/>
		</g>
	</g>
	<g mask="url(#mask1_14301)">
		<g style="mix-blend-mode:normal">
			<path id="Path 32243" d="" fill="#13202B" fill-opacity="1.000000" fill-rule="nonzero"/>
		</g>
	</g>
	<g mask="url(#mask1_14301)">
		<g style="mix-blend-mode:normal">
			<path id="Path 32244" d="" fill="#13202B" fill-opacity="1.000000" fill-rule="nonzero"/>
		</g>
	</g>
	<g mask="url(#mask1_14301)">
		<g style="mix-blend-mode:normal">
			<path id="Path 32245" d="" fill="#13202B" fill-opacity="1.000000" fill-rule="nonzero"/>
		</g>
	</g>
	<g mask="url(#mask1_14301)">
		<g style="mix-blend-mode:normal">
			<path id="Path 32246" d="" fill="#13202B" fill-opacity="1.000000" fill-rule="nonzero"/>
		</g>
	</g>
	<g mask="url(#mask1_14301)">
		<g style="mix-blend-mode:normal">
			<path id="Path 32247" d="" fill="#13202B" fill-opacity="1.000000" fill-rule="nonzero"/>
		</g>
	</g>
	<g mask="url(#mask1_14301)">
		<g style="mix-blend-mode:normal">
			<path id="Path 32248" d="" fill="#13202B" fill-opacity="1.000000" fill-rule="nonzero"/>
		</g>
	</g>
	<g mask="url(#mask1_14301)">
		<g style="mix-blend-mode:normal">
			<path id="Path 32249" d="" fill="#13202B" fill-opacity="1.000000" fill-rule="nonzero"/>
		</g>
	</g>
	<g mask="url(#mask1_14301)">
		<g style="mix-blend-mode:normal">
			<path id="Path 32250" d="" fill="#13202B" fill-opacity="1.000000" fill-rule="nonzero"/>
		</g>
	</g>
	<g mask="url(#mask1_14301)">
		<g style="mix-blend-mode:normal">
			<path id="Path 32251" d="" fill="#13202B" fill-opacity="1.000000" fill-rule="nonzero"/>
		</g>
	</g>
	<g mask="url(#mask1_14301)">
		<g style="mix-blend-mode:normal">
			<path id="Path 32252" d="" fill="#13202B" fill-opacity="1.000000" fill-rule="nonzero"/>
		</g>
	</g>
	<g mask="url(#mask1_14301)">
		<g style="mix-blend-mode:normal">
			<path id="Path 32253" d="" fill="#13202B" fill-opacity="1.000000" fill-rule="nonzero"/>
		</g>
	</g>
	<g mask="url(#mask1_14301)">
		<g style="mix-blend-mode:normal">
			<path id="Path 32254" d="" fill="#13202B" fill-opacity="1.000000" fill-rule="nonzero"/>
		</g>
	</g>
	<g mask="url(#mask1_14301)">
		<g style="mix-blend-mode:normal">
			<path id="Path 32255" d="" fill="#13202B" fill-opacity="1.000000" fill-rule="nonzero"/>
		</g>
	</g>
	<g mask="url(#mask1_14301)">
		<g style="mix-blend-mode:normal">
			<path id="Path 32256" d="" fill="#13202B" fill-opacity="1.000000" fill-rule="nonzero"/>
		</g>
	</g>
	<g mask="url(#mask1_14301)">
		<g style="mix-blend-mode:normal">
			<path id="Path 32257" d="" fill="#13202B" fill-opacity="1.000000" fill-rule="nonzero"/>
		</g>
	</g>
	<g mask="url(#mask1_14301)">
		<g style="mix-blend-mode:normal">
			<path id="Path 32258" d="" fill="#13202B" fill-opacity="1.000000" fill-rule="nonzero"/>
		</g>
	</g>
	<g mask="url(#mask1_14301)">
		<g style="mix-blend-mode:normal">
			<path id="Path 32259" d="" fill="#13202B" fill-opacity="1.000000" fill-rule="nonzero"/>
		</g>
	</g>
	<g mask="url(#mask1_14301)">
		<g style="mix-blend-mode:normal">
			<path id="Path 32260" d="" fill="#13202B" fill-opacity="1.000000" fill-rule="nonzero"/>
		</g>
	</g>
	<g mask="url(#mask1_14301)">
		<g style="mix-blend-mode:normal">
			<path id="Path 32261" d="" fill="#13202B" fill-opacity="1.000000" fill-rule="nonzero"/>
		</g>
	</g>
	<g mask="url(#mask1_14301)">
		<g style="mix-blend-mode:normal">
			<path id="Path 32262" d="" fill="#13202B" fill-opacity="1.000000" fill-rule="nonzero"/>
		</g>
	</g>
	<g mask="url(#mask1_14301)">
		<g style="mix-blend-mode:normal">
			<path id="Path 32263" d="" fill="#13202B" fill-opacity="1.000000" fill-rule="nonzero"/>
		</g>
	</g>
	<g mask="url(#mask1_14301)">
		<g style="mix-blend-mode:normal">
			<path id="Path 32264" d="" fill="#13202B" fill-opacity="1.000000" fill-rule="nonzero"/>
		</g>
	</g>
	<g mask="url(#mask1_14301)">
		<g style="mix-blend-mode:normal">
			<path id="Path 32265" d="" fill="#13202B" fill-opacity="1.000000" fill-rule="nonzero"/>
		</g>
	</g>
	<g mask="url(#mask1_14301)">
		<g style="mix-blend-mode:normal">
			<path id="Path 32266" d="" fill="#13202B" fill-opacity="1.000000" fill-rule="nonzero"/>
		</g>
	</g>
	<g mask="url(#mask1_14301)">
		<g style="mix-blend-mode:normal">
			<path id="Path 32267" d="" fill="#13202B" fill-opacity="1.000000" fill-rule="nonzero"/>
		</g>
	</g>
	<g mask="url(#mask1_14301)">
		<g style="mix-blend-mode:normal">
			<path id="Path 32268" d="" fill="#13202B" fill-opacity="1.000000" fill-rule="nonzero"/>
		</g>
	</g>
	<g mask="url(#mask1_14301)">
		<g style="mix-blend-mode:normal">
			<path id="Path 32269" d="" fill="#13202B" fill-opacity="1.000000" fill-rule="nonzero"/>
		</g>
	</g>
	<g mask="url(#mask1_14301)">
		<g style="mix-blend-mode:normal">
			<path id="Path 32270" d="" fill="#13202B" fill-opacity="1.000000" fill-rule="nonzero"/>
		</g>
	</g>
	<g mask="url(#mask1_14301)">
		<g style="mix-blend-mode:normal">
			<path id="Path 32271" d="" fill="#13202B" fill-opacity="1.000000" fill-rule="nonzero"/>
		</g>
	</g>
	<g mask="url(#mask1_14301)">
		<g style="mix-blend-mode:normal">
			<path id="Path 32272" d="" fill="#13202B" fill-opacity="1.000000" fill-rule="nonzero"/>
		</g>
	</g>
	<g mask="url(#mask1_14301)">
		<g style="mix-blend-mode:normal">
			<path id="Path 32273" d="" fill="#13202B" fill-opacity="1.000000" fill-rule="nonzero"/>
		</g>
	</g>
	<g mask="url(#mask1_14301)">
		<g style="mix-blend-mode:normal">
			<path id="Path 32274" d="" fill="#13202B" fill-opacity="1.000000" fill-rule="nonzero"/>
		</g>
	</g>
	<g mask="url(#mask1_14301)">
		<g style="mix-blend-mode:normal">
			<path id="Path 32275" d="" fill="#13202B" fill-opacity="1.000000" fill-rule="nonzero"/>
		</g>
	</g>
	<g mask="url(#mask1_14301)">
		<g style="mix-blend-mode:normal">
			<path id="Path 32276" d="" fill="#13202B" fill-opacity="1.000000" fill-rule="nonzero"/>
		</g>
	</g>
	<g mask="url(#mask1_14301)">
		<g style="mix-blend-mode:normal">
			<path id="Path 32277" d="" fill="#13202B" fill-opacity="1.000000" fill-rule="nonzero"/>
		</g>
	</g>
	<g mask="url(#mask1_14301)">
		<g style="mix-blend-mode:normal">
			<path id="Path 32278" d="" fill="#13202B" fill-opacity="1.000000" fill-rule="nonzero"/>
		</g>
	</g>
	<g mask="url(#mask1_14301)">
		<g style="mix-blend-mode:normal">
			<path id="Path 32279" d="" fill="#13202B" fill-opacity="1.000000" fill-rule="nonzero"/>
		</g>
	</g>
	<g mask="url(#mask1_14301)">
		<g style="mix-blend-mode:normal">
			<path id="Path 32280" d="" fill="#13202B" fill-opacity="1.000000" fill-rule="nonzero"/>
		</g>
	</g>
	<g mask="url(#mask1_14301)">
		<g style="mix-blend-mode:normal">
			<path id="Path 32281" d="" fill="#13202B" fill-opacity="1.000000" fill-rule="nonzero"/>
		</g>
	</g>
	<g mask="url(#mask1_14301)">
		<g style="mix-blend-mode:normal">
			<path id="Path 32282" d="" fill="#13202B" fill-opacity="1.000000" fill-rule="nonzero"/>
		</g>
	</g>
	<g mask="url(#mask1_14301)">
		<g style="mix-blend-mode:normal">
			<path id="Path 32283" d="" fill="#13202B" fill-opacity="1.000000" fill-rule="nonzero"/>
		</g>
	</g>
	<g mask="url(#mask1_14301)">
		<g style="mix-blend-mode:normal">
			<path id="Path 32284" d="" fill="#13202B" fill-opacity="1.000000" fill-rule="nonzero"/>
		</g>
	</g>
	<g mask="url(#mask1_14301)">
		<g style="mix-blend-mode:normal">
			<path id="Path 32285" d="" fill="#13202B" fill-opacity="1.000000" fill-rule="nonzero"/>
		</g>
	</g>
	<g mask="url(#mask1_14301)">
		<g style="mix-blend-mode:normal">
			<path id="Path 32286" d="" fill="#13202B" fill-opacity="1.000000" fill-rule="nonzero"/>
		</g>
	</g>
	<g mask="url(#mask1_14301)">
		<g style="mix-blend-mode:normal">
			<path id="Path 32287" d="" fill="#13202B" fill-opacity="1.000000" fill-rule="nonzero"/>
		</g>
	</g>
	<g mask="url(#mask1_14301)">
		<g style="mix-blend-mode:normal">
			<path id="Path 32288" d="" fill="#13202B" fill-opacity="1.000000" fill-rule="nonzero"/>
		</g>
	</g>
	<g mask="url(#mask1_14301)">
		<g style="mix-blend-mode:normal">
			<path id="Path 32289" d="" fill="#13202B" fill-opacity="1.000000" fill-rule="nonzero"/>
		</g>
	</g>
	<g mask="url(#mask1_14301)">
		<g style="mix-blend-mode:normal">
			<path id="Path 32290" d="" fill="#13202B" fill-opacity="1.000000" fill-rule="nonzero"/>
		</g>
	</g>
	<g mask="url(#mask1_14301)">
		<g style="mix-blend-mode:normal">
			<path id="Path 32291" d="" fill="#13202B" fill-opacity="1.000000" fill-rule="nonzero"/>
		</g>
	</g>
	<g mask="url(#mask1_14301)">
		<g style="mix-blend-mode:normal">
			<path id="Path 32292" d="" fill="#13202B" fill-opacity="1.000000" fill-rule="nonzero"/>
		</g>
	</g>
	<g mask="url(#mask1_14301)">
		<g style="mix-blend-mode:normal">
			<path id="Path 32293" d="" fill="#13202B" fill-opacity="1.000000" fill-rule="nonzero"/>
		</g>
	</g>
	<g mask="url(#mask1_14301)">
		<g style="mix-blend-mode:normal">
			<path id="Path 32294" d="" fill="#13202B" fill-opacity="1.000000" fill-rule="nonzero"/>
		</g>
	</g>
	<g mask="url(#mask1_14301)">
		<g style="mix-blend-mode:normal">
			<path id="Path 32295" d="" fill="#13202B" fill-opacity="1.000000" fill-rule="nonzero"/>
		</g>
	</g>
	<g mask="url(#mask1_14301)">
		<g style="mix-blend-mode:normal">
			<path id="Path 32296" d="" fill="#13202B" fill-opacity="1.000000" fill-rule="nonzero"/>
		</g>
	</g>
	<g mask="url(#mask1_14301)">
		<g style="mix-blend-mode:normal">
			<path id="Path 32297" d="" fill="#13202B" fill-opacity="1.000000" fill-rule="nonzero"/>
		</g>
	</g>
	<g mask="url(#mask1_14301)">
		<g style="mix-blend-mode:normal">
			<path id="Path 32298" d="" fill="#13202B" fill-opacity="1.000000" fill-rule="nonzero"/>
		</g>
	</g>
	<g mask="url(#mask1_14301)">
		<g style="mix-blend-mode:normal">
			<path id="Path 32299" d="" fill="#13202B" fill-opacity="1.000000" fill-rule="nonzero"/>
		</g>
	</g>
	<g mask="url(#mask1_14301)">
		<g style="mix-blend-mode:normal">
			<path id="Path 32300" d="" fill="#13202B" fill-opacity="1.000000" fill-rule="nonzero"/>
		</g>
	</g>
	<g mask="url(#mask1_14301)">
		<g style="mix-blend-mode:normal">
			<path id="Path 32301" d="" fill="#13202B" fill-opacity="1.000000" fill-rule="nonzero"/>
		</g>
	</g>
	<g mask="url(#mask1_14301)">
		<g style="mix-blend-mode:normal">
			<path id="Path 32302" d="" fill="#13202B" fill-opacity="1.000000" fill-rule="nonzero"/>
		</g>
	</g>
	<g mask="url(#mask1_14301)">
		<g style="mix-blend-mode:normal">
			<path id="Path 32303" d="" fill="#13202B" fill-opacity="1.000000" fill-rule="nonzero"/>
		</g>
	</g>
	<g mask="url(#mask1_14301)">
		<g style="mix-blend-mode:normal">
			<path id="Path 32304" d="" fill="#13202B" fill-opacity="1.000000" fill-rule="nonzero"/>
		</g>
	</g>
	<g mask="url(#mask1_14301)">
		<g style="mix-blend-mode:normal">
			<path id="Path 32305" d="" fill="#13202B" fill-opacity="1.000000" fill-rule="nonzero"/>
		</g>
	</g>
	<g mask="url(#mask1_14301)">
		<g style="mix-blend-mode:normal">
			<path id="Path 32306" d="" fill="#13202B" fill-opacity="1.000000" fill-rule="nonzero"/>
		</g>
	</g>
	<g mask="url(#mask1_14301)">
		<g style="mix-blend-mode:normal">
			<path id="Path 32307" d="" fill="#13202B" fill-opacity="1.000000" fill-rule="nonzero"/>
		</g>
	</g>
	<g mask="url(#mask1_14301)">
		<g style="mix-blend-mode:normal">
			<path id="Path 32308" d="" fill="#13202B" fill-opacity="1.000000" fill-rule="nonzero"/>
		</g>
	</g>
	<g mask="url(#mask1_14301)">
		<g style="mix-blend-mode:normal">
			<path id="Path 32309" d="" fill="#13202B" fill-opacity="1.000000" fill-rule="nonzero"/>
		</g>
	</g>
	<g mask="url(#mask1_14301)">
		<g style="mix-blend-mode:normal">
			<path id="Path 32310" d="" fill="#13202B" fill-opacity="1.000000" fill-rule="nonzero"/>
		</g>
	</g>
	<g mask="url(#mask1_14301)">
		<g style="mix-blend-mode:normal">
			<path id="Path 32311" d="" fill="#13202B" fill-opacity="1.000000" fill-rule="nonzero"/>
		</g>
	</g>
	<g mask="url(#mask1_14301)">
		<g style="mix-blend-mode:normal">
			<path id="Path 32312" d="" fill="#13202B" fill-opacity="1.000000" fill-rule="nonzero"/>
		</g>
	</g>
	<g mask="url(#mask1_14301)">
		<g style="mix-blend-mode:normal">
			<path id="Path 32313" d="" fill="#13202B" fill-opacity="1.000000" fill-rule="nonzero"/>
		</g>
	</g>
	<g mask="url(#mask1_14301)">
		<g style="mix-blend-mode:normal">
			<path id="Path 32314" d="" fill="#13202B" fill-opacity="1.000000" fill-rule="nonzero"/>
		</g>
	</g>
	<g mask="url(#mask1_14301)">
		<g style="mix-blend-mode:normal">
			<path id="Path 32315" d="" fill="#13202B" fill-opacity="1.000000" fill-rule="nonzero"/>
		</g>
	</g>
	<g mask="url(#mask1_14301)">
		<g style="mix-blend-mode:normal">
			<path id="Path 32316" d="" fill="#13202B" fill-opacity="1.000000" fill-rule="nonzero"/>
		</g>
	</g>
	<g mask="url(#mask1_14301)">
		<g style="mix-blend-mode:normal">
			<path id="Path 32317" d="" fill="#13202B" fill-opacity="1.000000" fill-rule="nonzero"/>
		</g>
	</g>
	<g mask="url(#mask1_14301)">
		<g style="mix-blend-mode:normal">
			<path id="Path 32318" d="" fill="#13202B" fill-opacity="1.000000" fill-rule="nonzero"/>
		</g>
	</g>
	<g mask="url(#mask1_14301)">
		<g style="mix-blend-mode:normal">
			<path id="Path 32319" d="" fill="#13202B" fill-opacity="1.000000" fill-rule="nonzero"/>
		</g>
	</g>
	<g mask="url(#mask1_14301)">
		<g style="mix-blend-mode:normal">
			<path id="Path 32320" d="" fill="#13202B" fill-opacity="1.000000" fill-rule="nonzero"/>
		</g>
	</g>
	<g mask="url(#mask1_14301)">
		<g style="mix-blend-mode:normal">
			<path id="Path 32321" d="" fill="#13202B" fill-opacity="1.000000" fill-rule="nonzero"/>
		</g>
	</g>
	<g mask="url(#mask1_14301)">
		<g style="mix-blend-mode:normal">
			<path id="Path 32322" d="" fill="#13202B" fill-opacity="1.000000" fill-rule="nonzero"/>
		</g>
	</g>
	<g mask="url(#mask1_14301)">
		<g style="mix-blend-mode:normal">
			<path id="Path 32323" d="" fill="#13202B" fill-opacity="1.000000" fill-rule="nonzero"/>
		</g>
	</g>
</svg>
