<svg width="85.007080" height="27.987061" viewBox="0 0 85.0071 27.9871" fill="none" xmlns="http://www.w3.org/2000/svg" xmlns:xlink="http://www.w3.org/1999/xlink">
	<desc>
			Created with Pixso.
	</desc>
	<defs/>
	<path id="path" d="M36.37 14.72C36.37 18.75 33.22 21.72 29.36 21.72C25.49 21.72 22.34 18.75 22.34 14.72C22.34 10.67 25.49 7.73 29.36 7.73C33.22 7.73 36.37 10.67 36.37 14.72ZM33.3 14.72C33.3 12.21 31.48 10.49 29.36 10.49C27.24 10.49 25.41 12.21 25.41 14.72C25.41 17.21 27.24 18.96 29.36 18.96C31.48 18.96 33.3 17.21 33.3 14.72Z" fill="#EA4335" fill-opacity="1.000000" fill-rule="nonzero"/>
	<path id="path" d="M51.51 14.72C51.51 18.75 48.36 21.72 44.49 21.72C40.63 21.72 37.48 18.75 37.48 14.72C37.48 10.67 40.63 7.73 44.49 7.73C48.36 7.73 51.51 10.67 51.51 14.72ZM48.43 14.72C48.43 12.21 46.61 10.49 44.49 10.49C42.37 10.49 40.55 12.21 40.55 14.72C40.55 17.21 42.37 18.96 44.49 18.96C46.61 18.96 48.43 17.21 48.43 14.72Z" fill="#FBBC05" fill-opacity="1.000000" fill-rule="nonzero"/>
	<path id="path" d="M66.01 8.15L66.01 20.71C66.01 25.87 62.96 27.98 59.36 27.98C55.97 27.98 53.93 25.72 53.16 23.86L55.84 22.75C56.31 23.89 57.48 25.23 59.36 25.23C61.66 25.23 63.09 23.81 63.09 21.13L63.09 20.12L62.98 20.12C62.3 20.97 60.97 21.71 59.3 21.71C55.81 21.71 52.6 18.67 52.6 14.75C52.6 10.8 55.81 7.73 59.3 7.73C60.97 7.73 62.29 8.47 62.98 9.29L63.09 9.29L63.09 8.16L66.01 8.15ZM63.31 14.75C63.31 12.29 61.67 10.49 59.58 10.49C57.46 10.49 55.68 12.29 55.68 14.75C55.68 17.19 57.46 18.96 59.58 18.96C61.67 18.96 63.31 17.19 63.31 14.75Z" fill="#4285F4" fill-opacity="1.000000" fill-rule="nonzero"/>
	<path id="path" d="M70.82 0.79L70.82 21.29L67.82 21.29L67.82 0.79L70.82 0.79Z" fill="#34A853" fill-opacity="1.000000" fill-rule="nonzero"/>
	<path id="path" d="M82.49 17.03L84.87 18.61C84.1 19.75 82.25 21.71 79.04 21.71C75.07 21.71 72.1 18.64 72.1 14.72C72.1 10.56 75.1 7.73 78.7 7.73C82.33 7.73 84.1 10.61 84.68 12.18L85 12.97L75.65 16.84C76.37 18.25 77.48 18.96 79.04 18.96C80.61 18.96 81.69 18.19 82.49 17.03ZM75.15 14.51L81.4 11.91C81.05 11.04 80.02 10.43 78.8 10.43C77.24 10.43 75.07 11.81 75.15 14.51Z" fill="#EA4335" fill-opacity="1.000000" fill-rule="nonzero"/>
	<path id="path" d="M11.01 12.9L11.01 9.94L21 9.94C21.1 10.45 21.15 11.07 21.15 11.73C21.15 13.95 20.54 16.71 18.58 18.67C16.68 20.65 14.24 21.71 11.01 21.71C5.03 21.71 0 16.84 0 10.85C0 4.87 5.03 0 11.01 0C14.32 0 16.68 1.29 18.45 2.99L16.36 5.08C15.09 3.89 13.37 2.96 11.01 2.96C6.64 2.96 3.22 6.48 3.22 10.85C3.22 15.22 6.64 18.75 11.01 18.75C13.84 18.75 15.46 17.61 16.49 16.57C17.33 15.74 17.88 14.54 18.1 12.9L11.01 12.9Z" fill="#4285F4" fill-opacity="1.000000" fill-rule="nonzero"/>
</svg>
