<svg xmlns="http://www.w3.org/2000/svg" xmlns:xlink="http://www.w3.org/1999/xlink" width="360.213" height="225.336" viewBox="0 0 360.213 225.336">
  <defs>
    <clipPath id="clip-path">
      <rect id="Rectangle_1188" data-name="Rectangle 1188" width="360.213" height="225.336" rx="33" transform="translate(0 -1)" fill="none"/>
    </clipPath>
  </defs>
  <g id="Group_232" data-name="Group 232" transform="translate(0 1)">
    <g id="Group_231" data-name="Group 231" transform="translate(0 0)" clip-path="url(#clip-path)">
      <path id="Path_385" data-name="Path 385" d="M97.911,60.12A5.682,5.682,0,0,0,92.322,66l11.714-.15a5.884,5.884,0,0,0-6.125-5.735" transform="translate(244.481 159.197)" fill="#1a1818" fill-rule="evenodd"/>
      <path id="Path_386" data-name="Path 386" d="M91.462,60.123a5.727,5.727,0,0,0-5.589,5.939l11.649-.427a5.858,5.858,0,0,0-6.06-5.512" transform="translate(227.402 159.208)" fill="#1a1818" fill-rule="evenodd"/>
      <path id="Path_387" data-name="Path 387" d="M98.053,65.222a5.772,5.772,0,1,0,.08-11.543,5.737,5.737,0,0,0-5.8,5.717,5.814,5.814,0,0,0,5.72,5.826" transform="translate(244.513 142.15)" fill="#1a1818" fill-rule="evenodd"/>
      <path id="Path_388" data-name="Path 388" d="M85.144,60.125a5.737,5.737,0,0,0-5.72,5.837l11.612-.117a5.866,5.866,0,0,0-5.892-5.72" transform="translate(210.328 159.22)" fill="#1a1818" fill-rule="evenodd"/>
      <path id="Path_389" data-name="Path 389" d="M101.381,56.9a5.715,5.715,0,0,0-5.826,5.717,5.847,5.847,0,0,0,5.728,5.884,5.959,5.959,0,0,0,5.884-5.775,5.834,5.834,0,0,0-5.786-5.826" transform="translate(253.045 150.683)" fill="#1a1818" fill-rule="evenodd"/>
      <path id="Path_390" data-name="Path 390" d="M94.8,56.9A5.719,5.719,0,0,0,89.1,62.762a5.838,5.838,0,0,0,5.863,5.746,5.933,5.933,0,0,0,5.746-5.91A5.85,5.85,0,0,0,94.8,56.9" transform="translate(235.959 150.677)" fill="#1a1818" fill-rule="evenodd"/>
      <path id="Path_391" data-name="Path 391" d="M88.424,56.906a5.717,5.717,0,0,0-5.768,5.742,5.77,5.77,0,1,0,5.768-5.742" transform="translate(218.887 150.696)" fill="#1a1818" fill-rule="evenodd"/>
      <path id="Path_392" data-name="Path 392" d="M82.041,56.911a5.737,5.737,0,1,0,5.64,5.906,5.739,5.739,0,0,0-5.64-5.906" transform="translate(201.811 150.706)" fill="#1a1818" fill-rule="evenodd"/>
      <path id="Path_393" data-name="Path 393" d="M95.112,61.923a5.737,5.737,0,1,0-6-5.549,5.705,5.705,0,0,0,6,5.549" transform="translate(235.985 133.615)" fill="#1a1818" fill-rule="evenodd"/>
      <path id="Path_394" data-name="Path 394" d="M101.2,61.937a5.742,5.742,0,1,0-5.629-5.921,5.737,5.737,0,0,0,5.629,5.921" transform="translate(253.075 133.615)" fill="#1a1818" fill-rule="evenodd"/>
      <path id="Path_395" data-name="Path 395" d="M91.641,65.157a5.737,5.737,0,1,0-5.753-5.793,5.735,5.735,0,0,0,5.753,5.793" transform="translate(227.445 142.161)" fill="#1a1818" fill-rule="evenodd"/>
      <path id="Path_396" data-name="Path 396" d="M85.352,65.157a5.738,5.738,0,1,0-5.914-5.622,5.722,5.722,0,0,0,5.914,5.622" transform="translate(210.361 142.161)" fill="#1a1818" fill-rule="evenodd"/>
      <path id="Path_397" data-name="Path 397" d="M72.375,60.137a5.735,5.735,0,0,0-5.844,5.695l11.459.226a5.736,5.736,0,0,0-5.614-5.921" transform="translate(176.185 159.249)" fill="#1a1818" fill-rule="evenodd"/>
      <path id="Path_398" data-name="Path 398" d="M78.785,60.136a5.725,5.725,0,0,0-5.8,5.735l11.455.146a5.737,5.737,0,0,0-5.655-5.881" transform="translate(193.274 159.25)" fill="#1a1818" fill-rule="evenodd"/>
      <path id="Path_399" data-name="Path 399" d="M75.469,56.918A5.694,5.694,0,1,0,75.775,68.3a5.62,5.62,0,0,0,5.385-5.833,5.678,5.678,0,0,0-5.691-5.545" transform="translate(184.74 150.728)" fill="#1a1818" fill-rule="evenodd"/>
      <path id="Path_400" data-name="Path 400" d="M88.337,61.861a5.631,5.631,0,0,0,5.731-5.793,5.7,5.7,0,1,0-5.731,5.793" transform="translate(218.916 133.637)" fill="#1a1818" fill-rule="evenodd"/>
      <path id="Path_401" data-name="Path 401" d="M78.951,65.018a5.537,5.537,0,0,0,5.381-5.75,5.66,5.66,0,0,0-5.622-5.574A5.769,5.769,0,0,0,72.994,59.5a5.648,5.648,0,0,0,5.957,5.516" transform="translate(193.297 142.19)" fill="#1a1818" fill-rule="evenodd"/>
      <path id="Path_402" data-name="Path 402" d="M97.764,58.568a5.53,5.53,0,0,0,5.914-5.494,5.648,5.648,0,0,0-5.345-5.826,5.766,5.766,0,0,0-5.979,5.545,5.642,5.642,0,0,0,5.41,5.775" transform="translate(244.562 125.102)" fill="#1a1818" fill-rule="evenodd"/>
      <path id="Path_403" data-name="Path 403" d="M91.686,58.515a5.486,5.486,0,0,0,5.483-5.932,5.6,5.6,0,0,0-5.852-5.326,5.765,5.765,0,0,0-5.41,5.837,5.613,5.613,0,0,0,5.779,5.421" transform="translate(227.489 125.122)" fill="#1a1818" fill-rule="evenodd"/>
      <path id="Path_404" data-name="Path 404" d="M65.711,60.154A5.76,5.76,0,0,0,60.1,65.791l11.262.2a5.612,5.612,0,0,0-5.647-5.833" transform="translate(159.144 159.297)" fill="#1a1818" fill-rule="evenodd"/>
      <path id="Path_405" data-name="Path 405" d="M68.914,56.934a5.773,5.773,0,0,0-5.585,5.706,5.587,5.587,0,0,0,5.7,5.505,5.437,5.437,0,0,0,5.516-5.629,5.589,5.589,0,0,0-5.629-5.582" transform="translate(167.703 150.77)" fill="#1a1818" fill-rule="evenodd"/>
      <path id="Path_406" data-name="Path 406" d="M81.926,61.746a5.472,5.472,0,0,0,5.563-5.852,5.62,5.62,0,0,0-5.775-5.418,5.785,5.785,0,0,0-5.487,5.768,5.617,5.617,0,0,0,5.7,5.5" transform="translate(201.861 133.664)" fill="#1a1818" fill-rule="evenodd"/>
      <path id="Path_407" data-name="Path 407" d="M72.161,64.877a5.413,5.413,0,0,0,5.56-5.52,5.574,5.574,0,0,0-5.512-5.644,5.783,5.783,0,0,0-5.647,5.593,5.579,5.579,0,0,0,5.6,5.571" transform="translate(176.264 142.243)" fill="#1a1818" fill-rule="evenodd"/>
      <path id="Path_408" data-name="Path 408" d="M101.4,55.2a5.433,5.433,0,0,0,5.366-5.728,5.6,5.6,0,0,0-5.731-5.439A5.8,5.8,0,0,0,95.6,49.848a5.586,5.586,0,0,0,5.8,5.356" transform="translate(253.154 116.606)" fill="#1a1818" fill-rule="evenodd"/>
      <path id="Path_409" data-name="Path 409" d="M85.12,58.38a5.438,5.438,0,0,0,5.472-5.647,5.572,5.572,0,0,0-5.728-5.458,5.761,5.761,0,0,0-5.392,5.563A5.567,5.567,0,0,0,85.12,58.38" transform="translate(210.458 125.177)" fill="#1a1818" fill-rule="evenodd"/>
      <path id="Path_410" data-name="Path 410" d="M94.667,55.111a5.441,5.441,0,0,0,5.556-5.224,5.558,5.558,0,0,0-5.283-5.83,5.712,5.712,0,0,0-5.779,5.425,5.563,5.563,0,0,0,5.505,5.629" transform="translate(236.109 116.659)" fill="#1a1818" fill-rule="evenodd"/>
      <path id="Path_411" data-name="Path 411" d="M75.228,61.513A5.428,5.428,0,0,0,80.8,56.286a5.512,5.512,0,0,0-5.359-5.768,5.613,5.613,0,0,0-5.622,5.567,5.518,5.518,0,0,0,5.41,5.428" transform="translate(184.889 133.776)" fill="#1a1818" fill-rule="evenodd"/>
      <path id="Path_412" data-name="Path 412" d="M78.411,58.161a5.42,5.42,0,1,0,.164-10.839,5.42,5.42,0,1,0-.164,10.839" transform="translate(193.501 125.316)" fill="#1a1818" fill-rule="evenodd"/>
      <path id="Path_413" data-name="Path 413" d="M59.028,60.224a5.385,5.385,0,0,0-5.312,5.534l10.846-.212a5.445,5.445,0,0,0-5.534-5.323" transform="translate(142.245 159.48)" fill="#1a1818" fill-rule="evenodd"/>
      <path id="Path_414" data-name="Path 414" d="M88.233,54.939a5.423,5.423,0,1,0-5.483-5.363,5.436,5.436,0,0,0,5.483,5.363" transform="translate(219.135 116.765)" fill="#1a1818" fill-rule="evenodd"/>
      <path id="Path_415" data-name="Path 415" d="M62.442,57.015a5.273,5.273,0,0,0-5.487,5.246,5.388,5.388,0,0,0,5.25,5.52A5.458,5.458,0,0,0,67.728,62.5a5.373,5.373,0,0,0-5.286-5.487" transform="translate(150.823 150.981)" fill="#1a1818" fill-rule="evenodd"/>
      <path id="Path_416" data-name="Path 416" d="M97.921,51.608a5.475,5.475,0,0,0,5.235-5.3,5.352,5.352,0,0,0-5.37-5.414,5.208,5.208,0,0,0-5.33,5.4,5.358,5.358,0,0,0,5.465,5.315" transform="translate(244.839 108.291)" fill="#1a1818" fill-rule="evenodd"/>
      <path id="Path_417" data-name="Path 417" d="M65.5,64.5A5.45,5.45,0,0,0,70.9,59.075,5.349,5.349,0,0,0,65.387,53.8,5.212,5.212,0,0,0,60.2,59.323,5.334,5.334,0,0,0,65.5,64.5" transform="translate(159.402 142.467)" fill="#1a1818" fill-rule="evenodd"/>
      <path id="Path_418" data-name="Path 418" d="M68.63,61.182a5.477,5.477,0,0,0,5.4-5.41A5.314,5.314,0,0,0,68.466,50.6a5.12,5.12,0,0,0-5.027,5.33,5.308,5.308,0,0,0,5.191,5.257" transform="translate(167.994 133.976)" fill="#1a1818" fill-rule="evenodd"/>
      <path id="Path_419" data-name="Path 419" d="M91.145,51.5A5.472,5.472,0,0,0,96.6,46.154a5.3,5.3,0,0,0-5.49-5.239,5.113,5.113,0,0,0-5.089,5.264A5.3,5.3,0,0,0,91.145,51.5" transform="translate(227.803 108.345)" fill="#1a1818" fill-rule="evenodd"/>
      <path id="Path_420" data-name="Path 420" d="M81.6,54.728a5.487,5.487,0,0,0,5.341-5.188,5.307,5.307,0,0,0-5.33-5.4,5.117,5.117,0,0,0-5.264,5.1A5.311,5.311,0,0,0,81.6,54.728" transform="translate(202.165 116.892)" fill="#1a1818" fill-rule="evenodd"/>
      <path id="Path_421" data-name="Path 421" d="M71.82,57.862a5.426,5.426,0,0,0,5.345-5.2,5.28,5.28,0,0,0-5.206-5.286,5.142,5.142,0,0,0-5.283,5.137,5.27,5.27,0,0,0,5.144,5.348" transform="translate(176.569 125.462)" fill="#1a1818" fill-rule="evenodd"/>
      <path id="Path_422" data-name="Path 422" d="M84.787,51.343a5.347,5.347,0,0,0,5.221-5.25,5.246,5.246,0,0,0-5.268-5.162,5.149,5.149,0,0,0-5.151,5.21,5.232,5.232,0,0,0,5.2,5.2" transform="translate(210.762 108.392)" fill="#1a1818" fill-rule="evenodd"/>
      <path id="Path_423" data-name="Path 423" d="M100.825,48.121a5.355,5.355,0,0,0,5.315-5.159,5.231,5.231,0,0,0-5.151-5.257,5.157,5.157,0,0,0-5.272,5.1,5.251,5.251,0,0,0,5.107,5.315" transform="translate(253.474 99.848)" fill="#1a1818" fill-rule="evenodd"/>
      <path id="Path_424" data-name="Path 424" d="M55.7,57.068a5.171,5.171,0,1,0,.179,10.339A5.234,5.234,0,0,0,60.9,62.285,5.17,5.17,0,0,0,55.7,57.068" transform="translate(133.883 151.125)" fill="#1a1818" fill-rule="evenodd"/>
      <path id="Path_425" data-name="Path 425" d="M52.459,60.294a5.157,5.157,0,0,0-5.126,5.268L57.669,65.5a5.189,5.189,0,0,0-5.21-5.206" transform="translate(125.345 159.668)" fill="#1a1818" fill-rule="evenodd"/>
      <path id="Path_426" data-name="Path 426" d="M74.977,54.434a5.134,5.134,0,0,0,.164-10.266,5.134,5.134,0,1,0-.164,10.266" transform="translate(185.16 116.964)" fill="#1a1818" fill-rule="evenodd"/>
      <path id="Path_427" data-name="Path 427" d="M94.449,47.971a5.128,5.128,0,0,0-.069-10.255,5.128,5.128,0,1,0,.069,10.255" transform="translate(236.421 99.878)" fill="#1a1818" fill-rule="evenodd"/>
      <path id="Path_428" data-name="Path 428" d="M58.833,64.114A5.134,5.134,0,0,0,59,53.848a5.134,5.134,0,0,0-.171,10.266" transform="translate(142.447 142.598)" fill="#1a1818" fill-rule="evenodd"/>
      <path id="Path_429" data-name="Path 429" d="M62.109,60.8a4.967,4.967,0,0,0,5.089-4.98A5.061,5.061,0,0,0,62,50.631a5.165,5.165,0,0,0-4.976,5.159A5.049,5.049,0,0,0,62.109,60.8" transform="translate(151.006 134.072)" fill="#1a1818" fill-rule="evenodd"/>
      <path id="Path_430" data-name="Path 430" d="M65.226,57.46a4.843,4.843,0,0,0,5.086-4.885,5.006,5.006,0,0,0-4.889-5.159,5.177,5.177,0,0,0-5.162,4.954,5.022,5.022,0,0,0,4.965,5.089" transform="translate(159.578 125.564)" fill="#1a1818" fill-rule="evenodd"/>
      <path id="Path_431" data-name="Path 431" d="M87.923,47.79a4.85,4.85,0,0,0,4.969-5.009,5.018,5.018,0,0,0-5.009-5.045,5.172,5.172,0,0,0-5.038,5.082,5.02,5.02,0,0,0,5.078,4.972" transform="translate(219.387 99.931)" fill="#1a1818" fill-rule="evenodd"/>
      <path id="Path_432" data-name="Path 432" d="M78.215,51.005a4.827,4.827,0,0,0,5-4.972,5.007,5.007,0,0,0-4.972-5.071,5.182,5.182,0,0,0-5.075,5.045,5.005,5.005,0,0,0,5.049,5" transform="translate(193.756 108.474)" fill="#1a1818" fill-rule="evenodd"/>
      <path id="Path_433" data-name="Path 433" d="M97.81,44.468a4.849,4.849,0,0,0,4.666-4.972,5.027,5.027,0,0,0-5.053-4.969,5.157,5.157,0,0,0-4.878,5.2,5.01,5.01,0,0,0,5.264,4.739" transform="translate(245.063 91.426)" fill="#1a1818" fill-rule="evenodd"/>
      <path id="Path_434" data-name="Path 434" d="M68.556,54.142a4.838,4.838,0,0,0,4.885-5.056A5.01,5.01,0,0,0,68.618,44.2,5.174,5.174,0,0,0,63.5,49.181a5.005,5.005,0,0,0,5.053,4.962" transform="translate(168.166 117.058)" fill="#1a1818" fill-rule="evenodd"/>
      <path id="Path_435" data-name="Path 435" d="M81.7,47.634a4.868,4.868,0,0,0,4.6-5.067,4.994,4.994,0,0,0-4.929-4.8,5.094,5.094,0,0,0-4.94,5.137A4.982,4.982,0,0,0,81.7,47.634" transform="translate(202.375 100)" fill="#1a1818" fill-rule="evenodd"/>
      <path id="Path_436" data-name="Path 436" d="M90.859,44.346a4.874,4.874,0,0,0,5.056-4.626,4.944,4.944,0,0,0-4.852-5.169,5.011,5.011,0,0,0-4.951,4.816,4.941,4.941,0,0,0,4.746,4.98" transform="translate(228.038 91.496)" fill="#1a1818" fill-rule="evenodd"/>
      <path id="Path_437" data-name="Path 437" d="M49.158,57.153a4.857,4.857,0,1,0,4.754,4.954,4.879,4.879,0,0,0-4.754-4.954" transform="translate(117.009 151.346)" fill="#1a1818" fill-rule="evenodd"/>
      <path id="Path_438" data-name="Path 438" d="M71.571,50.743a4.862,4.862,0,1,0-4.8-4.932,4.873,4.873,0,0,0,4.8,4.932" transform="translate(176.818 108.627)" fill="#1a1818" fill-rule="evenodd"/>
      <path id="Path_439" data-name="Path 439" d="M45.624,60.384a4.853,4.853,0,0,0-4.659,5.06l9.715-.412a4.858,4.858,0,0,0-5.056-4.648" transform="translate(108.471 159.892)" fill="#1a1818" fill-rule="evenodd"/>
      <path id="Path_440" data-name="Path 440" d="M52.363,63.642a4.86,4.86,0,1,0-4.947-4.754,4.859,4.859,0,0,0,4.947,4.754" transform="translate(125.562 142.796)" fill="#1a1818" fill-rule="evenodd"/>
      <path id="Path_441" data-name="Path 441" d="M55.424,60.338a4.88,4.88,0,0,0,4.859-4.867,4.78,4.78,0,0,0-4.648-4.75A4.723,4.723,0,0,0,50.66,55.4a4.8,4.8,0,0,0,4.765,4.936" transform="translate(134.153 134.309)" fill="#1a1818" fill-rule="evenodd"/>
      <path id="Path_442" data-name="Path 442" d="M84.425,44.143a4.874,4.874,0,0,0,4.837-4.837,4.744,4.744,0,0,0-4.626-4.7,4.654,4.654,0,0,0-4.929,4.637,4.76,4.76,0,0,0,4.717,4.9" transform="translate(211.077 91.626)" fill="#1a1818" fill-rule="evenodd"/>
      <path id="Path_443" data-name="Path 443" d="M100.4,40.915a4.9,4.9,0,0,0,4.991-4.681,4.748,4.748,0,0,0-4.765-4.859,4.634,4.634,0,0,0-4.786,4.783,4.751,4.751,0,0,0,4.56,4.757" transform="translate(253.8 83.086)" fill="#1a1818" fill-rule="evenodd"/>
      <path id="Path_444" data-name="Path 444" d="M58.592,57.055a4.886,4.886,0,0,0,4.852-4.819,4.77,4.77,0,0,0-4.9-4.732A4.634,4.634,0,0,0,53.9,52.429a4.739,4.739,0,0,0,4.688,4.626" transform="translate(142.739 125.798)" fill="#1a1818" fill-rule="evenodd"/>
      <path id="Path_445" data-name="Path 445" d="M74.866,47.319a4.893,4.893,0,0,0,4.648-4.75,4.728,4.728,0,0,0-4.9-4.732,4.584,4.584,0,0,0-4.568,4.976,4.709,4.709,0,0,0,4.816,4.505" transform="translate(185.485 100.198)" fill="#1a1818" fill-rule="evenodd"/>
      <path id="Path_446" data-name="Path 446" d="M61.964,53.767a4.886,4.886,0,0,0,4.655-4.732,4.734,4.734,0,0,0-4.881-4.746,4.606,4.606,0,0,0-4.6,4.684,4.723,4.723,0,0,0,4.83,4.794" transform="translate(151.3 117.281)" fill="#1a1818" fill-rule="evenodd"/>
      <path id="Path_447" data-name="Path 447" d="M64.891,50.441a4.882,4.882,0,0,0,4.845-4.6,4.684,4.684,0,0,0-4.586-4.761A4.531,4.531,0,0,0,60.382,45.6a4.7,4.7,0,0,0,4.509,4.845" transform="translate(159.898 108.79)" fill="#1a1818" fill-rule="evenodd"/>
      <path id="Path_448" data-name="Path 448" d="M93.935,40.814A4.889,4.889,0,0,0,98.827,36a4.711,4.711,0,0,0-4.746-4.6A4.543,4.543,0,0,0,89.407,36a4.719,4.719,0,0,0,4.527,4.816" transform="translate(236.764 83.136)" fill="#1a1818" fill-rule="evenodd"/>
      <path id="Path_449" data-name="Path 449" d="M77.924,43.921a4.807,4.807,0,0,0,4.666-4.692,4.675,4.675,0,0,0-4.7-4.593,4.541,4.541,0,0,0-4.6,4.633,4.662,4.662,0,0,0,4.633,4.651" transform="translate(194.087 91.721)" fill="#1a1818" fill-rule="evenodd"/>
      <path id="Path_450" data-name="Path 450" d="M87.5,40.7a4.813,4.813,0,0,0,4.764-4.6,4.659,4.659,0,0,0-4.586-4.7,4.541,4.541,0,0,0-4.706,4.516A4.678,4.678,0,0,0,87.5,40.7" transform="translate(219.718 83.178)" fill="#1a1818" fill-rule="evenodd"/>
      <path id="Path_451" data-name="Path 451" d="M48.726,59.907a4.565,4.565,0,1,0-4.458-4.516,4.559,4.559,0,0,0,4.458,4.516" transform="translate(117.229 134.47)" fill="#1a1818" fill-rule="evenodd"/>
      <path id="Path_452" data-name="Path 452" d="M45.6,63.133a4.564,4.564,0,1,0-4.56-4.418,4.577,4.577,0,0,0,4.56,4.418" transform="translate(108.684 143.014)" fill="#1a1818" fill-rule="evenodd"/>
      <path id="Path_453" data-name="Path 453" d="M68.246,47a4.563,4.563,0,1,0-4.619-4.651A4.567,4.567,0,0,0,68.246,47" transform="translate(168.494 100.3)" fill="#1a1818" fill-rule="evenodd"/>
      <path id="Path_454" data-name="Path 454" d="M42.655,57.237a4.568,4.568,0,1,0,4.287,4.692,4.59,4.59,0,0,0-4.287-4.692" transform="translate(100.141 151.554)" fill="#1a1818" fill-rule="evenodd"/>
      <path id="Path_455" data-name="Path 455" d="M39.134,60.465A4.583,4.583,0,0,0,34.6,64.923l9.026.292a4.5,4.5,0,0,0-4.487-4.75" transform="translate(91.616 160.121)" fill="#1a1818" fill-rule="evenodd"/>
      <path id="Path_456" data-name="Path 456" d="M97.31,37.231a4.407,4.407,0,0,0,4.392-4.538,4.517,4.517,0,1,0-4.392,4.538" transform="translate(245.403 74.683)" fill="#1a1818" fill-rule="evenodd"/>
      <path id="Path_457" data-name="Path 457" d="M51.952,56.6a4.419,4.419,0,0,0,4.575-4.349,4.509,4.509,0,0,0-4.56-4.688,4.519,4.519,0,0,0-.015,9.036" transform="translate(125.79 125.949)" fill="#1a1818" fill-rule="evenodd"/>
      <path id="Path_458" data-name="Path 458" d="M90.844,37.109a4.283,4.283,0,0,0,4.272-4.546,4.457,4.457,0,0,0-4.538-4.345,4.608,4.608,0,0,0-4.345,4.619,4.454,4.454,0,0,0,4.611,4.272" transform="translate(228.353 74.718)" fill="#1a1818" fill-rule="evenodd"/>
      <path id="Path_459" data-name="Path 459" d="M81.048,40.389A4.335,4.335,0,0,0,85.5,35.923a4.465,4.465,0,0,0-4.465-4.487,4.586,4.586,0,0,0-4.487,4.513,4.463,4.463,0,0,0,4.5,4.44" transform="translate(202.706 83.247)" fill="#1a1818" fill-rule="evenodd"/>
      <path id="Path_460" data-name="Path 460" d="M71.351,43.556a4.272,4.272,0,0,0,4.4-4.414,4.44,4.44,0,0,0-4.4-4.473,4.583,4.583,0,0,0-4.469,4.48,4.444,4.444,0,0,0,4.476,4.407" transform="translate(177.096 91.809)" fill="#1a1818" fill-rule="evenodd"/>
      <path id="Path_461" data-name="Path 461" d="M55.156,53.294a4.331,4.331,0,0,0,4.531-4.374,4.455,4.455,0,0,0-4.367-4.578,4.586,4.586,0,0,0-4.586,4.425,4.485,4.485,0,0,0,4.422,4.527" transform="translate(134.351 117.421)" fill="#1a1818" fill-rule="evenodd"/>
      <path id="Path_462" data-name="Path 462" d="M58.45,49.945a4.242,4.242,0,0,0,4.341-4.163,4.421,4.421,0,0,0-4.239-4.651,4.594,4.594,0,0,0-4.575,4.389,4.41,4.41,0,0,0,4.473,4.425" transform="translate(142.939 108.917)" fill="#1a1818" fill-rule="evenodd"/>
      <path id="Path_463" data-name="Path 463" d="M61.416,46.6A4.287,4.287,0,0,0,65.9,42.548a4.356,4.356,0,0,0-4.261-4.619,4.491,4.491,0,0,0-4.414,4.254A4.373,4.373,0,0,0,61.416,46.6" transform="translate(151.542 100.442)" fill="#1a1818" fill-rule="evenodd"/>
      <path id="Path_464" data-name="Path 464" d="M84.291,36.934A4.286,4.286,0,0,0,88.5,32.582a4.384,4.384,0,0,0-4.279-4.334,4.5,4.5,0,0,0-4.4,4.56,4.373,4.373,0,0,0,4.476,4.126" transform="translate(211.349 74.805)" fill="#1a1818" fill-rule="evenodd"/>
      <path id="Path_465" data-name="Path 465" d="M74.523,40.159A4.278,4.278,0,0,0,78.8,35.587a4.365,4.365,0,0,0-4.487-4.108,4.484,4.484,0,0,0-4.181,4.473,4.357,4.357,0,0,0,4.389,4.206" transform="translate(185.723 83.35)" fill="#1a1818" fill-rule="evenodd"/>
      <path id="Path_466" data-name="Path 466" d="M100.134,33.7a4.294,4.294,0,0,0,4.487-4.06,4.369,4.369,0,0,0-4.276-4.619,4.512,4.512,0,0,0-4.4,4.261,4.373,4.373,0,0,0,4.192,4.418" transform="translate(254.066 66.265)" fill="#1a1818" fill-rule="evenodd"/>
      <path id="Path_467" data-name="Path 467" d="M93.853,33.556a4.3,4.3,0,0,0,4.166-4.425,4.248,4.248,0,1,0-4.166,4.425" transform="translate(237.08 66.36)" fill="#1a1818" fill-rule="evenodd"/>
      <path id="Path_468" data-name="Path 468" d="M64.648,43.244A4.3,4.3,0,0,0,68.993,39a4.254,4.254,0,1,0-4.345,4.239" transform="translate(160.178 91.986)" fill="#1a1818" fill-rule="evenodd"/>
      <path id="Path_469" data-name="Path 469" d="M42.01,59.293A4.3,4.3,0,0,0,46.318,55a4.189,4.189,0,0,0-4.429-4.111,4.078,4.078,0,0,0-3.962,4.236,4.174,4.174,0,0,0,4.082,4.166" transform="translate(100.437 134.756)" fill="#1a1818" fill-rule="evenodd"/>
      <path id="Path_470" data-name="Path 470" d="M77.575,36.7a4.291,4.291,0,0,0,4.236-4.349,4.174,4.174,0,0,0-4.505-4.035,4.054,4.054,0,0,0-3.889,4.3A4.175,4.175,0,0,0,77.575,36.7" transform="translate(194.414 74.958)" fill="#1a1818" fill-rule="evenodd"/>
      <path id="Path_471" data-name="Path 471" d="M38.9,62.519a4.279,4.279,0,0,0,4.184-4.1,4.176,4.176,0,0,0-4.239-4.3,4.081,4.081,0,0,0-4.148,4.06,4.187,4.187,0,0,0,4.2,4.345" transform="translate(91.887 143.302)" fill="#1a1818" fill-rule="evenodd"/>
      <path id="Path_472" data-name="Path 472" d="M45.211,56.065a4.279,4.279,0,0,0,4.33-4.254,4.184,4.184,0,0,0-4.389-4.148,4.073,4.073,0,0,0-4,4.206,4.181,4.181,0,0,0,4.06,4.2" transform="translate(108.975 126.212)" fill="#1a1818" fill-rule="evenodd"/>
      <path id="Path_473" data-name="Path 473" d="M48.508,52.778a4.3,4.3,0,0,0,4.2-4.338,4.156,4.156,0,0,0-4.473-3.984A3.964,3.964,0,0,0,44.4,48.718a4.156,4.156,0,0,0,4.111,4.06" transform="translate(117.561 117.708)" fill="#1a1818" fill-rule="evenodd"/>
      <path id="Path_474" data-name="Path 474" d="M35.36,57.358a3.978,3.978,0,0,0-3.871,4.236,4.137,4.137,0,0,0,4.082,4.082,4.289,4.289,0,0,0,4.228-4.3,4.162,4.162,0,0,0-4.44-4.017" transform="translate(83.384 151.878)" fill="#1a1818" fill-rule="evenodd"/>
      <path id="Path_475" data-name="Path 475" d="M87.3,33.411a4.309,4.309,0,0,0,4.126-4.1,4.163,4.163,0,0,0-4.254-4.214,3.991,3.991,0,0,0-4.068,4.042,4.171,4.171,0,0,0,4.2,4.276" transform="translate(220.078 66.45)" fill="#1a1818" fill-rule="evenodd"/>
      <path id="Path_476" data-name="Path 476" d="M32.11,60.588a3.98,3.98,0,0,0-3.849,4.243l8.325-.248a4.179,4.179,0,0,0-4.476-3.995" transform="translate(74.836 160.429)" fill="#1a1818" fill-rule="evenodd"/>
      <path id="Path_477" data-name="Path 477" d="M51.791,49.477a4.288,4.288,0,0,0,4.082-4.166,4.145,4.145,0,0,0-4.381-4.071,3.94,3.94,0,0,0-3.86,4.225,4.126,4.126,0,0,0,4.159,4.013" transform="translate(126.13 109.196)" fill="#1a1818" fill-rule="evenodd"/>
      <path id="Path_478" data-name="Path 478" d="M67.762,39.8a4.3,4.3,0,0,0,4.246-4.3,4.159,4.159,0,0,0-4.232-3.944,3.935,3.935,0,0,0-4.017,4.075,4.136,4.136,0,0,0,4,4.17" transform="translate(168.847 83.565)" fill="#1a1818" fill-rule="evenodd"/>
      <path id="Path_479" data-name="Path 479" d="M54.866,46.2a4.293,4.293,0,0,0,4.177-4.071,4.145,4.145,0,0,0-4.082-4.111,3.954,3.954,0,0,0-4.1,4.006,4.13,4.13,0,0,0,4,4.177" transform="translate(134.696 100.669)" fill="#1a1818" fill-rule="evenodd"/>
      <path id="Path_480" data-name="Path 480" d="M80.762,33.221a4.211,4.211,0,0,0,4.024-4.21,4.109,4.109,0,0,0-3.995-3.893,3.966,3.966,0,0,0-4.111,4.013,4.082,4.082,0,0,0,4.082,4.09" transform="translate(203.061 66.516)" fill="#1a1818" fill-rule="evenodd"/>
      <path id="Path_481" data-name="Path 481" d="M96.834,30a4.209,4.209,0,0,0,4.09-4.148,4.123,4.123,0,0,0-3.94-3.955,3.973,3.973,0,0,0-4.174,3.947A4.1,4.1,0,0,0,96.834,30" transform="translate(245.776 57.972)" fill="#1a1818" fill-rule="evenodd"/>
      <path id="Path_482" data-name="Path 482" d="M70.991,36.363A4.077,4.077,0,0,0,75.022,32.2a4.008,4.008,0,1,0-4.031,4.159" transform="translate(177.45 75.08)" fill="#1a1818" fill-rule="evenodd"/>
      <path id="Path_483" data-name="Path 483" d="M58.212,42.818a4.083,4.083,0,0,0,3.9-3.987,4.006,4.006,0,1,0-3.9,3.987" transform="translate(143.273 92.168)" fill="#1a1818" fill-rule="evenodd"/>
      <path id="Path_484" data-name="Path 484" d="M90.4,29.821a3.957,3.957,0,1,0-.259-7.909A4,4,0,0,0,86.375,26a3.945,3.945,0,0,0,4.02,3.82" transform="translate(228.731 58.011)" fill="#1a1818" fill-rule="evenodd"/>
      <path id="Path_485" data-name="Path 485" d="M61.333,39.4a3.793,3.793,0,0,0,3.823-3.933,3.9,3.9,0,0,0-3.947-3.871,4.032,4.032,0,0,0-3.863,4A3.872,3.872,0,0,0,61.333,39.4" transform="translate(151.859 83.663)" fill="#1a1818" fill-rule="evenodd"/>
      <path id="Path_486" data-name="Path 486" d="M74.2,32.865a3.716,3.716,0,0,0,3.783-3.944,3.825,3.825,0,0,0-3.725-3.769,4.017,4.017,0,0,0-4,3.863A3.855,3.855,0,0,0,74.2,32.865" transform="translate(186.055 66.605)" fill="#1a1818" fill-rule="evenodd"/>
      <path id="Path_487" data-name="Path 487" d="M38.9,55.456a3.706,3.706,0,0,0,3.579-4.133,3.848,3.848,0,0,0-3.9-3.59,4.028,4.028,0,0,0-3.8,4.06A3.837,3.837,0,0,0,38.9,55.456" transform="translate(92.077 126.401)" fill="#1a1818" fill-rule="evenodd"/>
      <path id="Path_488" data-name="Path 488" d="M84.1,29.638a3.7,3.7,0,0,0,3.557-3.863,3.852,3.852,0,0,0-3.936-3.849,4.027,4.027,0,0,0-3.779,4.09A3.836,3.836,0,0,0,84.1,29.638" transform="translate(211.686 58.056)" fill="#1a1818" fill-rule="evenodd"/>
      <path id="Path_489" data-name="Path 489" d="M35.525,58.616a3.64,3.64,0,0,0,3.685-3.732,3.845,3.845,0,0,0-3.889-3.914,4.057,4.057,0,0,0-3.769,3.82,3.838,3.838,0,0,0,3.973,3.827" transform="translate(83.555 134.97)" fill="#1a1818" fill-rule="evenodd"/>
      <path id="Path_490" data-name="Path 490" d="M32.277,61.845a3.629,3.629,0,0,0,3.7-3.721,3.848,3.848,0,0,0-3.863-3.929A4.087,4.087,0,0,0,28.326,58a3.84,3.84,0,0,0,3.951,3.842" transform="translate(75.009 143.514)" fill="#1a1818" fill-rule="evenodd"/>
      <path id="Path_491" data-name="Path 491" d="M99.894,26.355a3.672,3.672,0,0,0,3.827-3.612,3.828,3.828,0,0,0-3.747-4.035,4,4,0,0,0-3.893,3.969,3.823,3.823,0,0,0,3.812,3.677" transform="translate(254.434 49.541)" fill="#1a1818" fill-rule="evenodd"/>
      <path id="Path_492" data-name="Path 492" d="M41.939,52.17a3.648,3.648,0,0,0,3.721-3.71,3.842,3.842,0,0,0-3.849-3.944A4.091,4.091,0,0,0,38,48.306a3.854,3.854,0,0,0,3.936,3.863" transform="translate(100.635 117.882)" fill="#1a1818" fill-rule="evenodd"/>
      <path id="Path_493" data-name="Path 493" d="M45.218,48.931a3.634,3.634,0,0,0,3.663-3.754,3.831,3.831,0,0,0-3.9-3.885,4.054,4.054,0,0,0-3.747,3.842,3.835,3.835,0,0,0,3.987,3.8" transform="translate(109.184 109.34)" fill="#1a1818" fill-rule="evenodd"/>
      <path id="Path_494" data-name="Path 494" d="M48.254,45.648a3.648,3.648,0,0,0,3.783-3.637,3.807,3.807,0,0,0-3.564-3.929,3.938,3.938,0,0,0-4,3.845,3.823,3.823,0,0,0,3.783,3.721" transform="translate(117.766 100.833)" fill="#1a1818" fill-rule="evenodd"/>
      <path id="Path_495" data-name="Path 495" d="M29.089,57.436a3.957,3.957,0,0,0-3.977,3.882A3.812,3.812,0,0,0,28.928,65a3.641,3.641,0,0,0,3.758-3.663,3.813,3.813,0,0,0-3.6-3.9" transform="translate(66.5 152.092)" fill="#1a1818" fill-rule="evenodd"/>
      <path id="Path_496" data-name="Path 496" d="M64.566,35.97a3.649,3.649,0,0,0,3.6-3.823,3.813,3.813,0,0,0-3.747-3.75,3.984,3.984,0,0,0-3.816,4.042,3.806,3.806,0,0,0,3.958,3.531" transform="translate(160.482 75.197)" fill="#1a1818" fill-rule="evenodd"/>
      <path id="Path_497" data-name="Path 497" d="M93.384,26.221a3.656,3.656,0,0,0,3.75-3.677,3.76,3.76,0,0,0-3.67-3.809,3.877,3.877,0,0,0-3.812,3.728,3.8,3.8,0,0,0,3.732,3.758" transform="translate(237.413 49.613)" fill="#1a1818" fill-rule="evenodd"/>
      <path id="Path_498" data-name="Path 498" d="M25.546,60.675a3.874,3.874,0,0,0-3.641,3.889l7.486-.226a3.808,3.808,0,0,0-3.845-3.663" transform="translate(58.004 160.67)" fill="#1a1818" fill-rule="evenodd"/>
      <path id="Path_499" data-name="Path 499" d="M77.213,29.362a3.673,3.673,0,0,0,3.71-3.707,3.691,3.691,0,1,0-3.71,3.707" transform="translate(194.75 58.208)" fill="#1a1818" fill-rule="evenodd"/>
      <path id="Path_500" data-name="Path 500" d="M51.6,42.273a3.675,3.675,0,0,0,3.51-3.626,3.691,3.691,0,1,0-3.51,3.626" transform="translate(126.404 92.381)" fill="#1a1818" fill-rule="evenodd"/>
      <path id="Path_501" data-name="Path 501" d="M67.436,32.5a3.691,3.691,0,0,0,3.71-3.725,3.641,3.641,0,0,0-3.874-3.542,3.528,3.528,0,0,0-3.382,3.7A3.633,3.633,0,0,0,67.436,32.5" transform="translate(169.188 66.814)" fill="#1a1818" fill-rule="evenodd"/>
      <path id="Path_502" data-name="Path 502" d="M54.475,38.945a3.684,3.684,0,0,0,3.765-3.666,3.6,3.6,0,0,0-3.513-3.59,3.527,3.527,0,0,0-3.736,3.338,3.656,3.656,0,0,0,3.484,3.918" transform="translate(135.011 83.91)" fill="#1a1818" fill-rule="evenodd"/>
      <path id="Path_503" data-name="Path 503" d="M86.736,26.053a3.7,3.7,0,0,0,3.776-3.67,3.656,3.656,0,0,0-3.816-3.6,3.549,3.549,0,0,0-3.451,3.648,3.636,3.636,0,0,0,3.491,3.626" transform="translate(220.447 49.722)" fill="#1a1818" fill-rule="evenodd"/>
      <path id="Path_504" data-name="Path 504" d="M70.567,29.056a3.766,3.766,0,0,0,3.6-3.564,3.526,3.526,0,0,0-3.338-3.44,3.388,3.388,0,0,0-3.67,3.327,3.547,3.547,0,0,0,3.411,3.677" transform="translate(177.836 58.382)" fill="#1a1818" fill-rule="evenodd"/>
      <path id="Path_505" data-name="Path 505" d="M57.734,35.51a3.782,3.782,0,0,0,3.539-3.637A3.54,3.54,0,0,0,57.855,28.5a3.371,3.371,0,0,0-3.6,3.4,3.537,3.537,0,0,0,3.484,3.6" transform="translate(143.663 75.47)" fill="#1a1818" fill-rule="evenodd"/>
      <path id="Path_506" data-name="Path 506" d="M96.478,22.593a3.748,3.748,0,0,0,3.491-3.36A3.526,3.526,0,0,0,96.548,15.6a3.382,3.382,0,0,0-3.583,3.433,3.524,3.524,0,0,0,3.513,3.564" transform="translate(246.187 41.297)" fill="#1a1818" fill-rule="evenodd"/>
      <path id="Path_507" data-name="Path 507" d="M80.3,25.821a3.773,3.773,0,0,0,3.55-3.619,3.548,3.548,0,0,0-3.411-3.378,3.376,3.376,0,0,0-3.6,3.393,3.512,3.512,0,0,0,3.466,3.6" transform="translate(203.471 49.842)" fill="#1a1818" fill-rule="evenodd"/>
      <path id="Path_508" data-name="Path 508" d="M34.956,51.559a3.629,3.629,0,0,0,3.63-3.491,3.487,3.487,0,0,0-3.338-3.426,3.373,3.373,0,0,0-3.561,3.134,3.487,3.487,0,0,0,3.269,3.783" transform="translate(83.883 118.211)" fill="#1a1818" fill-rule="evenodd"/>
      <path id="Path_509" data-name="Path 509" d="M31.867,54.775a3.629,3.629,0,0,0,3.5-3.626,3.5,3.5,0,0,0-3.48-3.283,3.38,3.38,0,0,0-3.437,3.575,3.476,3.476,0,0,0,3.415,3.334" transform="translate(75.338 126.754)" fill="#1a1818" fill-rule="evenodd"/>
      <path id="Path_510" data-name="Path 510" d="M38.294,48.325a3.648,3.648,0,0,0,3.528-3.6,3.493,3.493,0,0,0-3.761-3.3A3.376,3.376,0,0,0,34.9,44.961a3.488,3.488,0,0,0,3.389,3.364" transform="translate(92.427 109.666)" fill="#1a1818" fill-rule="evenodd"/>
      <path id="Path_511" data-name="Path 511" d="M28.5,57.918a3.469,3.469,0,0,0,3.531-3.232,3.4,3.4,0,1,0-6.8-.244A3.449,3.449,0,0,0,28.5,57.918" transform="translate(66.813 135.318)" fill="#1a1818" fill-rule="evenodd"/>
      <path id="Path_512" data-name="Path 512" d="M89.949,22.425a3.475,3.475,0,0,0,3.4-3.371,3.428,3.428,0,0,0-3.593-3.44,3.384,3.384,0,0,0-3.221,3.491,3.43,3.43,0,0,0,3.418,3.32" transform="translate(229.145 41.337)" fill="#1a1818" fill-rule="evenodd"/>
      <path id="Path_513" data-name="Path 513" d="M60.962,32.084A3.4,3.4,0,1,0,57.5,28.826a3.433,3.433,0,0,0,3.466,3.258" transform="translate(152.252 66.974)" fill="#1a1818" fill-rule="evenodd"/>
      <path id="Path_514" data-name="Path 514" d="M41.73,44.992a3.4,3.4,0,0,0-.248-6.8,3.4,3.4,0,1,0,.248,6.8" transform="translate(100.99 101.146)" fill="#1a1818" fill-rule="evenodd"/>
      <path id="Path_515" data-name="Path 515" d="M25.374,61.008a3.225,3.225,0,0,0,3.313-3.327,3.326,3.326,0,0,0-3.334-3.345A3.411,3.411,0,0,0,22.014,57.7a3.319,3.319,0,0,0,3.36,3.305" transform="translate(58.297 143.888)" fill="#1a1818" fill-rule="evenodd"/>
      <path id="Path_516" data-name="Path 516" d="M44.807,41.649a3.229,3.229,0,0,0,3.24-3.4,3.349,3.349,0,0,0-3.418-3.269,3.4,3.4,0,0,0-3.254,3.44,3.3,3.3,0,0,0,3.433,3.232" transform="translate(109.562 92.621)" fill="#1a1818" fill-rule="evenodd"/>
      <path id="Path_517" data-name="Path 517" d="M64.057,28.572a3.017,3.017,0,0,0,3.167-3.079,3.253,3.253,0,0,0-3.218-3.4,3.438,3.438,0,0,0-3.254,3.444,3.279,3.279,0,0,0,3.305,3.035" transform="translate(160.87 58.505)" fill="#1a1818" fill-rule="evenodd"/>
      <path id="Path_518" data-name="Path 518" d="M48.024,38.328a3.134,3.134,0,0,0,3.163-3.418,3.3,3.3,0,0,0-3.214-3.148A3.417,3.417,0,0,0,44.606,35.1a3.285,3.285,0,0,0,3.418,3.232" transform="translate(118.124 84.108)" fill="#1a1818" fill-rule="evenodd"/>
      <path id="Path_519" data-name="Path 519" d="M73.682,25.431a3.12,3.12,0,0,0,3.3-3.276,3.284,3.284,0,0,0-3.05-3.294,3.43,3.43,0,0,0-3.513,3.185,3.3,3.3,0,0,0,3.261,3.386" transform="translate(186.476 49.932)" fill="#1a1818" fill-rule="evenodd"/>
      <path id="Path_520" data-name="Path 520" d="M83.327,22.205a3.127,3.127,0,0,0,3.338-3.258,3.3,3.3,0,0,0-3.032-3.313A3.412,3.412,0,0,0,80.1,18.794a3.293,3.293,0,0,0,3.225,3.411" transform="translate(212.109 41.385)" fill="#1a1818" fill-rule="evenodd"/>
      <path id="Path_521" data-name="Path 521" d="M99.5,18.893a3.033,3.033,0,0,0,3.214-3.032,3.262,3.262,0,0,0-3.17-3.448,3.46,3.46,0,0,0-3.3,3.4A3.276,3.276,0,0,0,99.5,18.893" transform="translate(254.85 32.874)" fill="#1a1818" fill-rule="evenodd"/>
      <path id="Path_522" data-name="Path 522" d="M18.81,60.808a3.518,3.518,0,0,0-3.229,3.181l6.479.186a3.264,3.264,0,0,0-3.251-3.367" transform="translate(41.261 161.026)" fill="#1a1818" fill-rule="evenodd"/>
      <path id="Path_523" data-name="Path 523" d="M22.371,57.579A3.419,3.419,0,0,0,18.8,60.695,3.3,3.3,0,0,0,22,64.15a3.134,3.134,0,0,0,3.375-3.214,3.3,3.3,0,0,0-3-3.356" transform="translate(49.775 152.452)" fill="#1a1818" fill-rule="evenodd"/>
      <path id="Path_524" data-name="Path 524" d="M51.049,34.96a3.071,3.071,0,0,0,3.207-3.05,3.25,3.25,0,0,0-2.984-3.349,3.424,3.424,0,0,0-3.415,3.269,3.232,3.232,0,0,0,3.192,3.13" transform="translate(126.733 75.622)" fill="#1a1818" fill-rule="evenodd"/>
      <path id="Path_525" data-name="Path 525" d="M92.955,18.744a3.088,3.088,0,0,0,3.152-3.094,3.189,3.189,0,0,0-3.083-3.207A3.335,3.335,0,0,0,89.817,15.6a3.2,3.2,0,0,0,3.137,3.148" transform="translate(237.85 32.953)" fill="#1a1818" fill-rule="evenodd"/>
      <path id="Path_526" data-name="Path 526" d="M76.831,21.872a3.088,3.088,0,1,0-3.123-3.126,3.112,3.112,0,0,0,3.123,3.126" transform="translate(195.191 41.566)" fill="#1a1818" fill-rule="evenodd"/>
      <path id="Path_527" data-name="Path 527" d="M54.219,31.539a3.133,3.133,0,0,0,3.072-2.948,3.082,3.082,0,1,0-3.072,2.948" transform="translate(135.398 67.202)" fill="#1a1818" fill-rule="evenodd"/>
      <path id="Path_528" data-name="Path 528" d="M67.242,25.088a3.084,3.084,0,0,0-.27-6.162,3.084,3.084,0,0,0,.27,6.162" transform="translate(169.579 50.112)" fill="#1a1818" fill-rule="evenodd"/>
      <path id="Path_529" data-name="Path 529" d="M57.329,28.111A3.164,3.164,0,0,0,60.313,25.1,2.96,2.96,0,0,0,57.3,22.2a2.761,2.761,0,0,0-2.9,2.94,2.936,2.936,0,0,0,2.926,2.973" transform="translate(144.068 58.781)" fill="#1a1818" fill-rule="evenodd"/>
      <path id="Path_530" data-name="Path 530" d="M86.36,18.527a3.144,3.144,0,0,0,3.1-3.207A3.03,3.03,0,0,0,86.32,12.5a2.872,2.872,0,0,0-2.9,3.013,2.988,2.988,0,0,0,2.94,3.013" transform="translate(220.907 33.101)" fill="#1a1818" fill-rule="evenodd"/>
      <path id="Path_531" data-name="Path 531" d="M25.105,53.92a3.143,3.143,0,0,0,2.948-3.035,2.96,2.96,0,0,0-3.046-2.878,2.767,2.767,0,0,0-2.867,2.973,2.932,2.932,0,0,0,2.966,2.94" transform="translate(58.627 127.127)" fill="#1a1818" fill-rule="evenodd"/>
      <path id="Path_532" data-name="Path 532" d="M28.245,50.711a3.159,3.159,0,0,0,3.046-2.951,2.944,2.944,0,0,0-2.951-2.981,2.763,2.763,0,0,0-2.977,2.878,2.96,2.96,0,0,0,2.882,3.054" transform="translate(67.165 118.581)" fill="#1a1818" fill-rule="evenodd"/>
      <path id="Path_533" data-name="Path 533" d="M31.472,47.476a3.141,3.141,0,0,0,3.039-2.962,2.922,2.922,0,0,0-2.951-2.959,2.749,2.749,0,0,0-2.97,2.875,2.959,2.959,0,0,0,2.882,3.046" transform="translate(75.711 110.044)" fill="#1a1818" fill-rule="evenodd"/>
      <path id="Path_534" data-name="Path 534" d="M38.109,41.018a3.157,3.157,0,0,0,2.853-3.126A3.007,3.007,0,0,0,37.817,35.1a2.779,2.779,0,0,0-2.769,3.075,2.952,2.952,0,0,0,3.061,2.842" transform="translate(92.802 92.946)" fill="#1a1818" fill-rule="evenodd"/>
      <path id="Path_535" data-name="Path 535" d="M34.641,44.256a3.159,3.159,0,0,0,3.1-2.9,2.953,2.953,0,0,0-2.9-3.021,2.745,2.745,0,0,0-3.028,2.816,2.975,2.975,0,0,0,2.824,3.108" transform="translate(84.256 101.499)" fill="#1a1818" fill-rule="evenodd"/>
      <path id="Path_536" data-name="Path 536" d="M70.054,21.579a3.155,3.155,0,0,0,3.09-2.878,2.936,2.936,0,0,0-2.959-2.944,2.747,2.747,0,0,0-2.867,2.951,2.975,2.975,0,0,0,2.736,2.871" transform="translate(178.266 41.727)" fill="#1a1818" fill-rule="evenodd"/>
      <path id="Path_537" data-name="Path 537" d="M21.871,57.068a3.171,3.171,0,0,0,2.893-3.094,2.984,2.984,0,0,0-2.893-2.729,2.74,2.74,0,0,0-2.948,2.875,2.925,2.925,0,0,0,2.948,2.948" transform="translate(50.111 135.704)" fill="#1a1818" fill-rule="evenodd"/>
      <path id="Path_538" data-name="Path 538" d="M41.295,37.708A3.157,3.157,0,0,0,44.1,34.549a2.941,2.941,0,0,0-2.937-2.66,2.741,2.741,0,0,0-2.886,2.933,2.944,2.944,0,0,0,3.013,2.886" transform="translate(101.374 84.447)" fill="#1a1818" fill-rule="evenodd"/>
      <path id="Path_539" data-name="Path 539" d="M95.855,15.031a3.071,3.071,0,0,0,3.006-2.915,2.908,2.908,0,0,0-2.765-2.8,2.776,2.776,0,0,0-2.951,2.557,2.945,2.945,0,0,0,2.711,3.156" transform="translate(246.638 24.668)" fill="#1a1818" fill-rule="evenodd"/>
      <path id="Path_540" data-name="Path 540" d="M18.538,60.21a3.077,3.077,0,0,0,2.9-3.028,2.956,2.956,0,0,0-3.185-2.692,2.779,2.779,0,0,0-2.543,2.97,2.932,2.932,0,0,0,2.827,2.751" transform="translate(41.595 144.269)" fill="#1a1818" fill-rule="evenodd"/>
      <path id="Path_541" data-name="Path 541" d="M44.415,34.268a2.794,2.794,0,1,0-.2-5.585,2.794,2.794,0,0,0,.2,5.585" transform="translate(109.972 75.95)" fill="#1a1818" fill-rule="evenodd"/>
      <path id="Path_542" data-name="Path 542" d="M79.744,18.275a3.1,3.1,0,0,0,2.981-3.032,2.927,2.927,0,0,0-2.944-2.7,2.752,2.752,0,0,0-2.773,2.816,2.937,2.937,0,0,0,2.736,2.919" transform="translate(203.93 33.207)" fill="#1a1818" fill-rule="evenodd"/>
      <path id="Path_543" data-name="Path 543" d="M60.438,24.575a2.777,2.777,0,0,0,2.805-2.787,2.793,2.793,0,1,0-2.805,2.787" transform="translate(152.688 50.325)" fill="#1a1818" fill-rule="evenodd"/>
      <path id="Path_544" data-name="Path 544" d="M47.536,30.886a2.558,2.558,0,0,0,2.645-2.506,2.7,2.7,0,0,0-2.572-2.911,2.844,2.844,0,0,0-2.842,2.7,2.7,2.7,0,0,0,2.769,2.722" transform="translate(118.547 67.442)" fill="#1a1818" fill-rule="evenodd"/>
      <path id="Path_545" data-name="Path 545" d="M15.242,57.727a2.838,2.838,0,0,0-2.74,2.809,2.689,2.689,0,0,0,2.882,2.623,2.56,2.56,0,0,0,2.554-2.623,2.714,2.714,0,0,0-2.7-2.809" transform="translate(33.107 152.87)" fill="#1a1818" fill-rule="evenodd"/>
      <path id="Path_546" data-name="Path 546" d="M89.411,14.784a2.637,2.637,0,0,0,2.754-2.743,2.734,2.734,0,0,0-2.532-2.7A2.831,2.831,0,0,0,86.7,11.964a2.737,2.737,0,0,0,2.707,2.82" transform="translate(229.599 24.718)" fill="#1a1818" fill-rule="evenodd"/>
      <path id="Path_547" data-name="Path 547" d="M73.195,17.89a2.48,2.48,0,0,0,2.7-2.463,2.648,2.648,0,0,0-2.667-2.853,2.912,2.912,0,0,0-2.641,2.681,2.66,2.66,0,0,0,2.608,2.634" transform="translate(186.923 33.294)" fill="#1a1818" fill-rule="evenodd"/>
      <path id="Path_548" data-name="Path 548" d="M50.75,27.484A2.473,2.473,0,0,0,53.23,24.82a2.649,2.649,0,0,0-2.66-2.554,2.885,2.885,0,0,0-2.55,2.74,2.625,2.625,0,0,0,2.729,2.477" transform="translate(127.164 58.959)" fill="#1a1818" fill-rule="evenodd"/>
      <path id="Path_549" data-name="Path 549" d="M63.663,21.034a2.468,2.468,0,0,0,2.481-2.66,2.645,2.645,0,0,0-2.67-2.561,2.886,2.886,0,0,0-2.55,2.751,2.632,2.632,0,0,0,2.74,2.47" transform="translate(161.331 41.871)" fill="#1a1818" fill-rule="evenodd"/>
      <path id="Path_550" data-name="Path 550" d="M11.974,60.98A2.92,2.92,0,0,0,9.3,63.614l5.231.029a2.644,2.644,0,0,0-2.557-2.663" transform="translate(24.628 161.485)" fill="#1a1818" fill-rule="evenodd"/>
      <path id="Path_551" data-name="Path 551" d="M82.86,14.583a2.471,2.471,0,0,0,2.645-2.5A2.64,2.64,0,0,0,83,9.362a2.882,2.882,0,0,0-2.718,2.576,2.639,2.639,0,0,0,2.579,2.645" transform="translate(212.591 24.791)" fill="#1a1818" fill-rule="evenodd"/>
      <path id="Path_552" data-name="Path 552" d="M99.09,11.241a2.493,2.493,0,0,0,2.43-2.379,2.554,2.554,0,0,0-2.452-2.7,2.715,2.715,0,0,0-2.634,2.565,2.588,2.588,0,0,0,2.656,2.514" transform="translate(255.373 16.317)" fill="#1a1818" fill-rule="evenodd"/>
      <path id="Path_553" data-name="Path 553" d="M31.18,40.146a2.523,2.523,0,0,0,2.441-2.7A2.473,2.473,0,0,0,31,35.236a2.364,2.364,0,0,0-2.276,2.528,2.465,2.465,0,0,0,2.455,2.382" transform="translate(76.061 93.3)" fill="#1a1818" fill-rule="evenodd"/>
      <path id="Path_554" data-name="Path 554" d="M24.716,46.6a2.53,2.53,0,0,0,2.466-2.689,2.488,2.488,0,0,0-2.619-2.229,2.382,2.382,0,0,0-2.295,2.521,2.492,2.492,0,0,0,2.448,2.4" transform="translate(58.966 110.383)" fill="#1a1818" fill-rule="evenodd"/>
      <path id="Path_555" data-name="Path 555" d="M27.826,43.378a2.532,2.532,0,0,0,2.594-2.565,2.483,2.483,0,0,0-2.5-2.357,2.372,2.372,0,0,0-2.433,2.393,2.5,2.5,0,0,0,2.335,2.528" transform="translate(67.504 101.84)" fill="#1a1818" fill-rule="evenodd"/>
      <path id="Path_556" data-name="Path 556" d="M92.346,10.993a2.543,2.543,0,0,0,2.463-2.364,2.376,2.376,0,0,0-2.364-2.4,2.212,2.212,0,0,0-2.4,2.295,2.4,2.4,0,0,0,2.3,2.473" transform="translate(238.459 16.481)" fill="#1a1818" fill-rule="evenodd"/>
      <path id="Path_557" data-name="Path 557" d="M34.326,36.8a2.54,2.54,0,0,0,2.415-2.415,2.4,2.4,0,0,0-2.433-2.353,2.195,2.195,0,0,0-2.331,2.353A2.379,2.379,0,0,0,34.326,36.8" transform="translate(84.678 84.826)" fill="#1a1818" fill-rule="evenodd"/>
      <path id="Path_558" data-name="Path 558" d="M76.224,14.224a2.563,2.563,0,0,0,2.463-2.368,2.4,2.4,0,0,0-2.368-2.408,2.216,2.216,0,0,0-2.4,2.3,2.4,2.4,0,0,0,2.309,2.473" transform="translate(195.739 25.019)" fill="#1a1818" fill-rule="evenodd"/>
      <path id="Path_559" data-name="Path 559" d="M53.783,23.9A2.572,2.572,0,0,0,56.111,21.4a2.441,2.441,0,0,0-2.51-2.273,2.217,2.217,0,0,0-2.269,2.448A2.394,2.394,0,0,0,53.783,23.9" transform="translate(135.929 50.645)" fill="#1a1818" fill-rule="evenodd"/>
      <path id="Path_560" data-name="Path 560" d="M21.516,49.71A2.582,2.582,0,0,0,23.844,47.2a2.446,2.446,0,0,0-2.521-2.258,2.2,2.2,0,0,0-2.251,2.452,2.393,2.393,0,0,0,2.444,2.32" transform="translate(50.498 118.999)" fill="#1a1818" fill-rule="evenodd"/>
      <path id="Path_561" data-name="Path 561" d="M66.6,17.447a2.554,2.554,0,0,0,2.4-2.43,2.377,2.377,0,0,0-2.441-2.342,2.205,2.205,0,0,0-2.328,2.368,2.389,2.389,0,0,0,2.368,2.4" transform="translate(170.11 33.565)" fill="#1a1818" fill-rule="evenodd"/>
      <path id="Path_562" data-name="Path 562" d="M18.037,52.847a2.6,2.6,0,0,0,2.477-2.4,2.378,2.378,0,0,0-2.55-2.258,2.178,2.178,0,0,0-2.1,2.328,2.383,2.383,0,0,0,2.178,2.335" transform="translate(41.997 127.584)" fill="#1a1818" fill-rule="evenodd"/>
      <path id="Path_563" data-name="Path 563" d="M37.583,33.461a2.619,2.619,0,0,0,2.276-2.295,2.352,2.352,0,0,0-2.441-2.342,2.147,2.147,0,0,0-2.2,2.222,2.341,2.341,0,0,0,2.364,2.415" transform="translate(93.263 76.33)" fill="#1a1818" fill-rule="evenodd"/>
      <path id="Path_564" data-name="Path 564" d="M56.736,20.452a2.505,2.505,0,0,0,2.371-2.43,2.312,2.312,0,0,0-2.353-2.09,2.2,2.2,0,0,0-2.167,2.225,2.308,2.308,0,0,0,2.149,2.295" transform="translate(144.555 42.187)" fill="#1a1818" fill-rule="evenodd"/>
      <path id="Path_565" data-name="Path 565" d="M12.647,53.517a2.323,2.323,0,0,0,2.028,2.422,2.473,2.473,0,0,0,2.51-2.295,2.292,2.292,0,0,0-2.218-2.225,2.215,2.215,0,0,0-2.32,2.1" transform="translate(33.48 136.165)" fill="#1a1818" fill-rule="evenodd"/>
      <path id="Path_566" data-name="Path 566" d="M85.758,10.787a2.536,2.536,0,0,0,2.408-2.415,2.31,2.31,0,0,0-2.335-2.12,2.179,2.179,0,0,0-2.211,2.2,2.328,2.328,0,0,0,2.138,2.335" transform="translate(221.44 16.556)" fill="#1a1818" fill-rule="evenodd"/>
      <path id="Path_567" data-name="Path 567" d="M40.655,30.122a2.452,2.452,0,0,0,2.3-2.189,2.259,2.259,0,0,0-2.094-2.317,2.2,2.2,0,0,0-2.4,2.269,2.28,2.28,0,0,0,2.2,2.236" transform="translate(101.843 67.82)" fill="#1a1818" fill-rule="evenodd"/>
      <path id="Path_568" data-name="Path 568" d="M11.884,58.977a2.1,2.1,0,0,0,1.882-2.2,2.192,2.192,0,0,0-2.291-2.123A2.266,2.266,0,0,0,9.439,57.04a2.173,2.173,0,0,0,2.444,1.937" transform="translate(24.977 144.733)" fill="#1a1818" fill-rule="evenodd"/>
      <path id="Path_569" data-name="Path 569" d="M69.465,13.67a1.938,1.938,0,0,0,2.218-1.809A2.085,2.085,0,0,0,69.659,9.5a2.269,2.269,0,0,0-2.138,2.017,2.088,2.088,0,0,0,1.944,2.149" transform="translate(178.796 25.168)" fill="#1a1818" fill-rule="evenodd"/>
      <path id="Path_570" data-name="Path 570" d="M79.411,10.436a1.909,1.909,0,0,0,1.952-2.072,2.119,2.119,0,0,0-2.01-2.083A2.223,2.223,0,0,0,77.2,8.561a2.1,2.1,0,0,0,2.207,1.875" transform="translate(204.434 16.633)" fill="#1a1818" fill-rule="evenodd"/>
      <path id="Path_571" data-name="Path 571" d="M43.923,26.572A1.922,1.922,0,0,0,45.875,24.5a2.118,2.118,0,0,0-2.017-2.087A2.219,2.219,0,0,0,41.716,24.7a2.087,2.087,0,0,0,2.207,1.875" transform="translate(110.453 59.342)" fill="#1a1818" fill-rule="evenodd"/>
      <path id="Path_572" data-name="Path 572" d="M59.952,16.767a1.859,1.859,0,0,0,1.934-2.079,1.941,1.941,0,0,0-1.864-1.923,2.184,2.184,0,0,0-2.163,1.977,2.11,2.11,0,0,0,2.094,2.025" transform="translate(153.217 33.775)" fill="#1a1818" fill-rule="evenodd"/>
      <path id="Path_573" data-name="Path 573" d="M95.437,7.09a1.86,1.86,0,0,0,1.937-2.079,1.941,1.941,0,0,0-1.861-1.926,2.2,2.2,0,0,0-2.167,1.988,2.111,2.111,0,0,0,2.09,2.017" transform="translate(247.195 8.141)" fill="#1a1818" fill-rule="evenodd"/>
      <path id="Path_574" data-name="Path 574" d="M8.407,57.933A2.188,2.188,0,0,0,6.236,59.91a2.131,2.131,0,0,0,2.09,2.028,1.871,1.871,0,0,0,1.944-2.087,1.945,1.945,0,0,0-1.864-1.919" transform="translate(16.514 153.383)" fill="#1a1818" fill-rule="evenodd"/>
      <path id="Path_575" data-name="Path 575" d="M47.2,23.1a1.777,1.777,0,0,0,1.66-2.021,1.871,1.871,0,0,0-1.886-1.846A2.049,2.049,0,0,0,44.982,21.3,1.972,1.972,0,0,0,47.2,23.1" transform="translate(119.112 50.92)" fill="#1a1818" fill-rule="evenodd"/>
      <path id="Path_576" data-name="Path 576" d="M89.325,6.812c.343-.518,1.12-1.2,1.218-1.966.15-1.113-.748-1.729-1.85-1.693a1.611,1.611,0,0,0-1.718,1.868c.066,1.124.733,1.726,2.349,1.791" transform="translate(230.317 8.346)" fill="#1a1818" fill-rule="evenodd"/>
      <path id="Path_577" data-name="Path 577" d="M4.933,61.228a1.688,1.688,0,0,0-1.839,1.8l3.612-.2a1.712,1.712,0,0,0-1.773-1.605" transform="translate(8.193 162.134)" fill="#1a1818" fill-rule="evenodd"/>
      <path id="Path_578" data-name="Path 578" d="M74.818,7.986a1.654,1.654,0,0,0-2.028-1.514c-.657.241-1.146.967-2.1,1.817a9.775,9.775,0,0,0,2.349,1.547c.857.208,1.839-.941,1.78-1.85" transform="translate(187.194 16.942)" fill="#1a1818" fill-rule="evenodd"/>
      <path id="Path_579" data-name="Path 579" d="M65.127,11.306a1.636,1.636,0,0,0-1.912-1.627c-.675.2-1.208.883-2.2,1.66a10.454,10.454,0,0,0,2.236,1.711c.839.274,1.879-.828,1.879-1.744" transform="translate(161.57 25.496)" fill="#1a1818" fill-rule="evenodd"/>
      <path id="Path_580" data-name="Path 580" d="M21.329,42.16c.358-.456,1.164-1.076,1.328-1.839.186-.9-.551-1.594-1.576-1.653a1.546,1.546,0,0,0-1.817,1.441c-.157,1,.62,1.974,2.065,2.05" transform="translate(50.963 102.39)" fill="#1a1818" fill-rule="evenodd"/>
      <path id="Path_581" data-name="Path 581" d="M17.71,45.827c.916-.007,2.01-1.058,1.737-1.886a10.18,10.18,0,0,0-1.737-2.229c-.77,1-1.445,1.54-1.638,2.214a1.63,1.63,0,0,0,1.638,1.9" transform="translate(42.43 110.46)" fill="#1a1818" fill-rule="evenodd"/>
      <path id="Path_582" data-name="Path 582" d="M26.427,37.06A1.665,1.665,0,0,0,24.443,35.5c-.675.23-1.175.941-2.149,1.769a9.683,9.683,0,0,0,2.309,1.6c.868.244,1.857-.883,1.824-1.806" transform="translate(59.038 93.832)" fill="#1a1818" fill-rule="evenodd"/>
      <path id="Path_583" data-name="Path 583" d="M49.779,19.487c.773-.073,1.467-.839,2.663-1.6-1.051-.828-1.583-1.532-2.273-1.74a1.505,1.505,0,0,0-1.886,1.6c-.015,1.036.6,1.831,1.5,1.74" transform="translate(127.861 42.572)" fill="#1a1818" fill-rule="evenodd"/>
      <path id="Path_584" data-name="Path 584" d="M27.515,36.369c.755-1.2,1.518-1.9,1.6-2.66.084-.9-.708-1.518-1.747-1.5a1.514,1.514,0,0,0-1.6,1.89c.219.686.912,1.226,1.751,2.269" transform="translate(68.045 85.297)" fill="#1a1818" fill-rule="evenodd"/>
      <path id="Path_585" data-name="Path 585" d="M16.574,46.832c.058-.963-.5-1.788-1.507-1.675-.69.084-1.317.7-2.448,1.368,1.047.876,1.565,1.653,2.229,1.791a1.451,1.451,0,0,0,1.726-1.485" transform="translate(33.417 119.557)" fill="#1a1818" fill-rule="evenodd"/>
      <path id="Path_586" data-name="Path 586" d="M84.334,4.857c.033-.956-.533-1.766-1.54-1.638-.679.091-1.291.73-2.43,1.415,1.069.854,1.616,1.616,2.287,1.744a1.439,1.439,0,0,0,1.682-1.521" transform="translate(212.82 8.488)" fill="#1a1818" fill-rule="evenodd"/>
      <path id="Path_587" data-name="Path 587" d="M32.128,30.624a1.419,1.419,0,0,0-1.565-1.616c-1.021-.007-1.747.584-1.587,1.565.117.686.8,1.277,1.525,2.338.77-1.04,1.525-1.605,1.627-2.287" transform="translate(76.675 76.818)" fill="#1a1818" fill-rule="evenodd"/>
      <path id="Path_588" data-name="Path 588" d="M33.682,29.526a1.362,1.362,0,0,0,1.612-1.587c-.113-.679-.883-1.244-1.758-2.371-.682,1.211-1.375,1.9-1.335,2.55a2.134,2.134,0,0,0,1.481,1.408" transform="translate(85.27 67.708)" fill="#1a1818" fill-rule="evenodd"/>
      <path id="Path_589" data-name="Path 589" d="M99.581,1.565A2.131,2.131,0,0,0,98.329.041a1.28,1.28,0,0,0-1.583,1.488c.058.584.741,1.1,1.474,2.076.679-.963,1.4-1.529,1.361-2.039" transform="translate(256.163 -0.001)" fill="#1a1818" fill-rule="evenodd"/>
      <path id="Path_590" data-name="Path 590" d="M54.991,14.4c-.066-.989-.649-1.726-1.685-1.434-.584.168-1.036.868-1.926,1.667a8.139,8.139,0,0,0,2.233,1.2c.908.12,1.43-.562,1.379-1.434" transform="translate(136.06 34.154)" fill="#1a1818" fill-rule="evenodd"/>
      <path id="Path_591" data-name="Path 591" d="M13.05,49.882c-.066-.985-.649-1.718-1.667-1.434-.6.168-1.043.865-1.944,1.66a8.4,8.4,0,0,0,2.236,1.215c.89.12,1.426-.558,1.375-1.441" transform="translate(24.993 128.134)" fill="#1a1818" fill-rule="evenodd"/>
      <path id="Path_592" data-name="Path 592" d="M36.92,25.854c.292.08,1.2-.744,1.211-1.167.011-.591-.565-1.189-1.164-2.284-.762,1.029-1.54,1.612-1.5,2.134.036.5.854,1.138,1.456,1.317" transform="translate(93.911 59.326)" fill="#1a1818" fill-rule="evenodd"/>
      <path id="Path_593" data-name="Path 593" d="M40.037,22.375c.4-.452,1.08-.908,1.094-1.379.015-.445-.675-.923-1.324-1.726-.54.9-1.138,1.467-1.058,1.915s.824.8,1.288,1.189" transform="translate(102.595 51.03)" fill="#1a1818" fill-rule="evenodd"/>
      <path id="Path_594" data-name="Path 594" d="M92.761,1.359A1.724,1.724,0,0,0,91.644.089a1.719,1.719,0,0,0-1.277,1.12c-.084.434.536,1,1.069,1.89.657-.814,1.339-1.291,1.324-1.74" transform="translate(239.288 0.235)" fill="#1a1818" fill-rule="evenodd"/>
      <path id="Path_595" data-name="Path 595" d="M75.737,5.7c.482-.007.949-.675,1.419-1.047-.376-.467-.693-1.222-1.149-1.324-.43-.1-1.021.474-1.948.967.781.7,1.229,1.4,1.678,1.4" transform="translate(196.121 8.772)" fill="#1a1818" fill-rule="evenodd"/>
      <path id="Path_596" data-name="Path 596" d="M8.9,52.967c-.055-.478-.8-.868-1.237-1.3-.423.449-1.142.868-1.193,1.361-.055.438.627.952,1.259,1.8.58-.876,1.233-1.419,1.171-1.864" transform="translate(17.139 136.836)" fill="#1a1818" fill-rule="evenodd"/>
      <path id="Path_597" data-name="Path 597" d="M67.419,7.78a1.727,1.727,0,0,0-1.182-1.248c-.456-.047-1,.6-1.864,1.189.832.62,1.353,1.284,1.813,1.24A1.726,1.726,0,0,0,67.419,7.78" transform="translate(170.47 17.293)" fill="#1a1818" fill-rule="evenodd"/>
      <path id="Path_598" data-name="Path 598" d="M57.036,11.058c.1-.208-.591-.752-1.105-1.361-.467.591-1.032,1-1.011,1.361.026.438.569.839.883,1.251.441-.409,1.021-.744,1.233-1.251" transform="translate(145.437 25.679)" fill="#1a1818" fill-rule="evenodd"/>
      <path id="Path_599" data-name="Path 599" d="M86.422.935c-.434-.288-.865-.8-1.3-.8-.358-.011-.733.591-1.27,1.091.62.463,1.2,1.105,1.4,1.007.482-.252.788-.843,1.171-1.3" transform="translate(222.049 0.36)" fill="#1a1818" fill-rule="evenodd"/>
      <path id="Path_600" data-name="Path 600" d="M4.269,57.628c.4-.427,1.021-.814,1.146-1.31.095-.441-.368-1.011-.587-1.518-.259.157-.514.306-.781.463-.274.412-.788.85-.741,1.218.058.416.617.766.963,1.146" transform="translate(8.747 145.122)" fill="#1a1818" fill-rule="evenodd"/>
      <path id="Path_601" data-name="Path 601" d="M44.094,17.408c-.2-.471-.8-.788-1.24-1.16-.3.4-.846.792-.832,1.182s.558.8,1.018,1.379c.489-.617,1.149-1.16,1.054-1.4" transform="translate(111.281 43.027)" fill="#1a1818" fill-rule="evenodd"/>
      <path id="Path_602" data-name="Path 602" d="M69.947,4.4c-.343-.358-.624-.839-1.043-1-.19-.084-.628.485-1.153.916.529.4.883.854,1.2.846.347-.015.664-.485,1-.762" transform="translate(179.416 8.971)" fill="#1a1818" fill-rule="evenodd"/>
      <path id="Path_603" data-name="Path 603" d="M1.233,58.242c-.186-.091-.675.427-1.233.828.485.434.8.934,1.127.941s.7-.434,1.062-.686c-.306-.376-.555-.89-.956-1.083" transform="translate(0 154.205)" fill="#1a1818" fill-rule="evenodd"/>
      <path id="Path_604" data-name="Path 604" d="M47.106,13.836c.066-.1-.438-.762-.617-.737a4.961,4.961,0,0,0-1.291.744c.474.368.788.788,1,.737a1.583,1.583,0,0,0,.908-.744" transform="translate(119.692 34.687)" fill="#1a1818" fill-rule="evenodd"/>
      <path id="Path_605" data-name="Path 605" d="M78.2,1.937a1.508,1.508,0,0,0,.919-.719c.088-.186-.285-.584-.576-1.127-.463.514-.846.784-.981,1.164-.055.142.485.733.638.682" transform="translate(205.378 0.241)" fill="#1a1818" fill-rule="evenodd"/>
      <path id="Path_606" data-name="Path 606" d="M59.007,8.51c.325-.39.744-.708.7-.887a3.21,3.21,0,0,0-.733-1,3.4,3.4,0,0,0-.759,1.014c-.047.164.43.482.8.872" transform="translate(154.145 17.541)" fill="#1a1818" fill-rule="evenodd"/>
      <path id="Path_607" data-name="Path 607" d="M20.943,32.716c-.241-.058-.555-.233-.7-.139a3.71,3.71,0,0,0-.73.887c.441.142.828.347.879.277a5.533,5.533,0,0,0,.555-1.025" transform="translate(51.663 86.196)" fill="#1a1818" fill-rule="evenodd"/>
    </g>
  </g>
</svg>
