<svg width="107.875000" height="111.892090" viewBox="0 0 107.875 111.892" fill="none" xmlns="http://www.w3.org/2000/svg" xmlns:xlink="http://www.w3.org/1999/xlink">
	<desc>
			Created with Pixso.
	</desc>
	<defs/>
	<mask id="mask1_45310" mask-type="alpha" maskUnits="userSpaceOnUse" x="0.000000" y="0.000000" width="107.875000" height="111.892090">
		<g style="mix-blend-mode:normal">
			<rect id="Rectangle 3457" width="107.875076" height="111.892090" fill="#C4C4C4" fill-opacity="1.000000"/>
		</g>
	</mask>
	<g mask="url(#mask1_45310)">
		<g style="mix-blend-mode:normal">
			<path id="Path 24128" d="M80.86 79.33C79.76 75.23 71.9 66.03 68.37 64.86C74.21 59.44 78.94 59.81 78.94 59.81C78.94 59.81 87.91 65.86 94.02 73.97C93.54 84.6 81.64 81.23 80.86 79.33Z" fill="#FCD100" fill-opacity="1.000000" fill-rule="nonzero"/>
		</g>
	</g>
	<g mask="url(#mask1_45310)">
		<g style="mix-blend-mode:normal">
			<path id="Path 24129" d="M86.75 81.62C87.31 81.62 87.87 81.58 88.43 81.48C90.95 81.04 94.02 79.38 94.26 73.98C94.27 73.92 94.25 73.86 94.21 73.82C88.15 65.77 79.16 59.67 79.07 59.61C79.04 59.59 79 59.57 78.96 59.57C78.76 59.56 74.06 59.25 68.21 64.68C68.14 64.74 68.11 64.83 68.13 64.91C68.15 64.99 68.21 65.06 68.29 65.09C71.69 66.22 79.53 75.31 80.62 79.39C81.04 80.4 83.83 81.62 86.75 81.62ZM93.77 74.04C93.51 79.05 90.68 80.59 88.34 81C84.91 81.6 81.46 80.07 81.09 79.25C79.96 75.1 72.54 66.43 68.82 64.77C74.02 60.09 78.3 60.04 78.86 60.05C79.63 60.58 88.01 66.43 93.77 74.04Z" fill="#260808" fill-opacity="1.000000" fill-rule="nonzero"/>
		</g>
	</g>
	<g mask="url(#mask1_45310)">
		<g style="mix-blend-mode:normal">
			<path id="Path 24130" d="M80.71 79.25C79.55 81.49 79 84.96 82.9 88.88C82.86 90.88 82.45 92.24 82.12 93.34C81.75 94.56 81.46 95.52 81.91 96.67C82.36 97.81 83.2 98.64 84.21 98.96C84.7 99.11 85.21 99.13 85.69 99.03C86.04 98.96 86.37 98.82 86.69 98.62C87.17 99.16 87.8 99.57 88.55 99.8C89.13 99.97 89.79 100.02 90.46 99.88C91.54 99.66 92.64 98.93 93.45 97.42C94.3 98.06 95.44 98.22 96.94 97.91C98.03 97.68 99.07 96.57 99.72 94.93C100.49 92.99 102.38 85.73 94.16 73.87L80.71 79.25Z" fill="#FCD100" fill-opacity="1.000000" fill-rule="nonzero"/>
		</g>
	</g>
	<g mask="url(#mask1_45310)">
		<g style="mix-blend-mode:normal">
			<path id="Path 24131" d="M89.68 100.04C91.05 100.04 92.58 99.33 93.61 97.3C93.67 97.18 93.62 97.03 93.5 96.97C93.38 96.91 93.23 96.96 93.17 97.08C91.98 99.44 90.06 99.82 88.66 99.4C87.25 98.98 85.84 97.55 86.09 95.41C86.46 92.27 86.48 88.9 86.48 88.87C86.48 88.73 86.37 88.62 86.24 88.62C86.11 88.62 86 88.73 86 88.86C86 88.9 85.98 92.24 85.61 95.36C85.37 97.42 86.56 99.28 88.52 99.87C88.88 99.98 89.28 100.04 89.68 100.04Z" fill="#260808" fill-opacity="1.000000" fill-rule="nonzero"/>
		</g>
	</g>
	<g mask="url(#mask1_45310)">
		<g style="mix-blend-mode:normal">
			<path id="Path 24132" d="M83.09 89.08C83.15 89.08 83.22 89.05 83.26 89C83.36 88.91 83.36 88.75 83.26 88.66C80.25 85.68 79.49 82.49 81.07 79.44C81.14 79.32 81.09 79.17 80.97 79.11C80.85 79.05 80.7 79.1 80.64 79.22C79.46 81.49 78.9 85.03 82.92 89.01C82.97 89.05 83.03 89.08 83.09 89.08Z" fill="#260808" fill-opacity="1.000000" fill-rule="nonzero"/>
		</g>
	</g>
	<g mask="url(#mask1_45310)">
		<g style="mix-blend-mode:normal">
			<path id="Path 24133" d="M85.09 99.17C85.71 99.17 86.32 98.98 86.87 98.61C86.98 98.53 87.01 98.38 86.93 98.27C86.86 98.16 86.71 98.13 86.59 98.2C85.9 98.67 85.1 98.8 84.33 98.57C83.44 98.29 82.7 97.54 82.3 96.52C81.9 95.5 82.15 94.64 82.51 93.46C82.85 92.34 83.27 90.94 83.31 88.88C83.32 88.75 83.21 88.64 83.07 88.63C82.94 88.63 82.83 88.74 82.83 88.87C82.78 90.86 82.37 92.22 82.04 93.31C81.67 94.55 81.38 95.52 81.84 96.7C82.3 97.86 83.15 98.71 84.19 99.03C84.49 99.12 84.79 99.17 85.09 99.17Z" fill="#260808" fill-opacity="1.000000" fill-rule="nonzero"/>
		</g>
	</g>
	<g mask="url(#mask1_45310)">
		<g style="mix-blend-mode:normal">
			<path id="Path 24134" d="M95.56 98.14C95.99 98.14 96.45 98.09 96.96 97.98C98.07 97.75 99.13 96.62 99.79 94.96C100.56 93.01 102.46 85.71 94.22 73.83C94.14 73.72 93.99 73.69 93.88 73.77C93.77 73.84 93.74 73.99 93.82 74.1C101.92 85.79 100.09 92.88 99.33 94.78C98.74 96.29 97.81 97.3 96.86 97.5C95.46 97.8 94.41 97.66 93.66 97.07C92.76 96.37 92.25 94.95 92.17 92.86C92.16 92.72 92.05 92.61 91.91 92.62C91.78 92.63 91.68 92.74 91.68 92.88C91.77 95.15 92.32 96.65 93.36 97.46C93.95 97.91 94.67 98.14 95.56 98.14Z" fill="#260808" fill-opacity="1.000000" fill-rule="nonzero"/>
		</g>
	</g>
	<g mask="url(#mask1_45310)">
		<g style="mix-blend-mode:normal">
			<path id="Path 24135" d="M91.14 93.25C92.11 93.25 93.52 92.69 94.78 90.02C96.95 85.43 95.52 79.7 95.21 78.6C95.17 78.47 95.04 78.4 94.91 78.43C94.78 78.47 94.7 78.61 94.74 78.74C94.92 79.39 96.48 85.29 94.34 89.82C93.19 92.25 91.97 92.76 91.14 92.76C90.09 92.76 89.22 91.93 88.86 91.17C88.46 90.3 88.45 89.53 88.45 88.55C88.45 87.71 88.44 86.66 88.17 85.27C88.15 85.2 88.11 85.14 88.04 85.1C86.4 84.23 85.17 82.12 84.99 79.85C84.82 77.67 85.61 75.75 87.17 74.57C87.28 74.49 87.3 74.34 87.22 74.23C87.14 74.12 86.98 74.1 86.88 74.18C85.18 75.46 84.32 77.54 84.5 79.89C84.7 82.31 85.95 84.49 87.71 85.48C87.96 86.76 87.96 87.71 87.96 88.55C87.97 89.59 87.97 90.41 88.42 91.37C88.84 92.27 89.87 93.24 91.14 93.25Z" fill="#260808" fill-opacity="1.000000" fill-rule="nonzero"/>
		</g>
	</g>
	<g mask="url(#mask1_45310)">
		<g style="mix-blend-mode:normal">
			<path id="Path 24136" d="M78.32 64.66C73.45 65.42 72.91 68.2 72.91 68.2L71.02 67.04L71.5 64.08L78.32 64.66Z" fill="#260808" fill-opacity="1.000000" fill-rule="nonzero"/>
		</g>
	</g>
	<g mask="url(#mask1_45310)">
		<g style="mix-blend-mode:normal">
			<path id="Path 24137" d="M74.75 102.75C70.58 102.75 66.76 103.11 63.77 103.72C59.89 103.11 55 102.75 49.69 102.75C37.06 102.75 26.83 104.79 26.83 107.32C26.83 109.84 37.06 111.89 49.69 111.89C55.7 111.89 61.17 111.42 65.25 110.66C67.98 111.11 71.24 111.37 74.75 111.37C84.34 111.37 92.11 109.44 92.11 107.06C92.11 104.68 84.34 102.75 74.75 102.75Z" fill="#260808" fill-opacity="1.000000" fill-rule="nonzero"/>
		</g>
	</g>
	<g mask="url(#mask1_45310)">
		<g style="mix-blend-mode:normal">
			<path id="Path 24138" d="M60 90.37C60.89 83.82 59.99 64.9 58.79 61.41C62.44 60.39 71.19 61.41 71.19 61.41C71.19 61.41 74.78 78.37 73.75 91.13L60 90.37Z" fill="#FFDD4F" fill-opacity="1.000000" fill-rule="nonzero"/>
		</g>
	</g>
	<g mask="url(#mask1_45310)">
		<g style="mix-blend-mode:normal">
			<path id="Path 24139" d="M60 90.37C60.42 87.26 60.44 81.35 60.21 75.63C61.65 75.86 69.48 76.17 73.28 75.01C73.83 80.14 74.17 85.98 73.75 91.13L60 90.37Z" fill="#FFFFFF" fill-opacity="1.000000" fill-rule="nonzero"/>
		</g>
	</g>
	<g mask="url(#mask1_45310)">
		<g style="mix-blend-mode:normal">
			<path id="Path 24140" d="M73.75 91.38C73.88 91.38 73.99 91.28 74 91.15C75.01 78.5 71.46 61.53 71.43 61.36C71.41 61.26 71.32 61.18 71.22 61.17C70.86 61.13 62.38 60.16 58.72 61.18C58.6 61.22 58.52 61.35 58.56 61.48C59.9 66.36 60.63 83.89 59.76 90.34C59.74 90.47 59.83 90.59 59.96 90.61C60.1 90.63 60.22 90.54 60.24 90.4C61.13 83.87 60.44 66.91 59.09 61.59C62.48 60.77 69.77 61.5 70.99 61.64C71.36 63.46 74.47 79.22 73.51 91.11C73.5 91.25 73.62 91.37 73.75 91.38Z" fill="#260808" fill-opacity="1.000000" fill-rule="nonzero"/>
		</g>
	</g>
	<g mask="url(#mask1_45310)">
		<g style="mix-blend-mode:normal">
			<path id="Path 24141" d="M75.71 89.02C76.16 88.97 76.62 88.93 77.11 88.91C85.88 88.51 90.97 99.52 88.49 102.92C85.3 107.28 78.41 107.22 69.83 106.4C63.63 105.81 58.29 101.72 57.75 99.85C57.21 97.98 57.41 95.12 57.49 93.59C57.58 92.06 57.9 89.45 60.28 88.18C60.28 88.18 62.94 89.75 66.61 89.85C66.67 89.73 66.74 89.61 66.83 89.5C68.05 87.9 74.25 87.24 75.71 89.02Z" fill="#FFFFFF" fill-opacity="1.000000" fill-rule="nonzero"/>
		</g>
	</g>
	<g mask="url(#mask1_45310)">
		<g style="mix-blend-mode:normal">
			<path id="Path 24142" d="M77.27 107.09C82.21 107.09 86.38 106.21 88.69 103.06C89.81 101.52 89.5 98.48 87.9 95.5C86.05 92.04 82.23 88.43 77.1 88.67C67.34 89.11 65.67 96.07 65.66 96.14C65.63 96.27 65.71 96.4 65.84 96.43C65.97 96.46 66.1 96.38 66.13 96.25C66.19 95.97 67.75 89.58 77.12 89.15C82.04 88.93 85.69 92.4 87.47 95.73C88.96 98.5 89.3 101.4 88.29 102.77C85.35 106.8 79.3 107.07 69.85 106.16C63.89 105.59 58.52 101.63 57.98 99.78C57.48 98.05 57.63 95.42 57.72 93.85L57.74 93.6C57.83 91.95 58.19 89.64 60.28 88.46C60.85 88.77 63.31 90 66.6 90.1C66.75 90.1 66.85 89.99 66.85 89.86C66.86 89.72 66.75 89.61 66.62 89.61C63.06 89.51 60.43 87.99 60.41 87.98C60.33 87.93 60.25 87.93 60.17 87.97C57.76 89.24 57.35 91.78 57.25 93.57L57.24 93.83C57.15 95.43 56.99 98.11 57.52 99.92C58.1 101.92 63.55 106.05 69.8 106.65C72.39 106.89 74.92 107.09 77.27 107.09Z" fill="#260808" fill-opacity="1.000000" fill-rule="nonzero"/>
		</g>
	</g>
	<g mask="url(#mask1_45310)">
		<g style="mix-blend-mode:normal">
			<path id="Path 24143" d="M66.61 92.88C66.74 92.84 66.88 92.7 66.84 92.57C66.59 91.68 66.41 90.45 67.02 89.65C67.62 88.87 69.79 88.23 71.95 88.2C73.7 88.18 75.02 88.55 75.53 89.19C75.62 89.29 75.77 89.31 75.87 89.22C75.98 89.14 76 88.99 75.91 88.88C75.3 88.12 73.86 87.69 71.94 87.72C69.91 87.74 67.43 88.31 66.63 89.36C66.06 90.11 65.97 91.27 66.37 92.7C66.4 92.81 66.5 92.88 66.61 92.88Z" fill="#260808" fill-opacity="1.000000" fill-rule="nonzero"/>
		</g>
	</g>
	<g mask="url(#mask1_45310)">
		<g style="mix-blend-mode:normal">
			<path id="Path 24144" d="M57.51 99.26C57.01 100.07 57.14 100.9 57.39 101.69C57.69 102.67 60.73 108.46 73.16 108.83C85.58 109.2 88.65 105.7 88.9 105.25C89.16 104.81 90.34 102.24 89.2 100.86C84.66 105.61 64.42 107.99 57.51 99.26Z" fill="#FCD100" fill-opacity="1.000000" fill-rule="nonzero"/>
		</g>
	</g>
	<g mask="url(#mask1_45310)">
		<g style="mix-blend-mode:normal">
			<path id="Path 24145" d="M62.82 94.79C66.37 99.14 65.12 106.2 64.36 107.32C62.48 106.51 60.9 104.85 60.9 104.85L62.82 94.79Z" fill="#260808" fill-opacity="1.000000" fill-rule="nonzero"/>
		</g>
	</g>
	<g mask="url(#mask1_45310)">
		<g style="mix-blend-mode:normal">
			<path id="Path 24146" d="M74.99 109.1C86.84 109.1 89.09 105.41 89.11 105.37C89.13 105.34 90.75 102.34 89.39 100.7C89.34 100.65 89.28 100.62 89.21 100.61C89.13 100.6 89.07 100.64 89.02 100.69C86.49 103.34 79.03 105.16 72.03 104.84C65.47 104.54 60.38 102.5 57.7 99.11C57.65 99.05 57.57 99.02 57.49 99.02C57.41 99.03 57.34 99.07 57.3 99.14C56.74 100.04 56.91 100.97 57.16 101.76C57.18 101.83 59.45 108.66 73.15 109.07C73.79 109.09 74.4 109.1 74.99 109.1ZM89.16 101.23C89.9 102.48 88.99 104.6 88.69 105.13C88.67 105.17 86.12 108.97 73.16 108.59C60.02 108.19 57.64 101.68 57.62 101.61C57.43 101 57.3 100.35 57.55 99.71C60.38 103.03 65.49 105.03 72 105.33C78.95 105.65 86.37 103.86 89.16 101.23Z" fill="#260808" fill-opacity="1.000000" fill-rule="nonzero"/>
		</g>
	</g>
	<g mask="url(#mask1_45310)">
		<g style="mix-blend-mode:normal">
			<path id="Path 24147" d="M71.91 85.39C72.04 85.39 72.15 85.28 72.15 85.15L72.15 84.84C72.14 83.55 72.12 80.53 71.74 77.4C71.73 77.27 71.6 77.18 71.47 77.19C71.34 77.21 71.24 77.33 71.26 77.46C71.63 80.56 71.65 83.56 71.66 84.84L71.66 85.15C71.66 85.29 71.77 85.39 71.91 85.39Z" fill="#260808" fill-opacity="1.000000" fill-rule="nonzero"/>
		</g>
	</g>
	<g mask="url(#mask1_45310)">
		<g style="mix-blend-mode:normal">
			<path id="Path 24148" d="M68.79 85.4C68.93 85.39 69.04 85.28 69.04 85.15C69.03 83.54 68.98 79.6 68.75 77.62C68.73 77.48 68.61 77.39 68.48 77.4C68.35 77.42 68.25 77.54 68.27 77.67C68.49 79.63 68.54 83.56 68.55 85.15C68.55 85.29 68.66 85.4 68.79 85.4Z" fill="#260808" fill-opacity="1.000000" fill-rule="nonzero"/>
		</g>
	</g>
	<g mask="url(#mask1_45310)">
		<g style="mix-blend-mode:normal">
			<path id="Path 24149" d="M65.43 86.95C65.56 86.95 65.67 86.85 65.68 86.72C65.68 86.72 65.7 86.25 65.72 85.48C65.73 85.34 65.62 85.23 65.49 85.23C65.36 85.21 65.24 85.33 65.24 85.46C65.21 86.23 65.19 86.69 65.19 86.7C65.18 86.83 65.3 86.94 65.43 86.95Z" fill="#260808" fill-opacity="1.000000" fill-rule="nonzero"/>
		</g>
	</g>
	<g mask="url(#mask1_45310)">
		<g style="mix-blend-mode:normal">
			<path id="Path 24150" d="M65.52 84.22C65.65 84.22 65.76 84.11 65.76 83.98C65.79 82.27 65.81 79.79 65.7 77.63C65.69 77.5 65.57 77.4 65.44 77.4C65.31 77.41 65.2 77.52 65.21 77.66C65.32 79.8 65.31 82.27 65.27 83.97C65.27 84.1 65.38 84.21 65.52 84.22Z" fill="#260808" fill-opacity="1.000000" fill-rule="nonzero"/>
		</g>
	</g>
	<g mask="url(#mask1_45310)">
		<g style="mix-blend-mode:normal">
			<path id="Path 24151" d="M62.48 86.04C62.62 86.04 62.72 85.94 62.73 85.8C62.73 85.52 62.81 78.81 62.72 77.63C62.71 77.49 62.6 77.39 62.46 77.4C62.33 77.41 62.23 77.53 62.24 77.66C62.32 78.83 62.24 85.73 62.24 85.8C62.24 85.93 62.35 86.04 62.48 86.04Z" fill="#260808" fill-opacity="1.000000" fill-rule="nonzero"/>
		</g>
	</g>
	<g mask="url(#mask1_45310)">
		<g style="mix-blend-mode:normal">
			<path id="Path 24152" d="M35.4 88.77C37.34 82.44 39.52 63.63 38.9 60C42.67 59.58 51.14 62.01 51.14 62.01C51.14 62.01 51.93 79.32 48.85 91.75L35.4 88.77Z" fill="#FFDD4F" fill-opacity="1.000000" fill-rule="nonzero"/>
		</g>
	</g>
	<g mask="url(#mask1_45310)">
		<g style="mix-blend-mode:normal">
			<path id="Path 24153" d="M35.4 88.77C36.32 85.76 37.3 79.93 38 74.26C39.38 74.72 47.06 76.29 51 75.76C50.71 80.91 50.1 86.73 48.85 91.75L35.4 88.77Z" fill="#FFFFFF" fill-opacity="1.000000" fill-rule="nonzero"/>
		</g>
	</g>
	<g mask="url(#mask1_45310)">
		<g style="mix-blend-mode:normal">
			<path id="Path 24154" d="M48.85 91.99C48.96 91.99 49.06 91.92 49.09 91.81C52.14 79.49 51.39 62.17 51.38 61.99C51.38 61.89 51.31 61.8 51.21 61.77C50.86 61.67 42.64 59.34 38.88 59.75C38.74 59.77 38.65 59.89 38.66 60.02C39.2 65.06 37.08 82.48 35.17 88.69C35.13 88.82 35.2 88.96 35.33 89C35.46 89.04 35.6 88.97 35.63 88.84C37.57 82.53 39.64 65.69 39.17 60.22C42.65 59.96 49.72 61.86 50.9 62.19C50.97 64.05 51.49 80.1 48.62 91.69C48.58 91.82 48.72 91.96 48.85 91.99Z" fill="#260808" fill-opacity="1.000000" fill-rule="nonzero"/>
		</g>
	</g>
	<g mask="url(#mask1_45310)">
		<g style="mix-blend-mode:normal">
			<path id="Path 24155" d="M40.16 88.78C37.2 88.16 36.13 86.02 36.13 86.02C36.13 86.02 34.83 86.31 33.81 87.56C32.05 89.71 30.7 94.58 31.11 97.14C31.75 101.05 37.32 105.56 46.14 107.32C54.96 109.08 62.36 107.26 63.51 103.48C64.65 99.71 64.59 91.46 54.62 88.83C53.04 88.41 51.35 88.33 49.69 88.5C48.56 86.5 42.31 86.11 40.83 87.5C40.47 87.84 40.27 88.29 40.16 88.78Z" fill="#FFFFFF" fill-opacity="1.000000" fill-rule="nonzero"/>
		</g>
	</g>
	<g mask="url(#mask1_45310)">
		<g style="mix-blend-mode:normal">
			<path id="Path 24156" d="M52.75 108.24C58.5 108.24 62.84 106.52 63.74 103.55C64.47 101.16 64.61 97.49 62.85 94.34C61.29 91.54 58.54 89.61 54.69 88.59C49.96 87.34 44.83 89.03 42.06 91.12C41.95 91.2 41.93 91.35 42.01 91.46C42.09 91.56 42.25 91.59 42.35 91.5C45.03 89.48 49.99 87.85 54.56 89.06C58.29 90.04 60.93 91.9 62.42 94.57C64.11 97.6 63.97 101.12 63.28 103.4C62.14 107.15 54.63 108.76 46.18 107.08C37.23 105.29 31.95 100.7 31.36 97.1C30.95 94.61 32.3 89.79 33.99 87.72C34.74 86.81 35.64 86.43 36.01 86.31C36.34 86.86 37.49 88.47 40.05 89.01C40.19 89.04 40.31 88.95 40.34 88.82C40.37 88.69 40.29 88.56 40.15 88.53C37.36 87.94 36.36 85.93 36.35 85.91C36.3 85.81 36.18 85.76 36.07 85.78C36.02 85.79 34.68 86.1 33.62 87.41C31.83 89.6 30.44 94.53 30.87 97.18C31.47 100.83 36.49 105.64 46.09 107.55C48.42 108.02 50.68 108.24 52.75 108.24Z" fill="#260808" fill-opacity="1.000000" fill-rule="nonzero"/>
		</g>
	</g>
	<g mask="url(#mask1_45310)">
		<g style="mix-blend-mode:normal">
			<path id="Path 24157" d="M63.25 104.1C56.55 111.19 30.15 102.46 31.05 96.11C31.05 96.11 30.21 97.22 30.42 98.96C30.67 101.04 35.99 107.7 46.46 109.61C56.92 111.52 61.32 109.19 62.07 108.78C63.67 107.88 64.06 104.63 63.25 104.1Z" fill="#FCD100" fill-opacity="1.000000" fill-rule="nonzero"/>
		</g>
	</g>
	<g mask="url(#mask1_45310)">
		<g style="mix-blend-mode:normal">
			<path id="Path 24158" d="M53.99 110.6C58.63 110.6 61.14 109.57 62.19 108.99C63.3 108.37 63.86 106.76 63.9 105.54C63.94 104.73 63.75 104.13 63.39 103.89C63.29 103.83 63.16 103.84 63.08 103.93C58.6 108.66 45.29 106.06 37.8 102.45C33.46 100.36 31.03 98 31.29 96.14C31.31 96.03 31.25 95.92 31.14 95.88C31.04 95.84 30.92 95.87 30.86 95.96C30.82 96.01 29.96 97.17 30.18 98.99C30.44 101.21 35.83 107.92 46.41 109.85C49.41 110.4 51.91 110.6 53.99 110.6ZM63.25 104.45C63.36 104.65 63.44 105.01 63.42 105.52C63.37 106.65 62.86 108.06 61.95 108.56C60.8 109.2 56.28 111.16 46.5 109.37C36.07 107.47 30.88 100.79 30.66 98.93C30.57 98.15 30.7 97.51 30.86 97.04C31.3 98.92 33.67 101 37.59 102.89C45.31 106.6 58.4 109.16 63.25 104.45Z" fill="#260808" fill-opacity="1.000000" fill-rule="nonzero"/>
		</g>
	</g>
	<g mask="url(#mask1_45310)">
		<g style="mix-blend-mode:normal">
			<path id="Path 24159" d="M40.11 90.8C40.24 90.78 40.37 90.66 40.35 90.53C40.25 89.6 40.27 88.36 41 87.68C41.72 87 43.96 86.72 46.1 87.05C47.81 87.31 49.07 87.88 49.47 88.6C49.54 88.71 49.69 88.76 49.81 88.69C49.92 88.62 49.96 88.47 49.9 88.36C49.42 87.5 48.06 86.85 46.17 86.57C44.16 86.26 41.62 86.42 40.66 87.32C39.97 87.97 39.7 89.1 39.87 90.58C39.88 90.7 39.99 90.8 40.11 90.8Z" fill="#260808" fill-opacity="1.000000" fill-rule="nonzero"/>
		</g>
	</g>
	<g mask="url(#mask1_45310)">
		<g style="mix-blend-mode:normal">
			<path id="Path 24160" d="M47.8 85.66C47.92 85.66 48.02 85.57 48.04 85.45C48.18 84.55 48.52 82.25 48.68 80.25C48.69 80.12 48.59 80 48.46 79.99C48.32 79.98 48.2 80.08 48.19 80.21C48.03 82.2 47.7 84.49 47.56 85.38C47.54 85.51 47.67 85.64 47.8 85.66Z" fill="#260808" fill-opacity="1.000000" fill-rule="nonzero"/>
		</g>
	</g>
	<g mask="url(#mask1_45310)">
		<g style="mix-blend-mode:normal">
			<path id="Path 24161" d="M48.51 79.23C48.64 79.23 48.75 79.13 48.76 79C48.77 78.58 48.77 78.22 48.76 77.92C48.76 77.78 48.64 77.67 48.51 77.68C48.37 77.69 48.27 77.8 48.27 77.94C48.29 78.23 48.28 78.58 48.27 78.98C48.26 79.11 48.38 79.23 48.51 79.23Z" fill="#260808" fill-opacity="1.000000" fill-rule="nonzero"/>
		</g>
	</g>
	<g mask="url(#mask1_45310)">
		<g style="mix-blend-mode:normal">
			<path id="Path 24162" d="M44.73 85.15C44.85 85.15 44.95 85.07 44.97 84.95C45.22 83.36 45.81 79.46 45.91 77.47C45.91 77.33 45.81 77.22 45.67 77.21C45.54 77.21 45.42 77.32 45.42 77.45C45.33 79.41 44.74 83.29 44.49 84.87C44.47 85 44.6 85.13 44.73 85.15Z" fill="#260808" fill-opacity="1.000000" fill-rule="nonzero"/>
		</g>
	</g>
	<g mask="url(#mask1_45310)">
		<g style="mix-blend-mode:normal">
			<path id="Path 24163" d="M41.16 86.14C41.27 86.14 41.37 86.06 41.4 85.95C41.41 85.9 42.45 80.92 42.89 76.99C42.91 76.86 42.81 76.74 42.68 76.72C42.54 76.71 42.42 76.8 42.41 76.94C41.97 80.85 40.93 85.8 40.92 85.85C40.89 85.98 41.03 86.12 41.16 86.14Z" fill="#260808" fill-opacity="1.000000" fill-rule="nonzero"/>
		</g>
	</g>
	<g mask="url(#mask1_45310)">
		<g style="mix-blend-mode:normal">
			<path id="Path 24164" d="M38.39 84.77C38.51 84.77 38.61 84.69 38.63 84.57C38.68 84.29 39.85 77.69 39.96 76.5C39.97 76.37 39.87 76.25 39.74 76.24C39.6 76.22 39.49 76.33 39.47 76.46C39.37 77.62 38.17 84.42 38.15 84.49C38.13 84.62 38.26 84.75 38.39 84.77Z" fill="#260808" fill-opacity="1.000000" fill-rule="nonzero"/>
		</g>
	</g>
	<g mask="url(#mask1_45310)">
		<g style="mix-blend-mode:normal">
			<path id="Path 24165" d="M71 59.62C71 59.62 70.91 59.61 70.74 59.59L58.86 60.64C59.21 62.33 59.52 65.23 59.75 68.59C65.07 67.94 69.74 66.89 72.05 65.43C71.49 61.91 71 59.62 71 59.62Z" fill="#260808" fill-opacity="1.000000" fill-rule="nonzero"/>
		</g>
	</g>
	<g mask="url(#mask1_45310)">
		<g style="mix-blend-mode:normal">
			<path id="Path 24166" d="M40.18 59.95C44.3 60.05 51.14 62.01 51.14 62.01C51.14 62.01 51.25 64.47 51.23 68.2C46.55 67.82 42.1 67.16 38.87 66.37C39.41 64.01 39.86 61.79 40.18 59.95Z" fill="#260808" fill-opacity="1.000000" fill-rule="nonzero"/>
		</g>
	</g>
	<g mask="url(#mask1_45310)">
		<g style="mix-blend-mode:normal">
			<path id="Path 24167" d="M49.39 76.11C50.17 76.11 50.76 76.07 51.06 76C51.19 75.96 51.27 75.83 51.23 75.7C51.2 75.57 51.07 75.49 50.94 75.52C49.76 75.82 41.56 75.41 38.49 74.03C38.37 73.98 38.23 74.03 38.17 74.16C38.12 74.28 38.17 74.42 38.29 74.48C40.73 75.57 46.42 76.11 49.39 76.11Z" fill="#260808" fill-opacity="1.000000" fill-rule="nonzero"/>
		</g>
	</g>
	<g mask="url(#mask1_45310)">
		<g style="mix-blend-mode:normal">
			<path id="Path 24168" d="M64.69 76.09C69.81 76.09 73.29 75.26 73.34 75.25C73.47 75.22 73.55 75.08 73.51 74.95C73.48 74.82 73.35 74.74 73.22 74.77C73.16 74.79 67.61 76.12 60.24 75.39C60.11 75.38 59.98 75.47 59.97 75.61C59.96 75.74 60.06 75.86 60.19 75.87C61.79 76.03 63.3 76.09 64.69 76.09Z" fill="#260808" fill-opacity="1.000000" fill-rule="nonzero"/>
		</g>
	</g>
	<g mask="url(#mask1_45310)">
		<g style="mix-blend-mode:normal">
			<path id="Path 24169" d="M70.4 13.73C70.55 17.18 68.29 20.08 65.36 20.21C62.42 20.34 59.91 17.65 59.76 14.2C59.61 10.75 61.87 7.84 64.81 7.71C67.74 7.59 70.25 10.28 70.4 13.73Z" fill="#FFFFFF" fill-opacity="1.000000" fill-rule="nonzero"/>
		</g>
	</g>
	<g mask="url(#mask1_45310)">
		<g style="mix-blend-mode:normal">
			<path id="Path 24170" d="M65.15 20.46C65.22 20.46 65.29 20.45 65.37 20.45C68.43 20.32 70.8 17.29 70.64 13.72C70.57 11.99 69.92 10.39 68.82 9.21C67.72 8.02 66.29 7.4 64.79 7.47C61.73 7.61 59.36 10.63 59.52 14.21C59.6 15.93 60.24 17.53 61.34 18.71C62.39 19.84 63.74 20.46 65.15 20.46ZM70.16 13.74C70.3 17.05 68.14 19.84 65.34 19.96C64 20.03 62.7 19.46 61.69 18.38C60.68 17.28 60.08 15.8 60.01 14.19C59.86 10.88 62.02 8.08 64.82 7.96C66.16 7.9 67.46 8.46 68.47 9.54C69.49 10.64 70.08 12.13 70.16 13.74Z" fill="#260808" fill-opacity="1.000000" fill-rule="nonzero"/>
		</g>
	</g>
	<g mask="url(#mask1_45310)">
		<g style="mix-blend-mode:normal">
			<path id="Path 24171" d="M67.89 13.66C68.14 16.5 66.53 18.95 64.3 19.15C62.07 19.34 60.07 17.2 59.82 14.37C59.57 11.53 61.18 9.08 63.41 8.88C65.63 8.69 67.64 10.83 67.89 13.66Z" fill="#260808" fill-opacity="1.000000" fill-rule="nonzero"/>
		</g>
	</g>
	<g mask="url(#mask1_45310)">
		<g style="mix-blend-mode:normal">
			<path id="Path 24172" d="M69.22 14.06C68.9 15.24 67.67 15.95 66.49 15.63C65.3 15.31 64.6 14.08 64.92 12.9C65.24 11.71 66.46 11.01 67.65 11.33C68.83 11.65 69.54 12.87 69.22 14.06Z" fill="#FFFFFF" fill-opacity="1.000000" fill-rule="nonzero"/>
		</g>
	</g>
	<g mask="url(#mask1_45310)">
		<g style="mix-blend-mode:normal">
			<path id="Path 24173" d="M2.19 46.68L11.61 47.09C13.06 47.23 14.8 49.73 15.9 53.76C16.99 57.79 16.85 60.75 15.57 61.68L7.65 66.76C5.56 67.33 2.62 63.26 1.12 57.73C-0.38 52.2 0.1 47.25 2.19 46.68Z" fill="#FCD100" fill-opacity="1.000000" fill-rule="nonzero"/>
		</g>
	</g>
	<g mask="url(#mask1_45310)">
		<g style="mix-blend-mode:normal">
			<path id="Path 24174" d="M29.16 19.84C30.64 19.84 30.14 23.03 30.14 23.03L24.65 26.53C24.65 26.53 26.53 20.54 29.16 19.84Z" fill="#FFFDEE" fill-opacity="1.000000" fill-rule="nonzero"/>
		</g>
	</g>
	<g mask="url(#mask1_45310)">
		<g style="mix-blend-mode:normal">
			<path id="Path 24175" d="M24.65 26.77C24.7 26.77 24.75 26.76 24.79 26.73L30.27 23.24C30.33 23.2 30.37 23.14 30.38 23.07C30.41 22.84 30.71 20.82 29.98 19.97C29.77 19.72 29.49 19.59 29.16 19.59C26.43 20.32 24.5 26.2 24.42 26.45C24.39 26.55 24.43 26.66 24.51 26.72C24.55 26.75 24.6 26.77 24.65 26.77ZM29.91 22.89L25.11 25.95C25.67 24.41 27.23 20.64 29.19 20.08C29.36 20.09 29.5 20.15 29.61 20.29C30.08 20.83 30 22.26 29.91 22.89Z" fill="#260808" fill-opacity="1.000000" fill-rule="nonzero"/>
		</g>
	</g>
	<g mask="url(#mask1_45310)">
		<g style="mix-blend-mode:normal">
			<path id="Path 24176" d="M39.08 30.55C37.3 31.67 35.87 32.58 34.08 33.7C33.72 32.88 33.5 32.45 33.06 31.58C31.45 28.39 28.74 28.51 25.84 30.37C24.94 30.95 21.31 33.24 20.4 33.8C17.46 35.61 16.19 38 18.36 40.83C18.96 41.61 19.25 41.99 19.84 42.67C18.05 43.8 16.62 44.69 14.83 45.81C12.87 43.67 11.5 41.57 10.53 39.8C9.31 37.57 10.46 34.86 12.89 33.3C15.46 31.56 25.95 24.95 28.63 23.38C31.09 21.87 34.03 22 35.52 24.07C36.7 25.71 38 27.85 39.08 30.55Z" fill="#FCD100" fill-opacity="1.000000" fill-rule="nonzero"/>
		</g>
	</g>
	<g mask="url(#mask1_45310)">
		<g style="mix-blend-mode:normal">
			<path id="Path 24177" d="M14.83 46.06C14.88 46.06 14.92 46.04 14.96 46.02C16.75 44.9 18.18 44 19.97 42.88C20.03 42.84 20.07 42.78 20.08 42.71C20.09 42.64 20.07 42.57 20.02 42.51C19.43 41.82 19.15 41.45 18.55 40.68C17.71 39.59 17.38 38.51 17.56 37.5C17.79 36.25 18.79 35.07 20.53 34C21.41 33.46 25.07 31.15 25.97 30.58C27.69 29.47 29.18 29.08 30.4 29.42C31.4 29.69 32.22 30.45 32.85 31.69C33.29 32.55 33.5 32.97 33.86 33.8C33.89 33.87 33.94 33.92 34.01 33.94C34.08 33.96 34.15 33.95 34.21 33.91C36 32.78 37.43 31.88 39.21 30.75C39.31 30.69 39.35 30.57 39.31 30.46C38.38 28.15 37.18 25.95 35.72 23.93C34.22 21.84 31.19 21.53 28.51 23.17C25.81 24.75 15.35 31.34 12.75 33.09C10.11 34.79 9.09 37.67 10.32 39.92C11.51 42.11 12.97 44.15 14.66 45.98C14.7 46.03 14.77 46.06 14.83 46.06ZM19.47 42.61C17.85 43.63 16.5 44.48 14.88 45.5C13.28 43.74 11.89 41.78 10.74 39.68C9.64 37.66 10.6 35.06 13.02 33.5C15.62 31.74 26.06 25.17 28.76 23.59C31.22 22.08 33.98 22.34 35.32 24.21C36.72 26.15 37.88 28.25 38.78 30.45C37.15 31.48 35.81 32.32 34.19 33.35C33.89 32.66 33.67 32.23 33.28 31.47C32.59 30.1 31.67 29.25 30.53 28.95C29.17 28.57 27.54 28.99 25.71 30.17C24.81 30.74 21.16 33.04 20.27 33.59C18.41 34.73 17.34 36.02 17.08 37.41C16.87 38.57 17.24 39.77 18.17 40.98C18.69 41.66 18.99 42.04 19.47 42.61Z" fill="#260808" fill-opacity="1.000000" fill-rule="nonzero"/>
		</g>
	</g>
	<g mask="url(#mask1_45310)">
		<g style="mix-blend-mode:normal">
			<path id="Path 24178" d="M15.97 20.98C15.31 20.15 13.98 21.27 13.35 21.98C12.73 22.69 12.39 23.7 13.05 24.35L15.97 20.98Z" fill="#FFFDEE" fill-opacity="1.000000" fill-rule="nonzero"/>
		</g>
	</g>
	<g mask="url(#mask1_45310)">
		<g style="mix-blend-mode:normal">
			<path id="Path 24179" d="M13.05 24.6C13.11 24.6 13.17 24.57 13.22 24.52C13.32 24.43 13.31 24.27 13.22 24.18C12.67 23.64 12.99 22.77 13.54 22.14C14.07 21.53 14.86 20.93 15.38 20.93C15.55 20.93 15.67 21 15.78 21.13C15.86 21.24 16.01 21.25 16.12 21.17C16.22 21.09 16.24 20.93 16.16 20.83C15.96 20.58 15.7 20.45 15.4 20.44C14.46 20.42 13.37 21.59 13.17 21.82C12.47 22.62 12.11 23.76 12.88 24.53C12.92 24.57 12.99 24.6 13.05 24.6Z" fill="#260808" fill-opacity="1.000000" fill-rule="nonzero"/>
		</g>
	</g>
	<g mask="url(#mask1_45310)">
		<g style="mix-blend-mode:normal">
			<path id="Path 24180" d="M13.98 32.5C9.05 26.56 15.87 14.76 25.07 23.1L13.98 32.5Z" fill="#FFFDEE" fill-opacity="1.000000" fill-rule="nonzero"/>
		</g>
	</g>
	<g mask="url(#mask1_45310)">
		<g style="mix-blend-mode:normal">
			<path id="Path 24181" d="M13.98 32.74C14.03 32.74 14.09 32.72 14.13 32.69C14.24 32.6 14.25 32.45 14.17 32.34C11.52 29.16 12.41 24.46 14.9 22.08C17.55 19.55 21.29 20 24.91 23.28C25.01 23.37 25.16 23.36 25.25 23.26C25.35 23.16 25.34 23.01 25.24 22.92C21.41 19.44 17.41 19 14.57 21.73C11.92 24.26 10.97 29.26 13.79 32.66C13.84 32.71 13.91 32.74 13.98 32.74Z" fill="#260808" fill-opacity="1.000000" fill-rule="nonzero"/>
		</g>
	</g>
	<g mask="url(#mask1_45310)">
		<g style="mix-blend-mode:normal">
			<path id="Path 24182" d="M18 29.7C18.1 29.7 18.19 29.64 18.23 29.55C18.28 29.43 18.22 29.29 18.1 29.23C16.29 28.43 15.37 26.16 15.05 25.22C14.59 23.83 14.51 22.61 14.7 22.27C14.76 22.16 14.72 22.01 14.61 21.94C14.49 21.88 14.34 21.92 14.27 22.03C13.98 22.56 14.11 23.93 14.59 25.38C14.92 26.38 16.01 28.82 18 29.7Z" fill="#260808" fill-opacity="1.000000" fill-rule="nonzero"/>
		</g>
	</g>
	<g mask="url(#mask1_45310)">
		<g style="mix-blend-mode:normal">
			<path id="Path 24183" d="M29.16 19.84C29.16 19.84 27.57 20.04 26.21 24.1C23.32 32.74 19.06 31.34 16.54 30.95C28.01 19.19 29.16 19.84 29.16 19.84Z" fill="#FFFDEE" fill-opacity="1.000000" fill-rule="nonzero"/>
		</g>
	</g>
	<g mask="url(#mask1_45310)">
		<g style="mix-blend-mode:normal">
			<path id="Path 24184" d="M19.23 31.52C21.6 31.52 24.37 30.36 26.44 24.18C27.72 20.36 29.18 20.08 29.2 20.08C29.3 20.06 29.38 19.98 29.4 19.88C29.41 19.78 29.37 19.67 29.28 19.62C28.46 19.16 23.63 23.33 16.36 30.78C16.3 30.84 16.28 30.94 16.3 31.02C16.33 31.11 16.41 31.17 16.5 31.19C16.67 31.21 16.84 31.24 17.03 31.28C17.69 31.39 18.44 31.52 19.23 31.52ZM27.29 21.19C26.87 21.83 26.41 22.74 25.98 24.02C23.35 31.88 19.6 31.23 17.11 30.8C22.67 25.12 25.65 22.44 27.29 21.19Z" fill="#260808" fill-opacity="1.000000" fill-rule="nonzero"/>
		</g>
	</g>
	<g mask="url(#mask1_45310)">
		<g style="mix-blend-mode:normal">
			<path id="Path 24185" d="M29.63 19.97C27.64 20.79 27.44 24.1 27.44 24.1L25.87 25.06C25.87 25.06 27.75 19.33 29.63 19.97Z" fill="#260808" fill-opacity="1.000000" fill-rule="nonzero"/>
		</g>
	</g>
	<g mask="url(#mask1_45310)">
		<g style="mix-blend-mode:normal">
			<path id="Path 24186" d="M15.05 20.74C15.3 21.42 14.79 21.85 14.79 21.85L15.97 20.98C15.97 20.98 15.49 20.55 15.05 20.74Z" fill="#260808" fill-opacity="1.000000" fill-rule="nonzero"/>
		</g>
	</g>
	<g mask="url(#mask1_45310)">
		<g style="mix-blend-mode:normal">
			<path id="Path 24187" d="M37.89 27.93C37 30.01 33.29 32.02 33.29 32.02L33.59 32.63L38.67 29.32L37.89 27.93Z" fill="#260808" fill-opacity="1.000000" fill-rule="nonzero"/>
		</g>
	</g>
	<g mask="url(#mask1_45310)">
		<g style="mix-blend-mode:normal">
			<path id="Path 24188" d="M18.81 41.41C16.62 43.41 13.42 44.16 13.42 44.16L14.33 45.25L19.23 41.94L18.81 41.41Z" fill="#260808" fill-opacity="1.000000" fill-rule="nonzero"/>
		</g>
	</g>
	<g mask="url(#mask1_45310)">
		<g style="mix-blend-mode:normal">
			<path id="Path 24189" d="M83.7 0.41C83.12 0.57 82.58 0.83 82.07 1.19L11.07 47.23C9.88 48.09 9.65 51.13 10.74 55.16C11.84 59.19 13.46 61.67 15.04 61.83L99.58 65.61C100.19 65.67 100.79 65.62 101.37 65.46C108.13 63.62 109.64 47.57 104.76 29.61C99.88 11.65 90.45 -1.42 83.7 0.41Z" fill="#FCD100" fill-opacity="1.000000" fill-rule="nonzero"/>
		</g>
	</g>
	<g mask="url(#mask1_45310)">
		<g style="mix-blend-mode:normal">
			<path id="Path 24190" d="M82.07 1.19C82.58 0.83 83.12 0.57 83.7 0.41C90.45 -1.42 99.88 11.65 104.76 29.61C109.64 47.57 108.13 63.62 101.37 65.46C100.79 65.62 100.19 65.66 99.57 65.61L63.75 64.01C59.51 58.13 56.14 51.16 54.03 43.4C51.92 35.63 51.3 27.91 51.98 20.7L82.07 1.19Z" fill="#FFFDEE" fill-opacity="1.000000" fill-rule="nonzero"/>
		</g>
	</g>
	<g mask="url(#mask1_45310)">
		<g style="mix-blend-mode:normal">
			<path id="Path 24191" d="M83.7 0.41C83.47 0.48 83.25 0.56 83.04 0.65C83.25 0.55 83.47 0.47 83.7 0.41Z" fill="#FFFFFF" fill-opacity="1.000000" fill-rule="nonzero"/>
		</g>
	</g>
	<g mask="url(#mask1_45310)">
		<g style="mix-blend-mode:normal">
			<path id="Path 24192" d="M0.37 49.8C0.62 48.1 1.24 46.94 2.19 46.68L11.31 47.07L81.12 1.8C76.24 5.89 77.46 15.63 77.46 15.63C70.95 10.07 10.04 49.72 10.04 49.72L0.37 49.8Z" fill="#FFFFFF" fill-opacity="1.000000" fill-rule="nonzero"/>
		</g>
	</g>
	<g mask="url(#mask1_45310)">
		<g style="mix-blend-mode:normal">
			<path id="Path 24193" d="" fill="#FFFFFF" fill-opacity="1.000000" fill-rule="nonzero"/>
		</g>
	</g>
	<g mask="url(#mask1_45310)">
		<g style="mix-blend-mode:normal">
			<path id="Path 24194" d="M7.25 67.05C7.41 67.05 7.57 67.03 7.72 66.99L15.37 62.1C15.48 62.03 15.52 61.88 15.44 61.76C15.37 61.65 15.22 61.62 15.11 61.69L7.56 66.53C6.66 66.75 5.51 65.97 4.36 64.39C3.14 62.7 2.07 60.32 1.36 57.67C-0.08 52.39 0.32 47.5 2.22 46.92L11.26 47.31C11.4 47.32 11.5 47.22 11.51 47.08C11.52 46.95 11.41 46.83 11.28 46.83L2.2 46.43C-0.06 47.05 -0.68 52.04 0.88 57.8C1.62 60.5 2.71 62.94 3.97 64.68C5.09 66.23 6.24 67.05 7.25 67.05Z" fill="#260808" fill-opacity="1.000000" fill-rule="nonzero"/>
		</g>
	</g>
	<g mask="url(#mask1_45310)">
		<g style="mix-blend-mode:normal">
			<path id="Path 24195" d="M99.58 65.86C99.71 65.86 99.81 65.75 99.82 65.62C99.83 65.49 99.72 65.37 99.59 65.37L15.05 61.59C13.59 61.44 12.03 58.95 10.98 55.09C9.81 50.79 10.28 48.11 11.21 47.43L82.2 1.39C82.32 1.32 82.35 1.17 82.28 1.05C82.2 0.94 82.05 0.91 81.94 0.98L10.94 47.03C9.59 48.01 9.42 51.22 10.51 55.22C11.63 59.34 13.31 61.9 15.01 62.07L99.58 65.86Z" fill="#260808" fill-opacity="1.000000" fill-rule="nonzero"/>
		</g>
	</g>
	<g mask="url(#mask1_45310)">
		<g style="mix-blend-mode:normal">
			<path id="Path 24196" d="M100.1 65.87C100.55 65.87 101 65.81 101.44 65.69C104.81 64.78 107.02 60.48 107.67 53.61C108.32 46.81 107.37 38.26 105 29.55C102.63 20.83 99.13 12.98 95.13 7.44C91.09 1.84 87.01 -0.74 83.63 0.18C80.26 1.09 78.05 5.38 77.4 12.26C76.75 19.06 77.7 27.61 80.07 36.32C84.67 53.24 93.37 65.87 100.1 65.87ZM85.01 0.48C87.92 0.48 91.32 3 94.74 7.73C98.7 13.22 102.18 21.02 104.53 29.68C106.88 38.34 107.83 46.82 107.19 53.56C106.56 60.22 104.47 64.36 101.31 65.22C94.69 67.02 85.38 54 80.54 36.19L80.31 36.26L80.54 36.19C78.19 27.53 77.24 19.05 77.88 12.31C78.51 5.65 80.6 1.5 83.76 0.65C84.17 0.54 84.59 0.48 85.01 0.48Z" fill="#260808" fill-opacity="1.000000" fill-rule="nonzero"/>
		</g>
	</g>
	<g mask="url(#mask1_45310)">
		<g style="mix-blend-mode:normal">
			<path id="Path 24197" d="M84.46 35.42C88.81 51.46 96.56 63.33 101.75 61.92C106.95 60.5 107.62 46.35 103.26 30.31C98.9 14.27 91.16 2.4 85.97 3.81C80.77 5.22 80.1 19.38 84.46 35.42Z" fill="#FCD100" fill-opacity="1.000000" fill-rule="nonzero"/>
		</g>
	</g>
	<g mask="url(#mask1_45310)">
		<g style="mix-blend-mode:normal">
			<path id="Path 24198" d="M85.96 3.81C91.16 2.4 98.9 14.26 103.26 30.31C105.07 36.97 106.01 43.3 106.12 48.53C104.08 27.67 92.13 8.68 87.63 7.66C83.14 6.63 81.6 17.05 81.59 17.11C81.45 9.79 82.94 4.64 85.96 3.81Z" fill="#260808" fill-opacity="1.000000" fill-rule="nonzero"/>
		</g>
	</g>
	<g mask="url(#mask1_45310)">
		<g style="mix-blend-mode:normal">
			<path id="Path 24199" d="M82.23 24.69C85.98 24.5 89.06 24.39 89.67 24.49C91.4 24.78 93.61 26.34 95.18 32.63C96.55 38.11 96.26 41.44 95.01 42.78C94.56 43.26 91.9 45.18 88.67 47.47C87.09 43.89 85.65 39.81 84.45 35.42C83.44 31.7 82.7 28.07 82.23 24.69Z" fill="#FFFDEE" fill-opacity="1.000000" fill-rule="nonzero"/>
		</g>
	</g>
	<g mask="url(#mask1_45310)">
		<g style="mix-blend-mode:normal">
			<path id="Path 24200" d="M88.67 47.71C88.72 47.71 88.77 47.7 88.81 47.67C92.69 44.92 94.78 43.38 95.18 42.94C96.62 41.41 96.7 37.73 95.41 32.57C94.12 27.4 92.26 24.68 89.71 24.25C89.16 24.16 86.7 24.22 82.21 24.45C82.15 24.45 82.08 24.48 82.04 24.53C82 24.59 81.98 24.66 81.99 24.72C82.48 28.21 83.23 31.83 84.22 35.48C85.39 39.79 86.81 43.85 88.45 47.57C88.48 47.63 88.6 47.69 88.67 47.71ZM88.73 24.69C89.19 24.69 89.49 24.71 89.63 24.73C91.93 25.12 93.72 27.79 94.94 32.68C96.17 37.61 96.13 41.22 94.83 42.61C94.46 43 92.42 44.51 88.78 47.1C87.2 43.48 85.82 39.53 84.69 35.36C83.73 31.82 82.99 28.31 82.51 24.92C85.52 24.77 87.6 24.69 88.73 24.69Z" fill="#260808" fill-opacity="1.000000" fill-rule="nonzero"/>
		</g>
	</g>
	<g mask="url(#mask1_45310)">
		<g style="mix-blend-mode:normal">
			<path id="Path 24201" d="M90.89 33.84C91.8 37.17 93.25 39.67 94.15 39.43C95.04 39.19 95.03 36.29 94.12 32.96C93.22 29.63 91.76 27.12 90.87 27.37C89.98 27.61 89.99 30.51 90.89 33.84Z" fill="#260808" fill-opacity="1.000000" fill-rule="nonzero"/>
		</g>
	</g>
	<g mask="url(#mask1_45310)">
		<g style="mix-blend-mode:normal">
			<path id="Path 24202" d="M94.53 43.13C94.66 43.13 94.78 43.12 94.9 43.08C95.03 43.04 95.1 42.91 95.06 42.78C95.03 42.65 94.89 42.58 94.76 42.61C94.14 42.79 93.43 42.21 92.94 41.68C92.85 41.58 92.69 41.58 92.6 41.67C92.5 41.76 92.49 41.92 92.58 42.01C93.27 42.75 93.94 43.13 94.53 43.13Z" fill="#260808" fill-opacity="1.000000" fill-rule="nonzero"/>
		</g>
	</g>
	<g mask="url(#mask1_45310)">
		<g style="mix-blend-mode:normal">
			<path id="Path 24203" d="M91.83 40.89C91.88 40.89 91.92 40.87 91.97 40.85C92.08 40.77 92.11 40.62 92.03 40.51C91.86 40.24 91.68 39.95 91.51 39.64C91.44 39.53 91.29 39.49 91.17 39.55C91.06 39.62 91.02 39.77 91.08 39.88C91.26 40.2 91.45 40.5 91.63 40.78C91.67 40.85 91.75 40.89 91.83 40.89Z" fill="#260808" fill-opacity="1.000000" fill-rule="nonzero"/>
		</g>
	</g>
	<g mask="url(#mask1_45310)">
		<g style="mix-blend-mode:normal">
			<path id="Path 24204" d="M90.27 37.91C90.4 37.86 90.55 37.7 90.5 37.57C90.1 36.62 89.74 35.6 89.43 34.54C88.58 31.57 88.27 28.63 88.6 26.68C88.62 26.55 88.54 26.42 88.4 26.4C88.27 26.38 88.14 26.47 88.12 26.6C87.78 28.61 88.09 31.64 88.97 34.68C89.28 35.76 89.64 36.8 90.05 37.76C90.09 37.86 90.18 37.91 90.27 37.91Z" fill="#260808" fill-opacity="1.000000" fill-rule="nonzero"/>
		</g>
	</g>
	<g mask="url(#mask1_45310)">
		<g style="mix-blend-mode:normal">
			<path id="Path 24205" d="M88.84 25.43C88.92 25.43 89 25.39 89.05 25.31C89.23 25.01 89.44 24.83 89.68 24.76C89.81 24.72 89.88 24.59 89.84 24.46C89.81 24.33 89.67 24.26 89.54 24.29C89.18 24.4 88.88 24.66 88.63 25.06C88.56 25.17 88.6 25.32 88.72 25.39C88.76 25.42 88.8 25.43 88.84 25.43Z" fill="#260808" fill-opacity="1.000000" fill-rule="nonzero"/>
		</g>
	</g>
	<g mask="url(#mask1_45310)">
		<g style="mix-blend-mode:normal">
			<path id="Path 24206" d="M100.89 62.27C101.21 62.27 101.52 62.23 101.82 62.15C104.44 61.44 106.04 57.69 106.33 51.61C106.62 45.62 105.61 38.03 103.5 30.25C101.38 22.46 98.41 15.41 95.13 10.38C91.8 5.28 88.52 2.86 85.9 3.58C83.28 4.29 81.67 8.03 81.38 14.12C81.1 20.11 82.1 27.7 84.22 35.48C86.33 43.27 89.31 50.32 92.59 55.35C95.53 59.86 98.44 62.27 100.89 62.27ZM86.85 3.94C91.88 3.94 98.94 15.33 103.03 30.37C107.35 46.26 106.74 60.31 101.69 61.68C101.42 61.75 101.14 61.79 100.86 61.79C95.83 61.79 88.78 50.4 84.69 35.36C82.59 27.62 81.59 20.09 81.87 14.14C82.15 8.37 83.66 4.69 86.03 4.05C86.3 3.98 86.57 3.94 86.85 3.94Z" fill="#260808" fill-opacity="1.000000" fill-rule="nonzero"/>
		</g>
	</g>
	<g mask="url(#mask1_45310)">
		<g style="mix-blend-mode:normal">
			<path id="Path 24207" d="M80.51 14.26C80.64 14.26 80.75 14.16 80.75 14.03C81.06 8.27 82.49 4.37 84.79 3.05C84.9 2.99 84.95 2.84 84.88 2.72C84.81 2.6 84.66 2.56 84.55 2.63C82.1 4.03 80.58 8.07 80.27 14C80.26 14.14 80.38 14.25 80.51 14.26Z" fill="#FFFFFF" fill-opacity="1.000000" fill-rule="nonzero"/>
		</g>
	</g>
	<g mask="url(#mask1_45310)">
		<g style="mix-blend-mode:normal">
			<path id="Path 24208" d="M85.6 2.7C85.99 2.59 86.47 2.54 86.89 2.57C87.03 2.58 87.14 2.48 87.15 2.34C87.16 2.21 87.05 2.09 86.92 2.08C86.44 2.05 85.98 2.1 85.53 2.22C85.4 2.26 85.33 2.39 85.36 2.52C85.39 2.63 85.49 2.7 85.6 2.7Z" fill="#FFFFFF" fill-opacity="1.000000" fill-rule="nonzero"/>
		</g>
	</g>
	<g mask="url(#mask1_45310)">
		<g style="mix-blend-mode:normal">
			<path id="Path 24209" d="M101.08 63.65C101.46 63.65 101.83 63.6 102.18 63.51C102.31 63.47 102.39 63.34 102.36 63.21C102.32 63.08 102.19 63 102.06 63.04C101.31 63.24 100.5 63.2 99.65 62.93C99.52 62.89 99.38 62.96 99.34 63.08C99.3 63.21 99.37 63.35 99.5 63.39C100.04 63.57 100.57 63.65 101.08 63.65Z" fill="#FFFFFF" fill-opacity="1.000000" fill-rule="nonzero"/>
		</g>
	</g>
	<g mask="url(#mask1_45310)">
		<g style="mix-blend-mode:normal">
			<path id="Path 24210" d="M97.88 62.59C97.96 62.59 98.04 62.55 98.09 62.48C98.16 62.36 98.13 62.21 98.01 62.14C97.69 61.94 97.37 61.71 97.04 61.46C96.85 61.31 96.66 61.14 96.46 60.97C96.27 60.81 96.08 60.63 95.89 60.45C93.1 57.76 90.2 53.2 87.72 47.59C87.67 47.47 87.52 47.41 87.4 47.47C87.28 47.52 87.22 47.67 87.28 47.79C89.78 53.45 92.72 58.07 95.55 60.8C95.75 60.99 95.94 61.17 96.14 61.34C96.34 61.52 96.54 61.68 96.75 61.84C97.08 62.11 97.42 62.35 97.75 62.55C97.79 62.58 97.84 62.59 97.88 62.59Z" fill="#FFFFFF" fill-opacity="1.000000" fill-rule="nonzero"/>
		</g>
	</g>
	<g mask="url(#mask1_45310)">
		<g style="mix-blend-mode:normal">
			<path id="Path 24211" d="M80.49 18.66C80.62 18.66 80.74 18.54 80.73 18.41C80.71 17.88 80.7 17.35 80.7 16.84C80.7 16.71 80.59 16.6 80.45 16.6C80.32 16.6 80.21 16.71 80.21 16.84C80.21 17.36 80.23 17.89 80.25 18.43C80.25 18.56 80.36 18.66 80.49 18.66Z" fill="#FFFFFF" fill-opacity="1.000000" fill-rule="nonzero"/>
		</g>
	</g>
	<g mask="url(#mask1_45310)">
		<g style="mix-blend-mode:normal">
			<path id="Path 24212" d="M60.12 15.88C60.28 19.33 58.02 22.23 55.08 22.36C52.15 22.49 49.64 19.8 49.49 16.35C49.34 12.9 51.59 10 54.53 9.87C57.47 9.74 59.97 12.43 60.12 15.88Z" fill="#FFFFFF" fill-opacity="1.000000" fill-rule="nonzero"/>
		</g>
	</g>
	<g mask="url(#mask1_45310)">
		<g style="mix-blend-mode:normal">
			<path id="Path 24213" d="M54.88 22.61C54.95 22.61 55.02 22.61 55.09 22.6C56.59 22.54 57.96 21.8 58.95 20.52C59.94 19.25 60.44 17.6 60.37 15.87C60.29 14.14 59.65 12.54 58.55 11.37C57.45 10.18 56.02 9.56 54.52 9.63C53.03 9.69 51.66 10.43 50.66 11.71C49.67 12.98 49.17 14.63 49.25 16.36C49.32 18.09 49.97 19.69 51.06 20.86C52.12 21.99 53.46 22.61 54.88 22.61ZM54.74 10.11C56.01 10.11 57.24 10.67 58.19 11.7C59.21 12.79 59.81 14.28 59.88 15.89C59.95 17.5 59.49 19.04 58.57 20.22C57.66 21.38 56.42 22.06 55.07 22.12C53.72 22.18 52.43 21.61 51.42 20.53C50.4 19.44 49.8 17.95 49.73 16.34C49.66 14.73 50.13 13.19 51.04 12.01C51.95 10.85 53.19 10.17 54.54 10.11C54.61 10.11 54.67 10.11 54.74 10.11Z" fill="#260808" fill-opacity="1.000000" fill-rule="nonzero"/>
		</g>
	</g>
	<g mask="url(#mask1_45310)">
		<g style="mix-blend-mode:normal">
			<path id="Path 24214" d="M57.62 15.82C57.86 18.65 56.26 21.11 54.03 21.3C51.8 21.5 49.79 19.36 49.54 16.52C49.3 13.69 50.9 11.23 53.13 11.04C55.36 10.84 57.37 12.98 57.62 15.82Z" fill="#260808" fill-opacity="1.000000" fill-rule="nonzero"/>
		</g>
	</g>
	<g mask="url(#mask1_45310)">
		<g style="mix-blend-mode:normal">
			<path id="Path 24215" d="M58.94 16.21C58.62 17.4 57.4 18.1 56.21 17.78C55.03 17.46 54.32 16.24 54.64 15.05C54.96 13.86 56.18 13.16 57.37 13.48C58.56 13.8 59.26 15.02 58.94 16.21Z" fill="#FFFFFF" fill-opacity="1.000000" fill-rule="nonzero"/>
		</g>
	</g>
	<g mask="url(#mask1_45310)">
		<g style="mix-blend-mode:normal">
			<path id="Path 24216" d="M43.58 91.98C43.17 96.48 39.09 98.55 36.21 97.4C34.8 101.06 31.25 100.79 31.25 100.79C31.25 100.79 30.04 99.89 30.39 97.51C30.74 95.13 43.58 91.98 43.58 91.98Z" fill="#260808" fill-opacity="1.000000" fill-rule="nonzero"/>
		</g>
	</g>
	<g mask="url(#mask1_45310)">
		<g style="mix-blend-mode:normal">
			<path id="Path 24217" d="M30.22 77.33C24.11 76.05 23.76 80.48 22.92 83.28C21.93 83.54 20.98 83.64 20.14 83.73C18.13 83.95 16.54 84.12 15.73 86.16C15.27 87.3 15.57 88.64 16.53 89.73C17.12 90.4 18.01 91.03 19.16 91.42C19.34 93.49 20.59 95.2 22.54 96.02C22.79 96.13 23.05 96.21 23.31 96.28C24.32 96.55 25.39 96.57 26.48 96.33C26.97 97.68 28.13 98.72 29.59 99.11C29.73 99.14 29.87 99.18 30.01 99.2C32.12 99.58 34.3 98.63 35.84 96.66C35.99 96.48 36.13 96.29 36.26 96.11C36.6 96.32 36.96 96.48 37.34 96.58C38.17 96.8 39.06 96.76 39.91 96.46C41.58 95.86 42.87 94.4 43.45 92.46C44.52 88.93 43.31 84.08 42.91 82.49C42.86 82.29 42.82 82.11 42.81 82.05C42.81 81.99 42.78 81.92 42.71 81.89L30.22 77.33Z" fill="#FCD100" fill-opacity="1.000000" fill-rule="nonzero"/>
		</g>
	</g>
	<g mask="url(#mask1_45310)">
		<g style="mix-blend-mode:normal">
			<path id="Path 24218" d="M21.78 91.92C22.58 91.92 23.44 91.81 24.37 91.57C26.46 91.04 28.3 89.78 29.86 87.81C29.94 87.71 29.92 87.56 29.82 87.47C29.71 87.39 29.56 87.41 29.48 87.51C27.99 89.39 26.23 90.6 24.25 91.1C20.66 92.02 18.06 90.85 16.84 89.46C15.98 88.49 15.71 87.31 16.11 86.31C16.83 84.5 18.24 84.35 20.19 84.14C21.08 84.05 22.08 83.94 23.15 83.65C23.25 83.62 23.32 83.53 23.32 83.43C23.47 81.38 24.4 78.83 26.14 77.77C27.25 77.09 28.59 77.07 30.12 77.72C30.24 77.77 30.38 77.72 30.44 77.59C30.49 77.47 30.43 77.33 30.31 77.27C28.63 76.56 27.14 76.59 25.88 77.36C24.05 78.48 23.05 81.08 22.85 83.22C21.89 83.47 20.96 83.57 20.13 83.66C18.18 83.87 16.49 84.05 15.66 86.13C15.19 87.3 15.5 88.67 16.47 89.78C17.47 90.92 19.3 91.92 21.78 91.92Z" fill="#260808" fill-opacity="1.000000" fill-rule="nonzero"/>
		</g>
	</g>
	<g mask="url(#mask1_45310)">
		<g style="mix-blend-mode:normal">
			<path id="Path 24219" d="M24.97 96.58C26.93 96.58 29.02 95.74 30.89 94.14C32.13 93.08 33.64 91.06 34.13 89.23C34.16 89.1 34.09 88.97 33.96 88.94C33.83 88.9 33.69 88.98 33.66 89.11C33.2 90.82 31.73 92.78 30.58 93.77C28.03 95.94 25.08 96.64 22.7 95.64C20.87 94.87 19.69 93.24 19.55 91.29C19.55 91.15 19.43 91.05 19.29 91.06C19.16 91.07 19.06 91.19 19.07 91.32C19.22 93.47 20.5 95.25 22.51 96.09C23.29 96.42 24.12 96.58 24.97 96.58Z" fill="#260808" fill-opacity="1.000000" fill-rule="nonzero"/>
		</g>
	</g>
	<g mask="url(#mask1_45310)">
		<g style="mix-blend-mode:normal">
			<path id="Path 24220" d="M30.92 99.36C32.76 99.36 34.57 98.41 35.91 96.71C39.49 92.16 39.41 86.5 39.41 86.44C39.41 86.31 39.3 86.21 39.17 86.21C39.03 86.21 38.92 86.32 38.92 86.45C38.93 86.51 39 92 35.52 96.41C34.07 98.25 32.04 99.14 30.08 98.8C28.52 98.52 27.27 97.47 26.82 96.07C26.78 95.94 26.64 95.87 26.51 95.92C26.38 95.96 26.31 96.1 26.35 96.22C26.87 97.8 28.26 98.97 30 99.28C30.31 99.33 30.62 99.36 30.92 99.36Z" fill="#260808" fill-opacity="1.000000" fill-rule="nonzero"/>
		</g>
	</g>
	<g mask="url(#mask1_45310)">
		<g style="mix-blend-mode:normal">
			<path id="Path 24221" d="M38.42 96.8C38.93 96.8 39.44 96.71 39.94 96.53C41.62 95.93 42.93 94.45 43.53 92.48C44.6 88.93 43.38 84.07 42.98 82.47C42.94 82.28 42.89 82.11 42.88 82.05C42.89 81.95 42.83 81.86 42.75 81.82C42.62 81.76 42.48 81.82 42.42 81.94C42.37 82.03 42.38 82.06 42.51 82.59C42.9 84.15 44.09 88.92 43.06 92.34C42.52 94.13 41.29 95.53 39.77 96.07C38.58 96.5 37.36 96.36 36.35 95.68C36.24 95.61 36.09 95.64 36.01 95.75C35.94 95.86 35.97 96.01 36.08 96.09C36.78 96.56 37.59 96.8 38.42 96.8Z" fill="#260808" fill-opacity="1.000000" fill-rule="nonzero"/>
		</g>
	</g>
	<g mask="url(#mask1_45310)">
		<g style="mix-blend-mode:normal">
			<path id="Path 24222" d="M42.81 82.05C41.23 76.71 39.33 72.61 39.54 70.42C39.97 66.14 44.08 62.77 44.08 62.77C44.08 62.77 37.39 56.3 36.9 56.58C36.4 56.86 29.56 58.62 27.55 64.09C25.12 70.71 30.21 77.5 30.21 77.5L42.81 82.05Z" fill="#FCD100" fill-opacity="1.000000" fill-rule="nonzero"/>
		</g>
	</g>
	<g mask="url(#mask1_45310)">
		<g style="mix-blend-mode:normal">
			<path id="Path 24223" d="M30.21 77.74C30.26 77.74 30.32 77.72 30.36 77.69C30.47 77.61 30.49 77.46 30.41 77.35C30.36 77.28 25.42 70.59 27.78 64.18C29.5 59.51 34.78 57.61 36.51 56.99C36.81 56.88 36.94 56.84 37.02 56.79C37.14 56.73 37.18 56.58 37.11 56.46C37.05 56.34 36.9 56.3 36.78 56.37C36.74 56.39 36.55 56.46 36.35 56.53C34.56 57.17 29.12 59.12 27.32 64.01C24.87 70.67 29.97 77.57 30.02 77.64C30.07 77.71 30.14 77.74 30.21 77.74Z" fill="#260808" fill-opacity="1.000000" fill-rule="nonzero"/>
		</g>
	</g>
	<g mask="url(#mask1_45310)">
		<g style="mix-blend-mode:normal">
			<path id="Path 24224" d="M42.64 82.29C42.77 82.25 42.91 82.1 42.87 81.97C42.4 80.36 41.9 78.84 41.46 77.5C40.44 74.39 39.64 71.93 39.79 70.44C40.2 66.31 44.19 63 44.23 62.96C44.34 62.88 44.35 62.72 44.27 62.62C44.18 62.52 44.03 62.5 43.92 62.59C43.75 62.73 39.74 66.06 39.3 70.4C39.14 71.98 39.96 74.48 41 77.65C41.44 78.99 41.93 80.51 42.41 82.11C42.44 82.22 42.53 82.29 42.64 82.29Z" fill="#260808" fill-opacity="1.000000" fill-rule="nonzero"/>
		</g>
	</g>
	<g mask="url(#mask1_45310)">
		<g style="mix-blend-mode:normal">
			<path id="Path 24225" d="M11.76 48.69C11.88 48.69 11.99 48.59 12 48.46C12.06 47.61 12.22 46.97 12.45 46.6C12.53 46.48 12.49 46.33 12.38 46.26C12.26 46.19 12.11 46.22 12.04 46.34C11.76 46.78 11.58 47.49 11.51 48.43C11.5 48.56 11.62 48.68 11.76 48.69Z" fill="#260808" fill-opacity="1.000000" fill-rule="nonzero"/>
		</g>
	</g>
	<g mask="url(#mask1_45310)">
		<g style="mix-blend-mode:normal">
			<path id="Path 24226" d="M11.79 51.12C11.93 51.11 12.05 50.99 12.04 50.86C12 50.47 11.98 50.08 11.97 49.72C11.97 49.59 11.86 49.48 11.73 49.48C11.59 49.48 11.48 49.6 11.48 49.73C11.49 50.1 11.51 50.5 11.55 50.9C11.56 51.03 11.67 51.12 11.79 51.12Z" fill="#260808" fill-opacity="1.000000" fill-rule="nonzero"/>
		</g>
	</g>
	<g mask="url(#mask1_45310)">
		<g style="mix-blend-mode:normal">
			<path id="Path 24227" d="M13.74 58.51C13.77 58.51 13.81 58.51 13.84 58.49C13.96 58.43 14.01 58.29 13.96 58.16C13.19 56.58 12.58 54.56 12.24 52.49C12.22 52.36 12.1 52.27 11.96 52.29C11.83 52.31 11.74 52.43 11.76 52.57C12.11 54.69 12.73 56.75 13.52 58.38C13.56 58.46 13.65 58.51 13.74 58.51Z" fill="#260808" fill-opacity="1.000000" fill-rule="nonzero"/>
		</g>
	</g>
	<g mask="url(#mask1_45310)">
		<g style="mix-blend-mode:normal">
			<path id="Path 24228" d="M16.92 62.14C17.01 62.14 17.1 62.09 17.14 61.99C17.19 61.87 17.14 61.73 17.02 61.67C16.41 61.41 15.83 60.94 15.29 60.29C15.2 60.19 15.05 60.17 14.94 60.26C14.84 60.34 14.83 60.5 14.91 60.6C15.5 61.31 16.25 61.84 16.92 62.14Z" fill="#260808" fill-opacity="1.000000" fill-rule="nonzero"/>
		</g>
	</g>
	<g mask="url(#mask1_45310)">
		<g style="mix-blend-mode:normal">
			<path id="Path 24229" d="M50.71 6.19C52.69 7.47 55.44 7.65 55.99 7.38C56.55 7.1 57.38 4.59 54.81 3.97C50.76 2.98 48.76 4.94 50.71 6.19Z" fill="#260808" fill-opacity="1.000000" fill-rule="nonzero"/>
		</g>
	</g>
	<g mask="url(#mask1_45310)">
		<g style="mix-blend-mode:normal">
			<path id="Path 24230" d="M66.01 4.74C64.43 6.49 61.83 7.39 61.22 7.26C60.61 7.14 59.14 4.94 61.46 3.66C65.11 1.65 67.55 3.02 66.01 4.74Z" fill="#260808" fill-opacity="1.000000" fill-rule="nonzero"/>
		</g>
	</g>
</svg>
