<svg width="266.000000" height="240.000000" viewBox="0 0 266 240" fill="none" xmlns="http://www.w3.org/2000/svg" xmlns:xlink="http://www.w3.org/1999/xlink">
	<desc>
			Created with Pixso.
	</desc>
	<defs>
		<linearGradient x1="38.115364" y1="267.311890" x2="41.262665" y2="267.311890" id="paint_linear_20_476_0" gradientUnits="userSpaceOnUse">
			<stop stop-color="#FC4210"/>
			<stop offset="1.000000" stop-color="#FF9923"/>
		</linearGradient>
		<linearGradient x1="34.039757" y1="271.739685" x2="37.187050" y2="271.739685" id="paint_linear_20_480_0" gradientUnits="userSpaceOnUse">
			<stop stop-color="#FC4210"/>
			<stop offset="1.000000" stop-color="#FF9923"/>
		</linearGradient>
		<linearGradient x1="30.521744" y1="273.425110" x2="33.669037" y2="273.425110" id="paint_linear_20_484_0" gradientUnits="userSpaceOnUse">
			<stop stop-color="#FC4210"/>
			<stop offset="1.000000" stop-color="#FF9923"/>
		</linearGradient>
		<linearGradient x1="80.714981" y1="309.940948" x2="83.708527" y2="308.968292" id="paint_linear_20_488_0" gradientUnits="userSpaceOnUse">
			<stop stop-color="#FC4210"/>
			<stop offset="1.000000" stop-color="#FF9923"/>
		</linearGradient>
		<linearGradient x1="26.026321" y1="254.674698" x2="29.173615" y2="254.674698" id="paint_linear_20_492_0" gradientUnits="userSpaceOnUse">
			<stop stop-color="#FC4210"/>
			<stop offset="1.000000" stop-color="#FF9923"/>
		</linearGradient>
		<linearGradient x1="61.366707" y1="255.290955" x2="64.514000" y2="255.290955" id="paint_linear_20_496_0" gradientUnits="userSpaceOnUse">
			<stop stop-color="#FC4210"/>
			<stop offset="1.000000" stop-color="#FF9923"/>
		</linearGradient>
		<linearGradient x1="37.298935" y1="210.424866" x2="40.446232" y2="210.424866" id="paint_linear_20_500_0" gradientUnits="userSpaceOnUse">
			<stop stop-color="#FC4210"/>
			<stop offset="1.000000" stop-color="#FF9923"/>
		</linearGradient>
		<linearGradient x1="21.605637" y1="203.179657" x2="24.752932" y2="203.179657" id="paint_linear_20_504_0" gradientUnits="userSpaceOnUse">
			<stop stop-color="#FC4210"/>
			<stop offset="1.000000" stop-color="#FF9923"/>
		</linearGradient>
		<linearGradient x1="-8.993523" y1="196.271698" x2="-5.846226" y2="196.271698" id="paint_linear_20_508_0" gradientUnits="userSpaceOnUse">
			<stop stop-color="#FC4210"/>
			<stop offset="1.000000" stop-color="#FF9923"/>
		</linearGradient>
		<linearGradient x1="-5.583263" y1="232.145218" x2="-2.435959" y2="232.145218" id="paint_linear_20_512_0" gradientUnits="userSpaceOnUse">
			<stop stop-color="#FC4210"/>
			<stop offset="1.000000" stop-color="#FF9923"/>
		</linearGradient>
		<linearGradient x1="-33.387283" y1="239.733505" x2="-30.240112" y2="239.733505" id="paint_linear_20_516_0" gradientUnits="userSpaceOnUse">
			<stop stop-color="#FC4210"/>
			<stop offset="1.000000" stop-color="#FF9923"/>
		</linearGradient>
		<linearGradient x1="-22.755829" y1="237.445618" x2="-19.608536" y2="237.445618" id="paint_linear_20_520_0" gradientUnits="userSpaceOnUse">
			<stop stop-color="#FC4210"/>
			<stop offset="1.000000" stop-color="#FF9923"/>
		</linearGradient>
		<linearGradient x1="-27.955261" y1="280.604736" x2="-24.807938" y2="280.604736" id="paint_linear_20_524_0" gradientUnits="userSpaceOnUse">
			<stop stop-color="#FC4210"/>
			<stop offset="1.000000" stop-color="#FF9923"/>
		</linearGradient>
		<radialGradient gradientTransform="translate(161.21 98.6976) rotate(0) scale(68.5035 68.5035)" cx="0.000000" cy="0.000000" r="1.000000" id="paint_radial_20_542_0" gradientUnits="userSpaceOnUse">
			<stop stop-color="#FCF333"/>
			<stop offset="0.190000" stop-color="#FCEE32"/>
			<stop offset="0.410000" stop-color="#FDDF2F"/>
			<stop offset="0.660000" stop-color="#FDC72B"/>
			<stop offset="0.920000" stop-color="#FFA525"/>
			<stop offset="1.000000" stop-color="#FF9923"/>
		</radialGradient>
		<linearGradient x1="27.865181" y1="190.995361" x2="31.012482" y2="190.995361" id="paint_linear_20_612_0" gradientUnits="userSpaceOnUse">
			<stop stop-color="#FC4210"/>
			<stop offset="1.000000" stop-color="#FF9923"/>
		</linearGradient>
		<linearGradient x1="17.231812" y1="238.712616" x2="20.379097" y2="238.712616" id="paint_linear_20_616_0" gradientUnits="userSpaceOnUse">
			<stop stop-color="#FC4210"/>
			<stop offset="1.000000" stop-color="#FF9923"/>
		</linearGradient>
		<linearGradient x1="10.824219" y1="253.828094" x2="13.971512" y2="253.828094" id="paint_linear_20_620_0" gradientUnits="userSpaceOnUse">
			<stop stop-color="#FC4210"/>
			<stop offset="1.000000" stop-color="#FF9923"/>
		</linearGradient>
		<linearGradient x1="1.646011" y1="249.513977" x2="4.793289" y2="249.513977" id="paint_linear_20_624_0" gradientUnits="userSpaceOnUse">
			<stop stop-color="#FC4210"/>
			<stop offset="1.000000" stop-color="#FF9923"/>
		</linearGradient>
		<linearGradient x1="28.705040" y1="206.450027" x2="31.852337" y2="206.450027" id="paint_linear_20_637_0" gradientUnits="userSpaceOnUse">
			<stop stop-color="#FC4210"/>
			<stop offset="1.000000" stop-color="#FF9923"/>
		</linearGradient>
		<linearGradient x1="24.456978" y1="222.314270" x2="27.604271" y2="222.314270" id="paint_linear_20_646_0" gradientUnits="userSpaceOnUse">
			<stop stop-color="#FC4210"/>
			<stop offset="1.000000" stop-color="#FF9923"/>
		</linearGradient>
	</defs>
	<mask id="mask20_655" mask-type="alpha" maskUnits="userSpaceOnUse" x="0.000000" y="0.000000" width="266.000000" height="240.000000">
		<rect id="Rectangle 3527" width="266.000000" height="240.000000" fill="#FFFFFF" fill-opacity="1.000000"/>
	</mask>
	<g mask="url(#mask20_655)">
		<mask id="mask20_475" mask-type="alpha" maskUnits="userSpaceOnUse" x="133.426025" y="16.825195" width="74.462891" height="86.649170">
			<g style="mix-blend-mode:normal">
				<path id="Path 19990" d="M133.42 82.61L151.38 88.75L207.88 37.68C207.88 37.68 134.1 81.82 133.42 82.61Z" fill="#C4C4C4" fill-opacity="1.000000" fill-rule="nonzero"/>
			</g>
		</mask>
		<g mask="url(#mask20_475)">
			<g style="mix-blend-mode:normal">
				<rect id="Rectangle 2805" x="113.542725" y="54.209473" width="86.766182" height="75.241112" transform="rotate(-34.9928 113.542725 54.209473)" fill="url(#paint_linear_20_476_0)" fill-opacity="1.000000"/>
			</g>
		</g>
		<mask id="mask20_479" mask-type="alpha" maskUnits="userSpaceOnUse" x="155.918945" y="41.582031" width="62.937256" height="72.056396">
			<g style="mix-blend-mode:normal">
				<path id="Path 19991" d="M158.21 91.07L167.13 101.3L218.85 59.62C218.85 59.62 160.32 89.64 158.21 91.07Z" fill="#C4C4C4" fill-opacity="1.000000" fill-rule="nonzero"/>
			</g>
		</mask>
		<g mask="url(#mask20_479)">
			<g style="mix-blend-mode:normal">
				<rect id="Rectangle 2806" x="139.589111" y="72.224609" width="72.189476" height="63.588364" transform="rotate(-34.9458 139.589111 72.224609)" fill="url(#paint_linear_20_480_0)" fill-opacity="1.000000"/>
			</g>
		</g>
		<mask id="mask20_483" mask-type="alpha" maskUnits="userSpaceOnUse" x="174.462402" y="54.920654" width="91.466553" height="89.858643">
			<g style="mix-blend-mode:normal">
				<path id="Path 19992" d="M178.43 105.54L179.84 116.08L265.92 86.36C265.81 86.3 179.53 105.26 178.43 105.54Z" fill="#C4C4C4" fill-opacity="1.000000" fill-rule="nonzero"/>
			</g>
		</mask>
		<g mask="url(#mask20_483)">
			<g style="mix-blend-mode:normal">
				<rect id="Rectangle 2807" x="163.963135" y="63.379883" width="95.062576" height="94.507202" transform="rotate(-11.8675 163.963135 63.379883)" fill="url(#paint_linear_20_484_0)" fill-opacity="1.000000"/>
			</g>
		</g>
		<mask id="mask20_487" mask-type="alpha" maskUnits="userSpaceOnUse" x="210.665527" y="120.834473" width="0.013916" height="0.007080">
			<g style="mix-blend-mode:normal">
				<path id="Path 19993" d="" fill="#C4C4C4" fill-opacity="1.000000" fill-rule="nonzero"/>
			</g>
		</mask>
		<g mask="url(#mask20_487)">
			<g style="mix-blend-mode:normal">
				<path id="Path 20092" d="" fill="url(#paint_linear_20_488_0)" fill-opacity="1.000000" fill-rule="nonzero"/>
			</g>
		</g>
		<mask id="mask20_491" mask-type="alpha" maskUnits="userSpaceOnUse" x="183.177979" y="110.806396" width="27.359863" height="25.172852">
			<g style="mix-blend-mode:normal">
				<path id="Path 19994" d="M186.77 118.91L186.57 127.7C186.57 127.7 209.27 120.86 210.53 120.8C209.32 120.75 188.86 119.19 186.77 118.91Z" fill="#C4C4C4" fill-opacity="1.000000" fill-rule="nonzero"/>
			</g>
		</mask>
		<g mask="url(#mask20_491)">
			<g style="mix-blend-mode:normal">
				<rect id="Rectangle 2809" x="183.220459" y="110.785156" width="27.345114" height="25.139154" transform="rotate(0.162302 183.220459 110.785156)" fill="url(#paint_linear_20_492_0)" fill-opacity="1.000000"/>
			</g>
		</g>
		<mask id="mask20_495" mask-type="alpha" maskUnits="userSpaceOnUse" x="123.250244" y="12.749756" width="41.860352" height="66.129883">
			<g style="mix-blend-mode:normal">
				<path id="Path 19995" d="M165.06 18.37C163.94 19.45 123.25 73.26 123.25 73.26L131.04 77.23C131.49 75.53 165.41 18.55 165.06 18.37Z" fill="#C4C4C4" fill-opacity="1.000000" fill-rule="nonzero"/>
			</g>
		</mask>
		<g mask="url(#mask20_495)">
			<g style="mix-blend-mode:normal">
				<rect id="Rectangle 2810" x="115.756348" y="68.069336" width="69.008331" height="21.744110" transform="rotate(-55.2858 115.756348 68.069336)" fill="url(#paint_linear_20_496_0)" fill-opacity="1.000000"/>
			</g>
		</g>
		<mask id="mask20_499" mask-type="alpha" maskUnits="userSpaceOnUse" x="38.597412" y="0.142090" width="85.737061" height="86.812988">
			<g style="mix-blend-mode:normal">
				<path id="Path 19996" d="M92.66 85.93C93.21 85.4 100.71 75.05 100.71 75.05C99.84 73.02 69.39 2.79 68.27 0.14C69.29 2.99 92.1 86.49 92.66 85.93Z" fill="#C4C4C4" fill-opacity="1.000000" fill-rule="nonzero"/>
			</g>
		</mask>
		<g mask="url(#mask20_499)">
			<g style="mix-blend-mode:normal">
				<rect id="Rectangle 2811" x="23.471191" y="15.276123" width="91.262360" height="91.209908" transform="rotate(-18.6625 23.471191 15.276123)" fill="url(#paint_linear_20_500_0)" fill-opacity="1.000000"/>
			</g>
		</g>
		<mask id="mask20_503" mask-type="alpha" maskUnits="userSpaceOnUse" x="34.767090" y="56.900391" width="48.679688" height="41.797607">
			<g style="mix-blend-mode:normal">
				<path id="Path 19997" d="M46.45 56.98C46.98 58.63 68.66 97.12 68.66 97.12L77.12 88.15C75.68 85.79 48.33 57.94 46.45 56.98Z" fill="#C4C4C4" fill-opacity="1.000000" fill-rule="nonzero"/>
			</g>
		</mask>
		<g mask="url(#mask20_503)">
			<g style="mix-blend-mode:normal">
				<rect id="Rectangle 2812" x="27.777832" y="69.676514" width="42.490955" height="48.797310" transform="rotate(-34.421 27.777832 69.676514)" fill="url(#paint_linear_20_504_0)" fill-opacity="1.000000"/>
			</g>
		</g>
		<mask id="mask20_507" mask-type="alpha" maskUnits="userSpaceOnUse" x="0.187988" y="103.099365" width="71.902832" height="74.906250">
			<g style="mix-blend-mode:normal">
				<path id="Path 19998" d="M0.21 154.79C1.59 154.79 60.21 149.62 60.21 149.62L62.41 121.38C59.98 122.34 -1.23 154.91 0.21 154.79Z" fill="#C4C4C4" fill-opacity="1.000000" fill-rule="nonzero"/>
			</g>
		</mask>
		<g mask="url(#mask20_507)">
			<g style="mix-blend-mode:normal">
				<rect id="Rectangle 2813" x="-13.346191" y="114.077881" width="78.417946" height="78.649460" transform="rotate(-16.539 -13.346191 114.077881)" fill="url(#paint_linear_20_508_0)" fill-opacity="1.000000"/>
			</g>
		</g>
		<mask id="mask20_511" mask-type="alpha" maskUnits="userSpaceOnUse" x="61.315430" y="152.747559" width="32.847168" height="50.454590">
			<g style="mix-blend-mode:normal">
				<path id="Path 19999" d="M62.54 198.91L91.56 162.76L84.68 152.83C81.52 157.29 62.54 198.91 62.54 198.91Z" fill="#C4C4C4" fill-opacity="1.000000" fill-rule="nonzero"/>
			</g>
		</mask>
		<g mask="url(#mask20_511)">
			<g style="mix-blend-mode:normal">
				<rect id="Rectangle 2814" x="57.735840" y="196.189453" width="51.782055" height="14.946308" transform="rotate(-59.0182 57.735840 196.189453)" fill="url(#paint_linear_20_512_0)" fill-opacity="1.000000"/>
			</g>
		</g>
		<mask id="mask20_515" mask-type="alpha" maskUnits="userSpaceOnUse" x="135.777588" y="239.517090" width="0.010010" height="0.011230">
			<g style="mix-blend-mode:normal">
				<path id="Path 20000" d="" fill="#C4C4C4" fill-opacity="1.000000" fill-rule="nonzero"/>
			</g>
		</mask>
		<g mask="url(#mask20_515)">
			<g style="mix-blend-mode:normal">
				<rect id="Rectangle 2815" x="135.769043" y="239.521729" width="0.024491" height="0.024487" transform="rotate(-17.9914 135.769043 239.521729)" fill="url(#paint_linear_20_516_0)" fill-opacity="1.000000"/>
			</g>
		</g>
		<mask id="mask20_519" mask-type="alpha" maskUnits="userSpaceOnUse" x="94.643555" y="168.863770" width="66.457520" height="70.652588">
			<g style="mix-blend-mode:normal">
				<path id="Path 20001" d="M117.94 172.81C118.48 176.62 135.42 238.06 135.78 239.51C135.46 238.05 136.58 177.62 136.59 177.33C136.58 177.61 117.94 172.81 117.94 172.81Z" fill="#C4C4C4" fill-opacity="1.000000" fill-rule="nonzero"/>
			</g>
		</mask>
		<g mask="url(#mask20_519)">
			<g style="mix-blend-mode:normal">
				<rect id="Rectangle 2816" x="88.463379" y="173.151611" width="69.725174" height="72.140633" transform="rotate(-7.75078 88.463379 173.151611)" fill="url(#paint_linear_20_520_0)" fill-opacity="1.000000"/>
			</g>
		</g>
		<mask id="mask20_523" mask-type="alpha" maskUnits="userSpaceOnUse" x="139.301270" y="168.804199" width="78.047607" height="62.063965">
			<g style="mix-blend-mode:normal">
				<path id="Path 20002" d="M150.5 176.93C151.48 177.71 202 230.86 202 230.86L165.86 174.52L150.5 176.93Z" fill="#C4C4C4" fill-opacity="1.000000" fill-rule="nonzero"/>
			</g>
		</mask>
		<g mask="url(#mask20_523)">
			<g style="mix-blend-mode:normal">
				<rect id="Rectangle 2817" x="130.347168" y="186.891113" width="61.511314" height="78.063629" transform="rotate(-36.6635 130.347168 186.891113)" fill="url(#paint_linear_20_524_0)" fill-opacity="1.000000"/>
			</g>
		</g>
		<mask id="mask20_527" mask-type="alpha" maskUnits="userSpaceOnUse" x="-15.000000" y="-27.000000" width="296.715332" height="291.724121">
			<g style="mix-blend-mode:normal">
				<rect id="Rectangle 2818" x="81.718262" y="-27.000000" width="224.462036" height="213.040512" transform="rotate(27 81.718262 -27.000000)" fill="#C4C4C4" fill-opacity="1.000000"/>
			</g>
		</mask>
		<g mask="url(#mask20_527)">
			<g style="mix-blend-mode:normal">
				<path id="Path 20003" d="M207.87 37.36C200.31 41.87 134.05 81.59 133.37 82.37C133.3 82.42 133.25 82.5 133.25 82.59C133.29 82.64 133.35 82.68 133.42 82.68L151.46 88.87C151.55 88.91 151.65 88.89 151.73 88.83L208.07 37.88C208.19 37.83 208.26 37.7 208.22 37.57C208.19 37.42 208.03 37.33 207.87 37.36ZM151.3 88.43L134.07 82.51C138.78 79.44 180.92 54.14 205.51 39.37L151.3 88.43Z" fill="#2A003C" fill-opacity="1.000000" fill-rule="nonzero"/>
			</g>
		</g>
		<g mask="url(#mask20_527)">
			<g style="mix-blend-mode:normal">
				<path id="Path 20004" d="M218.73 59.38C216.34 60.6 160.08 89.55 158.05 90.85C157.99 90.89 157.95 90.97 157.95 91.04C157.91 91.08 157.88 91.13 157.88 91.18L166.78 101.44C166.87 101.5 166.99 101.49 167.07 101.42L219.02 59.85C219.15 59.8 219.23 59.65 219.19 59.51C219.12 59.36 218.89 59.31 218.73 59.38ZM167.18 100.94L158.64 91.15C162.88 88.72 205.72 66.67 216.53 61.13L167.18 100.94Z" fill="#2A003C" fill-opacity="1.000000" fill-rule="nonzero"/>
			</g>
		</g>
		<g mask="url(#mask20_527)">
			<g style="mix-blend-mode:normal">
				<path id="Path 20005" d="M265.85 86.15C265.24 86.23 263.93 86.51 261.08 87.25C258.23 87.99 253.42 88.83 248.29 89.74L212.37 97.86L178.39 105.27C178.26 105.34 178.19 105.47 178.22 105.61L179.84 116.29C179.88 116.34 179.94 116.38 180.01 116.38L180.18 116.46L266.01 86.65C266.14 86.59 266.22 86.44 266.2 86.29C266.2 86.29 266.14 86.12 265.85 86.15ZM180.13 115.73L178.7 105.71C180.9 105.28 195.57 102.05 212.39 98.37C230.65 94.35 252.21 89.55 261.56 87.63L180.13 115.73Z" fill="#2A003C" fill-opacity="1.000000" fill-rule="nonzero"/>
			</g>
		</g>
		<g mask="url(#mask20_527)">
			<g style="mix-blend-mode:normal">
				<path id="Path 20006" d="M210.91 121.03C210.98 120.96 211.02 120.87 211.04 120.78C210.98 120.69 210.89 120.65 210.79 120.65C209.37 120.6 189.01 119.02 187.03 118.75C186.94 118.71 186.84 118.73 186.79 118.81C186.73 118.86 186.7 118.93 186.69 119L186.51 127.81C186.56 127.86 186.61 127.89 186.68 127.9L186.85 127.99C196.02 125.24 209.95 121.11 210.73 121.11C210.84 121.1 210.85 121.07 210.91 121.03ZM186.92 127.35L187.01 119.2C189.04 119.46 196.32 120.06 199.52 120.31L208.69 121.03C203.64 122.34 190.83 126.27 186.92 127.35Z" fill="#2A003C" fill-opacity="1.000000" fill-rule="nonzero"/>
			</g>
		</g>
		<g mask="url(#mask20_527)">
			<g style="mix-blend-mode:normal">
				<path id="Path 20007" d="M159.97 27.93C165.57 18.34 165.54 18.33 165.26 18.12C165.13 18.03 164.96 18.04 164.85 18.16C163.76 19.26 124.67 70.87 123.02 73.07C122.95 73.12 122.9 73.2 122.91 73.29C122.96 73.35 123.03 73.39 123.1 73.39L130.96 77.4C131 77.45 131.08 77.49 131.15 77.5C131.22 77.45 131.26 77.38 131.25 77.3C131.62 76.57 139.91 62.25 148.02 48.47C152.26 41.13 156.79 33.62 159.97 27.93ZM130.86 76.68L123.71 73.03C135.77 57.13 156.87 29.31 163.27 20.92C160.33 26.06 153.55 37.62 147.38 48.14C139.5 61.72 131.93 74.57 130.81 76.79L130.86 76.68Z" fill="#2A003C" fill-opacity="1.000000" fill-rule="nonzero"/>
			</g>
		</g>
		<g mask="url(#mask20_527)">
			<g style="mix-blend-mode:normal">
				<path id="Path 20008" d="M75.47 26.84C90.3 80.1 92.08 85.95 92.56 86.2C92.66 86.23 92.77 86.2 92.84 86.13C93.41 85.57 100.59 75.63 100.91 75.22C100.98 75.16 101.03 75.07 101.04 74.97L88.03 45.03C79.61 25.66 69.2 1.64 68.54 0.03C68.48 -0.12 68.33 -0.2 68.18 -0.16L68 0.18L67.89 0.12C68.21 0.67 71.6 12.82 75.47 26.84ZM74.47 14.95L87.64 45.33L100.37 75.02C98.5 77.6 93.9 83.91 92.81 85.3C91.39 81.5 82.25 48.62 76.11 26.56L69.79 4.3L74.47 14.95Z" fill="#2A003C" fill-opacity="1.000000" fill-rule="nonzero"/>
			</g>
		</g>
		<g mask="url(#mask20_527)">
			<g style="mix-blend-mode:normal">
				<path id="Path 20009" d="M46.26 56.78C46.11 56.85 46.03 57.01 46.06 57.17C46.6 58.82 67.43 95.79 68.29 97.36L68.55 97.49C68.63 97.48 68.71 97.44 68.77 97.39L77.24 88.39C77.34 88.33 77.39 88.22 77.39 88.11C76.61 86.86 68.93 78.78 61.72 71.44C46.96 56.46 46.49 56.68 46.26 56.78ZM68.66 96.77C61.79 84.54 49.44 62.6 47.06 57.86C51.57 61.82 74.44 85.16 76.72 88.23L68.66 96.77Z" fill="#2A003C" fill-opacity="1.000000" fill-rule="nonzero"/>
			</g>
		</g>
		<g mask="url(#mask20_527)">
			<g style="mix-blend-mode:normal">
				<path id="Path 20010" d="M62.71 121.22C62.67 121.13 62.58 121.09 62.48 121.1C61.24 121.6 44.86 130.24 30.4 137.96C24.33 141.08 16.03 145.58 9.37 149.21C-0.15 154.46 -0.19 154.55 -0.07 154.86C-0.02 154.92 0.05 154.96 0.13 154.96L0.27 155.03C1.69 154.94 59.65 149.96 60.27 149.85C60.38 149.8 60.45 149.67 60.42 149.55L62.64 121.36C62.68 121.32 62.7 121.27 62.71 121.22ZM1.17 154.57C8.1 150.47 56.12 124.71 62.03 122L59.86 149.54C56.14 149.7 8.95 153.8 1.17 154.57Z" fill="#2A003C" fill-opacity="1.000000" fill-rule="nonzero"/>
			</g>
		</g>
		<g mask="url(#mask20_527)">
			<g style="mix-blend-mode:normal">
				<path id="Path 20011" d="M84.65 152.53C84.57 152.52 84.48 152.55 84.43 152.63C81.3 157.11 63.05 197.09 62.29 198.78C62.24 198.91 62.28 199.06 62.38 199.15C62.51 199.21 62.67 199.18 62.75 199.05L91.75 162.93C91.85 162.88 91.91 162.76 91.9 162.65L85.02 152.72C85.07 152.62 85.03 152.49 84.93 152.44C84.83 152.39 84.71 152.43 84.65 152.53ZM91.18 162.74L63.71 197.03C67.49 188.79 81.44 158.49 84.6 153.39L91.18 162.74Z" fill="#2A003C" fill-opacity="1.000000" fill-rule="nonzero"/>
			</g>
		</g>
		<g mask="url(#mask20_527)">
			<g style="mix-blend-mode:normal">
				<path id="Path 20012" d="M136.87 177.34C136.81 177.26 136.72 177.21 136.62 177.21C135.66 177.14 125.11 174.49 118.1 172.72C118.06 172.66 118 172.63 117.93 172.63C117.86 172.68 117.81 172.77 117.82 172.86C118.22 175.81 128.41 213.08 133.29 231.01L135.62 239.54C135.67 239.6 135.74 239.63 135.82 239.64L135.99 239.73L136.17 239.36C135.75 237.98 136.84 178.09 136.87 177.34ZM135.44 237.12L133.7 230.83C129.36 214.87 119.35 178.3 118.32 173.18C131.81 176.52 135.32 177.39 136.35 177.53C136.25 178.89 136.12 184.48 135.79 208.01C135.5 226.27 135.44 233.87 135.44 237.12Z" fill="#2A003C" fill-opacity="1.000000" fill-rule="nonzero"/>
			</g>
		</g>
		<g mask="url(#mask20_527)">
			<g style="mix-blend-mode:normal">
				<path id="Path 20013" d="M165.83 174.22L150.46 176.66C150.38 176.72 150.33 176.82 150.33 176.92C150.32 177.02 150.35 177.13 150.42 177.21C151.07 177.96 184.39 212.6 201.79 231.08C201.84 231.15 201.92 231.19 202.01 231.19C202.13 231.14 202.19 231.01 202.17 230.88L166.11 174.36C166.06 174.26 165.94 174.21 165.83 174.22ZM151.1 177.13L165.73 174.84L200.14 228.54C191.04 218.96 155.59 181.57 151.1 177.13Z" fill="#2A003C" fill-opacity="1.000000" fill-rule="nonzero"/>
			</g>
		</g>
		<mask id="mask20_541" mask-type="alpha" maskUnits="userSpaceOnUse" x="30.398682" y="35.887939" width="188.422363" height="178.976562">
			<g style="mix-blend-mode:normal">
				<path id="Path 20014" d="M137.11 71.07C136.74 71.42 136.61 71.97 136.79 72.46C137.03 72.9 135.69 73.52 135.39 73.12C135.94 66.94 131.37 61.49 125.19 60.94C122.52 60.71 119.85 61.43 117.67 62.99C112.66 57.71 104.31 57.48 99.02 62.49C98.18 63.28 97.45 64.18 96.84 65.17C92.77 62.35 87.25 64.17 82.66 66.04C80.35 66.81 78.23 68.07 76.44 69.72C73.24 73.17 73.52 78.51 73.99 83.2C67.81 83.27 62.12 86.56 58.98 91.86C56.1 97.12 56.28 103.52 59.45 108.61C55.89 109.89 52.59 111.79 49.7 114.23C46.78 116.76 45.4 120.62 46.06 124.43C46.94 128.05 50.61 130.28 54.23 129.4C54.4 129.36 54.56 129.32 54.72 129.26C49.3 131.49 46.71 137.68 48.94 143.1C49.03 143.31 49.12 143.53 49.22 143.73C52.32 148.72 58.88 150.25 63.87 147.15C64.09 147.02 64.31 146.87 64.51 146.72C60.31 153.87 62.39 163.06 69.25 167.71C76.34 171.83 85.25 171.01 91.48 165.69C90.22 171.39 93.83 177.03 99.53 178.29C102.84 179.01 106.29 178.12 108.83 175.87C108.49 180.24 111.76 184.05 116.12 184.39C116.18 184.39 116.23 184.4 116.28 184.4C120.61 184.43 124.78 182.74 127.88 179.72C130.64 186.66 138.51 190.06 145.46 187.31C150.74 185.21 154.14 180.04 153.99 174.37C157.13 178.4 163.22 178.72 168.14 177.31C171.51 176.56 174.48 174.6 176.49 171.81C178.5 168.9 178.1 164.96 175.53 162.53C179.96 165.98 186.9 163.44 190.06 158.98C193.22 154.24 193.85 148.25 191.76 142.96C189.56 137.69 185.18 133.64 179.75 131.86C186.03 131.21 190.59 125.61 189.95 119.33C189.31 113.05 183.7 108.49 177.42 109.13C176.51 109.22 175.61 109.43 174.74 109.74C178.28 105.22 175.86 97.98 171.05 94.86C165.94 92.13 159.97 91.44 154.37 92.93C159.43 87.21 160.17 78.87 156.2 72.35C155.1 70.79 153.59 69.56 151.89 68.69C146.99 66.2 140.47 66.7 137.11 71.07Z" fill="#C4C4C4" fill-opacity="1.000000" fill-rule="nonzero"/>
			</g>
		</mask>
		<g mask="url(#mask20_541)">
			<g style="mix-blend-mode:normal">
				<rect id="Rectangle 2819" x="87.347412" y="35.811523" width="148.099167" height="126.190842" transform="rotate(27 87.347412 35.811523)" fill="url(#paint_radial_20_542_0)" fill-opacity="1.000000"/>
			</g>
		</g>
		<mask id="mask20_545" mask-type="alpha" maskUnits="userSpaceOnUse" x="-15.000000" y="-27.000000" width="296.715332" height="291.724121">
			<g style="mix-blend-mode:normal">
				<rect id="Rectangle 2821" x="81.718262" y="-27.000000" width="224.462036" height="213.040512" transform="rotate(27 81.718262 -27.000000)" fill="#C4C4C4" fill-opacity="1.000000"/>
			</g>
		</mask>
		<g mask="url(#mask20_545)">
			<g style="mix-blend-mode:normal">
				<path id="Path 20015" d="M190.82 159.36C194.13 154.41 194.79 148.13 192.58 142.6C190.67 137.96 187.11 134.2 182.59 132.03C184.95 131.14 186.99 129.56 188.44 127.49C192.37 122.42 191.44 115.13 186.37 111.2C185.78 110.73 185.14 110.33 184.46 109.99C182.09 108.64 179.34 108.09 176.63 108.44C177.39 106.66 177.61 104.69 177.25 102.79C176.63 99.26 174.61 96.13 171.63 94.13C167.01 91.5 161.6 90.65 156.39 91.73C160.59 85.83 160.82 77.98 157 71.84C154.41 68.37 150.36 66.3 146.03 66.25C142.39 66.04 138.87 67.6 136.58 70.44C136.51 70.56 136.45 70.68 136.4 70.81C135.96 66.99 133.77 63.59 130.48 61.61C126.61 59.44 121.87 59.54 118.1 61.87C115.09 59.07 111.03 57.7 106.95 58.1C102.9 58.52 99.24 60.67 96.88 63.99C92.69 61.68 87.34 63.3 82.63 65.21C80.13 65.96 77.84 67.26 75.91 69.02C72.71 72.48 72.72 77.57 73.14 82.23C67.02 82.68 61.5 86.07 58.33 91.33C55.49 96.54 55.48 102.84 58.32 108.06C55 109.34 51.92 111.18 49.23 113.5C46.08 116.22 44.61 120.4 45.36 124.49C45.97 126.8 47.58 128.72 49.75 129.73C50.24 129.99 50.76 130.17 51.31 130.28C49.9 131.55 48.82 133.14 48.13 134.91C45.85 140.19 48.29 146.33 53.57 148.61C54.39 148.96 55.26 149.21 56.15 149.35C58.26 149.77 60.45 149.6 62.47 148.86C61.42 151.64 61.21 154.67 61.84 157.58C62.71 161.97 65.3 165.83 69.02 168.3C69.53 168.6 70.05 168.87 70.59 169.1C77.13 172.2 84.82 171.55 90.75 167.4C90.44 173.68 95.28 179.03 101.57 179.34C103.88 179.45 106.17 178.86 108.14 177.64C108.3 179.03 108.85 180.35 109.73 181.45C111.36 183.62 113.82 185.02 116.53 185.3C120.62 185.33 124.57 183.81 127.59 181.05C131.15 188.15 139.79 191.03 146.89 187.47C151.22 185.31 154.17 181.11 154.74 176.3C158.75 178.99 163.78 179.65 168.35 178.08C171.93 177.3 175.09 175.2 177.21 172.21C178.65 170.01 179.04 167.29 178.28 164.77C179.53 165.08 180.82 165.12 182.09 164.91C185.61 164.26 188.74 162.27 190.82 159.36ZM176.19 161.94C175.82 161.66 175.3 161.73 175.02 162.09C174.72 162.45 174.78 162.99 175.15 163.28C177.37 165.42 177.72 168.86 175.96 171.4C174.08 174.05 171.26 175.9 168.07 176.56C163.92 177.77 157.87 177.79 154.87 173.9C154.64 173.61 154.26 173.5 153.91 173.62C153.59 173.78 153.41 174.14 153.47 174.49C154.33 181.39 149.44 187.68 142.54 188.54C136.43 189.3 130.67 185.54 128.91 179.64C128.81 179.38 128.6 179.19 128.33 179.13C128.06 179.07 127.78 179.14 127.56 179.31C124.65 182.18 120.71 183.77 116.62 183.73C114.45 183.46 112.48 182.35 111.14 180.62C110.17 179.4 109.76 177.81 110.03 176.27C110.09 175.91 109.93 175.55 109.62 175.35C109.3 175.19 108.91 175.23 108.62 175.45C104.83 179.23 98.69 179.22 94.91 175.43C92.39 172.91 91.46 169.2 92.49 165.78C92.56 165.42 92.39 165.05 92.08 164.86C91.76 164.68 91.37 164.72 91.1 164.97C85.11 170.04 76.58 170.8 69.78 166.89C66.47 164.6 64.19 161.11 63.43 157.16C62.65 153.68 63.31 150.04 65.26 147.06C65.51 146.72 65.46 146.24 65.15 145.95L64.96 145.85C64.66 145.68 64.29 145.72 64.03 145.94C61.84 147.63 59.02 148.24 56.33 147.6C51.32 146.14 48.45 140.9 49.91 135.89C50.63 133.42 52.33 131.35 54.62 130.16L55.24 129.91C55.66 129.76 55.89 129.31 55.77 128.88C55.6 128.46 55.16 128.24 54.73 128.35L54.15 128.58C52.97 128.9 51.72 128.77 50.63 128.2C48.92 127.43 47.63 125.94 47.09 124.14C46.53 120.64 47.82 117.1 50.51 114.79C53.33 112.42 56.55 110.57 60.01 109.32C60.21 109.17 60.32 108.94 60.33 108.7C60.41 108.46 60.36 108.21 60.22 108.01C57.25 103.18 57.11 97.13 59.85 92.17C62.82 87.12 68.23 84 74.1 83.96C74.34 83.95 74.56 83.85 74.73 83.68C74.92 83.53 75.03 83.3 75.05 83.07C74.57 78.52 74.36 73.39 77.34 70.11C79.05 68.55 81.07 67.37 83.26 66.66C88.07 64.66 93.02 63.19 96.66 65.68C96.84 65.8 97.07 65.86 97.29 65.82C97.52 65.78 97.72 65.64 97.84 65.43C101.43 59.62 109.05 57.81 114.86 61.39C115.76 61.95 116.59 62.62 117.32 63.39C117.61 63.71 118.09 63.75 118.44 63.49C123.09 60.14 129.58 61.2 132.93 65.85C134.4 67.89 135.08 70.38 134.85 72.88C134.84 73.07 134.89 73.26 135 73.41C135.56 74.05 136.53 74.12 137.18 73.57C137.81 73.32 138.11 72.6 137.86 71.98C137.89 71.78 137.96 71.56 138.1 71.43C140.06 69.01 143.06 67.69 146.16 67.87C149.95 67.93 153.5 69.74 155.78 72.77C159.53 78.97 158.8 86.9 153.95 92.29C153.74 92.58 153.71 92.96 153.88 93.28C154.04 93.59 154.39 93.77 154.75 93.72C160.16 92.24 165.93 92.89 170.88 95.55C173.45 97.28 175.21 99.98 175.75 103.04C176.18 105.19 175.67 107.43 174.35 109.18C174.11 109.47 174.1 109.89 174.33 110.2C174.54 110.52 174.94 110.65 175.3 110.51C178.14 109.57 181.24 109.87 183.85 111.34C188.76 113.75 190.79 119.69 188.38 124.61C188.06 125.27 187.66 125.89 187.19 126.47C185.54 128.94 182.9 130.59 179.95 130.97C179.55 131.03 179.24 131.35 179.2 131.75C179.16 132.15 179.4 132.52 179.77 132.65C184.93 134.33 189.09 138.18 191.18 143.19C193.18 148.22 192.57 153.91 189.57 158.41C187.73 160.98 184.95 162.73 181.83 163.26C179.85 163.63 177.8 163.15 176.19 161.94Z" fill="#2A003C" fill-opacity="1.000000" fill-rule="nonzero"/>
			</g>
		</g>
		<g mask="url(#mask20_545)">
			<g style="mix-blend-mode:normal">
				<path id="Path 20016" d="M131.51 88.24C131.22 88.34 131.06 88.65 131.15 88.94C131.25 89.23 131.56 89.38 131.85 89.3L131.51 88.24Z" fill="#2A003C" fill-opacity="1.000000" fill-rule="nonzero"/>
			</g>
		</g>
		<g mask="url(#mask20_545)">
			<g style="mix-blend-mode:normal">
				<path id="Path 20017" d="M132.02 89.17L131.74 89.24C131.84 89.24 131.93 89.21 132.02 89.17Z" fill="#2A003C" fill-opacity="1.000000" fill-rule="nonzero"/>
			</g>
		</g>
		<g mask="url(#mask20_545)">
			<g style="mix-blend-mode:normal">
				<path id="Path 20018" d="" fill="#2A003C" fill-opacity="1.000000" fill-rule="nonzero"/>
			</g>
		</g>
		<g mask="url(#mask20_545)">
			<g style="mix-blend-mode:normal">
				<path id="Path 20019" d="M142.77 92.95C141.53 90.2 138.93 88.3 135.93 87.95C135.27 87.84 134.61 87.8 133.95 87.82C133.46 88.44 132.83 88.91 132.1 89.21C134.62 88.53 137.32 88.91 139.54 90.28C140.73 90.93 141.69 91.92 142.29 93.13C142.94 94.39 142.53 95.94 141.35 96.72C142.67 95.97 143.27 94.38 142.77 92.95Z" fill="#2A003C" fill-opacity="1.000000" fill-rule="nonzero"/>
			</g>
		</g>
		<g mask="url(#mask20_545)">
			<g style="mix-blend-mode:normal">
				<path id="Path 20020" d="M133.87 87.96C133.05 88 132.23 88.13 131.44 88.38L131.75 89.42L132.03 89.35C132.75 89.05 133.39 88.58 133.87 87.96Z" fill="#2A003C" fill-opacity="1.000000" fill-rule="nonzero"/>
			</g>
		</g>
		<g mask="url(#mask20_545)">
			<g style="mix-blend-mode:normal">
				<path id="Path 20021" d="M134.07 87.64C135.7 84.38 135.2 80.45 132.81 77.71C131.39 75.71 128.62 75.25 126.62 76.67C126.4 76.83 126.19 77.01 126 77.2C129.08 74.78 132.29 77.12 133.31 80.33C134.38 82.95 134.68 87.14 131.53 88.25C132.33 88.01 133.14 87.87 133.97 87.83C134.02 87.78 134.05 87.71 134.07 87.64Z" fill="#2A003C" fill-opacity="1.000000" fill-rule="nonzero"/>
			</g>
		</g>
		<g mask="url(#mask20_545)">
			<g style="mix-blend-mode:normal">
				<path id="Path 20022" d="M109.66 69.41L110.44 68.64C110 68.27 109.54 67.94 109.04 67.64C109.07 68.28 109.28 68.89 109.66 69.41Z" fill="#2A003C" fill-opacity="1.000000" fill-rule="nonzero"/>
			</g>
		</g>
		<g mask="url(#mask20_545)">
			<g style="mix-blend-mode:normal">
				<path id="Path 20023" d="M114.2 64.59C116.87 64.64 119.29 66.16 120.49 68.53C119.25 65.15 115.67 63.24 112.17 64.08C110.45 64.44 109.19 65.92 109.1 67.67C109.59 67.97 110.06 68.3 110.5 68.67L109.72 69.44C109.34 68.92 109.12 68.31 109.1 67.67C104.58 64.87 98.64 66.26 95.84 70.78C95.25 71.73 94.83 72.78 94.6 73.88C94.16 75.92 94.45 78.61 96.44 79.77C93.98 77.66 94.89 73.64 96.53 71.26C99.34 67.17 104.95 66.12 109.05 68.94C109.3 69.11 109.48 69.23 109.72 69.44C109.93 69.65 110.35 69.73 110.56 69.51C110.78 69.3 110.71 68.88 110.5 68.67C109.84 67.75 110.05 66.55 110.9 65.8C111.8 64.98 112.99 64.55 114.2 64.59Z" fill="#2A003C" fill-opacity="1.000000" fill-rule="nonzero"/>
			</g>
		</g>
		<g mask="url(#mask20_545)">
			<g style="mix-blend-mode:normal">
				<path id="Path 20024" d="M161.14 106.41C160.64 103.87 158.18 102.21 155.63 102.71C154.32 102.97 153.17 103.78 152.49 104.94C153.99 103.18 156.55 102.8 158.5 104.04C160.23 105.38 160.66 107.81 159.51 109.68C159.94 109.07 160.51 108.57 161.17 108.23C161.25 107.62 161.24 107.01 161.14 106.41Z" fill="#2A003C" fill-opacity="1.000000" fill-rule="nonzero"/>
			</g>
		</g>
		<g mask="url(#mask20_545)">
			<g style="mix-blend-mode:normal">
				<path id="Path 20025" d="M160.48 110.2C161.31 109.09 162.67 108.5 164.05 108.67C166.99 109.22 169.01 111.93 168.72 114.9C168.65 116.42 168.29 117.91 167.64 119.3C170.35 115.99 169.87 111.11 166.56 108.4C164.97 107.35 162.92 107.24 161.22 108.11C161.15 108.86 160.89 109.58 160.48 110.2Z" fill="#2A003C" fill-opacity="1.000000" fill-rule="nonzero"/>
			</g>
		</g>
		<g mask="url(#mask20_545)">
			<g style="mix-blend-mode:normal">
				<path id="Path 20026" d="M161.21 108.14C160.55 108.49 159.98 108.99 159.55 109.59L160.53 110.09C160.9 109.5 161.14 108.83 161.21 108.14Z" fill="#2A003C" fill-opacity="1.000000" fill-rule="nonzero"/>
			</g>
		</g>
		<g mask="url(#mask20_545)">
			<g style="mix-blend-mode:normal">
				<path id="Path 20027" d="M159.73 110.35C159.97 110.52 160.31 110.45 160.47 110.21L159.5 109.7C159.42 109.95 159.51 110.22 159.73 110.35Z" fill="#2A003C" fill-opacity="1.000000" fill-rule="nonzero"/>
			</g>
		</g>
		<g mask="url(#mask20_545)">
			<g style="mix-blend-mode:normal">
				<path id="Path 20028" d="M69.56 127.32L69.83 128.31C69.02 128.27 68.23 128.62 67.7 129.23C68.59 129.06 69.44 128.72 70.2 128.21C70.45 128.05 70.52 127.72 70.37 127.47C70.27 127.32 70.1 127.23 69.93 127.22C68.85 127.16 67.79 127.56 67.03 128.33C67.95 128.22 68.82 127.87 69.56 127.32Z" fill="#2A003C" fill-opacity="1.000000" fill-rule="nonzero"/>
			</g>
		</g>
		<g mask="url(#mask20_545)">
			<g style="mix-blend-mode:normal">
				<path id="Path 20029" d="M67.03 128.33C65.72 128.54 64.39 128.05 63.52 127.04C62.78 126.17 62.57 124.96 62.97 123.89C63.42 122.76 64.52 122.03 65.74 122.06C64.44 121.89 63.17 122.56 62.56 123.72C61.72 125.82 62.74 128.2 64.83 129.04C65.28 129.22 65.76 129.32 66.24 129.34C66.41 129.02 66.64 128.73 66.89 128.47C66.89 128.47 67 128.38 67.03 128.33Z" fill="#2A003C" fill-opacity="1.000000" fill-rule="nonzero"/>
			</g>
		</g>
		<g mask="url(#mask20_545)">
			<g style="mix-blend-mode:normal">
				<path id="Path 20030" d="M65.2 134.21C64.75 139.46 69.03 141.6 73.49 139.57C74.39 139.16 75.25 138.71 76.09 138.21C73.56 139.36 70.56 140.47 67.92 139.13C66.21 138.26 66.06 136.2 66.18 134.43C66.08 132.61 66.6 130.81 67.66 129.32C67.24 129.4 66.8 129.43 66.38 129.41C65.6 130.89 65.2 132.54 65.2 134.21Z" fill="#2A003C" fill-opacity="1.000000" fill-rule="nonzero"/>
			</g>
		</g>
		<g mask="url(#mask20_545)">
			<g style="mix-blend-mode:normal">
				<path id="Path 20031" d="M67.7 129.23C68.23 128.62 69.02 128.27 69.83 128.31L69.56 127.32C68.82 127.87 67.95 128.22 67.03 128.33L66.95 128.5C66.69 128.76 66.47 129.05 66.29 129.36C66.77 129.39 67.24 129.35 67.7 129.23Z" fill="#2A003C" fill-opacity="1.000000" fill-rule="nonzero"/>
			</g>
		</g>
		<g mask="url(#mask20_545)">
			<g style="mix-blend-mode:normal">
				<path id="Path 20032" d="M71.53 147.44C70.79 146.33 70.62 144.93 71.08 143.67C69.76 145.62 70.27 148.26 72.21 149.58C74.13 150.8 76.57 151.05 78.67 150.19C80.01 149.7 81.25 148.96 82.32 148.02C81.05 148.54 79.75 148.99 78.43 149.36C75.95 150.21 73.21 149.45 71.53 147.44Z" fill="#2A003C" fill-opacity="1.000000" fill-rule="nonzero"/>
			</g>
		</g>
		<g mask="url(#mask20_545)">
			<g style="mix-blend-mode:normal">
				<path id="Path 20033" d="M94.36 161.22C94.62 161.41 94.91 161.56 95.23 161.66L94.36 161.22Z" fill="#2A003C" fill-opacity="1.000000" fill-rule="nonzero"/>
			</g>
		</g>
		<g mask="url(#mask20_545)">
			<g style="mix-blend-mode:normal">
				<path id="Path 20034" d="" fill="#2A003C" fill-opacity="1.000000" fill-rule="nonzero"/>
			</g>
		</g>
		<g mask="url(#mask20_545)">
			<g style="mix-blend-mode:normal">
				<path id="Path 20035" d="M94.03 161.02L94.4 161.21L94.57 160.87L94.03 161.02Z" fill="#2A003C" fill-opacity="1.000000" fill-rule="nonzero"/>
			</g>
		</g>
		<g mask="url(#mask20_545)">
			<g style="mix-blend-mode:normal">
				<path id="Path 20036" d="M94.4 161.2L94.03 161.02L94.65 160.91L94.4 161.2L95.13 161.58L95.63 160.6C95.2 160.43 94.78 160.22 94.39 159.97C94.21 159.89 94.01 159.92 93.86 160.05C93.67 160.21 93.51 160.4 93.36 160.61C93.67 160.8 94.06 161.07 94.4 161.2Z" fill="#2A003C" fill-opacity="1.000000" fill-rule="nonzero"/>
			</g>
		</g>
		<g mask="url(#mask20_545)">
			<g style="mix-blend-mode:normal">
				<path id="Path 20037" d="M94.18 168.02C96.27 169.86 99.09 170.63 101.83 170.12C99.22 170.19 96.69 169.22 94.8 167.42C93.24 165.7 93.08 163.14 94.41 161.25C94.07 161.11 93.74 160.94 93.43 160.75C91.9 163.03 92.21 166.09 94.18 168.02Z" fill="#2A003C" fill-opacity="1.000000" fill-rule="nonzero"/>
			</g>
		</g>
		<g mask="url(#mask20_545)">
			<g style="mix-blend-mode:normal">
				<path id="Path 20038" d="M95.64 160.57L95.14 161.55C95.4 161.66 95.69 161.54 95.8 161.29C95.94 161.02 95.9 160.72 95.64 160.57L94.27 159.87C94.7 160.15 95.16 160.39 95.64 160.57Z" fill="#2A003C" fill-opacity="1.000000" fill-rule="nonzero"/>
			</g>
		</g>
		<g mask="url(#mask20_545)">
			<g style="mix-blend-mode:normal">
				<path id="Path 20039" d="M94.45 160C91.65 158.15 90.87 154.38 92.72 151.58C93.41 150.52 94.43 149.71 95.62 149.25C92.23 150.04 90.13 153.43 90.92 156.81C91.11 157.65 91.48 158.44 91.99 159.13C92.4 159.69 92.88 160.2 93.42 160.63C93.56 160.43 93.73 160.24 93.91 160.08C94.06 159.95 94.27 159.92 94.45 160Z" fill="#2A003C" fill-opacity="1.000000" fill-rule="nonzero"/>
			</g>
		</g>
		<g mask="url(#mask20_545)">
			<g style="mix-blend-mode:normal">
				<path id="Path 20040" d="M116.92 161.73C117.01 162.03 117.16 162.32 117.37 162.56C117.55 162.32 117.68 162.06 117.77 161.78L116.92 161.73Z" fill="#2A003C" fill-opacity="1.000000" fill-rule="nonzero"/>
			</g>
		</g>
		<g mask="url(#mask20_545)">
			<g style="mix-blend-mode:normal">
				<path id="Path 20041" d="M120.36 161.75C119.93 162.04 119.41 162.18 118.88 162.17C118.45 162.14 118.06 161.86 117.9 161.45C117.84 161.18 117.57 161.02 117.3 161.08C117.12 161.12 116.99 161.25 116.93 161.42C116.43 162.62 115.05 163.19 113.85 162.69C112.76 162.24 112.17 161.06 112.47 159.92C111.97 161.32 112.67 162.86 114.05 163.41C115.23 163.81 116.53 163.48 117.37 162.56C117.16 162.32 117.01 162.03 116.92 161.73L117.89 161.83C117.8 162.12 117.66 162.38 117.49 162.62C117.86 162.99 118.34 163.23 118.86 163.32C119.61 163.37 120.36 163.2 121.02 162.83C122.19 162.17 123.22 161.27 124.02 160.19C124.87 159.09 125.2 157.67 124.91 156.3C124.62 155.05 123.97 153.91 123.05 153.02C124.59 154.92 124.66 157.63 123.22 159.61C122.43 160.51 121.45 161.24 120.36 161.75Z" fill="#2A003C" fill-opacity="1.000000" fill-rule="nonzero"/>
			</g>
		</g>
		<g mask="url(#mask20_545)">
			<g style="mix-blend-mode:normal">
				<path id="Path 20042" d="M115.67 166.6C115.95 168.32 117.57 169.48 119.28 169.2C120.39 169.02 121.32 168.26 121.72 167.21C122.18 166.5 122.28 165.61 121.99 164.81C121.68 166.78 119.82 168.13 117.85 167.82C117 167.68 116.23 167.25 115.67 166.6Z" fill="#2A003C" fill-opacity="1.000000" fill-rule="nonzero"/>
			</g>
		</g>
		<g mask="url(#mask20_545)">
			<g style="mix-blend-mode:normal">
				<path id="Path 20043" d="M118.09 175.29C117.74 175.58 117.52 176.01 117.49 176.47C117.87 176.47 118.24 176.43 118.61 176.37L118.09 175.29Z" fill="#2A003C" fill-opacity="1.000000" fill-rule="nonzero"/>
			</g>
		</g>
		<g mask="url(#mask20_545)">
			<g style="mix-blend-mode:normal">
				<path id="Path 20044" d="M116.36 176.21C116.72 176.28 117.09 176.3 117.45 176.27C117.48 175.81 117.7 175.39 118.05 175.1L118.45 176.11C118.09 176.17 117.71 176.21 117.34 176.22C117.28 176.3 117.23 176.39 117.2 176.5C117.37 179.13 120.95 179.11 122.65 178C123.35 177.61 123.93 177.04 124.34 176.35C123.77 176.85 123.12 177.24 122.41 177.49C121.15 178.05 119.7 177.92 118.56 177.15C118.19 176.97 118.21 176.17 118.57 175.96C118.82 175.77 118.87 175.42 118.68 175.16C118.56 175 118.37 174.92 118.17 174.94C117.01 175.13 115.62 175.3 114.93 174.35C114.3 173.27 114.37 171.92 115.1 170.91C113.77 171.83 113.44 173.65 114.36 174.98C114.83 175.65 115.55 176.09 116.36 176.21Z" fill="#2A003C" fill-opacity="1.000000" fill-rule="nonzero"/>
			</g>
		</g>
		<g mask="url(#mask20_545)">
			<g style="mix-blend-mode:normal">
				<path id="Path 20045" d="M133.92 174.88C134 175.14 134.13 175.38 134.29 175.6C134.49 175.46 134.67 175.3 134.84 175.14L133.92 174.88Z" fill="#2A003C" fill-opacity="1.000000" fill-rule="nonzero"/>
			</g>
		</g>
		<g mask="url(#mask20_545)">
			<g style="mix-blend-mode:normal">
				<path id="Path 20046" d="M134.98 174.6L134.75 174.49C134.54 174.28 134.21 174.27 133.99 174.48C132.93 175.59 131.32 176.09 129.82 175.72C128.36 174.98 128.6 172.91 128.83 171.47C127.73 173.63 127.72 176.91 130.86 176.92C132.06 176.89 133.21 176.46 134.14 175.7C133.97 175.48 133.84 175.24 133.76 174.97L134.69 175.24C134.51 175.4 134.33 175.55 134.14 175.7C135.11 176.66 136.68 176.66 137.65 175.69C138.16 175.24 138.6 174.62 138.82 173.99C139.02 173.31 138.69 172.6 138.05 172.32C139.11 173.21 138.09 174.46 137.2 175.03C136.31 175.6 135.25 175.52 134.98 174.6Z" fill="#2A003C" fill-opacity="1.000000" fill-rule="nonzero"/>
			</g>
		</g>
		<g mask="url(#mask20_545)">
			<g style="mix-blend-mode:normal">
				<path id="Path 20047" d="M151.68 165.95C151.67 165.65 151.43 165.42 151.13 165.42C150.84 165.43 150.6 165.67 150.61 165.97L151.68 165.95Z" fill="#2A003C" fill-opacity="1.000000" fill-rule="nonzero"/>
			</g>
		</g>
		<g mask="url(#mask20_545)">
			<g style="mix-blend-mode:normal">
				<path id="Path 20048" d="M144.69 163.38L144 162.71C143.71 163.11 143.49 163.55 143.33 164.03C143.83 163.92 144.29 163.7 144.69 163.38Z" fill="#2A003C" fill-opacity="1.000000" fill-rule="nonzero"/>
			</g>
		</g>
		<g mask="url(#mask20_545)">
			<g style="mix-blend-mode:normal">
				<path id="Path 20049" d="M151.34 167.51C151.63 167.04 151.77 166.5 151.75 165.95L150.68 165.97C150.66 166.55 150.91 167.12 151.34 167.51Z" fill="#2A003C" fill-opacity="1.000000" fill-rule="nonzero"/>
			</g>
		</g>
		<g mask="url(#mask20_545)">
			<g style="mix-blend-mode:normal">
				<path id="Path 20050" d="M142.36 158.09C140.63 158.27 139.38 159.82 139.55 161.55C139.57 161.73 139.61 161.91 139.66 162.08C140.29 163.51 141.84 164.29 143.36 163.97C143.51 163.5 143.74 163.05 144.03 162.65L144.69 163.3C144.3 163.63 143.86 163.87 143.36 163.97C142.38 167 146.28 169.95 149.54 168.89C150.27 168.66 150.89 168.19 151.29 167.55C150.85 167.16 150.61 166.6 150.62 166.01C150.65 168.04 148.02 168.21 146.29 167.58C144.77 167.21 143.83 165.68 144.2 164.16C144.28 163.82 144.49 163.59 144.69 163.3C144.82 163.08 144.68 162.69 144.45 162.56C144.3 162.48 144.18 162.56 144.03 162.65C142.86 163.5 141.16 163.16 140.32 161.99C140.28 161.94 140.24 161.89 140.21 161.84C139.7 160.34 140.49 158.71 141.99 158.19C142.11 158.15 142.23 158.12 142.36 158.09Z" fill="#2A003C" fill-opacity="1.000000" fill-rule="nonzero"/>
			</g>
		</g>
		<g mask="url(#mask20_545)">
			<g style="mix-blend-mode:normal">
				<path id="Path 20051" d="M151.34 167.51C151.99 168.09 152.86 168.38 153.73 168.3C155.05 168.13 156.28 167.51 157.18 166.52C158.69 164.53 159.2 161.94 158.55 159.52C158.61 163.09 157.81 166.88 153.7 167.26C152.81 167.34 151.7 166.81 151.79 165.86C151.82 166.45 151.66 167.02 151.34 167.51Z" fill="#2A003C" fill-opacity="1.000000" fill-rule="nonzero"/>
			</g>
		</g>
		<g mask="url(#mask20_545)">
			<g style="mix-blend-mode:normal">
				<path id="Path 20052" d="M127.53 39.34C127.23 39.27 126.92 39.46 126.85 39.77C125.73 44.73 124.87 49.75 124.27 54.81C124.23 55.04 124.34 55.27 124.55 55.37L124.75 55.47C125.06 55.51 125.34 55.28 125.37 54.97C125.97 49.95 126.84 44.94 127.96 40.02C128.01 39.71 127.83 39.42 127.53 39.34Z" fill="#FC4210" fill-opacity="1.000000" fill-rule="nonzero"/>
			</g>
		</g>
		<g mask="url(#mask20_545)">
			<g style="mix-blend-mode:normal">
				<path id="Path 20053" d="M104.3 33.76C104.33 33.45 104.11 33.18 103.8 33.15C103.49 33.11 103.21 33.34 103.18 33.65C103.01 37.19 103.39 40.77 104.32 44.19L106.24 53.11C106.29 53.27 106.4 53.4 106.55 53.48C106.63 53.57 106.74 53.62 106.86 53.64C107.14 53.54 107.3 53.23 107.21 52.93L105.27 44C104.42 40.65 104.1 37.2 104.3 33.76Z" fill="#FC4210" fill-opacity="1.000000" fill-rule="nonzero"/>
			</g>
		</g>
		<g mask="url(#mask20_545)">
			<g style="mix-blend-mode:normal">
				<path id="Path 20054" d="M207.06 83.81L194.3 91.45C194.04 91.62 193.96 91.96 194.11 92.23L194.37 92.36C194.54 92.45 194.75 92.45 194.93 92.36L207.65 84.72C207.93 84.57 208.02 84.22 207.87 83.95C207.7 83.69 207.32 83.64 207.06 83.81Z" fill="#FC4210" fill-opacity="1.000000" fill-rule="nonzero"/>
			</g>
		</g>
		<g mask="url(#mask20_545)">
			<g style="mix-blend-mode:normal">
				<path id="Path 20055" d="M200.31 54.35C196.54 57.64 192.61 60.74 188.52 63.63C188.27 63.79 188.19 64.12 188.35 64.37L188.59 64.52C188.78 64.63 189.02 64.61 189.19 64.47C193.3 61.58 197.25 58.46 201.01 55.12C201.25 54.93 201.29 54.57 201.09 54.33C200.86 54.14 200.52 54.14 200.31 54.35Z" fill="#FC4210" fill-opacity="1.000000" fill-rule="nonzero"/>
			</g>
		</g>
		<g mask="url(#mask20_545)">
			<g style="mix-blend-mode:normal">
				<path id="Path 20056" d="M165.41 42.85C162.66 46.93 159.67 50.84 156.44 54.56C156.26 54.81 156.28 55.14 156.49 55.36L156.63 55.44C156.86 55.56 157.14 55.49 157.3 55.29C160.56 51.54 163.58 47.59 166.33 43.46C166.51 43.23 166.47 42.89 166.23 42.71C165.97 42.54 165.58 42.59 165.41 42.85Z" fill="#FC4210" fill-opacity="1.000000" fill-rule="nonzero"/>
			</g>
		</g>
		<g mask="url(#mask20_545)">
			<g style="mix-blend-mode:normal">
				<path id="Path 20057" d="M216.31 131.73L202.94 131.34C202.62 131.33 202.36 131.57 202.34 131.88C202.35 132.09 202.46 132.29 202.65 132.4L202.87 132.51L216.24 132.89C216.56 132.91 216.84 132.67 216.86 132.34C216.88 132.02 216.63 131.75 216.31 131.73Z" fill="#FC4210" fill-opacity="1.000000" fill-rule="nonzero"/>
			</g>
		</g>
		<g mask="url(#mask20_545)">
			<g style="mix-blend-mode:normal">
				<path id="Path 20058" d="M155.36 192.69C155.25 192.39 154.93 192.23 154.63 192.32C154.34 192.42 154.19 192.73 154.27 193.02C155.83 197.03 158.01 200.77 160.75 204.09L160.95 204.19C161.14 204.29 161.39 204.26 161.55 204.11C161.8 203.92 161.84 203.56 161.64 203.31C159 200.13 156.88 196.54 155.36 192.69Z" fill="#FC4210" fill-opacity="1.000000" fill-rule="nonzero"/>
			</g>
		</g>
		<g mask="url(#mask20_545)">
			<g style="mix-blend-mode:normal">
				<path id="Path 20059" d="M190.12 176.67C189.93 176.42 189.57 176.38 189.32 176.58C189.08 176.78 189.03 177.14 189.23 177.38C191.91 180.73 195.1 183.64 198.68 186.01L198.9 186.12C199.12 186.15 199.33 186.05 199.45 185.88C199.63 185.61 199.56 185.26 199.3 185.09C195.82 182.78 192.72 179.94 190.12 176.67Z" fill="#FC4210" fill-opacity="1.000000" fill-rule="nonzero"/>
			</g>
		</g>
		<g mask="url(#mask20_545)">
			<g style="mix-blend-mode:normal">
				<path id="Path 20060" d="M149.61 194.89C149.59 194.57 149.33 194.34 149.01 194.36C148.7 194.37 148.46 194.64 148.48 194.96C148.49 195.02 148.5 195.09 148.53 195.14C150.23 204 153.1 212.59 157.06 220.69C157.15 220.76 157.26 220.82 157.37 220.84C157.53 220.92 157.72 220.91 157.88 220.82C158.17 220.72 158.32 220.41 158.23 220.12C154.24 212.13 151.34 203.65 149.61 194.89Z" fill="#FC4210" fill-opacity="1.000000" fill-rule="nonzero"/>
			</g>
		</g>
		<g mask="url(#mask20_545)">
			<g style="mix-blend-mode:normal">
				<path id="Path 20061" d="M114.02 192.71C113.7 192.72 113.45 192.98 113.44 193.3L113.66 203.34C113.67 203.55 113.79 203.73 113.98 203.82C114.05 203.89 114.14 203.93 114.23 203.95C114.53 203.93 114.77 203.68 114.77 203.38L114.58 193.28C114.56 192.98 114.32 192.74 114.02 192.71Z" fill="#FC4210" fill-opacity="1.000000" fill-rule="nonzero"/>
			</g>
		</g>
		<g mask="url(#mask20_545)">
			<g style="mix-blend-mode:normal">
				<path id="Path 20062" d="M104.49 194.43C104.19 194.38 103.9 194.57 103.84 194.88L102.01 205.95C101.98 206.2 102.09 206.44 102.3 206.56L102.47 206.65C102.77 206.68 103.04 206.48 103.09 206.19L104.94 195.15C105.03 194.85 104.79 194.52 104.49 194.43Z" fill="#FC4210" fill-opacity="1.000000" fill-rule="nonzero"/>
			</g>
		</g>
		<g mask="url(#mask20_545)">
			<g style="mix-blend-mode:normal">
				<path id="Path 20063" d="M93.53 183.02C93.26 182.89 92.93 183.01 92.8 183.28L84.6 200.61C84.46 200.88 84.56 201.21 84.82 201.36C85.1 201.5 85.44 201.39 85.58 201.11L93.68 184.04L93.82 183.76C93.95 183.48 93.81 183.14 93.53 183.02Z" fill="#FC4210" fill-opacity="1.000000" fill-rule="nonzero"/>
			</g>
		</g>
		<g mask="url(#mask20_545)">
			<g style="mix-blend-mode:normal">
				<path id="Path 20064" d="M94.98 194.03C94.69 193.92 94.36 194.07 94.25 194.36L90.32 205.68C90.25 205.95 90.37 206.23 90.61 206.36C90.91 206.44 91.22 206.28 91.33 205.98L95.13 194.64C95.21 194.43 95.15 194.18 94.98 194.03Z" fill="#FC4210" fill-opacity="1.000000" fill-rule="nonzero"/>
			</g>
		</g>
		<g mask="url(#mask20_545)">
			<g style="mix-blend-mode:normal">
				<path id="Path 20065" d="M60.06 171.19C56.06 175.44 51.89 179.6 47.64 183.58C47.43 183.81 47.42 184.15 47.62 184.38L47.79 184.47C48 184.59 48.26 184.55 48.43 184.38C52.7 180.37 56.89 176.18 60.92 171.94C61.12 171.72 61.11 171.37 60.89 171.16C60.65 170.94 60.28 170.96 60.06 171.19Z" fill="#FC4210" fill-opacity="1.000000" fill-rule="nonzero"/>
			</g>
		</g>
		<g mask="url(#mask20_545)">
			<g style="mix-blend-mode:normal">
				<path id="Path 20066" d="M52.77 165.6L42.86 171.89C42.61 172.06 42.53 172.39 42.68 172.65C42.76 172.72 42.86 172.77 42.96 172.79C43.14 172.87 43.35 172.86 43.51 172.76L53.43 166.47C53.69 166.3 53.77 165.95 53.6 165.69C53.43 165.45 53.01 165.43 52.77 165.6Z" fill="#FC4210" fill-opacity="1.000000" fill-rule="nonzero"/>
			</g>
		</g>
		<g mask="url(#mask20_545)">
			<g style="mix-blend-mode:normal">
				<path id="Path 20067" d="M53.13 158.8C44.57 161.18 35.99 163.87 27.54 166.95C27.25 167.05 27.09 167.36 27.18 167.65C27.23 167.78 27.33 167.89 27.45 167.96C27.58 168.04 27.75 168.04 27.9 167.98C36.19 165.14 44.83 162.48 53.19 159.92C53.48 159.82 53.64 159.51 53.55 159.22C53.5 159.01 53.34 158.85 53.13 158.8Z" fill="#FC4210" fill-opacity="1.000000" fill-rule="nonzero"/>
			</g>
		</g>
		<g mask="url(#mask20_545)">
			<g style="mix-blend-mode:normal">
				<path id="Path 20068" d="M37.41 123.87C32.26 123.79 27.12 124.24 22.07 125.2C21.78 125.3 21.62 125.61 21.71 125.9C21.74 126.07 21.85 126.22 22.01 126.3C22.08 126.39 22.2 126.44 22.31 126.45C27.3 125.52 32.37 125.1 37.44 125.19C37.76 125.2 38.02 124.94 38.03 124.62C38.04 124.31 37.78 124.04 37.46 124.04L37.41 123.87Z" fill="#FC4210" fill-opacity="1.000000" fill-rule="nonzero"/>
			</g>
		</g>
		<g mask="url(#mask20_545)">
			<g style="mix-blend-mode:normal">
				<path id="Path 20069" d="M42.28 111.94C36.99 110.52 31.52 109.86 26.04 109.99C25.73 109.99 25.48 110.24 25.48 110.55C25.48 110.78 25.61 110.98 25.81 111.07L26.06 111.2C31.48 111.05 36.89 111.68 42.12 113.09C42.44 113.14 42.73 112.92 42.78 112.6C42.83 112.28 42.6 111.99 42.28 111.94Z" fill="#FC4210" fill-opacity="1.000000" fill-rule="nonzero"/>
			</g>
		</g>
		<g mask="url(#mask20_545)">
			<g style="mix-blend-mode:normal">
				<path id="Path 20070" d="M68.14 54.47C68.02 54.17 67.68 54.03 67.38 54.15C67.09 54.27 66.95 54.61 67.07 54.91C68.59 58.47 70.69 61.75 73.29 64.61L73.45 64.7C73.67 64.81 73.93 64.77 74.1 64.6C74.33 64.42 74.37 64.08 74.18 63.85C71.65 61.11 69.58 57.91 68.14 54.47Z" fill="#FC4210" fill-opacity="1.000000" fill-rule="nonzero"/>
			</g>
		</g>
		<g mask="url(#mask20_545)">
			<g style="mix-blend-mode:normal">
				<path id="Path 20071" d="M70.6 29.47C70.56 29.17 70.29 28.94 69.98 28.95C69.67 28.99 69.44 29.25 69.46 29.56C70.26 39.67 73.08 49.51 77.74 58.51C77.83 58.59 77.93 58.64 78.05 58.67C78.21 58.75 78.4 58.74 78.55 58.64C78.84 58.54 79 58.23 78.91 57.94C74.25 49.11 71.43 39.43 70.6 29.47Z" fill="#FC4210" fill-opacity="1.000000" fill-rule="nonzero"/>
			</g>
		</g>
		<g mask="url(#mask20_545)">
			<g style="mix-blend-mode:normal">
				<path id="Path 20072" d="M84.06 96.63C85.36 91.39 83.41 86.76 75.06 84.7L56.26 80.21L47.37 116.65L64.5 120.89C74.63 123.4 79.54 120.01 81.12 113.57C82.46 109.6 80.84 105.23 77.25 103.08C80.64 102.57 83.36 100 84.06 96.63ZM63.49 90.07L71.53 92.05C73.27 92.13 74.61 93.6 74.53 95.34C74.52 95.61 74.47 95.89 74.38 96.15C73.77 98.52 72.17 99.12 69.9 98.57L61.88 96.56L63.49 90.07ZM66.74 113.31L58.21 111.19L60.26 102.87L68.79 104.99C70.89 105.23 72.41 107.13 72.17 109.24C72.13 109.54 72.06 109.85 71.96 110.14C71.68 112.28 69.73 113.79 67.59 113.52C67.3 113.48 67.01 113.41 66.74 113.31Z" fill="#2A003C" fill-opacity="1.000000" fill-rule="nonzero"/>
			</g>
		</g>
		<g mask="url(#mask20_545)">
			<g style="mix-blend-mode:normal">
				<path id="Path 20073" d="M109.51 89.96C97.81 84 87.39 88.23 80.98 100.82C74.56 113.41 77.54 123.79 89.23 129.75C100.93 135.71 110.8 132.4 117.32 119.62C123.84 106.83 121.29 95.96 109.51 89.96ZM93.46 121.45C87.85 118.59 86.26 113.75 90.34 105.73C94.43 97.71 99.56 95.48 105.22 98.37C110.89 101.26 112 106.84 107.98 114.72C103.97 122.6 98 123.76 93.46 121.45Z" fill="#2A003C" fill-opacity="1.000000" fill-rule="nonzero"/>
			</g>
		</g>
		<g mask="url(#mask20_545)">
			<g style="mix-blend-mode:normal">
				<path id="Path 20074" d="M111.92 117.54C105.52 130.1 108.48 140.51 120.17 146.47C131.86 152.42 141.73 149.15 148.24 136.36C154.76 123.58 152.18 112.76 140.4 106.76C128.62 100.76 118.33 104.94 111.92 117.54ZM138.89 131.49C134.86 139.4 128.91 140.54 124.37 138.22C118.76 135.36 117.17 130.52 121.25 122.5C125.34 114.48 130.47 112.26 136.13 115.14C141.8 118.03 142.91 123.61 138.89 131.49Z" fill="#2A003C" fill-opacity="1.000000" fill-rule="nonzero"/>
			</g>
		</g>
		<g mask="url(#mask20_545)">
			<g style="mix-blend-mode:normal">
				<path id="Path 20075" d="M162 174.04L185.46 148.58L176.04 139.9L157.17 154.05L169.75 134.08L160.17 125.24L136.71 150.69L142.76 156.28L156.99 140.82L146.04 159.33L152.54 165.29L170.2 152.82L155.85 168.36L162 174.04Z" fill="#2A003C" fill-opacity="1.000000" fill-rule="nonzero"/>
			</g>
		</g>
		<g mask="url(#mask20_545)">
			<g style="mix-blend-mode:normal">
				<path id="Path 20076" d="M194.86 157.25L188.43 151.29C187.59 151.8 186.84 152.42 186.2 153.16C181.4 158.54 177.15 164.38 173.5 170.6L176.72 173.58C182.67 169.51 188.17 164.8 193.09 159.53C193.76 158.83 194.35 158.07 194.86 157.25Z" fill="#2A003C" fill-opacity="1.000000" fill-rule="nonzero"/>
			</g>
		</g>
		<g mask="url(#mask20_545)">
			<g style="mix-blend-mode:normal">
				<rect id="Rectangle 2820" x="164.953125" y="176.751465" width="7.616598" height="8.562066" transform="rotate(-47.3213 164.953125 176.751465)" fill="#2A003C" fill-opacity="1.000000"/>
			</g>
		</g>
		<mask id="mask20_611" mask-type="alpha" maskUnits="userSpaceOnUse" x="44.411621" y="73.474854" width="52.486816" height="54.195312">
			<g style="mix-blend-mode:normal">
				<path id="Path 20077" d="M65.14 100.77L73.69 102.86C75.99 103.38 77.44 105.67 76.92 107.98C76.4 110.28 74.1 111.73 71.8 111.21C71.74 111.19 71.67 111.18 71.61 111.16L63.07 109.07L65.14 100.77ZM68.32 87.94L76.36 89.91C78.62 90.47 79.72 91.91 79.19 94.01C78.65 96.1 77 96.99 74.75 96.41L66.71 94.43L68.32 87.94ZM79.86 82.55L61.05 77.88L52.03 114.43L69.26 118.62C79.39 121.13 84.33 117.75 85.92 111.29C87.24 107.32 85.63 102.97 82.03 100.83C85.41 100.34 88.13 97.82 88.87 94.49C89.92 90.31 88.88 86.51 84.15 84.09C82.96 83.49 81.54 82.97 79.86 82.55Z" fill="#C4C4C4" fill-opacity="1.000000" fill-rule="nonzero"/>
			</g>
		</mask>
		<g mask="url(#mask20_611)">
			<g style="mix-blend-mode:normal">
				<rect id="Rectangle 2822" x="52.114014" y="71.281250" width="48.753780" height="50.662815" transform="rotate(11.0969 52.114014 71.281250)" fill="url(#paint_linear_20_612_0)" fill-opacity="1.000000"/>
			</g>
		</g>
		<mask id="mask20_615" mask-type="alpha" maskUnits="userSpaceOnUse" x="137.281982" y="118.851562" width="57.246338" height="57.301514">
			<g style="mix-blend-mode:normal">
				<path id="Path 20078" d="M141.51 148.54L147.56 154.14L161.82 138.69L150.89 157.17L157.34 163.15L175.05 150.66L160.68 166.23L166.81 171.89L190.29 146.45L180.86 137.72L161.99 151.88L174.58 131.95L165 123.11L141.51 148.54Z" fill="#C4C4C4" fill-opacity="1.000000" fill-rule="nonzero"/>
			</g>
		</mask>
		<g mask="url(#mask20_615)">
			<g style="mix-blend-mode:normal">
				<rect id="Rectangle 2823" x="145.176025" y="116.601807" width="52.578041" height="52.664619" transform="rotate(11.0969 145.176025 116.601807)" fill="url(#paint_linear_20_616_0)" fill-opacity="1.000000"/>
			</g>
		</g>
		<mask id="mask20_619" mask-type="alpha" maskUnits="userSpaceOnUse" x="177.864258" y="147.134033" width="22.887451" height="28.252686">
			<g style="mix-blend-mode:normal">
				<path id="Path 20079" d="M191.09 151.06C186.27 156.42 182.02 162.27 178.39 168.5L181.62 171.45C187.56 167.37 193.06 162.66 198 157.4C198.62 156.68 199.18 155.9 199.67 155.08L193.29 149.17C192.46 149.68 191.72 150.32 191.09 151.06Z" fill="#C4C4C4" fill-opacity="1.000000" fill-rule="nonzero"/>
			</g>
		</mask>
		<g mask="url(#mask20_619)">
			<g style="mix-blend-mode:normal">
				<rect id="Rectangle 2824" x="182.520752" y="145.808105" width="19.269993" height="27.714355" transform="rotate(11.1001 182.520752 145.808105)" fill="url(#paint_linear_20_620_0)" fill-opacity="1.000000"/>
			</g>
		</g>
		<mask id="mask20_623" mask-type="alpha" maskUnits="userSpaceOnUse" x="169.787109" y="169.015381" width="11.456055" height="11.402344">
			<g style="mix-blend-mode:normal">
				<rect id="Rectangle 2826" x="169.787109" y="174.613037" width="7.616360" height="8.560125" transform="rotate(-47.3034 169.787109 174.613037)" fill="#C4C4C4" fill-opacity="1.000000"/>
			</g>
		</mask>
		<g mask="url(#mask20_623)">
			<g style="mix-blend-mode:normal">
				<rect id="Rectangle 2825" x="170.519775" y="167.571289" width="12.552932" height="12.100572" transform="rotate(11.0982 170.519775 167.571289)" fill="url(#paint_linear_20_624_0)" fill-opacity="1.000000"/>
			</g>
		</g>
		<mask id="mask20_627" mask-type="alpha" maskUnits="userSpaceOnUse" x="-15.000000" y="-27.000000" width="296.715332" height="291.724121">
			<g style="mix-blend-mode:normal">
				<rect id="Rectangle 2827" x="81.718262" y="-27.000000" width="224.462036" height="213.040512" transform="rotate(27 81.718262 -27.000000)" fill="#C4C4C4" fill-opacity="1.000000"/>
			</g>
		</mask>
		<g mask="url(#mask20_627)">
			<g style="mix-blend-mode:normal">
				<path id="Path 20080" d="M77.72 96.54C79.51 95.42 80.09 93.08 79.04 91.25C78.38 90.38 77.41 89.8 76.33 89.62L68.31 87.62C68.27 87.57 68.21 87.54 68.14 87.53C68.1 87.59 68.06 87.66 68.04 87.73L66.43 94.22C66.41 94.34 66.48 94.46 66.6 94.52L74.69 96.66C75.68 96.98 76.75 96.94 77.72 96.54ZM67.04 94.21L68.52 88.25L76.29 90.2C77.2 90.35 78.02 90.83 78.6 91.55C79.06 92.26 79.18 93.14 78.93 93.95C78.79 94.84 78.25 95.62 77.47 96.06C76.62 96.41 75.68 96.44 74.81 96.15L67.04 94.21Z" fill="#2A003C" fill-opacity="1.000000" fill-rule="nonzero"/>
			</g>
		</g>
		<g mask="url(#mask20_627)">
			<g style="mix-blend-mode:normal">
				<path id="Path 20081" d="M73.74 102.61L65.22 100.49C65.06 100.44 64.91 100.53 64.87 100.68L62.81 109.01C62.8 109.13 62.86 109.24 62.95 109.3L71.48 111.41C72.7 111.83 74.04 111.72 75.17 111.11C76.19 110.37 76.89 109.27 77.12 108.04C77.86 105.89 76.72 103.54 74.56 102.8C74.3 102.71 74.02 102.64 73.74 102.61ZM74.88 110.64C73.89 111.16 72.73 111.25 71.67 110.91L63.42 108.86L65.34 101.08L73.6 103.17C75.57 103.39 76.98 105.17 76.76 107.14C76.73 107.41 76.67 107.68 76.57 107.93C76.39 109.03 75.78 110 74.88 110.64Z" fill="#2A003C" fill-opacity="1.000000" fill-rule="nonzero"/>
			</g>
		</g>
		<g mask="url(#mask20_627)">
			<g style="mix-blend-mode:normal">
				<path id="Path 20082" d="M89.15 94.56C90.21 90.26 89.46 84.65 79.92 82.3L61.13 77.6C60.98 77.57 60.83 77.67 60.8 77.82L51.75 114.36L51.95 114.46L69.05 118.69C78.46 121.01 84.22 118.51 86.02 111.16C87.27 107.33 85.9 103.13 82.63 100.77C85.81 100.12 88.34 97.71 89.15 94.56ZM81.97 100.61C81.87 100.68 81.82 100.78 81.82 100.89C81.81 101.01 81.86 101.12 81.96 101.18C85.45 103.27 87.01 107.5 85.71 111.35C83.98 118.35 78.49 120.74 69.4 118.48L52.56 114.31L61.36 78.25L79.81 82.81C87.11 84.62 90.07 88.53 88.64 94.37C87.98 97.67 85.29 100.17 81.97 100.61Z" fill="#2A003C" fill-opacity="1.000000" fill-rule="nonzero"/>
			</g>
		</g>
		<g mask="url(#mask20_627)">
			<g style="mix-blend-mode:normal">
				<path id="Path 20083" d="M160.51 166.42L166.64 172.09L166.8 172.17L190.35 146.76C190.41 146.71 190.44 146.64 190.45 146.56L181.03 137.88C180.92 137.79 180.76 137.78 180.65 137.86L162.97 151.14L174.76 132.42C174.85 132.34 174.84 132.2 174.76 132.11L165.11 123.23C165.03 123.13 164.9 123.11 164.8 123.19L141.2 148.67C141.1 148.77 141.11 148.93 141.21 149.02L147.27 154.63C147.39 154.73 147.56 154.72 147.67 154.61L160.16 141.06L150.52 157.34C150.47 157.45 150.48 157.58 150.56 157.68L157.06 163.64C157.11 163.74 157.22 163.8 157.34 163.78L172.92 152.75L160.32 166.46C160.38 166.48 160.46 166.47 160.51 166.42ZM175.23 150.85C175.32 150.73 175.29 150.55 175.17 150.46C175.08 150.39 174.97 150.38 174.88 150.43L157.42 162.73L151.27 157.05L162.12 138.73C162.18 138.61 162.14 138.45 162.02 138.37C161.9 138.3 161.76 138.33 161.67 138.43L147.59 153.66L141.89 148.56L165.01 123.5L174.2 132L161.79 151.64C161.74 151.76 161.77 151.9 161.86 151.99C161.96 152.08 162.11 152.07 162.21 151.99L180.9 137.99L189.96 146.35L166.8 171.5L161.08 166.22L175.23 150.85Z" fill="#2A003C" fill-opacity="1.000000" fill-rule="nonzero"/>
			</g>
		</g>
		<g mask="url(#mask20_627)">
			<g style="mix-blend-mode:normal">
				<path id="Path 20084" d="M199.91 155.24C199.97 155.13 199.96 154.99 199.87 154.9L193.4 148.95C193.35 148.85 193.23 148.8 193.12 148.81C192.27 149.33 191.5 149.98 190.84 150.72C186.01 156.11 181.75 161.97 178.11 168.22C178.05 168.34 178.07 168.48 178.18 168.57L181.39 171.55C181.48 171.59 181.58 171.57 181.66 171.51C187.62 167.42 193.12 162.71 198.08 157.45C198.76 156.77 199.37 156.03 199.91 155.24ZM197.72 157.19C192.84 162.38 187.43 167.04 181.56 171.07L178.68 168.4C182.28 162.26 186.48 156.5 191.23 151.2C191.8 150.54 192.46 149.96 193.2 149.48L199.32 155.15C198.85 155.88 198.31 156.56 197.72 157.19Z" fill="#2A003C" fill-opacity="1.000000" fill-rule="nonzero"/>
			</g>
		</g>
		<g mask="url(#mask20_627)">
			<g style="mix-blend-mode:normal">
				<path id="Path 20085" d="M175.12 168.81C175.07 168.75 175 168.71 174.92 168.71L169.74 174.3C169.7 174.35 169.67 174.41 169.66 174.47L175.95 180.29C176.06 180.35 176.2 180.34 176.29 180.25L181.44 174.65C181.53 174.53 181.52 174.36 181.43 174.25L175.12 168.81ZM176.08 179.9L170.19 174.46L174.99 169.28L180.87 174.71L176.08 179.9Z" fill="#2A003C" fill-opacity="1.000000" fill-rule="nonzero"/>
			</g>
		</g>
		<mask id="mask20_636" mask-type="alpha" maskUnits="userSpaceOnUse" x="75.783203" y="78.514404" width="56.758789" height="58.381592">
			<g style="mix-blend-mode:normal">
				<path id="Path 20086" d="M95.16 103.56C99.25 95.54 104.4 93.32 110.07 96.21C115.73 99.1 116.83 104.64 112.8 112.55C108.77 120.45 102.82 121.59 98.31 119.29C92.7 116.43 91.07 111.58 95.16 103.56ZM85.78 98.67C79.36 111.26 82.34 121.65 94.06 127.62C105.78 133.59 115.63 130.27 122.14 117.51C128.64 104.75 126.12 93.83 114.34 87.83C102.62 81.85 92.2 86.08 85.78 98.67Z" fill="#C4C4C4" fill-opacity="1.000000" fill-rule="nonzero"/>
			</g>
		</mask>
		<g mask="url(#mask20_636)">
			<g style="mix-blend-mode:normal">
				<rect id="Rectangle 2828" x="84.049805" y="76.160156" width="51.616558" height="54.170586" transform="rotate(11.0969 84.049805 76.160156)" fill="url(#paint_linear_20_637_0)" fill-opacity="1.000000"/>
			</g>
		</g>
		<mask id="mask20_640" mask-type="alpha" maskUnits="userSpaceOnUse" x="-15.000000" y="-27.000000" width="296.715332" height="291.724121">
			<g style="mix-blend-mode:normal">
				<rect id="Rectangle 2829" x="81.718262" y="-27.000000" width="224.462036" height="213.040512" transform="rotate(27 81.718262 -27.000000)" fill="#C4C4C4" fill-opacity="1.000000"/>
			</g>
		</mask>
		<g mask="url(#mask20_640)">
			<g style="mix-blend-mode:normal">
				<path id="Path 20087" d="M110.15 96.04C104.18 93 98.91 95.58 94.86 103.51C90.82 111.45 92.04 116.41 98.18 119.54C102.52 121.76 108.71 121.06 113 112.65C117 104.79 116.04 99.04 110.15 96.04ZM98.42 119.07C92.62 116.11 91.63 111.12 95.37 103.77C99.11 96.42 104.27 93.65 109.91 96.52C115.55 99.39 116.4 104.92 112.53 112.52C108.43 120.56 102.54 121.17 98.42 119.07Z" fill="#2A003C" fill-opacity="1.000000" fill-rule="nonzero"/>
			</g>
		</g>
		<g mask="url(#mask20_640)">
			<g style="mix-blend-mode:normal">
				<path id="Path 20088" d="M114.47 87.57C102.69 81.57 92.16 85.6 85.56 98.56C78.95 111.51 82.07 121.62 94.02 127.7C105.97 133.79 115.9 130.3 122.45 117.46C128.99 104.62 126.24 93.57 114.47 87.57ZM94.22 127.31C82.58 121.38 79.69 111.25 86.03 98.8C92.38 86.35 102.74 82.23 114.21 88.08C125.68 93.92 128.43 104.54 121.93 117.3C115.42 130.06 106 133.31 94.22 127.31Z" fill="#2A003C" fill-opacity="1.000000" fill-rule="nonzero"/>
			</g>
		</g>
		<mask id="mask20_645" mask-type="alpha" maskUnits="userSpaceOnUse" x="106.721191" y="95.315918" width="56.715820" height="58.297607">
			<g style="mix-blend-mode:normal">
				<path id="Path 20089" d="M126.06 120.36C130.16 112.31 135.45 110.17 141.06 113.03C146.67 115.88 147.72 121.44 143.69 129.35C139.66 137.25 133.72 138.39 129.2 136.09C123.59 133.23 121.95 128.41 126.06 120.36ZM116.72 115.39C110.33 127.92 113.28 138.36 125 144.34C136.72 150.31 146.57 146.99 153.07 134.23C159.57 121.47 156.98 110.61 145.23 104.63C133.48 98.64 123.15 102.77 116.72 115.39Z" fill="#C4C4C4" fill-opacity="1.000000" fill-rule="nonzero"/>
			</g>
		</mask>
		<g mask="url(#mask20_645)">
			<g style="mix-blend-mode:normal">
				<rect id="Rectangle 2830" x="114.969971" y="92.966553" width="51.590652" height="54.079796" transform="rotate(11.0969 114.969971 92.966553)" fill="url(#paint_linear_20_646_0)" fill-opacity="1.000000"/>
			</g>
		</g>
		<mask id="mask20_649" mask-type="alpha" maskUnits="userSpaceOnUse" x="-15.000000" y="-27.000000" width="296.715332" height="291.724121">
			<g style="mix-blend-mode:normal">
				<rect id="Rectangle 2831" x="81.718262" y="-27.000000" width="224.462036" height="213.040512" transform="rotate(27 81.718262 -27.000000)" fill="#C4C4C4" fill-opacity="1.000000"/>
			</g>
		</mask>
		<g mask="url(#mask20_649)">
			<g style="mix-blend-mode:normal">
				<path id="Path 20090" d="M125.8 120.23C121.9 127.89 122.97 133.13 129.12 136.26C133.46 138.47 139.67 137.86 143.95 129.48C147.99 121.54 146.95 115.82 141.14 112.86C135.34 109.9 129.85 112.29 125.8 120.23ZM143.47 129.23C139.37 137.28 133.48 137.88 129.36 135.78C123.55 132.83 122.56 127.83 126.31 120.49C130.05 113.14 135.32 110.42 140.93 113.28C146.54 116.14 147.34 121.63 143.47 129.23Z" fill="#2A003C" fill-opacity="1.000000" fill-rule="nonzero"/>
			</g>
		</g>
		<g mask="url(#mask20_649)">
			<g style="mix-blend-mode:normal">
				<path id="Path 20091" d="M116.49 115.28C109.99 128.03 112.97 138.42 124.91 144.5C136.86 150.59 146.8 147.1 153.34 134.26C159.88 121.42 157.07 110.38 145.43 104.45C133.79 98.52 123.11 102.29 116.49 115.28ZM152.86 134.02C146.49 146.53 136.92 149.99 125.17 144C113.42 138.01 110.63 127.97 116.97 115.52C123.32 103.07 133.69 98.92 145.16 104.77C156.63 110.61 159.37 121.26 152.86 134.02Z" fill="#2A003C" fill-opacity="1.000000" fill-rule="nonzero"/>
			</g>
		</g>
	</g>
</svg>
