<svg width="182.615234" height="181.875000" viewBox="0 0 182.615 181.875" fill="none" xmlns="http://www.w3.org/2000/svg" xmlns:xlink="http://www.w3.org/1999/xlink">
	<desc>
			Created with Pixso.
	</desc>
	<defs/>
	<mask id="mask1_26308" mask-type="alpha" maskUnits="userSpaceOnUse" x="0.000000" y="0.000488" width="182.615234" height="181.874512">
		<g style="mix-blend-mode:normal">
			<rect id="Rectangle 3792" y="34.294434" width="152.451004" height="151.462540" transform="rotate(-13 0.000000 34.294434)" fill="#C4C4C4" fill-opacity="1.000000"/>
		</g>
	</mask>
	<g mask="url(#mask1_26308)">
		<g style="mix-blend-mode:normal">
			<path id="Path 35083" d="M34.28 101.25C25.45 97.88 12.94 91.83 13.47 84.85C13.81 80.27 19.07 76.63 30.01 73.4C32.41 72.69 34.75 72.11 36.69 71.66C30.75 64.36 22.96 52.92 26.87 47.14C27.76 45.83 29.15 44.89 30.97 44.35C36.76 42.64 47.39 45.31 53.7 47.22C52.25 37.96 51.28 24.2 57.54 21.16C57.85 21.01 58.16 20.89 58.49 20.8C64.83 18.93 74.64 27.92 80.78 34.52C83.68 27.19 89.04 15.88 95.01 14.13C95.76 13.9 96.52 13.82 97.27 13.87C104.28 14.39 108.55 27.75 110.66 36.96C115.08 33.51 122.32 28.31 127.89 26.67C131 25.75 133.52 25.95 135.4 27.23C141.17 31.18 138.17 44.75 135.37 53.77C144.74 52.32 158.67 51.35 161.72 57.68C164.74 63.99 155.32 74.21 148.33 80.61C157.16 83.98 169.67 90.03 169.16 97C168.82 101.59 163.56 105.24 152.58 108.48C150.18 109.18 147.87 109.75 145.92 110.2C151.87 117.51 159.66 128.95 155.75 134.72C154.87 136.04 153.48 136.98 151.65 137.52C145.87 139.23 135.22 136.56 128.91 134.64C130.35 143.9 131.32 157.66 125.08 160.7C124.76 160.85 124.44 160.98 124.12 161.07C117.77 162.94 107.97 153.95 101.82 147.35C98.92 154.67 93.58 165.97 87.61 167.72C86.85 167.95 86.09 168.04 85.35 167.98C78.33 167.47 74.07 154.11 71.95 144.9C67.54 148.35 60.29 153.55 54.72 155.18C51.62 156.1 49.09 155.91 47.2 154.62C41.44 150.68 44.43 137.11 47.23 128.11C37.87 129.56 23.93 130.52 20.89 124.2C17.86 117.88 27.29 107.65 34.28 101.25Z" fill="#FFCF00" fill-opacity="1.000000" fill-rule="nonzero"/>
		</g>
	</g>
	<g mask="url(#mask1_26308)">
		<g style="mix-blend-mode:normal">
			<path id="Path 35084" d="M36.61 90.93C37.79 121.51 63.53 145.34 94.11 144.17C124.69 142.99 148.52 117.24 147.34 86.67C146.17 56.09 120.42 32.25 89.85 33.43C59.27 34.61 35.44 60.35 36.61 90.93Z" fill="#F5AE00" fill-opacity="1.000000" fill-rule="evenodd"/>
		</g>
	</g>
	<g mask="url(#mask1_26308)">
		<g style="mix-blend-mode:normal">
			<path id="Path 35085" d="M37.9 90.86C39.03 120.11 63.66 142.93 92.91 141.8C122.18 140.67 144.98 116.03 143.86 86.78C142.73 57.51 118.1 34.71 88.84 35.83C59.58 36.96 36.77 61.59 37.9 90.86Z" fill="#FFD700" fill-opacity="1.000000" fill-rule="evenodd"/>
		</g>
	</g>
	<g mask="url(#mask1_26308)">
		<g style="mix-blend-mode:normal">
			<path id="Path 35086" d="M105.4 40.94C89.01 35.24 86.56 50.55 95.41 53.15C104.27 55.75 125.79 53.71 137.66 77.27C136.77 60.14 119.7 45.92 105.4 40.94Z" fill="#FFF36A" fill-opacity="1.000000" fill-rule="evenodd"/>
		</g>
	</g>
	<g mask="url(#mask1_26308)">
		<g style="mix-blend-mode:normal">
			<path id="Path 35087" d="M72.28 92.11C73.89 95.05 70.92 99.67 65.95 101.09C60.96 102.52 56.64 100.33 54.94 96.72C53.38 93.43 55.89 88.61 62.02 89.34C67.76 90.02 70.62 89.07 72.28 92.11Z" fill="#ED5D5A" fill-opacity="1.000000" fill-rule="nonzero"/>
		</g>
	</g>
	<g mask="url(#mask1_26308)">
		<g style="mix-blend-mode:normal">
			<path id="Path 35088" d="M124.21 86.56C124.01 91.12 119.66 94.31 113.72 94.61C107.99 94.91 102.17 90.61 103.18 86.37C104.15 82.33 107.28 83.74 113.9 81.3C120.31 78.94 124.41 82.01 124.21 86.56Z" fill="#ED5D5A" fill-opacity="1.000000" fill-rule="nonzero"/>
		</g>
	</g>
	<g mask="url(#mask1_26308)">
		<g style="mix-blend-mode:normal">
			<path id="Path 35089" d="M74.34 95.55C74.34 95.55 78.78 116.92 92.59 114.68C108.47 112.09 101.57 90.42 101.57 90.42C101.57 90.42 90.26 96.97 74.34 95.55Z" fill="#422316" fill-opacity="1.000000" fill-rule="nonzero"/>
		</g>
	</g>
	<g mask="url(#mask1_26308)">
		<g style="mix-blend-mode:normal">
			<path id="Path 35090" d="M102.31 106.23C99.69 104.97 96.62 104.48 93.02 105.36C87.87 106.62 85.52 109.65 84.67 113.13C86.88 114.49 89.5 115.18 92.6 114.68C98.38 113.73 101.13 110.26 102.31 106.23Z" fill="#EB4B48" fill-opacity="1.000000" fill-rule="nonzero"/>
		</g>
	</g>
	<g mask="url(#mask1_26308)">
		<g style="mix-blend-mode:normal">
			<path id="Path 35091" d="M88.72 83.21C86.43 80.8 84.64 80.81 83.55 81.23C83.44 81.27 83.35 81.31 83.27 81.35C81.77 82.12 80.92 84.15 81.27 86.09C81.65 88.19 83.27 89.59 85.62 89.85C85.7 89.86 85.78 89.85 85.85 89.82C85.9 89.81 85.94 89.78 85.98 89.75C86.09 89.66 86.16 89.54 86.17 89.4C86.2 89.12 86.01 88.87 85.73 88.83C83.03 88.54 82.42 86.69 82.27 85.9C82 84.38 82.62 82.82 83.73 82.25C84.9 81.67 86.42 82.27 87.98 83.91C88.18 84.12 88.53 84.11 88.7 83.94C88.81 83.84 88.86 83.72 88.86 83.57C88.86 83.44 88.81 83.31 88.72 83.21Z" fill="#592E1C" fill-opacity="1.000000" fill-rule="nonzero"/>
		</g>
	</g>
	<g mask="url(#mask1_26308)">
		<g style="mix-blend-mode:normal">
			<path id="Path 35092" d="M102.87 66.9C102.81 66.92 102.76 66.94 102.7 66.96C100.15 67.96 98.02 70.8 99.71 75.78C99.77 75.97 99.91 76.12 100.08 76.22C100.26 76.31 100.47 76.32 100.65 76.26C101.05 76.16 101.27 75.7 101.13 75.3C99.99 71.91 100.76 69.34 103.2 68.39C103.25 68.37 103.31 68.35 103.37 68.33C106.7 67.16 111.52 69.29 113.37 74.34C113.5 74.73 113.94 74.92 114.34 74.79C114.72 74.63 114.93 74.21 114.79 73.82C112.63 67.93 106.88 65.49 102.87 66.9Z" fill="#592E1C" fill-opacity="1.000000" fill-rule="nonzero"/>
		</g>
	</g>
	<g mask="url(#mask1_26308)">
		<g style="mix-blend-mode:normal">
			<path id="Path 35093" d="M62.13 74.21C62.06 74.23 61.98 74.26 61.92 74.28C59.5 75.22 57.49 77.92 59.1 82.68C59.24 83.07 59.67 83.29 60.05 83.15C60.46 83.03 60.67 82.6 60.54 82.2C59.44 78.97 60.16 76.58 62.51 75.67L62.63 75.63C65.78 74.52 70.33 76.54 72.08 81.31C72.22 81.7 72.66 81.91 73.05 81.76C73.43 81.61 73.63 81.17 73.49 80.8C71.44 75.18 65.96 72.86 62.13 74.21Z" fill="#592E1C" fill-opacity="1.000000" fill-rule="nonzero"/>
		</g>
	</g>
</svg>
