<svg width="44.635620" height="44.635742" viewBox="0 0 44.6356 44.6357" fill="none" xmlns="http://www.w3.org/2000/svg" xmlns:xlink="http://www.w3.org/1999/xlink">
	<desc>
			Created with Pixso.
	</desc>
	<defs/>
	<g style="mix-blend-mode:normal">
		<path id="Path 20931" d="M39.59 41.75L5.03 41.75C2.26 41.75 0 39.49 0 36.71C0 33.93 2.26 31.67 5.03 31.67L39.59 31.67C42.37 31.67 44.63 33.93 44.63 36.71C44.63 39.49 42.37 41.75 39.59 41.75ZM5.03 33.11C3.05 33.11 1.43 34.73 1.43 36.71C1.43 38.7 3.05 40.31 5.03 40.31L39.59 40.31C41.58 40.31 43.19 38.7 43.19 36.71C43.19 34.73 41.58 33.11 39.59 33.11L5.03 33.11Z" fill="#212121" fill-opacity="1.000000" fill-rule="evenodd"/>
	</g>
	<g style="mix-blend-mode:normal">
		<path id="Path 20932" d="M2.15 34.21C1.76 34.21 1.43 33.89 1.43 33.49L1.43 11.51C1.43 11.12 1.76 10.79 2.15 10.79L9.35 10.79C9.75 10.79 10.07 11.12 10.07 11.51L10.07 32.39C10.07 32.79 9.75 33.11 9.35 33.11C8.96 33.11 8.63 32.79 8.63 32.39L8.63 12.23L2.87 12.23L2.87 33.49C2.87 33.89 2.55 34.21 2.15 34.21Z" fill="#212121" fill-opacity="1.000000" fill-rule="evenodd"/>
	</g>
	<g style="mix-blend-mode:normal">
		<path id="Path 20933" d="M42.47 34.21C42.07 34.21 41.75 33.89 41.75 33.49L41.75 12.23L35.99 12.23L35.99 32.39C35.99 32.79 35.67 33.11 35.27 33.11C34.87 33.11 34.55 32.79 34.55 32.39L34.55 11.51C34.55 11.12 34.87 10.79 35.27 10.79L42.47 10.79C42.87 10.79 43.19 11.12 43.19 11.51L43.19 33.49C43.19 33.89 42.87 34.21 42.47 34.21Z" fill="#212121" fill-opacity="1.000000" fill-rule="evenodd"/>
	</g>
	<g style="mix-blend-mode:normal">
		<path id="Path 20934" d="M10.79 12.23L0.71 12.23C0.43 12.23 0.18 12.07 0.06 11.81C-0.06 11.55 -0.01 11.25 0.17 11.04L5.21 5.28C5.35 5.12 5.55 5.03 5.75 5.03C5.96 5.03 6.16 5.12 6.3 5.28L11.34 11.04C11.52 11.25 11.57 11.55 11.45 11.81C11.33 12.07 11.08 12.23 10.79 12.23ZM2.3 10.79L9.21 10.79L5.75 6.85L2.3 10.79Z" fill="#212121" fill-opacity="1.000000" fill-rule="evenodd"/>
	</g>
	<g style="mix-blend-mode:normal">
		<path id="Path 20935" d="M43.91 12.23L33.83 12.23C33.55 12.23 33.29 12.07 33.18 11.81C33.06 11.55 33.1 11.25 33.29 11.04L38.33 5.28C38.47 5.12 38.66 5.03 38.87 5.03C39.08 5.03 39.28 5.12 39.41 5.28L44.45 11.04C44.64 11.25 44.68 11.55 44.57 11.81C44.45 12.07 44.19 12.23 43.91 12.23ZM35.42 10.79L42.32 10.79L38.87 6.85L35.42 10.79Z" fill="#212121" fill-opacity="1.000000" fill-rule="evenodd"/>
	</g>
	<g style="mix-blend-mode:normal">
		<path id="Path 20936" d="M35.27 33.11L9.35 33.11C8.96 33.11 8.63 32.79 8.63 32.39L8.63 16.42C8.63 16.14 8.8 15.88 9.06 15.77C11.15 14.84 13.34 14.13 15.58 13.66C17.79 13.19 20.05 12.95 22.31 12.95C24.57 12.95 26.84 13.19 29.05 13.66C31.28 14.13 33.48 14.84 35.56 15.77C35.82 15.88 35.99 16.14 35.99 16.42L35.99 32.39C35.99 32.79 35.67 33.11 35.27 33.11ZM10.07 31.67L34.55 31.67L34.55 16.9C26.75 13.57 17.88 13.57 10.07 16.9L10.07 31.67Z" fill="#212121" fill-opacity="1.000000" fill-rule="evenodd"/>
	</g>
	<g style="mix-blend-mode:normal">
		<path id="Path 20937" d="M9.35 21.46C9.08 21.46 8.82 21.3 8.7 21.04C8.53 20.67 8.7 20.25 9.06 20.09C11.15 19.16 13.34 18.45 15.58 17.98C17.79 17.51 20.05 17.27 22.31 17.27C24.57 17.27 26.84 17.51 29.05 17.98C31.28 18.45 33.48 19.16 35.56 20.09C35.93 20.25 36.09 20.67 35.93 21.04C35.77 21.4 35.34 21.56 34.98 21.4C26.93 17.82 17.7 17.82 9.65 21.4C9.55 21.44 9.45 21.46 9.35 21.46Z" fill="#212121" fill-opacity="1.000000" fill-rule="evenodd"/>
	</g>
	<g style="mix-blend-mode:normal">
		<path id="Path 20938" d="M5.75 6.47C5.36 6.47 5.03 6.15 5.03 5.75L5.03 2.88C5.03 2.48 5.36 2.16 5.75 2.16C6.15 2.16 6.47 2.48 6.47 2.88L6.47 5.75C6.47 6.15 6.15 6.47 5.75 6.47Z" fill="#212121" fill-opacity="1.000000" fill-rule="evenodd"/>
	</g>
	<g style="mix-blend-mode:normal">
		<path id="Path 20939" d="M9.35 4.31L5.75 4.31C5.36 4.31 5.03 3.99 5.03 3.59L5.03 0.71C5.03 0.32 5.36 0 5.75 0L9.35 0C9.75 0 10.07 0.32 10.07 0.71L10.07 3.59C10.07 3.99 9.75 4.31 9.35 4.31ZM6.47 2.87L8.63 2.87L8.63 1.43L6.47 1.43L6.47 2.87Z" fill="#212121" fill-opacity="1.000000" fill-rule="evenodd"/>
	</g>
	<g style="mix-blend-mode:normal">
		<path id="Path 20940" d="M38.87 6.47C38.47 6.47 38.15 6.15 38.15 5.75L38.15 2.88C38.15 2.48 38.47 2.16 38.87 2.16C39.27 2.16 39.59 2.48 39.59 2.88L39.59 5.75C39.59 6.15 39.27 6.47 38.87 6.47Z" fill="#212121" fill-opacity="1.000000" fill-rule="evenodd"/>
	</g>
	<g style="mix-blend-mode:normal">
		<path id="Path 20941" d="M42.47 4.31L38.87 4.31C38.47 4.31 38.15 3.99 38.15 3.59L38.15 0.71C38.15 0.32 38.47 0 38.87 0L42.47 0C42.87 0 43.19 0.32 43.19 0.71L43.19 3.59C43.19 3.99 42.87 4.31 42.47 4.31ZM39.59 2.87L41.75 2.87L41.75 1.43L39.59 1.43L39.59 2.87Z" fill="#212121" fill-opacity="1.000000" fill-rule="evenodd"/>
	</g>
	<g style="mix-blend-mode:normal">
		<path id="Path 20942" d="M15.83 33.11L9.35 33.11C8.96 33.11 8.63 32.79 8.63 32.39L8.63 26.99C8.63 24.81 10.41 23.03 12.59 23.03C14.78 23.03 16.55 24.81 16.55 26.99L16.55 32.39C16.55 32.79 16.23 33.11 15.83 33.11ZM10.07 31.67L15.11 31.67L15.11 26.99C15.11 25.6 13.98 24.47 12.59 24.47C11.2 24.47 10.07 25.6 10.07 26.99L10.07 31.67Z" fill="#212121" fill-opacity="1.000000" fill-rule="evenodd"/>
	</g>
	<g style="mix-blend-mode:normal">
		<path id="Path 20943" d="M22.31 33.11L15.83 33.11C15.44 33.11 15.11 32.79 15.11 32.39L15.11 24.83C15.11 22.65 16.89 20.87 19.07 20.87C21.26 20.87 23.03 22.65 23.03 24.83L23.03 32.39C23.03 32.79 22.71 33.11 22.31 33.11ZM16.55 31.67L21.59 31.67L21.59 24.83C21.59 23.44 20.46 22.31 19.07 22.31C17.68 22.31 16.55 23.44 16.55 24.83L16.55 31.67Z" fill="#212121" fill-opacity="1.000000" fill-rule="evenodd"/>
	</g>
	<g style="mix-blend-mode:normal">
		<path id="Path 20944" d="M28.79 33.11L22.31 33.11C21.92 33.11 21.59 32.79 21.59 32.39L21.59 24.83C21.59 22.65 23.37 20.87 25.55 20.87C27.74 20.87 29.51 22.65 29.51 24.83L29.51 32.39C29.51 32.79 29.19 33.11 28.79 33.11ZM23.03 31.67L28.07 31.67L28.07 24.83C28.07 23.44 26.94 22.31 25.55 22.31C24.16 22.31 23.03 23.44 23.03 24.83L23.03 31.67Z" fill="#212121" fill-opacity="1.000000" fill-rule="evenodd"/>
	</g>
	<g style="mix-blend-mode:normal">
		<path id="Path 20945" d="M35.27 33.11L28.79 33.11C28.39 33.11 28.07 32.79 28.07 32.39L28.07 26.99C28.07 24.81 29.85 23.03 32.03 23.03C34.22 23.03 35.99 24.81 35.99 26.99L35.99 32.39C35.99 32.79 35.67 33.11 35.27 33.11ZM29.51 31.67L34.55 31.67L34.55 26.99C34.55 25.6 33.42 24.47 32.03 24.47C30.64 24.47 29.51 25.6 29.51 26.99L29.51 31.67Z" fill="#212121" fill-opacity="1.000000" fill-rule="evenodd"/>
	</g>
	<g style="mix-blend-mode:normal">
		<path id="Path 20946" d="M25.91 44.63L18.71 44.63C18.32 44.63 17.99 44.31 17.99 43.91L17.99 32.39C17.99 31.99 18.32 31.67 18.71 31.67L25.91 31.67C26.31 31.67 26.63 31.99 26.63 32.39L26.63 43.91C26.63 44.31 26.31 44.63 25.91 44.63ZM19.43 43.19L25.19 43.19L25.19 33.11L19.43 33.11L19.43 43.19Z" fill="#212121" fill-opacity="1.000000" fill-rule="evenodd"/>
	</g>
	<g style="mix-blend-mode:normal">
		<path id="Path 20947" d="M25.91 35.99L18.71 35.99C18.32 35.99 17.99 35.67 17.99 35.27C17.99 34.87 18.32 34.55 18.71 34.55L25.91 34.55C26.31 34.55 26.63 34.87 26.63 35.27C26.63 35.67 26.31 35.99 25.91 35.99Z" fill="#212121" fill-opacity="1.000000" fill-rule="evenodd"/>
	</g>
	<g style="mix-blend-mode:normal">
		<path id="Path 20948" d="M25.91 38.87L18.71 38.87C18.32 38.87 17.99 38.55 17.99 38.15C17.99 37.75 18.32 37.43 18.71 37.43L25.91 37.43C26.31 37.43 26.63 37.75 26.63 38.15C26.63 38.55 26.31 38.87 25.91 38.87Z" fill="#212121" fill-opacity="1.000000" fill-rule="evenodd"/>
	</g>
</svg>
