<svg width="93.000000" height="152.000000" viewBox="0 0 93 152" fill="none" xmlns="http://www.w3.org/2000/svg" xmlns:xlink="http://www.w3.org/1999/xlink">
	<desc>
			Created with Pixso.
	</desc>
	<defs/>
	<mask id="mask29_465" mask-type="alpha" maskUnits="userSpaceOnUse" x="0.000000" y="0.000000" width="93.000000" height="152.000000">
		<rect id="Rectangle 3529" width="93.000000" height="152.000000" fill="#FFFFFF" fill-opacity="1.000000"/>
	</mask>
	<g mask="url(#mask29_465)">
		<mask id="mask1_10537" mask-type="alpha" maskUnits="userSpaceOnUse" x="-16.000000" y="-10.000000" width="121.670654" height="171.697998">
			<g style="mix-blend-mode:normal">
				<rect id="Rectangle 3410" x="19.021240" y="-10.000000" width="88.928711" height="155.683624" transform="rotate(13 19.021240 -10.000000)" fill="#C4C4C4" fill-opacity="1.000000"/>
			</g>
		</mask>
		<g mask="url(#mask1_10537)">
			<g style="mix-blend-mode:normal">
				<path id="Path 24081" d="M41.78 51.25C41.83 51.18 41.9 51.11 41.98 51.07C42.33 50.88 42.06 50.33 41.71 50.52C41.57 50.6 41.44 50.7 41.33 50.83C41.23 50.75 41.12 50.68 41.04 50.64C40.93 50.58 40.83 50.53 40.72 50.49L40.81 50.22C40.93 49.85 40.35 49.65 40.22 50.03L40.12 50.33C39.95 50.28 39.79 50.25 39.62 50.23L39.56 49.7C39.54 49.54 39.35 49.43 39.2 49.46C39.02 49.5 38.94 49.66 38.96 49.83L39 50.23C38.92 50.23 38.85 50.25 38.77 50.26C38.38 50.35 38.08 50.65 38.13 50.99C37.91 51.04 37.76 51.29 37.93 51.49C38.04 51.62 38.16 51.74 38.28 51.84C38.4 51.98 38.54 52.07 38.69 52.14C38.95 52.29 39.24 52.4 39.55 52.47C39.85 52.62 40.18 52.73 40.38 52.77C41.05 52.9 41.48 52.68 41.66 52.33C41.77 52.24 41.86 52.12 41.93 51.97C42.04 51.72 41.95 51.47 41.78 51.25Z" fill="#FFFFFF" fill-opacity="1.000000" fill-rule="nonzero"/>
			</g>
		</g>
		<g mask="url(#mask1_10537)">
			<g style="mix-blend-mode:normal">
				<path id="Path 24082" d="M65.4 57.42C65.24 57.54 65.09 57.67 64.95 57.82C64.81 57.7 64.65 57.62 64.47 57.55L64.63 57.31C64.84 57 64.41 56.68 64.17 56.9C64.08 56.92 64 56.98 63.96 57.1C63.9 57.12 63.85 57.18 63.82 57.23C63.79 57.27 63.77 57.31 63.74 57.36C63.57 57.32 63.4 57.3 63.23 57.3C63.25 57.18 63.22 57.03 63.26 56.92C63.4 56.54 62.81 56.34 62.68 56.72C62.64 56.84 62.6 56.97 62.58 57.09C62.32 57.07 62.07 57.14 61.84 57.38C61.63 57.59 61.51 57.82 61.56 58.12C61.6 58.37 61.81 58.59 61.99 58.76C62.09 58.86 62.27 59 62.37 59.08C62.73 59.36 63.19 59.5 63.63 59.55C63.69 59.56 63.74 59.55 63.78 59.53C63.83 59.55 63.88 59.55 63.94 59.54C64.14 59.51 64.34 59.54 64.52 59.65C64.79 59.81 65.07 59.51 64.99 59.29C65.25 59.09 65.4 58.78 65.29 58.37C65.44 58.19 65.61 58.03 65.8 57.88C66.11 57.64 65.71 57.18 65.4 57.42Z" fill="#FFFFFF" fill-opacity="1.000000" fill-rule="nonzero"/>
			</g>
		</g>
		<g mask="url(#mask1_10537)">
			<g style="mix-blend-mode:normal">
				<path id="Path 24083" d="M50.47 62.89C49.77 64.08 48.46 64.52 47.21 63.88C46.34 63.43 45.68 62.39 45.85 61.42C45.91 61.03 45.3 61 45.23 61.38C45.01 62.67 46 64.11 47.21 64.56C48.68 65.11 50.18 64.6 50.97 63.23C51.17 62.89 50.67 62.55 50.47 62.89Z" fill="#FFFFFF" fill-opacity="1.000000" fill-rule="nonzero"/>
			</g>
		</g>
		<g mask="url(#mask1_10537)">
			<g style="mix-blend-mode:normal">
				<path id="Path 24084" d="M66.17 72.22C66.04 70.64 63.74 71.04 63.55 72.4C63.5 72.79 64.11 72.83 64.17 72.44C64.32 71.31 66.15 72.07 65.33 73.4C65.09 73.86 64.61 74.16 64.16 74.38C63.1 74.9 61.5 74.7 60.87 73.62C60.22 72.52 61.68 71.25 62.39 70.62C63.23 69.87 64.22 69.28 65.38 69.34C65.77 69.36 65.81 68.74 65.42 68.73C63.41 68.63 61.47 70.24 60.47 71.87C59.35 73.72 61.1 75.17 62.85 75.25C64.56 75.34 66.32 74.02 66.17 72.22Z" fill="#FFFFFF" fill-opacity="1.000000" fill-rule="nonzero"/>
			</g>
		</g>
		<g mask="url(#mask1_10537)">
			<g style="mix-blend-mode:normal">
				<path id="Path 24085" d="M81.41 79.55C80.89 78.06 78.65 78.24 78.51 79.83C78.48 80.22 79.09 80.26 79.12 79.86C79.35 79.06 79.84 78.92 80.6 79.43C80.87 79.73 81 80.1 80.97 80.52C80.97 81.16 80.52 81.78 80.11 82.22C79.08 83.31 77.53 83.28 76.72 81.98C75.51 80.02 76.89 77.38 78.68 76.37C79.02 76.18 78.75 75.63 78.41 75.82C76.75 76.76 75.74 78.44 75.7 80.35C75.66 82.18 76.97 83.91 78.9 83.59C80.65 83.3 81.98 81.21 81.41 79.55Z" fill="#FFFFFF" fill-opacity="1.000000" fill-rule="nonzero"/>
			</g>
		</g>
		<g mask="url(#mask1_10537)">
			<g style="mix-blend-mode:normal">
				<path id="Path 24086" d="M88.81 72.86C88.05 72.34 86.97 72.21 86.15 72.63C85.53 72.95 85.29 73.8 85.86 74.24C86.18 74.48 86.52 73.97 86.21 73.73C85.67 73.32 87.21 72.99 87.43 73C88.03 73.03 88.59 73.4 89 73.8C89.87 74.63 89.91 75.87 89.57 76.94C89.09 78.46 86.85 80.65 85.2 79.29C84.63 78.82 84.43 77.79 85.11 77.32C85.76 76.87 86.62 77.36 86.38 78.16C86.24 78.53 86.82 78.73 86.96 78.36C87.23 77.62 86.84 76.55 85.92 76.53C84.79 76.5 84.07 77.31 84.05 78.41C84.03 79.43 85.03 80.09 85.9 80.27C87.12 80.51 88.31 79.69 89.1 78.86C90.77 77.12 90.9 74.29 88.81 72.86Z" fill="#FFFFFF" fill-opacity="1.000000" fill-rule="nonzero"/>
			</g>
		</g>
		<g mask="url(#mask1_10537)">
			<g style="mix-blend-mode:normal">
				<path id="Path 24087" d="M74.85 67.28C75.25 65.45 72.97 65.08 72.38 66.67C72.25 67.04 72.83 67.24 72.96 66.87C73.34 66.2 73.75 66.05 74.18 66.43C74.29 66.72 74.3 67.01 74.22 67.31C74.12 67.76 73.78 68.15 73.4 68.39C72.12 69.23 70.65 67.83 70.27 66.7C69.89 65.58 70.23 64.25 70.76 63.24C71.38 62.04 73.06 61.2 74.06 62.47C74.31 62.78 74.77 62.38 74.52 62.07C73.13 60.3 70.93 61.57 70.1 63.17C69.15 65 69.28 67.4 71 68.7C72.46 69.8 74.47 69.03 74.85 67.28Z" fill="#FFFFFF" fill-opacity="1.000000" fill-rule="nonzero"/>
			</g>
		</g>
		<g mask="url(#mask1_10537)">
			<g style="mix-blend-mode:normal">
				<path id="Path 24088" d="M80.56 69.24C80.12 68.77 79.54 68.55 79 68.97C78.69 69.21 79.09 69.68 79.4 69.43C80.31 68.73 80.25 70.72 80.17 70.98C79.91 71.74 79.1 71.98 78.38 71.94C76.97 71.84 76.34 70.32 76.35 69.11C76.36 66.76 79.66 62.91 82.06 65.06C82.35 65.32 82.82 64.92 82.52 64.66C80.93 63.22 78.74 63.94 77.44 65.42C75.95 67.13 75.04 69.51 76.49 71.52C77.44 72.85 79.87 72.99 80.64 71.4C80.94 70.78 81.08 69.82 80.56 69.24Z" fill="#FFFFFF" fill-opacity="1.000000" fill-rule="nonzero"/>
			</g>
		</g>
		<g mask="url(#mask1_10537)">
			<g style="mix-blend-mode:normal">
				<path id="Path 24089" d="M12.94 42.81C13.01 41.99 12.74 41.34 11.89 41.17C11.16 41.03 10.53 41.72 10.48 42.39C10.46 42.78 11.07 42.82 11.1 42.42C11.57 41.6 11.98 41.56 12.34 42.33C12.38 42.7 12.3 43.04 12.11 43.35C11.84 43.83 11.31 44.12 10.81 44.28C9.56 44.68 8.51 43.64 8.05 42.6C7.5 41.38 8.05 39.99 8.76 38.97C9.47 37.97 11.4 36.49 12.39 38.04C12.6 38.37 13.15 38.1 12.94 37.77C11.65 35.74 9.35 37.26 8.25 38.63C6.8 40.44 6.87 43.16 8.85 44.53C10.25 45.51 12.8 44.66 12.94 42.81Z" fill="#FFFFFF" fill-opacity="1.000000" fill-rule="nonzero"/>
			</g>
		</g>
		<g mask="url(#mask1_10537)">
			<g style="mix-blend-mode:normal">
				<path id="Path 24090" d="M14.06 51.27C13.47 50.48 11.68 50.47 11.65 51.62C11.64 51.99 12.15 52.05 12.24 51.75C12.25 51.56 12.35 51.36 12.51 51.28C12.87 51.09 13.34 51.36 13.41 51.75C13.51 52.24 12.98 52.44 12.64 52.65C12.21 52.91 11.7 53.03 11.2 53.02C9.9 53 9.24 51.63 8.98 50.55C8.67 49.27 8.93 48.02 10.07 47.28C10.94 46.72 12.08 46.73 12.93 47.28C13.26 47.49 13.61 46.98 13.28 46.77C12.11 46.03 10.73 46.13 9.58 46.87C8.27 47.72 8.12 49.26 8.38 50.67C8.62 51.94 9.5 53.42 10.9 53.6C11.63 53.69 12.39 53.54 13.02 53.13C13.52 52.81 14.4 51.94 14.06 51.27Z" fill="#FFFFFF" fill-opacity="1.000000" fill-rule="nonzero"/>
			</g>
		</g>
		<g mask="url(#mask1_10537)">
			<g style="mix-blend-mode:normal">
				<path id="Path 24091" d="M30.28 55.42C30.33 54.32 30.09 53.26 29.13 52.62C28.63 52.29 27.4 52.2 27.51 53.07C27.53 53.28 27.77 53.35 27.94 53.29C28.1 53.23 28.19 53.08 28.16 52.96C28.55 52.99 28.89 53.15 29.18 53.43C29.39 53.69 29.53 53.99 29.59 54.32C29.73 54.84 29.68 55.42 29.64 55.96C29.56 57.05 29.2 58.12 28.59 59.03C27.92 60.03 26.48 60.89 25.32 60.2C24.71 59.83 24.58 58.95 24.57 58.32C24.57 58.04 24.61 57.76 24.68 57.48L24.9 56.95C24.96 56.88 25.01 56.82 25.06 56.77C25.15 56.61 25.29 56.49 25.46 56.4C25.52 56.34 25.59 56.3 25.67 56.27C25.72 56.25 25.76 56.27 25.78 56.3C25.83 56.3 25.87 56.31 25.91 56.33C25.95 56.33 26.04 56.37 26.06 56.4C26.22 56.44 26.34 56.57 26.33 56.8C26.4 56.97 26.35 57.17 26.21 57.3C25.91 57.55 26.3 58.09 26.6 57.83C27.24 57.3 27.1 56.49 26.52 55.98C25.71 55.28 24.6 56.21 24.25 56.89C23.2 58.89 24.59 61.48 26.92 60.97C29.3 60.44 30.2 57.53 30.28 55.42Z" fill="#FFFFFF" fill-opacity="1.000000" fill-rule="nonzero"/>
			</g>
		</g>
		<g mask="url(#mask1_10537)">
			<g style="mix-blend-mode:normal">
				<path id="Path 24092" d="M19.37 47.44C19.72 46.04 17.82 45.12 17.21 46.53C17.07 46.86 17.53 47.05 17.74 46.81C17.98 46.39 18.41 46.49 18.62 46.85C18.94 47.37 18.53 47.96 18.12 48.28C17.71 48.65 17.21 48.91 16.69 49.05C15.39 49.42 14.59 48.09 14.31 47.05C13.74 45 14.94 42.09 17.37 42.21C17.76 42.23 17.8 41.62 17.4 41.6C15.42 41.5 14.12 43.04 13.7 44.85C13.36 46.36 13.68 48.72 15.28 49.46C16.8 50.16 18.96 49.05 19.37 47.44Z" fill="#FFFFFF" fill-opacity="1.000000" fill-rule="nonzero"/>
			</g>
		</g>
		<g mask="url(#mask1_10537)">
			<g style="mix-blend-mode:normal">
				<path id="Path 24093" d="M27.43 43.32C27.03 43.35 27.16 43.85 27.55 43.93C28.26 44.06 27.48 47.23 27.42 47.48C27.21 48.47 26.86 49.45 26.32 50.31C25.64 51.39 24.06 52.09 23.04 51C22.6 50.53 22.65 49.71 22.77 49.14C22.85 48.85 22.97 48.58 23.15 48.33C23.58 47.9 23.91 47.73 24.14 47.82C24.24 47.81 24.34 47.85 24.43 47.91C24.63 47.97 24.72 48.17 24.74 48.37C24.75 48.5 24.76 48.66 24.7 48.78C24.6 48.97 24.26 49.05 24.45 49.33C24.56 49.47 24.77 49.52 24.92 49.41C25.41 49.07 25.65 48.31 25.25 47.78C24.74 47.11 23.94 47.09 23.23 47.44C21.54 48.28 21.77 51.17 23.31 51.97C25.34 53.01 26.97 50.71 27.58 49.12C27.93 48.21 29.37 43.18 27.43 43.32Z" fill="#FFFFFF" fill-opacity="1.000000" fill-rule="nonzero"/>
			</g>
		</g>
		<g mask="url(#mask1_10537)">
			<g style="mix-blend-mode:normal">
				<path id="Path 24094" d="M89.96 63.41C89.9 63.24 89.83 63.06 89.74 62.89C89.25 61.91 88.31 61.12 87.23 60.85C86.97 60.78 86.69 60.8 86.43 60.75C86.06 60.67 86.13 60.62 86.14 60.21C86.16 59.62 86.17 59.03 86.17 58.43C86.18 56.05 86.09 53.67 85.87 51.29C85.43 46.58 84.45 41.9 82.68 37.51C81.44 34.44 79.8 31.53 77.77 28.91C76.53 27.31 75.14 25.87 73.61 24.58C75.35 22.13 77.41 19.94 79.76 18.06C79.96 18.53 80.5 18.96 80.93 19.01C82.18 19.15 82.48 18.05 82.41 17.02C82.36 16.2 81.78 15.05 80.77 15.55C80.24 15.8 79.74 16.27 79.58 16.83C76.42 15.53 72.92 14.91 69.69 16.21C70.02 14.26 69.97 12.33 69.6 10.38C69.25 8.48 68.97 6.34 68.2 4.52C68.7 4.52 69.17 4.28 69.45 3.81C69.86 3.12 69.58 2.02 68.91 1.59C67.48 0.69 66.07 3 66.96 3.98C62.69 6.32 59.27 9.9 57.1 14.26C55.23 11.93 52.95 10.01 50.33 8.56C50.93 8.13 51.35 7.47 50.88 6.74C50.41 6 49.36 6 48.7 6.46C48.06 6.89 47.5 7.79 47.86 8.56C48.13 9.14 48.83 9.2 49.42 9.03C49.9 12.11 49.97 15.21 49.64 18.31C49.4 18.34 49.17 18.38 48.94 18.41C44.52 19.12 40.27 20.7 36.36 22.87C32.44 25.04 28.85 27.79 25.6 30.88C25.05 31.4 24.51 31.93 23.98 32.47C23.6 32.86 23.28 33.3 22.87 33.65C22.6 33.87 22.57 33.91 22.28 33.73C21.94 33.52 21.67 33.26 21.3 33.09C19.93 32.46 18.24 32.58 17.02 33.5C15.44 34.68 14.02 37.41 14.9 39.4C15.76 41.33 18.35 41.25 19.6 39.76C20.16 39.1 19.96 38.16 19.41 37.58C18.64 36.75 17.78 37.88 17.19 38.35C16.87 38.59 17.28 39.05 17.59 38.81C18.03 38.47 18.92 37.37 19.3 38.57C19.62 39.58 18.22 40.12 17.54 40.25C15.26 40.66 15.15 38.15 15.55 36.64C15.92 35.29 16.97 34.1 18.27 33.57C18.9 33.32 19.59 33.22 20.25 33.35C20.69 33.43 21.15 33.61 21.53 33.84C21.89 34.05 22.09 34.47 22.45 34.68C22.81 34.9 23.13 34.43 23.32 34.18C23.66 33.72 24.03 33.3 24.43 32.89C25.96 31.33 27.58 29.85 29.28 28.47C32.65 25.72 36.36 23.36 40.36 21.63C43.87 20.11 47.6 19.09 51.41 18.71C57.24 18.12 63.28 19.12 68.49 21.83C73.48 24.43 77.39 28.72 80.14 33.57C82.62 37.94 84.09 42.82 84.85 47.78C85.2 50.06 85.41 52.37 85.5 54.69C85.54 55.83 85.52 56.98 85.47 58.12C85.45 58.71 85.42 59.3 85.38 59.88C85.36 60.3 85.27 60.75 85.39 61.16C85.54 61.66 86.04 61.54 86.43 61.49C86.95 61.42 87.37 61.51 87.84 61.76C88.53 62.14 89.06 62.76 89.35 63.5C89.81 64.7 89.64 66.08 89.1 67.25C88.7 68.13 88.1 68.92 87.32 69.47C86.53 70.01 85.54 70.3 84.59 70.16C84.11 70.1 83.62 69.91 83.3 69.55C82.98 69.18 82.87 68.61 83.12 68.2C83.37 67.78 84.03 67.65 84.36 68C84.23 68.14 84.33 68.4 84.51 68.46C84.69 68.52 84.9 68.42 85.01 68.26C85.29 67.88 85 67.28 84.55 67.11C84.11 66.94 83.6 67.11 83.19 67.37C82.8 67.63 82.45 68 82.34 68.47C82.23 68.97 82.42 69.51 82.76 69.9C83.11 70.28 83.59 70.52 84.09 70.65C85.27 70.96 86.56 70.69 87.58 70.04C88.6 69.39 89.37 68.37 89.81 67.24C90.29 66.03 90.39 64.63 89.96 63.41ZM80.7 16.3C81.27 15.81 81.7 16.29 81.79 16.89C81.86 17.38 81.93 18.19 81.34 18.39C81.1 18.47 80.87 18.38 80.67 18.25C80.35 18.05 80.26 17.63 80.23 17.28C80.19 16.79 80.34 16.62 80.7 16.3ZM68.52 2.08C69.01 2.23 69.07 3.01 68.96 3.4C68.89 3.66 68.67 3.82 68.42 3.89C67.83 4.05 67.14 3.5 67.32 2.87C67.46 2.38 67.98 1.93 68.52 2.08ZM48.36 8.06C48.36 7.64 48.67 7.25 48.97 7.01C49.34 6.71 49.93 6.64 50.29 6.97C50.8 7.44 50.18 7.96 49.78 8.2C49.75 8.22 49.62 8.29 49.59 8.31C49.18 8.49 48.36 8.64 48.36 8.06ZM65.08 19.68C60.36 17.98 55.22 17.62 50.26 18.23C50.58 15.18 50.5 12.13 50.06 9.11C52.68 10.57 54.96 12.51 56.82 14.89C56.93 15.06 57.34 15.16 57.47 14.9C59.58 10.41 63.1 6.73 67.47 4.39C68.3 6.15 68.54 8.27 68.93 10.16C69.16 11.25 69.29 12.36 69.3 13.47C69.3 14.02 69.28 14.57 69.23 15.12C69.18 15.57 69.11 16.02 68.97 16.46C68.89 16.72 68.81 17.17 69.24 17.08C69.42 17.05 69.57 16.93 69.74 16.86C70.02 16.74 70.31 16.63 70.6 16.54C71.16 16.36 71.74 16.24 72.33 16.17C73.5 16.03 74.69 16.11 75.85 16.33C77.09 16.56 78.29 16.95 79.45 17.44C79.23 17.63 79.03 17.84 78.82 18C78.38 18.36 77.99 18.76 77.58 19.14C77.12 19.56 76.68 20 76.25 20.44C75.28 21.45 74.38 22.51 73.55 23.62C73.41 23.81 73.27 24 73.13 24.2C70.73 22.27 68.02 20.73 65.08 19.68Z" fill="#FFFFFF" fill-opacity="1.000000" fill-rule="nonzero"/>
			</g>
		</g>
		<g mask="url(#mask1_10537)">
			<g style="mix-blend-mode:normal">
				<path id="Path 24095" d="M82.1 59.99C81.9 58.41 79.57 58.85 80.19 59.91C80.38 60.25 80.94 59.98 80.74 59.64C81.17 59.43 81.17 59.43 81.43 59.91C81.59 60.61 81.41 61.16 80.91 61.57C80.46 62.03 79.81 62.27 79.18 62.29C77.86 62.35 77.46 60.65 77.51 59.65C77.54 58.89 77.89 58.17 78.3 57.54C78.67 56.98 79.17 56.44 79.75 56.09C80.26 55.79 80.86 55.81 81.39 55.57C81.65 55.45 82.13 55.11 81.63 54.94C72.72 51.86 65.12 45.37 60.52 37.16C59.78 35.84 59.06 34.5 58.58 33.06C57.83 30.86 57.7 29.93 57.03 30.04C56.46 30.14 56 30.52 55.59 30.92C51.96 34.44 47.12 36.61 42.12 37.43C37.13 38.25 31.97 37.77 27.07 36.47C25.96 36.18 24.77 35.85 23.69 36.26C22.69 36.64 22.03 37.6 21.6 38.58C20.95 40.06 20.78 41.98 21.92 43.12C22.96 44.15 24.9 44.02 25.78 42.85C26.29 42.19 26.41 41.18 25.86 40.55C25.31 39.93 24.06 40.08 23.86 40.88C23.79 41.18 24.06 41.59 24.3 41.42C24.41 41.35 24.43 41.21 24.49 41.1C24.67 40.8 25.13 40.79 25.38 41.03C25.63 41.26 25.68 41.65 25.61 41.98C25.34 43.11 23.77 43.55 22.79 42.93C21.8 42.32 21.44 41.01 21.62 39.87C21.82 38.6 22.67 37.42 23.87 36.98C25.14 36.51 26.55 36.92 27.87 37.26C32.9 38.56 38.23 38.87 43.32 37.82C48.41 36.78 53.26 34.34 56.91 30.64C57.35 32.44 57.79 34.42 57.01 36.12C56.72 36.77 56.21 37.36 55.53 37.57C54.85 37.78 53.99 37.46 53.75 36.79C53.52 36.11 54.2 35.26 54.88 35.47C54.98 35.51 55.09 35.56 55.19 35.54C55.53 35.47 55.29 34.92 54.95 34.82C53.96 34.53 52.91 35.59 53.07 36.61C53.23 37.63 54.35 38.34 55.37 38.22C56.4 38.1 57.26 37.31 57.68 36.37C58.09 35.42 58.11 34.34 57.95 33.32C62.27 42.51 68.92 50.06 78.31 54.28C79.04 54.6 79.78 54.91 80.52 55.19C79.07 55.23 77.74 57.1 77.23 58.24C76.53 59.8 76.84 61.99 78.49 62.79C80.15 63.58 82.32 61.64 82.1 59.99Z" fill="#FFFFFF" fill-opacity="1.000000" fill-rule="nonzero"/>
			</g>
		</g>
		<g mask="url(#mask1_10537)">
			<g style="mix-blend-mode:normal">
				<path id="Path 24096" d="M81.65 92.01L81.13 89.38L83 87.46C83.07 87.38 83.1 87.28 83.08 87.19C83.05 87.07 82.95 86.98 82.83 86.97L80.16 86.65L78.91 84.27C78.88 84.2 78.82 84.15 78.75 84.13C78.61 84.08 78.45 84.15 78.39 84.28L77.26 86.72L74.62 87.18C74.51 87.19 74.42 87.27 74.39 87.38C74.36 87.49 74.39 87.6 74.47 87.67L76.15 89.23C75.98 89.28 75.83 89.33 75.76 89.35C75.13 89.55 74.49 89.74 73.86 89.93C72.62 90.31 71.38 90.7 70.15 91.08C67.67 91.85 65.2 92.64 62.74 93.44C62.59 93.15 62.44 92.86 62.28 92.57C65.45 92.62 68.54 91.15 70.61 88.75C71.78 87.4 72.63 85.8 73.14 84.09C73.66 82.39 73.86 80.6 73.78 78.82C73.76 78.44 73.73 78.06 73.69 77.68C73.65 77.33 73.64 76.92 73.45 76.61C73.89 75.92 74.25 75.23 74.51 74.45C74.77 73.63 74.77 72.44 74.03 71.85C73.37 71.32 72.51 71.19 71.85 71.78C71.56 72.04 71.96 72.51 72.25 72.24C72.98 71.59 73.81 72.3 74.02 73.04C74.17 73.61 73.95 74.25 73.75 74.78C73.25 76.12 72.22 77.32 71.01 78.08C69.27 79.16 68.27 77.63 68.2 76.04C68.18 75.45 68.26 74.84 68.41 74.28C68.58 73.64 69.06 73.2 69.73 73.16C70.71 73.1 70.6 74.39 70.46 74.88C70.35 75.25 70.93 75.45 71.04 75.07C71.28 74.22 71.2 73.22 70.39 72.71C69.6 72.21 68.62 72.79 68.14 73.42C67.45 74.32 67.52 75.86 67.68 76.91C67.83 77.92 68.41 78.76 69.41 79.02C70.49 79.31 71.6 78.49 72.35 77.83C72.51 77.69 72.65 77.51 72.82 77.37C73.06 77.17 73.09 77.71 73.1 77.83C73.15 78.55 73.2 79.28 73.18 80C73.16 80.9 73.06 81.8 72.87 82.68C72.51 84.44 71.8 86.13 70.74 87.6C70.66 87.72 70.57 87.84 70.48 87.95C68.45 90.58 65.1 92.17 61.78 91.94C61.56 91.93 61.38 92.18 61.49 92.38C61.71 92.8 61.93 93.21 62.14 93.63C61.48 93.85 60.81 94.06 60.14 94.28C60.11 94.16 60.05 94.05 59.97 93.94C59.85 93.79 59.69 93.68 59.6 93.51C59.56 93.42 59.49 93.37 59.41 93.35C54.81 88.36 51.48 82.18 49.82 75.62C49.83 75.58 49.83 75.53 49.82 75.49C49.82 75.47 49.81 75.37 49.81 75.35C49.83 75.29 49.84 75.18 49.81 75.12C49.82 74.95 49.82 74.75 49.82 74.58L49.93 74.25C51.25 72.16 53.11 70.57 55.36 69.6C55.4 69.59 55.44 69.59 55.48 69.57C56.43 69.13 57.39 68.73 58.37 68.36C61.52 67.58 64.49 66.19 66.96 64.21C70.69 61.21 73.17 56.97 75.57 52.83C75.65 52.69 75.74 52.52 75.7 52.36C75.64 52.17 75.42 52.09 75.21 52.12C75.15 52.13 75.09 52.16 75.04 52.19C74.81 52.34 74.7 52.6 74.6 52.84C72.43 58.15 68.57 62.8 63.58 65.62C62.01 66.51 60.33 67.2 58.59 67.68C58.53 67.67 58.47 67.67 58.41 67.69C58.31 67.73 58.21 67.77 58.11 67.81C56.83 68.13 55.52 68.35 54.2 68.45C49.21 68.83 44.41 67.49 40.45 64.87C40.4 64.85 40.35 64.83 40.31 64.8C40.15 64.7 39.96 64.58 39.83 64.46C39.73 64.4 39.64 64.34 39.57 64.26C36.41 61.94 33.86 58.76 32.27 54.96C30.09 49.71 29.98 43.63 31.97 38.31C32.06 38.08 32.09 37.73 31.85 37.67C31.65 37.62 31.5 37.85 31.43 38.05C29.19 43.96 29.5 50.8 32.27 56.48C34 60.02 36.66 63.08 39.88 65.34C40.95 67.49 41.3 69.88 40.89 72.27C36.14 76.76 30.95 80.75 25.39 84.19C24.87 84.25 23.79 84.29 23.58 84.9C23.51 85.12 23.63 85.31 23.76 85.46C23.85 85.54 24.08 85.59 24.26 85.65C23.75 85.93 23.29 86.27 22.86 86.69C22.66 86.89 22.78 87.19 23.05 87.23C23.23 87.26 23.41 87.26 23.59 87.24C23.5 87.42 23.49 87.62 23.62 87.81C23.71 87.96 23.86 88.02 24.03 87.95C24.13 87.91 24.23 87.86 24.32 87.82C24.31 87.94 24.34 88.04 24.45 88.12C24.59 88.24 24.74 88.27 24.89 88.25C24.94 88.35 25.03 88.43 25.15 88.44C25.76 88.45 26.14 88.13 26.43 87.62C26.92 86.77 27.3 85.95 27.9 85.18C30.69 83.81 33.32 81.9 35.86 80.12C38 78.63 40.06 77.02 41.92 75.19C38.55 81.81 31.83 86.18 25.21 89.13C20.16 91.38 14.75 92.77 9.26 93.3C9.3 93.16 9.25 93 9.08 92.93C4.2 91 4.18 84.53 6.19 80.54C8.45 76.07 13.42 73.64 18.33 74.25C18.55 74.27 18.73 74 18.62 73.8C16.36 69.64 13.53 63.58 17.13 59.46C18.74 59.91 21.46 58.61 21.23 56.7C21.15 56 20.71 55.06 19.87 55.03C19 54.99 18.32 55.44 18.18 56.32C18.11 56.71 18.73 56.74 18.79 56.35C18.95 55.63 19.46 55.5 20.31 55.95C20.63 56.11 20.65 56.81 20.6 57.11C20.47 57.85 19.87 58.29 19.25 58.63C18.05 59.27 16.61 58.89 15.87 57.76C15.28 56.86 15.34 55.74 15.63 54.76C15.83 54.04 17.28 51.07 18.33 52.11C18.61 52.39 19.08 51.99 18.79 51.71C17.14 50.07 15.48 53.35 15.05 54.56C14.43 56.26 14.97 58.34 16.54 59.21C13.1 63.36 15.51 69.26 17.8 73.58C12.73 73.18 7.7 75.9 5.5 80.57C3.52 84.78 3.76 91.19 8.54 93.36C7.22 93.47 5.89 93.53 4.56 93.54C3.87 93.55 3.17 93.5 2.48 93.52C1.01 93.55 1.16 95.85 1.54 96.87C2.13 98.46 3.73 99.49 5.42 99.42C4.79 102.51 7.32 105.27 10.46 104.88C10.26 106.31 10.8 107.67 11.96 108.59C13.58 109.87 15.94 109.39 17.77 108.8C17.44 112.66 21.67 115.17 24.93 113.22C24.99 114.3 25.44 115.27 26.13 116.06C23.81 124.45 21.5 132.84 19.18 141.23C18.89 142.02 18.92 142.94 18.46 143.71C18 144.44 17.55 145.06 17.26 145.89C16.9 146.94 16.75 148.49 17.65 149.31C18.36 149.96 19.57 149.47 20.05 148.78C20.95 147.47 21.18 145.85 20.98 144.3C23.86 135.56 26.57 126.72 29.15 117.89C30.29 118.14 31.5 118.03 32.64 117.7C32.52 117.73 32.3 118.94 32.25 119.1C32.12 119.59 31.98 120.08 31.84 120.57C31.57 121.54 31.29 122.51 31.01 123.48C30.44 125.43 29.86 127.37 29.27 129.3C28.08 133.17 26.83 137.02 25.52 140.85C25.27 141.58 25.02 142.31 24.76 143.04C24.64 143.4 24.51 143.76 24.38 144.13C24.27 144.45 24.21 144.77 24.05 145.08C23.87 145.41 23.68 145.74 23.52 146.09C23.2 146.82 22.96 147.59 22.92 148.4C22.88 149.14 23.25 150.08 24.09 150.21C26.55 150.57 27.44 146.89 27.25 145.03C30.66 136.38 33.65 127.57 36.21 118.63C38.5 120.79 42.31 120.77 44.56 118.25C44.99 119.76 46.37 120.85 47.99 120.91C49.54 120.97 50.84 119.78 51.31 118.37C52.07 119.45 53.42 119.92 54.75 120.08C56.41 120.29 58.61 119.76 58.66 117.75C58.66 117.69 58.65 117.64 58.63 117.6C58.67 117.49 58.64 117.36 58.5 117.28C56.25 116.04 53.98 114.77 51.92 113.22C56.67 113.97 61.42 111.76 63.85 107.52C65.16 105.23 65.56 102.55 65.17 99.95C64.88 98.06 64.14 96.27 63.3 94.54C65.59 93.75 67.87 92.96 70.16 92.17C71.31 91.77 72.45 91.38 73.59 90.98C74.52 90.66 75.43 90.31 76.35 89.97C76.41 90.11 76.34 90.34 76.31 90.49C76.28 90.66 76.24 90.83 76.21 91.01C76.16 91.37 76.11 91.74 76.06 92.11C76.04 92.24 76.12 92.43 76.25 92.47C76.33 92.5 76.41 92.49 76.48 92.45L78.83 91.14L81.24 92.33C81.33 92.36 81.48 92.36 81.56 92.29C81.63 92.22 81.67 92.11 81.65 92.01ZM62.42 94.18C62.2 94.26 61.98 94.35 61.75 94.43C61.98 94.36 62.19 94.26 62.42 94.18ZM59.96 94.98C60 94.97 60.05 94.95 60.09 94.94C60.08 94.96 59.97 94.97 59.96 94.98C59.92 94.99 59.92 95.07 59.9 95.09C59.89 95.08 59.97 95 59.96 94.98ZM48.07 68.7C50.48 69.14 52.98 69.2 55.44 68.9C52.94 69.89 50.87 71.62 49.43 73.89C49.64 73.55 49.12 72.55 48.9 72.36C48.57 72.08 48.31 71.98 48.11 71.56C47.94 71.2 47.85 70.81 47.8 70.43C47.71 69.84 47.84 69.24 48.07 68.7ZM46.52 68.36C46.83 68.44 47.15 68.51 47.46 68.58C47.16 69.39 47.08 70.52 47.36 71.44C46.94 71.83 46.52 72.17 45.92 72.14C45.3 72.11 44.6 71.7 44.54 71.05C44.6 71.01 44.66 70.9 44.72 70.86C45.5 70.26 46.07 69.21 46.52 68.36ZM45.26 73.91C45.16 73.98 45.04 74.07 45.03 73.88C45.03 73.77 45.07 73.66 45.1 73.56C45.16 73.38 45.25 73.22 45.35 73.06C45.46 73.37 45.59 73.71 45.26 73.91ZM40.83 65.97C42.41 66.94 44.12 67.68 45.92 68.19C45.55 68.85 45.14 69.47 44.66 70.05C44.35 70.43 43.95 70.76 43.44 70.6C42.53 70.31 42.2 71.02 41.6 71.6C41.81 69.67 41.55 67.75 40.83 65.97ZM20.12 147.26C20.07 147.41 20.02 147.55 19.97 147.69C19.7 148.37 18.83 149.56 17.92 148.73C17.54 148.38 17.59 147.65 17.64 147.15C17.91 147.65 18.38 147.88 18.97 147.85C19.47 147.82 19.84 147.6 20.12 147.26ZM20.33 144.21C20.31 144.28 20.31 144.35 20.33 144.4C20.26 145.3 20.18 146.27 19.53 146.95C18.91 147.59 18.08 147.14 18.08 146.33C18.08 145.9 18.25 145.46 18.33 145.03C18.53 144.7 18.74 144.37 18.96 144.05C19.55 143.19 19.42 142.25 19.83 141.34C19.86 141.27 19.86 141.2 19.84 141.15L26.62 116.56C27.08 116.96 27.6 117.3 28.17 117.56C28.3 117.62 28.43 117.67 28.56 117.72C25.97 126.6 23.23 135.43 20.33 144.21ZM33.34 117.47C33.88 117.27 34.4 117.03 34.88 116.76C35.1 117.27 35.39 117.72 35.72 118.12C34.61 121.99 33.43 125.86 32.16 129.68C30.89 133.53 29.53 137.35 28.1 141.13C27.8 141.93 27.49 142.72 27.18 143.51C26.99 144 26.72 144.45 26.57 144.95C26.44 145.38 26.46 145.81 26.31 146.23C26.08 146.86 25.55 147.78 24.74 147.57C24.28 147.45 24.45 146.69 24.51 146.37C24.69 145.45 24.89 144.54 25.2 143.66C25.53 142.7 25.86 141.75 26.19 140.79C26.84 138.87 27.48 136.95 28.1 135.03C29.35 131.18 30.53 127.31 31.66 123.43C32.24 121.45 32.8 119.46 33.34 117.47ZM26.41 147.35C26.16 148.24 25.71 149.06 25.07 149.47C24.27 149.99 23.56 149.21 23.53 148.43C23.51 147.99 23.63 147.55 23.76 147.12C23.79 147.02 23.82 146.93 23.85 146.84C23.79 147.46 23.94 148 24.71 148.2C25.4 148.37 25.99 147.96 26.41 147.35ZM58.05 117.73C57.95 120.76 52.21 119.62 51.5 117.4C51.39 117.08 50.92 117.07 50.89 117.44C50.77 118.97 49.57 120.2 48.02 120.3C46.44 120.39 45.18 118.94 45.03 117.48C45.01 117.2 44.62 117.17 44.48 117.37C42.03 120.82 36.83 120.12 35.3 116.19C35.24 116.05 35.02 115.97 34.89 116.05C34.4 116.34 33.89 116.59 33.37 116.8C33.22 116.82 32.99 116.93 32.84 116.98C32.78 117.01 32.65 117.06 32.59 117.09C31.43 117.42 30.12 117.49 28.9 117.17C26.93 116.65 25.4 114.72 25.54 112.67C25.56 112.39 25.24 112.26 25.03 112.42C21.98 114.78 17.78 112.13 18.44 108.38C18.47 108.2 18.25 108 18.07 108.06C16.59 108.56 15.02 108.98 13.45 108.62C11.66 108.2 10.7 106.32 11.13 104.61C11.19 104.39 11.02 104.15 10.78 104.21C7.76 104.86 5.21 102.15 6.11 99.18C6.17 98.95 5.99 98.75 5.75 98.78C3.05 99.18 1.16 96.55 2.23 94.12C10.21 94.41 18.16 92.88 25.48 89.68C32.78 86.49 40.14 81.44 43.22 73.81C43.36 73.46 42.87 73.27 42.68 73.54C40.62 75.77 38.22 77.69 35.76 79.45C33.18 81.29 30.54 83.21 27.69 84.6C27.62 84.61 27.54 84.65 27.48 84.72C27.12 85.17 26.79 85.63 26.5 86.12C26.33 86.41 26.16 86.94 25.9 87.33C25.91 87.13 25.68 86.98 25.49 87.04C25.53 86.81 25.32 86.55 25.07 86.71C25.34 86.48 25.03 86.05 24.71 86.21C24.48 86.33 24.26 86.43 24.03 86.51C24.31 86.32 24.6 86.15 24.92 86C25.04 85.95 25.13 85.79 25.09 85.66C25.02 85.45 24.95 85.29 24.73 85.2C24.67 85.17 24.37 85.02 24.31 85.04C24.68 84.93 25.09 84.89 25.47 84.84C25.56 84.83 25.62 84.79 25.66 84.74C31.93 80.87 37.74 76.3 42.98 71.11C43.24 71.13 43.49 71.29 43.77 71.27C43.83 71.26 43.89 71.25 43.95 71.24C44.04 71.86 44.48 72.26 45.02 72.5C44.74 72.84 44.51 73.23 44.44 73.66C44.38 74.03 44.49 74.53 44.94 74.6C45.36 74.65 45.84 74.36 46.04 74C46.24 73.63 46.07 73.16 45.91 72.76C46.56 72.81 47.12 72.47 47.62 72.04C47.84 72.42 48.16 72.73 48.6 72.9C49.97 80.64 53.55 87.87 58.88 93.65C58.93 93.7 58.98 93.73 59.04 93.74C59.14 93.95 59.31 94.13 59.47 94.3C59.51 94.35 59.56 94.4 59.56 94.47C59.38 94.51 59.29 94.74 59.31 94.89C59.19 94.99 59.15 95.16 59.29 95.31C59.46 95.48 59.53 95.69 59.48 95.9C59.43 95.88 59.39 95.87 59.35 95.85C59.25 95.82 59.12 95.83 59.05 95.91C58.96 95.72 58.67 95.69 58.54 95.84C58.48 95.64 58.26 95.54 58.09 95.63C58.1 95.43 58.1 95.22 58.11 95.02C58.12 94.63 58.13 94.25 58.15 93.86C58.15 93.8 58.14 93.76 58.12 93.72C58.21 93.62 58.24 93.47 58.1 93.35C52.95 88.65 49.28 82.51 47.6 75.75C47.68 75.55 47.55 75.41 47.38 75.38C47.18 75.3 46.9 75.43 46.96 75.69C43.48 83.34 42.34 91.93 43.72 100.22C44.36 103.99 45.69 107.66 48.17 110.61C50.81 113.74 54.52 115.78 58.05 117.73ZM64.36 99.1C65.01 101.66 64.71 104.28 63.61 106.67C61.43 111.36 55.95 113.67 51.03 112.42C50.98 112.4 50.94 112.4 50.9 112.41C50.27 111.88 49.66 111.32 49.09 110.71C46.34 107.81 45.01 103.97 44.33 100.1C42.93 92.23 44.05 83.96 47.21 76.64C48.98 83.17 52.58 89.1 57.57 93.68C57.55 93.72 57.54 93.77 57.53 93.82C57.52 94.1 57.51 94.39 57.51 94.67C55.67 95.39 53.8 96.02 51.9 96.58C51.14 96.8 49.9 97.24 50.32 98.33C50.42 98.58 50.58 98.89 50.9 98.84C51.65 98.75 52.39 98.2 53.13 97.98C54.75 97.51 56.36 97.08 57.93 96.46C58.13 96.69 58.6 96.7 58.85 96.51C58.99 96.56 59.15 96.55 59.29 96.48C59.37 96.51 59.46 96.54 59.54 96.57C59.66 96.61 59.81 96.56 59.89 96.45C60.06 96.19 60.13 95.89 60.09 95.61C60.14 95.62 60.2 95.61 60.25 95.6L62.7 94.75C63.38 96.15 63.98 97.58 64.36 99.1ZM78.95 90.71C78.87 90.69 78.75 90.68 78.68 90.72L76.53 91.92L76.68 90.89C76.72 90.62 76.76 90.36 76.8 90.09C76.83 89.9 76.89 89.72 76.9 89.53C76.91 89.29 76.72 89.15 76.56 89.02C76.35 88.84 76.16 88.64 75.95 88.45C75.64 88.16 75.33 87.87 75.01 87.58L77.42 87.14C77.51 87.12 77.59 87.06 77.63 86.98L78.66 84.74L79.81 86.92C79.85 87 79.94 87.06 80.03 87.07L82.48 87.36L80.76 89.13C80.69 89.2 80.66 89.29 80.68 89.39L81.16 91.8L78.95 90.71Z" fill="#FFFFFF" fill-opacity="1.000000" fill-rule="nonzero"/>
			</g>
		</g>
	</g>
</svg>
