<svg width="1440.454102" height="133.838379" viewBox="0 0 1440.45 133.838" fill="none" xmlns="http://www.w3.org/2000/svg" xmlns:xlink="http://www.w3.org/1999/xlink">
	<desc>
			Created with Pixso.
	</desc>
	<defs/>
	<g style="mix-blend-mode:normal">
		<mask id="mask_14_2699" fill="white">
			<path id="Union" d="M122.314 58.0117C48.7664 68.1542 15.1431 68.8616 0 67.7949L0 99.7488C0.150146 99.795 0.301514 99.8416 0.454102 99.8885L0.454102 133.838L1440.45 133.838L1440.45 87.8384L1440 87.8384L1440 52.3795C1420.34 52.3239 1396.48 45.4929 1363.96 36.1791C1339.74 29.2438 1310.71 20.9318 1275.03 13.0156C1200.48 -3.52161 1175.62 -1.49457 1110.04 3.85126C1100.45 4.63348 1089.98 5.48676 1078.36 6.36328C987.312 13.2305 886.726 58.7969 839.007 65.5658C791.288 72.3347 702.611 62.3398 657.882 52.3555C613.15 42.3711 532.737 20.6562 434.456 18.6016C367.561 17.203 304.046 28.1166 231.552 40.5731C197.541 46.4171 161.554 52.6006 122.314 58.0117Z" clip-rule="evenodd" fill="" fill-opacity="1.000000" fill-rule="evenodd"/>
		</mask>
		<path id="Union" d="M122.314 58.0117C48.7664 68.1542 15.1431 68.8616 0 67.7949L0 99.7488C0.150146 99.795 0.301514 99.8416 0.454102 99.8885L0.454102 133.838L1440.45 133.838L1440.45 87.8384L1440 87.8384L1440 52.3795C1420.34 52.3239 1396.48 45.4929 1363.96 36.1791C1339.74 29.2438 1310.71 20.9318 1275.03 13.0156C1200.48 -3.52161 1175.62 -1.49457 1110.04 3.85126C1100.45 4.63348 1089.98 5.48676 1078.36 6.36328C987.312 13.2305 886.726 58.7969 839.007 65.5658C791.288 72.3347 702.611 62.3398 657.882 52.3555C613.15 42.3711 532.737 20.6562 434.456 18.6016C367.561 17.203 304.046 28.1166 231.552 40.5731C197.541 46.4171 161.554 52.6006 122.314 58.0117Z" clip-rule="evenodd" fill="#ffffff" fill-opacity="1.000000" fill-rule="evenodd" mask="url(#mask_14_2699)"/>
		<path id="Union" d="" fill="#ffffff" fill-opacity="0.000000" fill-rule="nonzero"/>
	</g>
</svg>
