<svg width="1486.000000" height="188.000000" viewBox="0 0 1486 188" fill="none" xmlns="http://www.w3.org/2000/svg" xmlns:xlink="http://www.w3.org/1999/xlink">
	<desc>
			Created with Pixso.
	</desc>
	<defs/>
	<path id="Union" d="M0 6.42981C0 6.42981 35.791 7.06335 94.0684 26.9873C152.344 46.9113 291.561 69.0266 327.904 72.3446C364.248 75.6627 505.168 55.5311 540.541 42.9961C544.365 41.6412 548.715 40.0482 553.521 38.2875C593.193 23.7587 664.025 -2.18274 727.379 0.146851C798.412 2.75879 886.195 27.1533 923.672 36.3546C931.26 38.2179 940.436 40.8519 950.908 43.8582C992.152 55.6976 1053.5 73.3096 1117.23 72.3446C1197.14 71.1346 1306.77 46.2831 1326.93 42.9961C1347.08 39.7092 1438.59 14.7795 1447.08 14.0734C1455.57 13.3673 1486 14.0734 1486 14.0734L1486 188L0 188L0 6.42981Z" clip-rule="evenodd" fill="#169FDB" fill-opacity="1.000000" fill-rule="evenodd"/>
</svg>
