<svg width="145.437012" height="161.054688" viewBox="0 0 145.437 161.055" fill="none" xmlns="http://www.w3.org/2000/svg" xmlns:xlink="http://www.w3.org/1999/xlink">
	<desc>
			Created with Pixso.
	</desc>
	<defs/>
	<mask id="mask1_22959" mask-type="alpha" maskUnits="userSpaceOnUse" x="0.000000" y="0.000000" width="145.437012" height="161.054688">
		<g style="mix-blend-mode:normal">
			<rect id="Rectangle 3580" y="31.010742" width="112.505692" height="135.284622" transform="rotate(-16 0.000000 31.010742)" fill="#C4C4C4" fill-opacity="1.000000"/>
		</g>
	</mask>
	<g mask="url(#mask1_22959)">
		<g style="mix-blend-mode:normal">
			<path id="Path 27270" d="M42.45 95.67C42.17 99.06 41.71 102.4 39.5 105.12C39.26 105.41 38.85 105.35 38.59 105.14C36.1 103.18 36.39 100.32 35.71 97.59C33.72 100.78 33.63 105.9 29.14 106.49C28.79 106.54 28.5 106.17 28.49 105.86C28.42 103.03 28.85 100.17 29.89 97.53C30.25 96.6 30.7 95.64 31.08 94.66C28.17 99.67 23 107 20.54 102.33C19.02 99.41 20.72 94.45 21.89 91.73C23.71 87.5 26.38 83.79 29.17 80.16C29.67 79.5 30.6 80.4 30.1 81.05C26.16 86.17 21.66 92.21 21.41 98.95C21.37 100.2 21.38 103.48 23.59 102.09C24.89 101.27 25.9 100.12 26.83 98.92C28.93 96.23 30.65 93.33 31.99 90.19C32.26 89.54 33.15 89.91 33.2 90.49C33.36 92.65 32.39 94.72 31.6 96.68C30.5 99.4 29.82 102.13 29.78 105.06C33.11 103.95 33.32 98.13 35.49 95.75C35.84 95.36 36.4 95.59 36.57 96.02C37.58 98.59 37 101.67 38.95 103.73C40.6 101.37 40.93 98.5 41.16 95.68C41.23 94.86 42.52 94.84 42.45 95.67ZM123.95 56.12C121.92 53.41 117.92 52.16 114.8 51.35C110.84 50.31 106.38 50.03 102.47 51.41C101.69 51.69 102.04 52.93 102.83 52.65C108.32 50.71 115.05 52.06 120.1 54.71C121.06 55.21 121.93 55.85 122.69 56.61C123.82 57.74 123.36 58.06 122.05 58.5C119.04 59.5 115.3 59.02 112.85 56.98C112.22 56.45 111.34 57.34 111.96 57.91C114.48 60.17 118.01 62.77 119.24 66.03C119.67 67.17 118.9 68.58 117.69 68.69C116.67 68.77 115.6 68.18 114.74 67.72C113.52 67.07 112.32 66.16 111.37 65.1C111.13 64.82 110.91 64.56 110.74 64.34C110.24 63.71 109.14 64.34 109.64 65.01C109.77 65.19 109.92 65.38 110.1 65.58C111.95 67.87 114.05 70.35 114.81 73.2C115.52 75.83 112.53 74.32 112.07 74.07C111.39 73.68 110.78 73.12 110.19 72.6C109.14 71.68 108.2 70.64 107.21 69.66C106.62 69.07 105.73 70 106.32 70.59C107.71 71.97 112.95 78.3 115.45 75.44C116.89 73.79 115.99 71.4 114.55 69.19C116.46 70.19 118.47 70.5 119.85 68.97C122.24 66.32 119.2 62.68 116.29 59.97C117.96 60.32 119.73 60.29 121.48 59.97C123.85 59.54 125.69 58.43 123.95 56.12Z" fill="#FFFFFF" fill-opacity="1.000000" fill-rule="nonzero"/>
		</g>
	</g>
	<g mask="url(#mask1_22959)">
		<g style="mix-blend-mode:normal">
			<path id="Path 27271" d="M70.08 120.42C73.81 120.5 77.87 119.84 82.29 118.26C131.01 100.78 102.49 36.7 70.57 28.12C62.85 26.04 49.48 30.22 43.53 36.86C21 61.98 35.15 119.6 70.08 120.42Z" fill="#FCD100" fill-opacity="1.000000" fill-rule="nonzero"/>
		</g>
	</g>
	<g mask="url(#mask1_22959)">
		<g style="mix-blend-mode:normal">
			<path id="Path 27272" d="M44.86 26.74C44.25 25.21 44.62 23.09 46.58 22.75C48.25 22.46 49.63 23.11 51.04 23.78C50.48 22.74 50.07 21.57 50.06 20.79C50.02 18.87 50.64 17.14 52.31 16.07C53.65 15.21 55.7 16.79 56.6 17.67C57.31 18.35 57.76 19.12 58.05 19.95C58.47 18.98 59.07 18.1 59.92 17.17C60.79 16.23 62.8 15.73 63.83 16.71C67.17 19.88 64.74 27.16 62.86 30.45C62.46 31.18 61.33 30.55 61.74 29.83C63.16 27.33 64.28 23.9 64.01 20.97C63.94 20.27 63.9 19.33 63.62 18.64C61.87 17.74 60.64 17.91 59.93 19.16C58.94 20.49 58.68 21.73 58.59 23.35C58.55 24.18 57.34 24.2 57.31 23.37C57.2 21.14 56.38 17.57 53.56 17.21C50.05 16.76 51.52 23.54 53.33 24.74C53.91 25.12 53.6 26.15 52.86 25.92C51.62 25.53 50.53 24.84 49.33 24.37C48.6 24.08 44.81 23.17 45.89 25.86C46.25 26.76 46.86 27.44 47.54 28.11C50.5 31.02 54.47 31.54 58.41 30.59C59.22 30.39 59.58 31.63 58.77 31.82C55.8 32.54 52.68 32.49 49.81 31.37C47.97 30.65 45.61 28.61 44.86 26.74ZM56.9 51.38C56.95 51.72 57.39 51.91 57.69 51.82C58.06 51.71 58.19 51.37 58.13 51.02C58.08 50.72 57.89 50.45 57.85 50.15C57.8 49.8 57.59 49.51 57.2 49.51C56.89 49.51 56.52 49.81 56.57 50.16C56.6 50.41 56.64 50.64 56.73 50.87C56.8 51.04 56.87 51.2 56.9 51.38ZM68.86 46.99C68.81 46.64 68.59 46.35 68.21 46.35C67.89 46.36 67.52 46.66 67.57 47C67.61 47.25 67.65 47.48 67.74 47.71C67.81 47.88 67.87 48.04 67.9 48.22C67.96 48.57 68.39 48.75 68.7 48.66C69.07 48.56 69.19 48.21 69.14 47.87C69.09 47.56 68.9 47.3 68.86 46.99ZM73.99 46.87C74.51 49.91 72.28 53.38 68.95 53.33C66.6 53.3 63.15 51.77 63.08 49.02C63.08 48.93 63.09 48.86 63.12 48.79C63.11 48.75 63.1 48.71 63.1 48.67C63.12 45.75 64.92 43.21 67.93 42.8C70.6 42.43 73.5 44.04 73.99 46.87ZM72.28 46.01C69.82 42.16 64.41 44.39 64.39 48.65C64.39 48.73 64.37 48.81 64.35 48.87C64.36 48.91 64.37 48.96 64.37 49C64.42 51.11 67.9 52.43 69.62 51.97C72.07 51.3 73.77 48.34 72.28 46.01ZM92.56 139.12C88.82 138.06 85.47 136.35 82.84 133.52C82.7 133.28 82.56 133.03 82.42 132.79C79.69 128 77.18 123.09 74.8 118.12C74.44 117.37 73.35 118.04 73.7 118.79C76 123.6 78.45 128.34 81.07 133C81.05 133.06 81.04 133.12 81.05 133.19C81.44 137.58 82.07 142.14 83.2 146.4C83.42 147.2 84.65 146.84 84.44 146.04C83.55 142.69 82.98 139.16 82.59 135.67C84.62 139.2 86.82 142.7 89.53 145.73C90.08 146.34 90.97 145.41 90.41 144.8C88.29 142.43 86.51 139.74 84.86 137C87.07 138.54 89.58 139.61 92.25 140.37C93.05 140.6 93.36 139.35 92.56 139.12ZM48.71 50.89C48.72 50.84 48.72 50.79 48.73 50.74C49.94 44.36 61.56 42.56 62.4 50.05C63.34 58.43 48.55 59.91 48.71 50.89ZM60.87 49.22C58.8 44.31 50.98 46.31 50 50.95C49.94 59.12 63.65 55.8 60.87 49.22ZM49.02 67.26C48.81 66.96 48.85 66.57 49.07 66.39C49.14 66.32 49.22 66.26 49.33 66.22C52.95 64.93 56.42 63.29 59.28 60.67C60.87 59.23 62.35 57.67 64.08 56.39C64.65 55.97 66.13 56.14 66.81 56.11C67.95 56.06 69.1 56.02 70.24 55.93C74.16 55.6 77.94 54.71 81.67 53.45C82.01 53.33 82.27 53.51 82.39 53.76C82.44 53.85 82.48 53.95 82.49 54.06C83.24 64.55 77.76 74.37 74.32 83.95C74.21 84.26 73.9 84.54 73.54 84.42C64.29 81.2 54.78 75.34 49.02 67.26ZM58.57 62.93C56.12 64.78 53.39 66.07 50.54 67.14C56.01 74.5 64.78 79.9 73.32 82.97C76.63 73.98 81.63 64.73 81.25 54.94C77.85 56.04 74.37 56.87 70.81 57.17C68.71 57.34 65.45 56.81 63.79 58.23C62.01 59.76 60.45 61.52 58.57 62.93ZM114.76 125.29C110.46 125.61 106.09 125.2 102.3 123.01C99.33 119.34 96.53 115.51 93.75 111.69C93.27 111.02 92.17 111.68 92.66 112.36C95.44 116.19 98.24 120.03 101.22 123.72C101.26 125.8 101.65 127.86 102.06 129.9C102.42 131.75 103.26 133.91 103.16 135.81C103.12 136.64 104.4 136.62 104.45 135.8C104.52 134.38 103.99 132.83 103.69 131.46C103.27 129.47 102.81 127.45 102.61 125.41C104.76 127.99 107.02 130.47 109.43 132.81C110.03 133.39 110.92 132.46 110.32 131.88C108.18 129.8 106.16 127.61 104.23 125.34C107.56 126.59 111.2 126.85 114.77 126.58C115.59 126.52 115.58 125.23 114.76 125.29ZM70.2 62.78L70.08 62.37L69.66 60.88C69.43 60.09 68.19 60.44 68.42 61.24L68.85 62.72L68.96 63.14C69.19 63.93 70.43 63.58 70.2 62.78ZM63.01 65.89C63.44 65.96 63.8 65.69 63.82 65.26C63.84 64.65 63.16 64.33 62.7 64.07C62.64 64.02 62.57 63.98 62.49 63.96C62.23 63.89 61.95 64 61.81 64.2C61.66 64.38 61.6 64.65 61.75 64.92C62.04 65.41 62.44 65.78 63.01 65.89Z" fill="#FFFFFF" fill-opacity="1.000000" fill-rule="nonzero"/>
		</g>
	</g>
	<g mask="url(#mask1_22959)">
		<g style="mix-blend-mode:normal">
			<path id="Path 27273" d="M96.89 77.16C96.76 76.77 96.14 76.95 96.27 77.34C97.72 81.63 99 92.04 92.29 92.61C91.96 91.35 91.51 90.18 91.17 89.4C90.45 87.74 88.48 84.35 86.26 86C85.04 86.91 88.62 91.57 89.46 92.17C90.19 92.7 90.95 92.99 91.69 93.09C91.88 94.06 91.96 95.04 91.9 96.01C91.77 98.35 89.63 99.35 87.44 99.32C87.27 98.53 86.96 97.73 86.5 96.94C85.58 95.36 82.96 90.34 80.51 90.93C77.19 91.73 81.34 96.37 82.25 97.5C83.4 98.94 85.16 99.78 86.96 99.93C87.19 101.26 86.9 102.62 85.68 103.98C84.45 105.37 82.58 106.13 80.77 106.31C80.24 106.37 79.75 106.31 79.3 106.19C79.57 105.17 79.6 104.07 79.35 102.91C78.84 100.52 77.47 96.3 74.75 95.6C73.9 95.38 72.94 96.07 72.54 96.77C71.61 98.44 72.3 100.08 73.22 101.59C74.59 103.83 76.42 105.71 78.63 106.48C78.58 106.59 78.54 106.7 78.48 106.81C77 109.78 73.04 111.81 69.87 110.53C69.59 110.41 69.32 110.26 69.06 110.08C69.39 109.36 69.57 108.52 69.54 107.67C69.5 105.82 69.16 100.33 67.33 99.31C66.37 98.78 65.63 100.24 65.32 100.86C64.44 102.65 65.08 105.18 65.91 106.85C66.6 108.25 67.47 109.4 68.47 110.2C67.48 111.88 64.96 111.98 63.26 110.66C60.74 108.7 60.57 104.24 60.45 101.35C60.44 100.94 59.79 100.94 59.81 101.36C59.95 104.92 60.31 109.69 63.7 111.74C65.98 113.11 67.89 112.2 68.86 110.48C70.6 111.68 72.75 111.91 75.24 110.75C77.19 109.84 78.55 108.39 79.16 106.64C80.44 106.97 81.84 106.92 83.34 106.35C86.47 105.14 87.87 102.66 87.54 99.95C89 99.95 90.44 99.49 91.59 98.52C92.93 97.37 92.87 95.19 92.42 93.14C94.54 93.1 96.46 91.5 97.26 89.15C98.57 85.34 98.17 80.94 96.89 77.16ZM65.73 101.67C65.83 101.14 66.81 99.31 67.46 100.45C67.72 100.89 67.84 101.47 67.96 101.96C68.18 102.78 68.29 103.63 68.44 104.46C68.69 105.86 68.94 107.23 68.9 108.66C68.88 109.09 68.8 109.47 68.67 109.8C66.44 107.99 65.26 104.19 65.73 101.67ZM76.09 104.02C74.88 102.86 70.02 96.71 74.4 96.22C76.35 96 77.76 100.04 78.23 101.33C78.77 102.86 79.21 104.47 78.78 106.02C77.77 105.59 76.9 104.82 76.09 104.02ZM83.46 97.91C82.02 96.56 80.59 94.49 79.91 92.63C79.15 90.5 82.43 92.49 82.86 92.93C83.75 93.82 84.46 94.9 85.14 95.95C85.86 97.05 86.5 98.16 86.82 99.29C85.52 99.16 84.27 98.68 83.46 97.91ZM86.99 87.42C86.15 85.78 87.99 86.17 88.78 86.87C89.69 87.68 90.27 88.94 90.75 90.03C91.1 90.84 91.38 91.7 91.58 92.57C89.4 92.18 87.87 89.12 86.99 87.42Z" fill="#FAFBFC" fill-opacity="1.000000" fill-rule="nonzero"/>
		</g>
	</g>
</svg>
