<svg width="152.000000" height="179.000000" viewBox="0 0 152 179" fill="none" xmlns="http://www.w3.org/2000/svg" xmlns:xlink="http://www.w3.org/1999/xlink">
	<desc>
			Created with Pixso.
	</desc>
	<defs/>
	<mask id="mask27_2629" mask-type="alpha" maskUnits="userSpaceOnUse" x="0.000000" y="0.000000" width="152.000000" height="179.000000">
		<rect id="Rectangle 4188" width="152.000000" height="179.000000" fill="#C4C4C4" fill-opacity="1.000000"/>
	</mask>
	<g mask="url(#mask27_2629)">
		<g style="mix-blend-mode:normal">
			<path id="Path 26652" d="M35.75 172.72L54.48 159.56L56.14 158.4L61.32 154.76L65.58 159.44L66.95 160.93L82.38 177.84L91.27 96.83L44.64 91.71L35.75 172.72Z" fill="#FF0019" fill-opacity="1.000000" fill-rule="nonzero"/>
		</g>
		<g style="mix-blend-mode:normal">
			<path id="Path 26653" d="M72.68 94.79L65.58 159.44L66.95 160.94L74.19 94.96L72.68 94.79ZM54.48 159.56L56.13 158.4L63.23 93.75L61.72 93.59L54.48 159.56Z" fill="#FFFFFF" fill-opacity="1.000000" fill-rule="nonzero"/>
		</g>
		<mask id="mask27_2632" mask-type="alpha" maskUnits="userSpaceOnUse" x="-14.000000" y="-14.000000" width="173.580078" height="205.528320">
			<g style="mix-blend-mode:normal">
				<rect id="Rectangle 3523" x="-14.000000" y="21.819336" width="129.951157" height="176.548370" transform="rotate(-16 -14.000000 21.819336)" fill="#C4C4C4" fill-opacity="1.000000"/>
			</g>
		</mask>
		<g mask="url(#mask27_2632)">
			<g style="mix-blend-mode:normal">
				<path id="Path 26654" d="M35.66 173.47C35.56 173.46 35.45 173.43 35.36 173.37C35.1 173.22 34.96 172.93 34.99 172.64L40.44 123.03C40.48 122.61 40.86 122.31 41.27 122.35C41.69 122.4 41.99 122.78 41.95 123.19L36.68 171.14L58.02 156.15C58.36 155.91 58.83 156 59.07 156.34C59.31 156.68 59.23 157.15 58.89 157.39L36.18 173.34C36.03 173.45 35.84 173.49 35.66 173.47Z" fill="#000000" fill-opacity="1.000000" fill-rule="nonzero"/>
			</g>
		</g>
		<g mask="url(#mask27_2632)">
			<g style="mix-blend-mode:normal">
				<path id="Path 26655" d="M84.7 156.72C84.28 156.67 83.98 156.3 84.03 155.88L87.87 120.89C87.91 120.47 88.29 120.17 88.71 120.21C89.12 120.26 89.42 120.63 89.38 121.05L85.53 156.05C85.49 156.47 85.11 156.77 84.7 156.72Z" fill="#000000" fill-opacity="1.000000" fill-rule="nonzero"/>
			</g>
		</g>
		<g mask="url(#mask27_2632)">
			<g style="mix-blend-mode:normal">
				<path id="Path 26656" d="M61.39 105.4L111.86 169.39L115.98 146.87L116.35 144.89L117.49 138.66L123.81 139L125.83 139.1L148.69 140.33L98.22 76.35L61.39 105.4Z" fill="#FF0019" fill-opacity="1.000000" fill-rule="nonzero"/>
			</g>
		</g>
		<g mask="url(#mask27_2632)">
			<g style="mix-blend-mode:normal">
				<path id="Path 26657" d="M74.88 94.76L115.98 146.87L116.35 144.89L76.07 93.82L74.88 94.76ZM84.73 86.99L83.53 87.93L123.81 139L125.83 139.1L84.73 86.99Z" fill="#FFFFFF" fill-opacity="1.000000" fill-rule="nonzero"/>
			</g>
		</g>
		<g mask="url(#mask27_2632)">
			<g style="mix-blend-mode:normal">
				<path id="Path 26658" d="M149.16 140.93C149.24 140.86 149.31 140.78 149.36 140.68C149.5 140.42 149.47 140.1 149.29 139.86L118.38 100.68C118.12 100.35 117.64 100.29 117.31 100.55C116.98 100.81 116.93 101.29 117.19 101.62L147.06 139.49L121.02 138.09C120.61 138.06 120.25 138.38 120.23 138.8C120.2 139.22 120.52 139.58 120.94 139.6L148.65 141.09C148.84 141.1 149.02 141.04 149.16 140.93Z" fill="#000000" fill-opacity="1.000000" fill-rule="nonzero"/>
			</g>
		</g>
		<g mask="url(#mask27_2632)">
			<g style="mix-blend-mode:normal">
				<path id="Path 26659" d="M98.7 152.71C99.03 152.45 99.08 151.97 98.83 151.64L77.02 124C76.76 123.67 76.28 123.61 75.95 123.87C75.63 124.13 75.57 124.61 75.83 124.94L97.63 152.58C97.89 152.91 98.37 152.97 98.7 152.71Z" fill="#000000" fill-opacity="1.000000" fill-rule="nonzero"/>
			</g>
		</g>
		<g mask="url(#mask27_2632)">
			<g style="mix-blend-mode:normal">
				<path id="Path 26660" d="M127.08 46.77L121.22 45.31L124.6 40.3C125.64 38.75 124.61 36.65 122.75 36.52L116.73 36.1L119.18 30.59C119.94 28.88 118.57 26.99 116.71 27.18L110.71 27.81L112.17 21.96C112.62 20.14 110.94 18.52 109.14 19.04L103.34 20.7L103.76 14.68C103.89 12.81 101.96 11.51 100.28 12.33L94.85 14.97L94.22 8.97C94.02 7.11 91.89 6.16 90.38 7.26L85.49 10.81L83.83 5C83.31 3.21 81.05 2.64 79.75 3.99L75.56 8.33L72.91 2.9C72.09 1.22 69.76 1.06 68.71 2.61L65.34 7.61L61.79 2.73C60.69 1.22 58.37 1.46 57.61 3.17L55.15 8.69L50.81 4.49C49.47 3.19 47.22 3.84 46.77 5.65L45.31 11.51L40.3 8.13C38.75 7.09 36.65 8.11 36.52 9.98L36.1 16L30.59 13.54C28.88 12.78 26.99 14.16 27.18 16.02L27.82 22.02L21.96 20.56C20.14 20.11 18.52 21.79 19.04 23.58L20.7 29.39L14.68 28.96C12.81 28.83 11.51 30.77 12.33 32.45L14.97 37.88L8.97 38.51C7.11 38.7 6.16 40.84 7.26 42.35L10.81 47.23L5 48.9C3.21 49.41 2.64 51.68 3.99 52.98L8.33 57.17L2.9 59.82C1.22 60.64 1.06 62.97 2.61 64.01L7.61 67.39L2.73 70.94C1.22 72.04 1.46 74.36 3.17 75.12L8.69 77.57L4.49 81.92C3.19 83.26 3.84 85.51 5.65 85.96L11.51 87.42L8.13 92.42C7.09 93.97 8.11 96.07 9.98 96.2L16 96.63L13.54 102.14C12.78 103.85 14.16 105.74 16.01 105.54L22.02 104.91L20.56 110.77C20.11 112.58 21.79 114.21 23.58 113.69L29.39 112.03L28.97 118.05C28.83 119.91 30.77 121.22 32.45 120.4L37.88 117.75L38.51 123.76C38.7 125.62 40.84 126.57 42.35 125.47L47.23 121.92L48.9 127.72C49.41 129.52 51.68 130.08 52.98 128.74L57.17 124.4L59.82 129.82C60.64 131.5 62.97 131.67 64.01 130.12L67.39 125.11L70.94 130C72.04 131.51 74.36 131.26 75.12 129.56L77.58 124.04L81.92 128.23C83.26 129.53 85.51 128.89 85.96 127.08L87.42 121.22L92.42 124.59C93.97 125.64 96.08 124.62 96.2 122.75L96.63 116.73L102.14 119.18C103.85 119.94 105.74 118.57 105.54 116.71L104.91 110.71L110.77 112.17C112.58 112.62 114.21 110.94 113.69 109.14L112.03 103.34L118.05 103.76C119.91 103.89 121.22 101.96 120.4 100.28L117.76 94.85L123.76 94.22C125.62 94.02 126.57 91.89 125.47 90.38L121.92 85.49L127.72 83.83C129.52 83.31 130.09 81.05 128.74 79.75L124.4 75.55L129.82 72.91C131.5 72.09 131.67 69.76 130.12 68.71L125.11 65.34L130 61.79C131.51 60.69 131.26 58.37 129.56 57.61L124.04 55.15L128.24 50.81C129.53 49.46 128.89 47.22 127.08 46.77Z" fill="#E28F0A" fill-opacity="1.000000" fill-rule="nonzero"/>
			</g>
		</g>
		<g mask="url(#mask27_2632)">
			<g style="mix-blend-mode:normal">
				<path id="Path 26661" d="M81.07 117.65C67.37 121.58 52.96 119.94 40.5 113.03C28.03 106.12 19 94.77 15.08 81.07C11.15 67.37 12.79 52.96 19.7 40.5C26.61 28.03 37.96 19 51.66 15.07C65.36 11.15 79.77 12.79 92.23 19.7C104.7 26.61 113.72 37.96 117.65 51.66C121.58 65.36 119.94 79.77 113.03 92.23C106.12 104.7 94.77 113.72 81.07 117.65ZM52.21 17.01C25 24.81 9.2 53.3 17.01 80.52C24.81 107.73 53.3 123.52 80.52 115.72C107.73 107.92 123.52 79.43 115.72 52.21C107.92 25 79.43 9.2 52.21 17.01Z" fill="#FFCD2C" fill-opacity="1.000000" fill-rule="nonzero"/>
			</g>
		</g>
		<g mask="url(#mask27_2632)">
			<g style="mix-blend-mode:normal">
				<path id="Path 26662" d="M110.54 53.7C110.92 54.99 111.23 56.29 111.48 57.6C115.54 78.35 104.81 99.12 85.9 107.97C83.72 108.99 81.42 109.86 79.03 110.54C78.98 110.56 78.93 110.57 78.88 110.58C64.22 114.73 49.2 111.28 38.04 102.56C36.66 101.48 35.35 100.33 34.1 99.1C33.52 98.53 32.95 97.94 32.4 97.34C31.16 95.98 29.99 94.53 28.91 93.01C28.41 92.32 27.94 91.61 27.48 90.88C25.22 87.29 23.42 83.32 22.19 79.03C15.57 55.77 28.09 31.48 50.45 23.25C51.51 22.86 52.59 22.5 53.7 22.19C56.87 21.28 60.06 20.72 63.22 20.51C64.08 20.45 64.93 20.41 65.79 20.4C67.66 20.37 69.51 20.46 71.34 20.67C72.16 20.75 72.97 20.86 73.77 21C75.5 21.28 77.2 21.66 78.88 22.14C92.61 26.04 104.23 36.24 109.45 50.38C109.85 51.46 110.22 52.57 110.54 53.7Z" fill="#FFCD2C" fill-opacity="1.000000" fill-rule="nonzero"/>
			</g>
		</g>
		<g mask="url(#mask27_2632)">
			<g style="mix-blend-mode:normal">
				<path id="Path 26663" d="M63.22 20.5L27.48 90.88C25.22 87.29 23.42 83.32 22.19 79.03L50.45 23.25C51.51 22.86 52.59 22.5 53.7 22.19C56.87 21.28 60.06 20.72 63.22 20.5Z" fill="#FFEEC5" fill-opacity="1.000000" fill-rule="nonzero"/>
			</g>
		</g>
		<g mask="url(#mask27_2632)">
			<g style="mix-blend-mode:normal">
				<path id="Path 26664" d="M71.34 20.67L32.4 97.34C31.16 95.98 29.99 94.53 28.91 93.01L65.79 20.4C67.66 20.37 69.51 20.46 71.34 20.67Z" fill="#FFEEC5" fill-opacity="1.000000" fill-rule="nonzero"/>
			</g>
		</g>
		<g mask="url(#mask27_2632)">
			<g style="mix-blend-mode:normal">
				<path id="Path 26665" d="M78.88 22.14L38.04 102.55C36.66 101.48 35.35 100.33 34.1 99.1L73.77 21C75.5 21.28 77.2 21.66 78.88 22.14Z" fill="#FFEEC5" fill-opacity="1.000000" fill-rule="nonzero"/>
			</g>
		</g>
		<g mask="url(#mask27_2632)">
			<g style="mix-blend-mode:normal">
				<path id="Path 26666" d="M110.54 53.7C110.92 54.99 111.23 56.29 111.48 57.59L85.9 107.97C83.72 108.99 81.42 109.86 79.03 110.54C78.98 110.56 78.93 110.57 78.88 110.58L109.45 50.38C109.85 51.46 110.22 52.57 110.54 53.7Z" fill="#FFEEC5" fill-opacity="1.000000" fill-rule="nonzero"/>
			</g>
		</g>
		<g mask="url(#mask27_2632)">
			<g style="mix-blend-mode:normal">
				<path id="Path 26667" d="M22.13 78.8C21.7 78.91 21.25 78.66 21.14 78.23C19.29 71.2 19.09 64.04 20.55 56.96C20.64 56.53 21.07 56.25 21.5 56.34C21.93 56.43 22.21 56.85 22.12 57.28C20.71 64.12 20.9 71.03 22.69 77.82C22.8 78.25 22.55 78.68 22.13 78.8Z" fill="#000000" fill-opacity="1.000000" fill-rule="nonzero"/>
			</g>
		</g>
		<g mask="url(#mask27_2632)">
			<g style="mix-blend-mode:normal">
				<path id="Path 26668" d="M79.25 111.31C79.19 111.33 79.13 111.35 79.07 111.36C71.9 113.39 64.26 113.68 56.98 112.18C49.94 110.73 43.22 107.62 37.54 103.19C37.19 102.91 37.13 102.41 37.41 102.06C37.68 101.71 38.18 101.65 38.53 101.92C49.85 110.77 64.85 113.72 78.66 109.81C78.73 109.79 78.77 109.78 78.81 109.77C81.13 109.1 83.4 108.26 85.55 107.25C89.59 105.35 93.32 102.88 96.63 99.89C96.96 99.59 97.46 99.62 97.76 99.94C98.06 100.27 98.03 100.78 97.7 101.08C94.28 104.18 90.42 106.74 86.23 108.7C84 109.74 81.65 110.62 79.25 111.31Z" fill="#000000" fill-opacity="1.000000" fill-rule="nonzero"/>
			</g>
		</g>
		<g mask="url(#mask27_2632)">
			<g style="mix-blend-mode:normal">
				<path id="Path 26669" d="M101.01 97.59C100.75 97.67 100.47 97.61 100.25 97.42C99.92 97.13 99.89 96.62 100.18 96.29C101.05 95.31 101.88 94.29 102.66 93.23C102.92 92.88 103.42 92.8 103.78 93.07C104.13 93.33 104.21 93.83 103.95 94.19C103.14 95.28 102.28 96.34 101.39 97.35C101.28 97.47 101.15 97.55 101.01 97.59Z" fill="#000000" fill-opacity="1.000000" fill-rule="nonzero"/>
			</g>
		</g>
		<g mask="url(#mask27_2632)">
			<g style="mix-blend-mode:normal">
				<path id="Path 26670" d="M105.74 91.2C105.53 91.26 105.3 91.23 105.1 91.11C104.72 90.88 104.6 90.39 104.84 90.01C106.41 87.45 107.73 84.73 108.76 81.92C108.91 81.5 109.37 81.29 109.79 81.44C110.21 81.59 110.42 82.05 110.27 82.47C109.19 85.38 107.83 88.2 106.2 90.85C106.09 91.02 105.93 91.14 105.74 91.2Z" fill="#000000" fill-opacity="1.000000" fill-rule="nonzero"/>
			</g>
		</g>
		<g mask="url(#mask27_2632)">
			<g style="mix-blend-mode:normal">
				<path id="Path 26671" d="M111.37 77.47C111.25 77.5 111.11 77.51 110.97 77.48C110.54 77.38 110.27 76.94 110.37 76.51C111.81 70.32 111.92 64 110.69 57.75C110.44 56.47 110.13 55.18 109.77 53.92C109.45 52.81 109.09 51.72 108.7 50.66C108.21 49.34 107.66 48.03 107.05 46.76C106.86 46.36 107.03 45.88 107.43 45.69C107.83 45.5 108.3 45.67 108.5 46.07C109.12 47.38 109.7 48.73 110.2 50.1C110.61 51.2 110.98 52.33 111.31 53.47C111.69 54.78 112.01 56.12 112.27 57.44C113.53 63.92 113.42 70.46 111.93 76.88C111.87 77.17 111.65 77.39 111.37 77.47Z" fill="#000000" fill-opacity="1.000000" fill-rule="nonzero"/>
			</g>
		</g>
		<g mask="url(#mask27_2632)">
			<g style="mix-blend-mode:normal">
				<path id="Path 26672" d="M99.01 34.55C98.74 34.63 98.43 34.56 98.22 34.35C95.59 31.74 92.65 29.46 89.46 27.56C89.08 27.33 88.95 26.84 89.18 26.46C89.4 26.08 89.9 25.95 90.28 26.18C93.58 28.15 96.63 30.51 99.35 33.21C99.66 33.52 99.66 34.03 99.35 34.35C99.25 34.45 99.13 34.51 99.01 34.55Z" fill="#000000" fill-opacity="1.000000" fill-rule="nonzero"/>
			</g>
		</g>
		<g mask="url(#mask27_2632)">
			<g style="mix-blend-mode:normal">
				<path id="Path 26673" d="M85.55 25.27C85.37 25.32 85.17 25.31 84.99 25.23C82.95 24.3 80.82 23.52 78.66 22.91C77 22.44 75.31 22.06 73.64 21.79C72.85 21.66 72.05 21.55 71.26 21.46C69.45 21.26 67.62 21.18 65.8 21.2C64.98 21.21 64.13 21.25 63.28 21.31C60.13 21.52 56.98 22.08 53.92 22.96C52.84 23.27 51.76 23.62 50.72 24C47.6 25.15 44.6 26.65 41.82 28.45C41.44 28.69 40.95 28.58 40.71 28.21C40.47 27.84 40.57 27.34 40.94 27.1C43.83 25.24 46.93 23.69 50.17 22.5C51.25 22.1 52.36 21.74 53.48 21.41C56.65 20.51 59.91 19.93 63.16 19.71C64.05 19.64 64.93 19.61 65.78 19.6C67.66 19.57 69.57 19.66 71.43 19.87C72.25 19.96 73.08 20.07 73.9 20.21C75.63 20.49 77.38 20.88 79.1 21.36C81.33 22 83.54 22.81 85.66 23.77C86.06 23.95 86.24 24.43 86.05 24.83C85.95 25.05 85.76 25.21 85.55 25.27Z" fill="#000000" fill-opacity="1.000000" fill-rule="nonzero"/>
			</g>
		</g>
		<mask id="mask27_2656" mask-type="alpha" maskUnits="userSpaceOnUse" x="36.347656" y="38.555664" width="55.214844" height="55.213867">
			<g style="mix-blend-mode:normal">
				<rect id="Rectangle 3529" x="36.347656" y="39.502930" width="54.275101" height="54.275101" transform="rotate(-1 36.347656 39.502930)" fill="#E50151" fill-opacity="1.000000"/>
			</g>
		</mask>
		<g mask="url(#mask27_2656)">
			<g style="mix-blend-mode:normal">
				<path id="Path 26674" d="M63.48 39.02C48.49 39.29 36.56 51.65 36.82 66.63C37.08 81.62 49.44 93.55 64.42 93.29C79.41 93.03 91.34 80.67 91.08 65.68C90.82 50.7 78.46 38.76 63.48 39.02ZM64.39 75.23C63.62 76.03 62.72 76.67 61.69 77.14C60.29 77.79 58.63 78.13 56.71 78.16C54.94 78.2 53.35 77.92 51.94 77.35C50.53 76.77 49.33 75.96 48.34 74.92C47.35 73.88 46.58 72.64 46.04 71.19C45.49 69.75 45.2 68.18 45.17 66.48C45.14 64.74 45.4 63.15 45.93 61.69C46.47 60.22 47.24 58.96 48.25 57.89C49.25 56.82 50.46 55.98 51.87 55.37C53.29 54.76 54.85 54.44 56.56 54.41C57.43 54.39 58.26 54.45 59.03 54.6C59.81 54.74 60.53 54.94 61.2 55.2C61.88 55.46 62.5 55.77 63.07 56.14C63.29 56.28 63.49 56.43 63.69 56.58C64.22 56.98 64.32 57.74 63.93 58.28L62.82 59.84C62.7 59.99 62.57 60.12 62.41 60.25C62.25 60.38 62.01 60.44 61.71 60.44C61.53 60.44 61.35 60.4 61.18 60.32C61.02 60.24 60.84 60.14 60.65 60.02C60.46 59.91 60.24 59.78 60.01 59.64C59.78 59.5 59.51 59.37 59.19 59.25C58.88 59.14 58.51 59.04 58.08 58.96C57.66 58.88 57.17 58.85 56.61 58.86C55.71 58.87 54.9 59.05 54.17 59.4C53.43 59.74 52.81 60.23 52.28 60.87C51.75 61.52 51.35 62.3 51.08 63.22C50.8 64.15 50.67 65.2 50.69 66.38C50.71 67.57 50.89 68.63 51.23 69.55C51.57 70.47 52.03 71.24 52.6 71.86C53.17 72.49 53.83 72.96 54.58 73.27C55.33 73.59 56.13 73.74 56.98 73.72C57.47 73.72 57.91 73.68 58.32 73.63C58.72 73.57 59.1 73.49 59.45 73.37C59.8 73.25 60.12 73.1 60.43 72.91C60.73 72.71 61.04 72.47 61.36 72.18C61.48 72.07 61.62 71.98 61.77 71.91C61.91 71.84 62.07 71.8 62.23 71.8C62.35 71.8 62.48 71.82 62.61 71.86C62.74 71.91 62.86 71.99 62.98 72.1L64.37 73.51C64.84 73.99 64.85 74.75 64.39 75.23ZM82.55 55.73C82.57 57.09 81.49 58.21 80.13 58.24L72.84 58.36L72.95 64.38L81.07 64.24L81.1 66.03C81.12 67.39 80.04 68.51 78.68 68.53L73.02 68.63L73.18 77.88L67.64 77.97L67.23 54.22L82.52 53.95L82.55 55.73Z" fill="#E50151" fill-opacity="1.000000" fill-rule="nonzero"/>
			</g>
		</g>
	</g>
</svg>
