<svg width="210.062500" height="171.731934" viewBox="0 0 210.062 171.732" fill="none" xmlns="http://www.w3.org/2000/svg" xmlns:xlink="http://www.w3.org/1999/xlink">
	<desc>
			Created with Pixso.
	</desc>
	<defs/>
	<mask id="mask1_25495" mask-type="alpha" maskUnits="userSpaceOnUse" x="0.000000" y="0.000000" width="210.062500" height="171.731934">
		<g style="mix-blend-mode:normal">
			<rect id="Rectangle 3786" x="39.972656" width="181.005829" height="116.872520" transform="rotate(20 39.972656 0.000000)" fill="#C4C4C4" fill-opacity="1.000000"/>
		</g>
	</mask>
	<g mask="url(#mask1_25495)">
		<g style="mix-blend-mode:normal">
			<path id="Path 34754" d="M117.52 31.27C127.51 30.84 135.96 38.58 136.4 48.57C136.83 58.56 129.09 67.01 119.1 67.45C109.11 67.88 100.66 60.14 100.23 50.15C99.79 40.16 107.53 31.71 117.52 31.27Z" fill="#ED5DAE" fill-opacity="1.000000" fill-rule="nonzero"/>
		</g>
	</g>
	<g mask="url(#mask1_25495)">
		<g style="mix-blend-mode:normal">
			<path id="Path 34755" d="M154.17 56.17C164.16 55.74 172.61 63.48 173.05 73.47C173.48 83.46 165.74 91.91 155.75 92.35C145.76 92.78 137.31 85.04 136.87 75.05C136.44 65.06 144.18 56.61 154.17 56.17Z" fill="#ED5DAE" fill-opacity="1.000000" fill-rule="nonzero"/>
		</g>
	</g>
	<g mask="url(#mask1_25495)">
		<g style="mix-blend-mode:normal">
			<path id="Path 34756" d="M168.94 97.34C178.93 96.91 187.38 104.65 187.81 114.64C188.25 124.63 180.51 133.08 170.52 133.52C160.53 133.95 152.08 126.21 151.64 116.22C151.21 106.23 158.95 97.78 168.94 97.34Z" fill="#ED5DAE" fill-opacity="1.000000" fill-rule="nonzero"/>
		</g>
	</g>
	<g mask="url(#mask1_25495)">
		<g style="mix-blend-mode:normal">
			<path id="Path 34757" d="M60.89 32.65C67.64 25.27 79.09 24.77 86.46 31.53C93.83 38.28 94.33 49.74 87.58 57.11C80.82 64.48 69.37 64.98 62 58.22C54.63 51.47 54.13 40.02 60.89 32.65Z" fill="#ED5DAE" fill-opacity="1.000000" fill-rule="nonzero"/>
		</g>
	</g>
	<g mask="url(#mask1_25495)">
		<g style="mix-blend-mode:normal">
			<path id="Path 34758" d="M23.11 54.69C29.86 47.32 41.32 46.82 48.69 53.57C56.06 60.33 56.56 71.78 49.8 79.15C43.05 86.52 31.6 87.02 24.23 80.27C16.86 73.51 16.36 62.06 23.11 54.69Z" fill="#ED5DAE" fill-opacity="1.000000" fill-rule="nonzero"/>
		</g>
	</g>
	<g mask="url(#mask1_25495)">
		<g style="mix-blend-mode:normal">
			<path id="Path 34759" d="M172.07 107.85C170.41 94.6 165.23 82.81 156.67 72.82C147.58 62.21 134.84 53.87 118.79 48.03C102.75 42.19 87.63 40.39 73.85 42.67C60.87 44.83 49.32 50.53 39.53 59.61C26.36 71.83 18.72 88.3 20.08 101.57C20.85 109.11 24.57 115.26 30.55 118.88C38.96 123.98 46.6 121.93 53.98 119.94C63.18 117.47 73.61 114.67 92.09 121.4C110.57 128.12 116.76 136.97 122.22 144.78C125.89 150.03 129.67 155.43 136.53 157.93C137.85 158.41 139.28 158.78 140.86 159.03C147.76 160.1 154.56 157.78 160.01 152.49C169.57 143.2 174.3 125.68 172.07 107.85ZM151.45 143.68C148.72 146.33 145.87 147.38 142.74 146.89C138.37 146.21 136.38 143.6 132.28 137.74C126.43 129.37 118.41 117.91 96.29 109.86C74.17 101.81 60.66 105.44 50.8 108.08C43.89 109.93 40.68 110.66 36.91 108.37C34.19 106.73 32.68 104.09 32.29 100.32C31.33 90.9 37.6 78.16 47.89 68.61C64.76 52.95 87.82 49.83 114.59 59.57C141.37 69.31 157.03 86.53 159.89 109.37C161.63 123.3 158.24 137.09 151.45 143.68Z" fill="#FC88C9" fill-opacity="1.000000" fill-rule="nonzero"/>
		</g>
	</g>
	<g mask="url(#mask1_25495)">
		<g style="mix-blend-mode:normal">
			<path id="Path 34760" d="M160.2 130.03C161.81 123.73 162.28 116.47 161.37 109.19C161.01 106.37 160.46 103.64 159.73 100.99C158.85 97.79 157.7 94.71 156.28 91.77C150.76 80.37 141.19 70.9 127.94 63.85C127.9 63.83 127.86 63.81 127.82 63.79C123.9 61.71 119.67 59.83 115.11 58.18C110.55 56.52 106.1 55.23 101.76 54.3C101.72 54.29 101.67 54.28 101.62 54.28C86.91 51.16 73.55 52.24 61.97 57.45C59.02 58.78 56.15 60.4 53.43 62.26C51.18 63.82 48.96 65.6 46.88 67.52C41.5 72.52 37.19 78.38 34.38 84.24C34.32 84.33 34.27 84.44 34.23 84.55C31.59 90.14 30.33 95.7 30.82 100.47C31.25 104.69 33.04 107.78 36.14 109.65C36.85 110.09 37.56 110.43 38.25 110.68C41.74 111.95 45.24 111.12 51.18 109.53C60.86 106.93 74.11 103.37 95.78 111.26C117.46 119.15 125.32 130.39 131.06 138.6C135.3 144.66 137.56 147.6 142.51 148.37C146.09 148.92 149.45 147.71 152.49 144.76C155.93 141.42 158.54 136.34 160.11 130.37C160.15 130.26 160.18 130.14 160.2 130.03ZM157.85 127.06C153.4 122.54 151.89 115.86 154.11 109.75C154.86 107.69 156.01 105.82 157.47 104.22C157.86 105.96 158.18 107.74 158.41 109.56C159.18 115.64 158.93 121.68 157.85 127.06ZM152.34 90.67C151.3 90.5 150.28 90.24 149.27 89.87C142.62 87.45 138.32 81.12 138.34 74.23C144.26 79.02 148.95 84.52 152.34 90.67ZM123.75 65.05C120.17 66.3 116.25 66.29 112.63 64.97C109 63.66 106 61.14 104.06 57.89C107.33 58.7 110.68 59.73 114.09 60.97C117.49 62.21 120.71 63.57 123.75 65.05ZM86.98 55.53C82.56 60.82 75.2 62.91 68.55 60.49C67.55 60.13 66.59 59.67 65.68 59.13C72.23 56.6 79.36 55.4 86.98 55.53ZM48.9 69.7C50.24 68.45 51.63 67.29 53.05 66.21C53.14 68.37 52.82 70.54 52.07 72.6C49.84 78.71 44.39 82.86 38.08 83.46C40.7 78.65 44.4 73.87 48.9 69.7ZM150.41 142.61C148.01 144.94 145.64 145.83 142.96 145.42C139.35 144.86 137.69 142.87 133.5 136.88C127.53 128.35 119.35 116.67 96.8 108.46C74.24 100.25 60.46 103.94 50.41 106.64C43.35 108.54 40.8 108.99 37.67 107.1C35.35 105.69 34.11 103.49 33.77 100.16C33.36 96.09 34.38 91.35 36.55 86.51C44.75 86.48 52.03 81.4 54.86 73.62C55.96 70.6 56.3 67.36 55.86 64.21C57.97 62.81 60.16 61.57 62.42 60.51C63.97 61.68 65.68 62.61 67.52 63.29C76.07 66.4 85.61 63.2 90.56 55.69C93.73 55.91 96.97 56.37 100.28 57.04C102.41 62.02 106.49 65.91 111.6 67.77C116.71 69.63 122.34 69.28 127.17 66.82C130.14 68.44 132.91 70.18 135.48 72.03C134.45 80.98 139.7 89.56 148.25 92.67C150.08 93.34 152 93.72 153.94 93.83C154.99 96.1 155.87 98.45 156.59 100.88C154.22 103.01 152.4 105.71 151.3 108.72C148.47 116.51 150.78 125.08 157.04 130.37C155.6 135.47 153.35 139.76 150.41 142.61ZM188.13 122.12C191.83 111.97 186.57 100.71 176.42 97.01C174.68 96.38 172.87 96 171.04 95.88C170.28 93.38 169.38 90.94 168.34 88.56C170.58 86.47 172.3 83.86 173.36 80.95C177.06 70.8 171.8 59.54 161.65 55.84C155.36 53.55 148.34 54.65 143.06 58.68C141.16 57.36 139.16 56.1 137.09 54.89C140 45.06 134.77 34.5 125 30.95C115.24 27.39 104.45 32.12 100.35 41.52C97.98 41.11 95.65 40.8 93.34 40.59C91.88 34.1 87.21 28.75 80.92 26.46C70.77 22.77 59.51 28.02 55.81 38.17C54.76 41.07 54.4 44.18 54.77 47.23C52.45 48.38 50.19 49.67 48 51.1C46.52 50.01 44.89 49.14 43.15 48.51C33.01 44.82 21.74 50.07 18.05 60.22C15.43 67.4 17.2 75.31 22.52 80.69C19.36 87.88 17.93 95.17 18.6 101.72C19.42 109.74 23.39 116.29 29.78 120.15C38.74 125.58 47.04 123.35 54.37 121.38C63.36 118.97 73.55 116.23 91.58 122.8C109.62 129.36 115.67 138.01 121.01 145.64C124.8 151.06 128.73 156.67 136.02 159.33C137.47 159.86 139.02 160.25 140.63 160.5C148.01 161.64 155.26 159.18 161.04 153.56C165.77 148.98 169.35 142.47 171.56 134.94C179.09 134.24 185.52 129.3 188.13 122.12ZM160.64 58.65C169.25 61.78 173.71 71.33 170.57 79.94C169.79 82.1 168.56 84.06 167 85.71C164.55 80.78 161.48 76.15 157.8 71.85C154.28 67.73 150.21 63.95 145.63 60.52C150.01 57.55 155.6 56.81 160.64 58.65ZM124 33.75C132.05 36.68 136.47 45.24 134.43 53.39C129.76 50.86 124.72 48.6 119.3 46.63C113.88 44.65 108.57 43.15 103.37 42.09C107.04 34.53 115.93 30.82 124 33.75ZM79.91 29.27C84.96 31.1 88.77 35.26 90.21 40.36C84.5 40.04 78.96 40.32 73.6 41.2C68.02 42.13 62.69 43.71 57.65 45.9C57.51 43.64 57.83 41.35 58.62 39.19C61.75 30.58 71.31 26.13 79.91 29.27ZM20.84 61.24C23.98 52.63 33.53 48.18 42.14 51.31C43.28 51.73 44.37 52.26 45.38 52.91C43.01 54.61 40.72 56.47 38.52 58.51C32.33 64.26 27.34 70.93 23.88 77.79C19.96 73.27 18.76 66.98 20.84 61.24ZM158.97 151.43C153.87 156.38 147.52 158.55 141.08 157.56C139.66 157.34 138.3 156.99 137.04 156.53C130.63 154.2 126.97 148.98 123.44 143.93C117.86 135.94 111.52 126.89 92.6 120C73.69 113.12 63.01 115.98 53.6 118.51C46.19 120.5 39.2 122.38 31.32 117.61C25.75 114.24 22.28 108.48 21.56 101.41C20.92 95.12 22.39 88.06 25.58 81.1C25.63 81 25.68 80.91 25.71 80.8C29.01 73.69 34.1 66.68 40.55 60.69C50.12 51.81 61.4 46.24 74.1 44.14C87.62 41.9 102.49 43.67 118.29 49.42C134.09 55.17 146.62 63.37 155.54 73.78C163.91 83.55 168.97 95.07 170.6 108.03C171.69 116.76 171.08 125.39 169.04 132.97C169 133.07 168.96 133.17 168.95 133.28C166.91 140.66 163.51 147.02 158.97 151.43ZM172.37 131.84C174.13 124.36 174.6 116.04 173.55 107.66C173.17 104.69 172.62 101.79 171.9 98.96C173.09 99.11 174.26 99.4 175.4 99.82C184.01 102.95 188.47 112.51 185.33 121.11C183.25 126.85 178.28 130.89 172.37 131.84Z" fill="#000000" fill-opacity="1.000000" fill-rule="nonzero"/>
		</g>
	</g>
</svg>
