<svg viewBox="0 0 98 62" xmlns="http://www.w3.org/2000/svg" xmlns:xlink="http://www.w3.org/1999/xlink" width="98.000000" height="62.000000" fill="none" customFrame="#000000">
	<mask id="mask_1" width="99.606407" height="53.873516" x="0.000000" y="0.000000" maskUnits="objectBoundingBox">
		<g filter="url(#pixso_custom_mask_type_outline)">
			<g>
				<rect id="Rectangle 3538" width="99.606407" height="53.873516" x="0.000000" y="0.000000" fill="rgb(255,255,255)" transform="matrix(0.669131,-0.743145,0.743145,0.669131,-7,52.022)" />
			</g>
		</g>
	</mask>
	<defs>
		<filter id="pixso_custom_mask_type_alpha">
			<feColorMatrix type="matrix" values="0 0 0 0 1 0 0 0 0 1 0 0 0 0 1 0 0 0 1 0 " />
		</filter>
		<filter id="pixso_custom_mask_type_outline">
			<feColorMatrix type="matrix" values="0 0 0 0 1 0 0 0 0 1 0 0 0 0 1 0 0 0 1 0 " />
		</filter>
	</defs>
	<mask id="mask_0" width="98.000000" height="62.000000" x="0.000000" y="0.000000" maskUnits="userSpaceOnUse">
		<g filter="url(#pixso_custom_mask_type_alpha)">
			<rect id="Rectangle 4209" width="98.000000" height="62.000000" x="0.000000" y="0.000000" fill="rgb(196,196,196)" />
		</g>
	</mask>
	<g id="icon-halloween-bat" mask="url(#mask_0)">
		<g id="Group 4742">
			<g id="Group 4357" mask="url(#mask_1)">
				<g style="mix-blend-mode:normal">
					<path id="Path 26713" d="M37.8805 31.2241C35.5653 27.2114 33.4159 20.4965 35.3667 16.2975C37.5192 11.6652 43.8861 9.80088 48.3136 9.36749C53.0222 8.90837 59.7278 8.97837 63.7096 11.8227C67.8705 14.7946 70.6839 21.1214 71.4663 26.0049C72.7232 33.8491 66.3614 37.3481 60.5946 41.056C65.9321 43.366 68.5283 36.8447 71.3273 33.6988C75.0363 29.5327 79.2136 28.2171 84.8127 29.5811C95.5474 32.1948 101.114 38.7182 99.2513 49.7134C95.9005 43.924 88.3549 44.2637 86.6635 50.9343C85.4334 48.5409 82.7806 45.4537 79.7747 45.1047C75.5448 44.6127 74.6544 48.1456 72.6974 51.0033C70.6118 47.1131 64.7184 44.9606 60.3815 45.7018C56.4121 46.3792 52.9625 52.5011 49.4408 51.9349C49.8145 50.3465 51.0169 49.0114 51.5748 47.5445C47.0052 45.638 40.7464 46.3905 37.548 42.1503C37.5624 43.1663 36.8799 43.7191 36.6884 44.6158C36.2509 44.5643 35.8711 44.4953 35.4449 44.38C35.5633 38.7975 35.6075 34.0138 31.598 29.5894C27.2157 24.7552 23.5448 25.2946 18.407 28.8183C23.2309 21.5095 13.3062 13.9896 7.63416 20.4914C10.9602 15.6912 5.60106 8.08484 0 9.32117C4.2484 0.258181 27.4782 -4.79729 31.424 6.49954C33.1297 11.3862 30.9494 16.3716 31.704 21.3005C32.2496 24.8705 38.2542 29.4977 37.688 32.2381L37.8805 31.2241Z" fill="rgb(35,34,34)" fill-rule="nonzero" transform="matrix(0.669131,-0.743145,0.743145,0.669131,-5.58691,53.2942)" />
				</g>
				<g style="mix-blend-mode:normal">
					<path id="Path 26714" d="M5.3568 12.9729C1.53766 11.9723 -1.55059 11.3094 0.840744 7.1938C1.78678 5.56423 4.94194 0.439789 6.84122 0.0228754C8.63343 -0.372421 11.9873 4.4576 12.432 6.60806C13.0671 9.67366 10.1106 11.2415 8.6777 13.9519L5.3568 12.9729Z" fill="rgb(35,34,34)" fill-rule="nonzero" transform="matrix(0.669131,-0.743145,0.743145,0.669131,20.3613,21.634)" />
				</g>
				<g style="mix-blend-mode:normal">
					<path id="Path 26715" d="M1.08114 7.76358C-0.160347 4.01547 -1.28756 1.06517 3.46836 0.828399C5.35012 0.732663 12.4181 -0.802198 13.8047 0.56281C15.1121 1.85164 11.8344 8.68388 10.2759 10.228C8.04926 12.432 5.12469 10.8065 2.07143 11.0814L1.08114 7.76358Z" fill="rgb(35,34,34)" fill-rule="nonzero" transform="matrix(0.669131,-0.743145,0.743145,0.669131,47.3018,10.623)" />
				</g>
				<g style="mix-blend-mode:normal">
					<path id="Path 26716" d="M0.716728 1.34417C-0.172684 2.54139 -0.372391 4.4036 0.918495 5.41037C4.24248 7.9973 8.93559 4.25948 5.47675 1.02402C3.63718 -0.697163 1.72762 -0.0125999 0.716728 1.34417Z" fill="rgb(255,255,255)" fill-rule="nonzero" transform="matrix(0.669131,-0.743145,0.743145,0.669131,34.1758,33.7366)" />
				</g>
				<g style="mix-blend-mode:normal">
					<path id="Path 26717" d="M0.382687 0.717749C-0.092907 1.35599 -0.197903 2.35349 0.489742 2.88879C2.26343 4.2713 4.77007 2.2732 2.92329 0.546867C1.94225 -0.371374 0.92107 -0.00799179 0.382687 0.717749Z" fill="rgb(16,16,16)" fill-rule="nonzero" transform="matrix(0.669131,-0.743145,0.743145,0.669131,35.8574,34.6396)" />
				</g>
				<g style="mix-blend-mode:normal">
					<path id="Path 26718" d="M0.592945 1.11162C-0.143089 2.10089 -0.307796 3.64193 0.759712 4.4737C3.50928 6.61386 7.38916 3.52252 4.52943 0.847061C3.00795 -0.576624 1.42883 -0.0104427 0.592945 1.11162Z" fill="rgb(255,255,255)" fill-rule="nonzero" transform="matrix(0.669131,-0.743145,0.743145,0.669131,52.3984,26.2422)" />
				</g>
				<g style="mix-blend-mode:normal">
					<path id="Path 26719" d="M0.316677 0.593529C-0.0765648 1.12162 -0.164066 1.94618 0.405209 2.38883C1.87213 3.53149 3.94434 1.8803 2.41771 0.452496C1.60551 -0.307213 0.762417 -0.00662231 0.316677 0.593529Z" fill="rgb(16,16,16)" fill-rule="nonzero" transform="matrix(0.669131,-0.743145,0.743145,0.669131,53.7891,26.99)" />
				</g>
				<g style="mix-blend-mode:normal">
					<path id="Path 26720" d="M2.04288 1.09633C0.204338 3.11604 -0.69743 1.9631 0.637726 0C1.04744 0.38706 1.52611 0.733976 2.0542 0.900738L2.04288 1.09633Z" fill="rgb(255,255,255)" fill-rule="nonzero" transform="matrix(0.669131,-0.743145,0.743145,0.669131,44.2959,41.1111)" />
				</g>
				<g style="mix-blend-mode:normal">
					<path id="Path 26721" d="M1.7937 0.343822C1.0659 2.97604 -0.259987 2.35427 0.0447235 0C0.585167 0.160583 1.16885 0.254261 1.71546 0.163673L1.7937 0.343822Z" fill="rgb(255,255,255)" fill-rule="nonzero" transform="matrix(0.669131,-0.743145,0.743145,0.669131,55.9502,36.5583)" />
				</g>
				<g style="mix-blend-mode:normal">
					<path id="Path 26722" transform="matrix(0.669131,-0.743145,0.743145,0.669131,38.4043,40.8723)" />
				</g>
				<g style="mix-blend-mode:normal">
					<path id="Path 26723" d="M24.1275 9.24416C23.867 9.62093 23.376 9.39549 23.0589 9.66211C23.0198 9.68373 23.0363 9.49019 22.9509 9.54887C22.6523 9.8577 22.0748 9.81343 21.626 9.6899C21.5405 9.66622 21.485 9.78975 21.3964 9.78049C21.3892 9.88034 21.2431 9.75579 21.2173 9.83299C21.1782 9.80005 21.171 9.72181 21.1226 9.68578L21.0886 9.80314C20.9857 10.0831 20.7561 9.82887 20.5863 9.98329C20.3052 10.1778 19.9285 10.1068 19.595 10.184C19.6063 10.1439 19.6145 10.0718 19.5929 10.0276C19.5826 10.1459 19.4797 10.1809 19.3891 10.2077C19.3438 10.0903 19.2377 10.323 19.1286 10.2602C19.0525 10.3889 19.0185 10.1634 18.9577 10.3148C18.9258 10.4846 18.791 10.1295 18.7272 10.2149C18.6654 10.2551 18.6355 10.2046 18.5789 10.2334C18.4451 10.2767 18.3627 10.1603 18.3648 10.2931C18.3195 10.1861 18.4945 10.2468 18.4225 10.0903C17.986 10.2098 17.5299 10.2159 17.0924 10.1593C17.0461 10.1017 17.0163 10.0821 17.0091 10.0317C16.9627 10.0543 16.8423 10.0399 16.797 10.1037C16.7229 10.0461 16.6519 10.1614 16.5695 10.0945C16.6076 10.0625 16.6241 10.0203 16.6168 9.9699C16.5324 10.0667 16.4336 10.0399 16.342 10.0656C16.2329 10.1737 16.2102 9.95034 16.1166 10.0162C15.993 9.9102 16.097 10.0986 15.9858 10.0327C16.0177 10.0111 16.1073 10.0471 16.1166 10.0162C15.9879 10.1511 15.7233 9.99564 15.607 10.0265C15.4855 10.0234 15.3785 9.9277 15.2385 9.96373C15.1963 9.92152 15.2858 9.78152 15.1571 9.78769C15.1335 9.94005 14.9327 9.81137 14.9739 9.99667C14.871 9.9524 14.7135 9.8649 14.6311 9.903C14.6908 9.85461 14.6177 9.70946 14.7093 9.71358L14.662 9.60961C14.6177 9.60754 14.5343 9.59726 14.5014 9.56226C14.4005 9.63431 14.2862 9.78666 14.1493 9.7702C14.2255 9.72799 14.1545 9.5952 14.2029 9.58078L13.9486 9.81961C13.9424 9.86079 13.8549 9.77843 13.8271 9.80519C13.8148 9.78461 13.6336 9.79387 13.6542 9.64255C13.5729 9.62299 13.6007 9.5952 13.5193 9.57564C13.472 9.53961 13.3485 9.57564 13.3835 9.6724C13.4195 9.68681 13.4761 9.51902 13.5193 9.57564C13.4576 9.65079 13.2733 9.71152 13.1909 9.69093C13.0468 9.77637 12.9861 9.68888 12.8512 9.69093C12.7298 9.54166 12.5805 9.64769 12.4992 9.46343C12.4282 9.42946 12.4487 9.41299 12.388 9.43255C12.4024 9.37284 12.3201 9.43048 12.2645 9.43048C12.2243 9.46343 12.3427 9.42329 12.388 9.43255C12.3026 9.45726 11.9093 9.42225 11.7806 9.28225C11.7704 9.32034 11.6283 9.38829 11.5933 9.36769C11.5809 9.30078 11.5192 9.24108 11.5439 9.16284C11.4234 9.24108 11.9165 9.24313 11.7806 9.28225C11.7806 9.20196 11.4739 9.27401 11.5439 9.16284C11.4718 9.13504 11.4255 9.2452 11.3905 9.13299C11.4039 9.15666 11.4976 9.03622 11.4379 9.01769C11.3298 8.9899 11.4852 9.13916 11.3905 9.13299L11.2299 9.05372C11.2474 8.97858 10.9736 9.09284 11.0446 8.95695L11.1074 8.85196C11.0601 8.84063 10.9839 8.9374 10.9283 8.97137C10.8459 9.13711 10.8356 8.85402 10.7245 8.9621C10.6586 8.86225 10.4908 8.85402 10.4959 8.72945C10.4002 8.75107 10.3065 8.78093 10.2468 8.70372C10.2684 8.68416 10.147 8.48651 10.1223 8.40004C10.0296 8.41445 10.008 8.51534 9.97402 8.56578C9.99358 8.37122 9.72696 8.57093 9.72387 8.38254C9.75887 8.37225 9.86491 8.35475 9.82888 8.28475C9.85049 8.09121 9.64049 8.33931 9.58181 8.20857L9.53447 8.35578C9.53447 8.24974 9.34402 8.35578 9.4274 8.22607C9.36769 8.25592 9.33269 8.11901 9.27299 8.25489C9.1649 8.06445 8.83857 8.09636 8.87254 7.80916C8.83754 7.81739 8.79328 7.76077 8.76652 7.83386C8.76343 7.92754 8.88696 7.75151 8.87254 7.80916C8.8499 7.79989 8.77887 7.81842 8.76652 7.83386C8.73357 7.77518 8.76343 7.88739 8.87254 7.80916C8.80872 7.66504 8.5771 7.89048 8.4649 7.75563L8.32593 7.70724C8.24666 7.6321 8.34652 7.55798 8.39799 7.46842C8.34034 7.45401 8.28372 7.41489 8.22093 7.46739L8.23122 7.32224C8.22504 7.42724 8.15813 7.35107 8.1221 7.35827L8.23122 7.32224C8.24666 7.27901 8.1571 7.36445 8.1221 7.35827C8.07269 7.38195 8.02224 7.43136 7.96048 7.4571C8.02636 7.37886 7.92034 7.34901 7.88946 7.31401C7.8596 7.26562 7.79269 7.35724 7.78136 7.34592C7.80915 7.30062 7.81534 7.35312 7.88946 7.31401C7.88225 7.26151 7.89151 7.16783 7.79681 7.1843C7.72475 7.19768 7.69901 7.36033 7.6496 7.25018C7.68563 7.24401 7.75975 7.20385 7.79681 7.1843L7.6496 7.25018C7.65166 7.22342 7.65989 7.14312 7.66195 7.12974C7.58475 7.19562 7.52607 7.07415 7.44783 7.15342C7.40254 7.13488 7.39945 7.04327 7.36754 7.0093C7.3521 6.93313 7.28313 6.91974 7.209 6.94445C7.18841 6.9218 7.13386 6.87856 7.07107 6.90224C7.04739 6.80136 7.24916 6.60062 7.11224 6.649C7.04739 6.60783 6.91459 6.71901 6.90636 6.78489C6.82504 6.65724 6.60783 6.68709 6.5893 6.4915C6.44725 6.34018 6.089 6.35665 6.06636 6.1137C6.13738 6.11782 6.12606 6.04165 6.15694 5.99944C6.11061 6.06841 6.04062 6.05194 6.06636 6.1137C5.94077 6.07665 5.73694 6.00871 5.73077 5.90577C5.82032 5.80488 5.68856 5.79665 5.60723 5.79047C5.57121 5.79459 5.43841 5.86974 5.43429 5.76576C5.33855 5.77297 5.22944 5.71841 5.21297 5.61547L5.2387 5.48473C5.20473 5.47341 5.1893 5.55268 5.21297 5.61547C5.15635 5.47753 5.02459 5.35914 5.05753 5.25311C4.72709 5.30355 4.45841 5.10899 4.2762 4.92061C4.33075 4.89076 4.25664 4.74149 4.34414 4.72296C4.31017 4.6087 4.1784 4.71885 4.11149 4.6962C4.08473 4.70958 4.04458 4.62208 3.95296 4.7034C3.96532 4.65091 4.0384 4.59738 4.08061 4.56855C4.11664 4.41311 4.28958 4.49443 4.34414 4.3112C4.38738 4.18046 4.49444 4.27723 4.41723 4.15266C4.33282 4.15781 4.17738 4.25561 4.18355 4.33179C4.0662 4.27311 3.9509 4.50987 3.85311 4.41208C3.87164 4.33385 3.94781 4.47179 3.99311 4.37914C4.00855 4.26384 3.85929 4.33591 3.83767 4.27208C3.8562 4.34723 3.73473 4.40385 3.68943 4.39355C3.67399 4.30399 3.79855 4.33796 3.73267 4.26281C3.67399 4.30502 3.66163 4.30502 3.68943 4.39355C3.55767 4.48826 3.5484 4.27105 3.4259 4.32767C3.47531 4.2237 3.67399 4.20208 3.6287 4.08884C3.57105 4.18046 3.48767 4.17119 3.4259 4.32767C3.41458 4.27619 3.40943 4.14958 3.47634 4.12075C3.47428 4.03222 3.23649 4.16708 3.36311 3.99517C3.32502 3.95708 3.07178 3.91281 3.18708 3.7934C3.16237 3.79443 3.07693 3.7059 3.03472 3.82325C3.04399 3.9262 3.15619 3.82017 3.0831 3.96325C3.1284 3.83355 2.99149 3.90149 2.93075 3.90252L3.03472 3.82325C2.99869 3.82428 2.98943 3.86237 2.93075 3.90252C2.96987 3.88914 2.89884 3.78722 2.89472 3.76149C2.78355 3.72443 2.90501 3.6709 2.80928 3.62252L2.9184 3.62046C2.89472 3.62046 2.93075 3.52884 2.8731 3.51752C2.7959 3.56693 2.70119 3.6256 2.64148 3.66369L2.80928 3.62252C2.8381 3.60811 2.77634 3.43001 2.71663 3.37958C2.65899 3.36928 2.51487 3.41046 2.53957 3.49899C2.50972 3.47325 2.50663 3.39605 2.57251 3.37031C2.48707 3.33325 2.51693 3.44854 2.42222 3.43722C2.43972 3.37237 2.4253 3.24472 2.44075 3.14178L2.60134 3.08722C2.7331 3.04604 2.59928 2.9606 2.71458 2.89472C2.70016 2.85663 2.63943 2.85766 2.59207 2.85766C2.53134 3.07693 2.31824 2.97707 2.21531 3.13149C2.0753 3.06766 2.45619 2.74339 2.14943 2.84839C2.13398 2.89987 1.98677 2.95237 2.08972 2.97707C2.03825 2.89987 1.91883 3.06869 1.8931 2.94001C2.00222 2.93898 1.96001 2.74648 2.11751 2.74545C2.07016 2.78457 2.12575 2.84942 2.14943 2.84839C2.17104 2.77221 2.28839 2.69398 2.22251 2.63016C2.17001 2.60442 2.11133 2.55398 2.05369 2.63119C1.98266 2.70839 2.21634 2.69295 2.11751 2.74545C2.01045 2.69398 2.01457 2.55398 1.85192 2.65693C1.91369 2.69501 1.85192 2.78663 1.80148 2.83707C1.73972 2.70942 1.65531 2.83707 1.57603 2.73516L1.62751 2.59413C1.73148 2.52928 1.73456 2.81237 1.85192 2.65693C1.79736 2.59413 1.65016 2.68472 1.62751 2.59413C1.65221 2.59413 1.72221 2.51692 1.74692 2.51589C1.72942 2.49119 1.88589 2.2853 1.69648 2.31207C1.61104 2.31207 1.63677 2.35118 1.58633 2.40163C1.47412 2.32545 1.39383 2.35016 1.32383 2.29972C1.43398 2.21119 1.22398 2.18339 1.3928 2.14633C1.36604 2.23589 1.56884 2.37692 1.69648 2.31207C1.77678 2.15868 1.69854 2.38927 1.83648 2.28633C1.76236 2.20913 1.87971 2.09486 1.94354 2.00427C1.86325 2.06913 1.79942 2.08148 1.72839 2.15869C1.66148 2.05677 1.53795 2.01869 1.42368 2.04339C1.42986 1.97957 1.50912 1.91574 1.54927 1.94148C1.4278 1.86427 1.32898 1.74795 1.25486 1.63265C1.20133 1.81177 1.12001 1.55545 1.06647 1.69545C1.09221 1.77266 1.05412 1.9003 0.973827 1.92501C0.868824 1.94971 1.07368 1.66971 0.933681 1.73251C1.06339 1.78501 1.09324 1.60589 1.2003 1.52971C1.08295 1.51633 1.26824 1.46589 1.20236 1.40207C1.08604 1.38868 0.964565 1.34956 0.870888 1.29706C0.864712 1.11794 0.637211 1.06647 0.551769 0.988237C0.554859 0.898678 0.686623 0.82353 0.658829 0.758678C0.602207 0.706177 0.587799 0.912062 0.553825 0.783384L0.658829 0.758678C0.609421 0.758678 0.504417 0.551765 0.33147 0.678383L0.468384 0.589853C0.50441 0.552795 0.450886 0.487942 0.499271 0.487942C0.526035 0.361324 0.381912 0.396324 0.324265 0.345882L0.293385 0.447796C0.148239 0.407646 0.151325 0.280001 0.0380898 0.214117C0.114265 0.164703 0.0813255 -0.00205994 0 0.022646L0.298534 0C0.298534 0.0772038 0.0772057 0.125586 0.0380898 0.214117C0.00308609 0.291321 0.203823 0.267645 0.280003 0.217203C0.360294 0.11632 0.316029 0.141029 0.399418 0.10397C0.378826 0.0916157 0.330448 -0.0247059 0.298534 0C0.37471 -0.0113239 0.467354 0.0792637 0.523972 0.130733C0.607349 0.0545578 0.609413 0.169851 0.654713 0.259411C0.610443 0.400442 0.840004 0.325296 0.892506 0.429266C0.781326 0.478676 0.579571 0.501324 0.499271 0.487942C0.507507 0.576471 0.652649 0.540442 0.661919 0.631029C0.745296 0.593971 0.853386 0.517794 0.954269 0.544559C1.04177 0.571323 1.07471 0.545589 1.13236 0.635147C1.23015 0.788532 1.36192 0.917208 1.45045 1.02015C1.6306 0.945004 1.62236 1.21162 1.75104 1.22603C1.81795 1.40515 2.07428 1.43192 2.03825 1.59662C2.30384 1.76133 2.5406 1.89927 2.74751 2.13913L2.62501 2.19163C2.72692 2.16486 2.60237 2.26781 2.6559 2.29354C2.67648 2.17824 2.79795 2.25442 2.87825 2.22663C2.91428 2.39339 3.11605 2.4428 3.26737 2.46236C3.4681 2.43148 3.42899 2.69913 3.52678 2.82472C3.51649 2.86281 3.48458 2.94001 3.52472 2.96472C3.67914 2.92148 3.7059 2.95854 3.85517 2.97913C3.92208 3.0409 4.00752 3.16545 4.04046 3.26737C4.42134 3.35281 4.60458 3.66987 4.94635 3.81605C5.33959 3.88502 5.49812 4.38531 5.79356 4.4862L5.66488 4.59943C5.70297 4.69826 5.85532 4.6962 5.91195 4.58811C5.95106 4.68693 6.14048 4.66841 6.0993 4.81458C6.1518 4.89796 6.23621 4.82488 6.31136 4.85679C6.41842 5.02253 6.48533 5.05032 6.64386 5.13164C6.72518 5.1337 6.72724 5.38694 6.79724 5.1862C6.87753 5.39311 7.20284 5.37253 7.25636 5.60826C7.38709 5.70812 7.56931 5.83782 7.72989 5.83576C8.00681 5.89959 8.17975 6.264 8.3949 6.37827C8.81181 6.52238 9.17108 6.78695 9.52932 6.98562C9.72078 6.92488 9.70843 7.3171 9.91843 7.16165C9.92873 7.21004 10.0193 7.23474 9.96064 7.29239C10.1089 7.24607 10.184 7.52504 10.3889 7.47357C10.4898 7.62695 10.6236 7.58371 10.7379 7.734C10.7626 7.83386 10.8696 7.6918 10.8192 7.88019C11.1249 8.09637 11.5809 8.05724 11.9464 8.16739C12.1543 8.38254 11.8383 8.48651 12.0956 8.42475C12.1945 8.40107 12.1687 8.64505 12.2604 8.56887C12.2789 8.44843 12.3201 8.51842 12.3468 8.45048C12.4786 8.57916 12.4755 8.69239 12.6309 8.65019C12.8358 8.53386 12.9459 8.73975 13.1323 8.5874C13.9568 8.80048 14.767 8.89416 15.5792 8.99401C15.9724 9.09902 16.376 9.11652 16.7774 9.14843C17.1758 9.18961 17.567 9.23078 17.9942 9.27608C18.1847 9.44387 18.2021 9.43975 18.4173 9.3749C18.4286 9.23902 18.5604 9.42225 18.581 9.29358C18.8877 9.32446 19.1739 9.2874 19.4848 9.26784C19.4364 9.28534 19.4158 9.39755 19.4745 9.3852L19.4848 9.26784C20.2517 9.10725 21.1525 9.21122 21.9317 9.04446C22.1263 9.07019 22.3816 8.97137 22.5782 8.90651C23.2092 8.97343 23.7847 9.00225 24.3745 8.75107C24.3745 8.75107 24.3653 9.1124 24.1275 9.24416Z" fill="rgb(238,76,60)" fill-rule="nonzero" transform="matrix(0.669131,-0.743145,0.743145,0.669131,38.6934,41.0845)" />
				</g>
				<g style="mix-blend-mode:normal">
					<path id="Path 26724" d="M0.112206 0C0.0792656 0.0638237 0.105003 0.141029 0 0.165735C0.0401497 0.114264 0.0638237 0.0380878 0.112206 0Z" fill="rgb(238,76,60)" fill-rule="nonzero" transform="matrix(0.669131,-0.743145,0.743145,0.669131,38.5322,40.8975)" />
				</g>
				<g style="mix-blend-mode:normal">
					<path id="Path 26725" transform="matrix(0.669131,-0.743145,0.743145,0.669131,40.5205,41.4502)" />
				</g>
				<g style="mix-blend-mode:normal">
					<path id="Path 26726" d="M0.205887 0.0401478C0.158535 0.0782375 0.0494156 0.0391178 0 0L0.205887 0.0401478Z" fill="rgb(238,76,60)" fill-rule="nonzero" transform="matrix(0.669131,-0.743145,0.743145,0.669131,40.8965,41.5361)" />
				</g>
				<g style="mix-blend-mode:normal">
					<path id="Path 26727" transform="matrix(0.669131,-0.743145,0.743145,0.669131,41.4932,41.679)" />
				</g>
				<g style="mix-blend-mode:normal">
					<path id="Path 26728" d="M0.027401 0C0.0562248 0.0257378 0.0449028 0.0638237 0.0346107 0.101913C0.0696068 0.0638237 -0.0518608 0.0648537 0.027401 0Z" fill="rgb(238,76,60)" fill-rule="nonzero" transform="matrix(0.669131,-0.743145,0.743145,0.669131,41.5449,41.5061)" />
				</g>
				<g style="mix-blend-mode:normal">
					<path id="Path 26729" transform="matrix(0.669131,-0.743145,0.743145,0.669131,42.5625,41.6011)" />
				</g>
				<g style="mix-blend-mode:normal">
					<path id="Path 26730" transform="matrix(0.669131,-0.743145,0.743145,0.669131,43.0059,41.4824)" />
				</g>
				<g style="mix-blend-mode:normal">
					<path id="Path 26731" transform="matrix(0.669131,-0.743145,0.743145,0.669131,51.2715,39.533)" />
				</g>
				<g style="mix-blend-mode:normal">
					<path id="Path 26732" transform="matrix(0.669131,-0.743145,0.743145,0.669131,54.7412,37.8921)" />
				</g>
				<g style="mix-blend-mode:normal">
					<path id="Path 26733" d="M0.0154495 0.122498L0.0278015 0L0.0154495 0.122498Z" fill="rgb(238,76,60)" fill-rule="nonzero" transform="matrix(0.669131,-0.743145,0.743145,0.669131,56.1299,36.4229)" />
				</g>
			</g>
		</g>
	</g>
</svg>
