<svg width="1287.011719" height="117.006744" viewBox="0 0 1287.01 117.007" fill="none" xmlns="http://www.w3.org/2000/svg" xmlns:xlink="http://www.w3.org/1999/xlink">
	<desc>
			Created with Pixso.
	</desc>
	<defs/>
	<g style="mix-blend-mode:normal">
		<mask id="mask_45_65" fill="white">
			<path id="icon-wave-pink-package" d="M1287.01 117.007L0 117.007L0 58.6052L4.3457 58.0117C43.9678 52.6005 80.3066 46.417 114.648 40.573C187.85 28.1165 251.983 17.203 319.529 18.6016C418.769 20.6563 500.333 30.0222 545.5 40.0066C590.665 49.991 680.317 59.7755 728.5 53.0066C776.685 46.2377 877.771 13.2305 969.706 6.36331C981.44 5.48676 992.01 4.63351 1001.7 3.85132C1067.91 -1.49454 1093.02 -3.52167 1168.29 13.0157C1199.86 19.9515 1226.79 23.4185 1248.23 26.1784C1264.41 28.2613 1277.46 29.9414 1287.01 32.4059L1287.01 117.007Z" clip-rule="evenodd" fill="" fill-opacity="1.000000" fill-rule="evenodd"/>
		</mask>
		<path id="icon-wave-pink-package" d="M1287.01 117.007L0 117.007L0 58.6052L4.3457 58.0117C43.9678 52.6005 80.3066 46.417 114.648 40.573C187.85 28.1165 251.983 17.203 319.529 18.6016C418.769 20.6563 500.333 30.0222 545.5 40.0066C590.665 49.991 680.317 59.7755 728.5 53.0066C776.685 46.2377 877.771 13.2305 969.706 6.36331C981.44 5.48676 992.01 4.63351 1001.7 3.85132C1067.91 -1.49454 1093.02 -3.52167 1168.29 13.0157C1199.86 19.9515 1226.79 23.4185 1248.23 26.1784C1264.41 28.2613 1277.46 29.9414 1287.01 32.4059L1287.01 117.007Z" clip-rule="evenodd" fill="#EC108F" fill-opacity="1.000000" fill-rule="evenodd" mask="url(#mask_45_65)"/>
		<path id="icon-wave-pink-package" d="" fill="#707070" fill-opacity="0.000000" fill-rule="nonzero"/>
	</g>
</svg>
