<svg viewBox="0 0 91 103" xmlns="http://www.w3.org/2000/svg" xmlns:xlink="http://www.w3.org/1999/xlink" width="91.000000" height="103.000000" fill="none" customFrame="#000000">
	<mask id="mask_3" width="87.178391" height="82.511185" x="0.000000" y="0.000000" maskUnits="objectBoundingBox">
		<g filter="url(#pixso_custom_mask_type_outline)">
			<g>
				<rect id="Rectangle 3534" width="87.178391" height="82.511185" x="0.000000" y="0.000000" fill="rgb(255,255,255)" transform="matrix(-0.601815,0.798636,-0.798636,-0.601815,101.564,36.543)" />
			</g>
		</g>
	</mask>
	<defs>
		<filter id="pixso_custom_mask_type_alpha">
			<feColorMatrix type="matrix" values="0 0 0 0 1 0 0 0 0 1 0 0 0 0 1 0 0 0 1 0 " />
		</filter>
		<filter id="pixso_custom_mask_type_outline">
			<feColorMatrix type="matrix" values="0 0 0 0 1 0 0 0 0 1 0 0 0 0 1 0 0 0 1 0 " />
		</filter>
	</defs>
	<mask id="mask_2" width="91.000000" height="103.000000" x="0.000000" y="0.000000" maskUnits="userSpaceOnUse">
		<g filter="url(#pixso_custom_mask_type_alpha)">
			<rect id="Rectangle 4210" width="91.000000" height="103.000000" x="0.000000" y="0.000000" fill="rgb(196,196,196)" />
		</g>
	</mask>
	<g id="icon-halloween-sprit" mask="url(#mask_2)">
		<g id="Group 4813">
			<g id="Group 4347" mask="url(#mask_3)">
				<g style="mix-blend-mode:normal">
					<path id="Path 26679" d="M33.108 65.8523C34.0462 66.7901 37.3818 65.0528 40.5438 61.9605C43.7059 58.8677 45.4955 55.6014 44.5399 54.6632C43.6017 53.7081 40.2661 55.4454 37.1041 58.5377C33.942 61.63 32.1524 64.8962 33.108 65.8523ZM59.9155 66.13C68.8279 91.8603 84.7245 49.0345 86.6707 45.9941C89.5197 41.5808 77.5668 53.1343 83.8217 42.5888C89.3811 33.2247 83.0569 36.8554 78.5225 45.8032C75.7777 51.206 73.6754 43.2662 80.6596 35.5353C84.4991 31.279 77.7752 31.4873 75.4995 36.0911C73.0673 41.0598 75.4476 29.6628 74.0922 29.6802C71.1564 29.7326 68.5851 31.609 66.778 34.2496C67.6644 26.6921 68.6888 19.4473 71.1385 13.5404C73.5712 7.70277 87.7998 6.31292 87.1572 6.00035C62.765 -5.93555 40.0578 1.23955 23.8656 16.0768C24.5256 13.4187 24.1956 10.6046 22.4408 8.60655C21.6766 7.75462 16.6207 15.0518 18.0455 11.0034C19.3655 7.25064 15.6825 2.95991 15.4567 7.52927C15.0399 15.7986 9.39329 18.5439 10.8873 14.0788C13.3719 6.71271 11.843 0.927445 9.70587 9.16193C7.29107 18.4223 7.06524 5.09655 6.17937 9.12704C5.58864 11.7851 -8.48386 41.3205 7.91669 36.6819C7.65598 37.1684 7.39526 37.6545 7.15199 38.1585C-9.40508 70.6122 21.5899 87.1344 41.4651 81.384C50.8466 78.6562 56.4234 73.1142 59.9155 66.13ZM35.3319 44.187C38.0423 44.187 42.2118 40.2258 44.6615 35.3264C47.1112 30.4445 46.9028 26.4663 44.1924 26.4663C41.482 26.4663 37.295 30.4445 34.8458 35.3264C32.4131 40.2258 32.6219 44.187 35.3319 44.187ZM17.6806 56.2445C16.7075 55.897 17.0205 52.561 18.358 48.7912C19.713 45.021 21.5899 42.2587 22.545 42.5887C23.5181 42.9362 23.2055 46.2718 21.8676 50.042C20.5121 53.8123 18.6536 56.5745 17.6806 56.2445Z" fill="rgb(255,255,255)" fill-rule="evenodd" transform="matrix(-0.601815,0.798635,-0.798635,-0.601815,101.564,36.543)" />
				</g>
			</g>
		</g>
	</g>
</svg>
