<svg width="195.103271" height="213.600342" viewBox="0 0 195.103 213.6" fill="none" xmlns="http://www.w3.org/2000/svg" xmlns:xlink="http://www.w3.org/1999/xlink">
	<desc>
			Created with Pixso.
	</desc>
	<defs/>
	<mask id="mask1_43135" mask-type="alpha" maskUnits="userSpaceOnUse" x="0.000000" y="0.000000" width="195.103271" height="213.600342">
		<g style="mix-blend-mode:normal">
			<rect id="Rectangle 4154" x="51.920654" width="149.725006" height="177.584351" transform="rotate(17 51.920654 0.000000)" fill="#C4C4C4" fill-opacity="1.000000"/>
		</g>
	</mask>
	<g mask="url(#mask1_43135)">
		<g style="mix-blend-mode:normal">
			<path id="Path 42109" d="M12.64 154.31C13.43 154.09 13.85 153.52 14.17 152.85C14.5 152.18 14.73 151.42 15.08 150.84C15.24 150.73 15.49 150.96 15.77 151.17C16.81 151.94 18.22 152.25 19.36 152.05C20.52 151.85 21.33 151.1 21.32 149.67C21.11 148.4 19.85 147.63 18.9 146.81C18.38 146.36 17.84 145.92 18.18 145.28L18.49 144.56L18.56 144.38L18.71 144.1C18.86 143.83 19 143.55 19.17 143.28C19.81 142.21 20.46 141.14 21.17 140.1C21.85 139.04 22.61 138.03 23.35 137.01C24.14 136.02 24.9 135 25.73 134.04C27.36 132.09 29.1 130.24 30.9 128.46C32.68 126.66 34.57 124.98 36.47 123.34C36.81 123.01 37.13 122.68 37.45 122.34C37.9 121.88 37.41 121.47 37.11 121.04C36.91 120.77 36.7 120.49 36.49 120.2C36.08 119.69 35.67 119.12 35.25 118.73C35.08 118.6 34.9 118.59 34.68 118.7C34.29 118.95 33.89 119.22 33.49 119.49C29.1 122.75 25.11 126.59 21.61 130.8C19.85 132.91 18.21 135.09 16.71 137.37C15.93 138.49 15.24 139.66 14.53 140.81L14.27 141.25L14.15 141.47L14.1 141.56L13.9 141.94L13.52 142.69C13.39 142.82 13.22 142.88 13.02 142.88C11.08 142.61 8.3 143.92 7.41 145.73C6.05 148.54 8.95 149 10.79 148.61C11.15 148.53 10.99 148.66 10.88 148.83C10.52 149.34 10.24 149.98 10.09 150.63C9.95 151.28 9.94 151.96 10.06 152.55C10.31 153.73 11.1 154.55 12.52 154.34L12.64 154.31Z" fill="#000307" fill-opacity="1.000000" fill-rule="nonzero"/>
		</g>
	</g>
	<g mask="url(#mask1_43135)">
		<g style="mix-blend-mode:normal">
			<path id="Path 42110" d="M101.46 200.41L26.21 177.41C21.2 175.87 18.38 170.57 19.91 165.56L63.89 21.72C65.42 16.71 70.72 13.89 75.73 15.42L150.98 38.43C155.99 39.96 158.81 45.26 157.28 50.27L113.3 194.12C111.77 199.12 106.46 201.94 101.46 200.41Z" fill="#FFCD5F" fill-opacity="1.000000" fill-rule="nonzero"/>
		</g>
	</g>
	<g mask="url(#mask1_43135)">
		<g style="mix-blend-mode:normal">
			<path id="Path 42111" d="M101.59 200.45L28.77 178.19C23.84 176.68 21.06 171.46 22.57 166.52L66.63 22.41C68.14 17.48 73.36 14.7 78.3 16.21L151.11 38.47C156.05 39.98 158.83 45.2 157.32 50.14L113.26 194.25C111.75 199.18 106.52 201.96 101.59 200.45Z" fill="#FFB30B" fill-opacity="1.000000" fill-rule="nonzero"/>
		</g>
	</g>
	<g mask="url(#mask1_43135)">
		<g style="mix-blend-mode:normal">
			<path id="Path 42112" d="M98.31 199.45L28.6 178.14C23.76 176.66 21.04 171.53 22.52 166.69L66.68 22.24C68.16 17.4 73.29 14.67 78.13 16.15L147.83 37.46C152.67 38.94 155.4 44.07 153.92 48.91L109.75 193.37C108.27 198.21 103.15 200.93 98.31 199.45Z" fill="#FEC22C" fill-opacity="1.000000" fill-rule="nonzero"/>
		</g>
	</g>
	<g mask="url(#mask1_43135)">
		<g style="mix-blend-mode:normal">
			<rect id="Rectangle 4151" x="57.725830" y="41.885742" width="97.656929" height="37.313488" transform="rotate(17 57.725830 41.885742)" fill="#FF9988" fill-opacity="1.000000"/>
		</g>
	</g>
	<g mask="url(#mask1_43135)">
		<g style="mix-blend-mode:normal">
			<rect id="Rectangle 4152" x="60.429932" y="42.712646" width="94.829147" height="37.313488" transform="rotate(17 60.429932 42.712646)" fill="#E02B2B" fill-opacity="1.000000"/>
		</g>
	</g>
	<g mask="url(#mask1_43135)">
		<g style="mix-blend-mode:normal">
			<rect id="Rectangle 4153" x="60.429199" y="42.712158" width="91.222092" height="37.313488" transform="rotate(17 60.429199 42.712158)" fill="#EF4343" fill-opacity="1.000000"/>
		</g>
	</g>
	<g mask="url(#mask1_43135)">
		<g style="mix-blend-mode:normal">
			<path id="Path 42113" d="M125.32 154.78L76.78 192.87L101.46 200.41C106.46 201.94 111.77 199.12 113.3 194.12L125.32 154.78Z" fill="#E02B2B" fill-opacity="1.000000" fill-rule="nonzero"/>
		</g>
	</g>
	<g mask="url(#mask1_43135)">
		<g style="mix-blend-mode:normal">
			<path id="Path 42114" d="M120.36 158.68L76.78 192.87L98.93 199.64C103.43 201.02 108.32 198.07 109.85 193.06L120.36 158.68Z" fill="#EF4343" fill-opacity="1.000000" fill-rule="nonzero"/>
		</g>
	</g>
	<g mask="url(#mask1_43135)">
		<g style="mix-blend-mode:normal">
			<path id="Path 42115" d="M61.18 64.59L64.64 65.41C64.55 65.99 64.57 66.45 64.71 66.81C64.93 67.39 65.39 67.79 66.07 67.99C66.58 68.15 67.01 68.15 67.36 68C67.71 67.84 67.93 67.61 68.03 67.29C68.12 66.99 68.07 66.68 67.88 66.37C67.69 66.05 67.15 65.64 66.25 65.14C64.79 64.31 63.82 63.5 63.33 62.71C62.84 61.92 62.73 61.07 63 60.17C63.18 59.57 63.53 59.06 64.04 58.64C64.54 58.22 65.19 57.96 65.97 57.87C66.75 57.78 67.75 57.92 68.95 58.29C70.43 58.74 71.47 59.36 72.08 60.14C72.69 60.93 72.88 61.95 72.66 63.19L69.23 62.36C69.3 61.81 69.23 61.37 69.02 61.05C68.8 60.72 68.44 60.48 67.94 60.33C67.52 60.2 67.18 60.2 66.92 60.31C66.65 60.42 66.49 60.6 66.41 60.85C66.35 61.04 66.39 61.23 66.51 61.43C66.64 61.63 66.99 61.9 67.58 62.22C69.04 63.04 70.06 63.72 70.63 64.27C71.2 64.82 71.56 65.4 71.71 66C71.86 66.61 71.84 67.22 71.65 67.86C71.42 68.6 71.01 69.22 70.41 69.72C69.81 70.22 69.09 70.52 68.25 70.62C67.42 70.72 66.44 70.59 65.32 70.25C63.35 69.65 62.11 68.85 61.58 67.86C61.06 66.88 60.92 65.78 61.18 64.59Z" fill="#1E222D" fill-opacity="1.000000" fill-rule="nonzero"/>
		</g>
	</g>
	<g mask="url(#mask1_43135)">
		<g style="mix-blend-mode:normal">
			<path id="Path 42116" d="M81.44 69.79L84.28 71.69C83.81 72.51 83.25 73.14 82.62 73.59C81.99 74.04 81.29 74.31 80.53 74.41C79.76 74.5 78.86 74.39 77.83 74.07C76.57 73.69 75.6 73.19 74.92 72.59C74.23 71.98 73.74 71.12 73.44 70.03C73.15 68.93 73.22 67.67 73.65 66.23C74.24 64.32 75.2 63 76.53 62.29C77.86 61.57 79.46 61.5 81.32 62.07C82.78 62.51 83.83 63.16 84.48 64C85.14 64.84 85.48 65.94 85.51 67.28L82.14 67.02C82.14 66.63 82.1 66.34 82.03 66.14C81.91 65.81 81.73 65.52 81.49 65.29C81.25 65.05 80.95 64.88 80.59 64.77C79.78 64.52 79.06 64.66 78.43 65.18C77.95 65.56 77.56 66.27 77.24 67.3C76.85 68.58 76.78 69.52 77.02 70.12C77.26 70.71 77.74 71.11 78.44 71.33C79.13 71.54 79.7 71.51 80.17 71.23C80.64 70.95 81.06 70.47 81.44 69.79Z" fill="#1E222D" fill-opacity="1.000000" fill-rule="nonzero"/>
		</g>
	</g>
	<g mask="url(#mask1_43135)">
		<g style="mix-blend-mode:normal">
			<path id="Path 42117" d="M88.41 64.45L91.99 65.54L90.75 69.59L94.65 70.78L95.89 66.74L99.48 67.83L95.94 79.4L92.35 78.3L93.78 73.62L89.88 72.43L88.45 77.11L84.88 76.01L88.41 64.45Z" fill="#1E222D" fill-opacity="1.000000" fill-rule="nonzero"/>
		</g>
	</g>
	<g mask="url(#mask1_43135)">
		<g style="mix-blend-mode:normal">
			<path id="Path 42118" d="M99.63 74.21C100.21 72.33 101.19 71.02 102.56 70.29C103.93 69.56 105.56 69.48 107.44 70.05C109.36 70.64 110.68 71.61 111.41 72.96C112.13 74.31 112.21 75.92 111.64 77.78C111.23 79.13 110.66 80.17 109.94 80.9C109.23 81.62 108.36 82.09 107.36 82.31C106.35 82.53 105.2 82.44 103.92 82.05C102.62 81.65 101.6 81.12 100.87 80.44C100.15 79.76 99.65 78.89 99.4 77.83C99.14 76.77 99.22 75.56 99.63 74.21ZM103.2 75.32C102.85 76.49 102.81 77.39 103.08 78.04C103.36 78.68 103.87 79.11 104.62 79.34C105.39 79.58 106.06 79.51 106.63 79.14C107.2 78.77 107.69 77.93 108.08 76.64C108.42 75.55 108.44 74.69 108.16 74.05C107.87 73.42 107.35 72.99 106.6 72.76C105.88 72.53 105.22 72.61 104.63 72.99C104.04 73.37 103.56 74.14 103.2 75.32Z" fill="#1E222D" fill-opacity="1.000000" fill-rule="nonzero"/>
		</g>
	</g>
	<g mask="url(#mask1_43135)">
		<g style="mix-blend-mode:normal">
			<path id="Path 42119" d="M113.09 78.33C113.67 76.44 114.64 75.13 116.02 74.4C117.39 73.67 119.01 73.59 120.89 74.16C122.82 74.75 124.14 75.72 124.87 77.07C125.59 78.43 125.67 80.03 125.1 81.89C124.69 83.25 124.12 84.28 123.4 85.01C122.68 85.74 121.82 86.21 120.81 86.43C119.81 86.65 118.66 86.56 117.38 86.17C116.07 85.77 115.06 85.23 114.33 84.55C113.6 83.88 113.11 83.01 112.85 81.95C112.6 80.88 112.68 79.68 113.09 78.33ZM116.66 79.43C116.3 80.6 116.26 81.51 116.54 82.15C116.82 82.79 117.33 83.23 118.08 83.46C118.84 83.69 119.51 83.62 120.09 83.25C120.66 82.88 121.14 82.05 121.54 80.76C121.87 79.67 121.9 78.8 121.61 78.17C121.33 77.53 120.81 77.1 120.06 76.87C119.33 76.65 118.68 76.73 118.09 77.1C117.49 77.48 117.02 78.26 116.66 79.43Z" fill="#1E222D" fill-opacity="1.000000" fill-rule="nonzero"/>
		</g>
	</g>
	<g mask="url(#mask1_43135)">
		<g style="mix-blend-mode:normal">
			<path id="Path 42120" d="M128.77 76.79L132.34 77.88L129.67 86.6L135.25 88.3L134.38 91.15L125.23 88.35L128.77 76.79Z" fill="#1E222D" fill-opacity="1.000000" fill-rule="nonzero"/>
		</g>
	</g>
	<g mask="url(#mask1_43135)">
		<g style="mix-blend-mode:normal">
			<path id="Path 42121" d="M151.1 38.04L75.85 15.03C70.63 13.43 65.09 16.38 63.49 21.6L19.52 165.44C17.92 170.66 20.87 176.2 26.08 177.8L75.91 193.03L101.34 200.8C106.55 202.4 112.09 199.45 113.69 194.24L126.09 153.66L157.67 50.39C159.26 45.17 156.31 39.63 151.1 38.04ZM112.91 194C111.44 198.78 106.36 201.48 101.58 200.02L77.65 192.7L124.55 155.91L112.91 194ZM76.69 192.41L26.32 177.01C21.54 175.55 18.84 170.47 20.3 165.68L64.28 21.84C65.74 17.05 70.82 14.35 75.61 15.81L150.86 38.82C155.64 40.28 158.35 45.36 156.88 50.15L124.97 154.54L76.69 192.41Z" fill="#231F20" fill-opacity="1.000000" fill-rule="nonzero"/>
		</g>
	</g>
	<g mask="url(#mask1_43135)">
		<g style="mix-blend-mode:normal">
			<path id="Path 42122" d="M80.17 23.84C79.83 24.97 78.64 25.61 77.51 25.26C77.29 25.19 77.09 25.1 76.91 24.97C76.16 24.45 75.81 23.51 76.09 22.59C76.43 21.46 77.62 20.83 78.75 21.17C79.23 21.32 79.62 21.62 79.88 22C80.25 22.52 80.37 23.19 80.17 23.84Z" fill="#FFB30B" fill-opacity="1.000000" fill-rule="nonzero"/>
		</g>
	</g>
	<g mask="url(#mask1_43135)">
		<g style="mix-blend-mode:normal">
			<path id="Path 42123" d="M80.17 23.84C79.83 24.97 78.64 25.61 77.51 25.26C77.29 25.19 77.09 25.1 76.91 24.97C76.55 24.45 76.43 23.78 76.62 23.13C76.97 22 78.16 21.37 79.29 21.71C79.51 21.78 79.71 21.88 79.88 22C80.25 22.52 80.37 23.19 80.17 23.84Z" fill="#D69A21" fill-opacity="1.000000" fill-rule="nonzero"/>
		</g>
	</g>
	<g mask="url(#mask1_43135)">
		<g style="mix-blend-mode:normal">
			<path id="Path 42124" d="M75.84 24.61C75.04 24.37 74.3 23.89 73.79 23.29C73.39 22.82 73.13 22.3 72.96 21.63C72.72 20.65 72.75 19.72 72.81 18.87C73.08 15.26 74.2 12.54 76.22 10.54C77.24 9.54 78.3 8.95 79.56 8.71C80.28 8.57 80.74 8.8 80.95 8.94C81.21 9.12 81.3 9.32 81.36 9.45C81.49 9.8 81.49 10.14 81.48 10.42C81.47 10.67 81.45 10.9 81.42 11.14C81.83 10.89 82.29 10.68 82.78 10.52C83.65 10.23 84.29 10.41 84.68 10.61C85.28 10.92 85.53 11.4 85.42 12.05C85.08 14.11 84.72 16.25 84.11 18.28L82.9 17.92C83.5 15.91 83.85 13.79 84.2 11.74C84.26 11.38 84.16 11.24 84.12 11.22C84.07 11.2 83.87 11.18 83.54 11.29C82.56 11.62 81.71 12.18 81.06 12.94C80.84 13.74 80.56 14.53 80.29 15.31C79.97 16.23 79.63 17.19 79.41 18.15C79.06 19.62 78.96 21.18 78.86 22.7C78.83 23.15 78.8 23.6 78.76 24.05C78.76 24.14 78.74 24.35 78.48 24.47C78.38 24.51 78.25 24.53 78.12 24.53C77.62 24.81 76.81 24.87 76 24.66C75.95 24.64 75.89 24.63 75.84 24.61ZM80.19 9.52C79.13 9.72 78.2 10.24 77.3 11.13C75.36 13.03 74.3 15.65 74.04 19.13C73.98 19.94 73.96 20.81 74.18 21.72C74.31 22.27 74.51 22.68 74.81 23.03C75.16 23.44 75.66 23.75 76.15 23.89C76.65 24.02 77.16 23.94 77.33 23.72C77.47 23.52 77.4 23.21 77.33 22.88L77.3 22.74C77.05 21.56 77.23 20.47 77.46 19.35C77.65 18.38 77.88 17.4 78.13 16.43C78.42 15.3 78.76 14.11 79.45 13.05C79.58 12.85 79.72 12.66 79.87 12.47C80.07 11.72 80.21 10.96 80.25 10.18C80.26 9.96 80.26 9.74 80.19 9.52Z" fill="#231F20" fill-opacity="1.000000" fill-rule="nonzero"/>
		</g>
	</g>
	<g mask="url(#mask1_43135)">
		<g style="mix-blend-mode:normal">
			<path id="Path 42125" d="M93.23 27.83C92.89 28.96 91.7 29.6 90.56 29.25C90.35 29.19 90.15 29.09 89.97 28.96C89.23 28.45 88.87 27.5 89.15 26.58C89.49 25.46 90.68 24.82 91.81 25.17C92.29 25.31 92.68 25.61 92.94 26C93.31 26.52 93.43 27.19 93.23 27.83Z" fill="#FFB30B" fill-opacity="1.000000" fill-rule="nonzero"/>
		</g>
	</g>
	<g mask="url(#mask1_43135)">
		<g style="mix-blend-mode:normal">
			<path id="Path 42126" d="M93.23 27.83C92.89 28.97 91.7 29.6 90.57 29.25C90.35 29.19 90.15 29.09 89.97 28.96C89.61 28.44 89.49 27.77 89.68 27.12C90.03 25.99 91.22 25.36 92.35 25.7C92.57 25.77 92.77 25.87 92.94 26C93.31 26.52 93.43 27.19 93.23 27.83Z" fill="#D69A21" fill-opacity="1.000000" fill-rule="nonzero"/>
		</g>
	</g>
	<g mask="url(#mask1_43135)">
		<g style="mix-blend-mode:normal">
			<path id="Path 42127" d="M88.9 28.61C88.1 28.36 87.36 27.88 86.85 27.28C86.45 26.82 86.19 26.29 86.02 25.62C85.78 24.64 85.81 23.71 85.87 22.86C86.14 19.26 87.25 16.53 89.28 14.53C90.3 13.53 91.36 12.95 92.62 12.7C93.34 12.56 93.8 12.79 94.01 12.94C94.27 13.11 94.36 13.31 94.42 13.44C94.55 13.8 94.55 14.13 94.54 14.42C94.53 14.66 94.51 14.9 94.48 15.14C94.89 14.88 95.35 14.68 95.84 14.51C96.71 14.22 97.35 14.4 97.74 14.6C98.34 14.91 98.59 15.4 98.48 16.04C98.14 18.11 97.78 20.24 97.17 22.28L95.96 21.91C96.56 19.9 96.91 17.78 97.26 15.73C97.32 15.37 97.22 15.24 97.18 15.21C97.13 15.19 96.93 15.18 96.6 15.28C95.62 15.61 94.77 16.17 94.12 16.93C93.9 17.74 93.62 18.53 93.35 19.3C93.03 20.22 92.69 21.18 92.46 22.15C92.12 23.61 92.02 25.18 91.92 26.69C91.89 27.14 91.86 27.59 91.82 28.04C91.82 28.13 91.8 28.34 91.54 28.46C91.44 28.51 91.31 28.53 91.18 28.52C90.68 28.81 89.87 28.87 89.06 28.65C89.01 28.64 88.95 28.62 88.9 28.61ZM93.25 13.51C92.19 13.71 91.26 14.23 90.35 15.12C88.42 17.03 87.36 19.64 87.1 23.12C87.04 23.93 87.01 24.81 87.24 25.71C87.37 26.26 87.57 26.68 87.87 27.03C88.22 27.43 88.72 27.75 89.21 27.88C89.71 28.01 90.22 27.94 90.39 27.71C90.53 27.51 90.46 27.2 90.39 26.88L90.36 26.73C90.11 25.55 90.29 24.46 90.52 23.35C90.71 22.37 90.94 21.39 91.19 20.43C91.48 19.3 91.82 18.1 92.51 17.04C92.64 16.84 92.78 16.65 92.93 16.47C93.13 15.71 93.27 14.95 93.31 14.17C93.32 13.95 93.32 13.73 93.25 13.51Z" fill="#231F20" fill-opacity="1.000000" fill-rule="nonzero"/>
		</g>
	</g>
	<g mask="url(#mask1_43135)">
		<g style="mix-blend-mode:normal">
			<path id="Path 42128" d="M106.3 31.83C105.95 32.96 104.76 33.59 103.63 33.25C103.41 33.18 103.21 33.08 103.03 32.96C102.29 32.44 101.93 31.49 102.21 30.58C102.55 29.45 103.75 28.81 104.88 29.16C105.35 29.31 105.74 29.61 106 29.99C106.37 30.51 106.49 31.18 106.3 31.83Z" fill="#FFB30B" fill-opacity="1.000000" fill-rule="nonzero"/>
		</g>
	</g>
	<g mask="url(#mask1_43135)">
		<g style="mix-blend-mode:normal">
			<path id="Path 42129" d="M106.3 31.83C105.95 32.96 104.76 33.59 103.63 33.25C103.41 33.18 103.21 33.08 103.03 32.96C102.67 32.44 102.55 31.76 102.74 31.11C103.09 29.99 104.28 29.35 105.41 29.7C105.63 29.76 105.83 29.86 106 29.99C106.37 30.51 106.49 31.18 106.3 31.83Z" fill="#D69A21" fill-opacity="1.000000" fill-rule="nonzero"/>
		</g>
	</g>
	<g mask="url(#mask1_43135)">
		<g style="mix-blend-mode:normal">
			<path id="Path 42130" d="M101.96 32.6C101.16 32.35 100.42 31.88 99.91 31.28C99.51 30.81 99.25 30.28 99.08 29.62C98.84 28.63 98.87 27.71 98.93 26.85C99.2 23.25 100.32 20.53 102.34 18.52C103.36 17.52 104.42 16.94 105.68 16.7C106.4 16.56 106.86 16.78 107.07 16.93C107.33 17.1 107.43 17.3 107.48 17.44C107.61 17.79 107.61 18.12 107.6 18.41C107.59 18.65 107.57 18.89 107.54 19.13C107.96 18.88 108.41 18.67 108.9 18.51C109.77 18.22 110.41 18.39 110.8 18.59C111.4 18.91 111.65 19.39 111.54 20.03C111.2 22.1 110.84 24.23 110.23 26.27L109.02 25.9C109.62 23.9 109.97 21.78 110.32 19.73C110.38 19.37 110.28 19.23 110.24 19.21C110.19 19.18 109.99 19.17 109.66 19.28C108.68 19.6 107.83 20.17 107.18 20.92C106.96 21.73 106.68 22.52 106.41 23.29C106.09 24.22 105.75 25.17 105.53 26.14C105.18 27.61 105.08 29.17 104.98 30.68C104.95 31.13 104.92 31.58 104.88 32.03C104.88 32.12 104.86 32.34 104.6 32.45C104.5 32.5 104.37 32.52 104.24 32.52C103.74 32.8 102.93 32.86 102.12 32.64C102.07 32.63 102.01 32.61 101.96 32.6ZM106.31 17.5C105.25 17.71 104.32 18.22 103.42 19.11C101.49 21.02 100.42 23.64 100.16 27.11C100.1 27.92 100.08 28.8 100.3 29.7C100.43 30.25 100.64 30.67 100.93 31.02C101.28 31.42 101.78 31.74 102.28 31.87C102.77 32 103.29 31.93 103.45 31.7C103.59 31.51 103.52 31.2 103.45 30.87L103.42 30.72C103.17 29.55 103.35 28.45 103.58 27.34C103.77 26.37 104 25.39 104.25 24.42C104.54 23.29 104.88 22.1 105.57 21.04C105.7 20.83 105.84 20.64 105.99 20.46C106.19 19.71 106.33 18.94 106.37 18.16C106.38 17.95 106.38 17.72 106.31 17.5Z" fill="#231F20" fill-opacity="1.000000" fill-rule="nonzero"/>
		</g>
	</g>
	<g mask="url(#mask1_43135)">
		<g style="mix-blend-mode:normal">
			<path id="Path 42131" d="M119.35 35.82C119.01 36.95 117.82 37.59 116.69 37.24C116.47 37.17 116.27 37.07 116.09 36.95C115.35 36.43 114.99 35.48 115.27 34.57C115.61 33.44 116.81 32.81 117.94 33.15C118.41 33.3 118.8 33.6 119.06 33.98C119.43 34.5 119.55 35.17 119.35 35.82Z" fill="#FFB30B" fill-opacity="1.000000" fill-rule="nonzero"/>
		</g>
	</g>
	<g mask="url(#mask1_43135)">
		<g style="mix-blend-mode:normal">
			<path id="Path 42132" d="M119.35 35.82C119.01 36.95 117.82 37.59 116.69 37.24C116.47 37.17 116.27 37.07 116.09 36.95C115.73 36.43 115.61 35.75 115.8 35.11C116.15 33.98 117.34 33.34 118.47 33.69C118.69 33.76 118.89 33.85 119.06 33.98C119.43 34.5 119.55 35.17 119.35 35.82Z" fill="#D69A21" fill-opacity="1.000000" fill-rule="nonzero"/>
		</g>
	</g>
	<g mask="url(#mask1_43135)">
		<g style="mix-blend-mode:normal">
			<path id="Path 42133" d="M115.02 36.59C114.22 36.35 113.48 35.87 112.97 35.27C112.57 34.8 112.31 34.28 112.14 33.61C111.9 32.63 111.93 31.7 111.99 30.84C112.26 27.24 113.38 24.52 115.4 22.52C116.42 21.51 117.48 20.93 118.74 20.69C119.46 20.55 119.92 20.77 120.13 20.92C120.39 21.1 120.49 21.29 120.54 21.43C120.67 21.78 120.67 22.12 120.66 22.4C120.65 22.64 120.63 22.88 120.6 23.12C121.01 22.87 121.47 22.66 121.96 22.5C122.83 22.21 123.47 22.39 123.86 22.59C124.46 22.9 124.71 23.38 124.6 24.03C124.26 26.09 123.9 28.23 123.29 30.26L122.08 29.89C122.68 27.89 123.04 25.77 123.38 23.72C123.44 23.36 123.34 23.22 123.3 23.2C123.25 23.18 123.05 23.16 122.72 23.27C121.74 23.6 120.89 24.16 120.24 24.91C120.02 25.72 119.74 26.51 119.47 27.29C119.15 28.21 118.81 29.17 118.59 30.13C118.24 31.6 118.14 33.16 118.04 34.68C118.01 35.13 117.98 35.58 117.94 36.03C117.94 36.12 117.92 36.33 117.66 36.45C117.56 36.49 117.43 36.51 117.3 36.51C116.8 36.79 116 36.85 115.18 36.63C115.13 36.62 115.07 36.61 115.02 36.59ZM119.37 21.49C118.31 21.7 117.38 22.21 116.47 23.1C114.55 25.01 113.48 27.63 113.22 31.11C113.16 31.92 113.14 32.79 113.36 33.7C113.49 34.24 113.69 34.66 113.99 35.01C114.34 35.41 114.85 35.73 115.34 35.87C115.83 36 116.35 35.92 116.51 35.69C116.65 35.5 116.58 35.19 116.51 34.86L116.48 34.72C116.23 33.54 116.41 32.44 116.64 31.33C116.83 30.36 117.06 29.38 117.31 28.41C117.6 27.28 117.94 26.09 118.63 25.03C118.76 24.83 118.9 24.63 119.05 24.45C119.25 23.7 119.39 22.94 119.43 22.15C119.44 21.94 119.44 21.71 119.37 21.49Z" fill="#231F20" fill-opacity="1.000000" fill-rule="nonzero"/>
		</g>
	</g>
	<g mask="url(#mask1_43135)">
		<g style="mix-blend-mode:normal">
			<path id="Path 42134" d="M132.41 39.81C132.07 40.94 130.88 41.58 129.75 41.23C129.53 41.17 129.33 41.07 129.15 40.94C128.41 40.43 128.05 39.48 128.33 38.56C128.67 37.44 129.86 36.8 130.99 37.15C131.47 37.29 131.86 37.59 132.12 37.97C132.49 38.49 132.61 39.16 132.41 39.81Z" fill="#FFB30B" fill-opacity="1.000000" fill-rule="nonzero"/>
		</g>
	</g>
	<g mask="url(#mask1_43135)">
		<g style="mix-blend-mode:normal">
			<path id="Path 42135" d="M132.41 39.81C132.07 40.94 130.88 41.58 129.74 41.23C129.53 41.17 129.33 41.07 129.15 40.94C128.79 40.42 128.67 39.75 128.86 39.1C129.21 37.97 130.4 37.34 131.53 37.68C131.75 37.75 131.95 37.85 132.12 37.98C132.49 38.5 132.61 39.16 132.41 39.81Z" fill="#D69A21" fill-opacity="1.000000" fill-rule="nonzero"/>
		</g>
	</g>
	<g mask="url(#mask1_43135)">
		<g style="mix-blend-mode:normal">
			<path id="Path 42136" d="M128.08 40.58C127.28 40.34 126.54 39.86 126.03 39.26C125.63 38.8 125.37 38.27 125.2 37.6C124.96 36.62 124.99 35.69 125.05 34.84C125.32 31.24 126.44 28.51 128.46 26.51C129.48 25.51 130.54 24.93 131.8 24.68C132.52 24.54 132.98 24.77 133.19 24.91C133.45 25.09 133.55 25.29 133.6 25.42C133.73 25.78 133.73 26.11 133.72 26.39C133.71 26.64 133.69 26.88 133.66 27.12C134.08 26.86 134.53 26.66 135.02 26.49C135.89 26.2 136.53 26.38 136.92 26.58C137.52 26.89 137.77 27.38 137.66 28.02C137.32 30.08 136.96 32.22 136.35 34.26L135.14 33.89C135.74 31.88 136.1 29.76 136.44 27.71C136.5 27.35 136.4 27.22 136.36 27.19C136.31 27.17 136.11 27.15 135.78 27.26C134.8 27.59 133.95 28.15 133.3 28.91C133.08 29.72 132.8 30.5 132.53 31.28C132.21 32.2 131.87 33.16 131.65 34.12C131.3 35.59 131.2 37.16 131.1 38.67C131.07 39.12 131.04 39.57 131 40.02C131 40.11 130.98 40.32 130.72 40.44C130.62 40.49 130.5 40.51 130.36 40.5C129.86 40.78 129.05 40.85 128.24 40.63C128.19 40.61 128.13 40.6 128.08 40.58ZM132.43 25.49C131.37 25.69 130.44 26.21 129.53 27.1C127.61 29.01 126.54 31.62 126.28 35.1C126.22 35.91 126.19 36.79 126.42 37.69C126.55 38.24 126.76 38.66 127.05 39.01C127.4 39.41 127.91 39.73 128.39 39.86C128.89 39.99 129.41 39.91 129.57 39.69C129.71 39.49 129.64 39.18 129.57 38.85L129.54 38.71C129.29 37.53 129.47 36.44 129.7 35.32C129.89 34.35 130.12 33.37 130.37 32.41C130.66 31.27 131 30.08 131.69 29.02C131.82 28.82 131.96 28.63 132.11 28.44C132.31 27.69 132.45 26.93 132.49 26.15C132.5 25.93 132.5 25.71 132.43 25.49Z" fill="#231F20" fill-opacity="1.000000" fill-rule="nonzero"/>
		</g>
	</g>
	<g mask="url(#mask1_43135)">
		<g style="mix-blend-mode:normal">
			<path id="Path 42137" d="M145.48 43.81C145.13 44.94 143.94 45.57 142.81 45.23C142.59 45.16 142.39 45.06 142.21 44.93C141.47 44.42 141.11 43.47 141.39 42.56C141.73 41.43 142.92 40.79 144.06 41.14C144.53 41.28 144.92 41.58 145.18 41.97C145.55 42.49 145.67 43.16 145.48 43.81Z" fill="#FFB30B" fill-opacity="1.000000" fill-rule="nonzero"/>
		</g>
	</g>
	<g mask="url(#mask1_43135)">
		<g style="mix-blend-mode:normal">
			<path id="Path 42138" d="M145.48 43.81C145.13 44.94 143.94 45.57 142.81 45.23C142.59 45.16 142.39 45.06 142.21 44.93C141.85 44.41 141.73 43.74 141.92 43.09C142.27 41.97 143.46 41.33 144.59 41.68C144.81 41.74 145.01 41.84 145.18 41.97C145.55 42.49 145.67 43.16 145.48 43.81Z" fill="#D69A21" fill-opacity="1.000000" fill-rule="nonzero"/>
		</g>
	</g>
	<g mask="url(#mask1_43135)">
		<g style="mix-blend-mode:normal">
			<path id="Path 42139" d="M141.14 44.58C140.34 44.33 139.6 43.86 139.09 43.26C138.69 42.79 138.43 42.26 138.26 41.6C138.02 40.61 138.05 39.69 138.11 38.83C138.38 35.23 139.5 32.5 141.52 30.5C142.54 29.5 143.6 28.92 144.86 28.67C145.58 28.54 146.04 28.76 146.25 28.91C146.51 29.08 146.6 29.28 146.66 29.41C146.79 29.77 146.79 30.1 146.78 30.39C146.77 30.63 146.75 30.87 146.72 31.11C147.13 30.86 147.59 30.65 148.08 30.49C148.95 30.2 149.59 30.37 149.98 30.57C150.58 30.88 150.83 31.37 150.72 32.01C150.38 34.08 150.02 36.21 149.41 38.25L148.2 37.88C148.8 35.87 149.15 33.75 149.5 31.71C149.56 31.34 149.46 31.21 149.42 31.19C149.37 31.16 149.17 31.15 148.84 31.26C147.86 31.58 147.01 32.15 146.36 32.9C146.14 33.71 145.86 34.5 145.59 35.27C145.27 36.2 144.93 37.15 144.71 38.12C144.36 39.58 144.26 41.15 144.16 42.66C144.13 43.11 144.1 43.56 144.06 44.01C144.06 44.1 144.04 44.32 143.78 44.43C143.68 44.48 143.55 44.5 143.42 44.5C142.92 44.78 142.11 44.84 141.3 44.62C141.25 44.61 141.19 44.59 141.14 44.58ZM145.49 29.48C144.43 29.68 143.5 30.2 142.6 31.09C140.66 33 139.6 35.62 139.34 39.09C139.28 39.9 139.25 40.78 139.48 41.68C139.61 42.23 139.81 42.65 140.11 43C140.46 43.4 140.96 43.72 141.45 43.85C141.95 43.98 142.46 43.91 142.63 43.68C142.77 43.48 142.7 43.17 142.63 42.85L142.6 42.7C142.35 41.52 142.53 40.43 142.76 39.32C142.95 38.35 143.18 37.37 143.43 36.4C143.72 35.27 144.06 34.07 144.75 33.02C144.88 32.81 145.02 32.62 145.17 32.44C145.37 31.69 145.51 30.92 145.55 30.14C145.56 29.93 145.56 29.7 145.49 29.48Z" fill="#231F20" fill-opacity="1.000000" fill-rule="nonzero"/>
		</g>
	</g>
	<g mask="url(#mask1_43135)">
		<g style="mix-blend-mode:normal">
			<path id="Path 42140" d="M66.78 145.83C65.82 150.68 68.83 155.27 73.63 156.42C76.18 157.03 78.89 157.23 81.33 156.09C83.36 155.14 84.92 153.43 86.34 151.75C86.92 151.06 87.1 150.12 86.43 149.4C85.89 148.81 84.67 148.62 84.09 149.31C82.99 150.62 81.79 152.04 80.31 152.88C78.72 153.78 76.91 153.72 75.12 153.36C73.37 153.01 71.84 152.3 70.92 150.94C70.07 149.69 69.69 148.12 69.96 146.8C70.13 145.92 69.77 145.01 68.85 144.73C68.06 144.49 66.96 144.95 66.78 145.83Z" fill="#1E222D" fill-opacity="1.000000" fill-rule="nonzero"/>
		</g>
	</g>
	<g mask="url(#mask1_43135)">
		<g style="mix-blend-mode:normal">
			<path id="Path 42141" d="M75.64 122.52C74.06 127.71 68.26 130.53 62.69 128.83C57.13 127.13 53.9 121.55 55.49 116.36C57.07 111.17 62.87 108.34 68.44 110.04C74 111.75 77.23 117.33 75.64 122.52Z" fill="#FCF9F0" fill-opacity="1.000000" fill-rule="nonzero"/>
		</g>
	</g>
	<g mask="url(#mask1_43135)">
		<g style="mix-blend-mode:normal">
			<path id="Path 42142" d="M73.36 123.52C72.03 127.85 67.44 130.28 63.09 128.95C58.75 127.63 56.3 123.04 57.62 118.71C58.94 114.38 63.54 111.94 67.89 113.27C72.23 114.6 74.68 119.19 73.36 123.52Z" fill="#1E222D" fill-opacity="1.000000" fill-rule="nonzero"/>
		</g>
	</g>
	<g mask="url(#mask1_43135)">
		<g style="mix-blend-mode:normal">
			<path id="Path 42143" d="M69.72 119.21C69.12 121.17 66.96 122.25 64.9 121.62C62.84 120.99 61.65 118.89 62.25 116.93C62.85 114.97 65 113.89 67.07 114.52C69.13 115.15 70.32 117.25 69.72 119.21Z" fill="#FBFDFC" fill-opacity="1.000000" fill-rule="nonzero"/>
		</g>
	</g>
	<g mask="url(#mask1_43135)">
		<g style="mix-blend-mode:normal">
			<path id="Path 42144" d="M110.17 133.07C108.58 138.26 102.78 141.09 97.22 139.39C91.65 137.68 88.42 132.1 90.01 126.91C91.59 121.72 97.39 118.9 102.96 120.6C108.53 122.3 111.75 127.89 110.17 133.07Z" fill="#FCF9F0" fill-opacity="1.000000" fill-rule="nonzero"/>
		</g>
	</g>
	<g mask="url(#mask1_43135)">
		<g style="mix-blend-mode:normal">
			<path id="Path 42145" d="M107.88 134.07C106.56 138.4 101.96 140.84 97.61 139.51C93.27 138.18 90.82 133.59 92.14 129.26C93.47 124.93 98.06 122.5 102.41 123.83C106.76 125.15 109.2 129.74 107.88 134.07Z" fill="#1E222D" fill-opacity="1.000000" fill-rule="nonzero"/>
		</g>
	</g>
	<g mask="url(#mask1_43135)">
		<g style="mix-blend-mode:normal">
			<path id="Path 42146" d="M104.24 129.77C103.64 131.73 101.49 132.8 99.42 132.17C97.36 131.54 96.17 129.44 96.77 127.48C97.37 125.52 99.53 124.45 101.59 125.08C103.65 125.71 104.84 127.81 104.24 129.77Z" fill="#FBFDFC" fill-opacity="1.000000" fill-rule="nonzero"/>
		</g>
	</g>
	<g mask="url(#mask1_43135)">
		<g style="mix-blend-mode:normal">
			<path id="Path 42147" d="M157.55 118.93C155.92 118.92 155.27 120.7 154.25 121.64C154.07 121.71 153.89 121.41 153.67 121.14C152.88 120.12 151.58 119.45 150.43 119.37C149.27 119.3 148.22 119.79 147.89 121.23C147.76 122.53 148.79 123.58 149.51 124.61C149.9 125.16 150.31 125.72 149.83 126.27L149.37 126.91L149.25 127.06L149 127.33L148.21 128.15C147.15 129.25 146.03 130.3 144.91 131.35C142.64 133.42 140.23 135.37 137.76 137.23C132.79 140.93 127.49 144.19 122.09 147.06C121.69 147.32 121.3 147.57 120.92 147.84C120.39 148.2 120.78 148.69 120.99 149.18C121.13 149.48 121.28 149.8 121.43 150.13C121.72 150.71 122.01 151.35 122.34 151.81C122.48 151.98 122.66 152.03 122.89 151.97C123.33 151.8 123.77 151.63 124.2 151.44C130.17 148.7 135.84 145.24 141.1 141.29C143.72 139.3 146.25 137.19 148.67 134.99C149.87 133.87 151.06 132.75 152.2 131.59L152.63 131.16L152.85 130.95L153.19 130.55L153.73 129.91C153.88 129.81 154.06 129.8 154.25 129.84C156.09 130.59 159.04 130.03 160.35 128.56C162.34 126.24 159.7 125.03 157.81 124.91C157.45 124.89 157.64 124.81 157.78 124.67C158.77 123.9 159.47 122.53 159.55 121.33C159.63 120.13 159.1 119.12 157.67 118.93L157.55 118.93Z" fill="#000307" fill-opacity="1.000000" fill-rule="nonzero"/>
		</g>
	</g>
	<g mask="url(#mask1_43135)">
		<g style="mix-blend-mode:normal">
			<path id="Path 42148" d="M144.12 122.43C143.96 122.37 143.85 122.18 143.92 122.02C144.42 120.74 145.14 119.58 146.06 118.57C147.28 117.22 148.93 116.06 150.97 115.12C151.13 115.04 151.31 115.11 151.39 115.27C151.46 115.43 151.39 115.62 151.23 115.69C149.27 116.6 147.69 117.71 146.53 118.99C145.66 119.95 144.98 121.05 144.51 122.25C144.45 122.4 144.28 122.48 144.12 122.43Z" fill="#000307" fill-opacity="1.000000" fill-rule="nonzero"/>
		</g>
	</g>
	<g mask="url(#mask1_43135)">
		<g style="mix-blend-mode:normal">
			<path id="Path 42149" d="M143.34 117.49C143.3 117.47 143.25 117.45 143.22 117.41C143.09 117.29 143.09 117.09 143.21 116.97C144.21 115.92 145.37 115.05 146.66 114.38C146.81 114.3 147 114.36 147.09 114.52C147.17 114.67 147.11 114.86 146.95 114.94C145.72 115.58 144.62 116.41 143.66 117.41C143.58 117.49 143.45 117.52 143.34 117.49Z" fill="#000307" fill-opacity="1.000000" fill-rule="nonzero"/>
		</g>
	</g>
	<g mask="url(#mask1_43135)">
		<g style="mix-blend-mode:normal">
			<path id="Path 42150" d="M162.67 131.38C162.52 131.29 162.4 131.06 162.5 130.92L164.18 128.16C164.27 128.01 164.47 127.96 164.62 128.05C164.77 128.14 164.81 128.34 164.72 128.49L163.03 131.25C162.96 131.37 162.81 131.42 162.67 131.38Z" fill="#000307" fill-opacity="1.000000" fill-rule="nonzero"/>
		</g>
	</g>
	<g mask="url(#mask1_43135)">
		<g style="mix-blend-mode:normal">
			<path id="Path 42151" d="M162.53 136.7C162.48 136.69 162.42 136.65 162.38 136.6C162.27 136.47 162.29 136.27 162.42 136.16C164.63 134.34 167.13 132.28 168.24 129.45C168.31 129.29 168.49 129.21 168.65 129.27C168.82 129.34 168.9 129.52 168.83 129.68C167.66 132.67 165.09 134.78 162.83 136.64C162.74 136.72 162.63 136.73 162.53 136.7Z" fill="#000307" fill-opacity="1.000000" fill-rule="nonzero"/>
		</g>
	</g>
	<g mask="url(#mask1_43135)">
		<g style="mix-blend-mode:normal">
			<path id="Path 42152" d="M69.72 130.26C69.1 132.3 64.51 132.71 59.48 131.17C54.44 129.63 50.86 126.72 51.48 124.68C52.11 122.64 56.7 122.24 61.73 123.78C66.77 125.32 70.35 128.22 69.72 130.26Z" fill="#FEC22C" fill-opacity="1.000000" fill-rule="nonzero"/>
		</g>
	</g>
	<g mask="url(#mask1_43135)">
		<g style="mix-blend-mode:normal">
			<path id="Path 42153" d="M110.17 142.99C109.55 145.03 104.96 145.44 99.92 143.9C94.89 142.36 91.31 139.46 91.93 137.42C92.56 135.38 97.14 134.97 102.18 136.51C107.22 138.05 110.8 140.95 110.17 142.99Z" fill="#FEC22C" fill-opacity="1.000000" fill-rule="nonzero"/>
		</g>
	</g>
</svg>
