<svg width="122.806641" height="199.085205" viewBox="0 0 122.807 199.085" fill="none" xmlns="http://www.w3.org/2000/svg" xmlns:xlink="http://www.w3.org/1999/xlink">
	<desc>
			Created with Pixso.
	</desc>
	<defs/>
	<mask id="mask1_26321" mask-type="alpha" maskUnits="userSpaceOnUse" x="0.000000" y="0.000000" width="122.806152" height="199.085205">
		<g style="mix-blend-mode:normal">
			<rect id="Rectangle 3791" x="47.971680" width="77.474525" height="185.349014" transform="rotate(15 47.971680 0.000000)" fill="#C4C4C4" fill-opacity="1.000000"/>
		</g>
	</mask>
	<g mask="url(#mask1_26321)">
		<g style="mix-blend-mode:normal">
			<path id="Path 35075" d="M12.33 181.61C12.4 181.19 12.8 180.91 13.22 180.98C21.99 182.49 26.59 179.19 28.78 176.6C25.69 173.98 23.72 169.67 24.08 166.51C24.32 164.22 25.78 162.84 28.08 162.74C29.89 162.65 31.38 163.52 32.28 165.18C33.87 168.09 33.3 172.67 30.94 176.26C31.56 176.65 32.21 176.95 32.88 177.13C36.91 178.21 40.88 174.98 44.01 168.03C51.41 151.59 61.18 114.99 61.19 106.17C61.2 105.75 61.54 105.4 61.97 105.4C62.38 105.4 62.73 105.74 62.73 106.17C62.72 115.12 52.88 152.1 45.41 168.66C40.72 179.06 35.33 179.37 32.51 178.62C31.65 178.39 30.8 178 30.02 177.51C27.62 180.4 22.54 184.15 12.95 182.5C12.58 182.4 12.26 182.01 12.33 181.61ZM28.15 164.27C26.6 164.34 25.77 165.13 25.6 166.68C25.31 169.3 27.09 173.06 29.71 175.35C31.96 171.87 32.04 167.95 30.94 165.92C30.61 165.3 30.04 164.62 29.09 164.36C28.81 164.29 28.5 164.26 28.15 164.27Z" fill="#78175F" fill-opacity="1.000000" fill-rule="nonzero"/>
		</g>
	</g>
	<g mask="url(#mask1_26321)">
		<g style="mix-blend-mode:normal">
			<path id="Path 35076" d="M57.93 100.41C59.55 102.11 60.89 104.87 58.18 105.71C54.52 106.84 53.91 109.46 56.22 109.28C58.61 109.11 60.55 108.94 62.82 110.91C65.26 113.03 67.08 110.77 65.54 108.88C62.99 105.76 62.78 103.78 65.76 102.51C62.37 101.83 57.93 100.41 57.93 100.41Z" fill="#D16E9C" fill-opacity="1.000000" fill-rule="nonzero"/>
		</g>
	</g>
	<g mask="url(#mask1_26321)">
		<g style="mix-blend-mode:normal">
			<path id="Path 35077" d="M57.41 100.86C42.74 91.73 28.7 65.93 38.01 37.52C47.76 7.72 73.16 6.75 85.7 10.11C97.43 13.25 121.54 28.79 111.77 61.09C102.7 91.05 78.23 101.82 65.88 103.34C61.52 103.33 59.28 102.04 57.41 100.86Z" fill="#EA7BAF" fill-opacity="1.000000" fill-rule="nonzero"/>
		</g>
	</g>
	<g mask="url(#mask1_26321)">
		<g style="mix-blend-mode:normal">
			<path id="Path 35078" d="M40.03 67.99C45.74 87.83 69.29 95.14 86 83.55C102.71 71.98 108.95 57.69 108.95 57.69C108.95 57.69 103.61 82.12 80.63 95.24C57.65 108.35 41.72 82.91 40.03 67.99Z" fill="#CF5E93" fill-opacity="1.000000" fill-rule="nonzero"/>
		</g>
	</g>
	<g mask="url(#mask1_26321)">
		<g style="mix-blend-mode:normal">
			<path id="Path 35079" d="M70.53 11.38C79.63 10.22 104.11 14.18 97.73 38.49C89.02 71.64 41.27 81.57 38.22 59.93C34.91 36.3 47.88 14.28 70.53 11.38Z" fill="#F1ACCD" fill-opacity="1.000000" fill-rule="nonzero"/>
		</g>
	</g>
	<g mask="url(#mask1_26321)">
		<g style="mix-blend-mode:normal">
			<path id="Path 35080" d="M54.16 30.06C52.42 26.11 51.49 22.94 51.23 22C56.42 16.49 63.58 13.57 71.52 12.86C69.35 14.77 67.82 19.37 66.75 23.4C61.45 24.44 57.36 26.84 54.16 30.06ZM56.36 38.99C55.22 37.56 53.85 35.81 52.44 33.94C49.46 37.57 47.55 41.98 46.06 46.43C46.95 46.24 47.88 46.11 48.82 46.02C50.82 43.4 53.42 40.77 56.36 38.99ZM54.79 31.47C55.76 33.54 56.93 35.76 58.32 37.97C60.22 37.1 62.23 36.63 64.25 36.77C64.43 36.51 64.52 36.35 64.52 36.35C64.52 36.35 64.93 31.4 66.12 25.99C61.31 26.92 57.66 28.88 54.79 31.47ZM47.46 26.66C42.61 33.66 40.43 41.65 38.76 48.96C40.39 47.95 41.93 47.45 44.88 46.7C46.5 41.81 48.61 36.96 51.68 32.91C50.15 30.81 48.65 28.63 47.46 26.66Z" fill="#FFFDFE" fill-opacity="1.000000" fill-rule="nonzero"/>
		</g>
	</g>
	<g mask="url(#mask1_26321)">
		<g style="mix-blend-mode:normal">
			<path id="Path 35081" d="M104.92 26.45C104.92 26.45 102.62 28.59 100.92 29.17C107.12 36.87 110.6 46.41 110.7 51.78C113.1 38.98 104.92 26.45 104.92 26.45Z" fill="#F3D1D3" fill-opacity="1.000000" fill-rule="nonzero"/>
		</g>
	</g>
	<g mask="url(#mask1_26321)">
		<g style="mix-blend-mode:normal">
			<path id="Path 35082" d="M61.05 105.3C61.85 105.52 62.85 105.63 63.98 105.45C64.35 105.39 64.59 105.04 64.54 104.68C64.47 104.32 64.13 104.07 63.76 104.13C61.33 104.53 59.75 103.26 59.67 103.21C59.39 102.97 58.98 103.02 58.74 103.3C58.51 103.58 58.54 104 58.82 104.23C58.88 104.28 59.69 104.94 61.05 105.3Z" fill="#7C1B1B" fill-opacity="1.000000" fill-rule="nonzero"/>
		</g>
	</g>
</svg>
