<svg width="144.029297" height="131.415527" viewBox="0 0 144.029 131.416" fill="none" xmlns="http://www.w3.org/2000/svg" xmlns:xlink="http://www.w3.org/1999/xlink">
	<desc>
			Created with Pixso.
	</desc>
	<defs/>
	<mask id="mask1_43185" mask-type="alpha" maskUnits="userSpaceOnUse" x="0.000000" y="0.000000" width="144.029297" height="131.415527">
		<g style="mix-blend-mode:normal">
			<rect id="Rectangle 4176" y="20.017578" width="127.960945" height="112.786743" transform="rotate(-9 0.000000 20.017578)" fill="#C4C4C4" fill-opacity="1.000000"/>
		</g>
	</mask>
	<g mask="url(#mask1_43185)">
		<g style="mix-blend-mode:normal">
			<path id="Path 42154" d="M134.87 112.52L32.87 128.67C26.77 129.64 21.05 125.48 20.08 119.38L17.74 104.59C16.77 98.49 20.93 92.77 27.03 91.8L129.03 75.65C128.31 76.36 120.56 84.28 122.49 95.81C124.39 107.06 133.89 112.03 134.87 112.52Z" fill="#70C4E8" fill-opacity="1.000000" fill-rule="nonzero"/>
		</g>
	</g>
	<g mask="url(#mask1_43185)">
		<g style="mix-blend-mode:normal">
			<path id="Path 42155" d="M134.87 112.52L50.44 125.89C44.34 126.86 38.62 122.7 37.65 116.6L35.31 101.81C34.34 95.71 38.5 89.99 44.6 89.02L129.03 75.65C128.31 76.36 120.56 84.28 122.49 95.81C124.39 107.06 133.89 112.03 134.87 112.52Z" fill="#2D97D1" fill-opacity="1.000000" fill-rule="nonzero"/>
		</g>
	</g>
	<g mask="url(#mask1_43185)">
		<g style="mix-blend-mode:normal">
			<path id="Path 42156" d="M134.92 112.84L32.92 128.99C26.66 129.98 20.75 125.7 19.76 119.43L17.42 104.64C16.43 98.38 20.72 92.48 26.98 91.49L128.98 75.33C129.12 75.31 129.25 75.38 129.32 75.5C129.38 75.63 129.36 75.78 129.26 75.87C128.4 76.72 120.91 84.48 122.81 95.75C124.66 106.76 133.96 111.71 135.02 112.23C135.14 112.3 135.21 112.43 135.19 112.57C135.17 112.7 135.06 112.81 134.92 112.84ZM27.08 92.12C21.16 93.06 17.11 98.63 18.05 104.54L20.39 119.33C21.33 125.25 26.9 129.3 32.82 128.36L133.9 112.35C131.26 110.81 123.83 105.69 122.18 95.86C120.48 85.77 126.09 78.42 128.16 76.11L27.08 92.12Z" fill="#000307" fill-opacity="1.000000" fill-rule="nonzero"/>
		</g>
	</g>
	<g mask="url(#mask1_43185)">
		<g style="mix-blend-mode:normal">
			<path id="Path 42157" d="M134.52 110.31L102.45 115.39C95.23 116.54 88.44 111.61 87.3 104.38L86.2 97.43C85.05 90.2 89.98 83.42 97.21 82.27L129.28 77.19C128.5 78.07 122.27 85.38 124.15 95.54C125.91 105.06 133.4 109.65 134.52 110.31Z" fill="#EFEFEF" fill-opacity="1.000000" fill-rule="nonzero"/>
		</g>
	</g>
	<g mask="url(#mask1_43185)">
		<g style="mix-blend-mode:normal">
			<path id="Path 42158" d="M133.14 111.8C133.07 111.81 132.99 111.79 132.92 111.75L131.7 111.01C131.59 110.94 131.53 110.8 131.55 110.67C131.58 110.54 131.68 110.44 131.82 110.42L133.63 110.13C131.03 108.42 125.36 103.84 123.84 95.6C122.19 86.69 126.64 79.97 128.49 77.64L127.28 77.83C127.14 77.86 127 77.78 126.94 77.66C126.88 77.53 126.9 77.38 127.01 77.28L127.7 76.65C127.83 76.53 128.03 76.54 128.15 76.66C128.25 76.77 128.26 76.92 128.19 77.04L129.23 76.88C129.36 76.86 129.49 76.92 129.56 77.04C129.62 77.16 129.61 77.3 129.52 77.4C128.36 78.72 122.67 85.76 124.46 95.49C126.15 104.59 133.28 109.2 134.69 110.04C134.8 110.11 134.86 110.24 134.84 110.37C134.81 110.5 134.71 110.61 134.57 110.63L132.77 110.91L133.25 111.21C133.41 111.3 133.45 111.5 133.36 111.65C133.31 111.73 133.23 111.78 133.14 111.8Z" fill="#000307" fill-opacity="1.000000" fill-rule="nonzero"/>
		</g>
	</g>
	<g mask="url(#mask1_43185)">
		<g style="mix-blend-mode:normal">
			<rect id="Rectangle 4155" x="91.032837" y="87.911133" width="26.713291" height="0.639533" transform="rotate(-9 91.032837 87.911133)" fill="#000307" fill-opacity="1.000000"/>
		</g>
	</g>
	<g mask="url(#mask1_43185)">
		<g style="mix-blend-mode:normal">
			<rect id="Rectangle 4156" x="95.854980" y="111.930176" width="26.713291" height="0.639533" transform="rotate(-9 95.854980 111.930176)" fill="#000307" fill-opacity="1.000000"/>
		</g>
	</g>
	<g mask="url(#mask1_43185)">
		<g style="mix-blend-mode:normal">
			<rect id="Rectangle 4157" x="93.148560" y="101.269043" width="26.713291" height="0.639533" transform="rotate(-9 93.148560 101.269043)" fill="#000307" fill-opacity="1.000000"/>
		</g>
	</g>
	<g mask="url(#mask1_43185)">
		<g style="mix-blend-mode:normal">
			<rect id="Rectangle 4158" x="88.165649" y="94.815918" width="26.713291" height="0.639533" transform="rotate(-9 88.165649 94.815918)" fill="#000307" fill-opacity="1.000000"/>
		</g>
	</g>
	<g mask="url(#mask1_43185)">
		<g style="mix-blend-mode:normal">
			<rect id="Rectangle 4159" x="93.767944" y="108.752441" width="26.713291" height="0.639534" transform="rotate(-9 93.767944 108.752441)" fill="#000307" fill-opacity="1.000000"/>
		</g>
	</g>
	<g mask="url(#mask1_43185)">
		<g style="mix-blend-mode:normal">
			<rect id="Rectangle 4160" x="89.608154" y="98.208008" width="26.713291" height="0.639533" transform="rotate(-9 89.608154 98.208008)" fill="#000307" fill-opacity="1.000000"/>
		</g>
	</g>
	<g mask="url(#mask1_43185)">
		<g style="mix-blend-mode:normal">
			<rect id="Rectangle 4161" x="88.367065" y="106.099609" width="26.713926" height="0.639533" transform="rotate(-9 88.367065 106.099609)" fill="#000307" fill-opacity="1.000000"/>
		</g>
	</g>
	<g mask="url(#mask1_43185)">
		<g style="mix-blend-mode:normal">
			<path id="Path 42159" d="M137.79 74.11L35.79 90.26C29.69 91.23 23.97 87.07 23 80.97L20.66 66.18C19.69 60.08 23.85 54.36 29.95 53.39L131.95 37.23C131.23 37.95 123.48 45.87 125.41 57.39C127.31 68.65 136.81 73.61 137.79 74.11Z" fill="#FF9988" fill-opacity="1.000000" fill-rule="nonzero"/>
		</g>
	</g>
	<g mask="url(#mask1_43185)">
		<g style="mix-blend-mode:normal">
			<path id="Path 42160" d="M137.79 74.11L53.36 87.48C47.26 88.44 41.54 84.29 40.57 78.19L38.23 63.39C37.26 57.29 41.42 51.57 47.52 50.61L131.95 37.23C131.23 37.95 123.48 45.87 125.41 57.39C127.31 68.64 136.81 73.61 137.79 74.11Z" fill="#EF4343" fill-opacity="1.000000" fill-rule="nonzero"/>
		</g>
	</g>
	<g mask="url(#mask1_43185)">
		<g style="mix-blend-mode:normal">
			<path id="Path 42161" d="M137.85 74.42L35.84 90.58C29.58 91.57 23.68 87.28 22.68 81.02L20.34 66.23C19.35 59.97 23.64 54.07 29.9 53.07L131.91 36.92C132.04 36.9 132.18 36.97 132.24 37.09C132.3 37.21 132.28 37.36 132.18 37.46C131.32 38.31 123.83 46.07 125.73 57.34C127.59 68.35 136.88 73.29 137.94 73.82C138.06 73.88 138.13 74.02 138.11 74.15C138.09 74.29 137.98 74.4 137.85 74.42ZM30 53.71C24.09 54.64 20.04 60.21 20.97 66.13L23.32 80.92C24.25 86.83 29.83 90.88 35.74 89.95L136.82 73.94C134.18 72.4 126.76 67.28 125.1 57.45C123.4 47.36 129.01 40.01 131.08 37.7L30 53.71Z" fill="#000307" fill-opacity="1.000000" fill-rule="nonzero"/>
		</g>
	</g>
	<g mask="url(#mask1_43185)">
		<g style="mix-blend-mode:normal">
			<path id="Path 42162" d="M137.45 71.9L105.38 76.98C98.15 78.12 91.37 73.19 90.22 65.97L89.12 59.01C87.97 51.79 92.9 45 100.13 43.86L132.2 38.78C131.42 39.66 125.19 46.97 127.07 57.13C128.83 66.64 136.32 71.23 137.45 71.9Z" fill="#EFEFEF" fill-opacity="1.000000" fill-rule="nonzero"/>
		</g>
	</g>
	<g mask="url(#mask1_43185)">
		<g style="mix-blend-mode:normal">
			<path id="Path 42163" d="M136.06 73.38C135.99 73.39 135.91 73.38 135.84 73.34L134.62 72.59C134.51 72.52 134.45 72.39 134.47 72.26C134.5 72.13 134.6 72.02 134.74 72L136.55 71.72C133.95 70.01 128.28 65.43 126.76 57.19C125.11 48.28 129.56 41.56 131.41 39.23L130.2 39.42C130.06 39.44 129.92 39.37 129.86 39.24C129.8 39.12 129.83 38.96 129.93 38.87L130.62 38.23C130.75 38.11 130.95 38.12 131.07 38.25C131.17 38.36 131.18 38.51 131.11 38.63L132.15 38.46C132.28 38.44 132.42 38.51 132.48 38.62C132.55 38.74 132.53 38.89 132.44 38.99C131.28 40.3 125.59 47.35 127.39 57.07C129.03 65.95 135.62 70.45 137.61 71.62C137.72 71.69 137.78 71.83 137.76 71.96C137.73 72.09 137.63 72.19 137.5 72.21L135.7 72.5L136.18 72.79C136.33 72.89 136.38 73.08 136.28 73.23C136.23 73.32 136.15 73.37 136.06 73.38Z" fill="#000307" fill-opacity="1.000000" fill-rule="nonzero"/>
		</g>
	</g>
	<g mask="url(#mask1_43185)">
		<g style="mix-blend-mode:normal">
			<rect id="Rectangle 4162" x="93.953491" y="49.497070" width="26.713291" height="0.639533" transform="rotate(-9 93.953491 49.497070)" fill="#000307" fill-opacity="1.000000"/>
		</g>
	</g>
	<g mask="url(#mask1_43185)">
		<g style="mix-blend-mode:normal">
			<rect id="Rectangle 4163" x="98.775757" y="73.516602" width="26.713926" height="0.639533" transform="rotate(-9 98.775757 73.516602)" fill="#000307" fill-opacity="1.000000"/>
		</g>
	</g>
	<g mask="url(#mask1_43185)">
		<g style="mix-blend-mode:normal">
			<rect id="Rectangle 4164" x="96.069336" y="62.855469" width="26.713291" height="0.639533" transform="rotate(-9 96.069336 62.855469)" fill="#000307" fill-opacity="1.000000"/>
		</g>
	</g>
	<g mask="url(#mask1_43185)">
		<g style="mix-blend-mode:normal">
			<rect id="Rectangle 4165" x="91.086304" y="56.401855" width="26.713926" height="0.639533" transform="rotate(-9 91.086304 56.401855)" fill="#000307" fill-opacity="1.000000"/>
		</g>
	</g>
	<g mask="url(#mask1_43185)">
		<g style="mix-blend-mode:normal">
			<rect id="Rectangle 4166" x="96.689331" y="70.338867" width="26.713291" height="0.639533" transform="rotate(-9 96.689331 70.338867)" fill="#000307" fill-opacity="1.000000"/>
		</g>
	</g>
	<g mask="url(#mask1_43185)">
		<g style="mix-blend-mode:normal">
			<rect id="Rectangle 4167" x="92.528931" y="59.794922" width="26.713291" height="0.639533" transform="rotate(-9 92.528931 59.794922)" fill="#000307" fill-opacity="1.000000"/>
		</g>
	</g>
	<g mask="url(#mask1_43185)">
		<g style="mix-blend-mode:normal">
			<rect id="Rectangle 4168" x="91.289795" y="67.686035" width="26.713291" height="0.639533" transform="rotate(-9 91.289795 67.686035)" fill="#000307" fill-opacity="1.000000"/>
		</g>
	</g>
	<g mask="url(#mask1_43185)">
		<g style="mix-blend-mode:normal">
			<path id="Path 42164" d="M119.25 39.25L17.24 55.4C11.14 56.37 5.42 52.21 4.45 46.11L2.11 31.32C1.14 25.22 5.3 19.5 11.4 18.53L113.41 2.37C112.68 3.09 104.93 11.01 106.86 22.54C108.76 33.79 118.26 38.75 119.25 39.25Z" fill="#FFCD5F" fill-opacity="1.000000" fill-rule="nonzero"/>
		</g>
	</g>
	<g mask="url(#mask1_43185)">
		<g style="mix-blend-mode:normal">
			<path id="Path 42165" d="M119.25 39.25L34.81 52.62C28.71 53.58 22.99 49.43 22.02 43.33L19.68 28.54C18.71 22.43 22.87 16.71 28.97 15.75L113.41 2.37C112.68 3.09 104.93 11.01 106.86 22.54C108.76 33.79 118.26 38.75 119.25 39.25Z" fill="#FEC22C" fill-opacity="1.000000" fill-rule="nonzero"/>
		</g>
	</g>
	<g mask="url(#mask1_43185)">
		<g style="mix-blend-mode:normal">
			<path id="Path 42166" d="M119.3 39.56L17.29 55.72C11.03 56.71 5.13 52.42 4.14 46.16L1.79 31.37C0.8 25.11 5.09 19.21 11.35 18.21L113.36 2.06C113.49 2.04 113.63 2.11 113.69 2.23C113.76 2.35 113.73 2.5 113.63 2.6C112.77 3.45 105.29 11.21 107.18 22.48C109.04 33.48 118.34 38.43 119.39 38.96C119.52 39.02 119.58 39.16 119.56 39.3C119.54 39.43 119.43 39.54 119.3 39.56ZM11.45 18.85C5.54 19.78 1.49 25.35 2.43 31.27L4.77 46.06C5.71 51.97 11.28 56.02 17.19 55.09L118.27 39.08C115.63 37.54 108.21 32.41 106.55 22.59C104.85 12.5 110.46 5.15 112.53 2.84L11.45 18.85Z" fill="#000307" fill-opacity="1.000000" fill-rule="nonzero"/>
		</g>
	</g>
	<g mask="url(#mask1_43185)">
		<g style="mix-blend-mode:normal">
			<path id="Path 42167" d="M118.9 37.04L86.83 42.12C79.6 43.26 72.82 38.33 71.67 31.11L70.57 24.15C69.43 16.93 74.36 10.14 81.58 9L113.65 3.92C112.88 4.8 106.65 12.11 108.52 22.27C110.28 31.79 117.77 36.37 118.9 37.04Z" fill="#EFEFEF" fill-opacity="1.000000" fill-rule="nonzero"/>
		</g>
	</g>
	<g mask="url(#mask1_43185)">
		<g style="mix-blend-mode:normal">
			<path id="Path 42168" d="M117.51 38.52C117.44 38.53 117.36 38.52 117.3 38.48L116.07 37.73C115.96 37.66 115.9 37.53 115.93 37.4C115.95 37.27 116.06 37.16 116.19 37.14L118 36.86C115.4 35.15 109.73 30.57 108.21 22.33C106.56 13.42 111.02 6.7 112.86 4.37L111.65 4.56C111.51 4.58 111.37 4.51 111.31 4.38C111.25 4.26 111.28 4.1 111.38 4.01L112.07 3.37C112.2 3.25 112.4 3.26 112.52 3.39C112.62 3.5 112.63 3.65 112.57 3.77L113.6 3.6C113.74 3.58 113.87 3.65 113.93 3.76C114 3.88 113.98 4.03 113.89 4.13C112.73 5.44 107.04 12.49 108.84 22.21C110.52 31.32 117.65 35.93 119.06 36.76C119.18 36.83 119.24 36.97 119.21 37.1C119.19 37.23 119.08 37.33 118.95 37.35L117.15 37.64L117.63 37.93C117.78 38.03 117.83 38.22 117.74 38.37C117.68 38.46 117.6 38.51 117.51 38.52Z" fill="#000307" fill-opacity="1.000000" fill-rule="nonzero"/>
		</g>
	</g>
	<g mask="url(#mask1_43185)">
		<g style="mix-blend-mode:normal">
			<rect id="Rectangle 4169" x="75.406372" y="14.637207" width="26.713291" height="0.639533" transform="rotate(-9 75.406372 14.637207)" fill="#000307" fill-opacity="1.000000"/>
		</g>
	</g>
	<g mask="url(#mask1_43185)">
		<g style="mix-blend-mode:normal">
			<rect id="Rectangle 4170" x="80.229370" y="38.657227" width="26.713291" height="0.639533" transform="rotate(-9 80.229370 38.657227)" fill="#000307" fill-opacity="1.000000"/>
		</g>
	</g>
	<g mask="url(#mask1_43185)">
		<g style="mix-blend-mode:normal">
			<rect id="Rectangle 4171" x="77.522217" y="27.995605" width="26.713291" height="0.639533" transform="rotate(-9 77.522217 27.995605)" fill="#000307" fill-opacity="1.000000"/>
		</g>
	</g>
	<g mask="url(#mask1_43185)">
		<g style="mix-blend-mode:normal">
			<rect id="Rectangle 4172" x="72.539185" y="21.541992" width="26.713291" height="0.639533" transform="rotate(-9 72.539185 21.541992)" fill="#000307" fill-opacity="1.000000"/>
		</g>
	</g>
	<g mask="url(#mask1_43185)">
		<g style="mix-blend-mode:normal">
			<rect id="Rectangle 4173" x="78.141602" y="35.479980" width="26.713291" height="0.639533" transform="rotate(-9 78.141602 35.479980)" fill="#000307" fill-opacity="1.000000"/>
		</g>
	</g>
	<g mask="url(#mask1_43185)">
		<g style="mix-blend-mode:normal">
			<rect id="Rectangle 4174" x="73.981201" y="24.935059" width="26.713926" height="0.639533" transform="rotate(-9 73.981201 24.935059)" fill="#000307" fill-opacity="1.000000"/>
		</g>
	</g>
	<g mask="url(#mask1_43185)">
		<g style="mix-blend-mode:normal">
			<rect id="Rectangle 4175" x="72.742065" y="32.827148" width="26.713291" height="0.639533" transform="rotate(-9 72.742065 32.827148)" fill="#000307" fill-opacity="1.000000"/>
		</g>
	</g>
	<g mask="url(#mask1_43185)">
		<g style="mix-blend-mode:normal">
			<path id="Path 42169" d="M52.56 61.27C52.88 63.25 50.6 65.25 47.49 65.75C44.37 66.24 41.59 65.04 41.28 63.06C40.96 61.08 43.24 59.08 46.35 58.58C49.47 58.09 52.25 59.29 52.56 61.27Z" fill="#F17762" fill-opacity="1.000000" fill-rule="nonzero"/>
		</g>
	</g>
	<g mask="url(#mask1_43185)">
		<g style="mix-blend-mode:normal">
			<path id="Path 42170" d="M98.45 54C98.76 55.98 96.49 57.99 93.37 58.48C90.25 58.97 87.47 57.77 87.16 55.79C86.85 53.81 89.12 51.81 92.24 51.31C95.35 50.82 98.13 52.02 98.45 54Z" fill="#F17762" fill-opacity="1.000000" fill-rule="nonzero"/>
		</g>
	</g>
	<g mask="url(#mask1_43185)">
		<g style="mix-blend-mode:normal">
			<path id="Path 42171" d="M59.16 51.36C59.76 55.1 56.67 58.69 52.26 59.39C47.86 60.09 43.81 57.62 43.22 53.89C42.63 50.16 45.72 46.56 50.12 45.87C54.52 45.17 58.57 47.63 59.16 51.36Z" fill="#FCF9F0" fill-opacity="1.000000" fill-rule="nonzero"/>
		</g>
	</g>
	<g mask="url(#mask1_43185)">
		<g style="mix-blend-mode:normal">
			<path id="Path 42172" d="M57.91 52.71C58.4 55.83 56.02 58.79 52.58 59.34C49.14 59.88 45.95 57.8 45.46 54.68C44.97 51.56 47.35 48.59 50.79 48.05C54.23 47.51 57.41 49.59 57.91 52.71Z" fill="#1E222D" fill-opacity="1.000000" fill-rule="nonzero"/>
		</g>
	</g>
	<g mask="url(#mask1_43185)">
		<g style="mix-blend-mode:normal">
			<path id="Path 42173" d="M53.99 51.17C54.22 52.58 53.07 53.94 51.44 54.2C49.81 54.45 48.3 53.52 48.08 52.11C47.86 50.7 49 49.35 50.63 49.09C52.27 48.83 53.77 49.76 53.99 51.17Z" fill="#FBFDFC" fill-opacity="1.000000" fill-rule="nonzero"/>
		</g>
	</g>
	<g mask="url(#mask1_43185)">
		<g style="mix-blend-mode:normal">
			<path id="Path 42174" d="M54.04 44.06C52.74 43.13 51.19 42.68 49.59 42.76C47.97 42.84 46.43 43.59 45.14 44.54C42.87 46.2 41.21 48.88 41.24 51.74C41.24 52.26 41.53 52.74 42.09 52.8C42.55 52.85 43.15 52.48 43.15 51.96C43.12 49.67 44.3 47.64 46.07 46.24C48.07 44.65 50.71 44.04 52.91 45.61C53.92 46.33 55.05 44.77 54.04 44.06Z" fill="#322D1A" fill-opacity="1.000000" fill-rule="nonzero"/>
		</g>
	</g>
	<g mask="url(#mask1_43185)">
		<g style="mix-blend-mode:normal">
			<path id="Path 42175" d="M77.82 48.41C78.41 52.14 82.46 54.61 86.86 53.91C91.27 53.21 94.35 49.62 93.76 45.88C93.17 42.15 89.12 39.69 84.72 40.39C80.32 41.08 77.23 44.68 77.82 48.41Z" fill="#FCF9F0" fill-opacity="1.000000" fill-rule="nonzero"/>
		</g>
	</g>
	<g mask="url(#mask1_43185)">
		<g style="mix-blend-mode:normal">
			<path id="Path 42176" d="M79.43 49.3C79.92 52.42 83.11 54.5 86.55 53.96C89.99 53.41 92.37 50.45 91.88 47.33C91.38 44.21 88.2 42.13 84.76 42.67C81.32 43.21 78.94 46.18 79.43 49.3Z" fill="#1E222D" fill-opacity="1.000000" fill-rule="nonzero"/>
		</g>
	</g>
	<g mask="url(#mask1_43185)">
		<g style="mix-blend-mode:normal">
			<path id="Path 42177" d="M82.68 46.63C82.9 48.04 84.41 48.97 86.04 48.71C87.67 48.46 88.81 47.1 88.59 45.69C88.37 44.28 86.86 43.35 85.23 43.61C83.6 43.87 82.46 45.22 82.68 46.63Z" fill="#FBFDFC" fill-opacity="1.000000" fill-rule="nonzero"/>
		</g>
	</g>
	<g mask="url(#mask1_43185)">
		<g style="mix-blend-mode:normal">
			<path id="Path 42178" d="M81.99 41C83.6 38.83 86.29 38.6 88.69 39.49C90.8 40.28 92.55 41.84 93.24 44.02C93.39 44.52 94.08 44.69 94.51 44.5C95.03 44.26 95.14 43.73 94.99 43.23C94.13 40.5 91.72 38.47 89.05 37.58C87.56 37.09 85.9 36.85 84.36 37.24C82.78 37.64 81.41 38.57 80.43 39.88C79.7 40.87 81.25 42 81.99 41Z" fill="#322D1A" fill-opacity="1.000000" fill-rule="nonzero"/>
		</g>
	</g>
	<g mask="url(#mask1_43185)">
		<g style="mix-blend-mode:normal">
			<path id="Path 42179" d="M62.55 56.82C63.13 56.18 66.26 59.94 70.32 59.22C74.52 58.46 76.22 53.52 76.96 53.9C77.97 54.41 76.98 64.89 71.4 65.75C66.03 66.58 61.75 57.69 62.55 56.82Z" fill="#1E222D" fill-opacity="1.000000" fill-rule="nonzero"/>
		</g>
	</g>
	<g mask="url(#mask1_43185)">
		<g style="mix-blend-mode:normal">
			<path id="Path 42180" d="M72.74 61.94C72.33 62.09 72.05 62.48 71.67 62.68C70.98 63.04 70.15 62.75 69.39 62.65C69.03 62.6 68.65 62.6 68.35 62.79C67.89 63.09 67.82 63.78 68.09 64.26C68.35 64.74 68.87 65.02 69.4 65.18C70.29 65.43 71.27 65.36 72.11 64.98C72.96 64.6 73.66 63.91 74.05 63.07C74.12 62.94 74.17 62.8 74.14 62.66C74.02 62.04 73.29 61.73 72.74 61.94Z" fill="#C34972" fill-opacity="1.000000" fill-rule="nonzero"/>
		</g>
	</g>
</svg>
