<svg width="111.385742" height="87.030029" viewBox="0 0 111.386 87.03" fill="none" xmlns="http://www.w3.org/2000/svg" xmlns:xlink="http://www.w3.org/1999/xlink">
	<desc>
			Created with Pixso.
	</desc>
	<defs/>
	<mask id="mask1_31616" mask-type="alpha" maskUnits="userSpaceOnUse" x="0.000000" y="0.000000" width="111.385742" height="87.030029">
		<g style="mix-blend-mode:normal">
			<rect id="Rectangle 3408" width="111.385742" height="87.029976" fill="#C4C4C4" fill-opacity="1.000000"/>
		</g>
	</mask>
	<g mask="url(#mask1_31616)">
		<g style="mix-blend-mode:normal">
			<path id="Path 24068" d="M104.63 49.47C105.98 49.49 107.2 49.15 108.3 48.51C108.68 48.3 109.03 48.06 109.38 47.78C110.16 47.16 110.76 46.4 111.11 45.45C111.64 43.98 111.41 42.65 110.31 41.55C108.99 40.22 107.32 39.64 105.49 39.62C104.59 39.61 103.7 39.96 102.77 39.83C102.56 39.8 102.31 39.96 102.1 40.08C99.96 41.33 98.98 43.81 99.64 46.27C99.82 46.91 100.11 47.46 100.52 47.92C101.41 48.93 102.84 49.49 104.63 49.47ZM102.15 42.51C103.05 42.39 103.83 42.27 104.61 42.18C105.86 42.05 107.03 42.37 108.09 43.01C108.91 43.51 109.05 44.25 108.52 45.03C107.42 46.67 104.97 47.32 103.13 46.7C102.52 46.49 102.14 46.02 101.94 45.4C101.68 44.62 101.74 43.7 102.15 42.51Z" fill="#000000" fill-opacity="1.000000" fill-rule="nonzero"/>
		</g>
	</g>
	<g mask="url(#mask1_31616)">
		<g style="mix-blend-mode:normal">
			<path id="Path 24069" d="M100.52 47.92C101.41 48.93 102.84 49.49 104.63 49.48C105.98 49.49 107.2 49.15 108.31 48.51C107.2 49.15 105.98 49.49 104.63 49.48C102.84 49.49 101.41 48.93 100.52 47.92Z" fill="#000000" fill-opacity="1.000000" fill-rule="nonzero"/>
		</g>
	</g>
	<g mask="url(#mask1_31616)">
		<g style="mix-blend-mode:normal">
			<path id="Path 24070" d="M104.76 45.69C105.24 45.7 105.68 45.29 105.71 44.81C105.74 44.34 105.33 43.9 104.84 43.88C104.32 43.85 103.91 44.23 103.9 44.74C103.89 45.25 104.28 45.68 104.76 45.69Z" fill="#000000" fill-opacity="1.000000" fill-rule="nonzero"/>
		</g>
	</g>
	<g mask="url(#mask1_31616)">
		<g style="mix-blend-mode:normal">
			<path id="Path 24071" d="M11.54 58.23C11.72 57.72 11.94 57.2 12.01 56.66C12.05 56.37 11.81 56.04 11.68 55.7C10.63 56.38 10.64 56.38 10.19 57.15C8.76 59.6 7.87 62.24 7.29 65.02C6.64 68.11 6.89 71.09 8.09 74C8.2 74.28 8.3 74.57 8.45 74.84C8.75 75.42 9.23 75.7 9.59 75.53C10.06 75.32 10.12 74.87 10.1 74.44C10.07 73.9 9.97 73.35 9.85 72.82C9.43 71.07 9.39 69.3 9.56 67.53C9.87 64.36 10.48 61.25 11.54 58.23Z" fill="#000000" fill-opacity="1.000000" fill-rule="nonzero"/>
		</g>
	</g>
	<g mask="url(#mask1_31616)">
		<g style="mix-blend-mode:normal">
			<path id="Path 24072" d="M94.61 73.13C94.64 73.34 94.84 73.61 95.03 73.67C95.21 73.73 95.54 73.64 95.68 73.5C95.93 73.24 96.14 72.92 96.26 72.59C96.9 70.8 97.37 68.97 97.48 67.03C97.26 65.71 97.06 64.39 96.81 63.08C96.53 61.6 95.73 60.37 94.85 59.19C94.74 59.04 94.63 58.86 94.47 58.8C94.21 58.69 93.89 58.56 93.64 58.62C93.29 58.69 93.25 59.08 93.32 59.37C93.43 59.84 93.59 60.31 93.8 60.74C94.29 61.73 94.59 62.79 94.74 63.88C95.13 66.61 95.4 69.34 94.64 72.06C94.55 72.39 94.55 72.78 94.61 73.13Z" fill="#000000" fill-opacity="1.000000" fill-rule="nonzero"/>
		</g>
	</g>
	<g mask="url(#mask1_31616)">
		<g style="mix-blend-mode:normal">
			<path id="Path 24073" d="M76.72 14.73C76.79 15.24 77.51 15.46 77.86 15.09C78.06 14.87 78.26 14.6 78.33 14.33C78.57 13.39 78.75 12.44 78.96 11.5C78.84 9.24 78.15 7.26 76.75 5.58C76.53 5.31 76.23 5.07 75.92 4.92C75.75 4.84 75.45 4.95 75.27 5.06C75.15 5.14 75.07 5.4 75.1 5.54C75.18 5.89 75.31 6.24 75.47 6.56C76.57 8.81 76.93 11.18 76.72 13.65C76.69 14.01 76.67 14.38 76.72 14.73Z" fill="#000000" fill-opacity="1.000000" fill-rule="nonzero"/>
		</g>
	</g>
	<g mask="url(#mask1_31616)">
		<g style="mix-blend-mode:normal">
			<path id="Path 24074" d="M13 35.44C12.41 32.52 10.18 30.67 7.01 30.65C6.2 30.61 5.29 30.74 4.51 31.29C3.36 32.1 2.26 32.97 1.38 34.09C0.8 34.82 0.4 35.64 0.18 36.54C-0.71 40.08 1.75 43.28 5.39 43.33C8.4 43.37 11.79 41 12.75 38.15C13.05 37.28 13.19 36.39 13 35.44ZM10.11 37.26C9.41 38.92 7.25 40.33 5.45 40.3C4.15 40.27 3.27 39.62 2.9 38.36C2.52 37.07 2.52 35.51 4.07 34.47C4.42 34.23 4.73 33.93 5.08 33.68C5.75 33.21 6.14 33.1 7.13 33.12C7.38 33.16 7.81 33.18 8.22 33.3C9.87 33.79 10.77 35.7 10.11 37.26Z" fill="#000000" fill-opacity="1.000000" fill-rule="nonzero"/>
		</g>
	</g>
	<g mask="url(#mask1_31616)">
		<g style="mix-blend-mode:normal">
			<path id="Path 24075" d="M6.88 35.31C6.18 35.31 5.58 35.89 5.57 36.58C5.55 37.33 6.23 38 6.97 37.96C7.65 37.92 8.17 37.31 8.16 36.59C8.14 35.85 7.6 35.31 6.88 35.31Z" fill="#000000" fill-opacity="1.000000" fill-rule="nonzero"/>
		</g>
	</g>
	<g mask="url(#mask1_31616)">
		<g style="mix-blend-mode:normal">
			<path id="Path 24076" d="M20.23 77.94C20.46 78.01 20.71 78.04 20.94 78.09C23.19 78.57 25.45 78.52 27.71 78.28C30.95 77.95 34.12 77.3 37.22 76.32C37.61 76.2 38.03 76.17 38.46 76.09C38.78 76.95 39.04 77.7 39.33 78.44C40.1 80.45 41.08 82.35 42.52 83.98C45.21 87.02 48.98 87.83 52.69 86.21C54.23 85.54 55.56 84.58 56.76 83.42C58.4 81.83 59.75 80.02 60.93 78.07C61.17 77.67 61.46 77.29 61.77 76.84C62.48 77.09 63.11 77.31 63.73 77.55C68.83 79.52 74.08 80.44 79.56 79.94C81.28 79.78 82.97 79.47 84.54 78.77C88.79 76.9 91.38 73.74 91.98 69.06C92.27 66.82 91.96 64.67 91.29 62.54C90.53 60.13 89.43 57.87 88.05 55.77C86.6 53.57 85.03 51.46 83.5 49.31C83.15 48.82 82.78 48.34 82.4 47.83C82.77 47.39 83.09 47.03 83.39 46.65C84.42 45.35 85.49 44.09 86.45 42.74C87.94 40.63 89.11 38.35 89.8 35.84C90.35 33.86 90.62 31.85 90.06 29.85C88.92 25.85 86.52 23.04 82.26 22.21C81.01 21.97 79.72 21.91 78.44 21.86C77.4 21.81 76.35 21.9 75.31 21.9C74.97 21.9 74.62 21.81 74.17 21.75C74.17 21.17 74.19 20.69 74.17 20.21C74.07 17.89 74.03 15.56 73.86 13.24C73.7 11.04 73.21 8.89 72.47 6.8C71.82 4.98 70.81 3.39 69.44 2.04C68.26 0.88 66.85 0.18 65.21 0.03C63.49 -0.12 61.91 0.14 60.76 1.63C60.35 2.16 59.87 2.64 59.44 3.16C55.9 7.47 52.69 12.02 49.96 16.9C49.76 17.25 49.47 17.54 49.16 17.95C45.87 15.51 42.43 13.53 38.92 11.73C38.64 10.06 37.78 8.95 36.26 8.4C34.73 7.84 33.38 8.35 32.18 9.18C31.37 9.07 30.64 8.99 29.92 8.86C28.14 8.54 26.38 8.66 24.62 8.97C22.67 9.32 21.21 10.3 20.53 12.23C20.09 13.5 19.61 14.76 19.24 16.06C18.64 18.19 18.33 20.38 18.49 22.6C19.01 30.09 20.9 37.19 24.55 43.79C24.81 44.27 25.05 44.75 25.35 45.32C24.89 45.83 24.45 46.33 24 46.81C20.62 50.47 17.66 54.44 15.32 58.84C14.01 61.29 13.05 63.85 12.68 66.63C11.93 72.28 14.72 76.5 20.23 77.94ZM38.06 48.86C37.73 50.97 37.46 53.09 37.17 55.21C37.13 55.5 37.08 55.79 37.02 56.23C36.72 56.06 36.49 55.98 36.35 55.82C33.7 52.94 31.32 49.84 29.18 46.55C29.12 46.46 29.11 46.33 29.07 46.21C30.77 43.88 38.48 37.73 40.69 36.95C40.97 37.45 40.68 37.89 40.55 38.35C39.55 41.81 38.62 45.29 38.06 48.86ZM69.88 38.89C69.85 39.33 69.86 39.87 69.77 40.4C68.79 46.14 67.68 51.84 66.21 57.47C65.99 58.3 65.61 58.88 64.91 59.37C60.68 62.3 56.34 65.04 51.82 67.51C51.56 67.66 51.27 67.76 50.85 67.95C46.76 65.36 43.1 62.42 39.68 59.24C39.53 56.98 39.9 54.86 40.18 52.74C40.93 47.02 42.31 41.44 44.12 35.97C44.78 33.99 44.39 34.39 46.36 33.31C50.07 31.29 53.93 29.6 57.87 28.15C59.25 28.92 67.11 35.96 69.88 38.89ZM60.93 27.19C63.51 25.97 69.32 24.49 71.45 24.48C71.8 25.68 71.37 26.88 71.32 28.07C71.26 29.29 71.06 30.51 70.96 31.72C70.87 32.93 70.66 34.1 70.49 35.28C70.23 35.25 70.07 35.28 70 35.22C67.03 32.59 64.06 29.96 60.93 27.19ZM40.14 71.36C39.72 68.65 39.48 65.93 39.55 63.09C40.2 63.07 40.48 63.53 40.84 63.79C41.23 64.08 41.59 64.42 41.97 64.73C42.34 65.04 42.73 65.35 43.11 65.66C43.54 66 43.97 66.34 44.41 66.68C44.79 66.98 45.19 67.27 45.58 67.56C45.98 67.85 46.38 68.13 46.77 68.42C47.15 68.71 47.51 69.01 48.02 69.41C45.54 70.69 43.12 71.66 40.56 72.58C40.41 72.13 40.2 71.76 40.14 71.36ZM59.12 75.93C57.68 78.82 55.74 81.32 53.01 83.09C49.42 85.42 46.09 84.69 43.67 81.14C42.45 79.36 41.62 77.4 41.08 75.15C44.3 73.75 47.38 72.42 50.56 71.04C53.37 72.57 56.26 74.14 59.11 75.69C59.12 75.81 59.14 75.88 59.12 75.93ZM62.47 66.83C61.79 67.48 61.49 68.31 61.77 69.17C62.07 70.09 61.83 70.84 61.42 71.61C61.14 72.14 61.04 72.78 60.42 73.19C58.1 72.18 55.86 70.97 53.49 69.57C55.41 68.23 57.31 67.29 59.09 66.16C60.83 65.05 62.59 63.96 64.41 62.82C64.35 64.37 64.18 64.88 63.35 65.9C63.08 66.23 62.78 66.53 62.47 66.83ZM86.88 59.29C87.92 61.24 88.79 63.27 89.15 65.47C90.15 71.5 86.59 75.54 82.04 76.66C81.51 76.79 80.97 76.91 80.43 77C76.24 77.69 72.13 77.21 68.07 76.11C66.71 75.74 65.4 75.23 64.07 74.76C63.74 74.64 63.43 74.44 63.02 74.23C63.42 73.33 63.79 72.5 64.18 71.62C64.63 71.56 65.05 71.52 65.46 71.45C66.27 71.31 66.97 70.94 67.53 70.34C68.56 69.25 68.71 67.69 67.85 66.46C67.54 66.02 67.13 65.64 66.7 65.15C66.98 63.59 67.53 62.04 68.04 60.48C68.18 60.07 68.67 59.75 69.05 59.46C72.28 57.03 75.4 54.47 78.38 51.73C79 51.15 79.63 50.57 80.28 49.96C80.54 50.18 80.76 50.3 80.9 50.49C83.1 53.28 85.21 56.14 86.88 59.29ZM74.1 24.18C74.31 24.1 74.47 23.97 74.64 23.97C76.96 23.92 79.27 23.96 81.59 24.27C85.49 24.79 87.76 28.84 87.8 31.69C87.82 33.37 87.47 34.97 86.86 36.52C85.51 40 83.32 42.92 80.9 45.54C78.15 42.85 75.53 40.29 72.75 37.56C73.18 33.27 73.64 28.73 74.1 24.18ZM78.55 47.73C77.43 49.38 71.46 54.63 69.29 55.82C70.25 50.97 71.19 46.22 72.16 41.33C73.65 42.27 76.88 45.53 78.55 47.73ZM51.91 18.4C54.18 14.13 56.67 9.99 59.51 6.06C60.45 4.77 61.36 3.47 62.35 2.06C62.86 2.05 63.47 1.99 64.07 2.02C65.74 2.11 67.15 2.74 68.25 4.02C69.31 5.24 70.11 6.62 70.52 8.17C70.91 9.65 71.26 11.15 71.47 12.66C71.87 15.57 71.89 18.51 71.73 21.45C71.72 21.68 71.59 21.9 71.54 22.07C69.29 22.49 67.11 22.84 64.97 23.34C62.83 23.83 60.73 24.48 58.47 25.1C56.18 23.32 53.82 21.49 51.38 19.59C51.58 19.15 51.72 18.76 51.91 18.4ZM50.1 21.94C51.39 22.51 54.18 24.66 55.49 26.1C54.1 26.88 52.58 27.28 51.16 27.92C49.73 28.58 48.28 29.2 46.77 29.86C46.72 29.66 46.61 29.48 46.65 29.36C47.67 26.82 48.83 24.35 50.1 21.94ZM21.32 27.28C20.98 25.41 20.76 23.53 20.55 21.64C20.46 20.8 20.53 19.93 20.56 19.08C20.64 16.96 21.28 15.02 22.35 13.18C23.08 11.94 24.08 11.27 25.45 11.22C26.79 11.17 28.14 11.24 29.48 11.31C30.02 11.34 30.55 11.53 31.06 11.64C32.78 15 34.42 15.61 37.69 14.13C40 14.8 45.41 17.95 48.06 20.21C47.9 20.55 47.79 20.84 47.65 21.11C45.95 24.37 44.39 27.69 43.04 31.1C42.78 31.76 42.42 32.24 41.79 32.6C36.77 35.47 32.19 38.93 27.95 42.86C27.78 43.02 27.57 43.15 27.38 43.29C26.76 42.94 26.6 42.32 26.31 41.79C23.84 37.23 22.25 32.36 21.32 27.28ZM16.35 63.55C16.91 62.19 17.52 60.85 18.24 59.58C20.46 55.61 23.23 52.04 26.33 48.72C26.53 48.51 26.77 48.35 27.06 48.11C27.34 48.47 27.57 48.74 27.78 49.04C30.25 52.69 32.97 56.15 36.06 59.3C36.56 59.81 36.85 60.32 36.83 61.07C36.74 65.17 37.05 69.25 37.83 73.46C36.05 74.21 34.33 74.59 32.61 74.97C29.73 75.59 26.83 75.98 23.88 75.88C22.46 75.83 21.08 75.59 19.76 75.06C16.78 73.87 15.37 71.76 15.36 68.55C15.35 66.81 15.7 65.14 16.35 63.55Z" fill="#000000" fill-opacity="1.000000" fill-rule="nonzero"/>
		</g>
	</g>
	<g mask="url(#mask1_31616)">
		<g style="mix-blend-mode:normal">
			<path id="Path 24077" d="M51.06 41.22C48.9 41.4 47.22 42.42 45.85 43.98C43.62 46.5 43.1 49.41 44.46 52.5C45.79 55.53 48.24 57.03 51.68 57.22C52.2 57.13 52.88 57.09 53.52 56.91C58.2 55.63 60.66 50.49 58.79 45.95C57.67 43.23 54.82 40.9 51.06 41.22ZM53.36 54.11C50.47 55.18 47.24 53.34 46.72 50.23C46.57 49.35 46.59 48.38 46.8 47.52C47.74 43.71 52.08 42.98 54.52 44.85C55.87 45.88 56.65 47.38 56.66 49.09C56.68 51.38 55.38 53.35 53.36 54.11Z" fill="#000000" fill-opacity="1.000000" fill-rule="nonzero"/>
		</g>
	</g>
	<g mask="url(#mask1_31616)">
		<g style="mix-blend-mode:normal">
			<path id="Path 24078" d="M52.21 48.92C51.52 48.88 50.99 49.35 51 49.98C51.01 50.49 51.42 50.9 51.94 50.91C52.6 50.92 53.17 50.43 53.17 49.84C53.18 49.38 52.73 48.96 52.21 48.92Z" fill="#000000" fill-opacity="1.000000" fill-rule="nonzero"/>
		</g>
	</g>
</svg>
