<svg width="74.119141" height="74.471191" viewBox="0 0 74.1191 74.4712" fill="none" xmlns="http://www.w3.org/2000/svg" xmlns:xlink="http://www.w3.org/1999/xlink">
	<desc>
			Created with Pixso.
	</desc>
	<defs/>
	<g style="mix-blend-mode:normal">
		<circle id="Ellipse 390" cx="37.119141" cy="37.000000" r="37.000000" fill="#FCD100" fill-opacity="1.000000"/>
		<circle id="Ellipse 390" cx="37.119141" cy="37.000000" r="36.500000" stroke="#707070" stroke-opacity="0" stroke-width="1.000000"/>
	</g>
	<mask id="mask1_252" mask-type="alpha" maskUnits="userSpaceOnUse" x="0.000000" y="0.386230" width="74.087891" height="74.084961">
		<g style="mix-blend-mode:normal">
			<rect id="Rectangle 3517" y="0.386230" width="74.086998" height="74.084999" fill="#C4C4C4" fill-opacity="1.000000"/>
		</g>
	</mask>
	<g mask="url(#mask1_252)">
		<g style="mix-blend-mode:normal">
			<path id="Path 26195" d="M2.04 37.42C1.04 56.42 17.75 71.46 37.04 72.42C57.04 73.42 71.04 56.42 72.04 37.42C73.05 18.13 56.33 3.39 37.04 2.42C17.04 1.42 3.05 18.13 2.04 37.42Z" stroke="#000000" stroke-opacity="1.000000" stroke-width="4.000000" stroke-linejoin="round"/>
		</g>
	</g>
	<g mask="url(#mask1_252)">
		<g style="mix-blend-mode:normal">
			<path id="Path 26196" d="M22.24 38.02C28.73 40.92 33.34 44.57 36.57 48.79C41.37 39.68 47.14 31.38 54.22 26.28" stroke="#000000" stroke-opacity="1.000000" stroke-width="4.000000" stroke-linejoin="round"/>
		</g>
	</g>
	<g mask="url(#mask1_252)">
		<g style="mix-blend-mode:normal">
			<line id="Line 128" x1="35.042969" y1="2.429199" x2="32.042969" y2="7.429199" stroke="#000000" stroke-opacity="1.000000" stroke-width="2.000000"/>
		</g>
	</g>
	<g mask="url(#mask1_252)">
		<g style="mix-blend-mode:normal">
			<line id="Line 129" x1="42.005859" y1="3.220215" x2="39.996094" y2="7.429199" stroke="#000000" stroke-opacity="1.000000" stroke-width="2.000000"/>
		</g>
	</g>
	<g mask="url(#mask1_252)">
		<g style="mix-blend-mode:normal">
			<line id="Line 130" x1="48.958984" y1="5.286133" x2="45.851562" y2="9.429199" stroke="#000000" stroke-opacity="1.000000" stroke-width="2.000000"/>
		</g>
	</g>
	<g mask="url(#mask1_252)">
		<g style="mix-blend-mode:normal">
			<line id="Line 131" x1="55.289062" y1="8.104004" x2="52.804688" y2="12.945801" stroke="#000000" stroke-opacity="1.000000" stroke-width="2.000000"/>
		</g>
	</g>
	<g mask="url(#mask1_252)">
		<g style="mix-blend-mode:normal">
			<line id="Line 132" x1="60.355469" y1="11.841309" x2="57.250000" y2="16.586426" stroke="#000000" stroke-opacity="1.000000" stroke-width="2.000000"/>
		</g>
	</g>
	<g mask="url(#mask1_252)">
		<g style="mix-blend-mode:normal">
			<line id="Line 133" x1="65.507812" y1="16.585938" x2="62.083984" y2="20.467773" stroke="#000000" stroke-opacity="1.000000" stroke-width="2.000000"/>
		</g>
	</g>
	<g mask="url(#mask1_252)">
		<g style="mix-blend-mode:normal">
			<line id="Line 134" x1="69.681641" y1="21.865234" x2="65.656250" y2="26.429199" stroke="#000000" stroke-opacity="1.000000" stroke-width="2.000000"/>
		</g>
	</g>
	<g mask="url(#mask1_252)">
		<g style="mix-blend-mode:normal">
			<line id="Line 135" x1="3.042969" y1="44.429199" x2="7.042969" y2="42.429199" stroke="#000000" stroke-opacity="1.000000" stroke-width="2.000000"/>
		</g>
	</g>
	<g mask="url(#mask1_252)">
		<g style="mix-blend-mode:normal">
			<line id="Line 136" x1="5.042969" y1="51.429199" x2="9.042969" y2="46.429199" stroke="#000000" stroke-opacity="1.000000" stroke-width="2.000000"/>
		</g>
	</g>
	<g mask="url(#mask1_252)">
		<g style="mix-blend-mode:normal">
			<line id="Line 137" x1="8.042969" y1="56.429199" x2="12.042969" y2="51.429199" stroke="#000000" stroke-opacity="1.000000" stroke-width="2.000000"/>
		</g>
	</g>
	<g mask="url(#mask1_252)">
		<g style="mix-blend-mode:normal">
			<line id="Line 138" x1="12.042969" y1="61.429199" x2="15.042969" y2="56.429199" stroke="#000000" stroke-opacity="1.000000" stroke-width="2.000000"/>
		</g>
	</g>
	<g mask="url(#mask1_252)">
		<g style="mix-blend-mode:normal">
			<line id="Line 139" x1="17.042969" y1="64.429199" x2="22.042969" y2="59.429199" stroke="#000000" stroke-opacity="1.000000" stroke-width="2.000000"/>
		</g>
	</g>
	<g mask="url(#mask1_252)">
		<g style="mix-blend-mode:normal">
			<line id="Line 140" x1="23.042969" y1="68.429199" x2="25.042969" y2="64.429199" stroke="#000000" stroke-opacity="1.000000" stroke-width="2.000000"/>
		</g>
	</g>
	<g mask="url(#mask1_252)">
		<g style="mix-blend-mode:normal">
			<path id="Path 26197" d="M45.91 52.84C46.37 53.22 46.44 53.9 46.06 54.35C45.68 54.81 45 54.88 44.55 54.5C44.09 54.12 44.02 53.45 44.4 52.99C44.78 52.53 45.45 52.46 45.91 52.84Z" fill="#000000" fill-opacity="1.000000" fill-rule="evenodd"/>
		</g>
	</g>
	<g mask="url(#mask1_252)">
		<g style="mix-blend-mode:normal">
			<path id="Path 26198" d="M52.71 58.44C53.17 58.81 53.23 59.49 52.86 59.95C52.48 60.41 51.8 60.47 51.34 60.1C50.89 59.72 50.82 59.04 51.2 58.58C51.57 58.13 52.25 58.06 52.71 58.44Z" fill="#000000" fill-opacity="1.000000" fill-rule="evenodd"/>
		</g>
	</g>
	<g mask="url(#mask1_252)">
		<g style="mix-blend-mode:normal">
			<path id="Path 26199" d="M47.05 59.91C47.51 60.29 47.58 60.97 47.2 61.42C46.82 61.88 46.14 61.95 45.69 61.57C45.23 61.19 45.16 60.52 45.54 60.06C45.91 59.6 46.59 59.53 47.05 59.91Z" fill="#000000" fill-opacity="1.000000" fill-rule="evenodd"/>
		</g>
	</g>
</svg>
