<svg width="143.153320" height="157.208008" viewBox="0 0 143.153 157.208" fill="none" xmlns="http://www.w3.org/2000/svg" xmlns:xlink="http://www.w3.org/1999/xlink">
	<desc>
			Created with Pixso.
	</desc>
	<defs/>
	<mask id="mask1_24310" mask-type="alpha" maskUnits="userSpaceOnUse" x="0.000488" y="0.000000" width="143.152832" height="157.208008">
		<g style="mix-blend-mode:normal">
			<rect id="Rectangle 3672" x="60.112305" width="94.050034" height="128.041748" transform="rotate(28 60.112305 0.000000)" fill="#C4C4C4" fill-opacity="1.000000"/>
		</g>
	</mask>
	<g mask="url(#mask1_24310)">
		<mask id="mask1_24313" mask-type="alpha" maskUnits="userSpaceOnUse" x="0.000488" y="0.000000" width="143.152832" height="157.208008">
			<g style="mix-blend-mode:normal">
				<rect id="Rectangle 3671" x="60.112305" width="94.050034" height="128.041748" transform="rotate(28 60.112305 0.000000)" fill="#C4C4C4" fill-opacity="1.000000"/>
			</g>
		</mask>
		<g mask="url(#mask1_24313)">
			<mask id="mask1_24317" mask-type="alpha" maskUnits="userSpaceOnUse" x="0.000488" y="0.000000" width="143.152832" height="157.208008">
				<g style="mix-blend-mode:normal">
					<rect id="Rectangle 3670" x="60.112305" width="94.050034" height="128.041748" transform="rotate(28 60.112305 0.000000)" fill="#C4C4C4" fill-opacity="1.000000"/>
				</g>
			</mask>
			<g mask="url(#mask1_24317)">
				<g opacity="0.360001" style="mix-blend-mode:hard-light">
					<mask id="mask1_24334" mask-type="alpha" maskUnits="userSpaceOnUse" x="17.038086" y="111.623047" width="54.542969" height="36.525635">
						<g style="mix-blend-mode:normal">
							<rect id="Rectangle 3666" x="22.615723" y="111.623047" width="55.456924" height="11.880960" transform="rotate(28 22.615723 111.623047)" fill="#C4C4C4" fill-opacity="1.000000"/>
						</g>
					</mask>
					<g mask="url(#mask1_24334)">
						<g style="mix-blend-mode:normal">
							<path id="Path 30988" d="M47.09 124.64C60.62 131.83 70.33 140 68.79 142.9C67.25 145.8 55.04 142.32 41.52 135.13C27.99 127.94 18.28 119.76 19.82 116.86C21.36 113.97 33.57 117.45 47.09 124.64Z" fill="#606060" fill-opacity="1.000000" fill-rule="nonzero"/>
						</g>
					</g>
				</g>
			</g>
			<g mask="url(#mask1_24317)">
				<g style="mix-blend-mode:normal">
					<path id="Path 30989" d="M118.19 80.74C117.8 81.5 117.42 82.24 117.02 82.96C116.58 83.77 116.14 84.56 115.7 85.33C115.26 86.11 114.81 86.87 114.37 87.62C113.92 88.37 113.48 89.1 113.02 89.82C111.26 92.62 109.46 95.19 107.63 97.56C107.34 97.92 107.06 98.29 106.78 98.64C104.16 101.93 101.47 104.82 98.75 107.33C98.27 107.77 97.79 108.2 97.31 108.61C96.88 109 96.44 109.37 96.01 109.73C95.46 110.19 94.9 110.63 94.34 111.06C93.46 111.74 92.57 112.39 91.68 113C91.2 113.34 90.71 113.66 90.23 113.98C89.81 114.25 89.35 114.54 88.93 114.79C88.81 114.86 88.7 114.93 88.59 114.99C88.15 115.26 87.72 115.52 87.27 115.77C86.01 116.49 84.74 117.14 83.48 117.73C83.11 117.9 82.76 118.06 82.39 118.22C82.06 118.37 81.72 118.51 81.4 118.65C77.4 120.33 73.43 121.43 69.54 122.08C69.17 122.15 68.78 122.21 68.4 122.27C68.02 122.32 67.65 122.37 67.28 122.42C65.39 122.66 63.53 122.78 61.71 122.84C60.98 122.86 60.26 122.87 59.54 122.85C59.18 122.85 58.82 122.84 58.46 122.84C57.75 122.81 57.05 122.78 56.34 122.74C55.99 122.73 55.65 122.7 55.31 122.67C54.68 122.63 54.03 122.55 53.41 122.48C52.78 122.42 52.16 122.34 51.55 122.26C51.05 122.2 50.55 122.11 50.06 122.04C49.8 122 49.54 121.95 49.29 121.9C48.84 121.83 48.39 121.75 47.96 121.67C47.53 121.59 47.1 121.5 46.68 121.4C46.45 121.36 46.23 121.31 46.02 121.26C45.12 121.07 44.25 120.85 43.4 120.63C43.14 120.56 42.88 120.49 42.62 120.42C42.27 120.32 41.93 120.23 41.59 120.13C41.5 120.1 41.41 120.08 41.33 120.05C40.93 119.94 40.55 119.82 40.17 119.7C39.79 119.58 39.41 119.46 39.04 119.34C37.51 118.84 36.06 118.31 34.72 117.77C34.2 117.58 33.71 117.37 33.22 117.18C31.75 116.55 30.42 115.95 29.26 115.39C28.94 115.22 28.62 115.06 28.32 114.92C27.48 114.49 26.75 114.09 26.13 113.75C24.66 111.53 23.39 109.17 22.37 106.68C21.38 104.34 20.6 101.89 20.06 99.36C20.34 99.5 20.63 99.64 20.94 99.78C28.9 103.59 43.49 108.95 59.97 107.26C62.3 107.02 64.66 106.64 67.05 106.1C67.88 105.91 68.7 105.7 69.53 105.47C84.97 101.24 101.21 89.88 114.76 64.99C115.28 64.03 115.81 63.04 116.32 62.03C116.46 61.77 116.59 61.51 116.72 61.24C117.67 59.37 118.61 57.42 119.53 55.4C119.78 57.87 119.92 60.39 119.95 62.95C120 68.58 119.51 74.38 118.53 80.11C118.42 80.33 118.3 80.54 118.19 80.74Z" fill="#F362C8" fill-opacity="1.000000" fill-rule="nonzero"/>
				</g>
			</g>
			<g mask="url(#mask1_24317)">
				<g style="mix-blend-mode:normal">
					<path id="Path 30990" d="M114.75 64.99C101.2 89.88 84.96 101.24 69.53 105.47C68.7 105.7 67.87 105.91 67.04 106.1C64.66 106.64 62.29 107.02 59.96 107.26C58.73 107.38 57.52 107.48 56.32 107.52C55.77 107.54 55.21 107.56 54.68 107.57C54.11 107.58 53.53 107.58 52.97 107.57C52.41 107.57 51.85 107.56 51.29 107.54C50.74 107.52 50.17 107.49 49.63 107.46C48.61 107.39 47.6 107.31 46.61 107.2C46.33 107.17 46.06 107.15 45.78 107.11C45.44 107.07 45.11 107.03 44.77 106.99C44.17 106.91 43.57 106.82 42.97 106.72C42.53 106.65 42.1 106.57 41.67 106.5C41.17 106.42 40.66 106.32 40.16 106.22C39.66 106.12 39.17 106.02 38.68 105.91C37.77 105.71 36.88 105.5 36.01 105.27C35.01 105.02 34.03 104.75 33.09 104.47C32.65 104.33 32.21 104.2 31.78 104.07C31.35 103.93 30.92 103.79 30.51 103.65C30.17 103.54 29.84 103.42 29.52 103.31C28.62 103 27.75 102.68 26.92 102.36C26.54 102.21 26.17 102.07 25.81 101.92C25.45 101.78 25.09 101.63 24.75 101.48C23.7 101.05 22.73 100.62 21.82 100.2C21.52 100.06 21.23 99.93 20.94 99.79C20.64 99.65 20.34 99.5 20.05 99.36C20.02 99.21 19.99 99.06 19.97 98.92C19.11 94.72 18.85 90.27 19.3 85.64C19.5 83.61 19.82 81.52 20.3 79.42C20.31 79.36 20.33 79.3 20.34 79.24C20.37 79.09 20.4 78.94 20.44 78.78C20.56 78.29 20.69 77.81 20.82 77.32C21.99 72.86 23.8 68.29 26.28 63.61C30.24 56.17 35.67 48.97 41.93 42.61C42.52 42.02 43.11 41.43 43.73 40.85C48.02 36.7 52.67 32.93 57.49 29.75C60.93 27.47 64.46 25.49 68.01 23.87C69.47 23.19 70.94 22.58 72.41 22.04C82.87 18.14 93.21 17.6 101.63 22.07C110.05 26.55 115.38 35.41 118 46.26C118.36 47.78 118.68 49.33 118.94 50.93C119.17 52.38 119.38 53.88 119.53 55.4C118.6 57.42 117.67 59.36 116.72 61.24C116.59 61.5 116.46 61.76 116.32 62.02C115.8 63.04 115.27 64.03 114.75 64.99Z" fill="#F371CC" fill-opacity="1.000000" fill-rule="nonzero"/>
				</g>
			</g>
			<g mask="url(#mask1_24317)">
				<g style="mix-blend-mode:normal">
					<path id="Path 30991" d="M109.32 107.76C105.89 114.22 101.87 119.52 97.43 123.69C96.64 124.45 95.82 125.16 95 125.85C91.4 128.82 87.53 131.14 83.53 132.77C81.02 133.83 78.43 134.6 75.81 135.13C65.44 137.2 54.48 135.29 44.3 129.88C36.7 125.84 30.49 120.33 26.12 113.75C26.73 114.09 27.47 114.49 28.31 114.91C28.61 115.06 28.93 115.22 29.25 115.38C30.41 115.94 31.74 116.55 33.21 117.17C33.69 117.37 34.19 117.57 34.7 117.77C36.05 118.31 37.5 118.83 39.03 119.34C39.4 119.46 39.78 119.58 40.16 119.69C40.53 119.82 40.92 119.94 41.31 120.05C41.4 120.07 41.49 120.1 41.58 120.12C41.92 120.23 42.26 120.32 42.61 120.42C42.87 120.48 43.13 120.56 43.39 120.63C44.24 120.85 45.11 121.07 46.01 121.26C46.22 121.31 46.44 121.36 46.67 121.4C47.09 121.5 47.52 121.59 47.95 121.66C48.38 121.75 48.83 121.83 49.28 121.9C49.53 121.95 49.79 122 50.05 122.04C50.54 122.11 51.04 122.2 51.54 122.25C52.15 122.34 52.77 122.42 53.39 122.48C54.02 122.55 54.65 122.61 55.29 122.66C55.63 122.69 55.98 122.72 56.33 122.74C57.04 122.78 57.74 122.81 58.45 122.83C58.81 122.84 59.17 122.85 59.53 122.85C60.25 122.87 60.97 122.86 61.7 122.84C63.52 122.78 65.38 122.65 67.27 122.42C67.64 122.37 68.02 122.32 68.39 122.27C68.78 122.21 69.16 122.15 69.53 122.08C73.42 121.43 77.39 120.33 81.39 118.65C81.72 118.51 82.05 118.37 82.38 118.22C82.75 118.06 83.1 117.9 83.47 117.73C84.73 117.14 86 116.48 87.26 115.77C87.7 115.52 88.15 115.26 88.58 114.99C88.69 114.93 88.8 114.86 88.92 114.79C89.33 114.53 89.76 114.27 90.18 114C90.66 113.68 91.19 113.34 91.67 113C92.56 112.39 93.45 111.74 94.33 111.06C94.89 110.62 95.45 110.19 96 109.73C96.44 109.36 96.87 109 97.31 108.61C97.78 108.2 98.26 107.77 98.74 107.33C101.46 104.81 104.15 101.93 106.77 98.64C107.06 98.29 107.34 97.93 107.62 97.56C109.45 95.19 111.25 92.62 113.01 89.82C113.47 89.1 113.91 88.37 114.36 87.62C114.81 86.87 115.26 86.11 115.69 85.33C116.13 84.56 116.57 83.77 117.01 82.96C117.41 82.24 117.79 81.5 118.19 80.74C118.29 80.54 118.41 80.32 118.51 80.11C118.47 80.37 118.42 80.62 118.37 80.89C118.22 81.74 118.06 82.59 117.88 83.44C116.1 92.06 113.22 100.44 109.32 107.76Z" fill="#E65CBD" fill-opacity="1.000000" fill-rule="nonzero"/>
				</g>
			</g>
			<g mask="url(#mask1_24317)">
				<g style="mix-blend-mode:normal">
					<path id="Path 30992" d="M109.36 107.69C105.93 114.15 101.91 119.44 97.47 123.61C96.68 124.37 95.86 125.09 95.04 125.77L94.41 125.48C90.66 123.43 91.16 118.53 91.63 113.78C91.66 113.49 91.68 113.21 91.72 112.93C92.08 109.14 92.26 105.69 90.12 104.53C87.82 103.27 84.77 105.72 81.54 108.32C77.82 111.3 73.98 114.39 70.22 112.38C67.89 111.13 67.18 108.76 67.08 106.02C67.02 104.34 67.19 102.52 67.36 100.7C67.74 96.58 68.09 92.69 65.77 91.45C63.45 90.22 60.43 92.7 57.22 95.31C53.53 98.34 49.72 101.46 45.94 99.47C42.17 97.48 42.58 92.57 42.98 87.82C43.33 83.69 43.65 79.79 41.33 78.59C39.01 77.37 35.99 79.87 32.8 82.5C29.14 85.55 25.36 88.71 21.57 86.75L19.35 85.57C19.54 83.53 19.87 81.45 20.34 79.34C20.35 79.28 20.37 79.23 20.38 79.17C20.41 79.02 20.45 78.87 20.48 78.71C20.59 78.17 20.73 77.64 20.87 77.09C20.86 77.14 20.86 77.2 20.86 77.25C22.03 72.79 23.84 68.21 26.32 63.54C30.28 56.09 35.71 48.9 41.97 42.54C42.56 41.94 43.16 41.36 43.77 40.78C44.04 41.17 44.39 41.5 44.82 41.72C47.17 42.94 50.19 40.45 53.4 37.81C55.75 35.88 58.15 33.91 60.58 33.24C61.97 32.87 63.37 32.92 64.76 33.65C64.95 33.75 65.12 33.86 65.29 33.97C66.41 34.7 67.11 35.74 67.53 36.94C68.26 39.06 68.14 41.75 67.93 44.44C67.91 44.75 67.88 45.05 67.86 45.36C67.54 49.5 67.22 53.4 69.56 54.62C71.9 55.86 74.94 53.39 78.16 50.78C80.47 48.92 82.81 47.02 85.18 46.32C86.65 45.9 88.11 45.93 89.56 46.71C91.02 47.48 91.87 48.67 92.34 50.13C93.09 52.48 92.83 55.5 92.57 58.44C92.21 62.57 91.86 66.47 94.19 67.72C96.52 68.98 99.58 66.54 102.83 63.95C105.17 62.08 107.58 60.16 110 59.52C111.41 59.14 112.84 59.21 114.26 59.97C115.2 60.48 115.88 61.15 116.36 61.96C116.6 62.34 116.79 62.76 116.94 63.21C117.76 65.59 117.47 68.69 117.18 71.73C116.81 75.54 116.46 79.14 118.23 80.67C118.29 80.73 118.35 80.78 118.41 80.82C118.26 81.68 118.11 82.53 117.93 83.38C116.15 91.99 113.26 100.36 109.36 107.69Z" fill="#FF9FC6" fill-opacity="1.000000" fill-rule="nonzero"/>
				</g>
			</g>
			<g mask="url(#mask1_24317)">
				<g style="mix-blend-mode:normal">
					<path id="Path 30993" d="M118.98 50.85C105.91 47.62 93.57 42.22 82.4 34.88C79.42 32.93 76.52 30.83 73.72 28.59C71.79 27.07 69.89 25.46 68.05 23.8C69.51 23.11 70.98 22.51 72.45 21.96C85.6 33.42 101.19 41.71 118.04 46.19C118.4 47.71 118.72 49.26 118.98 50.85Z" fill="#FFF6E9" fill-opacity="1.000000" fill-rule="nonzero"/>
				</g>
			</g>
			<g mask="url(#mask1_24317)">
				<g style="mix-blend-mode:normal">
					<path id="Path 30994" d="M83.57 132.7C81.06 133.75 78.47 134.53 75.85 135.05C63.74 131.48 52.15 126.4 41.36 119.97C34.72 116.02 28.39 111.56 22.4 106.6C21.42 104.27 20.64 101.81 20.09 99.28C20.06 99.14 20.03 98.99 20.01 98.85C20.33 99.14 20.65 99.43 20.97 99.71C31.34 108.96 42.9 116.66 55.33 122.59C64.32 126.91 73.79 130.31 83.57 132.7Z" fill="#FFF6E9" fill-opacity="1.000000" fill-rule="nonzero"/>
				</g>
			</g>
			<g mask="url(#mask1_24317)">
				<g style="mix-blend-mode:normal">
					<path id="Path 30995" d="M117.93 83.37C117.8 83.32 117.67 83.26 117.55 83.19C117.38 83.1 117.22 82.99 117.06 82.88C113.79 80.67 114.23 75.97 114.67 71.44C114.9 69.03 115.11 66.7 114.79 64.92C114.56 63.66 114.07 62.67 113.09 62.14C110.75 60.87 107.68 63.31 104.43 65.89C100.7 68.87 96.84 71.95 93.03 69.9C89.21 67.86 89.65 62.93 90.06 58.18C90.42 54.05 90.75 50.14 88.41 48.89C86.06 47.64 83.01 50.11 79.79 52.72C76.07 55.72 72.23 58.83 68.41 56.81C64.58 54.8 64.98 49.88 65.35 45.12C65.39 44.66 65.42 44.2 65.46 43.75C65.7 40.32 65.71 37.24 63.91 36.01C63.83 35.95 63.73 35.89 63.63 35.84C61.27 34.61 58.24 37.1 55.04 39.73C51.34 42.76 47.53 45.91 43.69 43.92C42.99 43.56 42.42 43.09 41.98 42.54C42.57 41.94 43.16 41.36 43.77 40.78C44.04 41.17 44.39 41.5 44.83 41.72C47.18 42.93 50.19 40.45 53.4 37.81C55.75 35.88 58.16 33.91 60.59 33.24C61.97 32.87 63.38 32.92 64.77 33.65C64.95 33.75 65.13 33.85 65.3 33.97C66.41 34.7 67.11 35.73 67.53 36.93C68.26 39.06 68.14 41.75 67.94 44.44C67.92 44.75 67.88 45.05 67.86 45.36C67.54 49.5 67.22 53.4 69.56 54.62C71.9 55.86 74.94 53.39 78.17 50.78C80.47 48.92 82.82 47.02 85.19 46.32C86.65 45.9 88.11 45.93 89.57 46.71C91.02 47.48 91.88 48.67 92.34 50.13C93.09 52.48 92.83 55.49 92.57 58.44C92.21 62.57 91.86 66.47 94.2 67.72C96.53 68.98 99.59 66.54 102.83 63.95C105.17 62.08 107.58 60.16 110 59.52C111.42 59.14 112.85 59.21 114.27 59.97C115.2 60.48 115.88 61.14 116.36 61.96C116.6 62.34 116.79 62.76 116.94 63.21C117.76 65.59 117.47 68.69 117.18 71.73C116.82 75.54 116.47 79.13 118.24 80.67C118.3 80.73 118.36 80.78 118.42 80.82C118.27 81.68 118.11 82.52 117.93 83.37Z" fill="#FEFF58" fill-opacity="1.000000" fill-rule="nonzero"/>
				</g>
			</g>
			<g mask="url(#mask1_24317)">
				<g style="mix-blend-mode:normal">
					<path id="Path 30996" d="M97.47 123.61C96.68 124.37 95.86 125.09 95.04 125.77C94.86 125.71 94.67 125.62 94.49 125.52C90.74 123.47 91.16 118.53 91.63 113.78C91.67 113.49 91.69 113.21 91.72 112.93C92.08 109.14 92.27 105.69 90.13 104.53C87.82 103.27 84.77 105.72 81.54 108.32C77.82 111.3 73.99 114.39 70.22 112.38C67.89 111.13 67.18 108.77 67.09 106.02C67.03 104.34 67.19 102.52 67.36 100.71C67.74 96.58 68.09 92.69 65.77 91.45C63.45 90.22 60.43 92.7 57.22 95.32C53.53 98.34 49.72 101.46 45.94 99.48C42.17 97.48 42.59 92.57 42.98 87.82C43.33 83.69 43.66 79.79 41.33 78.59C39.01 77.37 35.99 79.87 32.81 82.51C29.14 85.55 25.36 88.71 21.57 86.75C20.68 86.28 19.97 85.62 19.49 84.85C19.66 83.05 19.95 81.22 20.34 79.34C20.35 79.28 20.37 79.23 20.38 79.17C20.41 79.02 20.45 78.87 20.48 78.71C20.59 78.17 20.73 77.64 20.87 77.09C20.86 77.14 20.86 77.2 20.86 77.25C20.65 80.62 20.75 83.54 22.7 84.55C25.02 85.75 28.01 83.25 31.2 80.6C34.86 77.55 38.67 74.4 42.47 76.39C46.28 78.37 45.87 83.3 45.47 88.04C45.12 92.17 44.79 96.07 47.09 97.28C49.4 98.5 52.42 96.02 55.62 93.4C59.31 90.38 63.14 87.26 66.93 89.27C70.72 91.3 70.28 96.21 69.84 100.95C69.7 102.51 69.55 104.03 69.56 105.4C69.56 107.64 69.96 109.43 71.39 110.2C73.69 111.44 76.73 108.98 79.96 106.38C83.67 103.4 87.52 100.31 91.3 102.36C94.26 103.95 94.6 107.33 94.37 110.99C94.31 112 94.21 113.03 94.11 114.05C93.69 118.17 93.3 122.06 95.59 123.31C96.17 123.63 96.8 123.71 97.47 123.61Z" fill="#FEFF58" fill-opacity="1.000000" fill-rule="nonzero"/>
				</g>
			</g>
			<g mask="url(#mask1_24317)">
				<g style="mix-blend-mode:normal">
					<path id="Path 30997" d="M44.21 64.93C43.27 66.75 41 67.44 39.15 66.48C37.3 65.52 36.56 63.27 37.51 61.45C38.45 59.62 40.72 58.92 42.57 59.89C44.43 60.85 45.16 63.11 44.21 64.93Z" fill="#FFF6E9" fill-opacity="1.000000" fill-rule="nonzero"/>
				</g>
			</g>
			<g mask="url(#mask1_24317)">
				<g style="mix-blend-mode:normal">
					<path id="Path 30998" d="M69.26 67.24C68.31 69.05 66.03 69.73 64.18 68.76C62.33 67.78 61.6 65.52 62.56 63.7C63.52 61.89 65.79 61.21 67.65 62.18C69.5 63.16 70.23 65.43 69.26 67.24Z" fill="#FFF6E9" fill-opacity="1.000000" fill-rule="nonzero"/>
				</g>
			</g>
			<g mask="url(#mask1_24317)">
				<g style="mix-blend-mode:normal">
					<path id="Path 30999" d="M85.28 86.64C84.31 88.45 82.03 89.12 80.2 88.13C78.36 87.15 77.65 84.88 78.62 83.07C79.59 81.26 81.87 80.59 83.71 81.58C85.55 82.56 86.26 84.83 85.28 86.64Z" fill="#FFF6E9" fill-opacity="1.000000" fill-rule="nonzero"/>
				</g>
			</g>
			<g mask="url(#mask1_24317)">
				<g style="mix-blend-mode:normal">
					<path id="Path 31000" d="M110.31 89.28C109.32 91.09 107.04 91.73 105.2 90.73C103.37 89.74 102.67 87.47 103.65 85.66C104.63 83.85 106.92 83.2 108.75 84.2C110.59 85.21 111.29 87.48 110.31 89.28Z" fill="#FFF6E9" fill-opacity="1.000000" fill-rule="nonzero"/>
				</g>
			</g>
			<g mask="url(#mask1_24317)">
				<g style="mix-blend-mode:screen">
					<mask id="mask1_24338" mask-type="alpha" maskUnits="userSpaceOnUse" x="47.137695" y="19.947510" width="37.420410" height="41.588135">
						<g style="mix-blend-mode:normal">
							<rect id="Rectangle 3669" x="63.217285" y="19.947510" width="24.170015" height="34.250183" transform="rotate(28 63.217285 19.947510)" fill="#C4C4C4" fill-opacity="1.000000"/>
						</g>
					</mask>
					<g mask="url(#mask1_24338)">
						<g opacity="0.449997">
							<mask id="mask1_24343" mask-type="alpha" maskUnits="userSpaceOnUse" x="61.048340" y="23.777100" width="23.509766" height="25.142578">
								<g style="mix-blend-mode:normal">
									<rect id="Rectangle 3667" x="70.419434" y="23.777100" width="16.013098" height="19.961292" transform="rotate(28 70.419434 23.777100)" fill="#C4C4C4" fill-opacity="1.000000"/>
								</g>
							</mask>
							<g mask="url(#mask1_24343)">
								<g style="mix-blend-mode:normal">
									<path id="Path 31001" d="M69.19 30.57C74.26 27.4 79.99 27.41 81.98 30.6C83.98 33.79 81.48 38.95 76.41 42.12C71.33 45.29 65.61 45.27 63.61 42.08C61.62 38.89 64.12 33.74 69.19 30.57Z" fill="#FFBDD6" fill-opacity="1.000000" fill-rule="nonzero"/>
								</g>
							</g>
						</g>
					</g>
					<g mask="url(#mask1_24338)">
						<g opacity="0.449997">
							<mask id="mask1_24347" mask-type="alpha" maskUnits="userSpaceOnUse" x="47.137695" y="40.703369" width="12.652832" height="13.531494">
								<g style="mix-blend-mode:normal">
									<rect id="Rectangle 3668" x="52.181152" y="40.703369" width="8.618044" height="10.743009" transform="rotate(28 52.181152 40.703369)" fill="#C4C4C4" fill-opacity="1.000000"/>
								</g>
							</mask>
							<g mask="url(#mask1_24347)">
								<g style="mix-blend-mode:normal">
									<path id="Path 31002" d="M51.52 44.36C54.25 42.65 57.33 42.66 58.4 44.38C59.47 46.09 58.13 48.87 55.4 50.57C52.67 52.28 49.59 52.27 48.52 50.55C47.44 48.84 48.79 46.06 51.52 44.36Z" fill="#FFBDD6" fill-opacity="1.000000" fill-rule="nonzero"/>
								</g>
							</g>
						</g>
					</g>
				</g>
			</g>
		</g>
	</g>
</svg>
