<svg width="168.348633" height="191.204346" viewBox="0 0 168.349 191.204" fill="none" xmlns="http://www.w3.org/2000/svg" xmlns:xlink="http://www.w3.org/1999/xlink">
	<desc>
			Created with Pixso.
	</desc>
	<defs/>
	<mask id="mask1_24262" mask-type="alpha" maskUnits="userSpaceOnUse" x="0.000000" y="0.000000" width="168.348633" height="191.204346">
		<g style="mix-blend-mode:normal">
			<rect id="Rectangle 3665" y="43.985596" width="117.418190" height="158.780518" transform="rotate(-22 0.000000 43.985596)" fill="#C4C4C4" fill-opacity="1.000000"/>
		</g>
	</mask>
	<g mask="url(#mask1_24262)">
		<mask id="mask1_24265" mask-type="alpha" maskUnits="userSpaceOnUse" x="0.000000" y="0.000000" width="168.348633" height="191.204346">
			<g style="mix-blend-mode:normal">
				<rect id="Rectangle 3664" y="43.985596" width="117.418190" height="158.780518" transform="rotate(-22 0.000000 43.985596)" fill="#C4C4C4" fill-opacity="1.000000"/>
			</g>
		</mask>
		<g mask="url(#mask1_24265)">
			<mask id="mask1_24269" mask-type="alpha" maskUnits="userSpaceOnUse" x="0.000000" y="0.000000" width="168.348633" height="191.204346">
				<g style="mix-blend-mode:normal">
					<rect id="Rectangle 3663" y="43.985596" width="117.418190" height="158.780518" transform="rotate(-22 0.000000 43.985596)" fill="#C4C4C4" fill-opacity="1.000000"/>
				</g>
			</mask>
			<g mask="url(#mask1_24269)">
				<g opacity="0.360001" style="mix-blend-mode:hard-light">
					<mask id="mask1_24294" mask-type="alpha" maskUnits="userSpaceOnUse" x="76.264160" y="142.489502" width="69.750000" height="39.688477">
						<g style="mix-blend-mode:normal">
							<rect id="Rectangle 3659" x="76.264160" y="168.425293" width="69.234924" height="14.832747" transform="rotate(-22 76.264160 168.425293)" fill="#C4C4C4" fill-opacity="1.000000"/>
						</g>
					</mask>
					<g mask="url(#mask1_24294)">
						<g style="mix-blend-mode:normal">
							<path id="Path 30965" d="M108.36 155.45C126.08 148.29 141.7 145.56 143.23 149.36C144.77 153.16 131.64 162.04 113.91 169.21C96.19 176.37 80.57 179.09 79.04 175.3C77.5 171.5 90.63 162.61 108.36 155.45Z" fill="#606060" fill-opacity="1.000000" fill-rule="nonzero"/>
						</g>
					</g>
				</g>
			</g>
			<g mask="url(#mask1_24269)">
				<g style="mix-blend-mode:normal">
					<path id="Path 30966" d="M123.84 53.22C124.25 54.2 124.65 55.16 125.01 56.13C125.44 57.19 125.84 58.25 126.22 59.29C126.62 60.33 126.99 61.37 127.35 62.4C127.7 63.43 128.05 64.44 128.36 65.45C129.63 69.38 130.64 73.17 131.45 76.82C131.56 77.38 131.68 77.95 131.79 78.5C132.84 83.64 133.44 88.53 133.66 93.15C133.7 93.96 133.73 94.77 133.73 95.55C133.75 96.27 133.75 96.98 133.75 97.7C133.75 98.59 133.72 99.48 133.68 100.36C133.62 101.75 133.53 103.12 133.4 104.46C133.34 105.19 133.25 105.91 133.17 106.63C133.1 107.26 133 107.93 132.91 108.53C132.88 108.7 132.86 108.86 132.83 109.02C132.73 109.66 132.63 110.27 132.51 110.9C132.18 112.69 131.78 114.42 131.34 116.1C131.22 116.59 131.08 117.06 130.94 117.54C130.82 117.98 130.68 118.41 130.56 118.83C128.95 124 126.82 128.69 124.32 132.92C124.09 133.34 123.84 133.75 123.58 134.16C123.33 134.56 123.08 134.96 122.83 135.36C121.54 137.35 120.17 139.24 118.76 141.02C118.2 141.74 117.63 142.44 117.04 143.11C116.75 143.45 116.44 143.79 116.15 144.13C115.56 144.8 114.97 145.44 114.36 146.08C114.07 146.41 113.77 146.71 113.47 147.01C112.91 147.58 112.32 148.14 111.76 148.68C111.19 149.23 110.63 149.76 110.05 150.27C109.59 150.7 109.11 151.12 108.64 151.53C108.4 151.74 108.14 151.95 107.9 152.15C107.47 152.52 107.03 152.89 106.61 153.23C106.18 153.58 105.75 153.92 105.32 154.24C105.1 154.43 104.87 154.6 104.66 154.76C103.75 155.47 102.85 156.13 101.95 156.76C101.68 156.95 101.39 157.14 101.12 157.34C100.75 157.6 100.39 157.85 100.02 158.08C99.91 158.15 99.82 158.21 99.73 158.28C99.31 158.57 98.89 158.84 98.46 159.1C98.05 159.37 97.63 159.63 97.22 159.89C95.51 160.96 93.85 161.92 92.25 162.77C91.65 163.11 91.05 163.41 90.48 163.72C88.7 164.63 87.06 165.41 85.59 166.07C85.17 166.25 84.77 166.43 84.39 166.6C83.31 167.06 82.33 167.44 81.52 167.75C78.2 167.38 74.93 166.7 71.73 165.68C68.71 164.75 65.73 163.52 62.88 162.01C63.24 161.85 63.61 161.69 63.99 161.51C74.02 156.96 90.86 147.3 102.46 130.19C104.11 127.77 105.64 125.2 107.03 122.48C107.52 121.53 107.98 120.59 108.43 119.6C116.77 101.45 118.94 76.8 106.01 43.87C105.51 42.6 104.99 41.3 104.43 39.99C104.29 39.65 104.14 39.32 103.99 38.98C102.97 36.56 101.86 34.11 100.66 31.61C103.23 33.35 105.75 35.24 108.22 37.27C113.64 41.73 118.8 46.85 123.49 52.4C123.61 52.67 123.73 52.95 123.84 53.22Z" fill="#FFCE12" fill-opacity="1.000000" fill-rule="nonzero"/>
				</g>
			</g>
			<g mask="url(#mask1_24269)">
				<g style="mix-blend-mode:normal">
					<path id="Path 30967" d="M106.01 43.88C118.94 76.8 116.77 101.45 108.43 119.61C107.99 120.59 107.52 121.54 107.04 122.49C105.64 125.2 104.11 127.77 102.46 130.19C101.6 131.46 100.71 132.7 99.79 133.88C99.37 134.43 98.94 134.97 98.52 135.49C98.08 136.05 97.61 136.6 97.16 137.13C96.7 137.66 96.25 138.19 95.77 138.71C95.3 139.22 94.83 139.74 94.36 140.24C93.48 141.16 92.59 142.06 91.7 142.92C91.44 143.16 91.2 143.4 90.94 143.63C90.63 143.92 90.32 144.22 90.01 144.5C89.46 145.01 88.89 145.52 88.31 146.02C87.9 146.37 87.48 146.73 87.06 147.08C86.57 147.5 86.08 147.9 85.58 148.3C85.08 148.69 84.59 149.09 84.1 149.46C83.17 150.17 82.26 150.85 81.35 151.51C80.3 152.27 79.25 152.98 78.23 153.66C77.75 153.97 77.26 154.28 76.79 154.59C76.32 154.89 75.84 155.2 75.37 155.47C75 155.7 74.62 155.93 74.26 156.14C73.24 156.76 72.23 157.34 71.26 157.87C70.82 158.11 70.39 158.35 69.95 158.58C69.53 158.82 69.1 159.04 68.68 159.25C67.43 159.9 66.23 160.48 65.1 161.02C64.72 161.19 64.37 161.36 64 161.52C63.62 161.7 63.24 161.87 62.88 162.03C62.71 161.94 62.55 161.85 62.39 161.76C57.68 159.21 53.23 155.88 49.16 151.74C47.37 149.92 45.64 147.93 44.01 145.79C43.96 145.73 43.92 145.67 43.87 145.62C43.75 145.47 43.63 145.31 43.52 145.15C43.14 144.64 42.78 144.13 42.42 143.62C39.1 138.92 36.17 133.51 33.69 127.39C29.75 117.63 27.23 106.66 26.17 95.57C26.07 94.53 25.99 93.49 25.93 92.44C25.4 85 25.53 77.53 26.36 70.37C26.94 65.25 27.88 60.29 29.17 55.59C29.69 53.65 30.29 51.76 30.95 49.92C35.62 36.78 43.4 26.46 54.43 22C65.47 17.54 78.22 19.56 90.7 25.76C92.45 26.64 94.18 27.57 95.91 28.6C97.5 29.55 99.1 30.56 100.66 31.63C101.86 34.13 102.96 36.59 103.99 39C104.14 39.34 104.29 39.67 104.42 40.01C104.98 41.33 105.51 42.61 106.01 43.88Z" fill="#FFD538" fill-opacity="1.000000" fill-rule="nonzero"/>
				</g>
			</g>
			<g mask="url(#mask1_24269)">
				<g style="mix-blend-mode:normal">
					<path id="Path 30968" d="M142.56 83.39C145.98 91.86 147.82 99.95 148.25 107.54C148.34 108.91 148.37 110.27 148.36 111.6C148.32 117.43 147.43 122.99 145.78 128.12C144.77 131.37 143.44 134.47 141.84 137.4C135.5 148.98 124.88 157.93 111.54 163.32C101.57 167.35 91.32 168.87 81.52 167.76C82.34 167.45 83.31 167.06 84.39 166.6C84.77 166.43 85.18 166.26 85.59 166.08C87.06 165.42 88.71 164.64 90.48 163.73C91.06 163.43 91.65 163.11 92.25 162.78C93.85 161.93 95.51 160.96 97.22 159.89C97.64 159.64 98.06 159.38 98.47 159.11C98.89 158.85 99.31 158.57 99.73 158.28C99.83 158.22 99.92 158.16 100.02 158.09C100.39 157.85 100.75 157.6 101.13 157.35C101.4 157.15 101.68 156.96 101.95 156.77C102.85 156.13 103.75 155.47 104.66 154.77C104.88 154.6 105.11 154.44 105.32 154.24C105.75 153.93 106.18 153.59 106.61 153.23C107.04 152.89 107.47 152.53 107.9 152.15C108.14 151.95 108.4 151.75 108.65 151.53C109.11 151.12 109.59 150.71 110.05 150.28C110.63 149.76 111.19 149.24 111.76 148.69C112.33 148.15 112.9 147.6 113.45 147.02C113.75 146.72 114.06 146.4 114.36 146.09C114.97 145.44 115.56 144.8 116.16 144.14C116.44 143.8 116.75 143.46 117.04 143.12C117.63 142.44 118.2 141.75 118.76 141.03C120.17 139.25 121.54 137.36 122.83 135.37C123.08 134.97 123.33 134.57 123.58 134.17C123.84 133.76 124.09 133.35 124.32 132.93C126.82 128.69 128.95 124.01 130.56 118.84C130.69 118.41 130.82 117.98 130.94 117.55C131.08 117.07 131.22 116.6 131.34 116.11C131.79 114.43 132.19 112.7 132.51 110.91C132.63 110.29 132.74 109.65 132.83 109.02C132.86 108.87 132.89 108.71 132.91 108.54C133 107.94 133.08 107.32 133.16 106.69C133.24 105.98 133.34 105.2 133.41 104.46C133.53 103.12 133.63 101.75 133.68 100.36C133.72 99.48 133.74 98.59 133.75 97.7C133.76 96.99 133.75 96.28 133.73 95.55C133.73 94.77 133.7 93.97 133.66 93.16C133.44 88.53 132.84 83.65 131.79 78.51C131.69 77.94 131.57 77.38 131.45 76.83C130.64 73.17 129.63 69.39 128.37 65.46C128.05 64.45 127.7 63.44 127.35 62.41C126.99 61.38 126.62 60.34 126.23 59.3C125.84 58.25 125.44 57.2 125.01 56.13C124.65 55.17 124.25 54.21 123.84 53.23C123.73 52.96 123.62 52.68 123.49 52.41C123.71 52.66 123.92 52.91 124.12 53.17C124.82 54 125.51 54.84 126.17 55.69C132.99 64.3 138.68 73.79 142.56 83.39Z" fill="#F5CF17" fill-opacity="1.000000" fill-rule="nonzero"/>
				</g>
			</g>
			<g mask="url(#mask1_24269)">
				<g style="mix-blend-mode:normal">
					<path id="Path 30969" d="M118.7 47.07L117.82 47.31L115.21 54.64L110.97 48.12L103.2 47.91L108.09 41.87L106.27 35.72C110.6 39.11 114.77 42.94 118.7 47.07Z" fill="#FF889E" fill-opacity="1.000000" fill-rule="nonzero"/>
				</g>
			</g>
			<g mask="url(#mask1_24269)">
				<g style="mix-blend-mode:normal">
					<path id="Path 30970" d="M36.9 69.02L29.38 71.04L26.78 78.36L25.8 76.86C26.17 70.46 27.04 64.22 28.46 58.35L31.13 56.52L30.73 64.28L36.9 69.02Z" fill="#FF889E" fill-opacity="1.000000" fill-rule="nonzero"/>
				</g>
			</g>
			<g mask="url(#mask1_24269)">
				<g style="mix-blend-mode:normal">
					<path id="Path 30971" d="M75.21 41.54L67.7 43.56L65.1 50.89L60.86 44.36L53.09 44.16L57.98 38.11L55.78 30.66L63.04 33.44L69.45 29.04L69.04 36.81L75.21 41.54Z" fill="#FF889E" fill-opacity="1.000000" fill-rule="nonzero"/>
				</g>
			</g>
			<g mask="url(#mask1_24269)">
				<g style="mix-blend-mode:normal">
					<path id="Path 30972" d="M36.06 118.34L30.97 119.71C29.73 115.76 28.71 111.67 27.9 107.49L30.3 105.84L29.89 113.62L36.06 118.34Z" fill="#FF889E" fill-opacity="1.000000" fill-rule="nonzero"/>
				</g>
			</g>
			<g mask="url(#mask1_24269)">
				<g style="mix-blend-mode:normal">
					<path id="Path 30973" d="M79.23 122.23L71.71 124.24L69.12 131.57L64.88 125.05L57.11 124.85L62 118.8L59.79 111.34L67.05 114.13L73.46 109.72L73.06 117.49L79.23 122.23Z" fill="#FF889E" fill-opacity="1.000000" fill-rule="nonzero"/>
				</g>
			</g>
			<g mask="url(#mask1_24269)">
				<g style="mix-blend-mode:normal">
					<path id="Path 30974" d="M110.95 85.41L103.44 87.43L100.84 94.76L96.6 88.24L88.83 88.03L93.72 81.99L91.52 74.53L98.77 77.31L105.19 72.91L104.78 80.68L110.95 85.41Z" fill="#FF889E" fill-opacity="1.000000" fill-rule="nonzero"/>
				</g>
			</g>
			<g mask="url(#mask1_24269)">
				<g style="mix-blend-mode:normal">
					<path id="Path 30975" d="M139.69 76.98L136.24 76.89L138.33 74.3C138.8 75.19 139.25 76.08 139.69 76.98Z" fill="#FF889E" fill-opacity="1.000000" fill-rule="nonzero"/>
				</g>
			</g>
			<g mask="url(#mask1_24269)">
				<g style="mix-blend-mode:normal">
					<path id="Path 30976" d="M93.99 166.27L87.17 168.11C85.27 168.1 83.39 167.98 81.53 167.76C78.96 167.47 76.44 166.99 73.94 166.33L76.76 162.85L74.55 155.39L81.81 158.18L88.23 153.77L87.82 161.54L93.99 166.27Z" fill="#FF889E" fill-opacity="1.000000" fill-rule="nonzero"/>
				</g>
			</g>
			<g mask="url(#mask1_24269)">
				<g style="mix-blend-mode:normal">
					<path id="Path 30977" d="M142.41 129.61L142.01 137.05C140.11 140.61 137.8 143.92 135.13 146.95L133.82 144.93L126.05 144.72L130.95 138.67L128.74 131.22L135.99 134.01L142.41 129.61Z" fill="#FF889E" fill-opacity="1.000000" fill-rule="nonzero"/>
				</g>
			</g>
			<g mask="url(#mask1_24269)">
				<g style="mix-blend-mode:normal">
					<path id="Path 30978" d="M104.48 138.28C105.7 137.78 107.09 138.37 107.58 139.59C108.07 140.81 107.48 142.2 106.26 142.69C105.04 143.18 103.65 142.6 103.16 141.38C102.67 140.16 103.26 138.77 104.48 138.28Z" fill="#DC82E2" fill-opacity="1.000000" fill-rule="nonzero"/>
				</g>
			</g>
			<g mask="url(#mask1_24269)">
				<g style="mix-blend-mode:normal">
					<path id="Path 30979" d="M133.23 99.66C134.28 99.24 135.47 99.74 135.89 100.79C136.31 101.84 135.81 103.03 134.76 103.45C133.72 103.88 132.52 103.37 132.1 102.32C131.68 101.28 132.18 100.08 133.23 99.66Z" fill="#DC82E2" fill-opacity="1.000000" fill-rule="nonzero"/>
				</g>
			</g>
			<g mask="url(#mask1_24269)">
				<g style="mix-blend-mode:normal">
					<path id="Path 30980" d="M60.68 76.67C62.06 76.11 63.62 76.78 64.18 78.15C64.73 79.53 64.07 81.09 62.69 81.65C61.32 82.2 59.75 81.54 59.2 80.16C58.64 78.79 59.3 77.22 60.68 76.67Z" fill="#DC82E2" fill-opacity="1.000000" fill-rule="nonzero"/>
				</g>
			</g>
			<g mask="url(#mask1_24269)">
				<g style="mix-blend-mode:normal">
					<path id="Path 30981" d="M88.13 52.36C89.13 51.96 90.28 52.44 90.68 53.45C91.09 54.46 90.6 55.6 89.6 56.01C88.59 56.41 87.45 55.93 87.04 54.92C86.63 53.91 87.12 52.77 88.13 52.36Z" fill="#DC82E2" fill-opacity="1.000000" fill-rule="nonzero"/>
				</g>
			</g>
			<g mask="url(#mask1_24269)">
				<g style="mix-blend-mode:normal">
					<path id="Path 30982" d="M80.67 21.72C80.4 22.14 80 22.48 79.51 22.68C78.19 23.21 76.71 22.58 76.17 21.26C76.08 21.02 76.02 20.77 75.99 20.52C77.54 20.84 79.11 21.24 80.67 21.72Z" fill="#DC82E2" fill-opacity="1.000000" fill-rule="nonzero"/>
				</g>
			</g>
			<g mask="url(#mask1_24269)">
				<g style="mix-blend-mode:normal">
					<path id="Path 30983" d="M37.27 41.64C37.64 42.53 37.2 43.56 36.3 43.92C35.39 44.29 34.38 43.85 34.02 42.96C33.99 42.89 33.96 42.81 33.96 42.74C34.3 42.03 34.66 41.35 35.02 40.65C35.92 40.32 36.92 40.76 37.27 41.64Z" fill="#DC82E2" fill-opacity="1.000000" fill-rule="nonzero"/>
				</g>
			</g>
			<g mask="url(#mask1_24269)">
				<g style="mix-blend-mode:normal">
					<path id="Path 30984" d="M27.56 97.32C28.03 98.48 27.67 99.75 26.76 100.51C26.54 98.96 26.36 97.41 26.21 95.85C26.8 96.14 27.29 96.66 27.56 97.32Z" fill="#DC82E2" fill-opacity="1.000000" fill-rule="nonzero"/>
				</g>
			</g>
			<g mask="url(#mask1_24269)">
				<g style="mix-blend-mode:normal">
					<path id="Path 30985" d="M50.18 149.78C50.52 150.63 50.24 151.6 49.56 152.14C48.61 151.19 47.69 150.2 46.78 149.17C46.97 148.94 47.22 148.76 47.51 148.65C48.56 148.22 49.76 148.73 50.18 149.78Z" fill="#DC82E2" fill-opacity="1.000000" fill-rule="nonzero"/>
				</g>
			</g>
			<g mask="url(#mask1_24269)">
				<g style="mix-blend-mode:screen">
					<mask id="mask1_24298" mask-type="alpha" maskUnits="userSpaceOnUse" x="20.700195" y="46.182373" width="43.996582" height="50.950195">
						<g style="mix-blend-mode:normal">
							<rect id="Rectangle 3662" x="20.700195" y="57.486328" width="30.175774" height="42.759930" transform="rotate(-22 20.700195 57.486328)" fill="#C4C4C4" fill-opacity="1.000000"/>
						</g>
					</mask>
					<g mask="url(#mask1_24298)">
						<g opacity="0.449997">
							<mask id="mask1_24303" mask-type="alpha" maskUnits="userSpaceOnUse" x="30.144043" y="46.182129" width="27.869141" height="30.592773">
								<g style="mix-blend-mode:normal">
									<rect id="Rectangle 3660" x="30.144043" y="53.670654" width="19.990068" height="24.918623" transform="rotate(-22 30.144043 53.670654)" fill="#C4C4C4" fill-opacity="1.000000"/>
								</g>
							</mask>
							<g mask="url(#mask1_24303)">
								<g style="mix-blend-mode:normal">
									<path id="Path 30986" d="M35.66 60.29C36.69 52.9 41.31 47.43 45.96 48.09C50.6 48.74 53.53 55.26 52.49 62.66C51.45 70.05 46.84 75.51 42.19 74.86C37.54 74.21 34.62 67.68 35.66 60.29Z" fill="#FFBDD6" fill-opacity="1.000000" fill-rule="nonzero"/>
								</g>
							</g>
						</g>
					</g>
					<g mask="url(#mask1_24298)">
						<g opacity="0.449997">
							<mask id="mask1_24307" mask-type="alpha" maskUnits="userSpaceOnUse" x="31.693848" y="80.666016" width="15.000000" height="16.466553">
								<g style="mix-blend-mode:normal">
									<rect id="Rectangle 3661" x="31.693848" y="84.696289" width="10.758737" height="13.412986" transform="rotate(-22 31.693848 84.696289)" fill="#C4C4C4" fill-opacity="1.000000"/>
								</g>
							</mask>
							<g mask="url(#mask1_24307)">
								<g style="mix-blend-mode:normal">
									<path id="Path 30987" d="M34.66 88.26C35.22 84.28 37.7 81.34 40.2 81.69C42.7 82.04 44.28 85.55 43.72 89.53C43.16 93.51 40.68 96.45 38.18 96.1C35.67 95.75 34.1 92.24 34.66 88.26Z" fill="#FFBDD6" fill-opacity="1.000000" fill-rule="nonzero"/>
								</g>
							</g>
						</g>
					</g>
				</g>
			</g>
		</g>
	</g>
</svg>
