<svg width="50.573486" height="50.573486" viewBox="0 0 50.5735 50.5735" fill="none" xmlns="http://www.w3.org/2000/svg" xmlns:xlink="http://www.w3.org/1999/xlink">
	<desc>
			Created with Pixso.
	</desc>
	<defs/>
	<g style="mix-blend-mode:normal">
		<path id="Path 19971" d="M48.4 15.03C49.72 13.44 50.52 11.4 50.52 9.18C50.52 4.14 46.42 0.04 41.38 0.04C39.16 0.04 37.12 0.84 35.54 2.16C32.3 0.73 28.86 0 25.28 0C18.53 0 12.18 2.63 7.4 7.4C2.63 12.18 0 18.53 0 25.28C0 32.04 2.63 38.39 7.4 43.16C12.18 47.94 18.53 50.57 25.28 50.57C32.04 50.57 38.39 47.94 43.16 43.16C47.94 38.39 50.57 32.04 50.57 25.28C50.57 21.71 49.84 18.26 48.4 15.03ZM41.38 1.53C45.6 1.53 49.04 4.96 49.04 9.18C49.04 13.4 45.6 16.84 41.38 16.84C37.16 16.84 33.73 13.4 33.73 9.18C33.73 4.96 37.16 1.53 41.38 1.53ZM25.28 49.09C12.16 49.09 1.48 38.41 1.48 25.28C1.48 12.16 12.16 1.48 25.28 1.48C28.45 1.48 31.52 2.09 34.41 3.29C33.06 4.88 32.25 6.94 32.25 9.18C32.25 14.22 36.34 18.32 41.38 18.32C43.63 18.32 45.68 17.51 47.27 16.16C48.48 19.05 49.09 22.11 49.09 25.28C49.09 38.41 38.41 49.09 25.28 49.09Z" fill="#000000" fill-opacity="1.000000" fill-rule="nonzero"/>
	</g>
	<g style="mix-blend-mode:normal">
		<path id="Path 19972" d="M40.05 22.76L36.11 22.76L33.73 17.33L16.83 17.33L14.46 22.76L10.51 22.76C9.15 22.76 8.05 23.87 8.05 25.23C8.05 26.58 9.13 27.68 10.47 27.7C10 28.32 9.72 29.09 9.72 29.92L9.72 37.38L13.68 37.38L13.68 39.11C13.68 41.15 15.34 42.81 17.38 42.81C19.42 42.81 21.08 41.15 21.08 39.11L21.08 37.38L29.48 37.38L29.48 39.11C29.48 41.15 31.14 42.81 33.18 42.81C35.23 42.81 36.89 41.15 36.89 39.11L36.89 37.38L40.84 37.38L40.84 29.92C40.84 29.09 40.56 28.32 40.09 27.7C41.44 27.68 42.52 26.58 42.52 25.23C42.52 23.87 41.41 22.76 40.05 22.76ZM17.8 18.81L32.76 18.81L36 26.22L14.56 26.22L17.8 18.81ZM9.53 25.23C9.53 24.69 9.97 24.24 10.51 24.24L13.81 24.24L12.94 26.22L10.51 26.22C9.97 26.22 9.53 25.78 9.53 25.23ZM19.6 39.11C19.6 40.34 18.61 41.33 17.38 41.33C16.15 41.33 15.16 40.34 15.16 39.11L15.16 37.38L19.6 37.38L19.6 39.11ZM35.41 39.11C35.41 40.34 34.41 41.33 33.18 41.33C31.96 41.33 30.96 40.34 30.96 39.11L30.96 37.38L35.41 37.38L35.41 39.11ZM39.36 35.9L11.21 35.9L11.21 29.92C11.21 28.7 12.2 27.7 13.43 27.7L37.13 27.7C38.36 27.7 39.36 28.7 39.36 29.92L39.36 35.9ZM40.05 26.22L37.62 26.22L36.76 24.24L40.05 24.24C40.59 24.24 41.04 24.69 41.04 25.23C41.04 25.78 40.59 26.22 40.05 26.22Z" fill="#000000" fill-opacity="1.000000" fill-rule="nonzero"/>
	</g>
	<g style="mix-blend-mode:normal">
		<path id="Path 19973" d="M15.4 29.08C13.91 29.08 12.69 30.3 12.69 31.8C12.69 33.3 13.91 34.52 15.4 34.52C16.9 34.52 18.12 33.3 18.12 31.8C18.12 30.3 16.9 29.08 15.4 29.08ZM15.4 33.04C14.72 33.04 14.17 32.48 14.17 31.8C14.17 31.12 14.72 30.57 15.4 30.57C16.09 30.57 16.64 31.12 16.64 31.8C16.64 32.48 16.09 33.04 15.4 33.04Z" fill="#000000" fill-opacity="1.000000" fill-rule="nonzero"/>
	</g>
	<g style="mix-blend-mode:normal">
		<path id="Path 19974" d="M35.16 29.08C33.66 29.08 32.44 30.3 32.44 31.8C32.44 33.3 33.66 34.52 35.16 34.52C36.66 34.52 37.88 33.3 37.88 31.8C37.88 30.3 36.66 29.08 35.16 29.08ZM35.16 33.04C34.48 33.04 33.92 32.48 33.92 31.8C33.92 31.12 34.48 30.57 35.16 30.57C35.84 30.57 36.39 31.12 36.39 31.8C36.39 32.48 35.84 33.04 35.16 33.04Z" fill="#000000" fill-opacity="1.000000" fill-rule="nonzero"/>
	</g>
	<g style="mix-blend-mode:normal">
		<path id="Path 19975" d="M3.79 19.19L5.22 19.6C5.35 19.14 5.5 18.68 5.66 18.23L4.26 17.73C4.09 18.21 3.93 18.7 3.79 19.19Z" fill="#000000" fill-opacity="1.000000" fill-rule="nonzero"/>
	</g>
	<g style="mix-blend-mode:normal">
		<path id="Path 19976" d="M2.96 25.28L4.44 25.28C4.44 24.79 4.46 24.3 4.49 23.82L3.01 23.71C2.98 24.23 2.96 24.76 2.96 25.28Z" fill="#000000" fill-opacity="1.000000" fill-rule="nonzero"/>
	</g>
	<g style="mix-blend-mode:normal">
		<path id="Path 19977" d="M3.17 22.19L4.64 22.39C4.7 21.92 4.78 21.45 4.88 20.98L3.43 20.68C3.33 21.18 3.24 21.69 3.17 22.19Z" fill="#000000" fill-opacity="1.000000" fill-rule="nonzero"/>
	</g>
	<g style="mix-blend-mode:normal">
		<path id="Path 19978" d="M25.28 4.44L25.28 2.96C19.32 2.96 13.71 5.28 9.5 9.5C7.51 11.48 5.94 13.77 4.83 16.31L6.18 16.91C7.22 14.54 8.69 12.4 10.54 10.54C14.48 6.61 19.71 4.44 25.28 4.44Z" fill="#000000" fill-opacity="1.000000" fill-rule="nonzero"/>
	</g>
	<g style="mix-blend-mode:normal">
		<rect id="Rectangle 2788" x="29.040161" y="31.064697" width="1.481645" height="1.481645" fill="#000000" fill-opacity="1.000000"/>
	</g>
	<g style="mix-blend-mode:normal">
		<rect id="Rectangle 2789" x="26.076904" y="31.064697" width="1.481645" height="1.481645" fill="#000000" fill-opacity="1.000000"/>
	</g>
	<g style="mix-blend-mode:normal">
		<rect id="Rectangle 2790" x="20.150269" y="31.064697" width="1.481645" height="1.481645" fill="#000000" fill-opacity="1.000000"/>
	</g>
	<g style="mix-blend-mode:normal">
		<rect id="Rectangle 2791" x="23.113647" y="31.064697" width="1.481645" height="1.481645" fill="#000000" fill-opacity="1.000000"/>
	</g>
	<g style="mix-blend-mode:normal">
		<path id="Path 19979" d="M39.75 10.32L43.01 10.32C44.59 10.32 45.88 9.03 45.88 7.45C45.88 5.87 44.59 4.59 43.01 4.59L38.27 4.59L38.27 13.53L39.75 13.53L39.75 10.32ZM39.75 6.07L43.01 6.07C43.77 6.07 44.39 6.69 44.39 7.45C44.39 8.21 43.77 8.84 43.01 8.84L39.75 8.84L39.75 6.07Z" fill="#000000" fill-opacity="1.000000" fill-rule="nonzero"/>
	</g>
</svg>
