<svg width="199.088989" height="245.046387" viewBox="0 0 199.089 245.046" fill="none" xmlns="http://www.w3.org/2000/svg" xmlns:xlink="http://www.w3.org/1999/xlink">
	<desc>
			Created with Pixso.
	</desc>
	<defs/>
	<mask id="mask1_37868" mask-type="alpha" maskUnits="userSpaceOnUse" x="0.000000" y="0.000000" width="199.088989" height="245.046387">
		<g style="mix-blend-mode:normal">
			<rect id="Rectangle 3795" x="16.241211" width="183.294281" height="232.827454" transform="rotate(4 16.241211 0.000000)" fill="#C4C4C4" fill-opacity="1.000000"/>
		</g>
	</mask>
	<g mask="url(#mask1_37868)">
		<g style="mix-blend-mode:normal">
			<path id="Path 35109" d="M115.71 127.05C113.35 125.53 110.22 124.57 105.98 123.51C99.31 122.61 95.9 123 95.9 123C92.64 123.84 90.44 124.73 87.64 126.01C85.71 129.61 84.36 134.99 83.12 140.35C81.82 146.05 80.29 153.21 78.77 162.71C90.18 179.4 114.58 173.97 120.99 165.66C119.17 150.81 118.83 134.46 115.71 127.05Z" fill="#EB422C" fill-opacity="1.000000" fill-rule="nonzero"/>
		</g>
	</g>
	<g mask="url(#mask1_37868)">
		<g style="mix-blend-mode:normal">
			<path id="Path 35110" d="M103.24 165.4C93.03 169.52 82 159.75 81.74 152.32C80.72 157.53 78.77 169.2 79.51 170.02C81.58 172.71 99.03 178.1 118.92 173.64C119.73 162 115.62 139.7 115.02 135.31C114.99 148.86 113.43 161.29 103.24 165.4Z" fill="#BC2E1C" fill-opacity="1.000000" fill-rule="nonzero"/>
		</g>
	</g>
	<g mask="url(#mask1_37868)">
		<g style="mix-blend-mode:normal">
			<path id="Path 35111" d="M86.98 135.03C89.77 128.41 95.51 130 92.68 136.25C89.85 142.5 85.78 147.58 84.88 156.21C84.34 146.87 85.64 138.2 86.98 135.03Z" fill="#EE5C48" fill-opacity="1.000000" fill-rule="nonzero"/>
		</g>
	</g>
	<g mask="url(#mask1_37868)">
		<g style="mix-blend-mode:normal">
			<path id="Path 35112" d="M115.71 127.05C118.98 128.63 126.23 135.05 129.3 144.93C124.99 148.58 118.8 148.88 118.8 148.88C118.8 148.88 117.63 144.31 116.58 138.38C115.43 131.89 115.71 127.05 115.71 127.05Z" fill="#EB422C" fill-opacity="1.000000" fill-rule="nonzero"/>
		</g>
	</g>
	<g mask="url(#mask1_37868)">
		<g style="mix-blend-mode:normal">
			<path id="Path 35113" d="M129 144.08C128.8 143.47 128.58 142.88 128.34 142.3C124.35 144.6 118.43 140.87 117.19 134.97C116.54 131.91 116.42 130.12 116.88 127.72C116.45 127.45 116.05 127.21 115.71 127.05C115.71 127.05 115.54 129.99 116.01 134.35C116.13 135.31 116.28 136.32 116.46 137.38C117.52 143.32 118.69 147.88 118.69 147.88C118.69 147.88 124.71 147.58 129 144.08Z" fill="#BC2E1C" fill-opacity="1.000000" fill-rule="nonzero"/>
		</g>
	</g>
	<g mask="url(#mask1_37868)">
		<g style="mix-blend-mode:normal">
			<path id="Path 35114" d="M99.23 114.89C99.23 114.89 98.71 119.18 98.44 122.6C97.11 123.03 95.42 123.01 94.72 123.26C95.18 127.83 105.43 128.06 108.32 124.34C107.12 123.83 105.72 123.44 104.98 123.06C105.13 120.27 105.2 117.94 105.31 115.05C102.06 115.08 99.23 114.89 99.23 114.89Z" fill="#F2B498" fill-opacity="1.000000" fill-rule="nonzero"/>
		</g>
	</g>
	<g mask="url(#mask1_37868)">
		<g style="mix-blend-mode:normal">
			<path id="Path 35115" d="M105.54 123.3C105.33 123.22 105.14 123.14 104.98 123.06C105.13 120.27 105.2 117.94 105.31 115.05C102.59 115.08 100.18 114.95 99.46 114.9C99.31 116.31 99.15 117.99 99.03 119.5C98.92 119.54 98.82 119.56 98.71 119.59C98.61 120.59 98.52 121.63 98.44 122.6C98.1 122.71 97.74 122.79 97.38 122.85C99.51 123.98 102.87 124.12 105.54 123.3Z" fill="#E79B71" fill-opacity="1.000000" fill-rule="nonzero"/>
		</g>
	</g>
	<g mask="url(#mask1_37868)">
		<g style="mix-blend-mode:normal">
			<path id="Path 35116" d="M96.44 123.02C96.55 124.51 102.96 127.02 106.17 123.46C108.05 123 109.72 124.54 109.72 124.54C109.72 124.54 107.43 129.21 100.88 128.6C93.75 127.93 92.93 123.92 92.93 123.92C92.93 123.92 94.35 122.54 96.44 123.02Z" fill="#FFFFFF" fill-opacity="1.000000" fill-rule="nonzero"/>
		</g>
	</g>
	<g mask="url(#mask1_37868)">
		<g style="mix-blend-mode:normal">
			<path id="Path 35117" d="M88.46 125.76C85.12 126.76 78.38 129.8 71.5 141.01C75.36 145.14 82.12 146.81 82.12 146.81C82.12 146.81 83.41 140.88 84.97 135.06C86.14 130.71 88.46 125.76 88.46 125.76Z" fill="#EB422C" fill-opacity="1.000000" fill-rule="nonzero"/>
		</g>
	</g>
	<g mask="url(#mask1_37868)">
		<g style="mix-blend-mode:normal">
			<path id="Path 35118" d="M86.51 126.46C86.76 127.98 85.73 132.16 84.23 135.13C81.78 139.97 76.47 141.9 72.34 139.66C72.24 139.81 72.14 139.95 72.05 140.1C75.9 144.22 82.41 145.23 82.41 145.23C82.41 145.23 83.41 140.88 84.97 135.06C86.14 130.71 88.46 125.76 88.46 125.76C87.9 125.92 87.24 126.16 86.51 126.46Z" fill="#BC2E1C" fill-opacity="1.000000" fill-rule="nonzero"/>
		</g>
	</g>
	<g mask="url(#mask1_37868)">
		<g style="mix-blend-mode:normal">
			<path id="Path 35119" d="M14.95 128.41C14.95 128.41 22.58 122.31 31.45 117.72C44.82 118.98 82.99 136.15 99.78 153.48C128.82 134.23 156.97 127.2 171.17 126.53C178.28 131.38 183.57 136.19 183.57 136.19L99.26 162.02L14.95 128.41Z" fill="#FFFFFF" fill-opacity="1.000000" fill-rule="nonzero"/>
		</g>
	</g>
	<g mask="url(#mask1_37868)">
		<g style="mix-blend-mode:normal">
			<path id="Path 35120" d="M14.95 128.41C14.95 128.41 24.56 119.75 33.43 115.16C64.16 120.51 82.99 136.15 99.78 153.48C112.36 142.1 149.51 125.35 167.87 122.25C174.98 127.1 183.57 136.19 183.57 136.19L99.26 162.02L14.95 128.41Z" fill="#FFFFFF" fill-opacity="1.000000" fill-rule="nonzero"/>
		</g>
	</g>
	<g mask="url(#mask1_37868)">
		<g style="mix-blend-mode:normal">
			<path id="Path 35121" d="M7.14 130.1C7.14 130.1 9.92 128.44 13.77 126.88C29.47 126.86 60.32 130.14 99.13 159.28C123.33 147.68 178.66 135.37 184.92 135.17C188.44 137.22 190.24 139.22 190.24 139.22L98.6 169.18L7.14 130.1Z" fill="#AD0A43" fill-opacity="1.000000" fill-rule="nonzero"/>
		</g>
	</g>
	<g mask="url(#mask1_37868)">
		<g style="mix-blend-mode:normal">
			<path id="Path 35122" d="M7.14 130.1C34.22 129.91 72.51 141.4 94.19 161.18C94.85 165.55 101.42 165.53 102.64 161.77C114.64 157.48 168.11 139.6 190.24 139.22C182.2 153.4 167.41 172.55 168.7 211.41C153.47 213.86 120.34 222.6 100.78 236.45C98.85 241.12 92.16 238.41 91.84 236.15C83.57 228.36 65.76 212.7 28.76 198.9C27.88 174.89 22.12 149.57 7.14 130.1Z" fill="#E50151" fill-opacity="1.000000" fill-rule="nonzero"/>
		</g>
	</g>
	<g mask="url(#mask1_37868)">
		<g style="mix-blend-mode:normal">
			<path id="Path 35123" d="M8.67 131.28C35.75 131.1 72.4 143 94.08 162.78C94.74 167.15 101.31 167.13 102.53 163.37C114.53 159.09 166.97 140.59 189.1 140.22C178.39 142.64 100.54 161.57 109.35 194.64C111.89 204.19 147.73 211.58 168.88 208.74C153.65 211.19 120.52 219.93 100.97 233.78C99.04 238.45 92.34 235.74 92.02 233.48C83.76 225.69 65.95 210.03 28.95 196.23C50.53 204.14 80.13 209.12 85.12 197.88C97.68 169.62 61.9 140.22 8.67 131.28Z" fill="#B70443" fill-opacity="1.000000" fill-rule="nonzero"/>
		</g>
	</g>
	<g mask="url(#mask1_37868)">
		<g style="mix-blend-mode:normal">
			<path id="Path 35124" d="M100.78 236.45C101.55 218.06 102.64 161.77 102.64 161.77C101.42 165.53 94.85 165.55 94.19 161.18L91.83 236.15C92.16 238.41 98.85 241.12 100.78 236.45Z" fill="#AD0A43" fill-opacity="1.000000" fill-rule="nonzero"/>
		</g>
	</g>
	<g mask="url(#mask1_37868)">
		<g style="mix-blend-mode:normal">
			<path id="Path 35125" d="M20.4 151.29C15.9 152.82 16.75 154.97 18.23 155.76C15.91 157.39 17.4 159.28 18.42 159.67C16.92 160.83 18.2 162.83 19.62 162.8C18.73 164.14 20.62 165.74 22.85 165.07C25.07 164.41 28.17 162.17 26.4 160.68C28.93 159.16 28.73 156.74 25.9 157.05C28.86 156.6 28.47 153.72 26.46 153.68C28.01 152.43 26.86 149.09 20.4 151.29Z" fill="#FDB993" fill-opacity="1.000000" fill-rule="nonzero"/>
		</g>
	</g>
	<g mask="url(#mask1_37868)">
		<g style="mix-blend-mode:normal">
			<path id="Path 35126" d="" fill="#FECFB4" fill-opacity="1.000000" fill-rule="nonzero"/>
		</g>
	</g>
	<g mask="url(#mask1_37868)">
		<g style="mix-blend-mode:normal">
			<path id="Path 35127" d="M20.59 162.48C19.17 162.52 17.9 160.51 19.4 159.35C18.38 158.96 16.89 157.08 19.21 155.44C18.14 154.87 17.49 153.33 18.87 151.94C17.79 152.51 17.27 153.12 17.12 153.69C17.02 154.59 17.53 155.39 18.23 155.75C15.91 157.39 17.4 159.28 18.42 159.67C16.92 160.83 18.2 162.83 19.62 162.8C18.73 164.14 20.62 165.74 22.85 165.07C23.09 165 23.35 164.9 23.6 164.79C21.48 165.29 19.74 163.78 20.59 162.48Z" fill="#FECFB4" fill-opacity="1.000000" fill-rule="nonzero"/>
		</g>
	</g>
	<g mask="url(#mask1_37868)">
		<g style="mix-blend-mode:normal">
			<path id="Path 35128" d="M20.68 151.61C24.03 151.56 25.59 153.81 23.55 154.58C25.32 154.62 26.73 156.65 22.34 158.48C26.55 157.35 26.61 160.76 22.55 162.14C23.82 163.2 22.67 164.18 20.87 164.31C21.34 164.43 22.2 164.45 22.78 164.28C24.72 163.69 27.13 162.39 25.58 161.08C27.8 159.75 27.56 157.21 25.07 157.48C27.53 156.21 27.18 154.09 25.41 154.05C27.92 153.1 26.14 149.9 20.68 151.61Z" fill="#E79B71" fill-opacity="1.000000" fill-rule="nonzero"/>
		</g>
	</g>
	<g mask="url(#mask1_37868)">
		<g style="mix-blend-mode:normal">
			<path id="Path 35129" d="M26.76 153.6C22.6 155.57 18.4 155.61 18.35 155.61C18.29 155.61 18.24 155.56 18.24 155.5C18.24 155.43 18.29 155.39 18.36 155.38C18.39 155.39 22.51 155.36 26.63 153.42C26.68 153.4 26.75 153.42 26.78 153.48C26.8 153.52 26.79 153.57 26.76 153.6Z" fill="#C36141" fill-opacity="1.000000" fill-rule="nonzero"/>
		</g>
	</g>
	<g mask="url(#mask1_37868)">
		<g style="mix-blend-mode:normal">
			<path id="Path 35130" d="M26.64 156.95C22.93 158.74 18.49 159.77 18.45 159.79C18.39 159.8 18.33 159.76 18.31 159.7C18.3 159.64 18.34 159.58 18.4 159.56C18.44 159.55 22.82 158.56 26.51 156.77C26.57 156.75 26.63 156.77 26.66 156.83C26.68 156.87 26.67 156.92 26.64 156.95Z" fill="#C36141" fill-opacity="1.000000" fill-rule="nonzero"/>
		</g>
	</g>
	<g mask="url(#mask1_37868)">
		<g style="mix-blend-mode:normal">
			<path id="Path 35131" d="M26.48 160.76C23.19 162.72 19.66 162.91 19.62 162.91C19.56 162.92 19.51 162.87 19.51 162.81C19.5 162.74 19.55 162.69 19.61 162.69C19.65 162.69 23.1 162.51 26.34 160.59C26.4 160.56 26.46 160.58 26.5 160.63C26.52 160.67 26.52 160.72 26.48 160.76Z" fill="#C36141" fill-opacity="1.000000" fill-rule="nonzero"/>
		</g>
	</g>
	<g mask="url(#mask1_37868)">
		<g style="mix-blend-mode:normal">
			<path id="Path 35132" d="M178.45 161.42C182.69 163.56 181.56 165.57 179.97 166.14C182.04 168.09 180.31 169.75 179.24 169.99C180.56 171.35 179.02 173.16 177.62 172.93C178.31 174.38 176.22 175.69 174.11 174.73C172 173.76 169.24 171.11 171.2 169.88C168.91 168.03 169.44 165.65 172.21 166.36C169.33 165.5 170.11 162.7 172.12 162.94C170.76 161.49 172.36 158.34 178.45 161.42Z" fill="#FDB993" fill-opacity="1.000000" fill-rule="nonzero"/>
		</g>
	</g>
	<g mask="url(#mask1_37868)">
		<g style="mix-blend-mode:normal">
			<path id="Path 35133" d="" fill="#FECFB4" fill-opacity="1.000000" fill-rule="nonzero"/>
		</g>
	</g>
	<g mask="url(#mask1_37868)">
		<g style="mix-blend-mode:normal">
			<path id="Path 35134" d="M176.7 172.47C178.1 172.7 179.64 170.89 178.32 169.54C179.39 169.29 181.12 167.63 179.05 165.69C180.19 165.28 181.05 163.84 179.87 162.28C180.86 162.99 181.29 163.66 181.36 164.25C181.34 165.16 180.72 165.87 179.97 166.14C182.04 168.09 180.31 169.75 179.24 169.99C180.56 171.35 179.02 173.16 177.62 172.92C178.31 174.38 176.22 175.69 174.11 174.73C173.87 174.62 173.63 174.49 173.4 174.34C175.43 175.13 177.37 173.88 176.7 172.47Z" fill="#FECFB4" fill-opacity="1.000000" fill-rule="nonzero"/>
		</g>
	</g>
	<g mask="url(#mask1_37868)">
		<g style="mix-blend-mode:normal">
			<path id="Path 35135" d="M178.13 161.7C174.81 161.18 172.95 163.19 174.87 164.24C173.11 164.03 171.44 165.84 175.53 168.27C171.52 166.56 170.99 169.94 174.81 171.86C173.41 172.74 174.4 173.87 176.17 174.24C175.69 174.29 174.84 174.2 174.29 173.95C172.44 173.1 170.24 171.47 171.96 170.39C169.95 168.76 170.53 166.28 172.96 166.9C170.71 165.3 171.35 163.25 173.11 163.45C170.75 162.16 172.96 159.24 178.13 161.7Z" fill="#E79B71" fill-opacity="1.000000" fill-rule="nonzero"/>
		</g>
	</g>
	<g mask="url(#mask1_37868)">
		<g style="mix-blend-mode:normal">
			<path id="Path 35136" d="M171.83 162.82C175.67 165.35 179.83 165.98 179.88 165.98C179.94 165.99 179.99 165.95 180 165.88C180.01 165.82 179.97 165.77 179.9 165.76C179.87 165.75 175.79 165.16 171.99 162.66C171.93 162.63 171.86 162.65 171.83 162.7C171.8 162.74 171.8 162.79 171.83 162.82Z" fill="#C36141" fill-opacity="1.000000" fill-rule="nonzero"/>
		</g>
	</g>
	<g mask="url(#mask1_37868)">
		<g style="mix-blend-mode:normal">
			<path id="Path 35137" d="M171.48 166.15C174.91 168.45 179.16 170.08 179.2 170.1C179.26 170.12 179.32 170.1 179.35 170.04C179.37 169.97 179.34 169.91 179.28 169.89C179.24 169.87 175.04 168.28 171.63 166C171.58 165.96 171.51 165.98 171.48 166.03C171.45 166.07 171.45 166.12 171.48 166.15Z" fill="#C36141" fill-opacity="1.000000" fill-rule="nonzero"/>
		</g>
	</g>
	<g mask="url(#mask1_37868)">
		<g style="mix-blend-mode:normal">
			<path id="Path 35138" d="M171.11 169.95C174.1 172.35 177.57 173.03 177.6 173.04C177.66 173.05 177.72 173.01 177.73 172.95C177.74 172.88 177.7 172.83 177.64 172.81C177.61 172.81 174.21 172.16 171.27 169.8C171.22 169.76 171.15 169.77 171.11 169.82C171.08 169.85 171.08 169.91 171.11 169.95Z" fill="#C36141" fill-opacity="1.000000" fill-rule="nonzero"/>
		</g>
	</g>
	<g mask="url(#mask1_37868)">
		<g style="mix-blend-mode:normal">
			<path id="Path 35139" d="M59.66 79.04C57.69 74.69 59.88 74.61 60.59 69.31C61.3 64.01 55.01 63.66 57.64 57.48C59.17 53.87 64.89 54.73 64.35 50.59C63.81 46.46 59.76 39.98 64.98 37.09C70.21 34.21 75.89 33.26 75.55 29.1C75.21 24.94 81.75 15.28 87.24 18.96C95.88 24.76 94.36 21.88 98.52 19.49C104.85 15.86 108.89 23.74 110.13 20.97C112.09 16.62 102.84 12.71 107.55 8.89C112.25 5.07 107.55 13.5 115.66 18.85C123.77 24.19 126.33 2.43 132.03 9.29C137.73 16.16 115.58 22.86 123.77 24.19C131.95 25.52 145.79 21.11 147.05 30.76C148.32 40.4 151.05 39.84 157.74 43.57C164.44 47.3 153.01 51.8 156.18 59.2C159.35 66.59 163.39 74.47 157.53 78.64C151.67 82.82 157.6 91.45 149.05 94.97C145.08 89.08 59.66 79.04 59.66 79.04Z" fill="#111111" fill-opacity="1.000000" fill-rule="nonzero"/>
		</g>
	</g>
	<g mask="url(#mask1_37868)">
		<g style="mix-blend-mode:normal">
			<path id="Path 35140" d="M66.13 94.61C69.55 111.59 86.12 118.83 102.5 115.48C120.43 123.95 136.64 116.22 143.2 108.15C149.75 100.09 66.13 94.61 66.13 94.61Z" fill="#111111" fill-opacity="1.000000" fill-rule="nonzero"/>
		</g>
	</g>
	<g mask="url(#mask1_37868)">
		<g style="mix-blend-mode:normal">
			<path id="Path 35141" d="M82.56 45.99C91.98 33.13 112.87 37.9 116.83 38.95C120.85 39.7 141.75 44.38 144.73 60.04C148.02 77.39 146.9 99.96 133.77 109.7C121.48 118.82 106.56 121.64 99.34 120.17C90.3 119.37 77.95 108.27 72.56 98.4C64.74 84.05 72.13 60.23 82.56 45.99Z" fill="#F8BA88" fill-opacity="1.000000" fill-rule="nonzero"/>
		</g>
	</g>
	<g mask="url(#mask1_37868)">
		<g style="mix-blend-mode:normal">
			<path id="Path 35142" d="M138.6 96.05C138.6 96.05 142.81 90.8 149.22 93.59C155.98 96.53 153.13 106.71 146.27 110.36C139.4 114.01 133.2 110.87 132.43 106.73L138.6 96.05Z" fill="#F8BA88" fill-opacity="1.000000" fill-rule="nonzero"/>
		</g>
	</g>
	<g mask="url(#mask1_37868)">
		<g style="mix-blend-mode:normal">
			<path id="Path 35143" d="M148.48 99.11C145.96 96.37 139.12 100.69 140.82 106.72C142.27 101.23 144.9 100.88 145.52 104.45C146.52 103.04 146.43 101.63 144.54 100.5C146.03 98.76 148.48 99.11 148.48 99.11Z" fill="#C36549" fill-opacity="1.000000" fill-rule="nonzero"/>
		</g>
	</g>
	<g mask="url(#mask1_37868)">
		<g style="mix-blend-mode:normal">
			<path id="Path 35144" d="M73.22 82.1C73.22 82.1 72.09 75.47 65.12 74.81C57.78 74.1 55.34 84.39 59.57 90.91C63.81 97.42 70.75 97.68 73.43 94.44L73.22 82.1Z" fill="#F8BA88" fill-opacity="1.000000" fill-rule="nonzero"/>
		</g>
	</g>
	<g mask="url(#mask1_37868)">
		<g style="mix-blend-mode:normal">
			<path id="Path 35145" d="M61.71 81.16C64.91 79.26 70.21 85.38 66.84 90.66C67.04 84.98 64.63 83.89 63 87.12C62.45 85.48 62.94 84.16 65.08 83.63C64.15 81.52 61.71 81.16 61.71 81.16Z" fill="#C36549" fill-opacity="1.000000" fill-rule="nonzero"/>
		</g>
	</g>
	<g mask="url(#mask1_37868)">
		<g style="mix-blend-mode:normal">
			<path id="Path 35146" d="M108.15 81.26C107.61 79.31 105.95 78.5 104.24 80.42C103.05 81.76 97.72 90.35 98.81 95.41C99.18 97.15 100.31 98.47 102.64 98.94C105.34 99.49 107.03 98.52 108.03 96.78C110.45 92.56 108.86 83.84 108.15 81.26Z" fill="#F79572" fill-opacity="1.000000" fill-rule="nonzero"/>
		</g>
	</g>
	<g mask="url(#mask1_37868)">
		<g style="mix-blend-mode:normal">
			<path id="Path 35147" d="M101.29 94.18C101.09 94.45 101.38 94.97 101.91 95.35C102.45 95.73 103.04 95.81 103.23 95.54C103.42 95.26 103.14 94.74 102.61 94.36C102.07 93.99 101.47 93.9 101.29 94.18Z" fill="#FBB398" fill-opacity="1.000000" fill-rule="nonzero"/>
		</g>
	</g>
	<g mask="url(#mask1_37868)">
		<g style="mix-blend-mode:normal">
			<path id="Path 35148" d="M105.31 82.8C105.31 82.8 100.85 92.41 102.59 93.51C104.34 94.62 105.78 83.36 105.31 82.8Z" fill="#FBB398" fill-opacity="1.000000" fill-rule="nonzero"/>
		</g>
	</g>
	<g mask="url(#mask1_37868)">
		<g style="mix-blend-mode:normal">
			<path id="Path 35149" d="M107.26 96.69C107.37 96.46 107.55 95.79 106.65 95.87C105.75 95.96 103.28 97.59 104.24 98.15C104.92 98.56 106.95 97.36 107.26 96.69Z" fill="#A03D29" fill-opacity="1.000000" fill-rule="nonzero"/>
		</g>
	</g>
	<g mask="url(#mask1_37868)">
		<g style="mix-blend-mode:normal">
			<path id="Path 35150" d="M99.73 95.3C99.72 95.05 99.82 94.36 100.61 94.79C101.41 95.22 103.04 97.68 101.94 97.83C101.16 97.94 99.75 96.04 99.73 95.3Z" fill="#A03D29" fill-opacity="1.000000" fill-rule="nonzero"/>
		</g>
	</g>
	<g mask="url(#mask1_37868)">
		<g style="mix-blend-mode:normal">
			<path id="Path 35151" d="M131.69 79.34C131.69 79.34 132.21 73.49 126.92 70.08C124.46 68.37 122.31 71.15 123.71 72.54C124.46 73.27 128.31 74.74 131.69 79.34Z" fill="#111111" fill-opacity="1.000000" fill-rule="nonzero"/>
		</g>
	</g>
	<g mask="url(#mask1_37868)">
		<g style="mix-blend-mode:normal">
			<path id="Path 35152" d="M83.8 71.01C83.8 71.01 86.23 65.71 90.51 64.18C94.29 63.37 93.7 66.89 92.85 67.51C92 68.13 88.35 68.23 83.8 71.01Z" fill="#111111" fill-opacity="1.000000" fill-rule="nonzero"/>
		</g>
	</g>
	<g mask="url(#mask1_37868)">
		<g style="mix-blend-mode:normal">
			<path id="Path 35153" d="M111.14 90.94C109.83 93.78 113.31 98.16 118.9 100.73C124.49 103.29 130.07 103.07 131.38 100.23C132.68 97.39 129.21 93.01 123.62 90.45C118.03 87.88 112.44 88.1 111.14 90.94Z" fill="#F79572" fill-opacity="1.000000" fill-rule="nonzero"/>
		</g>
	</g>
	<g mask="url(#mask1_37868)">
		<g style="mix-blend-mode:normal">
			<path id="Path 35154" d="M127.4 97.51C127.21 97.78 127.49 98.31 128.03 98.68C128.56 99.06 129.15 99.15 129.34 98.87C129.53 98.6 129.25 98.07 128.72 97.7C128.18 97.32 127.59 97.24 127.4 97.51Z" fill="#FBB398" fill-opacity="1.000000" fill-rule="nonzero"/>
		</g>
	</g>
	<g mask="url(#mask1_37868)">
		<g style="mix-blend-mode:normal">
			<path id="Path 35155" d="M119.55 91.39C119.48 91.7 119.87 92.05 120.43 92.18C120.99 92.3 121.5 92.15 121.57 91.84C121.64 91.53 121.25 91.17 120.68 91.05C120.13 90.92 119.62 91.07 119.55 91.39Z" fill="#D56942" fill-opacity="1.000000" fill-rule="nonzero"/>
		</g>
	</g>
	<g mask="url(#mask1_37868)">
		<g style="mix-blend-mode:normal">
			<path id="Path 35156" d="M124.46 93.51C124.39 93.83 124.78 94.18 125.34 94.31C125.89 94.43 126.4 94.28 126.47 93.97C126.55 93.66 126.15 93.3 125.59 93.18C125.04 93.05 124.53 93.2 124.46 93.51Z" fill="#D56942" fill-opacity="1.000000" fill-rule="nonzero"/>
		</g>
	</g>
	<g mask="url(#mask1_37868)">
		<g style="mix-blend-mode:normal">
			<path id="Path 35157" d="M121.16 94.86C121.09 95.17 121.49 95.52 122.04 95.65C122.6 95.78 123.11 95.62 123.18 95.31C123.25 95 122.86 94.64 122.3 94.51C121.74 94.39 121.23 94.54 121.16 94.86Z" fill="#D56942" fill-opacity="1.000000" fill-rule="nonzero"/>
		</g>
	</g>
	<g mask="url(#mask1_37868)">
		<g style="mix-blend-mode:normal">
			<path id="Path 35158" d="M97.45 89.49C97.67 92.61 92.89 95.49 86.75 95.93C80.62 96.37 75.46 94.2 75.23 91.09C75.01 87.97 79.8 85.09 85.94 84.65C92.07 84.21 97.23 86.38 97.45 89.49Z" fill="#F79572" fill-opacity="1.000000" fill-rule="nonzero"/>
		</g>
	</g>
	<g mask="url(#mask1_37868)">
		<g style="mix-blend-mode:normal">
			<path id="Path 35159" d="M79.86 89.02C79.88 89.25 79.53 89.46 79.08 89.49C78.63 89.53 78.25 89.37 78.24 89.14C78.22 88.91 78.57 88.7 79.02 88.67C79.47 88.64 79.84 88.8 79.86 89.02Z" fill="#FBB398" fill-opacity="1.000000" fill-rule="nonzero"/>
		</g>
	</g>
	<g mask="url(#mask1_37868)">
		<g style="mix-blend-mode:normal">
			<path id="Path 35160" d="M89.55 87.03C89.51 87.35 89.02 87.54 88.45 87.47C87.89 87.4 87.46 87.08 87.5 86.76C87.54 86.45 88.03 86.25 88.6 86.32C89.17 86.4 89.59 86.71 89.55 87.03Z" fill="#D56942" fill-opacity="1.000000" fill-rule="nonzero"/>
		</g>
	</g>
	<g mask="url(#mask1_37868)">
		<g style="mix-blend-mode:normal">
			<path id="Path 35161" d="M84.21 87.34C84.17 87.66 83.68 87.86 83.11 87.79C82.55 87.71 82.12 87.39 82.16 87.08C82.2 86.76 82.69 86.56 83.26 86.63C83.82 86.71 84.25 87.02 84.21 87.34Z" fill="#D56942" fill-opacity="1.000000" fill-rule="nonzero"/>
		</g>
	</g>
	<g mask="url(#mask1_37868)">
		<g style="mix-blend-mode:normal">
			<path id="Path 35162" d="M86.85 89.73C86.8 90.05 86.31 90.25 85.74 90.18C85.18 90.1 84.75 89.79 84.8 89.47C84.83 89.15 85.33 88.95 85.89 89.02C86.46 89.1 86.89 89.41 86.85 89.73Z" fill="#D56942" fill-opacity="1.000000" fill-rule="nonzero"/>
		</g>
	</g>
	<g mask="url(#mask1_37868)">
		<g style="mix-blend-mode:normal">
			<path id="Path 35163" d="M150.24 94.68C150.24 94.68 142.64 91.67 137.44 95.99C139.1 93.23 139.71 85.65 141.57 65.12C132.74 66.33 124.65 66.46 117.43 65.94C116.43 65.87 116.86 56.87 116.3 51.6C115.44 56.25 115.18 65.82 114.41 65.73C113.16 65.59 109.5 65.08 108.84 64.99C108.35 59.18 109.83 51.12 109.83 44.97C108.02 47.48 104.33 60.11 103.46 64.63C89.23 61.42 78.43 56.03 78.43 56.03C78.43 56.03 75.93 71.57 71.31 81.57C69.38 76.46 64.29 74.43 60.23 76.03C61.12 44.14 73.29 29.85 89.09 25.26C112.5 18.46 136.02 26.34 146.36 36.45C164.35 54.05 150.24 94.68 150.24 94.68Z" fill="#111111" fill-opacity="1.000000" fill-rule="nonzero"/>
		</g>
	</g>
	<g mask="url(#mask1_37868)">
		<g style="mix-blend-mode:normal">
			<path id="Path 35164" d="M155.12 43.57C148.8 40.05 146.22 40.57 145.03 31.47C144.95 30.83 144.79 30.27 144.59 29.75C120.19 34.53 91.42 32.9 77.37 31.34C76.42 34.11 71.84 35.09 67.57 37.45C62.63 40.18 66.46 46.29 66.97 50.19C66.98 50.28 66.97 50.35 66.98 50.43C108.48 29.95 130.29 38.69 153.25 54.5C154.24 49.69 160.2 46.39 155.12 43.57Z" fill="#1F2020" fill-opacity="1.000000" fill-rule="nonzero"/>
		</g>
	</g>
	<g mask="url(#mask1_37868)">
		<g style="mix-blend-mode:normal">
			<path id="Path 35165" d="M111.9 103.54C111.9 103.54 103.1 105.89 93.18 100.62C92.81 100.82 93.39 111.39 100.64 112.9C107.06 114.24 110.98 108.05 111.9 103.54Z" fill="#3B1515" fill-opacity="1.000000" fill-rule="nonzero"/>
		</g>
	</g>
	<g mask="url(#mask1_37868)">
		<g style="mix-blend-mode:normal">
			<path id="Path 35166" d="M109.43 103.88C107.68 108.58 96.16 107.17 94.88 101.44C100.82 104.05 106.36 104.13 109.43 103.88Z" fill="#FFFFFF" fill-opacity="1.000000" fill-rule="nonzero"/>
		</g>
	</g>
	<g mask="url(#mask1_37868)">
		<g style="mix-blend-mode:normal">
			<path id="Path 35167" d="M95.93 109.84C97.28 109.14 99.7 108.28 102.15 108.65C104.96 109.09 106.33 110.54 106.98 111.57C106.56 111.87 106.11 112.14 105.64 112.36C105.4 112.47 105.13 112.58 104.89 112.66C104.66 112.74 104.4 112.82 104.15 112.88C103.91 112.93 103.59 112.99 103.34 113.02C103.3 113.03 103.26 113.03 103.22 113.04C102.99 113.06 102.75 113.08 102.5 113.08C102.24 113.08 101.91 113.07 101.64 113.05C101.58 113.04 101.52 113.03 101.46 113.03C101.19 113 100.92 112.96 100.64 112.9C98.57 112.47 97.04 111.3 95.93 109.84Z" fill="#E65D59" fill-opacity="1.000000" fill-rule="nonzero"/>
		</g>
	</g>
	<g mask="url(#mask1_37868)">
		<g style="mix-blend-mode:normal">
			<path id="Path 35168" d="M100.51 109C101.12 109.1 101.62 109.4 101.51 109.64C101.51 109.88 100.33 110.16 99.64 109.78C99.44 109.66 99.08 109.51 99.18 109.3C99.28 109.07 99.91 108.91 100.51 109Z" fill="#F59F9D" fill-opacity="1.000000" fill-rule="nonzero"/>
		</g>
	</g>
	<g mask="url(#mask1_37868)">
		<g style="mix-blend-mode:normal">
			<path id="Path 35169" d="M95.65 82.47C95.43 82.48 95.2 82.31 95.2 82.09C95.07 77.58 93 75.42 91.01 75.27C89.14 75.13 86.96 76.69 86.29 80.48C86.25 80.7 86.04 80.84 85.83 80.8C85.61 80.77 85.47 80.56 85.51 80.34C86.27 76.06 88.85 74.32 91.07 74.48C93.41 74.65 95.85 77.06 95.99 82.07C96 82.28 95.85 82.45 95.65 82.47Z" fill="#111111" fill-opacity="1.000000" fill-rule="nonzero"/>
		</g>
	</g>
	<g mask="url(#mask1_37868)">
		<g style="mix-blend-mode:normal">
			<path id="Path 35170" d="M126.3 86.54C126.09 86.55 125.86 86.38 125.86 86.16C125.72 81.65 123.66 79.48 121.67 79.34C119.8 79.2 117.62 80.76 116.95 84.55C116.91 84.76 116.7 84.91 116.49 84.87C116.27 84.83 116.13 84.63 116.16 84.41C116.92 80.13 119.51 78.38 121.73 78.54C124.07 78.72 126.5 81.13 126.65 86.14C126.66 86.34 126.51 86.51 126.3 86.54Z" fill="#111111" fill-opacity="1.000000" fill-rule="nonzero"/>
		</g>
	</g>
	<g mask="url(#mask1_37868)">
		<g style="mix-blend-mode:normal">
			<path id="Path 35171" d="M87.86 96.37C78.78 96.43 71.34 89.08 71.28 79.99C71.23 70.91 78.57 63.47 87.66 63.41C96.75 63.36 104.18 70.71 104.24 79.79C104.29 88.88 96.95 96.32 87.86 96.37ZM87.67 65.05C79.49 65.1 72.87 71.8 72.92 79.98C72.97 88.17 79.67 94.79 87.85 94.74C96.04 94.69 102.66 87.99 102.6 79.8C102.55 71.62 95.85 65 87.67 65.05Z" fill="#EB422C" fill-opacity="1.000000" fill-rule="nonzero"/>
		</g>
	</g>
	<g mask="url(#mask1_37868)">
		<g style="mix-blend-mode:normal">
			<path id="Path 35172" d="M123.58 102.14C114.49 102.2 107.06 94.85 107 85.77C106.94 76.68 114.29 69.24 123.38 69.19C132.46 69.13 139.9 76.48 139.95 85.56C140.01 94.65 132.66 102.09 123.58 102.14ZM123.39 70.82C115.2 70.87 108.58 77.57 108.63 85.76C108.68 93.94 115.38 100.56 123.57 100.51C131.75 100.46 138.37 93.76 138.32 85.57C138.27 77.39 131.57 70.77 123.39 70.82Z" fill="#EB422C" fill-opacity="1.000000" fill-rule="nonzero"/>
		</g>
	</g>
	<g mask="url(#mask1_37868)">
		<g style="mix-blend-mode:normal">
			<path id="Path 35173" d="M72.36 77.94C72.31 77.94 72.26 77.94 72.21 77.93L66.21 76.88C65.77 76.8 65.47 76.38 65.55 75.93C65.63 75.49 66.05 75.19 66.5 75.27L72.5 76.32C72.94 76.4 73.24 76.82 73.16 77.27C73.09 77.66 72.75 77.94 72.36 77.94Z" fill="#EB422C" fill-opacity="1.000000" fill-rule="nonzero"/>
		</g>
	</g>
	<g mask="url(#mask1_37868)">
		<g style="mix-blend-mode:normal">
			<path id="Path 35174" d="M138.63 90.29C138.66 90.32 138.7 90.35 138.74 90.38L143.93 93.58C144.31 93.82 144.81 93.7 145.05 93.31C145.29 92.93 145.17 92.43 144.78 92.19L139.6 88.99C139.22 88.75 138.72 88.87 138.48 89.25C138.27 89.59 138.34 90.03 138.63 90.29Z" fill="#EB422C" fill-opacity="1.000000" fill-rule="nonzero"/>
		</g>
	</g>
	<g mask="url(#mask1_37868)">
		<g style="mix-blend-mode:normal">
			<path id="Path 35175" d="M107.94 83.81C107.89 83.81 107.85 83.81 107.8 83.8L103.03 83.01C102.59 82.94 102.28 82.52 102.36 82.07C102.43 81.62 102.85 81.33 103.3 81.4L108.07 82.19C108.51 82.26 108.82 82.68 108.74 83.13C108.68 83.52 108.33 83.81 107.94 83.81Z" fill="#EB422C" fill-opacity="1.000000" fill-rule="nonzero"/>
		</g>
	</g>
</svg>
