<svg width="153.833252" height="142.296875" viewBox="0 0 153.833 142.297" fill="none" xmlns="http://www.w3.org/2000/svg" xmlns:xlink="http://www.w3.org/1999/xlink">
	<desc>
			Created with Pixso.
	</desc>
	<defs/>
	<mask id="mask1_36624" mask-type="alpha" maskUnits="userSpaceOnUse" x="0.000000" y="0.000000" width="153.833252" height="142.296875">
		<g style="mix-blend-mode:normal">
			<rect id="Rectangle 2888" x="27.633301" width="130.063293" height="114.224487" transform="rotate(14 27.633301 0.000000)" fill="#C4C4C4" fill-opacity="1.000000"/>
		</g>
	</mask>
	<g mask="url(#mask1_36624)">
		<g style="mix-blend-mode:normal">
			<path id="Path 21004" d="M47.79 28L46.35 15.45C45.91 11.62 48.66 8.16 52.49 7.72C56.33 7.28 59.79 10.03 60.23 13.86L61.67 26.4L47.79 28Z" fill="#2694ED" fill-opacity="1.000000" fill-rule="nonzero"/>
		</g>
	</g>
	<g mask="url(#mask1_36624)">
		<g style="mix-blend-mode:normal">
			<path id="Path 21005" d="M52.49 7.72C53.91 7.56 55.27 7.83 56.45 8.43C56.14 8.42 55.82 8.43 55.5 8.47C51.67 8.91 48.92 12.37 49.36 16.2L50.67 27.66L47.79 28L46.35 15.45C45.91 11.62 48.66 8.16 52.49 7.72Z" fill="#A670C6" fill-opacity="1.000000" fill-rule="nonzero"/>
		</g>
	</g>
	<g mask="url(#mask1_36624)">
		<g style="mix-blend-mode:normal">
			<path id="Path 21006" d="M122.88 46.72L130.04 36.32C132.23 33.14 131.42 28.79 128.25 26.6C125.07 24.42 120.72 25.22 118.53 28.4L111.37 38.79L122.88 46.72Z" fill="#2694ED" fill-opacity="1.000000" fill-rule="nonzero"/>
		</g>
	</g>
	<g mask="url(#mask1_36624)">
		<g style="mix-blend-mode:normal">
			<path id="Path 21007" d="M112.61 76.37L42.94 59L1.25 110.08L125.44 141.04L112.61 76.37Z" fill="#F4EFED" fill-opacity="1.000000" fill-rule="nonzero"/>
		</g>
	</g>
	<g mask="url(#mask1_36624)">
		<g style="mix-blend-mode:normal">
			<path id="Path 21008" d="M112.61 76.37L107.16 75.01L119.99 139.68L125.44 141.04L112.61 76.37Z" fill="#D6D1CF" fill-opacity="1.000000" fill-rule="nonzero"/>
		</g>
	</g>
	<g mask="url(#mask1_36624)">
		<g style="mix-blend-mode:normal">
			<path id="Path 21009" d="M42.94 59L48.39 60.36L6.7 111.43L1.25 110.08L42.94 59Z" fill="#FFFFFF" fill-opacity="1.000000" fill-rule="nonzero"/>
		</g>
	</g>
	<g mask="url(#mask1_36624)">
		<g style="mix-blend-mode:normal">
			<path id="Path 21010" d="M125.19 142.04L1 111.08C0.65 110.99 0.38 110.74 0.27 110.4C0.16 110.07 0.22 109.7 0.45 109.42L42.14 58.34C42.39 58.03 42.8 57.9 43.19 58L112.86 75.37C113.25 75.46 113.55 75.78 113.62 76.17L126.46 140.84C126.52 141.19 126.41 141.54 126.16 141.79C125.9 142.03 125.54 142.13 125.19 142.04ZM3.08 109.47L124.11 139.64L111.73 77.21L43.32 60.16L3.08 109.47Z" fill="#690589" fill-opacity="1.000000" fill-rule="nonzero"/>
		</g>
	</g>
	<g mask="url(#mask1_36624)">
		<g style="mix-blend-mode:normal">
			<path id="Path 21011" d="M26.99 86.91C26.85 86.88 26.71 86.81 26.59 86.71C26.15 86.35 26.08 85.7 26.44 85.26L30.77 79.95C31.13 79.51 31.78 79.45 32.22 79.81C32.66 80.17 32.73 80.82 32.37 81.26L28.04 86.56C27.78 86.88 27.37 87.01 26.99 86.91Z" fill="#690589" fill-opacity="1.000000" fill-rule="nonzero"/>
		</g>
	</g>
	<g mask="url(#mask1_36624)">
		<g style="mix-blend-mode:normal">
			<path id="Path 21012" d="M88.6 132.92L37.59 120.2C37.28 120.12 37.03 119.91 36.9 119.62C36.77 119.34 36.77 119.01 36.92 118.72L64.98 64.25C65.2 63.82 65.68 63.6 66.15 63.72L89.9 69.64C90.37 69.76 90.69 70.18 90.68 70.66L89.89 131.93C89.88 132.25 89.73 132.54 89.48 132.74C89.23 132.93 88.91 133 88.6 132.92ZM39.35 118.51L87.84 130.6L88.61 71.45L66.44 65.92L39.35 118.51Z" fill="#690589" fill-opacity="1.000000" fill-rule="nonzero"/>
		</g>
	</g>
	<g mask="url(#mask1_36624)">
		<g style="mix-blend-mode:normal">
			<path id="Path 21013" d="M115.1 94.44L32.25 73.79C31.7 73.65 31.36 73.09 31.5 72.54C31.64 71.98 32.2 71.65 32.75 71.78L115.6 92.44C116.16 92.58 116.49 93.14 116.36 93.69C116.22 94.25 115.66 94.58 115.1 94.44Z" fill="#690589" fill-opacity="1.000000" fill-rule="nonzero"/>
		</g>
	</g>
	<g mask="url(#mask1_36624)">
		<g style="mix-blend-mode:normal">
			<path id="Path 21014" d="M119.99 118.45L16.66 92.69C16.11 92.55 15.77 91.99 15.91 91.43C16.05 90.88 16.61 90.54 17.16 90.68L120.49 116.45C121.05 116.58 121.38 117.14 121.24 117.7C121.11 118.25 120.55 118.59 119.99 118.45Z" fill="#690589" fill-opacity="1.000000" fill-rule="nonzero"/>
		</g>
	</g>
	<g mask="url(#mask1_36624)">
		<g style="mix-blend-mode:normal">
			<path id="Path 21015" d="M98.03 99.15L37.6 84.08L47.79 27.99L61.67 26.4L98.03 99.15Z" fill="#FCC24C" fill-opacity="1.000000" fill-rule="nonzero"/>
		</g>
	</g>
	<g mask="url(#mask1_36624)">
		<g style="mix-blend-mode:normal">
			<path id="Path 21016" d="M45.11 85.96L105.55 101.03L122.88 46.72L111.37 38.79L45.11 85.96Z" fill="#D3004C" fill-opacity="1.000000" fill-rule="nonzero"/>
		</g>
	</g>
	<g mask="url(#mask1_36624)">
		<g style="mix-blend-mode:normal">
			<path id="Path 21017" d="M119.33 44.27L101.54 100.03L105.55 101.03L122.88 46.72L119.33 44.27Z" fill="#8D0334" fill-opacity="1.000000" fill-rule="nonzero"/>
		</g>
	</g>
	<g mask="url(#mask1_36624)">
		<g style="mix-blend-mode:normal">
			<path id="Path 21018" d="M52.07 27.5L41.6 85.08L37.6 84.08L47.79 27.99L52.07 27.5Z" fill="#FCE06A" fill-opacity="1.000000" fill-rule="nonzero"/>
		</g>
	</g>
	<g mask="url(#mask1_36624)">
		<g style="mix-blend-mode:normal">
			<path id="Path 21019" d="M97.79 100.15L37.35 85.08C36.82 84.95 36.48 84.43 36.58 83.9L46.78 27.81C46.86 27.36 47.22 27.02 47.68 26.97L61.55 25.38C61.98 25.33 62.4 25.55 62.59 25.94L98.96 98.69C99.14 99.05 99.09 99.48 98.84 99.8C98.59 100.11 98.18 100.25 97.79 100.15ZM38.79 83.31L96.11 97.61L61.07 27.51L48.67 28.93L38.79 83.31Z" fill="#690589" fill-opacity="1.000000" fill-rule="nonzero"/>
		</g>
	</g>
	<g mask="url(#mask1_36624)">
		<g style="mix-blend-mode:normal">
			<path id="Path 21020" d="M105.3 102.03L44.86 86.96C44.47 86.86 44.17 86.54 44.1 86.15C44.02 85.75 44.18 85.35 44.51 85.12L110.78 37.95C111.13 37.7 111.6 37.7 111.96 37.94L123.46 45.87C123.84 46.12 124 46.6 123.86 47.03L106.53 101.34C106.37 101.86 105.83 102.16 105.3 102.03ZM47.54 85.5L104.86 99.79L121.66 47.13L111.38 40.05L47.54 85.5Z" fill="#690589" fill-opacity="1.000000" fill-rule="nonzero"/>
		</g>
	</g>
	<g mask="url(#mask1_36624)">
		<g style="mix-blend-mode:normal">
			<path id="Path 21021" d="M47.54 29C47.4 28.96 47.27 28.9 47.15 28.8C46.94 28.63 46.8 28.38 46.77 28.11L45.33 15.57C44.82 11.18 47.99 7.2 52.38 6.69C56.77 6.19 60.75 9.35 61.26 13.74L62.7 26.28C62.76 26.85 62.36 27.36 61.79 27.43L47.91 29.02C47.79 29.04 47.66 29.03 47.54 29ZM54.73 8.88C54.05 8.71 53.34 8.66 52.61 8.74C49.35 9.12 47 12.08 47.38 15.34L48.7 26.85L60.53 25.49L59.2 13.98C58.91 11.44 57.06 9.46 54.73 8.88Z" fill="#690589" fill-opacity="1.000000" fill-rule="nonzero"/>
		</g>
	</g>
	<g mask="url(#mask1_36624)">
		<g style="mix-blend-mode:normal">
			<path id="Path 21022" d="M54.17 22.33C58 21.89 61.36 23.71 61.67 26.4C61.98 29.09 59.12 31.62 55.29 32.06C51.46 32.5 48.1 30.68 47.79 27.99C47.48 25.31 50.34 22.77 54.17 22.33Z" fill="#FCC24C" fill-opacity="1.000000" fill-rule="nonzero"/>
		</g>
	</g>
	<g mask="url(#mask1_36624)">
		<g style="mix-blend-mode:normal">
			<path id="Path 21023" d="M51.75 32.87C49.04 32.2 47.03 30.41 46.77 28.11C46.39 24.86 49.66 21.81 54.06 21.3C58.45 20.8 62.32 23.03 62.7 26.28C62.89 27.93 62.18 29.55 60.72 30.85C59.36 32.06 57.47 32.85 55.41 33.09C54.12 33.24 52.87 33.15 51.75 32.87ZM57.24 23.53C56.35 23.31 55.33 23.24 54.29 23.36C51.09 23.72 48.58 25.79 48.82 27.88C49.06 29.96 51.97 31.41 55.17 31.04C56.82 30.85 58.3 30.23 59.35 29.3C60.3 28.46 60.76 27.47 60.65 26.52C60.48 25.11 59.11 24 57.24 23.53Z" fill="#690589" fill-opacity="1.000000" fill-rule="nonzero"/>
		</g>
	</g>
	<g mask="url(#mask1_36624)">
		<g style="mix-blend-mode:normal">
			<path id="Path 21024" d="M128.25 26.6C127.08 25.8 125.74 25.4 124.42 25.38C124.7 25.52 124.98 25.67 125.24 25.86C128.42 28.04 129.22 32.39 127.03 35.57L120.49 45.07L122.88 46.72L130.04 36.32C132.23 33.14 131.42 28.79 128.25 26.6Z" fill="#6A348A" fill-opacity="1.000000" fill-rule="nonzero"/>
		</g>
	</g>
	<g mask="url(#mask1_36624)">
		<g style="mix-blend-mode:normal">
			<path id="Path 21025" d="M122.63 47.72C122.51 47.69 122.4 47.64 122.29 47.57L110.79 39.64C110.32 39.32 110.2 38.68 110.52 38.21L117.68 27.81C120.19 24.17 125.19 23.25 128.83 25.75C132.47 28.26 133.4 33.26 130.89 36.9L123.73 47.3C123.57 47.53 123.34 47.68 123.07 47.73C122.92 47.76 122.77 47.75 122.63 47.72ZM112.81 38.53L122.61 45.28L129.19 35.73C131.05 33.03 130.37 29.32 127.66 27.46C124.96 25.59 121.25 26.28 119.38 28.98L112.81 38.53Z" fill="#690589" fill-opacity="1.000000" fill-rule="nonzero"/>
		</g>
	</g>
	<g mask="url(#mask1_36624)">
		<g style="mix-blend-mode:normal">
			<path id="Path 21026" d="M111.37 38.8C112.91 36.57 116.73 36.54 119.9 38.72C123.08 40.91 124.41 44.49 122.88 46.72C121.34 48.95 117.52 48.98 114.35 46.79C111.17 44.61 109.84 41.03 111.37 38.8Z" fill="#FCC24C" fill-opacity="1.000000" fill-rule="nonzero"/>
		</g>
	</g>
	<g mask="url(#mask1_36624)">
		<g style="mix-blend-mode:normal">
			<path id="Path 21027" d="M117.1 49.16C115.97 48.88 114.83 48.38 113.76 47.64C112.05 46.46 110.76 44.87 110.13 43.17C109.44 41.33 109.59 39.57 110.52 38.21C112.38 35.51 116.85 35.36 120.49 37.87C124.13 40.38 125.58 44.61 123.73 47.3C122.42 49.2 119.8 49.84 117.1 49.16ZM116.63 38.34C114.77 37.87 113.03 38.21 112.22 39.38C111.68 40.17 111.62 41.26 112.06 42.45C112.55 43.76 113.57 45 114.93 45.94C117.59 47.77 120.84 47.86 122.03 46.13C123.22 44.4 121.98 41.4 119.32 39.57C118.46 38.97 117.53 38.56 116.63 38.34Z" fill="#690589" fill-opacity="1.000000" fill-rule="nonzero"/>
		</g>
	</g>
</svg>
