<svg width="103.000000" height="89.000000" viewBox="0 0 103 89" fill="none" xmlns="http://www.w3.org/2000/svg" xmlns:xlink="http://www.w3.org/1999/xlink">
	<desc>
			Created with Pixso.
	</desc>
	<defs/>
	<mask id="mask78_515" mask-type="alpha" maskUnits="userSpaceOnUse" x="0.000000" y="0.000000" width="103.000000" height="89.000000">
		<rect id="Rectangle 3538" width="103.000000" height="89.000000" fill="#161616" fill-opacity="1.000000"/>
	</mask>
	<g mask="url(#mask78_515)">
		<mask id="mask78_494" mask-type="alpha" maskUnits="userSpaceOnUse" x="-2.000000" y="-2.000000" width="105.508301" height="98.924805">
			<g style="mix-blend-mode:normal">
				<rect id="Rectangle 2560" x="-2.000000" y="8.108398" width="96.703148" height="89.305779" transform="rotate(-6 -2.000000 8.108398)" fill="#C4C4C4" fill-opacity="1.000000"/>
			</g>
		</mask>
		<g mask="url(#mask78_494)">
			<g style="mix-blend-mode:normal">
				<path id="Path 12817" d="M41.64 41.74L14.07 19.41C13.21 18.72 13.61 16.74 14.94 15.09C16.27 13.45 18.12 12.65 18.98 13.35L46.56 35.67L41.64 41.74Z" fill="#FFFFFF" fill-opacity="1.000000" fill-rule="nonzero"/>
			</g>
		</g>
		<g mask="url(#mask78_494)">
			<g style="mix-blend-mode:normal">
				<path id="Path 12818" d="M14.58 14.8C13.06 16.68 12.71 18.9 13.78 19.77L96.85 87.04L102.34 80.25L19.27 12.99C18.2 12.12 16.1 12.93 14.58 14.8ZM15.29 15.38C16.62 13.75 18.19 13.3 18.69 13.7L45.43 35.35C44.47 35.6 43.39 36.33 42.51 37.42C41.63 38.51 41.14 39.72 41.1 40.71L14.36 19.06C13.86 18.65 13.97 17.02 15.29 15.38Z" fill="#231F20" fill-opacity="1.000000" fill-rule="nonzero"/>
			</g>
		</g>
		<g mask="url(#mask78_494)">
			<g style="mix-blend-mode:normal">
				<path id="Path 12819" d="M102.34 80.25C103.41 81.13 103.06 83.35 101.54 85.22C100.02 87.09 97.92 87.91 96.85 87.04C95.77 86.17 96.13 83.94 97.65 82.07C99.16 80.2 101.26 79.38 102.34 80.25Z" fill="#404041" fill-opacity="1.000000" fill-rule="nonzero"/>
			</g>
		</g>
		<g mask="url(#mask78_494)">
			<g style="mix-blend-mode:normal">
				<path id="Path 12820" d="M20.5 65.32C20.25 65.34 20.01 65.18 19.95 64.93C17.4 54.99 19.29 43.45 25.13 33.27C25.27 33.02 25.59 32.93 25.83 33.08C26.08 33.22 26.16 33.53 26.02 33.78C20.32 43.73 18.46 55 20.94 64.68C21.01 64.95 20.77 65.25 20.5 65.32Z" fill="#662D7D" fill-opacity="1.000000" fill-rule="nonzero"/>
			</g>
		</g>
		<g mask="url(#mask78_494)">
			<g style="mix-blend-mode:normal">
				<path id="Path 12821" d="M52.42 86.96C44.07 87.84 36.09 85.76 29.83 80.69C29.09 80.09 28.38 79.45 27.71 78.78C27.5 78.58 27.5 78.26 27.7 78.06C27.9 77.85 28.23 77.85 28.43 78.05C29.08 78.7 29.77 79.32 30.48 79.89C41.08 88.48 56.87 88.18 70.71 79.13C70.95 78.97 71.26 79.04 71.42 79.28C71.57 79.51 71.51 79.83 71.27 79.99C65.17 83.97 58.69 86.3 52.42 86.96Z" fill="#662D7D" fill-opacity="1.000000" fill-rule="nonzero"/>
			</g>
		</g>
		<g mask="url(#mask78_494)">
			<g style="mix-blend-mode:normal">
				<path id="Path 12822" d="M86.89 63.42C86.79 63.43 86.68 63.41 86.58 63.35C86.33 63.21 86.25 62.89 86.4 62.65C95.12 47.95 95.11 30.78 86.36 19.92C86.18 19.7 86.22 19.38 86.44 19.2C86.66 19.02 86.98 19.06 87.16 19.28C96.17 30.46 96.22 48.1 87.28 63.17C87.19 63.32 87.05 63.4 86.89 63.42Z" fill="#662D7D" fill-opacity="1.000000" fill-rule="nonzero"/>
			</g>
		</g>
		<g mask="url(#mask78_494)">
			<g style="mix-blend-mode:normal">
				<path id="Path 12823" d="M34.69 22.45C34.53 22.46 34.38 22.41 34.26 22.29C34.07 22.09 34.07 21.76 34.28 21.57C47.06 9.29 64.43 5.29 77.52 11.62C77.77 11.74 77.88 12.05 77.76 12.3C77.63 12.56 77.33 12.66 77.07 12.54C64.37 6.4 47.46 10.33 34.99 22.31C34.9 22.39 34.8 22.44 34.69 22.45Z" fill="#662D7D" fill-opacity="1.000000" fill-rule="nonzero"/>
			</g>
		</g>
		<g mask="url(#mask78_494)">
			<g style="mix-blend-mode:normal">
				<path id="Path 12824" d="M12.87 22.16C10.74 21.04 9.56 14.97 8.73 9.73C9.02 15.03 9.12 21.21 7.27 22.75C5.85 23.83 3.5 24.16 -0.24 24.92C5.06 24.64 7.61 24.92 9.14 26.77C10.22 28.18 10.93 34.18 11.7 37.91C11.66 34.1 11.11 28.09 11.88 26.48C12.99 24.35 15.43 23.55 20.67 22.72C16.86 22.75 14.48 22.92 12.87 22.16Z" fill="#FCD100" fill-opacity="1.000000" fill-rule="nonzero"/>
			</g>
		</g>
		<g mask="url(#mask78_494)">
			<g style="mix-blend-mode:normal">
				<path id="Path 12825" d="M85.35 13.64C83.23 12.53 82.04 6.46 81.21 1.22C81.5 6.52 81.6 12.7 79.75 14.23C78.33 15.31 75.98 15.65 72.24 16.41C77.54 16.12 80.09 16.4 81.62 18.25C82.7 19.67 83.42 25.67 84.18 29.4C84.14 25.59 83.59 19.58 84.36 17.97C85.47 15.84 87.91 15.03 93.15 14.21C89.34 14.24 86.96 14.41 85.35 13.64Z" fill="#FCD100" fill-opacity="1.000000" fill-rule="nonzero"/>
			</g>
		</g>
		<g mask="url(#mask78_494)">
			<g style="mix-blend-mode:normal">
				<path id="Path 12826" d="M78.16 73.36C76.03 72.24 74.84 66.17 74.02 60.93C74.3 66.23 74.4 72.41 72.55 73.95C71.14 75.03 68.78 75.36 65.05 76.12C70.35 75.83 72.89 76.12 74.42 77.97C75.51 79.38 76.22 85.38 76.98 89.11C76.95 85.3 76.4 79.29 77.16 77.68C78.28 75.55 80.71 74.75 85.95 73.92C82.14 73.95 79.77 74.12 78.16 73.36Z" fill="#FCD100" fill-opacity="1.000000" fill-rule="nonzero"/>
			</g>
		</g>
		<g mask="url(#mask78_494)">
			<g style="mix-blend-mode:normal">
				<path id="Path 12827" d="M26.7 70.3C24.58 69.18 23.39 63.11 22.57 57.87C22.85 63.17 22.95 69.35 21.1 70.89C19.68 71.97 17.33 72.3 13.6 73.06C18.89 72.78 21.44 73.06 22.97 74.91C24.05 76.32 24.77 82.32 25.53 86.05C25.5 82.24 24.95 76.23 25.71 74.62C26.82 72.49 29.26 71.69 34.5 70.86C30.69 70.89 28.31 71.06 26.7 70.3Z" fill="#FCD100" fill-opacity="1.000000" fill-rule="nonzero"/>
			</g>
		</g>
		<g mask="url(#mask78_494)">
			<g style="mix-blend-mode:normal">
				<path id="Path 12828" d="M40.64 66.94L41.67 66L40.18 66.1C39.92 66.12 39.68 65.98 39.58 65.74L38.8 63.98L38.4 65.87C38.34 66.12 38.14 66.31 37.89 66.34L36.29 66.56L37.59 67.26C37.82 67.39 37.95 67.65 37.9 67.91L37.57 69.63L38.95 68.55C39.14 68.41 39.38 68.38 39.59 68.48L41.17 69.25L40.48 67.62C40.38 67.39 40.45 67.11 40.64 66.94Z" fill="#FCD100" fill-opacity="1.000000" fill-rule="nonzero"/>
			</g>
		</g>
		<g mask="url(#mask78_494)">
			<g style="mix-blend-mode:normal">
				<path id="Path 12829" d="M75.93 3.06L76.97 2.12L75.47 2.22C75.22 2.24 74.98 2.1 74.87 1.86L74.09 0.1L73.69 1.99C73.64 2.24 73.44 2.43 73.18 2.46L71.58 2.68L72.88 3.38C73.12 3.51 73.24 3.77 73.19 4.03L72.86 5.75L74.25 4.67C74.43 4.53 74.68 4.5 74.89 4.6L76.47 5.37L75.78 3.74C75.68 3.51 75.74 3.23 75.93 3.06Z" fill="#FCD100" fill-opacity="1.000000" fill-rule="nonzero"/>
			</g>
		</g>
		<g mask="url(#mask78_494)">
			<g style="mix-blend-mode:normal">
				<path id="Path 12830" d="M83.93 56.81L84.72 56.09L83.58 56.17C83.38 56.19 83.2 56.08 83.12 55.9L82.52 54.56L82.22 55.99C82.18 56.18 82.02 56.33 81.83 56.36L80.61 56.53L81.6 57.06C81.78 57.15 81.88 57.36 81.84 57.55L81.59 58.86L82.64 58.04C82.78 57.93 82.97 57.92 83.13 57.99L84.34 58.57L83.81 57.33C83.74 57.15 83.78 56.94 83.93 56.81Z" fill="#FCD100" fill-opacity="1.000000" fill-rule="nonzero"/>
			</g>
		</g>
		<g mask="url(#mask78_494)">
			<g style="mix-blend-mode:normal">
				<path id="Path 12831" d="M19.79 30.7L20.58 29.98L19.43 30.06C19.24 30.07 19.06 29.96 18.98 29.78L18.38 28.44L18.07 29.88C18.03 30.07 17.88 30.21 17.68 30.24L16.46 30.41L17.46 30.94C17.64 31.04 17.73 31.24 17.69 31.44L17.44 32.75L18.5 31.93C18.64 31.82 18.83 31.8 18.99 31.88L20.19 32.46L19.67 31.22C19.59 31.04 19.64 30.83 19.79 30.7Z" fill="#FCD100" fill-opacity="1.000000" fill-rule="nonzero"/>
			</g>
		</g>
		<g mask="url(#mask78_494)">
			<g style="mix-blend-mode:normal">
				<path id="Path 12832" d="M79.82 52.27L80.56 51.6L79.49 51.67C79.31 51.68 79.14 51.58 79.06 51.41L78.51 50.16L78.22 51.5C78.18 51.68 78.04 51.82 77.86 51.84L76.71 52L77.64 52.5C77.81 52.59 77.9 52.78 77.86 52.96L77.63 54.19L78.62 53.42C78.75 53.32 78.93 53.3 79.07 53.37L80.2 53.92L79.71 52.76C79.64 52.59 79.68 52.39 79.82 52.27Z" fill="#FCD100" fill-opacity="1.000000" fill-rule="nonzero"/>
			</g>
		</g>
		<g mask="url(#mask78_494)">
			<g style="mix-blend-mode:normal">
				<path id="Path 12833" d="M82.9 47.2L83.46 46.68L82.64 46.74C82.5 46.75 82.37 46.67 82.32 46.54L81.89 45.58L81.67 46.61C81.64 46.75 81.53 46.85 81.39 46.87L80.51 46.99L81.22 47.37C81.35 47.44 81.42 47.59 81.39 47.73L81.21 48.67L81.97 48.08C82.07 48 82.21 47.99 82.32 48.05L83.19 48.46L82.81 47.57C82.76 47.44 82.79 47.29 82.9 47.2Z" fill="#FCD100" fill-opacity="1.000000" fill-rule="nonzero"/>
			</g>
		</g>
		<g mask="url(#mask78_494)">
			<g style="mix-blend-mode:normal">
				<path id="Path 12834" d="M32.45 12.83L33.85 11.56L31.82 11.7C31.48 11.72 31.16 11.53 31.02 11.21L29.96 8.83L29.41 11.38C29.34 11.72 29.07 11.98 28.72 12.02L26.56 12.33L28.32 13.27C28.64 13.44 28.81 13.8 28.74 14.15L28.29 16.47L30.17 15.02C30.42 14.82 30.75 14.79 31.03 14.93L33.17 15.96L32.24 13.76C32.11 13.44 32.19 13.07 32.45 12.83Z" fill="#FCD100" fill-opacity="1.000000" fill-rule="nonzero"/>
			</g>
		</g>
		<g mask="url(#mask78_494)">
			<g style="mix-blend-mode:normal">
				<path id="Path 12835" d="M77.82 24.83L79.22 23.56L77.19 23.7C76.85 23.72 76.53 23.52 76.39 23.21L75.33 20.83L74.78 23.38C74.71 23.71 74.44 23.97 74.09 24.02L71.93 24.32L73.69 25.27C74.01 25.44 74.18 25.79 74.11 26.15L73.66 28.47L75.54 27.01C75.79 26.82 76.12 26.79 76.4 26.92L78.54 27.95L77.61 25.76C77.48 25.43 77.56 25.06 77.82 24.83Z" fill="#FCD100" fill-opacity="1.000000" fill-rule="nonzero"/>
			</g>
		</g>
		<g mask="url(#mask78_494)">
			<g style="mix-blend-mode:normal">
				<path id="Path 12836" d="M33.99 62.62L35.4 61.34L33.37 61.48C33.02 61.51 32.7 61.31 32.56 61L31.5 58.62L30.96 61.16C30.89 61.5 30.61 61.76 30.27 61.81L28.1 62.11L29.86 63.05C30.18 63.22 30.35 63.58 30.28 63.93L29.84 66.26L31.72 64.8C31.96 64.61 32.3 64.57 32.58 64.71L34.72 65.74L33.79 63.55C33.65 63.22 33.74 62.85 33.99 62.62Z" fill="#FCD100" fill-opacity="1.000000" fill-rule="nonzero"/>
			</g>
		</g>
	</g>
</svg>
