<svg width="132.467285" height="162.467285" viewBox="0 0 132.467 162.467" fill="none" xmlns="http://www.w3.org/2000/svg" xmlns:xlink="http://www.w3.org/1999/xlink">
	<desc>
			Created with Pixso.
	</desc>
	<defs/>
	<mask id="mask1_26770" mask-type="alpha" maskUnits="userSpaceOnUse" x="16.970215" y="24.500488" width="115.497070" height="137.966797">
		<g style="mix-blend-mode:normal">
			<rect id="Rectangle 3807" x="16.970215" y="43.683594" width="92.264999" height="121.437584" transform="rotate(-12 16.970215 43.683594)" fill="#C4C4C4" fill-opacity="1.000000"/>
		</g>
	</mask>
	<g mask="url(#mask1_26770)">
		<mask id="mask1_26773" mask-type="alpha" maskUnits="userSpaceOnUse" x="16.970215" y="24.500488" width="115.497070" height="137.966797">
			<g style="mix-blend-mode:normal">
				<rect id="Rectangle 3806" x="16.970215" y="43.683594" width="92.264999" height="121.437584" transform="rotate(-12 16.970215 43.683594)" fill="#C4C4C4" fill-opacity="1.000000"/>
			</g>
		</mask>
		<g mask="url(#mask1_26773)">
			<g style="mix-blend-mode:normal">
				<path id="Path 35273" d="M117.52 72.97C115.72 64.5 94.05 61.93 69.13 67.23C44.21 72.52 25.47 83.68 27.27 92.16C28.42 97.59 37.76 100.59 50.87 100.65C53.76 115.28 57.67 137.93 55.71 144.75C55.33 146.09 55.83 147.48 57.06 148.24C61.49 151.02 73.44 155.83 87.48 152.84C101.53 149.85 110.49 140.6 113.41 136.27C114.22 135.07 114.11 133.59 113.22 132.53C108.65 127.09 103 104.74 99.69 90.21C111.48 84.85 118.66 78.37 117.52 72.97Z" fill="#231F20" fill-opacity="1.000000" fill-rule="nonzero"/>
			</g>
		</g>
		<g mask="url(#mask1_26773)">
			<g style="mix-blend-mode:normal">
				<path id="Path 35274" d="M75.65 97.91C66.72 99.8 58.21 100.69 50.87 100.65C51.58 104.24 52.35 108.31 53.08 112.51C53.08 112.51 60.49 115.79 78.64 111.93C96.78 108.08 102.49 101.94 102.49 101.94C101.45 97.8 100.5 93.77 99.69 90.21C92.95 93.28 84.71 95.98 75.65 97.91Z" fill="#662D7D" fill-opacity="1.000000" fill-rule="nonzero"/>
			</g>
		</g>
		<g mask="url(#mask1_26773)">
			<g style="mix-blend-mode:normal">
				<path id="Path 35275" d="M96.09 75.08C96.73 78.08 86.41 82.82 73.05 85.66C59.69 88.5 48.34 88.37 47.7 85.36C47.06 82.36 57.38 77.62 70.74 74.78C84.1 71.94 95.45 72.07 96.09 75.08Z" fill="#CDFFB0" fill-opacity="1.000000" fill-rule="nonzero"/>
			</g>
		</g>
		<g mask="url(#mask1_26773)">
			<g style="mix-blend-mode:normal">
				<path id="Path 35276" d="M114.44 78.77C113.17 80.06 111.76 81.2 110.31 82.27C108.86 83.35 107.35 84.34 105.82 85.3C102.73 87.19 99.5 88.83 96.19 90.29C89.55 93.18 82.6 95.33 75.53 96.84C68.45 98.33 61.23 99.21 53.99 99.26C50.37 99.27 46.75 99.09 43.16 98.62C41.37 98.37 39.59 98.08 37.83 97.67C36.07 97.29 34.32 96.82 32.64 96.16C36.09 97.17 39.66 97.69 43.23 98C46.8 98.31 50.39 98.36 53.97 98.27C61.13 98.01 68.26 97.09 75.26 95.6C82.27 94.12 89.16 92.05 95.8 89.38C99.11 88.01 102.37 86.51 105.5 84.76C108.64 83.03 111.69 81.1 114.44 78.77Z" fill="#A6A8AB" fill-opacity="1.000000" fill-rule="nonzero"/>
			</g>
		</g>
		<g mask="url(#mask1_26773)">
			<g style="mix-blend-mode:normal">
				<path id="Path 35277" d="M45.97 83.31L45.41 81.54L45.61 83.39C45.73 84.54 45.03 85.62 43.93 85.97L42.16 86.54L44.01 86.34C45.16 86.21 46.24 86.92 46.59 88.02L47.16 89.79L46.96 87.94C46.83 86.79 47.54 85.71 48.64 85.35L50.41 84.79L48.56 84.99C47.41 85.11 46.33 84.41 45.97 83.31Z" fill="#42A00B" fill-opacity="1.000000" fill-rule="nonzero"/>
			</g>
		</g>
		<g mask="url(#mask1_26773)">
			<g style="mix-blend-mode:normal">
				<path id="Path 35278" d="M78.43 41.37L79.34 44.2L79.02 41.25C78.82 39.41 79.94 37.68 81.7 37.11L84.53 36.21L81.58 36.53C79.74 36.73 78.01 35.61 77.45 33.84L76.54 31.02L76.86 33.97C77.06 35.81 75.94 37.53 74.18 38.1L71.35 39.01L74.3 38.69C76.14 38.49 77.87 39.61 78.43 41.37Z" fill="#42A00B" fill-opacity="1.000000" fill-rule="nonzero"/>
			</g>
		</g>
		<g mask="url(#mask1_26773)">
			<g style="mix-blend-mode:normal">
				<path id="Path 35279" d="M32.17 58.18L31.71 56.76L31.87 58.24C31.98 59.17 31.41 60.04 30.53 60.32L29.11 60.78L30.59 60.61C31.51 60.51 32.38 61.08 32.66 61.96L33.12 63.38L32.96 61.9C32.86 60.98 33.42 60.11 34.31 59.82L35.73 59.37L34.24 59.53C33.32 59.63 32.45 59.07 32.17 58.18Z" fill="#42A00B" fill-opacity="1.000000" fill-rule="nonzero"/>
			</g>
		</g>
		<g mask="url(#mask1_26773)">
			<g style="mix-blend-mode:normal">
				<path id="Path 35280" d="M51.94 45.18L51.33 43.26L51.54 45.26C51.68 46.51 50.92 47.68 49.73 48.06L47.81 48.68L49.81 48.46C51.06 48.32 52.23 49.08 52.61 50.27L53.22 52.19L53.01 50.19C52.87 48.94 53.63 47.78 54.82 47.39L56.74 46.78L54.74 47C53.49 47.13 52.32 46.37 51.94 45.18Z" fill="#42A00B" fill-opacity="1.000000" fill-rule="nonzero"/>
			</g>
		</g>
		<g mask="url(#mask1_26773)">
			<g style="mix-blend-mode:normal">
				<path id="Path 35281" d="M82.23 51.58L81.77 50.16L81.93 51.64C82.03 52.57 81.47 53.43 80.58 53.72L79.16 54.17L80.65 54.01C81.57 53.91 82.44 54.48 82.72 55.36L83.18 56.78L83.02 55.3C82.92 54.37 83.48 53.51 84.36 53.22L85.78 52.77L84.3 52.93C83.38 53.03 82.51 52.46 82.23 51.58Z" fill="#42A00B" fill-opacity="1.000000" fill-rule="nonzero"/>
			</g>
		</g>
		<g mask="url(#mask1_26773)">
			<g style="mix-blend-mode:normal">
				<path id="Path 35282" d="M104.94 58.39L104.49 56.97L104.65 58.45C104.75 59.38 104.18 60.24 103.3 60.53L101.88 60.98L103.36 60.82C104.29 60.72 105.15 61.28 105.44 62.17L105.89 63.59L105.73 62.11C105.63 61.18 106.19 60.32 107.08 60.03L108.5 59.58L107.02 59.74C106.09 59.84 105.22 59.27 104.94 58.39Z" fill="#42A00B" fill-opacity="1.000000" fill-rule="nonzero"/>
			</g>
		</g>
		<g mask="url(#mask1_26773)">
			<g style="mix-blend-mode:normal">
				<path id="Path 35283" d="M68.96 63L68.5 61.58L68.66 63.06C68.76 63.99 68.2 64.85 67.32 65.14L65.9 65.59L67.38 65.43C68.3 65.33 69.17 65.89 69.45 66.78L69.91 68.2L69.75 66.72C69.65 65.79 70.21 64.93 71.1 64.64L72.52 64.19L71.03 64.35C70.11 64.45 69.24 63.88 68.96 63Z" fill="#42A00B" fill-opacity="1.000000" fill-rule="nonzero"/>
			</g>
		</g>
		<g mask="url(#mask1_26773)">
			<g style="mix-blend-mode:normal">
				<path id="Path 35284" d="M85.87 41.66L85.36 40.06L85.54 41.73C85.66 42.77 85.02 43.74 84.03 44.06L82.43 44.57L84.1 44.39C85.14 44.28 86.11 44.91 86.43 45.91L86.94 47.5L86.76 45.84C86.65 44.8 87.28 43.83 88.28 43.51L89.87 42.99L88.21 43.17C87.17 43.29 86.19 42.65 85.87 41.66Z" fill="#42A00B" fill-opacity="1.000000" fill-rule="nonzero"/>
			</g>
		</g>
		<g mask="url(#mask1_26773)">
			<g style="mix-blend-mode:normal">
				<path id="Path 35285" d="M81.2 79.3L80.74 77.88L80.9 79.36C81 80.28 80.44 81.15 79.56 81.43L78.14 81.89L79.62 81.73C80.54 81.63 81.41 82.19 81.69 83.08L82.15 84.5L81.99 83.01C81.89 82.09 82.45 81.22 83.34 80.94L84.76 80.48L83.27 80.64C82.35 80.74 81.48 80.18 81.2 79.3Z" fill="#42A00B" fill-opacity="1.000000" fill-rule="nonzero"/>
			</g>
		</g>
		<g mask="url(#mask1_26773)">
			<g style="mix-blend-mode:normal">
				<path id="Path 35286" d="M107.14 44.95C106.44 45.03 105.79 44.6 105.57 43.94L105.23 42.87L105.35 43.98C105.42 44.68 105 45.34 104.33 45.55L103.26 45.89L104.38 45.77C105.08 45.7 105.73 46.12 105.94 46.79L106.29 47.86L106.17 46.74C106.09 46.04 106.52 45.39 107.18 45.18L108.25 44.83L107.14 44.95Z" fill="#42A00B" fill-opacity="1.000000" fill-rule="nonzero"/>
			</g>
		</g>
		<g mask="url(#mask1_26773)">
			<g style="mix-blend-mode:normal">
				<path id="Path 35287" d="M103.85 72.51L103.6 71.73L103.69 72.54C103.75 73.04 103.44 73.51 102.96 73.67L102.19 73.91L102.99 73.83C103.5 73.77 103.97 74.08 104.12 74.56L104.37 75.33L104.28 74.53C104.23 74.02 104.53 73.55 105.01 73.4L105.79 73.15L104.98 73.24C104.48 73.29 104.01 72.99 103.85 72.51Z" fill="#42A00B" fill-opacity="1.000000" fill-rule="nonzero"/>
			</g>
		</g>
		<g mask="url(#mask1_26773)">
			<g style="mix-blend-mode:normal">
				<path id="Path 35288" d="M34.57 72.46L33.75 71.37L33.46 72.7L32.23 73.06L33.3 73.65L33.37 75.03L34.36 74.21L35.6 74.56L35.1 73.27L35.83 72.29L34.57 72.46Z" fill="#42A00B" fill-opacity="1.000000" fill-rule="nonzero"/>
			</g>
		</g>
		<g mask="url(#mask1_26773)">
			<g style="mix-blend-mode:normal">
				<path id="Path 35289" d="M48.34 57.99L47.52 56.9L47.22 58.23L46 58.59L47.07 59.18L47.14 60.56L48.13 59.74L49.36 60.09L48.87 58.8L49.6 57.82L48.34 57.99Z" fill="#42A00B" fill-opacity="1.000000" fill-rule="nonzero"/>
			</g>
		</g>
		<g mask="url(#mask1_26773)">
			<g style="mix-blend-mode:normal">
				<path id="Path 35290" d="M68.9 46.11L68.22 45.19L67.97 46.3L66.94 46.61L67.84 47.1L67.9 48.26L68.72 47.57L69.76 47.86L69.34 46.78L69.96 45.97L68.9 46.11Z" fill="#42A00B" fill-opacity="1.000000" fill-rule="nonzero"/>
			</g>
		</g>
		<g mask="url(#mask1_26773)">
			<g style="mix-blend-mode:normal">
				<path id="Path 35291" d="M95.88 44.27L94.83 44.41L94.14 43.49L93.89 44.6L92.87 44.91L93.76 45.4L93.82 46.55L94.65 45.87L95.68 46.16L95.27 45.08L95.88 44.27Z" fill="#42A00B" fill-opacity="1.000000" fill-rule="nonzero"/>
			</g>
		</g>
		<g mask="url(#mask1_26773)">
			<g style="mix-blend-mode:normal">
				<path id="Path 35292" d="M51.18 76.24L50.56 75.41L50.33 76.42L49.4 76.69L50.21 77.15L50.26 78.19L51.02 77.57L51.96 77.83L51.58 76.85L52.14 76.11L51.18 76.24Z" fill="#42A00B" fill-opacity="1.000000" fill-rule="nonzero"/>
			</g>
		</g>
		<g mask="url(#mask1_26773)">
			<g style="mix-blend-mode:normal">
				<path id="Path 35293" d="M55.66 72.48C54.63 70.59 53.6 68.7 52.52 66.83L50.91 64.03C50.35 63.11 49.81 62.18 49.23 61.26C49.68 62.25 50.16 63.21 50.63 64.18L52.09 67.07C53.06 68.99 54.08 70.89 55.1 72.79C56.13 74.68 57.16 76.57 58.24 78.44C59.31 80.31 60.38 82.18 61.52 84.01C60.62 82.05 59.65 80.13 58.67 78.21C57.69 76.28 56.68 74.38 55.66 72.48Z" fill="#4EDD03" fill-opacity="1.000000" fill-rule="nonzero"/>
			</g>
		</g>
		<g mask="url(#mask1_26773)">
			<g style="mix-blend-mode:normal">
				<path id="Path 35294" d="M60.37 65.73C59.37 63.11 58.39 60.48 57.37 57.86L55.82 53.95C55.28 52.65 54.77 51.35 54.21 50.06C54.63 51.4 55.09 52.72 55.53 54.06L56.91 58.03C57.84 60.68 58.82 63.31 59.77 65.95C60.77 68.57 61.74 71.2 62.77 73.82C63.79 76.43 64.83 79.04 65.93 81.62C65.08 78.95 64.16 76.29 63.23 73.65C62.3 71 61.32 68.37 60.37 65.73Z" fill="#4EDD03" fill-opacity="1.000000" fill-rule="nonzero"/>
			</g>
		</g>
		<g mask="url(#mask1_26773)">
			<g style="mix-blend-mode:normal">
				<path id="Path 35295" d="M50.9 81.84C49.35 80.89 47.79 79.98 46.22 79.06C44.64 78.17 43.07 77.27 41.47 76.42L39.07 75.14C38.25 74.73 37.45 74.31 36.63 73.92C37.38 74.44 38.15 74.91 38.91 75.41L41.22 76.84C42.77 77.8 44.33 78.71 45.9 79.62C47.48 80.51 49.05 81.41 50.65 82.26C52.25 83.12 53.85 83.97 55.49 84.76C53.98 83.74 52.44 82.79 50.9 81.84Z" fill="#4EDD03" fill-opacity="1.000000" fill-rule="nonzero"/>
			</g>
		</g>
		<g mask="url(#mask1_26773)">
			<g style="mix-blend-mode:normal">
				<path id="Path 35296" d="M80.69 60.31C80.89 59.33 81.1 58.36 81.27 57.38C80.96 58.33 80.69 59.28 80.39 60.24L79.57 63.11C79.03 65.02 78.53 66.95 78.04 68.87C77.56 70.81 77.08 72.74 76.65 74.68C76.21 76.62 75.78 78.56 75.42 80.52C76.04 78.63 76.58 76.71 77.12 74.8C77.66 72.88 78.16 70.96 78.66 69.03C79.14 67.1 79.62 65.17 80.05 63.23L80.69 60.31Z" fill="#4EDD03" fill-opacity="1.000000" fill-rule="nonzero"/>
			</g>
		</g>
		<g mask="url(#mask1_26773)">
			<g style="mix-blend-mode:normal">
				<path id="Path 35297" d="M92.27 55.64L93.7 51.75C94.15 50.44 94.63 49.14 95.07 47.83C94.49 49.09 93.96 50.37 93.41 51.63L91.81 55.46C90.75 58.02 89.74 60.6 88.71 63.16C87.73 65.75 86.71 68.32 85.75 70.91C84.79 73.51 83.84 76.1 82.95 78.73C84.08 76.2 85.15 73.65 86.21 71.09C87.27 68.54 88.27 65.96 89.3 63.39C90.29 60.81 91.3 58.24 92.27 55.64Z" fill="#4EDD03" fill-opacity="1.000000" fill-rule="nonzero"/>
			</g>
		</g>
		<g mask="url(#mask1_26773)">
			<g style="mix-blend-mode:normal">
				<path id="Path 35298" d="M38.36 65.41C39.52 66.57 40.72 67.7 41.91 68.82C43.12 69.93 44.32 71.04 45.56 72.11C46.8 73.19 48.04 74.27 49.33 75.29C48.22 74.07 47.06 72.91 45.9 71.76C44.74 70.6 43.54 69.48 42.35 68.35C41.14 67.24 39.94 66.13 38.7 65.06L36.84 63.45C36.2 62.93 35.58 62.39 34.93 61.89C35.48 62.5 36.06 63.08 36.62 63.67L38.36 65.41Z" fill="#4EDD03" fill-opacity="1.000000" fill-rule="nonzero"/>
			</g>
		</g>
		<g mask="url(#mask1_26773)">
			<g style="mix-blend-mode:normal">
				<path id="Path 35299" d="M52.91 78.57C54 79.93 55.23 81.15 56.49 82.34C57.76 83.51 59.07 84.64 60.51 85.64C59.41 84.28 58.18 83.06 56.93 81.87C55.65 80.7 54.35 79.56 52.91 78.57Z" fill="#4EDD03" fill-opacity="1.000000" fill-rule="nonzero"/>
			</g>
		</g>
		<g mask="url(#mask1_26773)">
			<g style="mix-blend-mode:normal">
				<path id="Path 35300" d="M70.37 82.75C70.52 80.54 70.48 78.34 70.4 76.15C70.29 73.95 70.13 71.76 69.78 69.58C69.63 71.78 69.67 73.98 69.76 76.18C69.87 78.37 70.02 80.56 70.37 82.75Z" fill="#4EDD03" fill-opacity="1.000000" fill-rule="nonzero"/>
			</g>
		</g>
		<g mask="url(#mask1_26773)">
			<g style="mix-blend-mode:normal">
				<path id="Path 35301" d="M68.89 55.11C69.02 56.93 69.2 58.75 69.57 60.56C69.7 58.72 69.63 56.89 69.53 55.07C69.4 53.24 69.22 51.42 68.85 49.62C68.72 51.46 68.78 53.28 68.89 55.11Z" fill="#4EDD03" fill-opacity="1.000000" fill-rule="nonzero"/>
			</g>
		</g>
		<g mask="url(#mask1_26773)">
			<g style="mix-blend-mode:normal">
				<path id="Path 35302" d="M99.9 65.77C98.75 66.91 97.63 68.07 96.51 69.24C95.4 70.42 94.3 71.59 93.23 72.81C92.15 74.01 91.08 75.23 90.07 76.49C91.27 75.41 92.43 74.28 93.58 73.14C94.74 72.01 95.85 70.84 96.97 69.68C98.08 68.5 99.19 67.32 100.26 66.11L101.86 64.29C102.38 63.67 102.91 63.06 103.42 62.43C102.81 62.96 102.23 63.53 101.63 64.08L99.9 65.77Z" fill="#4EDD03" fill-opacity="1.000000" fill-rule="nonzero"/>
			</g>
		</g>
		<g mask="url(#mask1_26773)">
			<g style="mix-blend-mode:normal">
				<path id="Path 35303" d="M102.39 50.12L100.8 52.58C99.75 54.23 98.73 55.9 97.72 57.57C96.72 59.24 95.72 60.92 94.77 62.63C93.8 64.33 92.85 66.03 91.96 67.77C93.08 66.17 94.14 64.53 95.18 62.88C96.24 61.23 97.25 59.56 98.27 57.89C99.27 56.22 100.27 54.54 101.22 52.83L102.65 50.28C103.11 49.41 103.59 48.56 104.03 47.69C103.46 48.49 102.93 49.31 102.39 50.12Z" fill="#4EDD03" fill-opacity="1.000000" fill-rule="nonzero"/>
			</g>
		</g>
		<g mask="url(#mask1_26773)">
			<g opacity="0.850006" style="mix-blend-mode:overlay">
				<mask id="mask1_26808" mask-type="alpha" maskUnits="userSpaceOnUse" x="95.084961" y="95.920898" width="14.078125" height="38.559570">
					<g style="mix-blend-mode:normal">
						<rect id="Rectangle 3805" x="95.084961" y="97.230469" width="6.298122" height="38.082355" transform="rotate(-12 95.084961 97.230469)" fill="#C4C4C4" fill-opacity="1.000000"/>
					</g>
				</mask>
				<g mask="url(#mask1_26808)">
					<g style="mix-blend-mode:normal">
						<path id="Path 35304" d="M106.92 127.25C107.53 128.53 108.15 129.8 108.69 131.12C109.12 132.18 108.69 133.37 107.45 133.52C105.38 133.77 104.08 131.82 103.38 130.14C100.96 124.44 99.72 118.37 98.36 112.36C97.66 109.22 96.81 105.95 96.47 102.69C96.32 101.25 96.07 99.53 96.46 98.12C96.69 97.27 97.46 95.93 98.1 97.33C98.85 99.01 98.98 100.79 99.45 102.54C100.63 106.86 101.73 111.21 102.9 115.54C103.61 118.18 104.33 120.82 105.26 123.39C105.73 124.71 106.32 125.99 106.92 127.25Z" fill="#FFFFFF" fill-opacity="1.000000" fill-rule="nonzero"/>
					</g>
				</g>
			</g>
		</g>
	</g>
	<mask id="mask1_26813" mask-type="alpha" maskUnits="userSpaceOnUse" x="35.732910" y="0.000000" width="53.378906" height="53.032715">
		<g style="mix-blend-mode:normal">
			<rect id="Rectangle 3792" x="35.732910" width="53.379017" height="53.032913" fill="#C4C4C4" fill-opacity="1.000000"/>
		</g>
	</mask>
	<g mask="url(#mask1_26813)">
		<g style="mix-blend-mode:normal">
			<path id="Path 35083" d="M42.15 25.54C39.4 23.69 35.61 20.65 36.34 18.31C36.82 16.77 38.9 15.94 42.89 15.7C43.76 15.65 44.61 15.64 45.3 15.64C43.85 12.68 42.09 8.16 43.88 6.5C44.29 6.12 44.84 5.91 45.5 5.87C47.61 5.74 51.03 7.49 53.03 8.64C53.27 5.37 54.02 0.59 56.39 0.05C56.51 0.02 56.63 0.01 56.75 0C59.06 -0.14 61.69 3.7 63.27 6.44C64.84 4.16 67.56 0.73 69.73 0.6C70.01 0.58 70.27 0.61 70.52 0.69C72.87 1.42 73.28 6.31 73.27 9.62C75.05 8.79 77.93 7.59 79.96 7.47C81.09 7.4 81.94 7.67 82.48 8.25C84.14 10.06 82.05 14.45 80.38 17.3C83.69 17.55 88.52 18.31 89.06 20.71C89.59 23.11 85.57 25.85 82.68 27.48C85.43 29.33 89.23 32.38 88.5 34.71C88.02 36.25 85.94 37.08 81.94 37.32C81.07 37.37 80.23 37.39 79.53 37.39C80.99 40.35 82.74 44.86 80.96 46.53C80.55 46.91 80 47.12 79.34 47.16C77.23 47.29 73.81 45.54 71.81 44.39C71.57 47.66 70.81 52.43 68.44 52.97C68.33 53 68.21 53.02 68.09 53.02C65.77 53.16 63.14 49.32 61.56 46.59C60 48.86 57.28 52.29 55.11 52.42C54.83 52.44 54.57 52.41 54.32 52.33C51.96 51.6 51.56 46.71 51.56 43.4C49.79 44.23 46.9 45.43 44.88 45.55C43.75 45.62 42.9 45.35 42.35 44.77C40.7 42.97 42.79 38.57 44.45 35.72C41.14 35.48 36.31 34.71 35.78 32.31C35.24 29.92 39.26 27.18 42.15 25.54Z" fill="#FFCF00" fill-opacity="1.000000" fill-rule="nonzero"/>
		</g>
	</g>
	<g mask="url(#mask1_26813)">
		<g style="mix-blend-mode:normal">
			<path id="Path 35084" d="M43.76 22.2C41.75 32.73 48.66 42.89 59.18 44.89C69.71 46.9 79.86 39.99 81.87 29.47C83.88 18.94 76.97 8.79 66.45 6.78C55.92 4.77 45.77 11.68 43.76 22.2Z" fill="#F5AE00" fill-opacity="1.000000" fill-rule="evenodd"/>
		</g>
	</g>
	<g mask="url(#mask1_26813)">
		<g style="mix-blend-mode:normal">
			<path id="Path 35085" d="M44.2 22.28C42.28 32.35 48.89 42.07 58.96 43.99C69.03 45.91 78.75 39.3 80.67 29.23C82.6 19.16 75.99 9.44 65.92 7.52C55.84 5.6 46.12 12.21 44.2 22.28Z" fill="#FFD700" fill-opacity="1.000000" fill-rule="evenodd"/>
		</g>
	</g>
	<g mask="url(#mask1_26813)">
		<g style="mix-blend-mode:normal">
			<path id="Path 35086" d="M71.17 10.57C66.02 7.33 63.98 12.36 66.8 13.95C69.61 15.53 77.12 16.53 79.31 25.5C80.35 19.59 75.65 13.39 71.17 10.57Z" fill="#FFF36A" fill-opacity="1.000000" fill-rule="evenodd"/>
		</g>
	</g>
	<g mask="url(#mask1_26813)">
		<g style="mix-blend-mode:normal">
			<path id="Path 35087" d="M55.84 25.41C56.15 26.54 54.78 27.89 52.97 27.98C51.15 28.08 49.85 26.99 49.55 25.62C49.28 24.38 50.52 22.93 52.55 23.66C54.46 24.35 55.51 24.25 55.84 25.41Z" fill="#ED5D5A" fill-opacity="1.000000" fill-rule="nonzero"/>
		</g>
	</g>
	<g mask="url(#mask1_26813)">
		<g style="mix-blend-mode:normal">
			<path id="Path 35088" d="M73.99 27.61C73.56 29.15 71.83 29.9 69.78 29.53C67.8 29.18 66.15 27.26 66.83 25.89C67.48 24.59 68.44 25.32 70.89 25.01C73.26 24.7 74.41 26.07 73.99 27.61Z" fill="#ED5D5A" fill-opacity="1.000000" fill-rule="nonzero"/>
		</g>
	</g>
	<g mask="url(#mask1_26813)">
		<g style="mix-blend-mode:normal">
			<path id="Path 35089" d="M56.27 26.75C56.27 26.75 56.1 34.39 60.99 34.71C66.61 35.08 65.96 27.15 65.96 27.15C65.96 27.15 61.58 28.49 56.27 26.75Z" fill="#422316" fill-opacity="1.000000" fill-rule="nonzero"/>
		</g>
	</g>
	<g mask="url(#mask1_26813)">
		<g style="mix-blend-mode:normal">
			<path id="Path 35090" d="M64.97 32.6C64.17 31.96 63.16 31.55 61.87 31.57C60.01 31.59 58.97 32.44 58.41 33.56C59.05 34.2 59.89 34.64 60.99 34.71C63.04 34.85 64.25 33.88 64.97 32.6Z" fill="#EB4B48" fill-opacity="1.000000" fill-rule="nonzero"/>
		</g>
	</g>
	<g mask="url(#mask1_26813)">
		<g style="mix-blend-mode:normal">
			<path id="Path 35091" d="M62.15 23.67C61.56 22.67 60.94 22.53 60.54 22.59C60.5 22.6 60.46 22.6 60.43 22.61C59.86 22.75 59.41 23.38 59.38 24.07C59.34 24.82 59.78 25.42 60.56 25.7C60.58 25.7 60.68 25.7 60.69 25.69C60.74 25.67 60.77 25.63 60.79 25.58C60.82 25.49 60.77 25.39 60.68 25.36C59.78 25.05 59.72 24.36 59.73 24.08C59.76 23.54 60.09 23.06 60.52 22.95C60.96 22.85 61.43 23.17 61.84 23.85C61.89 23.94 62.01 23.97 62.08 23.92C62.12 23.9 62.15 23.86 62.16 23.81C62.18 23.76 62.17 23.72 62.15 23.67Z" fill="#592E1C" fill-opacity="1.000000" fill-rule="nonzero"/>
		</g>
	</g>
	<g mask="url(#mask1_26813)">
		<g style="mix-blend-mode:normal">
			<path id="Path 35092" d="M68.26 19.22C67.31 19.36 66.29 20.17 66.48 22C66.48 22.07 66.52 22.14 66.57 22.18C66.63 22.23 66.7 22.25 66.76 22.24C66.91 22.24 67.02 22.1 67 21.95C66.88 20.71 67.35 19.89 68.25 19.76C69.48 19.62 71.02 20.72 71.25 22.59C71.27 22.73 71.4 22.83 71.55 22.82C71.69 22.8 71.79 22.67 71.78 22.52C71.51 20.35 69.73 19.06 68.26 19.22Z" fill="#592E1C" fill-opacity="1.000000" fill-rule="nonzero"/>
		</g>
	</g>
	<g mask="url(#mask1_26813)">
		<g style="mix-blend-mode:normal">
			<path id="Path 35093" d="M53.78 18.51C52.88 18.64 51.91 19.41 52.08 21.16C52.1 21.3 52.23 21.41 52.37 21.4C52.52 21.39 52.62 21.26 52.61 21.11C52.49 19.92 52.92 19.16 53.8 19.04C54.96 18.91 56.39 19.95 56.62 21.72C56.64 21.86 56.77 21.96 56.91 21.94C57.05 21.92 57.16 21.79 57.14 21.65C56.88 19.57 55.2 18.35 53.78 18.51Z" fill="#592E1C" fill-opacity="1.000000" fill-rule="nonzero"/>
		</g>
	</g>
	<mask id="mask1_26825" mask-type="alpha" maskUnits="userSpaceOnUse" x="0.000000" y="30.381836" width="35.732910" height="35.501465">
		<g style="mix-blend-mode:normal">
			<rect id="Rectangle 3828" y="30.381836" width="35.732986" height="35.501293" fill="#C4C4C4" fill-opacity="1.000000"/>
		</g>
	</mask>
	<g mask="url(#mask1_26825)">
		<g style="mix-blend-mode:normal">
			<path id="Path 35748" d="M4.29 47.48C2.45 46.24 -0.08 44.2 0.41 42.63C0.72 41.6 2.12 41.05 4.79 40.89C5.37 40.86 5.94 40.85 6.4 40.85C5.43 38.87 4.26 35.84 5.45 34.73C5.73 34.48 6.09 34.33 6.54 34.31C7.95 34.22 10.24 35.39 11.58 36.16C11.73 33.97 12.24 30.78 13.83 30.41C13.91 30.39 13.98 30.38 14.06 30.38C15.61 30.29 17.38 32.86 18.43 34.69C19.48 33.17 21.3 30.87 22.76 30.78C22.94 30.77 23.12 30.79 23.29 30.84C24.86 31.33 25.13 34.61 25.13 36.82C26.32 36.27 28.25 35.46 29.61 35.38C30.36 35.33 30.93 35.51 31.29 35.9C32.4 37.11 31 40.05 29.89 41.96C32.1 42.13 35.33 42.64 35.7 44.24C36.05 45.85 33.36 47.68 31.43 48.78C33.27 50.01 35.81 52.05 35.32 53.62C35 54.65 33.61 55.2 30.93 55.36C30.35 55.4 29.79 55.41 29.32 55.41C30.29 57.39 31.47 60.41 30.27 61.53C30 61.78 29.63 61.92 29.19 61.95C27.78 62.04 25.49 60.86 24.15 60.09C23.99 62.28 23.48 65.48 21.9 65.84C21.82 65.86 21.74 65.87 21.66 65.88C20.11 65.97 18.34 63.4 17.29 61.57C16.24 63.09 14.42 65.38 12.97 65.47C12.78 65.48 12.61 65.46 12.44 65.41C10.86 64.92 10.59 61.65 10.6 59.43C9.41 59.99 7.48 60.79 6.12 60.87C5.36 60.92 4.8 60.74 4.43 60.35C3.32 59.14 4.72 56.2 5.84 54.29C3.62 54.13 0.39 53.62 0.03 52.01C-0.33 50.41 2.36 48.57 4.29 47.48Z" fill="#FFCF00" fill-opacity="1.000000" fill-rule="nonzero"/>
		</g>
	</g>
	<g mask="url(#mask1_26825)">
		<g style="mix-blend-mode:normal">
			<path id="Path 35749" d="M5.37 45.24C4.03 52.29 8.65 59.09 15.7 60.43C22.74 61.78 29.54 57.15 30.88 50.11C32.23 43.06 27.6 36.26 20.56 34.92C13.51 33.58 6.71 38.2 5.37 45.24Z" fill="#F5AE00" fill-opacity="1.000000" fill-rule="evenodd"/>
		</g>
	</g>
	<g mask="url(#mask1_26825)">
		<g style="mix-blend-mode:normal">
			<path id="Path 35750" d="M5.67 45.29C4.38 52.04 8.81 58.54 15.55 59.83C22.29 61.12 28.8 56.69 30.08 49.95C31.37 43.21 26.95 36.7 20.2 35.41C13.46 34.13 6.95 38.55 5.67 45.29Z" fill="#FFD700" fill-opacity="1.000000" fill-rule="evenodd"/>
		</g>
	</g>
	<g mask="url(#mask1_26825)">
		<g style="mix-blend-mode:normal">
			<path id="Path 35751" d="M23.72 37.45C20.27 35.29 18.91 38.66 20.79 39.72C22.68 40.78 27.7 41.44 29.17 47.45C29.87 43.49 26.72 39.34 23.72 37.45Z" fill="#FFF36A" fill-opacity="1.000000" fill-rule="evenodd"/>
		</g>
	</g>
	<g mask="url(#mask1_26825)">
		<g style="mix-blend-mode:normal">
			<path id="Path 35752" d="M13.46 47.39C13.67 48.15 12.75 49.05 11.53 49.11C10.32 49.17 9.45 48.45 9.25 47.53C9.07 46.7 9.9 45.73 11.26 46.22C12.53 46.68 13.23 46.61 13.46 47.39Z" fill="#ED5D5A" fill-opacity="1.000000" fill-rule="nonzero"/>
		</g>
	</g>
	<g mask="url(#mask1_26825)">
		<g style="mix-blend-mode:normal">
			<path id="Path 35753" d="M25.61 48.86C25.32 49.89 24.16 50.39 22.79 50.15C21.46 49.91 20.36 48.63 20.81 47.71C21.25 46.84 21.89 47.33 23.53 47.12C25.12 46.92 25.89 47.83 25.61 48.86Z" fill="#ED5D5A" fill-opacity="1.000000" fill-rule="nonzero"/>
		</g>
	</g>
	<g mask="url(#mask1_26825)">
		<g style="mix-blend-mode:normal">
			<path id="Path 35754" d="M13.74 48.29C13.74 48.29 13.63 53.4 16.9 53.62C20.67 53.87 20.23 48.55 20.23 48.55C20.23 48.55 17.3 49.45 13.74 48.29Z" fill="#422316" fill-opacity="1.000000" fill-rule="nonzero"/>
		</g>
	</g>
	<g mask="url(#mask1_26825)">
		<g style="mix-blend-mode:normal">
			<path id="Path 35755" d="M19.57 52.2C19.04 51.77 18.36 51.5 17.49 51.51C16.25 51.53 15.55 52.1 15.18 52.85C15.61 53.27 16.17 53.57 16.9 53.62C18.28 53.71 19.09 53.06 19.57 52.2Z" fill="#EB4B48" fill-opacity="1.000000" fill-rule="nonzero"/>
		</g>
	</g>
	<g mask="url(#mask1_26825)">
		<g style="mix-blend-mode:normal">
			<path id="Path 35756" d="M17.68 46.23C17.28 45.56 16.87 45.46 16.6 45.5C16.22 45.6 15.85 46.03 15.83 46.49C15.8 46.99 16.1 47.4 16.62 47.58C16.65 47.57 16.76 47.54 16.77 47.51C16.79 47.44 16.76 47.38 16.7 47.35C16.1 47.14 16.06 46.69 16.06 46.5C16.08 46.14 16.31 45.82 16.59 45.75C16.89 45.67 17.2 45.89 17.47 46.35C17.51 46.41 17.59 46.42 17.64 46.39C17.67 46.38 17.67 46.26 17.68 46.23Z" fill="#592E1C" fill-opacity="1.000000" fill-rule="nonzero"/>
		</g>
	</g>
	<g mask="url(#mask1_26825)">
		<g style="mix-blend-mode:normal">
			<path id="Path 35757" d="M21.77 43.25C21.13 43.34 20.46 43.88 20.58 45.11C20.58 45.16 20.61 45.2 20.64 45.23C20.68 45.26 20.73 45.27 20.77 45.27C20.87 45.27 20.94 45.17 20.93 45.08C20.85 44.24 21.16 43.69 21.77 43.61C22.59 43.52 23.62 44.25 23.78 45.5C23.79 45.6 23.88 45.66 23.97 45.65C24.07 45.64 24.14 45.55 24.13 45.46C23.95 44 22.76 43.14 21.77 43.25Z" fill="#592E1C" fill-opacity="1.000000" fill-rule="nonzero"/>
		</g>
	</g>
	<g mask="url(#mask1_26825)">
		<g style="mix-blend-mode:normal">
			<path id="Path 35758" d="M12.08 42.77C11.48 42.85 10.83 43.37 10.94 44.55C10.95 44.64 11.04 44.71 11.13 44.7C11.23 44.7 11.3 44.61 11.3 44.51C11.22 43.71 11.51 43.21 12.09 43.12C12.87 43.04 13.83 43.73 13.98 44.92C13.99 45.01 14.08 45.08 14.18 45.07C14.27 45.06 14.34 44.97 14.33 44.87C14.16 43.48 13.03 42.66 12.08 42.77Z" fill="#592E1C" fill-opacity="1.000000" fill-rule="nonzero"/>
		</g>
	</g>
	<mask id="mask1_26837" mask-type="alpha" maskUnits="userSpaceOnUse" x="94.637207" y="12.630859" width="35.732910" height="35.501465">
		<g style="mix-blend-mode:normal">
			<rect id="Rectangle 3829" x="94.637207" y="12.630859" width="35.732986" height="35.501293" fill="#C4C4C4" fill-opacity="1.000000"/>
		</g>
	</mask>
	<g mask="url(#mask1_26837)">
		<g style="mix-blend-mode:normal">
			<path id="Path 35759" d="M98.93 29.73C97.09 28.49 94.56 26.45 95.04 24.88C95.36 23.85 96.76 23.3 99.42 23.14C100.01 23.11 100.58 23.1 101.04 23.1C100.07 21.12 98.89 18.09 100.09 16.98C100.37 16.73 100.73 16.58 101.18 16.56C102.59 16.47 104.88 17.64 106.21 18.41C106.37 16.22 106.88 13.03 108.47 12.66C108.54 12.64 108.62 12.63 108.7 12.63C110.25 12.54 112.02 15.11 113.07 16.94C114.12 15.42 115.94 13.12 117.39 13.03C117.58 13.02 117.76 13.04 117.93 13.09C119.5 13.58 119.77 16.85 119.77 19.07C120.96 18.52 122.88 17.71 124.24 17.63C125 17.58 125.57 17.76 125.93 18.15C127.04 19.36 125.64 22.3 124.52 24.21C126.74 24.38 129.97 24.89 130.33 26.49C130.69 28.1 128 29.93 126.07 31.03C127.91 32.26 130.44 34.3 129.96 35.87C129.64 36.9 128.25 37.45 125.57 37.61C124.98 37.65 124.43 37.66 123.96 37.66C124.93 39.64 126.11 42.66 124.91 43.77C124.64 44.03 124.27 44.17 123.82 44.2C122.41 44.28 120.12 43.11 118.78 42.34C118.62 44.53 118.12 47.73 116.53 48.09C116.45 48.11 116.37 48.12 116.3 48.12C114.75 48.22 112.98 45.65 111.93 43.82C110.88 45.34 109.06 47.63 107.61 47.72C107.42 47.73 107.24 47.71 107.08 47.66C105.5 47.17 105.23 43.9 105.23 41.68C104.04 42.24 102.11 43.04 100.76 43.12C100 43.17 99.43 42.99 99.07 42.6C97.96 41.39 99.36 38.45 100.47 36.54C98.26 36.38 95.02 35.87 94.66 34.26C94.31 32.66 97 30.82 98.93 29.73Z" fill="#FFCF00" fill-opacity="1.000000" fill-rule="nonzero"/>
		</g>
	</g>
	<g mask="url(#mask1_26837)">
		<g style="mix-blend-mode:normal">
			<path id="Path 35760" d="M100.01 27.49C98.67 34.54 103.29 41.34 110.33 42.68C117.38 44.03 124.18 39.4 125.52 32.36C126.87 25.31 122.24 18.51 115.2 17.17C108.15 15.82 101.35 20.45 100.01 27.49Z" fill="#F5AE00" fill-opacity="1.000000" fill-rule="evenodd"/>
		</g>
	</g>
	<g mask="url(#mask1_26837)">
		<g style="mix-blend-mode:normal">
			<path id="Path 35761" d="M100.31 27.54C99.02 34.29 103.44 40.79 110.18 42.08C116.93 43.36 123.43 38.94 124.72 32.2C126.01 25.46 121.58 18.95 114.84 17.66C108.1 16.38 101.59 20.8 100.31 27.54Z" fill="#FFD700" fill-opacity="1.000000" fill-rule="evenodd"/>
		</g>
	</g>
	<g mask="url(#mask1_26837)">
		<g style="mix-blend-mode:normal">
			<path id="Path 35762" d="M118.35 19.7C114.91 17.54 113.54 20.9 115.43 21.97C117.32 23.02 122.34 23.69 123.81 29.7C124.51 25.74 121.36 21.59 118.35 19.7Z" fill="#FFF36A" fill-opacity="1.000000" fill-rule="evenodd"/>
		</g>
	</g>
	<g mask="url(#mask1_26837)">
		<g style="mix-blend-mode:normal">
			<path id="Path 35763" d="M108.09 29.64C108.31 30.4 107.38 31.3 106.17 31.36C104.96 31.42 104.09 30.7 103.89 29.78C103.71 28.95 104.53 27.98 105.9 28.47C107.17 28.93 107.87 28.86 108.09 29.64Z" fill="#ED5D5A" fill-opacity="1.000000" fill-rule="nonzero"/>
		</g>
	</g>
	<g mask="url(#mask1_26837)">
		<g style="mix-blend-mode:normal">
			<path id="Path 35764" d="M120.25 31.11C119.96 32.14 118.8 32.64 117.43 32.4C116.1 32.16 115 30.88 115.45 29.96C115.89 29.09 116.53 29.58 118.17 29.37C119.76 29.17 120.53 30.08 120.25 31.11Z" fill="#ED5D5A" fill-opacity="1.000000" fill-rule="nonzero"/>
		</g>
	</g>
	<g mask="url(#mask1_26837)">
		<g style="mix-blend-mode:normal">
			<path id="Path 35765" d="M108.38 30.54C108.38 30.54 108.27 35.65 111.54 35.87C115.3 36.11 114.87 30.8 114.87 30.8C114.87 30.8 111.94 31.7 108.38 30.54Z" fill="#422316" fill-opacity="1.000000" fill-rule="nonzero"/>
		</g>
	</g>
	<g mask="url(#mask1_26837)">
		<g style="mix-blend-mode:normal">
			<path id="Path 35766" d="M114.21 34.45C113.68 34.02 113 33.75 112.13 33.76C110.89 33.78 110.19 34.35 109.81 35.1C110.25 35.52 110.81 35.82 111.54 35.87C112.91 35.96 113.72 35.31 114.21 34.45Z" fill="#EB4B48" fill-opacity="1.000000" fill-rule="nonzero"/>
		</g>
	</g>
	<g mask="url(#mask1_26837)">
		<g style="mix-blend-mode:normal">
			<path id="Path 35767" d="M112.32 28.48C111.92 27.81 111.51 27.71 111.24 27.75C110.86 27.85 110.49 28.28 110.46 28.74C110.44 29.24 110.74 29.65 111.26 29.83C111.29 29.82 111.4 29.79 111.41 29.76C111.43 29.69 111.4 29.63 111.34 29.6C110.74 29.39 110.69 28.94 110.7 28.75C110.72 28.39 110.94 28.07 111.23 28C111.52 27.92 111.84 28.14 112.11 28.6C112.14 28.66 112.23 28.67 112.27 28.64C112.3 28.63 112.31 28.51 112.32 28.48Z" fill="#592E1C" fill-opacity="1.000000" fill-rule="nonzero"/>
		</g>
	</g>
	<g mask="url(#mask1_26837)">
		<g style="mix-blend-mode:normal">
			<path id="Path 35768" d="M116.41 25.5C115.77 25.59 115.09 26.13 115.22 27.36C115.22 27.41 115.24 27.45 115.28 27.48C115.32 27.51 115.36 27.52 115.41 27.52C115.5 27.52 115.58 27.42 115.57 27.32C115.49 26.49 115.8 25.94 116.4 25.86C117.23 25.77 118.26 26.5 118.41 27.75C118.42 27.85 118.51 27.91 118.61 27.9C118.71 27.89 118.78 27.8 118.76 27.71C118.58 26.25 117.4 25.39 116.41 25.5Z" fill="#592E1C" fill-opacity="1.000000" fill-rule="nonzero"/>
		</g>
	</g>
	<g mask="url(#mask1_26837)">
		<g style="mix-blend-mode:normal">
			<path id="Path 35769" d="M106.72 25.02C106.12 25.1 105.46 25.62 105.58 26.8C105.59 26.89 105.68 26.96 105.77 26.95C105.87 26.95 105.94 26.86 105.93 26.76C105.85 25.96 106.14 25.46 106.73 25.37C107.51 25.29 108.47 25.98 108.62 27.17C108.63 27.26 108.72 27.33 108.81 27.32C108.91 27.31 108.98 27.22 108.97 27.12C108.79 25.73 107.67 24.91 106.72 25.02Z" fill="#592E1C" fill-opacity="1.000000" fill-rule="nonzero"/>
		</g>
	</g>
</svg>
