<svg width="176.090332" height="167.661133" viewBox="0 0 176.09 167.661" fill="none" xmlns="http://www.w3.org/2000/svg" xmlns:xlink="http://www.w3.org/1999/xlink">
	<desc>
			Created with Pixso.
	</desc>
	<defs/>
	<g style="mix-blend-mode:normal">
		<ellipse id="Ellipse 394" cx="89.569336" cy="155.384766" rx="72.892754" ry="12.276674" fill="#569696" fill-opacity="1.000000"/>
		<ellipse id="Ellipse 394" cx="89.569336" cy="155.384766" rx="72.392754" ry="11.776674" stroke="#707070" stroke-opacity="0" stroke-width="1.000000"/>
	</g>
	<mask id="mask1_26354" mask-type="alpha" maskUnits="userSpaceOnUse" x="0.000000" y="0.000000" width="176.090332" height="163.851074">
		<g style="mix-blend-mode:normal">
			<rect id="Rectangle 3846" width="176.090317" height="163.850891" fill="#C4C4C4" fill-opacity="1.000000"/>
		</g>
	</mask>
	<g mask="url(#mask1_26354)">
		<mask id="mask1_26357" mask-type="alpha" maskUnits="userSpaceOnUse" x="0.000000" y="0.000000" width="176.090332" height="163.851074">
			<g style="mix-blend-mode:normal">
				<rect id="Rectangle 3845" width="176.090317" height="163.850891" fill="#C4C4C4" fill-opacity="1.000000"/>
			</g>
		</mask>
		<g mask="url(#mask1_26357)">
			<g style="mix-blend-mode:normal">
				<path id="Path 36017" d="M176 67.36C175.85 66.7 175.43 66.1 174.87 65.73C174.24 65.32 173.5 65.32 172.83 65.63C172.45 65.79 172.12 66.05 171.78 66.27C171.43 66.51 171.07 66.75 170.71 66.98C170.57 67.07 170.42 67.17 170.27 67.26C171.92 65.48 173.35 63.51 173.72 61.04C173.85 60.12 173.8 59.11 173.22 58.34C172.69 57.64 171.81 57.2 170.93 57.41C170.45 57.51 170.06 57.83 169.72 58.15C169.38 58.47 169.05 58.79 168.71 59.11C168.07 59.73 167.41 60.35 166.75 60.96C167.02 60.58 167.28 60.19 167.53 59.8C167.98 59.09 168.57 58.45 168.82 57.63C169.07 56.82 168.73 55.91 168.04 55.42C167.39 54.97 166.47 54.95 165.72 55.05C164.81 55.16 164.03 55.55 163.29 56.07C161.94 57.04 160.69 58.22 159.64 59.51C159.1 60.18 158.58 60.87 157.85 61.37C157.34 61.72 156.77 61.99 156.2 62.23C157.02 60.5 157.8 58.74 158.47 56.94C158.84 55.94 159.2 54.68 158.83 53.63C158.46 52.57 157.33 52.44 156.38 52.72C154.56 53.26 153.15 54.61 152.01 56.07C150.84 57.57 149.78 59.17 148.83 60.82C147.87 62.48 147 64.26 146.59 66.15C146.31 65.95 146 65.78 145.66 65.67C144.44 65.28 143.12 65.74 142.17 66.53C141.11 67.41 140.58 68.79 140.34 70.1C140.1 71.44 140.06 72.82 140.17 74.18C140.41 76.93 141.3 79.62 142.79 81.95C143.5 83.07 144.38 84.16 145.55 84.83C146.67 85.47 148.01 85.59 149.15 84.96C150.35 84.3 151.14 82.99 151.42 81.69C151.44 81.64 151.44 81.6 151.45 81.55C154.5 82.4 157.81 81.8 160.83 81.11C163.82 80.42 166.78 79.37 169.36 77.68C171.65 76.18 173.66 74.17 174.94 71.74C175.62 70.44 176.33 68.85 176 67.36Z" fill="#231F20" fill-opacity="1.000000" fill-rule="nonzero"/>
			</g>
		</g>
		<g mask="url(#mask1_26357)">
			<g style="mix-blend-mode:normal">
				<path id="Path 36018" d="M174.84 69.04C174.67 69.67 174.42 70.28 174.13 70.87C171.7 75.81 166.55 78.5 161.41 79.82C159.82 80.23 158.19 80.56 156.56 80.74C154.89 80.92 153.2 80.9 151.59 80.43C151.66 79.11 151.44 77.79 151.35 76.48C151.33 76.18 151.11 75.92 150.79 75.92C150.5 75.92 150.21 76.18 150.23 76.48C150.4 78.79 151.09 81.69 149.22 83.52C148.5 84.22 147.54 84.45 146.59 84.1C145.59 83.73 144.78 82.86 144.17 82.01C142.76 80.03 141.84 77.73 141.44 75.33C141.23 74.14 141.18 72.91 141.27 71.69C141.35 70.52 141.54 69.29 142.16 68.27C142.73 67.31 143.8 66.53 144.96 66.66C146.16 66.79 146.87 67.97 147.45 68.9C147.82 69.51 148.79 68.95 148.41 68.33C148.15 67.91 147.87 67.48 147.55 67.08C147.77 65.37 148.52 63.72 149.33 62.21C150.17 60.65 151.14 59.17 152.17 57.72C153.1 56.41 154.16 55.07 155.59 54.27C155.93 54.07 156.3 53.91 156.68 53.8C156.95 53.72 157.34 53.62 157.61 53.77C157.91 53.93 157.86 54.5 157.84 54.78C157.82 55.29 157.69 55.78 157.53 56.25C157.16 57.35 156.69 58.42 156.23 59.48C155.74 60.58 155.24 61.67 154.7 62.75C154.6 62.95 154.59 63.26 154.79 63.42C157.62 65.77 159.39 69.29 159.53 72.97C159.56 73.69 160.68 73.69 160.65 72.97C160.53 69.86 159.37 66.87 157.4 64.47C157.08 64.07 156.74 63.7 156.37 63.35C157.6 62.86 158.75 62.25 159.67 61.24C160.18 60.68 160.55 60.13 161.07 59.56C161.62 58.97 162.2 58.4 162.81 57.87C163.35 57.41 163.91 56.96 164.53 56.6C165.22 56.2 166.02 56.06 166.81 56.15C167.29 56.2 167.74 56.46 167.79 57C167.82 57.3 167.63 57.64 167.46 57.91C167.26 58.25 167.02 58.56 166.8 58.88C166.18 59.76 165.62 60.67 164.97 61.52C164.29 62.41 163.55 63.26 162.79 64.07C162.37 64.34 161.88 64.68 161.45 64.92C160.81 65.26 161.38 66.23 162.01 65.88C165.14 64.17 167.72 61.62 170.27 59.16C170.53 58.91 170.82 58.58 171.19 58.49C171.46 58.43 171.73 58.52 171.96 58.66C172.61 59.08 172.71 59.9 172.65 60.61C172.53 62.14 171.74 63.63 170.85 64.86C169.81 66.29 168.48 67.5 167.23 68.74C167.15 68.82 167.1 68.91 167.08 68.99C166.01 69.47 164.91 69.83 163.75 70.04C163.46 70.09 163.29 70.46 163.36 70.73C163.45 71.04 163.75 71.17 164.05 71.12C166.9 70.61 169.47 69.14 171.85 67.57C172.15 67.37 172.45 67.17 172.74 66.97C173.01 66.79 173.29 66.59 173.61 66.53C174.09 66.44 174.51 66.78 174.74 67.18C175.07 67.74 174.99 68.44 174.84 69.04Z" fill="#FFE14E" fill-opacity="1.000000" fill-rule="nonzero"/>
			</g>
		</g>
		<g mask="url(#mask1_26357)">
			<g style="mix-blend-mode:normal">
				<path id="Path 36019" d="M144.25 71.11C144.02 71.34 144.05 71.67 144.25 71.9C145.6 73.52 146.31 75.62 146.26 77.73C146.25 78.45 147.36 78.45 147.38 77.73C147.43 75.31 146.58 72.96 145.04 71.11C144.84 70.88 144.45 70.91 144.25 71.11Z" fill="#231F20" fill-opacity="1.000000" fill-rule="nonzero"/>
			</g>
		</g>
		<g mask="url(#mask1_26357)">
			<g style="mix-blend-mode:normal">
				<path id="Path 36020" d="M120.62 81.06C125.26 82.63 130.54 82.21 135.25 81.19C139.32 80.31 143.51 78.78 146.87 76.23C147.41 75.83 146.38 73.55 145.24 71.78C142.36 74.48 138.03 76.02 134.06 76.88C130.03 77.75 125.64 78.05 121.81 76.75C119.08 75.83 117.91 80.15 120.62 81.06Z" fill="#231F20" fill-opacity="1.000000" fill-rule="nonzero"/>
			</g>
		</g>
		<g mask="url(#mask1_26357)">
			<g style="mix-blend-mode:normal">
				<path id="Path 36021" d="M131.28 95.08C130.89 93.43 129.83 92.38 128.2 92.03L114.21 38.97C115.44 36.88 115.86 34.85 115.41 32.97C114.39 28.75 109.14 25.86 100.61 24.83C92.26 23.83 81.71 24.71 70.9 27.31C60.08 29.9 50.28 33.91 43.3 38.58C36.16 43.36 32.79 48.32 33.8 52.55C34.25 54.41 35.52 56.02 37.54 57.32L51.81 107.7C50.87 109.33 50.57 110.88 50.91 112.32C51.8 116 56.78 118.68 64.59 119.67C66.85 119.95 69.26 120.09 71.8 120.09C78.28 120.09 85.55 119.18 92.92 117.41C103.72 114.82 113.61 111.2 120.77 107.22C128.52 102.92 132.16 98.72 131.28 95.08Z" fill="#231F20" fill-opacity="1.000000" fill-rule="nonzero"/>
			</g>
		</g>
		<g mask="url(#mask1_26357)">
			<g style="mix-blend-mode:normal">
				<path id="Path 36022" d="M34.89 52.29C34.01 48.6 37.3 43.95 43.92 39.51C50.79 34.91 60.47 30.96 71.16 28.39C78.98 26.52 86.65 25.55 93.42 25.55C95.9 25.55 98.27 25.68 100.48 25.94C108.39 26.89 113.44 29.55 114.32 33.23C115.2 36.92 111.91 41.58 105.29 46.01C98.42 50.62 88.74 54.57 78.05 57.13C67.36 59.69 56.95 60.56 48.73 59.58C40.82 58.63 35.77 55.97 34.89 52.29Z" fill="#83D5D5" fill-opacity="1.000000" fill-rule="nonzero"/>
			</g>
		</g>
		<g mask="url(#mask1_26357)">
			<g style="mix-blend-mode:normal">
				<path id="Path 36023" d="M77.85 54.91C98.03 50.07 112.54 40.91 110.9 34.05C110.09 30.68 105.52 28.48 98.04 27.86C90.76 27.25 81.5 28.17 71.98 30.46C62.46 32.74 53.79 36.12 47.58 39.96C41.19 43.91 38.12 47.94 38.93 51.32C39.94 55.5 46.68 57.72 56.36 57.72C62.56 57.72 69.97 56.81 77.85 54.91Z" fill="#231F20" fill-opacity="1.000000" fill-rule="nonzero"/>
			</g>
		</g>
		<g mask="url(#mask1_26357)">
			<g style="mix-blend-mode:normal">
				<path id="Path 36024" d="M51.89 56.4C45.02 55.83 40.7 53.89 40.02 51.06C39.34 48.23 42.31 44.53 48.17 40.91C54.28 37.13 62.83 33.8 72.24 31.55C79.78 29.74 87.13 28.79 93.44 28.79C95.01 28.79 96.52 28.85 97.95 28.97C104.81 29.54 109.13 31.49 109.81 34.31C110.49 37.14 107.52 40.84 101.66 44.46C95.55 48.25 87 51.57 77.59 53.83C68.18 56.09 59.05 57 51.89 56.4Z" fill="#83D5D5" fill-opacity="1.000000" fill-rule="nonzero"/>
			</g>
		</g>
		<g mask="url(#mask1_26357)">
			<g style="mix-blend-mode:normal">
				<path id="Path 36025" d="M67.23 46.57C65.34 46.57 63.61 45.96 62.55 44.93L22.63 44.75C21.5 44.78 20.47 43.99 20.23 42.87C20.03 41.99 20.11 41.06 20.44 40.1C20.73 39.3 21.49 38.78 22.32 38.8L62.57 40.43C63.63 39.41 65.35 38.8 67.23 38.8C70.44 38.8 72.95 40.51 72.95 42.69C72.95 44.86 70.44 46.57 67.23 46.57Z" fill="#231F20" fill-opacity="1.000000" fill-rule="nonzero"/>
			</g>
		</g>
		<g mask="url(#mask1_26357)">
			<g style="mix-blend-mode:normal">
				<path id="Path 36026" d="M22.62 43.63L62.79 43.81C62.94 43.81 63.09 43.88 63.2 43.99C64.02 44.89 65.57 45.45 67.23 45.45C69.73 45.45 71.84 44.19 71.84 42.69C71.84 41.19 69.73 39.92 67.23 39.92C65.57 39.92 64.03 40.48 63.2 41.37C63.09 41.49 62.94 41.56 62.77 41.55L22.29 39.92C21.93 39.9 21.62 40.14 21.5 40.48C21.23 41.23 21.17 41.96 21.32 42.63C21.45 43.22 22.01 43.63 22.62 43.63Z" fill="#83D5D5" fill-opacity="1.000000" fill-rule="nonzero"/>
			</g>
		</g>
		<g mask="url(#mask1_26357)">
			<g style="mix-blend-mode:normal">
				<path id="Path 36027" d="M46.13 62.81L68.14 113.07L69.21 112.91L74.98 60.19L103.42 108.19C100.01 109.38 96.43 110.44 92.76 111.32C83.23 113.61 73.46 114.29 65.24 113.25C61.83 112.81 58.87 112.1 56.68 111.17C54.74 110.36 53.47 109.39 53.21 108.53L46.57 85.09L46.13 62.81Z" fill="#ED5DAE" fill-opacity="1.000000" fill-rule="nonzero"/>
			</g>
		</g>
		<g mask="url(#mask1_26357)">
			<g style="mix-blend-mode:normal">
				<path id="Path 36028" d="M46.28 60.35C47.02 60.48 47.8 60.59 48.6 60.69C50.85 60.96 53.25 61.09 55.78 61.09C61.38 61.09 67.58 60.44 73.97 59.17L68.32 110.71L46.28 60.35Z" fill="#FC88C9" fill-opacity="1.000000" fill-rule="nonzero"/>
			</g>
		</g>
		<g mask="url(#mask1_26357)">
			<g style="mix-blend-mode:normal">
				<path id="Path 36029" d="M44.96 60.1L45.37 80.85L38.92 58.1C40.58 58.93 42.6 59.6 44.96 60.1Z" fill="#FC88C9" fill-opacity="1.000000" fill-rule="nonzero"/>
			</g>
		</g>
		<g mask="url(#mask1_26357)">
			<g style="mix-blend-mode:normal">
				<path id="Path 36030" d="M101.18 49.78L102.37 79.93C107.75 79.83 108.53 86.13 102.77 90.12L103.39 105.96L75.48 58.86C76.42 58.66 77.37 58.44 78.31 58.22C86.87 56.16 94.79 53.23 101.18 49.78Z" fill="#FC88C9" fill-opacity="1.000000" fill-rule="nonzero"/>
			</g>
		</g>
		<g mask="url(#mask1_26357)">
			<g style="mix-blend-mode:normal">
				<path id="Path 36031" d="M104.58 107.77L103.86 89.43C108.01 85.03 107.5 81.42 103.48 79.83L102.35 51.02L127.18 92.65C127.05 94.27 124.62 97.47 118.13 101.41C114.26 103.76 109.63 105.92 104.58 107.77Z" fill="#ED5DAE" fill-opacity="1.000000" fill-rule="nonzero"/>
			</g>
		</g>
		<g mask="url(#mask1_26357)">
			<g style="mix-blend-mode:normal">
				<path id="Path 36032" d="M126.2 88.82L102.48 49.06C103.69 48.37 104.83 47.66 105.91 46.94C109.25 44.71 111.76 42.44 113.38 40.22L126.2 88.82Z" fill="#FC88C9" fill-opacity="1.000000" fill-rule="nonzero"/>
			</g>
		</g>
		<g mask="url(#mask1_26357)">
			<g style="mix-blend-mode:normal">
				<path id="Path 36033" d="M87.84 42.39C87.44 42.39 87.06 42.31 86.7 42.15C84.7 41.28 84.14 38.3 85.43 35.36C86.18 33.62 87.43 32.29 88.8 31.72L101.19 1.5C101.63 0.43 102.76 -0.18 103.87 0.04C104.76 0.22 105.59 0.66 106.33 1.35C106.95 1.93 107.12 2.83 106.76 3.59L92.92 33.54C93.43 34.92 93.3 36.74 92.54 38.47C91.5 40.87 89.59 42.39 87.84 42.39Z" fill="#231F20" fill-opacity="1.000000" fill-rule="nonzero"/>
			</g>
		</g>
		<g mask="url(#mask1_26357)">
			<g style="mix-blend-mode:normal">
				<path id="Path 36034" d="M103.42 1.11C102.91 1.11 102.43 1.43 102.22 1.93L89.75 32.37C89.68 32.52 89.56 32.64 89.41 32.69C88.25 33.08 87.12 34.28 86.45 35.81C85.45 38.09 85.77 40.53 87.14 41.13C88.52 41.73 90.52 40.31 91.52 38.02C92.19 36.5 92.29 34.86 91.8 33.75C91.74 33.6 91.74 33.43 91.81 33.29L105.75 3.12C105.9 2.79 105.83 2.41 105.56 2.16C104.98 1.62 104.34 1.27 103.66 1.14C103.58 1.12 103.5 1.11 103.42 1.11Z" fill="#83D5D5" fill-opacity="1.000000" fill-rule="nonzero"/>
			</g>
		</g>
		<g mask="url(#mask1_26357)">
			<g style="mix-blend-mode:normal">
				<path id="Path 36035" d="M62.64 148.47C62.38 146.86 61.66 145.33 60.67 144.04C59.85 142.96 58.86 142 57.7 141.29C57.23 141 56.72 140.76 56.19 140.58C56.19 140.46 56.19 140.34 56.2 140.22C56.2 140.19 56.21 140.15 56.21 140.11C56.22 140.09 56.23 139.99 56.23 139.98C56.24 139.95 56.24 139.91 56.25 139.87C56.31 139.55 56.41 139.22 56.52 138.91C56.63 138.58 56.71 138.39 56.84 138.1C56.96 137.84 57.1 137.58 57.23 137.33C57.26 137.28 57.28 137.23 57.29 137.18C59.27 137.72 61.41 136.4 62.19 134.59C62.56 133.75 62.68 132.78 62.37 131.9C62.17 131.33 61.83 130.84 61.54 130.31C61.29 129.84 61.09 129.34 60.95 128.82C60.63 127.68 60.76 126.5 60.46 125.37C60.21 124.41 59.6 123.59 58.81 123.01C57.05 121.73 54.68 122.12 53.26 123.63C50.76 121.65 47.21 121.56 44.24 122.46C43.87 122.57 43.5 122.7 43.15 122.86C41.78 121.53 39.32 122.13 38.21 123.53C37.57 124.34 37.16 125.3 36.86 126.28C36.34 128 36.15 129.83 36.1 131.62C36.01 134.55 36.32 137.48 36.77 140.36C37.29 143.7 38 147.02 39.02 150.25C39.74 152.54 40.62 154.81 41.77 156.92C42.56 158.36 43.48 159.75 44.59 160.95C45.33 161.75 46.17 162.47 47.1 163.02C47.65 163.34 48.25 163.62 48.87 163.77C49.98 164.04 51.19 163.58 51.69 162.5C51.92 161.98 51.95 161.45 51.84 160.93C52.83 160.88 53.83 160.7 54.78 160.41C57.86 159.47 60.42 157.33 61.77 154.38C62.61 152.52 62.97 150.5 62.64 148.47Z" fill="#231F20" fill-opacity="1.000000" fill-rule="nonzero"/>
			</g>
		</g>
		<g mask="url(#mask1_26357)">
			<g style="mix-blend-mode:normal">
				<path id="Path 36036" d="M61.52 151.52C60.92 154.77 58.76 157.5 55.79 158.84C55.34 159.05 54.71 159.27 54.14 159.43C53.86 159.5 53.58 159.57 53.3 159.63C53.19 159.65 53.07 159.67 52.95 159.69C52.88 159.7 52.82 159.71 52.75 159.72C52.73 159.73 52.66 159.74 52.62 159.74C52.59 159.75 52.52 159.76 52.51 159.76C52.45 159.76 52.39 159.77 52.33 159.78C52.22 159.79 52.12 159.8 52.01 159.81C51.83 159.82 51.64 159.83 51.45 159.83C51.21 159.84 50.98 159.81 50.74 159.81C50.5 159.7 50.26 159.57 50.03 159.44C49.8 159.29 49.57 159.14 49.35 158.98C49.34 158.97 49.26 158.91 49.24 158.9C49.2 158.86 49.16 158.83 49.11 158.79C49 158.7 48.88 158.6 48.77 158.5C47.83 157.66 47.15 156.79 46.49 155.77C44.95 153.38 43.96 150.77 43.16 148.05C42.31 145.19 41.71 142.13 41.33 139.25C40.99 136.69 40.79 134.11 40.81 131.54C40.83 130.46 40.87 129.38 41.06 128.32C41.21 127.4 41.45 126.48 41.89 125.66C42.23 125.04 42.69 124.39 43.31 124.03C43.38 123.99 43.45 123.95 43.52 123.92C43.57 123.89 43.62 123.87 43.66 123.85C43.9 123.76 44.2 123.64 44.44 123.57C45.08 123.37 45.73 123.23 46.38 123.13C46.64 123.1 47.09 123.06 47.42 123.04C47.81 123.03 48.2 123.03 48.6 123.06C49.39 123.11 50.18 123.27 50.94 123.56C51.67 123.84 52.35 124.27 52.92 124.81C53.2 125.08 53.59 125 53.8 124.7C54.72 123.38 56.55 122.94 57.94 123.78C58.57 124.15 59.09 124.75 59.32 125.45C59.64 126.41 59.54 127.46 59.72 128.45C59.9 129.43 60.27 130.37 60.78 131.23C61.19 131.93 61.55 132.61 61.39 133.44C61.11 134.93 59.74 136.16 58.2 136.18C56.29 136.21 55.59 134.09 55.15 132.58C54.95 131.89 53.87 132.18 54.08 132.88C54.48 134.27 55.06 135.89 56.29 136.73C55.72 137.78 55.13 139.04 55.08 140.27C54.08 140.06 53.04 140 52.05 140.06C50.92 140.13 49.8 140.35 48.72 140.7C48.04 140.93 48.33 142.01 49.02 141.78C51.08 141.1 53.33 140.92 55.43 141.52C56.08 141.71 56.69 141.96 57.25 142.32C57.36 142.39 57.46 142.46 57.56 142.53C57.61 142.57 57.67 142.61 57.72 142.64C57.75 142.66 57.84 142.74 57.86 142.75C58.1 142.94 58.33 143.13 58.55 143.34C60.76 145.41 62.1 148.43 61.52 151.52Z" fill="#FFE14E" fill-opacity="1.000000" fill-rule="nonzero"/>
			</g>
		</g>
		<g mask="url(#mask1_26357)">
			<g style="mix-blend-mode:normal">
				<path id="Path 36037" d="M151.2 146.03C150.74 145.78 150.22 145.71 149.71 145.78C149.73 144.96 149.65 144.14 149.51 143.34C148.98 140.22 147.22 137.45 144.55 135.74C142.78 134.6 140.69 133.92 138.58 134.01C136.82 134.09 135.12 134.67 133.64 135.6C132.44 136.36 131.36 137.33 130.53 138.48C130.22 138.91 129.97 139.37 129.75 139.86C129.69 139.86 129.64 139.85 129.58 139.85C129.56 139.85 129.47 139.83 129.47 139.83C129.31 139.81 129.16 139.77 129.01 139.73C128.86 139.69 128.71 139.64 128.56 139.59C128.47 139.56 128.39 139.52 128.31 139.49C128.27 139.48 128.19 139.44 128.16 139.42C127.6 139.18 127.07 138.88 126.56 138.54C126.53 138.52 126.49 138.51 126.46 138.49C127.14 136.59 126 134.38 124.31 133.44C123.49 132.98 122.53 132.8 121.62 133.01C121.06 133.15 120.55 133.45 120.03 133.69C119.53 133.92 118.99 134.08 118.44 134.2C117.27 134.44 116.06 134.21 114.89 134.42C113.96 134.59 113.09 135.12 112.48 135.84C111.77 136.68 111.36 137.77 111.47 138.88C111.56 139.84 111.96 140.76 112.62 141.47C110.5 143.74 110.14 147.15 110.71 150.12C110.8 150.58 110.91 151.04 111.08 151.49C109.68 152.79 110.01 155.22 111.37 156.48C112.12 157.17 113.05 157.64 113.99 158.01C115.65 158.67 117.44 158.99 119.21 159.19C122.07 159.5 124.98 159.44 127.85 159.22C131.26 158.97 134.67 158.51 138 157.75C140.36 157.21 142.69 156.5 144.91 155.52C146.43 154.84 147.88 154.02 149.19 152.98C150.04 152.31 150.82 151.53 151.44 150.64C151.81 150.11 152.12 149.53 152.32 148.92C152.67 147.84 152.24 146.59 151.2 146.03Z" fill="#231F20" fill-opacity="1.000000" fill-rule="nonzero"/>
			</g>
		</g>
		<g mask="url(#mask1_26357)">
			<g style="mix-blend-mode:normal">
				<path id="Path 36038" d="M112.41 143.72C112.76 143.01 113.23 142.39 113.81 141.86C114.02 141.67 114.04 141.25 113.81 141.07C112.55 140.03 112.18 138.24 113.1 136.86C113.5 136.26 114.12 135.79 114.81 135.59C115.79 135.3 116.84 135.51 117.85 135.41C118.89 135.3 119.88 135 120.83 134.54C121.58 134.17 122.27 133.9 123.11 134.14C124.58 134.55 125.65 136.07 125.52 137.6C125.36 139.46 123.15 139.97 121.66 140.28C121.36 140.34 121.19 140.69 121.27 140.97C121.35 141.28 121.66 141.42 121.95 141.36C123.38 141.06 124.99 140.61 125.92 139.45C126.46 139.81 127.1 140.18 127.7 140.44C128.23 140.67 128.78 140.86 129.36 140.94C129.06 141.95 128.92 143.01 128.91 144.03C128.89 145.15 129.04 146.27 129.31 147.36C129.48 148.06 130.56 147.76 130.39 147.06C129.88 144.99 129.88 142.78 130.61 140.77C130.84 140.11 131.16 139.5 131.58 138.93C131.62 138.88 131.72 138.75 131.76 138.7C131.86 138.58 131.97 138.46 132.08 138.34C132.3 138.1 132.53 137.87 132.77 137.65C133.84 136.69 135.16 135.9 136.58 135.48C138.3 134.96 140.11 135.03 141.81 135.62C143.5 136.21 145.04 137.27 146.2 138.64C147.1 139.7 147.73 140.94 148.11 142.25C148.28 142.82 148.41 143.41 148.49 144.01C148.5 144.07 148.52 144.23 148.53 144.29C148.54 144.42 148.55 144.56 148.56 144.7C148.58 144.93 148.59 145.16 148.59 145.4C148.6 145.75 148.59 146.11 148.55 146.47C148.55 146.49 148.54 146.57 148.54 146.61C148.53 146.64 148.51 146.74 148.51 146.77C148.42 146.89 148.19 147.3 148.16 147.35C148.08 147.46 148 147.57 147.92 147.68C147.88 147.74 147.77 147.87 147.72 147.93C147.36 148.36 146.95 148.76 146.52 149.12C146.42 149.21 146.31 149.3 146.2 149.39C146.19 149.4 146.09 149.47 146.09 149.48C146.02 149.52 145.96 149.57 145.89 149.62C145.65 149.8 145.4 149.97 145.14 150.13C144.6 150.47 144.04 150.78 143.47 151.07C142.25 151.66 141.02 152.13 139.68 152.54C138.27 152.98 136.82 153.32 135.36 153.61C132.45 154.17 129.54 154.48 126.56 154.6C124.05 154.71 121.53 154.7 119.04 154.44C118.8 154.41 118.56 154.39 118.33 154.36C118.28 154.35 118.14 154.33 118.09 154.33C117.98 154.31 117.87 154.29 117.76 154.28C117.03 154.16 116.3 154 115.6 153.78C114.76 153.51 113.91 153.14 113.24 152.57C112.9 152.29 112.6 151.97 112.36 151.61C112.32 151.54 112.28 151.47 112.24 151.4C112.23 151.36 112.21 151.33 112.19 151.29C111.79 150.2 111.63 149.16 111.59 148.04C111.54 146.56 111.73 145.05 112.41 143.72Z" fill="#FFE14E" fill-opacity="1.000000" fill-rule="nonzero"/>
			</g>
		</g>
		<g mask="url(#mask1_26357)">
			<g style="mix-blend-mode:normal">
				<path id="Path 36039" d="" fill="#231F20" fill-opacity="1.000000" fill-rule="nonzero"/>
			</g>
		</g>
		<g mask="url(#mask1_26357)">
			<g style="mix-blend-mode:normal">
				<path id="Path 36040" d="M151.2 148.74C151.18 148.8 151.16 148.85 151.14 148.9C151.02 149.18 150.85 149.49 150.69 149.75C150.59 149.92 150.48 150.08 150.36 150.23C150.34 150.27 150.31 150.3 150.28 150.34C150.21 150.42 150.1 150.56 150.03 150.65C149.69 151.04 149.32 151.41 148.93 151.75C148.82 151.85 148.71 151.94 148.6 152.03C148.53 152.08 148.48 152.13 148.41 152.18L148.31 152.27C148.03 152.47 147.75 152.67 147.46 152.86C146.81 153.3 146.12 153.69 145.42 154.04C144.53 154.49 143.76 154.82 142.85 155.16C141.76 155.56 140.65 155.91 139.53 156.22C136.65 157 133.69 157.5 130.72 157.83C127.61 158.19 124.47 158.39 121.34 158.24C119.35 158.14 117.5 157.93 115.58 157.37C115.24 157.28 114.91 157.17 114.58 157.05C114.43 156.99 114.29 156.93 114.14 156.88C114.07 156.85 113.92 156.78 113.85 156.75C113.42 156.55 113 156.32 112.61 156.05C112.57 156.02 112.54 156 112.5 155.97C112.43 155.92 112.34 155.85 112.28 155.79C112.17 155.7 112.07 155.6 111.97 155.5C111.93 155.45 111.89 155.41 111.85 155.36C111.85 155.36 111.8 155.29 111.77 155.26C111.73 155.19 111.68 155.12 111.64 155.04C111.36 154.54 111.23 153.95 111.3 153.39C111.34 153.08 111.45 152.77 111.64 152.52C111.83 152.76 112.04 152.99 112.27 153.2C113.64 154.46 115.52 155.03 117.32 155.33C119.66 155.72 122.06 155.8 124.43 155.78C127.5 155.75 130.58 155.51 133.62 155.04C136.63 154.58 139.64 153.89 142.47 152.73C144.88 151.74 147.25 150.39 148.86 148.28C149.12 147.94 149.46 147.53 149.58 147.1C149.59 147.05 149.61 146.99 149.62 146.93C149.84 146.87 150.07 146.84 150.27 146.87C150.5 146.91 150.72 147.02 150.87 147.15C151.04 147.3 151.19 147.51 151.25 147.67C151.35 147.94 151.31 148.03 151.33 148.3C151.32 148.36 151.3 148.42 151.28 148.49C151.26 148.57 151.23 148.66 151.2 148.74Z" fill="#FFE14E" fill-opacity="1.000000" fill-rule="nonzero"/>
			</g>
		</g>
		<g mask="url(#mask1_26357)">
			<g style="mix-blend-mode:normal">
				<path id="Path 36041" d="" fill="#231F20" fill-opacity="1.000000" fill-rule="nonzero"/>
			</g>
		</g>
		<g mask="url(#mask1_26357)">
			<g style="mix-blend-mode:normal">
				<path id="Path 36042" d="M115.07 138.62C117.88 139.15 120.82 138.68 123.3 137.26C123.93 136.9 123.36 135.94 122.74 136.29C120.52 137.56 117.88 138.02 115.37 137.54C115.07 137.48 114.77 137.62 114.68 137.93C114.61 138.2 114.77 138.56 115.07 138.62Z" fill="#231F20" fill-opacity="1.000000" fill-rule="nonzero"/>
			</g>
		</g>
		<g mask="url(#mask1_26357)">
			<g style="mix-blend-mode:normal">
				<path id="Line 142" d="" fill="#231F20" fill-opacity="1.000000" fill-rule="nonzero"/>
			</g>
		</g>
		<g mask="url(#mask1_26357)">
			<g style="mix-blend-mode:normal">
				<path id="Path 36043" d="" fill="#231F20" fill-opacity="1.000000" fill-rule="nonzero"/>
			</g>
		</g>
		<g mask="url(#mask1_26357)">
			<g style="mix-blend-mode:normal">
				<path id="Path 36044" d="M119.68 138.33C119.87 137.89 121.06 138.25 121.22 137.8C125.2 126.99 122.29 112.27 111.86 106.21C109.36 104.76 107.11 108.63 109.6 110.07C118.22 115.07 120.39 129.45 116.66 138.01C116.18 139.11 119.68 138.33 119.68 138.33Z" fill="#231F20" fill-opacity="1.000000" fill-rule="nonzero"/>
			</g>
		</g>
		<g mask="url(#mask1_26357)">
			<g style="mix-blend-mode:normal">
				<path id="Path 36045" d="M59.22 133.34C57.75 131.17 57.1 128.55 57.39 125.95C57.43 125.65 57.11 125.39 56.84 125.39C56.51 125.39 56.31 125.65 56.28 125.95C55.97 128.73 56.69 131.6 58.26 133.91C58.66 134.5 59.63 133.94 59.22 133.34Z" fill="#231F20" fill-opacity="1.000000" fill-rule="nonzero"/>
			</g>
		</g>
		<g mask="url(#mask1_26357)">
			<g style="mix-blend-mode:normal">
				<path id="Path 36046" d="" fill="#231F20" fill-opacity="1.000000" fill-rule="nonzero"/>
			</g>
		</g>
		<g mask="url(#mask1_26357)">
			<g style="mix-blend-mode:normal">
				<path id="Path 36047" d="M50.49 162.3C50.22 162.61 49.84 162.77 49.47 162.75C49.43 162.75 49.32 162.73 49.29 162.72C49.08 162.68 48.88 162.62 48.68 162.55C48.62 162.52 48.55 162.5 48.49 162.48C48.34 162.41 48.1 162.3 47.95 162.22C47.59 162.02 47.24 161.8 46.91 161.56C46.87 161.52 46.83 161.49 46.78 161.46C46.69 161.38 46.52 161.25 46.43 161.17C46.22 160.99 46.02 160.8 45.82 160.61C45.36 160.16 44.94 159.67 44.54 159.17C44.51 159.13 44.47 159.07 44.44 159.04C44.38 158.96 44.32 158.88 44.26 158.79C44.15 158.64 44.04 158.48 43.93 158.33C43.7 157.98 43.47 157.63 43.26 157.27C42.17 155.46 41.35 153.57 40.65 151.61C39.64 148.77 38.91 145.84 38.34 142.89C37.75 139.85 37.31 136.77 37.22 133.67C37.18 132.55 37.2 131.42 37.28 130.3C37.3 130.07 37.32 129.83 37.35 129.6C37.36 129.49 37.37 129.39 37.38 129.28C37.39 129.23 37.4 129.17 37.4 129.12C37.46 128.72 37.54 128.24 37.62 127.84C37.75 127.21 37.92 126.57 38.15 125.96C38.19 125.85 38.23 125.74 38.28 125.63C38.29 125.61 38.31 125.55 38.32 125.52C38.35 125.46 38.37 125.41 38.4 125.35C38.49 125.15 38.59 124.96 38.71 124.77C38.8 124.62 38.89 124.47 39 124.33C39.04 124.28 39.15 124.14 39.19 124.09C39.72 123.52 40.5 123.21 41.26 123.24C41.59 123.25 41.89 123.34 42.15 123.51C41.74 123.87 41.39 124.33 41.11 124.78C40.19 126.28 39.89 128.09 39.76 129.82C39.59 132.24 39.73 134.69 39.97 137.1C40.27 140.22 40.78 143.32 41.54 146.35C42.28 149.32 43.25 152.26 44.71 154.96C45.91 157.18 47.54 159.37 49.8 160.59C50.1 160.75 50.36 160.87 50.69 160.92C50.87 161.4 50.82 161.93 50.49 162.3Z" fill="#FFE14E" fill-opacity="1.000000" fill-rule="nonzero"/>
			</g>
		</g>
		<g mask="url(#mask1_26357)">
			<g style="mix-blend-mode:normal">
				<path id="Path 36048" d="" fill="#231F20" fill-opacity="1.000000" fill-rule="nonzero"/>
			</g>
		</g>
		<g mask="url(#mask1_26357)">
			<g style="mix-blend-mode:normal">
				<path id="Path 36049" d="" fill="#231F20" fill-opacity="1.000000" fill-rule="nonzero"/>
			</g>
		</g>
		<g mask="url(#mask1_26357)">
			<g style="mix-blend-mode:normal">
				<path id="Path 36050" d="M58.58 132.26C65.51 130.54 74.16 130.84 79.06 124.7C80.73 122.61 81.52 120.13 81.54 117.47C81.56 114.59 77.09 114.59 77.07 117.47C77.07 118.21 77.04 118.54 76.95 119.01C76.89 119.3 76.81 119.58 76.72 119.86C76.7 119.94 76.39 120.72 76.57 120.32C76.03 121.5 75.77 121.83 74.87 122.67C73.53 123.92 71.44 124.88 69.53 125.49C65.56 126.76 61.47 127.24 57.4 127.95C55.93 128.2 57.25 132.47 58.58 132.26Z" fill="#231F20" fill-opacity="1.000000" fill-rule="nonzero"/>
			</g>
		</g>
		<g mask="url(#mask1_26357)">
			<g style="mix-blend-mode:normal">
				<path id="Path 36051" d="M52.02 89.14C46.64 90.68 41.05 90.82 35.66 89.28C33.59 88.69 31.62 87.89 29.73 86.87C29.44 86.72 29.16 86.56 28.87 86.39C29.68 84.75 30.21 82.92 29.82 81.09C29.44 79.28 28.01 77.73 26.13 77.51C26.13 73.42 26.01 69.23 24.26 65.46C23.85 64.55 23.34 63.7 22.73 62.91C22.13 62.14 21.44 61.38 20.5 61.05C20.02 60.88 19.47 60.87 19.01 61.11C18.57 61.33 18.31 61.77 18.08 62.19C17.65 63 17.38 63.87 17.26 64.78C17.2 65.2 17.18 65.62 17.19 66.05C16.87 65.65 16.54 65.26 16.22 64.87C15.43 63.94 14.65 62.97 13.77 62.13C12.8 61.2 11.57 60.31 10.19 60.15C8.56 59.95 8.07 61.8 8.05 63.07C8.04 63.94 8.21 64.78 8.48 65.59C8.34 65.49 8.2 65.38 8.06 65.28C7.4 64.79 6.67 64.35 5.87 64.15C5.08 63.95 4.15 63.98 3.48 64.48C2.72 65.03 2.67 65.94 2.78 66.81C3.01 68.55 4.03 70.04 5.08 71.39C5.27 71.63 5.47 71.87 5.66 72.1C4.68 71.89 3.71 71.6 2.69 71.63C1.52 71.68 -0.11 72.2 0 73.64C0.19 76.06 2.27 77.86 4.3 78.88C5.46 79.47 6.71 79.84 7.99 80.02C8.1 82.11 8.42 84.3 9.68 86.02C10.9 87.67 12.82 88.65 14.85 88.79C15.7 88.85 16.55 88.74 17.36 88.48C17.42 89.16 17.76 89.8 18.25 90.31C18.86 90.96 19.67 91.53 20.46 91.93C21.31 92.36 22.2 92.5 23.14 92.33C24.03 92.17 24.85 91.71 25.55 91.13C25.9 90.84 26.23 90.5 26.52 90.14C34.57 94.75 44.04 96.07 53.21 93.45C55.97 92.66 54.79 88.35 52.02 89.14Z" fill="#231F20" fill-opacity="1.000000" fill-rule="nonzero"/>
			</g>
		</g>
		<g mask="url(#mask1_26357)">
			<g style="mix-blend-mode:normal">
				<path id="Path 36052" d="M25.54 89.57C24.63 90.61 23.24 91.56 21.79 91.24C20.96 91.06 20.2 90.52 19.55 89.99C18.97 89.52 18.3 88.83 18.49 88.02C18.54 87.82 18.48 87.65 18.38 87.53C18.37 87.49 18.35 87.45 18.33 87.41C18.17 87.13 17.84 87.08 17.57 87.21C16.05 87.91 14.18 87.82 12.69 87.1C11.92 86.73 11.23 86.21 10.7 85.53C10.09 84.76 9.72 83.82 9.49 82.87C9.2 81.71 9.12 80.52 9.08 79.34C9.06 78.81 8.46 78.67 8.15 78.92C6.17 78.66 4.17 77.82 2.71 76.46C2.03 75.83 1.45 75.06 1.21 74.16C1.16 73.96 1.12 73.76 1.11 73.55C1.1 73.33 1.15 73.25 1.34 73.13C1.74 72.87 2.22 72.77 2.69 72.75C3.99 72.71 5.25 73.21 6.54 73.38C6.62 73.39 6.69 73.37 6.76 73.34C7.54 74.17 8.35 74.98 9.16 75.78C9.67 76.28 10.46 75.49 9.95 74.99C8.81 73.86 7.66 72.73 6.62 71.51C5.65 70.38 4.64 69.12 4.14 67.69C4.02 67.37 3.93 67.02 3.88 66.68C3.84 66.37 3.8 65.97 3.9 65.67C4.09 65.13 4.93 65.1 5.39 65.19C6.11 65.33 6.75 65.71 7.35 66.13C7.91 66.53 8.43 66.98 8.93 67.46C10.08 68.59 11.03 69.9 11.75 71.34C12.07 71.99 13.03 71.42 12.71 70.78C12.13 69.61 11.39 68.51 10.52 67.52C10.51 67.46 10.49 67.38 10.46 67.31C9.85 66.18 9.3 64.95 9.19 63.66C9.14 63.06 9.16 62.43 9.35 61.86C9.41 61.69 9.5 61.52 9.62 61.39C9.81 61.21 10.02 61.23 10.26 61.29C11.38 61.55 12.31 62.26 13.11 63.05C13.9 63.82 14.6 64.69 15.31 65.53C16.1 66.46 16.88 67.39 17.57 68.4C17.76 68.96 18.05 69.54 18.37 70.05C17.17 70.76 16.25 71.88 15.72 73.18C15.09 74.71 15.17 76.45 15.82 77.96C16.18 78.82 16.74 79.6 17.44 80.21C17.67 80.41 18.01 80.43 18.23 80.21C18.44 80.01 18.46 79.62 18.23 79.42C17.19 78.51 16.51 77.2 16.41 75.82C16.32 74.48 16.76 73.14 17.64 72.12C18.14 71.53 18.76 71.06 19.46 70.73C19.72 70.61 19.84 70.19 19.66 69.97C18.72 68.71 18.25 67.18 18.3 65.61C18.33 64.82 18.49 64.03 18.79 63.3C18.93 62.96 19.1 62.61 19.31 62.31C19.52 62.01 19.82 62 20.16 62.11C20.9 62.36 21.47 63.08 21.92 63.68C22.45 64.4 22.9 65.17 23.28 65.98C24.04 67.62 24.48 69.4 24.72 71.19C25.03 73.49 25.02 75.81 25.02 78.13C25.02 78.62 25.55 78.78 25.87 78.59C27.19 78.68 28.29 79.8 28.65 81.01C29.1 82.53 28.7 84.15 28.04 85.54C28 85.64 27.95 85.73 27.91 85.82C27.64 85.65 27.38 85.49 27.11 85.31C26.73 85.06 26.35 84.8 25.97 84.53C25.82 84.42 25.67 84.31 25.53 84.2C25.41 84.12 25.36 84.08 25.34 84.07C25.35 84.07 25.33 84.06 25.23 83.98C25 83.8 24.8 83.69 24.62 83.64C24.71 83.57 24.8 83.5 24.9 83.43C25.51 83.04 26.2 82.81 26.88 82.58C27.16 82.48 27.35 82.19 27.27 81.89C27.19 81.61 26.87 81.4 26.58 81.5C25.8 81.77 25 82.04 24.3 82.49C23.57 82.96 23.01 83.61 22.54 84.34C21.62 85.76 20.79 87.49 21.23 89.23C21.4 89.92 22.48 89.63 22.3 88.93C22.17 88.4 22.2 87.86 22.33 87.34C23.37 88.14 24.44 88.9 25.54 89.57Z" fill="#FFE14E" fill-opacity="1.000000" fill-rule="nonzero"/>
			</g>
		</g>
		<g mask="url(#mask1_26357)">
			<g style="mix-blend-mode:normal">
				<path id="Path 36053" d="M113.17 68.98C112.57 65.55 111.22 62.45 109.37 60.26C107.45 57.98 105.22 56.94 103.07 57.31C100.93 57.68 99.17 59.43 98.14 62.22C97.15 64.91 96.93 68.28 97.53 71.71C98.08 74.85 99.25 77.71 100.86 79.85C99.53 80.28 98.02 80.65 96.97 79.65C96.46 79.15 95.66 79.94 96.18 80.44C97.38 81.59 99.13 81.51 100.62 81.08C101.96 80.7 103.71 79.74 104.95 80.82C106.01 81.75 106.35 83.25 106.26 84.6C106.17 86.03 105.54 87.41 104.51 88.4C103.33 89.52 101.71 90.1 100.1 90.01C99.38 89.97 99.38 91.09 100.1 91.13C103.45 91.31 106.56 88.95 107.24 85.66C107.39 84.94 107.43 84.17 107.35 83.42C107.44 83.41 107.53 83.4 107.62 83.39C109.77 83.01 111.52 81.27 112.55 78.47C113.55 75.79 113.77 72.41 113.17 68.98Z" fill="#231F20" fill-opacity="1.000000" fill-rule="nonzero"/>
			</g>
		</g>
		<g mask="url(#mask1_26357)">
			<g style="mix-blend-mode:normal">
				<path id="Path 36054" d="M107.43 82.29C107.33 82.3 107.23 82.31 107.13 82.32C106.99 81.83 106.78 81.37 106.5 80.94C106.07 80.27 105.48 79.71 104.74 79.41C103.89 79.07 102.98 79.21 102.13 79.45C102.08 79.46 102.04 79.47 101.99 79.49C100.37 77.46 99.17 74.64 98.63 71.52C97.48 64.94 99.56 59.06 103.26 58.41C105 58.11 106.87 59.02 108.52 60.98C110.24 63.03 111.5 65.94 112.07 69.18C113.22 75.76 111.14 81.64 107.43 82.29Z" fill="#FFFFFF" fill-opacity="1.000000" fill-rule="nonzero"/>
			</g>
		</g>
		<g mask="url(#mask1_26357)">
			<g style="mix-blend-mode:normal">
				<path id="Path 36055" d="M104.63 61.18C102.1 61.62 100.73 65.86 101.57 70.66C102.41 75.45 105.13 78.98 107.66 78.54C110.19 78.1 111.56 73.85 110.72 69.06C109.88 64.27 107.16 60.74 104.63 61.18Z" fill="#231F20" fill-opacity="1.000000" fill-rule="nonzero"/>
			</g>
		</g>
		<g mask="url(#mask1_26357)">
			<g style="mix-blend-mode:normal">
				<path id="Path 36056" d="M102.69 66.52C102.36 64.6 103.23 62.84 104.65 62.59C106.07 62.34 107.49 63.7 107.83 65.63C108.16 67.55 107.29 69.31 105.87 69.56C104.45 69.81 103.03 68.45 102.69 66.52Z" fill="#FFFFFF" fill-opacity="1.000000" fill-rule="nonzero"/>
			</g>
		</g>
		<g mask="url(#mask1_26357)">
			<g style="mix-blend-mode:normal">
				<path id="Path 36057" d="M108.73 76.35C107.83 76.5 106.96 75.78 106.77 74.74C106.59 73.69 107.17 72.72 108.07 72.56C108.97 72.4 109.85 73.12 110.03 74.17C110.21 75.21 109.63 76.19 108.73 76.35Z" fill="#FFFFFF" fill-opacity="1.000000" fill-rule="nonzero"/>
			</g>
		</g>
		<g mask="url(#mask1_26357)">
			<g style="mix-blend-mode:normal">
				<path id="Path 36058" d="M87.13 66.92C85.21 64.65 82.98 63.6 80.83 63.97C78.69 64.35 76.94 66.09 75.9 68.89C74.91 71.57 74.69 74.95 75.29 78.38C75.89 81.81 77.24 84.91 79.08 87.1C80.75 89.07 82.65 90.12 84.53 90.12C84.81 90.12 85.1 90.1 85.39 90.05C87.53 89.67 89.28 87.93 90.31 85.14C91.31 82.45 91.53 79.08 90.93 75.65C90.33 72.21 88.98 69.12 87.13 66.92Z" fill="#231F20" fill-opacity="1.000000" fill-rule="nonzero"/>
			</g>
		</g>
		<g mask="url(#mask1_26357)">
			<g style="mix-blend-mode:normal">
				<path id="Path 36059" d="M85.19 88.95C83.46 89.25 81.59 88.34 79.94 86.38C78.22 84.33 76.96 81.42 76.39 78.18C75.24 71.6 77.32 65.72 81.02 65.07C81.24 65.04 81.46 65.02 81.68 65.02C83.23 65.02 84.83 65.93 86.28 67.64C88 69.69 89.26 72.6 89.83 75.84C90.98 82.42 88.9 88.3 85.19 88.95Z" fill="#FFFFFF" fill-opacity="1.000000" fill-rule="nonzero"/>
			</g>
		</g>
		<g mask="url(#mask1_26357)">
			<g style="mix-blend-mode:normal">
				<path id="Path 36060" d="M82.39 67.84C79.86 68.28 78.49 72.53 79.33 77.32C80.17 82.11 82.89 85.64 85.42 85.2C87.95 84.76 89.32 80.52 88.48 75.72C87.64 70.93 84.92 67.4 82.39 67.84Z" fill="#231F20" fill-opacity="1.000000" fill-rule="nonzero"/>
			</g>
		</g>
		<g mask="url(#mask1_26357)">
			<g style="mix-blend-mode:normal">
				<path id="Path 36061" d="M80.45 73.19C80.12 71.26 81 69.5 82.41 69.25C83.83 69.01 85.25 70.37 85.59 72.29C85.92 74.21 85.05 75.97 83.63 76.22C82.21 76.47 80.79 75.11 80.45 73.19Z" fill="#FFFFFF" fill-opacity="1.000000" fill-rule="nonzero"/>
			</g>
		</g>
		<g mask="url(#mask1_26357)">
			<g style="mix-blend-mode:normal">
				<path id="Path 36062" d="M86.49 83.01C85.59 83.17 84.72 82.45 84.53 81.4C84.35 80.35 84.93 79.38 85.83 79.22C86.73 79.06 87.61 79.79 87.79 80.83C87.97 81.88 87.39 82.85 86.49 83.01Z" fill="#FFFFFF" fill-opacity="1.000000" fill-rule="nonzero"/>
			</g>
		</g>
		<g mask="url(#mask1_26357)">
			<g style="mix-blend-mode:normal">
				<path id="Path 36063" d="M80.78 98.62C82.36 101.01 85.21 102.25 87.8 103.22C90.83 104.34 94.02 104.5 97.21 104.1C100.32 103.71 103.55 103.15 106.41 101.82C108.96 100.64 111.06 98.67 112.69 96.4C114.67 93.66 115.9 90.43 116.82 87.2C117.12 86.12 115.45 85.66 115.15 86.73C113.72 91.76 111.37 97 106.66 99.74C104.18 101.18 101.25 101.73 98.45 102.18C95.57 102.66 92.57 102.82 89.73 102.03C88.23 101.61 86.78 100.99 85.4 100.27C84.2 99.65 83.03 98.89 82.27 97.75C81.66 96.82 80.16 97.69 80.78 98.62Z" fill="#231F20" fill-opacity="1.000000" fill-rule="nonzero"/>
			</g>
		</g>
		<g mask="url(#mask1_26357)">
			<g style="mix-blend-mode:normal">
				<path id="Path 36064" d="M80.14 99.93C80.13 99.89 80.13 99.85 80.12 99.81C80.08 99.69 80.14 100.06 80.14 99.93C80.15 99.88 80.12 99.86 80.12 99.81C80.12 99.79 80.13 99.72 80.13 99.7C80.13 99.59 80.12 99.8 80.12 99.81C80.14 99.74 80.14 99.66 80.17 99.59C80.18 99.55 80.2 99.51 80.21 99.48C80.21 99.47 80.12 99.66 80.17 99.59C80.21 99.51 80.28 99.36 80.33 99.28C80.35 99.25 80.39 99.21 80.41 99.18C80.41 99.17 80.27 99.35 80.33 99.28C80.46 99.13 80.67 98.91 80.82 98.79C80.9 98.73 81.08 98.61 81.17 98.56C81.26 98.5 81.35 98.46 81.44 98.41C81.49 98.39 81.53 98.37 81.57 98.35C81.65 98.31 81.43 98.41 81.44 98.41C81.47 98.4 81.54 98.36 81.57 98.35C81.76 98.28 81.94 98.22 82.14 98.18C82.18 98.17 82.23 98.17 82.27 98.16C82.42 98.13 81.99 98.19 82.14 98.18C82.23 98.18 82.4 98.15 82.5 98.15C82.55 98.16 82.61 98.16 82.66 98.16C82.75 98.19 82.79 98.2 82.88 98.23C82.92 98.27 83.01 98.32 83.05 98.36C83.36 98.69 83.96 98.7 84.28 98.36C84.6 98.01 84.61 97.49 84.28 97.14C83.51 96.33 82.28 96.29 81.28 96.62C80.27 96.95 79.26 97.62 78.73 98.57C78.43 99.13 78.31 99.77 78.47 100.39C78.59 100.83 79.1 101.14 79.54 100.99C79.99 100.85 80.27 100.4 80.14 99.93Z" fill="#231F20" fill-opacity="1.000000" fill-rule="nonzero"/>
			</g>
		</g>
		<g mask="url(#mask1_26357)">
			<g style="mix-blend-mode:normal">
				<path id="Path 36065" d="M76.42 94.62C77.19 92.8 79.11 91.8 81.04 91.87C83.21 91.94 85.18 93.35 86.44 95.04C86.72 95.42 87.19 95.61 87.63 95.35C88 95.14 88.22 94.55 87.94 94.17C86.3 91.97 83.87 90.23 81.04 90.13C78.57 90.05 75.92 91.41 74.92 93.74C74.73 94.17 74.79 94.67 75.23 94.93C75.6 95.14 76.23 95.05 76.42 94.62Z" fill="#231F20" fill-opacity="1.000000" fill-rule="nonzero"/>
			</g>
		</g>
		<g mask="url(#mask1_26357)">
			<g style="mix-blend-mode:normal">
				<path id="Path 36066" d="M114.77 87.65C114.85 87.62 114.97 87.58 115.05 87.56C115.2 87.51 115.35 87.48 115.5 87.46C115.43 87.47 115.35 87.48 115.27 87.49C115.57 87.46 115.86 87.46 116.15 87.5C116.08 87.49 116 87.48 115.92 87.47C116.14 87.5 116.36 87.55 116.57 87.62C116.61 87.65 116.66 87.66 116.7 87.68C116.8 87.73 116.9 87.79 117 87.85C117.38 88.09 117.97 87.94 118.18 87.54C118.41 87.11 118.28 86.61 117.87 86.35C117.28 85.98 116.6 85.79 115.91 85.74C115.21 85.69 114.53 85.86 113.89 86.15C113.71 86.24 113.55 86.48 113.5 86.67C113.44 86.88 113.46 87.15 113.58 87.34C113.86 87.76 114.33 87.85 114.77 87.65Z" fill="#231F20" fill-opacity="1.000000" fill-rule="nonzero"/>
			</g>
		</g>
		<g mask="url(#mask1_26357)">
			<g style="mix-blend-mode:normal">
				<path id="Path 36067" d="M112.25 84.45C112.66 83.87 113.1 83.25 113.68 82.82C114.31 82.35 115.06 82.25 115.82 82.3C117.21 82.39 118.62 83.13 119.48 84.24C119.76 84.61 120.22 84.81 120.66 84.55C121.03 84.34 121.26 83.74 120.97 83.37C119.72 81.74 117.89 80.7 115.82 80.56C114.76 80.5 113.66 80.71 112.79 81.34C111.95 81.94 111.35 82.75 110.75 83.57C110.48 83.95 110.68 84.54 111.06 84.76C111.5 85.01 111.97 84.83 112.25 84.45Z" fill="#231F20" fill-opacity="1.000000" fill-rule="nonzero"/>
			</g>
		</g>
		<g mask="url(#mask1_26357)">
			<g style="mix-blend-mode:normal">
				<path id="Path 36068" d="M92.66 116.32C82.52 118.76 72.6 119.55 64.73 118.56C57.41 117.63 52.77 115.26 52 112.06C51.79 111.19 51.89 110.24 52.3 109.24C53.82 112.31 61.95 114.83 73.15 114.83C79.08 114.83 85.89 114.12 93.02 112.41C113.9 107.4 127.08 98.16 128.22 93.19C129.28 93.49 129.93 94.2 130.2 95.34C131.7 101.58 114.86 111 92.66 116.32Z" fill="#83D5D5" fill-opacity="1.000000" fill-rule="nonzero"/>
			</g>
		</g>
		<g mask="url(#mask1_26357)">
			<g opacity="0.179993">
				<mask id="mask1_26417" mask-type="alpha" maskUnits="userSpaceOnUse" x="34.511230" y="44.391602" width="29.178223" height="14.782715">
					<g style="mix-blend-mode:normal">
						<rect id="Rectangle 3842" x="34.511230" y="44.391602" width="29.178192" height="14.782798" fill="#C4C4C4" fill-opacity="1.000000"/>
					</g>
				</mask>
				<g mask="url(#mask1_26417)">
					<g style="mix-blend-mode:normal">
						<path id="Path 36069" d="M63.68 45.26C63.68 45.26 39.12 45.88 37.47 49.6C35.4 54.26 42.54 58.76 43.69 59.17C43.69 59.17 36.12 57.81 35.01 54.17C33.9 50.52 34.63 45.2 37.16 44.46C37.16 44.46 62.96 44.3 62.84 44.46C62.73 44.61 63.68 45.26 63.68 45.26Z" fill="#231F20" fill-opacity="1.000000" fill-rule="nonzero"/>
					</g>
				</g>
			</g>
		</g>
		<g mask="url(#mask1_26357)">
			<g opacity="0.179993">
				<mask id="mask1_26421" mask-type="alpha" maskUnits="userSpaceOnUse" x="91.821777" y="24.828613" width="9.199219" height="14.383789">
					<g style="mix-blend-mode:normal">
						<rect id="Rectangle 3843" x="91.821777" y="24.828613" width="9.199246" height="14.383753" fill="#C4C4C4" fill-opacity="1.000000"/>
					</g>
				</mask>
				<g mask="url(#mask1_26421)">
					<g style="mix-blend-mode:normal">
						<path id="Path 36070" d="M91.82 39.21C91.82 39.21 94.41 38.08 94.56 33.87C94.71 29.66 101.02 25.55 101.02 25.55L96.65 24.82L92.43 33.41C92.43 33.41 92.71 37.51 91.82 39.21Z" fill="#231F20" fill-opacity="1.000000" fill-rule="nonzero"/>
					</g>
				</g>
			</g>
		</g>
		<g mask="url(#mask1_26357)">
			<g style="mix-blend-mode:normal">
				<path id="Path 36072" d="M57.41 146.2C58.52 147.47 59.01 149.29 58.67 150.94C58.29 152.77 57.08 154.28 55.89 155.66C55.69 155.88 55.66 156.22 55.89 156.45C56.09 156.65 56.48 156.67 56.68 156.45C57.76 155.2 58.8 153.89 59.41 152.34C59.99 150.88 60.04 149.23 59.54 147.74C59.25 146.88 58.8 146.1 58.2 145.41C58.01 145.18 57.62 145.21 57.41 145.41C57.19 145.64 57.21 145.97 57.41 146.2Z" fill="#231F20" fill-opacity="1.000000" fill-rule="nonzero"/>
			</g>
		</g>
		<g mask="url(#mask1_26357)">
			<g style="mix-blend-mode:normal">
				<path id="Path 36073" d="M137.2 138.56C139.03 138.24 140.96 138.64 142.52 139.64C143.94 140.55 145.02 141.95 145.56 143.55C145.78 144.22 146.86 143.93 146.63 143.25C145.62 140.23 142.99 137.92 139.82 137.45C138.84 137.3 137.88 137.31 136.9 137.48C136.61 137.53 136.44 137.9 136.51 138.17C136.6 138.48 136.9 138.61 137.2 138.56Z" fill="#231F20" fill-opacity="1.000000" fill-rule="nonzero"/>
			</g>
		</g>
	</g>
</svg>
