<svg width="110.282471" height="126.195312" viewBox="0 0 110.282 126.195" fill="none" xmlns="http://www.w3.org/2000/svg" xmlns:xlink="http://www.w3.org/1999/xlink">
	<desc>
			Created with Pixso.
	</desc>
	<defs/>
	<mask id="mask1_37939" mask-type="alpha" maskUnits="userSpaceOnUse" x="56.872437" y="0.000000" width="53.410034" height="126.195312">
		<g style="mix-blend-mode:normal">
			<rect id="Rectangle 3783" x="56.872437" width="53.410023" height="126.195374" fill="#C4C4C4" fill-opacity="1.000000"/>
		</g>
	</mask>
	<g mask="url(#mask1_37939)">
		<g style="mix-blend-mode:normal">
			<path id="Path 34731" d="M101.96 58.89C97.54 55.18 91.78 53.88 85.53 55.1C85.06 54.79 84.81 54.62 84.35 54.3C84 52.35 83.66 50.42 83.32 48.51C96.79 38.42 103.45 30.99 101.22 16.3C99.68 6.1 91.43 0.4 84.35 0.78C81.13 0.95 78.22 2.35 76.14 4.74C73.93 7.27 72.71 10.72 72.52 14.99C72.24 21.25 74 32.7 76.24 45.67C75.38 46.29 74.49 46.93 73.57 47.6C64.54 54.1 59.68 62.7 59.88 71.83C59.97 76.15 61.24 80.48 63.55 84.34C65.81 88.14 69.1 91.51 73.04 94.09C76.28 96.22 80.13 97.53 84.23 97.91C84.5 102.01 84.48 105.43 84.06 107.85C82.98 114.08 79.74 118.08 75.19 118.82C73.59 119.08 71.94 118.45 70.93 117.19C68.21 113.78 68.69 107.57 64.18 106.62C54.79 104.62 53.76 123.39 72.69 125.4C73.03 125.42 73.37 125.43 73.71 125.43C74.54 125.43 75.38 125.36 76.22 125.23C79.65 124.67 82.75 123 85.18 120.4C87.86 117.54 89.63 113.69 90.45 108.96C90.95 106.11 90.99 102.27 90.71 97.74C93.15 97.38 95.51 96.68 97.69 95.66C104.25 92.61 108.48 86.94 109.29 80.12C110.32 71.55 107.58 63.61 101.96 58.89ZM79 15.28C79.22 10.36 81.29 7.44 84.69 7.26C84.81 7.25 84.92 7.25 85.03 7.25C89.07 7.25 93.85 10.98 94.8 17.27C96.35 27.49 92.95 32.8 82.07 41.29C80.17 30.08 78.77 20.44 79 15.28ZM81.4 75.45C79.6 74.85 78.4 73.76 77.94 72.2C77.35 70.14 78.02 67.54 79.71 65.41C80.29 68.78 80.86 72.15 81.4 75.45ZM76.59 88.67C70.24 84.5 66.51 78.32 66.37 71.69C66.22 64.76 70.12 58.08 77.36 52.87C77.4 52.84 77.44 52.81 77.49 52.77C77.64 53.66 77.8 54.55 77.96 55.43C78.1 56.26 78.25 57.08 78.4 57.91C76.39 59.26 74.7 61.03 73.44 63.13C71.34 66.61 70.72 70.57 71.71 74.01C72.86 77.96 76.24 81.48 82.45 82.28C82.91 85.43 83.31 88.46 83.63 91.3C81.09 90.91 78.66 90.02 76.59 88.67ZM102.86 79.35C102.12 85.57 97.59 88.55 94.95 89.78C93.43 90.49 91.81 90.98 90.15 91.26C89.84 88.4 89.45 85.36 88.99 82.2C90.66 81.97 92.47 81.6 94.41 81.06C96.13 80.58 97.14 78.79 96.66 77.07C96.18 75.34 94.39 74.33 92.66 74.81C91.01 75.27 89.46 75.59 88.02 75.78C87.3 71.22 86.49 66.49 85.66 61.72C90.46 60.48 94.64 61.21 97.79 63.86C101.67 67.12 103.61 73.05 102.86 79.35Z" fill="#57D3BE" fill-opacity="1.000000" fill-rule="nonzero"/>
		</g>
	</g>
	<g mask="url(#mask1_37939)">
		<g style="mix-blend-mode:normal">
			<path id="Path 34732" d="M102.45 58.31C97.98 54.55 92.04 53.13 85.69 54.3L85.04 53.85C84.74 52.17 84.45 50.49 84.16 48.84C98 38.41 104.19 30.79 101.98 16.18C100.37 5.56 91.73 -0.38 84.31 0.01C80.89 0.2 77.78 1.69 75.56 4.24C73.24 6.9 71.95 10.51 71.76 14.96C71.49 21.01 73.02 31.48 75.41 45.33C74.67 45.86 73.91 46.41 73.12 46.98C63.88 53.63 58.91 62.46 59.12 71.85C59.21 76.3 60.52 80.76 62.89 84.73C65.22 88.63 68.58 92.09 72.62 94.73C75.78 96.8 79.53 98.13 83.51 98.6C83.75 102.55 83.68 105.62 83.31 107.72C82.29 113.61 79.28 117.38 75.09 118.06C73.75 118.28 72.37 117.76 71.53 116.71C70.58 115.52 70.03 113.87 69.49 112.28C68.54 109.46 67.56 106.55 64.35 105.87C61.98 105.37 59.9 106.01 58.5 107.69C56.67 109.87 56.35 113.41 57.68 116.7C58.68 119.18 62.13 125.04 72.6 126.15C72.96 126.18 73.36 126.19 73.72 126.19C74.6 126.19 75.49 126.12 76.35 125.98C79.95 125.4 83.2 123.65 85.75 120.92C88.53 117.95 90.37 113.97 91.21 109.09C91.68 106.44 91.77 102.94 91.52 98.38C93.8 97.99 95.98 97.3 98.02 96.36C104.83 93.18 109.22 87.3 110.06 80.21C111.12 71.38 108.27 63.19 102.45 58.31ZM108.54 80.02C107.76 86.58 103.69 92.02 97.37 94.97C95.26 95.95 92.98 96.63 90.6 96.98C90.21 97.04 89.93 97.39 89.95 97.79C90.24 102.49 90.16 106.2 89.71 108.83C88.91 113.41 87.2 117.12 84.63 119.87C82.32 122.35 79.37 123.94 76.11 124.47C75.01 124.65 73.9 124.7 72.76 124.63C63.11 123.61 59.99 118.35 59.1 116.13C57.97 113.35 58.2 110.42 59.67 108.67C60.71 107.43 62.22 106.97 64.03 107.36C66.39 107.86 67.16 110.13 68.04 112.77C68.62 114.49 69.22 116.26 70.34 117.66C71.52 119.14 73.41 119.87 75.29 119.58C80.19 118.78 83.67 114.56 84.81 107.98C85.23 105.61 85.28 102.3 84.99 97.86C84.97 97.49 84.68 97.19 84.3 97.15C80.33 96.78 76.58 95.5 73.45 93.46C69.61 90.94 66.41 87.65 64.2 83.95C61.96 80.2 60.73 76 60.64 71.82C60.45 62.94 65.2 54.56 74.01 48.22C74.94 47.56 75.83 46.91 76.69 46.28C76.92 46.11 77.04 45.82 76.99 45.54C74.9 33.44 73 21.37 73.28 15.03C73.46 10.93 74.62 7.64 76.71 5.24C78.66 3.01 81.38 1.7 84.39 1.54C91.13 1.18 98.99 6.64 100.47 16.41C102.53 30.03 96.79 37.32 83.89 47.12L82.94 41.59C88.72 37.04 91.87 33.75 93.77 30.3C95.82 26.57 96.38 22.51 95.56 17.15C94.52 10.28 89.12 6.26 84.66 6.49C80.82 6.7 78.48 9.89 78.24 15.25C77.99 20.84 79.66 31.62 81.32 41.42C81.34 41.5 81.36 41.57 81.4 41.63L82.57 48.41C82.56 48.49 82.56 48.56 82.58 48.64C82.91 50.55 83.26 52.49 83.6 54.43C83.64 54.64 83.75 54.82 83.92 54.93L85.1 55.73C85.27 55.85 85.48 55.89 85.68 55.85C91.77 54.66 97.23 55.91 101.48 59.48C106.9 64.03 109.54 71.71 108.54 80.02ZM82.61 39.9C81.04 30.53 79.53 20.53 79.77 15.31C79.96 10.83 81.77 8.17 84.73 8.02C88.53 7.82 93.14 11.36 94.05 17.38C95.45 26.63 92.98 31.62 82.61 39.9ZM98.28 63.28C94.94 60.47 90.51 59.68 85.47 60.99C85.08 61.09 84.84 61.47 84.9 61.86C85.91 67.62 86.64 71.96 87.27 75.9C87.28 75.97 87.3 76.03 87.33 76.09L88.24 82.11C88.23 82.18 88.23 82.24 88.24 82.31C88.72 85.66 89.1 88.61 89.39 91.35C89.41 91.55 89.52 91.74 89.69 91.87C89.82 91.97 89.98 92.03 90.15 92.03C90.19 92.03 90.23 92.02 90.27 92.01C92.04 91.72 93.72 91.2 95.28 90.47C98.05 89.18 102.83 86.02 103.62 79.44C104.4 72.89 102.35 66.7 98.28 63.28ZM89.66 81.33L88.92 76.42C90.17 76.22 91.5 75.93 92.87 75.55C93.51 75.37 94.18 75.45 94.75 75.78C95.33 76.1 95.75 76.63 95.92 77.27C96.1 77.91 96.02 78.58 95.69 79.16C95.37 79.73 94.84 80.15 94.2 80.33C92.63 80.76 91.11 81.1 89.66 81.33ZM102.1 79.25C101.4 85.11 97.12 87.93 94.63 89.09C93.43 89.64 92.15 90.07 90.82 90.36C90.56 88.05 90.24 85.58 89.86 82.84C91.37 82.61 92.97 82.26 94.61 81.8C95.64 81.51 96.5 80.84 97.02 79.91C97.55 78.98 97.68 77.89 97.39 76.86C97.11 75.83 96.44 74.97 95.5 74.45C94.57 73.92 93.49 73.79 92.46 74.08C91.13 74.45 89.86 74.73 88.66 74.92C88.08 71.33 87.42 67.37 86.53 62.3C90.79 61.36 94.5 62.1 97.3 64.45C100.98 67.54 102.82 73.21 102.1 79.25ZM82.55 81.52C77.36 80.85 73.67 78.03 72.45 73.79C71.51 70.56 72.11 66.81 74.09 63.52C75.09 61.85 76.37 60.41 77.89 59.22L78.93 65.18C77.23 67.45 76.57 70.19 77.21 72.41C77.73 74.18 79.09 75.48 81.15 76.17C81.23 76.19 81.31 76.2 81.4 76.2C81.57 76.2 81.75 76.14 81.89 76.02C82.09 75.85 82.19 75.58 82.15 75.32C81.68 72.37 81.13 69.09 80.47 65.3C80.48 65.23 80.48 65.15 80.46 65.08L79.15 57.57C79.13 57.5 79.11 57.43 79.07 57.37L78.24 52.64C78.19 52.38 78.02 52.16 77.78 52.06C77.53 51.97 77.25 52 77.04 52.15L76.91 52.25C69.46 57.6 65.45 64.52 65.6 71.7C65.75 78.59 69.61 85 76.18 89.3C78.28 90.68 80.82 91.63 83.51 92.05C83.55 92.06 83.59 92.06 83.63 92.06C83.82 92.06 84.01 91.99 84.16 91.85C84.33 91.69 84.41 91.45 84.39 91.21C84.08 88.49 83.69 85.53 83.2 82.17C83.15 81.83 82.89 81.57 82.55 81.52ZM78.68 71.99C78.28 70.64 78.52 69.01 79.29 67.47C79.71 69.91 80.08 72.12 80.41 74.17C79.52 73.64 78.94 72.91 78.68 71.99ZM77.01 88.02C70.87 84 67.27 78.04 67.13 71.67C66.99 65.28 70.47 59.08 76.95 54.12L77.56 57.56C75.62 58.94 74.01 60.68 72.78 62.73C70.58 66.39 69.92 70.58 70.98 74.22C72.33 78.9 76.25 82.06 81.77 82.96C82.16 85.66 82.48 88.1 82.75 90.36C80.64 89.92 78.68 89.11 77.01 88.02Z" fill="#000000" fill-opacity="1.000000" fill-rule="nonzero"/>
		</g>
	</g>
	<mask id="mask1_37944" mask-type="alpha" maskUnits="userSpaceOnUse" x="0.000000" y="33.336426" width="63.810181" height="87.320312">
		<g style="mix-blend-mode:normal">
			<rect id="Rectangle 3783" y="47.181641" width="34.039909" height="80.428337" transform="rotate(-24 0.000000 47.181641)" fill="#C4C4C4" fill-opacity="1.000000"/>
		</g>
	</mask>
	<g mask="url(#mask1_37944)">
		<g style="mix-blend-mode:normal">
			<path id="Path 34731" d="M41.52 69.78C37.99 68.76 34.29 69.5 30.97 71.83C30.62 71.77 30.42 71.74 30.07 71.67C29.37 70.63 28.66 69.59 27.98 68.56C33.2 59.2 35.15 53.15 30.05 45.17C26.5 39.63 20.22 38.45 16.2 40.51C14.37 41.44 13.04 43.02 12.44 44.94C11.81 46.99 12 49.32 13 51.85C14.46 55.56 18.45 61.78 23.11 68.75C22.78 69.33 22.42 69.94 22.06 70.57C18.49 76.69 17.89 82.96 20.37 88.22C21.55 90.71 23.4 92.9 25.75 94.55C28.05 96.18 30.84 97.29 33.8 97.77C36.24 98.17 38.82 97.93 41.31 97.09C42.53 99.41 43.41 101.41 43.79 102.92C44.77 106.83 43.93 110 41.46 111.61C40.6 112.17 39.48 112.24 38.56 111.77C36.09 110.49 34.77 106.75 31.89 107.36C25.9 108.63 30.17 119.83 41.71 116.09C41.91 116.01 42.12 115.93 42.32 115.84C42.8 115.63 43.27 115.37 43.73 115.07C45.58 113.86 46.95 112.08 47.69 109.94C48.51 107.58 48.54 104.88 47.8 101.92C47.34 100.12 46.37 97.88 45.04 95.32C46.36 94.47 47.55 93.46 48.56 92.3C51.59 88.82 52.58 84.42 51.29 80.24C49.66 74.98 46.01 71.07 41.52 69.78ZM16.85 50.34C15.7 47.42 16.15 45.18 18.08 44.19C18.14 44.16 18.21 44.13 18.27 44.1C20.62 43.05 24.38 43.99 26.56 47.4C30.11 52.95 29.51 56.92 25.38 64.69C21.36 58.65 18.05 53.4 16.85 50.34ZM33.83 84.75C32.63 84.87 31.65 84.54 30.99 83.75C30.1 82.71 29.82 81.02 30.25 79.34C31.47 81.15 32.67 82.97 33.83 84.75ZM34.47 93.69C29.69 92.91 25.91 90.28 24.11 86.46C22.23 82.46 22.77 77.56 25.63 72.65C25.95 73.12 26.32 73.51 26.65 73.99C26.94 74.43 27.24 74.87 27.54 75.31C26.73 76.62 26.2 78.09 26.01 79.64C25.69 82.21 26.35 84.68 27.82 86.42C29.51 88.42 32.39 89.6 36.22 88.46C37.3 90.17 38.32 91.83 39.24 93.4C37.66 93.83 36.02 93.94 34.47 93.69ZM47.34 81.46C48.52 85.27 46.66 88.18 45.44 89.58C44.74 90.39 43.93 91.09 43.03 91.69C42.11 90.1 41.09 88.43 40.01 86.71C40.92 86.15 41.88 85.46 42.87 84.64C43.75 83.92 43.87 82.61 43.14 81.73C42.41 80.85 41.11 80.73 40.23 81.46C39.39 82.16 38.57 82.75 37.78 83.23C36.18 80.76 34.48 78.21 32.76 75.65C35.23 73.69 37.85 73.03 40.38 73.75C43.48 74.64 46.15 77.6 47.34 81.46Z" fill="#FCD100" fill-opacity="1.000000" fill-rule="nonzero"/>
		</g>
	</g>
	<g mask="url(#mask1_37944)">
		<g style="mix-blend-mode:normal">
			<path id="Path 34732" d="M41.65 69.31C38.07 68.28 34.25 69 30.85 71.32L30.36 71.23C29.75 70.33 29.14 69.43 28.54 68.54C33.9 58.88 35.53 52.84 30.45 44.91C26.76 39.14 20.2 37.92 15.98 40.07C14.03 41.07 12.61 42.75 11.98 44.8C11.32 46.96 11.51 49.39 12.54 52.03C13.96 55.62 17.56 61.32 22.54 68.76C22.25 69.27 21.95 69.79 21.64 70.32C17.98 76.58 17.38 83.01 19.93 88.43C21.14 91 23.06 93.25 25.47 94.95C27.83 96.62 30.69 97.76 33.72 98.25C36.1 98.64 38.63 98.44 41.07 97.68C42.23 99.92 42.99 101.72 43.32 103.04C44.25 106.74 43.48 109.71 41.21 111.2C40.49 111.67 39.55 111.73 38.79 111.33C37.92 110.88 37.18 110.07 36.45 109.28C35.17 107.89 33.84 106.44 31.79 106.88C30.29 107.2 29.25 108.12 28.86 109.46C28.36 111.2 29.09 113.34 30.72 114.92C31.95 116.1 35.47 118.62 41.86 116.55C42.07 116.47 42.31 116.38 42.52 116.28C43.03 116.06 43.53 115.79 44 115.48C45.94 114.21 47.38 112.34 48.16 110.09C49 107.64 49.04 104.85 48.27 101.79C47.86 100.13 47 98.06 45.68 95.48C46.9 94.66 47.99 93.69 48.93 92.61C52.08 89 53.11 84.44 51.76 80.09C50.09 74.68 46.3 70.65 41.65 69.31ZM50.83 80.38C52.07 84.4 51.11 88.62 48.2 91.97C47.22 93.09 46.07 94.08 44.78 94.9C44.56 95.04 44.49 95.31 44.61 95.54C46 98.2 46.91 100.38 47.33 102.03C48.05 104.9 48.02 107.51 47.24 109.78C46.53 111.82 45.23 113.51 43.46 114.66C42.87 115.05 42.24 115.37 41.56 115.62C35.67 117.53 32.49 115.27 31.4 114.22C30.02 112.89 29.39 111.13 29.8 109.73C30.08 108.73 30.84 108.08 32 107.83C33.5 107.51 34.54 108.64 35.74 109.94C36.52 110.79 37.32 111.67 38.34 112.2C39.41 112.75 40.7 112.68 41.72 112.03C44.36 110.3 45.3 106.93 44.26 102.8C43.89 101.32 43.06 99.38 41.74 96.87C41.63 96.66 41.38 96.56 41.15 96.63C38.75 97.45 36.23 97.67 33.88 97.29C30.99 96.82 28.27 95.74 26.03 94.16C23.75 92.55 21.95 90.43 20.81 88.02C18.4 82.9 18.99 76.79 22.48 70.81C22.84 70.18 23.2 69.58 23.54 68.99C23.63 68.83 23.62 68.63 23.52 68.48C19.16 61.97 14.93 55.44 13.45 51.68C12.49 49.24 12.31 47.03 12.91 45.09C13.46 43.29 14.71 41.81 16.42 40.94C20.25 38.98 26.24 40.13 29.64 45.43C34.37 52.83 32.91 58.56 27.95 67.61L25.96 64.64C28.14 60.49 29.13 57.75 29.34 55.25C29.56 52.55 28.84 50.05 26.97 47.13C24.58 43.4 20.4 42.46 17.86 43.76C15.68 44.87 15.14 47.33 16.39 50.52C17.7 53.84 21.46 59.68 24.97 64.96C25 65 25.03 65.03 25.07 65.06L27.51 68.7C27.52 68.75 27.54 68.79 27.57 68.83C28.26 69.86 28.97 70.9 29.67 71.94C29.75 72.05 29.86 72.13 29.99 72.15L30.88 72.31C31.01 72.33 31.14 72.3 31.25 72.23C34.48 69.96 37.99 69.27 41.39 70.25C45.72 71.49 49.25 75.28 50.83 80.38ZM25.33 63.73C21.98 58.69 18.52 53.26 17.3 50.16C16.25 47.5 16.62 45.48 18.3 44.62C20.46 43.53 24.06 44.39 26.15 47.66C29.37 52.68 29.22 56.23 25.33 63.73ZM40.51 73.29C37.84 72.52 35.05 73.21 32.46 75.28C32.26 75.43 32.21 75.72 32.36 75.93C34.44 79.02 35.99 81.36 37.37 83.49C37.4 83.53 37.42 83.56 37.46 83.59L39.55 86.85C39.56 86.89 39.57 86.93 39.6 86.97C40.75 88.8 41.73 90.42 42.61 91.93C42.68 92.05 42.79 92.13 42.92 92.16C43.02 92.19 43.13 92.18 43.23 92.13C44.18 91.5 45.09 90.73 45.81 89.9C47.09 88.43 49.06 85.35 47.81 81.31C46.56 77.3 43.77 74.22 40.51 73.29ZM40.17 86.03L38.47 83.37C39.15 82.92 39.84 82.41 40.54 81.83C40.87 81.56 41.28 81.44 41.7 81.48C42.12 81.52 42.5 81.72 42.77 82.05C43.03 82.37 43.16 82.78 43.12 83.2C43.08 83.62 42.88 84 42.55 84.27C41.75 84.93 40.96 85.52 40.17 86.03ZM46.88 81.6C47.99 85.19 46.23 87.94 45.08 89.26C44.52 89.89 43.89 90.47 43.19 90.99C42.44 89.71 41.61 88.35 40.68 86.86C41.5 86.33 42.34 85.71 43.18 85.02C43.7 84.59 44.03 83.97 44.09 83.29C44.16 82.62 43.95 81.95 43.52 81.43C43.08 80.9 42.47 80.57 41.79 80.51C41.11 80.45 40.45 80.65 39.92 81.08C39.25 81.64 38.58 82.14 37.93 82.56C36.66 80.62 35.25 78.49 33.42 75.76C35.65 74.11 38.01 73.58 40.24 74.22C43.19 75.07 45.73 77.89 46.88 81.6ZM36.08 87.99C32.88 88.94 30.01 88.25 28.2 86.11C26.81 84.46 26.19 82.13 26.49 79.7C26.64 78.47 27.01 77.3 27.59 76.21L29.74 79.41C29.34 81.17 29.66 82.94 30.61 84.07C31.37 84.96 32.5 85.37 33.88 85.23C33.93 85.23 33.98 85.21 34.03 85.19C34.14 85.14 34.22 85.06 34.27 84.96C34.34 84.8 34.33 84.62 34.24 84.48C33.2 82.89 32.03 81.12 30.66 79.08C30.65 79.04 30.63 78.99 30.6 78.95L27.89 74.93C27.87 74.89 27.83 74.85 27.8 74.82L26.08 72.29C25.99 72.15 25.83 72.07 25.67 72.07C25.5 72.08 25.35 72.17 25.26 72.31C22.31 77.37 21.72 82.52 23.67 86.66C25.54 90.63 29.45 93.37 34.39 94.17C35.97 94.42 37.69 94.32 39.37 93.87C39.48 93.82 39.65 93.7 39.69 93.58C39.75 93.44 39.74 93.28 39.66 93.15C38.78 91.65 37.79 90.03 36.63 88.19C36.51 88.01 36.29 87.93 36.08 87.99ZM31.36 83.44C30.78 82.75 30.49 81.74 30.54 80.65C31.42 81.96 32.21 83.15 32.93 84.26C32.28 84.18 31.75 83.91 31.36 83.44ZM34.54 93.21C29.93 92.46 26.28 89.92 24.55 86.25C22.81 82.56 23.23 78.05 25.72 73.48L26.96 75.33C26.19 76.64 25.71 78.07 25.52 79.58C25.19 82.28 25.89 84.89 27.45 86.73C29.46 89.11 32.56 89.93 36 89.02C36.93 90.5 37.75 91.83 38.49 93.08C37.15 93.37 35.79 93.41 34.54 93.21Z" fill="#000000" fill-opacity="1.000000" fill-rule="nonzero"/>
		</g>
	</g>
</svg>
