<svg viewBox="0 0 475.428 45.54" fill="#F71969" >
	  <path d="M439.34 42.89C422.44 42.89 422.44 42.49 405.54 42.49C388.64 42.49 388.64 43.12 371.73 43.12C354.83 43.12 354.83 44.47 337.93 44.47C321.03 44.47 321.03 43.81 304.13 43.81C287.22 43.81 287.22 44.3 270.32 44.3C253.42 44.3 253.42 43.47 236.52 43.47C219.62 43.47 219.62 45.07 202.72 45.07C185.81 45.07 185.81 44.75 168.91 44.75C152.01 44.75 152.01 43.5 135.1 43.5C118.19 43.5 118.2 45.54 101.29 45.54C84.39 45.54 84.39 42.82 67.48 42.82C50.57 42.82 50.58 45.39 33.67 45.39C17.26 45.39 9.48 41.53 9.48 38.54C9.48 35.39 6.59 35.39 6.59 32.23C6.59 29.08 0 29.08 0 25.93C0 22.77 5.64 22.77 5.64 19.62C5.64 16.47 2.32 16.47 2.32 13.31C2.32 10.16 3.69 10.16 3.69 7C3.68 4.02 17.25 0.36 33.66 0.36C50.07 0.36 50.56 2.35 67.46 2.35C84.36 2.35 84.36 0.12 101.28 0.12C118.19 0.12 118.18 1.86 135.08 1.86C151.98 1.86 151.98 0.64 168.88 0.64C185.79 0.64 185.79 1.88 202.69 1.88C219.59 1.88 219.59 2.12 236.49 2.12C253.39 2.12 253.39 2.38 270.29 2.38C287.2 2.38 287.2 0 304.11 0C321.02 0 321.01 2.7 337.92 2.7C354.83 2.7 354.82 2.16 371.72 2.16C388.63 2.16 388.63 1.72 405.54 1.72C422.45 1.72 422.44 0.64 439.35 0.64C456.26 0.64 472.68 4.02 472.68 7.01C472.68 10.16 469.95 10.16 469.95 13.31C469.95 16.47 475.42 16.47 475.42 19.62C475.42 22.77 461.89 22.77 461.89 25.93C461.89 29.08 471.26 29.08 471.26 32.24C471.26 35.39 460.22 35.39 460.22 38.54C460.22 41.53 455.75 42.89 439.34 42.89Z"   />
</svg>
