<svg width="77.219910" height="92.229980" viewBox="0 0 77.2199 92.23" fill="none" xmlns="http://www.w3.org/2000/svg" xmlns:xlink="http://www.w3.org/1999/xlink">
	<desc>
			Created with Pixso.
	</desc>
	<defs/>
	<mask id="mask1_13726" mask-type="alpha" maskUnits="userSpaceOnUse" x="0.000000" y="0.000000" width="77.219910" height="92.229980">
		<g style="mix-blend-mode:normal">
			<rect id="Rectangle 3712" width="77.219894" height="92.230011" fill="#C4C4C4" fill-opacity="1.000000"/>
		</g>
	</mask>
	<g mask="url(#mask1_13726)">
		<g style="mix-blend-mode:normal">
			<path id="Path 31795" d="M59.59 73.14C57.79 73.69 55.99 72.94 54.36 72.19C54.33 73.68 53.86 75.3 52.8 76.38C52.28 76.92 51.63 77.23 50.95 77.54C51.09 77.64 63.6 84.91 66.75 86.59C68.54 83.99 71.09 82.04 73.97 80.9C72.63 75.98 70.63 69.1 69.36 64.96C69.23 64.9 69.1 64.84 68.96 64.78C66.91 66.48 63.98 67.01 61.46 66.13C61.79 67.17 62.11 68.24 62.11 69.34C62.12 71.11 61.31 72.63 59.59 73.14Z" fill="#FED39E" fill-opacity="1.000000" fill-rule="nonzero"/>
		</g>
	</g>
	<g mask="url(#mask1_13726)">
		<g style="mix-blend-mode:normal">
			<path id="Path 31796" d="M61.36 65.86C63.87 66.81 66.83 66.31 68.87 64.58C68.94 64.52 69 64.56 69.09 64.6C55.99 48.03 44.3 33.71 31.11 17.25C29.08 18.05 27.23 18.97 25.48 19.99C27.21 22.07 37.23 37.4 61.36 65.86Z" fill="#6EC6FA" fill-opacity="1.000000" fill-rule="nonzero"/>
		</g>
	</g>
	<g mask="url(#mask1_13726)">
		<g style="mix-blend-mode:normal">
			<path id="Path 31797" d="M17.42 26.1C17.84 26.51 18.29 27.49 52.98 70.22C53.44 70.78 53.93 71.33 54.33 71.94C55.29 72.38 56.27 72.83 57.33 73.02C58.94 73.32 60.73 72.86 61.49 71.29C62.3 69.6 61.73 67.69 61.2 66.01C37.03 37.49 27.13 22.32 25.3 20.1C22.39 21.82 19.79 23.81 17.42 26.1Z" fill="#FFFFFF" fill-opacity="1.000000" fill-rule="nonzero"/>
		</g>
	</g>
	<g mask="url(#mask1_13726)">
		<g style="mix-blend-mode:normal">
			<path id="Path 31798" d="M17.26 26.25C15.88 27.6 14.59 29.04 13.4 30.56C39.39 62.37 50.73 77.38 50.75 77.4C50.99 77.28 51.24 77.17 51.48 77.06C53.36 76.17 54.14 74.01 54.14 72.05C53.9 71.67 54.26 72.12 46.17 62.21C18.55 28.44 18.58 27.51 17.26 26.25Z" fill="#6EC6FA" fill-opacity="1.000000" fill-rule="nonzero"/>
		</g>
	</g>
	<g mask="url(#mask1_13726)">
		<g style="mix-blend-mode:normal">
			<path id="Path 31799" d="M9.26 25.49C9.28 25.51 13.25 30.37 13.27 30.39C16.1 26.75 19.48 23.63 23.31 21.09C25.71 19.5 28.28 18.15 30.97 17.07C26.55 11.56 29.79 15.6 26.9 11.99C19.77 14.9 13.7 19.67 9.26 25.49Z" fill="#F3D42F" fill-opacity="1.000000" fill-rule="nonzero"/>
		</g>
	</g>
	<g mask="url(#mask1_13726)">
		<g style="mix-blend-mode:normal">
			<path id="Path 31800" d="M15.01 1.02C9.29 1.79 4.99 4.93 2.24 9.77C-0.58 14.88 1.62 16.13 5.84 21.3C6.93 22.64 8.03 23.98 9.12 25.32C13.71 19.32 19.81 14.66 26.76 11.81C25.74 10.53 22.63 6.62 20.76 4.25C19 2 17.91 0.66 15.01 1.02Z" fill="#FF543A" fill-opacity="1.000000" fill-rule="nonzero"/>
		</g>
	</g>
	<g mask="url(#mask1_13726)">
		<g style="mix-blend-mode:normal">
			<path id="Path 31801" d="" fill="#13202B" fill-opacity="1.000000" fill-rule="nonzero"/>
		</g>
	</g>
	<g mask="url(#mask1_13726)">
		<g style="mix-blend-mode:normal">
			<path id="Path 31802" d="" fill="#13202B" fill-opacity="1.000000" fill-rule="nonzero"/>
		</g>
	</g>
	<g mask="url(#mask1_13726)">
		<g style="mix-blend-mode:normal">
			<path id="Path 31803" d="" fill="#13202B" fill-opacity="1.000000" fill-rule="nonzero"/>
		</g>
	</g>
	<g mask="url(#mask1_13726)">
		<g style="mix-blend-mode:normal">
			<path id="Path 31804" d="" fill="#13202B" fill-opacity="1.000000" fill-rule="nonzero"/>
		</g>
	</g>
	<g mask="url(#mask1_13726)">
		<g style="mix-blend-mode:normal">
			<path id="Path 31805" d="" fill="#13202B" fill-opacity="1.000000" fill-rule="nonzero"/>
		</g>
	</g>
	<g mask="url(#mask1_13726)">
		<g style="mix-blend-mode:normal">
			<path id="Path 31806" d="" fill="#13202B" fill-opacity="1.000000" fill-rule="nonzero"/>
		</g>
	</g>
	<g mask="url(#mask1_13726)">
		<g style="mix-blend-mode:normal">
			<path id="Path 31807" d="" fill="#13202B" fill-opacity="1.000000" fill-rule="nonzero"/>
		</g>
	</g>
	<g mask="url(#mask1_13726)">
		<g style="mix-blend-mode:normal">
			<path id="Path 31808" d="M51.47 77.09C51.41 77.01 51.36 76.93 51.3 76.85C51.25 76.83 51.21 76.8 51.16 76.78C51.27 76.88 51.37 76.98 51.47 77.09Z" fill="#13202B" fill-opacity="1.000000" fill-rule="nonzero"/>
		</g>
	</g>
	<g mask="url(#mask1_13726)">
		<g style="mix-blend-mode:normal">
			<path id="Path 31809" d="M72.65 72.62C71.98 70.31 71.3 68 70.6 65.69C70.5 65.34 70.39 65 70.29 64.66C70.24 64.51 70.17 64.39 70.08 64.3C70.36 64.66 70.42 65.14 70.07 65.5C69.76 65.8 69.13 65.87 68.84 65.5C68.78 65.43 68.73 65.35 68.67 65.28C69.56 68.22 70.43 71.16 71.28 74.11C72.64 78.83 74.03 83.57 75.06 88.39C75.15 88.78 75.23 89.18 75.3 89.58C75.33 89.75 75.36 89.92 75.39 90.09C75.4 90.14 75.4 90.19 75.41 90.24C75.62 90.32 75.88 90.43 76.09 90.49C76.14 90.5 76.2 90.51 76.24 90.51C76.21 90.51 76.13 90.49 76.09 90.49C75.96 90.49 75.92 90.53 75.79 90.61C75.73 90.64 75.56 90.82 75.53 90.86C75.54 90.86 75.52 90.91 75.5 90.96C75.49 90.74 75.43 90.47 75.41 90.24C75.35 90.22 75.3 90.19 75.24 90.17C75.08 90.1 74.93 90.03 74.78 89.96C74.39 89.78 74.02 89.6 73.64 89.41C69.25 87.23 64.99 84.76 60.74 82.33C57.59 80.53 54.49 78.63 51.32 76.87C51.38 76.95 51.41 77.01 51.47 77.09C51.37 76.98 51.27 76.88 51.16 76.78C51.21 76.8 51.27 76.84 51.32 76.87C48.61 73.31 45.84 69.78 43.07 66.27C39.72 62.01 36.34 57.78 32.95 53.55C29.39 49.11 25.81 44.68 22.23 40.26C18.88 36.12 15.52 31.98 12.15 27.85C9.41 24.48 6.66 21.12 3.92 17.76C3.32 17.03 2.61 16.31 2.17 15.47C1.51 14.2 1.69 12.79 2.21 11.55C3.37 8.78 5.45 6.18 7.92 4.48C9.12 3.64 10.44 2.99 11.83 2.53C12.92 2.17 14.25 1.86 15.27 1.74C16.69 1.57 18.03 2.07 18.95 3.18C20.16 4.61 21.28 6.12 22.44 7.58C27.12 13.49 31.84 19.38 36.57 25.26C41.33 31.17 46.1 37.08 50.87 43C55.68 48.98 60.49 54.97 65.26 60.98C66.4 62.41 67.54 63.85 68.67 65.28C68.65 65.23 68.64 65.17 68.62 65.12C68.34 64.2 69.54 63.73 70.08 64.3C65.96 59.08 61.8 53.86 57.63 48.67C53.53 43.56 49.42 38.46 45.31 33.36C41.23 28.3 37.16 23.25 33.1 18.19C29.06 13.15 25.03 8.09 21.02 3.02C20.57 2.45 20.15 1.84 19.6 1.37C19.06 0.92 18.48 0.57 17.82 0.32C16.63 -0.13 15.42 -0.04 14.19 0.17C11.85 0.56 9.54 1.38 7.53 2.66C5.1 4.2 3.05 6.45 1.6 8.93C1.05 9.87 0.54 10.88 0.23 11.92C-0.18 13.3 -0.04 14.79 0.55 16.09C0.96 16.98 1.66 17.72 2.27 18.47C2.78 19.09 3.28 19.71 3.79 20.33C4.92 21.71 6.05 23.09 7.18 24.48C9.85 27.75 12.52 31.03 15.19 34.31C18.19 38 21.18 41.69 24.17 45.39C27.24 49.19 30.3 52.99 33.35 56.8C36.23 60.4 39.1 64.01 41.96 67.63C44.39 70.72 46.79 73.79 49.15 76.87C49.49 77.32 49.85 77.99 50.33 78.3C50.47 78.39 50.62 78.47 50.77 78.55C51.46 78.96 52.16 79.37 52.86 79.78C55.34 81.23 57.83 82.67 60.33 84.09C63.2 85.73 66.08 87.36 68.98 88.93C71 90.02 73.03 91.18 75.17 92C75.8 92.24 76.62 92.45 77.03 91.73C77.37 91.13 77.16 90.24 77.06 89.61C76.66 87.09 75.97 84.61 75.31 82.15C74.47 78.97 73.57 75.79 72.65 72.62Z" fill="#13202B" fill-opacity="1.000000" fill-rule="nonzero"/>
		</g>
	</g>
	<g mask="url(#mask1_13726)">
		<g style="mix-blend-mode:normal">
			<path id="Path 31810" d="M68.62 65.12C68.64 65.17 68.65 65.23 68.67 65.28C68.73 65.35 68.78 65.43 68.84 65.5C69.13 65.87 69.76 65.8 70.07 65.5C70.42 65.14 70.36 64.66 70.08 64.3C69.54 63.73 68.34 64.2 68.62 65.12Z" fill="#13202B" fill-opacity="1.000000" fill-rule="nonzero"/>
		</g>
	</g>
	<g mask="url(#mask1_13726)">
		<g style="mix-blend-mode:normal">
			<path id="Path 31811" d="" fill="#13202B" fill-opacity="1.000000" fill-rule="nonzero"/>
		</g>
	</g>
	<g mask="url(#mask1_13726)">
		<g style="mix-blend-mode:normal">
			<path id="Path 31812" d="M75.43 90.25C75.45 90.48 75.46 90.79 75.47 91.01C75.49 90.96 75.54 90.86 75.53 90.86C75.56 90.82 75.73 90.64 75.79 90.61C75.92 90.53 76.02 90.51 76.15 90.51C75.94 90.45 75.63 90.33 75.43 90.25Z" fill="#13202B" fill-opacity="1.000000" fill-rule="nonzero"/>
		</g>
	</g>
	<g mask="url(#mask1_13726)">
		<g style="mix-blend-mode:normal">
			<path id="Path 31813" d="" fill="#13202B" fill-opacity="1.000000" fill-rule="nonzero"/>
		</g>
	</g>
	<g mask="url(#mask1_13726)">
		<g style="mix-blend-mode:normal">
			<path id="Path 31814" d="" fill="#13202B" fill-opacity="1.000000" fill-rule="nonzero"/>
		</g>
	</g>
	<g mask="url(#mask1_13726)">
		<g style="mix-blend-mode:normal">
			<path id="Path 31815" d="" fill="#13202B" fill-opacity="1.000000" fill-rule="nonzero"/>
		</g>
	</g>
	<g mask="url(#mask1_13726)">
		<g style="mix-blend-mode:normal">
			<path id="Path 31816" d="M18.13 17.22C18.41 17.01 18.7 16.81 18.98 16.61C20.12 15.82 21.3 15.09 22.52 14.43C23.2 14.06 23.9 13.71 24.61 13.39C24.79 13.31 24.97 13.22 25.15 13.14C25.23 13.11 25.32 13.07 25.4 13.03C25.43 13.02 25.54 12.98 25.59 12.95C25.94 12.81 26.29 12.66 26.65 12.53C27.07 12.37 27.41 11.94 27.26 11.46C27.12 11.05 26.64 10.68 26.19 10.86C23.49 11.89 20.91 13.22 18.51 14.84C16.13 16.45 13.92 18.32 11.96 20.43C10.83 21.63 9.79 22.91 8.84 24.24C8.57 24.61 8.76 25.22 9.15 25.43C9.59 25.66 10.05 25.51 10.33 25.12C10.54 24.83 10.74 24.55 10.95 24.28C10.98 24.24 11.01 24.2 11.04 24.16C11.06 24.14 11.14 24.04 11.16 24.01C11.28 23.86 11.39 23.72 11.51 23.57C11.95 23.03 12.4 22.5 12.87 21.98C13.8 20.96 14.79 19.99 15.83 19.08C16.35 18.62 16.88 18.18 17.42 17.76C17.44 17.74 17.61 17.61 17.56 17.65C17.61 17.61 17.66 17.57 17.71 17.53C17.85 17.43 17.99 17.32 18.13 17.22Z" fill="#13202B" fill-opacity="1.000000" fill-rule="nonzero"/>
		</g>
	</g>
	<g mask="url(#mask1_13726)">
		<g style="mix-blend-mode:normal">
			<path id="Path 31817" d="" fill="#13202B" fill-opacity="1.000000" fill-rule="nonzero"/>
		</g>
	</g>
	<g mask="url(#mask1_13726)">
		<g style="mix-blend-mode:normal">
			<path id="Path 31818" d="M66.68 86.68C71.56 89.38 75.78 91.58 76.23 91.35C76.7 91.12 75.55 86.31 74.07 80.86C70.97 82.06 68.35 84.18 66.68 86.68Z" fill="#13202B" fill-opacity="1.000000" fill-rule="nonzero"/>
		</g>
	</g>
	<g mask="url(#mask1_13726)">
		<g style="mix-blend-mode:normal">
			<path id="Path 31819" d="M69.56 65.27C69.91 64.97 69.89 64.34 69.56 64.04C69.19 63.7 68.71 63.73 68.34 64.04C68.27 64.1 68.21 64.16 68.13 64.21C68.01 64.3 67.79 64.45 67.66 64.53C67.38 64.71 67.09 64.86 66.79 65C66.87 64.96 66.77 65.01 66.67 65.05C66.68 65.05 66.78 65 66.79 65C66.73 65.02 66.57 65.09 66.5 65.11C66.34 65.18 66.17 65.23 66 65.28C65.7 65.37 65.38 65.45 65.07 65.5C65 65.51 64.92 65.53 64.85 65.53C64.81 65.54 64.76 65.54 64.74 65.54C64.59 65.56 64.43 65.57 64.28 65.58C63.95 65.59 63.62 65.58 63.29 65.55C63.2 65.54 63.11 65.54 63.03 65.52C62.85 65.49 62.64 65.45 62.47 65.41C62.15 65.34 61.84 65.24 61.53 65.12C60.91 64.88 60.27 65.59 60.46 66.19C60.63 66.72 60.8 67.26 60.93 67.81C60.99 68.06 61.04 68.31 61.08 68.57C61.09 68.63 61.11 68.77 61.11 68.83C61.13 68.99 61.14 69.14 61.14 69.3C61.14 69.49 61.13 69.68 61.12 69.87C61.11 69.89 61.1 69.98 61.1 70C61.08 70.09 61.07 70.19 61.05 70.28C61.01 70.45 60.95 70.62 60.89 70.79C60.85 70.86 60.79 71.01 60.74 71.08C60.7 71.15 60.66 71.22 60.62 71.29C60.58 71.34 60.48 71.46 60.5 71.43C60.41 71.52 60.33 71.63 60.24 71.71C60.19 71.76 60.12 71.8 60.08 71.85C59.94 71.94 59.75 72.05 59.6 72.11C59.52 72.14 59.35 72.21 59.27 72.23C59.14 72.27 59 72.28 58.86 72.31C58.85 72.32 58.75 72.34 58.75 72.34C58.75 72.34 58.85 72.32 58.86 72.31C58.82 72.32 58.78 72.34 58.75 72.34C58.65 72.35 58.47 72.36 58.38 72.36C58.19 72.36 58 72.35 57.81 72.33C57.76 72.33 57.71 72.33 57.66 72.32C57.52 72.29 57.28 72.24 57.14 72.21C56.84 72.14 56.55 72.05 56.26 71.94C56.12 71.89 55.98 71.84 55.85 71.78C55.78 71.76 55.72 71.73 55.66 71.71C55.36 71.58 54.98 71.41 54.69 71.27C54.4 71.14 54.1 71.1 53.82 71.27C53.55 71.43 53.39 71.72 53.39 72.02C53.39 72.25 53.38 72.47 53.36 72.69C53.35 72.74 53.35 72.79 53.34 72.84C53.35 72.79 53.32 73 53.32 73.02C53.31 73.07 53.3 73.13 53.29 73.18C53.25 73.42 53.19 73.65 53.12 73.88C53.09 74 53.05 74.11 53.01 74.22C52.99 74.28 52.96 74.34 52.94 74.4C52.84 74.62 52.73 74.86 52.6 75.06C52.53 75.18 52.46 75.28 52.38 75.39C52.33 75.45 52.28 75.51 52.23 75.56C52.16 75.65 52.08 75.73 51.99 75.81C51.94 75.86 51.88 75.91 51.82 75.96C51.74 76.04 51.56 76.15 51.47 76.2C51.35 76.28 51.23 76.34 51.1 76.41C50.69 76.6 50.55 77.22 50.79 77.59C51.06 78.01 51.54 78.11 51.97 77.9C53.76 77.04 54.73 75.2 55.02 73.3C54.61 73.13 54.21 72.95 53.82 72.77C54.25 72.52 54.68 72.27 55.12 72.02C55.12 72.44 55.09 72.87 55.02 73.3C56.61 73.96 58.34 74.43 60 73.81C60.84 73.5 61.53 72.98 62.06 72.25C62.58 71.51 62.8 70.61 62.86 69.73C62.92 68.87 62.78 68.02 62.56 67.2C62.05 67.11 61.55 66.98 61.07 66.79C61.42 66.44 61.78 66.08 62.13 65.73C62.28 66.21 62.44 66.7 62.56 67.2C65.03 67.61 67.65 66.89 69.56 65.27Z" fill="#13202B" fill-opacity="1.000000" fill-rule="nonzero"/>
		</g>
	</g>
	<g mask="url(#mask1_13726)">
		<g style="mix-blend-mode:normal">
			<path id="Path 31820" d="" fill="#13202B" fill-opacity="1.000000" fill-rule="nonzero"/>
		</g>
	</g>
	<g mask="url(#mask1_13726)">
		<g style="mix-blend-mode:normal">
			<path id="Path 31821" d="" fill="#13202B" fill-opacity="1.000000" fill-rule="nonzero"/>
		</g>
	</g>
	<g mask="url(#mask1_13726)">
		<g style="mix-blend-mode:normal">
			<path id="Path 31822" d="M61.07 66.79C61.55 66.98 62.06 67.11 62.56 67.2C62.44 66.7 62.28 66.21 62.13 65.73C61.78 66.08 61.42 66.44 61.07 66.79Z" fill="#13202B" fill-opacity="1.000000" fill-rule="nonzero"/>
		</g>
	</g>
	<g mask="url(#mask1_13726)">
		<g style="mix-blend-mode:normal">
			<path id="Path 31823" d="" fill="#13202B" fill-opacity="1.000000" fill-rule="nonzero"/>
		</g>
	</g>
	<g mask="url(#mask1_13726)">
		<g style="mix-blend-mode:normal">
			<path id="Path 31824" d="" fill="#13202B" fill-opacity="1.000000" fill-rule="nonzero"/>
		</g>
	</g>
	<g mask="url(#mask1_13726)">
		<g style="mix-blend-mode:normal">
			<path id="Path 31825" d="" fill="#13202B" fill-opacity="1.000000" fill-rule="nonzero"/>
		</g>
	</g>
	<g mask="url(#mask1_13726)">
		<g style="mix-blend-mode:normal">
			<path id="Path 31826" d="" fill="#13202B" fill-opacity="1.000000" fill-rule="nonzero"/>
		</g>
	</g>
	<g mask="url(#mask1_13726)">
		<g style="mix-blend-mode:normal">
			<path id="Path 31827" d="" fill="#13202B" fill-opacity="1.000000" fill-rule="nonzero"/>
		</g>
	</g>
	<g mask="url(#mask1_13726)">
		<g style="mix-blend-mode:normal">
			<path id="Path 31828" d="" fill="#13202B" fill-opacity="1.000000" fill-rule="nonzero"/>
		</g>
	</g>
	<g mask="url(#mask1_13726)">
		<g style="mix-blend-mode:normal">
			<path id="Path 31829" d="" fill="#13202B" fill-opacity="1.000000" fill-rule="nonzero"/>
		</g>
	</g>
	<g mask="url(#mask1_13726)">
		<g style="mix-blend-mode:normal">
			<path id="Path 31830" d="" fill="#13202B" fill-opacity="1.000000" fill-rule="nonzero"/>
		</g>
	</g>
	<g mask="url(#mask1_13726)">
		<g style="mix-blend-mode:normal">
			<path id="Path 31831" d="" fill="#13202B" fill-opacity="1.000000" fill-rule="nonzero"/>
		</g>
	</g>
	<g mask="url(#mask1_13726)">
		<g style="mix-blend-mode:normal">
			<path id="Path 31832" d="" fill="#13202B" fill-opacity="1.000000" fill-rule="nonzero"/>
		</g>
	</g>
	<g mask="url(#mask1_13726)">
		<g style="mix-blend-mode:normal">
			<path id="Path 31833" d="" fill="#13202B" fill-opacity="1.000000" fill-rule="nonzero"/>
		</g>
	</g>
	<g mask="url(#mask1_13726)">
		<g style="mix-blend-mode:normal">
			<path id="Path 31834" d="M53.82 72.77C54.21 72.95 54.61 73.13 55.02 73.3C55.09 72.87 55.12 72.44 55.12 72.02C54.68 72.27 54.25 72.52 53.82 72.77Z" fill="#13202B" fill-opacity="1.000000" fill-rule="nonzero"/>
		</g>
	</g>
	<g mask="url(#mask1_13726)">
		<g style="mix-blend-mode:normal">
			<path id="Path 31835" d="" fill="#13202B" fill-opacity="1.000000" fill-rule="nonzero"/>
		</g>
	</g>
	<g mask="url(#mask1_13726)">
		<g style="mix-blend-mode:normal">
			<path id="Path 31836" d="" fill="#13202B" fill-opacity="1.000000" fill-rule="nonzero"/>
		</g>
	</g>
	<g mask="url(#mask1_13726)">
		<g style="mix-blend-mode:normal">
			<path id="Path 31837" d="" fill="#13202B" fill-opacity="1.000000" fill-rule="nonzero"/>
		</g>
	</g>
	<g mask="url(#mask1_13726)">
		<g style="mix-blend-mode:normal">
			<path id="Path 31838" d="M30.91 16.28C28.11 17.39 25.43 18.77 22.92 20.44C20.41 22.11 18.06 24.03 15.94 26.18C14.77 27.37 13.67 28.63 12.65 29.95C12.51 30.14 12.4 30.31 12.4 30.56C12.4 30.77 12.49 31.02 12.65 31.17C12.96 31.46 13.58 31.55 13.88 31.17C15.67 28.85 17.71 26.72 19.95 24.83C20.22 24.6 20.49 24.37 20.77 24.15C20.91 24.04 21.04 23.93 21.18 23.82C21.25 23.76 21.31 23.71 21.38 23.66C21.42 23.63 21.47 23.59 21.51 23.56C22.1 23.12 22.69 22.69 23.3 22.27C24.5 21.45 25.74 20.69 27.02 20C27.74 19.6 28.48 19.23 29.23 18.88C29.6 18.71 29.96 18.54 30.33 18.38C30.43 18.34 30.52 18.3 30.61 18.26C30.67 18.24 30.72 18.21 30.78 18.19C30.97 18.11 31.17 18.03 31.37 17.95C31.79 17.79 32.13 17.37 31.97 16.89C31.84 16.48 31.36 16.1 30.91 16.28Z" fill="#13202B" fill-opacity="1.000000" fill-rule="nonzero"/>
		</g>
	</g>
	<g mask="url(#mask1_13726)">
		<g style="mix-blend-mode:normal">
			<path id="Path 31839" d="M40.4 53.62C38.02 50.7 35.65 47.78 33.28 44.85C30.91 41.91 28.55 38.97 26.21 36.01C25.05 34.55 23.9 33.08 22.75 31.61C22.17 30.87 21.6 30.13 21.02 29.39C20.73 29.02 20.45 28.65 20.16 28.28C20.09 28.19 20.03 28.11 19.96 28.02C19.96 28.02 19.82 27.85 19.81 27.83C19.67 27.64 19.53 27.46 19.38 27.27C19.1 26.9 18.81 26.53 18.53 26.16C18.25 25.8 17.77 25.58 17.34 25.85C16.99 26.08 16.74 26.65 17.03 27.04C19.35 30.06 21.7 33.07 24.06 36.06C26.39 39.02 28.75 41.97 31.11 44.9C33.49 47.86 35.88 50.8 38.28 53.74C40.66 56.67 43.05 59.59 45.44 62.51C47.82 65.42 50.19 68.33 52.56 71.24C52.86 71.6 53.15 71.97 53.45 72.33C53.73 72.68 54.38 72.65 54.67 72.33C55.02 71.95 54.98 71.48 54.67 71.1C52.31 68.19 49.93 65.29 47.56 62.38C45.17 59.46 42.78 56.54 40.4 53.62Z" fill="#13202B" fill-opacity="1.000000" fill-rule="nonzero"/>
		</g>
	</g>
	<g mask="url(#mask1_13726)">
		<g style="mix-blend-mode:normal">
			<path id="Path 31840" d="" fill="#13202B" fill-opacity="1.000000" fill-rule="nonzero"/>
		</g>
	</g>
	<g mask="url(#mask1_13726)">
		<g style="mix-blend-mode:normal">
			<path id="Path 31841" d="" fill="#13202B" fill-opacity="1.000000" fill-rule="nonzero"/>
		</g>
	</g>
	<g mask="url(#mask1_13726)">
		<g style="mix-blend-mode:normal">
			<path id="Path 31842" d="" fill="#13202B" fill-opacity="1.000000" fill-rule="nonzero"/>
		</g>
	</g>
	<g mask="url(#mask1_13726)">
		<g style="mix-blend-mode:normal">
			<path id="Path 31843" d="M47.61 48.01C45.25 45.07 42.92 42.11 40.62 39.14C40.58 39.09 40.55 39.04 40.51 39C40.45 38.91 40.36 38.8 40.3 38.72C40.14 38.52 39.99 38.32 39.84 38.12C39.55 37.75 39.26 37.37 38.97 37C38.4 36.25 37.83 35.5 37.26 34.75C36.13 33.26 35.01 31.76 33.9 30.26C31.68 27.27 29.48 24.26 27.33 21.21C27.06 20.83 26.79 20.45 26.53 20.08C26.27 19.71 25.76 19.5 25.34 19.76C24.97 20 24.75 20.55 25.03 20.95C27.18 24 29.37 27.03 31.59 30.04C33.83 33.07 36.1 36.08 38.4 39.06C40.73 42.09 43.09 45.1 45.47 48.09C47.82 51.04 50.2 53.97 52.59 56.88C54.97 59.77 57.37 62.65 59.78 65.5C60.08 65.86 60.38 66.21 60.68 66.57C60.98 66.91 61.61 66.89 61.91 66.57C62.25 66.2 62.22 65.71 61.91 65.34C59.49 62.49 57.09 59.63 54.71 56.74C52.32 53.85 49.95 50.94 47.61 48.01Z" fill="#13202B" fill-opacity="1.000000" fill-rule="nonzero"/>
		</g>
	</g>
</svg>
