<svg width="168.000000" height="156.000000" viewBox="0 0 168 156" fill="none" xmlns="http://www.w3.org/2000/svg" xmlns:xlink="http://www.w3.org/1999/xlink">
	<desc>
			Created with Pixso.
	</desc>
	<defs/>
	<mask id="mask76_325" mask-type="alpha" maskUnits="userSpaceOnUse" x="0.000000" y="0.000000" width="168.000000" height="156.000000">
		<rect id="Rectangle 4201" width="168.000000" height="156.000000" fill="#C4C4C4" fill-opacity="1.000000"/>
	</mask>
	<g mask="url(#mask76_325)">
		<g style="mix-blend-mode:normal">
			<path id="Path 15841" d="M110.41 154.86L31.75 114.51C29.13 113.35 27.95 110.29 29.11 107.68L71.03 3.69C72.19 1.08 79.36 -0.02 81.98 1.13L164.05 37.5C166.67 38.65 167.85 41.71 166.69 44.33L119.17 150.87C118.02 153.48 113.03 156.02 110.41 154.86Z" fill="#243047" fill-opacity="1.000000" fill-rule="nonzero"/>
			<path id="Path 15841" d="M31.75 114.51C29.13 113.35 27.95 110.29 29.11 107.68L71.03 3.69C72.19 1.08 79.36 -0.02 81.98 1.13L164.05 37.5C166.67 38.65 167.85 41.71 166.69 44.33L119.17 150.87C118.02 153.48 113.03 156.02 110.41 154.86L31.75 114.51Z" stroke="#707070" stroke-opacity="0" stroke-width="1.000000"/>
		</g>
		<g style="mix-blend-mode:normal">
			<path id="Path 15842" d="M77.76 2.26L162.21 39.66C164.37 40.62 165.35 43.16 164.39 45.32L117.24 151.78C116.28 153.95 113.74 154.93 111.57 153.97L27.13 116.57C24.96 115.61 23.98 113.07 24.94 110.9L72.09 4.44C73.05 2.28 75.59 1.3 77.76 2.26Z" fill="#FFFFFF" fill-opacity="1.000000" fill-rule="nonzero"/>
			<path id="Path 15842" d="M162.21 39.66C164.37 40.62 165.35 43.16 164.39 45.32L117.24 151.78C116.28 153.95 113.74 154.93 111.57 153.97L27.13 116.57C24.96 115.61 23.98 113.07 24.94 110.9L72.09 4.44C73.05 2.28 75.59 1.3 77.76 2.26L162.21 39.66Z" stroke="#707070" stroke-opacity="0" stroke-width="1.000000"/>
		</g>
		<g style="mix-blend-mode:normal">
			<path id="Path 15843" d="M111.16 154.86L26.72 117.45C24.07 116.28 22.87 113.16 24.04 110.51L71.2 4.05C72.38 1.4 75.49 0.2 78.14 1.37L162.59 38.79C165.24 39.96 166.44 43.07 165.27 45.73L118.1 152.18C116.93 154.84 113.82 156.04 111.16 154.86ZM77.36 3.14C75.68 2.4 73.72 3.16 72.97 4.84L25.81 111.29C25.07 112.97 25.83 114.94 27.5 115.68L111.95 153.09C113.62 153.84 115.59 153.08 116.33 151.4L163.5 44.94C164.24 43.27 163.48 41.3 161.81 40.56L77.36 3.14Z" fill="#243047" fill-opacity="1.000000" fill-rule="nonzero"/>
			<path id="Path 15843" d="M26.72 117.45C24.07 116.28 22.87 113.16 24.04 110.51L71.2 4.05C72.38 1.4 75.49 0.2 78.14 1.37L162.59 38.79C165.24 39.96 166.44 43.07 165.27 45.73L118.1 152.18C116.93 154.84 113.82 156.04 111.16 154.86L26.72 117.45ZM72.97 4.84L25.81 111.29C25.07 112.97 25.83 114.94 27.5 115.68L111.95 153.09C113.62 153.84 115.59 153.08 116.33 151.4L163.5 44.94C164.24 43.27 163.48 41.3 161.81 40.56L77.36 3.14C75.68 2.4 73.72 3.16 72.97 4.84Z" stroke="#707070" stroke-opacity="0" stroke-width="1.000000"/>
		</g>
		<g style="mix-blend-mode:normal">
			<rect id="Rectangle 2657" x="79.746826" y="17.902344" width="76.062828" height="86.046684" transform="rotate(23.8901 79.746826 17.902344)" fill="#FDC83B" fill-opacity="1.000000"/>
			<rect id="Rectangle 2657" x="79.746826" y="17.902344" width="76.062828" height="86.046684" transform="rotate(23.8901 79.746826 17.902344)" stroke="#707070" stroke-opacity="0" stroke-width="1.000000"/>
		</g>
		<g style="mix-blend-mode:normal">
			<path id="Path 15844" d="M114.03 128.27L44.49 97.46C44 97.24 43.78 96.67 44 96.18L78.85 17.51C79.07 17.02 79.64 16.8 80.13 17.02L149.67 47.83C150.16 48.04 150.38 48.62 150.16 49.1L115.31 127.78C115.09 128.26 114.52 128.48 114.03 128.27ZM46.16 96.08L113.93 126.11L148 49.2L80.23 19.18L46.16 96.08Z" fill="#243047" fill-opacity="1.000000" fill-rule="nonzero"/>
			<path id="Path 15844" d="M44.49 97.46C44 97.24 43.78 96.67 44 96.18L78.85 17.51C79.07 17.02 79.64 16.8 80.13 17.02L149.67 47.83C150.16 48.04 150.38 48.62 150.16 49.1L115.31 127.78C115.09 128.26 114.52 128.48 114.03 128.27L44.49 97.46ZM113.93 126.11L148 49.2L80.23 19.18L46.16 96.08L113.93 126.11Z" stroke="#707070" stroke-opacity="0" stroke-width="1.000000"/>
		</g>
		<g style="mix-blend-mode:normal">
			<path id="Path 15845" d="M122.98 61.28C119.36 58.83 113.25 61.41 108.65 67.07L94.33 60.73C96.83 54.25 96.24 48.08 92.58 46.03C88.25 43.62 81.3 47.85 77.04 55.48C75.21 58.75 74.18 62.11 73.93 65.08C73.32 65.93 72.78 66.86 72.34 67.86L66.23 81.64C62.78 89.43 66.3 98.54 74.09 102L91.17 109.56C98.96 113.02 108.08 109.5 111.53 101.71L117.63 87.93C118.47 86.04 118.89 84.07 118.95 82.13C119.93 81.11 120.87 79.96 121.73 78.69C126.41 71.78 126.97 63.98 122.98 61.28Z" fill="#FF3145" fill-opacity="1.000000" fill-rule="nonzero"/>
			<path id="Path 15845" d="M108.65 67.07L94.33 60.73C96.83 54.25 96.24 48.08 92.58 46.03C88.25 43.62 81.3 47.85 77.04 55.48C75.21 58.75 74.18 62.11 73.93 65.08C73.32 65.93 72.78 66.86 72.34 67.86L66.23 81.64C62.78 89.43 66.3 98.54 74.09 102L91.17 109.56C98.96 113.02 108.08 109.5 111.53 101.71L117.63 87.93C118.47 86.04 118.89 84.07 118.95 82.13C119.93 81.11 120.87 79.96 121.73 78.69C126.41 71.78 126.97 63.98 122.98 61.28C119.36 58.83 113.25 61.41 108.65 67.07Z" stroke="#707070" stroke-opacity="0" stroke-width="1.000000"/>
		</g>
		<g style="mix-blend-mode:normal">
			<path id="Path 15846" d="M90.78 110.45L73.7 102.88C65.43 99.22 61.69 89.51 65.35 81.25L71.46 67.47C71.88 66.51 72.39 65.59 72.99 64.74C73.3 61.57 74.4 58.21 76.19 55.01C80.78 46.79 88.18 42.47 93.05 45.19C96.91 47.35 97.9 53.45 95.55 60.21L108.37 65.89C113.34 60.12 119.63 57.84 123.52 60.48C125.75 61.99 126.83 64.83 126.57 68.47C126.32 71.93 124.89 75.75 122.53 79.24C121.73 80.42 120.85 81.53 119.9 82.53C119.8 84.53 119.33 86.48 118.52 88.32L112.41 102.1C108.75 110.37 99.05 114.11 90.78 110.45ZM91.76 46.7C87.94 45.01 81.69 49.13 77.88 55.95C76.2 58.96 75.14 62.23 74.9 65.16C74.88 65.34 74.82 65.5 74.72 65.65C74.13 66.46 73.63 67.33 73.22 68.25L67.12 82.03C63.89 89.32 67.19 97.88 74.48 101.11L91.57 108.68C98.86 111.91 107.42 108.6 110.65 101.31L116.75 87.53C117.52 85.81 117.93 83.98 117.98 82.1C117.99 81.86 118.09 81.63 118.26 81.46C119.22 80.46 120.12 79.34 120.93 78.15C123.1 74.94 124.42 71.46 124.64 68.33C124.85 65.41 124.07 63.18 122.44 62.08C119.32 59.97 113.71 62.37 109.4 67.68C109.12 68.02 108.66 68.13 108.26 67.96L93.94 61.61C93.47 61.4 93.24 60.86 93.43 60.38C95.78 54.29 95.22 48.62 92.11 46.88C91.99 46.81 91.88 46.76 91.76 46.7Z" fill="#243047" fill-opacity="1.000000" fill-rule="nonzero"/>
			<path id="Path 15846" d="M73.7 102.88C65.43 99.22 61.69 89.51 65.35 81.25L71.46 67.47C71.88 66.51 72.39 65.59 72.99 64.74C73.3 61.57 74.4 58.21 76.19 55.01C80.78 46.79 88.18 42.47 93.05 45.19C96.91 47.35 97.9 53.45 95.55 60.21L108.37 65.89C113.34 60.12 119.63 57.84 123.52 60.48C125.75 61.99 126.83 64.83 126.57 68.47C126.32 71.93 124.89 75.75 122.53 79.24C121.73 80.42 120.85 81.53 119.9 82.53C119.8 84.53 119.33 86.48 118.52 88.32L112.41 102.1C108.75 110.37 99.05 114.11 90.78 110.45L73.7 102.88ZM77.88 55.95C76.2 58.96 75.14 62.23 74.9 65.16C74.88 65.34 74.82 65.5 74.72 65.65C74.13 66.46 73.63 67.33 73.22 68.25L67.12 82.03C63.89 89.32 67.19 97.88 74.48 101.11L91.57 108.68C98.86 111.91 107.42 108.6 110.65 101.31L116.75 87.53C117.52 85.81 117.93 83.98 117.98 82.1C117.99 81.86 118.09 81.63 118.26 81.46C119.22 80.46 120.12 79.34 120.93 78.15C123.1 74.94 124.42 71.46 124.64 68.33C124.85 65.41 124.07 63.18 122.44 62.08C119.32 59.97 113.71 62.37 109.4 67.68C109.12 68.02 108.66 68.13 108.26 67.96L93.94 61.61C93.47 61.4 93.24 60.86 93.43 60.38C95.78 54.29 95.22 48.62 92.11 46.88C91.99 46.81 91.88 46.76 91.76 46.7C87.94 45.01 81.69 49.13 77.88 55.95Z" stroke="#707070" stroke-opacity="0" stroke-width="1.000000"/>
		</g>
		<g style="mix-blend-mode:normal">
			<rect id="Rectangle 2658" x="83.199951" y="91.009766" width="10.534110" height="20.389648" transform="rotate(23.8901 83.199951 91.009766)" fill="#7975FF" fill-opacity="1.000000"/>
			<rect id="Rectangle 2658" x="83.199951" y="91.009766" width="10.534110" height="20.389648" transform="rotate(23.8901 83.199951 91.009766)" stroke="#707070" stroke-opacity="0" stroke-width="1.000000"/>
		</g>
		<g style="mix-blend-mode:normal">
			<path id="Path 15847" d="M84.16 114.8L74.53 110.54C74.04 110.32 73.82 109.75 74.04 109.26L82.3 90.62C82.51 90.13 83.08 89.91 83.57 90.13L93.2 94.39C93.69 94.61 93.91 95.18 93.7 95.67L85.44 114.31C85.22 114.8 84.65 115.02 84.16 114.8ZM76.2 109.16L84.06 112.64L91.54 95.77L83.67 92.29L76.2 109.16Z" fill="#243047" fill-opacity="1.000000" fill-rule="nonzero"/>
			<path id="Path 15847" d="M74.53 110.54C74.04 110.32 73.82 109.75 74.04 109.26L82.3 90.62C82.51 90.13 83.08 89.91 83.57 90.13L93.2 94.39C93.69 94.61 93.91 95.18 93.7 95.67L85.44 114.31C85.22 114.8 84.65 115.02 84.16 114.8L74.53 110.54ZM84.06 112.64L91.54 95.77L83.67 92.29L76.2 109.16L84.06 112.64Z" stroke="#707070" stroke-opacity="0" stroke-width="1.000000"/>
		</g>
		<g style="mix-blend-mode:normal">
			<path id="Path 15848" d="M80.79 61.54C79.89 63.57 77.52 64.48 75.49 63.58C73.46 62.68 72.54 60.31 73.44 58.28C74.34 56.25 76.71 55.33 78.75 56.23C80.78 57.13 81.69 59.51 80.79 61.54Z" fill="#7975FF" fill-opacity="1.000000" fill-rule="nonzero"/>
			<path id="Path 15848" d="M75.49 63.58C73.46 62.68 72.54 60.31 73.44 58.28C74.34 56.25 76.71 55.33 78.75 56.23C80.78 57.13 81.69 59.51 80.79 61.54C79.89 63.57 77.52 64.48 75.49 63.58Z" stroke="#707070" stroke-opacity="0" stroke-width="1.000000"/>
		</g>
		<g style="mix-blend-mode:normal">
			<path id="Path 15849" d="M75.1 64.47C72.58 63.35 71.44 60.4 72.56 57.89C73.67 55.37 76.62 54.23 79.14 55.35C81.65 56.46 82.79 59.41 81.68 61.93C80.56 64.44 77.61 65.58 75.1 64.47ZM78.35 57.12C76.81 56.43 75.01 57.13 74.32 58.67C73.64 60.21 74.34 62.02 75.88 62.7C77.42 63.38 79.23 62.68 79.91 61.14C80.59 59.6 79.89 57.8 78.35 57.12Z" fill="#243047" fill-opacity="1.000000" fill-rule="nonzero"/>
			<path id="Path 15849" d="M72.56 57.89C73.67 55.37 76.62 54.23 79.14 55.35C81.65 56.46 82.79 59.41 81.68 61.93C80.56 64.44 77.61 65.58 75.1 64.47C72.58 63.35 71.44 60.4 72.56 57.89ZM74.32 58.67C73.64 60.21 74.34 62.02 75.88 62.7C77.42 63.38 79.23 62.68 79.91 61.14C80.59 59.6 79.89 57.8 78.35 57.12C76.81 56.43 75.01 57.13 74.32 58.67Z" stroke="#707070" stroke-opacity="0" stroke-width="1.000000"/>
		</g>
		<g style="mix-blend-mode:normal">
			<circle id="Ellipse 340" r="4.020866" transform="matrix(0.932952 -0.360002 0.360002 0.932952 119.926 78.8906)" fill="#7975FF" fill-opacity="1.000000"/>
			<circle id="Ellipse 340" r="4.020866" transform="matrix(0.932952 -0.360002 0.360002 0.932952 119.926 78.8906)" stroke="#707070" stroke-opacity="0" stroke-width="1.000000"/>
		</g>
		<g style="mix-blend-mode:normal">
			<path id="Path 15850" d="M117.9 83.43C115.39 82.32 114.25 79.37 115.36 76.85C116.48 74.34 119.43 73.2 121.94 74.31C124.46 75.43 125.6 78.38 124.48 80.89C123.37 83.41 120.42 84.55 117.9 83.43ZM121.16 76.08C119.62 75.4 117.81 76.1 117.13 77.64C116.45 79.18 117.15 80.98 118.69 81.66C120.23 82.35 122.04 81.65 122.72 80.11C123.4 78.57 122.7 76.76 121.16 76.08Z" fill="#243047" fill-opacity="1.000000" fill-rule="nonzero"/>
			<path id="Path 15850" d="M115.36 76.85C116.48 74.34 119.43 73.2 121.94 74.31C124.46 75.43 125.6 78.38 124.48 80.89C123.37 83.41 120.42 84.55 117.9 83.43C115.39 82.32 114.25 79.37 115.36 76.85ZM117.13 77.64C116.45 79.18 117.15 80.98 118.69 81.66C120.23 82.35 122.04 81.65 122.72 80.11C123.4 78.57 122.7 76.76 121.16 76.08C119.62 75.4 117.81 76.1 117.13 77.64Z" stroke="#707070" stroke-opacity="0" stroke-width="1.000000"/>
		</g>
		<g style="mix-blend-mode:normal">
			<path id="Path 15851" d="M86.4 96.22C75.42 91.36 70.42 78.4 75.28 67.42L80.14 56.45C83.93 47.9 94.03 44 102.59 47.79L111.39 51.69C119.95 55.48 123.85 65.58 120.05 74.14L115.2 85.1C110.33 96.08 97.37 101.08 86.4 96.22Z" fill="#7975FF" fill-opacity="1.000000" fill-rule="nonzero"/>
			<path id="Path 15851" d="M75.28 67.42L80.14 56.45C83.93 47.9 94.03 44 102.59 47.79L111.39 51.69C119.95 55.48 123.85 65.58 120.05 74.14L115.2 85.1C110.33 96.08 97.37 101.08 86.4 96.22C75.42 91.36 70.42 78.4 75.28 67.42Z" stroke="#707070" stroke-opacity="0" stroke-width="1.000000"/>
		</g>
		<g style="mix-blend-mode:normal">
			<path id="Path 15852" d="M86 97.1C74.51 92.01 69.3 78.52 74.39 67.03L79.25 56.06C83.27 47 93.91 42.89 102.98 46.9L111.78 50.8C120.85 54.82 124.96 65.46 120.94 74.53L116.08 85.49C110.99 96.99 97.5 102.2 86 97.1ZM102.2 48.67C94.11 45.09 84.61 48.75 81.02 56.85L76.16 67.81C71.5 78.33 76.27 90.68 86.79 95.33C97.3 99.99 109.65 95.23 114.31 84.71L119.17 73.75C122.75 65.65 119.09 56.15 111 52.57L102.2 48.67Z" fill="#243047" fill-opacity="1.000000" fill-rule="nonzero"/>
			<path id="Path 15852" d="M74.39 67.03L79.25 56.06C83.27 47 93.91 42.89 102.98 46.9L111.78 50.8C120.85 54.82 124.96 65.46 120.94 74.53L116.08 85.49C110.99 96.99 97.5 102.2 86 97.1C74.51 92.01 69.3 78.52 74.39 67.03ZM81.02 56.85L76.16 67.81C71.5 78.33 76.27 90.68 86.79 95.33C97.3 99.99 109.65 95.23 114.31 84.71L119.17 73.75C122.75 65.65 119.09 56.15 111 52.57L102.2 48.67C94.11 45.09 84.61 48.75 81.02 56.85Z" stroke="#707070" stroke-opacity="0" stroke-width="1.000000"/>
		</g>
		<g style="mix-blend-mode:normal">
			<path id="Path 15853" d="M89.96 69.4C89.37 70.72 88.26 71.51 87.46 71.16C86.67 70.8 86.5 69.45 87.09 68.13C87.67 66.81 88.79 66.02 89.58 66.37C90.38 66.73 90.54 68.08 89.96 69.4Z" fill="#243047" fill-opacity="1.000000" fill-rule="nonzero"/>
			<path id="Path 15853" d="M87.46 71.16C86.67 70.8 86.5 69.45 87.09 68.13C87.67 66.81 88.79 66.02 89.58 66.37C90.38 66.73 90.54 68.08 89.96 69.4C89.37 70.72 88.26 71.51 87.46 71.16Z" stroke="#707070" stroke-opacity="0" stroke-width="1.000000"/>
		</g>
		<g style="mix-blend-mode:normal">
			<ellipse id="Ellipse 341" rx="1.569247" ry="2.615412" transform="matrix(0.914255 0.40514 -0.40514 0.914255 105.693 76.3853)" fill="#243047" fill-opacity="1.000000"/>
			<ellipse id="Ellipse 341" rx="1.569247" ry="2.615412" transform="matrix(0.914255 0.40514 -0.40514 0.914255 105.693 76.3853)" stroke="#707070" stroke-opacity="0" stroke-width="1.000000"/>
		</g>
		<g style="mix-blend-mode:normal">
			<path id="Path 15854" d="M94.21 76.9L96.11 77.74C97.07 78.16 97.5 79.28 97.07 80.23L97.01 80.38C96.59 81.33 95.47 81.77 94.51 81.34L92.61 80.5C91.66 80.08 91.23 78.96 91.65 78L91.71 77.86C92.14 76.9 93.25 76.47 94.21 76.9Z" fill="#243047" fill-opacity="1.000000" fill-rule="nonzero"/>
			<path id="Path 15854" d="M96.11 77.74C97.07 78.16 97.5 79.28 97.07 80.23L97.01 80.38C96.59 81.33 95.47 81.77 94.51 81.34L92.61 80.5C91.66 80.08 91.23 78.96 91.65 78L91.71 77.86C92.14 76.9 93.25 76.47 94.21 76.9L96.11 77.74Z" stroke="#707070" stroke-opacity="0" stroke-width="1.000000"/>
		</g>
		<g style="mix-blend-mode:normal">
			<path id="Path 15855" d="M113.75 44.93C106.51 41.73 105.3 40.76 100.27 45.7C99.17 43.37 97.36 41.46 94.94 40.39C89.13 37.81 83.14 42.22 80.24 48.77C78.89 51.81 78.23 54.53 78.66 57.02C78.99 62.01 84.19 65.91 90.49 65.81C96.94 65.7 102.11 61.43 102.02 56.26C101.97 52.99 99.81 50.14 96.6 48.53C97.55 48.71 98.48 48.99 99.4 49.39L111.61 54.81C118.04 57.65 123.04 49.05 113.75 44.93Z" fill="#FF3145" fill-opacity="1.000000" fill-rule="nonzero"/>
			<path id="Path 15855" d="M100.27 45.7C99.17 43.37 97.36 41.46 94.94 40.39C89.13 37.81 83.14 42.22 80.24 48.77C78.89 51.81 78.23 54.53 78.66 57.02C78.99 62.01 84.19 65.91 90.49 65.81C96.94 65.7 102.11 61.43 102.02 56.26C101.97 52.99 99.81 50.14 96.6 48.53C97.55 48.71 98.48 48.99 99.4 49.39L111.61 54.81C118.04 57.65 123.04 49.05 113.75 44.93C106.51 41.73 105.3 40.76 100.27 45.7Z" stroke="#707070" stroke-opacity="0" stroke-width="1.000000"/>
		</g>
		<g style="mix-blend-mode:normal">
			<path id="Path 15856" d="M84.21 65.54C80.53 63.9 77.96 60.81 77.7 57.14C77.29 54.64 77.81 51.86 79.36 48.37C82.29 41.75 88.72 36.57 95.33 39.5C97.5 40.46 99.28 42.05 100.52 44.13C105.06 40 107.09 40.9 112.97 43.53C113.34 43.69 113.73 43.87 114.14 44.05C116.53 45.11 118.27 46.57 119.16 48.28C119.97 49.85 120.05 51.55 119.38 53.06C118.26 55.59 115.02 57.37 111.22 55.69L101.37 51.32C102.39 52.8 102.96 54.48 102.99 56.25C103.03 59.04 101.73 61.68 99.32 63.68C96.98 65.62 93.84 66.72 90.5 66.78C88.22 66.81 86.08 66.36 84.21 65.54ZM94.55 41.27C89.1 38.86 83.67 43.41 81.12 49.16C79.73 52.3 79.25 54.75 79.62 56.86C79.91 61.37 84.69 64.94 90.47 64.84C93.37 64.79 96.08 63.85 98.09 62.19C100.04 60.57 101.09 58.48 101.05 56.28C101.01 53.48 99.18 50.91 96.17 49.39C95.74 49.17 95.53 48.67 95.69 48.22C95.84 47.76 96.31 47.49 96.78 47.58C97.82 47.77 98.84 48.09 99.79 48.51L112 53.92C114.66 55.09 116.87 53.95 117.61 52.28C118.04 51.31 117.98 50.21 117.44 49.17C116.76 47.86 115.35 46.7 113.36 45.82C112.95 45.63 112.56 45.46 112.18 45.29C106.02 42.54 105.23 42.19 100.95 46.39C100.72 46.61 100.4 46.71 100.1 46.66C99.79 46.6 99.52 46.4 99.39 46.11C98.35 43.89 96.67 42.21 94.55 41.27Z" fill="#243047" fill-opacity="1.000000" fill-rule="nonzero"/>
			<path id="Path 15856" d="M77.7 57.14C77.29 54.64 77.81 51.86 79.36 48.37C82.29 41.75 88.72 36.57 95.33 39.5C97.5 40.46 99.28 42.05 100.52 44.13C105.06 40 107.09 40.9 112.97 43.53C113.34 43.69 113.73 43.87 114.14 44.05C116.53 45.11 118.27 46.57 119.16 48.28C119.97 49.85 120.05 51.55 119.38 53.06C118.26 55.59 115.02 57.37 111.22 55.69L101.37 51.32C102.39 52.8 102.96 54.48 102.99 56.25C103.03 59.04 101.73 61.68 99.32 63.68C96.98 65.62 93.84 66.72 90.5 66.78C88.22 66.81 86.08 66.36 84.21 65.54C80.53 63.9 77.96 60.81 77.7 57.14ZM81.12 49.16C79.73 52.3 79.25 54.75 79.62 56.86C79.91 61.37 84.69 64.94 90.47 64.84C93.37 64.79 96.08 63.85 98.09 62.19C100.04 60.57 101.09 58.48 101.05 56.28C101.01 53.48 99.18 50.91 96.17 49.39C95.74 49.17 95.53 48.67 95.69 48.22C95.84 47.76 96.31 47.49 96.78 47.58C97.82 47.77 98.84 48.09 99.79 48.51L112 53.92C114.66 55.09 116.87 53.95 117.61 52.28C118.04 51.31 117.98 50.21 117.44 49.17C116.76 47.86 115.35 46.7 113.36 45.82C112.95 45.63 112.56 45.46 112.18 45.29C106.02 42.54 105.23 42.19 100.95 46.39C100.72 46.61 100.4 46.71 100.1 46.66C99.79 46.6 99.52 46.4 99.39 46.11C98.35 43.89 96.67 42.21 94.55 41.27C89.1 38.86 83.67 43.41 81.12 49.16Z" stroke="#707070" stroke-opacity="0" stroke-width="1.000000"/>
		</g>
		<g style="mix-blend-mode:normal">
			<path id="Path 15857" d="M118.94 47.11C111.24 39.57 101.46 37.09 97.12 41.54C94.55 44.17 93.12 56.49 100.69 66.18C106.74 73.95 111.77 81.82 119.61 78.23C127.45 74.64 129.02 56.97 118.94 47.11Z" fill="#FF3145" fill-opacity="1.000000" fill-rule="nonzero"/>
			<path id="Path 15857" d="M97.12 41.54C94.55 44.17 93.12 56.49 100.69 66.18C106.74 73.95 111.77 81.82 119.61 78.23C127.45 74.64 129.02 56.97 118.94 47.11C111.24 39.57 101.46 37.09 97.12 41.54Z" stroke="#707070" stroke-opacity="0" stroke-width="1.000000"/>
		</g>
		<g style="mix-blend-mode:normal">
			<path id="Path 15858" d="M112.13 79.31C108.22 77.57 104.91 73.27 101.49 68.8C100.97 68.13 100.45 67.45 99.92 66.78C91.97 56.58 93.59 43.77 96.43 40.87C97.99 39.26 100.24 38.4 102.91 38.37C108.08 38.31 114.48 41.39 119.62 46.41C126.48 53.13 127.68 62.65 126.61 68.75C125.73 73.81 123.32 77.59 120.01 79.11C117.06 80.46 114.49 80.35 112.13 79.31ZM109.73 41.89C107.36 40.84 105.03 40.28 102.93 40.3C100.78 40.32 99.01 40.99 97.81 42.22C95.47 44.61 94.38 56.53 101.45 65.59C101.98 66.27 102.5 66.95 103.02 67.62C108.24 74.43 112.75 80.3 119.21 77.35C121.93 76.1 123.94 72.84 124.71 68.42C125.69 62.78 124.59 53.99 118.27 47.8C115.63 45.22 112.65 43.18 109.73 41.89Z" fill="#243047" fill-opacity="1.000000" fill-rule="nonzero"/>
			<path id="Path 15858" d="M101.49 68.8C100.97 68.13 100.45 67.45 99.92 66.78C91.97 56.58 93.59 43.77 96.43 40.87C97.99 39.26 100.24 38.4 102.91 38.37C108.08 38.31 114.48 41.39 119.62 46.41C126.48 53.13 127.68 62.65 126.61 68.75C125.73 73.81 123.32 77.59 120.01 79.11C117.06 80.46 114.49 80.35 112.13 79.31C108.22 77.57 104.91 73.27 101.49 68.8ZM102.93 40.3C100.78 40.32 99.01 40.99 97.81 42.22C95.47 44.61 94.38 56.53 101.45 65.59C101.98 66.27 102.5 66.95 103.02 67.62C108.24 74.43 112.75 80.3 119.21 77.35C121.93 76.1 123.94 72.84 124.71 68.42C125.69 62.78 124.59 53.99 118.27 47.8C115.63 45.22 112.65 43.18 109.73 41.89C107.36 40.84 105.03 40.28 102.93 40.3Z" stroke="#707070" stroke-opacity="0" stroke-width="1.000000"/>
		</g>
		<g style="mix-blend-mode:normal">
			<path id="Path 15859" d="M89.63 89.58C85.41 87.71 85.07 83.96 85.48 82.23C85.6 81.71 86.12 81.39 86.64 81.51C87.16 81.63 87.48 82.16 87.36 82.68C87.33 82.81 86.64 86.14 90.41 87.81C94.11 89.45 95.97 86.89 96.17 86.6C96.47 86.16 97.07 86.04 97.51 86.33C97.95 86.62 98.08 87.22 97.78 87.66C96.81 89.15 93.86 91.45 89.63 89.58Z" fill="#243047" fill-opacity="1.000000" fill-rule="nonzero"/>
			<path id="Path 15859" d="M85.48 82.23C85.6 81.71 86.12 81.39 86.64 81.51C87.16 81.63 87.48 82.16 87.36 82.68C87.33 82.81 86.64 86.14 90.41 87.81C94.11 89.45 95.97 86.89 96.17 86.6C96.47 86.16 97.07 86.04 97.51 86.33C97.95 86.62 98.08 87.22 97.78 87.66C96.81 89.15 93.86 91.45 89.63 89.58C85.41 87.71 85.07 83.96 85.48 82.23Z" stroke="#707070" stroke-opacity="0" stroke-width="1.000000"/>
		</g>
		<g style="mix-blend-mode:normal">
			<path id="Path 15860" d="M54.66 100.68L104.82 122.9C102.69 114.17 95.27 105.65 84.56 100.91C73.84 96.16 62.55 96.39 54.66 100.68Z" fill="#2694ED" fill-opacity="1.000000" fill-rule="nonzero"/>
			<path id="Path 15860" d="M104.82 122.9C102.69 114.17 95.27 105.65 84.56 100.91C73.84 96.16 62.55 96.39 54.66 100.68L104.82 122.9Z" stroke="#707070" stroke-opacity="0" stroke-width="1.000000"/>
		</g>
		<g style="mix-blend-mode:normal">
			<path id="Path 15861" d="M104.42 123.78L54.27 101.56C53.93 101.41 53.71 101.08 53.69 100.72C53.68 100.35 53.87 100 54.2 99.83C62.6 95.26 74.38 95.34 84.95 100.02C95.52 104.7 103.49 113.38 105.76 122.67C105.84 123.03 105.72 123.4 105.44 123.64C105.15 123.87 104.76 123.93 104.42 123.78ZM56.95 100.63L103.31 121.17C100.6 113.2 93.44 105.9 84.17 101.79C74.89 97.68 64.67 97.28 56.95 100.63Z" fill="#243047" fill-opacity="1.000000" fill-rule="nonzero"/>
			<path id="Path 15861" d="M54.27 101.56C53.93 101.41 53.71 101.08 53.69 100.72C53.68 100.35 53.87 100 54.2 99.83C62.6 95.26 74.38 95.34 84.95 100.02C95.52 104.7 103.49 113.38 105.76 122.67C105.84 123.03 105.72 123.4 105.44 123.64C105.15 123.87 104.76 123.93 104.42 123.78L54.27 101.56ZM103.31 121.17C100.6 113.2 93.44 105.9 84.17 101.79C74.89 97.68 64.67 97.28 56.95 100.63L103.31 121.17Z" stroke="#707070" stroke-opacity="0" stroke-width="1.000000"/>
		</g>
		<g style="mix-blend-mode:normal">
			<path id="Path 15841" d="M96.67 149.39L9.15 136.84C6.3 136.6 4.19 134.09 4.44 131.24L10.22 19.28C10.46 16.43 16.88 13.05 19.73 13.29L109.17 20.95C112.02 21.2 114.14 23.7 113.89 26.55L103.65 142.76C103.41 145.61 99.51 149.63 96.67 149.39Z" fill="#243047" fill-opacity="1.000000" fill-rule="nonzero"/>
			<path id="Path 15841" d="M9.15 136.84C6.3 136.6 4.19 134.09 4.44 131.24L10.22 19.28C10.46 16.43 16.88 13.05 19.73 13.29L109.17 20.95C112.02 21.2 114.14 23.7 113.89 26.55L103.65 142.76C103.41 145.61 99.51 149.63 96.67 149.39L9.15 136.84Z" stroke="#707070" stroke-opacity="0" stroke-width="1.000000"/>
		</g>
		<g style="mix-blend-mode:normal">
			<path id="Path 15842" d="M16.11 15.73L108.13 23.6C110.5 23.8 112.25 25.88 112.05 28.24L102.12 144.26C101.92 146.62 99.84 148.37 97.48 148.17L5.45 140.29C3.09 140.09 1.34 138.01 1.54 135.65L11.47 19.64C11.67 17.28 13.75 15.53 16.11 15.73Z" fill="#FFFFFF" fill-opacity="1.000000" fill-rule="nonzero"/>
			<path id="Path 15842" d="M108.13 23.6C110.5 23.8 112.25 25.88 112.05 28.24L102.12 144.26C101.92 146.62 99.84 148.37 97.48 148.17L5.45 140.29C3.09 140.09 1.34 138.01 1.54 135.65L11.47 19.64C11.67 17.28 13.75 15.53 16.11 15.73L108.13 23.6Z" stroke="#707070" stroke-opacity="0" stroke-width="1.000000"/>
		</g>
		<g style="mix-blend-mode:normal">
			<path id="Path 15843" d="M97.38 149.14L5.35 141.26C2.46 141.02 0.31 138.46 0.56 135.57L10.5 19.56C10.74 16.67 13.3 14.52 16.19 14.77L108.21 22.65C111.1 22.9 113.25 25.45 113 28.34L103.07 144.35C102.82 147.24 100.27 149.39 97.38 149.14ZM16.02 16.7C14.2 16.54 12.58 17.9 12.43 19.73L2.49 135.74C2.33 137.57 3.69 139.18 5.52 139.34L97.54 147.22C99.37 147.37 100.98 146.01 101.14 144.19L111.08 28.17C111.23 26.35 109.87 24.73 108.05 24.58L16.02 16.7Z" fill="#243047" fill-opacity="1.000000" fill-rule="nonzero"/>
			<path id="Path 15843" d="M5.35 141.26C2.46 141.02 0.31 138.46 0.56 135.57L10.5 19.56C10.74 16.67 13.3 14.52 16.19 14.77L108.21 22.65C111.1 22.9 113.25 25.45 113 28.34L103.07 144.35C102.82 147.24 100.27 149.39 97.38 149.14L5.35 141.26ZM12.43 19.73L2.49 135.74C2.33 137.57 3.69 139.18 5.52 139.34L97.54 147.22C99.37 147.37 100.98 146.01 101.14 144.19L111.08 28.17C111.23 26.35 109.87 24.73 108.05 24.58L16.02 16.7C14.2 16.54 12.58 17.9 12.43 19.73Z" stroke="#707070" stroke-opacity="0" stroke-width="1.000000"/>
		</g>
		<g style="mix-blend-mode:normal">
			<rect id="Rectangle 2657" x="23.082764" y="29.876465" width="76.062828" height="86.046684" transform="rotate(4.8901 23.082764 29.876465)" fill="#FDC83B" fill-opacity="1.000000"/>
			<rect id="Rectangle 2657" x="23.082764" y="29.876465" width="76.062828" height="86.046684" transform="rotate(4.8901 23.082764 29.876465)" stroke="#707070" stroke-opacity="0" stroke-width="1.000000"/>
		</g>
		<g style="mix-blend-mode:normal">
			<path id="Path 15844" d="M91.43 123.06L15.65 116.57C15.11 116.53 14.72 116.06 14.77 115.53L22.11 29.79C22.15 29.26 22.62 28.87 23.15 28.91L98.94 35.4C99.47 35.45 99.87 35.92 99.82 36.45L92.48 122.18C92.43 122.72 91.97 123.11 91.43 123.06ZM16.78 114.73L90.63 121.06L97.81 37.25L23.95 30.92L16.78 114.73Z" fill="#243047" fill-opacity="1.000000" fill-rule="nonzero"/>
			<path id="Path 15844" d="M15.65 116.57C15.11 116.53 14.72 116.06 14.77 115.53L22.11 29.79C22.15 29.26 22.62 28.87 23.15 28.91L98.94 35.4C99.47 35.45 99.87 35.92 99.82 36.45L92.48 122.18C92.43 122.72 91.97 123.11 91.43 123.06L15.65 116.57ZM90.63 121.06L97.81 37.25L23.95 30.92L16.78 114.73L90.63 121.06Z" stroke="#707070" stroke-opacity="0" stroke-width="1.000000"/>
		</g>
		<g style="mix-blend-mode:normal">
			<path id="Path 15845" d="M78.08 56.81C73.87 55.68 68.92 60.11 66.42 66.96L50.81 65.62C51.07 58.68 48.5 53.04 44.37 52.29C39.5 51.42 34.3 57.68 32.75 66.29C32.09 69.97 32.21 73.49 32.95 76.38C32.64 77.38 32.44 78.43 32.34 79.52L31.06 94.54C30.33 103.03 36.62 110.5 45.11 111.23L63.73 112.82C72.22 113.55 79.69 107.26 80.42 98.77L81.7 83.75C81.88 81.69 81.64 79.7 81.06 77.84C81.66 76.56 82.17 75.17 82.57 73.69C84.74 65.62 82.73 58.07 78.08 56.81Z" fill="#FF3145" fill-opacity="1.000000" fill-rule="nonzero"/>
			<path id="Path 15845" d="M66.42 66.96L50.81 65.62C51.07 58.68 48.5 53.04 44.37 52.29C39.5 51.42 34.3 57.68 32.75 66.29C32.09 69.97 32.21 73.49 32.95 76.38C32.64 77.38 32.44 78.43 32.34 79.52L31.06 94.54C30.33 103.03 36.62 110.5 45.11 111.23L63.73 112.82C72.22 113.55 79.69 107.26 80.42 98.77L81.7 83.75C81.88 81.69 81.64 79.7 81.06 77.84C81.66 76.56 82.17 75.17 82.57 73.69C84.74 65.62 82.73 58.07 78.08 56.81C73.87 55.68 68.92 60.11 66.42 66.96Z" stroke="#707070" stroke-opacity="0" stroke-width="1.000000"/>
		</g>
		<g style="mix-blend-mode:normal">
			<path id="Path 15846" d="M63.65 113.79L45.03 112.19C36.02 111.42 29.32 103.46 30.09 94.46L31.38 79.44C31.47 78.4 31.66 77.36 31.94 76.36C31.2 73.26 31.15 69.73 31.8 66.11C33.47 56.85 39.06 50.36 44.54 51.34C48.9 52.12 51.82 57.57 51.8 64.73L65.77 65.93C68.59 58.86 73.79 54.65 78.33 55.88C80.93 56.58 82.88 58.91 83.82 62.45C84.71 65.8 84.6 69.88 83.5 73.94C83.13 75.31 82.66 76.65 82.09 77.91C82.65 79.84 82.84 81.83 82.67 83.83L81.38 98.85C80.61 107.86 72.65 114.56 63.65 113.79ZM43.82 53.2C39.65 52.84 35.09 58.76 33.71 66.46C33.1 69.85 33.16 73.29 33.88 76.14C33.93 76.31 33.92 76.49 33.87 76.65C33.58 77.61 33.39 78.6 33.31 79.6L32.02 94.62C31.34 102.57 37.25 109.58 45.2 110.26L63.81 111.86C71.76 112.54 78.77 106.63 79.45 98.68L80.74 83.66C80.9 81.79 80.7 79.92 80.14 78.13C80.07 77.9 80.08 77.65 80.19 77.43C80.77 76.17 81.26 74.82 81.64 73.43C82.65 69.69 82.76 65.97 81.95 62.94C81.2 60.1 79.73 58.26 77.83 57.74C74.19 56.76 69.68 60.87 67.33 67.29C67.18 67.7 66.77 67.96 66.34 67.92L50.73 66.58C50.22 66.54 49.83 66.1 49.85 65.58C50.09 59.06 47.72 53.88 44.2 53.25C44.08 53.22 43.95 53.21 43.82 53.2Z" fill="#243047" fill-opacity="1.000000" fill-rule="nonzero"/>
			<path id="Path 15846" d="M45.03 112.19C36.02 111.42 29.32 103.46 30.09 94.46L31.38 79.44C31.47 78.4 31.66 77.36 31.94 76.36C31.2 73.26 31.15 69.73 31.8 66.11C33.47 56.85 39.06 50.36 44.54 51.34C48.9 52.12 51.82 57.57 51.8 64.73L65.77 65.93C68.59 58.86 73.79 54.65 78.33 55.88C80.93 56.58 82.88 58.91 83.82 62.45C84.71 65.8 84.6 69.88 83.5 73.94C83.13 75.31 82.66 76.65 82.09 77.91C82.65 79.84 82.84 81.83 82.67 83.83L81.38 98.85C80.61 107.86 72.65 114.56 63.65 113.79L45.03 112.19ZM33.71 66.46C33.1 69.85 33.16 73.29 33.88 76.14C33.93 76.31 33.92 76.49 33.87 76.65C33.58 77.61 33.39 78.6 33.31 79.6L32.02 94.62C31.34 102.57 37.25 109.58 45.2 110.26L63.81 111.86C71.76 112.54 78.77 106.63 79.45 98.68L80.74 83.66C80.9 81.79 80.7 79.92 80.14 78.13C80.07 77.9 80.08 77.65 80.19 77.43C80.77 76.17 81.26 74.82 81.64 73.43C82.65 69.69 82.76 65.97 81.95 62.94C81.2 60.1 79.73 58.26 77.83 57.74C74.19 56.76 69.68 60.87 67.33 67.29C67.18 67.7 66.77 67.96 66.34 67.92L50.73 66.58C50.22 66.54 49.83 66.1 49.85 65.58C50.09 59.06 47.72 53.88 44.2 53.25C44.08 53.22 43.95 53.21 43.82 53.2C39.65 52.84 35.09 58.76 33.71 66.46Z" stroke="#707070" stroke-opacity="0" stroke-width="1.000000"/>
		</g>
		<g style="mix-blend-mode:normal">
			<rect id="Rectangle 2658" x="50.149414" y="97.876465" width="10.534110" height="20.389648" transform="rotate(4.8901 50.149414 97.876465)" fill="#7975FF" fill-opacity="1.000000"/>
			<rect id="Rectangle 2658" x="50.149414" y="97.876465" width="10.534110" height="20.389648" transform="rotate(4.8901 50.149414 97.876465)" stroke="#707070" stroke-opacity="0" stroke-width="1.000000"/>
		</g>
		<g style="mix-blend-mode:normal">
			<path id="Path 15847" d="M58.81 120.06L48.31 119.16C47.78 119.11 47.38 118.65 47.43 118.11L49.17 97.8C49.21 97.27 49.68 96.87 50.22 96.92L60.71 97.82C61.24 97.86 61.64 98.33 61.59 98.86L59.85 119.18C59.81 119.71 59.34 120.1 58.81 120.06ZM49.44 117.32L58.01 118.05L59.58 99.66L51.01 98.93L49.44 117.32Z" fill="#243047" fill-opacity="1.000000" fill-rule="nonzero"/>
			<path id="Path 15847" d="M48.31 119.16C47.78 119.11 47.38 118.65 47.43 118.11L49.17 97.8C49.21 97.27 49.68 96.87 50.22 96.92L60.71 97.82C61.24 97.86 61.64 98.33 61.59 98.86L59.85 119.18C59.81 119.71 59.34 120.1 58.81 120.06L48.31 119.16ZM58.01 118.05L59.58 99.66L51.01 98.93L49.44 117.32L58.01 118.05Z" stroke="#707070" stroke-opacity="0" stroke-width="1.000000"/>
		</g>
		<g style="mix-blend-mode:normal">
			<path id="Path 15848" d="M38.28 70.79C38.09 73 36.14 74.64 33.93 74.45C31.72 74.26 30.08 72.32 30.27 70.1C30.46 67.89 32.4 66.25 34.62 66.44C36.83 66.63 38.47 68.58 38.28 70.79Z" fill="#7975FF" fill-opacity="1.000000" fill-rule="nonzero"/>
			<path id="Path 15848" d="M33.93 74.45C31.72 74.26 30.08 72.32 30.27 70.1C30.46 67.89 32.4 66.25 34.62 66.44C36.83 66.63 38.47 68.58 38.28 70.79C38.09 73 36.14 74.64 33.93 74.45Z" stroke="#707070" stroke-opacity="0" stroke-width="1.000000"/>
		</g>
		<g style="mix-blend-mode:normal">
			<path id="Path 15849" d="M33.85 75.42C31.11 75.18 29.07 72.76 29.3 70.02C29.54 67.28 31.96 65.24 34.7 65.48C37.44 65.71 39.48 68.13 39.24 70.87C39.01 73.61 36.59 75.65 33.85 75.42ZM34.53 67.4C32.86 67.26 31.37 68.51 31.23 70.19C31.09 71.87 32.33 73.35 34.01 73.49C35.69 73.63 37.17 72.39 37.32 70.71C37.46 69.03 36.21 67.55 34.53 67.4Z" fill="#243047" fill-opacity="1.000000" fill-rule="nonzero"/>
			<path id="Path 15849" d="M29.3 70.02C29.54 67.28 31.96 65.24 34.7 65.48C37.44 65.71 39.48 68.13 39.24 70.87C39.01 73.61 36.59 75.65 33.85 75.42C31.11 75.18 29.07 72.76 29.3 70.02ZM31.23 70.19C31.09 71.87 32.33 73.35 34.01 73.49C35.69 73.63 37.17 72.39 37.32 70.71C37.46 69.03 36.21 67.55 34.53 67.4C32.86 67.26 31.37 68.51 31.23 70.19Z" stroke="#707070" stroke-opacity="0" stroke-width="1.000000"/>
		</g>
		<g style="mix-blend-mode:normal">
			<circle id="Ellipse 340" r="4.020866" transform="matrix(0.764918 -0.644128 0.644128 0.764918 80.9285 74.4604)" fill="#7975FF" fill-opacity="1.000000"/>
			<circle id="Ellipse 340" r="4.020866" transform="matrix(0.764918 -0.644128 0.644128 0.764918 80.9285 74.4604)" stroke="#707070" stroke-opacity="0" stroke-width="1.000000"/>
		</g>
		<g style="mix-blend-mode:normal">
			<path id="Path 15850" d="M80.5 79.41C77.76 79.18 75.72 76.76 75.95 74.02C76.19 71.28 78.61 69.24 81.35 69.47C84.09 69.71 86.13 72.13 85.89 74.87C85.66 77.61 83.24 79.65 80.5 79.41ZM81.18 71.4C79.5 71.26 78.02 72.5 77.88 74.18C77.74 75.86 78.98 77.34 80.66 77.49C82.34 77.63 83.82 76.38 83.97 74.7C84.11 73.02 82.86 71.54 81.18 71.4Z" fill="#243047" fill-opacity="1.000000" fill-rule="nonzero"/>
			<path id="Path 15850" d="M75.95 74.02C76.19 71.28 78.61 69.24 81.35 69.47C84.09 69.71 86.13 72.13 85.89 74.87C85.66 77.61 83.24 79.65 80.5 79.41C77.76 79.18 75.72 76.76 75.95 74.02ZM77.88 74.18C77.74 75.86 78.98 77.34 80.66 77.49C82.34 77.63 83.82 76.38 83.97 74.7C84.11 73.02 82.86 71.54 81.18 71.4C79.5 71.26 78.02 72.5 77.88 74.18Z" stroke="#707070" stroke-opacity="0" stroke-width="1.000000"/>
		</g>
		<g style="mix-blend-mode:normal">
			<path id="Path 15851" d="M54.87 101.76C42.9 100.74 33.96 90.11 34.98 78.15L36 66.2C36.8 56.87 45.09 49.9 54.41 50.69L64 51.52C73.33 52.31 80.3 60.6 79.5 69.92L78.48 81.87C77.46 93.84 66.83 102.79 54.87 101.76Z" fill="#7975FF" fill-opacity="1.000000" fill-rule="nonzero"/>
			<path id="Path 15851" d="M34.98 78.15L36 66.2C36.8 56.87 45.09 49.9 54.41 50.69L64 51.52C73.33 52.31 80.3 60.6 79.5 69.92L78.48 81.87C77.46 93.84 66.83 102.79 54.87 101.76C42.9 100.74 33.96 90.11 34.98 78.15Z" stroke="#707070" stroke-opacity="0" stroke-width="1.000000"/>
		</g>
		<g style="mix-blend-mode:normal">
			<path id="Path 15852" d="M54.79 102.72C42.26 101.65 32.94 90.59 34.02 78.06L35.04 66.12C35.89 56.24 44.61 48.88 54.49 49.73L64.08 50.55C73.96 51.4 81.31 60.13 80.47 70.01L79.44 81.95C78.37 94.48 67.31 103.8 54.79 102.72ZM54.33 51.66C45.51 50.9 37.72 57.46 36.97 66.28L35.94 78.23C34.96 89.69 43.49 99.81 54.95 100.8C66.41 101.78 76.53 93.25 77.52 81.79L78.54 69.84C79.29 61.02 72.73 53.23 63.92 52.48L54.33 51.66Z" fill="#243047" fill-opacity="1.000000" fill-rule="nonzero"/>
			<path id="Path 15852" d="M34.02 78.06L35.04 66.12C35.89 56.24 44.61 48.88 54.49 49.73L64.08 50.55C73.96 51.4 81.31 60.13 80.47 70.01L79.44 81.95C78.37 94.48 67.31 103.8 54.79 102.72C42.26 101.65 32.94 90.59 34.02 78.06ZM36.97 66.28L35.94 78.23C34.96 89.69 43.49 99.81 54.95 100.8C66.41 101.78 76.53 93.25 77.52 81.79L78.54 69.84C79.29 61.02 72.73 53.23 63.92 52.48L54.33 51.66C45.51 50.9 37.72 57.46 36.97 66.28Z" stroke="#707070" stroke-opacity="0" stroke-width="1.000000"/>
		</g>
		<g style="mix-blend-mode:normal">
			<path id="Path 15853" d="M49.51 75.24C49.38 76.68 48.58 77.79 47.72 77.71C46.86 77.64 46.26 76.41 46.38 74.97C46.5 73.54 47.3 72.43 48.17 72.5C49.03 72.58 49.63 73.8 49.51 75.24Z" fill="#243047" fill-opacity="1.000000" fill-rule="nonzero"/>
			<path id="Path 15853" d="M47.72 77.71C46.86 77.64 46.26 76.41 46.38 74.97C46.5 73.54 47.3 72.43 48.17 72.5C49.03 72.58 49.63 73.8 49.51 75.24C49.38 76.68 48.58 77.79 47.72 77.71Z" stroke="#707070" stroke-opacity="0" stroke-width="1.000000"/>
		</g>
		<g style="mix-blend-mode:normal">
			<ellipse id="Ellipse 341" rx="1.569247" ry="2.615412" transform="matrix(0.996345 0.0854149 -0.0854149 0.996345 66.655 76.7261)" fill="#243047" fill-opacity="1.000000"/>
			<ellipse id="Ellipse 341" rx="1.569247" ry="2.615412" transform="matrix(0.996345 0.0854149 -0.0854149 0.996345 66.655 76.7261)" stroke="#707070" stroke-opacity="0" stroke-width="1.000000"/>
		</g>
		<g style="mix-blend-mode:normal">
			<path id="Path 15854" d="M55.96 80.95L58.04 81.12C59.08 81.21 59.85 82.13 59.76 83.17L59.75 83.33C59.66 84.37 58.74 85.14 57.7 85.05L55.63 84.87C54.59 84.78 53.81 83.87 53.9 82.83L53.92 82.67C54.01 81.63 54.92 80.86 55.96 80.95Z" fill="#243047" fill-opacity="1.000000" fill-rule="nonzero"/>
			<path id="Path 15854" d="M58.04 81.12C59.08 81.21 59.85 82.13 59.76 83.17L59.75 83.33C59.66 84.37 58.74 85.14 57.7 85.05L55.63 84.87C54.59 84.78 53.81 83.87 53.9 82.83L53.92 82.67C54.01 81.63 54.92 80.86 55.96 80.95L58.04 81.12Z" stroke="#707070" stroke-opacity="0" stroke-width="1.000000"/>
		</g>
		<g style="mix-blend-mode:normal">
			<path id="Path 15855" d="M64.03 44.36C56.14 43.69 54.69 43.16 51.54 49.48C49.74 47.63 47.4 46.41 44.77 46.19C38.44 45.65 34.21 51.76 33.6 58.9C33.31 62.21 33.58 65 34.79 67.22C36.73 71.83 42.91 73.82 48.83 71.67C54.9 69.47 58.39 63.75 56.63 58.89C55.52 55.82 52.55 53.83 48.99 53.34C49.94 53.2 50.92 53.17 51.92 53.25L65.23 54.39C72.23 54.99 74.16 45.23 64.03 44.36Z" fill="#FF3145" fill-opacity="1.000000" fill-rule="nonzero"/>
			<path id="Path 15855" d="M51.54 49.48C49.74 47.63 47.4 46.41 44.77 46.19C38.44 45.65 34.21 51.76 33.6 58.9C33.31 62.21 33.58 65 34.79 67.22C36.73 71.83 42.91 73.82 48.83 71.67C54.9 69.47 58.39 63.75 56.63 58.89C55.52 55.82 52.55 53.83 48.99 53.34C49.94 53.2 50.92 53.17 51.92 53.25L65.23 54.39C72.23 54.99 74.16 45.23 64.03 44.36C56.14 43.69 54.69 43.16 51.54 49.48Z" stroke="#707070" stroke-opacity="0" stroke-width="1.000000"/>
		</g>
		<g style="mix-blend-mode:normal">
			<path id="Path 15856" d="M42.82 73.46C38.8 73.11 35.37 71.02 33.92 67.64C32.72 65.42 32.31 62.61 32.64 58.81C33.25 51.59 37.65 44.61 44.85 45.22C47.22 45.43 49.41 46.35 51.27 47.91C54.21 42.52 56.43 42.72 62.84 43.29C63.25 43.32 63.67 43.36 64.11 43.4C66.72 43.62 68.84 44.44 70.24 45.76C71.52 46.98 72.15 48.56 72.01 50.22C71.77 52.97 69.28 55.71 65.15 55.36L54.4 54.43C55.85 55.5 56.94 56.9 57.54 58.56C58.5 61.19 58.13 64.11 56.5 66.78C54.91 69.38 52.31 71.44 49.17 72.58C47.02 73.36 44.84 73.63 42.82 73.46ZM44.68 47.15C38.75 46.64 35.1 52.72 34.56 58.98C34.27 62.4 34.61 64.87 35.64 66.75C37.39 70.92 43.07 72.74 48.51 70.76C51.24 69.77 53.49 68 54.85 65.77C56.16 63.61 56.47 61.29 55.72 59.22C54.77 56.59 52.2 54.75 48.86 54.3C48.38 54.24 48.03 53.83 48.02 53.35C48.02 52.87 48.37 52.46 48.85 52.39C49.9 52.23 50.96 52.2 52 52.29L65.31 53.43C68.2 53.67 69.92 51.87 70.08 50.05C70.17 48.99 69.75 47.97 68.9 47.17C67.83 46.15 66.12 45.51 63.95 45.32C63.5 45.29 63.08 45.25 62.67 45.21C55.94 44.62 55.08 44.54 52.4 49.91C52.26 50.19 52 50.39 51.69 50.43C51.37 50.48 51.06 50.38 50.84 50.15C49.13 48.39 47 47.35 44.68 47.15Z" fill="#243047" fill-opacity="1.000000" fill-rule="nonzero"/>
			<path id="Path 15856" d="M33.92 67.64C32.72 65.42 32.31 62.61 32.64 58.81C33.25 51.59 37.65 44.61 44.85 45.22C47.22 45.43 49.41 46.35 51.27 47.91C54.21 42.52 56.43 42.72 62.84 43.29C63.25 43.32 63.67 43.36 64.11 43.4C66.72 43.62 68.84 44.44 70.24 45.76C71.52 46.98 72.15 48.56 72.01 50.22C71.77 52.97 69.28 55.71 65.15 55.36L54.4 54.43C55.85 55.5 56.94 56.9 57.54 58.56C58.5 61.19 58.13 64.11 56.5 66.78C54.91 69.38 52.31 71.44 49.17 72.58C47.02 73.36 44.84 73.63 42.82 73.46C38.8 73.11 35.37 71.02 33.92 67.64ZM34.56 58.98C34.27 62.4 34.61 64.87 35.64 66.75C37.39 70.92 43.07 72.74 48.51 70.76C51.24 69.77 53.49 68 54.85 65.77C56.16 63.61 56.47 61.29 55.72 59.22C54.77 56.59 52.2 54.75 48.86 54.3C48.38 54.24 48.03 53.83 48.02 53.35C48.02 52.87 48.37 52.46 48.85 52.39C49.9 52.23 50.96 52.2 52 52.29L65.31 53.43C68.2 53.67 69.92 51.87 70.08 50.05C70.17 48.99 69.75 47.97 68.9 47.17C67.83 46.15 66.12 45.51 63.95 45.32C63.5 45.29 63.08 45.25 62.67 45.21C55.94 44.62 55.08 44.54 52.4 49.91C52.26 50.19 52 50.39 51.69 50.43C51.37 50.48 51.06 50.38 50.84 50.15C49.13 48.39 47 47.35 44.68 47.15C38.75 46.64 35.1 52.72 34.56 58.98Z" stroke="#707070" stroke-opacity="0" stroke-width="1.000000"/>
		</g>
		<g style="mix-blend-mode:normal">
			<path id="Path 15857" d="M69.65 44.73C59.92 40.11 49.86 40.95 47.21 46.57C45.64 49.89 48.29 62 58.6 68.71C66.85 74.08 74.17 79.88 80.41 73.93C86.65 67.99 82.4 50.77 69.65 44.73Z" fill="#FF3145" fill-opacity="1.000000" fill-rule="nonzero"/>
			<path id="Path 15857" d="M47.21 46.57C45.64 49.89 48.29 62 58.6 68.71C66.85 74.08 74.17 79.88 80.41 73.93C86.65 67.99 82.4 50.77 69.65 44.73C59.92 40.11 49.86 40.95 47.21 46.57Z" stroke="#707070" stroke-opacity="0" stroke-width="1.000000"/>
		</g>
		<g style="mix-blend-mode:normal">
			<path id="Path 15858" d="M73.69 77.39C69.43 77.02 64.9 74.03 60.21 70.92C59.5 70.46 58.79 69.99 58.07 69.52C47.23 62.47 44.59 49.83 46.33 46.16C47.29 44.13 49.13 42.58 51.65 41.68C56.52 39.94 63.58 40.77 70.07 43.85C78.74 47.97 82.97 56.58 83.95 62.69C84.77 67.77 83.72 72.12 81.08 74.63C78.73 76.87 76.26 77.61 73.69 77.39ZM59.25 42.79C56.66 42.57 54.27 42.8 52.3 43.5C50.27 44.23 48.81 45.43 48.08 46.98C46.65 50.01 49.5 61.63 59.13 67.9C59.85 68.37 60.57 68.84 61.28 69.31C68.43 74.04 74.61 78.13 79.75 73.23C81.92 71.17 82.75 67.44 82.04 63C81.13 57.35 77.24 49.4 69.24 45.6C65.9 44.02 62.43 43.06 59.25 42.79Z" fill="#243047" fill-opacity="1.000000" fill-rule="nonzero"/>
			<path id="Path 15858" d="M60.21 70.92C59.5 70.46 58.79 69.99 58.07 69.52C47.23 62.47 44.59 49.83 46.33 46.16C47.29 44.13 49.13 42.58 51.65 41.68C56.52 39.94 63.58 40.77 70.07 43.85C78.74 47.97 82.97 56.58 83.95 62.69C84.77 67.77 83.72 72.12 81.08 74.63C78.73 76.87 76.26 77.61 73.69 77.39C69.43 77.02 64.9 74.03 60.21 70.92ZM52.3 43.5C50.27 44.23 48.81 45.43 48.08 46.98C46.65 50.01 49.5 61.63 59.13 67.9C59.85 68.37 60.57 68.84 61.28 69.31C68.43 74.04 74.61 78.13 79.75 73.23C81.92 71.17 82.75 67.44 82.04 63C81.13 57.35 77.24 49.4 69.24 45.6C65.9 44.02 62.43 43.06 59.25 42.79C56.66 42.57 54.27 42.8 52.3 43.5Z" stroke="#707070" stroke-opacity="0" stroke-width="1.000000"/>
		</g>
		<g style="mix-blend-mode:normal">
			<path id="Path 15859" d="M55.76 94.43C51.17 94.04 49.62 90.6 49.44 88.83C49.39 88.3 49.78 87.83 50.31 87.78C50.84 87.72 51.32 88.11 51.37 88.64C51.38 88.78 51.81 92.15 55.93 92.5C59.96 92.85 60.88 89.83 60.98 89.48C61.11 88.97 61.64 88.66 62.16 88.79C62.67 88.92 62.98 89.45 62.85 89.96C62.41 91.68 60.37 94.82 55.76 94.43Z" fill="#243047" fill-opacity="1.000000" fill-rule="nonzero"/>
			<path id="Path 15859" d="M49.44 88.83C49.39 88.3 49.78 87.83 50.31 87.78C50.84 87.72 51.32 88.11 51.37 88.64C51.38 88.78 51.81 92.15 55.93 92.5C59.96 92.85 60.88 89.83 60.98 89.48C61.11 88.97 61.64 88.66 62.16 88.79C62.67 88.92 62.98 89.45 62.85 89.96C62.41 91.68 60.37 94.82 55.76 94.43C51.17 94.04 49.62 90.6 49.44 88.83Z" stroke="#707070" stroke-opacity="0" stroke-width="1.000000"/>
		</g>
		<g style="mix-blend-mode:normal">
			<path id="Path 15860" d="M26.31 116.31L80.97 120.99C76.12 113.43 66.33 107.79 54.66 106.79C42.98 105.79 32.38 109.68 26.31 116.31Z" fill="#2694ED" fill-opacity="1.000000" fill-rule="nonzero"/>
			<path id="Path 15860" d="M80.97 120.99C76.12 113.43 66.33 107.79 54.66 106.79C42.98 105.79 32.38 109.68 26.31 116.31L80.97 120.99Z" stroke="#707070" stroke-opacity="0" stroke-width="1.000000"/>
		</g>
		<g style="mix-blend-mode:normal">
			<path id="Path 15861" d="M80.89 121.95L26.23 117.27C25.86 117.24 25.54 117 25.41 116.66C25.28 116.31 25.35 115.92 25.6 115.65C32.06 108.6 43.22 104.84 54.74 105.83C66.26 106.81 76.62 112.42 81.78 120.46C81.98 120.77 81.99 121.17 81.8 121.49C81.61 121.8 81.25 121.98 80.89 121.95ZM28.47 115.52L78.98 119.85C73.83 113.19 64.68 108.62 54.57 107.75C44.46 106.89 34.68 109.84 28.47 115.52Z" fill="#243047" fill-opacity="1.000000" fill-rule="nonzero"/>
			<path id="Path 15861" d="M26.23 117.27C25.86 117.24 25.54 117 25.41 116.66C25.28 116.31 25.35 115.92 25.6 115.65C32.06 108.6 43.22 104.84 54.74 105.83C66.26 106.81 76.62 112.42 81.78 120.46C81.98 120.77 81.99 121.17 81.8 121.49C81.61 121.8 81.25 121.98 80.89 121.95L26.23 117.27ZM78.98 119.85C73.83 113.19 64.68 108.62 54.57 107.75C44.46 106.89 34.68 109.84 28.47 115.52L78.98 119.85Z" stroke="#707070" stroke-opacity="0" stroke-width="1.000000"/>
		</g>
	</g>
</svg>
