<svg width="182.069580" height="191.716797" viewBox="0 0 182.07 191.717" fill="none" xmlns="http://www.w3.org/2000/svg" xmlns:xlink="http://www.w3.org/1999/xlink">
	<desc>
			Created with Pixso.
	</desc>
	<defs/>
	<g opacity="0.300000">
		<g style="mix-blend-mode:normal">
			<path id="Path 15665" d="M181.18 185.81C181.67 183.51 141.79 173.08 92.1 162.51C42.41 151.95 1.74 145.26 1.25 147.57C0.96 148.9 14.17 152.95 34.97 158.17C39.17 160.63 56.46 165.47 77.4 169.92C94.94 173.65 110.25 176.08 117.61 176.46C154.09 183.66 180.78 187.68 181.18 185.81Z" fill="#000072" fill-opacity="1.000000" fill-rule="nonzero"/>
			<path id="Path 15665" d="M92.1 162.51C42.41 151.95 1.74 145.26 1.25 147.57C0.96 148.9 14.17 152.95 34.97 158.17C39.17 160.63 56.46 165.47 77.4 169.92C94.94 173.65 110.25 176.08 117.61 176.46C154.09 183.66 180.78 187.68 181.18 185.81C181.67 183.51 141.79 173.08 92.1 162.51Z" stroke="#707070" stroke-opacity="0" stroke-width="1.000000"/>
		</g>
	</g>
	<g style="mix-blend-mode:normal">
		<path id="Path 15666" d="M10.26 146.12C13.8 146.17 17.24 146.72 20.66 147.37C24.08 148 27.47 148.77 30.86 149.54L35.96 150.67L41.06 151.75L153.31 175.61L158.41 176.7C160.11 177.06 161.82 177.36 163.53 177.7C165.24 178.03 166.93 178.43 168.61 178.91C170.28 179.4 171.94 179.97 173.53 180.82C173.76 180.94 173.84 181.22 173.72 181.45C173.65 181.59 173.5 181.68 173.35 181.69C171.54 181.82 169.8 181.67 168.07 181.44C166.34 181.19 164.63 180.87 162.94 180.48C161.25 180.09 159.56 179.67 157.86 179.31L152.75 178.22L40.5 154.36L35.4 153.28L30.29 152.24C26.88 151.57 23.47 150.89 20.08 150.08C16.7 149.28 13.33 148.38 10.08 146.99C9.85 146.89 9.74 146.62 9.84 146.39C9.91 146.22 10.08 146.12 10.26 146.12Z" fill="#000072" fill-opacity="1.000000" fill-rule="nonzero"/>
		<path id="Path 15666" d="M20.66 147.37C24.08 148 27.47 148.77 30.86 149.54L35.96 150.67L41.06 151.75L153.31 175.61L158.41 176.7C160.11 177.06 161.82 177.36 163.53 177.7C165.24 178.03 166.93 178.43 168.61 178.91C170.28 179.4 171.94 179.97 173.53 180.82C173.76 180.94 173.84 181.22 173.72 181.45C173.65 181.59 173.5 181.68 173.35 181.69C171.54 181.82 169.8 181.67 168.07 181.44C166.34 181.19 164.63 180.87 162.94 180.48C161.25 180.09 159.56 179.67 157.86 179.31L152.75 178.22L40.5 154.36L35.4 153.28L30.29 152.24C26.88 151.57 23.47 150.89 20.08 150.08C16.7 149.28 13.33 148.38 10.08 146.99C9.85 146.89 9.74 146.62 9.84 146.39C9.91 146.22 10.08 146.12 10.26 146.12C13.8 146.17 17.24 146.72 20.66 147.37Z" stroke="#707070" stroke-opacity="0" stroke-width="1.000000"/>
	</g>
	<g style="mix-blend-mode:normal">
		<path id="Path 15667" d="M107.58 86.44C91.46 83.01 80.26 68.52 80.83 52.27C79.77 52.36 78.7 52.29 77.65 52.07C71.83 50.83 68.1 45.09 69.34 39.27C70.46 33.98 75.3 30.42 80.53 30.73C80.54 30 80.62 29.26 80.77 28.52C82.01 22.7 87.75 18.97 93.57 20.21C94 20.3 94.41 20.41 94.82 20.55C96.28 15.04 101.85 11.57 107.5 12.77C109.5 13.2 111.31 14.17 112.76 15.57C115.25 12.33 119.41 10.73 123.55 11.61C127.69 12.49 130.84 15.64 131.8 19.62C133.69 18.92 135.74 18.77 137.74 19.2C143.39 20.4 147.06 25.83 146.16 31.47C146.59 31.5 147.01 31.57 147.44 31.66C153.26 32.9 156.99 38.64 155.75 44.46C155.59 45.2 155.37 45.9 155.07 46.58C159.98 48.42 162.95 53.64 161.83 58.93C160.59 64.75 154.85 68.48 149.02 67.24C147.93 67.01 146.89 66.61 145.92 66.06C139.84 81.17 123.72 89.87 107.58 86.44Z" fill="#FFD54F" fill-opacity="1.000000" fill-rule="nonzero"/>
		<path id="Path 15667" d="M80.83 52.27C79.77 52.36 78.7 52.29 77.65 52.07C71.83 50.83 68.1 45.09 69.34 39.27C70.46 33.98 75.3 30.42 80.53 30.73C80.54 30 80.62 29.26 80.77 28.52C82.01 22.7 87.75 18.97 93.57 20.21C94 20.3 94.41 20.41 94.82 20.55C96.28 15.04 101.85 11.57 107.5 12.77C109.5 13.2 111.31 14.17 112.76 15.57C115.25 12.33 119.41 10.73 123.55 11.61C127.69 12.49 130.84 15.64 131.8 19.62C133.69 18.92 135.74 18.77 137.74 19.2C143.39 20.4 147.06 25.83 146.16 31.47C146.59 31.5 147.01 31.57 147.44 31.66C153.26 32.9 156.99 38.64 155.75 44.46C155.59 45.2 155.37 45.9 155.07 46.58C159.98 48.42 162.95 53.64 161.83 58.93C160.59 64.75 154.85 68.48 149.02 67.24C147.93 67.01 146.89 66.61 145.92 66.06C139.84 81.17 123.72 89.87 107.58 86.44C91.46 83.01 80.26 68.52 80.83 52.27Z" stroke="#707070" stroke-opacity="0" stroke-width="1.000000"/>
	</g>
	<g style="mix-blend-mode:normal">
		<path id="Path 15668" d="M123.24 13.08C127.51 13.99 130.46 17.7 130.59 21.87C132.56 20.65 134.98 20.15 137.43 20.67C142.45 21.74 145.65 26.67 144.59 31.69C144.49 32.14 144.37 32.57 144.21 32.98C145.16 32.88 146.14 32.92 147.12 33.13C152.14 34.2 155.35 39.13 154.28 44.15C154.01 45.4 153.51 46.54 152.82 47.53C152.95 47.55 153.07 47.57 153.2 47.6C158.22 48.66 161.42 53.6 160.36 58.61C159.29 63.63 154.36 66.84 149.34 65.77C147.74 65.43 146.34 64.7 145.19 63.71C140.04 79.04 124.09 88.41 107.89 84.97C91.68 81.52 80.96 66.52 82.46 50.44C81.04 50.85 79.51 50.93 77.96 50.6C72.95 49.53 69.74 44.6 70.81 39.58C71.88 34.56 76.81 31.36 81.83 32.43C81.95 32.45 82.08 32.48 82.2 32.52C81.98 31.33 81.98 30.09 82.24 28.84C83.31 23.82 88.24 20.62 93.26 21.68C94.24 21.89 95.16 22.25 95.98 22.73C96.01 22.29 96.07 21.84 96.16 21.4C97.23 16.38 102.17 13.18 107.18 14.24C109.63 14.76 111.64 16.2 112.94 18.12C114.76 14.36 118.97 12.17 123.24 13.08ZM123.86 10.14C119.69 9.25 115.48 10.58 112.6 13.47C111.2 12.42 109.57 11.68 107.81 11.3C101.89 10.04 96.03 13.3 93.84 18.73C87.23 17.35 80.71 21.59 79.3 28.21C79.23 28.55 79.17 28.9 79.13 29.24C73.76 29.57 69.04 33.44 67.87 38.96C66.46 45.59 70.7 52.13 77.34 53.54C77.99 53.68 78.65 53.77 79.31 53.8C79.47 70.13 90.95 84.45 107.26 87.91C123.57 91.38 139.9 82.97 146.68 68.1C147.34 68.36 148.02 68.57 148.71 68.71C155.34 70.12 161.89 65.87 163.3 59.24C164.47 53.73 161.73 48.27 156.96 45.78C157.06 45.45 157.15 45.12 157.22 44.78C158.63 38.16 154.4 31.63 147.79 30.2C148 24.34 143.98 18.99 138.06 17.73C136.3 17.36 134.51 17.37 132.79 17.76C131.34 13.95 128.04 11.03 123.86 10.14Z" fill="#000072" fill-opacity="1.000000" fill-rule="nonzero"/>
		<path id="Path 15668" d="M130.59 21.87C132.56 20.65 134.98 20.15 137.43 20.67C142.45 21.74 145.65 26.67 144.59 31.69C144.49 32.14 144.37 32.57 144.21 32.98C145.16 32.88 146.14 32.92 147.12 33.13C152.14 34.2 155.35 39.13 154.28 44.15C154.01 45.4 153.51 46.54 152.82 47.53C152.95 47.55 153.07 47.57 153.2 47.6C158.22 48.66 161.42 53.6 160.36 58.61C159.29 63.63 154.36 66.84 149.34 65.77C147.74 65.43 146.34 64.7 145.19 63.71C140.04 79.04 124.09 88.41 107.89 84.97C91.68 81.52 80.96 66.52 82.46 50.44C81.04 50.85 79.51 50.93 77.96 50.6C72.95 49.53 69.74 44.6 70.81 39.58C71.88 34.56 76.81 31.36 81.83 32.43C81.95 32.45 82.08 32.48 82.2 32.52C81.98 31.33 81.98 30.09 82.24 28.84C83.31 23.82 88.24 20.62 93.26 21.68C94.24 21.89 95.16 22.25 95.98 22.73C96.01 22.29 96.07 21.84 96.16 21.4C97.23 16.38 102.17 13.18 107.18 14.24C109.63 14.76 111.64 16.2 112.94 18.12C114.76 14.36 118.97 12.17 123.24 13.08C127.51 13.99 130.46 17.7 130.59 21.87ZM112.6 13.47C111.2 12.42 109.57 11.68 107.81 11.3C101.89 10.04 96.03 13.3 93.84 18.73C87.23 17.35 80.71 21.59 79.3 28.21C79.23 28.55 79.17 28.9 79.13 29.24C73.76 29.57 69.04 33.44 67.87 38.96C66.46 45.59 70.7 52.13 77.34 53.54C77.99 53.68 78.65 53.77 79.31 53.8C79.47 70.13 90.95 84.45 107.26 87.91C123.57 91.38 139.9 82.97 146.68 68.1C147.34 68.36 148.02 68.57 148.71 68.71C155.34 70.12 161.89 65.87 163.3 59.24C164.47 53.73 161.73 48.27 156.96 45.78C157.06 45.45 157.15 45.12 157.22 44.78C158.63 38.16 154.4 31.63 147.79 30.2C148 24.34 143.98 18.99 138.06 17.73C136.3 17.36 134.51 17.37 132.79 17.76C131.34 13.95 128.04 11.03 123.86 10.14C119.69 9.25 115.48 10.58 112.6 13.47Z" stroke="#707070" stroke-opacity="0" stroke-width="1.000000"/>
	</g>
	<g opacity="0.500000">
		<g style="mix-blend-mode:normal">
			<path id="Path 15669" d="M153.65 49.94C153.78 49.96 153.9 49.98 154.03 50.01C156.9 50.62 159.17 52.49 160.39 54.92C159.8 51.85 157.66 49.21 154.65 48.04C154.38 48.72 154.05 49.36 153.65 49.94Z" fill="#FFFFFF" fill-opacity="1.000000" fill-rule="nonzero"/>
			<path id="Path 15669" d="M154.03 50.01C156.9 50.62 159.17 52.49 160.39 54.92C159.8 51.85 157.66 49.21 154.65 48.04C154.38 48.72 154.05 49.36 153.65 49.94C153.78 49.96 153.9 49.98 154.03 50.01Z" stroke="#707070" stroke-opacity="0" stroke-width="1.000000"/>
		</g>
	</g>
	<g opacity="0.500000">
		<g style="mix-blend-mode:normal">
			<path id="Path 15670" d="M145.42 34.1C145.32 34.55 145.19 34.98 145.04 35.39C145.99 35.29 146.97 35.33 147.95 35.54C150.82 36.15 153.09 38.03 154.32 40.46C153.63 36.91 150.89 33.93 147.12 33.13C146.61 33.02 146.09 32.96 145.58 32.94C145.55 33.33 145.5 33.71 145.42 34.1Z" fill="#FFFFFF" fill-opacity="1.000000" fill-rule="nonzero"/>
			<path id="Path 15670" d="M145.04 35.39C145.99 35.29 146.97 35.33 147.95 35.54C150.82 36.15 153.09 38.03 154.32 40.46C153.63 36.91 150.89 33.93 147.12 33.13C146.61 33.02 146.09 32.96 145.58 32.94C145.55 33.33 145.5 33.71 145.42 34.1C145.32 34.55 145.19 34.98 145.04 35.39Z" stroke="#707070" stroke-opacity="0" stroke-width="1.000000"/>
		</g>
	</g>
	<g opacity="0.500000">
		<g style="mix-blend-mode:normal">
			<path id="Path 15671" d="M71.64 41.99C72.7 36.97 77.64 33.77 82.66 34.84C82.78 34.86 82.91 34.89 83.03 34.93C82.81 33.75 82.81 32.5 83.07 31.25C84.14 26.23 89.07 23.03 94.09 24.1C95.07 24.3 95.98 24.66 96.81 25.14C96.84 24.7 96.9 24.26 96.99 23.81C98.06 18.79 102.99 15.59 108.01 16.66C110.46 17.18 112.47 18.62 113.77 20.54C115.59 16.77 119.79 14.58 124.07 15.49C126.93 16.1 129.2 17.97 130.42 20.4C129.73 16.85 127 13.88 123.24 13.08C118.97 12.17 114.76 14.36 112.94 18.12C111.64 16.2 109.63 14.76 107.18 14.24C102.16 13.18 97.23 16.38 96.16 21.4C96.07 21.84 96.01 22.29 95.98 22.73C95.16 22.25 94.24 21.89 93.26 21.68C88.24 20.62 83.31 23.82 82.24 28.84C81.98 30.09 81.98 31.33 82.2 32.51C82.08 32.48 81.95 32.45 81.83 32.42C76.81 31.36 71.88 34.56 70.81 39.58C70.35 41.73 70.68 43.86 71.6 45.68C71.37 44.5 71.37 43.25 71.64 41.99Z" fill="#FFFFFF" fill-opacity="1.000000" fill-rule="nonzero"/>
			<path id="Path 15671" d="M82.66 34.84C82.78 34.86 82.91 34.89 83.03 34.93C82.81 33.75 82.81 32.5 83.07 31.25C84.14 26.23 89.07 23.03 94.09 24.1C95.07 24.3 95.98 24.66 96.81 25.14C96.84 24.7 96.9 24.26 96.99 23.81C98.06 18.79 102.99 15.59 108.01 16.66C110.46 17.18 112.47 18.62 113.77 20.54C115.59 16.77 119.79 14.58 124.07 15.49C126.93 16.1 129.2 17.97 130.42 20.4C129.73 16.85 127 13.88 123.24 13.08C118.97 12.17 114.76 14.36 112.94 18.12C111.64 16.2 109.63 14.76 107.18 14.24C102.16 13.18 97.23 16.38 96.16 21.4C96.07 21.84 96.01 22.29 95.98 22.73C95.16 22.25 94.24 21.89 93.26 21.68C88.24 20.62 83.31 23.82 82.24 28.84C81.98 30.09 81.98 31.33 82.2 32.51C82.08 32.48 81.95 32.45 81.83 32.42C76.81 31.36 71.88 34.56 70.81 39.58C70.35 41.73 70.68 43.86 71.6 45.68C71.37 44.5 71.37 43.25 71.64 41.99C72.7 36.97 77.64 33.77 82.66 34.84Z" stroke="#707070" stroke-opacity="0" stroke-width="1.000000"/>
		</g>
	</g>
	<g opacity="0.500000">
		<g style="mix-blend-mode:normal">
			<path id="Path 15672" d="M131.42 24.29C133.39 23.06 135.81 22.56 138.26 23.08C141.13 23.69 143.4 25.57 144.62 28C143.94 24.45 141.19 21.47 137.43 20.67C135.13 20.18 132.85 20.6 130.95 21.67C131.23 22.51 131.39 23.38 131.42 24.29Z" fill="#FFFFFF" fill-opacity="1.000000" fill-rule="nonzero"/>
			<path id="Path 15672" d="M138.26 23.08C141.13 23.69 143.4 25.57 144.62 28C143.94 24.45 141.19 21.47 137.43 20.67C135.13 20.18 132.85 20.6 130.95 21.67C131.23 22.51 131.39 23.38 131.42 24.29C133.39 23.06 135.81 22.56 138.26 23.08Z" stroke="#707070" stroke-opacity="0" stroke-width="1.000000"/>
		</g>
	</g>
	<g opacity="0.500000">
		<g style="mix-blend-mode:normal">
			<ellipse id="Ellipse 317" rx="1.666528" ry="1.666529" transform="matrix(0.978148 0.207912 -0.207912 0.978148 89.5933 35.4639)" fill="#000072" fill-opacity="1.000000"/>
			<ellipse id="Ellipse 317" rx="1.666528" ry="1.666529" transform="matrix(0.978148 0.207912 -0.207912 0.978148 89.5933 35.4639)" stroke="#707070" stroke-opacity="0" stroke-width="1.000000"/>
		</g>
	</g>
	<g opacity="0.500000">
		<g style="mix-blend-mode:normal">
			<ellipse id="Ellipse 318" rx="1.389024" ry="1.389025" transform="matrix(0.978148 0.207912 -0.207912 0.978148 116.752 23.9155)" fill="#000072" fill-opacity="1.000000"/>
			<ellipse id="Ellipse 318" rx="1.389024" ry="1.389025" transform="matrix(0.978148 0.207912 -0.207912 0.978148 116.752 23.9155)" stroke="#707070" stroke-opacity="0" stroke-width="1.000000"/>
		</g>
	</g>
	<g style="mix-blend-mode:normal">
		<ellipse id="Ellipse 319" rx="1.619149" ry="1.619150" transform="matrix(0.978148 0.207912 -0.207912 0.978148 102.416 24.1372)" fill="#FFFFFF" fill-opacity="1.000000"/>
		<ellipse id="Ellipse 319" rx="1.619149" ry="1.619150" transform="matrix(0.978148 0.207912 -0.207912 0.978148 102.416 24.1372)" stroke="#707070" stroke-opacity="0" stroke-width="1.000000"/>
	</g>
	<g style="mix-blend-mode:normal">
		<path id="Path 15673" d="M114.4 85.05C102.2 82.46 93.68 71.58 93.92 59.3C93.22 59.33 92.51 59.27 91.82 59.12C87.23 58.15 84.29 53.62 85.27 49.03C86.13 44.99 89.73 42.23 93.71 42.28C93.74 41.83 93.8 41.37 93.89 40.92C94.87 36.33 99.4 33.39 103.99 34.37C104.2 34.41 104.4 34.46 104.6 34.52C105.9 30.39 110.17 27.83 114.49 28.75C115.94 29.06 117.26 29.73 118.34 30.69C120.33 28.34 123.48 27.21 126.6 27.88C129.73 28.54 132.14 30.85 133 33.8C134.39 33.37 135.86 33.3 137.31 33.6C141.63 34.52 144.49 38.59 144 42.89C144.21 42.92 144.42 42.96 144.62 43C149.21 43.98 152.16 48.51 151.18 53.1C151.08 53.55 150.95 53.99 150.79 54.41C154.45 55.98 156.62 59.97 155.76 64.01C154.79 68.6 150.26 71.54 145.67 70.57C144.94 70.41 144.25 70.17 143.59 69.83C138.82 81.16 126.61 87.65 114.4 85.05Z" fill="#FFD54F" fill-opacity="1.000000" fill-rule="nonzero"/>
		<path id="Path 15673" d="M93.92 59.3C93.22 59.33 92.51 59.27 91.82 59.12C87.23 58.15 84.29 53.62 85.27 49.03C86.13 44.99 89.73 42.23 93.71 42.28C93.74 41.83 93.8 41.37 93.89 40.92C94.87 36.33 99.4 33.39 103.99 34.37C104.2 34.41 104.4 34.46 104.6 34.52C105.9 30.39 110.17 27.83 114.49 28.75C115.94 29.06 117.26 29.73 118.34 30.69C120.33 28.34 123.48 27.21 126.6 27.88C129.73 28.54 132.14 30.85 133 33.8C134.39 33.37 135.86 33.3 137.31 33.6C141.63 34.52 144.49 38.59 144 42.89C144.21 42.92 144.42 42.96 144.62 43C149.21 43.98 152.16 48.51 151.18 53.1C151.08 53.55 150.95 53.99 150.79 54.41C154.45 55.98 156.62 59.97 155.76 64.01C154.79 68.6 150.26 71.54 145.67 70.57C144.94 70.41 144.25 70.17 143.59 69.83C138.82 81.16 126.61 87.65 114.4 85.05C102.2 82.46 93.68 71.58 93.92 59.3Z" stroke="#707070" stroke-opacity="0" stroke-width="1.000000"/>
	</g>
	<g style="mix-blend-mode:normal">
		<path id="Path 15674" d="M126.29 29.35C129.51 30.03 131.74 32.83 131.84 35.98C133.32 35.06 135.15 34.68 137 35.07C140.78 35.88 143.2 39.6 142.39 43.39C142.32 43.72 142.23 44.05 142.11 44.36C142.83 44.28 143.57 44.32 144.31 44.47C148.09 45.28 150.51 49 149.71 52.79C149.51 53.73 149.12 54.59 148.61 55.33C148.7 55.35 148.8 55.36 148.89 55.38C152.68 56.19 155.09 59.91 154.29 63.7C153.49 67.48 149.76 69.9 145.98 69.1C144.78 68.84 143.71 68.29 142.85 67.54C138.96 79.11 126.93 86.18 114.71 83.58C102.48 80.98 94.39 69.66 95.52 57.53C94.45 57.84 93.3 57.9 92.13 57.65C88.35 56.85 85.93 53.12 86.74 49.34C87.54 45.55 91.26 43.13 95.05 43.94C95.14 43.96 95.24 43.98 95.33 44.01C95.16 43.12 95.16 42.18 95.36 41.23C96.17 37.45 99.89 35.03 103.67 35.84C104.42 35.99 105.1 36.26 105.73 36.62C105.75 36.29 105.79 35.96 105.86 35.62C106.67 31.84 110.39 29.42 114.18 30.22C116.02 30.62 117.54 31.7 118.52 33.15C119.89 30.31 123.07 28.66 126.29 29.35ZM126.92 26.4C123.73 25.73 120.52 26.64 118.2 28.69C117.18 28.02 116.03 27.54 114.8 27.28C110.18 26.3 105.62 28.69 103.67 32.78C98.49 32.02 93.52 35.42 92.42 40.61C92.4 40.69 92.39 40.77 92.37 40.85C88.25 41.36 84.71 44.43 83.8 48.71C82.65 54.12 86.11 59.45 91.51 60.59C91.81 60.66 92.12 60.71 92.43 60.74C92.85 73.12 101.67 83.88 114.08 86.52C126.5 89.16 138.94 82.92 144.36 71.77C144.69 71.88 145.02 71.97 145.35 72.04C150.75 73.19 156.09 69.73 157.23 64.32C158.14 60.04 156.15 55.8 152.6 53.65C152.61 53.57 152.63 53.49 152.65 53.41C153.75 48.22 150.6 43.09 145.56 41.68C145.44 37.16 142.24 33.11 137.62 32.13C136.4 31.87 135.16 31.84 133.95 32.04C132.66 29.22 130.1 27.08 126.92 26.4Z" fill="#000072" fill-opacity="1.000000" fill-rule="nonzero"/>
		<path id="Path 15674" d="M131.84 35.98C133.32 35.06 135.15 34.68 137 35.07C140.78 35.88 143.2 39.6 142.39 43.39C142.32 43.72 142.23 44.05 142.11 44.36C142.83 44.28 143.57 44.32 144.31 44.47C148.09 45.28 150.51 49 149.71 52.79C149.51 53.73 149.12 54.59 148.61 55.33C148.7 55.35 148.8 55.36 148.89 55.38C152.68 56.19 155.09 59.91 154.29 63.7C153.49 67.48 149.76 69.9 145.98 69.1C144.78 68.84 143.71 68.29 142.85 67.54C138.96 79.11 126.93 86.18 114.71 83.58C102.48 80.98 94.39 69.66 95.52 57.53C94.45 57.84 93.3 57.9 92.13 57.65C88.35 56.85 85.93 53.12 86.74 49.34C87.54 45.55 91.26 43.13 95.05 43.94C95.14 43.96 95.24 43.98 95.33 44.01C95.16 43.12 95.16 42.18 95.36 41.23C96.17 37.45 99.89 35.03 103.67 35.84C104.42 35.99 105.1 36.26 105.73 36.62C105.75 36.29 105.79 35.96 105.86 35.62C106.67 31.84 110.39 29.42 114.18 30.22C116.02 30.62 117.54 31.7 118.52 33.15C119.89 30.31 123.07 28.66 126.29 29.35C129.51 30.03 131.74 32.83 131.84 35.98ZM118.2 28.69C117.18 28.02 116.03 27.54 114.8 27.28C110.18 26.3 105.62 28.69 103.67 32.78C98.49 32.02 93.52 35.42 92.42 40.61C92.4 40.69 92.39 40.77 92.37 40.85C88.25 41.36 84.71 44.43 83.8 48.71C82.65 54.12 86.11 59.45 91.51 60.59C91.81 60.66 92.12 60.71 92.43 60.74C92.85 73.12 101.67 83.88 114.08 86.52C126.5 89.16 138.94 82.92 144.36 71.77C144.69 71.88 145.02 71.97 145.35 72.04C150.75 73.19 156.09 69.73 157.23 64.32C158.14 60.04 156.15 55.8 152.6 53.65C152.61 53.57 152.63 53.49 152.65 53.41C153.75 48.22 150.6 43.09 145.56 41.68C145.44 37.16 142.24 33.11 137.62 32.13C136.4 31.87 135.16 31.84 133.95 32.04C132.66 29.22 130.1 27.08 126.92 26.4C123.73 25.73 120.52 26.64 118.2 28.69Z" stroke="#707070" stroke-opacity="0" stroke-width="1.000000"/>
	</g>
	<g opacity="0.500000">
		<g style="mix-blend-mode:normal">
			<path id="Path 15675" d="M142.89 45.28C142.81 45.61 142.72 45.94 142.61 46.25C143.32 46.18 144.06 46.21 144.8 46.37C147.14 46.86 148.95 48.47 149.81 50.53C149.47 47.62 147.33 45.11 144.31 44.47C143.87 44.38 143.44 44.34 143.01 44.33C142.99 44.64 142.95 44.96 142.89 45.28Z" fill="#FFFFFF" fill-opacity="1.000000" fill-rule="nonzero"/>
			<path id="Path 15675" d="M142.61 46.25C143.32 46.18 144.06 46.21 144.8 46.37C147.14 46.86 148.95 48.47 149.81 50.53C149.47 47.62 147.33 45.11 144.31 44.47C143.87 44.38 143.44 44.34 143.01 44.33C142.99 44.64 142.95 44.96 142.89 45.28C142.81 45.61 142.72 45.94 142.61 46.25Z" stroke="#707070" stroke-opacity="0" stroke-width="1.000000"/>
		</g>
	</g>
	<g opacity="0.500000">
		<g style="mix-blend-mode:normal">
			<path id="Path 15676" d="M149.1 57.22C149.19 57.24 149.29 57.26 149.38 57.28C151.72 57.77 153.53 59.39 154.39 61.44C154.1 58.86 152.38 56.62 149.89 55.69C149.69 56.24 149.42 56.76 149.1 57.22Z" fill="#FFFFFF" fill-opacity="1.000000" fill-rule="nonzero"/>
			<path id="Path 15676" d="M149.38 57.28C151.72 57.77 153.53 59.39 154.39 61.44C154.1 58.86 152.38 56.62 149.89 55.69C149.69 56.24 149.42 56.76 149.1 57.22C149.19 57.24 149.29 57.26 149.38 57.28Z" stroke="#707070" stroke-opacity="0" stroke-width="1.000000"/>
		</g>
	</g>
	<g opacity="0.500000">
		<g style="mix-blend-mode:normal">
			<path id="Path 15677" d="M132.33 37.87C133.81 36.95 135.64 36.57 137.49 36.97C139.83 37.46 141.64 39.08 142.5 41.13C142.16 38.22 140.02 35.72 137 35.07C135.21 34.69 133.43 35.04 131.97 35.9C132.18 36.53 132.31 37.19 132.33 37.87Z" fill="#FFFFFF" fill-opacity="1.000000" fill-rule="nonzero"/>
			<path id="Path 15677" d="M137.49 36.97C139.83 37.46 141.64 39.08 142.5 41.13C142.16 38.22 140.02 35.72 137 35.07C135.21 34.69 133.43 35.04 131.97 35.9C132.18 36.53 132.31 37.19 132.33 37.87C133.81 36.95 135.64 36.57 137.49 36.97Z" stroke="#707070" stroke-opacity="0" stroke-width="1.000000"/>
		</g>
	</g>
	<g opacity="0.500000">
		<g style="mix-blend-mode:normal">
			<path id="Path 15678" d="M87.23 51.23C88.03 47.44 91.76 45.03 95.54 45.83C95.64 45.85 95.73 45.88 95.82 45.9C95.65 45.01 95.65 44.07 95.85 43.13C96.66 39.34 100.38 36.93 104.17 37.73C104.91 37.89 105.6 38.16 106.22 38.52C106.24 38.19 106.29 37.85 106.36 37.52C107.16 33.73 110.88 31.31 114.67 32.12C116.52 32.51 118.03 33.6 119.01 35.04C120.38 32.2 123.56 30.56 126.78 31.24C129.13 31.74 130.94 33.36 131.8 35.42C131.47 32.5 129.32 29.99 126.29 29.35C123.07 28.66 119.89 30.31 118.52 33.15C117.54 31.7 116.02 30.62 114.18 30.22C110.39 29.42 106.67 31.84 105.87 35.62C105.79 35.96 105.75 36.29 105.73 36.62C105.1 36.26 104.42 35.99 103.68 35.84C99.89 35.03 96.17 37.45 95.36 41.23C95.16 42.18 95.16 43.12 95.33 44.01C95.24 43.98 95.14 43.96 95.05 43.94C91.26 43.13 87.54 45.55 86.74 49.34C86.43 50.79 86.59 52.22 87.13 53.49C87.04 52.75 87.07 52 87.23 51.23Z" fill="#FFFFFF" fill-opacity="1.000000" fill-rule="nonzero"/>
			<path id="Path 15678" d="M95.54 45.83C95.64 45.85 95.73 45.88 95.82 45.9C95.65 45.01 95.65 44.07 95.85 43.13C96.66 39.34 100.38 36.93 104.17 37.73C104.91 37.89 105.6 38.16 106.22 38.52C106.24 38.19 106.29 37.85 106.36 37.52C107.16 33.73 110.88 31.31 114.67 32.12C116.52 32.51 118.03 33.6 119.01 35.04C120.38 32.2 123.56 30.56 126.78 31.24C129.13 31.74 130.94 33.36 131.8 35.42C131.47 32.5 129.32 29.99 126.29 29.35C123.07 28.66 119.89 30.31 118.52 33.15C117.54 31.7 116.02 30.62 114.18 30.22C110.39 29.42 106.67 31.84 105.87 35.62C105.79 35.96 105.75 36.29 105.73 36.62C105.1 36.26 104.42 35.99 103.68 35.84C99.89 35.03 96.17 37.45 95.36 41.23C95.16 42.18 95.16 43.12 95.33 44.01C95.24 43.98 95.14 43.96 95.05 43.94C91.26 43.13 87.54 45.55 86.74 49.34C86.43 50.79 86.59 52.22 87.13 53.49C87.04 52.75 87.07 52 87.23 51.23C88.03 47.44 91.76 45.03 95.54 45.83Z" stroke="#707070" stroke-opacity="0" stroke-width="1.000000"/>
		</g>
	</g>
	<g style="mix-blend-mode:normal">
		<ellipse id="Ellipse 320" rx="2.083160" ry="2.083161" transform="matrix(0.978148 0.207912 -0.207912 0.978148 105.851 47.4805)" fill="#FFFFFF" fill-opacity="1.000000"/>
		<ellipse id="Ellipse 320" rx="2.083160" ry="2.083161" transform="matrix(0.978148 0.207912 -0.207912 0.978148 105.851 47.4805)" stroke="#707070" stroke-opacity="0" stroke-width="1.000000"/>
	</g>
	<g opacity="0.500000">
		<g style="mix-blend-mode:normal">
			<ellipse id="Ellipse 321" rx="2.916424" ry="2.916425" transform="matrix(0.978148 0.207912 -0.207912 0.978148 132.681 53.5098)" fill="#000072" fill-opacity="1.000000"/>
			<ellipse id="Ellipse 321" rx="2.916424" ry="2.916425" transform="matrix(0.978148 0.207912 -0.207912 0.978148 132.681 53.5098)" stroke="#707070" stroke-opacity="0" stroke-width="1.000000"/>
		</g>
	</g>
	<g opacity="0.500000">
		<g style="mix-blend-mode:normal">
			<ellipse id="Ellipse 322" rx="1.862059" ry="1.862060" transform="matrix(0.978148 0.207912 -0.207912 0.978148 120.47 42.332)" fill="#000072" fill-opacity="1.000000"/>
			<ellipse id="Ellipse 322" rx="1.862059" ry="1.862060" transform="matrix(0.978148 0.207912 -0.207912 0.978148 120.47 42.332)" stroke="#707070" stroke-opacity="0" stroke-width="1.000000"/>
		</g>
	</g>
	<g style="mix-blend-mode:normal">
		<path id="Path 15679" d="M66.72 158.04L56.42 155.85L65.25 47.95C65.6 43.73 69.57 40.77 73.71 41.65C77.25 42.41 79.7 45.74 79.28 49.34L66.72 158.04Z" fill="#FF5722" fill-opacity="1.000000" fill-rule="nonzero"/>
		<path id="Path 15679" d="M56.42 155.85L65.25 47.95C65.6 43.73 69.57 40.77 73.71 41.65C77.25 42.41 79.7 45.74 79.28 49.34L66.72 158.04L56.42 155.85Z" stroke="#707070" stroke-opacity="0" stroke-width="1.000000"/>
	</g>
	<g style="mix-blend-mode:normal">
		<path id="Path 15680" d="M66.41 159.51L56.11 157.32C55.37 157.16 54.86 156.48 54.93 155.73L63.76 47.82C63.96 45.38 65.2 43.15 67.16 41.68C69.13 40.22 71.63 39.67 74.02 40.18C78.35 41.1 81.28 45.12 80.78 49.51L68.21 158.21C68.17 158.63 67.94 159.01 67.6 159.26C67.25 159.5 66.82 159.6 66.41 159.51ZM58.03 154.65L65.42 156.22L77.79 49.17C78.11 46.32 76.25 43.73 73.45 43.14C71.9 42.81 70.23 43.15 68.96 44.1C67.69 45.04 66.88 46.49 66.75 48.07L58.03 154.65Z" fill="#000072" fill-opacity="1.000000" fill-rule="nonzero"/>
		<path id="Path 15680" d="M56.11 157.32C55.37 157.16 54.86 156.48 54.93 155.73L63.76 47.82C63.96 45.38 65.2 43.15 67.16 41.68C69.13 40.22 71.63 39.67 74.02 40.18C78.35 41.1 81.28 45.12 80.78 49.51L68.21 158.21C68.17 158.63 67.94 159.01 67.6 159.26C67.25 159.5 66.82 159.6 66.41 159.51L56.11 157.32ZM65.42 156.22L77.79 49.17C78.11 46.32 76.25 43.73 73.45 43.14C71.9 42.81 70.23 43.15 68.96 44.1C67.69 45.04 66.88 46.49 66.75 48.07L58.03 154.65L65.42 156.22Z" stroke="#707070" stroke-opacity="0" stroke-width="1.000000"/>
	</g>
	<g opacity="0.500000">
		<g style="mix-blend-mode:normal">
			<path id="Path 15681" d="M66.99 66.12C67.97 64.9 68.76 62.79 69.03 60.34C69.33 57.57 68.9 55.09 68 53.76L68.4 48.86C68.53 47.29 69.33 45.85 70.59 44.91C71.86 43.97 73.47 43.61 75.01 43.94C75.16 43.97 75.36 44.03 75.5 44.07C74.91 43.64 74.21 43.33 73.45 43.16C71.91 42.84 70.24 43.18 68.97 44.12C67.71 45.06 66.91 46.5 66.78 48.07L66.4 52.74L65.21 67.23L58.06 154.63L59.72 154.98L66.99 66.12Z" fill="#FFFFFF" fill-opacity="1.000000" fill-rule="nonzero"/>
			<path id="Path 15681" d="M69.03 60.34C69.33 57.57 68.9 55.09 68 53.76L68.4 48.86C68.53 47.29 69.33 45.85 70.59 44.91C71.86 43.97 73.47 43.61 75.01 43.94C75.16 43.97 75.36 44.03 75.5 44.07C74.91 43.64 74.21 43.33 73.45 43.16C71.91 42.84 70.24 43.18 68.97 44.12C67.71 45.06 66.91 46.5 66.78 48.07L66.4 52.74L65.21 67.23L58.06 154.63L59.72 154.98L66.99 66.12C67.97 64.9 68.76 62.79 69.03 60.34Z" stroke="#707070" stroke-opacity="0" stroke-width="1.000000"/>
		</g>
	</g>
	<g style="mix-blend-mode:normal">
		<path id="Path 15682" d="M77.02 160.22L66.72 158.04L79.13 50.66C79.6 46.55 83.51 43.74 87.56 44.6L87.66 44.62C91.29 45.39 93.69 48.86 93.14 52.53L77.02 160.22Z" fill="#FBFCFC" fill-opacity="1.000000" fill-rule="nonzero"/>
		<path id="Path 15682" d="M66.72 158.04L79.13 50.66C79.6 46.55 83.51 43.74 87.56 44.6L87.66 44.62C91.29 45.39 93.69 48.86 93.14 52.53L77.02 160.22L66.72 158.04Z" stroke="#707070" stroke-opacity="0" stroke-width="1.000000"/>
	</g>
	<g style="mix-blend-mode:normal">
		<path id="Path 15683" d="M76.7 161.7L66.41 159.51C65.65 159.35 65.14 158.64 65.23 157.86L77.63 50.49C77.91 48.11 79.18 45.94 81.13 44.54C83.07 43.14 85.53 42.63 87.87 43.13L87.97 43.15C92.37 44.08 95.3 48.3 94.63 52.75L78.5 160.45C78.44 160.86 78.21 161.22 77.87 161.46C77.53 161.7 77.11 161.78 76.7 161.7ZM68.37 156.85L75.77 158.42L91.66 52.3C92.09 49.42 90.2 46.7 87.35 46.09L87.25 46.07C85.71 45.74 84.16 46.07 82.88 46.99C81.61 47.9 80.8 49.27 80.62 50.83L68.37 156.85Z" fill="#000072" fill-opacity="1.000000" fill-rule="nonzero"/>
		<path id="Path 15683" d="M66.41 159.51C65.65 159.35 65.14 158.64 65.23 157.86L77.63 50.49C77.91 48.11 79.18 45.94 81.13 44.54C83.07 43.14 85.53 42.63 87.87 43.13L87.97 43.15C92.37 44.08 95.3 48.3 94.63 52.75L78.5 160.45C78.44 160.86 78.21 161.22 77.87 161.46C77.53 161.7 77.11 161.78 76.7 161.7L66.41 159.51ZM75.77 158.42L91.66 52.3C92.09 49.42 90.2 46.7 87.35 46.09L87.25 46.07C85.71 45.74 84.16 46.07 82.88 46.99C81.61 47.9 80.8 49.27 80.62 50.83L68.37 156.85L75.77 158.42Z" stroke="#707070" stroke-opacity="0" stroke-width="1.000000"/>
	</g>
	<g style="mix-blend-mode:normal">
		<path id="Path 15684" d="M87.31 162.41L77.02 160.23L93.02 53.37C93.62 49.37 97.46 46.7 101.42 47.54L101.55 47.57C105.27 48.36 107.68 51.97 106.99 55.71L87.31 162.41Z" fill="#FF5722" fill-opacity="1.000000" fill-rule="nonzero"/>
		<path id="Path 15684" d="M77.02 160.23L93.02 53.37C93.62 49.37 97.46 46.7 101.42 47.54L101.55 47.57C105.27 48.36 107.68 51.97 106.99 55.71L87.31 162.41L77.02 160.23Z" stroke="#707070" stroke-opacity="0" stroke-width="1.000000"/>
	</g>
	<g style="mix-blend-mode:normal">
		<path id="Path 15685" d="M87 163.88L76.7 161.7C75.93 161.53 75.41 160.79 75.53 160L91.53 53.15C91.88 50.8 93.15 48.76 95.1 47.41C97.05 46.05 99.41 45.58 101.73 46.07L101.86 46.1C106.41 47.07 109.32 51.41 108.47 55.98L88.79 162.69C88.72 163.09 88.49 163.44 88.15 163.66C87.81 163.89 87.4 163.97 87 163.88ZM78.71 159.05L86.11 160.62L105.51 55.44C106.06 52.48 104.18 49.67 101.24 49.04L101.11 49.02C99.6 48.7 98.08 49 96.82 49.88C95.55 50.75 94.73 52.07 94.51 53.59L78.71 159.05Z" fill="#000072" fill-opacity="1.000000" fill-rule="nonzero"/>
		<path id="Path 15685" d="M76.7 161.7C75.93 161.53 75.41 160.79 75.53 160L91.53 53.15C91.88 50.8 93.15 48.76 95.1 47.41C97.05 46.05 99.41 45.58 101.73 46.07L101.86 46.1C106.41 47.07 109.32 51.41 108.47 55.98L88.79 162.69C88.72 163.09 88.49 163.44 88.15 163.66C87.81 163.89 87.4 163.97 87 163.88L76.7 161.7ZM86.11 160.62L105.51 55.44C106.06 52.48 104.18 49.67 101.24 49.04L101.11 49.02C99.6 48.7 98.08 49 96.82 49.88C95.55 50.75 94.73 52.07 94.51 53.59L78.71 159.05L86.11 160.62Z" stroke="#707070" stroke-opacity="0" stroke-width="1.000000"/>
	</g>
	<g opacity="0.500000">
		<g style="mix-blend-mode:normal">
			<path id="Path 15686" d="M96.06 54.82C96.29 53.3 97.1 51.99 98.36 51.12C99.62 50.25 101.14 49.94 102.63 50.26L102.76 50.29C103.29 50.4 103.78 50.59 104.23 50.83C103.48 49.96 102.45 49.33 101.23 49.07L101.1 49.04C99.61 48.72 98.09 49.03 96.83 49.9C95.58 50.77 94.76 52.09 94.53 53.6L78.74 159.03L80.4 159.38L96.06 54.82Z" fill="#FFFFFF" fill-opacity="1.000000" fill-rule="nonzero"/>
			<path id="Path 15686" d="M98.36 51.12C99.62 50.25 101.14 49.94 102.63 50.26L102.76 50.29C103.29 50.4 103.78 50.59 104.23 50.83C103.48 49.96 102.45 49.33 101.23 49.07L101.1 49.04C99.61 48.72 98.09 49.03 96.83 49.9C95.58 50.77 94.76 52.09 94.53 53.6L78.74 159.03L80.4 159.38L96.06 54.82C96.29 53.3 97.1 51.99 98.36 51.12Z" stroke="#707070" stroke-opacity="0" stroke-width="1.000000"/>
		</g>
	</g>
	<g style="mix-blend-mode:normal">
		<path id="Path 15687" d="M95.32 164.12L87.31 162.41L106.92 56.08C107.64 52.2 111.42 49.67 115.29 50.49C119.15 51.31 121.58 55.16 120.65 59L95.32 164.12Z" fill="#FBFCFC" fill-opacity="1.000000" fill-rule="nonzero"/>
		<path id="Path 15687" d="M87.31 162.41L106.92 56.08C107.64 52.2 111.42 49.67 115.29 50.49C119.15 51.31 121.58 55.16 120.65 59L95.32 164.12L87.31 162.41Z" stroke="#707070" stroke-opacity="0" stroke-width="1.000000"/>
	</g>
	<g style="mix-blend-mode:normal">
		<path id="Path 15688" d="M95.01 165.59L87 163.88C86.2 163.72 85.68 162.94 85.83 162.14L105.44 55.81C105.87 53.53 107.16 51.56 109.09 50.27C111.02 48.98 113.33 48.54 115.6 49.02C117.87 49.5 119.8 50.85 121.04 52.81C122.28 54.77 122.66 57.1 122.11 59.35L96.78 164.47C96.59 165.26 95.8 165.76 95.01 165.59ZM89.06 161.25L94.2 162.34L119.19 58.65C119.54 57.19 119.29 55.69 118.49 54.42C117.69 53.15 116.44 52.27 114.97 51.96C113.5 51.65 112.01 51.94 110.76 52.77C109.51 53.61 108.67 54.88 108.4 56.36L89.06 161.25Z" fill="#000072" fill-opacity="1.000000" fill-rule="nonzero"/>
		<path id="Path 15688" d="M87 163.88C86.2 163.72 85.68 162.94 85.83 162.14L105.44 55.81C105.87 53.53 107.16 51.56 109.09 50.27C111.02 48.98 113.33 48.54 115.6 49.02C117.87 49.5 119.8 50.85 121.04 52.81C122.28 54.77 122.66 57.1 122.11 59.35L96.78 164.47C96.59 165.26 95.8 165.76 95.01 165.59L87 163.88ZM94.2 162.34L119.19 58.65C119.54 57.19 119.29 55.69 118.49 54.42C117.69 53.15 116.44 52.27 114.97 51.96C113.5 51.65 112.01 51.94 110.76 52.77C109.51 53.61 108.67 54.88 108.4 56.36L89.06 161.25L94.2 162.34Z" stroke="#707070" stroke-opacity="0" stroke-width="1.000000"/>
	</g>
	<g style="mix-blend-mode:normal">
		<path id="Path 15689" d="M105.61 166.3L95.32 164.12L120.74 58.63C121.63 54.94 125.3 52.62 129.02 53.41L129.15 53.44C133.11 54.28 135.54 58.28 134.46 62.18L105.61 166.3Z" fill="#FF5722" fill-opacity="1.000000" fill-rule="nonzero"/>
		<path id="Path 15689" d="M95.32 164.12L120.74 58.63C121.63 54.94 125.3 52.62 129.02 53.41L129.15 53.44C133.11 54.28 135.54 58.28 134.46 62.18L105.61 166.3L95.32 164.12Z" stroke="#707070" stroke-opacity="0" stroke-width="1.000000"/>
	</g>
	<g style="mix-blend-mode:normal">
		<path id="Path 15690" d="M105.3 167.77L95.01 165.59C94.61 165.5 94.26 165.26 94.05 164.92C93.83 164.57 93.76 164.16 93.86 163.76L119.28 58.28C120.37 53.76 124.79 50.97 129.34 51.94L129.47 51.97C131.79 52.46 133.75 53.85 134.98 55.88C136.21 57.91 136.54 60.29 135.91 62.58L107.06 166.71C106.85 167.47 106.08 167.94 105.3 167.77ZM97.14 162.97L104.54 164.54L133.01 61.78C133.42 60.3 133.2 58.76 132.41 57.44C131.61 56.13 130.34 55.23 128.84 54.91L128.71 54.88C125.77 54.26 122.91 56.06 122.2 58.98L97.14 162.97Z" fill="#000072" fill-opacity="1.000000" fill-rule="nonzero"/>
		<path id="Path 15690" d="M95.01 165.59C94.61 165.5 94.26 165.26 94.05 164.92C93.83 164.57 93.76 164.16 93.86 163.76L119.28 58.28C120.37 53.76 124.79 50.97 129.34 51.94L129.47 51.97C131.79 52.46 133.75 53.85 134.98 55.88C136.21 57.91 136.54 60.29 135.91 62.58L107.06 166.71C106.85 167.47 106.08 167.94 105.3 167.77L95.01 165.59ZM104.54 164.54L133.01 61.78C133.42 60.3 133.2 58.76 132.41 57.44C131.61 56.13 130.34 55.23 128.84 54.91L128.71 54.88C125.77 54.26 122.91 56.06 122.2 58.98L97.14 162.97L104.54 164.54Z" stroke="#707070" stroke-opacity="0" stroke-width="1.000000"/>
	</g>
	<g opacity="0.500000">
		<g style="mix-blend-mode:normal">
			<path id="Path 15691" d="M123.76 60.21C124.46 57.3 127.3 55.51 130.23 56.13L130.36 56.16C130.88 56.27 131.37 56.45 131.82 56.69C131.04 55.8 130.01 55.19 128.83 54.94L128.7 54.91C125.78 54.29 122.93 56.08 122.23 58.99L97.18 162.95L98.91 163.31L123.76 60.21Z" fill="#FFFFFF" fill-opacity="1.000000" fill-rule="nonzero"/>
			<path id="Path 15691" d="M130.23 56.13L130.36 56.16C130.88 56.27 131.37 56.45 131.82 56.69C131.04 55.8 130.01 55.19 128.83 54.94L128.7 54.91C125.78 54.29 122.93 56.08 122.23 58.99L97.18 162.95L98.91 163.31L123.76 60.21C124.46 57.3 127.3 55.51 130.23 56.13Z" stroke="#707070" stroke-opacity="0" stroke-width="1.000000"/>
		</g>
	</g>
	<g style="mix-blend-mode:normal">
		<path id="Path 15692" d="M115.91 168.49L105.61 166.3L134.69 61.36C135.68 57.78 139.28 55.59 142.91 56.36L143.01 56.38C147.06 57.25 149.49 61.4 148.25 65.35L115.91 168.49Z" fill="#FBFCFC" fill-opacity="1.000000" fill-rule="nonzero"/>
		<path id="Path 15692" d="M105.61 166.3L134.69 61.36C135.68 57.78 139.28 55.59 142.91 56.36L143.01 56.38C147.06 57.25 149.49 61.4 148.25 65.35L115.91 168.49L105.61 166.3Z" stroke="#707070" stroke-opacity="0" stroke-width="1.000000"/>
	</g>
	<g style="mix-blend-mode:normal">
		<path id="Path 15693" d="M115.6 169.96L105.3 167.78C104.9 167.69 104.54 167.44 104.33 167.09C104.11 166.73 104.05 166.3 104.16 165.9L133.24 60.95C134.44 56.62 138.82 53.96 143.22 54.89L143.32 54.91C145.67 55.41 147.7 56.88 148.91 58.95C150.12 61.02 150.4 63.52 149.68 65.8L117.34 168.94C117.11 169.68 116.36 170.13 115.6 169.96ZM107.49 165.17L114.88 166.74L146.81 64.9C147.28 63.4 147.11 61.83 146.31 60.47C145.52 59.11 144.24 58.18 142.7 57.86L142.6 57.84C139.75 57.23 136.91 58.95 136.13 61.76L107.49 165.17Z" fill="#000072" fill-opacity="1.000000" fill-rule="nonzero"/>
		<path id="Path 15693" d="M105.3 167.78C104.9 167.69 104.54 167.44 104.33 167.09C104.11 166.73 104.05 166.3 104.16 165.9L133.24 60.95C134.44 56.62 138.82 53.96 143.22 54.89L143.32 54.91C145.67 55.41 147.7 56.88 148.91 58.95C150.12 61.02 150.4 63.52 149.68 65.8L117.34 168.94C117.11 169.68 116.36 170.13 115.6 169.96L105.3 167.78ZM114.88 166.74L146.81 64.9C147.28 63.4 147.11 61.83 146.31 60.47C145.52 59.11 144.24 58.18 142.7 57.86L142.6 57.84C139.75 57.23 136.91 58.95 136.13 61.76L107.49 165.17L114.88 166.74Z" stroke="#707070" stroke-opacity="0" stroke-width="1.000000"/>
	</g>
	<g style="mix-blend-mode:normal">
		<path id="Path 15694" d="M126.2 170.68L115.91 168.49L148.65 64.08C149.73 60.63 153.26 58.56 156.8 59.32C160.94 60.2 163.42 64.52 162.03 68.52L126.2 170.68Z" fill="#FF5722" fill-opacity="1.000000" fill-rule="nonzero"/>
		<path id="Path 15694" d="M115.91 168.49L148.65 64.08C149.73 60.63 153.26 58.56 156.8 59.32C160.94 60.2 163.42 64.52 162.03 68.52L126.2 170.68L115.91 168.49Z" stroke="#707070" stroke-opacity="0" stroke-width="1.000000"/>
	</g>
	<g style="mix-blend-mode:normal">
		<path id="Path 15695" d="M125.89 172.15L115.6 169.96C115.18 169.88 114.83 169.62 114.61 169.25C114.4 168.89 114.35 168.45 114.47 168.04L147.21 63.63C148.53 59.41 152.79 56.93 157.12 57.85C159.51 58.35 161.63 59.88 162.83 62.02C164.03 64.15 164.26 66.7 163.45 69.01L127.63 171.18C127.37 171.89 126.63 172.31 125.89 172.15ZM117.84 167.36L125.22 168.93L160.61 68.02C161.13 66.52 160.99 64.87 160.21 63.49C159.43 62.11 158.1 61.13 156.55 60.8C153.75 60.2 150.94 61.8 150.08 64.53L117.84 167.36Z" fill="#000072" fill-opacity="1.000000" fill-rule="nonzero"/>
		<path id="Path 15695" d="M115.6 169.96C115.18 169.88 114.83 169.62 114.61 169.25C114.4 168.89 114.35 168.45 114.47 168.04L147.21 63.63C148.53 59.41 152.79 56.93 157.12 57.85C159.51 58.35 161.63 59.88 162.83 62.02C164.03 64.15 164.26 66.7 163.45 69.01L127.63 171.18C127.37 171.89 126.63 172.31 125.89 172.15L115.6 169.96ZM125.22 168.93L160.61 68.02C161.13 66.52 160.99 64.87 160.21 63.49C159.43 62.11 158.1 61.13 156.55 60.8C153.75 60.2 150.94 61.8 150.08 64.53L117.84 167.36L125.22 168.93Z" stroke="#707070" stroke-opacity="0" stroke-width="1.000000"/>
	</g>
	<g opacity="0.500000">
		<g style="mix-blend-mode:normal">
			<path id="Path 15696" d="M151.69 66.03C152.54 63.3 155.3 61.69 158.1 62.28C158.72 62.41 159.36 62.67 159.89 63C159.1 61.88 157.91 61.09 156.55 60.8C153.75 60.21 150.94 61.8 150.08 64.53L117.84 167.37L119.78 167.78L151.69 66.03Z" fill="#FFFFFF" fill-opacity="1.000000" fill-rule="nonzero"/>
			<path id="Path 15696" d="M158.1 62.28C158.72 62.41 159.36 62.67 159.89 63C159.1 61.88 157.91 61.09 156.55 60.8C153.75 60.21 150.94 61.8 150.08 64.53L117.84 167.37L119.78 167.78L151.69 66.03C152.54 63.3 155.3 61.69 158.1 62.28Z" stroke="#707070" stroke-opacity="0" stroke-width="1.000000"/>
		</g>
	</g>
	<g opacity="0.200000">
		<g style="mix-blend-mode:normal">
			<path id="Path 15697" d="M156.86 59.33C153.32 58.58 149.73 60.63 148.65 64.08L148.25 65.35C149.19 62.36 148.02 59.25 145.63 57.54L144.63 58.27C144.63 58.27 135.32 106.84 103.42 130.51C93.36 138.48 76.57 150.09 57.48 148.15L57.51 142.6L56.42 155.85L126.2 170.68L162.03 68.52C163.42 64.52 161 60.21 156.86 59.33Z" fill="#000072" fill-opacity="1.000000" fill-rule="nonzero"/>
			<path id="Path 15697" d="M148.65 64.08L148.25 65.35C149.19 62.36 148.02 59.25 145.63 57.54L144.63 58.27C144.63 58.27 135.32 106.84 103.42 130.51C93.36 138.48 76.57 150.09 57.48 148.15L57.51 142.6L56.42 155.85L126.2 170.68L162.03 68.52C163.42 64.52 161 60.21 156.86 59.33C153.32 58.58 149.73 60.63 148.65 64.08Z" stroke="#707070" stroke-opacity="0" stroke-width="1.000000"/>
		</g>
	</g>
	<g style="mix-blend-mode:normal">
		<path id="Path 15698" d="M96.3 121.91C84.02 119.3 75.27 110.82 74 100.31C73.16 93.33 75.68 86.39 81.11 80.77C86.46 75.21 94.02 71.6 102.38 70.59C106.57 70.09 110.72 70.26 114.71 71.11C126.99 73.72 135.74 82.2 137.01 92.72C137.85 99.69 135.32 106.63 129.9 112.26C124.55 117.81 116.99 121.42 108.63 122.43C104.44 122.93 100.29 122.76 96.3 121.91Z" fill="#FBFCFC" fill-opacity="1.000000" fill-rule="nonzero"/>
		<path id="Path 15698" d="M74 100.31C73.16 93.33 75.68 86.39 81.11 80.77C86.46 75.21 94.02 71.6 102.38 70.59C106.57 70.09 110.72 70.26 114.71 71.11C126.99 73.72 135.74 82.2 137.01 92.72C137.85 99.69 135.32 106.63 129.9 112.26C124.55 117.81 116.99 121.42 108.63 122.43C104.44 122.93 100.29 122.76 96.3 121.91C84.02 119.3 75.27 110.82 74 100.31Z" stroke="#707070" stroke-opacity="0" stroke-width="1.000000"/>
	</g>
	<g style="mix-blend-mode:normal">
		<path id="Path 15699" d="M114.44 72.4C125.77 74.81 134.47 82.65 135.7 92.88C137.34 106.47 125.15 119.11 108.47 121.12C104.33 121.62 100.31 121.42 96.57 120.62C85.24 118.21 76.54 110.37 75.31 100.15C73.67 86.56 85.86 73.91 102.54 71.9C106.68 71.4 110.7 71.61 114.44 72.4ZM114.99 69.83L114.44 72.4L114.99 69.83C110.85 68.95 106.56 68.77 102.23 69.29C93.56 70.33 85.72 74.08 80.16 79.85C74.46 85.77 71.81 93.09 72.69 100.46C74.03 111.55 83.18 120.47 96.02 123.2C100.16 124.08 104.45 124.26 108.78 123.74C117.45 122.69 125.28 118.94 130.85 113.17C136.55 107.25 139.2 99.93 138.31 92.56C136.98 81.48 127.82 72.55 114.99 69.83Z" fill="#000072" fill-opacity="1.000000" fill-rule="nonzero"/>
		<path id="Path 15699" d="M135.7 92.88C137.34 106.47 125.15 119.11 108.47 121.12C104.33 121.62 100.31 121.42 96.57 120.62C85.24 118.21 76.54 110.37 75.31 100.15C73.67 86.56 85.86 73.91 102.54 71.9C106.68 71.4 110.7 71.61 114.44 72.4C125.77 74.81 134.47 82.65 135.7 92.88ZM114.99 69.83L114.44 72.4M102.23 69.29C93.56 70.33 85.72 74.08 80.16 79.85C74.46 85.77 71.81 93.09 72.69 100.46C74.03 111.55 83.18 120.47 96.02 123.2C100.16 124.08 104.45 124.26 108.78 123.74C117.45 122.69 125.28 118.94 130.85 113.17C136.55 107.25 139.2 99.93 138.31 92.56C136.98 81.48 127.82 72.55 114.99 69.83C110.85 68.95 106.56 68.77 102.23 69.29Z" stroke="#707070" stroke-opacity="0" stroke-width="1.000000"/>
	</g>
	<g opacity="0.200000">
		<g style="mix-blend-mode:normal">
			<path id="Path 15700" d="M135.7 92.87C134.9 86.26 130.97 80.64 125.22 76.84C128.86 80.35 131.27 84.8 131.88 89.83C133.51 103.42 121.32 116.07 104.64 118.07C96.09 119.1 88.02 117.13 81.97 113.13C88.17 119.12 97.95 122.39 108.47 121.12C125.14 119.11 137.34 106.47 135.7 92.87Z" fill="#000072" fill-opacity="1.000000" fill-rule="nonzero"/>
			<path id="Path 15700" d="M125.22 76.84C128.86 80.35 131.27 84.8 131.88 89.83C133.51 103.42 121.32 116.07 104.64 118.07C96.09 119.1 88.02 117.13 81.97 113.13C88.17 119.12 97.95 122.39 108.47 121.12C125.14 119.11 137.34 106.47 135.7 92.87C134.9 86.26 130.97 80.64 125.22 76.84Z" stroke="#707070" stroke-opacity="0" stroke-width="1.000000"/>
		</g>
	</g>
	<g style="mix-blend-mode:normal">
		<path id="Path 15701" d="M93.21 101.87C93.93 98.57 96.96 96.54 100.47 96.98C103.48 97.36 105.91 100.34 105.77 103.52C105.65 106.2 104.34 108.17 101.89 109.2C99.44 110.22 97.12 109.79 95.12 108C94.92 107.82 94.87 107.49 94.74 107.23C94.53 106.81 94.35 106.35 94.07 105.97C93.09 104.63 92.84 103.53 93.21 101.87ZM97.54 102.89C97.33 103.96 98 105.02 99.04 105.24C100.07 105.46 101.09 104.79 101.31 103.74C101.54 102.66 100.82 101.54 99.78 101.35C98.73 101.15 97.75 101.83 97.54 102.89Z" fill="#FF5722" fill-opacity="1.000000" fill-rule="nonzero"/>
		<path id="Path 15701" d="M100.47 96.98C103.48 97.36 105.91 100.34 105.77 103.52C105.65 106.2 104.34 108.17 101.89 109.2C99.44 110.22 97.12 109.79 95.12 108C94.92 107.82 94.87 107.49 94.74 107.23C94.53 106.81 94.35 106.35 94.07 105.97C93.09 104.63 92.84 103.53 93.21 101.87C93.93 98.57 96.96 96.54 100.47 96.98ZM99.04 105.24C100.07 105.46 101.09 104.79 101.31 103.74C101.54 102.66 100.82 101.54 99.78 101.35C98.73 101.15 97.75 101.83 97.54 102.89C97.33 103.96 98 105.02 99.04 105.24Z" stroke="#707070" stroke-opacity="0" stroke-width="1.000000"/>
	</g>
	<g style="mix-blend-mode:normal">
		<path id="Path 15702" d="M117.69 109.87C116.9 109.92 116.25 109.94 115.6 110C114.95 110.06 114.29 110.09 113.65 110.24C112.91 110.42 112.54 110.16 112.25 109.49C111.87 108.61 111.39 107.78 110.8 106.96C110.82 107.18 110.83 107.4 110.87 107.61C111 108.41 111.14 109.2 111.3 109.99C111.37 110.36 111.27 110.52 110.88 110.54C109.6 110.64 108.31 110.73 107.03 110.87C106.61 110.92 106.44 110.84 106.42 110.38C106.35 108.79 106.21 107.2 106.17 105.6C106.16 104.8 106.37 104 106.4 103.19C106.44 102.01 106.11 100.9 105.55 99.86C105.16 99.12 105.25 98.96 106.06 98.88C107.91 98.69 109.75 98.41 111.61 98.33C112.58 98.29 113.65 98.41 114.55 98.77C116.87 99.7 117.38 103.08 115.51 104.89C115.06 105.33 115.05 105.6 115.36 106.09C116.13 107.28 116.86 108.51 117.69 109.87ZM110.45 103.74C111.54 103.74 112.06 103.36 111.99 102.65C111.94 102.1 111.39 101.74 110.72 101.83C110.2 101.9 110.13 102.38 110.45 103.74Z" fill="#FF5722" fill-opacity="1.000000" fill-rule="nonzero"/>
		<path id="Path 15702" d="M115.6 110C114.95 110.06 114.29 110.09 113.65 110.24C112.91 110.42 112.54 110.16 112.25 109.49C111.87 108.61 111.39 107.78 110.8 106.96C110.82 107.18 110.83 107.4 110.87 107.61C111 108.41 111.14 109.2 111.3 109.99C111.37 110.36 111.27 110.52 110.88 110.54C109.6 110.64 108.31 110.73 107.03 110.87C106.61 110.92 106.44 110.84 106.42 110.38C106.35 108.79 106.21 107.2 106.17 105.6C106.16 104.8 106.37 104 106.4 103.19C106.44 102.01 106.11 100.9 105.55 99.86C105.16 99.12 105.25 98.96 106.06 98.88C107.91 98.69 109.75 98.41 111.61 98.33C112.58 98.29 113.65 98.41 114.55 98.77C116.87 99.7 117.38 103.08 115.51 104.89C115.06 105.33 115.05 105.6 115.36 106.09C116.13 107.28 116.86 108.51 117.69 109.87C116.9 109.92 116.25 109.94 115.6 110ZM111.99 102.65C111.94 102.1 111.39 101.74 110.72 101.83C110.2 101.9 110.13 102.38 110.45 103.74C111.54 103.74 112.06 103.36 111.99 102.65Z" stroke="#707070" stroke-opacity="0" stroke-width="1.000000"/>
	</g>
	<g style="mix-blend-mode:normal">
		<path id="Path 15703" d="M121.99 98.45C121.81 97.33 121.62 96.22 121.46 95.1C121.24 93.53 121.25 93.86 122.53 93.76C123.61 93.68 124.7 93.55 125.88 93.43C125.91 93.86 125.95 94.29 125.98 94.71C126.24 98.07 126.49 101.42 126.77 104.77C126.82 105.32 126.65 105.45 126.16 105.48C125.26 105.52 124.38 105.66 123.48 105.69C123.18 105.7 122.79 105.58 122.59 105.37C121.54 104.29 120.53 103.16 119.5 102.06C119.35 101.89 119.16 101.75 118.84 101.68C118.98 102.77 119.11 103.86 119.25 104.95C119.35 105.75 119.01 106.17 118.23 106.2C117.86 106.21 117.47 106.17 117.12 106.27C116.42 106.47 116.05 106.2 115.84 105.51C116.92 104.57 117.31 103.33 117.25 101.9C117.16 100.08 116.35 98.76 114.65 98.08C114.31 97.94 114.17 97.78 114.14 97.43C114.06 96.67 113.96 95.91 113.85 95.15C113.81 94.83 113.88 94.67 114.22 94.6C115.21 94.41 116.2 94.21 117.17 93.98C117.55 93.89 117.76 93.99 118.01 94.28C119.25 95.72 120.53 97.13 121.79 98.55C121.86 98.52 121.92 98.48 121.99 98.45Z" fill="#FF5722" fill-opacity="1.000000" fill-rule="nonzero"/>
		<path id="Path 15703" d="M121.46 95.1C121.24 93.53 121.25 93.86 122.53 93.76C123.61 93.68 124.7 93.55 125.88 93.43C125.91 93.86 125.95 94.29 125.98 94.71C126.24 98.07 126.49 101.42 126.77 104.77C126.82 105.32 126.65 105.45 126.16 105.48C125.26 105.52 124.38 105.66 123.48 105.69C123.18 105.7 122.79 105.58 122.59 105.37C121.54 104.29 120.53 103.16 119.5 102.06C119.35 101.89 119.16 101.75 118.84 101.68C118.98 102.77 119.11 103.86 119.25 104.95C119.35 105.75 119.01 106.17 118.23 106.2C117.86 106.21 117.47 106.17 117.12 106.27C116.42 106.47 116.05 106.2 115.84 105.51C116.92 104.57 117.31 103.33 117.25 101.9C117.16 100.08 116.35 98.76 114.65 98.08C114.31 97.94 114.17 97.78 114.14 97.43C114.06 96.67 113.96 95.91 113.85 95.15C113.81 94.83 113.88 94.67 114.22 94.6C115.21 94.41 116.2 94.21 117.17 93.98C117.55 93.89 117.76 93.99 118.01 94.28C119.25 95.72 120.53 97.13 121.79 98.55C121.86 98.52 121.92 98.48 121.99 98.45C121.81 97.33 121.62 96.22 121.46 95.1Z" stroke="#707070" stroke-opacity="0" stroke-width="1.000000"/>
	</g>
	<g style="mix-blend-mode:normal">
		<path id="Path 15704" d="M107.7 90.1C107.13 92.61 105.03 94.59 102.5 94.98C99.83 95.39 97.27 94.19 95.98 91.91C95.88 91.74 95.9 91.39 96.01 91.25C97.54 89.34 97.57 87.23 96.81 85.04C96.66 84.59 96.73 84.35 97.04 84.04C98.81 82.3 101.63 81.76 103.93 82.75C106.33 83.77 107.9 86.24 107.81 88.86C107.79 89.27 107.74 89.69 107.7 90.1ZM99.6 88.15C99.33 89.25 99.98 90.35 101.03 90.6C102.04 90.83 103.06 90.21 103.32 89.21C103.6 88.14 102.95 86.99 101.92 86.73C100.89 86.48 99.85 87.11 99.6 88.15Z" fill="#FF5722" fill-opacity="1.000000" fill-rule="nonzero"/>
		<path id="Path 15704" d="M102.5 94.98C99.83 95.39 97.27 94.19 95.98 91.91C95.88 91.74 95.9 91.39 96.01 91.25C97.54 89.34 97.57 87.23 96.81 85.04C96.66 84.59 96.73 84.35 97.04 84.04C98.81 82.3 101.63 81.76 103.93 82.75C106.33 83.77 107.9 86.24 107.81 88.86C107.79 89.27 107.74 89.69 107.7 90.1C107.13 92.61 105.03 94.59 102.5 94.98ZM101.03 90.6C102.04 90.83 103.06 90.21 103.32 89.21C103.6 88.14 102.95 86.99 101.92 86.73C100.89 86.48 99.85 87.11 99.6 88.15C99.33 89.25 99.98 90.35 101.03 90.6Z" stroke="#707070" stroke-opacity="0" stroke-width="1.000000"/>
	</g>
	<g style="mix-blend-mode:normal">
		<path id="Path 15705" d="M85.26 83.13C85.54 83.1 85.75 83.08 85.96 83.06C87.65 82.89 89.35 82.77 91.04 82.56C94.51 82.12 97.13 84.42 96.55 88.52C96.22 90.78 94.6 92.1 92.21 92.21C90.67 92.28 90.88 92.17 91.11 93.6C91.13 93.73 91.16 93.86 91.19 93.99C91.33 94.51 91.21 94.71 90.6 94.72C89.44 94.75 88.29 94.88 87.15 95.03C86.58 95.11 86.39 94.97 86.34 94.38C86.09 91.21 85.81 88.03 85.52 84.86C85.47 84.3 85.35 83.75 85.26 83.13ZM90.53 88.72C90.59 88.78 90.65 88.84 90.71 88.91C91.07 88.68 91.64 88.53 91.75 88.22C91.9 87.76 91.84 87.14 91.65 86.68C91.56 86.44 91 86.39 90.66 86.25C90.55 86.52 90.37 86.78 90.37 87.04C90.37 87.6 90.47 88.16 90.53 88.72Z" fill="#FF5722" fill-opacity="1.000000" fill-rule="nonzero"/>
		<path id="Path 15705" d="M85.96 83.06C87.65 82.89 89.35 82.77 91.04 82.56C94.51 82.12 97.13 84.42 96.55 88.52C96.22 90.78 94.6 92.1 92.21 92.21C90.67 92.28 90.88 92.17 91.11 93.6C91.13 93.73 91.16 93.86 91.19 93.99C91.33 94.51 91.21 94.71 90.6 94.72C89.44 94.75 88.29 94.88 87.15 95.03C86.58 95.11 86.39 94.97 86.34 94.38C86.09 91.21 85.81 88.03 85.52 84.86C85.47 84.3 85.35 83.75 85.26 83.13C85.54 83.1 85.75 83.08 85.96 83.06ZM90.71 88.91C91.07 88.68 91.64 88.53 91.75 88.22C91.9 87.76 91.84 87.14 91.65 86.68C91.56 86.44 91 86.39 90.66 86.25C90.55 86.52 90.37 86.78 90.37 87.04C90.37 87.6 90.47 88.16 90.53 88.72C90.59 88.78 90.65 88.84 90.71 88.91Z" stroke="#707070" stroke-opacity="0" stroke-width="1.000000"/>
	</g>
	<g style="mix-blend-mode:normal">
		<path id="Path 15706" d="M106.9 83.58C107.24 83.54 107.45 83.52 107.66 83.5C109.38 83.33 111.1 83.18 112.81 83C116.16 82.65 118.39 84.68 118.33 88.07C118.28 90.85 116.63 92.53 113.82 92.66C112.36 92.72 112.58 92.67 112.79 93.94C113 95.12 113.01 95.09 111.81 95.16C110.77 95.23 109.72 95.35 108.68 95.48C108.26 95.54 108.09 95.44 108.07 94.99C108.04 93.92 107.95 92.85 107.9 91.78C107.9 91.59 107.94 91.39 108.01 91.21C108.8 88.93 108.56 86.78 107.29 84.73C107.09 84.42 107.04 84.02 106.9 83.58ZM112.24 89.21C113.49 89.14 114.08 88.07 113.4 87.16C113.19 86.89 112.7 86.85 112.34 86.7C112.24 86.97 112.07 87.23 112.07 87.5C112.08 88.06 112.17 88.62 112.24 89.21Z" fill="#FF5722" fill-opacity="1.000000" fill-rule="nonzero"/>
		<path id="Path 15706" d="M107.66 83.5C109.38 83.33 111.1 83.18 112.81 83C116.16 82.65 118.39 84.68 118.33 88.07C118.28 90.85 116.63 92.53 113.82 92.66C112.36 92.72 112.58 92.67 112.79 93.94C113 95.12 113.01 95.09 111.81 95.16C110.77 95.23 109.72 95.35 108.68 95.48C108.26 95.54 108.09 95.44 108.07 94.99C108.04 93.92 107.95 92.85 107.9 91.78C107.9 91.59 107.94 91.39 108.01 91.21C108.8 88.93 108.56 86.78 107.29 84.73C107.09 84.42 107.04 84.02 106.9 83.58C107.24 83.54 107.45 83.52 107.66 83.5ZM113.4 87.16C113.19 86.89 112.7 86.85 112.34 86.7C112.24 86.97 112.07 87.23 112.07 87.5C112.08 88.06 112.17 88.62 112.24 89.21C113.49 89.14 114.08 88.07 113.4 87.16Z" stroke="#707070" stroke-opacity="0" stroke-width="1.000000"/>
	</g>
	<g style="mix-blend-mode:normal">
		<path id="Path 15707" d="M92.05 104.51C92.59 105.2 93.29 106.03 93.92 106.92C94.05 107.11 93.98 107.58 93.83 107.79C92.8 109.24 91.29 109.84 89.59 109.91C86.97 110.02 84.9 108.91 83.69 106.6C82.47 104.28 82.61 101.93 84.2 99.79C85.79 97.65 87.99 96.88 90.58 97.38C91.43 97.54 92.22 98.04 93.02 98.42C93.39 98.59 93.48 98.88 93.29 99.29C92.9 100.12 92.54 100.97 92.19 101.82C91.97 102.35 91.74 102.42 91.2 102.12C90.67 101.82 90.03 101.6 89.43 101.57C88.26 101.52 87.41 102.5 87.49 103.65C87.56 104.81 88.6 105.73 89.73 105.49C90.49 105.32 91.18 104.89 92.05 104.51Z" fill="#FF5722" fill-opacity="1.000000" fill-rule="nonzero"/>
		<path id="Path 15707" d="M93.92 106.92C94.05 107.11 93.98 107.58 93.83 107.79C92.8 109.24 91.29 109.84 89.59 109.91C86.97 110.02 84.9 108.91 83.69 106.6C82.47 104.28 82.61 101.93 84.2 99.79C85.79 97.65 87.99 96.88 90.58 97.38C91.43 97.54 92.22 98.04 93.02 98.42C93.39 98.59 93.48 98.88 93.29 99.29C92.9 100.12 92.54 100.97 92.19 101.82C91.97 102.35 91.74 102.42 91.2 102.12C90.67 101.82 90.03 101.6 89.43 101.57C88.26 101.52 87.41 102.5 87.49 103.65C87.56 104.81 88.6 105.73 89.73 105.49C90.49 105.32 91.18 104.89 92.05 104.51C92.59 105.2 93.29 106.03 93.92 106.92Z" stroke="#707070" stroke-opacity="0" stroke-width="1.000000"/>
	</g>
	<g opacity="0.200000">
		<g style="mix-blend-mode:normal">
			<path id="Path 15708" d="M142.92 40.99C142.92 40.99 133.46 54.74 92.67 43.19L89.05 43.96L89.76 46.03L92.98 49.99L98.82 46.8L103.27 48.54C103.27 48.54 106.59 51.01 106.77 51.5C106.94 51.99 107.89 52.96 107.89 52.96L113.53 49.93L118.6 51.39C118.6 51.39 120.09 54.76 120.28 55.01C120.47 55.25 123.39 54.56 123.39 54.56C123.39 54.56 127.51 52.9 127.88 52.98C128.24 53.06 131.66 54.41 131.66 54.41L134.97 57.56L139.44 57.33C139.44 57.33 142.22 56.03 142.96 56.18C143.69 56.34 148.08 59.19 148.08 59.19L149.53 61.42L154.73 58.68L153.72 56.16L150.65 54.36L151.09 48.68L148.85 44.75L145.03 42.79L142.92 40.99Z" fill="#000072" fill-opacity="1.000000" fill-rule="nonzero"/>
			<path id="Path 15708" d="M92.67 43.19L89.05 43.96L89.76 46.03L92.98 49.99L98.82 46.8L103.27 48.54C103.27 48.54 106.59 51.01 106.77 51.5C106.94 51.99 107.89 52.96 107.89 52.96L113.53 49.93L118.6 51.39C118.6 51.39 120.09 54.76 120.28 55.01C120.47 55.25 123.39 54.56 123.39 54.56C123.39 54.56 127.51 52.9 127.88 52.98C128.24 53.06 131.66 54.41 131.66 54.41L134.97 57.56L139.44 57.33C139.44 57.33 142.22 56.03 142.96 56.18C143.69 56.34 148.08 59.19 148.08 59.19L149.53 61.42L154.73 58.68L153.72 56.16L150.65 54.36L151.09 48.68L148.85 44.75L145.03 42.79L142.92 40.99C142.92 40.99 133.46 54.74 92.67 43.19Z" stroke="#707070" stroke-opacity="0" stroke-width="1.000000"/>
		</g>
	</g>
	<g opacity="0.200000">
		<g style="mix-blend-mode:normal">
			<path id="Path 15709" d="M145.71 29.67C145.71 29.67 141.28 36.03 130.43 31.03L132.83 33.27L139.3 35.41C139.3 35.41 144.21 37.61 144.13 37.98C144.06 38.35 144.46 41.89 144.46 41.89C144.46 41.89 146.35 43.83 146.93 44.73C147.51 45.62 149.98 48.45 149.98 48.45L151.14 51.66C151.14 51.66 150.07 53.47 150.65 54.36C151.23 55.25 154.21 57.8 154.21 57.8L159.14 59.62L161.87 59.43L160.05 51.74C160.05 51.74 157.89 47.44 157.52 47.36C157.15 47.28 155.39 46.52 155.39 46.52L156.14 39.38L155.45 35.39C155.45 35.39 152.53 32.85 151.35 32.98C150.17 33.11 145.75 32.17 145.75 32.17L145.71 29.67Z" fill="#000072" fill-opacity="1.000000" fill-rule="nonzero"/>
			<path id="Path 15709" d="M130.43 31.03L132.83 33.27L139.3 35.41C139.3 35.41 144.21 37.61 144.13 37.98C144.06 38.35 144.46 41.89 144.46 41.89C144.46 41.89 146.35 43.83 146.93 44.73C147.51 45.62 149.98 48.45 149.98 48.45L151.14 51.66C151.14 51.66 150.07 53.47 150.65 54.36C151.23 55.25 154.21 57.8 154.21 57.8L159.14 59.62L161.87 59.43L160.05 51.74C160.05 51.74 157.89 47.44 157.52 47.36C157.15 47.28 155.39 46.52 155.39 46.52L156.14 39.38L155.45 35.39C155.45 35.39 152.53 32.85 151.35 32.98C150.17 33.11 145.75 32.17 145.75 32.17L145.71 29.67C145.71 29.67 141.28 36.03 130.43 31.03Z" stroke="#707070" stroke-opacity="0" stroke-width="1.000000"/>
		</g>
	</g>
	<g style="mix-blend-mode:normal">
		<path id="Path 15710" d="M34.02 151.16C31.18 150.56 29.36 147.76 29.96 144.92C30.52 142.31 32.93 140.56 35.53 140.76C36.42 137.69 39.56 135.77 42.74 136.45C45.92 137.12 48.01 140.15 47.58 143.32C50.03 144.19 51.53 146.77 50.97 149.38C50.37 152.22 47.57 154.04 44.72 153.44L34.02 151.16Z" fill="#FFD54F" fill-opacity="1.000000" fill-rule="nonzero"/>
		<path id="Path 15710" d="M29.96 144.92C30.52 142.31 32.93 140.56 35.53 140.76C36.42 137.69 39.56 135.77 42.74 136.45C45.92 137.12 48.01 140.15 47.58 143.32C50.03 144.19 51.53 146.77 50.97 149.38C50.37 152.22 47.57 154.04 44.72 153.44L34.02 151.16C31.18 150.56 29.36 147.76 29.96 144.92Z" stroke="#707070" stroke-opacity="0" stroke-width="1.000000"/>
	</g>
	<g style="mix-blend-mode:normal">
		<path id="Path 15711" d="M42.47 137.73C45.1 138.29 46.77 140.88 46.22 143.5C46.16 143.77 46.08 144.03 45.98 144.28L46.64 144.42C48.78 144.88 50.14 146.97 49.68 149.11C49.23 151.24 47.13 152.61 45 152.15L34.3 149.88C32.16 149.42 30.8 147.33 31.25 145.19C31.71 143.06 33.8 141.69 35.94 142.15L36.6 142.29C36.61 142.02 36.64 141.75 36.7 141.48C37.26 138.85 39.84 137.18 42.47 137.73ZM43.02 135.16C39.5 134.41 36.02 136.28 34.61 139.45C31.77 139.67 29.3 141.72 28.68 144.64C27.92 148.19 30.2 151.7 33.75 152.45L44.45 154.73C48 155.48 51.51 153.21 52.26 149.66C52.88 146.74 51.45 143.85 48.95 142.5C48.96 139.03 46.54 135.91 43.02 135.16Z" fill="#000072" fill-opacity="1.000000" fill-rule="nonzero"/>
		<path id="Path 15711" d="M46.22 143.5C46.16 143.77 46.08 144.03 45.98 144.28L46.64 144.42C48.78 144.88 50.14 146.97 49.68 149.11C49.23 151.24 47.13 152.61 45 152.15L34.3 149.88C32.16 149.42 30.8 147.33 31.25 145.19C31.71 143.06 33.8 141.69 35.94 142.15L36.6 142.29C36.61 142.02 36.64 141.75 36.7 141.48C37.26 138.85 39.84 137.18 42.47 137.73C45.1 138.29 46.77 140.88 46.22 143.5ZM34.61 139.45C31.77 139.67 29.3 141.72 28.68 144.64C27.92 148.19 30.2 151.7 33.75 152.45L44.45 154.73C48 155.48 51.51 153.21 52.26 149.66C52.88 146.74 51.45 143.85 48.95 142.5C48.96 139.03 46.54 135.91 43.02 135.16C39.5 134.41 36.02 136.28 34.61 139.45Z" stroke="#707070" stroke-opacity="0" stroke-width="1.000000"/>
	</g>
	<g opacity="0.500000">
		<g style="mix-blend-mode:normal">
			<path id="Path 15712" d="M48.64 145.52C48.16 145.03 47.55 144.66 46.84 144.48C46.8 144.61 46.76 144.74 46.71 144.86L47.37 145C47.83 145.1 48.26 145.28 48.64 145.52Z" fill="#FFFFFF" fill-opacity="1.000000" fill-rule="nonzero"/>
			<path id="Path 15712" d="M46.84 144.48C46.8 144.61 46.76 144.74 46.71 144.86L47.37 145C47.83 145.1 48.26 145.28 48.64 145.52C48.16 145.03 47.55 144.66 46.84 144.48Z" stroke="#707070" stroke-opacity="0" stroke-width="1.000000"/>
		</g>
	</g>
	<g opacity="0.500000">
		<g style="mix-blend-mode:normal">
			<path id="Path 15713" d="M31.98 145.77C32.43 143.64 34.53 142.27 36.67 142.73L37.33 142.87C37.34 142.6 37.37 142.33 37.43 142.06C37.99 139.43 40.57 137.76 43.2 138.32C43.8 138.44 44.35 138.68 44.84 139C44.2 138.39 43.4 137.93 42.47 137.74C39.84 137.18 37.26 138.85 36.7 141.48C36.64 141.75 36.61 142.02 36.6 142.29L35.94 142.15C33.8 141.69 31.71 143.06 31.25 145.19C30.9 146.86 31.66 148.51 33.03 149.36C32.13 148.45 31.7 147.12 31.98 145.77Z" fill="#FFFFFF" fill-opacity="1.000000" fill-rule="nonzero"/>
			<path id="Path 15713" d="M36.67 142.73L37.33 142.87C37.34 142.6 37.37 142.33 37.43 142.06C37.99 139.43 40.57 137.76 43.2 138.32C43.8 138.44 44.35 138.68 44.84 139C44.2 138.39 43.4 137.93 42.47 137.74C39.84 137.18 37.26 138.85 36.7 141.48C36.64 141.75 36.61 142.02 36.6 142.29L35.94 142.15C33.8 141.69 31.71 143.06 31.25 145.19C30.9 146.86 31.66 148.51 33.03 149.36C32.13 148.45 31.7 147.12 31.98 145.77C32.43 143.64 34.53 142.27 36.67 142.73Z" stroke="#707070" stroke-opacity="0" stroke-width="1.000000"/>
		</g>
	</g>
	<g opacity="0.500000">
		<g style="mix-blend-mode:normal">
			<ellipse id="Ellipse 323" rx="1.006234" ry="1.006235" transform="matrix(0.978148 0.207912 -0.207912 0.978148 39.9529 140.904)" fill="#000072" fill-opacity="1.000000"/>
			<ellipse id="Ellipse 323" rx="1.006234" ry="1.006235" transform="matrix(0.978148 0.207912 -0.207912 0.978148 39.9529 140.904)" stroke="#707070" stroke-opacity="0" stroke-width="1.000000"/>
		</g>
	</g>
	<g style="mix-blend-mode:normal">
		<ellipse id="Ellipse 324" rx="1.125809" ry="1.125809" transform="matrix(0.978148 0.207912 -0.207912 0.978148 35.4846 146.467)" fill="#FFFFFF" fill-opacity="1.000000"/>
		<ellipse id="Ellipse 324" rx="1.125809" ry="1.125809" transform="matrix(0.978148 0.207912 -0.207912 0.978148 35.4846 146.467)" stroke="#707070" stroke-opacity="0" stroke-width="1.000000"/>
	</g>
	<g opacity="0.200000">
		<g style="mix-blend-mode:normal">
			<path id="Path 15714" d="M45.92 138.83C45.92 138.83 45.13 150.6 30.68 148.38L33.67 151.36L47.12 154.22L50.52 150.25L50.81 146.9L49.38 143.62L47.43 142.78L45.92 138.83Z" fill="#000072" fill-opacity="1.000000" fill-rule="nonzero"/>
			<path id="Path 15714" d="M30.68 148.38L33.67 151.36L47.12 154.22L50.52 150.25L50.81 146.9L49.38 143.62L47.43 142.78L45.92 138.83C45.92 138.83 45.13 150.6 30.68 148.38Z" stroke="#707070" stroke-opacity="0" stroke-width="1.000000"/>
		</g>
	</g>
	<g style="mix-blend-mode:normal">
		<path id="Path 15715" d="M139.01 173.56C136.27 172.98 134.52 170.28 135.1 167.55C135.63 165.05 137.92 163.37 140.4 163.54C141.28 160.61 144.28 158.8 147.32 159.45C150.36 160.09 152.36 162.97 151.98 166C154.31 166.85 155.72 169.32 155.19 171.82C154.61 174.55 151.91 176.3 149.18 175.72L139.01 173.56Z" fill="#FFD54F" fill-opacity="1.000000" fill-rule="nonzero"/>
		<path id="Path 15715" d="M135.1 167.55C135.63 165.05 137.92 163.37 140.4 163.54C141.28 160.61 144.28 158.8 147.32 159.45C150.36 160.09 152.36 162.97 151.98 166C154.31 166.85 155.72 169.32 155.19 171.82C154.61 174.55 151.91 176.3 149.18 175.72L139.01 173.56C136.27 172.98 134.52 170.28 135.1 167.55Z" stroke="#707070" stroke-opacity="0" stroke-width="1.000000"/>
	</g>
	<g style="mix-blend-mode:normal">
		<path id="Path 15716" d="M147.05 160.73C149.54 161.26 151.14 163.72 150.61 166.21C150.55 166.47 150.48 166.72 150.38 166.95L151.01 167.09C153.04 167.52 154.34 169.51 153.91 171.54C153.47 173.57 151.48 174.86 149.45 174.43L139.28 172.27C137.25 171.84 135.96 169.85 136.39 167.82C136.82 165.79 138.81 164.49 140.84 164.93L141.47 165.06C141.48 164.81 141.51 164.55 141.57 164.29C142.1 161.8 144.55 160.2 147.05 160.73ZM147.6 158.16C144.21 157.44 140.87 159.22 139.49 162.24C136.77 162.48 134.41 164.47 133.81 167.27C133.08 170.72 135.29 174.11 138.73 174.85L148.9 177.01C152.35 177.74 155.75 175.53 156.48 172.09C157.08 169.28 155.72 166.51 153.34 165.18C153.31 161.86 150.98 158.88 147.6 158.16Z" fill="#000072" fill-opacity="1.000000" fill-rule="nonzero"/>
		<path id="Path 15716" d="M150.61 166.21C150.55 166.47 150.48 166.72 150.38 166.95L151.01 167.09C153.04 167.52 154.34 169.51 153.91 171.54C153.47 173.57 151.48 174.86 149.45 174.43L139.28 172.27C137.25 171.84 135.96 169.85 136.39 167.82C136.82 165.79 138.81 164.49 140.84 164.93L141.47 165.06C141.48 164.81 141.51 164.55 141.57 164.29C142.1 161.8 144.55 160.2 147.05 160.73C149.54 161.26 151.14 163.72 150.61 166.21ZM139.49 162.24C136.77 162.48 134.41 164.47 133.81 167.27C133.08 170.72 135.29 174.11 138.73 174.85L148.9 177.01C152.35 177.74 155.75 175.53 156.48 172.09C157.08 169.28 155.72 166.51 153.34 165.18C153.31 161.86 150.98 158.88 147.6 158.16C144.21 157.44 140.87 159.22 139.49 162.24Z" stroke="#707070" stroke-opacity="0" stroke-width="1.000000"/>
	</g>
	<g opacity="0.500000">
		<g style="mix-blend-mode:normal">
			<path id="Path 15717" d="M152.91 168.13C152.45 167.67 151.87 167.32 151.2 167.14C151.17 167.26 151.12 167.39 151.08 167.51L151.71 167.64C152.15 167.73 152.55 167.9 152.91 168.13Z" fill="#FFFFFF" fill-opacity="1.000000" fill-rule="nonzero"/>
			<path id="Path 15717" d="M151.2 167.14C151.17 167.26 151.12 167.39 151.08 167.51L151.71 167.64C152.15 167.73 152.55 167.9 152.91 168.13C152.45 167.67 151.87 167.32 151.2 167.14Z" stroke="#707070" stroke-opacity="0" stroke-width="1.000000"/>
		</g>
	</g>
	<g opacity="0.500000">
		<g style="mix-blend-mode:normal">
			<path id="Path 15718" d="M137.08 168.37C137.51 166.34 139.5 165.05 141.53 165.48L142.16 165.61C142.17 165.36 142.2 165.1 142.26 164.85C142.79 162.35 145.24 160.75 147.74 161.28C148.31 161.41 148.83 161.63 149.3 161.93C148.69 161.35 147.93 160.92 147.05 160.73C144.55 160.2 142.1 161.8 141.57 164.29C141.51 164.55 141.48 164.81 141.47 165.06L140.84 164.93C138.81 164.5 136.82 165.79 136.39 167.82C136.05 169.41 136.77 170.97 138.08 171.78C137.22 170.91 136.81 169.65 137.08 168.37Z" fill="#FFFFFF" fill-opacity="1.000000" fill-rule="nonzero"/>
			<path id="Path 15718" d="M141.53 165.48L142.16 165.61C142.17 165.36 142.2 165.1 142.26 164.85C142.79 162.35 145.24 160.75 147.74 161.28C148.31 161.41 148.83 161.63 149.3 161.93C148.69 161.35 147.93 160.92 147.05 160.73C144.55 160.2 142.1 161.8 141.57 164.29C141.51 164.55 141.48 164.81 141.47 165.06L140.84 164.93C138.81 164.5 136.82 165.79 136.39 167.82C136.05 169.41 136.77 170.97 138.08 171.78C137.22 170.91 136.81 169.65 137.08 168.37C137.51 166.34 139.5 165.05 141.53 165.48Z" stroke="#707070" stroke-opacity="0" stroke-width="1.000000"/>
		</g>
	</g>
	<g opacity="0.500000">
		<g style="mix-blend-mode:normal">
			<ellipse id="Ellipse 325" rx="0.956599" ry="0.956600" transform="matrix(0.978148 0.207912 -0.207912 0.978148 144.656 163.745)" fill="#000072" fill-opacity="1.000000"/>
			<ellipse id="Ellipse 325" rx="0.956599" ry="0.956600" transform="matrix(0.978148 0.207912 -0.207912 0.978148 144.656 163.745)" stroke="#707070" stroke-opacity="0" stroke-width="1.000000"/>
		</g>
	</g>
	<g style="mix-blend-mode:normal">
		<ellipse id="Ellipse 326" rx="1.070158" ry="1.070158" transform="matrix(0.978148 0.207912 -0.207912 0.978148 140.41 169.032)" fill="#FFFFFF" fill-opacity="1.000000"/>
		<ellipse id="Ellipse 326" rx="1.070158" ry="1.070158" transform="matrix(0.978148 0.207912 -0.207912 0.978148 140.41 169.032)" stroke="#707070" stroke-opacity="0" stroke-width="1.000000"/>
	</g>
	<g opacity="0.200000">
		<g style="mix-blend-mode:normal">
			<path id="Path 15719" d="M150.33 161.78C150.33 161.78 149.57 172.95 135.85 170.85L138.69 173.68L151.47 176.39L154.7 172.63L154.97 169.44L153.61 166.32L151.76 165.52L150.33 161.78Z" fill="#000072" fill-opacity="1.000000" fill-rule="nonzero"/>
			<path id="Path 15719" d="M135.85 170.85L138.69 173.68L151.47 176.39L154.7 172.63L154.97 169.44L153.61 166.32L151.76 165.52L150.33 161.78C150.33 161.78 149.57 172.95 135.85 170.85Z" stroke="#707070" stroke-opacity="0" stroke-width="1.000000"/>
		</g>
	</g>
	<g style="mix-blend-mode:normal">
		<path id="Path 15720" d="M126.75 171.12C124.27 170.59 122.68 168.15 123.21 165.67C123.74 163.19 126.18 161.6 128.66 162.13L131.48 162.73C132.87 161.39 134.83 160.82 136.76 161.24C139.93 161.91 141.96 165.04 141.29 168.2C140.61 171.37 137.49 173.4 134.32 172.73L126.75 171.12Z" fill="#FFD54F" fill-opacity="1.000000" fill-rule="nonzero"/>
		<path id="Path 15720" d="M123.21 165.67C123.74 163.19 126.18 161.6 128.66 162.13L131.48 162.73C132.87 161.39 134.83 160.82 136.76 161.24C139.93 161.91 141.96 165.04 141.29 168.2C140.61 171.37 137.49 173.4 134.32 172.73L126.75 171.12C124.27 170.59 122.68 168.15 123.21 165.67Z" stroke="#707070" stroke-opacity="0" stroke-width="1.000000"/>
	</g>
	<g style="mix-blend-mode:normal">
		<path id="Path 15721" d="M136.49 162.52C138.95 163.04 140.52 165.47 140 167.93C139.47 170.39 137.05 171.96 134.59 171.44L127.02 169.83C125.25 169.46 124.12 167.72 124.5 165.94C124.87 164.17 126.61 163.04 128.39 163.42L131.94 164.17C132.98 162.85 134.72 162.15 136.49 162.52ZM137.03 159.95C134.91 159.5 132.76 160.01 131.11 161.31L128.93 160.84C125.75 160.17 122.6 162.21 121.92 165.4C121.25 168.58 123.29 171.73 126.48 172.41L133.99 174.01C137.87 174.83 141.75 172.36 142.57 168.48C143.4 164.6 140.91 160.77 137.03 159.95Z" fill="#000072" fill-opacity="1.000000" fill-rule="nonzero"/>
		<path id="Path 15721" d="M140 167.93C139.47 170.39 137.05 171.96 134.59 171.44L127.02 169.83C125.25 169.46 124.12 167.72 124.5 165.94C124.87 164.17 126.61 163.04 128.39 163.42L131.94 164.17C132.98 162.85 134.72 162.15 136.49 162.52C138.95 163.04 140.52 165.47 140 167.93ZM131.11 161.31L128.93 160.84C125.75 160.17 122.6 162.21 121.92 165.4C121.25 168.58 123.29 171.73 126.48 172.41L133.99 174.01C137.87 174.83 141.75 172.36 142.57 168.48C143.4 164.6 140.91 160.77 137.03 159.95C134.91 159.5 132.76 160.01 131.11 161.31Z" stroke="#707070" stroke-opacity="0" stroke-width="1.000000"/>
	</g>
	<g style="mix-blend-mode:normal">
		<path id="Path 15722" d="M126.75 171.12C124.27 170.59 122.68 168.15 123.21 165.67C123.74 163.19 126.18 161.6 128.66 162.13L131.48 162.73C132.87 161.39 134.83 160.82 136.76 161.24C139.93 161.91 141.96 165.04 141.29 168.2C140.61 171.37 137.49 173.4 134.32 172.73L126.75 171.12Z" fill="#FFD54F" fill-opacity="1.000000" fill-rule="nonzero"/>
		<path id="Path 15722" d="M123.21 165.67C123.74 163.19 126.18 161.6 128.66 162.13L131.48 162.73C132.87 161.39 134.83 160.82 136.76 161.24C139.93 161.91 141.96 165.04 141.29 168.2C140.61 171.37 137.49 173.4 134.32 172.73L126.75 171.12C124.27 170.59 122.68 168.15 123.21 165.67Z" stroke="#707070" stroke-opacity="0" stroke-width="1.000000"/>
	</g>
	<g style="mix-blend-mode:normal">
		<path id="Path 15723" d="M136.49 162.52C138.95 163.04 140.52 165.47 140 167.93C139.47 170.39 137.05 171.96 134.59 171.44L127.02 169.83C125.25 169.46 124.12 167.72 124.5 165.94C124.87 164.17 126.61 163.04 128.39 163.42L131.94 164.17C132.98 162.85 134.72 162.15 136.49 162.52ZM137.03 159.95C134.91 159.5 132.76 160.01 131.11 161.31L128.93 160.84C125.75 160.17 122.6 162.21 121.92 165.4C121.25 168.58 123.29 171.73 126.48 172.41L133.99 174.01C137.87 174.83 141.75 172.36 142.57 168.48C143.4 164.6 140.91 160.77 137.03 159.95Z" fill="#000072" fill-opacity="1.000000" fill-rule="nonzero"/>
		<path id="Path 15723" d="M140 167.93C139.47 170.39 137.05 171.96 134.59 171.44L127.02 169.83C125.25 169.46 124.12 167.72 124.5 165.94C124.87 164.17 126.61 163.04 128.39 163.42L131.94 164.17C132.98 162.85 134.72 162.15 136.49 162.52C138.95 163.04 140.52 165.47 140 167.93ZM131.11 161.31L128.93 160.84C125.75 160.17 122.6 162.21 121.92 165.4C121.25 168.58 123.29 171.73 126.48 172.41L133.99 174.01C137.87 174.83 141.75 172.36 142.57 168.48C143.4 164.6 140.91 160.77 137.03 159.95C134.91 159.5 132.76 160.01 131.11 161.31Z" stroke="#707070" stroke-opacity="0" stroke-width="1.000000"/>
	</g>
	<g opacity="0.500000">
		<g style="mix-blend-mode:normal">
			<path id="Path 15724" d="M124.71 166.76C125.09 164.99 126.83 163.86 128.6 164.23L132.16 164.99C133.2 163.66 134.94 162.96 136.7 163.34C138.3 163.68 139.52 164.82 140.04 166.25C139.74 164.45 138.38 162.92 136.49 162.52C134.72 162.15 132.98 162.85 131.94 164.18L128.39 163.42C126.62 163.04 124.87 164.17 124.5 165.94C124.36 166.61 124.43 167.27 124.67 167.86C124.62 167.5 124.63 167.13 124.71 166.76Z" fill="#FFFFFF" fill-opacity="1.000000" fill-rule="nonzero"/>
			<path id="Path 15724" d="M128.6 164.23L132.16 164.99C133.2 163.66 134.94 162.96 136.7 163.34C138.3 163.68 139.52 164.82 140.04 166.25C139.74 164.45 138.38 162.92 136.49 162.52C134.72 162.15 132.98 162.85 131.94 164.18L128.39 163.42C126.62 163.04 124.87 164.17 124.5 165.94C124.36 166.61 124.43 167.27 124.67 167.86C124.62 167.5 124.63 167.13 124.71 166.76C125.09 164.99 126.83 163.86 128.6 164.23Z" stroke="#707070" stroke-opacity="0" stroke-width="1.000000"/>
		</g>
	</g>
	<g opacity="0.500000">
		<g style="mix-blend-mode:normal">
			<ellipse id="Ellipse 327" rx="1.131825" ry="1.131826" transform="matrix(0.978148 0.207912 -0.207912 0.978148 128.457 167.465)" fill="#000072" fill-opacity="1.000000"/>
			<ellipse id="Ellipse 327" rx="1.131825" ry="1.131826" transform="matrix(0.978148 0.207912 -0.207912 0.978148 128.457 167.465)" stroke="#707070" stroke-opacity="0" stroke-width="1.000000"/>
		</g>
	</g>
	<g style="mix-blend-mode:normal">
		<circle id="Ellipse 328" r="0.853569" transform="matrix(0.978148 0.207912 -0.207912 0.978148 135.249 165.217)" fill="#FFFFFF" fill-opacity="1.000000"/>
		<circle id="Ellipse 328" r="0.853569" transform="matrix(0.978148 0.207912 -0.207912 0.978148 135.249 165.217)" stroke="#707070" stroke-opacity="0" stroke-width="1.000000"/>
	</g>
	<g opacity="0.200000">
		<g style="mix-blend-mode:normal">
			<path id="Path 15725" d="M138.93 163.54C138.93 163.54 138.32 171.87 124.42 168.53L126.01 170.98L136.75 172.88L141.24 168.07L140.84 164.52L138.93 163.54Z" fill="#000072" fill-opacity="1.000000" fill-rule="nonzero"/>
			<path id="Path 15725" d="M124.42 168.53L126.01 170.98L136.75 172.88L141.24 168.07L140.84 164.52L138.93 163.54C138.93 163.54 138.32 171.87 124.42 168.53Z" stroke="#707070" stroke-opacity="0" stroke-width="1.000000"/>
		</g>
	</g>
</svg>
