<svg width="169.556152" height="177.563477" viewBox="0 0 169.556 177.563" fill="none" xmlns="http://www.w3.org/2000/svg" xmlns:xlink="http://www.w3.org/1999/xlink">
	<desc>
			Created with Pixso.
	</desc>
	<defs/>
	<mask id="mask1_26463" mask-type="alpha" maskUnits="userSpaceOnUse" x="44.005371" y="0.000000" width="125.550293" height="177.563477">
		<g style="mix-blend-mode:normal">
			<rect id="Rectangle 3869" x="77.592773" width="94.017311" height="161.546249" transform="rotate(12 77.592773 0.000000)" fill="#C4C4C4" fill-opacity="1.000000"/>
		</g>
	</mask>
	<g mask="url(#mask1_26463)">
		<g style="mix-blend-mode:normal">
			<path id="Path 36086" d="M119.31 123.31C119.43 122.53 119.56 121.76 119.67 120.98C119.76 120.33 119.74 120.31 119.18 120.04C118.28 119.61 117.29 119.43 116.31 119.34C113.62 119.09 110.91 119.08 108.22 118.71C106.71 118.51 105.2 118.38 103.71 118.11C99.94 117.41 96.19 116.65 92.52 115.49C90.38 114.82 88.23 114.16 86.17 113.23C85.73 113.04 85.27 112.85 84.8 112.78C83.83 112.62 82.87 112.43 81.88 112.41C81.2 112.39 81.03 112.47 80.87 113.15C80.62 114.29 80.28 115.41 79.98 116.53C79.52 118.32 79.08 120.12 78.61 121.91C78.08 123.89 77.5 125.86 76.98 127.84C76.31 130.39 75.66 132.95 75.04 135.52C74.36 138.35 73.72 141.2 73.06 144.04C72.63 145.5 72.48 147.03 72.23 148.53C71.98 150.03 71.9 151.55 72.01 153.07C72.12 154.6 72.57 156.04 73.08 157.48C73.44 158.49 74.05 159.32 74.77 160.07C76.24 161.58 78.04 162.63 79.91 163.54C81.84 164.49 83.87 165.2 85.94 165.82C89.41 166.86 92.95 167.46 96.55 167.67C99.19 167.82 101.83 167.7 104.4 167.08C106.04 166.68 107.6 166.08 108.79 164.8C109.22 164.34 109.69 163.9 110.1 163.42C110.82 162.57 111.49 161.67 111.93 160.64C112.84 158.51 113.47 156.29 113.94 154.03C115 148.99 115.89 143.91 116.79 138.84C117.23 136.32 117.63 133.79 118 131.26C118.38 128.6 118.87 125.96 119.31 123.31Z" fill="#ECBDA1" fill-opacity="1.000000" fill-rule="nonzero"/>
		</g>
	</g>
	<g mask="url(#mask1_26463)">
		<g style="mix-blend-mode:normal">
			<path id="Path 36087" d="M157.76 62.58C157.3 62.57 156.86 62.68 156.41 62.77C156.11 62.84 155.86 62.79 155.67 62.54C155.46 62.28 155.66 62.06 155.78 61.85C156.13 61.22 156.34 60.56 156.42 59.84C156.52 58.96 155.73 58 154.53 58.24C154 58.34 153.53 58.59 153.08 58.87C152.88 58.99 152.69 59.12 152.48 59.21C151.96 59.41 151.69 59.19 151.78 58.63C151.84 58.31 151.96 57.99 151.98 57.67C152.04 57.02 151.98 56.37 151.4 55.95C150.84 55.56 150.23 55.57 149.6 55.85C148.94 56.14 148.34 56.5 147.82 57C147.41 57.38 146.99 57.74 146.58 58.12C146.24 58.43 145.91 58.5 145.48 58.27C144.62 57.79 143.67 57.77 142.74 57.96C142.08 58.1 141.5 58.45 141.08 58.98C140.52 59.67 140.52 60.48 140.81 61.28C141.07 61.97 141.39 62.63 141.68 63.31C141.87 63.77 141.83 63.99 141.5 64.15C140.09 64.79 138.68 65.42 137.28 66.05C136.5 66.4 135.73 66.76 134.85 67.16C135.39 67.59 135.89 67.82 136.37 68.12C136.63 68.27 136.88 68.44 137.12 68.63C137.34 68.79 137.36 69 137.22 69.23C137.08 69.49 136.86 69.48 136.63 69.38C136.51 69.33 136.41 69.26 136.3 69.19C135.69 68.83 135.03 68.53 134.49 68.08C133.82 67.52 133.11 67.57 132.35 67.73C131.54 67.9 130.72 68.07 129.88 68.15C128.07 68.32 126.25 68.39 124.42 68.34C122.17 68.29 119.93 68.54 117.69 68.71C115.66 68.85 113.64 68.78 111.63 68.44C109.15 68.01 106.77 67.23 104.53 66.06C102.43 64.96 100.49 63.65 98.84 61.94C98.66 61.76 98.49 61.55 98.28 61.43C96.84 60.66 95.33 60.23 93.68 60.55C91.84 60.9 90 61.25 88.18 61.71C86.29 62.18 84.43 62.74 82.59 63.37C80.93 63.94 79.32 64.62 77.75 65.38C76.1 66.16 74.47 66.99 72.91 67.92C71.08 69.02 69.31 70.19 67.59 71.44C65.91 72.67 64.31 73.98 63.12 75.72C62.47 76.67 62 77.71 61.8 78.85C61.65 79.78 62 80.25 62.91 80.4C63.42 80.48 63.92 80.37 64.41 80.24C64.75 80.16 65.03 80.2 65.23 80.47C65.41 80.71 65.25 80.95 65.11 81.16C64.75 81.73 64.57 82.37 64.49 83.03C64.37 84.08 64.94 84.72 66 84.78C66.35 84.8 66.65 84.7 66.96 84.58C67.38 84.41 67.77 84.16 68.15 83.92C68.39 83.76 68.67 83.63 68.94 83.79C69.24 83.98 69.12 84.28 69.05 84.55C68.93 85 68.84 85.44 68.9 85.9C69.06 87.08 70 87.66 71.11 87.23C71.6 87.03 72.08 86.81 72.52 86.48C73.12 86.02 73.67 85.48 74.22 84.97C74.6 84.61 74.97 84.49 75.45 84.76C76.27 85.22 77.16 85.25 78.04 85.05C79.7 84.67 80.76 83.45 80 81.54C79.78 80.98 79.53 80.42 79.29 79.87C78.97 79.12 79 79.04 79.72 78.75C79.82 78.71 79.91 78.67 80 78.62C82.45 77.39 84.95 76.28 87.57 75.48C88.28 75.27 88.88 74.98 89.03 74.16C89.05 74.07 89.11 73.97 89.17 73.89C89.32 73.67 89.5 73.47 89.79 73.62C90.06 73.76 90.07 74.03 89.99 74.29C89.97 74.38 89.91 74.47 89.87 74.56C89.3 75.78 88.73 76.99 88.16 78.2C86.75 81.18 85.39 84.18 84.15 87.24C83.1 89.82 82.09 92.41 81.23 95.07C80.31 97.9 79.32 100.72 78.73 103.65C78.31 105.72 79.02 107.5 80.4 108.91C81.53 110.06 83 110.83 84.5 111.46C85 111.67 85.12 111.63 85.21 111.1C85.32 110.45 85.53 109.82 85.68 109.18C86.31 106.49 87.08 103.84 87.84 101.19C88.49 98.98 89.19 96.78 89.91 94.58C90.62 92.37 91.39 90.17 92.23 88C92.77 86.58 93.4 85.19 93.94 83.77C94.62 82 95.57 80.43 96.9 79.06C98.45 77.44 100.26 76.28 102.39 75.66C107.45 74.19 111.9 75.33 115.7 78.96C117.21 80.4 118.26 82.16 118.9 84.14C119.64 86.44 119.66 88.82 119.59 91.2C119.52 93.43 119.4 95.65 119.2 97.87C119.07 99.46 118.92 101.05 118.73 102.63C118.48 104.72 118.28 106.81 117.94 108.89C117.61 110.96 117.33 113.04 116.99 115.11C116.84 115.98 116.65 116.85 116.48 117.72C116.43 117.99 116.39 118.25 116.8 118.23C118.55 118.15 120.31 118.06 121.97 117.46C123.62 116.86 124.84 115.74 125.34 114C125.57 113.23 125.72 112.43 125.84 111.63C126.09 110.05 126.27 108.46 126.45 106.88C126.7 104.58 126.9 102.29 127.04 99.99C127.14 98.35 127.16 96.7 127.19 95.06C127.22 93.19 127.25 91.31 127.24 89.44C127.23 87.62 127.16 85.8 127.12 83.98C127.11 83.39 127.1 82.81 127.12 82.23C127.12 81.97 127.21 81.71 127.51 81.65C127.79 81.59 127.93 81.81 128.01 82.02C128.1 82.28 128.28 82.31 128.49 82.25C129.45 81.98 130.43 81.86 131.39 81.62C134.71 80.81 137.99 79.88 141.14 78.52C143.54 77.48 145.86 76.32 148.11 74.99C149.9 73.94 151.62 72.78 153.3 71.56C154.99 70.33 156.59 69.02 157.77 67.27C158.43 66.3 158.93 65.25 159.08 64.08C159.2 63.07 158.76 62.6 157.76 62.58ZM142.92 61.98C142.16 61.81 141.6 60.94 141.74 60.2C141.91 59.32 142.74 58.71 143.57 58.89C144.49 59.08 145.09 60.01 144.8 60.81C144.71 61.76 143.65 62.14 142.92 61.98ZM148.01 58.15C148.33 57.14 148.9 56.75 149.87 56.9C150.75 57.03 151.27 57.87 151.1 58.75C151.01 59.62 150.1 60.13 149.24 59.96C148.41 59.79 147.77 58.9 148.01 58.15ZM148.75 69.56C147.21 69.17 146.04 68.21 145.28 66.81C144.48 65.37 144.48 63.5 145.58 62.27C146.15 61.62 147.72 61.01 149.31 61.35C151.2 61.96 152.76 63.26 153.18 65.46C153.76 68.5 151.38 70.22 148.75 69.56ZM153.58 62.43C152.75 62.29 152.09 61.41 152.31 60.66C152.6 59.65 153.19 59.2 154.21 59.38C155.09 59.54 155.59 60.38 155.39 61.27C155.31 62.06 154.45 62.59 153.58 62.43ZM156.14 66.71C155.16 66.49 154.79 65.73 154.93 64.89C155.09 63.98 155.94 63.47 156.8 63.66C157.67 63.85 158.25 64.79 157.96 65.57C157.89 66.41 156.95 66.9 156.14 66.71Z" fill="#E2EAEC" fill-opacity="1.000000" fill-rule="nonzero"/>
		</g>
	</g>
	<g mask="url(#mask1_26463)">
		<g style="mix-blend-mode:normal">
			<path id="Path 36088" d="M91.99 114.37C94.08 115.01 96.18 115.59 98.31 116.07C100.37 116.51 102.43 116.92 104.51 117.27C107.01 117.68 109.52 117.97 112.05 118.16C112.96 118.23 113.87 118.18 114.78 118.26C115.4 118.31 115.42 118.26 115.55 117.69C115.83 116.42 116.04 115.15 116.23 113.87C116.46 112.32 116.77 110.77 116.97 109.22C117.33 106.53 117.64 103.84 117.94 101.15C118.17 99.19 118.34 97.22 118.46 95.25C118.52 94.19 118.59 93.13 118.64 92.07C118.73 90.09 118.73 88.11 118.42 86.16C117.94 83.19 116.47 80.75 114.17 78.83C112.4 77.34 110.36 76.44 108.08 76.11C106.48 75.88 104.89 75.97 103.33 76.37C101.18 76.93 99.29 77.97 97.72 79.56C96.64 80.64 95.75 81.86 95.12 83.27C94.45 84.77 93.87 86.32 93.28 87.85C92.84 88.99 92.38 90.11 92.02 91.27C91.58 92.67 91.08 94.05 90.61 95.45C89.82 97.8 89.14 100.19 88.42 102.56C87.97 104.07 87.63 105.6 87.2 107.11C86.76 108.62 86.41 110.15 86.03 111.67C85.94 112 86.05 112.15 86.37 112.3C88.19 113.14 90.09 113.78 91.99 114.37Z" fill="#FCB6B4" fill-opacity="1.000000" fill-rule="nonzero"/>
		</g>
	</g>
	<g mask="url(#mask1_26463)">
		<g style="mix-blend-mode:normal">
			<path id="Path 36089" d="M127.97 64.15C127.38 63.78 126.81 63.41 126.23 63.05C125.87 62.82 125.51 62.58 125.15 62.34C124.96 62.21 124.87 62.04 124.95 61.82C125.06 61.57 125.26 61.52 125.52 61.55C125.75 61.59 125.93 61.73 126.13 61.85C126.88 62.32 127.64 62.78 128.38 63.26C128.75 63.5 129.03 63.48 129.38 63.18C130.33 62.37 131.21 61.5 132 60.54C132.11 60.41 132.31 60.32 132.19 60.06C130.96 59.74 129.71 59.41 128.47 59.07C128 58.95 127.54 58.8 127.09 58.64C126.86 58.55 126.72 58.36 126.77 58.1C126.82 57.81 127.06 57.78 127.3 57.8C127.52 57.83 127.76 57.86 127.97 57.93C129.48 58.43 131.04 58.77 132.56 59.23C132.83 59.31 132.99 59.23 133.13 59.01C133.74 58.02 134.36 57.03 134.73 55.91C134.9 55.4 135.18 54.92 135.19 54.34C133.9 54.4 132.66 54.49 131.33 54.64C131.88 55.38 131.91 56.01 131.38 56.62C131.14 56.9 130.83 57.07 130.49 57.17C128.37 57.76 126.43 57.37 124.67 56.07C124.51 55.95 124.38 55.79 124.26 55.62C123.77 54.92 123.92 54.05 124.65 53.58C124.92 53.4 125.23 53.29 125.53 53.15C124.31 53.17 123.14 53.03 122.2 52.16C121.44 51.46 120.91 50.6 120.59 49.62C120.17 48.35 120.1 47.04 120.23 45.72C120.38 44.13 120.87 42.64 121.69 41.28C122.66 39.7 123.95 38.48 125.87 38.15C127 37.96 128.03 38.27 128.91 39C130.11 40.01 130.7 41.38 130.92 42.9C131.11 44.15 131.09 45.42 130.81 46.67C130.4 48.55 129.58 50.2 128.25 51.59C127.85 52.01 127.34 52.3 126.83 52.59C126.58 52.74 126.23 52.76 126.11 53.1C127.23 52.98 128.34 53.05 129.39 53.5C130 53.76 130.61 53.77 131.25 53.7C131.5 53.67 131.75 53.65 132 53.62C133.03 53.53 134.06 53.43 135.1 53.36C135.39 53.34 135.55 53.27 135.62 52.95C135.92 51.45 136.05 49.94 135.92 48.42C135.69 45.88 135.11 43.43 133.8 41.2C133.55 40.77 133.25 40.35 132.99 39.92C132.07 38.39 130.88 37.07 129.58 35.87C128.38 34.77 127.08 33.82 125.71 32.93C124.45 32.11 123.1 31.5 121.68 31.02C121.09 30.82 120.98 30.75 121.07 30.17C121.15 29.69 121.09 29.21 121.06 28.74C121 28.06 120.9 27.38 120.59 26.75C120.45 26.46 120.25 26.21 119.93 26.19C119.56 26.16 119.33 26.45 119.19 26.75C118.94 27.29 118.83 27.86 118.82 28.45C118.81 28.63 118.83 28.81 118.78 28.98C118.72 29.19 118.52 29.29 118.31 29.29C118.09 29.28 117.96 29.1 117.97 28.94C117.99 28.42 117.77 27.95 117.74 27.45C117.67 26.27 117.4 25.13 116.73 24.14C116.23 23.4 115.53 23.38 114.99 24.08C114.63 24.53 114.36 25.04 114.24 25.64C114.08 26.49 114.17 27.29 114.43 28.11C114.65 28.78 114.89 29.45 115.19 30.09C115.3 30.31 115.28 30.55 115.05 30.7C114.79 30.86 114.61 30.7 114.45 30.53C114.37 30.43 114.29 30.32 114.26 30.2C114.11 29.69 113.76 29.6 113.27 29.63C111.44 29.76 109.66 30.11 107.89 30.57C105.31 31.23 102.97 32.41 100.79 33.93C100.19 34.35 99.59 34.79 99.08 35.31C98.13 36.26 97.26 37.28 96.51 38.4C95.34 40.14 94.56 42.05 94.05 44.08C93.99 44.34 94.04 44.52 94.29 44.64C94.5 44.75 94.69 44.87 94.89 44.98C95.77 45.46 96.68 45.91 97.55 46.44C98.25 46.87 98.97 47.15 99.82 47.18C100.65 47.21 101.47 47.4 102.18 47.9C102.36 47.89 102.51 48.04 102.74 47.97C102.57 47.75 102.41 47.53 102.24 47.32C101.42 46.33 101.05 45.15 100.89 43.91C100.67 42.17 100.85 40.45 101.49 38.83C102.15 37.13 103.08 35.6 104.71 34.63C105.85 33.95 107.06 33.74 108.35 34.22C109.38 34.6 110.07 35.35 110.61 36.26C111.49 37.75 111.71 39.38 111.61 41.09C111.49 43.01 110.92 44.77 109.84 46.35C108.86 47.78 107.59 48.81 105.79 49.03C105.25 49.1 104.74 48.92 104.22 48.81C104.01 48.77 103.77 48.5 103.54 48.8C104.48 49.83 104.22 50.96 102.93 51.4C102.71 51.48 102.49 51.52 102.26 51.55C100.89 51.77 99.59 51.49 98.34 50.93C97.81 50.69 97.32 50.36 96.92 49.93C96.17 49.13 96.23 48.28 97.07 47.59C97.13 47.54 97.17 47.47 97.23 47.4C96.75 46.95 96.14 46.77 95.6 46.46C95.04 46.13 94.48 45.8 93.86 45.57C93.57 46.24 93.72 46.94 93.65 47.62C93.56 48.63 93.77 49.64 93.86 50.64C93.89 50.93 94.03 51.08 94.34 51.12C95.95 51.29 97.53 51.65 99.14 51.8C99.37 51.82 99.59 51.9 99.8 51.97C99.97 52.04 100.13 52.14 100.12 52.36C100.11 52.59 99.94 52.72 99.73 52.77C99.56 52.8 99.38 52.78 99.2 52.76C97.68 52.53 96.15 52.29 94.62 52.06C94.19 52 94.16 52.04 94.26 52.43C94.6 53.71 95.04 54.94 95.67 56.11C95.84 56.43 96.03 56.55 96.38 56.49C97.23 56.36 98.08 56.25 98.94 56.14C99.19 56.11 99.44 56.07 99.69 56.08C99.96 56.09 100.2 56.18 100.22 56.51C100.23 56.84 100.02 56.94 99.74 56.98C99.31 57.04 98.89 57.12 98.46 57.18C97.81 57.28 97.15 57.38 96.46 57.48C103.66 68.81 119.04 70.55 127.97 64.15ZM117.93 53.19C117.92 53.44 117.66 53.65 117.41 53.62C117.13 53.58 117.03 53.38 117.03 53.14C117.03 52.89 117.3 52.73 117.75 52.8C117.82 52.81 117.94 52.96 117.93 53.19ZM117.73 51.9C117.66 52.14 117.51 52.26 117.27 52.18C117.05 52.11 116.94 51.93 117 51.71C117.06 51.48 117.25 51.39 117.48 51.44C117.73 51.5 117.77 51.68 117.73 51.9ZM111.31 50.13C111.54 50.21 111.65 50.37 111.59 50.6C111.53 50.82 111.36 50.93 111.13 50.88C110.9 50.82 110.81 50.63 110.87 50.41C110.93 50.19 111.08 50.07 111.31 50.13ZM110.67 51.31C110.9 51.38 111.08 51.53 111.02 51.83C110.93 52.06 110.77 52.19 110.5 52.15C110.25 52.11 110.05 51.81 110.13 51.58C110.21 51.32 110.42 51.22 110.67 51.31ZM113.39 53.52C112.9 54.02 112.33 54.36 111.63 54.49C110.1 54.77 108.73 53.57 108.84 52.02C108.86 51.78 108.95 51.58 109.06 51.38C109.15 51.2 109.31 51.12 109.5 51.16C109.7 51.19 109.81 51.32 109.83 51.52C109.85 51.67 109.86 51.83 109.84 51.97C109.73 52.55 109.85 53.05 110.38 53.35C110.95 53.66 111.55 53.68 112.11 53.33C112.39 53.16 112.65 52.94 112.88 52.71C113.36 52.22 113.34 51.97 112.88 51.45C112.17 50.64 111.6 49.75 111.49 48.65C111.37 47.43 112.17 46.69 113.39 46.82C114.53 46.93 115.64 47.13 116.72 47.5C117.4 47.74 118 48.05 118.12 48.75C118.26 49.52 117.94 50.24 117.32 50.78C116.69 51.32 116.04 51.86 115.23 52.12C114.94 52.21 114.9 52.4 114.88 52.63C114.81 53.49 115.67 54.59 116.52 54.74C117.21 54.86 117.71 54.6 117.99 53.96C118.04 53.84 118.06 53.71 118.1 53.59C118.18 53.31 118.31 53.06 118.67 53.11C118.95 53.16 119.06 53.41 119.01 53.85C118.9 54.63 118.19 55.41 117.41 55.61C116.14 55.93 115.27 55.5 114.48 54.31C114.22 53.91 114.09 53.45 113.95 52.95C113.74 53.16 113.56 53.34 113.39 53.52ZM111.94 51.34C112.19 51.38 112.35 51.51 112.35 51.78C112.27 52.02 112.14 52.19 111.86 52.14C111.6 52.1 111.44 51.94 111.46 51.68C111.48 51.4 111.67 51.31 111.94 51.34ZM116.7 52.78C116.62 53.03 116.4 53.11 116.15 53.06C115.9 52.99 115.78 52.8 115.84 52.55C115.91 52.27 116.13 52.24 116.36 52.28C116.62 52.36 116.78 52.52 116.7 52.78Z" fill="#E2EAEC" fill-opacity="1.000000" fill-rule="nonzero"/>
		</g>
	</g>
	<g mask="url(#mask1_26463)">
		<g style="mix-blend-mode:normal">
			<path id="Path 36090" d="M128.52 33.69C129.6 31.88 130.6 30.1 131.79 28.42C132.85 26.92 133.91 25.39 135.3 24.16C136.16 23.4 137.14 22.79 138.32 22.65C139.83 22.47 140.86 23.04 141.39 24.3C141.67 24.96 141.67 25.67 141.55 26.39C141.28 28.09 140.52 29.57 139.55 30.94C137.87 33.31 135.82 35.33 133.35 36.9C133.06 37.09 132.75 37.27 132.47 37.44C132.47 37.67 132.66 37.76 132.74 37.91C132.91 38.26 133.15 38.29 133.48 38.11C133.99 37.83 134.55 37.64 135.04 37.32C137.62 35.66 140.06 33.83 142.17 31.58C144.38 29.23 146.21 26.65 147.19 23.54C147.69 21.96 147.86 20.35 147.5 18.74C147.09 16.87 145.94 15.55 144.05 15.07C142.37 14.65 140.72 14.91 139.21 15.78C137.72 16.63 136.49 17.79 135.4 19.11C134.54 20.14 133.79 21.25 133.08 22.39C132.35 23.54 131.74 24.77 131.12 25.99C130.45 27.32 129.9 28.71 129.28 30.07C128.87 30.96 128.49 31.88 128.12 32.79C127.92 33.29 127.94 33.3 128.52 33.69Z" fill="#C8DADC" fill-opacity="1.000000" fill-rule="nonzero"/>
		</g>
	</g>
	<g mask="url(#mask1_26463)">
		<g style="mix-blend-mode:normal">
			<path id="Path 36091" d="M103.34 31.24C102.2 29.91 101.48 28.4 100.83 26.86C99.93 24.76 99.33 22.57 99.2 20.26C99.14 19.27 99.22 18.28 99.51 17.33C99.89 16.07 100.57 15.08 101.99 14.86C102.88 14.73 103.63 15.08 104.31 15.59C105.6 16.58 106.24 17.99 106.68 19.49C107.42 22.02 107.9 24.6 108.15 27.23C108.21 27.86 108.3 28.48 108.37 29.11C108.4 29.37 108.5 29.43 108.77 29.39C109.28 29.3 109.16 28.91 109.17 28.62C109.21 27.33 109.24 26.04 109.22 24.75C109.2 22 109.17 19.24 108.73 16.5C108.38 14.31 107.87 12.18 106.86 10.2C105.93 8.36 104.6 6.94 102.54 6.29C100.27 5.57 98.28 6.41 97.03 8.22C95.7 10.15 95.33 12.37 95.37 14.65C95.42 18.26 96.48 21.64 98 24.88C99.04 27.08 100.23 29.2 101.8 31.08C102.45 31.86 102.24 31.96 103.34 31.24Z" fill="#C8DADC" fill-opacity="1.000000" fill-rule="nonzero"/>
		</g>
	</g>
	<g mask="url(#mask1_26463)">
		<g style="mix-blend-mode:normal">
			<path id="Path 36092" d="M140.53 26.74C140.59 26.41 140.67 26.09 140.68 25.76C140.7 25.06 140.61 24.38 139.96 23.94C139.23 23.44 138.44 23.46 137.65 23.79C136.37 24.32 135.42 25.26 134.56 26.3C133.51 27.57 132.58 28.93 131.67 30.3C130.9 31.46 130.27 32.7 129.55 33.89C129.26 34.38 129.28 34.39 129.73 34.75C130.29 35.19 130.79 35.7 131.28 36.21C131.77 36.74 131.77 36.75 132.39 36.41C132.5 36.35 132.61 36.28 132.72 36.21C135.1 34.63 137.18 32.72 138.81 30.34C139.57 29.24 140.25 28.08 140.53 26.74Z" fill="#FCB6B4" fill-opacity="1.000000" fill-rule="nonzero"/>
		</g>
	</g>
	<g mask="url(#mask1_26463)">
		<g style="mix-blend-mode:normal">
			<path id="Path 36093" d="M106.85 24.58C106.54 22.73 106.17 20.9 105.56 19.12C105.34 18.47 105.04 17.85 104.63 17.3C104.28 16.83 103.92 16.38 103.39 16.09C102.35 15.53 101.31 15.8 100.72 16.82C100.48 17.25 100.35 17.71 100.26 18.19C99.94 20.16 100.28 22.07 100.79 23.96C101.19 25.46 101.82 26.87 102.52 28.25C102.93 29.06 103.39 29.85 103.98 30.56C104.12 30.74 104.24 30.91 104.54 30.76C105.36 30.36 106.22 30.04 107.11 29.85C107.31 29.8 107.43 29.71 107.4 29.48C107.37 29.2 107.38 28.92 107.35 28.65C107.21 27.29 107.08 25.93 106.85 24.58Z" fill="#FCB6B4" fill-opacity="1.000000" fill-rule="nonzero"/>
		</g>
	</g>
	<g mask="url(#mask1_26463)">
		<g style="mix-blend-mode:normal">
			<path id="Path 36094" d="M128.33 54.2C127.45 53.98 126.62 53.91 125.79 54.13C125.45 54.22 124.98 54.26 124.93 54.74C124.88 55.17 125.24 55.42 125.56 55.61C126.96 56.48 128.47 56.7 130.07 56.34C130.42 56.26 130.73 56.09 130.8 55.75C130.88 55.39 130.57 55.16 130.29 54.97C129.68 54.54 129.02 54.26 128.33 54.2Z" fill="#FBB5B3" fill-opacity="1.000000" fill-rule="nonzero"/>
		</g>
	</g>
	<g mask="url(#mask1_26463)">
		<g style="mix-blend-mode:normal">
			<path id="Path 36095" d="M97.92 49.58C98.75 50.2 99.71 50.53 100.71 50.67C101.33 50.75 101.97 50.78 102.59 50.55C103.25 50.31 103.33 49.95 102.85 49.44C102.17 48.73 101.29 48.46 100.19 48.2C99.55 47.99 98.73 47.97 97.9 48.21C97.28 48.39 97.17 48.79 97.58 49.28C97.68 49.4 97.8 49.49 97.92 49.58Z" fill="#FBB5B4" fill-opacity="1.000000" fill-rule="nonzero"/>
		</g>
	</g>
	<g mask="url(#mask1_26463)">
		<g style="mix-blend-mode:normal">
			<path id="Path 36096" d="M105.74 48.08C107.06 47.96 108 47.22 108.75 46.23C110.34 44.11 110.96 41.71 110.59 39.08C110.46 38.11 110.16 37.19 109.58 36.4C109.2 35.88 108.79 35.37 108.12 35.14C106.51 34.57 105.24 35.15 104.15 36.28C103.05 37.41 102.36 38.78 101.97 40.58C101.72 41.68 101.67 42.87 101.89 44.24C102.05 45.26 102.47 46.19 103.13 46.98C103.81 47.77 104.66 48.18 105.74 48.08ZM103.9 42.96C103.85 42.31 103.87 41.64 104.11 40.94C104.19 40.12 104.61 39.37 105.14 38.68C105.32 38.43 105.53 38.21 105.78 38.03C106.73 37.35 107.79 37.61 108.33 38.64C108.7 39.34 108.78 40.09 108.79 40.85C108.79 41.1 108.72 41.31 108.4 41.29C108.28 41.29 108.15 41.32 108.02 41.33C107.86 41.33 107.71 41.37 107.65 41.53C107.58 41.73 107.72 41.84 107.86 41.97C108.07 42.17 108.44 42.22 108.46 42.58C108.48 42.9 108.27 43.15 108.16 43.44C107.83 44.29 107.36 45 106.49 45.4C105.88 45.68 105.35 45.58 104.86 45.2C104.13 44.63 103.96 43.81 103.9 42.96Z" fill="#E7E4E4" fill-opacity="1.000000" fill-rule="nonzero"/>
		</g>
	</g>
	<g mask="url(#mask1_26463)">
		<g style="mix-blend-mode:normal">
			<path id="Path 36097" d="M127.98 50.49C128.97 49.3 129.57 47.92 129.91 46.42C130.22 44.98 130.18 43.54 129.79 42.13C129.52 41.16 129.06 40.29 128.23 39.68C127.41 39.07 126.51 38.87 125.51 39.19C124.12 39.64 123.24 40.65 122.49 41.82C121.58 43.25 121.17 44.85 121.11 46.5C121.07 47.9 121.26 49.28 122.03 50.52C122.93 51.95 124.36 52.58 125.92 52.01C126.74 51.7 127.42 51.17 127.98 50.49ZM127.56 47.14C127.27 47.84 127.01 48.57 126.38 49.06C125.92 49.43 125.45 49.75 124.8 49.61C124.05 49.46 123.41 48.78 123.24 47.84C123.06 46.91 123.04 45.98 123.35 44.96C123.43 44.17 123.86 43.43 124.39 42.74C124.59 42.47 124.83 42.25 125.1 42.06C125.98 41.42 126.98 41.77 127.5 42.63C127.94 43.35 128.02 44.16 128.02 44.98C128.02 45.32 127.8 45.37 127.52 45.4C127.29 45.42 126.95 45.31 126.87 45.65C126.8 45.96 127.11 46.06 127.3 46.21C127.77 46.58 127.79 46.6 127.56 47.14Z" fill="#E7E4E4" fill-opacity="1.000000" fill-rule="nonzero"/>
		</g>
	</g>
	<g mask="url(#mask1_26463)">
		<g style="mix-blend-mode:normal">
			<path id="Path 36098" d="M148.87 62.26C146.65 61.74 145.38 63.37 145.7 65.19C146.04 67.06 147.3 68.08 148.8 68.62C149.97 68.91 150.89 68.83 151.62 68.11C152.38 67.37 152.49 66.43 152.21 65.45C151.73 63.72 150.53 62.64 148.87 62.26Z" fill="#F6A0A1" fill-opacity="1.000000" fill-rule="nonzero"/>
		</g>
	</g>
	<g mask="url(#mask1_26463)">
		<g style="mix-blend-mode:normal">
			<path id="Path 36099" d="M156.55 64.56C156.23 64.49 155.9 64.74 155.85 65.1C155.79 65.45 156.02 65.77 156.36 65.81C156.71 65.86 157.02 65.64 157.08 65.29C157.13 64.99 156.87 64.63 156.55 64.56Z" fill="#F29D9E" fill-opacity="1.000000" fill-rule="nonzero"/>
		</g>
	</g>
	<g mask="url(#mask1_26463)">
		<g style="mix-blend-mode:normal">
			<path id="Path 36100" d="M149.38 59.04C149.74 59.14 150.12 58.92 150.2 58.57C150.28 58.27 149.99 57.87 149.64 57.8C149.33 57.73 149 57.98 148.94 58.34C148.88 58.63 149.09 58.95 149.38 59.04Z" fill="#EF9C9D" fill-opacity="1.000000" fill-rule="nonzero"/>
		</g>
	</g>
	<g mask="url(#mask1_26463)">
		<g style="mix-blend-mode:normal">
			<path id="Path 36101" d="M143.39 59.79C143.13 59.72 142.8 59.94 142.71 60.25C142.6 60.58 142.77 60.96 143.07 61.06C143.4 61.18 143.81 60.96 143.9 60.61C143.99 60.29 143.73 59.88 143.39 59.79Z" fill="#ED9A9C" fill-opacity="1.000000" fill-rule="nonzero"/>
		</g>
	</g>
	<g mask="url(#mask1_26463)">
		<g style="mix-blend-mode:normal">
			<path id="Path 36102" d="M153.95 60.27C153.66 60.2 153.38 60.39 153.27 60.73C153.17 61.06 153.35 61.41 153.67 61.51C154.03 61.61 154.41 61.41 154.5 61.05C154.58 60.75 154.3 60.35 153.95 60.27Z" fill="#ED9A9C" fill-opacity="1.000000" fill-rule="nonzero"/>
		</g>
	</g>
	<g mask="url(#mask1_26463)">
		<g style="mix-blend-mode:normal">
			<path id="Path 36103" d="M117.02 49.69C117.11 49.58 117.13 49.41 117.16 49.26C117.23 48.97 117.14 48.77 116.85 48.66C116.24 48.42 115.69 48.02 115.01 47.99C114.42 47.78 113.81 47.8 113.2 47.83C112.46 47.88 112.22 48.2 112.45 48.91C112.66 49.54 113 50.12 113.42 50.62C113.81 51.09 114.33 51.35 114.97 51.17C115.84 50.94 116.46 50.34 117.02 49.69Z" fill="#686777" fill-opacity="1.000000" fill-rule="nonzero"/>
		</g>
	</g>
	<g mask="url(#mask1_26463)">
		<g style="mix-blend-mode:normal">
			<path id="Path 36104" d="M104.23 48.81C104.75 48.92 105.25 49.1 105.79 49.03C107.59 48.81 108.86 47.78 109.84 46.35C110.92 44.77 111.49 43.01 111.61 41.09C111.71 39.38 111.49 37.75 110.61 36.26C110.08 35.35 109.38 34.6 108.35 34.22C107.06 33.74 105.85 33.95 104.71 34.63C103.08 35.6 102.15 37.13 101.49 38.82C100.85 40.45 100.67 42.17 100.89 43.91C101.05 45.15 101.42 46.33 102.24 47.32C102.41 47.53 102.57 47.75 102.74 47.97C102.51 48.04 102.36 47.89 102.18 47.9C102.64 48.2 103.09 48.5 103.54 48.8C103.77 48.5 104.01 48.77 104.23 48.81ZM101.89 44.24C101.67 42.87 101.72 41.68 101.97 40.58C102.36 38.78 103.05 37.41 104.15 36.28C105.24 35.15 106.51 34.57 108.12 35.14C108.79 35.38 109.2 35.88 109.58 36.4C110.16 37.19 110.46 38.11 110.59 39.08C110.96 41.71 110.34 44.11 108.75 46.23C108 47.22 107.06 47.96 105.74 48.08C104.66 48.18 103.81 47.77 103.13 46.98C102.47 46.19 102.05 45.27 101.89 44.24Z" fill="#000000" fill-opacity="1.000000" fill-rule="nonzero"/>
		</g>
	</g>
	<g mask="url(#mask1_26463)">
		<g style="mix-blend-mode:normal">
			<path id="Path 36105" d="M126.83 52.59C127.34 52.3 127.85 52.01 128.25 51.59C129.58 50.2 130.4 48.54 130.81 46.67C131.09 45.42 131.11 44.15 130.92 42.89C130.7 41.38 130.11 40.01 128.91 39C128.03 38.27 127 37.96 125.87 38.15C123.95 38.48 122.66 39.7 121.69 41.28C120.87 42.64 120.38 44.13 120.23 45.72C120.1 47.04 120.17 48.35 120.59 49.62C120.91 50.6 121.44 51.46 122.2 52.16C123.14 53.03 124.31 53.17 125.53 53.15C125.71 53.05 125.94 53.34 126.11 53.1C126.23 52.76 126.58 52.74 126.83 52.59ZM125.92 52.01C124.36 52.58 122.93 51.95 122.03 50.52C121.26 49.28 121.07 47.9 121.11 46.5C121.17 44.85 121.58 43.25 122.49 41.82C123.24 40.65 124.12 39.64 125.51 39.19C126.51 38.87 127.41 39.07 128.23 39.68C129.06 40.29 129.52 41.16 129.79 42.13C130.18 43.54 130.22 44.98 129.91 46.42C129.57 47.92 128.97 49.3 127.98 50.49C127.42 51.16 126.74 51.7 125.92 52.01Z" fill="#000000" fill-opacity="1.000000" fill-rule="nonzero"/>
		</g>
	</g>
	<g mask="url(#mask1_26463)">
		<g style="mix-blend-mode:normal">
			<path id="Path 36106" d="M117.41 55.61C118.19 55.41 118.9 54.63 119.01 53.85C119.06 53.41 118.95 53.16 118.67 53.11C118.31 53.06 118.18 53.31 118.1 53.59C118.06 53.71 118.04 53.84 117.99 53.96C117.71 54.6 117.21 54.86 116.52 54.74C115.67 54.59 114.81 53.49 114.88 52.62C114.9 52.4 114.94 52.21 115.23 52.12C116.04 51.86 116.69 51.32 117.32 50.78C117.94 50.24 118.26 49.52 118.12 48.75C118 48.05 117.4 47.74 116.72 47.5C115.64 47.13 114.53 46.93 113.39 46.82C112.17 46.69 111.37 47.43 111.49 48.65C111.6 49.75 112.17 50.64 112.88 51.45C113.34 51.97 113.36 52.22 112.88 52.71C112.65 52.94 112.39 53.15 112.11 53.33C111.55 53.68 110.95 53.66 110.38 53.35C109.85 53.05 109.73 52.55 109.84 51.97C109.87 51.83 109.85 51.67 109.83 51.52C109.81 51.32 109.7 51.19 109.5 51.16C109.31 51.12 109.15 51.2 109.06 51.38C108.95 51.58 108.86 51.78 108.84 52.02C108.73 53.57 110.1 54.77 111.63 54.49C112.33 54.36 112.9 54.02 113.39 53.52C113.56 53.34 113.74 53.16 113.95 52.95C114.09 53.45 114.22 53.91 114.48 54.31C115.27 55.5 116.14 55.93 117.41 55.61ZM113.42 50.62C113 50.12 112.66 49.54 112.45 48.91C112.22 48.2 112.46 47.88 113.2 47.83C113.81 47.8 114.42 47.78 115.01 47.99C115.69 48.02 116.24 48.42 116.85 48.66C117.14 48.77 117.23 48.97 117.16 49.26C117.13 49.4 117.11 49.58 117.02 49.69C116.46 50.34 115.84 50.94 114.97 51.17C114.33 51.35 113.81 51.09 113.42 50.62Z" fill="#000000" fill-opacity="1.000000" fill-rule="nonzero"/>
		</g>
	</g>
	<g mask="url(#mask1_26463)">
		<g style="mix-blend-mode:normal">
			<path id="Path 36107" d="M110.5 52.15C110.77 52.19 110.93 52.06 111.02 51.83C111.08 51.53 110.9 51.38 110.67 51.31C110.42 51.22 110.21 51.32 110.13 51.58C110.05 51.81 110.25 52.11 110.5 52.15Z" fill="#000000" fill-opacity="1.000000" fill-rule="nonzero"/>
		</g>
	</g>
	<g mask="url(#mask1_26463)">
		<g style="mix-blend-mode:normal">
			<path id="Path 36108" d="M117.03 53.14C117.03 53.38 117.13 53.58 117.41 53.62C117.66 53.65 117.92 53.44 117.93 53.19C117.94 52.96 117.82 52.81 117.75 52.8C117.3 52.73 117.03 52.89 117.03 53.14Z" fill="#000000" fill-opacity="1.000000" fill-rule="nonzero"/>
		</g>
	</g>
	<g mask="url(#mask1_26463)">
		<g style="mix-blend-mode:normal">
			<path id="Path 36109" d="M111.86 52.14C112.13 52.19 112.27 52.02 112.35 51.78C112.35 51.51 112.19 51.38 111.94 51.34C111.67 51.3 111.48 51.4 111.46 51.68C111.44 51.94 111.6 52.1 111.86 52.14Z" fill="#000000" fill-opacity="1.000000" fill-rule="nonzero"/>
		</g>
	</g>
	<g mask="url(#mask1_26463)">
		<g style="mix-blend-mode:normal">
			<path id="Path 36110" d="M115.84 52.55C115.78 52.8 115.9 53 116.15 53.06C116.4 53.11 116.62 53.03 116.7 52.78C116.78 52.52 116.62 52.36 116.36 52.28C116.13 52.24 115.91 52.27 115.84 52.55Z" fill="#000000" fill-opacity="1.000000" fill-rule="nonzero"/>
		</g>
	</g>
	<g mask="url(#mask1_26463)">
		<g style="mix-blend-mode:normal">
			<path id="Path 36111" d="M117 51.71C116.94 51.93 117.05 52.11 117.27 52.18C117.51 52.26 117.66 52.14 117.73 51.9C117.77 51.68 117.73 51.5 117.47 51.44C117.25 51.39 117.06 51.48 117 51.71Z" fill="#000000" fill-opacity="1.000000" fill-rule="nonzero"/>
		</g>
	</g>
	<g mask="url(#mask1_26463)">
		<g style="mix-blend-mode:normal">
			<path id="Path 36112" d="M111.13 50.88C111.36 50.93 111.53 50.82 111.59 50.6C111.66 50.37 111.54 50.21 111.31 50.13C111.08 50.07 110.93 50.19 110.87 50.41C110.81 50.63 110.9 50.82 111.13 50.88Z" fill="#000000" fill-opacity="1.000000" fill-rule="nonzero"/>
		</g>
	</g>
	<g mask="url(#mask1_26463)">
		<g style="mix-blend-mode:normal">
			<path id="Path 36113" d="M106.49 45.4C107.36 45 107.83 44.29 108.16 43.44C108.27 43.15 108.48 42.9 108.46 42.58C108.44 42.22 108.07 42.17 107.86 41.97C107.72 41.84 107.58 41.73 107.65 41.53C107.71 41.37 107.86 41.33 108.02 41.33C108.15 41.32 108.28 41.29 108.4 41.29C108.72 41.31 108.79 41.1 108.79 40.85C108.78 40.09 108.7 39.34 108.33 38.64C107.79 37.61 106.73 37.35 105.78 38.03C105.53 38.21 105.32 38.43 105.14 38.68C104.61 39.37 104.19 40.12 104.11 40.94C103.87 41.64 103.85 42.31 103.9 42.96C103.96 43.81 104.13 44.63 104.86 45.2C105.35 45.58 105.88 45.68 106.49 45.4Z" fill="#000000" fill-opacity="1.000000" fill-rule="nonzero"/>
		</g>
	</g>
	<g mask="url(#mask1_26463)">
		<g style="mix-blend-mode:normal">
			<path id="Path 36114" d="M127.3 46.21C127.11 46.06 126.8 45.96 126.87 45.65C126.95 45.31 127.29 45.42 127.52 45.4C127.8 45.37 128.02 45.32 128.02 44.98C128.02 44.16 127.94 43.35 127.5 42.63C126.98 41.77 125.98 41.42 125.1 42.06C124.83 42.25 124.59 42.47 124.39 42.74C123.86 43.43 123.43 44.17 123.35 44.96C123.04 45.98 123.06 46.91 123.24 47.84C123.41 48.78 124.05 49.46 124.8 49.61C125.45 49.75 125.92 49.43 126.38 49.06C127.01 48.57 127.27 47.84 127.56 47.14C127.79 46.6 127.77 46.58 127.3 46.21Z" fill="#000000" fill-opacity="1.000000" fill-rule="nonzero"/>
		</g>
	</g>
	<g mask="url(#mask1_26463)">
		<g style="mix-blend-mode:normal">
			<path id="Path 36115" d="M157.55 61.64C157.36 61.65 157.16 61.77 156.98 61.63C156.92 61.37 157.09 61.19 157.15 60.97C157.37 60.18 157.49 59.38 157.11 58.6C156.49 57.3 154.98 57.09 153.98 57.4C153.64 57.5 153.32 57.63 152.97 57.75C152.95 57.49 152.94 57.27 152.91 57.04C152.75 55.43 151.66 54.57 150.04 54.75C149.33 54.83 148.75 55.18 148.17 55.55C147.5 55.97 146.9 56.48 146.36 57.05C146.02 57.39 145.74 57.37 145.35 57.21C144.19 56.75 143.01 56.83 141.88 57.29C140.58 57.83 139.8 58.78 139.71 60.24C139.69 60.53 139.84 60.83 139.69 61.18C137.78 60.66 135.88 60.13 134.01 59.62C134.01 59.52 134 59.49 134.01 59.47C134.91 57.93 135.7 56.35 136.15 54.62C136.22 54.35 136.4 54.2 136.69 54.18C137.1 54.16 137.5 54.12 137.91 54.08C138.94 54 139.97 53.91 141 53.82C141.28 53.79 141.52 53.69 141.49 53.36C141.46 53.06 141.22 52.93 140.95 52.92C140.64 52.91 140.34 52.95 140.04 52.97C138.9 53.07 137.77 53.17 136.53 53.27C137.46 48.1 136.56 43.38 133.6 39.06C134.46 38.7 135.22 38.31 135.95 37.85C138.52 36.21 140.92 34.35 142.99 32.1C144.29 30.68 145.52 29.2 146.45 27.5C147.07 26.39 147.6 25.25 148 24.04C148.67 22.05 148.83 20.05 148.24 18C147.36 14.89 144.22 13.61 141.56 14.02C139.17 14.4 137.3 15.7 135.67 17.4C133.36 19.8 131.72 22.65 130.26 25.62C129.2 27.77 128.31 30.01 127.34 32.21C127.15 32.64 127.14 32.66 126.75 32.4C125.82 31.78 124.83 31.27 123.81 30.82C123.26 30.58 122.69 30.36 122.12 30.13C122.06 29.51 122.01 28.89 121.94 28.27C121.87 27.56 121.73 26.86 121.37 26.23C120.77 25.21 119.71 24.78 118.67 25.82C118.65 25.84 118.58 25.82 118.52 25.83C118.35 25.44 118.16 25.05 118.03 24.65C117.86 24.16 117.63 23.73 117.29 23.34C116.54 22.49 115.44 22.4 114.6 23.15C113.57 24.05 113.23 25.25 113.23 26.56C113.23 27.27 113.37 27.96 113.57 28.69C112.38 28.72 111.26 28.8 110.12 29.02C110.11 28.8 110.08 28.63 110.09 28.45C110.14 24.73 110.27 21.01 109.8 17.3C109.5 15 109.06 12.74 108.11 10.62C107.1 8.36 105.67 6.46 103.26 5.54C101.14 4.73 98.7 4.99 96.96 6.84C95.66 8.23 94.95 9.94 94.64 11.79C94.24 14.26 94.41 16.73 94.99 19.16C95.75 22.34 96.99 25.32 98.65 28.13C99.5 29.57 100.37 31 101.55 32.22C101.14 32.53 100.77 32.83 100.38 33.1C98.85 34.17 97.49 35.4 96.41 36.94C95.47 38.28 94.52 39.62 93.99 41.21C93.74 41.97 93.41 42.72 93.25 43.52C93.16 43.97 93.02 44.01 92.62 43.79C92.55 43.76 92.49 43.71 92.42 43.67C91.47 43.14 90.52 42.61 89.57 42.08C89.37 41.97 89.17 41.86 88.93 41.89C88.73 41.92 88.59 42.01 88.53 42.2C88.47 42.36 88.54 42.51 88.66 42.61C88.84 42.75 89.03 42.87 89.23 42.98C90.34 43.59 91.45 44.19 92.57 44.78C92.86 44.94 92.97 45.13 92.9 45.45C92.68 46.35 92.78 47.26 92.71 48.17C92.65 49.06 92.95 49.92 92.89 50.8C92.76 50.89 92.63 50.84 92.51 50.82C91.56 50.68 90.61 50.52 89.66 50.37C88.78 50.24 87.91 50.1 87.03 49.97C86.72 49.93 86.45 50.01 86.38 50.34C86.3 50.72 86.59 50.81 86.88 50.87C87.38 50.96 87.87 51.06 88.38 51.13C89.84 51.33 91.29 51.57 92.74 51.8C93 51.84 93.2 51.88 93.26 52.22C93.43 53.25 93.84 54.2 94.21 55.17C94.41 55.67 94.73 56.13 94.84 56.7C92.94 56.95 91.09 57.19 89.23 57.43C88.33 57.55 87.42 57.67 86.52 57.8C86.23 57.84 85.96 57.93 85.99 58.31C86.02 58.63 86.21 58.75 86.68 58.72C86.75 58.72 86.83 58.69 86.9 58.68C88.68 58.44 90.46 58.21 92.24 57.97C93.15 57.85 94.05 57.73 94.96 57.63C95.16 57.61 95.44 57.54 95.56 57.81C95.78 58.29 96.24 58.64 96.36 59.21C95.37 59.36 94.39 59.48 93.42 59.65C90.5 60.17 87.62 60.84 84.78 61.68C82.57 62.34 80.41 63.13 78.31 64.07C75.86 65.17 73.51 66.46 71.22 67.87C69.48 68.95 67.8 70.13 66.15 71.35C64.89 72.28 63.8 73.36 62.83 74.56C61.91 75.69 61.23 76.97 60.92 78.4C60.56 80.06 61.34 81.4 63.34 81.37C63.52 81.37 63.73 81.21 63.93 81.46C63.78 81.94 63.62 82.45 63.56 82.98C63.39 84.43 64.3 85.53 65.68 85.7C66.47 85.79 67.16 85.53 67.89 85.24C67.93 85.55 67.95 85.83 67.99 86.1C68.18 87.57 69.27 88.41 70.76 88.27C71.5 88.19 72.11 87.84 72.71 87.46C73.44 87 74.06 86.4 74.7 85.82C74.89 85.64 75.05 85.57 75.29 85.7C76.11 86.15 77.01 86.11 77.89 86.03C79.66 85.86 80.94 84.63 81.15 82.95C81.23 82.33 81.08 81.75 80.87 81.17C80.68 80.63 80.36 80.14 80.25 79.54C82.71 78.32 85.19 77.23 87.81 76.37C87.83 76.68 87.73 76.86 87.64 77.04C87.06 78.31 86.44 79.56 85.89 80.84C84.65 83.72 83.38 86.59 82.23 89.51C81.31 91.87 80.49 94.27 79.69 96.67C79.09 98.47 78.59 100.31 78.07 102.14C77.86 102.89 77.63 103.66 77.66 104.45C77.75 106.69 78.4 108.69 80.3 110.08C80.59 110.29 80.66 110.47 80.57 110.82C79.93 113.14 79.35 115.48 78.71 117.8C78.05 120.25 77.31 122.67 76.66 125.12C75.91 127.96 75.23 130.83 74.51 133.67C73.83 136.33 73.34 139.03 72.61 141.68C71.91 144.2 71.58 146.8 71.14 149.38C71.04 149.95 71.01 150.53 70.98 151.12C70.9 152.72 71.15 154.3 71.47 155.87C71.97 158.22 73.19 160.13 75.07 161.6C77 163.11 79.12 164.28 81.38 165.21C83.9 166.24 86.48 167.04 89.14 167.61C92.22 168.26 95.33 168.64 98.49 168.62C100.88 168.61 103.23 168.38 105.54 167.72C106.96 167.31 108.32 166.73 109.39 165.68C111.09 164.01 112.49 162.13 113.29 159.86C114.2 157.27 114.86 154.61 115.37 151.91C116.11 147.98 116.8 144.03 117.52 140.09C117.72 138.97 117.98 137.85 118.16 136.73C118.48 134.75 118.75 132.77 119.06 130.79C119.33 129.06 119.63 127.34 119.88 125.61C120.2 123.41 120.64 121.22 120.88 119C120.9 118.78 121.02 118.7 121.2 118.65C121.37 118.6 121.54 118.57 121.71 118.52C124.2 117.83 125.76 116.25 126.39 113.74C126.66 112.63 126.79 111.5 126.95 110.37C127.4 107.13 127.71 103.88 127.92 100.62C128.07 98.19 128.14 95.77 128.16 93.34C128.19 90.17 128.11 87.01 128.08 83.85C128.08 83.27 128.07 83.27 128.67 83.14C131.17 82.62 133.66 82.05 136.11 81.32C139.11 80.43 141.99 79.28 144.78 77.88C147.3 76.62 149.71 75.19 152.04 73.6C153.98 72.27 155.91 70.93 157.49 69.14C158.67 67.81 159.59 66.34 159.97 64.6C160.33 62.98 159.59 61.57 157.55 61.64ZM133.8 60.52C135.19 60.92 136.59 61.27 137.98 61.67C138.54 61.84 139.11 61.95 139.67 62.09C139.83 62.12 140.03 61.94 140.14 62.19C140.31 62.58 140.57 62.95 140.61 63.38C140.63 63.55 140.4 63.59 140.28 63.65C138.71 64.42 137.11 65.12 135.49 65.76C134.99 65.96 134.49 66.13 133.99 66.32C133.77 66.4 133.56 66.44 133.34 66.3C132.17 65.57 130.99 64.85 129.78 64.1C130.4 63.52 131.01 63 131.57 62.43C132.09 61.91 132.57 61.36 133.02 60.78C133.25 60.5 133.46 60.43 133.8 60.52ZM132.18 66.73C130.22 67.25 126.05 67.53 124.63 67.24C125.58 66.72 126.51 66.21 127.44 65.7C127.86 65.47 128.27 65.23 128.69 64.99C128.89 64.88 129.11 64.78 129.33 64.93C130.23 65.54 131.22 66 132.18 66.73ZM128.12 32.79C128.49 31.88 128.87 30.96 129.28 30.07C129.9 28.71 130.45 27.32 131.12 25.99C131.74 24.77 132.35 23.54 133.08 22.39C133.79 21.25 134.54 20.14 135.4 19.11C136.49 17.79 137.72 16.63 139.21 15.78C140.72 14.91 142.37 14.65 144.05 15.07C145.94 15.55 147.09 16.86 147.5 18.74C147.86 20.35 147.69 21.96 147.19 23.54C146.21 26.65 144.38 29.23 142.17 31.58C140.06 33.83 137.61 35.66 135.04 37.32C134.55 37.64 133.99 37.83 133.48 38.11C133.15 38.29 132.91 38.26 132.74 37.91C132.66 37.76 132.47 37.67 132.47 37.44C132.75 37.27 133.06 37.09 133.35 36.9C135.82 35.33 137.87 33.31 139.55 30.94C140.52 29.57 141.28 28.09 141.55 26.39C141.67 25.67 141.67 24.96 141.39 24.3C140.86 23.04 139.83 22.47 138.32 22.65C137.14 22.79 136.16 23.4 135.3 24.16C133.91 25.39 132.85 26.92 131.79 28.42C130.6 30.1 129.6 31.88 128.52 33.69C127.94 33.3 127.92 33.29 128.12 32.79ZM132.72 36.21C132.61 36.28 132.5 36.35 132.39 36.41C131.77 36.75 131.78 36.74 131.28 36.21C130.79 35.7 130.29 35.19 129.73 34.75C129.29 34.39 129.26 34.38 129.55 33.89C130.27 32.7 130.9 31.46 131.67 30.3C132.58 28.93 133.51 27.57 134.56 26.3C135.42 25.26 136.37 24.32 137.65 23.79C138.44 23.46 139.23 23.44 139.96 23.94C140.61 24.38 140.7 25.06 140.68 25.76C140.67 26.09 140.59 26.41 140.53 26.74C140.25 28.08 139.57 29.24 138.81 30.35C137.18 32.72 135.1 34.63 132.72 36.21ZM98 24.87C96.48 21.64 95.42 18.26 95.37 14.65C95.33 12.37 95.7 10.15 97.03 8.22C98.28 6.41 100.27 5.57 102.54 6.29C104.6 6.94 105.93 8.36 106.86 10.2C107.87 12.18 108.38 14.31 108.73 16.5C109.17 19.24 109.2 22 109.22 24.75C109.24 26.04 109.21 27.33 109.17 28.62C109.16 28.91 109.28 29.3 108.77 29.39C108.5 29.43 108.4 29.37 108.37 29.11C108.3 28.48 108.21 27.86 108.15 27.23C107.9 24.6 107.42 22.02 106.68 19.49C106.23 17.99 105.6 16.58 104.31 15.59C103.63 15.08 102.88 14.73 101.99 14.86C100.57 15.08 99.89 16.07 99.51 17.33C99.22 18.28 99.14 19.27 99.2 20.26C99.33 22.57 99.93 24.76 100.83 26.86C101.48 28.4 102.2 29.91 103.34 31.24C102.24 31.96 102.45 31.86 101.8 31.08C100.23 29.2 99.04 27.08 98 24.87ZM107.11 29.85C106.22 30.04 105.36 30.36 104.54 30.76C104.24 30.91 104.12 30.74 103.98 30.56C103.4 29.85 102.93 29.06 102.52 28.25C101.83 26.87 101.19 25.46 100.79 23.96C100.28 22.07 99.94 20.15 100.26 18.19C100.35 17.71 100.48 17.25 100.72 16.82C101.31 15.8 102.35 15.53 103.39 16.09C103.92 16.38 104.28 16.83 104.63 17.3C105.04 17.85 105.34 18.47 105.56 19.12C106.17 20.9 106.54 22.73 106.85 24.58C107.08 25.93 107.21 27.29 107.35 28.65C107.38 28.92 107.37 29.2 107.4 29.48C107.43 29.71 107.31 29.8 107.11 29.85ZM96.46 57.48C97.15 57.38 97.81 57.28 98.46 57.18C98.89 57.12 99.31 57.04 99.74 56.98C100.02 56.94 100.23 56.84 100.22 56.51C100.2 56.18 99.96 56.09 99.69 56.08C99.44 56.07 99.19 56.11 98.94 56.14C98.08 56.25 97.23 56.36 96.38 56.49C96.03 56.55 95.84 56.43 95.67 56.11C95.04 54.94 94.6 53.71 94.26 52.43C94.16 52.04 94.19 52 94.62 52.06C96.15 52.29 97.68 52.53 99.21 52.76C99.38 52.78 99.56 52.8 99.73 52.77C99.94 52.72 100.11 52.59 100.12 52.36C100.13 52.14 99.97 52.04 99.8 51.97C99.59 51.9 99.37 51.82 99.14 51.8C97.53 51.65 95.95 51.29 94.34 51.12C94.03 51.08 93.89 50.93 93.86 50.64C93.77 49.64 93.56 48.63 93.65 47.62C93.72 46.94 93.57 46.24 93.86 45.57C94.48 45.8 95.04 46.13 95.6 46.46C96.14 46.77 96.75 46.95 97.23 47.4C97.17 47.47 97.13 47.54 97.07 47.59C96.23 48.28 96.17 49.13 96.92 49.93C97.32 50.36 97.81 50.69 98.34 50.93C99.59 51.49 100.89 51.77 102.26 51.55C102.49 51.52 102.71 51.48 102.93 51.4C104.22 50.96 104.48 49.83 103.54 48.8C103.09 48.5 102.64 48.2 102.18 47.9C101.47 47.4 100.65 47.21 99.82 47.18C98.97 47.15 98.25 46.87 97.55 46.44C96.68 45.91 95.77 45.46 94.89 44.98C94.69 44.87 94.5 44.75 94.29 44.64C94.04 44.52 93.99 44.34 94.05 44.08C94.56 42.05 95.34 40.14 96.51 38.4C97.26 37.28 98.13 36.26 99.08 35.31C99.59 34.79 100.19 34.35 100.79 33.93C102.97 32.41 105.31 31.23 107.89 30.57C109.66 30.11 111.44 29.76 113.27 29.63C113.76 29.59 114.11 29.69 114.26 30.2C114.29 30.32 114.37 30.43 114.45 30.53C114.61 30.7 114.79 30.86 115.05 30.7C115.28 30.54 115.3 30.31 115.19 30.09C114.89 29.45 114.65 28.78 114.43 28.1C114.17 27.29 114.08 26.49 114.24 25.64C114.36 25.04 114.63 24.53 114.99 24.08C115.53 23.37 116.23 23.4 116.73 24.14C117.4 25.13 117.67 26.27 117.74 27.45C117.77 27.95 117.99 28.42 117.97 28.94C117.96 29.1 118.09 29.28 118.31 29.29C118.52 29.29 118.72 29.19 118.78 28.98C118.83 28.81 118.81 28.63 118.82 28.45C118.83 27.86 118.94 27.29 119.19 26.75C119.33 26.45 119.56 26.16 119.93 26.19C120.25 26.21 120.45 26.46 120.59 26.75C120.9 27.38 121 28.06 121.06 28.74C121.09 29.21 121.15 29.69 121.07 30.17C120.98 30.75 121.09 30.82 121.68 31.02C123.1 31.5 124.45 32.11 125.71 32.93C127.08 33.81 128.38 34.77 129.58 35.87C130.88 37.07 132.07 38.39 132.99 39.92C133.25 40.35 133.55 40.77 133.8 41.2C135.11 43.43 135.69 45.88 135.92 48.42C136.05 49.94 135.92 51.45 135.62 52.95C135.55 53.27 135.39 53.34 135.1 53.36C134.06 53.43 133.03 53.53 132 53.62C131.75 53.65 131.5 53.67 131.25 53.7C130.61 53.77 130 53.76 129.39 53.5C128.34 53.05 127.23 52.98 126.11 53.1C125.94 53.34 125.71 53.05 125.53 53.15C125.23 53.29 124.92 53.4 124.65 53.58C123.92 54.05 123.77 54.92 124.26 55.62C124.38 55.79 124.51 55.95 124.67 56.07C126.43 57.37 128.37 57.76 130.49 57.17C130.83 57.07 131.14 56.9 131.38 56.62C131.91 56.01 131.88 55.38 131.33 54.64C132.66 54.49 133.9 54.4 135.19 54.34C135.18 54.92 134.9 55.4 134.73 55.91C134.36 57.03 133.74 58.02 133.13 59.01C132.99 59.23 132.83 59.31 132.56 59.23C131.04 58.77 129.48 58.43 127.97 57.93C127.76 57.86 127.52 57.83 127.3 57.8C127.06 57.78 126.82 57.81 126.77 58.1C126.72 58.36 126.86 58.55 127.09 58.63C127.54 58.8 128 58.95 128.47 59.07C129.71 59.41 130.96 59.74 132.19 60.06C132.31 60.32 132.11 60.41 132 60.54C131.21 61.5 130.33 62.36 129.38 63.18C129.03 63.48 128.75 63.5 128.38 63.26C127.64 62.78 126.88 62.32 126.13 61.85C125.93 61.73 125.75 61.59 125.52 61.55C125.26 61.51 125.06 61.57 124.95 61.82C124.87 62.04 124.96 62.21 125.15 62.34C125.51 62.58 125.87 62.82 126.23 63.05C126.81 63.41 127.39 63.78 127.97 64.15C119.04 70.55 103.66 68.81 96.46 57.48ZM97.9 48.21C98.73 47.97 99.55 47.99 100.19 48.2C101.29 48.46 102.17 48.73 102.85 49.44C103.33 49.95 103.25 50.31 102.58 50.55C101.97 50.78 101.33 50.75 100.71 50.67C99.71 50.53 98.75 50.2 97.92 49.58C97.8 49.49 97.68 49.4 97.58 49.28C97.17 48.79 97.28 48.39 97.9 48.21ZM130.8 55.75C130.73 56.09 130.42 56.26 130.07 56.34C128.47 56.7 126.96 56.47 125.56 55.61C125.24 55.42 124.88 55.17 124.93 54.74C124.98 54.26 125.45 54.22 125.79 54.13C126.62 53.91 127.45 53.98 128.33 54.2C129.02 54.26 129.68 54.54 130.29 54.97C130.57 55.16 130.88 55.39 130.8 55.75ZM116.79 138.84C115.89 143.91 115 148.99 113.94 154.03C113.47 156.29 112.84 158.51 111.93 160.64C111.49 161.67 110.82 162.57 110.1 163.42C109.69 163.9 109.22 164.34 108.79 164.8C107.6 166.08 106.04 166.68 104.41 167.08C101.83 167.69 99.19 167.82 96.55 167.67C92.95 167.46 89.41 166.86 85.94 165.82C83.87 165.2 81.84 164.49 79.91 163.54C78.04 162.63 76.24 161.58 74.77 160.07C74.05 159.32 73.44 158.49 73.08 157.48C72.57 156.04 72.12 154.6 72.01 153.07C71.9 151.55 71.98 150.03 72.23 148.53C72.48 147.03 72.63 145.5 73.06 144.04C73.72 141.2 74.36 138.35 75.04 135.52C75.66 132.95 76.31 130.39 76.98 127.84C77.5 125.86 78.08 123.89 78.61 121.91C79.08 120.12 79.52 118.32 79.98 116.53C80.28 115.4 80.62 114.29 80.87 113.15C81.03 112.47 81.2 112.39 81.88 112.41C82.87 112.43 83.83 112.62 84.8 112.78C85.27 112.85 85.73 113.04 86.17 113.23C88.23 114.16 90.38 114.82 92.52 115.49C96.19 116.65 99.94 117.41 103.71 118.11C105.2 118.38 106.71 118.5 108.22 118.71C110.91 119.08 113.62 119.09 116.31 119.34C117.29 119.43 118.28 119.61 119.18 120.04C119.74 120.31 119.76 120.33 119.67 120.98C119.56 121.76 119.43 122.53 119.31 123.31C118.87 125.96 118.38 128.6 118 131.26C117.63 133.79 117.23 136.32 116.79 138.84ZM86.03 111.67C86.41 110.15 86.76 108.62 87.2 107.11C87.63 105.6 87.97 104.07 88.42 102.56C89.14 100.19 89.82 97.8 90.61 95.45C91.08 94.05 91.58 92.67 92.02 91.27C92.38 90.11 92.84 88.99 93.28 87.85C93.87 86.32 94.45 84.77 95.12 83.27C95.75 81.86 96.64 80.64 97.72 79.56C99.29 77.97 101.18 76.93 103.33 76.37C104.89 75.97 106.48 75.88 108.08 76.11C110.36 76.44 112.4 77.34 114.17 78.83C116.47 80.75 117.94 83.19 118.42 86.16C118.74 88.11 118.73 90.09 118.64 92.07C118.59 93.13 118.52 94.19 118.46 95.25C118.34 97.22 118.17 99.19 117.94 101.15C117.64 103.84 117.33 106.53 116.97 109.22C116.77 110.77 116.46 112.32 116.23 113.87C116.04 115.15 115.83 116.42 115.55 117.69C115.42 118.26 115.41 118.31 114.78 118.26C113.87 118.18 112.96 118.23 112.05 118.16C109.52 117.97 107.01 117.68 104.51 117.27C102.43 116.92 100.37 116.51 98.31 116.07C96.18 115.59 94.08 115.01 91.99 114.37C90.09 113.78 88.19 113.14 86.37 112.3C86.05 112.15 85.94 112 86.03 111.67ZM157.77 67.27C156.59 69.02 154.99 70.33 153.3 71.55C151.62 72.78 149.9 73.94 148.11 74.99C145.86 76.32 143.54 77.48 141.14 78.52C137.99 79.88 134.71 80.81 131.38 81.62C130.43 81.86 129.45 81.98 128.49 82.25C128.28 82.31 128.1 82.28 128.01 82.02C127.93 81.81 127.79 81.59 127.51 81.65C127.21 81.71 127.12 81.97 127.12 82.23C127.1 82.81 127.11 83.39 127.12 83.98C127.16 85.8 127.23 87.62 127.24 89.44C127.25 91.31 127.22 93.19 127.19 95.06C127.16 96.7 127.14 98.35 127.04 99.99C126.9 102.29 126.7 104.58 126.45 106.88C126.27 108.46 126.09 110.05 125.84 111.63C125.72 112.42 125.57 113.23 125.34 114C124.84 115.74 123.62 116.86 121.97 117.46C120.31 118.06 118.55 118.15 116.8 118.23C116.39 118.25 116.43 117.99 116.48 117.72C116.65 116.85 116.84 115.98 116.99 115.11C117.33 113.04 117.61 110.96 117.94 108.89C118.28 106.81 118.48 104.72 118.73 102.63C118.92 101.05 119.07 99.46 119.2 97.87C119.4 95.65 119.52 93.43 119.59 91.2C119.66 88.82 119.64 86.44 118.9 84.14C118.26 82.16 117.21 80.4 115.7 78.96C111.9 75.33 107.45 74.19 102.39 75.66C100.26 76.28 98.45 77.44 96.9 79.06C95.57 80.43 94.62 82 93.94 83.77C93.4 85.19 92.77 86.58 92.23 88C91.39 90.17 90.62 92.37 89.91 94.58C89.19 96.78 88.49 98.98 87.84 101.19C87.08 103.84 86.31 106.49 85.68 109.18C85.53 109.82 85.32 110.45 85.21 111.1C85.12 111.63 85 111.67 84.5 111.46C83 110.83 81.53 110.06 80.4 108.91C79.02 107.5 78.31 105.72 78.73 103.65C79.32 100.72 80.31 97.9 81.23 95.07C82.09 92.41 83.1 89.82 84.15 87.24C85.39 84.18 86.75 81.18 88.16 78.2C88.73 76.99 89.3 75.78 89.87 74.56C89.91 74.47 89.97 74.38 89.99 74.29C90.07 74.03 90.06 73.76 89.79 73.62C89.5 73.47 89.32 73.67 89.17 73.89C89.11 73.97 89.05 74.07 89.03 74.16C88.88 74.98 88.28 75.27 87.57 75.48C84.95 76.28 82.45 77.39 80 78.62C79.91 78.67 79.82 78.71 79.72 78.75C79 79.04 78.97 79.12 79.29 79.87C79.53 80.42 79.78 80.98 80 81.54C80.76 83.45 79.7 84.67 78.04 85.05C77.16 85.25 76.27 85.22 75.45 84.76C74.97 84.49 74.6 84.61 74.22 84.97C73.67 85.48 73.12 86.02 72.52 86.48C72.08 86.81 71.6 87.03 71.11 87.23C70 87.66 69.06 87.08 68.9 85.9C68.84 85.44 68.93 85 69.05 84.55C69.12 84.28 69.24 83.98 68.94 83.79C68.67 83.63 68.39 83.76 68.15 83.92C67.77 84.16 67.38 84.41 66.96 84.58C66.65 84.7 66.35 84.8 66 84.78C64.94 84.72 64.37 84.08 64.49 83.03C64.57 82.37 64.75 81.73 65.11 81.16C65.25 80.95 65.41 80.71 65.23 80.47C65.03 80.2 64.75 80.16 64.41 80.24C63.92 80.37 63.42 80.48 62.91 80.4C62 80.25 61.65 79.78 61.8 78.85C62 77.71 62.47 76.67 63.12 75.72C64.3 73.98 65.91 72.67 67.59 71.44C69.31 70.19 71.08 69.02 72.91 67.92C74.47 66.99 76.1 66.16 77.75 65.38C79.32 64.62 80.93 63.94 82.59 63.37C84.43 62.74 86.29 62.18 88.18 61.71C90 61.25 91.84 60.9 93.68 60.55C95.33 60.23 96.84 60.66 98.28 61.43C98.49 61.55 98.66 61.76 98.84 61.94C100.49 63.65 102.43 64.96 104.53 66.06C106.77 67.23 109.15 68.01 111.63 68.44C113.64 68.78 115.66 68.85 117.69 68.71C119.93 68.54 122.17 68.29 124.42 68.34C126.25 68.39 128.07 68.32 129.88 68.15C130.72 68.07 131.54 67.9 132.35 67.73C133.11 67.57 133.82 67.52 134.49 68.08C135.03 68.53 135.69 68.83 136.3 69.19C136.41 69.26 136.51 69.33 136.63 69.38C136.86 69.48 137.08 69.49 137.22 69.23C137.36 69 137.34 68.79 137.12 68.63C136.88 68.44 136.63 68.27 136.37 68.12C135.89 67.82 135.39 67.59 134.85 67.16C135.73 66.76 136.5 66.4 137.28 66.05C138.68 65.42 140.09 64.79 141.5 64.15C141.83 63.99 141.87 63.77 141.68 63.31C141.39 62.63 141.07 61.97 140.81 61.28C140.52 60.48 140.52 59.67 141.08 58.98C141.5 58.45 142.08 58.1 142.74 57.96C143.67 57.77 144.62 57.79 145.48 58.27C145.91 58.5 146.24 58.43 146.58 58.12C146.99 57.74 147.41 57.38 147.82 57C148.34 56.5 148.94 56.14 149.6 55.85C150.23 55.57 150.84 55.56 151.4 55.95C151.98 56.37 152.04 57.02 151.98 57.66C151.96 57.99 151.84 58.31 151.78 58.63C151.69 59.19 151.96 59.41 152.48 59.21C152.69 59.12 152.88 58.99 153.08 58.87C153.53 58.59 154 58.34 154.53 58.24C155.73 58 156.52 58.96 156.42 59.84C156.34 60.56 156.13 61.22 155.78 61.85C155.66 62.06 155.46 62.28 155.67 62.54C155.86 62.79 156.11 62.84 156.41 62.77C156.86 62.68 157.3 62.57 157.76 62.58C158.76 62.6 159.2 63.07 159.08 64.08C158.93 65.25 158.43 66.3 157.77 67.27Z" fill="#000000" fill-opacity="1.000000" fill-rule="nonzero"/>
		</g>
	</g>
	<g mask="url(#mask1_26463)">
		<g style="mix-blend-mode:normal">
			<path id="Path 36116" d="M149.31 61.35C147.72 61.01 146.15 61.62 145.58 62.27C144.48 63.5 144.48 65.37 145.28 66.81C146.04 68.21 147.21 69.17 148.75 69.56C151.38 70.22 153.76 68.5 153.18 65.46C152.76 63.26 151.2 61.96 149.31 61.35ZM151.62 68.11C150.89 68.83 149.97 68.91 148.8 68.63C147.3 68.08 146.04 67.06 145.7 65.19C145.38 63.37 146.65 61.74 148.87 62.26C150.53 62.64 151.73 63.72 152.21 65.45C152.49 66.43 152.38 67.37 151.62 68.11Z" fill="#000000" fill-opacity="1.000000" fill-rule="nonzero"/>
		</g>
	</g>
	<g mask="url(#mask1_26463)">
		<g style="mix-blend-mode:normal">
			<path id="Path 36117" d="M156.8 63.66C155.94 63.47 155.09 63.98 154.93 64.89C154.79 65.73 155.16 66.49 156.14 66.71C156.95 66.9 157.89 66.41 157.96 65.57C158.25 64.79 157.67 63.85 156.8 63.66ZM156.36 65.81C156.02 65.77 155.79 65.45 155.85 65.1C155.9 64.74 156.23 64.49 156.55 64.56C156.87 64.63 157.13 64.99 157.08 65.29C157.02 65.64 156.72 65.86 156.36 65.81Z" fill="#000000" fill-opacity="1.000000" fill-rule="nonzero"/>
		</g>
	</g>
	<g mask="url(#mask1_26463)">
		<g style="mix-blend-mode:normal">
			<path id="Path 36118" d="M149.24 59.96C150.1 60.13 151.01 59.62 151.1 58.75C151.27 57.87 150.75 57.03 149.87 56.9C148.9 56.75 148.33 57.14 148.01 58.15C147.77 58.9 148.41 59.79 149.24 59.96ZM149.64 57.8C149.99 57.87 150.28 58.26 150.2 58.57C150.12 58.92 149.74 59.14 149.38 59.03C149.09 58.95 148.88 58.63 148.94 58.34C149 57.98 149.33 57.73 149.64 57.8Z" fill="#000000" fill-opacity="1.000000" fill-rule="nonzero"/>
		</g>
	</g>
	<g mask="url(#mask1_26463)">
		<g style="mix-blend-mode:normal">
			<path id="Path 36119" d="M143.57 58.89C142.74 58.71 141.91 59.32 141.74 60.2C141.6 60.94 142.16 61.81 142.92 61.98C143.65 62.14 144.71 61.76 144.8 60.81C145.09 60.01 144.49 59.08 143.57 58.89ZM143.07 61.06C142.77 60.96 142.6 60.58 142.7 60.25C142.8 59.94 143.13 59.72 143.39 59.79C143.73 59.88 143.99 60.29 143.9 60.61C143.81 60.96 143.4 61.18 143.07 61.06Z" fill="#000000" fill-opacity="1.000000" fill-rule="nonzero"/>
		</g>
	</g>
	<g mask="url(#mask1_26463)">
		<g style="mix-blend-mode:normal">
			<path id="Path 36120" d="M154.21 59.38C153.19 59.2 152.6 59.65 152.31 60.66C152.09 61.41 152.75 62.29 153.58 62.43C154.45 62.59 155.31 62.06 155.39 61.27C155.58 60.38 155.09 59.54 154.21 59.38ZM153.67 61.51C153.35 61.41 153.17 61.06 153.27 60.73C153.38 60.39 153.66 60.2 153.95 60.27C154.3 60.35 154.58 60.75 154.5 61.05C154.41 61.41 154.03 61.61 153.67 61.51Z" fill="#000000" fill-opacity="1.000000" fill-rule="nonzero"/>
		</g>
	</g>
	<mask id="mask1_26850" mask-type="alpha" maskUnits="userSpaceOnUse" x="0.000000" y="9.902344" width="88.011230" height="153.541504">
		<g style="mix-blend-mode:normal">
			<rect id="Rectangle 3912" y="9.902344" width="88.010994" height="153.541565" fill="#C4C4C4" fill-opacity="1.000000"/>
		</g>
	</mask>
	<g mask="url(#mask1_26850)">
		<g style="mix-blend-mode:normal">
			<path id="Path 36465" d="M64.43 113.61C64.38 112.52 64.33 111.43 64.27 110.34C64.22 109.5 64.17 109.43 63.33 109.3C62.4 109.15 61.45 109.15 60.53 109.26C57.78 109.6 55.06 110.16 52.28 110.36C50.79 110.47 49.29 110.67 47.79 110.71C43.84 110.82 39.89 110.87 35.95 110.48C33.62 110.26 31.3 110.06 29.02 109.57C28.54 109.46 28.04 109.38 27.55 109.4C26.57 109.45 25.59 109.47 24.62 109.65C23.86 109.79 23.71 109.87 23.7 110.62C23.68 111.74 23.6 112.85 23.54 113.97C23.43 115.94 23.37 117.91 23.27 119.88C23.17 121.98 23.02 124.08 22.92 126.18C22.8 128.88 22.69 131.59 22.62 134.29C22.54 137.27 22.5 140.26 22.45 143.17C22.34 144.84 22.51 146.42 22.58 148.01C22.64 149.52 22.89 151 23.3 152.46C23.73 153.99 24.51 155.37 25.34 156.72C25.91 157.66 26.71 158.35 27.59 158.95C29.39 160.15 31.41 160.82 33.48 161.33C35.62 161.87 37.81 162.16 40.01 162.33C44.18 162.64 48.32 162.47 52.42 161.65C54.93 161.15 57.36 160.45 59.61 159.21C60.5 158.72 61.37 158.16 62.01 157.37C64 154.9 65.15 152.07 65.37 148.89C65.5 146.87 65.61 144.84 65.53 142.81C65.47 140.97 65.48 139.12 65.42 137.28C65.36 135.51 65.33 133.74 65.28 131.98C65.17 128.27 65.01 124.55 64.77 120.85C64.61 118.44 64.54 116.02 64.43 113.61Z" fill="#ECBDA1" fill-opacity="1.000000" fill-rule="nonzero"/>
		</g>
	</g>
	<g mask="url(#mask1_26850)">
		<g style="mix-blend-mode:normal">
			<path id="Path 36466" d="M85.55 51.13C85.29 51.16 85.04 51.21 84.8 51.31C84.32 51.51 83.87 51.76 83.51 52.16C83.37 52.31 83.17 52.4 82.95 52.25C82.73 52.1 82.66 51.89 82.76 51.64C82.86 51.4 82.98 51.17 83.09 50.93C83.36 50.31 83.63 49.69 83.64 49C83.65 48.34 83.36 48.04 82.72 47.99C82.36 47.96 82 47.98 81.63 48.06C80.99 48.19 80.38 48.4 79.85 48.79C79.65 48.95 79.42 48.99 79.22 48.78C79.03 48.58 79.03 48.35 79.14 48.12C79.2 47.99 79.32 47.87 79.41 47.75C79.65 47.37 79.85 46.99 79.94 46.54C80.15 45.5 79.74 45.06 78.68 45.27C77.61 45.48 76.65 45.88 75.88 46.7C75.57 47.03 75.33 47.01 75.03 46.69C74.91 46.56 74.83 46.38 74.7 46.26C74.22 45.79 73.79 45.26 73.05 45.16C72.19 45.05 71.7 45.57 71.89 46.42C72.01 46.98 72.19 47.53 72.61 47.96C72.84 48.2 72.83 48.43 72.58 48.7C71.77 49.58 70.88 50.38 69.94 51.11C68.34 52.36 66.62 53.44 64.9 54.51C64.55 54.73 64.18 54.91 63.78 55.05C63.51 55.15 63.25 55.18 63.1 54.89C62.92 54.54 63.19 54.36 63.44 54.21C63.79 54 64.16 53.8 64.54 53.64C64.87 53.49 65.02 53.27 65.02 52.91C65.01 52.26 65.13 51.62 65.16 50.97C65.3 47.96 65.56 44.96 65.65 41.95C65.73 39.1 65.72 36.28 64.9 33.52C64.58 32.45 64.19 31.41 63.61 30.45C63.47 30.2 63.32 30.11 63.05 30.26C61.88 30.89 60.6 30.92 59.32 30.84C58.47 30.78 57.63 30.57 56.92 30.04C56.08 29.41 56.01 28.43 56.74 27.68C56.86 27.55 57 27.43 57.19 27.25C57 27.25 56.92 27.24 56.85 27.26C55.18 27.65 53.84 27.05 52.7 25.87C51.31 24.44 50.79 22.63 50.56 20.72C50.41 19.53 50.68 19.66 49.27 19.55C48.49 19.49 48.46 19.51 48.31 18.76C48.1 17.59 47.52 16.64 46.61 15.64C46.69 15.99 46.73 16.17 46.77 16.34C46.79 16.42 46.8 16.49 46.83 16.57C47.59 19.01 47.48 21.42 46.55 23.81C46.03 25.13 45.19 26.21 43.99 26.96C42.95 27.6 41.79 27.78 40.64 27.26C39.97 26.96 39.31 26.69 38.56 26.76C38.46 26.77 38.35 26.76 38.25 26.74C35.81 26.31 33.45 25.59 31.09 24.86C29.14 24.26 27.24 23.44 25.18 23.22C23.62 23.05 22.1 23.14 20.79 24.13C19.54 25.08 19.15 26.16 20.16 27.53C21.09 28.79 22.11 29.97 23.29 30.99C25.5 32.91 27.94 34.48 30.5 35.87C31.75 36.55 33.09 36.95 34.43 37.33C36.61 37.95 38.85 37.87 41.08 37.64C44.03 37.34 46.89 36.58 49.65 35.46C50.95 34.94 52.22 34.36 53.49 33.76C54.14 33.46 54.14 33.43 53.94 32.69C53.86 32.39 53.76 32.1 53.72 31.79C53.69 31.54 53.81 31.32 54.09 31.27C54.32 31.23 54.49 31.35 54.58 31.57C54.61 31.64 54.64 31.71 54.65 31.79C54.9 33.01 55.38 34.11 56.2 35.07C56.37 35.26 56.39 35.51 56.2 35.7C55.97 35.93 55.75 35.81 55.51 35.65C55.19 35.43 55.07 35.08 54.85 34.79C54.52 34.36 54.34 34.31 53.9 34.57C53.6 34.75 53.67 35.01 53.67 35.26C53.72 37.6 53.62 39.94 53.74 42.28C53.85 44.67 53.9 47.06 54.04 49.44C54.19 51.93 54.35 54.42 54.54 56.91C54.71 59.23 54.96 61.55 55.19 63.88C55.49 66.82 56.02 69.73 56.57 72.64C57.15 75.8 57.71 78.97 58.2 82.14C58.46 83.81 58.63 85.49 58.86 87.16C59.16 89.35 59.35 91.54 59.56 93.74C59.71 95.29 59.86 96.84 59.95 98.39C60.07 100.57 60.21 102.74 60.32 104.91C60.36 105.82 60.35 106.73 60.37 107.64C60.38 107.96 60.48 108.13 60.85 108.03C62.53 107.59 64.23 107.14 65.72 106.22C67.44 105.16 68.46 103.64 68.47 101.54C68.48 100.35 68.44 99.16 68.35 97.96C68.23 96.46 68.09 94.96 67.92 93.47C67.72 91.69 67.55 89.91 67.23 88.14C66.97 86.72 66.82 85.27 66.52 83.85C66.09 81.79 65.73 79.72 65.25 77.68C64.88 76.06 64.52 74.44 64.15 72.83C63.82 71.44 63.52 70.04 63.21 68.65C63.14 68.34 63.19 68.04 63.52 67.94C63.89 67.83 64.02 68.13 64.1 68.42C64.23 68.91 64.36 69.41 64.5 69.95C65.35 69.6 66.19 69.31 66.97 68.92C68.2 68.31 69.44 67.72 70.66 67.07C73.78 65.4 76.71 63.46 79.46 61.23C81.6 59.49 83.62 57.62 85.51 55.61C86.25 54.83 86.78 53.88 87.02 52.84C87.35 51.41 86.55 50.98 85.55 51.13ZM24.83 29.34C24.52 29.42 24.37 29.22 24.26 28.96C24 28.31 23.74 27.66 23.64 26.97C23.58 26.6 23.76 26.34 24.03 26.34C24.28 26.41 24.5 26.51 24.56 26.82C24.69 27.42 24.91 28 25.13 28.58C25.26 28.94 25.12 29.27 24.83 29.34ZM34.03 28.49C33.69 29.25 33.11 29.85 32.58 30.48C32.53 30.55 32.39 30.55 32.32 30.58C32.03 30.51 31.88 30.37 31.91 30.08C31.92 29.89 32.01 29.73 32.11 29.58C32.48 29.09 32.86 28.59 33.23 28.1C33.4 27.89 33.59 27.8 33.84 27.95C34.03 28.08 34.13 28.27 34.03 28.49Z" fill="#91BEB7" fill-opacity="1.000000" fill-rule="nonzero"/>
		</g>
	</g>
	<g mask="url(#mask1_26850)">
		<g style="mix-blend-mode:normal">
			<path id="Path 36467" d="M27.59 107.68C27.56 106.71 27.71 105.76 27.71 104.8C27.71 104.07 27.76 103.35 27.8 102.62C27.87 101.4 27.94 100.19 28.02 98.97C28.09 97.8 28.12 96.63 28.25 95.47C28.56 92.61 28.79 89.74 29.15 86.88C29.52 83.89 29.96 80.92 30.48 77.96C30.96 75.2 31.46 72.44 31.98 69.69C32.47 67.09 32.75 64.45 33.04 61.83C33.19 60.52 33.24 59.19 33.39 57.88C33.55 56.49 33.62 55.09 33.69 53.69C33.72 53.18 33.59 52.77 33.18 52.46C33.03 52.35 32.92 52.2 32.78 52.09C31.94 51.44 31.06 50.92 29.96 50.92C29.64 50.92 29.39 50.97 29.32 51.34C29.15 52.32 28.64 53.18 28.28 54.1C28.07 54.65 27.77 55.17 27.49 55.7C27.33 55.98 27.1 56.2 26.73 56.08C25.49 55.68 24.28 55.18 23.15 54.56C21.95 53.89 20.82 53.09 19.69 52.31C18.22 51.29 16.8 50.19 15.58 48.86C15.12 48.36 15.09 48.35 15.5 47.83C15.86 47.38 16.02 46.86 16.13 46.33C16.28 45.57 15.79 45.07 15.01 45.16C14.7 45.2 14.38 45.25 14.14 45.47C13.78 45.81 13.38 46.1 13.09 46.51C12.68 47.08 12.53 47.06 12.01 46.57C11.16 45.77 10.13 45.36 9 45.23C8.27 45.14 7.9 45.59 8.01 46.33C8.07 46.77 8.22 47.18 8.47 47.55C8.59 47.73 8.72 47.89 8.83 48.06C8.99 48.31 9.01 48.55 8.78 48.77C8.58 48.97 8.36 48.94 8.14 48.8C8.03 48.74 7.94 48.65 7.82 48.59C7.06 48.15 6.24 47.94 5.36 47.98C4.59 48.03 4.26 48.43 4.38 49.21C4.47 49.86 4.69 50.47 4.97 51.06C5.09 51.29 5.23 51.51 5.25 51.78C5.27 51.97 5.23 52.14 5.05 52.26C4.87 52.38 4.7 52.33 4.55 52.21C4.45 52.14 4.37 52.03 4.27 51.95C3.79 51.53 3.23 51.23 2.61 51.15C2.07 51.08 1.47 50.97 1.12 51.55C0.81 52.07 1.08 52.55 1.31 53.01C1.83 54.01 2.5 54.9 3.3 55.69C4.93 57.3 6.54 58.92 8.31 60.38C10.02 61.81 11.78 63.19 13.64 64.42C16.11 66.05 18.72 67.45 21.39 68.72C22.09 69.05 22.81 69.34 23.57 69.66C23.66 69.31 23.74 69.01 23.83 68.72C23.87 68.55 23.92 68.37 23.99 68.2C24.09 68 24.26 67.87 24.5 67.94C24.68 68 24.79 68.16 24.78 68.37C24.76 68.6 24.74 68.83 24.7 69.06C24.42 70.46 24.04 71.84 23.72 73.23C23 76.47 22.23 79.7 21.66 82.97C21.38 84.53 21.08 86.08 20.83 87.65C20.42 90.29 20.11 92.94 19.85 95.6C19.66 97.64 19.46 99.67 19.52 101.71C19.58 103.76 20.65 105.35 22.27 106.43C23.67 107.36 25.33 107.83 27 108.14C27.52 108.24 27.61 108.19 27.59 107.68Z" fill="#91BEB7" fill-opacity="1.000000" fill-rule="nonzero"/>
		</g>
	</g>
	<g mask="url(#mask1_26850)">
		<g style="mix-blend-mode:normal">
			<path id="Path 36468" d="M35.54 51.21C36.29 51.31 37.03 51.44 37.78 51.33C38.06 51.29 38.25 51.44 38.29 51.7C38.33 51.96 38.19 52.16 37.94 52.24C37.77 52.29 37.58 52.31 37.4 52.3C36.86 52.28 36.31 52.24 35.77 52.21C35.54 52.2 35.3 52.18 35.07 52.18C34.95 52.19 34.79 52.19 34.78 52.36C34.76 52.55 34.91 52.55 35.04 52.56C35.79 52.65 36.53 52.79 37.28 52.82C40.03 52.93 42.78 53.21 45.54 53.05C47.95 52.91 50.35 52.69 52.71 52.1C53.09 52.01 53.21 51.85 53.19 51.47C53.09 49.76 53.03 48.04 52.94 46.33C52.8 43.76 52.71 41.19 52.72 38.62C52.73 37.51 52.72 36.39 52.72 35.27C51.97 35.47 51.97 35.47 51.94 36.11C51.94 36.3 51.96 36.48 51.95 36.66C51.9 37.49 51.84 38.32 51.4 39.07C50.82 40.09 49.99 40.15 49.24 39.23C48.81 38.69 48.5 38.09 48.35 37.43C48.26 37.06 48.1 37.03 47.8 37.13C47.38 37.27 46.96 37.41 46.53 37.51C46.18 37.6 46.01 37.77 46.01 38.15C46.01 38.89 45.82 39.59 45.6 40.29C45.45 40.74 45.25 41.16 44.9 41.49C44.32 42.02 43.73 41.98 43.19 41.42C42.78 40.99 42.6 40.44 42.41 39.91C42.25 39.45 42.43 38.8 42.06 38.54C41.68 38.28 41.11 38.6 40.62 38.63C39.79 38.67 39.77 38.69 39.63 39.51C39.51 40.15 39.38 40.79 39.09 41.37C38.83 41.89 38.42 42.29 37.83 42.29C37.19 42.29 36.72 41.95 36.46 41.31C36.16 40.56 35.89 39.8 35.88 38.98C35.88 38.66 35.76 38.53 35.44 38.48C34.8 38.38 34.16 38.26 33.54 38.04C33.24 37.94 33.06 37.99 33 38.35C32.9 39.04 32.5 39.59 32.12 40.15C31.64 40.86 30.5 40.87 30.03 40.07C29.76 39.62 29.54 39.15 29.4 38.64C29.21 37.97 29.11 37.27 29.04 36.57C29.02 36.37 29.04 36.14 28.81 36.03C28.22 35.74 27.72 35.28 27.04 35.05C26.94 35.4 26.86 35.69 26.77 35.99C26.62 36.5 26.33 36.92 26.01 37.33C25.51 37.96 24.31 37.83 23.99 37.04C23.84 36.68 23.69 36.32 23.62 35.93C23.45 34.93 23.42 33.91 23.58 32.91C23.61 32.68 23.64 32.5 23.45 32.35C23.09 32.06 22.73 31.77 22.33 31.46C22.11 32.11 21.8 32.64 21.35 33.08C20.68 33.71 19.79 33.6 19.27 32.84C19.03 32.49 18.93 32.09 18.83 31.69C18.63 30.89 18.69 30.08 18.6 29.27C17.82 30.65 17.36 32.11 17.29 33.69C17.2 35.78 17.86 37.67 18.81 39.49C19.12 40.09 19.47 40.66 19.86 41.22C21.08 42.98 22.74 44.28 24.46 45.5C27.45 47.62 30.66 49.38 34.04 50.82C34.53 51.02 35.03 51.14 35.54 51.21Z" fill="#C8DADC" fill-opacity="1.000000" fill-rule="nonzero"/>
		</g>
	</g>
	<g mask="url(#mask1_26850)">
		<g style="mix-blend-mode:normal">
			<path id="Path 36469" d="M58.82 96.31C58.65 94.37 58.48 92.43 58.29 90.5C58.18 89.47 58.07 88.43 57.91 87.41C57.83 86.86 57.78 86.86 57.24 86.98C56.59 87.12 55.93 87.27 55.27 87.4C53.79 87.69 52.3 87.9 50.81 88.07C48.77 88.31 46.72 88.37 44.67 88.42C43.4 88.45 42.13 88.41 40.86 88.38C39.64 88.35 38.42 88.3 37.2 88.22C35.05 88.09 32.9 87.94 30.76 87.69C30.04 87.6 30.03 87.63 29.95 88.33C29.59 91.45 29.28 94.57 29.08 97.77C31.05 98.18 32.99 98.36 34.92 98.55C36.91 98.75 38.91 98.9 40.91 99C42.91 99.09 44.91 99.12 46.91 99.02C48.85 98.91 50.79 98.7 52.72 98.44C54.6 98.19 56.46 97.85 58.31 97.43C58.86 97.3 58.86 97.29 58.85 96.7C58.85 96.57 58.83 96.44 58.82 96.31Z" fill="#C8DADC" fill-opacity="1.000000" fill-rule="nonzero"/>
		</g>
	</g>
	<g mask="url(#mask1_26850)">
		<g style="mix-blend-mode:normal">
			<path id="Path 36470" d="M58.03 98.46C55.03 99.2 51.96 99.58 48.89 99.84C45.88 100.1 42.87 100.09 39.85 99.9C37.47 99.74 35.09 99.52 32.72 99.26C31.49 99.12 30.27 98.91 28.97 98.79C28.91 100.06 28.86 101.3 28.78 102.54C28.66 104.33 28.59 106.11 28.56 107.9C28.55 108.47 28.56 108.47 29.14 108.59C30.53 108.88 31.94 109.08 33.36 109.25C36.3 109.62 39.26 109.77 42.22 109.82C45.77 109.87 49.32 109.7 52.87 109.36C54.83 109.17 56.77 108.82 58.71 108.5C59.42 108.39 59.42 108.36 59.42 107.67C59.43 104.73 59.14 101.81 59.05 98.88C59.04 98.73 58.98 98.58 58.93 98.37C58.59 98.35 58.31 98.39 58.03 98.46Z" fill="#C8DADC" fill-opacity="1.000000" fill-rule="nonzero"/>
		</g>
	</g>
	<g mask="url(#mask1_26850)">
		<g style="mix-blend-mode:normal">
			<path id="Path 36471" d="M57.08 81.04C56.75 79.28 56.48 77.51 56.16 75.76C56.07 75.26 56.04 75.26 55.55 75.38C53.82 75.81 52.07 76.18 50.29 76.46C48.27 76.78 46.23 76.94 44.18 77.01C41.48 77.1 38.78 77.04 36.08 76.88C34.82 76.81 33.56 76.69 32.3 76.51C31.71 76.43 31.7 76.42 31.6 77.02C31.34 78.53 31.07 80.03 30.84 81.55C30.61 83.09 30.44 84.64 30.22 86.18C30.18 86.52 30.23 86.69 30.64 86.73C32.71 86.91 34.77 87.13 36.85 87.23C38.56 87.31 40.27 87.42 41.98 87.47C43.75 87.53 45.51 87.42 47.27 87.36C50.65 87.24 53.98 86.75 57.27 86C57.75 85.89 57.78 85.87 57.68 85.28C57.42 83.87 57.35 82.44 57.08 81.04Z" fill="#C8DADC" fill-opacity="1.000000" fill-rule="nonzero"/>
		</g>
	</g>
	<g mask="url(#mask1_26850)">
		<g style="mix-blend-mode:normal">
			<path id="Path 36472" d="M55.44 71.71C55.04 69.52 54.59 67.33 54.39 65.11C54.35 64.62 54.26 64.14 54.2 63.65C54.16 63.34 53.98 63.27 53.7 63.33C53.27 63.43 52.85 63.54 52.41 63.62C49.68 64.14 46.92 64.41 44.14 64.49C40.84 64.59 37.54 64.66 34.25 64.41C33.71 64.37 33.71 64.38 33.63 64.94C33.49 65.96 33.39 67 33.21 68.02C32.81 70.34 32.46 72.68 31.94 74.98C31.86 75.33 31.96 75.53 32.34 75.57C33.29 75.66 34.24 75.82 35.19 75.87C37.08 75.98 38.98 76.03 40.87 76.11C41.39 76.12 41.91 76.06 42.42 76.06C45.7 76.09 48.95 75.79 52.17 75.17C53.26 74.96 54.35 74.73 55.42 74.44C55.76 74.34 55.89 74.23 55.82 73.85C55.67 73.14 55.57 72.42 55.44 71.71Z" fill="#C8DADC" fill-opacity="1.000000" fill-rule="nonzero"/>
		</g>
	</g>
	<g mask="url(#mask1_26850)">
		<g style="mix-blend-mode:normal">
			<path id="Path 36473" d="M53.34 53.61C53.28 52.94 53.29 52.94 52.61 53.11C49.82 53.79 46.97 53.98 44.11 54.06C42.92 54.09 41.73 54.01 40.53 53.97C38.77 53.9 37.01 53.76 35.26 53.55C34.68 53.48 34.67 53.51 34.62 54.11C34.38 57.01 34.14 59.91 33.89 62.81C33.84 63.42 33.83 63.44 34.42 63.46C36.13 63.51 37.84 63.66 39.42 63.6C42.31 63.61 45.06 63.54 47.8 63.3C49.79 63.13 51.77 62.81 53.72 62.39C53.96 62.34 54.06 62.29 54.03 61.99C53.79 59.2 53.56 56.41 53.34 53.61Z" fill="#C8DADC" fill-opacity="1.000000" fill-rule="nonzero"/>
		</g>
	</g>
	<g mask="url(#mask1_26850)">
		<g style="mix-blend-mode:normal">
			<path id="Path 36474" d="M67.71 80.97C67.62 82.92 67.63 84.86 67.98 86.79C68.34 88.73 68.62 90.67 68.81 92.64C68.92 93.82 69.05 94.99 69.18 96.31C69.39 96.14 69.49 96.06 69.58 95.97C69.72 95.85 69.85 95.73 69.97 95.59C71.63 93.69 73.19 91.72 74.22 89.39C74.88 87.88 75.32 86.31 75.31 84.65C75.31 83.28 74.75 82.16 73.45 81.58C71.83 80.86 70.08 80.6 68.31 80.45C67.78 80.4 67.74 80.44 67.71 80.97Z" fill="#F6A0A1" fill-opacity="1.000000" fill-rule="nonzero"/>
		</g>
	</g>
	<g mask="url(#mask1_26850)">
		<g style="mix-blend-mode:normal">
			<path id="Path 36475" d="M41.5 26.55C42.91 26.71 43.96 26.06 44.77 24.99C46.03 23.32 46.36 21.37 46.34 19.34C46.32 19.05 46.32 18.77 46.28 18.48C46.03 16.77 45.47 15.2 44.23 13.95C43.09 12.82 41.62 12.52 40.19 13.39C38.84 14.22 38.2 15.55 37.78 16.99C37.21 18.9 37.3 20.83 37.89 22.74C38.2 23.75 38.69 24.65 39.42 25.41C39.99 26.01 40.66 26.45 41.5 26.55ZM40.19 17.16C40.28 16.97 40.37 16.79 40.49 16.62C41.44 15.25 42.77 15.54 43.56 16.63C43.95 17.17 44.12 17.79 44.29 18.42C44.39 18.78 44.3 19.03 43.9 19.11C43.68 19.17 43.32 19.2 43.33 19.52C43.34 19.77 43.57 19.83 43.76 19.91C44.44 20.24 44.42 20.24 44.29 21.01C44.17 21.73 44 22.43 43.56 23.04C43.32 23.36 43.02 23.62 42.67 23.78C42.05 24.09 41.46 23.91 40.93 23.5C40.58 23.22 40.31 22.87 40.14 22.45C39.79 21.58 39.56 20.67 39.62 19.57C39.58 18.81 39.8 17.97 40.19 17.16Z" fill="#E7E4E4" fill-opacity="1.000000" fill-rule="nonzero"/>
		</g>
	</g>
	<g mask="url(#mask1_26850)">
		<g style="mix-blend-mode:normal">
			<path id="Path 36476" d="M52.08 16.25C51.17 18.75 51.26 21.23 52.36 23.67C52.75 24.55 53.31 25.29 54.09 25.83C55.08 26.5 56.14 26.66 57.26 26.11C58.23 25.63 58.9 24.84 59.39 23.91C60.12 22.51 60.43 20.99 60.4 19.19C60.42 17.81 60.02 16.34 59.24 14.94C58.65 13.87 57.8 13.17 56.63 12.91C55.84 12.74 55.06 12.75 54.32 13.24C53.19 13.98 52.52 15.04 52.08 16.25ZM57.43 16.44C57.84 17 58.03 17.64 58.19 18.29C58.27 18.62 58.2 18.86 57.84 18.94C57.71 18.97 57.58 18.99 57.46 19.05C57.15 19.19 57.13 19.44 57.41 19.63C57.52 19.71 57.64 19.75 57.76 19.8C58.34 20.07 58.33 20.07 58.21 20.74C58.12 21.25 58.06 21.77 57.83 22.24C57.44 23.03 56.92 23.69 55.93 23.78C55.33 23.73 54.86 23.45 54.48 22.99C53.83 22.21 53.63 21.26 53.53 20.31C53.42 19.16 53.55 18.02 54.1 16.97C54.21 16.76 54.32 16.56 54.45 16.37C55.4 15.1 56.69 15.43 57.43 16.44Z" fill="#E7E4E4" fill-opacity="1.000000" fill-rule="nonzero"/>
		</g>
	</g>
	<g mask="url(#mask1_26850)">
		<g style="mix-blend-mode:normal">
			<path id="Path 36477" d="M65.99 52.63C66.84 52.23 69.25 50.55 70.14 49.75C70.51 49.42 70.88 49.1 71.26 48.77C71.56 48.51 71.69 48.25 71.41 47.85C71.13 47.45 71 46.96 70.93 46.46C70.81 45.61 71.11 44.78 71.98 44.42C72.14 44.35 72.31 44.27 72.49 44.23C72.77 44.17 72.85 44 72.86 43.73C72.9 42.78 72.74 41.89 72.22 41.05C71.81 40.39 71.25 39.9 70.64 39.46C69.46 38.6 68.15 37.99 66.6 37.75C66.79 42.75 66.3 47.66 65.99 52.63Z" fill="#F6A0A1" fill-opacity="1.000000" fill-rule="nonzero"/>
		</g>
	</g>
	<g mask="url(#mask1_26850)">
		<g style="mix-blend-mode:normal">
			<path id="Path 36478" d="M63 23.81C63 24.57 62.88 25.31 62.72 26.05C62.58 26.7 62.59 26.7 63.18 27.03C63.22 27.06 63.27 27.08 63.31 27.11C64.2 27.62 64.39 28.02 64.21 29.03C64.18 29.23 64.18 29.38 64.26 29.55C64.43 29.9 64.6 30.25 64.77 30.6C65.23 31.56 65.63 32.54 65.9 33.58C66.11 34.4 66.22 35.25 66.47 36.26C67.11 35.51 67.6 34.84 68.02 34.13C69.25 32.05 69.93 29.83 69.71 27.38C69.64 26.59 69.39 25.86 68.87 25.24C67.43 23.54 65.47 23.32 63.44 23.3C63.08 23.3 63.01 23.52 63 23.81Z" fill="#F6A0A1" fill-opacity="1.000000" fill-rule="nonzero"/>
		</g>
	</g>
	<g mask="url(#mask1_26850)">
		<g style="mix-blend-mode:normal">
			<path id="Path 36479" d="M73.47 66.63C71.47 67.77 69.44 68.87 67.33 69.79C66.65 70.09 66.36 70.5 66.29 71.16C66.25 71.5 66.14 71.82 66.11 72.16C66.03 73.46 66.16 74.74 66.36 76.02C66.48 76.78 66.58 77.54 66.83 78.25C67.08 78.29 67.16 78.13 67.27 78.03C69.03 76.3 70.72 74.51 72.06 72.42C72.91 71.07 73.66 69.69 73.89 68.09C73.97 67.55 74.03 67.02 73.78 66.48C73.65 66.54 73.56 66.58 73.47 66.63Z" fill="#F6A0A1" fill-opacity="1.000000" fill-rule="nonzero"/>
		</g>
	</g>
	<g mask="url(#mask1_26850)">
		<g style="mix-blend-mode:normal">
			<path id="Path 36480" d="M49.17 18.26C49.24 18.5 49.34 18.68 49.64 18.66C49.82 18.65 50.01 18.69 50.18 18.72C50.41 18.76 50.54 18.7 50.58 18.47C50.6 18.29 50.62 18.11 50.65 17.93C50.88 16.48 51.34 15.12 52.24 13.92C52.83 13.14 53.58 12.56 54.44 12.04C53.6 10.93 52.48 10.6 51.28 11.02C50.44 11.32 49.7 11.8 48.99 12.31C48.25 12.85 47.6 13.48 47.12 14.28C46.98 14.52 46.95 14.68 47.16 14.89C48.12 15.84 48.8 16.96 49.17 18.26Z" fill="#F6A0A1" fill-opacity="1.000000" fill-rule="nonzero"/>
		</g>
	</g>
	<g mask="url(#mask1_26850)">
		<g style="mix-blend-mode:normal">
			<path id="Path 36481" d="M60.54 15.22C61.3 16.52 62.06 17.81 62.51 19.27C62.71 19.91 62.72 20.59 63.07 21.37C63.6 20.12 63.81 18.96 63.91 17.76C64.01 16.6 63.88 15.48 63.3 14.45C62.54 13.1 61.13 12.76 59.74 13.27C59.49 13.35 59.37 13.52 59.56 13.73C59.98 14.17 60.24 14.71 60.54 15.22Z" fill="#F5A0A1" fill-opacity="1.000000" fill-rule="nonzero"/>
		</g>
	</g>
	<g mask="url(#mask1_26850)">
		<g style="mix-blend-mode:normal">
			<path id="Path 36482" d="M57.48 29.29C57.65 29.43 57.85 29.55 58.08 29.62C58.8 29.84 59.53 30.03 60.45 29.91C61.08 29.94 61.83 29.78 62.55 29.45C62.91 29.28 63.28 29.07 63.3 28.64C63.32 28.16 62.86 28.05 62.51 27.9C61.29 27.39 60.03 27.5 58.78 27.77C58.31 27.87 57.89 28.04 57.51 28.33C57.12 28.62 57.11 28.97 57.48 29.29Z" fill="#FBB5B3" fill-opacity="1.000000" fill-rule="nonzero"/>
		</g>
	</g>
	<g mask="url(#mask1_26850)">
		<g style="mix-blend-mode:normal">
			<path id="Path 36483" d="M61.32 26.54C61.52 26.56 61.62 26.46 61.68 26.3C61.75 26.11 61.84 25.91 61.87 25.71C62.16 23.8 62.2 21.89 61.75 19.99C61.69 19.72 61.66 19.42 61.44 19.19C61.26 22.21 60.71 25.01 57.86 26.89C58.1 26.89 58.19 26.91 58.26 26.89C59.27 26.63 60.27 26.4 61.32 26.54Z" fill="#91BDB6" fill-opacity="1.000000" fill-rule="nonzero"/>
		</g>
	</g>
	<g mask="url(#mask1_26850)">
		<g style="mix-blend-mode:normal">
			<path id="Path 36484" d="M20.88 32.24C21.22 31.83 21.35 31.32 21.53 30.84C21.57 30.72 21.52 30.62 21.45 30.55C20.86 29.97 20.41 29.26 19.79 28.71C19.73 28.73 19.67 28.74 19.61 28.76C19.61 29.22 19.59 29.68 19.62 30.14C19.66 30.78 19.67 31.44 19.9 32.06C20.11 32.63 20.5 32.7 20.88 32.24Z" fill="#E5E1E2" fill-opacity="1.000000" fill-rule="nonzero"/>
		</g>
	</g>
	<g mask="url(#mask1_26850)">
		<g style="mix-blend-mode:normal">
			<path id="Path 36485" d="M25.45 36.52C25.85 36.04 25.97 35.46 26.13 34.89C26.22 34.56 26.11 34.34 25.85 34.16C25.43 33.86 25.01 33.56 24.47 33.17C24.44 33.61 24.4 33.91 24.4 34.22C24.41 34.97 24.43 35.73 24.74 36.43C24.94 36.88 25.13 36.9 25.45 36.52Z" fill="#E5E2E2" fill-opacity="1.000000" fill-rule="nonzero"/>
		</g>
	</g>
	<g mask="url(#mask1_26850)">
		<g style="mix-blend-mode:normal">
			<path id="Path 36486" d="M44.44 40.57C44.86 39.78 45.09 38.95 45.03 37.96C44.47 38.06 44.01 38.15 43.55 38.22C43.23 38.27 43.11 38.46 43.16 38.76C43.25 39.38 43.36 40 43.69 40.54C44 41.04 44.18 41.06 44.44 40.57Z" fill="#E4E1E1" fill-opacity="1.000000" fill-rule="nonzero"/>
		</g>
	</g>
	<g mask="url(#mask1_26850)">
		<g style="mix-blend-mode:normal">
			<path id="Path 36487" d="M30.83 39.58C30.99 39.79 31.2 39.8 31.35 39.6C31.69 39.17 32.01 38.74 32.11 38.18C32.17 37.82 32.09 37.59 31.73 37.46C31.17 37.26 30.63 37.02 30 36.77C30.1 37.71 30.25 38.59 30.7 39.39C30.73 39.46 30.78 39.52 30.83 39.58Z" fill="#E4E1E1" fill-opacity="1.000000" fill-rule="nonzero"/>
		</g>
	</g>
	<g mask="url(#mask1_26850)">
		<g style="mix-blend-mode:normal">
			<path id="Path 36488" d="M38.15 41.1C38.28 40.94 38.38 40.75 38.43 40.55C38.58 39.98 38.69 39.4 38.83 38.78L36.86 38.78C36.75 39.64 37.05 40.34 37.37 41.02C37.56 41.43 37.88 41.45 38.15 41.1Z" fill="#E5E2E2" fill-opacity="1.000000" fill-rule="nonzero"/>
		</g>
	</g>
	<g mask="url(#mask1_26850)">
		<g style="mix-blend-mode:normal">
			<path id="Path 36489" d="M50.3 38.89C50.55 38.86 50.64 38.6 50.72 38.38C50.99 37.61 51.06 36.83 50.97 36.02C48.89 36.63 48.79 36.64 49.85 38.5C49.95 38.68 50.08 38.91 50.3 38.89Z" fill="#E5E2E2" fill-opacity="1.000000" fill-rule="nonzero"/>
		</g>
	</g>
	<g mask="url(#mask1_26850)">
		<g style="mix-blend-mode:normal">
			<path id="Path 36490" d="M24.56 26.82C24.5 26.51 24.28 26.41 24.03 26.34C23.76 26.34 23.58 26.6 23.64 26.97C23.74 27.66 24 28.31 24.26 28.96C24.37 29.22 24.52 29.42 24.83 29.34C25.12 29.27 25.26 28.94 25.13 28.58C24.91 28 24.69 27.42 24.56 26.82Z" fill="#000000" fill-opacity="1.000000" fill-rule="nonzero"/>
		</g>
	</g>
	<g mask="url(#mask1_26850)">
		<g style="mix-blend-mode:normal">
			<path id="Path 36491" d="M33.84 27.95C33.59 27.8 33.4 27.88 33.23 28.1C32.86 28.59 32.48 29.09 32.11 29.58C32.01 29.73 31.92 29.89 31.91 30.08C31.88 30.37 32.03 30.51 32.32 30.58C32.4 30.55 32.53 30.54 32.58 30.48C33.11 29.85 33.69 29.25 34.03 28.49C34.13 28.27 34.03 28.08 33.84 27.95Z" fill="#000000" fill-opacity="1.000000" fill-rule="nonzero"/>
		</g>
	</g>
	<g mask="url(#mask1_26850)">
		<g style="mix-blend-mode:normal">
			<path id="Path 36492" d="M40.14 22.45C40.31 22.87 40.58 23.22 40.93 23.5C41.46 23.91 42.05 24.09 42.68 23.78C43.02 23.62 43.32 23.36 43.56 23.04C44 22.43 44.17 21.73 44.29 21.01C44.42 20.24 44.44 20.24 43.76 19.91C43.57 19.83 43.34 19.77 43.33 19.52C43.32 19.2 43.6 19.19 43.82 19.12C44.22 19.05 44.39 18.78 44.29 18.42C44.12 17.79 43.95 17.17 43.56 16.63C42.77 15.54 41.44 15.25 40.49 16.62C40.37 16.79 40.28 16.97 40.19 17.16C39.8 17.97 39.58 18.82 39.62 19.57C39.56 20.67 39.79 21.58 40.14 22.45Z" fill="#000000" fill-opacity="1.000000" fill-rule="nonzero"/>
		</g>
	</g>
	<g mask="url(#mask1_26850)">
		<g style="mix-blend-mode:normal">
			<path id="Path 36493" d="M53.53 20.31C53.62 21.26 53.83 22.21 54.48 22.99C54.86 23.45 55.33 23.73 55.93 23.78C56.92 23.69 57.44 23.03 57.83 22.24C58.06 21.77 58.12 21.25 58.21 20.74C58.33 20.07 58.34 20.07 57.76 19.8C57.64 19.75 57.52 19.71 57.41 19.63C57.13 19.44 57.15 19.19 57.46 19.05C57.58 18.99 57.71 18.97 57.84 18.94C58.2 18.86 58.27 18.62 58.19 18.29C58.03 17.64 57.84 17 57.43 16.44C56.69 15.43 55.4 15.1 54.45 16.37C54.32 16.56 54.21 16.76 54.1 16.97C53.55 18.02 53.41 19.16 53.53 20.31Z" fill="#000000" fill-opacity="1.000000" fill-rule="nonzero"/>
		</g>
	</g>
	<g mask="url(#mask1_26850)">
		<g style="mix-blend-mode:normal">
			<path id="Path 36494" d="M88 52.06C87.95 51 87.17 50.26 86.1 50.18C85.5 50.14 84.95 50.35 84.38 50.45C84.33 50.17 84.44 49.99 84.48 49.79C84.8 48.25 84.24 46.83 82.1 47.05C81.9 47.07 81.69 47.13 81.49 47.16C81.27 47.19 81.04 47.3 80.79 47.15C80.82 46.98 80.83 46.8 80.88 46.63C81.24 45.47 80.42 44.04 78.74 44.31C77.85 44.46 76.97 44.72 76.2 45.25C75.55 45.71 75.54 45.69 74.95 45.2C74.77 45.05 74.6 44.89 74.4 44.77C73.93 44.5 73.77 44.14 73.8 43.58C73.9 41.57 72.99 40.04 71.41 38.85C70.18 37.93 68.83 37.25 67.32 36.86C67.39 36.54 67.63 36.35 67.79 36.12C68.33 35.39 68.86 34.66 69.27 33.84C69.9 32.55 70.4 31.21 70.61 29.79C70.79 28.61 70.82 27.41 70.46 26.24C69.87 24.29 68.43 23.26 66.54 22.71C65.65 22.45 64.72 22.37 63.76 22.21C64.04 21.51 64.33 20.85 64.49 20.14C64.87 18.42 65.09 16.71 64.58 14.98C63.72 12.07 60.83 11.51 59.02 12.57C58.76 12.73 58.57 12.71 58.31 12.58C57.56 12.22 56.8 11.88 55.95 11.86C55.63 11.86 55.43 11.76 55.25 11.5C54.12 9.91 52.13 9.38 50.12 10.47C48.56 11.31 47.15 12.33 46.21 13.95C45.28 13.21 44.32 12.6 43.24 12.19C42.07 11.74 40.94 11.85 39.88 12.47C38.46 13.28 37.62 14.56 37.08 16.07C36.45 17.85 36.28 19.66 36.61 21.52C36.88 23.06 37.41 24.51 38.44 25.81C37.97 25.73 37.58 25.7 37.21 25.61C34.66 24.98 32.14 24.28 29.67 23.39C27.93 22.76 26.15 22.3 24.29 22.22C22.38 22.12 20.71 22.66 19.4 24.14C18.73 24.9 18.48 25.76 18.7 26.74C18.76 27.03 18.68 27.2 18.52 27.43C17.22 29.33 16.43 31.42 16.34 33.75C16.25 35.69 16.77 37.51 17.57 39.24C18.79 41.87 20.74 43.91 23.03 45.63C24.67 46.86 26.4 47.96 28.2 48.96C28.63 49.2 28.69 49.53 28.63 49.93C28.37 51.65 27.7 53.22 26.9 54.75C26.77 54.99 26.62 55.07 26.33 54.95C25.54 54.63 24.74 54.32 23.98 53.91C22.07 52.85 20.27 51.62 18.54 50.29C17.94 49.83 17.38 49.34 16.81 48.84C16.36 48.44 16.35 48.35 16.62 47.79C16.8 47.41 16.94 47.03 17.03 46.62C17.2 45.87 17.08 45.18 16.49 44.7C15.89 44.22 15.19 43.99 14.38 44.31C13.73 44.57 13.26 45.05 12.76 45.49C12.58 45.65 12.45 45.73 12.23 45.55C12.03 45.38 11.8 45.26 11.58 45.12C10.82 44.65 9.96 44.4 9.09 44.3C7.94 44.17 7.06 44.92 7.03 46.03C7.02 46.42 7.15 46.82 7.22 47.23C6.6 47.26 6.06 47.02 5.48 47.03C4.05 47.08 3.36 47.85 3.45 49.27C3.48 49.67 3.71 50.05 3.6 50.49C3.1 50.32 2.63 50.21 2.13 50.17C0.8 50.06 -0.49 51.41 0.18 52.97C0.61 53.99 1.13 54.95 1.91 55.72C3.37 57.17 4.83 58.62 6.36 59.98C8.54 61.94 10.85 63.75 13.31 65.35C15.27 66.62 17.3 67.77 19.39 68.79C20.7 69.43 22.01 70.05 23.34 70.68C23.03 71.96 22.7 73.21 22.45 74.48C21.96 76.89 21.4 79.29 20.92 81.71C20.54 83.7 20.14 85.68 19.84 87.68C19.21 91.84 18.78 96.02 18.53 100.23C18.45 101.59 18.5 102.94 19.16 104.18C19.4 104.64 19.69 105.07 19.94 105.52C20.35 106.24 20.93 106.78 21.64 107.2C22.05 107.45 22.68 107.55 22.85 107.95C23.02 108.39 22.85 108.97 22.82 109.49C22.73 111.56 22.68 113.65 22.52 115.72C22.32 118.31 22.24 120.9 22.04 123.5C21.81 126.34 21.73 129.2 21.64 132.05C21.6 133.17 21.38 134.28 21.52 135.4C21.58 135.89 21.6 136.38 21.6 136.88C21.59 138.07 21.59 139.27 21.51 140.47C21.33 143.3 21.53 146.13 21.66 148.96C21.68 149.58 21.79 150.2 21.89 150.82C22.15 152.53 22.76 154.13 23.5 155.68C24.11 156.96 24.93 158.08 26.03 159C27.56 160.27 29.36 161.01 31.2 161.65C34.36 162.74 37.66 163.2 40.98 163.37C45.06 163.57 49.12 163.36 53.14 162.47C55.5 161.95 57.8 161.24 59.94 160.11C61.34 159.38 62.62 158.49 63.5 157.15C64.84 155.12 65.83 152.93 66.15 150.49C66.5 147.72 66.6 144.94 66.54 142.16C66.49 140.16 66.39 138.15 66.42 136.15C66.43 135.55 66.54 134.96 66.5 134.36C66.41 133.12 66.33 131.87 66.28 130.63C66.13 127.2 65.94 123.78 65.74 120.36C65.5 116.35 65.31 112.33 65.1 108.31C65.06 107.62 65.07 107.63 65.73 107.31C68 106.2 69.23 104.35 69.44 101.86C69.54 100.65 69.46 99.42 69.3 98.21C69.25 97.83 69.31 97.52 69.63 97.24C70.61 96.39 71.43 95.37 72.25 94.36C73.32 93.05 74.22 91.62 74.95 90.1C75.66 88.61 76.13 87.04 76.25 85.4C76.32 84.55 76.31 83.67 75.95 82.87C75.39 81.65 74.46 80.84 73.18 80.42C72.17 80.08 71.13 79.88 70.09 79.67C69.4 79.53 68.69 79.59 67.98 79.35C68.06 78.81 68.3 78.37 68.67 77.99C69.92 76.7 71.14 75.39 72.18 73.92C73.32 72.33 74.32 70.67 74.78 68.74C74.96 67.98 75.01 67.18 74.82 66.43C74.7 65.92 74.84 65.75 75.22 65.51C76.78 64.5 78.29 63.4 79.75 62.24C81.77 60.64 83.62 58.86 85.48 57.08C86.5 56.1 87.25 54.92 87.76 53.58C87.95 53.09 88.03 52.58 88 52.06ZM70.64 39.46C71.25 39.9 71.81 40.4 72.22 41.05C72.74 41.89 72.9 42.78 72.86 43.73C72.85 44 72.77 44.17 72.49 44.23C72.31 44.27 72.14 44.35 71.98 44.42C71.11 44.78 70.81 45.61 70.93 46.47C71 46.96 71.13 47.45 71.41 47.85C71.69 48.25 71.56 48.51 71.26 48.78C70.88 49.1 70.51 49.42 70.14 49.75C69.25 50.55 66.84 52.23 65.99 52.63C66.3 47.66 66.79 42.75 66.6 37.75C68.15 37.99 69.46 38.6 70.64 39.46ZM68.87 25.24C69.39 25.86 69.64 26.59 69.71 27.38C69.93 29.83 69.25 32.05 68.02 34.13C67.6 34.84 67.11 35.51 66.47 36.26C66.22 35.25 66.11 34.41 65.9 33.58C65.63 32.54 65.23 31.56 64.77 30.6C64.6 30.25 64.43 29.9 64.26 29.55C64.18 29.38 64.18 29.23 64.21 29.03C64.39 28.02 64.19 27.62 63.31 27.11C63.27 27.08 63.22 27.06 63.17 27.03C62.59 26.7 62.58 26.7 62.72 26.05C62.88 25.31 63 24.57 63 23.81C63.01 23.52 63.08 23.3 63.44 23.3C65.47 23.33 67.43 23.54 68.87 25.24ZM58.78 27.77C60.03 27.5 61.29 27.39 62.51 27.9C62.86 28.05 63.32 28.16 63.3 28.64C63.28 29.07 62.91 29.28 62.55 29.45C61.83 29.78 61.08 29.95 60.45 29.91C59.53 30.03 58.8 29.84 58.08 29.62C57.85 29.55 57.65 29.43 57.48 29.29C57.11 28.97 57.12 28.62 57.51 28.33C57.89 28.04 58.31 27.87 58.78 27.77ZM57.86 26.89C60.71 25.01 61.26 22.21 61.44 19.19C61.66 19.42 61.69 19.73 61.75 19.99C62.2 21.89 62.16 23.8 61.87 25.71C61.84 25.91 61.75 26.11 61.68 26.3C61.62 26.46 61.52 26.56 61.32 26.54C60.27 26.4 59.26 26.64 58.26 26.89C58.19 26.91 58.1 26.89 57.86 26.89ZM59.74 13.27C61.13 12.76 62.54 13.1 63.3 14.45C63.88 15.48 64.01 16.6 63.91 17.76C63.81 18.96 63.6 20.12 63.07 21.37C62.72 20.59 62.71 19.91 62.51 19.27C62.06 17.81 61.3 16.52 60.54 15.22C60.24 14.71 59.98 14.17 59.56 13.73C59.37 13.52 59.49 13.35 59.74 13.27ZM56.63 12.91C57.8 13.17 58.65 13.87 59.24 14.94C60.02 16.34 60.42 17.81 60.4 19.19C60.43 20.99 60.12 22.51 59.39 23.91C58.9 24.84 58.23 25.63 57.26 26.11C56.14 26.66 55.08 26.5 54.09 25.83C53.31 25.29 52.75 24.55 52.36 23.67C51.26 21.23 51.17 18.75 52.08 16.25C52.52 15.04 53.19 13.98 54.32 13.24C55.06 12.75 55.84 12.74 56.63 12.91ZM47.12 14.28C47.6 13.48 48.25 12.85 48.99 12.31C49.7 11.8 50.44 11.32 51.28 11.02C52.48 10.6 53.6 10.93 54.44 12.04C53.58 12.56 52.83 13.14 52.24 13.92C51.34 15.12 50.88 16.48 50.65 17.93C50.62 18.11 50.6 18.29 50.58 18.47C50.54 18.7 50.41 18.76 50.18 18.72C50.01 18.69 49.82 18.65 49.64 18.66C49.34 18.68 49.24 18.5 49.17 18.26C48.8 16.96 48.12 15.84 47.16 14.89C46.95 14.68 46.98 14.52 47.12 14.28ZM37.89 22.74C37.3 20.83 37.21 18.9 37.78 16.99C38.2 15.56 38.84 14.22 40.2 13.39C41.62 12.52 43.09 12.82 44.23 13.95C45.47 15.2 46.03 16.78 46.28 18.48C46.32 18.77 46.32 19.05 46.34 19.34C46.36 21.37 46.03 23.32 44.77 24.99C43.96 26.06 42.91 26.71 41.5 26.55C40.66 26.45 39.99 26.01 39.42 25.41C38.69 24.65 38.2 23.75 37.89 22.74ZM24.46 45.5C22.74 44.28 21.08 42.98 19.86 41.22C19.47 40.66 19.12 40.09 18.81 39.49C17.86 37.67 17.2 35.77 17.29 33.69C17.36 32.11 17.82 30.65 18.6 29.27C18.69 30.08 18.63 30.89 18.83 31.68C18.93 32.09 19.04 32.49 19.27 32.84C19.79 33.6 20.68 33.71 21.35 33.08C21.8 32.64 22.11 32.1 22.33 31.46C22.72 31.77 23.09 32.06 23.45 32.35C23.64 32.5 23.61 32.68 23.58 32.91C23.42 33.91 23.45 34.93 23.62 35.93C23.69 36.32 23.84 36.68 23.99 37.04C24.31 37.83 25.51 37.96 26.01 37.33C26.33 36.92 26.62 36.5 26.77 35.99C26.86 35.69 26.94 35.4 27.04 35.05C27.72 35.28 28.22 35.74 28.81 36.03C29.04 36.14 29.02 36.37 29.04 36.57C29.11 37.27 29.21 37.97 29.4 38.64C29.54 39.15 29.76 39.61 30.03 40.07C30.5 40.87 31.64 40.86 32.12 40.15C32.5 39.59 32.9 39.04 33 38.35C33.06 37.99 33.24 37.94 33.54 38.04C34.16 38.26 34.8 38.38 35.44 38.48C35.76 38.53 35.88 38.66 35.88 38.98C35.89 39.8 36.16 40.56 36.46 41.31C36.72 41.95 37.19 42.29 37.83 42.29C38.42 42.29 38.83 41.89 39.09 41.37C39.38 40.79 39.51 40.15 39.63 39.51C39.77 38.69 39.79 38.67 40.62 38.63C41.11 38.6 41.68 38.28 42.06 38.54C42.43 38.8 42.25 39.45 42.41 39.91C42.6 40.44 42.78 40.99 43.19 41.42C43.73 41.98 44.32 42.02 44.9 41.49C45.25 41.16 45.45 40.74 45.6 40.29C45.82 39.59 46.01 38.89 46.01 38.15C46.01 37.77 46.18 37.6 46.53 37.51C46.96 37.41 47.38 37.27 47.8 37.13C48.1 37.03 48.26 37.06 48.35 37.43C48.5 38.09 48.81 38.69 49.24 39.23C49.99 40.15 50.82 40.09 51.4 39.07C51.83 38.32 51.9 37.49 51.95 36.66C51.96 36.48 51.94 36.3 51.94 36.11C51.97 35.47 51.97 35.47 52.72 35.27C52.72 36.39 52.73 37.51 52.72 38.62C52.71 41.19 52.8 43.76 52.94 46.33C53.03 48.04 53.09 49.76 53.19 51.47C53.21 51.85 53.09 52.01 52.71 52.1C50.35 52.69 47.95 52.91 45.54 53.05C42.78 53.21 40.03 52.93 37.28 52.82C36.53 52.79 35.79 52.65 35.04 52.56C34.91 52.55 34.76 52.55 34.78 52.36C34.79 52.18 34.95 52.19 35.07 52.18C35.3 52.18 35.54 52.2 35.77 52.21C36.31 52.24 36.86 52.28 37.4 52.3C37.58 52.31 37.77 52.29 37.94 52.24C38.19 52.16 38.33 51.96 38.29 51.7C38.25 51.44 38.06 51.29 37.78 51.33C37.03 51.44 36.29 51.31 35.54 51.21C35.03 51.14 34.53 51.02 34.04 50.82C30.66 49.38 27.45 47.62 24.46 45.5ZM19.61 28.76C19.67 28.74 19.73 28.73 19.79 28.71C20.41 29.26 20.86 29.97 21.45 30.55C21.52 30.62 21.57 30.72 21.53 30.84C21.35 31.32 21.22 31.83 20.88 32.24C20.5 32.7 20.11 32.63 19.9 32.06C19.67 31.44 19.66 30.78 19.62 30.14C19.59 29.68 19.61 29.22 19.61 28.76ZM24.4 34.22C24.4 33.91 24.44 33.61 24.47 33.17C25.01 33.56 25.43 33.86 25.85 34.16C26.11 34.34 26.22 34.56 26.13 34.89C25.97 35.46 25.85 36.04 25.45 36.52C25.13 36.9 24.94 36.88 24.74 36.43C24.43 35.73 24.41 34.97 24.4 34.22ZM30 36.77C30.63 37.02 31.17 37.26 31.73 37.46C32.09 37.59 32.17 37.82 32.11 38.18C32.01 38.74 31.69 39.18 31.35 39.6C31.2 39.8 30.99 39.79 30.83 39.58C30.78 39.52 30.73 39.46 30.7 39.39C30.25 38.59 30.1 37.71 30 36.77ZM36.86 38.78L38.83 38.78C38.69 39.4 38.58 39.98 38.43 40.55C38.38 40.75 38.28 40.94 38.15 41.1C37.88 41.45 37.56 41.43 37.37 41.02C37.05 40.34 36.75 39.64 36.86 38.78ZM43.55 38.22C44.01 38.15 44.47 38.06 45.03 37.96C45.09 38.95 44.86 39.78 44.44 40.57C44.18 41.06 44 41.04 43.69 40.54C43.36 40 43.25 39.38 43.16 38.76C43.11 38.46 43.23 38.27 43.55 38.22ZM50.97 36.02C51.06 36.83 50.99 37.61 50.72 38.38C50.64 38.6 50.55 38.86 50.3 38.89C50.08 38.91 49.95 38.68 49.85 38.5C48.79 36.64 48.89 36.63 50.97 36.02ZM58.31 97.43C56.46 97.85 54.6 98.19 52.72 98.44C50.79 98.7 48.85 98.92 46.91 99.02C44.91 99.12 42.91 99.09 40.91 99C38.91 98.9 36.91 98.75 34.92 98.55C32.99 98.36 31.05 98.18 29.08 97.77C29.28 94.57 29.59 91.45 29.95 88.33C30.03 87.63 30.04 87.6 30.76 87.69C32.9 87.94 35.05 88.09 37.2 88.22C38.42 88.3 39.64 88.35 40.86 88.38C42.13 88.41 43.4 88.45 44.67 88.42C46.72 88.37 48.77 88.31 50.81 88.07C52.3 87.9 53.79 87.69 55.27 87.4C55.93 87.27 56.59 87.12 57.24 86.98C57.78 86.86 57.83 86.86 57.91 87.41C58.07 88.43 58.18 89.47 58.29 90.5C58.48 92.43 58.65 94.37 58.82 96.31C58.83 96.44 58.85 96.57 58.85 96.7C58.86 97.29 58.86 97.3 58.31 97.43ZM58.93 98.37C58.98 98.58 59.04 98.73 59.05 98.88C59.14 101.81 59.43 104.73 59.42 107.67C59.42 108.36 59.42 108.39 58.71 108.5C56.77 108.82 54.83 109.17 52.87 109.36C49.32 109.7 45.77 109.87 42.22 109.82C39.26 109.77 36.3 109.62 33.36 109.25C31.94 109.08 30.53 108.88 29.14 108.59C28.56 108.47 28.55 108.47 28.56 107.9C28.59 106.11 28.66 104.33 28.78 102.54C28.86 101.3 28.91 100.06 28.97 98.79C30.27 98.91 31.49 99.12 32.72 99.26C35.09 99.52 37.47 99.74 39.85 99.9C42.87 100.09 45.88 100.1 48.89 99.84C51.96 99.58 55.02 99.2 58.03 98.46C58.31 98.39 58.59 98.35 58.93 98.37ZM57.27 86C53.98 86.75 50.65 87.24 47.27 87.36C45.51 87.42 43.75 87.53 41.98 87.47C40.27 87.42 38.56 87.31 36.85 87.23C34.77 87.13 32.71 86.91 30.64 86.73C30.23 86.69 30.18 86.52 30.22 86.18C30.44 84.64 30.61 83.09 30.84 81.55C31.07 80.03 31.34 78.53 31.6 77.02C31.7 76.42 31.71 76.43 32.3 76.51C33.56 76.69 34.82 76.81 36.08 76.88C38.78 77.04 41.48 77.1 44.18 77.01C46.23 76.94 48.27 76.78 50.29 76.46C52.07 76.18 53.81 75.81 55.55 75.38C56.04 75.26 56.07 75.26 56.16 75.75C56.48 77.52 56.75 79.28 57.08 81.04C57.35 82.44 57.42 83.87 57.68 85.28C57.78 85.87 57.75 85.89 57.27 86ZM55.42 74.44C54.35 74.73 53.26 74.96 52.17 75.17C48.95 75.79 45.7 76.09 42.42 76.06C41.91 76.06 41.39 76.12 40.87 76.11C38.98 76.03 37.08 75.98 35.19 75.87C34.24 75.82 33.29 75.66 32.34 75.57C31.96 75.53 31.86 75.33 31.94 74.98C32.46 72.68 32.81 70.34 33.22 68.02C33.39 67 33.49 65.97 33.63 64.94C33.71 64.38 33.71 64.37 34.25 64.41C37.54 64.66 40.84 64.59 44.14 64.49C46.92 64.41 49.68 64.14 52.41 63.62C52.85 63.54 53.27 63.43 53.7 63.33C53.98 63.27 54.16 63.34 54.2 63.65C54.26 64.14 54.35 64.62 54.39 65.11C54.59 67.34 55.04 69.52 55.44 71.71C55.57 72.42 55.67 73.14 55.82 73.85C55.89 74.23 55.76 74.34 55.42 74.44ZM53.72 62.39C51.77 62.81 49.79 63.13 47.8 63.3C45.06 63.54 42.31 63.61 39.42 63.6C37.84 63.66 36.13 63.52 34.42 63.46C33.83 63.44 33.84 63.42 33.89 62.81C34.14 59.91 34.38 57.01 34.62 54.11C34.67 53.51 34.68 53.48 35.26 53.55C37.01 53.76 38.77 53.9 40.53 53.97C41.73 54.01 42.92 54.09 44.11 54.06C46.97 53.98 49.82 53.79 52.61 53.11C53.28 52.94 53.28 52.94 53.34 53.62C53.56 56.41 53.79 59.2 54.03 61.99C54.06 62.29 53.96 62.34 53.72 62.39ZM22.27 106.43C20.65 105.35 19.58 103.76 19.52 101.71C19.46 99.67 19.66 97.64 19.85 95.6C20.11 92.94 20.42 90.29 20.83 87.65C21.08 86.08 21.38 84.53 21.66 82.97C22.23 79.7 23 76.47 23.73 73.23C24.04 71.84 24.42 70.46 24.7 69.06C24.74 68.83 24.76 68.6 24.78 68.37C24.79 68.16 24.68 68 24.5 67.94C24.26 67.87 24.09 68 23.99 68.2C23.92 68.37 23.87 68.55 23.83 68.72C23.74 69.01 23.66 69.31 23.57 69.66C22.81 69.34 22.09 69.05 21.39 68.72C18.72 67.45 16.11 66.05 13.64 64.42C11.78 63.19 10.02 61.81 8.31 60.38C6.54 58.92 4.93 57.3 3.3 55.69C2.5 54.9 1.83 54.01 1.31 53.01C1.08 52.55 0.81 52.07 1.12 51.55C1.47 50.97 2.07 51.08 2.61 51.15C3.23 51.23 3.79 51.53 4.27 51.95C4.37 52.03 4.45 52.14 4.55 52.21C4.7 52.33 4.87 52.38 5.05 52.26C5.23 52.14 5.27 51.97 5.25 51.78C5.23 51.51 5.09 51.29 4.97 51.06C4.69 50.47 4.47 49.86 4.38 49.21C4.26 48.43 4.59 48.03 5.36 47.98C6.24 47.94 7.06 48.15 7.82 48.59C7.94 48.65 8.04 48.74 8.14 48.8C8.36 48.94 8.58 48.97 8.78 48.77C9.01 48.55 8.99 48.31 8.83 48.06C8.72 47.89 8.59 47.72 8.47 47.55C8.22 47.18 8.07 46.77 8.01 46.33C7.9 45.59 8.27 45.14 9 45.23C10.13 45.36 11.16 45.77 12.01 46.57C12.53 47.07 12.68 47.08 13.09 46.51C13.39 46.1 13.78 45.81 14.14 45.47C14.38 45.25 14.7 45.2 15.01 45.16C15.79 45.07 16.28 45.57 16.13 46.33C16.02 46.86 15.86 47.38 15.5 47.83C15.09 48.35 15.12 48.36 15.58 48.86C16.8 50.19 18.22 51.29 19.69 52.31C20.82 53.09 21.95 53.89 23.15 54.56C24.28 55.18 25.49 55.68 26.73 56.08C27.1 56.2 27.33 55.98 27.49 55.7C27.77 55.17 28.07 54.65 28.28 54.1C28.64 53.18 29.15 52.32 29.32 51.34C29.39 50.97 29.64 50.92 29.96 50.92C31.06 50.92 31.94 51.44 32.78 52.09C32.92 52.2 33.03 52.35 33.18 52.46C33.59 52.77 33.72 53.18 33.69 53.69C33.62 55.09 33.55 56.49 33.39 57.88C33.24 59.19 33.19 60.52 33.04 61.83C32.75 64.45 32.47 67.09 31.98 69.69C31.46 72.44 30.96 75.2 30.48 77.96C29.96 80.92 29.52 83.89 29.15 86.88C28.79 89.74 28.56 92.61 28.25 95.47C28.12 96.63 28.09 97.8 28.02 98.97C27.94 100.19 27.87 101.4 27.8 102.62C27.76 103.35 27.71 104.07 27.71 104.8C27.71 105.76 27.56 106.71 27.59 107.68C27.61 108.19 27.52 108.24 27 108.14C25.33 107.82 23.67 107.36 22.27 106.43ZM65.28 131.98C65.33 133.74 65.36 135.51 65.42 137.28C65.48 139.12 65.47 140.97 65.53 142.81C65.61 144.84 65.5 146.87 65.37 148.89C65.15 152.08 64 154.9 62.01 157.37C61.37 158.16 60.5 158.72 59.61 159.21C57.36 160.45 54.92 161.15 52.42 161.65C48.32 162.47 44.18 162.64 40.01 162.33C37.81 162.16 35.62 161.87 33.48 161.33C31.41 160.82 29.39 160.15 27.59 158.95C26.71 158.36 25.91 157.66 25.34 156.72C24.51 155.37 23.73 153.99 23.3 152.46C22.89 151 22.64 149.52 22.58 148.01C22.51 146.42 22.34 144.84 22.45 143.17C22.5 140.26 22.54 137.28 22.62 134.29C22.69 131.59 22.8 128.89 22.92 126.18C23.02 124.08 23.17 121.98 23.27 119.88C23.37 117.91 23.43 115.94 23.54 113.97C23.6 112.85 23.68 111.74 23.7 110.62C23.71 109.87 23.86 109.79 24.62 109.65C25.59 109.47 26.57 109.45 27.55 109.4C28.04 109.38 28.54 109.46 29.01 109.57C31.3 110.06 33.62 110.26 35.95 110.48C39.89 110.87 43.84 110.82 47.79 110.71C49.29 110.67 50.79 110.48 52.28 110.36C55.06 110.16 57.78 109.6 60.53 109.26C61.45 109.15 62.4 109.15 63.33 109.3C64.17 109.43 64.22 109.5 64.27 110.34C64.33 111.43 64.38 112.52 64.43 113.61C64.54 116.02 64.61 118.44 64.77 120.85C65.01 124.55 65.17 128.27 65.28 131.98ZM68.31 80.45C70.08 80.6 71.83 80.86 73.45 81.58C74.75 82.16 75.31 83.28 75.31 84.65C75.32 86.31 74.88 87.88 74.22 89.39C73.19 91.72 71.63 93.69 69.97 95.59C69.85 95.73 69.72 95.85 69.58 95.97C69.49 96.06 69.39 96.14 69.18 96.31C69.05 94.99 68.92 93.82 68.81 92.64C68.62 90.68 68.34 88.73 67.98 86.79C67.63 84.86 67.62 82.92 67.71 80.97C67.74 80.44 67.78 80.4 68.31 80.45ZM73.89 68.09C73.66 69.69 72.91 71.07 72.06 72.42C70.72 74.51 69.03 76.3 67.27 78.03C67.16 78.13 67.08 78.29 66.83 78.25C66.58 77.54 66.48 76.78 66.36 76.02C66.16 74.74 66.03 73.46 66.11 72.16C66.14 71.82 66.25 71.5 66.29 71.16C66.36 70.5 66.65 70.09 67.33 69.79C69.44 68.87 71.47 67.77 73.47 66.63C73.56 66.58 73.65 66.54 73.78 66.48C74.03 67.02 73.97 67.55 73.89 68.09ZM87.02 52.84C86.78 53.88 86.25 54.83 85.51 55.61C83.62 57.62 81.6 59.49 79.46 61.23C76.71 63.46 73.78 65.4 70.66 67.07C69.44 67.72 68.2 68.31 66.97 68.92C66.19 69.31 65.35 69.6 64.5 69.95C64.36 69.41 64.23 68.91 64.1 68.42C64.02 68.13 63.89 67.83 63.52 67.94C63.19 68.04 63.14 68.34 63.21 68.65C63.52 70.04 63.82 71.44 64.15 72.83C64.52 74.44 64.88 76.06 65.25 77.68C65.73 79.72 66.09 81.79 66.52 83.85C66.82 85.27 66.97 86.72 67.23 88.14C67.55 89.91 67.72 91.69 67.92 93.47C68.09 94.96 68.23 96.46 68.35 97.96C68.44 99.16 68.48 100.35 68.48 101.54C68.46 103.64 67.44 105.16 65.72 106.22C64.23 107.14 62.53 107.59 60.85 108.03C60.48 108.13 60.38 107.96 60.37 107.64C60.35 106.73 60.37 105.82 60.32 104.91C60.21 102.74 60.07 100.57 59.95 98.39C59.86 96.84 59.71 95.29 59.56 93.74C59.35 91.54 59.16 89.35 58.86 87.16C58.63 85.49 58.46 83.81 58.2 82.14C57.71 78.97 57.15 75.8 56.57 72.64C56.02 69.73 55.49 66.82 55.19 63.88C54.96 61.55 54.71 59.23 54.54 56.91C54.35 54.42 54.19 51.93 54.04 49.44C53.9 47.06 53.85 44.67 53.74 42.28C53.62 39.94 53.72 37.6 53.67 35.26C53.67 35.01 53.6 34.74 53.9 34.57C54.34 34.31 54.52 34.36 54.85 34.79C55.07 35.08 55.19 35.43 55.51 35.65C55.75 35.81 55.97 35.93 56.2 35.7C56.39 35.51 56.37 35.26 56.2 35.07C55.38 34.11 54.9 33.01 54.65 31.79C54.64 31.71 54.61 31.64 54.58 31.57C54.49 31.35 54.32 31.23 54.09 31.27C53.81 31.32 53.69 31.54 53.72 31.79C53.76 32.1 53.86 32.39 53.94 32.69C54.15 33.43 54.14 33.46 53.49 33.76C52.22 34.36 50.95 34.94 49.65 35.46C46.89 36.58 44.03 37.34 41.08 37.64C38.86 37.87 36.61 37.95 34.43 37.33C33.09 36.95 31.75 36.55 30.5 35.87C27.94 34.48 25.5 32.91 23.29 30.99C22.11 29.97 21.09 28.79 20.16 27.53C19.15 26.16 19.54 25.08 20.79 24.13C22.1 23.14 23.62 23.05 25.18 23.22C27.24 23.44 29.14 24.26 31.09 24.86C33.45 25.59 35.81 26.31 38.25 26.74C38.35 26.76 38.46 26.77 38.56 26.76C39.31 26.68 39.97 26.96 40.64 27.26C41.79 27.78 42.95 27.6 43.99 26.96C45.19 26.21 46.03 25.13 46.55 23.81C47.48 21.42 47.59 19.01 46.83 16.57C46.8 16.49 46.79 16.41 46.77 16.34C46.73 16.17 46.69 15.99 46.61 15.64C47.52 16.64 48.1 17.59 48.32 18.76C48.46 19.51 48.49 19.49 49.27 19.55C50.68 19.66 50.41 19.53 50.56 20.72C50.79 22.63 51.31 24.44 52.7 25.87C53.84 27.05 55.18 27.65 56.85 27.26C56.92 27.24 57 27.25 57.19 27.25C57 27.43 56.86 27.55 56.74 27.68C56.01 28.43 56.08 29.41 56.92 30.04C57.63 30.57 58.46 30.78 59.32 30.84C60.6 30.92 61.88 30.89 63.05 30.26C63.32 30.11 63.47 30.2 63.61 30.45C64.19 31.41 64.58 32.45 64.9 33.52C65.72 36.28 65.73 39.1 65.65 41.95C65.56 44.96 65.3 47.96 65.16 50.97C65.13 51.62 65.01 52.26 65.02 52.91C65.02 53.26 64.87 53.49 64.54 53.64C64.16 53.8 63.79 54 63.44 54.21C63.19 54.36 62.92 54.54 63.1 54.89C63.25 55.18 63.51 55.15 63.78 55.05C64.18 54.91 64.55 54.73 64.9 54.51C66.62 53.44 68.34 52.36 69.94 51.11C70.88 50.38 71.77 49.58 72.58 48.7C72.83 48.43 72.85 48.2 72.61 47.96C72.19 47.52 72.01 46.98 71.89 46.42C71.7 45.57 72.19 45.05 73.05 45.16C73.79 45.26 74.22 45.79 74.7 46.26C74.83 46.38 74.91 46.56 75.03 46.69C75.33 47.01 75.57 47.03 75.88 46.7C76.65 45.88 77.61 45.48 78.68 45.27C79.74 45.05 80.15 45.5 79.94 46.54C79.85 46.99 79.65 47.37 79.41 47.75C79.32 47.87 79.2 47.99 79.14 48.12C79.03 48.35 79.03 48.58 79.22 48.78C79.42 48.99 79.65 48.94 79.85 48.79C80.38 48.4 80.99 48.19 81.63 48.06C82 47.98 82.36 47.96 82.72 47.99C83.37 48.04 83.65 48.34 83.64 49C83.63 49.69 83.36 50.31 83.09 50.93C82.98 51.17 82.86 51.4 82.76 51.64C82.66 51.89 82.73 52.1 82.95 52.25C83.17 52.4 83.37 52.31 83.51 52.16C83.87 51.76 84.32 51.51 84.8 51.31C85.04 51.21 85.29 51.16 85.55 51.13C86.55 50.98 87.35 51.41 87.02 52.84Z" fill="#000000" fill-opacity="1.000000" fill-rule="nonzero"/>
		</g>
	</g>
</svg>
