<svg width="192.919922" height="192.919922" viewBox="0 0 192.92 192.92" fill="none" xmlns="http://www.w3.org/2000/svg" xmlns:xlink="http://www.w3.org/1999/xlink">
	<desc>
			Created with Pixso.
	</desc>
	<defs/>
	<circle id="Oval 1" cx="96.459961" cy="96.459961" r="96.459999" fill="#FCD100" fill-opacity="1.000000"/>
	<path id="path" d="M104.21 34.28C103.46 38.24 99.81 40.56 96.01 39.84C92.22 39.11 89.68 35.61 90.43 31.65C91.19 27.67 94.84 25.37 98.63 26.1C102.43 26.82 104.97 30.3 104.21 34.28ZM101.2 33.71C101.67 31.24 100.2 29.2 98.12 28.81C96.04 28.41 93.92 29.76 93.45 32.23C92.98 34.67 94.45 36.73 96.53 37.13C98.61 37.53 100.73 36.15 101.2 33.71Z" fill="#E63125" fill-opacity="1.000000" fill-rule="nonzero"/>
	<path id="path" d="M119.08 37.12C118.32 41.08 114.67 43.4 110.88 42.67C107.08 41.95 104.54 38.44 105.3 34.49C106.06 30.51 109.7 28.21 113.5 28.94C117.3 29.66 119.84 33.14 119.08 37.12ZM116.06 36.54C116.53 34.07 115.06 32.04 112.98 31.64C110.9 31.25 108.79 32.59 108.31 35.07C107.85 37.51 109.31 39.57 111.39 39.97C113.47 40.36 115.6 38.99 116.06 36.54Z" fill="#F6AD01" fill-opacity="1.000000" fill-rule="nonzero"/>
	<path id="path" d="M134.56 33.38L132.2 45.72C131.23 50.79 127.85 52.29 124.31 51.62C120.98 50.98 119.4 48.37 118.99 46.41L121.83 45.81C122.08 47.02 122.98 48.56 124.82 48.91C127.09 49.34 128.75 48.22 129.26 45.59L129.45 44.6L129.34 44.58C128.51 45.28 127.07 45.76 125.43 45.45C121.99 44.79 119.42 41.2 120.15 37.35C120.89 33.47 124.61 31.06 128.05 31.71C129.69 32.03 130.85 33 131.37 33.94L131.48 33.96L131.69 32.84L134.56 33.38ZM130.67 39.36C131.13 36.94 129.85 34.86 127.8 34.47C125.72 34.07 123.64 35.51 123.18 37.93C122.72 40.32 124.13 42.4 126.21 42.8C128.26 43.19 130.21 41.75 130.67 39.36Z" fill="#3174F1" fill-opacity="1.000000" fill-rule="nonzero"/>
	<path id="path" d="M140.66 27.06L136.81 47.19L133.87 46.63L137.72 26.5L140.66 27.06Z" fill="#249A41" fill-opacity="1.000000" fill-rule="nonzero"/>
	<path id="path" d="M149.08 45.19L151.12 47.2C150.15 48.17 147.96 49.75 144.82 49.15C140.92 48.4 138.58 44.83 139.31 40.98C140.09 36.89 143.56 34.67 147.1 35.35C150.67 36.03 151.87 39.2 152.14 40.84L152.31 41.68L142.4 43.73C142.84 45.24 143.8 46.15 145.33 46.45C146.87 46.74 148.08 46.19 149.08 45.19ZM142.34 41.34L148.97 39.97C148.79 39.04 147.89 38.25 146.7 38.02C145.16 37.73 142.77 38.68 142.34 41.34Z" fill="#E63125" fill-opacity="1.000000" fill-rule="nonzero"/>
	<path id="path" d="M79.64 27.74L80.19 24.83L90.01 26.7C90.01 27.23 89.95 27.84 89.82 28.49C89.41 30.67 88.29 33.26 86 34.82C83.75 36.42 81.16 37 77.99 36.39C72.11 35.27 68.08 29.54 69.21 23.66C70.33 17.78 76.18 13.94 82.06 15.06C85.31 15.68 87.39 17.4 88.81 19.39L86.36 21.06C85.34 19.65 83.82 18.42 81.5 17.97C77.21 17.16 73.19 19.97 72.37 24.27C71.55 28.56 74.25 32.66 78.54 33.48C81.33 34.01 83.13 33.19 84.34 32.37C85.32 31.71 86.08 30.63 86.6 29.07L79.64 27.74Z" fill="#3174F1" fill-opacity="1.000000" fill-rule="nonzero"/>
	<g style="mix-blend-mode:normal">
		<mask id="mask_9_366" fill="white">
			<path id="Union" d="M116.292 134.949L112.803 126L106.686 133.506L99.4646 132.422L101.981 139.279L97 145.391L104.677 146.625L108.119 156L114.361 148.181L121.925 149.396L119.125 142.214L124 136.106L116.292 134.949Z" clip-rule="evenodd" fill="" fill-opacity="1.000000" fill-rule="evenodd"/>
		</mask>
		<path id="Union" d="M116.292 134.949L112.803 126L106.686 133.506L99.4646 132.422L101.981 139.279L97 145.391L104.677 146.625L108.119 156L114.361 148.181L121.925 149.396L119.125 142.214L124 136.106L116.292 134.949Z" clip-rule="evenodd" fill="#FFFFFF" fill-opacity="1.000000" fill-rule="evenodd" mask="url(#mask_9_366)"/>
		<path id="Union" d="" clip-rule="evenodd" fill="#169FDB" fill-opacity="0.000000" fill-rule="evenodd"/>
	</g>
	<g style="mix-blend-mode:normal">
		<mask id="mask_9_367" fill="white">
			<path id="Union" d="M153.292 140.949L149.803 132L143.686 139.506L136.465 138.422L138.981 145.279L134 151.391L141.677 152.625L145.119 162L151.361 154.181L158.925 155.396L156.125 148.214L161 142.106L153.292 140.949Z" clip-rule="evenodd" fill="" fill-opacity="1.000000" fill-rule="evenodd"/>
		</mask>
		<path id="Union" d="M153.292 140.949L149.803 132L143.686 139.506L136.465 138.422L138.981 145.279L134 151.391L141.677 152.625L145.119 162L151.361 154.181L158.925 155.396L156.125 148.214L161 142.106L153.292 140.949Z" clip-rule="evenodd" fill="#FFFFFF" fill-opacity="1.000000" fill-rule="evenodd" mask="url(#mask_9_367)"/>
		<path id="Union" d="" clip-rule="evenodd" fill="#169FDB" fill-opacity="0.000000" fill-rule="evenodd"/>
	</g>
	<g style="mix-blend-mode:normal">
		<mask id="mask_9_368" fill="white">
			<path id="Union" d="M79.2922 128.949L75.803 120L69.6855 127.506L62.4646 126.422L64.9814 133.279L60 139.391L67.6775 140.625L71.1187 150L77.3611 142.181L84.925 143.396L82.1248 136.214L87 130.106L79.2922 128.949Z" clip-rule="evenodd" fill="" fill-opacity="1.000000" fill-rule="evenodd"/>
		</mask>
		<path id="Union" d="M79.2922 128.949L75.803 120L69.6855 127.506L62.4646 126.422L64.9814 133.279L60 139.391L67.6775 140.625L71.1187 150L77.3611 142.181L84.925 143.396L82.1248 136.214L87 130.106L79.2922 128.949Z" clip-rule="evenodd" fill="#FFFFFF" fill-opacity="1.000000" fill-rule="evenodd" mask="url(#mask_9_368)"/>
		<path id="Union" d="" clip-rule="evenodd" fill="#169FDB" fill-opacity="0.000000" fill-rule="evenodd"/>
	</g>
	<g style="mix-blend-mode:normal">
		<mask id="mask_9_369" fill="white">
			<path id="Union" d="M42.2922 123.949L38.803 115L32.6855 122.506L25.4646 121.422L27.9814 128.279L23 134.391L30.6775 135.625L34.1187 145L40.3611 137.181L47.925 138.396L45.1248 131.214L50 125.106L42.2922 123.949Z" clip-rule="evenodd" fill="" fill-opacity="1.000000" fill-rule="evenodd"/>
		</mask>
		<path id="Union" d="M42.2922 123.949L38.803 115L32.6855 122.506L25.4646 121.422L27.9814 128.279L23 134.391L30.6775 135.625L34.1187 145L40.3611 137.181L47.925 138.396L45.1248 131.214L50 125.106L42.2922 123.949Z" clip-rule="evenodd" fill="#FFFFFF" fill-opacity="1.000000" fill-rule="evenodd" mask="url(#mask_9_369)"/>
		<path id="Union" d="" clip-rule="evenodd" fill="#169FDB" fill-opacity="0.000000" fill-rule="evenodd"/>
	</g>
	<g style="mix-blend-mode:normal">
		<path id="4.9" d="M114.97 114.38Q114.62 114.68 114.49 115.49Q114.84 115.97 115.15 116.55Q115.49 117.11 115.78 117.86Q115.8 117.88 115.83 117.89Q116.75 118.44 117.94 118.56Q119.15 118.7 120.26 118.87Q121.46 119.06 123.13 119.38Q124.79 119.72 125.15 119.35Q125.38 119.18 125.99 119.43Q126.63 119.68 126.75 119.6Q126.87 119.62 127.1 119.45L127.44 119.2Q127.48 119.18 127.52 119.17Q127.6 119.16 127.69 119.24Q127.77 119.32 127.85 119.32Q127.89 119.31 127.93 119.28Q127.95 119.29 127.97 119.28Q128.07 119.27 128.14 119.06Q128.23 118.82 128.32 118.82Q128.33 118.82 128.34 118.82Q128.43 118.75 128.53 118.72Q128.68 118.69 128.85 118.75Q128.95 118.78 129.06 118.79Q129.27 118.8 129.49 118.7L129.77 118.21Q129.78 118.2 129.8 118.19Q129.91 118.14 130.07 118.21Q130.26 118.29 130.38 118.31Q130.4 118.21 130.36 118Q130.34 117.86 130.41 117.78Q130.44 117.74 130.48 117.72Q130.48 117.7 130.49 117.68Q130.53 117.63 130.69 117.65Q130.88 117.68 131 117.6Q131.13 117.42 131.27 117.14Q131.42 116.83 131.44 116.74Q131.46 116.58 131.49 116.58Q131.5 116.58 131.51 116.6Q131.52 116.6 131.52 116.61Q131.57 116.64 131.69 116.57Q132.18 116.02 132.38 115.7Q132.59 115.36 133.05 115.13Q133.07 115.11 133.09 115.1Q133.17 115.01 133.15 114.84Q133.13 114.63 133.15 114.54L133.44 114.58Q133.47 114.59 133.48 114.58Q133.52 114.55 133.47 114.39Q133.42 114.18 133.5 114.09Q133.51 114.08 133.53 114.07L133.72 114.1Q133.77 114.06 133.79 114.02Q133.83 113.95 133.81 113.86Q133.78 113.7 133.8 113.61L134.09 113.65Q134.12 113.63 134.14 113.61Q134.21 113.5 134.19 113.34Q134.18 113.14 134.19 113.04L134.51 113.09Q134.54 113.09 134.55 113.08Q134.59 113.05 134.54 112.89Q134.49 112.72 134.55 112.63Q134.57 112.61 134.59 112.6Q134.87 112.11 135.25 111.62Q135.63 111.1 136.05 110.53Q136.46 109.89 136.97 109.19Q137.51 108.5 138.06 108.18Q138.08 108.08 138.06 107.88Q138.05 107.66 138.14 107.58Q138.15 107.57 138.16 107.56L138.36 107.6Q138.39 107.6 138.42 107.59Q138.47 107.55 138.44 107.41Q138.42 107.2 138.43 107.1L138.75 107.15Q138.79 107.13 138.81 107.09Q138.84 107.01 138.79 106.91Q138.74 106.77 138.79 106.69Q138.81 106.66 138.84 106.64L139.13 106.68Q139.15 106.59 139.13 106.38Q139.11 106.21 139.19 106.12Q139.21 106.11 139.23 106.09L139.42 106.13Q139.45 106.13 139.46 106.12Q139.52 106.09 139.5 105.94Q139.49 105.71 139.5 105.61L139.8 105.66L139.88 105.16L140.2 105.21Q140.21 105.12 140.19 104.91Q140.18 104.7 140.28 104.61Q140.29 104.6 140.29 104.6L140.49 104.63Q140.51 104.63 140.53 104.63Q140.58 104.6 140.57 104.44Q140.55 104.24 140.57 104.14L140.86 104.19Q140.88 104.17 140.89 104.16Q140.97 104.07 140.96 103.9Q140.95 103.67 140.96 103.57L141.28 103.62L141.36 103.13L141.56 103.16Q141.6 103.13 141.62 103.08Q141.66 103.02 141.64 102.92Q141.62 102.74 141.64 102.64Q141.7 102.55 141.79 102.49Q141.87 102.43 141.98 102.4Q142.09 102.36 142.17 102.3Q142.26 102.24 142.32 102.15Q142.93 101.61 143.37 101.08Q143.81 100.52 144.33 99.97Q144.57 99.71 144.91 99.51Q145.27 99.31 145.3 99.09Q145.34 98.86 145.4 98.85Q145.42 98.85 145.44 98.86Q145.47 98.88 145.5 98.89Q145.57 98.9 145.64 98.84Q145.89 98.58 145.88 98.32Q145.88 98.32 145.88 98.31Q145.87 98.04 146.02 97.77Q146.13 97.68 146.18 97.69Q146.23 97.7 146.36 97.52Q146.63 97.23 146.66 97.04Q146.69 96.84 146.84 96.56Q147.02 96.06 147.41 95.51Q147.8 94.95 147.93 94.77Q147.95 94.63 148 94.62Q148.02 94.61 148.05 94.63Q148.09 94.66 148.12 94.65Q148.17 94.63 148.2 94.5Q148.44 94.22 148.43 93.96Q148.43 93.86 148.46 93.78Q148.51 93.65 148.65 93.54Q148.72 93.45 148.8 93.39Q148.89 93.33 148.99 93.29Q149.14 93.23 149.2 93.12Q149.23 93.07 149.24 93.01Q149.5 92.75 149.5 92.5Q149.5 92.5 149.5 92.49Q149.5 92.47 149.5 92.44Q149.51 92.19 149.74 91.95Q149.74 91.9 149.77 91.88Q149.8 91.86 149.85 91.87Q149.95 91.88 150.06 91.8Q150.67 91.16 150.73 90.77Q150.75 90.65 150.82 90.61Q150.85 90.59 150.91 90.6Q151.04 90.62 151.08 90.57Q151.09 90.55 151.1 90.53Q151.32 90.13 151.35 89.73Q151.36 89.63 151.35 89.53Q151.34 89 151.38 88.71Q151.4 88.61 151.51 88.53L151.63 88.44Q152.1 86.75 152.36 84.42Q152.63 82.1 152.55 81.35Q152.5 81.21 152.52 81.08Q152.53 81.01 152.56 80.95Q152.64 80.74 152.68 80.54Q152.61 80.33 152.49 80.26Q152.49 80.25 152.48 80.25Q152.41 80.18 152.43 80Q152.49 79.64 152.35 79.42Q152.32 79.38 152.29 79.34Q152.16 79.21 152.12 79.05Q152.1 78.94 152.12 78.81Q152.14 78.65 152.1 78.63Q152.08 78.62 152.05 78.63Q152.03 78.63 152.01 78.63Q151.93 78.62 151.87 78.45Q151.75 77.92 151.62 77.35Q151.51 76.75 151.4 76.2Q151.13 75.33 150.75 74.36Q150.41 73.37 149.94 72.97Q149.92 72.95 149.92 72.92Q149.89 72.82 149.99 72.68Q150.09 72.53 150.06 72.43Q150.05 72.4 150.03 72.38L149.84 72.35Q149.81 72.31 149.8 72.26Q149.78 72.18 149.83 72.1Q149.91 71.93 149.92 71.83Q149.69 71.39 149.18 70.96Q148.69 70.51 148.25 69.93Q147.85 69.34 147.46 68.77Q147.1 68.18 146.64 67.71Q146.36 67.56 146.2 67.34Q146.01 67.21 145.91 67.04Q145.9 67 145.88 66.97Q145.81 66.83 145.66 66.72Q145.5 66.49 145.22 66.35Q145.04 66.22 144.85 65.99Q144.68 65.74 144.49 65.7Q144.04 65.63 143.87 65.38Q143.84 65.34 143.82 65.3Q143.67 64.97 143.5 64.74Q143.42 64.63 143.11 64.53Q142.82 64.43 142.74 64.29Q142.38 64.03 141.64 63.82Q140.89 63.6 140.12 63.37Q139.43 63.06 139.02 63Q138.62 62.93 138.05 62.74Q137.86 62.71 137.84 62.64Q137.84 62.63 137.84 62.61Q137.85 62.57 137.85 62.54Q137.84 62.45 137.78 62.37Q137.11 62.17 136.39 62.05Q135.68 61.94 135.1 61.75Q135.06 61.74 135.03 61.71Q135.01 61.68 135.02 61.63Q135.03 61.57 135 61.54Q134.99 61.53 134.96 61.52Q134.95 61.52 134.95 61.52Q134.92 61.5 134.93 61.42Q134.27 61.11 133.71 61.02Q133.17 60.94 132.76 60.77Q132.49 60.73 132.28 60.82Q132.27 60.83 132.25 60.84Q132.03 60.96 131.71 60.91Q130.89 60.98 130.42 60.91Q129.98 60.83 129.45 60.85Q128.74 60.84 128.42 60.79Q128.13 60.74 127.82 60.8Q127.36 60.95 127.16 60.97Q126.96 60.99 126.44 60.9Q126.31 60.88 126.26 60.94Q126.23 60.97 126.22 61.02Q126.2 61.12 126.15 61.15Q126.13 61.16 126.1 61.15Q125.48 61.26 124.8 61.2Q124.13 61.14 123.61 61.26Q122.91 61.68 122.4 61.7Q121.99 61.64 121.25 62Q120.54 62.34 120.33 62.41Q120.32 62.43 120.31 62.44Q120.27 62.49 120.12 62.43Q119.93 62.34 119.83 62.33L119.79 62.62Q119.73 62.66 119.67 62.66Q119.59 62.65 119.52 62.58Q119.43 62.5 119.35 62.51Q119.31 62.51 119.27 62.54Q119.16 62.63 119.08 62.79Q119.01 62.93 118.89 63.01Q118.86 63.03 118.83 63.05Q118.74 63.07 118.62 63.02Q118.48 62.95 118.38 62.93Q118.15 63.1 118.02 63.28Q117.89 63.46 117.66 63.65Q116.72 64.31 115.73 65.03Q114.73 65.76 113.96 66.14Q113.93 66.16 113.91 66.19Q113.87 66.27 113.92 66.41Q113.97 66.52 113.94 66.59Q113.92 66.63 113.88 66.66Q113.63 66.82 113.42 66.88Q113.2 66.95 112.97 67.12Q112.93 67.16 112.91 67.22Q112.89 67.29 112.93 67.39Q112.98 67.49 112.95 67.57Q112.93 67.6 112.89 67.63Q112.89 67.64 112.89 67.65Q112.86 67.73 112.6 67.74Q112.36 67.75 112.33 67.83Q112.33 67.84 112.33 67.85Q112.3 67.87 112.28 67.9Q112.22 67.98 112.24 68.11Q112.26 68.27 112.25 68.36Q112.13 68.45 111.93 68.46Q111.72 68.48 111.61 68.57Q111.6 68.66 111.62 68.82Q111.64 68.91 111.6 68.98Q111.58 69.02 111.53 69.06Q111.53 69.08 111.52 69.1Q111.48 69.18 111.28 69.19Q111.08 69.21 110.97 69.3Q110.89 69.35 110.84 69.42Q110.74 69.57 110.74 69.79Q110.74 69.97 110.66 70.1Q110.61 70.19 110.51 70.26Q110.5 70.31 110.47 70.33Q110.45 70.35 110.4 70.34Q110.38 70.34 110.36 70.34Q110.29 70.36 110.27 70.52Q109.99 70.98 109.62 71.55Q109.28 72.13 109.15 72.31L109.11 72.61Q109 72.75 108.92 72.74Q108.9 72.74 108.88 72.72Q108.84 72.69 108.81 72.7Q108.79 72.71 108.78 72.76Q108.22 73.6 108.08 74.46Q107.94 75.32 107.7 76.22Q107.05 77.75 106.98 78.87Q106.96 79.6 107.09 80.1Q107.17 80.36 107.18 80.61Q107.2 80.84 107.16 81.07Q107.14 81.2 107.19 81.25Q107.22 81.28 107.28 81.29Q107.36 81.31 107.39 81.35Q107.41 81.39 107.4 81.44Q107.48 82.26 107.43 82.88Q107.38 83.48 107.47 84.22Q107.71 85.39 108.13 86.55Q108.58 87.7 108.67 89.05Q108.83 89.19 108.97 89.35Q109.47 89.91 109.75 90.68Q110.13 91.58 110.74 92.2Q110.94 92.4 111.1 92.62Q111.43 93.1 111.53 93.74Q111.76 93.81 111.96 93.93Q112.29 94.12 112.56 94.43Q113.01 94.91 113.44 95.4Q113.82 95.67 114.02 96Q114.22 96.33 114.44 96.37Q114.64 96.4 114.93 96.78Q115.23 97.12 115.42 97.36Q115.42 97.38 115.43 97.4Q115.45 97.45 115.61 97.44Q115.81 97.42 115.91 97.43L115.87 97.73Q115.96 97.75 116.17 97.73Q116.35 97.72 116.38 97.78Q116.39 97.79 116.38 97.81L116.35 98.03Q116.36 98.05 116.38 98.06Q116.46 98.14 116.64 98.13Q116.84 98.11 116.94 98.13Q117.1 98.35 117.29 98.48Q117.49 98.62 117.66 98.85L118.15 98.92Q118.63 99.2 119.04 99.49Q119.48 99.76 119.94 100.04Q121 100.51 122.29 100.77Q123.61 101.02 124.95 101.67Q123.89 103.14 122.68 104.56Q121.5 105.96 120.41 107.55Q120.14 108.01 119.61 108.61Q119.12 109.21 118.95 109.59Q118.93 109.72 118.88 109.73Q118.85 109.74 118.81 109.72Q118.76 109.68 118.73 109.7Q118.71 109.71 118.7 109.75Q118.45 110.04 118.47 110.29Q118.48 110.55 118.23 110.81L117.66 111.25Q117.26 111.69 117.18 111.91Q117.1 112.09 116.82 112.56Q116.82 112.58 116.81 112.59Q116.77 112.65 116.61 112.62Q116.41 112.59 116.3 112.67Q116.03 112.96 116.04 113.21Q116.04 113.24 116.04 113.27Q116.04 113.5 115.8 113.73Q115.34 114.09 114.97 114.38ZM79.99 86.27L84.52 86.99Q84.93 87.69 85.51 88.18Q86.11 88.68 86.74 89.31Q86.35 91.82 85.9 94.3Q85.47 96.75 84.89 98.93Q84.24 99.25 83.69 99.67Q83.17 100.09 82.7 100.54L78.15 99.82Q77.84 99.92 77.81 100.07Q77.8 100.13 77.83 100.2Q77.95 100.42 78.02 100.64Q77.77 102.86 77.52 105.05Q77.3 107.23 76.8 109.62L74.05 111.35Q71.25 110.71 68.98 110.4Q66.71 110.09 63.77 109.72Q63.57 109.45 63.4 109.15Q63.22 108.84 63.08 108.51Q62.99 108.26 62.86 108.04L62.86 108.04Q62.64 107.65 62.31 107.33Q62.71 104.82 63.03 102.45Q63.36 100.05 63.49 97.8Q63.03 97.53 62.56 97.46Q62.12 97.39 61.62 97.21Q61.14 97.03 60.69 96.86Q60.26 96.69 59.77 96.61Q58.81 96.46 57.86 96.5Q57.71 96.5 57.57 96.51Q56.47 96.59 55.35 96.52Q54.44 96.37 53.59 96.14Q52.75 95.9 51.66 95.63Q49.56 95.19 47.29 94.84Q45.03 94.48 43.34 94.01Q43.05 93.96 42.61 93.99Q42.33 94.02 42.11 93.91Q42.02 93.86 41.94 93.79Q41.61 93.6 41.32 93.37L41.32 93.37Q41.1 93.2 40.9 92.99Q40.48 92.52 40.03 92.12Q40.01 92.04 39.98 91.96Q39.8 91.54 39.31 91.25Q39 91.05 38.84 90.76L38.84 90.76Q38.71 90.54 38.66 90.27Q38.66 89.03 39.03 87.65Q39.4 86.25 39.77 85.17Q39.9 84.36 39.95 83.76Q39.99 83.14 40.43 82.48Q40.5 82.42 40.57 82.43Q40.6 82.44 40.63 82.46Q40.66 82.48 40.68 82.48Q40.73 82.46 40.75 82.33L40.8 82.03Q40.93 81.85 41.32 80.98Q41.71 80.11 41.99 79.75Q42.13 79.55 42.29 79.47Q42.45 79.4 42.58 79.21Q42.81 79.05 43.19 78.86Q43.61 78.65 43.85 78.38Q43.98 78.2 44.01 78Q44.04 77.81 44.27 77.62Q44.65 77.27 45.15 77Q45.68 76.7 46.15 76.27Q46.28 76.09 46.44 76.02Q46.61 75.92 46.76 75.74Q46.8 75.71 46.82 75.68Q46.84 75.6 46.78 75.49Q46.74 75.4 46.76 75.33Q46.78 75.28 46.84 75.25L47.14 75.3Q47.15 75.2 47.13 74.99Q47.12 74.78 47.22 74.69Q47.23 74.69 47.23 74.68L47.53 74.73Q47.54 74.63 47.52 74.47Q47.5 74.38 47.54 74.31Q47.56 74.27 47.61 74.24L47.8 74.27Q47.83 74.25 47.84 74.23Q47.9 74.14 47.85 73.97Q47.8 73.79 47.85 73.76Q47.86 73.75 47.89 73.75L48.21 73.8Q48.22 73.7 48.18 73.5Q48.17 73.35 48.23 73.27Q48.26 73.23 48.3 73.21L48.59 73.26Q48.61 73.16 48.58 73Q48.57 72.87 48.62 72.79Q48.65 72.76 48.68 72.74L48.87 72.77Q48.97 72.7 49.02 72.61Q49.1 72.48 49.1 72.3Q49.1 72.2 49.12 72.1Q49.18 71.89 49.34 71.71Q49.6 71.55 49.91 71.45Q50.23 71.35 50.58 71.08Q50.74 70.97 50.76 70.85Q50.77 70.78 50.74 70.7Q50.72 70.63 50.73 70.57Q50.75 70.44 50.92 70.32Q51.16 70.13 51.6 69.85Q52.08 69.57 52.54 69.22Q52.91 68.77 53.15 68.51Q53.42 68.22 53.8 67.78Q53.9 67.63 53.98 67.65Q54 67.65 54.02 67.66Q54.04 67.68 54.06 67.68Q54.12 67.67 54.14 67.51Q54.17 67.31 54.88 66.82Q55.16 66.33 55.73 65.61Q56.33 64.88 56.91 64.34Q57.04 64.16 57.2 64.13Q57.24 64.13 57.27 64.12Q57.41 64.07 57.51 63.93Q57.79 63.44 57.89 63.46Q58.02 63.28 58.18 63.2Q58.34 63.13 58.5 62.95Q58.54 62.91 58.55 62.86Q58.58 62.78 58.51 62.68Q58.47 62.58 58.5 62.52Q58.52 62.47 58.58 62.43Q59.48 61.85 60.41 60.61Q61.33 59.37 62.21 58.27Q62.33 58.19 62.55 58.07Q62.8 57.93 62.91 57.85Q62.92 57.75 62.91 57.55Q62.89 57.39 62.95 57.36Q62.96 57.36 62.99 57.36L63.28 57.41Q63.53 57.12 63.63 56.83Q63.68 56.68 63.77 56.56Q63.85 56.46 63.97 56.38Q64.11 56.18 64.27 56.1Q64.43 56.03 64.56 55.84Q64.79 55.68 64.94 55.4Q65.09 55.2 65.26 55.12Q65.42 55.05 65.53 54.96Q65.91 54.52 66.63 53.8Q67.37 53.09 67.83 52.86Q68.06 52.69 68.26 52.72Q68.46 52.75 68.67 52.69Q68.91 52.6 69.14 52.43Q69.37 52.27 69.56 52.3Q69.95 52.22 70.1 51.99Q70.16 51.89 70.18 51.77Q73.53 52.1 76.85 52.62Q80.17 53.15 83.11 54.14Q83.18 54.24 83.26 54.34Q83.61 54.82 83.9 55.35Q84.26 55.96 84.7 56.56Q84.27 60.53 83.51 64.06Q82.75 67.6 82.38 71.17Q82.29 72.39 82.29 73.63Q82.3 74.87 82.11 76.07Q81.84 78.52 81.07 80.81Q81.01 81 80.95 81.18Q80.83 81.53 80.72 81.89L80.72 81.89Q80.09 84 79.99 86.27ZM136.1 77.92Q136.67 78.64 137.37 79.25Q137.42 80.39 137.75 81.18Q138.08 81.96 138.15 82.98Q137.39 84.42 136.38 85.55Q135.39 86.68 134.37 87.88Q133.53 87.95 132.87 88.14Q132.23 88.35 131.46 88.55Q130.84 88.66 130.15 88.75Q129.88 88.78 129.62 88.87Q129.23 89.01 128.88 89.28Q128.46 88.97 127.99 88.8Q127.83 88.75 127.66 88.71Q127.03 88.56 126.57 88.28Q126.52 88.27 126.5 88.24Q126.48 88.22 126.48 88.17Q126.49 88.15 126.48 88.14Q126.46 88.06 126.28 88.03Q125.98 87.99 125.85 87.86Q125.72 87.74 125.54 87.61Q124.86 87.28 124.48 86.97Q124.12 86.66 123.51 85.93Q123.36 85.6 123.06 85.25Q122.76 84.9 122.68 84.66Q122.51 84.25 122.49 83.83Q122.49 83.7 122.5 83.58Q122.53 83.09 122.45 82.62Q122.44 82.54 122.42 82.46Q122.43 82.41 122.41 82.38Q122.39 82.35 122.34 82.34Q122.32 82.34 122.3 82.33Q122.25 82.29 122.27 82.13L122.32 81.83Q122.23 81.72 122.12 81.3Q122.04 80.86 121.88 80.63Q122.22 79.75 122.57 78.82Q122.94 77.9 123.13 76.69Q123.33 76.68 123.51 76.62Q123.79 76.51 124 76.28Q124.17 76.1 124.37 75.96Q124.63 75.77 124.94 75.64Q124.98 75.6 125.03 75.6Q125.11 75.59 125.18 75.68Q125.3 75.77 125.39 75.75Q125.42 75.75 125.45 75.72Q125.57 75.62 125.65 75.43Q125.72 75.26 125.81 75.25Q125.82 75.25 125.83 75.26Q125.88 75.22 125.93 75.21Q126 75.2 126.08 75.24Q126.22 75.32 126.35 75.34Q126.59 75.07 126.65 75.03Q126.7 74.99 127.23 74.87Q127.66 74.81 128.42 74.83Q129.2 74.86 130.04 74.79Q130.25 74.72 130.42 74.6Q130.44 74.58 130.47 74.57Q130.63 74.49 130.9 74.62Q131.28 74.78 131.74 75.01Q132.24 75.24 132.71 75.41Q132.72 75.42 132.73 75.42Q133.21 75.69 133.79 75.78Q134.4 75.88 134.58 76.04Q134.66 76.15 134.63 76.35Q134.6 76.54 134.68 76.66Q134.81 76.68 135.01 76.66Q135.19 76.64 135.27 76.72Q135.29 76.74 135.3 76.75Q135.53 77.19 136.1 77.92ZM65.89 75.47Q65.63 75.86 65.39 76.12Q65.14 76.38 64.87 76.64Q64.74 76.85 64.58 76.92Q64.41 77 64.29 77.18Q63.93 77.53 63.55 77.85Q63.2 78.14 62.97 78.31Q62.96 78.32 62.94 78.33L62.94 78.33Q62.87 78.42 62.92 78.63Q62.98 78.8 62.91 78.89Q62.9 78.91 62.87 78.92Q62.76 79.01 62.6 79.08Q62.43 79.16 62.28 79.33Q62.05 79.5 61.94 79.56Q61.84 79.59 61.61 79.76Q61.48 79.94 61.45 80.13Q61.42 80.33 61.28 80.54Q61.04 80.8 60.63 80.99Q60.25 81.18 60 81.47Q59.62 81.81 59.34 81.97Q59.06 82.13 58.98 82.64Q60.67 83.11 62.65 83.22Q64.65 83.34 65.99 84.06Q66.17 81.51 66.45 79.14Q66.73 76.74 67.53 74.39Q67.46 74.18 67.49 73.98Q67.51 73.87 67.46 73.81Q67.41 73.74 67.3 73.73Q66.91 74.29 66.52 74.71Q66.15 75.11 65.89 75.47ZM98.4 101.8Q98.72 102.98 98.92 103.95Q99.14 104.91 99.46 106.1Q99.5 106.51 99.64 106.86Q99.7 106.97 99.73 107.09L99.73 107.09Q99.8 107.32 99.76 107.58Q99.7 107.93 99.57 108.26L99.57 108.26Q99.4 108.67 99.1 109.04Q98.59 109.67 98.18 110.33Q97.74 111.1 97.39 111.67Q97.05 112.22 96.65 112.87Q96.57 112.86 96.49 112.87Q95.84 112.88 95.2 113.11Q94.5 113.36 93.84 113.56Q93.19 113.68 92.5 113.77Q92.27 113.8 92.06 113.87Q91.64 114 91.26 114.28Q89.83 113.45 88.52 112.64Q87.21 111.8 85.9 110.86Q85.84 110.15 85.57 109.53Q85.52 109.42 85.46 109.3Q85.42 109.21 85.38 109.11Q85.12 108.46 85.06 107.73Q85.02 107.32 84.98 106.96Q84.94 106.57 84.82 106.05Q84.71 105.93 84.61 105.92Q84.6 105.91 84.59 105.91Q84.52 105.86 84.55 105.68Q84.56 104.98 85.09 104.18Q85.65 103.38 86.17 102.63Q86.47 101.98 86.87 101.36Q87.3 100.74 87.6 100.09Q88.12 100.17 88.59 100.09Q89.08 100.02 89.61 99.87Q89.82 99.81 89.83 99.71Q89.84 99.66 89.87 99.64Q89.9 99.62 89.95 99.63Q90.35 99.54 90.75 99.54L90.75 99.54Q90.9 99.54 91.04 99.55Q91.62 99.59 92.14 99.47Q92.35 99.39 92.48 99.24L92.48 99.24Q92.5 99.22 92.51 99.2Q92.59 99.09 92.69 99.06Q92.76 99.04 92.84 99.05Q92.84 99.03 92.85 99.02Q92.89 98.96 93.05 98.98Q93.25 99.01 93.33 99.13Q94.59 99.73 95.82 100.45Q97.04 101.15 98.4 101.8Z" fill="#E50151" fill-opacity="1.000000" fill-rule="evenodd"/>
	</g>
	<g style="mix-blend-mode:normal">
		<path id="1917 Google reviews" d="M65.49 161.3C64.85 161.2 64.31 161.33 63.87 161.67C63.42 162.01 63.15 162.52 63.04 163.19C62.94 163.85 63.04 164.41 63.36 164.88C63.68 165.34 64.15 165.62 64.78 165.72C65.39 165.82 65.93 165.7 66.37 165.36C66.82 165.01 67.1 164.51 67.2 163.85C67.31 163.19 67.2 162.63 66.88 162.16C66.57 161.69 66.1 161.4 65.49 161.3ZM70.1 162.03C69.46 161.93 68.92 162.06 68.48 162.4C68.03 162.74 67.76 163.25 67.65 163.92C67.55 164.58 67.65 165.14 67.97 165.61C68.29 166.07 68.76 166.35 69.39 166.45C70.01 166.55 70.54 166.43 70.98 166.09C71.43 165.74 71.71 165.24 71.81 164.58C71.92 163.92 71.81 163.36 71.49 162.89C71.18 162.42 70.71 162.13 70.1 162.03ZM62.51 162.92L60.74 162.64L60.63 163.33L61.57 163.48C61.52 163.76 61.38 163.98 61.17 164.12C60.95 164.27 60.7 164.32 60.42 164.27C60.05 164.21 59.78 164.04 59.62 163.76C59.46 163.47 59.41 163.1 59.48 162.64C59.56 162.19 59.71 161.85 59.95 161.63C60.2 161.41 60.49 161.32 60.84 161.38C61.09 161.41 61.28 161.51 61.42 161.66C61.57 161.81 61.64 161.99 61.65 162.22L62.54 162.36C62.56 161.91 62.42 161.53 62.13 161.2C61.84 160.88 61.46 160.68 60.97 160.6C60.37 160.5 59.84 160.63 59.38 160.99C58.93 161.34 58.65 161.84 58.55 162.49C58.45 163.14 58.55 163.7 58.85 164.16C59.15 164.62 59.6 164.9 60.19 165C60.72 165.08 61.17 164.96 61.55 164.62L61.56 165.11L62.15 165.2L62.51 162.92ZM76.23 165.09L74.46 164.81L74.35 165.5L75.29 165.65C75.24 165.93 75.1 166.15 74.89 166.3C74.67 166.44 74.42 166.49 74.14 166.45C73.77 166.39 73.5 166.22 73.34 165.93C73.18 165.64 73.13 165.27 73.2 164.81C73.28 164.36 73.43 164.03 73.67 163.8C73.91 163.58 74.21 163.49 74.56 163.55C74.81 163.59 75 163.68 75.14 163.83C75.29 163.98 75.36 164.17 75.37 164.39L76.26 164.53C76.28 164.09 76.14 163.7 75.85 163.38C75.56 163.05 75.18 162.85 74.69 162.77C74.09 162.68 73.56 162.81 73.1 163.16C72.65 163.51 72.37 164.01 72.27 164.66C72.16 165.31 72.26 165.87 72.57 166.33C72.87 166.8 73.32 167.08 73.91 167.17C74.44 167.25 74.89 167.13 75.26 166.79L75.28 167.28L75.86 167.38L76.23 165.09ZM112.24 170.1C112.3 169.65 112.2 169.29 111.94 169.02C111.67 168.75 111.31 168.57 110.83 168.5C110.34 168.42 109.93 168.48 109.6 168.65C109.26 168.84 109.07 169.12 109.01 169.51C108.99 169.63 108.98 169.73 109 169.84C109.01 169.95 109.03 170.03 109.06 170.11C109.08 170.19 109.12 170.26 109.2 170.34C109.27 170.41 109.33 170.48 109.38 170.52C109.43 170.56 109.51 170.61 109.62 170.68C109.73 170.74 109.82 170.79 109.87 170.81C109.92 170.84 110.02 170.88 110.15 170.95C110.17 170.95 110.19 170.96 110.2 170.97C110.23 170.98 110.24 170.98 110.25 170.99C110.26 170.99 110.28 171 110.3 171.01C110.7 171.2 110.95 171.33 111.07 171.42C111.19 171.51 111.23 171.62 111.2 171.77C111.18 171.94 111.09 172.07 110.93 172.15C110.77 172.22 110.58 172.25 110.33 172.21C109.72 172.11 109.44 171.79 109.51 171.26L108.59 171.12C108.52 171.59 108.62 171.99 108.9 172.3C109.18 172.62 109.61 172.82 110.18 172.91C110.4 172.95 110.62 172.95 110.83 172.94C111.04 172.92 111.24 172.87 111.42 172.79C111.6 172.71 111.76 172.59 111.88 172.43C112.01 172.27 112.09 172.06 112.13 171.83C112.18 171.49 112.12 171.22 111.95 171.01C111.78 170.8 111.49 170.61 111.09 170.42C111 170.38 110.9 170.33 110.77 170.28C110.65 170.22 110.56 170.19 110.5 170.16C110.43 170.12 110.35 170.09 110.27 170.05C110.2 170.01 110.13 169.98 110.09 169.95C110.05 169.92 110.02 169.89 109.97 169.84C109.94 169.8 109.91 169.76 109.9 169.72C109.9 169.68 109.89 169.63 109.9 169.58C109.92 169.43 110.01 169.32 110.14 169.26C110.27 169.19 110.44 169.18 110.66 169.21C111.15 169.29 111.39 169.54 111.36 169.97L112.24 170.1ZM79.72 167.17L77.66 166.85L78.21 163.42L77.28 163.27L76.61 167.49L79.6 167.97L79.72 167.17ZM83.96 164.33L80.79 163.83L80.13 168.05L83.33 168.56L83.46 167.78L81.17 167.42L81.33 166.38L83.39 166.71L83.51 165.98L81.45 165.65L81.59 164.74L83.84 165.09L83.96 164.33ZM86.32 164.71L85.65 168.92L86.57 169.07L86.83 167.42L87.65 167.55C87.95 167.59 88.14 167.69 88.24 167.82C88.34 167.95 88.38 168.17 88.37 168.47C88.37 168.49 88.36 168.57 88.35 168.73C88.34 168.88 88.33 169.01 88.33 169.11C88.33 169.2 88.34 169.29 88.36 169.36L89.32 169.51C89.29 169.48 89.27 169.43 89.26 169.37C89.25 169.31 89.24 169.23 89.24 169.14C89.24 169.05 89.24 168.97 89.25 168.91C89.25 168.85 89.25 168.77 89.26 168.67C89.27 168.56 89.28 168.5 89.28 168.48C89.32 167.89 89.16 167.53 88.81 167.4C89.03 167.35 89.22 167.24 89.37 167.08C89.51 166.91 89.61 166.71 89.65 166.47C89.71 166.06 89.62 165.74 89.39 165.5C89.16 165.26 88.83 165.11 88.41 165.04L86.32 164.71ZM93.73 165.88L90.56 165.38L89.89 169.6L93.1 170.11L93.22 169.33L90.93 168.97L91.1 167.93L93.16 168.26L93.28 167.53L91.21 167.2L91.36 166.28L93.6 166.64L93.73 165.88ZM93.94 165.91L94.66 170.35L95.71 170.52L97.78 166.52L96.82 166.37L95.39 169.18L94.91 166.07L93.94 165.91ZM99.06 166.73L98.13 166.58L97.47 170.8L98.4 170.94L99.06 166.73ZM103.05 167.36L99.88 166.85L99.21 171.07L102.42 171.58L102.54 170.8L100.26 170.44L100.42 169.41L102.48 169.73L102.6 169L100.54 168.68L100.68 167.76L102.93 168.11L103.05 167.36ZM103.33 167.4L103.78 171.8L104.73 171.95L105.89 169.18L106.16 172.17L107.08 172.32L108.89 168.28L107.98 168.14L106.82 170.93L106.55 167.91L105.68 167.77L104.48 170.52L104.26 167.55L103.33 167.4ZM46.79 161.7C46.78 162.05 46.88 162.34 47.09 162.58C47.31 162.82 47.6 162.97 47.98 163.03C48.27 163.08 48.53 163.05 48.77 162.95C49.01 162.85 49.2 162.69 49.36 162.48C49.51 162.28 49.63 162.06 49.73 161.82C49.82 161.57 49.89 161.32 49.94 161.05C49.98 160.79 49.99 160.54 49.97 160.3C49.95 160.07 49.9 159.84 49.82 159.62C49.73 159.41 49.59 159.23 49.41 159.08C49.22 158.93 48.98 158.83 48.71 158.78C48.28 158.72 47.91 158.8 47.58 159.04C47.25 159.28 47.05 159.61 46.98 160.03C46.92 160.43 46.99 160.78 47.19 161.07C47.4 161.37 47.7 161.55 48.08 161.61C48.45 161.67 48.77 161.55 49.05 161.27C49.01 161.42 48.97 161.55 48.93 161.67C48.89 161.78 48.82 161.9 48.75 162.04C48.68 162.17 48.58 162.27 48.47 162.33C48.36 162.4 48.23 162.41 48.08 162.39C47.77 162.34 47.61 162.16 47.59 161.83L46.79 161.7ZM46.16 158.42L45.47 158.31C45.27 158.85 44.86 159.06 44.24 158.96L44.13 158.95L44.03 159.57L45.04 159.73L44.61 162.42L45.51 162.57L46.16 158.42ZM52.75 159.46L52.06 159.35C51.86 159.89 51.45 160.11 50.83 160.01L50.72 159.99L50.62 160.61L51.63 160.77L51.2 163.47L52.1 163.61L52.75 159.46ZM56.75 160.13L53.91 159.68L53.79 160.44L55.77 160.75C55.35 161.07 54.95 161.54 54.56 162.18C54.16 162.83 53.93 163.39 53.85 163.89L54.72 164.03Q54.95 162.97 55.39 162.22C55.68 161.72 56.09 161.25 56.63 160.82L56.75 160.13ZM65.35 162.06C65.7 162.11 65.96 162.29 66.13 162.58C66.29 162.88 66.34 163.24 66.27 163.69C66.2 164.14 66.04 164.48 65.8 164.71C65.55 164.93 65.25 165.02 64.91 164.96C64.55 164.9 64.28 164.73 64.11 164.44C63.95 164.15 63.9 163.77 63.97 163.32C64.04 162.89 64.21 162.55 64.45 162.32C64.7 162.1 65 162 65.35 162.06ZM69.96 162.79C70.31 162.84 70.57 163.02 70.74 163.31C70.9 163.61 70.95 163.97 70.88 164.42C70.81 164.87 70.65 165.21 70.41 165.44C70.16 165.66 69.86 165.75 69.52 165.7C69.16 165.63 68.89 165.46 68.72 165.17C68.56 164.88 68.51 164.5 68.59 164.05C68.65 163.62 68.82 163.28 69.07 163.06C69.31 162.83 69.61 162.73 69.96 162.79ZM48.58 159.48C48.77 159.5 48.91 159.61 49.02 159.77C49.12 159.94 49.16 160.13 49.12 160.35C49.09 160.56 49 160.73 48.85 160.86C48.7 160.98 48.54 161.02 48.35 160.99C48.15 160.96 48 160.87 47.91 160.71C47.81 160.54 47.78 160.36 47.81 160.13C47.84 159.92 47.93 159.74 48.08 159.62C48.23 159.5 48.39 159.45 48.58 159.48ZM87.12 165.59L88.04 165.73C88.28 165.77 88.45 165.83 88.58 165.94C88.71 166.04 88.76 166.2 88.72 166.42C88.69 166.66 88.58 166.8 88.43 166.86C88.27 166.92 88.07 166.93 87.81 166.89L86.93 166.75L87.12 165.59Z" fill="#000000" fill-opacity="1.000000" fill-rule="evenodd"/>
	</g>
</svg>
