<svg width="148.630859" height="113.579834" viewBox="0 0 148.631 113.58" fill="none" xmlns="http://www.w3.org/2000/svg" xmlns:xlink="http://www.w3.org/1999/xlink">
	<desc>
			Created with Pixso.
	</desc>
	<defs/>
	<mask id="mask1_45286" mask-type="alpha" maskUnits="userSpaceOnUse" x="0.000000" y="0.000000" width="148.630859" height="113.579834">
		<g style="mix-blend-mode:normal">
			<rect id="Rectangle 3489" width="148.631348" height="113.579819" fill="#C4C4C4" fill-opacity="1.000000"/>
		</g>
	</mask>
	<g mask="url(#mask1_45286)">
		<g style="mix-blend-mode:normal">
			<path id="Path 24771" d="M119.7 62.99C105.62 65.94 73.08 77.13 26.91 113.58C26.91 113.58 20.3 89.03 16.58 81.59C14.73 77.87 12.92 73.72 10.77 70.11C8.61 66.51 3.95 58.43 3.95 58.43C9.76 53.03 16.25 48.12 22.92 43.51C29.58 38.91 36.53 34.6 43.74 30.65C50.97 26.7 58.44 23.08 66.11 19.8C73.8 16.52 81.7 13.59 89.75 11.02C97.8 8.46 106.01 6.28 114.33 4.48C114.98 4.34 115.86 4.76 115.77 5.41C115.59 6.69 115.47 7.98 115.28 9.25C112.76 25.79 119.7 62.99 119.7 62.99Z" fill="#FCD100" fill-opacity="1.000000" fill-rule="nonzero"/>
		</g>
	</g>
	<g mask="url(#mask1_45286)">
		<g style="mix-blend-mode:normal">
			<path id="Path 24772" d="M148.12 55.35C147.9 54.85 147.61 54.37 147.26 53.94C146.92 52.94 146.51 51.95 146.14 50.96L145.16 48.4L143.91 45.11L143.65 44.44C141.97 40.02 140.21 35.62 138.37 31.27C136.55 26.96 134.82 22.6 133.06 18.26C132.38 16.59 131.74 14.91 131.09 13.23C130.92 12.77 130.74 12.32 130.57 11.86C130.54 11.8 130.52 11.74 130.5 11.67C129.78 9.82 129.13 7.94 128.18 6.19C127.65 5.21 127.05 4.26 126.46 3.31C125.89 2.39 125.13 1.66 124.21 1.11C122.99 0.38 121.57 -0.02 120.17 0C120.11 0 120.06 -0.01 120 0C111.15 0.31 102.29 1.79 93.7 3.89C85.05 6.01 76.62 8.94 68.43 12.43C60.24 15.92 52.31 20.02 44.65 24.57C37.08 29.07 29.79 34.03 22.72 39.3C15.59 44.62 8.74 50.3 2.16 56.28C1.66 56.73 1.18 57.19 0.7 57.65C0.59 57.74 0.24 58.12 0 58.33C0 58.33 0.39 58.79 0.54 58.99C4.8 64.19 7.96 70.28 10.51 76.47C13.36 83.37 15.64 90.51 17.95 97.61C18.64 99.74 19.33 101.86 20 103.99C20.34 105.09 20.65 106.19 20.89 107.31C21.13 108.42 21.49 109.54 21.8 110.63C22.05 111.53 22.7 112.63 23.35 112.1C30.6 106.21 37.87 100.42 45.47 94.96C53.02 89.55 60.78 84.43 68.76 79.67C76.74 74.91 84.92 70.5 93.29 66.46C97.48 64.43 101.72 62.49 106.01 60.65C110.45 58.74 114.92 56.88 119.51 55.38C121.88 54.61 124.27 53.92 126.71 53.41C127.89 53.17 129.06 53.16 130.25 53.03C131.47 52.9 132.7 52.81 133.93 52.78C136.1 52.73 138.3 52.76 140.46 53.09C142.93 54.74 145.16 56.89 147.15 59.08C147.67 59.65 148.61 59.19 148.63 58.47C148.63 57.34 148.58 56.4 148.12 55.35ZM132.08 18.17C133.6 22.47 135.17 26.75 136.63 31.06C138.09 35.36 139.6 39.66 141.21 43.9C141.12 43.87 141.04 43.84 140.95 43.81C140.74 43.49 140.52 43.18 140.34 42.87C140.06 42.4 139.89 41.83 139.69 41.32C139.48 40.78 139.27 40.24 139.06 39.7C138.17 37.4 137.35 35.07 136.53 32.76C134.89 28.18 133.24 23.6 131.66 19C131.21 17.69 130.76 16.37 130.31 15.06C130.08 14.39 129.65 13.51 129.59 12.7C129.81 12.86 130.03 13.02 130.24 13.18C130.87 14.84 131.49 16.5 132.08 18.17ZM139.79 50.36C137.3 50.11 134.78 50.23 132.3 50.54C129.83 50.86 127.43 51.52 125.01 52.09C120.04 53.27 115.23 55.05 110.51 56.98C106.07 58.8 101.68 60.72 97.33 62.74C88.67 66.75 80.19 71.16 71.93 75.94C63.63 80.74 55.54 85.9 47.73 91.44C39.95 96.96 32.39 102.79 25.22 109.08C24.69 109.54 24.01 110.13 23.49 110.62C23.51 110.5 20.31 100.46 19.68 98.55C18.43 94.71 17.14 90.87 15.82 87.05C13.51 80.34 11.04 73.62 7.6 67.39C5.83 64.17 3.74 61.14 1.33 58.36C7.92 53.16 14.43 47.86 21.14 42.81C28.16 37.54 35.4 32.57 42.88 27.98C50.34 23.41 58.07 19.25 66.05 15.65C74.08 12.04 82.37 9.03 90.86 6.68C99.32 4.33 107.99 2.7 116.74 1.95C117.82 1.86 118.91 1.78 119.99 1.69C120.22 1.68 120.41 1.59 120.54 1.46C121.48 1.7 122.39 2.14 123.22 2.66C123.97 3.13 124.69 3.66 125.4 4.19C126.2 4.77 126.77 5.54 127.27 6.39C128.11 7.81 128.76 9.34 129.36 10.88C129.37 10.92 129.39 10.96 129.41 11C128.96 11.07 128.78 11.63 128.72 12.03C128.58 13.14 129.15 14.36 129.52 15.37C130.47 17.95 131.43 20.53 132.35 23.12C134.19 28.25 136.03 33.37 137.8 38.52C138.27 39.88 138.68 41.25 139.17 42.6C139.26 42.86 139.33 43.12 139.4 43.37C139.52 43.77 139.62 44.16 139.79 44.55C139.98 45 140.18 45.48 140.5 45.86L141.58 46.29C141.8 46.39 142.01 46.49 142.22 46.59C142.8 48.1 143.37 49.61 143.94 51.12C143.99 51.24 144.03 51.35 144.07 51.47C142.74 50.85 141.27 50.5 139.79 50.36Z" fill="#000000" fill-opacity="1.000000" fill-rule="nonzero"/>
		</g>
	</g>
	<g mask="url(#mask1_45286)">
		<g style="mix-blend-mode:normal">
			<path id="Path 24773" d="M48.07 79.08C48.04 78.7 47.92 78.36 47.79 78.01C47.67 77.66 47.6 77.29 47.47 76.94C46.96 75.51 46.24 74.16 45.64 72.77C45.02 71.34 44.39 69.9 43.77 68.46C41.28 62.72 38.82 56.95 36.39 51.18C35.9 50.03 35.49 48.84 35 47.69C34.99 47.62 34.96 47.54 34.91 47.49C34.76 47.15 34.61 46.81 34.44 46.48C34.13 45.87 33.58 45.22 32.94 44.92C32.63 44.77 32.3 44.71 31.97 44.76C31.68 44.96 31.39 45.17 31.11 45.38C25.43 49.43 19.94 53.76 14.77 58.42C14.3 58.85 12.35 60.43 12.17 60.65C11.79 61.1 11.68 61.78 11.62 62.35C11.44 63.78 12.16 65.08 12.78 66.32C14.14 69.05 15.56 71.74 16.77 74.54C19.22 80.2 21.3 86 23.22 91.86C23.64 93.15 24.11 94.72 25.35 95.47C26.04 95.89 26.89 95.94 27.69 95.75C27.79 95.79 27.91 95.78 28.02 95.7L28.17 95.6C28.5 95.47 28.82 95.29 29.09 95.09C29.2 95.01 29.27 94.9 29.31 94.79C30.62 93.89 31.94 93 33.24 92.08C34.95 90.86 36.6 89.57 38.27 88.3C40.63 86.51 42.98 84.7 45.34 82.89C46.1 82.31 46.87 81.73 47.63 81.14C47.69 81.04 47.74 80.93 47.78 80.82C48 80.28 48.11 79.67 48.07 79.08ZM46.59 79.27C46.57 79.64 46.49 79.99 46.34 80.29C40.68 84.28 35.17 88.45 29.89 92.94C29.5 93.26 29.12 93.61 28.74 93.95C28.66 93.96 28.58 93.99 28.5 94.05C28.54 93.77 28.53 93.48 28.54 93.24C28.6 92.31 28.65 91.38 28.7 90.45C28.9 86.82 29.04 83.18 29.21 79.54C29.4 75.43 29.57 71.32 29.67 67.21C29.3 70.88 28.96 74.56 28.66 78.24C28.37 81.87 28.04 85.51 27.78 89.15C27.72 90.06 27.66 90.97 27.59 91.88C27.56 92.31 27.53 92.74 27.5 93.18C27.48 93.57 27.35 94.16 27.55 94.53C27.22 94.63 26.88 94.68 26.55 94.63C26.64 94.52 26.7 94.39 26.7 94.24C26.76 93.1 26.83 91.95 26.88 90.8C26.91 90.23 26.87 89.66 26.89 89.09C26.9 88.51 26.91 87.94 26.93 87.37C26.98 85.08 27.16 82.79 27.29 80.5C27.57 75.9 27.85 71.31 28.12 66.71C28.2 65.42 28.27 64.14 28.35 62.86C28.38 62.23 28.42 61.59 28.46 60.96C28.49 60.33 28.58 59.69 28.49 59.06C28.34 59.58 28.27 60.13 28.22 60.67L28.09 62.38C28 63.53 27.91 64.67 27.83 65.82C27.66 68.11 27.49 70.4 27.32 72.69C26.98 77.29 26.64 81.89 26.27 86.48C26.16 87.77 25.98 89.05 25.83 90.33C25.68 91.55 25.61 92.77 25.51 93.99C24.85 93.2 24.6 92.08 24.3 91.13C23.44 88.42 22.47 85.75 21.42 83.11C19.33 77.84 17.19 72.56 14.44 67.59C13.31 65.54 11.97 61.63 12.97 60.65C19.06 55.31 25.38 50.25 32 45.58C32.4 45.57 32.81 45.79 33.09 46.07C33.52 46.51 33.75 47.12 33.99 47.68C33.88 47.98 33.87 48.31 33.84 48.63C33.8 48.97 33.77 49.3 33.73 49.63C33.66 50.28 33.62 50.93 33.57 51.58C33.46 52.85 33.36 54.13 33.26 55.41C33.06 57.98 32.87 60.55 32.67 63.13C32.56 64.58 32.47 66.03 32.39 67.49C32.38 67.54 32.48 67.56 32.49 67.5C33.27 62.36 33.9 57.2 34.57 52.05C34.66 51.34 34.77 50.64 34.84 49.93C34.85 49.83 34.86 49.74 34.87 49.65C35.15 50.29 35.44 50.93 35.71 51.58C36.82 54.19 37.93 56.81 39.04 59.43C41.25 64.62 43.49 69.81 45.52 75.08C45.8 75.8 46.13 76.5 46.37 77.24C46.47 77.53 46.61 77.85 46.64 78.16C46.67 78.51 46.6 78.92 46.59 79.27Z" fill="#000000" fill-opacity="1.000000" fill-rule="nonzero"/>
		</g>
	</g>
	<g mask="url(#mask1_45286)">
		<g style="mix-blend-mode:normal">
			<path id="Path 24774" d="M74.5 57.7C73.82 56.15 73.07 54.63 72.35 53.09C69.45 46.84 66.5 40.6 63.67 34.31C63.07 32.98 62.55 31.49 61.68 30.29C61.64 30.15 61.54 30.04 61.43 29.98C61.39 29.94 61.36 29.89 61.33 29.85C60.93 29.4 60.51 29.06 59.99 28.88C59.82 28.81 59.63 28.77 59.43 28.74C59.1 28.69 58.77 28.7 58.46 28.77L57.65 29.18C51.1 32.54 44.73 36.24 38.56 40.27C38.26 40.47 37.95 40.67 37.65 40.88C37.34 41.08 37.04 41.28 36.74 41.48C36.68 41.64 36.63 41.8 36.6 41.97C36.58 42.05 36.57 42.13 36.56 42.22C36.55 42.3 36.54 42.38 36.54 42.47C36.53 42.55 36.53 42.64 36.53 42.73C36.56 44.25 37.44 45.65 38.09 46.97C39.53 49.87 40.91 52.79 42.24 55.74C43.58 58.7 44.87 61.67 46.12 64.67C46.75 66.18 47.36 67.69 47.95 69.21C48.49 70.57 48.97 71.96 49.52 73.32C50.03 74.59 50.82 75.71 52.22 76.06C52.28 76.08 52.35 76.1 52.42 76.11C53.22 76.26 54.08 76.13 54.86 75.81L56.64 74.55C60.76 71.66 64.98 68.91 69.32 66.35C69.58 66.19 69.84 66.04 70.11 65.88C71.47 65.09 72.83 64.31 74.21 63.55C74.5 63.13 74.74 62.66 74.91 62.18C74.94 62.07 74.98 61.97 75 61.86C75.4 60.45 75.08 59.01 74.5 57.7ZM53.27 74.45C53.32 74.63 53.46 74.76 53.58 74.89C53.23 74.97 52.86 74.98 52.47 74.87C52.35 74.84 52.23 74.8 52.12 74.75C52.46 73.89 52.52 72.95 52.62 72.03L52.91 69.44C53.1 67.68 53.24 65.91 53.4 64.14C53.71 60.65 54.03 57.16 54.31 53.66C54.47 51.66 54.6 49.66 54.72 47.66C53.56 54.66 52.61 61.7 51.68 68.74C51.55 69.71 51.45 70.7 51.34 71.68C51.25 72.44 51.14 73.2 51.16 73.96C50.87 73.58 50.66 73.12 50.48 72.67C49.44 70.03 48.36 67.4 47.27 64.78C47.19 64.6 47.11 64.42 47.04 64.24C47.09 64.01 47.12 63.79 47.15 63.55C47.22 63.14 47.28 62.73 47.35 62.32C47.47 61.54 47.6 60.76 47.71 59.98C47.94 58.39 48.16 56.8 48.39 55.21C48.83 52.08 49.27 48.94 49.71 45.81C49.97 44 50.15 42.18 50.42 40.38C50.16 41.97 49.79 43.55 49.51 45.14C49.23 46.69 48.96 48.24 48.68 49.8C48.12 52.94 47.56 56.09 47.01 59.23C46.85 60.13 46.7 61.02 46.56 61.92C46.52 62.21 46.47 62.5 46.42 62.79C44.37 57.98 42.2 53.23 39.94 48.51C39.59 47.77 39.24 47.04 38.88 46.31C38.52 45.57 38.12 44.84 37.84 44.08C37.55 43.28 37.45 42.43 37.69 41.69C43.47 37.89 49.42 34.38 55.53 31.16C55.84 30.99 56.15 30.83 56.46 30.67C56.14 32.85 55.81 35.03 55.5 37.22C55.17 39.56 54.88 41.9 54.6 44.25C54.6 44.31 54.7 44.32 54.71 44.26C55.23 41.96 55.72 39.65 56.17 37.34C56.63 35.02 57.07 32.7 57.51 30.39C57.52 30.3 57.52 30.21 57.5 30.13C57.57 30.16 57.74 30.13 57.84 30.09C58.21 29.94 58.6 29.89 58.97 29.91C58.71 31.22 58.59 32.56 58.42 33.88C58.23 35.38 58.04 36.87 57.86 38.36C57.48 41.33 57.11 44.29 56.75 47.26C56.01 53.21 55.29 59.16 54.49 65.11C54.27 66.75 54.05 68.4 53.82 70.04C53.71 70.87 53.6 71.69 53.49 72.51C53.43 72.94 53.37 73.37 53.31 73.8C53.29 74.01 53.21 74.25 53.27 74.45ZM72.64 63.42C72.48 63.5 72.33 63.59 72.18 63.68C66.68 66.78 61.33 70.15 56.07 73.65C56.02 73.66 55.98 73.68 55.93 73.71C55.36 74.03 54.79 74.44 54.19 74.69C54.3 74.57 54.36 74.42 54.39 74.19C54.43 73.79 54.47 73.4 54.51 73.01C54.59 72.26 54.67 71.51 54.75 70.77C54.91 69.27 55.08 67.78 55.24 66.29C55.57 63.32 55.89 60.36 56.25 57.39C56.97 51.44 57.7 45.49 58.41 39.54C58.61 37.89 58.8 36.24 59 34.59C59.09 33.77 59.2 32.94 59.28 32.11C59.35 31.41 59.45 30.7 59.49 29.99C59.92 30.1 60.32 30.31 60.66 30.62C60.5 32.27 60.35 33.93 60.23 35.59C60.1 37.3 59.88 39 59.68 40.71C59.28 44.14 58.88 47.58 58.5 51.02C58.28 52.94 58.1 54.86 57.96 56.79C58.54 53.41 59.02 50 59.45 46.6C59.89 43.15 60.25 39.68 60.79 36.25C61.02 34.75 61.27 33.26 61.5 31.76C61.64 32.01 61.77 32.27 61.89 32.53C62.22 33.21 62.53 33.9 62.85 34.58C64.19 37.43 65.49 40.29 66.79 43.16C68.08 46 69.37 48.84 70.66 51.68C71.32 53.12 71.98 54.57 72.63 56.02C73.22 57.32 73.93 58.71 73.95 60.17C73.97 61.37 73.45 62.56 72.64 63.42Z" fill="#000000" fill-opacity="1.000000" fill-rule="nonzero"/>
		</g>
	</g>
	<g mask="url(#mask1_45286)">
		<g style="mix-blend-mode:normal">
			<path id="Path 24775" d="M107.82 45.9C107.42 44.41 106.54 43.1 105.76 41.78C104.9 40.34 104.08 38.88 103.27 37.42C101.65 34.52 100.08 31.58 98.57 28.62C97.83 27.15 97.08 25.68 96.38 24.19C95.72 22.81 95.13 21.38 94.36 20.05C93.59 18.73 92.58 17.5 91.18 16.82C90.96 16.71 90.74 16.62 90.52 16.54C90.04 16.37 89.54 16.27 89.02 16.27C88.87 16.27 88.74 16.28 88.6 16.3L87.56 16.65C85.98 17.17 84.4 17.71 82.84 18.28C77.96 20.03 73.14 21.95 68.4 24.05C67.91 24.27 67.41 24.49 66.92 24.72C66.69 25.02 66.54 25.4 66.48 25.78C66.45 25.96 66.44 26.13 66.45 26.31C66.49 27.01 66.77 27.66 67.08 28.28C67.44 28.98 67.82 29.67 68.2 30.37C69.72 33.23 71.23 36.1 72.75 38.97C74.26 41.84 75.79 44.71 77.29 47.58C78.04 49.02 78.8 50.45 79.55 51.89C80.19 53.12 80.8 54.4 81.73 55.45C82.55 56.4 83.63 57.01 84.84 57.25C85 57.28 85.16 57.3 85.33 57.32C85.83 57.38 86.34 57.37 86.84 57.29C87.48 57.01 88.12 56.73 88.76 56.46C89.93 55.96 91.1 55.48 92.28 55.02C96.24 53.47 100.27 52.06 104.3 50.69C104.56 50.6 104.82 50.52 105.08 50.43C105.84 50.17 106.61 49.91 107.37 49.66C107.59 49.31 107.75 48.95 107.86 48.56C108.09 47.7 108.06 46.78 107.82 45.9ZM106.74 48.11C106.63 48.46 106.47 48.8 106.25 49.1C102.78 50.26 99.32 51.45 95.89 52.71C93.45 53.61 91.03 54.57 88.64 55.58C88.49 55.64 88.35 55.71 88.2 55.77C87.95 55.87 87.5 56 87.24 56.08C86.88 56.19 86.46 56.2 86.06 56.18C86.48 51.04 86.93 45.91 87.3 40.76C87.41 39.31 87.48 37.85 87.53 36.39C87.54 36.29 87.37 36.27 87.35 36.37C86.43 41.5 85.84 46.69 85.17 51.86C84.99 53.24 84.81 54.63 84.62 56.01C84.22 55.9 83.84 55.74 83.49 55.52C83.56 55.28 83.57 55.02 83.59 54.77C83.62 54.45 83.64 54.14 83.66 53.82C83.7 53.17 83.73 52.53 83.75 51.87C83.8 50.59 83.91 49.32 84 48.04L84.58 40.43C84.69 38.99 84.8 37.55 84.91 36.12C84.92 36.02 84.77 36.02 84.76 36.12C84.44 38.66 84.13 41.19 83.81 43.73C83.5 46.25 83.22 48.77 82.85 51.28C82.75 51.98 82.63 52.67 82.53 53.37C82.48 53.73 82.43 54.09 82.39 54.45C81.67 53.62 81.16 52.71 80.65 51.75C79.96 50.45 79.26 49.15 78.56 47.84C75.81 42.68 73.09 37.5 70.35 32.33C69.6 30.9 68.84 29.47 68.1 28.04C67.78 27.41 67.41 26.7 67.49 25.98C67.51 25.71 67.61 25.43 67.77 25.2C71.63 23.46 75.55 21.85 79.51 20.35C82.03 19.4 84.57 18.5 87.12 17.64C86.99 19.18 86.87 20.72 86.79 22.26C86.78 22.47 87.12 22.53 87.16 22.31C87.47 20.68 87.73 19.03 87.99 17.39C88.16 17.33 88.32 17.25 88.48 17.19C89.24 17.24 90.01 17.49 90.61 17.79C90.87 17.92 91.1 18.07 91.33 18.24C91.01 20.02 90.82 21.83 90.6 23.62C90.35 25.54 90.13 27.47 89.9 29.4C89.43 33.29 88.97 37.18 88.51 41.07C88.38 42.17 88.25 43.27 88.12 44.37C88.05 44.92 87.97 45.47 87.93 46.02C87.88 46.57 87.9 47.11 87.9 47.67C87.9 47.98 88.37 48.06 88.45 47.74C88.56 47.28 88.69 46.84 88.77 46.37C88.85 45.86 88.91 45.35 88.97 44.84C89.08 43.86 89.2 42.87 89.31 41.89L89.99 36.12C90.45 32.23 90.92 28.34 91.35 24.44C91.56 22.55 91.81 20.65 91.94 18.75C92.44 19.23 92.87 19.79 93.25 20.38C93.98 21.54 94.55 22.81 95.16 24.04C95.82 25.39 96.48 26.75 97.16 28.09C98.52 30.79 99.92 33.46 101.37 36.11C102.81 38.76 104.39 41.33 105.82 43.99C106.47 45.21 107.14 46.69 106.74 48.11Z" fill="#000000" fill-opacity="1.000000" fill-rule="nonzero"/>
		</g>
	</g>
	<g mask="url(#mask1_45286)">
		<g style="mix-blend-mode:normal">
			<path id="Path 24776" d="M135.88 39.17C134.57 36.44 133.29 33.69 132.08 30.91C130.87 28.11 129.75 25.27 128.71 22.4C128.19 20.97 127.72 19.53 127.27 18.08C126.85 16.71 126.49 15.32 126 13.97C125.51 12.61 124.79 11.33 123.67 10.38C123.6 10.33 123.54 10.27 123.47 10.22C123 9.85 121.97 9.09 121.41 8.87L120.71 8.87C118.71 8.92 116.67 9.27 114.71 9.61C112.58 9.97 110.47 10.42 108.37 10.89C105.24 11.58 102.12 12.35 99.02 13.19C98.96 13.18 98.88 13.19 98.83 13.24C98.48 13.51 98.29 13.89 98.22 14.28C98.09 14.94 98.27 15.7 98.51 16.31C99 17.52 99.78 18.59 100.46 19.69C101.95 22.11 103.38 24.57 104.73 27.07C105.21 27.96 105.67 28.85 106.13 29.75C106.15 29.87 106.2 29.97 106.28 30.04C107.06 31.58 107.82 33.13 108.55 34.7C109.15 35.98 109.73 37.28 110.3 38.58C110.85 39.83 111.33 41.1 111.92 42.33C112.54 43.62 113.35 44.86 114.48 45.75C114.7 45.92 114.93 46.09 115.19 46.25C115.6 46.5 116.06 46.73 116.52 46.87C116.99 46.74 117.45 46.62 117.92 46.5C118.14 46.45 118.37 46.39 118.6 46.33C120.56 45.85 122.53 45.42 124.52 45.11C125.65 44.93 126.79 44.78 127.93 44.66C128.45 44.61 128.97 44.56 129.5 44.53C130.09 44.48 130.66 44.55 131.25 44.56C132.06 44.57 132.85 44.54 133.66 44.55C133.91 44.56 134.17 44.57 134.42 44.59C134.8 44.62 135.18 44.66 135.55 44.71C136.08 44.35 136.5 43.76 136.67 43.22C136.7 43.13 136.73 43.03 136.75 42.93C137 41.66 136.4 40.28 135.88 39.17ZM102.09 20.82C101.36 19.59 100.56 18.38 99.84 17.13C99.52 16.56 99.22 15.95 99.08 15.3C98.99 14.87 99.02 14.45 99.1 14.04C100.84 13.57 102.59 13.13 104.35 12.71C106.47 12.2 108.6 11.72 110.74 11.27C110.82 11.25 110.89 11.24 110.97 11.22C110.62 12.24 110.36 13.3 110.08 14.34C109.75 15.58 109.42 16.82 109.09 18.06C108.44 20.49 107.81 22.93 107.17 25.37C106.9 26.4 106.65 27.44 106.41 28.47C105.03 25.89 103.59 23.34 102.09 20.82ZM135.21 42.83C134.11 42.79 133 42.83 131.91 42.9C130.8 42.97 129.7 43.2 128.6 43.34C126.39 43.62 124.2 44.02 122.02 44.49C120.43 44.84 118.86 45.23 117.28 45.66C117.74 43.31 118.02 40.92 118.33 38.55C118.65 36.18 118.99 33.81 119.25 31.43C119.27 31.31 119.07 31.29 119.04 31.4C118.45 33.81 117.94 36.24 117.4 38.66C117.13 39.85 116.86 41.04 116.61 42.24C116.49 42.86 116.37 43.47 116.24 44.09C116.18 44.4 116.11 44.71 116.06 45.02C116.04 45.15 116.01 45.28 115.99 45.41C115.68 45.25 115.38 45.05 115.1 44.83C114.17 44.09 113.52 43.09 112.96 42.06C112.36 40.92 111.87 39.71 111.33 38.53C111.26 38.37 111.19 38.22 111.12 38.06C111.13 38.02 111.15 37.99 111.15 37.95C111.98 34.18 112.49 30.35 113.07 26.54C112.17 29.85 111.14 33.14 110.4 36.49C110.17 35.98 109.93 35.47 109.69 34.97C108.85 33.22 107.99 31.5 107.09 29.79C108.29 24.83 109.35 19.85 110.42 14.87C110.69 13.65 110.98 12.42 111.16 11.18C113.04 10.78 114.93 10.38 116.86 10.22C117.69 10.15 118.55 10.08 119.42 10.05C119.01 13.02 118.64 16 118.27 18.98C118.26 19.08 118.43 19.1 118.45 19C119.12 16.01 119.78 13.03 120.4 10.03C120.73 10.03 121.07 10.03 121.4 10.04C121.24 12.46 121.09 14.87 120.89 17.28C120.68 19.7 120.43 22.12 120.21 24.53C120.19 24.67 120.41 24.69 120.44 24.57C121.46 20.02 122.12 15.37 122.51 10.72C122.64 10.82 122.77 10.93 122.9 11.05C123.81 11.86 124.47 12.88 125.03 13.96C125.63 15.13 126 16.38 126.41 17.62C126.83 18.93 127.26 20.25 127.7 21.56C129.46 26.81 131.3 32.02 133.55 37.09C133.87 37.83 134.2 38.56 134.54 39.28C134.86 39.96 135.2 40.63 135.38 41.36C135.51 41.88 135.45 42.38 135.21 42.83Z" fill="#000000" fill-opacity="1.000000" fill-rule="nonzero"/>
		</g>
	</g>
	<g mask="url(#mask1_45286)">
		<g style="mix-blend-mode:normal">
			<path id="Path 24777" d="M9.23 53.93C8.68 54.37 8.12 54.82 7.58 55.27C7.21 55.51 6.84 55.75 6.48 56C5.89 56.41 5.32 56.85 4.89 57.43C4.13 58.43 4 60 4.96 60.94C6.22 62.17 7.81 61.06 8.83 60.13C10.08 59 11.47 58.03 12.73 56.9C13.71 56.02 14.46 54.38 13.27 53.32C11.99 52.2 10.35 53.04 9.23 53.93Z" fill="#000000" fill-opacity="1.000000" fill-rule="nonzero"/>
		</g>
	</g>
	<g mask="url(#mask1_45286)">
		<g style="mix-blend-mode:normal">
			<path id="Path 24778" d="M24.36 44C22.85 43.16 21.41 44.21 20.28 45.17C19.55 45.78 18.84 46.42 18.13 47.06C17.56 47.49 16.92 47.98 16.51 48.58C16.44 48.69 16.37 48.8 16.32 48.92C16.29 48.96 16.26 48.99 16.23 49.03C16.19 49.09 16.19 49.15 16.2 49.2C15.84 50.26 16.19 51.51 17.35 51.95C18.8 52.49 20.06 51.41 21.13 50.57C21.76 50.07 22.39 49.57 23.02 49.07C23.59 48.62 24.21 48.19 24.67 47.62C25.54 46.55 25.75 44.77 24.36 44Z" fill="#000000" fill-opacity="1.000000" fill-rule="nonzero"/>
		</g>
	</g>
	<g mask="url(#mask1_45286)">
		<g style="mix-blend-mode:normal">
			<path id="Path 24779" d="M37.97 34.59C36.49 33.52 34.85 34.74 33.64 35.62C33.56 35.67 33.49 35.73 33.41 35.79C32.68 36.17 32 36.63 31.37 37.16C30.81 37.48 30.23 37.8 29.77 38.27C28.75 39.31 28.52 41.19 29.95 42C31.31 42.78 32.75 41.9 33.86 41.09C34.52 40.6 35.19 40.11 35.85 39.62C36.47 39.16 37.13 38.73 37.7 38.22C38.72 37.3 39.27 35.54 37.97 34.59Z" fill="#000000" fill-opacity="1.000000" fill-rule="nonzero"/>
		</g>
	</g>
	<g mask="url(#mask1_45286)">
		<g style="mix-blend-mode:normal">
			<path id="Path 24780" d="M50.89 25.82C50.11 25.71 49.44 26.01 48.83 26.43C48.53 26.58 48.25 26.76 47.97 26.93C47.27 27.35 46.57 27.77 45.87 28.18C45.2 28.59 44.48 28.94 43.84 29.41C43.26 29.82 42.76 30.37 42.61 31.08C42.46 31.78 42.64 32.5 43.21 32.95C44.51 34.02 46.13 32.97 47.35 32.32C48.11 31.92 48.88 31.51 49.64 31.1C50.29 30.76 50.99 30.45 51.58 30.01C52.43 29.37 52.98 28.19 52.55 27.26C52.33 26.5 51.69 25.92 50.89 25.82Z" fill="#000000" fill-opacity="1.000000" fill-rule="nonzero"/>
		</g>
	</g>
	<g mask="url(#mask1_45286)">
		<g style="mix-blend-mode:normal">
			<path id="Path 24781" d="M65.05 17.96C64.79 18.09 64.53 18.21 64.27 18.34C62.75 18.97 61.29 19.8 59.86 20.59C59.15 20.99 58.35 21.41 57.98 22.18C57.59 23 57.8 23.9 58.39 24.56C59.86 26.2 62.03 24.98 63.53 24.12C65.26 23.15 67.12 22.51 68.92 21.69C69.72 21.32 70.49 20.84 70.97 20.07C71.47 19.26 71.45 18.26 70.83 17.52C69.28 15.67 66.72 17.16 65.05 17.96Z" fill="#000000" fill-opacity="1.000000" fill-rule="nonzero"/>
		</g>
	</g>
	<g mask="url(#mask1_45286)">
		<g style="mix-blend-mode:normal">
			<path id="Path 24782" d="M86.09 10.07C85.85 10.1 85.6 10.14 85.36 10.18C84.77 10.25 84.17 10.41 83.63 10.54C81.68 11 79.79 11.69 77.99 12.58C77.13 13.01 76.25 13.46 75.67 14.24C75.13 14.98 74.99 15.97 75.44 16.78C76.5 18.69 78.4 17.94 80.1 17.41C82.03 16.8 84.12 16.16 86.15 15.24C86.97 14.87 87.73 14.28 88.23 13.51C88.66 12.83 88.78 11.92 88.44 11.18C88.02 10.27 87.03 9.98 86.09 10.07Z" fill="#000000" fill-opacity="1.000000" fill-rule="nonzero"/>
		</g>
	</g>
	<g mask="url(#mask1_45286)">
		<g style="mix-blend-mode:normal">
			<path id="Path 24783" d="M104.5 5.91C104.22 5.77 103.93 5.69 103.64 5.66C102.87 5.39 101.84 5.65 101.1 5.74C98.88 6.02 96.56 6.39 94.46 7.2C93.55 7.55 92.73 8.18 92.68 9.23C92.65 10.1 93.15 10.93 93.88 11.39C94.79 11.96 95.85 11.96 96.92 11.74C97.84 11.71 98.86 11.4 99.48 11.25C100.32 11.06 101.14 10.84 101.96 10.59C102.72 10.36 103.53 10.15 104.23 9.78C104.94 9.4 105.51 8.74 105.61 7.92C105.71 7.08 105.24 6.29 104.5 5.91Z" fill="#000000" fill-opacity="1.000000" fill-rule="nonzero"/>
		</g>
	</g>
	<g mask="url(#mask1_45286)">
		<g style="mix-blend-mode:normal">
			<path id="Path 24784" d="M122.28 3.97C121.08 2.08 118.45 2.85 116.64 3.12C116.08 3.2 115.52 3.29 114.97 3.39C113.52 3.55 112.09 3.8 110.65 4.09C109.83 4.25 108.97 4.58 108.75 5.48C108.55 6.27 108.91 7.15 109.52 7.67C110.89 8.84 112.84 8.47 114.47 8.25C116.46 7.97 118.45 7.65 120.43 7.26C121.21 7.11 122.02 6.85 122.43 6.09C122.79 5.43 122.67 4.59 122.28 3.97ZM115.87 5.22L116.17 5.18C116.07 5.19 115.97 5.21 115.87 5.22Z" fill="#000000" fill-opacity="1.000000" fill-rule="nonzero"/>
		</g>
	</g>
	<g mask="url(#mask1_45286)">
		<g style="mix-blend-mode:normal">
			<path id="Path 24785" d="M32.33 96.68C31.04 95.57 29.41 96.43 28.3 97.33C27.75 97.78 27.21 98.23 26.67 98.69C26.3 98.94 25.93 99.18 25.57 99.44C24.99 99.85 24.42 100.29 24 100.88C23.26 101.89 23.14 103.45 24.11 104.38C25.38 105.6 26.96 104.47 27.97 103.54C29.21 102.39 30.59 101.4 31.84 100.26C32.8 99.37 33.54 97.72 32.33 96.68Z" fill="#000000" fill-opacity="1.000000" fill-rule="nonzero"/>
		</g>
	</g>
	<g mask="url(#mask1_45286)">
		<g style="mix-blend-mode:normal">
			<path id="Path 24786" d="M44.3 87.34C42.8 86.47 41.34 87.5 40.19 88.44C39.45 89.04 38.73 89.66 38.01 90.29C37.44 90.71 36.79 91.19 36.37 91.78C36.29 91.89 36.23 92 36.17 92.12C36.14 92.16 36.11 92.2 36.08 92.23C36.04 92.29 36.03 92.35 36.05 92.4C35.67 93.46 35.99 94.71 37.14 95.17C38.59 95.74 39.87 94.68 40.95 93.86C41.58 93.37 42.23 92.88 42.87 92.39C43.44 91.95 44.07 91.53 44.54 90.97C45.43 89.91 45.68 88.13 44.3 87.34Z" fill="#000000" fill-opacity="1.000000" fill-rule="nonzero"/>
		</g>
	</g>
	<g mask="url(#mask1_45286)">
		<g style="mix-blend-mode:normal">
			<path id="Path 24787" d="M57.92 78.07C56.43 77.01 54.81 78.25 53.61 79.14C53.53 79.2 53.45 79.26 53.37 79.32C52.65 79.71 51.97 80.18 51.35 80.71C50.79 81.03 50.22 81.37 49.76 81.84C48.75 82.89 48.55 84.77 49.98 85.57C51.36 86.33 52.78 85.44 53.88 84.61C54.54 84.12 55.2 83.62 55.86 83.12C56.47 82.66 57.12 82.22 57.69 81.7C58.71 80.77 59.23 79.01 57.92 78.07Z" fill="#000000" fill-opacity="1.000000" fill-rule="nonzero"/>
		</g>
	</g>
	<g mask="url(#mask1_45286)">
		<g style="mix-blend-mode:normal">
			<path id="Path 24788" d="M71.95 70.89C71.73 70.13 71.07 69.56 70.27 69.47C69.49 69.37 68.83 69.68 68.22 70.1C67.93 70.26 67.65 70.44 67.36 70.61C66.67 71.04 65.98 71.47 65.29 71.89C64.62 72.3 63.9 72.67 63.26 73.14C62.69 73.56 62.2 74.11 62.05 74.83C61.91 75.52 62.1 76.24 62.67 76.69C63.99 77.74 65.6 76.67 66.81 76.01C67.57 75.6 68.33 75.18 69.09 74.77C69.74 74.42 70.43 74.1 71.01 73.65C71.85 73 72.39 71.82 71.95 70.89Z" fill="#000000" fill-opacity="1.000000" fill-rule="nonzero"/>
		</g>
	</g>
	<g mask="url(#mask1_45286)">
		<g style="mix-blend-mode:normal">
			<path id="Path 24789" d="M89.5 60.72C87.92 58.88 85.38 60.41 83.72 61.22C83.46 61.34 83.2 61.47 82.95 61.6C81.43 62.26 79.99 63.1 78.56 63.91C77.85 64.31 77.06 64.74 76.7 65.52C76.32 66.34 76.54 67.24 77.14 67.89C78.62 69.52 80.78 68.27 82.28 67.4C83.99 66.4 85.85 65.75 87.63 64.91C88.43 64.53 89.19 64.04 89.66 63.26C90.15 62.44 90.13 61.45 89.5 60.72Z" fill="#000000" fill-opacity="1.000000" fill-rule="nonzero"/>
		</g>
	</g>
	<g mask="url(#mask1_45286)">
		<g style="mix-blend-mode:normal">
			<path id="Path 24790" d="M106.89 52.96C106.42 52.07 105.41 51.84 104.48 51.99C104.23 52.03 103.99 52.08 103.75 52.14C103.17 52.25 102.58 52.44 102.05 52.6C100.13 53.17 98.28 53.97 96.54 54.97C95.71 55.45 94.85 55.94 94.32 56.77C93.83 57.53 93.74 58.53 94.24 59.31C95.41 61.15 97.27 60.3 98.93 59.66C100.82 58.95 102.87 58.18 104.84 57.15C105.64 56.72 106.36 56.1 106.81 55.29C107.21 54.59 107.27 53.68 106.89 52.96Z" fill="#000000" fill-opacity="1.000000" fill-rule="nonzero"/>
		</g>
	</g>
	<g mask="url(#mask1_45286)">
		<g style="mix-blend-mode:normal">
			<path id="Path 24791" d="M122.56 47.2C122.29 47.07 122.02 47 121.74 46.97C121 46.72 120.02 46.98 119.32 47.07C117.2 47.37 115 47.74 113 48.53C112.14 48.87 111.36 49.49 111.33 50.49C111.31 51.32 111.8 52.1 112.49 52.53C113.36 53.07 114.39 53.05 115.4 52.83C116.27 52.79 117.24 52.49 117.83 52.34C118.63 52.15 119.41 51.93 120.19 51.69C120.91 51.46 121.68 51.24 122.35 50.88C123.02 50.52 123.56 49.88 123.64 49.1C123.73 48.3 123.28 47.55 122.56 47.2Z" fill="#000000" fill-opacity="1.000000" fill-rule="nonzero"/>
		</g>
	</g>
	<g mask="url(#mask1_45286)">
		<g style="mix-blend-mode:normal">
			<path id="Path 24792" d="M138.94 46.82C138.19 45.19 136.02 45.52 134.56 45.53C134.1 45.54 133.65 45.55 133.19 45.56C132.02 45.54 130.86 45.58 129.68 45.65C129.02 45.7 128.3 45.86 128.02 46.55C127.78 47.16 127.97 47.9 128.39 48.38C129.36 49.46 130.95 49.38 132.27 49.37C133.89 49.37 135.5 49.33 137.12 49.23C137.76 49.2 138.43 49.08 138.83 48.52C139.2 48.04 139.19 47.36 138.94 46.82Z" fill="#000000" fill-opacity="1.000000" fill-rule="nonzero"/>
		</g>
	</g>
</svg>
