<svg width="113.039062" height="87.320312" viewBox="0 0 113.039 87.3203" fill="none" xmlns="http://www.w3.org/2000/svg" xmlns:xlink="http://www.w3.org/1999/xlink">
	<desc>
			Created with Pixso.
	</desc>
	<defs/>
	<mask id="mask1_14233" mask-type="alpha" maskUnits="userSpaceOnUse" x="0.000000" y="0.000000" width="113.039062" height="87.320312">
		<g style="mix-blend-mode:normal">
			<rect id="Rectangle 3711" width="113.039062" height="87.320221" fill="#C4C4C4" fill-opacity="1.000000"/>
		</g>
	</mask>
	<g mask="url(#mask1_14233)">
		<g style="mix-blend-mode:normal">
			<path id="Path 31729" d="M105.88 61.81C118.15 21.79 78.15 -9.21 42.33 4.13C29.52 8.9 19.87 18.84 15.57 32.8C15.5 32.97 15.59 32.93 6.96 30.3C4.75 35.87 2.8 41.55 1.12 47.31C45.48 62.7 104.12 85.98 104.47 86.05C104.69 86.1 104.72 86.17 104.88 85.97C104.88 85.96 110.87 72.68 110.89 72.65C112.4 69.29 112.71 69.66 109.05 68.07C104.19 65.95 104.33 66.08 104.43 65.89C105.07 64.62 105.46 63.17 105.88 61.81ZM89.33 47.93C89.21 52.97 86.54 59.25 86.53 59.27C86.42 59.56 57.62 47.81 51.85 45.64C34.78 39.23 32.8 39.05 32.97 38.7C36.87 30.76 39.95 26.26 47.39 22.83C68.97 12.9 89.71 31.36 89.33 47.93Z" fill="#6EC6FA" fill-opacity="1.000000" fill-rule="nonzero"/>
		</g>
	</g>
	<g mask="url(#mask1_14233)">
		<g style="mix-blend-mode:normal">
			<path id="Path 31730" d="" fill="#13202B" fill-opacity="1.000000" fill-rule="nonzero"/>
		</g>
	</g>
	<g mask="url(#mask1_14233)">
		<g style="mix-blend-mode:normal">
			<path id="Path 31731" d="" fill="#13202B" fill-opacity="1.000000" fill-rule="nonzero"/>
		</g>
	</g>
	<g mask="url(#mask1_14233)">
		<g style="mix-blend-mode:normal">
			<path id="Path 31732" d="" fill="#13202B" fill-opacity="1.000000" fill-rule="nonzero"/>
		</g>
	</g>
	<g mask="url(#mask1_14233)">
		<g style="mix-blend-mode:normal">
			<path id="Path 31733" d="" fill="#13202B" fill-opacity="1.000000" fill-rule="nonzero"/>
		</g>
	</g>
	<g mask="url(#mask1_14233)">
		<g style="mix-blend-mode:normal">
			<path id="Path 31734" d="M1.91 47.64C2 47.35 2.08 47.06 2.17 46.77C1.86 46.66 1.54 46.55 1.23 46.44L1.91 47.64Z" fill="#13202B" fill-opacity="1.000000" fill-rule="nonzero"/>
		</g>
	</g>
	<g mask="url(#mask1_14233)">
		<g style="mix-blend-mode:normal">
			<path id="Path 31735" d="M105.11 85.39C104.85 85.29 104.6 85.2 104.34 85.1C104.23 85.34 104.12 85.59 104.01 85.84C104.37 85.69 104.74 85.54 105.11 85.39Z" fill="#13202B" fill-opacity="1.000000" fill-rule="nonzero"/>
		</g>
	</g>
	<g mask="url(#mask1_14233)">
		<g style="mix-blend-mode:normal">
			<path id="Path 31736" d="" fill="#13202B" fill-opacity="1.000000" fill-rule="nonzero"/>
		</g>
	</g>
	<g mask="url(#mask1_14233)">
		<g style="mix-blend-mode:normal">
			<path id="Path 31737" d="" fill="#13202B" fill-opacity="1.000000" fill-rule="nonzero"/>
		</g>
	</g>
	<g mask="url(#mask1_14233)">
		<g style="mix-blend-mode:normal">
			<path id="Path 31738" d="" fill="#13202B" fill-opacity="1.000000" fill-rule="nonzero"/>
		</g>
	</g>
	<g mask="url(#mask1_14233)">
		<g style="mix-blend-mode:normal">
			<path id="Path 31739" d="M111.14 69.81C111.14 69.83 111.14 69.88 111.15 69.91C111.17 69.85 111.19 69.67 111.14 69.81Z" fill="#13202B" fill-opacity="1.000000" fill-rule="nonzero"/>
		</g>
	</g>
	<g mask="url(#mask1_14233)">
		<g style="mix-blend-mode:normal">
			<path id="Path 31740" d="M6.63 31.09C6.91 31.17 7.18 31.26 7.46 31.34C7.58 31.03 7.7 30.72 7.83 30.41L6.63 31.09Z" fill="#13202B" fill-opacity="1.000000" fill-rule="nonzero"/>
		</g>
	</g>
	<g mask="url(#mask1_14233)">
		<g style="mix-blend-mode:normal">
			<path id="Path 31741" d="" fill="#13202B" fill-opacity="1.000000" fill-rule="nonzero"/>
		</g>
	</g>
	<g mask="url(#mask1_14233)">
		<g style="mix-blend-mode:normal">
			<path id="Path 31742" d="" fill="#13202B" fill-opacity="1.000000" fill-rule="nonzero"/>
		</g>
	</g>
	<g mask="url(#mask1_14233)">
		<g style="mix-blend-mode:normal">
			<path id="Path 31743" d="M111.16 69.97C111.15 70.01 111.13 69.96 111.13 69.86C111.12 69.89 111.16 69.95 111.16 69.97Z" fill="#13202B" fill-opacity="1.000000" fill-rule="nonzero"/>
		</g>
	</g>
	<g mask="url(#mask1_14233)">
		<g style="mix-blend-mode:normal">
			<path id="Path 31744" d="" fill="#13202B" fill-opacity="1.000000" fill-rule="nonzero"/>
		</g>
	</g>
	<g mask="url(#mask1_14233)">
		<g style="mix-blend-mode:normal">
			<path id="Path 31745" d="" fill="#13202B" fill-opacity="1.000000" fill-rule="nonzero"/>
		</g>
	</g>
	<g mask="url(#mask1_14233)">
		<g style="mix-blend-mode:normal">
			<path id="Path 31746" d="" fill="#13202B" fill-opacity="1.000000" fill-rule="nonzero"/>
		</g>
	</g>
	<g mask="url(#mask1_14233)">
		<g style="mix-blend-mode:normal">
			<path id="Path 31747" d="M110.71 70.99C110.69 71.04 110.67 71.09 110.65 71.14C110.59 71.28 110.53 71.41 110.47 71.55C110.34 71.86 110.2 72.16 110.06 72.47C109.67 73.35 109.27 74.23 108.87 75.1C107.36 78.43 105.85 81.76 104.34 85.1C104.6 85.2 104.85 85.29 105.11 85.39C104.74 85.54 104.37 85.69 104.01 85.84C104.12 85.59 104.23 85.34 104.34 85.1C96.97 82.2 89.59 79.32 82.2 76.47C74.87 73.63 67.53 70.82 60.18 68.03C53.3 65.42 46.41 62.83 39.51 60.27C33.14 57.9 26.76 55.56 20.37 53.25C14.66 51.18 8.94 49.14 3.21 47.13C2.86 47.01 2.52 46.89 2.17 46.77C2.08 47.06 2 47.35 1.91 47.64L1.23 46.44C1.54 46.55 1.86 46.66 2.17 46.77C3.71 41.56 5.48 36.41 7.46 31.34C7.18 31.26 6.91 31.17 6.63 31.09C7.03 30.86 7.43 30.63 7.83 30.41C7.7 30.72 7.58 31.03 7.46 31.34C10.04 32.13 12.61 32.91 15.19 33.7C16.39 34.07 16.91 32.19 15.71 31.82C12.85 30.95 10 30.08 7.15 29.21C6.6 29.04 6.14 29.41 5.95 29.89C3.7 35.54 1.73 41.29 0.03 47.12C-0.12 47.65 0.22 48.15 0.71 48.32C6.35 50.29 11.98 52.29 17.6 54.31C23.91 56.59 30.22 58.9 36.52 61.23C43.35 63.76 50.18 66.32 57.01 68.91C64.31 71.67 71.6 74.46 78.89 77.27C86.5 80.2 94.11 83.16 101.7 86.14C102.66 86.52 103.63 86.89 104.59 87.27C104.95 87.41 105.53 87.18 105.69 86.82C107.92 81.87 110.28 76.95 112.41 71.95C112.89 70.81 113.53 69.5 112.41 68.51C111.79 67.96 110.92 67.69 110.17 67.38C108.54 66.69 106.72 65.9 105.02 65.11C104.54 64.89 103.97 64.98 103.69 65.46C103.44 65.88 103.56 66.58 104.04 66.8C105.64 67.53 107.26 68.24 108.89 68.93C109.45 69.17 109.61 69.23 110.16 69.47C110.42 69.59 110.69 69.71 110.95 69.85C110.98 69.87 111.02 69.9 111.06 69.93C111.06 69.92 111.14 69.82 111.14 69.81C111.19 69.67 111.08 69.86 111.06 69.93C111.06 69.93 111.17 69.99 111.17 70C111.15 69.96 111.08 69.97 111.06 69.93C111.05 69.97 111.07 70.04 111.06 70.08C110.96 70.39 110.84 70.69 110.71 70.99Z" fill="#13202B" fill-opacity="1.000000" fill-rule="nonzero"/>
		</g>
	</g>
	<g mask="url(#mask1_14233)">
		<g style="mix-blend-mode:normal">
			<path id="Path 31748" d="" fill="#13202B" fill-opacity="1.000000" fill-rule="nonzero"/>
		</g>
	</g>
	<g mask="url(#mask1_14233)">
		<g style="mix-blend-mode:normal">
			<path id="Path 31749" d="" fill="#13202B" fill-opacity="1.000000" fill-rule="nonzero"/>
		</g>
	</g>
	<g mask="url(#mask1_14233)">
		<g style="mix-blend-mode:normal">
			<path id="Path 31750" d="" fill="#13202B" fill-opacity="1.000000" fill-rule="nonzero"/>
		</g>
	</g>
	<g mask="url(#mask1_14233)">
		<g style="mix-blend-mode:normal">
			<path id="Path 31751" d="" fill="#13202B" fill-opacity="1.000000" fill-rule="nonzero"/>
		</g>
	</g>
	<g mask="url(#mask1_14233)">
		<g style="mix-blend-mode:normal">
			<path id="Path 31752" d="" fill="#13202B" fill-opacity="1.000000" fill-rule="nonzero"/>
		</g>
	</g>
	<g mask="url(#mask1_14233)">
		<g style="mix-blend-mode:normal">
			<path id="Path 31753" d="" fill="#13202B" fill-opacity="1.000000" fill-rule="nonzero"/>
		</g>
	</g>
	<g mask="url(#mask1_14233)">
		<g style="mix-blend-mode:normal">
			<path id="Path 31754" d="" fill="#13202B" fill-opacity="1.000000" fill-rule="nonzero"/>
		</g>
	</g>
	<g mask="url(#mask1_14233)">
		<g style="mix-blend-mode:normal">
			<path id="Path 31755" d="" fill="#13202B" fill-opacity="1.000000" fill-rule="nonzero"/>
		</g>
	</g>
	<g mask="url(#mask1_14233)">
		<g style="mix-blend-mode:normal">
			<path id="Path 31756" d="" fill="#13202B" fill-opacity="1.000000" fill-rule="nonzero"/>
		</g>
	</g>
	<g mask="url(#mask1_14233)">
		<g style="mix-blend-mode:normal">
			<path id="Path 31757" d="" fill="#13202B" fill-opacity="1.000000" fill-rule="nonzero"/>
		</g>
	</g>
	<g mask="url(#mask1_14233)">
		<g style="mix-blend-mode:normal">
			<path id="Path 31758" d="" fill="#13202B" fill-opacity="1.000000" fill-rule="nonzero"/>
		</g>
	</g>
	<g mask="url(#mask1_14233)">
		<g style="mix-blend-mode:normal">
			<path id="Path 31759" d="" fill="#13202B" fill-opacity="1.000000" fill-rule="nonzero"/>
		</g>
	</g>
	<g mask="url(#mask1_14233)">
		<g style="mix-blend-mode:normal">
			<path id="Path 31760" d="" fill="#13202B" fill-opacity="1.000000" fill-rule="nonzero"/>
		</g>
	</g>
	<g mask="url(#mask1_14233)">
		<g style="mix-blend-mode:normal">
			<path id="Path 31761" d="M103.78 65.33C103.59 65.82 103.98 66.4 104.46 66.53C105 66.68 105.47 66.34 105.66 65.85C108.06 59.42 109.51 52.58 109.31 45.69C109.1 38.32 106.97 31.16 103.3 24.78C100.94 20.68 97.98 16.9 94.53 13.66C91.24 10.55 87.5 7.91 83.48 5.82C79.51 3.77 75.27 2.22 70.91 1.26C66.6 0.3 62.16 -0.12 57.75 0.02C53.36 0.17 48.98 0.87 44.77 2.15C40.59 3.42 36.55 5.27 32.89 7.66C29.14 10.11 25.77 13.11 22.94 16.58C19.88 20.33 17.47 24.54 15.71 29.05C15.27 30.19 14.87 31.34 14.51 32.5C14.14 33.7 16.02 34.22 16.39 33.02C17.79 28.49 19.78 24.26 22.54 20.32C22.85 19.86 23.18 19.42 23.51 18.98C23.69 18.74 23.69 18.74 23.89 18.48C24.07 18.26 24.25 18.03 24.44 17.81C25.15 16.95 25.89 16.11 26.66 15.31C27.41 14.53 28.2 13.78 29.01 13.06C29.41 12.7 29.83 12.34 30.25 12C30.44 11.84 30.64 11.68 30.83 11.53C30.94 11.44 31.05 11.35 31.16 11.27C31.22 11.22 31.31 11.15 31.37 11.11C33.08 9.81 34.88 8.64 36.76 7.61C37.69 7.1 38.63 6.62 39.6 6.18C39.83 6.07 40.07 5.97 40.31 5.86C40.42 5.81 40.53 5.76 40.65 5.71C40.7 5.69 40.76 5.67 40.82 5.64C40.85 5.63 40.89 5.61 40.92 5.6C41.42 5.39 41.92 5.19 42.42 5C44.4 4.26 46.43 3.65 48.49 3.17C49.53 2.94 50.57 2.73 51.62 2.56C52.73 2.38 53.44 2.29 54.61 2.18C56.75 1.97 58.9 1.9 61.05 1.97C62.11 2 63.18 2.07 64.25 2.17C64.79 2.22 65.33 2.27 65.87 2.34C65.99 2.36 66.11 2.37 66.23 2.39C66.31 2.4 66.41 2.41 66.49 2.42C66.76 2.46 67.04 2.51 67.32 2.55C69.44 2.89 71.55 3.36 73.61 3.96C74.65 4.26 75.67 4.6 76.69 4.96C77.2 5.15 77.72 5.34 78.23 5.55C78.46 5.64 78.69 5.73 78.92 5.83C79.11 5.91 79.25 5.97 79.56 6.1C81.56 6.98 83.51 7.99 85.39 9.13C86.32 9.7 87.24 10.3 88.14 10.93C88.59 11.25 89.04 11.58 89.49 11.92C89.54 11.96 89.59 12 89.64 12.04C89.65 12.04 89.72 12.1 89.75 12.12C89.74 12.11 89.64 12.04 89.64 12.04C89.67 12.06 89.76 12.13 89.75 12.12C89.79 12.15 89.95 12.28 90.01 12.32C90.24 12.5 90.46 12.68 90.69 12.87C94.18 15.73 97.26 19.09 99.73 22.73C103.4 28.15 105.95 34.3 106.94 40.78C107.95 47.46 107.18 54.3 105.3 60.75C104.85 62.3 104.34 63.82 103.78 65.33Z" fill="#13202B" fill-opacity="1.000000" fill-rule="nonzero"/>
		</g>
	</g>
	<g mask="url(#mask1_14233)">
		<g style="mix-blend-mode:normal">
			<path id="Path 31762" d="M86.68 58.27C86.41 58.16 86.13 58.06 85.86 57.95C85.73 58.28 85.61 58.62 85.48 58.95C85.33 59.36 85.58 59.86 85.96 60.07C86 60.09 86.13 60.14 86.16 60.15C86.72 60.28 87.17 59.98 87.36 59.47C87.49 58.91 87.19 58.47 86.68 58.27Z" fill="#13202B" fill-opacity="1.000000" fill-rule="nonzero"/>
		</g>
	</g>
	<g mask="url(#mask1_14233)">
		<g style="mix-blend-mode:normal">
			<path id="Path 31763" d="M85.96 60.07C86.03 60.11 86.09 60.13 86.16 60.15C86.13 60.14 86 60.09 85.96 60.07Z" fill="#13202B" fill-opacity="1.000000" fill-rule="nonzero"/>
		</g>
	</g>
	<g mask="url(#mask1_14233)">
		<g style="mix-blend-mode:normal">
			<path id="Path 31764" d="M33.34 37.83C33.53 38.3 33.73 38.78 33.92 39.26C34.09 38.9 34.27 38.55 34.44 38.2C34.11 38.09 33.78 37.97 33.44 37.86C33.41 37.85 33.37 37.84 33.34 37.83Z" fill="#13202B" fill-opacity="1.000000" fill-rule="nonzero"/>
		</g>
	</g>
	<g mask="url(#mask1_14233)">
		<g style="mix-blend-mode:normal">
			<path id="Path 31765" d="M38.53 28.15C36.38 30.58 34.72 33.38 33.25 36.25C32.9 36.92 32.57 37.6 32.24 38.27C31.95 38.86 32.2 39.49 32.82 39.71C34.82 40.39 36.82 41.1 38.81 41.8C43.1 43.32 47.37 44.87 51.63 46.47C56 48.11 60.32 49.88 64.65 51.63C69.2 53.47 73.77 55.28 78.34 57.08C80.88 58.08 83.42 59.08 85.96 60.07C85.58 59.86 85.33 59.36 85.48 58.95C85.61 58.62 85.73 58.28 85.86 57.95C83.99 57.22 82.13 56.49 80.27 55.76C75.79 54 71.32 52.23 66.86 50.43C62.51 48.68 58.18 46.88 53.79 45.21C49.44 43.56 45.06 41.96 40.67 40.4C38.6 39.66 36.53 38.91 34.44 38.2C34.27 38.55 34.09 38.9 33.92 39.26C33.73 38.78 33.53 38.3 33.34 37.83C33.37 37.84 33.41 37.85 33.44 37.86C33.78 37.97 34.11 38.09 34.44 38.2C35.65 35.8 36.93 33.43 38.52 31.25C38.63 31.11 38.74 30.96 38.85 30.81C38.86 30.8 38.93 30.71 38.93 30.71C39 30.62 39.07 30.53 39.14 30.44C39.39 30.13 39.65 29.83 39.91 29.53C40.45 28.93 41.01 28.35 41.6 27.8C41.91 27.53 42.22 27.26 42.53 27C42.6 26.94 42.67 26.89 42.74 26.83C42.78 26.8 42.82 26.77 42.86 26.74C43.04 26.6 43.22 26.47 43.4 26.34C44.11 25.83 44.85 25.38 45.61 24.96C46.37 24.54 47.15 24.14 47.95 23.78C48.13 23.69 48.31 23.61 48.49 23.53C48.58 23.49 48.68 23.45 48.78 23.41C48.82 23.39 48.97 23.33 48.96 23.33C49.33 23.18 49.7 23.03 50.08 22.89C51.57 22.35 53.11 21.91 54.67 21.6C55.04 21.53 55.42 21.46 55.8 21.4C55.89 21.39 55.98 21.38 56.08 21.36C56.11 21.36 56.28 21.33 56.3 21.33C56.35 21.33 56.4 21.32 56.42 21.32C56.53 21.3 56.63 21.29 56.74 21.28C57.48 21.2 58.22 21.14 58.96 21.12C60.4 21.08 61.84 21.15 63.27 21.33C63.29 21.33 63.37 21.34 63.39 21.34C63.37 21.34 63.28 21.33 63.27 21.33C63.35 21.34 63.51 21.36 63.58 21.37C63.77 21.4 63.96 21.43 64.14 21.46C64.49 21.52 64.84 21.59 65.18 21.66C65.87 21.8 66.54 21.97 67.22 22.16C67.88 22.35 68.54 22.57 69.19 22.81C69.51 22.93 69.83 23.05 70.15 23.18C70.23 23.21 70.31 23.25 70.39 23.28C70.56 23.35 70.77 23.44 70.93 23.52C72.18 24.08 73.38 24.72 74.54 25.45C75.1 25.8 75.66 26.17 76.2 26.55C76.47 26.75 76.74 26.95 77.01 27.15C76.93 27.08 77.12 27.24 77.12 27.24C77.11 27.23 77.03 27.17 77.01 27.15C77.07 27.21 77.2 27.3 77.27 27.35C77.4 27.46 77.53 27.56 77.66 27.67C78.69 28.51 79.67 29.42 80.59 30.38C81.04 30.86 81.48 31.34 81.91 31.85C82.12 32.1 82.32 32.35 82.53 32.6C82.58 32.67 82.63 32.73 82.68 32.8C82.77 32.92 82.91 33.1 83.01 33.23C83.77 34.26 84.47 35.33 85.09 36.45C85.4 36.99 85.69 37.55 85.96 38.11C86.09 38.39 86.22 38.67 86.35 38.96C86.38 39.03 86.41 39.1 86.44 39.17C86.5 39.32 86.57 39.48 86.63 39.63C87.07 40.75 87.43 41.89 87.71 43.06C87.84 43.63 87.95 44.2 88.04 44.78C88.05 44.84 88.06 44.9 88.07 44.97C88.06 44.85 88.09 45.09 88.09 45.09C88.08 45.06 88.07 44.99 88.07 44.97C88.08 45.11 88.11 45.29 88.13 45.44C88.16 45.72 88.18 46.01 88.2 46.29C88.23 46.86 88.25 47.42 88.23 47.99C88.22 48.4 88.19 48.82 88.16 49.24C88.13 49.46 88.11 49.69 88.08 49.92C88.08 49.96 88.07 50 88.07 50.05C88.04 50.18 88.01 50.41 87.99 50.54C87.67 52.48 87.12 54.36 86.48 56.21C86.28 56.79 86.07 57.37 85.86 57.95C86.13 58.06 86.41 58.16 86.68 58.27C87.19 58.47 87.49 58.91 87.36 59.47C88.75 55.76 90.09 51.93 90.18 47.93C90.24 45.51 89.83 43.07 89.1 40.76C88.31 38.3 87.17 35.94 85.75 33.78C84.27 31.5 82.49 29.4 80.5 27.56C78.44 25.66 76.14 24 73.66 22.69C71.13 21.34 68.4 20.33 65.59 19.76C62.64 19.15 59.61 19 56.62 19.34C53.26 19.73 50.03 20.68 46.96 22.09C45.36 22.83 43.78 23.68 42.35 24.71C40.95 25.71 39.67 26.87 38.53 28.15Z" fill="#13202B" fill-opacity="1.000000" fill-rule="nonzero"/>
		</g>
	</g>
	<g mask="url(#mask1_14233)">
		<g style="mix-blend-mode:normal">
			<path id="Path 31766" d="" fill="#13202B" fill-opacity="1.000000" fill-rule="nonzero"/>
		</g>
	</g>
	<g mask="url(#mask1_14233)">
		<g style="mix-blend-mode:normal">
			<path id="Path 31767" d="" fill="#13202B" fill-opacity="1.000000" fill-rule="nonzero"/>
		</g>
	</g>
	<g mask="url(#mask1_14233)">
		<g style="mix-blend-mode:normal">
			<path id="Path 31768" d="" fill="#13202B" fill-opacity="1.000000" fill-rule="nonzero"/>
		</g>
	</g>
	<g mask="url(#mask1_14233)">
		<g style="mix-blend-mode:normal">
			<path id="Path 31769" d="" fill="#13202B" fill-opacity="1.000000" fill-rule="nonzero"/>
		</g>
	</g>
	<g mask="url(#mask1_14233)">
		<g style="mix-blend-mode:normal">
			<path id="Path 31770" d="" fill="#13202B" fill-opacity="1.000000" fill-rule="nonzero"/>
		</g>
	</g>
	<g mask="url(#mask1_14233)">
		<g style="mix-blend-mode:normal">
			<path id="Path 31771" d="" fill="#13202B" fill-opacity="1.000000" fill-rule="nonzero"/>
		</g>
	</g>
	<g mask="url(#mask1_14233)">
		<g style="mix-blend-mode:normal">
			<path id="Path 31772" d="M88.07 44.98C88.07 45.01 88.08 45.06 88.09 45.09C88.09 45.09 88.06 44.87 88.07 44.98Z" fill="#13202B" fill-opacity="1.000000" fill-rule="nonzero"/>
		</g>
	</g>
	<g mask="url(#mask1_14233)">
		<g style="mix-blend-mode:normal">
			<path id="Path 31773" d="" fill="#13202B" fill-opacity="1.000000" fill-rule="nonzero"/>
		</g>
	</g>
	<g mask="url(#mask1_14233)">
		<g style="mix-blend-mode:normal">
			<path id="Path 31774" d="M86.16 60.15C86.64 60.34 87.25 59.95 87.36 59.47C87.17 59.98 86.72 60.28 86.16 60.15Z" fill="#13202B" fill-opacity="1.000000" fill-rule="nonzero"/>
		</g>
	</g>
	<g mask="url(#mask1_14233)">
		<g style="mix-blend-mode:normal">
			<path id="Path 31775" d="" fill="#13202B" fill-opacity="1.000000" fill-rule="nonzero"/>
		</g>
	</g>
	<g mask="url(#mask1_14233)">
		<g style="mix-blend-mode:normal">
			<path id="Path 31776" d="" fill="#13202B" fill-opacity="1.000000" fill-rule="nonzero"/>
		</g>
	</g>
	<g mask="url(#mask1_14233)">
		<g style="mix-blend-mode:normal">
			<path id="Path 31777" d="" fill="#13202B" fill-opacity="1.000000" fill-rule="nonzero"/>
		</g>
	</g>
	<g mask="url(#mask1_14233)">
		<g style="mix-blend-mode:normal">
			<path id="Path 31778" d="" fill="#13202B" fill-opacity="1.000000" fill-rule="nonzero"/>
		</g>
	</g>
	<g mask="url(#mask1_14233)">
		<g style="mix-blend-mode:normal">
			<path id="Path 31779" d="M92.28 81.76C92.7 81.99 93.4 81.92 93.61 81.41C94.36 79.66 95.08 77.89 95.76 76.11C95.95 75.63 95.56 75.02 95.08 74.91C94.53 74.78 94.08 75.08 93.89 75.59C93.56 76.43 93.24 77.26 92.9 78.09C92.73 78.51 92.56 78.92 92.39 79.34C92.31 79.53 92.23 79.73 92.14 79.92C92.13 79.96 92.08 80.06 92.08 80.08C92.03 80.2 91.98 80.31 91.93 80.43C91.82 80.68 91.75 80.91 91.83 81.18C91.89 81.41 92.07 81.65 92.28 81.76Z" fill="#13202B" fill-opacity="1.000000" fill-rule="nonzero"/>
		</g>
	</g>
	<g mask="url(#mask1_14233)">
		<g style="mix-blend-mode:normal">
			<path id="Path 31780" d="" fill="#13202B" fill-opacity="1.000000" fill-rule="nonzero"/>
		</g>
	</g>
	<g mask="url(#mask1_14233)">
		<g style="mix-blend-mode:normal">
			<path id="Path 31781" d="M84.01 77.81C84.77 76.16 85.46 74.48 86.05 72.76C86.22 72.28 85.86 71.67 85.37 71.56C84.83 71.44 84.35 71.72 84.17 72.24C83.89 73.04 83.6 73.84 83.28 74.63C83.21 74.82 83.13 75.01 83.05 75.19C83.03 75.24 83.01 75.29 82.99 75.33C82.96 75.42 82.9 75.56 82.86 75.64C82.69 76.04 82.51 76.44 82.33 76.83C82.12 77.29 82.18 77.9 82.68 78.16C83.11 78.39 83.78 78.31 84.01 77.81Z" fill="#13202B" fill-opacity="1.000000" fill-rule="nonzero"/>
		</g>
	</g>
	<g mask="url(#mask1_14233)">
		<g style="mix-blend-mode:normal">
			<path id="Path 31782" d="M73.35 74.4C73.59 74.46 73.87 74.44 74.1 74.3C74.32 74.15 74.44 73.97 74.54 73.72C75.1 72.38 75.6 71.03 76.05 69.65C76.2 69.17 75.86 68.57 75.37 68.45C74.83 68.33 74.34 68.61 74.17 69.13C73.72 70.51 73.22 71.87 72.67 73.2C72.57 73.42 72.65 73.76 72.76 73.95C72.88 74.15 73.11 74.35 73.35 74.4Z" fill="#13202B" fill-opacity="1.000000" fill-rule="nonzero"/>
		</g>
	</g>
	<g mask="url(#mask1_14233)">
		<g style="mix-blend-mode:normal">
			<path id="Path 31783" d="M64.7 69.99C65.31 68.36 65.93 66.72 66.54 65.09C66.72 64.61 66.34 64 65.86 63.89C65.31 63.77 64.86 64.06 64.67 64.57C64.05 66.2 63.43 67.84 62.82 69.47C62.64 69.95 63.02 70.56 63.5 70.67C64.05 70.79 64.5 70.5 64.7 69.99Z" fill="#13202B" fill-opacity="1.000000" fill-rule="nonzero"/>
		</g>
	</g>
	<g mask="url(#mask1_14233)">
		<g style="mix-blend-mode:normal">
			<path id="Path 31784" d="" fill="#13202B" fill-opacity="1.000000" fill-rule="nonzero"/>
		</g>
	</g>
	<g mask="url(#mask1_14233)">
		<g style="mix-blend-mode:normal">
			<path id="Path 31785" d="M53.12 65.54C53.02 65.79 52.95 66.01 53.02 66.29C53.09 66.52 53.26 66.76 53.47 66.87C53.89 67.09 54.59 67.02 54.8 66.52C55.59 64.68 56.3 62.8 56.89 60.88C57.04 60.4 56.71 59.8 56.21 59.69C55.68 59.57 55.17 59.85 55.01 60.37C54.73 61.27 54.43 62.17 54.1 63.05C53.94 63.49 53.78 63.92 53.61 64.35C53.52 64.57 53.44 64.79 53.35 65C53.31 65.1 53.27 65.2 53.22 65.3C53.22 65.3 53.13 65.51 53.12 65.54Z" fill="#13202B" fill-opacity="1.000000" fill-rule="nonzero"/>
		</g>
	</g>
	<g mask="url(#mask1_14233)">
		<g style="mix-blend-mode:normal">
			<path id="Path 31786" d="M45.46 57.66C45.33 58.03 45.19 58.39 45.05 58.74C44.98 58.92 44.91 59.1 44.83 59.28C44.82 59.32 44.8 59.37 44.78 59.41C44.74 59.49 44.71 59.57 44.68 59.65C44.37 60.36 44.04 61.05 43.7 61.74C43.47 62.2 43.56 62.82 44.05 63.08C44.49 63.31 45.14 63.21 45.38 62.73C46.12 61.25 46.77 59.73 47.34 58.18C47.52 57.7 47.14 57.09 46.66 56.98C46.11 56.86 45.65 57.15 45.46 57.66Z" fill="#13202B" fill-opacity="1.000000" fill-rule="nonzero"/>
		</g>
	</g>
	<g mask="url(#mask1_14233)">
		<g style="mix-blend-mode:normal">
			<path id="Path 31787" d="" fill="#13202B" fill-opacity="1.000000" fill-rule="nonzero"/>
		</g>
	</g>
	<g mask="url(#mask1_14233)">
		<g style="mix-blend-mode:normal">
			<path id="Path 31788" d="" fill="#13202B" fill-opacity="1.000000" fill-rule="nonzero"/>
		</g>
	</g>
	<g mask="url(#mask1_14233)">
		<g style="mix-blend-mode:normal">
			<path id="Path 31789" d="M35.62 53.37C35.36 54.22 35.06 55.07 34.73 55.91C34.69 56.01 34.65 56.11 34.61 56.2C34.6 56.23 34.53 56.4 34.51 56.44C34.44 56.62 34.36 56.8 34.28 56.98C34.09 57.4 33.89 57.81 33.69 58.22C33.46 58.67 33.55 59.29 34.04 59.55C34.48 59.78 35.13 59.69 35.37 59.2C36.22 57.49 36.94 55.71 37.5 53.88C37.65 53.4 37.32 52.8 36.82 52.68C36.29 52.56 35.79 52.84 35.62 53.37Z" fill="#13202B" fill-opacity="1.000000" fill-rule="nonzero"/>
		</g>
	</g>
	<g mask="url(#mask1_14233)">
		<g style="mix-blend-mode:normal">
			<path id="Path 31790" d="M25.75 50.19C25.47 50.98 25.16 51.75 24.85 52.52C24.8 52.63 24.71 52.84 24.66 52.95C24.58 53.14 24.5 53.33 24.41 53.52C24.24 53.9 24.06 54.28 23.88 54.66C23.66 55.11 23.74 55.73 24.23 55.99C24.67 56.22 25.33 56.13 25.56 55.64C26.34 54.03 27.03 52.39 27.62 50.71C27.79 50.23 27.43 49.62 26.94 49.51C26.4 49.38 25.93 49.67 25.75 50.19Z" fill="#13202B" fill-opacity="1.000000" fill-rule="nonzero"/>
		</g>
	</g>
	<g mask="url(#mask1_14233)">
		<g style="mix-blend-mode:normal">
			<path id="Path 31791" d="" fill="#13202B" fill-opacity="1.000000" fill-rule="nonzero"/>
		</g>
	</g>
	<g mask="url(#mask1_14233)">
		<g style="mix-blend-mode:normal">
			<path id="Path 31792" d="" fill="#13202B" fill-opacity="1.000000" fill-rule="nonzero"/>
		</g>
	</g>
	<g mask="url(#mask1_14233)">
		<g style="mix-blend-mode:normal">
			<path id="Path 31793" d="M17.11 48.73C17.27 48.35 17.44 47.98 17.62 47.62C17.84 47.16 17.76 46.54 17.27 46.29C16.83 46.05 16.18 46.15 15.94 46.63C15.17 48.2 14.54 49.83 14.07 51.51C13.93 52 14.24 52.59 14.75 52.71C15.27 52.83 15.8 52.55 15.95 52.03C16.17 51.24 16.42 50.47 16.71 49.71C16.78 49.52 16.86 49.33 16.93 49.14C16.96 49.07 16.99 49.01 17.01 48.95C16.99 49 17.09 48.76 17.11 48.73Z" fill="#13202B" fill-opacity="1.000000" fill-rule="nonzero"/>
		</g>
	</g>
	<g mask="url(#mask1_14233)">
		<g style="mix-blend-mode:normal">
			<path id="Path 31794" d="M6.39 43.21C5.72 44.86 5.11 46.54 4.57 48.23C4.41 48.72 4.75 49.32 5.25 49.43C5.78 49.55 6.28 49.27 6.45 48.75C6.99 47.05 7.6 45.38 8.27 43.73C8.46 43.25 8.06 42.64 7.59 42.53C7.02 42.4 6.6 42.7 6.39 43.21Z" fill="#13202B" fill-opacity="1.000000" fill-rule="nonzero"/>
		</g>
	</g>
</svg>
