<svg width="237.167969" height="148.648438" viewBox="0 0 237.168 148.648" fill="none" xmlns="http://www.w3.org/2000/svg" xmlns:xlink="http://www.w3.org/1999/xlink">
	<desc>
			Created with Pixso.
	</desc>
	<defs/>
	<mask id="mask1_11114" mask-type="alpha" maskUnits="userSpaceOnUse" x="0.000000" y="0.000000" width="237.167969" height="148.648438">
		<g style="mix-blend-mode:normal">
			<rect id="Rectangle 3653" width="237.168213" height="148.648438" fill="#C4C4C4" fill-opacity="1.000000"/>
		</g>
	</mask>
	<g mask="url(#mask1_11114)">
		<g style="mix-blend-mode:normal">
			<path id="Path 30854" d="M12.19 56.2C19.66 62.06 30.43 68.52 44.23 75.41C45.37 144.8 133.13 174.95 176.66 120.91C250.35 137.31 257.84 108.12 193 77.5C195.7 3.47 100.76 -28.79 57.78 31.48C43.9 29.11 5.99 21.16 0.5 36.1C-1.48 41.9 2.34 48.47 12.19 56.2Z" fill="#F2E8CF" fill-opacity="1.000000" fill-rule="nonzero"/>
		</g>
	</g>
	<g mask="url(#mask1_11114)">
		<g style="mix-blend-mode:normal">
			<path id="Path 30855" d="M118.65 144.95C117.64 144.95 116.64 144.93 115.65 144.89C106.75 144.52 98.12 142.51 90.02 138.91C82.67 135.66 75.97 131.19 70.1 125.63C64.35 120.19 59.6 113.91 55.98 106.96C51.43 98.22 48.77 88.71 48.15 78.85C48.05 77.32 48 75.79 48 74.31C48 73.94 48 73.57 48.02 73.21C48.16 62.95 50.47 53.07 54.89 43.85C58.25 36.82 62.73 30.43 68.23 24.84C73.67 19.28 79.96 14.68 86.91 11.18C95.79 6.71 105.34 4.21 115.3 3.75C116.47 3.69 117.57 3.67 118.65 3.67C130.11 3.67 141.03 6.32 151.12 11.56C158.14 15.2 164.48 19.97 169.96 25.76C175.55 31.66 180.04 38.42 183.32 45.85C187.25 54.76 189.26 64.27 189.29 74.11L189.29 74.31C189.29 75.79 189.24 77.15 189.16 78.47C188.63 87.77 186.3 96.73 182.24 105.1C178.68 112.44 173.92 119.05 168.08 124.77C162.2 130.53 155.45 135.18 148.01 138.58C139.87 142.31 131.16 144.43 122.15 144.87C120.94 144.93 119.76 144.95 118.65 144.95ZM57.97 106.02C61.47 112.72 66.06 118.78 71.61 124.03C77.3 129.42 83.79 133.75 90.91 136.9C98.76 140.39 107.12 142.34 115.75 142.69C117.77 142.78 119.83 142.78 122.04 142.67C130.77 142.25 139.21 140.19 147.1 136.58C154.3 133.28 160.84 128.78 166.54 123.2C172.2 117.66 176.82 111.25 180.26 104.14C184.19 96.04 186.45 87.35 186.97 78.34C187.05 77.06 187.09 75.74 187.09 74.31L187.09 74.12C187.06 64.58 185.11 55.37 181.31 46.74C178.13 39.54 173.78 32.99 168.36 27.27C163.05 21.66 156.91 17.03 150.11 13.51C140.33 8.44 129.75 5.87 118.65 5.87C117.6 5.87 116.54 5.89 115.4 5.95C105.75 6.39 96.5 8.81 87.9 13.14C81.16 16.54 75.07 20.99 69.79 26.38C64.47 31.79 60.12 37.99 56.87 44.8C52.59 53.73 50.35 63.3 50.21 73.27C50.2 73.63 50.2 73.97 50.2 74.31C50.2 75.75 50.25 77.23 50.34 78.71C50.94 88.29 53.53 97.53 57.97 106.02Z" fill="#1D1D1B" fill-opacity="1.000000" fill-rule="nonzero"/>
		</g>
	</g>
	<g mask="url(#mask1_11114)">
		<g style="mix-blend-mode:normal">
			<path id="Path 30856" d="M156.41 76.16C150.81 69.91 144.98 63.75 139.06 57.83C132.61 64.23 126.21 70.62 120.67 76.16C126.2 81.69 132.6 88.07 139.05 94.48C144.96 88.6 150.78 82.44 156.41 76.16Z" fill="#F2E8CF" fill-opacity="1.000000" fill-rule="nonzero"/>
		</g>
	</g>
	<g mask="url(#mask1_11114)">
		<g style="mix-blend-mode:normal">
			<path id="Path 30857" d="M117.38 114.73C111.16 109.22 105.07 103.49 99.25 97.66C93.48 103.47 87.49 109.52 81.01 116.09C86.25 121.35 91.93 126.3 97.92 130.81C104.53 125.66 111.06 120.26 117.38 114.73Z" fill="#F2E8CF" fill-opacity="1.000000" fill-rule="nonzero"/>
		</g>
	</g>
	<g mask="url(#mask1_11114)">
		<g style="mix-blend-mode:normal">
			<path id="Path 30858" d="M137.49 96.03C131.04 89.62 124.65 83.24 119.12 77.72C113 83.84 106.9 89.97 100.8 96.1C106.65 101.97 112.78 107.74 119.05 113.27C125.35 107.71 131.54 101.92 137.49 96.03Z" fill="#F3423E" fill-opacity="1.000000" fill-rule="nonzero"/>
		</g>
	</g>
	<g mask="url(#mask1_11114)">
		<g style="mix-blend-mode:normal">
			<path id="Path 30859" d="M148.49 12.7C140.38 8.76 131.73 6.5 122.7 5.98C122.2 6.25 121.7 6.51 121.2 6.78C127.82 10.51 134.17 14.59 140.1 18.93C142.93 16.78 145.74 14.69 148.49 12.7Z" fill="#F2E8CF" fill-opacity="1.000000" fill-rule="nonzero"/>
		</g>
	</g>
	<g mask="url(#mask1_11114)">
		<g style="mix-blend-mode:normal">
			<path id="Path 30860" d="M97.7 96.1C91.89 90.22 86.21 84.09 80.76 77.84C75.35 84.13 70.06 90.69 65.02 97.35C69.46 103.45 74.32 109.22 79.47 114.53C85.95 107.96 91.93 101.91 97.7 96.1Z" fill="#FECC34" fill-opacity="1.000000" fill-rule="nonzero"/>
		</g>
	</g>
	<g mask="url(#mask1_11114)">
		<g style="mix-blend-mode:normal">
			<path id="Path 30861" d="M159.06 34.93C161.91 32.12 164.75 29.31 167.6 26.51C162.62 21.41 156.95 17.15 150.69 13.83C147.83 15.88 144.89 18.05 141.94 20.3C147.98 24.82 153.72 29.74 159.06 34.93Z" fill="#FD58A9" fill-opacity="1.000000" fill-rule="nonzero"/>
		</g>
	</g>
	<g mask="url(#mask1_11114)">
		<g style="mix-blend-mode:normal">
			<path id="Path 30862" d="M174.1 55.14C169.44 49.07 164.39 43.32 159.06 38.02C152.9 44.1 146.76 50.19 140.62 56.29C146.51 62.17 152.31 68.29 157.88 74.51C163.39 68.29 168.84 61.79 174.1 55.14Z" fill="#3B28FF" fill-opacity="1.000000" fill-rule="nonzero"/>
		</g>
	</g>
	<g mask="url(#mask1_11114)">
		<g style="mix-blend-mode:normal">
			<path id="Path 30863" d="M175.51 53.36C177.32 51.05 179.17 48.64 181.04 46.16C178.04 39.53 174.03 33.47 169.11 28.1C166.28 30.89 163.45 33.68 160.62 36.47C165.89 41.72 170.88 47.39 175.51 53.36Z" fill="#F2E8CF" fill-opacity="1.000000" fill-rule="nonzero"/>
		</g>
	</g>
	<g mask="url(#mask1_11114)">
		<g style="mix-blend-mode:normal">
			<path id="Path 30864" d="M100.8 56.21C106.89 62.35 113 68.49 119.12 74.6C124.66 69.07 131.06 62.68 137.5 56.28C131.61 50.46 125.42 44.67 119.05 39.04C112.78 44.58 106.65 50.35 100.8 56.21Z" fill="#FECC34" fill-opacity="1.000000" fill-rule="nonzero"/>
		</g>
	</g>
	<g mask="url(#mask1_11114)">
		<g style="mix-blend-mode:normal">
			<path id="Path 30865" d="M157.49 36.47C152.09 31.22 146.26 26.25 140.13 21.69C133.51 26.76 126.99 32.1 120.71 37.58C127.04 43.18 133.21 48.94 139.06 54.74C145.2 48.64 151.34 42.55 157.49 36.47Z" fill="#F2E8CF" fill-opacity="1.000000" fill-rule="nonzero"/>
		</g>
	</g>
	<g mask="url(#mask1_11114)">
		<g style="mix-blend-mode:normal">
			<path id="Path 30866" d="M119.05 36.12C125.27 30.68 131.73 25.38 138.29 20.33C132.2 15.91 125.69 11.77 118.89 8C112.15 11.69 105.72 15.77 99.75 20.14C106.38 25.33 112.86 30.69 119.05 36.12Z" fill="#0DBB99" fill-opacity="1.000000" fill-rule="nonzero"/>
		</g>
	</g>
	<g mask="url(#mask1_11114)">
		<g style="mix-blend-mode:normal">
			<path id="Path 30867" d="M81.01 36.22C87.37 42.68 93.73 49.1 99.25 54.65C105.06 48.82 111.15 43.09 117.38 37.58C111.14 32.12 104.6 26.71 97.92 21.5C91.95 26.01 86.26 30.95 81.01 36.22Z" fill="#F2E8CF" fill-opacity="1.000000" fill-rule="nonzero"/>
		</g>
	</g>
	<g mask="url(#mask1_11114)">
		<g style="mix-blend-mode:normal">
			<path id="Path 30868" d="M51.83 76.16C55.43 82.96 59.41 89.45 63.68 95.48C68.69 88.88 73.94 82.39 79.31 76.16C73.95 69.94 68.7 63.45 63.67 56.83C59.38 62.91 55.4 69.4 51.83 76.16Z" fill="#F2E8CF" fill-opacity="1.000000" fill-rule="nonzero"/>
		</g>
	</g>
	<g mask="url(#mask1_11114)">
		<g style="mix-blend-mode:normal">
			<path id="Path 30869" d="M65.01 54.96C70.07 61.65 75.36 68.2 80.76 74.48C86.21 68.22 91.89 62.09 97.7 56.21C92.18 50.66 85.83 44.24 79.47 37.79C74.31 43.11 69.45 48.88 65.01 54.96Z" fill="#FD58A9" fill-opacity="1.000000" fill-rule="nonzero"/>
		</g>
	</g>
	<g mask="url(#mask1_11114)">
		<g style="mix-blend-mode:normal">
			<path id="Path 30870" d="M82.21 76.16C87.68 82.45 93.41 88.63 99.25 94.54C105.35 88.41 111.45 82.28 117.57 76.16C111.45 70.04 105.35 63.91 99.25 57.77C93.4 63.69 87.68 69.86 82.21 76.16Z" fill="#F2E8CF" fill-opacity="1.000000" fill-rule="nonzero"/>
		</g>
	</g>
	<g mask="url(#mask1_11114)">
		<g style="mix-blend-mode:normal">
			<path id="Path 30871" d="M116.59 6.76C116.1 6.5 115.6 6.23 115.1 5.96C106.16 6.41 97.56 8.56 89.52 12.36C92.36 14.46 95.19 16.59 97.95 18.73C103.77 14.43 110.03 10.42 116.59 6.76Z" fill="#F2E8CF" fill-opacity="1.000000" fill-rule="nonzero"/>
		</g>
	</g>
	<g mask="url(#mask1_11114)">
		<g style="mix-blend-mode:normal">
			<path id="Path 30872" d="M176.88 55.17C180.45 59.88 183.81 64.84 186.95 69.94C186.48 62.52 184.84 55.32 182.04 48.48C180.3 50.78 178.57 53.02 176.88 55.17Z" fill="#F3423E" fill-opacity="1.000000" fill-rule="nonzero"/>
		</g>
	</g>
	<g mask="url(#mask1_11114)">
		<g style="mix-blend-mode:normal">
			<path id="Path 30873" d="M92.66 137.63C98.55 140.05 104.7 141.62 111.03 142.32C106.5 139.58 102.13 136.65 97.96 133.58C96.2 134.94 94.43 136.3 92.66 137.63Z" fill="#F2E8CF" fill-opacity="1.000000" fill-rule="nonzero"/>
		</g>
	</g>
	<g mask="url(#mask1_11114)">
		<g style="mix-blend-mode:normal">
			<path id="Path 30874" d="M79.47 117.66L72.44 124.79C77.77 129.67 83.78 133.65 90.33 136.63C92.26 135.19 94.2 133.71 96.13 132.21C90.23 127.73 84.64 122.85 79.47 117.66Z" fill="#0DBB99" fill-opacity="1.000000" fill-rule="nonzero"/>
		</g>
	</g>
	<g mask="url(#mask1_11114)">
		<g style="mix-blend-mode:normal">
			<path id="Path 30875" d="M96.13 20.1C93.23 17.87 90.28 15.64 87.31 13.46C81.13 16.65 75.51 20.73 70.57 25.62C73.53 28.63 76.5 31.65 79.47 34.65C84.65 29.46 90.24 24.57 96.13 20.1Z" fill="#F3423E" fill-opacity="1.000000" fill-rule="nonzero"/>
		</g>
	</g>
	<g mask="url(#mask1_11114)">
		<g style="mix-blend-mode:normal">
			<path id="Path 30876" d="M62.28 54.99C60.19 52.21 58.12 49.36 56.08 46.5C52.36 54.86 50.39 63.76 50.22 73C50.35 73.26 50.48 73.53 50.61 73.79C54.15 67.21 58.07 60.9 62.28 54.99Z" fill="#FECC34" fill-opacity="1.000000" fill-rule="nonzero"/>
		</g>
	</g>
	<g mask="url(#mask1_11114)">
		<g style="mix-blend-mode:normal">
			<path id="Path 30877" d="M77.92 36.22C74.96 33.22 71.99 30.2 69.03 27.19C64.21 32.26 60.22 37.98 57.16 44.23C59.27 47.22 61.44 50.2 63.63 53.13C68.03 47.15 72.83 41.47 77.92 36.22Z" fill="#F2E8CF" fill-opacity="1.000000" fill-rule="nonzero"/>
		</g>
	</g>
	<g mask="url(#mask1_11114)">
		<g style="mix-blend-mode:normal">
			<path id="Path 30878" d="M50.61 78.54C50.53 78.7 50.45 78.86 50.37 79.02C50.96 87.89 53.23 96.4 57.12 104.34C58.87 101.91 60.6 99.55 62.28 97.32C58.09 91.45 54.18 85.14 50.61 78.54Z" fill="#0DBB99" fill-opacity="1.000000" fill-rule="nonzero"/>
		</g>
	</g>
	<g mask="url(#mask1_11114)">
		<g style="mix-blend-mode:normal">
			<path id="Path 30879" d="M63.64 99.18C61.88 101.52 60.08 103.99 58.25 106.54C61.55 112.72 65.79 118.34 70.84 123.28L77.93 116.09C72.84 110.86 68.04 105.18 63.64 99.18Z" fill="#F2E8CF" fill-opacity="1.000000" fill-rule="nonzero"/>
		</g>
	</g>
	<g mask="url(#mask1_11114)">
		<g style="mix-blend-mode:normal">
			<path id="Path 30880" d="M183.32 45.85C180.04 38.42 175.55 31.66 169.96 25.76C164.48 19.97 158.14 15.2 151.12 11.56C141.03 6.32 130.11 3.67 118.65 3.67C117.57 3.67 116.47 3.69 115.3 3.75C105.34 4.21 95.79 6.71 86.91 11.18C79.97 14.68 73.69 19.27 68.24 24.82C62.75 30.41 58.25 36.82 54.89 43.85C50.47 53.07 48.16 62.95 48.02 73.21C48 73.57 48 73.94 48 74.31C48 75.79 48.05 77.32 48.15 78.85C48.77 88.71 51.39 98.14 55.94 106.89C59.56 113.83 64.34 120.18 70.08 125.61C75.95 131.17 82.67 135.66 90.02 138.91C98.13 142.51 106.75 144.52 115.65 144.89C116.64 144.93 117.64 144.95 118.65 144.95C119.76 144.95 120.94 144.93 122.15 144.87C131.16 144.43 139.87 142.31 148.01 138.58C155.45 135.18 162.2 130.53 168.08 124.77C173.89 119.08 178.65 112.48 182.19 105.19C186.25 96.82 188.63 87.77 189.16 78.47C189.24 77.15 189.29 75.79 189.29 74.31L189.29 74.12C189.26 64.27 187.25 54.76 183.32 45.85ZM188.19 74.31C188.19 75.68 188.15 77.04 188.06 78.4C187.53 87.75 185.13 96.62 181.25 104.62C177.74 111.87 173 118.41 167.31 123.98C161.59 129.59 154.92 134.21 147.55 137.57C139.74 141.16 131.14 143.33 122.09 143.77C120.96 143.83 119.8 143.85 118.65 143.85C117.66 143.85 116.68 143.83 115.7 143.79C106.75 143.42 98.23 141.36 90.46 137.9C83.18 134.68 76.56 130.23 70.86 124.83C65.26 119.54 60.54 113.34 56.95 106.45C52.59 98.09 49.87 88.71 49.25 78.78C49.15 77.3 49.1 75.81 49.1 74.31C49.1 73.96 49.1 73.6 49.11 73.25C49.26 62.91 51.67 53.11 55.88 44.33C59.2 37.37 63.66 31.05 69.01 25.61C74.33 20.18 80.54 15.62 87.41 12.16C95.87 7.9 105.33 5.31 115.35 4.85C116.44 4.8 117.54 4.77 118.65 4.77C130.17 4.77 141.04 7.57 150.61 12.53C157.56 16.13 163.82 20.88 169.16 26.52C174.6 32.26 179.07 38.94 182.31 46.29C186.07 54.81 188.16 64.22 188.19 74.12L188.19 74.31Z" fill="#1D1D1B" fill-opacity="1.000000" fill-rule="nonzero"/>
		</g>
	</g>
	<g mask="url(#mask1_11114)">
		<g style="mix-blend-mode:normal">
			<path id="Path 30881" d="M138.28 131.98C135.01 129.46 131.76 126.88 128.56 124.25C128.36 124.08 128.16 123.91 127.96 123.75C126.57 122.6 125.18 121.45 123.81 120.29C122.21 118.93 120.62 117.57 119.05 116.2C112.78 121.69 106.31 127.05 99.76 132.16C104.91 135.94 110.37 139.48 116.02 142.7C116.48 142.72 116.95 142.73 117.42 142.74C117.85 142.75 118.29 142.75 118.72 142.75C118.76 142.75 118.8 142.75 118.83 142.75C119.78 142.75 120.76 142.73 121.76 142.69C127.52 139.37 133.06 135.77 138.28 131.98Z" fill="#FD58A9" fill-opacity="1.000000" fill-rule="nonzero"/>
		</g>
	</g>
	<g mask="url(#mask1_11114)">
		<g style="mix-blend-mode:normal">
			<path id="Path 30882" d="M135.81 140.56C135.99 140.51 136.17 140.47 136.35 140.42C136.86 140.29 137.36 140.14 137.87 139.99C138.27 139.87 138.67 139.75 139.06 139.63C139.48 139.5 139.9 139.36 140.32 139.22C140.84 139.05 141.35 138.87 141.87 138.68C142.19 138.57 142.51 138.45 142.83 138.33C143.68 138.01 144.52 137.68 145.36 137.32C144.45 136.66 143.56 135.99 142.67 135.33C141.8 134.68 140.94 134.03 140.1 133.39C135.86 136.49 131.4 139.46 126.79 142.26C127.59 142.16 128.39 142.06 129.18 141.93C131.42 141.59 133.63 141.12 135.81 140.56Z" fill="#F2E8CF" fill-opacity="1.000000" fill-rule="nonzero"/>
		</g>
	</g>
	<g mask="url(#mask1_11114)">
		<g style="mix-blend-mode:normal">
			<path id="Path 30883" d="M173.9 96.93C171.36 93.72 168.76 90.53 166.12 87.38C166.07 87.32 166.02 87.25 165.96 87.19C164.67 85.64 163.36 84.11 162.05 82.59C160.67 80.98 159.27 79.39 157.88 77.81C152.28 84.06 146.48 90.18 140.61 96.03C141.44 96.86 142.27 97.68 143.08 98.49C143.58 98.98 144.06 99.46 144.55 99.94C144.86 100.25 145.17 100.56 145.48 100.87C146.14 101.51 146.78 102.15 147.42 102.79C147.56 102.92 147.69 103.06 147.82 103.19C148.52 103.87 149.2 104.56 149.89 105.23C149.97 105.32 150.06 105.4 150.14 105.48C150.81 106.14 151.47 106.8 152.13 107.45L152.44 107.76C154.69 109.98 156.89 112.15 159.06 114.3C164.4 108.96 169.46 103.21 174.1 97.18C174.04 97.09 173.97 97.01 173.9 96.93Z" fill="#0DBB99" fill-opacity="1.000000" fill-rule="nonzero"/>
		</g>
	</g>
	<g mask="url(#mask1_11114)">
		<g style="mix-blend-mode:normal">
			<path id="Path 30884" d="M178.13 102.34C178 102.17 177.88 102.01 177.75 101.84C177.43 101.43 177.12 101.02 176.79 100.6C176.74 100.53 176.68 100.46 176.63 100.39C176.27 99.92 175.89 99.45 175.51 98.96C170.91 104.91 165.9 110.57 160.62 115.84C162.85 118.04 165.07 120.23 167.3 122.42C172.45 117.22 176.71 111.28 179.96 104.73C179.6 104.26 179.23 103.77 178.85 103.28C178.62 102.97 178.37 102.65 178.13 102.34Z" fill="#F2E8CF" fill-opacity="1.000000" fill-rule="nonzero"/>
		</g>
	</g>
	<g mask="url(#mask1_11114)">
		<g style="mix-blend-mode:normal">
			<path id="Path 30885" d="M159.35 76.16C160.75 77.73 162.14 79.33 163.52 80.93C164.73 82.32 165.92 83.73 167.11 85.15C167.26 85.32 167.41 85.49 167.56 85.67C170.24 88.86 172.88 92.1 175.46 95.36C179.57 89.89 183.45 84.1 186.98 78.07C187.01 77.49 187.04 76.91 187.06 76.3C187.07 75.7 187.09 75.06 187.09 74.42C183.54 68.37 179.63 62.5 175.47 56.95C170.23 63.54 164.82 70 159.35 76.16Z" fill="#F2E8CF" fill-opacity="1.000000" fill-rule="nonzero"/>
		</g>
	</g>
	<g mask="url(#mask1_11114)">
		<g style="mix-blend-mode:normal">
			<path id="Path 30886" d="M176.9 97.16C177.26 97.63 177.62 98.09 177.97 98.54C178.31 98.97 178.68 99.45 179 99.86C179.09 99.98 179.17 100.08 179.25 100.19C179.51 100.52 179.76 100.85 180.01 101.17C180.35 101.62 180.68 102.06 181.01 102.49C181.4 101.62 181.77 100.75 182.13 99.87C182.26 99.54 182.39 99.2 182.52 98.86C182.72 98.33 182.92 97.8 183.11 97.27C183.27 96.83 183.42 96.39 183.57 95.95C183.7 95.54 183.83 95.14 183.96 94.73C184.13 94.19 184.29 93.66 184.45 93.12C184.51 92.92 184.56 92.71 184.62 92.5C185.46 89.42 186.1 86.29 186.51 83.1C183.49 87.96 180.28 92.68 176.9 97.16Z" fill="#FECC34" fill-opacity="1.000000" fill-rule="nonzero"/>
		</g>
	</g>
	<g mask="url(#mask1_11114)">
		<g style="mix-blend-mode:normal">
			<path id="Path 30887" d="M141.94 132.03C142.83 132.7 143.74 133.39 144.66 134.07C144.75 134.14 144.84 134.21 144.93 134.27C145.83 134.95 146.75 135.62 147.67 136.3C154.32 133.19 160.38 129.04 165.73 123.96C163.5 121.77 161.28 119.58 159.06 117.39C153.73 122.57 147.98 127.49 141.94 132.03Z" fill="#FECC34" fill-opacity="1.000000" fill-rule="nonzero"/>
		</g>
	</g>
	<g mask="url(#mask1_11114)">
		<g style="mix-blend-mode:normal">
			<path id="Path 30888" d="M155.31 113.68C154.59 112.98 153.82 112.21 153.09 111.5C151.67 110.08 150.13 108.56 148.66 107.11C148.42 106.87 148.17 106.63 147.93 106.39C147.38 105.85 146.83 105.3 146.27 104.75C146.11 104.58 145.94 104.41 145.77 104.25C145.16 103.64 144.54 103.03 143.92 102.42C143.53 102.03 143.13 101.63 142.73 101.24C142.34 100.84 141.95 100.46 141.55 100.06C140.73 99.24 139.89 98.42 139.05 97.58C133.14 103.44 126.98 109.2 120.71 114.73C122.29 116.1 123.88 117.47 125.49 118.83C127.01 120.12 128.55 121.39 130.1 122.66C130.16 122.72 130.22 122.77 130.29 122.82C133.44 125.41 136.64 127.95 139.88 130.44C139.96 130.5 140.05 130.57 140.13 130.64C146.26 126.06 152.09 121.09 157.49 115.84C156.77 115.13 156.04 114.41 155.31 113.68Z" fill="#F2E8CF" fill-opacity="1.000000" fill-rule="nonzero"/>
		</g>
	</g>
	<g mask="url(#mask1_11114)">
		<g style="mix-blend-mode:normal">
			<path id="Path 30889" d="M188.11 77.31C188.16 76.31 188.19 75.31 188.19 74.31L188.19 74.12C188.16 64.22 186.07 54.81 182.31 46.29C179.07 38.94 174.6 32.26 169.16 26.52C163.82 20.88 157.56 16.13 150.61 12.53C141.04 7.57 130.17 4.77 118.65 4.77C117.54 4.77 116.44 4.8 115.35 4.85C105.33 5.31 95.87 7.9 87.41 12.16C80.54 15.62 74.33 20.18 69.01 25.61C63.66 31.05 59.21 37.37 55.88 44.33C51.67 53.11 49.26 62.91 49.11 73.25C49.1 73.6 49.1 73.96 49.1 74.31C49.1 75.81 49.15 77.3 49.25 78.78C49.87 88.71 52.59 98.09 56.96 106.45C60.54 113.34 65.26 119.54 70.86 124.83C76.56 130.23 83.18 134.68 90.46 137.91C98.23 141.36 106.75 143.42 115.7 143.79C116.68 143.83 117.66 143.85 118.65 143.85C119.44 143.85 120.22 143.84 121 143.81C121.02 144.07 121.11 144.33 121.31 144.53C121.52 144.75 121.81 144.86 122.1 144.86C122.3 144.86 122.5 144.81 122.68 144.7C123.3 144.34 123.92 143.96 124.54 143.59C132.69 142.91 140.45 140.83 147.56 137.58C154.92 134.21 161.59 129.59 167.31 123.98C173 118.41 177.74 111.87 181.25 104.62C184.79 97.32 187.09 89.3 187.88 80.84C188.25 80.21 188.64 79.59 189.01 78.96C189.11 78.79 189.16 78.6 189.16 78.4C189.16 77.81 188.7 77.33 188.11 77.31ZM186.95 69.94C183.81 64.84 180.45 59.88 176.88 55.17C178.57 53.02 180.3 50.78 182.04 48.48C184.84 55.32 186.48 62.52 186.95 69.94ZM181.04 46.16C179.17 48.64 177.32 51.05 175.51 53.36C170.88 47.39 165.88 41.72 160.62 36.47C163.45 33.68 166.28 30.89 169.11 28.1C174.03 33.47 178.04 39.53 181.04 46.16ZM137.5 56.29C131.06 62.68 124.66 69.07 119.12 74.61C113 68.49 106.89 62.35 100.8 56.21C106.65 50.35 112.78 44.58 119.05 39.04C125.42 44.67 131.61 50.46 137.5 56.29ZM120.71 37.58C126.99 32.1 133.51 26.76 140.13 21.69C146.26 26.25 152.09 31.22 157.49 36.47C151.34 42.55 145.2 48.64 139.06 54.74C133.21 48.94 127.05 43.18 120.71 37.58ZM117.57 76.16C111.45 82.28 105.35 88.41 99.25 94.54C93.41 88.63 87.68 82.45 82.21 76.16C87.68 69.86 93.4 63.69 99.25 57.77C105.35 63.91 111.45 70.04 117.57 76.16ZM99.25 54.65C93.73 49.1 87.37 42.68 81.01 36.22C86.26 30.95 91.95 26.01 97.93 21.5C104.6 26.71 111.14 32.12 117.38 37.58C111.15 43.09 105.06 48.82 99.25 54.65ZM97.7 56.21C91.89 62.09 86.21 68.22 80.76 74.48C75.36 68.2 70.07 61.65 65.01 54.97C69.45 48.88 74.31 43.11 79.47 37.79C85.83 44.24 92.19 50.66 97.7 56.21ZM79.31 76.16C73.94 82.39 68.69 88.88 63.68 95.48C59.41 89.45 55.43 82.96 51.83 76.16C55.4 69.4 59.38 62.91 63.67 56.83C68.7 63.45 73.95 69.94 79.31 76.16ZM80.77 77.84C86.21 84.09 91.89 90.22 97.7 96.1C91.93 101.91 85.95 107.96 79.47 114.53C74.32 109.22 69.46 103.45 65.02 97.35C70.06 90.69 75.35 84.13 80.77 77.84ZM99.25 97.66C105.07 103.5 111.16 109.22 117.38 114.73C111.06 120.26 104.53 125.66 97.93 130.81C91.93 126.3 86.25 121.35 81.01 116.09C87.49 109.52 93.48 103.47 99.25 97.66ZM100.8 96.1C106.9 89.97 113 83.84 119.12 77.72C124.65 83.24 131.04 89.62 137.49 96.03C131.54 101.92 125.35 107.71 119.05 113.27C112.78 107.74 106.65 101.97 100.8 96.1ZM120.67 76.16C126.21 70.62 132.61 64.23 139.06 57.84C144.98 63.75 150.81 69.91 156.41 76.16C150.78 82.44 144.96 88.6 139.05 94.48C132.6 88.07 126.2 81.69 120.67 76.16ZM140.62 56.29C146.76 50.19 152.9 44.1 159.06 38.02C164.39 43.32 169.44 49.08 174.1 55.14C168.84 61.79 163.39 68.29 157.88 74.51C152.31 68.29 146.51 62.17 140.62 56.29ZM150.69 13.83C156.95 17.15 162.63 21.41 167.6 26.51C164.75 29.31 161.9 32.12 159.06 34.93C153.72 29.74 147.98 24.82 141.94 20.3C144.89 18.05 147.83 15.88 150.69 13.83ZM122.7 5.98C131.73 6.5 140.38 8.76 148.5 12.71C145.74 14.69 142.93 16.78 140.1 18.93C134.17 14.59 127.82 10.51 121.2 6.78C121.7 6.51 122.2 6.25 122.7 5.98ZM118.89 8C125.69 11.77 132.2 15.91 138.29 20.33C131.73 25.38 125.27 30.68 119.05 36.12C112.86 30.69 106.38 25.33 99.75 20.14C105.72 15.77 112.15 11.69 118.89 8ZM115.1 5.96C115.6 6.23 116.1 6.5 116.59 6.76C110.03 10.42 103.77 14.44 97.95 18.73C95.19 16.59 92.36 14.46 89.52 12.36C97.56 8.56 106.16 6.41 115.1 5.96ZM87.31 13.46C90.28 15.64 93.23 17.87 96.13 20.1C90.24 24.57 84.65 29.46 79.47 34.65C76.5 31.65 73.53 28.63 70.57 25.62C75.51 20.73 81.13 16.65 87.31 13.46ZM69.03 27.19C71.99 30.2 74.96 33.22 77.93 36.22C72.83 41.47 68.04 47.15 63.63 53.13C61.44 50.2 59.27 47.22 57.16 44.23C60.22 37.98 64.21 32.26 69.03 27.19ZM56.08 46.5C58.12 49.36 60.19 52.21 62.28 54.99C58.07 60.91 54.15 67.21 50.61 73.79C50.48 73.53 50.35 73.26 50.22 73C50.39 63.76 52.36 54.86 56.08 46.5ZM50.37 79.02C50.45 78.86 50.53 78.7 50.61 78.54C54.17 85.14 58.09 91.45 62.28 97.32C60.6 99.55 58.87 101.91 57.12 104.34C53.23 96.4 50.96 87.89 50.37 79.02ZM70.84 123.28C65.78 118.34 61.55 112.72 58.25 106.54C60.08 103.99 61.88 101.52 63.63 99.18C68.04 105.18 72.84 110.86 77.92 116.09L70.84 123.28ZM90.33 136.63C83.78 133.65 77.77 129.67 72.44 124.79L79.47 117.66C84.64 122.85 90.23 127.73 96.13 132.21C94.2 133.71 92.26 135.19 90.33 136.63ZM92.66 137.63C94.43 136.3 96.2 134.94 97.96 133.58C102.13 136.65 106.5 139.58 111.03 142.32C104.7 141.62 98.55 140.05 92.66 137.63ZM122.04 142.68C120.94 142.73 119.87 142.75 118.83 142.75C118.8 142.75 118.76 142.75 118.72 142.75C118.29 142.75 117.85 142.75 117.42 142.74C116.95 142.73 116.48 142.72 116.02 142.7C110.37 139.48 104.91 135.94 99.76 132.16C106.31 127.05 112.78 121.69 119.05 116.2C120.62 117.57 122.21 118.93 123.81 120.29C125.18 121.45 126.57 122.6 127.96 123.75C128.16 123.91 128.36 124.08 128.56 124.25C131.76 126.87 135.01 129.46 138.28 131.98C138.67 132.28 139.06 132.59 139.45 132.89C139.66 133.05 139.88 133.22 140.1 133.39C140.94 134.03 141.8 134.68 142.67 135.33C143.56 135.99 144.45 136.66 145.36 137.32C144.52 137.68 143.68 138.01 142.83 138.33C142.51 138.45 142.19 138.57 141.87 138.68C141.35 138.87 140.84 139.05 140.32 139.23C139.9 139.37 139.48 139.5 139.06 139.63C138.67 139.75 138.27 139.87 137.87 139.99C137.36 140.14 136.86 140.29 136.35 140.42C136.17 140.47 135.99 140.51 135.81 140.56C133.63 141.13 131.42 141.58 129.19 141.93C126.83 142.3 124.45 142.56 122.04 142.68ZM147.67 136.3C146.75 135.62 145.83 134.95 144.93 134.27C144.84 134.21 144.75 134.14 144.66 134.08C143.74 133.39 142.83 132.7 141.94 132.03C141.55 131.73 141.16 131.44 140.78 131.14C140.56 130.98 140.35 130.8 140.13 130.64C140.05 130.57 139.96 130.5 139.88 130.44C136.65 127.95 133.44 125.41 130.28 122.82C130.22 122.77 130.16 122.72 130.1 122.66C128.55 121.39 127.01 120.12 125.49 118.83C123.88 117.47 122.29 116.1 120.71 114.73C126.98 109.2 133.14 103.44 139.05 97.58C139.89 98.42 140.73 99.24 141.55 100.06C141.95 100.46 142.34 100.84 142.73 101.24C143.13 101.63 143.53 102.03 143.92 102.42C144.54 103.03 145.16 103.64 145.77 104.25L146.28 104.75C146.83 105.3 147.38 105.85 147.93 106.39C148.17 106.63 148.42 106.87 148.66 107.11C150.13 108.56 151.57 109.99 153 111.4C153.72 112.12 154.54 112.93 155.26 113.63C155.99 114.36 156.77 115.13 157.49 115.84C157.76 116.1 158.03 116.37 158.29 116.63C158.55 116.88 158.8 117.13 159.06 117.39C161.28 119.58 163.5 121.77 165.73 123.96C160.38 129.04 154.32 133.19 147.67 136.3ZM167.3 122.42C164.81 119.97 162.32 117.52 159.84 115.06C159.58 114.81 159.32 114.55 159.06 114.3C156.89 112.16 154.69 109.98 152.44 107.76C152.34 107.66 152.24 107.56 152.13 107.45C151.47 106.8 150.81 106.14 150.14 105.48L149.89 105.23C149.2 104.56 148.52 103.88 147.82 103.19C147.69 103.06 147.56 102.92 147.42 102.79C146.78 102.15 146.14 101.52 145.49 100.87C145.18 100.56 144.86 100.25 144.55 99.94C144.06 99.46 143.58 98.98 143.08 98.49C142.27 97.68 141.44 96.86 140.61 96.03C146.48 90.18 152.28 84.06 157.88 77.81C159.27 79.39 160.67 80.98 162.05 82.59C163.36 84.11 164.67 85.64 165.96 87.19C166.02 87.25 166.07 87.32 166.12 87.38C168.77 90.53 171.36 93.72 173.9 96.93C173.97 97.01 174.04 97.09 174.11 97.18C174.28 97.4 174.46 97.62 174.64 97.85C174.94 98.23 175.22 98.59 175.51 98.96C175.89 99.44 176.27 99.92 176.63 100.39C176.68 100.46 176.74 100.53 176.79 100.6C177.12 101.02 177.43 101.43 177.75 101.84C177.88 102.01 178 102.17 178.13 102.34C178.37 102.66 178.62 102.97 178.85 103.28C179.23 103.77 179.6 104.26 179.96 104.73C176.71 111.28 172.45 117.22 167.3 122.42ZM187.06 76.28C187.04 76.88 187.02 77.49 186.98 78.07C186.98 78.16 186.97 78.25 186.97 78.34C186.87 79.94 186.71 81.52 186.51 83.1C186.1 86.29 185.47 89.42 184.62 92.5C184.56 92.71 184.51 92.92 184.45 93.12C184.29 93.66 184.13 94.19 183.96 94.73C183.83 95.14 183.7 95.54 183.57 95.95C183.42 96.39 183.27 96.83 183.11 97.27C182.92 97.8 182.72 98.33 182.52 98.87C182.39 99.2 182.26 99.54 182.13 99.87C181.77 100.75 181.4 101.62 181.01 102.49C180.68 102.06 180.35 101.62 180.01 101.17C179.76 100.85 179.51 100.52 179.25 100.19C179.17 100.08 179.09 99.98 179 99.86C178.68 99.45 178.35 99.02 178.01 98.59C177.66 98.14 177.26 97.63 176.9 97.16C176.72 96.94 176.55 96.72 176.37 96.49C176.07 96.11 175.76 95.73 175.46 95.36C172.88 92.1 170.24 88.87 167.56 85.67C167.41 85.5 167.26 85.32 167.11 85.15C165.92 83.73 164.73 82.32 163.52 80.93C162.14 79.33 160.75 77.74 159.35 76.16C164.82 70 170.23 63.54 175.47 56.95C179.63 62.5 183.54 68.37 187.09 74.43C187.09 75.06 187.08 75.68 187.06 76.28Z" fill="#1D1D1B" fill-opacity="1.000000" fill-rule="nonzero"/>
		</g>
	</g>
	<g mask="url(#mask1_11114)">
		<g style="mix-blend-mode:normal">
			<path id="Path 30890" d="M127.96 123.75C128.16 123.91 128.36 124.08 128.56 124.25C128.36 124.08 128.16 123.91 127.96 123.75Z" fill="#1D1D1B" fill-opacity="1.000000" fill-rule="nonzero"/>
		</g>
	</g>
	<g mask="url(#mask1_11114)">
		<g style="mix-blend-mode:normal">
			<path id="Path 30891" d="M119.05 116.2C120.62 117.57 122.21 118.93 123.81 120.29C122.21 118.93 120.62 117.57 119.05 116.2Z" fill="#1D1D1B" fill-opacity="1.000000" fill-rule="nonzero"/>
		</g>
	</g>
	<g mask="url(#mask1_11114)">
		<g style="mix-blend-mode:normal">
			<path id="Path 30892" d="M142.83 138.33C142.51 138.45 142.19 138.57 141.87 138.68C142.19 138.57 142.51 138.45 142.83 138.33Z" fill="#1D1D1B" fill-opacity="1.000000" fill-rule="nonzero"/>
		</g>
	</g>
	<g mask="url(#mask1_11114)">
		<g style="mix-blend-mode:normal">
			<path id="Path 30893" d="M118.72 142.75C118.29 142.75 117.85 142.75 117.42 142.74C117.85 142.75 118.29 142.75 118.72 142.75Z" fill="#1D1D1B" fill-opacity="1.000000" fill-rule="nonzero"/>
		</g>
	</g>
	<g mask="url(#mask1_11114)">
		<g style="mix-blend-mode:normal">
			<path id="Path 30894" d="M142.67 135.33C143.56 135.99 144.45 136.66 145.36 137.32C144.45 136.66 143.56 135.99 142.67 135.33Z" fill="#1D1D1B" fill-opacity="1.000000" fill-rule="nonzero"/>
		</g>
	</g>
	<g mask="url(#mask1_11114)">
		<g style="mix-blend-mode:normal">
			<path id="Path 30895" d="M140.1 133.39C139.88 133.22 139.66 133.05 139.45 132.89C139.06 132.59 138.67 132.28 138.28 131.98C133.06 135.77 127.52 139.37 121.76 142.69C120.76 142.73 119.78 142.75 118.83 142.75C119.87 142.75 120.94 142.73 122.04 142.68C124.45 142.56 126.83 142.3 129.19 141.93C128.39 142.06 127.59 142.16 126.79 142.26C131.4 139.46 135.86 136.49 140.1 133.39Z" fill="#1D1D1B" fill-opacity="1.000000" fill-rule="nonzero"/>
		</g>
	</g>
	<g mask="url(#mask1_11114)">
		<g style="mix-blend-mode:normal">
			<path id="Path 30896" d="M137.87 139.99C137.36 140.14 136.86 140.29 136.35 140.42C136.86 140.29 137.36 140.14 137.87 139.99Z" fill="#1D1D1B" fill-opacity="1.000000" fill-rule="nonzero"/>
		</g>
	</g>
	<g mask="url(#mask1_11114)">
		<g style="mix-blend-mode:normal">
			<path id="Path 30897" d="M140.32 139.22C139.9 139.36 139.48 139.5 139.06 139.63C139.48 139.5 139.9 139.36 140.32 139.22Z" fill="#1D1D1B" fill-opacity="1.000000" fill-rule="nonzero"/>
		</g>
	</g>
	<g mask="url(#mask1_11114)">
		<g style="mix-blend-mode:normal">
			<path id="Path 30898" d="M135.81 140.56C133.63 141.12 131.42 141.58 129.19 141.93C131.42 141.58 133.63 141.13 135.81 140.56Z" fill="#1D1D1B" fill-opacity="1.000000" fill-rule="nonzero"/>
		</g>
	</g>
	<g mask="url(#mask1_11114)">
		<g style="mix-blend-mode:normal">
			<path id="Path 30899" d="M159.06 114.3C156.89 112.16 154.69 109.98 152.44 107.76C154.69 109.98 156.89 112.16 159.06 114.3Z" fill="#1D1D1B" fill-opacity="1.000000" fill-rule="nonzero"/>
		</g>
	</g>
	<g mask="url(#mask1_11114)">
		<g style="mix-blend-mode:normal">
			<path id="Path 30900" d="M175.51 98.95C175.22 98.59 174.94 98.23 174.64 97.85C174.46 97.62 174.28 97.4 174.1 97.18C169.46 103.21 164.41 108.97 159.06 114.3C159.32 114.55 159.58 114.81 159.84 115.06C162.32 117.52 164.81 119.97 167.3 122.42C165.07 120.23 162.85 118.04 160.63 115.84C165.9 110.57 170.9 104.9 175.51 98.95Z" fill="#1D1D1B" fill-opacity="1.000000" fill-rule="nonzero"/>
		</g>
	</g>
	<g mask="url(#mask1_11114)">
		<g style="mix-blend-mode:normal">
			<path id="Path 30901" d="M166.12 87.38C168.76 90.53 171.36 93.72 173.9 96.93C171.36 93.72 168.77 90.53 166.12 87.38Z" fill="#1D1D1B" fill-opacity="1.000000" fill-rule="nonzero"/>
		</g>
	</g>
	<g mask="url(#mask1_11114)">
		<g style="mix-blend-mode:normal">
			<path id="Path 30902" d="M174.1 97.18C174.04 97.09 173.97 97.01 173.9 96.93C173.97 97.01 174.04 97.09 174.1 97.18Z" fill="#1D1D1B" fill-opacity="1.000000" fill-rule="nonzero"/>
		</g>
	</g>
	<g mask="url(#mask1_11114)">
		<g style="mix-blend-mode:normal">
			<path id="Path 30903" d="M175.46 95.36C175.76 95.73 176.07 96.11 176.37 96.49C176.55 96.72 176.72 96.93 176.9 97.16C180.28 92.68 183.49 87.96 186.51 83.1C186.71 81.52 186.87 79.94 186.97 78.34C186.97 78.25 186.97 78.16 186.98 78.07C183.45 84.1 179.57 89.89 175.46 95.36Z" fill="#1D1D1B" fill-opacity="1.000000" fill-rule="nonzero"/>
		</g>
	</g>
	<g mask="url(#mask1_11114)">
		<g style="mix-blend-mode:normal">
			<path id="Path 30904" d="M186.98 78.07C187.02 77.49 187.04 76.9 187.06 76.3C187.04 76.91 187.02 77.49 186.98 78.07Z" fill="#1D1D1B" fill-opacity="1.000000" fill-rule="nonzero"/>
		</g>
	</g>
	<g mask="url(#mask1_11114)">
		<g style="mix-blend-mode:normal">
			<path id="Path 30905" d="M186.51 83.1C186.1 86.28 185.46 89.42 184.62 92.5C185.47 89.42 186.1 86.28 186.51 83.1Z" fill="#1D1D1B" fill-opacity="1.000000" fill-rule="nonzero"/>
		</g>
	</g>
	<g mask="url(#mask1_11114)">
		<g style="mix-blend-mode:normal">
			<path id="Path 30906" d="M139.88 130.44C136.65 127.95 133.44 125.41 130.29 122.82C133.44 125.41 136.65 127.95 139.88 130.44Z" fill="#1D1D1B" fill-opacity="1.000000" fill-rule="nonzero"/>
		</g>
	</g>
	<g mask="url(#mask1_11114)">
		<g style="mix-blend-mode:normal">
			<path id="Path 30907" d="M158.29 116.63C158.03 116.37 157.76 116.1 157.49 115.84C152.09 121.09 146.26 126.06 140.13 130.64C140.35 130.8 140.56 130.98 140.78 131.14C141.16 131.44 141.55 131.73 141.94 132.03C147.98 127.49 153.73 122.57 159.06 117.39C158.8 117.13 158.55 116.88 158.29 116.63Z" fill="#1D1D1B" fill-opacity="1.000000" fill-rule="nonzero"/>
		</g>
	</g>
	<g mask="url(#mask1_11114)">
		<g style="mix-blend-mode:normal">
			<path id="Path 30908" d="M140.13 130.64C140.05 130.57 139.96 130.5 139.88 130.44C139.96 130.5 140.05 130.57 140.13 130.64Z" fill="#1D1D1B" fill-opacity="1.000000" fill-rule="nonzero"/>
		</g>
	</g>
	<g mask="url(#mask1_11114)">
		<g style="mix-blend-mode:normal">
			<path id="Path 30909" d="M187.92 80.43C187.73 82.71 187.42 84.95 187 87.15C196.72 92.9 202.01 97.74 201 100.69C198.56 107.81 160.26 101.16 115.45 85.84C70.64 70.52 36.29 52.32 38.72 45.2C39.69 42.39 46.24 41.72 56.59 42.89C57.64 40.83 58.78 38.83 60.02 36.9C29.15 30.63 7.6 30.43 5.12 37.68C1.1 49.45 48.66 76.37 111.36 97.81C174.06 119.25 228.15 127.09 232.18 115.33C234.7 107.95 216.95 94.63 187.92 80.43Z" fill="#3B28FF" fill-opacity="1.000000" fill-rule="nonzero"/>
		</g>
	</g>
	<g mask="url(#mask1_11114)">
		<g style="mix-blend-mode:normal">
			<path id="Path 30910" d="M39.8 48.96L39.94 49C38.8 47.52 38.37 46.24 38.72 45.2C39.69 42.39 46.24 41.72 56.59 42.89C57.64 40.83 58.78 38.83 60.02 36.9C45.67 33.99 33.35 32.39 24.01 32.23C24.44 40.89 39.8 48.96 39.8 48.96Z" fill="#2F20CC" fill-opacity="1.000000" fill-rule="nonzero"/>
		</g>
	</g>
	<g mask="url(#mask1_11114)">
		<g style="mix-blend-mode:normal">
			<path id="Path 30911" d="M187.92 80.43C187.72 82.71 187.42 84.95 187 87.15C196.72 92.9 202.01 97.74 201 100.69C200.55 102 198.87 102.85 196.17 103.25C208.3 105.36 215.76 103.27 220.3 99.24C212.58 93.5 201.48 87.06 187.92 80.43Z" fill="#2F20CC" fill-opacity="1.000000" fill-rule="nonzero"/>
		</g>
	</g>
	<g mask="url(#mask1_11114)">
		<g style="mix-blend-mode:normal">
			<path id="Path 30912" d="M214.7 121.86C191.42 121.86 150.06 112.2 111.01 98.85C54.69 79.59 -0.7 51.31 4.08 37.33C7.67 26.83 40.81 31.88 60.24 35.82C60.59 35.89 60.89 36.14 61.03 36.47C61.17 36.81 61.14 37.19 60.94 37.49C59.74 39.38 58.6 41.36 57.57 43.39C57.36 43.8 56.92 44.04 56.46 43.99C45 42.69 40.32 43.95 39.76 45.56C39.06 47.61 43.91 53.01 59.89 61.48C74.33 69.12 94.19 77.41 115.81 84.8C137.43 92.19 158.2 97.8 174.3 100.6C192.11 103.69 199.25 102.39 199.96 100.33C200.54 98.63 197.3 94.52 186.44 88.1C186.04 87.86 185.83 87.4 185.92 86.95C186.33 84.77 186.64 82.54 186.82 80.33C186.85 79.97 187.06 79.65 187.37 79.47C187.69 79.29 188.07 79.28 188.4 79.44C203.13 86.65 237 104.61 233.22 115.68C231.75 119.97 224.99 121.86 214.7 121.86ZM22.58 33.29C12.08 33.29 7.09 35.31 6.16 38.04C2.81 47.83 44.43 73.76 111.72 96.77C179 119.78 227.79 124.76 231.14 114.97C233.27 108.74 216.71 95.9 188.86 82.11C188.7 83.61 188.48 85.12 188.22 86.6C198.7 92.88 203.22 97.6 202.04 101.04C200.62 105.18 191.17 105.76 173.93 102.76C157.71 99.95 136.82 94.31 115.1 86.88C93.37 79.45 73.4 71.12 58.86 63.42C43.4 55.23 36.27 48.98 37.68 44.85C38.82 41.55 44.79 40.53 55.96 41.72C56.68 40.34 57.44 38.98 58.25 37.66C42.48 34.53 30.83 33.29 22.58 33.29Z" fill="#1D1D1B" fill-opacity="1.000000" fill-rule="nonzero"/>
		</g>
	</g>
</svg>
