<svg width="213.673584" height="242.627441" viewBox="0 0 213.674 242.627" fill="none" xmlns="http://www.w3.org/2000/svg" xmlns:xlink="http://www.w3.org/1999/xlink">
	<desc>
			Created with Pixso.
	</desc>
	<defs/>
	<mask id="mask1_14032" mask-type="alpha" maskUnits="userSpaceOnUse" x="0.000000" y="0.000000" width="213.673584" height="242.627441">
		<g style="mix-blend-mode:normal">
			<rect id="Rectangle 3715" x="66.039612" width="156.140717" height="202.844238" transform="rotate(19 66.039612 0.000000)" fill="#C4C4C4" fill-opacity="1.000000"/>
		</g>
	</mask>
	<g mask="url(#mask1_14032)">
		<g style="mix-blend-mode:normal">
			<path id="Path 32324" d="M151.73 182.18C151.13 182.86 151.18 183.12 149.17 191.7C154.58 191.94 159.52 188.74 162.92 184.51C168.16 178 174.11 161.94 176.38 154.17C179.44 143.73 181.04 132.92 179.89 122.19C177.92 124.3 174.62 125.65 171.85 124.4C172.44 128.19 171.98 140.79 168.43 153.63C166.06 162.18 162.44 170.34 159.92 174.58C155.98 181.2 152.83 180.95 151.73 182.18Z" fill="#F3D42F" fill-opacity="1.000000" fill-rule="nonzero"/>
		</g>
	</g>
	<g mask="url(#mask1_14032)">
		<g style="mix-blend-mode:normal">
			<path id="Path 32325" d="M187.34 44.64C186.39 44.58 185.48 44.59 184.53 44.79C181.66 45.41 178.51 47.6 176.2 49.42C178.83 53.38 179.27 58.13 179.25 62.88C179.19 74.02 177.61 77.3 172.72 98.1C168.85 114.55 168.32 116.64 168.9 119.8C169.55 123.35 172.19 124.97 175.21 124.45C178.98 123.8 181.16 120.47 182.47 117.16C187.53 104.29 191.01 82.69 192.7 68.96C193.77 60.23 194.08 50.65 187.34 44.64Z" fill="#66AF3A" fill-opacity="1.000000" fill-rule="nonzero"/>
		</g>
	</g>
	<g mask="url(#mask1_14032)">
		<g style="mix-blend-mode:normal">
			<path id="Path 32326" d="M100.26 222.93C107.09 223.6 112.35 222.87 119.55 221.82C130.43 220.24 137.85 218.53 143.13 207.92C146.29 201.56 146.9 197.42 153.67 166.6C154.08 164.7 154.5 162.8 154.92 160.9C153.45 161.15 152 161.48 150.52 161.67C143.01 162.65 135.26 161.31 128.18 157.52C121.29 177.69 109.85 207.38 107.7 212.71C106.12 216.63 103.99 220.7 100.26 222.93Z" fill="#66AF3A" fill-opacity="1.000000" fill-rule="nonzero"/>
		</g>
	</g>
	<g mask="url(#mask1_14032)">
		<g style="mix-blend-mode:normal">
			<path id="Path 32327" d="M143.64 70.7C143.75 70.91 144.2 72.79 144.35 73.55C147.81 90.63 141.52 113.99 136.69 130.67C134.11 139.59 131.28 148.43 128.28 157.22C140.97 164.06 152.02 161.05 154.99 160.56C164.99 115.1 166.38 109.72 167.28 100.45C167.84 94.64 167.94 86.5 166.36 81.02C161.7 64.89 139.63 57.29 123.82 51.81C127.71 53.6 135.29 57.42 138.66 60.1C142.05 62.8 144.04 66.04 143.77 70.36C143.78 70.41 143.77 70.46 143.75 70.47C143.75 70.49 143.66 70.68 143.64 70.7Z" fill="#F3D42F" fill-opacity="1.000000" fill-rule="nonzero"/>
		</g>
	</g>
	<g mask="url(#mask1_14032)">
		<g style="mix-blend-mode:normal">
			<path id="Path 32328" d="M143.95 59.26C149.62 61.97 155.6 65.54 160.01 70.01C163.21 60.85 177.43 43.9 186.95 44.29C184.04 41.86 180.31 40.59 176.58 40.24C160.24 38.71 149.77 53.53 143.95 59.26Z" fill="#66AF3A" fill-opacity="1.000000" fill-rule="nonzero"/>
		</g>
	</g>
	<g mask="url(#mask1_14032)">
		<g style="mix-blend-mode:normal">
			<path id="Path 32329" d="M99.72 222.87C105.28 219.84 107.46 212.49 109.45 207.32C119.71 180.6 129.85 154.01 137.59 126.34C142.04 110.41 147.89 87.07 143.44 71.14C124.72 110.23 128.72 131.63 113.42 143.22C100.17 153.26 83.16 145.29 70.94 139.35C67.96 142.83 64.62 148.62 62.67 154.59C63.26 154.92 63.85 155.25 64.44 155.57C69.14 158.17 73.87 160.71 78.66 163.14C81.18 164.43 90.14 167.94 96.13 171.77C100.05 174.29 102.99 177.25 103.85 181.87C105.62 191.33 98.16 210.8 91.64 221.45C94.3 222.09 96.99 222.58 99.72 222.87Z" fill="#F3D42F" fill-opacity="1.000000" fill-rule="nonzero"/>
		</g>
	</g>
	<g mask="url(#mask1_14032)">
		<g style="mix-blend-mode:normal">
			<path id="Path 32330" d="M91.31 221.37C96.01 213.86 100.12 204.2 102.5 194.01C105.11 182.86 104.46 176.94 94.45 171.12C91.25 169.27 87.91 167.61 84.52 166.11C87.02 167.47 89.08 169.11 90.26 171.76C92.28 176.26 91.59 181.51 90.43 186.14C87.35 198.36 79.33 217.35 79.32 217.39C83.24 218.99 87.24 220.36 91.31 221.37Z" fill="#66AF3A" fill-opacity="1.000000" fill-rule="nonzero"/>
		</g>
	</g>
	<g mask="url(#mask1_14032)">
		<g style="mix-blend-mode:normal">
			<path id="Path 32331" d="M132.38 56.51C117.9 48.44 96.82 41.01 83.52 42.07C69.16 43.22 61.66 53.88 49.85 70.32C42.96 79.91 36.62 90.05 32.72 101.2C30.14 108.6 28.43 114.9 34.24 120.24C34.29 120.26 34.34 120.29 34.35 120.35C37.47 123.15 40.33 124.27 58.41 132.95C76.44 141.61 83.34 145.33 91.81 146.96C102.78 149.07 111.99 146.5 118.73 137.31C127.82 124.92 127.07 104.31 143.45 70.37C143.89 63.33 138.33 59.83 132.38 56.51ZM125.69 75.92C110.35 70.51 95.6 64.55 80.99 57.88C80.41 62.29 77.89 67.44 75.58 68.93C73.89 70.02 72.38 69.14 72.19 67.51C71.98 65.6 73.17 64.7 79.48 57.18C78.77 56.86 78.06 56.54 77.35 56.21C77.16 56.12 77.27 55.81 77.45 55.9C93.4 63.31 109.37 69.82 125.8 75.61C126 75.68 125.89 75.99 125.69 75.92Z" fill="#66AF3A" fill-opacity="1.000000" fill-rule="nonzero"/>
		</g>
	</g>
	<g mask="url(#mask1_14032)">
		<g style="mix-blend-mode:normal">
			<path id="Path 32332" d="M141.99 34.79C140.65 35.42 139.7 36.55 138.95 37.81C137.18 40.77 133.91 48.11 132.09 54.37C134.39 55.21 136.69 56.09 138.96 57.03C139.6 55.61 139.04 56.32 139.38 54.88C142.48 41.74 144.07 37.95 141.99 34.79Z" fill="#66AF3A" fill-opacity="1.000000" fill-rule="nonzero"/>
		</g>
	</g>
	<g mask="url(#mask1_14032)">
		<g style="mix-blend-mode:normal">
			<path id="Path 32333" d="M25.43 138.22C25.33 138.17 25.32 138.05 25.36 137.97C21.86 145.68 12.45 169.12 12.73 177.08C12.98 184.37 19.68 187.02 25.75 190.19C61.55 208.87 69.84 213.5 79.02 217.27C79.03 217.24 88.02 195.78 90.46 184.59C91.02 182.06 91.35 179.44 91.15 176.85C90.55 169.19 86.68 167.48 80.3 164.32C80.05 164.21 80.06 164.22 80.02 164.18C75.66 162 70.58 159.36 62.57 154.9C61.99 156.71 61.62 158.01 61 159.33C56.36 169.28 44.37 162.25 49.48 148.43C41.77 145.15 33.39 141.93 25.43 138.22Z" fill="#66AF3A" fill-opacity="1.000000" fill-rule="nonzero"/>
		</g>
	</g>
	<g mask="url(#mask1_14032)">
		<g style="mix-blend-mode:normal">
			<path id="Path 32334" d="M141.8 34.53C140.98 33.43 139.74 32.72 138.5 32.12C134.07 29.95 129.26 28.52 124.36 27.89C119.47 27.26 118.28 28.18 116.41 31.22C114.3 34.67 111.64 39.75 109 46.04C112.83 47.26 116.59 48.66 120.29 50.24C123.66 51.4 128.67 53.13 131.78 54.26C133.11 49.71 135 44.98 137.12 40.62C138.23 38.34 139.39 35.68 141.8 34.53Z" fill="#66AF3A" fill-opacity="1.000000" fill-rule="nonzero"/>
		</g>
	</g>
	<g mask="url(#mask1_14032)">
		<g style="mix-blend-mode:normal">
			<path id="Path 32335" d="M70.64 139.21C67.5 137.68 67.75 137.79 57.97 133.1C57.64 133.54 51.73 144.06 50.51 146.77C44.74 159.6 53.23 167.01 58.58 162.19C60.72 160.27 61.41 157.4 62.31 154.7C62.3 154.65 62.32 154.61 62.35 154.57C64.61 147.86 67.72 142.69 70.64 139.21ZM55.11 158.11C54.07 158.15 53.2 157.62 52.66 156.74C51.51 154.86 52.89 152.44 55.93 152.49C57.03 152.67 58.27 154.55 57.68 156.19C57.27 157.3 56.32 158.08 55.11 158.11Z" fill="#66AF3A" fill-opacity="1.000000" fill-rule="nonzero"/>
		</g>
	</g>
	<g mask="url(#mask1_14032)">
		<g style="mix-blend-mode:normal">
			<path id="Path 32336" d="M55.92 152.81C54.74 152.79 53.47 153.19 52.86 154.27C51.98 155.85 53.33 158.02 55.34 157.78C56.4 157.65 57.24 156.82 57.46 155.78C57.7 154.61 57.06 153.24 55.92 152.81Z" fill="#FFFFFF" fill-opacity="1.000000" fill-rule="nonzero"/>
		</g>
	</g>
	<g mask="url(#mask1_14032)">
		<g style="mix-blend-mode:normal">
			<path id="Path 32337" d="M25.36 137.97C25.39 137.91 25.46 137.88 25.54 137.91C33.68 141.7 41.4 144.65 49.6 148.13C51.08 144.26 57.55 133.14 57.68 132.96C40.98 124.94 37.51 123.56 34.24 120.65C33.02 123.25 30.29 127.12 25.36 137.97Z" fill="#F3D42F" fill-opacity="1.000000" fill-rule="nonzero"/>
		</g>
	</g>
	<g mask="url(#mask1_14032)">
		<g style="mix-blend-mode:normal">
			<path id="Path 32338" d="M73.4 64.94C71.63 67.35 72.81 69.13 74.17 69.1C77.01 69.02 80.14 62.13 80.69 57.74C80.39 57.6 80.08 57.46 79.78 57.32C73.49 64.81 73.92 64.26 73.4 64.94Z" fill="#FFFFFF" fill-opacity="1.000000" fill-rule="nonzero"/>
		</g>
	</g>
	<g mask="url(#mask1_14032)">
		<g style="mix-blend-mode:normal">
			<path id="Path 32339" d="" fill="#13202B" fill-opacity="1.000000" fill-rule="nonzero"/>
		</g>
	</g>
	<g mask="url(#mask1_14032)">
		<g style="mix-blend-mode:normal">
			<path id="Path 32340" d="" fill="#13202B" fill-opacity="1.000000" fill-rule="nonzero"/>
		</g>
	</g>
	<g mask="url(#mask1_14032)">
		<g style="mix-blend-mode:normal">
			<path id="Path 32341" d="M29.7 131.34C31.31 128.14 33.02 125 34.88 121.95C35.74 120.53 33.61 119.07 32.75 120.49C28.69 127.15 25.3 134.23 22.23 141.4C19.19 148.51 16.46 155.78 14.19 163.17C13.22 166.33 12.27 169.51 11.68 172.76C11.23 175.25 11.03 177.92 11.8 180.37C13.61 186.11 19.85 188.73 24.74 191.29C37.96 198.2 51.11 205.26 64.47 211.92C72.17 215.76 80 219.61 88.26 222.12C94.27 223.95 100.45 224.78 106.73 224.56C110.22 224.44 113.7 224.07 117.16 223.62C124.06 222.71 131.49 221.92 137.22 217.62C143.6 212.85 146.44 204.87 148.31 197.43C149.42 193.05 150.31 188.61 151.28 184.19C152.35 179.32 153.42 174.46 154.49 169.59C156.63 159.86 158.76 150.12 160.9 140.39C162.95 131.05 165.15 121.74 166.95 112.36C168.62 103.68 169.71 94.82 168.73 85.99C168.37 82.77 167.69 79.67 166.25 76.74C164.98 74.15 163.25 71.77 161.26 69.68C156.93 65.14 151.52 61.81 145.95 59.02C140.34 56.22 134.46 53.99 128.55 51.91C125.93 50.99 123.29 50.09 120.67 49.17C119.1 48.62 118.26 51.06 119.83 51.61C131.11 55.57 142.85 59.15 152.81 65.96C157.42 69.11 161.68 73.08 164.09 78.2C165.46 81.1 165.99 84.19 166.29 87.35C166.69 91.62 166.57 95.93 166.17 100.19C165.34 108.98 163.28 117.6 161.39 126.22C159.3 135.74 157.21 145.26 155.12 154.78C153.02 164.31 150.93 173.83 148.84 183.35C147.88 187.72 146.99 192.12 145.91 196.47C144.96 200.23 143.84 204.01 142.09 207.5C140.44 210.81 138.17 213.81 135.13 215.96C131.89 218.27 127.92 219.28 124.06 219.98C119.75 220.75 115.36 221.33 111 221.72C110.6 221.76 110.2 221.79 109.8 221.82C109.62 221.84 109.43 221.85 109.24 221.86C109.21 221.87 108.83 221.89 108.76 221.9C108 221.94 107.24 221.98 106.48 222C104.99 222.04 103.49 222.04 102 221.97C100.55 221.9 99.09 221.77 97.64 221.58C96.89 221.48 96.15 221.37 95.41 221.23C95.24 221.2 95.08 221.17 94.92 221.14C94.86 221.13 94.57 221.08 94.49 221.06C94.15 220.99 93.82 220.92 93.48 220.84C86.16 219.2 79.2 216.14 72.43 212.95C61 207.55 49.85 201.56 38.66 195.68C34.78 193.65 30.9 191.62 27.03 189.59C23.94 187.97 20.69 186.49 17.9 184.37C16.27 183.14 14.84 181.53 14.29 179.73C13.58 177.39 13.86 174.92 14.33 172.52C14.94 169.43 15.89 166.37 16.83 163.37C17.92 159.87 19.12 156.41 20.39 152.98C23.12 145.62 26.18 138.36 29.7 131.34Z" fill="#13202B" fill-opacity="1.000000" fill-rule="nonzero"/>
		</g>
	</g>
	<g mask="url(#mask1_14032)">
		<g style="mix-blend-mode:normal">
			<path id="Path 32342" d="" fill="#13202B" fill-opacity="1.000000" fill-rule="nonzero"/>
		</g>
	</g>
	<g mask="url(#mask1_14032)">
		<g style="mix-blend-mode:normal">
			<path id="Path 32343" d="" fill="#13202B" fill-opacity="1.000000" fill-rule="nonzero"/>
		</g>
	</g>
	<g mask="url(#mask1_14032)">
		<g style="mix-blend-mode:normal">
			<path id="Path 32344" d="M144.91 70.26C144.9 70.34 144.9 70.41 144.9 70.48C144.89 70.59 144.87 70.68 144.85 70.77C144.92 70.61 144.93 70.43 144.91 70.26Z" fill="#13202B" fill-opacity="1.000000" fill-rule="nonzero"/>
		</g>
	</g>
	<g mask="url(#mask1_14032)">
		<g style="mix-blend-mode:normal">
			<path id="Path 32345" d="" fill="#13202B" fill-opacity="1.000000" fill-rule="nonzero"/>
		</g>
	</g>
	<g mask="url(#mask1_14032)">
		<g style="mix-blend-mode:normal">
			<path id="Path 32346" d="" fill="#13202B" fill-opacity="1.000000" fill-rule="nonzero"/>
		</g>
	</g>
	<g mask="url(#mask1_14032)">
		<g style="mix-blend-mode:normal">
			<path id="Path 32347" d="" fill="#13202B" fill-opacity="1.000000" fill-rule="nonzero"/>
		</g>
	</g>
	<g mask="url(#mask1_14032)">
		<g style="mix-blend-mode:normal">
			<path id="Path 32348" d="" fill="#13202B" fill-opacity="1.000000" fill-rule="nonzero"/>
		</g>
	</g>
	<g mask="url(#mask1_14032)">
		<g style="mix-blend-mode:normal">
			<path id="Path 32349" d="" fill="#13202B" fill-opacity="1.000000" fill-rule="nonzero"/>
		</g>
	</g>
	<g mask="url(#mask1_14032)">
		<g style="mix-blend-mode:normal">
			<path id="Path 32350" d="" fill="#13202B" fill-opacity="1.000000" fill-rule="nonzero"/>
		</g>
	</g>
	<g mask="url(#mask1_14032)">
		<g style="mix-blend-mode:normal">
			<path id="Path 32351" d="M144.91 70.26C144.84 69.79 144.46 69.33 144.03 69.18C143.31 68.93 142.69 69.35 142.39 69.98C142.37 70.02 142.35 70.06 142.33 70.1C142.33 70.18 142.33 70.25 142.32 70.32C142.23 71.72 144.04 72.06 144.68 71.14C144.73 71.03 144.78 70.93 144.83 70.82C144.85 70.74 144.89 70.59 144.9 70.48C144.9 70.41 144.9 70.34 144.91 70.26Z" fill="#13202B" fill-opacity="1.000000" fill-rule="nonzero"/>
		</g>
	</g>
	<g mask="url(#mask1_14032)">
		<g style="mix-blend-mode:normal">
			<path id="Path 32352" d="M144.68 71.14C144.75 71.03 144.81 70.91 144.85 70.77C144.8 70.88 144.73 71.03 144.68 71.14Z" fill="#13202B" fill-opacity="1.000000" fill-rule="nonzero"/>
		</g>
	</g>
	<g mask="url(#mask1_14032)">
		<g style="mix-blend-mode:normal">
			<path id="Path 32353" d="" fill="#13202B" fill-opacity="1.000000" fill-rule="nonzero"/>
		</g>
	</g>
	<g mask="url(#mask1_14032)">
		<g style="mix-blend-mode:normal">
			<path id="Path 32354" d="M142.32 70.32C142.33 70.25 142.33 70.18 142.33 70.1C139.26 76.49 136.55 83.05 134.13 89.71C131.71 96.41 129.57 103.22 127.64 110.09C126.33 114.72 125.23 119.41 123.77 124C123.09 126.15 122.32 128.28 121.4 130.35C121.17 130.87 120.93 131.39 120.68 131.9C120.66 131.94 120.59 132.08 120.56 132.14C120.54 132.18 120.5 132.26 120.49 132.27C120.46 132.33 120.43 132.39 120.4 132.44C120.27 132.71 120.13 132.97 119.98 133.23C119.43 134.24 118.84 135.22 118.19 136.17C116.82 138.17 115.52 139.68 113.69 141.24C111.84 142.82 109.96 143.96 107.64 144.89C105.29 145.84 102.48 146.43 99.92 146.53C97.23 146.65 94.35 146.36 91.83 145.83C86.28 144.66 80.99 142.46 75.86 140.07C69.74 137.22 63.68 134.24 57.6 131.32C54.33 129.75 51.06 128.18 47.79 126.61C46.22 125.85 44.64 125.1 43.07 124.34C42.8 124.21 42.53 124.08 42.26 123.95C42.2 123.92 42.14 123.89 42.08 123.86C41.94 123.79 41.75 123.69 41.61 123.62C41.1 123.36 40.59 123.09 40.09 122.81C38.33 121.85 36.62 120.78 35.1 119.47C35.07 119.45 35.04 119.42 35.01 119.4C35.03 119.41 35.08 119.46 35.1 119.47C35.07 119.45 35.02 119.41 35.01 119.4C34.94 119.33 34.87 119.27 34.81 119.21C34.65 119.05 34.49 118.9 34.34 118.74C34.05 118.44 33.78 118.13 33.52 117.81C33.4 117.66 33.28 117.5 33.17 117.35C33.11 117.26 33.05 117.18 32.99 117.09C32.79 116.76 32.56 116.35 32.39 116C32.31 115.81 32.23 115.62 32.15 115.43C32.12 115.35 32.09 115.27 32.06 115.19C32.14 115.47 31.95 114.9 32.01 115.06L32.06 115.19C31.94 114.8 31.79 114.3 31.71 113.9C31.63 113.48 31.58 113.06 31.54 112.64C31.53 112.53 31.52 112.33 31.51 112.23C31.51 111.99 31.5 111.76 31.51 111.52C31.52 110.51 31.64 109.5 31.81 108.5C31.84 108.36 31.86 108.22 31.89 108.08C31.89 108.07 31.91 107.97 31.92 107.93C31.98 107.63 32.05 107.34 32.12 107.04C32.28 106.37 32.47 105.7 32.67 105.04C34.6 98.54 37.41 92.33 40.74 86.44C44.17 80.37 48.11 74.6 52.22 68.97C55.6 64.35 58.99 59.68 62.74 55.34C62.9 55.15 63.07 54.96 63.24 54.77C63.32 54.68 63.4 54.59 63.47 54.5C63.51 54.46 63.55 54.42 63.59 54.37C63.93 54 64.32 53.57 64.67 53.2C65.35 52.49 66.04 51.79 66.75 51.12C68.08 49.86 69.5 48.68 71 47.63C71.18 47.51 71.35 47.39 71.53 47.27C71.63 47.2 71.79 47.1 71.9 47.03C72.26 46.81 72.63 46.59 73 46.37C73.74 45.96 74.5 45.57 75.27 45.23C75.66 45.06 76.05 44.89 76.45 44.74C76.64 44.67 76.83 44.6 77.02 44.53C77.05 44.52 77.15 44.48 77.21 44.46C77.27 44.44 77.4 44.4 77.43 44.39C78.27 44.12 79.12 43.89 79.98 43.71C80.86 43.52 81.75 43.37 82.64 43.27C83.09 43.22 83.54 43.18 83.99 43.15C84.05 43.14 84.13 43.14 84.18 43.13C84.28 43.13 84.39 43.12 84.5 43.12C84.75 43.11 85 43.1 85.25 43.09C87.37 43.04 89.49 43.17 91.59 43.43C92.76 43.57 93.92 43.74 95.08 43.95C95.38 44 95.67 44.06 95.96 44.11C96.12 44.14 96.28 44.17 96.44 44.21C96.44 44.21 96.51 44.22 96.55 44.23C96.6 44.24 96.71 44.26 96.72 44.26C97.36 44.39 98 44.53 98.64 44.68C101.88 45.42 105.09 46.32 108.27 47.33C114.87 49.42 121.33 52.04 127.51 55.19C130.31 56.61 133.12 58.09 135.75 59.81C137.74 61.1 139.31 62.33 140.68 64.26C140.71 64.31 140.82 64.47 140.84 64.49C140.86 64.53 140.98 64.72 141.01 64.78C141.15 65.01 141.28 65.26 141.41 65.5C141.66 66.01 141.85 66.49 141.96 66.86C142.3 68.02 142.39 68.97 142.33 70.1C142.35 70.06 142.37 70.02 142.39 69.98C142.69 69.35 143.31 68.94 144.03 69.18C144.46 69.33 144.84 69.79 144.91 70.26C145.03 67.61 144.32 65.1 142.85 62.89C141.51 60.89 139.62 59.29 137.63 57.95C135.05 56.22 132.25 54.75 129.49 53.32C126.27 51.66 122.98 50.13 119.63 48.74C113.18 46.06 106.5 43.87 99.69 42.29C95.08 41.22 90.33 40.41 85.57 40.51C81.73 40.59 77.94 41.27 74.4 42.79C71.02 44.25 67.98 46.45 65.3 48.95C62.04 51.98 59.2 55.45 56.5 58.97C52.23 64.54 48.02 70.18 44.13 76.03C40.2 81.94 36.62 88.1 33.76 94.61C32.36 97.82 31.13 101.11 30.15 104.47C29.5 106.7 28.97 109.02 28.93 111.36C28.9 113.26 29.2 115.14 29.97 116.89C30.67 118.49 31.77 119.91 33.06 121.09C36.75 124.46 41.51 126.44 45.96 128.58C52.62 131.77 59.28 134.97 65.94 138.17C71.47 140.82 76.96 143.62 82.71 145.79C88.1 147.83 93.88 149.35 99.69 149.11C105.25 148.89 110.63 147.07 114.97 143.53C118.76 140.44 121.49 136.28 123.53 131.88C125.41 127.82 126.68 123.52 127.83 119.21C129.46 113.11 131.13 107.03 133.04 101.01C135.24 94.05 137.69 87.18 140.5 80.45C141.82 77.31 143.21 74.2 144.68 71.14C144.04 72.06 142.23 71.72 142.32 70.32Z" fill="#13202B" fill-opacity="1.000000" fill-rule="nonzero"/>
		</g>
	</g>
	<g mask="url(#mask1_14032)">
		<g style="mix-blend-mode:normal">
			<path id="Path 32355" d="" fill="#13202B" fill-opacity="1.000000" fill-rule="nonzero"/>
		</g>
	</g>
	<g mask="url(#mask1_14032)">
		<g style="mix-blend-mode:normal">
			<path id="Path 32356" d="" fill="#13202B" fill-opacity="1.000000" fill-rule="nonzero"/>
		</g>
	</g>
	<g mask="url(#mask1_14032)">
		<g style="mix-blend-mode:normal">
			<path id="Path 32357" d="" fill="#13202B" fill-opacity="1.000000" fill-rule="nonzero"/>
		</g>
	</g>
	<g mask="url(#mask1_14032)">
		<g style="mix-blend-mode:normal">
			<path id="Path 32358" d="" fill="#13202B" fill-opacity="1.000000" fill-rule="nonzero"/>
		</g>
	</g>
	<g mask="url(#mask1_14032)">
		<g style="mix-blend-mode:normal">
			<path id="Path 32359" d="M108.37 206.96C106.74 211.22 105.35 216.01 102.2 219.45C101.42 220.29 100.54 221.03 99.61 221.7C98.26 222.66 99.95 224.61 101.29 223.65C105.2 220.87 107.33 216.73 109.05 212.37C111.14 207.07 113.15 201.72 115.19 196.39C119.3 185.61 123.34 174.8 127.16 163.91C131 152.98 134.6 141.97 137.82 130.84C140.72 120.79 143.48 110.64 145.08 100.28C146.44 91.47 147.25 82.14 145.46 73.33C145.27 72.38 145.04 71.44 144.77 70.51C144.31 68.93 141.77 69.41 142.24 71.01C144.64 79.29 144.06 88.32 142.98 96.76C141.7 106.72 139.19 116.44 136.49 126.09C133.41 137.09 129.93 147.98 126.21 158.78C122.51 169.54 118.56 180.22 114.53 190.87C112.49 196.24 110.44 201.6 108.37 206.96Z" fill="#13202B" fill-opacity="1.000000" fill-rule="nonzero"/>
		</g>
	</g>
	<g mask="url(#mask1_14032)">
		<g style="mix-blend-mode:normal">
			<path id="Path 32360" d="M137.79 159.62C137.39 159.53 137 159.43 136.61 159.33C135.8 159.11 134.99 158.87 134.19 158.59C133.29 158.28 132.4 157.94 131.52 157.56C131.09 157.37 130.65 157.17 130.22 156.96C130.16 156.93 130.09 156.9 130.02 156.87C129.98 156.84 129.93 156.82 129.88 156.79C129.65 156.67 129.38 156.54 129.16 156.42C128.57 156.1 127.76 156.12 127.36 156.75C127.03 157.29 127.06 158.2 127.7 158.55C133.93 161.88 141.05 163.48 148.11 163.02C150.13 162.89 152.13 162.62 154.1 162.18C154.76 162.03 155.28 161.35 155.12 160.66C154.95 159.99 154.3 159.49 153.6 159.64C151.95 160.02 150.28 160.28 148.6 160.42C148.49 160.43 148.38 160.44 148.27 160.45C148.08 160.46 147.8 160.48 147.61 160.48C147.17 160.5 146.73 160.52 146.29 160.52C145.45 160.53 144.6 160.51 143.76 160.47C142.07 160.37 140.4 160.15 138.74 159.83C138.71 159.83 138.65 159.81 138.63 159.81C138.56 159.8 138.5 159.78 138.43 159.77C138.22 159.72 138 159.67 137.79 159.62Z" fill="#13202B" fill-opacity="1.000000" fill-rule="nonzero"/>
		</g>
	</g>
	<g mask="url(#mask1_14032)">
		<g style="mix-blend-mode:normal">
			<path id="Path 32361" d="" fill="#13202B" fill-opacity="1.000000" fill-rule="nonzero"/>
		</g>
	</g>
	<g mask="url(#mask1_14032)">
		<g style="mix-blend-mode:normal">
			<path id="Path 32362" d="" fill="#13202B" fill-opacity="1.000000" fill-rule="nonzero"/>
		</g>
	</g>
	<g mask="url(#mask1_14032)">
		<g style="mix-blend-mode:normal">
			<path id="Path 32363" d="M138.74 159.83C138.63 159.81 138.61 159.8 138.63 159.81C138.66 159.82 138.7 159.83 138.74 159.83Z" fill="#13202B" fill-opacity="1.000000" fill-rule="nonzero"/>
		</g>
	</g>
	<g mask="url(#mask1_14032)">
		<g style="mix-blend-mode:normal">
			<path id="Path 32364" d="" fill="#13202B" fill-opacity="1.000000" fill-rule="nonzero"/>
		</g>
	</g>
	<g mask="url(#mask1_14032)">
		<g style="mix-blend-mode:normal">
			<path id="Path 32365" d="" fill="#13202B" fill-opacity="1.000000" fill-rule="nonzero"/>
		</g>
	</g>
	<g mask="url(#mask1_14032)">
		<g style="mix-blend-mode:normal">
			<path id="Path 32366" d="" fill="#13202B" fill-opacity="1.000000" fill-rule="nonzero"/>
		</g>
	</g>
	<g mask="url(#mask1_14032)">
		<g style="mix-blend-mode:normal">
			<path id="Path 32367" d="M145.02 160.78C148.28 151.71 151.02 142.46 153.17 133.06C154.27 128.27 155.22 123.44 156.06 118.59C156.85 114.03 157.57 109.46 158.01 104.85C158.45 100.25 158.59 95.63 158.26 91.03C158 87.46 157.32 84 156.6 80.51C156.17 78.42 155.73 76.34 155.05 74.31C154.32 72.11 153.34 70.05 152.03 68.13C148.42 62.86 142.66 59.39 137.06 56.59C136.05 56.09 135.04 55.6 134.01 55.14C133.38 54.85 132.59 55.32 132.37 55.94C132.13 56.65 132.54 57.29 133.17 57.58C136.67 59.17 140.09 60.95 143.28 63.2C143.9 63.63 144.51 64.09 145.1 64.56C145.37 64.78 145.64 65 145.91 65.22C146.04 65.34 146.17 65.45 146.31 65.57C146.37 65.62 146.47 65.71 146.52 65.76C147.46 66.63 148.34 67.55 149.14 68.55C149.5 69.01 149.84 69.48 150.17 69.96C150.19 69.99 150.24 70.07 150.26 70.1C150.24 70.06 150.18 69.98 150.17 69.96C150.18 69.98 150.25 70.08 150.26 70.1C150.33 70.2 150.38 70.28 150.44 70.38C150.59 70.63 150.74 70.88 150.88 71.13C151.39 72.04 151.83 72.99 152.21 73.96C152.3 74.2 152.39 74.45 152.48 74.69C152.49 74.73 152.54 74.88 152.56 74.94C152.59 75.01 152.62 75.12 152.64 75.19C152.8 75.68 152.95 76.18 153.08 76.68C153.35 77.68 153.58 78.69 153.8 79.71C154.44 82.68 155.1 85.66 155.46 88.69C155.98 93.04 155.97 97.45 155.67 101.82C155.37 106.31 154.75 110.78 154.03 115.23C153.26 119.93 152.39 124.62 151.39 129.27C149.39 138.5 146.86 147.6 143.78 156.52C143.39 157.66 142.99 158.8 142.58 159.94C142.02 161.5 144.46 162.34 145.02 160.78Z" fill="#13202B" fill-opacity="1.000000" fill-rule="nonzero"/>
		</g>
	</g>
	<g mask="url(#mask1_14032)">
		<g style="mix-blend-mode:normal">
			<path id="Path 32368" d="M88.21 171.01C88.24 171.04 88.26 171.08 88.28 171.11C88.32 171.16 88.22 171.01 88.21 171.01Z" fill="#13202B" fill-opacity="1.000000" fill-rule="nonzero"/>
		</g>
	</g>
	<g mask="url(#mask1_14032)">
		<g style="mix-blend-mode:normal">
			<path id="Path 32369" d="" fill="#13202B" fill-opacity="1.000000" fill-rule="nonzero"/>
		</g>
	</g>
	<g mask="url(#mask1_14032)">
		<g style="mix-blend-mode:normal">
			<path id="Path 32370" d="M86.72 169.28C86.74 169.29 86.8 169.35 86.82 169.37C87.03 169.55 86.55 169.12 86.72 169.28Z" fill="#13202B" fill-opacity="1.000000" fill-rule="nonzero"/>
		</g>
	</g>
	<g mask="url(#mask1_14032)">
		<g style="mix-blend-mode:normal">
			<path id="Path 32371" d="M89.55 183.24C89.55 183.26 89.53 183.36 89.52 183.38C89.48 183.59 89.55 183.24 89.55 183.24Z" fill="#13202B" fill-opacity="1.000000" fill-rule="nonzero"/>
		</g>
	</g>
	<g mask="url(#mask1_14032)">
		<g style="mix-blend-mode:normal">
			<path id="Path 32372" d="" fill="#13202B" fill-opacity="1.000000" fill-rule="nonzero"/>
		</g>
	</g>
	<g mask="url(#mask1_14032)">
		<g style="mix-blend-mode:normal">
			<path id="Path 32373" d="M78.63 215.19C78.43 215.66 78.23 216.14 78.03 216.61C77.76 217.24 78.19 218.07 78.83 218.25C79.54 218.46 80.18 218.12 80.47 217.45C81.47 215.12 82.43 212.76 83.36 210.4C84.57 207.34 85.73 204.27 86.84 201.18C87.98 197.98 89.08 194.77 90.06 191.52C90.92 188.67 91.7 185.79 92.23 182.86C92.82 179.59 92.9 176.1 91.89 172.9C91.29 171.03 90.34 169.23 88.93 167.84C88.18 167.09 87.33 166.47 86.42 165.92C85.18 165.17 83.88 164.52 82.59 163.86C80.46 162.78 78.33 161.7 76.21 160.6C72.87 158.87 69.56 157.1 66.27 155.3C65.25 154.73 64.22 154.17 63.2 153.6C62.62 153.27 61.8 153.3 61.41 153.93C61.07 154.48 61.11 155.37 61.74 155.73C65.35 157.73 68.97 159.7 72.62 161.62C74.99 162.86 77.37 164.08 79.76 165.29C81.22 166.03 82.69 166.76 84.13 167.56C85.03 168.07 85.92 168.6 86.71 169.27C86.54 169.11 87.03 169.54 86.82 169.37C86.8 169.35 86.73 169.29 86.71 169.27C86.77 169.33 86.89 169.44 86.95 169.5C87.1 169.64 87.25 169.8 87.39 169.96C87.54 170.12 87.68 170.29 87.81 170.46C87.88 170.55 87.95 170.64 88.02 170.74C88.05 170.78 88.08 170.83 88.11 170.87C88.16 170.94 88.21 171.02 88.26 171.09C88.28 171.12 88.32 171.18 88.34 171.21C88.58 171.6 88.79 172.02 88.98 172.44C89.07 172.65 89.16 172.86 89.24 173.07C89.25 173.1 89.3 173.23 89.32 173.3C89.34 173.38 89.38 173.47 89.4 173.55C89.69 174.5 89.87 175.47 89.98 176.45C89.99 176.57 90.01 176.69 90.02 176.81C90.02 176.86 90.03 176.92 90.03 176.97C90.03 176.99 90.04 177.04 90.04 177.08C90.04 177.03 90.02 176.84 90.03 176.97C90.04 177.06 90.04 177.13 90.04 177.08C90.04 177.15 90.05 177.25 90.05 177.32C90.06 177.46 90.07 177.6 90.07 177.74C90.08 178.25 90.08 178.76 90.06 179.28C90.03 179.9 89.98 180.52 89.9 181.15C89.82 181.72 89.73 182.28 89.63 182.85C89.6 183 89.57 183.14 89.54 183.29C89.53 183.35 89.51 183.43 89.5 183.5C89.43 183.82 89.36 184.14 89.29 184.46C88.97 185.88 88.6 187.28 88.2 188.68C87.3 191.86 86.27 195 85.18 198.13C84.08 201.28 82.92 204.41 81.72 207.52C80.72 210.09 79.7 212.65 78.63 215.19Z" fill="#13202B" fill-opacity="1.000000" fill-rule="nonzero"/>
		</g>
	</g>
	<g mask="url(#mask1_14032)">
		<g style="mix-blend-mode:normal">
			<path id="Path 32374" d="M31.14 139.2C29.38 138.44 27.64 137.65 25.91 136.85C25.29 136.56 24.45 137.03 24.27 137.65C24.05 138.38 24.41 138.98 25.07 139.29C31.27 142.18 37.63 144.73 43.95 147.34C45.72 148.07 47.49 148.81 49.25 149.56C49.87 149.82 50.7 149.39 50.89 148.76C51.1 148.05 50.76 147.4 50.09 147.12C43.79 144.44 37.41 141.94 31.14 139.2Z" fill="#13202B" fill-opacity="1.000000" fill-rule="nonzero"/>
		</g>
	</g>
	<g mask="url(#mask1_14032)">
		<g style="mix-blend-mode:normal">
			<path id="Path 32375" d="M59.48 159.16C59.49 159.13 59.51 159.09 59.52 159.06C59.54 159.02 59.56 158.97 59.48 159.16Z" fill="#13202B" fill-opacity="1.000000" fill-rule="nonzero"/>
		</g>
	</g>
	<g mask="url(#mask1_14032)">
		<g style="mix-blend-mode:normal">
			<path id="Path 32376" d="" fill="#13202B" fill-opacity="1.000000" fill-rule="nonzero"/>
		</g>
	</g>
	<g mask="url(#mask1_14032)">
		<g style="mix-blend-mode:normal">
			<path id="Path 32377" d="" fill="#13202B" fill-opacity="1.000000" fill-rule="nonzero"/>
		</g>
	</g>
	<g mask="url(#mask1_14032)">
		<g style="mix-blend-mode:normal">
			<path id="Path 32378" d="" fill="#13202B" fill-opacity="1.000000" fill-rule="nonzero"/>
		</g>
	</g>
	<g mask="url(#mask1_14032)">
		<g style="mix-blend-mode:normal">
			<path id="Path 32379" d="" fill="#13202B" fill-opacity="1.000000" fill-rule="nonzero"/>
		</g>
	</g>
	<g mask="url(#mask1_14032)">
		<g style="mix-blend-mode:normal">
			<path id="Path 32380" d="" fill="#13202B" fill-opacity="1.000000" fill-rule="nonzero"/>
		</g>
	</g>
	<g mask="url(#mask1_14032)">
		<g style="mix-blend-mode:normal">
			<path id="Path 32381" d="" fill="#13202B" fill-opacity="1.000000" fill-rule="nonzero"/>
		</g>
	</g>
	<g mask="url(#mask1_14032)">
		<g style="mix-blend-mode:normal">
			<path id="Path 32382" d="M50.21 158.32C50.26 158.41 50.27 158.31 50.17 158.2L50.21 158.32Z" fill="#13202B" fill-opacity="1.000000" fill-rule="nonzero"/>
		</g>
	</g>
	<g mask="url(#mask1_14032)">
		<g style="mix-blend-mode:normal">
			<path id="Path 32383" d="M52.16 145.91C52.18 145.88 52.19 145.85 52.21 145.82C52.31 145.62 52.06 146.11 52.16 145.91Z" fill="#13202B" fill-opacity="1.000000" fill-rule="nonzero"/>
		</g>
	</g>
	<g mask="url(#mask1_14032)">
		<g style="mix-blend-mode:normal">
			<path id="Path 32384" d="" fill="#13202B" fill-opacity="1.000000" fill-rule="nonzero"/>
		</g>
	</g>
	<g mask="url(#mask1_14032)">
		<g style="mix-blend-mode:normal">
			<path id="Path 32385" d="M66.17 148.88C66.25 148.71 66.33 148.55 66.41 148.38C66.45 148.3 66.51 148.18 66.55 148.1C66.73 147.75 66.91 147.41 67.1 147.07C67.94 145.54 68.86 144.06 69.86 142.64C70.4 141.86 70.97 141.11 71.56 140.36C71.97 139.83 71.79 138.92 71.22 138.57C70.59 138.18 69.87 138.33 69.43 138.9C67.28 141.64 65.42 144.58 63.89 147.71C62.81 149.92 61.95 152.21 61.17 154.54C60.87 155.43 60.58 156.33 60.26 157.22C60.12 157.63 59.97 158.03 59.8 158.43C59.73 158.6 59.66 158.77 59.58 158.94C59.56 158.98 59.54 159.02 59.52 159.06C59.51 159.08 59.49 159.12 59.48 159.16C59.45 159.2 59.43 159.25 59.41 159.29C59.42 159.26 59.46 159.18 59.48 159.16C59.28 159.53 59.03 159.95 58.78 160.3C58.64 160.49 58.5 160.68 58.35 160.86C58.32 160.89 58.3 160.92 58.27 160.95C58.27 160.95 58.34 160.87 58.35 160.86C58.52 160.69 58.11 161.14 58.27 160.95C58.19 161.03 58.11 161.12 58.03 161.2C57.88 161.34 57.72 161.49 57.56 161.62C57.47 161.69 57.38 161.76 57.29 161.82C57.26 161.85 57.2 161.88 57.15 161.91C57.18 161.89 57.25 161.85 57.29 161.82C56.94 162 56.58 162.22 56.22 162.38C56.17 162.39 56.04 162.43 56.07 162.42C56.01 162.44 55.95 162.46 55.9 162.47C55.71 162.51 55.52 162.55 55.33 162.57C55.23 162.57 55.19 162.58 55.09 162.58C54.9 162.58 54.71 162.57 54.53 162.54C54.45 162.53 54.37 162.52 54.29 162.51C54.11 162.47 53.93 162.42 53.75 162.35C53.59 162.3 53.42 162.23 53.26 162.15C53.18 162.11 53.09 162.06 53 162.01C52.84 161.91 52.68 161.8 52.52 161.69C52.44 161.63 52.37 161.57 52.3 161.51C52.27 161.49 52.21 161.44 52.16 161.39C52.11 161.35 52.05 161.3 52.04 161.28C51.96 161.2 51.88 161.13 51.81 161.05C51.66 160.89 51.52 160.72 51.38 160.55C51.26 160.38 51.15 160.2 51.02 160.04C50.95 159.92 50.87 159.78 50.81 159.66C50.58 159.25 50.39 158.81 50.23 158.37C50.22 158.35 50.18 158.22 50.17 158.2C50.15 158.12 50.12 158.03 50.09 157.94C50.02 157.68 49.96 157.42 49.9 157.15C49.85 156.9 49.8 156.65 49.77 156.39C49.75 156.25 49.73 156.11 49.72 155.97C49.71 155.89 49.7 155.82 49.7 155.75C49.7 155.78 49.69 155.72 49.68 155.62C49.67 155.42 49.69 155.65 49.7 155.75C49.69 155.72 49.68 155.64 49.68 155.62C49.68 155.55 49.68 155.41 49.67 155.34C49.67 155.19 49.67 155.03 49.67 154.88C49.67 154.56 49.68 154.25 49.7 153.93C49.74 153.29 49.82 152.65 49.94 152.02C49.95 151.96 49.96 151.9 49.97 151.84C50.01 151.66 50.05 151.49 50.1 151.31C50.17 151 50.26 150.69 50.35 150.39C50.43 150.1 50.53 149.8 50.62 149.52C50.83 148.91 51.06 148.32 51.31 147.74C51.59 147.09 51.89 146.45 52.21 145.82C52.19 145.85 52.17 145.88 52.16 145.91C52.06 146.11 52.31 145.62 52.21 145.82C52.25 145.74 52.31 145.61 52.35 145.53C52.46 145.33 52.56 145.12 52.67 144.92C52.89 144.5 53.12 144.08 53.35 143.65C54.65 141.24 55.99 138.86 57.32 136.47C57.78 135.65 58.23 134.84 58.68 134.03C59 133.44 58.97 132.63 58.34 132.24C57.8 131.89 56.9 131.94 56.55 132.57C55 135.37 53.43 138.15 51.89 140.95C50.96 142.65 50.03 144.37 49.21 146.13C47.53 149.77 46.51 153.95 47.43 157.93C47.92 160.04 48.95 162 50.6 163.44C52.01 164.67 53.83 165.28 55.69 165.11C57.7 164.93 59.42 163.67 60.64 162.12C61.78 160.67 62.42 158.91 63.01 157.18C63.75 155.01 64.45 152.83 65.34 150.72C65.6 150.1 65.88 149.49 66.17 148.88Z" fill="#13202B" fill-opacity="1.000000" fill-rule="nonzero"/>
		</g>
	</g>
	<g mask="url(#mask1_14032)">
		<g style="mix-blend-mode:normal">
			<path id="Path 32386" d="" fill="#13202B" fill-opacity="1.000000" fill-rule="nonzero"/>
		</g>
	</g>
	<g mask="url(#mask1_14032)">
		<g style="mix-blend-mode:normal">
			<path id="Path 32387" d="" fill="#13202B" fill-opacity="1.000000" fill-rule="nonzero"/>
		</g>
	</g>
	<g mask="url(#mask1_14032)">
		<g style="mix-blend-mode:normal">
			<path id="Path 32388" d="M56.22 162.38C56.12 162.4 56.08 162.42 56.07 162.42C56.1 162.41 56.18 162.39 56.22 162.38Z" fill="#13202B" fill-opacity="1.000000" fill-rule="nonzero"/>
		</g>
	</g>
	<g mask="url(#mask1_14032)">
		<g style="mix-blend-mode:normal">
			<path id="Path 32389" d="" fill="#13202B" fill-opacity="1.000000" fill-rule="nonzero"/>
		</g>
	</g>
	<g mask="url(#mask1_14032)">
		<g style="mix-blend-mode:normal">
			<path id="Path 32390" d="" fill="#13202B" fill-opacity="1.000000" fill-rule="nonzero"/>
		</g>
	</g>
	<g mask="url(#mask1_14032)">
		<g style="mix-blend-mode:normal">
			<path id="Path 32391" d="M55.25 156.66C55.23 156.68 55.16 156.67 55.12 156.67C54.9 156.7 55.22 156.69 55.25 156.66Z" fill="#13202B" fill-opacity="1.000000" fill-rule="nonzero"/>
		</g>
	</g>
	<g mask="url(#mask1_14032)">
		<g style="mix-blend-mode:normal">
			<path id="Path 32392" d="" fill="#13202B" fill-opacity="1.000000" fill-rule="nonzero"/>
		</g>
	</g>
	<g mask="url(#mask1_14032)">
		<g style="mix-blend-mode:normal">
			<path id="Path 32393" d="" fill="#13202B" fill-opacity="1.000000" fill-rule="nonzero"/>
		</g>
	</g>
	<g mask="url(#mask1_14032)">
		<g style="mix-blend-mode:normal">
			<path id="Path 32394" d="" fill="#13202B" fill-opacity="1.000000" fill-rule="nonzero"/>
		</g>
	</g>
	<g mask="url(#mask1_14032)">
		<g style="mix-blend-mode:normal">
			<path id="Path 32395" d="" fill="#13202B" fill-opacity="1.000000" fill-rule="nonzero"/>
		</g>
	</g>
	<g mask="url(#mask1_14032)">
		<g style="mix-blend-mode:normal">
			<path id="Path 32396" d="" fill="#13202B" fill-opacity="1.000000" fill-rule="nonzero"/>
		</g>
	</g>
	<g mask="url(#mask1_14032)">
		<g style="mix-blend-mode:normal">
			<path id="Path 32397" d="" fill="#13202B" fill-opacity="1.000000" fill-rule="nonzero"/>
		</g>
	</g>
	<g mask="url(#mask1_14032)">
		<g style="mix-blend-mode:normal">
			<path id="Path 32398" d="M56.05 154.26C56.06 154.26 56.13 154.38 56.13 154.39C56.14 154.39 55.99 154.14 56.05 154.26Z" fill="#13202B" fill-opacity="1.000000" fill-rule="nonzero"/>
		</g>
	</g>
	<g mask="url(#mask1_14032)">
		<g style="mix-blend-mode:normal">
			<path id="Path 32399" d="" fill="#13202B" fill-opacity="1.000000" fill-rule="nonzero"/>
		</g>
	</g>
	<g mask="url(#mask1_14032)">
		<g style="mix-blend-mode:normal">
			<path id="Path 32400" d="" fill="#13202B" fill-opacity="1.000000" fill-rule="nonzero"/>
		</g>
	</g>
	<g mask="url(#mask1_14032)">
		<g style="mix-blend-mode:normal">
			<path id="Path 32401" d="" fill="#13202B" fill-opacity="1.000000" fill-rule="nonzero"/>
		</g>
	</g>
	<g mask="url(#mask1_14032)">
		<g style="mix-blend-mode:normal">
			<path id="Path 32402" d="" fill="#13202B" fill-opacity="1.000000" fill-rule="nonzero"/>
		</g>
	</g>
	<g mask="url(#mask1_14032)">
		<g style="mix-blend-mode:normal">
			<path id="Path 32403" d="M56.25 154.6C56.25 154.61 56.28 154.72 56.28 154.72C56.34 154.84 56.25 154.6 56.25 154.6Z" fill="#13202B" fill-opacity="1.000000" fill-rule="nonzero"/>
		</g>
	</g>
	<g mask="url(#mask1_14032)">
		<g style="mix-blend-mode:normal">
			<path id="Path 32404" d="M56.38 155.1C56.38 155.13 56.38 155.24 56.39 155.27C56.39 155.28 56.38 154.97 56.38 155.1Z" fill="#13202B" fill-opacity="1.000000" fill-rule="nonzero"/>
		</g>
	</g>
	<g mask="url(#mask1_14032)">
		<g style="mix-blend-mode:normal">
			<path id="Path 32405" d="" fill="#13202B" fill-opacity="1.000000" fill-rule="nonzero"/>
		</g>
	</g>
	<g mask="url(#mask1_14032)">
		<g style="mix-blend-mode:normal">
			<path id="Path 32406" d="M54.27 156.43C54.3 156.45 54.4 156.53 54.44 156.54C54.38 156.51 54.32 156.47 54.27 156.43Z" fill="#13202B" fill-opacity="1.000000" fill-rule="nonzero"/>
		</g>
	</g>
	<g mask="url(#mask1_14032)">
		<g style="mix-blend-mode:normal">
			<path id="Path 32407" d="" fill="#13202B" fill-opacity="1.000000" fill-rule="nonzero"/>
		</g>
	</g>
	<g mask="url(#mask1_14032)">
		<g style="mix-blend-mode:normal">
			<path id="Path 32408" d="M54.34 156.5C54.18 156.44 54.65 156.68 54.5 156.59C54.47 156.57 54.37 156.52 54.34 156.5Z" fill="#13202B" fill-opacity="1.000000" fill-rule="nonzero"/>
		</g>
	</g>
	<g mask="url(#mask1_14032)">
		<g style="mix-blend-mode:normal">
			<path id="Path 32409" d="M55.59 153.88C55.6 153.88 55.69 153.93 55.7 153.94C55.64 153.9 55.5 153.82 55.59 153.88Z" fill="#13202B" fill-opacity="1.000000" fill-rule="nonzero"/>
		</g>
	</g>
	<g mask="url(#mask1_14032)">
		<g style="mix-blend-mode:normal">
			<path id="Path 32410" d="" fill="#13202B" fill-opacity="1.000000" fill-rule="nonzero"/>
		</g>
	</g>
	<g mask="url(#mask1_14032)">
		<g style="mix-blend-mode:normal">
			<path id="Path 32411" d="M57.24 152.73C57.23 153.45 56.54 153.95 55.87 153.94C55.82 153.94 55.76 153.94 55.71 153.94C55.77 153.97 55.8 154.01 55.85 154.05C55.93 154.14 56.03 154.29 56.11 154.37C56.15 154.43 56.18 154.5 56.21 154.56C56.24 154.62 56.26 154.67 56.28 154.72C56.27 154.69 56.22 154.6 56.21 154.56C56.21 154.56 56.34 154.84 56.28 154.72C56.32 154.87 56.35 155.02 56.37 155.17C56.38 155.2 56.38 155.26 56.38 155.29C56.38 155.36 56.37 155.42 56.37 155.48C56.37 155.49 56.35 155.59 56.35 155.6C56.36 155.59 56.36 155.49 56.37 155.48C56.36 155.54 56.35 155.65 56.35 155.6C56.32 155.68 56.29 155.76 56.28 155.78C56.27 155.81 56.22 155.91 56.2 155.95C56.14 156.05 56.06 156.17 55.99 156.26C55.95 156.3 55.92 156.33 55.88 156.37C55.84 156.4 55.8 156.43 55.76 156.46C55.78 156.45 55.86 156.38 55.88 156.37C56.04 156.28 55.57 156.62 55.76 156.46C55.67 156.51 55.59 156.56 55.49 156.59C55.38 156.62 55.23 156.65 55.12 156.67C55.17 156.67 55.23 156.68 55.25 156.66C55.22 156.69 54.91 156.7 55.12 156.67C55.02 156.67 54.86 156.66 54.76 156.64C54.71 156.64 54.62 156.62 54.61 156.62C54.62 156.62 54.71 156.63 54.76 156.64C54.68 156.62 54.56 156.59 54.48 156.56C54.63 156.66 54.18 156.44 54.34 156.5C54.33 156.5 54.25 156.42 54.24 156.41C54.15 156.32 54.06 156.22 53.98 156.11C53.92 156.01 53.81 155.82 53.76 155.71C53.75 155.68 53.72 155.56 53.71 155.48C53.7 155.48 53.69 155.37 53.69 155.37L53.71 155.48C53.71 155.43 53.68 155.42 53.69 155.37C53.69 155.33 53.72 155.2 53.72 155.16C53.72 155.19 53.71 155.23 53.7 155.26C53.66 155.38 53.73 155.03 53.72 155.16C53.74 155.1 53.76 155.03 53.78 154.97C53.79 154.94 53.81 154.9 53.82 154.87C53.81 154.88 53.79 154.96 53.78 154.97C53.65 155.18 53.91 154.63 53.82 154.87C53.87 154.78 53.92 154.7 53.98 154.63C54.01 154.6 54.04 154.56 54.05 154.54C54.14 154.46 54.24 154.38 54.34 154.31C54.39 154.28 54.44 154.25 54.49 154.22C54.6 154.17 54.73 154.13 54.84 154.07C54.8 154.08 54.76 154.1 54.72 154.11C54.59 154.14 54.85 154.06 54.84 154.07C54.91 154.05 54.99 154.03 55.06 154.02C55.23 153.98 55.39 153.97 55.56 153.94C55.51 153.94 55.47 153.94 55.42 153.94C55.41 153.94 55.69 153.91 55.56 153.94C55.6 153.94 55.67 153.94 55.71 153.94C55.67 153.92 55.6 153.95 55.56 153.94C54.88 153.69 54.53 152.91 54.73 152.23C54.9 151.66 55.52 151.31 56.09 151.37C54.49 151.33 52.78 151.87 51.82 153.21C50.99 154.37 50.9 156.01 51.64 157.23C52.01 157.83 52.49 158.42 53.12 158.75C53.71 159.07 54.36 159.26 55.04 159.24C55.88 159.22 56.62 158.99 57.31 158.52C57.99 158.05 58.47 157.31 58.74 156.55C59.44 154.64 58.42 152.32 56.57 151.51C56.99 151.75 57.25 152.24 57.24 152.73Z" fill="#13202B" fill-opacity="1.000000" fill-rule="nonzero"/>
		</g>
	</g>
	<g mask="url(#mask1_14032)">
		<g style="mix-blend-mode:normal">
			<path id="Path 32412" d="M54.73 152.23C54.53 152.91 54.85 153.62 55.53 153.87C55.58 153.89 55.62 153.91 55.67 153.93C55.64 153.91 55.56 153.89 55.53 153.87C55.44 153.81 55.61 153.89 55.67 153.93C55.72 153.93 55.82 153.94 55.87 153.94C56.54 153.95 57.23 153.45 57.24 152.73C57.25 152.24 56.99 151.75 56.57 151.51C56.5 151.49 56.44 151.45 56.37 151.43C56.3 151.41 56.23 151.39 56.16 151.38C55.59 151.32 54.9 151.66 54.73 152.23Z" fill="#13202B" fill-opacity="1.000000" fill-rule="nonzero"/>
		</g>
	</g>
	<g mask="url(#mask1_14032)">
		<g style="mix-blend-mode:normal">
			<path id="Path 32413" d="M56.57 151.51C56.44 151.44 56.31 151.4 56.16 151.38C56.23 151.39 56.3 151.41 56.37 151.43C56.44 151.45 56.5 151.49 56.57 151.51Z" fill="#13202B" fill-opacity="1.000000" fill-rule="nonzero"/>
		</g>
	</g>
	<g mask="url(#mask1_14032)">
		<g style="mix-blend-mode:normal">
			<path id="Path 32414" d="M53.74 155.07C53.74 154.94 53.66 155.38 53.7 155.26C53.71 155.23 53.73 155.1 53.74 155.07Z" fill="#13202B" fill-opacity="1.000000" fill-rule="nonzero"/>
		</g>
	</g>
	<g mask="url(#mask1_14032)">
		<g style="mix-blend-mode:normal">
			<path id="Path 32415" d="" fill="#13202B" fill-opacity="1.000000" fill-rule="nonzero"/>
		</g>
	</g>
	<g mask="url(#mask1_14032)">
		<g style="mix-blend-mode:normal">
			<path id="Path 32416" d="" fill="#13202B" fill-opacity="1.000000" fill-rule="nonzero"/>
		</g>
	</g>
	<g mask="url(#mask1_14032)">
		<g style="mix-blend-mode:normal">
			<path id="Path 32417" d="M54.04 154.55C54.13 154.42 53.94 154.67 53.92 154.68C53.94 154.67 54.02 154.57 54.04 154.55Z" fill="#13202B" fill-opacity="1.000000" fill-rule="nonzero"/>
		</g>
	</g>
	<g mask="url(#mask1_14032)">
		<g style="mix-blend-mode:normal">
			<path id="Path 32418" d="M55.42 153.94C55.47 153.94 55.51 153.94 55.56 153.94C55.69 153.91 55.41 153.94 55.42 153.94Z" fill="#13202B" fill-opacity="1.000000" fill-rule="nonzero"/>
		</g>
	</g>
	<g mask="url(#mask1_14032)">
		<g style="mix-blend-mode:normal">
			<path id="Path 32419" d="" fill="#13202B" fill-opacity="1.000000" fill-rule="nonzero"/>
		</g>
	</g>
	<g mask="url(#mask1_14032)">
		<g style="mix-blend-mode:normal">
			<path id="Path 32420" d="" fill="#13202B" fill-opacity="1.000000" fill-rule="nonzero"/>
		</g>
	</g>
	<g mask="url(#mask1_14032)">
		<g style="mix-blend-mode:normal">
			<path id="Path 32421" d="M54.72 154.11C54.76 154.1 54.8 154.08 54.84 154.07C54.85 154.06 54.59 154.14 54.72 154.11Z" fill="#13202B" fill-opacity="1.000000" fill-rule="nonzero"/>
		</g>
	</g>
	<g mask="url(#mask1_14032)">
		<g style="mix-blend-mode:normal">
			<path id="Path 32422" d="M93.82 214.62C93.73 214.81 93.63 214.99 93.54 215.18C93.2 215.82 92.86 216.47 92.51 217.11C92.17 217.75 91.81 218.38 91.45 219.01C91.11 219.6 91.16 220.42 91.78 220.81C92.34 221.15 93.21 221.1 93.57 220.47C96.6 215.21 99.14 209.68 101.13 203.95C102.11 201.12 102.96 198.24 103.67 195.33C104.26 192.93 104.79 190.5 105.07 188.04C105.45 184.72 105.3 181.24 103.84 178.18C102.41 175.17 99.85 172.9 97.12 171.09C95.21 169.82 93.19 168.75 91.15 167.71C88.37 166.28 85.55 164.95 82.68 163.73C81.97 163.43 81.27 163.14 80.56 162.86C79.94 162.61 79.11 163.01 78.92 163.66C78.72 164.36 79.05 165.03 79.72 165.3C82.51 166.42 85.26 167.65 87.96 168.97C88.26 169.12 88.57 169.27 88.87 169.42C88.96 169.46 89.1 169.53 89.18 169.58C89.37 169.67 89.56 169.77 89.75 169.87C90.41 170.2 91.07 170.55 91.72 170.9C92.63 171.39 93.54 171.89 94.43 172.43C95.21 172.91 95.97 173.41 96.71 173.94C97.05 174.18 97.38 174.44 97.7 174.7C97.85 174.82 98 174.94 98.15 175.07C98.23 175.13 98.31 175.2 98.38 175.27C98.2 175.09 98.68 175.52 98.48 175.36C98.47 175.34 98.4 175.28 98.38 175.27C98.93 175.77 99.5 176.34 99.98 176.91C100.21 177.19 100.43 177.48 100.64 177.78C100.69 177.84 100.73 177.91 100.78 177.97C100.87 178.11 100.96 178.26 101.04 178.4C101.39 179 101.69 179.63 101.94 180.29C101.96 180.36 101.99 180.43 102.01 180.5C102.07 180.67 102.12 180.85 102.17 181.03C102.27 181.38 102.35 181.74 102.42 182.11C102.49 182.47 102.54 182.84 102.58 183.21C102.6 183.4 102.62 183.58 102.64 183.77C102.64 183.87 102.65 184 102.65 184.11C102.69 184.96 102.67 185.82 102.61 186.67C102.54 187.62 102.42 188.57 102.27 189.52C102.19 190.02 102.1 190.51 102.01 191C102 191.07 101.98 191.14 101.97 191.21C101.94 191.33 101.92 191.45 101.89 191.57C101.82 191.94 101.74 192.3 101.66 192.67C101.02 195.53 100.25 198.36 99.34 201.16C98.44 203.95 97.41 206.7 96.26 209.39C95.68 210.73 95.08 212.06 94.44 213.37C94.28 213.7 94.11 214.04 93.95 214.37C93.91 214.45 93.86 214.55 93.82 214.62Z" fill="#13202B" fill-opacity="1.000000" fill-rule="nonzero"/>
		</g>
	</g>
	<g mask="url(#mask1_14032)">
		<g style="mix-blend-mode:normal">
			<path id="Path 32423" d="" fill="#13202B" fill-opacity="1.000000" fill-rule="nonzero"/>
		</g>
	</g>
	<g mask="url(#mask1_14032)">
		<g style="mix-blend-mode:normal">
			<path id="Path 32424" d="" fill="#13202B" fill-opacity="1.000000" fill-rule="nonzero"/>
		</g>
	</g>
	<g mask="url(#mask1_14032)">
		<g style="mix-blend-mode:normal">
			<path id="Path 32425" d="" fill="#13202B" fill-opacity="1.000000" fill-rule="nonzero"/>
		</g>
	</g>
	<g mask="url(#mask1_14032)">
		<g style="mix-blend-mode:normal">
			<path id="Path 32426" d="" fill="#13202B" fill-opacity="1.000000" fill-rule="nonzero"/>
		</g>
	</g>
	<g mask="url(#mask1_14032)">
		<g style="mix-blend-mode:normal">
			<path id="Path 32427" d="" fill="#13202B" fill-opacity="1.000000" fill-rule="nonzero"/>
		</g>
	</g>
	<g mask="url(#mask1_14032)">
		<g style="mix-blend-mode:normal">
			<path id="Path 32428" d="" fill="#13202B" fill-opacity="1.000000" fill-rule="nonzero"/>
		</g>
	</g>
	<g mask="url(#mask1_14032)">
		<g style="mix-blend-mode:normal">
			<path id="Path 32429" d="" fill="#13202B" fill-opacity="1.000000" fill-rule="nonzero"/>
		</g>
	</g>
	<g mask="url(#mask1_14032)">
		<g style="mix-blend-mode:normal">
			<path id="Path 32430" d="M107.06 67.4C100.73 64.9 94.45 62.28 88.23 59.54C84.74 58.01 81.27 56.44 77.82 54.83C77.21 54.55 76.36 55.01 76.18 55.63C75.97 56.36 76.32 56.97 76.98 57.27C83.15 60.14 89.37 62.89 95.64 65.53C101.91 68.16 108.23 70.68 114.6 73.07C118.16 74.41 121.74 75.72 125.33 76.98C125.96 77.21 126.77 76.85 126.97 76.18C127.16 75.51 126.85 74.78 126.17 74.54C119.75 72.28 113.38 69.9 107.06 67.4Z" fill="#13202B" fill-opacity="1.000000" fill-rule="nonzero"/>
		</g>
	</g>
	<g mask="url(#mask1_14032)">
		<g style="mix-blend-mode:normal">
			<path id="Path 32431" d="" fill="#13202B" fill-opacity="1.000000" fill-rule="nonzero"/>
		</g>
	</g>
	<g mask="url(#mask1_14032)">
		<g style="mix-blend-mode:normal">
			<path id="Path 32432" d="M73.85 67.86C73.8 67.79 73.76 67.76 73.74 67.76C73.77 67.79 73.82 67.83 73.85 67.86Z" fill="#13202B" fill-opacity="1.000000" fill-rule="nonzero"/>
		</g>
	</g>
	<g mask="url(#mask1_14032)">
		<g style="mix-blend-mode:normal">
			<path id="Path 32433" d="" fill="#13202B" fill-opacity="1.000000" fill-rule="nonzero"/>
		</g>
	</g>
	<g mask="url(#mask1_14032)">
		<g style="mix-blend-mode:normal">
			<path id="Path 32434" d="" fill="#13202B" fill-opacity="1.000000" fill-rule="nonzero"/>
		</g>
	</g>
	<g mask="url(#mask1_14032)">
		<g style="mix-blend-mode:normal">
			<path id="Path 32435" d="" fill="#13202B" fill-opacity="1.000000" fill-rule="nonzero"/>
		</g>
	</g>
	<g mask="url(#mask1_14032)">
		<g style="mix-blend-mode:normal">
			<path id="Path 32436" d="M77.72 63.75C77.72 63.76 77.67 63.84 77.67 63.85C77.68 63.83 77.71 63.77 77.72 63.75Z" fill="#13202B" fill-opacity="1.000000" fill-rule="nonzero"/>
		</g>
	</g>
	<g mask="url(#mask1_14032)">
		<g style="mix-blend-mode:normal">
			<path id="Path 32437" d="" fill="#13202B" fill-opacity="1.000000" fill-rule="nonzero"/>
		</g>
	</g>
	<g mask="url(#mask1_14032)">
		<g style="mix-blend-mode:normal">
			<path id="Path 32438" d="" fill="#13202B" fill-opacity="1.000000" fill-rule="nonzero"/>
		</g>
	</g>
	<g mask="url(#mask1_14032)">
		<g style="mix-blend-mode:normal">
			<path id="Path 32439" d="" fill="#13202B" fill-opacity="1.000000" fill-rule="nonzero"/>
		</g>
	</g>
	<g mask="url(#mask1_14032)">
		<g style="mix-blend-mode:normal">
			<path id="Path 32440" d="M79.46 57.95C79.41 58.34 79.35 58.73 79.28 59.12C79.28 59.15 79.23 59.37 79.24 59.36C79.24 59.32 79.25 59.29 79.26 59.25C79.24 59.32 79.24 59.35 79.24 59.36C79.23 59.4 79.22 59.44 79.21 59.48C79.18 59.6 79.15 59.72 79.12 59.83C79.63 59.24 80.13 58.64 80.64 58.04C80.93 57.69 80.93 57.16 80.73 56.74C80.05 56.78 79.54 57.26 79.46 57.95Z" fill="#13202B" fill-opacity="1.000000" fill-rule="nonzero"/>
		</g>
	</g>
	<g mask="url(#mask1_14032)">
		<g style="mix-blend-mode:normal">
			<path id="Path 32441" d="" fill="#13202B" fill-opacity="1.000000" fill-rule="nonzero"/>
		</g>
	</g>
	<g mask="url(#mask1_14032)">
		<g style="mix-blend-mode:normal">
			<path id="Path 32442" d="M74.08 67.97C74.06 67.96 73.99 67.95 73.97 67.94C73.98 67.95 74.08 67.96 74.08 67.97Z" fill="#13202B" fill-opacity="1.000000" fill-rule="nonzero"/>
		</g>
	</g>
	<g mask="url(#mask1_14032)">
		<g style="mix-blend-mode:normal">
			<path id="Path 32443" d="" fill="#13202B" fill-opacity="1.000000" fill-rule="nonzero"/>
		</g>
	</g>
	<g mask="url(#mask1_14032)">
		<g style="mix-blend-mode:normal">
			<path id="Path 32444" d="" fill="#13202B" fill-opacity="1.000000" fill-rule="nonzero"/>
		</g>
	</g>
	<g mask="url(#mask1_14032)">
		<g style="mix-blend-mode:normal">
			<path id="Path 32445" d="" fill="#13202B" fill-opacity="1.000000" fill-rule="nonzero"/>
		</g>
	</g>
	<g mask="url(#mask1_14032)">
		<g style="mix-blend-mode:normal">
			<path id="Path 32446" d="M79.24 59.36C79.24 59.35 79.24 59.32 79.26 59.25C79.25 59.29 79.24 59.32 79.24 59.36Z" fill="#13202B" fill-opacity="1.000000" fill-rule="nonzero"/>
		</g>
	</g>
	<g mask="url(#mask1_14032)">
		<g style="mix-blend-mode:normal">
			<path id="Path 32447" d="M80.83 56.74C81.02 57.15 80.93 57.69 80.64 58.04C80.13 58.64 79.63 59.23 79.12 59.83C79.1 59.95 79.07 60.06 79.04 60.18C78.84 60.94 78.59 61.7 78.3 62.44C78.15 62.81 77.99 63.17 77.83 63.53C77.78 63.63 77.73 63.73 77.68 63.83C77.57 64.04 77.44 64.28 77.32 64.49C76.93 65.18 76.5 65.84 76.03 66.48C75.91 66.63 75.8 66.78 75.68 66.93C75.64 66.97 75.56 67.07 75.56 67.08C75.57 67.06 75.64 66.98 75.68 66.93C75.68 66.94 75.59 67.04 75.56 67.08C75.45 67.18 75.3 67.33 75.19 67.42C75.12 67.48 74.95 67.58 74.86 67.66C74.82 67.68 74.74 67.76 74.7 67.78C74.63 67.81 74.56 67.84 74.49 67.87C74.44 67.89 74.33 67.94 74.34 67.92C74.3 67.93 74.2 67.95 74.14 67.96C74.14 67.95 74.05 67.97 73.99 67.96C73.98 67.96 73.89 67.9 73.88 67.9C73.89 67.91 73.98 67.95 73.99 67.96C73.98 67.95 73.89 67.91 73.88 67.9C73.87 67.89 73.78 67.82 73.77 67.81C73.83 67.95 73.67 67.71 73.68 67.7C73.65 67.65 73.58 67.42 73.63 67.52C73.61 67.44 73.62 67.39 73.61 67.32C73.61 67.2 73.63 67.03 73.64 66.91C73.66 66.86 73.69 66.72 73.71 66.67C73.74 66.59 73.77 66.51 73.8 66.43C73.82 66.38 73.87 66.27 73.89 66.22C73.87 66.26 73.86 66.3 73.84 66.33C74.28 65.56 74.89 64.88 75.45 64.2C76.67 62.74 77.9 61.29 79.12 59.83C79.15 59.72 79.18 59.6 79.21 59.48C79.22 59.44 79.23 59.4 79.24 59.36C79.23 59.37 79.28 59.15 79.28 59.12C79.35 58.73 79.41 58.34 79.46 57.95C79.54 57.26 80.14 56.77 80.83 56.74C80.73 56.53 80.49 56.36 80.3 56.24C79.66 55.85 78.97 56.03 78.51 56.58C76.83 58.57 75.14 60.56 73.48 62.56C72.86 63.3 72.18 64.05 71.7 64.9C71.06 66.02 70.83 67.33 71.29 68.57C71.69 69.66 72.67 70.38 73.81 70.52C75.05 70.68 76.31 69.96 77.16 69.11C78.58 67.68 79.62 65.82 80.44 63.99C81.27 62.13 81.79 60.13 82.03 58.11C82.11 57.44 81.5 56.75 80.83 56.74Z" fill="#13202B" fill-opacity="1.000000" fill-rule="nonzero"/>
		</g>
	</g>
	<g mask="url(#mask1_14032)">
		<g style="mix-blend-mode:normal">
			<path id="Path 32448" d="M74.04 67.95C74.01 67.94 73.98 67.93 73.94 67.92C73.95 67.93 74.03 67.94 74.04 67.95Z" fill="#13202B" fill-opacity="1.000000" fill-rule="nonzero"/>
		</g>
	</g>
	<g mask="url(#mask1_14032)">
		<g style="mix-blend-mode:normal">
			<path id="Path 32449" d="M74.34 67.93C74.35 67.92 74.48 67.88 74.49 67.87C74.43 67.87 74.36 67.91 74.34 67.93Z" fill="#13202B" fill-opacity="1.000000" fill-rule="nonzero"/>
		</g>
	</g>
	<g mask="url(#mask1_14032)">
		<g style="mix-blend-mode:normal">
			<path id="Path 32450" d="" fill="#13202B" fill-opacity="1.000000" fill-rule="nonzero"/>
		</g>
	</g>
	<g mask="url(#mask1_14032)">
		<g style="mix-blend-mode:normal">
			<path id="Path 32451" d="" fill="#13202B" fill-opacity="1.000000" fill-rule="nonzero"/>
		</g>
	</g>
	<g mask="url(#mask1_14032)">
		<g style="mix-blend-mode:normal">
			<path id="Path 32452" d="" fill="#13202B" fill-opacity="1.000000" fill-rule="nonzero"/>
		</g>
	</g>
	<g mask="url(#mask1_14032)">
		<g style="mix-blend-mode:normal">
			<path id="Path 32453" d="M73.68 67.7C73.68 67.67 73.67 67.6 73.66 67.57C73.61 67.47 73.66 67.65 73.68 67.7Z" fill="#13202B" fill-opacity="1.000000" fill-rule="nonzero"/>
		</g>
	</g>
	<g mask="url(#mask1_14032)">
		<g style="mix-blend-mode:normal">
			<path id="Path 32454" d="M73.68 67.7C73.66 67.64 73.69 67.63 73.66 67.57C73.67 67.6 73.68 67.67 73.68 67.7Z" fill="#13202B" fill-opacity="1.000000" fill-rule="nonzero"/>
		</g>
	</g>
	<g mask="url(#mask1_14032)">
		<g style="mix-blend-mode:normal">
			<path id="Path 32455" d="" fill="#13202B" fill-opacity="1.000000" fill-rule="nonzero"/>
		</g>
	</g>
	<g mask="url(#mask1_14032)">
		<g style="mix-blend-mode:normal">
			<path id="Path 32456" d="" fill="#13202B" fill-opacity="1.000000" fill-rule="nonzero"/>
		</g>
	</g>
	<g mask="url(#mask1_14032)">
		<g style="mix-blend-mode:normal">
			<path id="Path 32457" d="" fill="#13202B" fill-opacity="1.000000" fill-rule="nonzero"/>
		</g>
	</g>
	<g mask="url(#mask1_14032)">
		<g style="mix-blend-mode:normal">
			<path id="Path 32458" d="M73.85 67.86C73.86 67.86 73.93 67.91 73.94 67.92C73.9 67.89 73.87 67.87 73.85 67.86Z" fill="#13202B" fill-opacity="1.000000" fill-rule="nonzero"/>
		</g>
	</g>
	<g mask="url(#mask1_14032)">
		<g style="mix-blend-mode:normal">
			<path id="Path 32459" d="M119.32 29.43C119.47 29.37 119.46 29.36 119.43 29.37C119.42 29.37 119.33 29.43 119.32 29.43Z" fill="#13202B" fill-opacity="1.000000" fill-rule="nonzero"/>
		</g>
	</g>
	<g mask="url(#mask1_14032)">
		<g style="mix-blend-mode:normal">
			<path id="Path 32460" d="M119.97 29.1C120.13 29.09 120.16 29.06 120.13 29.05C120.08 29.07 120.02 29.09 119.97 29.1Z" fill="#13202B" fill-opacity="1.000000" fill-rule="nonzero"/>
		</g>
	</g>
	<g mask="url(#mask1_14032)">
		<g style="mix-blend-mode:normal">
			<path id="Path 32461" d="" fill="#13202B" fill-opacity="1.000000" fill-rule="nonzero"/>
		</g>
	</g>
	<g mask="url(#mask1_14032)">
		<g style="mix-blend-mode:normal">
			<path id="Path 32462" d="" fill="#13202B" fill-opacity="1.000000" fill-rule="nonzero"/>
		</g>
	</g>
	<g mask="url(#mask1_14032)">
		<g style="mix-blend-mode:normal">
			<path id="Path 32463" d="" fill="#13202B" fill-opacity="1.000000" fill-rule="nonzero"/>
		</g>
	</g>
	<g mask="url(#mask1_14032)">
		<g style="mix-blend-mode:normal">
			<path id="Path 32464" d="" fill="#13202B" fill-opacity="1.000000" fill-rule="nonzero"/>
		</g>
	</g>
	<g mask="url(#mask1_14032)">
		<g style="mix-blend-mode:normal">
			<path id="Path 32465" d="" fill="#13202B" fill-opacity="1.000000" fill-rule="nonzero"/>
		</g>
	</g>
	<g mask="url(#mask1_14032)">
		<g style="mix-blend-mode:normal">
			<path id="Path 32466" d="" fill="#13202B" fill-opacity="1.000000" fill-rule="nonzero"/>
		</g>
	</g>
	<g mask="url(#mask1_14032)">
		<g style="mix-blend-mode:normal">
			<path id="Path 32467" d="" fill="#13202B" fill-opacity="1.000000" fill-rule="nonzero"/>
		</g>
	</g>
	<g mask="url(#mask1_14032)">
		<g style="mix-blend-mode:normal">
			<path id="Path 32468" d="" fill="#13202B" fill-opacity="1.000000" fill-rule="nonzero"/>
		</g>
	</g>
	<g mask="url(#mask1_14032)">
		<g style="mix-blend-mode:normal">
			<path id="Path 32469" d="" fill="#13202B" fill-opacity="1.000000" fill-rule="nonzero"/>
		</g>
	</g>
	<g mask="url(#mask1_14032)">
		<g style="mix-blend-mode:normal">
			<path id="Path 32470" d="" fill="#13202B" fill-opacity="1.000000" fill-rule="nonzero"/>
		</g>
	</g>
	<g mask="url(#mask1_14032)">
		<g style="mix-blend-mode:normal">
			<path id="Path 32471" d="M138.17 55.93C138.17 55.91 138.19 55.92 138.2 55.82C138.25 55.7 138.33 55.59 138.42 55.51C138.98 55.93 139.54 56.35 140.1 56.76C139.93 57.2 139.56 57.43 138.99 57.46L138.34 57.23C138.28 57.18 138.22 57.12 138.15 57.07C138.56 57.61 139.49 57.66 139.97 57.2C140.51 56.7 140.54 55.96 140.11 55.38C139.66 54.79 138.74 54.72 138.18 55.18C138.15 55.4 138.14 55.7 138.17 55.93Z" fill="#13202B" fill-opacity="1.000000" fill-rule="nonzero"/>
		</g>
	</g>
	<g mask="url(#mask1_14032)">
		<g style="mix-blend-mode:normal">
			<path id="Path 32472" d="M137.6 56.73C137.75 57.4 138.34 57.85 139.01 57.87C139.76 57.89 140.41 57.35 140.64 56.66C140.72 56.44 140.74 56.21 140.74 55.98C140.73 55.84 140.72 55.69 140.71 55.55C140.72 55.49 140.74 55.41 140.74 55.39C140.76 55.31 140.78 55.24 140.8 55.16C140.85 54.94 140.9 54.71 140.96 54.49C141.14 53.71 141.33 52.93 141.53 52.15C142.13 49.67 142.76 47.2 143.32 44.71C143.72 42.93 144.11 41.13 144.27 39.31C144.37 38.01 144.34 36.67 143.92 35.43C142.91 32.46 139.88 31.09 137.21 29.93C133.88 28.48 130.4 27.46 126.83 26.81C125.28 26.52 123.68 26.26 122.1 26.25C120.91 26.23 119.71 26.37 118.62 26.87C116.44 27.89 115.26 30.28 114.11 32.26C112.23 35.47 110.53 38.78 109.01 42.17C108.65 42.98 108.3 43.79 107.96 44.6C107.69 45.22 108.12 46.05 108.76 46.24C109.46 46.45 110.12 46.11 110.4 45.44C111.05 43.87 111.74 42.32 112.48 40.79C112.65 40.43 112.82 40.07 113 39.72C113.08 39.54 113.17 39.37 113.26 39.19C113.33 39.06 113.43 38.86 113.49 38.73C113.88 37.97 114.28 37.21 114.69 36.45C115.49 34.98 116.33 33.53 117.2 32.1C117.48 31.63 117.77 31.17 118.08 30.73C118.21 30.55 118.34 30.38 118.48 30.21C118.5 30.18 118.55 30.12 118.59 30.08C118.64 30.03 118.69 29.97 118.71 29.95C118.85 29.81 119 29.68 119.15 29.56C119.19 29.52 119.24 29.49 119.29 29.46C119.32 29.43 119.41 29.37 119.43 29.37C119.59 29.28 119.75 29.19 119.92 29.12C119.96 29.1 120.11 29.05 120.13 29.05C120.34 29 120.68 28.91 120.9 28.88C121.01 28.86 121.13 28.85 121.25 28.84C121.3 28.83 121.35 28.84 121.4 28.83C122 28.8 122.58 28.83 123.17 28.89C123.96 28.96 124.74 29.07 125.51 29.19C125.9 29.25 126.28 29.31 126.67 29.38C126.85 29.42 127.04 29.45 127.22 29.49C127.27 29.5 127.34 29.51 127.36 29.52C127.5 29.55 127.65 29.58 127.79 29.61C129.4 29.96 130.99 30.39 132.56 30.91C134.12 31.43 135.66 32.04 137.16 32.72C137.47 32.86 137.78 33.01 138.08 33.16C138.13 33.18 138.24 33.23 138.26 33.24C138.53 33.39 138.8 33.53 139.07 33.69C139.53 33.97 139.97 34.27 140.38 34.62C140.36 34.59 140.33 34.57 140.3 34.54C140.18 34.42 140.6 34.8 140.38 34.62C140.47 34.71 140.61 34.84 140.69 34.93C140.84 35.1 140.97 35.27 141.1 35.44C141.17 35.55 141.25 35.7 141.3 35.81C141.35 35.9 141.39 35.99 141.43 36.09C141.44 36.13 141.46 36.17 141.48 36.21C141.47 36.19 141.43 36.1 141.43 36.09C141.38 35.91 141.59 36.5 141.52 36.34C141.51 36.31 141.49 36.24 141.48 36.21C141.6 36.65 141.68 37.1 141.73 37.56C141.73 37.61 141.73 37.66 141.74 37.71C141.74 37.85 141.74 37.99 141.74 38.14C141.74 38.44 141.72 38.75 141.7 39.05C141.64 39.76 141.54 40.48 141.42 41.18C141.35 41.58 141.28 41.98 141.2 42.37C141.18 42.48 141.15 42.62 141.13 42.73C141.07 42.98 141.02 43.23 140.97 43.48C140.74 44.5 140.5 45.51 140.26 46.52C139.63 49.12 138.98 51.72 138.36 54.32C138.28 54.62 138.22 54.9 138.18 55.18C138.74 54.72 139.66 54.79 140.11 55.38C140.54 55.96 140.51 56.7 139.97 57.2C139.49 57.66 138.56 57.61 138.15 57.07C138.22 57.12 138.28 57.18 138.34 57.23L138.99 57.46C139.56 57.43 139.93 57.2 140.1 56.76C139.54 56.35 138.98 55.93 138.42 55.51C138.33 55.59 138.25 55.7 138.2 55.82C138.19 55.92 138.18 55.98 138.17 56.01C138.17 55.98 138.2 55.84 138.2 55.82C138.18 55.59 138.15 55.4 138.18 55.18C137.76 55.56 137.49 56.17 137.6 56.73Z" fill="#13202B" fill-opacity="1.000000" fill-rule="nonzero"/>
		</g>
	</g>
	<g mask="url(#mask1_14032)">
		<g style="mix-blend-mode:normal">
			<path id="Path 32473" d="M140.3 34.54C140.33 34.57 140.36 34.59 140.38 34.62C140.6 34.8 140.18 34.42 140.3 34.54Z" fill="#13202B" fill-opacity="1.000000" fill-rule="nonzero"/>
		</g>
	</g>
	<g mask="url(#mask1_14032)">
		<g style="mix-blend-mode:normal">
			<path id="Path 32474" d="M141.05 35.36C141.06 35.37 141.12 35.47 141.13 35.48C141.27 35.67 140.94 35.18 141.05 35.36Z" fill="#13202B" fill-opacity="1.000000" fill-rule="nonzero"/>
		</g>
	</g>
	<g mask="url(#mask1_14032)">
		<g style="mix-blend-mode:normal">
			<path id="Path 32475" d="M141.22 42.28C141.22 42.28 141.2 42.39 141.2 42.39C141.17 42.56 141.27 42.04 141.22 42.28Z" fill="#13202B" fill-opacity="1.000000" fill-rule="nonzero"/>
		</g>
	</g>
	<g mask="url(#mask1_14032)">
		<g style="mix-blend-mode:normal">
			<path id="Path 32476" d="" fill="#13202B" fill-opacity="1.000000" fill-rule="nonzero"/>
		</g>
	</g>
	<g mask="url(#mask1_14032)">
		<g style="mix-blend-mode:normal">
			<path id="Path 32477" d="M141.52 36.34C141.59 36.5 141.41 35.98 141.46 36.16C141.47 36.17 141.52 36.33 141.52 36.34Z" fill="#13202B" fill-opacity="1.000000" fill-rule="nonzero"/>
		</g>
	</g>
	<g mask="url(#mask1_14032)">
		<g style="mix-blend-mode:normal">
			<path id="Path 32478" d="" fill="#13202B" fill-opacity="1.000000" fill-rule="nonzero"/>
		</g>
	</g>
	<g mask="url(#mask1_14032)">
		<g style="mix-blend-mode:normal">
			<path id="Path 32479" d="" fill="#13202B" fill-opacity="1.000000" fill-rule="nonzero"/>
		</g>
	</g>
	<g mask="url(#mask1_14032)">
		<g style="mix-blend-mode:normal">
			<path id="Path 32480" d="" fill="#13202B" fill-opacity="1.000000" fill-rule="nonzero"/>
		</g>
	</g>
	<g mask="url(#mask1_14032)">
		<g style="mix-blend-mode:normal">
			<path id="Path 32481" d="M138.29 41.51C138.45 41.19 138.6 40.86 138.76 40.54C138.79 40.49 138.82 40.44 138.84 40.39C138.86 40.36 138.91 40.26 138.92 40.23C139 40.07 139.08 39.91 139.16 39.75C139.45 39.21 139.74 38.66 140.07 38.14C140.25 37.86 140.43 37.58 140.64 37.32C140.73 37.19 140.83 37.08 140.93 36.95C141 36.89 141.06 36.82 141.13 36.75C141.36 36.52 141.62 36.33 141.88 36.13C141.96 36.08 142.03 36.03 142.11 35.99C142.27 35.9 142.44 35.82 142.61 35.74C143.23 35.47 143.53 34.61 143.21 34.02C142.86 33.38 142.14 33.14 141.48 33.42C138.83 34.58 137.54 37.25 136.32 39.7C134.93 42.51 133.7 45.4 132.64 48.35C132.04 50.02 131.49 51.71 131 53.42C130.81 54.07 131.1 54.86 131.8 55.06C132.44 55.25 133.23 54.96 133.44 54.26C134.28 51.33 135.29 48.45 136.45 45.63C137.03 44.24 137.64 42.87 138.29 41.51Z" fill="#13202B" fill-opacity="1.000000" fill-rule="nonzero"/>
		</g>
	</g>
	<g mask="url(#mask1_14032)">
		<g style="mix-blend-mode:normal">
			<path id="Path 32482" d="" fill="#13202B" fill-opacity="1.000000" fill-rule="nonzero"/>
		</g>
	</g>
	<g mask="url(#mask1_14032)">
		<g style="mix-blend-mode:normal">
			<path id="Path 32483" d="" fill="#13202B" fill-opacity="1.000000" fill-rule="nonzero"/>
		</g>
	</g>
	<g mask="url(#mask1_14032)">
		<g style="mix-blend-mode:normal">
			<path id="Path 32484" d="" fill="#13202B" fill-opacity="1.000000" fill-rule="nonzero"/>
		</g>
	</g>
	<g mask="url(#mask1_14032)">
		<g style="mix-blend-mode:normal">
			<path id="Path 32485" d="" fill="#13202B" fill-opacity="1.000000" fill-rule="nonzero"/>
		</g>
	</g>
	<g mask="url(#mask1_14032)">
		<g style="mix-blend-mode:normal">
			<path id="Path 32486" d="" fill="#13202B" fill-opacity="1.000000" fill-rule="nonzero"/>
		</g>
	</g>
	<g mask="url(#mask1_14032)">
		<g style="mix-blend-mode:normal">
			<path id="Path 32487" d="M183.27 43.23C183.3 43.24 183.33 43.26 183.37 43.28C183.27 43.23 183.25 43.22 183.27 43.23Z" fill="#13202B" fill-opacity="1.000000" fill-rule="nonzero"/>
		</g>
	</g>
	<g mask="url(#mask1_14032)">
		<g style="mix-blend-mode:normal">
			<path id="Path 32488" d="" fill="#13202B" fill-opacity="1.000000" fill-rule="nonzero"/>
		</g>
	</g>
	<g mask="url(#mask1_14032)">
		<g style="mix-blend-mode:normal">
			<path id="Path 32489" d="" fill="#13202B" fill-opacity="1.000000" fill-rule="nonzero"/>
		</g>
	</g>
	<g mask="url(#mask1_14032)">
		<g style="mix-blend-mode:normal">
			<path id="Path 32490" d="" fill="#13202B" fill-opacity="1.000000" fill-rule="nonzero"/>
		</g>
	</g>
	<g mask="url(#mask1_14032)">
		<g style="mix-blend-mode:normal">
			<path id="Path 32491" d="" fill="#13202B" fill-opacity="1.000000" fill-rule="nonzero"/>
		</g>
	</g>
	<g mask="url(#mask1_14032)">
		<g style="mix-blend-mode:normal">
			<path id="Path 32492" d="" fill="#13202B" fill-opacity="1.000000" fill-rule="nonzero"/>
		</g>
	</g>
	<g mask="url(#mask1_14032)">
		<g style="mix-blend-mode:normal">
			<path id="Path 32493" d="" fill="#13202B" fill-opacity="1.000000" fill-rule="nonzero"/>
		</g>
	</g>
	<g mask="url(#mask1_14032)">
		<g style="mix-blend-mode:normal">
			<path id="Path 32494" d="" fill="#13202B" fill-opacity="1.000000" fill-rule="nonzero"/>
		</g>
	</g>
	<g mask="url(#mask1_14032)">
		<g style="mix-blend-mode:normal">
			<path id="Path 32495" d="" fill="#13202B" fill-opacity="1.000000" fill-rule="nonzero"/>
		</g>
	</g>
	<g mask="url(#mask1_14032)">
		<g style="mix-blend-mode:normal">
			<path id="Path 32496" d="" fill="#13202B" fill-opacity="1.000000" fill-rule="nonzero"/>
		</g>
	</g>
	<g mask="url(#mask1_14032)">
		<g style="mix-blend-mode:normal">
			<path id="Path 32497" d="" fill="#13202B" fill-opacity="1.000000" fill-rule="nonzero"/>
		</g>
	</g>
	<g mask="url(#mask1_14032)">
		<g style="mix-blend-mode:normal">
			<path id="Path 32498" d="" fill="#13202B" fill-opacity="1.000000" fill-rule="nonzero"/>
		</g>
	</g>
	<g mask="url(#mask1_14032)">
		<g style="mix-blend-mode:normal">
			<path id="Path 32499" d="M176.62 75.44C176.58 75.63 176.54 75.83 176.5 76.02C176.41 76.44 176.32 76.87 176.23 77.29C175.24 81.75 174.1 86.18 173.02 90.62C172.2 94.03 171.38 97.45 170.59 100.87C170.1 102.96 169.63 105.04 169.15 107.13C168.64 109.41 168.08 111.68 167.66 113.98C167.06 117.24 166.85 121.34 169.31 123.94C172.37 127.18 177.54 126.22 180.43 123.25C182.11 121.51 183.2 119.35 184.04 117.11C184.88 114.86 185.58 112.55 186.26 110.25C187.67 105.45 188.85 100.59 189.86 95.69C190.89 90.72 191.76 85.73 192.52 80.71C193.21 76.18 193.9 71.63 194.37 67.07C195.15 59.62 195.07 51.19 189.92 45.18C184.69 39.08 175.8 37.63 168.28 39.38C160.01 41.32 153.27 47.08 147.6 53.13C146.15 54.68 144.75 56.27 143.36 57.87C142.91 58.38 143.15 59.32 143.69 59.66C144.34 60.06 145.01 59.87 145.49 59.32C146.16 58.54 146.85 57.77 147.54 57C147.58 56.94 147.69 56.83 147.69 56.83C147.78 56.73 147.86 56.63 147.95 56.54C148.13 56.34 148.31 56.15 148.48 55.95C148.84 55.57 149.2 55.18 149.56 54.8C150.97 53.31 152.42 51.85 153.94 50.48C155.48 49.08 157.1 47.77 158.8 46.58C159.01 46.43 159.23 46.28 159.44 46.14C159.49 46.1 159.55 46.07 159.6 46.04C159.62 46.02 159.81 45.9 159.81 45.9C160.28 45.59 160.76 45.3 161.25 45.02C162.1 44.52 162.98 44.06 163.88 43.64C164.76 43.23 165.66 42.85 166.58 42.54C166.64 42.52 166.77 42.47 166.78 42.47C166.89 42.43 167 42.4 167.12 42.36C167.31 42.31 167.5 42.25 167.69 42.2C168.18 42.06 168.69 41.93 169.19 41.82C170.11 41.62 171.03 41.48 171.96 41.38C172.18 41.36 172.4 41.34 172.62 41.32C172.64 41.32 172.73 41.31 172.76 41.31C172.88 41.3 173 41.3 173.12 41.29C173.6 41.27 174.07 41.26 174.55 41.27C175.5 41.28 176.45 41.34 177.39 41.47C177.81 41.52 178.24 41.6 178.66 41.67C178.68 41.68 178.75 41.69 178.78 41.7C178.9 41.73 179.01 41.75 179.12 41.78C179.39 41.84 179.65 41.9 179.92 41.98C180.77 42.21 181.61 42.5 182.43 42.84C182.64 42.93 182.85 43.03 183.06 43.13C183.13 43.16 183.2 43.19 183.27 43.23C183.25 43.22 183.27 43.23 183.37 43.28C183.33 43.26 183.3 43.24 183.27 43.23C183.3 43.24 183.44 43.32 183.46 43.33C183.87 43.54 184.27 43.77 184.65 44.02C185.04 44.26 185.41 44.52 185.78 44.8C185.93 44.91 186.08 45.03 186.23 45.15C186.32 45.22 186.41 45.3 186.49 45.37C186.55 45.42 186.61 45.47 186.67 45.52C187.35 46.15 187.99 46.84 188.55 47.59C188.66 47.74 188.78 47.89 188.89 48.05C188.95 48.14 189.02 48.23 189.08 48.33C189.32 48.71 189.62 49.2 189.83 49.6C190.24 50.39 190.6 51.21 190.9 52.06C190.91 52.08 190.97 52.27 190.97 52.27C190.96 52.24 190.91 52.09 190.9 52.06C190.93 52.13 190.97 52.27 190.97 52.27C191 52.34 191.02 52.42 191.04 52.49C191.1 52.67 191.15 52.85 191.2 53.03C191.33 53.5 191.45 53.97 191.55 54.45C191.74 55.35 191.88 56.25 191.98 57.16C192 57.35 192.02 57.54 192.04 57.73C192.05 57.85 192.06 57.96 192.07 58.08C192.07 58.09 192.08 58.19 192.08 58.26C192.11 58.7 192.13 59.15 192.14 59.6C192.17 60.55 192.16 61.49 192.13 62.43C191.98 66.5 191.37 70.54 190.81 74.57C190.14 79.43 189.4 84.28 188.53 89.11C187.67 93.87 186.69 98.54 185.49 103.29C184.89 105.64 184.25 107.98 183.55 110.3C182.87 112.56 182.19 114.85 181.29 117.05C180.55 118.88 179.57 120.71 178.01 121.97C177.84 122.11 177.67 122.23 177.49 122.35C177.44 122.38 177.33 122.46 177.32 122.46C177.21 122.52 177.11 122.58 177.01 122.64C176.83 122.73 176.65 122.82 176.47 122.9C176.36 122.95 176.26 122.99 176.15 123.04C176.08 123.06 176.02 123.09 175.95 123.11C175.54 123.23 175.07 123.34 174.65 123.39C174.63 123.4 174.46 123.41 174.42 123.41C174.34 123.42 174.26 123.42 174.18 123.42C173.91 123.42 173.65 123.4 173.38 123.36C173.35 123.36 173.31 123.35 173.28 123.35C173.28 123.35 173.25 123.34 173.16 123.33C173.2 123.33 173.24 123.34 173.28 123.35C173.27 123.34 173.09 123.3 173.06 123.29C172.84 123.24 172.63 123.16 172.42 123.07C172.39 123.06 172.24 122.99 172.22 122.98C172.25 122.99 172.28 123.01 172.31 123.03C172.22 122.98 172.2 122.97 172.22 122.98C172.15 122.94 172.08 122.9 172.02 122.86C171.84 122.75 171.67 122.63 171.51 122.5C171.45 122.43 171.33 122.33 171.26 122.26C171.13 122.12 171.01 121.97 170.89 121.82C170.85 121.76 170.81 121.7 170.77 121.64C170.66 121.45 170.54 121.24 170.45 121.04C170.38 120.89 170.32 120.75 170.27 120.6C170.27 120.58 170.18 120.32 170.16 120.26C170.05 119.84 169.97 119.41 169.92 118.98C169.91 118.88 169.89 118.78 169.89 118.67C169.89 118.67 169.88 118.55 169.87 118.49C169.87 118.39 169.86 118.18 169.86 118.07C169.85 117.61 169.87 117.15 169.9 116.69C169.96 115.87 170.07 115.06 170.21 114.25C170.23 114.14 170.25 114.04 170.27 113.94C170.28 113.91 170.29 113.82 170.3 113.77C170.3 113.8 170.28 113.9 170.27 113.94C170.31 113.76 170.32 113.7 170.3 113.77C170.34 113.6 170.37 113.43 170.41 113.26C170.55 112.65 170.68 112.04 170.82 111.44C171.31 109.24 171.8 107.05 172.3 104.86C173.13 101.24 173.98 97.63 174.85 94.02C175.99 89.26 177.2 84.51 178.3 79.75C179 76.72 179.66 73.67 180 70.58C180.19 68.89 180.27 67.2 180.32 65.51C180.45 61.62 180.46 57.61 179.41 53.85C178.87 51.95 178.08 50.19 176.97 48.56C176.59 48 175.62 47.98 175.16 48.42C174.6 48.94 174.61 49.64 175.02 50.24C175.02 50.25 175.09 50.35 175.1 50.36C175.16 50.46 175.22 50.56 175.29 50.66C175.41 50.87 175.52 51.07 175.64 51.28C175.88 51.73 176.09 52.19 176.29 52.66C176.36 52.84 176.44 53.02 176.51 53.21C176.55 53.32 176.59 53.43 176.63 53.54C176.63 53.56 176.66 53.64 176.67 53.67C176.82 54.16 176.96 54.66 177.08 55.16C177.3 56.09 177.46 57.04 177.58 57.99C177.63 58.48 177.68 58.96 177.71 59.45C177.72 59.47 177.72 59.56 177.72 59.6C177.73 59.68 177.73 59.76 177.74 59.84C177.75 60.13 177.77 60.41 177.77 60.7C177.87 63.43 177.79 66.18 177.57 68.9C177.46 70.28 177.29 71.65 177.07 73.01C176.95 73.73 176.82 74.45 176.68 75.16C176.66 75.26 176.64 75.35 176.62 75.44Z" fill="#13202B" fill-opacity="1.000000" fill-rule="nonzero"/>
		</g>
	</g>
	<g mask="url(#mask1_14032)">
		<g style="mix-blend-mode:normal">
			<path id="Path 32500" d="" fill="#13202B" fill-opacity="1.000000" fill-rule="nonzero"/>
		</g>
	</g>
	<g mask="url(#mask1_14032)">
		<g style="mix-blend-mode:normal">
			<path id="Path 32501" d="M173.28 123.35C173.24 123.34 173.2 123.33 173.16 123.33C173.25 123.34 173.28 123.35 173.28 123.35Z" fill="#13202B" fill-opacity="1.000000" fill-rule="nonzero"/>
		</g>
	</g>
	<g mask="url(#mask1_14032)">
		<g style="mix-blend-mode:normal">
			<path id="Path 32502" d="" fill="#13202B" fill-opacity="1.000000" fill-rule="nonzero"/>
		</g>
	</g>
	<g mask="url(#mask1_14032)">
		<g style="mix-blend-mode:normal">
			<path id="Path 32503" d="" fill="#13202B" fill-opacity="1.000000" fill-rule="nonzero"/>
		</g>
	</g>
	<g mask="url(#mask1_14032)">
		<g style="mix-blend-mode:normal">
			<path id="Path 32504" d="M172.31 123.03C172.28 123.01 172.25 122.99 172.22 122.98C172.2 122.97 172.22 122.98 172.31 123.03Z" fill="#13202B" fill-opacity="1.000000" fill-rule="nonzero"/>
		</g>
	</g>
	<g mask="url(#mask1_14032)">
		<g style="mix-blend-mode:normal">
			<path id="Path 32505" d="" fill="#13202B" fill-opacity="1.000000" fill-rule="nonzero"/>
		</g>
	</g>
	<g mask="url(#mask1_14032)">
		<g style="mix-blend-mode:normal">
			<path id="Path 32506" d="" fill="#13202B" fill-opacity="1.000000" fill-rule="nonzero"/>
		</g>
	</g>
	<g mask="url(#mask1_14032)">
		<g style="mix-blend-mode:normal">
			<path id="Path 32507" d="" fill="#13202B" fill-opacity="1.000000" fill-rule="nonzero"/>
		</g>
	</g>
	<g mask="url(#mask1_14032)">
		<g style="mix-blend-mode:normal">
			<path id="Path 32508" d="" fill="#13202B" fill-opacity="1.000000" fill-rule="nonzero"/>
		</g>
	</g>
	<g mask="url(#mask1_14032)">
		<g style="mix-blend-mode:normal">
			<path id="Path 32509" d="" fill="#13202B" fill-opacity="1.000000" fill-rule="nonzero"/>
		</g>
	</g>
	<g mask="url(#mask1_14032)">
		<g style="mix-blend-mode:normal">
			<path id="Path 32510" d="M186.51 43.13C183.96 43.14 181.58 44.1 179.44 45.41C177.27 46.74 175.22 48.29 173.3 49.95C169.43 53.28 166.02 57.18 163.25 61.47C161.66 63.92 160.28 66.51 159.1 69.18C158.83 69.8 159.27 70.64 159.9 70.82C160.62 71.03 161.25 70.69 161.54 70.02C161.79 69.45 162.06 68.88 162.33 68.31C162.39 68.18 162.46 68.05 162.52 67.91C162.55 67.85 162.58 67.79 162.62 67.73C162.75 67.46 162.88 67.2 163.02 66.94C163.6 65.85 164.22 64.77 164.87 63.72C166.17 61.64 167.61 59.65 169.19 57.76C169.38 57.54 169.57 57.31 169.76 57.09C169.84 56.99 169.93 56.89 170.01 56.8C170.06 56.74 170.11 56.68 170.16 56.63C170.57 56.17 171.06 55.65 171.48 55.21C172.33 54.33 173.2 53.49 174.11 52.67C175.91 51.05 177.82 49.54 179.83 48.2C179.84 48.19 179.94 48.12 180.01 48.08L179.83 48.2C179.82 48.21 179.98 48.1 180.01 48.08C180.14 48 180.35 47.87 180.48 47.78C180.76 47.61 181.05 47.44 181.33 47.28C181.89 46.97 182.47 46.68 183.06 46.43C183.2 46.37 183.35 46.32 183.49 46.26C183.56 46.24 183.62 46.21 183.69 46.19C184 46.1 184.33 45.99 184.65 45.92C184.95 45.85 185.25 45.8 185.55 45.76C185.62 45.75 185.69 45.74 185.76 45.74C185.92 45.72 186.18 45.71 186.35 45.71C187.02 45.71 187.7 45.23 187.71 44.5C187.73 43.84 187.23 43.13 186.51 43.13Z" fill="#13202B" fill-opacity="1.000000" fill-rule="nonzero"/>
		</g>
	</g>
	<g mask="url(#mask1_14032)">
		<g style="mix-blend-mode:normal">
			<path id="Path 32511" d="" fill="#13202B" fill-opacity="1.000000" fill-rule="nonzero"/>
		</g>
	</g>
	<g mask="url(#mask1_14032)">
		<g style="mix-blend-mode:normal">
			<path id="Path 32512" d="" fill="#13202B" fill-opacity="1.000000" fill-rule="nonzero"/>
		</g>
	</g>
	<g mask="url(#mask1_14032)">
		<g style="mix-blend-mode:normal">
			<path id="Path 32513" d="" fill="#13202B" fill-opacity="1.000000" fill-rule="nonzero"/>
		</g>
	</g>
	<g mask="url(#mask1_14032)">
		<g style="mix-blend-mode:normal">
			<path id="Path 32514" d="" fill="#13202B" fill-opacity="1.000000" fill-rule="nonzero"/>
		</g>
	</g>
	<g mask="url(#mask1_14032)">
		<g style="mix-blend-mode:normal">
			<path id="Path 32515" d="" fill="#13202B" fill-opacity="1.000000" fill-rule="nonzero"/>
		</g>
	</g>
	<g mask="url(#mask1_14032)">
		<g style="mix-blend-mode:normal">
			<path id="Path 32516" d="" fill="#13202B" fill-opacity="1.000000" fill-rule="nonzero"/>
		</g>
	</g>
	<g mask="url(#mask1_14032)">
		<g style="mix-blend-mode:normal">
			<path id="Path 32517" d="" fill="#13202B" fill-opacity="1.000000" fill-rule="nonzero"/>
		</g>
	</g>
	<g mask="url(#mask1_14032)">
		<g style="mix-blend-mode:normal">
			<path id="Path 32518" d="M152.38 183.2C152.39 183.17 152.44 183.08 152.45 183.05C152.55 182.8 152.24 183.41 152.38 183.2Z" fill="#13202B" fill-opacity="1.000000" fill-rule="nonzero"/>
		</g>
	</g>
	<g mask="url(#mask1_14032)">
		<g style="mix-blend-mode:normal">
			<path id="Path 32519" d="M152.53 182.97C152.55 182.94 152.59 182.9 152.61 182.87C152.77 182.67 152.33 183.15 152.53 182.97Z" fill="#13202B" fill-opacity="1.000000" fill-rule="nonzero"/>
		</g>
	</g>
	<g mask="url(#mask1_14032)">
		<g style="mix-blend-mode:normal">
			<path id="Path 32520" d="M150.52 190.57C150.49 190.57 150.39 190.58 150.36 190.58C150.23 190.58 150.09 190.59 149.96 190.59C149.66 190.59 149.36 190.58 149.05 190.57C149.43 191.13 149.81 191.7 150.19 192.27C150.33 191.7 150.39 191.14 150.52 190.57Z" fill="#13202B" fill-opacity="1.000000" fill-rule="nonzero"/>
		</g>
	</g>
	<g mask="url(#mask1_14032)">
		<g style="mix-blend-mode:normal">
			<path id="Path 32521" d="M153.97 179.2C153.85 179.28 153.72 179.36 153.59 179.43C153.18 179.66 152.76 179.86 152.34 180.07C151.58 180.44 150.88 180.86 150.37 181.55C149.97 182.11 149.78 182.82 149.62 183.48C149.14 185.31 148.74 187.17 148.31 189.02C148.13 189.83 147.94 190.63 147.75 191.43C147.57 192.23 147.98 193.09 148.89 193.14C153.88 193.42 158.67 191.01 162.14 187.55C166.27 183.42 168.73 178.03 171.04 172.77C173.3 167.64 175.35 162.41 177.05 157.07C178.76 151.7 180.1 146.2 180.92 140.62C181.72 135.09 181.95 129.51 181.5 123.94C181.44 123.25 181.37 122.56 181.3 121.87C181.22 121.2 180.42 120.7 179.78 120.86C179.05 121.03 178.68 121.66 178.77 122.37C178.84 123.04 178.91 123.71 178.96 124.38C179.02 125.09 179.05 125.49 179.08 126.26C179.15 127.59 179.17 128.93 179.16 130.27C179.13 132.96 178.94 135.66 178.62 138.33C178.46 139.68 178.26 141.03 178.04 142.37C177.92 143.06 177.8 143.74 177.67 144.42C177.56 145 177.46 145.48 177.31 146.19C176.73 148.85 176.04 151.49 175.26 154.1C173.7 159.34 171.78 164.47 169.65 169.51C168.57 172.04 167.47 174.58 166.24 177.05C166.2 177.13 166.13 177.28 166.08 177.36C166.01 177.5 165.94 177.64 165.86 177.79C165.69 178.12 165.52 178.44 165.34 178.77C165.01 179.37 164.66 179.97 164.3 180.56C163.57 181.75 162.77 182.91 161.89 183.99C161.15 184.9 160.41 185.69 159.45 186.53C159.01 186.91 158.56 187.27 158.1 187.61C157.87 187.78 157.63 187.95 157.39 188.11C157.34 188.14 157.28 188.18 157.23 188.21C157.09 188.3 156.94 188.39 156.79 188.48C156.3 188.77 155.79 189.04 155.27 189.29C155.02 189.41 154.75 189.52 154.49 189.63C154.37 189.68 154.24 189.73 154.12 189.77C154.07 189.79 154.01 189.81 153.96 189.83C153.96 189.83 153.87 189.87 153.81 189.89C153.77 189.9 153.7 189.93 153.68 189.93C153.63 189.95 153.57 189.97 153.52 189.98C153.38 190.03 153.23 190.07 153.09 190.11C152.8 190.19 152.5 190.26 152.21 190.32C151.67 190.44 151.13 190.51 150.59 190.56C150.46 191.13 150.33 191.7 150.19 192.27C149.81 191.7 149.43 191.13 149.05 190.56C149.36 190.58 149.66 190.59 149.96 190.59C150.09 190.59 150.23 190.58 150.36 190.58C150.31 190.58 150.45 190.57 150.59 190.56C151 188.76 151.41 186.96 151.84 185.17C151.97 184.66 152.09 184.15 152.24 183.65C152.28 183.5 152.33 183.35 152.39 183.21C152.25 183.42 152.55 182.8 152.45 183.05C152.44 183.08 152.4 183.18 152.39 183.21C152.42 183.15 152.49 183.03 152.53 182.97C152.33 183.15 152.77 182.67 152.61 182.87C152.59 182.9 152.55 182.94 152.53 182.97C152.63 182.89 152.75 182.79 152.85 182.71C152.93 182.66 153.06 182.59 153.14 182.55C154.14 182.04 155.11 181.57 156.02 180.91C157.56 179.78 158.81 178.27 159.88 176.7C161.71 174.04 163.1 171.06 164.42 168.12C167.19 161.91 169.33 155.42 170.79 148.78C172.27 142.04 173.1 135.17 173.19 128.28C173.2 127.43 173.2 126.58 173.19 125.74C173.18 125.06 172.71 124.38 171.98 124.37C171.32 124.36 170.6 124.85 170.61 125.58C170.69 132.38 170.08 139.18 168.78 145.86C168.69 146.32 168.68 146.37 168.58 146.83C168.49 147.29 168.39 147.75 168.29 148.21C168.1 149.04 167.91 149.86 167.7 150.69C167.29 152.33 166.84 153.96 166.35 155.58C165.36 158.83 164.21 162.02 162.9 165.14C162.25 166.7 161.55 168.25 160.82 169.78C160.42 170.59 160.16 171.14 159.77 171.87C159.42 172.54 159.04 173.21 158.65 173.86C158.02 174.89 157.34 175.89 156.57 176.82C156.49 176.92 156.41 177.01 156.33 177.11C156.17 177.26 155.96 177.52 155.8 177.68C155.52 177.97 155.22 178.25 154.9 178.51C154.64 178.72 154.38 178.93 154.1 179.12C154.04 179.15 154.03 179.17 153.97 179.2Z" fill="#13202B" fill-opacity="1.000000" fill-rule="nonzero"/>
		</g>
	</g>
	<g mask="url(#mask1_14032)">
		<g style="mix-blend-mode:normal">
			<path id="Path 32522" d="" fill="#13202B" fill-opacity="1.000000" fill-rule="nonzero"/>
		</g>
	</g>
</svg>
