<svg width="90.000000" height="124.000000" viewBox="0 0 90 124" fill="none" xmlns="http://www.w3.org/2000/svg" xmlns:xlink="http://www.w3.org/1999/xlink">
	<desc>
			Created with Pixso.
	</desc>
	<defs/>
	<mask id="mask78_490" mask-type="alpha" maskUnits="userSpaceOnUse" x="0.000000" y="0.000000" width="90.000000" height="124.000000">
		<rect id="Rectangle 3537" width="90.000000" height="124.000000" fill="#C4C4C4" fill-opacity="1.000000"/>
	</mask>
	<g mask="url(#mask78_490)">
		<mask id="mask78_463" mask-type="alpha" maskUnits="userSpaceOnUse" x="-10.000488" y="-13.000000" width="121.459473" height="147.430664">
			<g style="mix-blend-mode:normal">
				<rect id="Rectangle 2556" x="27.197754" y="-13.000000" width="88.111351" height="127.228714" transform="rotate(17 27.197754 -13.000000)" fill="#C4C4C4" fill-opacity="1.000000"/>
			</g>
		</mask>
		<g mask="url(#mask78_463)">
			<g style="mix-blend-mode:normal">
				<path id="Path 12759" d="M67.65 43.04L70.24 34.58C70.42 33.98 70.81 33.47 71.35 33.15C73.32 31.94 74.89 30.03 75.62 27.64L77.34 21.99C78.64 17.75 72.59 15.9 65.12 13.61C57.66 11.33 51.61 9.48 50.31 13.73L48.59 19.38C47.86 21.77 48.08 24.22 49.04 26.33C49.31 26.9 49.35 27.54 49.17 28.14L46.58 36.6C27.64 35.89 9.84 47.92 4.04 66.9C-2.88 89.52 9.86 113.46 32.48 120.38C55.11 127.3 79.05 114.57 85.97 91.94C91.77 72.96 83.74 53.05 67.65 43.04Z" fill="#FFFFFF" fill-opacity="1.000000" fill-rule="nonzero"/>
			</g>
		</g>
		<g mask="url(#mask78_463)">
			<g style="mix-blend-mode:normal">
				<path id="Path 12760" d="M82.77 89.47C76.47 110.1 54.63 121.71 34.01 115.4C13.38 109.09 1.77 87.26 8.08 66.63L82.77 89.47Z" fill="#3AAD1E" fill-opacity="1.000000" fill-rule="nonzero"/>
			</g>
		</g>
		<g mask="url(#mask78_463)">
			<g style="mix-blend-mode:normal">
				<path id="Path 12761" d="M82.78 89.47C80.42 97.17 61.79 98.3 41.16 91.99C20.54 85.68 5.72 74.33 8.08 66.63C10.43 58.93 29.06 57.8 49.69 64.11C70.32 70.41 85.13 81.77 82.78 89.47Z" fill="#5CB947" fill-opacity="1.000000" fill-rule="nonzero"/>
			</g>
		</g>
		<g mask="url(#mask78_463)">
			<g style="mix-blend-mode:normal">
				<path id="Path 12762" d="M71.09 70.47C70.6 72.09 68.89 73 67.27 72.5C65.65 72.01 64.74 70.3 65.24 68.68C65.73 67.07 67.44 66.16 69.06 66.65C70.68 67.14 71.58 68.86 71.09 70.47Z" fill="#51FF00" fill-opacity="1.000000" fill-rule="nonzero"/>
			</g>
		</g>
		<g mask="url(#mask78_463)">
			<g style="mix-blend-mode:normal">
				<path id="Path 12763" d="M62.41 102.28C61.83 104.2 59.8 105.28 57.88 104.69C55.96 104.11 54.88 102.08 55.47 100.16C56.06 98.24 58.08 97.16 60 97.75C61.92 98.34 63 100.37 62.41 102.28Z" fill="#51FF00" fill-opacity="1.000000" fill-rule="nonzero"/>
			</g>
		</g>
		<g mask="url(#mask78_463)">
			<g style="mix-blend-mode:normal">
				<path id="Path 12764" d="M67.19 63.91C66.82 65.12 65.54 65.8 64.33 65.43C63.11 65.06 62.43 63.78 62.8 62.57C63.17 61.35 64.46 60.67 65.67 61.04C66.88 61.41 67.56 62.7 67.19 63.91Z" fill="#51FF00" fill-opacity="1.000000" fill-rule="nonzero"/>
			</g>
		</g>
		<g mask="url(#mask78_463)">
			<g style="mix-blend-mode:normal">
				<path id="Path 12765" d="M41.79 53.71C41.5 54.64 40.51 55.17 39.58 54.88C38.65 54.6 38.12 53.61 38.41 52.68C38.69 51.74 39.68 51.22 40.61 51.5C41.55 51.79 42.07 52.78 41.79 53.71Z" fill="#51FF00" fill-opacity="1.000000" fill-rule="nonzero"/>
			</g>
		</g>
		<g mask="url(#mask78_463)">
			<g style="mix-blend-mode:normal">
				<path id="Path 12766" d="M36.88 56.11C36.47 57.43 35.08 58.17 33.76 57.77C32.44 57.37 31.7 55.97 32.1 54.65C32.5 53.33 33.9 52.59 35.22 52.99C36.54 53.39 37.28 54.79 36.88 56.11Z" fill="#51FF00" fill-opacity="1.000000" fill-rule="nonzero"/>
			</g>
		</g>
		<g mask="url(#mask78_463)">
			<g style="mix-blend-mode:normal">
				<path id="Path 12767" d="M70.96 60.52C70.75 61.21 70.02 61.6 69.33 61.39C68.64 61.17 68.25 60.44 68.46 59.75C68.68 59.06 69.41 58.68 70.1 58.89C70.79 59.1 71.17 59.83 70.96 60.52Z" fill="#51FF00" fill-opacity="1.000000" fill-rule="nonzero"/>
			</g>
		</g>
		<g mask="url(#mask78_463)">
			<g style="mix-blend-mode:normal">
				<path id="Path 12768" d="M51.81 106.37C51.49 107.43 50.37 108.03 49.31 107.7C48.25 107.38 47.65 106.26 47.97 105.2C48.3 104.14 49.42 103.54 50.48 103.86C51.54 104.19 52.14 105.31 51.81 106.37Z" fill="#51FF00" fill-opacity="1.000000" fill-rule="nonzero"/>
			</g>
		</g>
		<g mask="url(#mask78_463)">
			<g style="mix-blend-mode:normal">
				<path id="Path 12769" d="M67.9 104.69C67.57 105.75 66.45 106.35 65.39 106.03C64.33 105.7 63.73 104.58 64.06 103.52C64.38 102.46 65.5 101.86 66.56 102.19C67.62 102.51 68.22 103.63 67.9 104.69Z" fill="#51FF00" fill-opacity="1.000000" fill-rule="nonzero"/>
			</g>
		</g>
		<g mask="url(#mask78_463)">
			<g style="mix-blend-mode:normal">
				<path id="Path 12770" d="M56.89 107.92C56.62 108.8 55.69 109.29 54.82 109.03C53.94 108.76 53.45 107.83 53.71 106.95C53.98 106.07 54.91 105.58 55.79 105.85C56.67 106.12 57.16 107.05 56.89 107.92Z" fill="#51FF00" fill-opacity="1.000000" fill-rule="nonzero"/>
			</g>
		</g>
		<g mask="url(#mask78_463)">
			<g style="mix-blend-mode:normal">
				<path id="Path 12771" d="M50.64 75.43C50.6 76.42 49.79 77.23 48.79 77.32C47.5 77.44 45.57 77.45 43.59 76.85C41.61 76.24 40.01 75.15 39.01 74.33C38.24 73.7 38.01 72.58 38.54 71.73C40.06 69.26 43.11 68.03 46.01 68.92C48.92 69.8 50.75 72.53 50.64 75.43Z" fill="#51FF00" fill-opacity="1.000000" fill-rule="nonzero"/>
			</g>
		</g>
		<g mask="url(#mask78_463)">
			<g style="mix-blend-mode:normal">
				<path id="Path 12772" d="M76.04 79.07C76.01 79.9 75.34 80.57 74.51 80.64C73.43 80.75 71.82 80.75 70.17 80.25C68.52 79.75 67.19 78.84 66.36 78.15C65.72 77.63 65.53 76.7 65.97 75.99C67.24 73.93 69.77 72.91 72.19 73.65C74.61 74.38 76.14 76.66 76.04 79.07Z" fill="#51FF00" fill-opacity="1.000000" fill-rule="nonzero"/>
			</g>
		</g>
		<g mask="url(#mask78_463)">
			<g style="mix-blend-mode:normal">
				<path id="Path 12773" d="M33.99 63.63C33.95 64.51 33.23 65.22 32.36 65.31C31.22 65.41 29.51 65.42 27.76 64.89C26.01 64.35 24.59 63.39 23.71 62.66C23.03 62.1 22.83 61.12 23.29 60.37C24.64 58.18 27.33 57.09 29.9 57.88C32.47 58.66 34.09 61.07 33.99 63.63Z" fill="#51FF00" fill-opacity="1.000000" fill-rule="nonzero"/>
			</g>
		</g>
		<g mask="url(#mask78_463)">
			<g style="mix-blend-mode:normal">
				<path id="Path 12774" d="M64.12 87.25C64.09 88.13 63.37 88.84 62.49 88.92C61.35 89.03 59.64 89.04 57.89 88.5C56.14 87.97 54.73 87 53.85 86.28C53.16 85.72 52.97 84.73 53.43 83.98C54.78 81.8 57.47 80.71 60.04 81.49C62.6 82.28 64.23 84.69 64.12 87.25Z" fill="#51FF00" fill-opacity="1.000000" fill-rule="nonzero"/>
			</g>
		</g>
		<g mask="url(#mask78_463)">
			<g style="mix-blend-mode:normal">
				<path id="Path 12775" d="M24.83 74.3C24.8 75.02 24.22 75.6 23.49 75.67C22.56 75.76 21.15 75.77 19.71 75.33C18.27 74.89 17.11 74.09 16.38 73.5C15.82 73.04 15.66 72.22 16.04 71.61C17.14 69.81 19.36 68.91 21.47 69.56C23.58 70.21 24.92 72.19 24.83 74.3Z" fill="#51FF00" fill-opacity="1.000000" fill-rule="nonzero"/>
			</g>
		</g>
		<g mask="url(#mask78_463)">
			<g style="mix-blend-mode:normal">
				<path id="Path 12776" d="M29.3 72.87C29.28 73.35 28.9 73.73 28.43 73.77C27.81 73.83 26.89 73.83 25.95 73.55C25.01 73.26 24.25 72.74 23.78 72.35C23.41 72.05 23.3 71.52 23.55 71.11C24.28 69.94 25.73 69.35 27.11 69.78C28.49 70.2 29.36 71.49 29.3 72.87Z" fill="#51FF00" fill-opacity="1.000000" fill-rule="nonzero"/>
			</g>
		</g>
		<g mask="url(#mask78_463)">
			<g style="mix-blend-mode:normal">
				<path id="Path 12777" d="M70.37 43.38C69.61 42.85 69.28 41.89 69.55 41L71.4 34.94C71.5 34.62 71.7 34.36 71.98 34.19C74.29 32.78 76 30.58 76.78 28L78.51 22.35C80.17 16.94 73.36 14.85 65.48 12.45C57.6 10.04 50.8 7.96 49.15 13.37L47.42 19.02C46.63 21.61 46.81 24.38 47.94 26.85C48.07 27.14 48.1 27.47 48 27.78L46.26 33.49C45.92 34.57 44.94 35.34 43.81 35.37C25.02 35.87 8.43 48.35 2.87 66.54C-4.23 89.77 8.89 114.44 32.13 121.55C55.36 128.65 80.03 115.53 87.13 92.3C92.73 74.01 85.85 54.26 70.37 43.38ZM49.75 19.74L51.48 14.09C52.36 11.21 57.09 12.43 64.77 14.78C72.45 17.13 77.06 18.76 76.18 21.64L74.45 27.29C73.84 29.29 72.51 31.01 70.71 32.1C69.92 32.59 69.34 33.34 69.07 34.22L66.13 43.83C64.58 48.92 58.98 51.88 53.9 50.33C48.74 48.75 45.82 43.26 47.4 38.1L50.33 28.5C50.61 27.61 50.54 26.65 50.15 25.82C49.28 23.91 49.14 21.75 49.75 19.74ZM32.84 119.21C10.9 112.5 -1.5 89.19 5.21 67.25C10.43 50.16 25.98 38.39 43.62 37.82C44.28 37.8 44.79 38.39 44.68 39.04C43.74 44.97 47.28 50.86 53.19 52.66C56.31 53.62 59.62 53.3 62.51 51.77C63.67 51.15 64.71 50.36 65.59 49.44C65.97 49.04 66.59 48.99 67.02 49.33C75.09 55.71 77.32 63.34 77.34 63.42C77.46 63.83 77.78 64.14 78.16 64.26C78.38 64.32 78.61 64.33 78.84 64.26C79.49 64.08 79.87 63.41 79.69 62.76C79.59 62.39 77.19 54.07 68.18 47.14C67.84 46.87 67.73 46.41 67.91 46.01C68.15 45.48 68.83 45.28 69.31 45.62C83.69 55.95 90.04 74.45 84.8 91.59C78.09 113.53 54.78 125.92 32.84 119.21Z" fill="#231F20" fill-opacity="1.000000" fill-rule="nonzero"/>
			</g>
		</g>
		<g mask="url(#mask78_463)">
			<g style="mix-blend-mode:normal">
				<path id="Path 12778" d="M66.57 32.42C66.54 32.43 63.1 33.13 59.5 32.03C55.92 30.93 53.43 28.42 53.41 28.4C52.94 27.91 52.17 27.9 51.68 28.37C51.2 28.84 51.19 29.61 51.66 30.1C51.77 30.22 54.58 33.08 58.78 34.36C62.98 35.65 66.91 34.84 67.07 34.81C67.73 34.67 68.16 34.02 68.02 33.36C67.88 32.7 67.23 32.28 66.57 32.42Z" fill="#231F20" fill-opacity="1.000000" fill-rule="nonzero"/>
			</g>
		</g>
		<g mask="url(#mask78_463)">
			<g style="mix-blend-mode:normal">
				<path id="Path 12779" d="M75.1 20.69C75.52 19.33 70.69 17.33 64.56 15.45C58.43 13.58 53.32 12.54 52.9 13.9C52.48 15.26 57.31 17.26 63.44 19.13C69.57 21 74.68 22.05 75.1 20.69Z" fill="#231F20" fill-opacity="1.000000" fill-rule="nonzero"/>
			</g>
		</g>
		<g mask="url(#mask78_463)">
			<g style="mix-blend-mode:normal">
				<path id="Path 12780" d="M23.27 103.71C14.52 94.71 10.93 84.36 12.59 72.96C12.68 72.29 12.22 71.67 11.56 71.57C10.89 71.48 10.27 71.94 10.17 72.6C8.95 80.99 9.93 93.49 21.52 105.41C21.67 105.56 21.85 105.67 22.04 105.72C22.45 105.85 22.92 105.75 23.25 105.43C23.73 104.96 23.74 104.19 23.27 103.71Z" fill="#231F20" fill-opacity="1.000000" fill-rule="nonzero"/>
			</g>
		</g>
		<g mask="url(#mask78_463)">
			<g style="mix-blend-mode:normal">
				<path id="Path 12781" d="M12.42 67.77C13.07 67.97 13.75 67.61 13.95 66.96C15.56 61.74 17.74 58.39 17.76 58.36C18.13 57.8 17.98 57.04 17.41 56.67C16.85 56.3 16.1 56.45 15.72 57.01C15.63 57.16 13.34 60.66 11.61 66.24C11.41 66.89 11.78 67.57 12.42 67.77Z" fill="#231F20" fill-opacity="1.000000" fill-rule="nonzero"/>
			</g>
		</g>
		<g mask="url(#mask78_463)">
			<g style="mix-blend-mode:normal">
				<path id="Path 12782" d="M69.41 7.8C68.94 9.33 67.32 10.2 65.78 9.73C64.25 9.26 63.38 7.64 63.85 6.1C64.32 4.57 65.95 3.7 67.48 4.17C69.01 4.64 69.88 6.27 69.41 7.8Z" fill="#51FF00" fill-opacity="1.000000" fill-rule="nonzero"/>
			</g>
		</g>
		<g mask="url(#mask78_463)">
			<g style="mix-blend-mode:normal">
				<path id="Path 12783" d="M75.21 4.2C74.82 5.48 73.47 6.2 72.19 5.81C70.91 5.42 70.19 4.07 70.58 2.79C70.97 1.51 72.33 0.79 73.6 1.18C74.88 1.57 75.6 2.93 75.21 4.2Z" fill="#51FF00" fill-opacity="1.000000" fill-rule="nonzero"/>
			</g>
		</g>
		<g mask="url(#mask78_463)">
			<g style="mix-blend-mode:normal">
				<path id="Path 12784" d="M73.85 16.33C73.18 18.54 70.84 19.78 68.63 19.1C66.42 18.43 65.18 16.09 65.86 13.88C66.53 11.67 68.87 10.43 71.08 11.11C73.29 11.78 74.53 14.12 73.85 16.33Z" fill="#51FF00" fill-opacity="1.000000" fill-rule="nonzero"/>
			</g>
		</g>
	</g>
</svg>
