<svg width="137.633057" height="102.877930" viewBox="0 0 137.633 102.878" fill="none" xmlns="http://www.w3.org/2000/svg" xmlns:xlink="http://www.w3.org/1999/xlink">
	<desc>
			Created with Pixso.
	</desc>
	<defs/>
	<g style="mix-blend-mode:normal">
		<path id="Path 35770" d="M87.83 40.42L101.67 40.42L109.93 49.58L97.61 50.21L87.83 40.42ZM97.61 26.69L109.93 27.32L101.67 36.47L87.83 36.47L97.61 26.69ZM85.04 6.53L85.04 0.31L81.09 0.31L81.09 6.53L74.66 0.01L71.85 2.78L81.09 12.15L81.09 14.53L74.58 8.65L71.94 11.58L81.09 19.85L81.09 33.68L71.21 23.8L71.94 11.58L67.9 11.28L67.45 20.04L65.77 18.36L65.68 5.21L61.73 5.23L61.8 14.39L57.49 10.09L54.7 12.87L59.01 17.18L49.85 17.12L49.82 21.06L62.98 21.15L64.66 22.84L55.9 23.28L56.1 27.22L68.42 26.59L78.3 36.47L64.33 36.47L56.1 27.22L53.13 29.96L59.01 36.47L56.63 36.47L47.26 27.24L44.5 30.04L51.02 36.47L44.93 36.47L44.93 40.42L51.02 40.42L44.5 46.85L47.26 49.66L56.63 40.42L59.01 40.42L53.13 46.93L56.06 49.58L64.33 40.42L78.3 40.42L68.42 50.3L56.06 49.58L55.9 53.61L64.66 54.06L62.98 55.74L49.82 55.83L49.85 59.78L59.01 59.72L54.7 64.02L57.49 66.81L61.8 62.5L61.73 71.66L65.68 71.69L65.77 58.53L67.45 56.85L67.9 65.61L71.84 65.41L71.21 53.09L81.09 43.21L81.09 57.18L71.84 65.41L74.58 68.38L81.09 62.5L81.09 64.88L71.85 74.25L74.66 77.02L81.09 70.5L81.09 76.58L85.04 76.58L85.04 70.5L91.47 77.02L94.28 74.25L85.04 64.88L85.04 62.5L91.55 68.38L94.19 65.45L85.04 57.18L85.04 43.21L94.82 52.99L94.19 65.31L98.13 65.51L98.58 56.75L100.26 58.44L100.36 71.59L104.3 71.56L104.24 62.41L108.64 66.81L111.43 64.02L107.03 59.62L116.18 59.68L116.21 55.74L103.05 55.65L101.37 53.96L110.13 53.52L109.93 49.58L112.86 46.93L106.98 40.42L109.36 40.42L118.73 49.66L121.5 46.85L114.98 40.42L121.2 40.42L121.2 36.47L114.98 36.47L121.5 30.04L118.73 27.24L109.36 36.47L106.98 36.47L112.86 29.96L109.93 27.32L110.13 23.38L101.37 22.93L103.05 21.25L116.21 21.16L116.18 17.21L107.03 17.28L111.43 12.87L108.64 10.09L104.24 14.49L104.3 5.33L100.36 5.3L100.26 18.46L98.58 20.14L98.13 11.38L94.19 11.58L94.82 23.9L85.04 33.68L85.04 19.85L94.19 11.58L91.55 8.65L85.04 14.53L85.04 12.15L94.28 2.78L91.47 0.01L85.04 6.53Z" fill="#FFFFFF" fill-opacity="1.000000" fill-rule="nonzero"/>
	</g>
	<g style="mix-blend-mode:normal">
		<path id="Path 36084" d="M21.66 20.2L28.58 20.2L32.71 24.78L26.55 25.09L21.66 20.2ZM26.55 13.33L32.71 13.65L28.58 18.23L21.66 18.23L26.55 13.33ZM20.27 3.25L20.27 0.14L18.29 0.14L18.29 3.25L15.08 0L13.67 1.38L18.29 6.06L18.29 7.25L15.04 4.31L13.72 5.78L18.29 9.91L18.29 16.83L13.35 11.89L13.72 5.78L11.7 5.63L11.47 10.01L10.63 9.17L10.59 2.59L8.61 2.6L8.65 7.18L6.49 5.03L5.1 6.43L7.25 8.58L2.67 8.55L2.66 10.52L9.24 10.56L10.08 11.41L5.7 11.63L5.8 13.6L11.96 13.28L16.9 18.23L9.91 18.23L5.8 13.6L4.31 14.97L7.25 18.23L6.06 18.23L1.38 13.61L0 15.01L3.26 18.23L0.21 18.23L0.21 20.2L3.26 20.2L0 23.41L1.38 24.82L6.06 20.2L7.25 20.2L4.31 23.45L5.78 24.78L9.91 20.2L16.9 20.2L11.96 25.14L5.78 24.78L5.7 26.79L10.08 27.02L9.24 27.86L2.66 27.9L2.67 29.88L7.25 29.85L5.1 32L6.49 33.39L8.65 31.24L8.61 35.82L10.59 35.83L10.63 29.25L11.47 28.41L11.7 32.79L13.67 32.69L13.35 26.53L18.29 21.59L18.29 28.58L13.67 32.69L15.04 34.18L18.29 31.24L18.29 32.43L13.67 37.11L15.08 38.5L18.29 35.24L18.29 38.28L20.27 38.28L20.27 35.24L23.48 38.5L24.89 37.11L20.27 32.43L20.27 31.24L23.52 34.18L24.84 32.71L20.27 28.58L20.27 21.59L25.16 26.48L24.84 32.71L26.81 32.75L27.04 28.36L27.88 29.21L27.92 35.78L29.9 35.77L29.87 31.19L32.07 33.39L33.46 32L31.26 29.8L35.84 29.83L35.85 27.86L29.27 27.81L28.43 26.97L32.81 26.75L32.71 24.78L34.18 23.45L31.24 20.2L32.43 20.2L37.11 24.82L38.5 23.41L35.24 20.2L38.35 20.2L38.35 18.23L35.24 18.23L38.5 15.01L37.11 13.61L32.43 18.23L31.24 18.23L34.18 14.97L32.71 13.65L32.81 11.68L28.43 11.45L29.27 10.61L35.85 10.57L35.84 8.59L31.26 8.63L33.46 6.43L32.07 5.03L29.87 7.23L29.9 2.65L27.92 2.64L27.88 9.22L27.04 10.06L26.81 5.68L24.84 5.78L25.16 11.94L20.27 16.83L20.27 9.91L24.84 5.78L23.52 4.31L20.27 7.25L20.27 6.06L24.89 1.38L23.48 0L20.27 3.25Z" fill="#FFFFFF" fill-opacity="1.000000" fill-rule="nonzero"/>
	</g>
	<g style="mix-blend-mode:normal">
		<path id="Path 36085" d="M123.52 87.54L129.32 87.54L132.78 91.38L127.62 91.64L123.52 87.54ZM127.62 81.79L132.78 82.05L129.32 85.89L123.52 85.89L127.62 81.79ZM122.35 73.34L122.35 70.74L120.7 70.74L120.7 73.34L118.01 70.61L116.83 71.77L120.7 75.7L120.7 76.7L117.97 74.23L116.86 75.46L120.7 78.92L120.7 84.72L116.56 80.58L116.86 75.46L115.17 75.33L114.99 79L114.28 78.3L114.24 72.79L112.59 72.8L112.62 76.64L110.81 74.83L109.64 76L111.45 77.8L107.61 77.78L107.6 79.43L113.11 79.47L113.82 80.17L110.15 80.36L110.23 82.01L115.39 81.75L119.53 85.89L113.68 85.89L110.23 82.01L108.99 83.16L111.45 85.89L110.45 85.89L106.53 82.02L105.37 83.19L108.1 85.89L105.55 85.89L105.55 87.54L108.1 87.54L105.37 90.23L106.53 91.41L110.45 87.54L111.45 87.54L108.99 90.27L110.21 91.38L113.68 87.54L119.53 87.54L115.39 91.68L110.21 91.38L110.15 93.07L113.82 93.26L113.11 93.96L107.6 94L107.61 95.65L111.45 95.63L109.64 97.43L110.81 98.6L112.62 96.79L112.59 100.63L114.24 100.64L114.28 95.13L114.99 94.42L115.17 98.1L116.82 98.01L116.56 92.85L120.7 88.71L120.7 94.56L116.82 98.01L117.97 99.25L120.7 96.79L120.7 97.79L116.83 101.71L118.01 102.87L120.7 100.14L120.7 102.69L122.35 102.69L122.35 100.14L125.05 102.87L126.22 101.71L122.35 97.79L122.35 96.79L125.08 99.25L126.19 98.03L122.35 94.56L122.35 88.71L126.45 92.81L126.19 98.03L127.84 98.06L128.03 94.38L128.73 95.09L128.77 100.6L130.42 100.59L130.4 96.75L132.24 98.6L133.41 97.43L131.57 95.58L135.4 95.61L135.41 93.96L129.9 93.92L129.2 93.22L132.87 93.03L132.78 91.38L134.01 90.27L131.55 87.54L132.54 87.54L136.47 91.41L137.63 90.23L134.9 87.54L137.5 87.54L137.5 85.89L134.9 85.89L137.63 83.19L136.47 82.02L132.54 85.89L131.55 85.89L134.01 83.16L132.78 82.05L132.87 80.4L129.2 80.21L129.9 79.51L135.41 79.47L135.4 77.82L131.57 77.84L133.41 76L132.24 74.83L130.4 76.68L130.42 72.84L128.77 72.83L128.73 78.34L128.03 79.05L127.84 75.37L126.19 75.46L126.45 80.62L122.35 84.72L122.35 78.92L126.19 75.46L125.08 74.23L122.35 76.7L122.35 75.7L126.22 71.77L125.05 70.61L122.35 73.34Z" fill="#FFFFFF" fill-opacity="1.000000" fill-rule="nonzero"/>
	</g>
</svg>
