<svg xmlns="http://www.w3.org/2000/svg" xmlns:xlink="http://www.w3.org/1999/xlink" width="60.037" height="53.073" viewBox="0 0 60.037 53.073">
  <defs>
    <clipPath id="clip-path">
      <rect id="Rectangle_1187" data-name="Rectangle 1187" width="60.037" height="53.073" fill="#0f0f0f"/>
    </clipPath>
  </defs>
  <g id="Group_229" data-name="Group 229" clip-path="url(#clip-path)">
    <path id="Path_383" data-name="Path 383" d="M43.057,34.033C45.53,33.083,58.082,28.9,58.082,28.9S45.53,26.046,44.77,24.715s6.846-14.643,6.846-14.643c-2.876,1.51-12.971,8.067-15.215,3.8,0,0-3.8-7.227-3.8-12.172,0,0-3.994,11.791-5.9,12.172,0,0-8.178-1.9-12.933-6.086,0,0,4.755,12.742,3.8,13.5S2.55,25.666,2.55,25.666L17,32.892s-1.711,10.08-6.466,12.362c0,0,13.5-3.994,14.454-3.043s4.183,10.08,4.183,10.08,5.135-9.7,7.227-9.7,12.361,6.466,12.361,6.466-8.177-14.074-5.705-15.025" transform="translate(-1.123 -0.75)" fill="#fcd100"/>
    <path id="Path_384" data-name="Path 384" d="M42.383,34.077l.481-.164.96-.327,1.92-.654L49.577,31.6l7.666-2.661,2.794-.97-2.892-.644c-2.447-.546-4.9-1.128-7.322-1.775-1.212-.319-2.419-.657-3.59-1.047a13.358,13.358,0,0,1-1.662-.659,1.561,1.561,0,0,1-.172-.093,1.045,1.045,0,0,1-.138-.087l-.041-.029a.236.236,0,0,1-.01-.035c.027,0,.027.041.024.015l.021-.176c.025-.129.05-.264.089-.4a16.393,16.393,0,0,1,.592-1.722c.228-.577.476-1.151.728-1.724.51-1.145,1.048-2.282,1.6-3.413,1.11-2.26,2.276-4.5,3.471-6.719l.469-.869-.844.48c-1.24.7-2.425,1.446-3.651,2.137s-2.472,1.335-3.755,1.9a15.75,15.75,0,0,1-3.988,1.258,5.923,5.923,0,0,1-1.037.073,4.134,4.134,0,0,1-1.02-.13A2.576,2.576,0,0,1,36,13.86a2.532,2.532,0,0,1-.652-.774c-.485-.951-.927-1.926-1.345-2.908S33.2,8.2,32.863,7.185c-.091-.251-.162-.508-.242-.763s-.158-.51-.224-.768c-.145-.514-.27-1.031-.38-1.552-.064-.258-.1-.522-.146-.783s-.091-.523-.114-.787-.069-.525-.076-.789l-.023-.79L31.63,0,31.3.894c-.788,2.135-1.63,4.255-2.551,6.331-.464,1.036-.946,2.065-1.48,3.053a16.1,16.1,0,0,1-.859,1.427,5.159,5.159,0,0,1-.488.62,1.538,1.538,0,0,1-.355.305c-1.09-.3-2.188-.661-3.26-1.056-.555-.208-1.11-.419-1.654-.651s-1.084-.473-1.622-.718l-.8-.386c-.269-.124-.524-.271-.785-.4-.526-.265-1.023-.573-1.53-.867l-.734-.476c-.249-.153-.476-.332-.712-.5s-.473-.335-.687-.526L13.123,6.5l-2.064-1.7.911,2.5c.847,2.32,1.636,4.672,2.4,7.015.377,1.174.739,2.353,1.046,3.529.149.585.293,1.181.377,1.736.019.137.037.274.041.391a.676.676,0,0,1,0,.084l-.029.016a3.619,3.619,0,0,1-.35.14l-.168.067-.211.074-.428.151-.872.288-1.766.551c-1.181.367-2.37.717-3.558,1.067q-3.57,1.042-7.16,2.029l-1.3.36,1.2.576,7.287,3.492c2.369,1.129,4.72,2.29,7.079,3.438-.2,1.093-.473,2.187-.786,3.26-.166.57-.351,1.134-.547,1.694-.1.281-.21.554-.314.833s-.224.548-.346.817-.233.544-.375.8l-.406.786-.457.755a8.265,8.265,0,0,1-.5.721l-.258.355c-.093.111-.194.216-.29.324a5.418,5.418,0,0,1-.6.621c-.223.178-.43.384-.665.542l-.731.435L7.344,45.4,9.5,44.784c2.063-.589,4.135-1.163,6.221-1.662,1.042-.252,2.087-.493,3.134-.716s2.1-.426,3.141-.559a6.667,6.667,0,0,1,1.482-.064l.082.021a1.887,1.887,0,0,1,.2.3l.157.3.167.352c.443.95.833,1.95,1.216,2.947.761,2,1.476,4.025,2.166,6.052l.451,1.325.689-1.242c1.049-1.893,2.169-3.774,3.377-5.563a25.855,25.855,0,0,1,1.929-2.544,6.138,6.138,0,0,1,1.059-.984,1.2,1.2,0,0,1,.226-.122c.022,0,.054-.022.065-.021l.368.058c.121.027.2.071.3.1.173.051.426.156.665.257s.481.207.721.321c.482.218.962.473,1.441.714q1.433.759,2.848,1.576c1.885,1.086,3.754,2.225,5.592,3.387L50,50.783l-1.634-2.895c-1.314-2.329-2.574-4.719-3.714-7.134-.563-1.21-1.11-2.429-1.566-3.655a15.886,15.886,0,0,1-.574-1.828,5.371,5.371,0,0,1-.138-.849,1.21,1.21,0,0,1,.012-.344Zm-1.8.452a6.994,6.994,0,0,0,.184,1.151,17.488,17.488,0,0,0,.641,2.041c.488,1.308,1.051,2.56,1.649,3.792.732,1.507,1.5,2.982,2.305,4.445q-1.475-.873-2.971-1.715-1.442-.811-2.923-1.572c-.5-.246-.994-.5-1.512-.728-.256-.118-.511-.235-.785-.338a7.779,7.779,0,0,0-.873-.314c-.161-.046-.34-.1-.486-.132L35.4,41.1a1.6,1.6,0,0,0-.77.135,2.642,2.642,0,0,0-.492.272,7.413,7.413,0,0,0-1.327,1.263A27.082,27.082,0,0,0,30.827,45.5c-.958,1.486-1.84,3-2.681,4.541-.605-1.587-1.221-3.167-1.877-4.737-.421-1-.843-1.99-1.338-2.975l-.191-.369-.242-.406a2.861,2.861,0,0,0-.247-.342.884.884,0,0,0-.359-.255c-.094-.026-.2-.051-.288-.068A7.22,7.22,0,0,0,21.875,41c-1.087.169-2.141.408-3.193.657s-2.093.524-3.134.806q-2.281.63-4.553,1.281l.072-.063a5.783,5.783,0,0,0,.639-.67c.1-.116.208-.228.3-.347l.267-.374a8.761,8.761,0,0,0,.514-.758l.466-.787.41-.812c.144-.267.252-.551.377-.826s.243-.554.346-.838.225-.561.325-.845c.2-.568.4-1.14.568-1.718a34.417,34.417,0,0,0,.867-3.517l.036-.2L16,31.9c-2.4-1.23-4.8-2.446-7.185-3.7L2.834,25.083c1.988-.484,3.975-.972,5.957-1.48,1.2-.312,2.409-.625,3.612-.957.6-.163,1.2-.341,1.8-.521.3-.094.6-.179.9-.28l.453-.15.229-.077.266-.1c.168-.069.371-.143.51-.215l.206-.109.051-.027c-.067.046.1-.065.088-.062l.02-.019.039-.04.074-.086a.924.924,0,0,0,.179-.329c.024-.077.043-.156.058-.234a1.327,1.327,0,0,0,.017-.177,2.044,2.044,0,0,0,.005-.312c-.005-.193-.026-.364-.046-.535a16.11,16.11,0,0,0-.392-1.907c-.316-1.228-.68-2.425-1.059-3.617-.509-1.613-1.068-3.2-1.646-4.787.09.06.18.12.273.175l.791.482c.541.294,1.075.6,1.629.864.276.133.547.278.828.4l.838.373c.566.229,1.13.462,1.7.667s1.148.407,1.726.595c1.16.37,2.32.7,3.523.97l.118.026.081-.023a1.815,1.815,0,0,0,.925-.657,6.126,6.126,0,0,0,.538-.746,16.972,16.972,0,0,0,.84-1.54c.508-1.041.952-2.1,1.376-3.165.726-1.839,1.384-3.7,2-5.57.021.224.057.445.082.667.031.269.081.534.136.8s.1.532.167.791c.125.525.264,1.045.422,1.559s.327,1.024.5,1.531c.346,1.016.749,2.013,1.17,3s.876,1.958,1.371,2.911a2.685,2.685,0,0,0,.69.836,2.754,2.754,0,0,0,.966.491,4.322,4.322,0,0,0,1.068.147A6.091,6.091,0,0,0,39,14.572a9.181,9.181,0,0,0,1.047-.2c.346-.079.688-.181,1.025-.285.678-.21,1.342-.456,2-.726,1.31-.537,2.578-1.163,3.83-1.816.96-.488,1.907-1.007,2.853-1.511q-1.676,2.843-3.271,5.734-.915,1.665-1.776,3.367c-.283.571-.562,1.144-.827,1.729a17.628,17.628,0,0,0-.721,1.83c-.054.162-.1.336-.138.515l-.048.293a2.005,2.005,0,0,0,.021.488l.031.123.008.029,0,.015,0,.007c-.011-.023.1.226.058.126l.071.1a1.8,1.8,0,0,0,.156.182l.131.112a2.087,2.087,0,0,0,.251.181,2.768,2.768,0,0,0,.238.144,13.912,13.912,0,0,0,1.828.806c1.211.45,2.425.834,3.643,1.2s2.445.695,3.671,1.019l.883.229-4.98,1.675-3.846,1.295-1.92.657-.96.329-.48.164-.12.041a1.844,1.844,0,0,0-.264.123,1.545,1.545,0,0,0-.459.415,1.9,1.9,0,0,0-.332.873,3.414,3.414,0,0,0-.021.687" transform="translate(0 0)" fill="#0f0f0f"/>
  </g>
</svg>
