<svg width="194.162109" height="171.547363" viewBox="0 0 194.162 171.547" fill="none" xmlns="http://www.w3.org/2000/svg" xmlns:xlink="http://www.w3.org/1999/xlink">
	<desc>
			Created with Pixso.
	</desc>
	<defs/>
	<mask id="mask1_26761" mask-type="alpha" maskUnits="userSpaceOnUse" x="0.000000" y="0.000000" width="194.162109" height="171.547363">
		<g style="mix-blend-mode:normal">
			<rect id="Rectangle 3908" width="194.162231" height="171.547302" fill="#C4C4C4" fill-opacity="1.000000"/>
		</g>
	</mask>
	<g mask="url(#mask1_26761)">
		<g style="mix-blend-mode:normal">
			<path id="Path 36248" d="M191.88 122.65C191.15 120.45 183.98 109.83 178.39 105.57C172.79 101.31 168.4 102.77 165.63 103.69C162.86 104.61 155.54 109.05 155.54 109.05C151.09 107.06 148.16 108.41 148.16 108.41L143.82 105.57C153.07 101.89 154.75 92.31 154.23 85.77C153.71 79.22 148.16 66.59 146.8 63.87C145.44 61.15 137.57 48.4 137.57 48.4C139 46 141.47 36.25 137.57 27.8C133.67 19.35 125.99 19.02 125.99 19.02C124.74 9.52 121.95 3.64 118.15 2.16C114.34 0.67 84.47 2.68 74.43 4.35C64.39 6.03 61.56 8.85 61.56 8.85C61.56 8.85 51.36 6.29 38.81 6.81C26.26 7.34 25.32 10.94 25.32 10.94C25.32 10.94 20.22 11.28 16.01 14.97C11.81 18.66 16.17 24.28 16.17 24.28C16.17 24.28 14.39 26.42 11.78 33.43C9.16 40.44 7.65 51.11 9.95 59.37C12.26 67.63 16.22 72.86 22.6 76.73C28.98 80.6 35.15 80.71 35.15 80.71C34.42 82.85 34.63 86.61 34.63 86.61C32.64 90.01 31.54 93.62 31.54 100.32C31.54 107.01 32.97 116.79 32.97 116.79C28.28 117.47 29.77 123.12 29.77 123.12C22.74 124.37 21.19 129.18 21.19 129.18C13.56 124.22 9.22 124.95 6.44 128.19C3.67 131.43 7.91 133.78 7.91 133.78C1.58 136.4 0.59 139.12 1.84 142.2C3.1 145.29 6.92 141.89 6.92 141.89C4.73 146.44 5.61 149.06 7.54 149.79C9.48 150.52 11.36 146.38 11.36 146.38C11.36 146.38 11.09 150.68 13.82 151.41C16.54 152.14 18.37 146.65 18.37 146.65L21.35 146.38C24.59 150.35 29.82 149.73 29.82 149.73C29.82 149.73 35.57 147.28 39.13 145.39C42.68 143.51 45.09 140.58 45.09 140.58C45.09 140.58 52.25 137.18 53.77 136.24C55.29 135.3 57.38 130.18 57.38 130.18C57.38 130.18 65.22 137.6 68.31 139.9C71.39 142.2 75.79 142.41 75.79 142.41C75.79 142.41 83.53 151.98 86.72 154.44C89.91 156.9 98.01 160.46 98.01 160.46C98.01 160.46 106.64 166 112.97 168.67C119.3 171.33 122.38 168.4 127.61 168.29C132.84 168.16 139.33 166.16 139.33 166.16C139.33 166.16 146.17 172.48 155.85 169.66C165.52 166.84 164.95 160.3 163.85 156.12C162.75 151.93 155.85 144.3 155.85 144.3C161.45 143.3 173.16 136.54 173.16 136.54C178.23 143.06 184.82 143.2 189.74 137.81C194.65 132.42 192.61 124.84 191.88 122.65ZM132.06 38.72C127.22 32.75 120.34 34.83 120.34 34.83L119.58 31.34C125.92 29.67 125.46 25.62 125.46 25.62C125.46 25.62 128.29 25.83 130.81 29.29C133.33 32.75 132.06 38.72 132.06 38.72Z" fill="#D9EFFF" fill-opacity="1.000000" fill-rule="nonzero"/>
		</g>
	</g>
	<g mask="url(#mask1_26761)">
		<g style="mix-blend-mode:normal">
			<path id="Path 36249" d="M8.99 52.47C8.55 41.14 11.64 27.67 20.5 20.34C29.35 13 49.99 17.9 58.63 26.57C67.28 35.24 71.7 47.92 70.86 56.38C70.02 64.85 64.49 77.01 42.04 79.94C19.59 82.87 9.54 66.65 8.99 52.47Z" fill="#1992BC" fill-opacity="1.000000" fill-rule="nonzero"/>
		</g>
	</g>
	<g mask="url(#mask1_26761)">
		<g style="mix-blend-mode:normal">
			<path id="Path 36250" d="M31.25 138.41C32.19 139.79 29.95 141.09 29.02 139.72C28.04 138.28 27.06 136.85 26.09 135.42C25.15 134.03 27.39 132.74 28.32 134.11C29.3 135.55 30.27 136.98 31.25 138.41ZM43.82 121.14C42.04 119.8 39.92 118.91 37.73 118.55C37.25 118.48 36.71 118.68 36.59 119.2C36.49 119.64 36.73 120.25 37.24 120.34C39.36 120.68 41.17 121.44 42.89 122.73C43.28 123.02 43.94 122.81 44.15 122.4C44.41 121.92 44.23 121.45 43.82 121.14ZM37.84 121.79C37.4 121.59 36.82 121.65 36.57 122.12C36.36 122.53 36.44 123.17 36.91 123.39C37.68 123.75 38.44 124.17 39.16 124.63C39.52 124.85 39.86 125.09 40.2 125.34C40.28 125.4 40.36 125.46 40.45 125.53C40.49 125.56 40.56 125.61 40.6 125.65C40.77 125.78 40.94 125.93 41.11 126.07C41.48 126.38 42.06 126.46 42.42 126.07C42.73 125.73 42.81 125.1 42.42 124.76C41.02 123.58 39.49 122.57 37.84 121.79ZM85.32 104.88C85.55 105 85.78 105.02 86.03 104.97C86.12 104.95 86.2 104.94 86.29 104.93C86.66 104.89 87.04 104.89 87.42 104.92C87.54 104.94 87.65 104.96 87.77 104.99C88.01 105.04 88.26 105.02 88.48 104.89C88.67 104.78 88.85 104.56 88.9 104.34C88.96 104.1 88.94 103.84 88.81 103.63C88.68 103.43 88.49 103.26 88.26 103.2C87.35 103.01 86.45 103 85.54 103.19C85.32 103.23 85.1 103.43 84.99 103.61C84.87 103.81 84.83 104.1 84.9 104.32C84.97 104.55 85.11 104.76 85.32 104.88ZM86.45 102.08C86.69 102.07 86.93 102.08 87.17 102.1C87.48 102.15 87.79 102.23 88.09 102.35C88.3 102.44 88.62 102.37 88.8 102.26C88.99 102.15 89.17 101.93 89.22 101.71C89.28 101.47 89.27 101.2 89.13 101C89.08 100.93 89.04 100.87 88.99 100.81C88.87 100.69 88.74 100.61 88.58 100.57C87.91 100.3 87.17 100.19 86.45 100.23C86.21 100.25 85.98 100.33 85.8 100.51C85.64 100.67 85.52 100.93 85.53 101.16C85.54 101.4 85.62 101.64 85.8 101.81C85.97 101.97 86.21 102.1 86.45 102.08ZM87.01 99.04L88.12 99.04C88.36 99.04 88.61 98.94 88.77 98.77C88.86 98.69 88.93 98.59 88.96 98.47C89.02 98.36 89.05 98.25 89.04 98.12C89.03 97.88 88.95 97.63 88.77 97.46C88.59 97.3 88.37 97.19 88.12 97.19L87.01 97.19C86.77 97.19 86.53 97.3 86.36 97.46C86.27 97.55 86.21 97.65 86.17 97.76C86.11 97.87 86.08 97.99 86.09 98.12C86.1 98.36 86.18 98.6 86.36 98.77C86.54 98.94 86.76 99.04 87.01 99.04ZM193.91 131.47C193.03 136.48 189.36 141.34 184.25 142.53C179.87 143.54 175.07 141.87 172.57 138.12C171.95 138.43 171.31 138.73 170.65 138.99C167.94 140.1 165.81 141.79 163.3 143.21C161.6 144.16 159.77 144.73 157.89 145.13C160.87 148.09 163.75 151.32 165.07 155.36C166.32 159.18 166.01 163.81 163.35 166.96C160.46 170.37 155.25 171.64 150.95 171.54C146.81 171.43 142.9 170.07 139.57 167.67C136.18 169.87 131.12 168.94 127.22 169.61C124.66 170.05 122.18 170.84 119.56 170.91C117.03 170.98 114.48 170.5 112.09 169.68C106.94 167.92 102.87 164.57 98.23 161.86C95.96 160.53 93.46 159.71 91.11 158.53C88.95 157.45 86.97 156.08 85.1 154.57C81.18 151.39 77.92 147.5 74.69 143.64C74.64 143.59 74.61 143.53 74.57 143.47C72.89 143.35 71.24 143.02 69.67 142.31C67.18 141.18 65.11 139.33 63.1 137.51C61.18 135.78 59.28 134.02 57.47 132.16C56.81 134.16 55.8 135.94 54.04 137.28C51.74 139.03 48.86 140.12 46.23 141.33C45.86 142.4 44.89 143.13 43.96 143.82C40.86 146.09 37.46 147.88 33.89 149.3C33.77 149.35 33.65 149.37 33.54 149.38C32.49 150.5 30.91 150.98 29.4 151.05C29.37 151.05 29.33 151.05 29.3 151.05C27.44 152.47 25.17 153.61 22.81 152.69C20.75 151.88 19.76 149.95 19.1 147.98C18.54 148.47 18.2 148.98 17.86 149.76C17.55 150.46 17.24 151.14 16.69 151.71C15.67 152.76 14.18 153.03 12.86 152.38C11.41 151.68 10.77 150.44 10.66 149.07C10.4 149.5 10.13 149.92 9.77 150.27C8.63 151.39 6.8 151.69 5.58 150.53C3.98 149 3.97 146.67 4.66 144.52C4.48 144.58 4.3 144.62 4.12 144.65C1.91 144.98 0.15 143.05 0.01 140.96C-0.25 137.14 2.4 134.9 5.6 133.62C5.52 133.56 5.43 133.5 5.36 133.42C3.32 131.58 4.11 128.37 5.79 126.59C9.96 122.17 16.36 124.35 20.97 127.44C21.85 126.12 22.93 124.96 24.22 124C24.98 123.44 25.79 122.97 26.65 122.58C26.96 122.45 28.41 122.11 28.55 121.88C28.7 121.63 28.31 120.05 28.4 119.58C28.54 118.86 28.85 118.2 29.28 117.61C29.92 116.75 30.76 116.18 31.72 115.88C31 110.76 30.51 105.61 30.4 100.44C30.29 95.48 30.82 90.63 32.97 86.11C33.08 85.88 33.22 85.73 33.38 85.62C33.3 84.4 33.63 83.23 34.07 82.27C33.85 82.11 33.64 81.94 33.42 81.78C22.37 80.72 14.08 74.53 9.51 63.67C4.7 52.24 7.54 36.98 12.21 27.63C12.91 26.24 13.67 24.97 14.51 23.8C13.29 21.47 12.35 18.91 13.47 16.34C14.41 14.16 16.55 12.77 18.66 11.88C19.89 11.35 21.17 10.94 22.47 10.6C25.99 7.05 31.29 6.37 36.03 5.9C44.23 5.07 52.7 5.48 60.67 7.7C60.74 7.64 60.81 7.59 60.89 7.55C69.18 2.86 78.88 2.35 88.16 1.62C92.78 1.26 97.4 0.93 102.02 0.62C106.2 0.35 110.59 -0.29 114.78 0.14C118.16 0.48 121.13 1.92 122.85 4.96C124.78 8.37 125.49 12.66 126.2 16.46C126.27 16.87 126.36 17.29 126.44 17.72C132.95 17.83 137 22.8 139.15 28.56C141.51 34.89 141.51 41.98 139.32 48.35C143.36 54.75 147.11 61.41 150.16 68.34C153.38 75.67 156.49 83.89 155.37 92.02C154.59 97.73 151.26 103.27 146.04 105.74C147.2 106.36 148.43 107.18 149.73 107.01C151.64 106.75 153.23 106.8 154.86 107.65C154.95 107.59 155.05 107.54 155.16 107.49C158.6 106.23 161.34 103.64 164.84 102.42C167.95 101.32 171.97 100.49 175.15 101.72C177.93 102.8 180.18 105.24 182.2 107.36C184.56 109.86 186.85 112.49 188.97 115.19C192.57 119.78 194.95 125.56 193.91 131.47ZM158.42 108.76C158.38 108.78 158.34 108.81 158.3 108.83C160.44 109.55 162.35 110.91 163.87 112.58C167.2 116.26 168.77 121.34 169.79 126.11C170.5 129.5 170.82 133.21 169.78 136.54C170.03 136.42 170.27 136.31 170.52 136.19C170.93 133.78 171.05 131.3 170.91 128.85C170.67 124.52 169.57 120.18 167.62 116.3C165.88 112.83 162.99 109.33 158.87 108.89C158.71 108.88 158.56 108.83 158.42 108.76ZM145.08 63.66C141.64 56.94 137.62 50.54 133.49 44.23C131.55 41.27 129.58 37.15 125.89 36.14C122.29 35.16 118.09 36.67 114.63 37.64C112.89 38.13 111.16 38.66 109.42 39.17C115.13 43.82 117.65 51.87 119.98 58.55C121.53 58.62 123.09 58.52 124.63 58.58C130.57 58.82 137.01 59.45 141.49 63.78C145.27 67.43 147 72.67 146.35 77.84C146.59 78.37 146.78 78.93 146.92 79.5C147.35 81.29 147.27 83.22 146.55 84.92C146.16 85.85 145.43 87.11 144.45 87.7C144.52 87.72 144.6 87.74 144.67 87.78C148.91 89.74 148.6 95.76 146.59 99.26C145.75 100.72 144.06 101.76 142.37 101.13C141.16 100.68 140.5 99.73 140.12 98.63C138.63 100.28 136.74 101.3 134.72 101.7C137.25 102.31 139.75 103.07 142.18 104.04C142.32 104.09 142.46 104.15 142.6 104.21C150.84 102.27 153.68 93.18 152.85 85.65C151.99 77.99 148.55 70.46 145.08 63.66ZM138.6 97.02C138.18 96.89 137.76 96.69 137.33 96.4C134.48 94.46 134.82 90.2 135.32 87.25C135.55 85.85 137.69 86.44 137.45 87.84C137.13 89.75 136.65 93.28 138.59 94.55C140.94 96.08 141.81 92.53 142.12 90.84C143.14 85.26 138.32 83.34 133.64 84.16C134.2 86.98 133.78 90.65 132.45 93.04C131.22 95.26 129.63 95.78 128.51 95.82C128.45 95.83 128.39 95.83 128.33 95.83C127.09 95.83 126 95.31 125.15 94.33C122.9 91.69 122.96 86.34 123.71 82.57C123.73 82.47 123.75 82.37 123.78 82.28C123.01 80.35 120.62 77.6 118.47 78.38C116.22 79.19 115.19 81.91 114.95 84.09C114.79 85.54 114.78 91.36 117.35 90.71C118.34 90.46 119.18 88.01 119.44 87.23C119.84 85.98 119.98 84.72 119.96 83.41C119.94 81.98 122.15 81.99 122.18 83.41C122.2 85.03 121.89 87.43 121.05 89.44C122.37 91.81 123.39 94.29 124.09 96.91C124.27 97.55 123.88 98.04 123.32 98.27C121.83 98.89 120.93 100.21 120.64 101.76C120.38 103.14 120.39 105.1 121.93 105.51C124.51 106.19 126.99 101.31 127.94 99.42C128.23 98.84 128.93 98.8 129.45 99.03C132.76 100.48 136.25 99.58 138.6 97.02ZM109.19 92.98C108.33 91.07 107.6 89.1 107.01 87.09C105.59 82.18 104.99 77.01 105.27 71.92C105.41 69.35 105.76 66.79 106.33 64.29C106.82 62.16 107.43 60 108.4 58.03C107.9 57.87 107.45 57.61 106.94 57.26C102.86 54.36 98.02 53.23 93.18 54.25C94.45 56.19 95.14 59.03 94.37 62.77C94.17 63.7 93.9 64.63 93.58 65.55C94.25 69.19 95.02 72.83 96.19 76.35C98.02 81.88 100.99 87.22 105.68 90.82C106.77 91.65 107.94 92.39 109.19 92.98ZM47.63 90.55C47.3 89.11 47.15 87.62 47.19 86.15C45.34 86.13 43.5 85.95 41.72 85.57C41.68 85.71 41.64 85.84 41.61 85.98C41.56 86.2 41.52 86.42 41.49 86.65C41.49 86.68 41.47 86.84 41.47 86.84C41.46 86.96 41.45 87.08 41.44 87.19C41.42 87.65 41.43 88.11 41.48 88.57C41.48 88.63 41.49 88.69 41.5 88.74C41.51 88.86 41.54 89.02 41.56 89.13C41.6 89.34 41.65 89.54 41.71 89.75C43.39 90.13 45.4 90.42 47.63 90.55ZM76.83 27.26C77.61 28.18 78.06 29.38 78.34 30.62C78.84 32.89 79.23 35.18 79.55 37.47C79.89 39.83 80.14 42.19 80.3 44.56C80.38 45.7 80.44 46.84 80.48 47.97C80.51 48.95 80.56 49.94 80.45 50.92C80.34 51.94 80.1 52.98 79.49 53.83C79.4 53.96 79.3 54.08 79.2 54.2C81.1 54.02 83.04 53.7 84.86 53.07C85.83 52.74 86.81 52.26 87.59 51.59C87.83 51.38 88.06 51.14 88.26 50.9C89.27 49.63 89.39 47.8 89.52 46.22C89.84 42.4 89.66 38.53 88.93 34.76C88.75 33.82 88.54 32.88 88.3 31.95C88.1 31.19 87.89 30.42 87.5 29.74C86.68 28.27 85.05 28.03 83.52 27.76C81.32 27.39 79.07 27.22 76.83 27.26ZM120.73 31.64C120.88 32.25 121.04 32.87 121.19 33.48C121.24 33.48 121.28 33.47 121.32 33.46C124.87 32.99 128.26 33.6 130.87 36.2C130.99 36.32 131.11 36.45 131.23 36.58C131.42 32.64 130.5 28.33 126.56 26.92C126.43 27.23 126.29 27.54 126.12 27.83C125 29.73 122.9 30.82 120.73 31.64ZM133.78 35.2C133.81 36.24 133.76 37.29 133.66 38.3C135.09 39.05 136.83 39.21 138.35 38.75C138.35 37.21 138.23 35.67 137.97 34.14C136.72 34.91 135.25 35.28 133.78 35.2ZM137.45 45.59C137.88 43.96 138.15 42.31 138.27 40.64C136.95 40.93 135.58 40.9 134.28 40.53C135.39 42.21 136.41 43.96 137.45 45.59ZM117.08 32.86C111.46 34.78 105.68 36.17 99.81 37.06C99.97 37.68 100.12 38.3 100.28 38.92C106.57 37.49 112.64 35.04 119 33.84C118.87 33.35 118.75 32.85 118.62 32.36C118.09 32.53 117.57 32.7 117.08 32.86ZM91.63 37.98C91.71 38.68 91.77 39.37 91.81 40.07C91.94 40.03 92.07 40 92.23 39.99C94.22 39.94 96.18 39.71 98.1 39.36C97.94 38.7 97.77 38.04 97.61 37.37C95.62 37.63 93.63 37.83 91.63 37.98ZM90.39 51.68C90.46 51.72 90.54 51.75 90.62 51.8C90.78 51.89 90.95 51.99 91.11 52.1C96.52 50.49 102.57 51.25 107.32 54.36C107.95 54.78 108.68 55.57 109.47 55.66C110.18 55.74 111.06 55.4 111.79 55.41C112.97 55.44 114.15 55.73 115.21 56.24C115.83 56.55 116.37 56.94 116.91 57.37C117.07 57.49 117.21 57.6 117.35 57.7C115.14 51.29 112.57 43.73 106.74 39.96C102 41.31 97.21 42.46 92.23 42.58C92.1 42.58 91.99 42.57 91.88 42.54C91.89 44.34 91.79 46.13 91.56 47.91C91.39 49.26 91.06 50.55 90.39 51.68ZM91.32 55.45C91.2 55.27 91.08 55.1 90.96 54.95C90.13 53.94 89.22 53.52 88.83 53.43C88.75 53.5 88.66 53.56 88.58 53.62C88.61 53.73 88.64 53.84 88.65 53.95C88.66 54.15 88.67 54.34 88.68 54.53C89.61 54.69 90.5 55 91.32 55.45ZM72.6 50.68C72.61 50.76 72.6 50.84 72.58 50.91C72.66 51.76 72.7 52.6 72.69 53.44C73.44 53.61 74.12 53.72 74.91 53.71C75.69 53.71 76.4 53.6 77.04 53.19C77.6 52.84 77.96 52.18 78.14 51.46C78.35 50.58 78.31 49.62 78.28 48.69C78.18 44.54 77.81 40.39 77.15 36.29C76.83 34.29 76.53 32.25 75.98 30.31C75.76 29.56 75.46 28.92 74.91 28.43C74.72 28.26 74.33 28.01 74.06 27.9C73.86 27.82 73.35 27.7 73.22 27.69C72.84 27.65 72.52 27.67 72.23 27.74C72.23 27.85 72.22 27.98 72.23 28.05C72.24 29.15 72.26 30.26 72.28 31.36C72.32 33.51 72.35 35.65 72.39 37.8C72.46 42.09 72.53 46.39 72.6 50.68ZM69.14 66.47C64.82 73.75 56.88 78.76 46.19 80.95C43.26 81.55 40.46 81.87 37.79 81.93C40.88 83.42 44.41 83.96 47.83 83.93C52.15 83.88 56.43 82.94 60.5 81.51C64.63 80.06 68.54 78 72.1 75.46C75.62 72.96 78.79 69.93 81.47 66.54C84.12 63.2 86.47 59.18 86.47 54.82C85.92 55.05 85.36 55.25 84.79 55.42C82.86 55.99 80.83 56.28 78.82 56.45C76.72 56.63 74.61 56.61 72.51 56.4C72.1 59.95 70.97 63.39 69.14 66.47ZM57.52 90.09C57.39 89.79 57.26 89.49 57.15 89.19C56.65 87.87 56.36 86.47 56.25 85.06C53.91 85.62 51.48 85.99 49.04 86.11C48.99 87.67 49.15 89.13 49.55 90.62C52.05 90.67 54.76 90.51 57.52 90.09ZM66.42 87.73C65.92 85.87 65.24 84.08 64.38 82.36C62.77 83.06 61.11 83.68 59.43 84.2C58.98 84.34 58.53 84.47 58.07 84.6C58.12 85.49 58.24 86.35 58.47 87.23C58.61 87.76 58.77 88.29 58.97 88.81C59.06 89.03 59.14 89.24 59.25 89.46C59.29 89.56 59.34 89.66 59.39 89.77C61.75 89.31 64.12 88.64 66.42 87.73ZM75.65 82.81C75.19 81.97 74.7 81.15 74.16 80.35C73.82 79.83 73.47 79.33 73.1 78.83C73.05 78.77 73.01 78.71 72.96 78.66C72.96 78.65 72.9 78.57 72.88 78.55C72.84 78.5 72.73 78.37 72.69 78.32C72.64 78.26 72.58 78.21 72.53 78.16C72.49 78.13 72.35 78.03 72.31 78C70.32 79.35 68.23 80.55 66.06 81.59C66.92 83.32 67.62 85.14 68.14 87C70.63 85.87 73.18 84.46 75.65 82.81ZM83.37 76.6C83.16 76.14 82.92 75.7 82.64 75.29C82.29 74.75 82.04 74.43 81.66 73.97C81.27 73.5 80.86 73.05 80.45 72.6C80.34 72.49 80.24 72.38 80.13 72.28C80.08 72.23 80.04 72.19 80 72.15C80 72.16 79.92 72.09 79.89 72.06C79.86 72.04 79.76 71.96 79.76 71.96C77.96 73.78 75.93 75.4 73.87 76.91C74.07 77.1 74.25 77.32 74.43 77.56C74.83 78.07 75.21 78.6 75.58 79.14C76.15 79.99 76.69 80.86 77.18 81.76C79.37 80.19 81.47 78.46 83.37 76.6ZM89.94 68.21C89.82 67.99 89.69 67.76 89.55 67.55C89.48 67.43 89.4 67.31 89.31 67.19C89.27 67.13 89.23 67.07 89.18 67.02C88.81 66.55 88.32 66.03 87.87 65.64C87.81 65.6 87.76 65.55 87.7 65.51C87.7 65.5 87.61 65.43 87.58 65.41C87.48 65.33 87.38 65.26 87.27 65.19C87.01 65.01 86.75 64.84 86.47 64.69C86.23 64.55 85.97 64.43 85.72 64.31C84.68 66.03 83.46 67.64 82.21 69.13C81.8 69.61 81.38 70.09 80.95 70.56C81.7 71.11 82.32 71.9 82.9 72.59C83.59 73.41 84.24 74.27 84.74 75.21C86.82 73 88.61 70.64 89.94 68.21ZM92.19 62.32C92.48 60.92 92.53 59.73 92.43 58.72C92.34 58.62 92.26 58.52 92.17 58.43C91.99 58.23 91.8 58.04 91.6 57.86C91.51 57.78 91.41 57.7 91.32 57.62C91.27 57.59 91.13 57.49 91.08 57.46C90.86 57.3 90.63 57.16 90.4 57.03C90.28 56.97 90.16 56.91 90.04 56.85C89.97 56.82 89.9 56.79 89.83 56.76C89.58 56.66 89.26 56.55 89 56.48C88.87 56.44 88.74 56.41 88.61 56.38C88.38 58.59 87.64 60.71 86.62 62.71C88.33 63.49 89.83 64.72 90.91 66.26C91.48 64.96 91.92 63.64 92.19 62.32ZM113.06 94.27C115.5 94.74 118.31 94.54 120.39 93.07C120.18 92.59 119.95 92.12 119.71 91.65C119.02 92.43 118.15 92.98 117.08 93.12C113.15 93.62 112.57 87.45 112.68 84.78C112.82 81.42 114.43 77.35 117.9 76.24C117.45 72.71 117.51 69.22 118.09 65.69C118.36 64.05 120.85 64.75 120.58 66.38C120.29 68.16 120.15 69.95 120.16 71.74C121.35 70.26 122.96 69.11 124.82 68.36C129.19 66.61 134.08 67.82 138.07 69.99C140.08 71.09 142.19 72.51 143.87 74.27C143.46 70.25 141.24 66.4 137.86 64.16C133.02 60.95 126.18 61.05 120.59 61.11C119.46 61.13 118.32 61.17 117.26 60.74C115.9 60.2 115.06 58.93 113.69 58.39C112.56 57.94 111.54 58.08 110.42 58.17C109.13 60.48 108.44 63.13 107.91 65.71C105.97 75.18 107.32 85.3 111.69 93.93C112.14 94.06 112.6 94.18 113.06 94.27ZM132.94 82.04C136.39 81.39 140.26 81.56 142.77 84.36C143 84.63 143.21 84.91 143.39 85.2C143.61 84.86 144.05 84.23 144.13 84.06C144.45 83.37 144.58 82.6 144.6 81.84C144.64 80.29 144.09 78.84 143.22 77.57C141.5 75.02 138.63 73.11 135.9 71.78C132.96 70.34 129.44 69.51 126.24 70.58C123.64 71.45 121.32 73.51 120.72 76.23C122.48 76.8 124.06 78.34 125.08 79.99C125.67 79.43 126.41 79.07 127.25 78.93C129.37 78.59 131.67 79.77 132.83 81.81C132.87 81.88 132.9 81.97 132.94 82.04ZM127.12 92.64C127.49 93.08 127.88 93.26 128.41 93.24C129.07 93.21 129.67 92.72 130.19 91.79C131.5 89.44 131.69 85.05 130.58 83.09C129.95 81.98 128.86 81.46 127.98 81.46C127.87 81.46 127.77 81.46 127.67 81.48C126.91 81.6 126.43 82.14 126.25 83.07C125.45 87.1 125.82 91.12 127.12 92.64ZM141.87 96.33C142.09 97.71 143.24 100.55 144.67 98.14C145.13 97.37 145.37 96.33 145.55 95.46C145.95 93.57 145.88 91.49 144.43 90.25C144.32 91.46 144.02 92.66 143.62 93.77C143.25 94.81 142.64 95.71 141.87 96.33ZM137.26 31.07C137.02 30.24 136.73 29.41 136.4 28.6C136.13 29.03 135.8 29.41 135.44 29.75C134.77 30.35 134.02 30.77 133.19 31.02C133.39 31.77 133.54 32.55 133.64 33.35C133.84 33.36 134.04 33.37 134.24 33.37C134.46 33.37 134.68 33.35 134.9 33.33C134.95 33.32 135.11 33.3 135.13 33.29C135.25 33.27 135.36 33.24 135.47 33.22C135.7 33.16 135.92 33.09 136.14 33.01C136.2 32.99 136.25 32.97 136.31 32.95C136.41 32.9 136.54 32.84 136.65 32.79C136.85 32.68 137.06 32.56 137.25 32.43C137.33 32.37 137.42 32.31 137.5 32.25C137.41 31.87 137.37 31.44 137.26 31.07ZM132.45 22.69C132.44 24.14 131.84 25.6 130.81 26.63C131.55 27.4 132.12 28.3 132.57 29.29C132.68 29.26 132.88 29.2 132.99 29.16C133.03 29.14 133.1 29.11 133.15 29.09C133.36 28.98 133.56 28.87 133.76 28.73C133.81 28.7 133.86 28.67 133.9 28.63C133.99 28.56 134.09 28.48 134.17 28.4C134.35 28.23 134.52 28.05 134.67 27.87C134.71 27.82 134.75 27.77 134.78 27.72C134.84 27.62 134.91 27.52 134.97 27.42C135.02 27.32 135.08 27.21 135.13 27.11C135.14 27.08 135.17 26.98 135.2 26.96C135.26 26.78 135.31 26.59 135.36 26.41C134.57 24.99 133.61 23.71 132.45 22.69ZM126.91 20.34C127.12 21.68 127.24 23.06 127.13 24.37C127.98 24.63 128.72 24.99 129.38 25.42C129.43 25.38 129.49 25.33 129.53 25.28C129.62 25.2 129.7 25.11 129.78 25.02C129.81 24.97 129.89 24.87 129.92 24.82C130.06 24.62 130.18 24.41 130.28 24.19C130.3 24.13 130.35 24.03 130.37 23.97C130.41 23.85 130.45 23.74 130.48 23.62C130.52 23.49 130.55 23.36 130.57 23.23C130.57 23.22 130.58 23.17 130.59 23.13C130.61 22.87 130.61 22.49 130.59 22.24C130.58 22.19 130.57 22.14 130.56 22.09C130.53 21.96 130.5 21.83 130.46 21.7C130.42 21.57 130.42 21.44 130.44 21.31C129.39 20.77 128.22 20.43 126.91 20.34ZM117.68 3.48C116.62 2.99 115.48 2.75 114.3 2.64C108.05 2.35 101.81 4.92 97.37 9.33C92.34 14.33 89.79 21.33 89.59 28.34C89.59 28.51 89.55 28.65 89.49 28.78C89.65 29.07 89.78 29.37 89.9 29.66C90.62 31.47 90.98 33.47 91.29 35.38C100.07 34.76 108.74 33.04 117.05 30.14C120.5 28.94 124.5 27.99 124.53 23.63C124.56 19.87 123.55 15.92 122.65 12.29C121.84 9.04 121.02 5.02 117.68 3.48ZM83.55 4.58C76.92 5.14 70.17 5.93 64.12 8.79C68.12 10.21 71.97 12.11 75.42 14.56C77.41 15.98 79.26 17.59 80.77 19.52C82.23 21.39 83.39 23.42 84.25 25.63C84.74 25.72 85.23 25.83 85.71 25.95C86.32 26.11 86.92 26.33 87.47 26.64C88.04 19.45 90.92 12.37 96.22 7.36C97.98 5.69 99.96 4.29 102.09 3.2C95.91 3.61 89.73 4.06 83.55 4.58ZM34.88 8.24C32.79 8.48 30.56 8.79 28.5 9.5C30.14 9.31 31.78 9.21 33.43 9.2C38.52 9.18 43.62 9.96 48.53 11.31C53.28 12.62 57.98 14.43 62.29 16.81C66.2 18.98 69.78 21.76 72.45 25.36C74.53 25.1 76.62 24.99 78.71 25.06C79.7 25.1 80.71 25.16 81.71 25.27C80.88 23.43 79.78 21.7 78.46 20.19C76.76 18.25 74.73 16.68 72.56 15.31C65.26 10.67 56.69 8.4 48.11 7.86C43.7 7.58 39.27 7.73 34.88 8.24ZM16.02 21.91C19.66 17.79 24.38 15.44 30.14 14.91C35.68 14.41 42.09 15.58 49.74 18.49C61.34 22.9 67.43 34.4 70.24 41.72C70.2 39.37 70.16 37.02 70.12 34.67C70.1 33.48 70.08 32.28 70.06 31.09C70.04 29.91 69.95 28.72 70 27.55C70.02 27.04 70.18 26.64 70.42 26.33C67.67 22.73 63.85 20.08 59.85 18.02C55.72 15.91 51.31 14.3 46.82 13.15C42.18 11.97 37.41 11.32 32.61 11.43C30.26 11.48 27.92 11.71 25.62 12.16C23.49 12.57 21.2 13.13 19.29 14C18.46 14.38 17.57 14.88 16.94 15.42C16.28 15.98 15.72 16.63 15.45 17.31C14.82 18.86 15.31 20.45 16.02 21.91ZM45.6 78.05C55.45 76.03 62.72 71.51 66.6 64.96C69.87 59.44 70.63 52.62 68.67 46.24C66.86 40.32 61.28 26.04 48.69 21.25C42.62 18.94 37.29 17.79 32.7 17.79C24.48 17.79 18.58 21.5 14.85 28.96C10.47 37.72 7.79 51.96 12.23 62.52C16.19 71.91 25.19 82.23 45.6 78.05ZM35.96 83.46C35.65 84.23 35.47 85.1 35.66 85.93C35.95 87.14 37.03 88.14 38.89 88.89C39.14 88.99 39.42 89.09 39.71 89.19C39.5 87.84 39.57 86.44 39.93 85.12C38.56 84.7 37.23 84.16 35.96 83.46ZM33 101.09C33.02 101.83 33.06 102.58 33.09 103.32C35.92 103.01 38.79 103.34 41.46 104.28C39.47 99.98 37.97 95.47 36.98 90.82C36.95 90.68 36.94 90.55 36.95 90.43C36 89.93 35.24 89.34 34.66 88.68C33.11 92.62 32.87 96.86 33 101.09ZM11.81 143.69C11.75 143.12 11.87 142.47 12.18 141.77C12.23 141.65 12.29 141.53 12.35 141.42C11.2 141.3 10.09 141.54 9.03 142C8.99 142.05 8.97 142.09 8.93 142.13C8.04 143.06 7.4 144.11 7.11 145.36C6.98 145.91 6.49 148.97 7.94 148.44C8.57 148.21 9.29 146.4 9.72 145.85C10.34 145.05 11.03 144.34 11.81 143.69ZM14.87 149.86C15.54 149.21 15.73 148.12 16.21 147.31C15.35 147.11 14.5 146.81 13.78 146.38C13.44 147.03 13.2 147.72 13.2 148.46C13.2 149.31 13.91 150.78 14.87 149.86ZM42.71 137.73C42.12 136.64 41.47 135.57 40.75 134.55C37.76 130.28 33.71 126.88 29.07 124.53C28.03 124.95 26.96 125.24 25.98 125.91C24.79 126.73 23.82 127.78 23.04 128.99C23.24 129.15 23.44 129.32 23.62 129.48C24.87 130.58 23.04 132.4 21.79 131.31C18.5 128.4 11.5 124.2 7.62 128.42C6.92 129.19 6.13 130.93 7.33 131.67C8.21 132.21 9.98 131.82 10.97 131.93C13.14 132.16 15.03 133.08 16.68 134.49C17.95 135.57 16.12 137.39 14.86 136.32C13.96 135.56 12.99 135.07 11.95 134.78C11.9 134.79 11.87 134.8 11.82 134.8C9.54 135.01 7.13 135.32 5.17 136.61C4.41 137.11 3.7 137.76 3.23 138.54C2.75 139.33 2.08 141.12 3.04 141.84C3.98 142.55 5.4 141.08 6.1 140.64C6.89 140.15 7.72 139.71 8.59 139.38C10.39 138.71 12.25 138.59 14.09 139.13C14.26 139.17 14.39 139.25 14.51 139.33C17.02 137.98 20.68 138.11 23.12 138.55C24.76 138.84 24.06 141.33 22.43 141.04C20.85 140.75 19.23 140.72 17.64 141.06C16.63 141.27 13.44 142.19 14.67 143.96C15.34 144.92 17.6 145 18.63 144.96C19.66 144.93 20.67 144.54 21.7 144.78C22.59 144.98 23.19 145.54 23.82 146.16C24.71 147.03 25.68 147.73 26.87 148.12C28.02 148.49 29.46 148.67 30.62 148.24C32.4 147.59 32.24 145.96 31.85 144.42C31.44 142.8 33.94 142.12 34.35 143.73C34.55 144.53 34.7 145.36 34.71 146.17C37.11 145.11 39.42 143.83 41.58 142.34C42.1 141.99 43.02 141.54 43.38 141.02C44.12 139.97 43.2 138.62 42.71 137.73ZM55.41 129.96C52.29 126.43 49.64 122.54 47.73 118.19C46.93 116.39 46.38 114.62 46.34 112.77C46.18 112.67 46.03 112.54 45.91 112.35C44.74 110.55 43.67 108.7 42.69 106.8C39.76 105.35 36.44 104.77 33.19 105.16C33.43 108.99 33.85 112.8 34.41 116.59C34.54 117.42 34.09 118.21 33.17 118.23C31.07 118.28 30.92 120.04 31.13 121.64C31.18 122 31.17 122.35 31.09 122.67C36.66 125.66 41.37 130.18 44.53 135.67C45.03 136.55 45.65 137.55 46.04 138.58C47.87 137.75 49.73 136.94 51.44 135.92C53.8 134.51 54.78 132.51 55.41 129.96ZM49.02 111.29C51.63 111.57 54.25 111.84 56.88 111.98C61.82 112.25 66.73 111.93 71.61 111.12C74.01 110.73 76.41 110.27 78.78 109.7C81 109.16 83.19 108.48 85.23 107.44C85.3 107.4 85.38 107.37 85.46 107.36C85.72 107.17 86.06 107.1 86.42 107.29C88.36 108.29 90.01 109.77 91.42 111.43C94.08 114.56 96.29 118.16 98.26 121.76C100.14 125.19 101.77 128.76 103.14 132.43C103.42 132.15 103.7 131.86 103.97 131.56C105.68 129.64 107.05 127.32 107.68 124.81C108.44 121.81 107.58 119.4 106 116.86C103.08 112.15 99.79 107.65 96.42 103.25C94.51 100.75 92.6 98.24 90.58 95.84C90.19 95.38 89.76 94.73 89.2 94.47C88.38 94.09 87.41 94.56 86.66 94.85C85.31 95.38 83.99 96.02 82.67 96.64C77.89 98.9 73.18 101.28 68.05 102.67C62.88 104.06 57.52 104.6 52.18 104.33C50.94 106.51 49.48 108.8 49.02 111.29ZM75.86 140.95C81.11 141.01 86.65 140.31 91.69 138.85C95.31 137.81 98.78 136.16 101.67 133.77C100.9 131.63 100.04 129.53 99.08 127.47C97.37 123.77 95.37 120.21 93.11 116.82C91.17 113.91 89.04 110.9 85.95 109.14C83.63 110.29 81.14 111.05 78.62 111.63C73.72 112.76 68.7 113.59 63.68 113.86C58.73 114.12 53.8 113.64 48.89 113.12C49.03 115.89 50.7 118.7 52.03 121.01C54.71 125.65 58.35 129.56 62.24 133.21C66.23 136.96 70.03 140.89 75.86 140.95ZM96.73 158.21C97.17 158.4 97.6 158.62 98.02 158.83C99.61 158.64 101.18 158.25 102.68 157.69C107.93 155.75 112.44 151.64 114.75 146.53C110.33 146.31 105.37 146.41 102.34 149.77C101.22 151.01 99.4 149.17 100.51 147.94C104.33 143.72 110.49 143.8 115.73 144.01C120.15 144.2 124.55 144.64 128.97 144.88C131.49 144.23 133.61 142.18 135.33 140.35C139.19 136.25 141.98 131.16 143.34 125.7C144.87 119.6 144.58 113.11 142.6 107.15C139.99 106.03 137.34 105.04 134.52 104.32C135.35 107.2 135.52 110.19 135.05 113.25C134.79 114.89 132.3 114.19 132.56 112.56C133.13 108.89 132.5 105.2 130.81 101.9C130.77 101.83 130.75 101.76 130.73 101.69C130.29 101.6 129.85 101.49 129.42 101.35C127.58 104.62 123.06 110.81 119.5 106.74C116.79 103.63 118.58 98.71 121.72 96.67C121.53 96.03 121.32 95.4 121.09 94.79C118.44 96.43 115.18 96.64 112.15 95.96C110.06 95.49 108.1 94.63 106.31 93.5C105.33 94.94 103.61 95.84 101.86 95.73C101.35 95.69 100.96 95.33 100.94 94.8C100.92 94.33 101.38 93.85 101.86 93.88C102.05 93.89 102.23 93.89 102.42 93.88C102.45 93.88 102.49 93.87 102.52 93.87C102.59 93.86 102.66 93.85 102.73 93.83C102.9 93.79 103.16 93.71 103.33 93.65C103.39 93.62 103.47 93.59 103.53 93.56C103.69 93.48 103.84 93.39 103.99 93.29C104.01 93.27 104.14 93.18 104.15 93.16C104.19 93.13 104.22 93.1 104.26 93.07C104.38 92.96 104.56 92.76 104.67 92.63C104.71 92.57 104.75 92.51 104.79 92.45C104.09 91.93 103.43 91.36 102.79 90.76C100.55 91.94 97.68 91.84 95.55 90.45C95.13 90.18 94.96 89.64 95.22 89.19C95.46 88.77 96.06 88.59 96.48 88.86C97.97 89.82 99.8 89.99 101.41 89.36C100.25 88.1 99.21 86.74 98.31 85.33C95.09 80.27 93.46 74.41 92.28 68.56C87.68 77.62 77.44 85.36 68.5 89.27C62.51 91.89 56.03 92.87 50.39 92.87C46.21 92.87 42.5 92.33 39.79 91.54C41.26 97.75 43.66 103.65 46.94 109.12C47.71 106.81 49.04 104.68 50.21 102.56C50.31 102.37 50.44 102.23 50.59 102.13C50.79 101.86 51.12 101.69 51.57 101.71C58.95 102.17 66.28 101.01 73.13 98.22C76.56 96.83 79.83 95.09 83.2 93.56C85.71 92.42 88.73 90.68 91.23 92.75C93.54 94.67 95.34 97.66 97.17 100.02C99.16 102.59 101.12 105.18 103.01 107.82C104.88 110.43 106.72 113.08 108.4 115.82C109.94 118.32 110.87 120.91 110.48 123.88C109.02 135.17 96.89 140.93 86.94 142.54C84.02 143.01 81.06 143.3 78.11 143.47C78.05 143.47 77.98 143.48 77.91 143.48C81.26 147.45 84.76 151.4 89.06 154.33C91.47 155.96 94.09 157.03 96.73 158.21ZM122.4 167.99C123.78 167.73 125.12 167.45 126.46 167.22C127.39 166.58 128.28 165.87 129.11 165.08C133.77 160.59 136.08 154.02 135.23 147.6C129.31 147.67 123.42 147.02 117.52 146.69C117.25 146.67 116.97 146.66 116.69 146.64C116.07 148.13 115.3 149.56 114.37 150.88C111.04 155.58 106.06 158.96 100.48 160.25C101.85 161.1 103.17 162.02 104.52 162.92C109.84 166.44 115.9 169.21 122.4 167.99ZM137.08 147.56C137.29 149.32 137.31 151.1 137.1 152.87C136.45 158.24 133.89 163.18 129.97 166.78C130.33 166.76 130.7 166.75 131.08 166.74C132.07 166.12 132.96 165.38 133.76 164.51C137.99 159.95 138.62 153.45 138.17 147.5C137.81 147.52 137.44 147.54 137.08 147.56ZM154.75 145.67C149.86 146.39 144.94 147.06 140.01 147.4C140.16 149.31 140.21 151.23 140.07 153.14C139.7 158.1 137.92 163.25 134.26 166.64C136.5 166.44 138.65 165.8 139.75 163.62C140.5 162.13 142.73 163.44 141.99 164.92C141.82 165.26 141.63 165.57 141.44 165.85C144.29 167.85 147.73 168.92 151.23 168.95C154.77 168.98 159.37 167.99 161.63 164.99C163.78 162.11 163.52 157.95 162.1 154.81C160.46 151.21 157.55 148.39 154.75 145.67ZM167.31 137.68C168.19 135.97 168.57 134.07 168.61 132.13C168.64 129.97 168.3 127.82 167.81 125.72C167.27 123.45 166.62 121.18 165.72 119.03C164.27 115.59 161.86 112.29 158.37 110.83C158.93 111.58 159.45 112.36 159.96 113.14C160.87 114.54 158.63 115.83 157.72 114.44C156.45 112.48 154.99 110.14 152.58 109.48C150.66 108.96 149.11 110.1 147.17 109.2C146.39 108.84 145.61 108.48 144.83 108.13C145.72 111.25 146.17 114.49 146.17 117.73C146.16 124.07 144.4 130.35 141.11 135.77C139.56 138.33 137.68 140.71 135.52 142.78C134.7 143.58 133.81 144.36 132.85 145.01C133.35 145.02 133.85 145.03 134.35 145.03C140.83 145.01 147.27 144.13 153.67 143.23C156.51 142.83 159.45 142.41 161.99 140.98C163.84 139.94 165.47 138.67 167.31 137.68ZM188.85 119.5C187.07 116.54 184.63 113.94 182.35 111.36C180.25 108.99 177.93 106.1 175.11 104.55C172.01 102.85 167.7 103.99 164.61 105.25C163.21 105.83 161.94 106.61 160.67 107.4C162.47 107.91 164.11 108.9 165.5 110.2C167.16 111.74 168.41 113.69 169.39 115.72C170.43 117.86 171.24 120.11 171.8 122.42C172.82 126.57 173.05 130.88 172.52 135.12C175.95 133.09 178.72 130.4 180.64 126.57C181.38 125.08 183.61 126.39 182.87 127.88C181 131.61 178.22 134.62 174.81 136.83C178.02 141.51 184.9 141.03 188.51 136.98C192.92 132.03 192.04 124.83 188.85 119.5ZM132.16 121.62C132.67 121.73 133.14 121.46 133.3 120.97C133.7 119.77 134 118.53 134.21 117.28C134.25 117.03 134.25 116.8 134.12 116.57C134.01 116.38 133.79 116.2 133.57 116.15C133.12 116.04 132.52 116.28 132.43 116.79C132.22 118.04 131.92 119.27 131.52 120.48C131.37 120.94 131.69 121.51 132.16 121.62ZM137.19 111.23C137.2 111.25 137.24 111.43 137.23 111.44C137.24 111.58 137.25 111.73 137.26 111.88C137.27 112.17 137.27 112.46 137.25 112.75C137.21 113.23 137.7 113.69 138.17 113.67C138.7 113.65 139.06 113.26 139.09 112.75C139.18 111.51 138.97 110.24 138.5 109.1C138.4 108.86 138.3 108.68 138.07 108.54C137.87 108.43 137.58 108.38 137.36 108.45C137.14 108.52 136.92 108.66 136.81 108.87C136.7 109.08 136.62 109.36 136.72 109.59C136.94 110.11 137.1 110.66 137.19 111.23ZM181.88 115.39C181.37 115.56 181.16 116.02 181.24 116.53C181.26 116.64 181.27 116.75 181.29 116.87C181.3 116.91 181.3 116.95 181.31 117C181.33 117.21 181.36 117.42 181.38 117.63C181.42 118.03 181.45 118.44 181.46 118.84C181.5 119.67 181.48 120.49 181.42 121.32C181.38 121.8 181.87 122.26 182.34 122.24C182.87 122.22 183.22 121.83 183.26 121.32C183.4 119.55 183.3 117.79 183.02 116.04C182.94 115.56 182.32 115.25 181.88 115.39ZM146.96 156.12C146.49 157.94 145.6 159.62 144.38 161.05C144.05 161.45 143.42 161.37 143.07 161.05C142.68 160.7 142.76 160.11 143.07 159.75C143.15 159.66 143.22 159.57 143.29 159.48C143.31 159.46 143.38 159.37 143.38 159.36C143.5 159.2 143.62 159.03 143.74 158.86C143.96 158.52 144.17 158.17 144.36 157.81C144.46 157.61 144.56 157.42 144.64 157.22C144.66 157.18 144.68 157.14 144.7 157.1C144.74 157 144.78 156.89 144.81 156.8C144.96 156.42 145.08 156.03 145.18 155.63C145.31 155.13 145.84 154.87 146.32 154.98C146.81 155.1 147.09 155.65 146.96 156.12ZM147.59 148.58C147.39 148.47 147.1 148.42 146.87 148.49C146.65 148.56 146.43 148.7 146.32 148.91C146.29 148.99 146.26 149.06 146.23 149.14C146.18 149.3 146.18 149.46 146.23 149.63C146.24 149.67 146.24 149.71 146.25 149.76C146.3 150.22 146.31 150.7 146.25 151.17C146.23 151.39 146.38 151.67 146.53 151.82C146.69 151.98 146.95 152.1 147.18 152.09C147.42 152.08 147.66 152 147.83 151.82C147.88 151.76 147.93 151.7 147.98 151.63C148.06 151.49 148.1 151.33 148.1 151.17C148.18 150.49 148.13 149.81 148.01 149.14C147.97 148.92 147.77 148.69 147.59 148.58Z" fill="#000000" fill-opacity="1.000000" fill-rule="nonzero"/>
		</g>
	</g>
	<g mask="url(#mask1_26761)">
		<g style="mix-blend-mode:normal">
			<path id="Path 36251" d="M18.98 29.18C21.4 25.36 28.35 27.12 26.57 30.14C25.26 32.38 20.24 42.15 22.16 56.96C22.55 59.95 15.48 63.09 14.6 55.92C13.82 49.54 13.33 38.11 18.98 29.18Z" fill="#D9EFFF" fill-opacity="1.000000" fill-rule="nonzero"/>
		</g>
	</g>
	<g mask="url(#mask1_26761)">
		<g style="mix-blend-mode:normal">
			<path id="Path 36252" d="M26.57 30.14C25.26 32.38 20.24 42.15 22.16 56.96C22.55 59.95 15.48 63.09 14.6 55.92C13.82 49.54 13.33 38.11 18.98 29.18C21.4 25.36 28.35 27.12 26.57 30.14Z" stroke="#000000" stroke-opacity="1.000000" stroke-width="5.404000" stroke-linejoin="round"/>
		</g>
	</g>
</svg>
