<svg width="74.610596" height="58.064453" viewBox="0 0 74.6106 58.0645" fill="none" xmlns="http://www.w3.org/2000/svg" xmlns:xlink="http://www.w3.org/1999/xlink">
	<desc>
			Created with Pixso.
	</desc>
	<defs/>
	<mask id="mask1_4697" mask-type="alpha" maskUnits="userSpaceOnUse" x="0.000000" y="0.000000" width="74.610596" height="58.064453">
		<g style="mix-blend-mode:normal">
			<rect id="Rectangle 2932" width="74.610596" height="58.064453" fill="#FCD100" fill-opacity="1.000000"/>
		</g>
	</mask>
	<g mask="url(#mask1_4697)">
		<g style="mix-blend-mode:normal">
			<path id="Path 23444" d="M72.17 0L2.43 0C1.08 0 0 1.08 0 2.43L0 45.56C0 46.9 1.08 47.99 2.43 47.99L32.43 47.99L37.3 58.06L42.17 47.99L72.17 47.99C73.52 47.99 74.61 46.9 74.61 45.56L74.61 2.43C74.61 1.08 73.52 0 72.17 0ZM19.74 38.18L15.74 36.08L11.74 38.18L12.5 33.72L9.27 30.57L13.74 29.92L15.74 25.87L17.74 29.92L22.21 30.57L18.97 33.72L19.74 38.18ZM26.09 17.95L22.09 20.06L22.86 15.6L19.62 12.45L24.09 11.8L26.09 7.75L28.09 11.8L32.56 12.45L29.33 15.6L30.09 20.06L26.09 17.95ZM40.55 33.72L41.31 38.18L37.31 36.08L33.31 38.18L34.07 33.72L30.84 30.57L35.31 29.92L37.31 25.87L39.31 29.92L43.78 30.57L40.55 33.72ZM48.53 17.95L44.53 20.06L45.29 15.6L42.06 12.45L46.53 11.8L48.53 7.75L50.53 11.8L55 12.45L51.76 15.6L52.53 20.06L48.53 17.95ZM63.75 38.18L59.75 36.08L55.75 38.18L56.51 33.72L53.27 30.57L57.75 29.92L59.75 25.87L61.75 29.92L66.22 30.57L62.98 33.72L63.75 38.18Z" fill="#FCD100" fill-opacity="1.000000" fill-rule="nonzero"/>
		</g>
	</g>
</svg>
