<svg width="129.392578" height="128.940430" viewBox="0 0 129.393 128.94" fill="none" xmlns="http://www.w3.org/2000/svg" xmlns:xlink="http://www.w3.org/1999/xlink">
	<desc>
			Created with Pixso.
	</desc>
	<defs/>
	<g style="mix-blend-mode:normal">
		<path id="Path 35774" d="M34.31 41.05L31.54 36.91L33.04 44.48L18.45 34.73L28.19 49.3L20.64 47.8L24.8 50.58L0 55.51L24.78 60.44L20.64 63.2L28.2 61.7L18.45 76.29L33.03 66.55L31.52 74.1L34.3 69.95L39.23 94.75L44.16 69.96L46.93 74.11L45.43 66.54L60.02 76.29L50.28 61.71L57.83 63.22L53.67 60.44L78.47 55.51L53.69 50.58L57.83 47.81L50.27 49.32L60.02 34.73L45.44 44.47L46.95 36.92L44.17 41.07L39.23 16.27L34.31 41.05Z" fill="#83D5D5" fill-opacity="1.000000" fill-rule="nonzero"/>
	</g>
	<g style="mix-blend-mode:normal">
		<path id="Path 35775" d="M97.12 26.69L95.09 23.67L96.19 29.2L85.53 22.07L92.65 32.72L87.13 31.62L90.17 33.65L72.05 37.26L90.15 40.86L87.13 42.88L92.66 41.78L85.53 52.44L96.18 45.32L95.08 50.84L97.11 47.81L100.72 65.93L104.32 47.82L106.34 50.85L105.24 45.32L115.9 52.44L108.78 41.79L114.3 42.89L111.27 40.86L129.39 37.26L111.28 33.66L114.31 31.63L108.78 32.73L115.9 22.07L105.25 29.19L106.35 23.67L104.32 26.71L100.72 8.59L97.12 26.69Z" fill="#83D5D5" fill-opacity="1.000000" fill-rule="nonzero"/>
	</g>
	<g style="mix-blend-mode:normal">
		<path id="Path 35776" d="M98.46 90.94L100.75 89.42L96.58 90.24L101.95 82.2L93.91 87.57L94.74 83.41L93.21 85.7L90.49 72.02L87.77 85.69L86.25 83.4L87.08 87.58L79.03 82.2L84.4 90.24L80.24 89.41L82.53 90.94L68.85 93.66L82.52 96.38L80.23 97.9L84.41 97.08L79.03 105.12L87.07 99.75L86.24 103.91L87.77 101.62L90.49 115.3L93.21 101.63L94.73 103.92L93.91 99.75L101.95 105.12L96.58 97.08L100.75 97.91L98.45 96.38L112.13 93.66L98.46 90.94Z" fill="#83D5D5" fill-opacity="1.000000" fill-rule="nonzero"/>
	</g>
	<g style="mix-blend-mode:normal">
		<path id="Path 35777" d="M47.79 109.01L46.76 107.47L47.32 110.28L41.9 106.66L45.52 112.07L42.72 111.51L44.26 112.54L35.06 114.38L44.25 116.2L42.71 117.23L45.52 116.67L41.9 122.09L47.31 118.47L46.75 121.27L47.79 119.73L49.62 128.94L51.44 119.74L52.47 121.28L51.91 118.47L57.33 122.09L53.71 116.68L56.52 117.24L54.97 116.21L64.18 114.38L54.98 112.55L56.52 111.52L53.71 112.08L57.33 106.66L51.92 110.28L52.48 107.48L51.45 109.02L49.62 99.81L47.79 109.01Z" fill="#83D5D5" fill-opacity="1.000000" fill-rule="nonzero"/>
	</g>
	<g style="mix-blend-mode:normal">
		<path id="Path 35778" d="M65.94 0L64.68 6.29L63.98 5.23L64.36 7.15L60.66 4.68L63.13 8.38L61.22 8L62.27 8.7L55.98 9.95L62.27 11.21L61.22 11.91L63.14 11.53L60.66 15.23L64.36 12.76L63.98 14.67L64.68 13.62L65.94 19.91L67.19 13.62L67.89 14.67L67.51 12.75L71.21 15.23L68.74 11.53L70.65 11.91L69.6 11.21L75.9 9.95L69.6 8.7L70.66 8L68.74 8.38L71.21 4.68L67.51 7.15L67.89 5.24L67.19 6.29L65.94 0Z" fill="#83D5D5" fill-opacity="1.000000" fill-rule="nonzero"/>
	</g>
	<g style="mix-blend-mode:normal">
		<path id="Path 35779" d="M121.72 71.75L121.24 71.03L121.5 72.34L118.97 70.65L120.66 73.18L119.35 72.92L120.07 73.4L115.76 74.26L120.06 75.11L119.34 75.59L120.66 75.33L118.97 77.87L121.5 76.17L121.24 77.49L121.72 76.76L122.57 81.07L123.43 76.77L123.91 77.49L123.65 76.17L126.18 77.87L124.49 75.33L125.8 75.6L125.08 75.11L129.39 74.26L125.08 73.4L125.8 72.92L124.49 73.18L126.18 70.65L123.65 72.34L123.91 71.03L123.43 71.75L122.57 67.44L121.72 71.75Z" fill="#83D5D5" fill-opacity="1.000000" fill-rule="nonzero"/>
	</g>
</svg>
