<svg width="165.000000" height="99.000000" viewBox="0 0 165 99" fill="none" xmlns="http://www.w3.org/2000/svg" xmlns:xlink="http://www.w3.org/1999/xlink">
	<desc>
			Created with Pixso.
	</desc>
	<defs/>
	<mask id="mask50_487" mask-type="alpha" maskUnits="userSpaceOnUse" x="0.000000" y="0.000000" width="165.000000" height="99.000000">
		<rect id="Rectangle 3532" width="165.000000" height="99.000000" fill="#FFFFFF" fill-opacity="1.000000"/>
	</mask>
	<g mask="url(#mask50_487)">
		<mask id="mask50_462" mask-type="alpha" maskUnits="userSpaceOnUse" x="-8.000000" y="-26.000122" width="178.880859" height="130.872925">
			<g style="mix-blend-mode:normal">
				<rect id="Rectangle 3491" x="-8.000000" y="26.274902" width="160.565384" height="83.126801" transform="rotate(-19 -8.000000 26.274902)" fill="#C4C4C4" fill-opacity="1.000000"/>
			</g>
		</mask>
		<g mask="url(#mask50_462)">
			<g style="mix-blend-mode:normal">
				<path id="Path 24793" d="M99.68 74.2L96.23 62.5L89.88 44.05C89.88 44.05 93.84 39.64 95.64 35.4C97.44 31.16 97.21 28.32 97.21 28.32L110.76 26.57L114.07 33.87L113.25 34.95L108.49 36.59C108.49 36.59 105.15 35.83 102.39 37.9C99.62 39.96 98.19 43.25 98.75 46.91C99.3 50.57 100.86 52.76 102.62 54.2C104.38 55.64 107.94 56.77 110.87 55.77C112.84 55.09 114.21 53.61 114.21 53.61L119.31 51.71L119.44 67.13L99.68 74.2Z" fill="#FCD100" fill-opacity="1.000000" fill-rule="nonzero"/>
			</g>
		</g>
		<g mask="url(#mask50_462)">
			<g style="mix-blend-mode:normal">
				<path id="Path 24794" d="M158.12 29.53C158.66 31.12 158.94 32.79 158.93 34.47C158.92 36.15 158.61 37.82 158.02 39.39C157.42 40.95 156.57 42.42 155.41 43.62C153.52 45.56 147.02 46.36 141.42 41.79C141.32 41.68 141.21 41.56 141.12 41.44C141.08 41.4 141.04 41.35 141 41.31C140.87 41.15 140.74 40.98 140.61 40.81C140.45 40.6 140.3 40.39 140.15 40.17C140.12 40.13 140.09 40.09 140.06 40.04C140.03 40 140.01 39.95 139.98 39.91C139.95 39.87 139.92 39.83 139.89 39.78C139.72 39.51 139.55 39.23 139.39 38.94C139.37 38.9 139.34 38.85 139.32 38.81C139.29 38.76 139.27 38.71 139.24 38.67C139.22 38.62 139.19 38.57 139.16 38.52C139.14 38.47 139.11 38.42 139.09 38.37C139.01 38.22 138.94 38.07 138.87 37.92C138.86 37.88 138.84 37.85 138.82 37.81C138.79 37.75 138.76 37.68 138.74 37.62L138.67 37.47C138.65 37.42 138.63 37.37 138.61 37.32C138.58 37.27 138.56 37.21 138.54 37.16C138.52 37.11 138.5 37.06 138.48 37.01C138.46 36.96 138.44 36.91 138.42 36.86C138.39 36.76 138.35 36.64 138.31 36.54L138.25 36.37L138.18 36.18C138.15 36.09 138.12 35.99 138.09 35.89C138.08 35.84 138.06 35.77 138.04 35.72C138.02 35.66 138.01 35.61 137.99 35.56C137.96 35.45 137.93 35.34 137.9 35.23C137.89 35.18 137.87 35.13 137.86 35.09C137.83 34.98 137.81 34.87 137.78 34.75C137.77 34.7 137.75 34.65 137.74 34.59C137.73 34.54 137.72 34.48 137.71 34.43C137.7 34.38 137.69 34.32 137.67 34.27C137.64 34.11 137.61 33.94 137.58 33.78C137.57 33.73 137.57 33.68 137.56 33.64C137.5 33.26 137.46 32.89 137.42 32.51C137.42 32.45 137.41 32.4 137.41 32.35C137.41 32.3 137.41 32.25 137.4 32.19C137.4 32.14 137.39 32.09 137.39 32.04C137.39 31.98 137.39 31.93 137.39 31.88C137.38 31.83 137.38 31.77 137.38 31.72L137.38 31.57C137.37 31.51 137.37 31.46 137.37 31.41C137.37 31.14 137.37 30.88 137.38 30.62C137.39 30.41 137.4 30.2 137.42 29.99C137.42 29.92 137.43 29.84 137.44 29.77C137.44 29.71 137.45 29.66 137.45 29.6C137.46 29.51 137.47 29.41 137.48 29.32C137.52 29.04 137.56 28.77 137.61 28.49C137.77 27.62 138.01 26.76 138.32 25.94C138.96 24.28 139.9 22.75 141.14 21.48C141.58 21.04 142.05 20.63 142.54 20.26C144.09 19.88 145.72 19.83 147.31 20.09C148.95 20.36 150.54 20.95 151.97 21.82C153.39 22.69 154.67 23.81 155.71 25.13C156.75 26.44 157.56 27.94 158.12 29.53Z" fill="#FCD100" fill-opacity="1.000000" fill-rule="nonzero"/>
			</g>
		</g>
		<g mask="url(#mask50_462)">
			<g style="mix-blend-mode:normal">
				<path id="Path 24795" d="M85.82 47.22L93.65 75.87L31.77 98.98L23.35 68.01C23.35 68.01 28.6 68.49 34.42 65.3C34.42 65.3 38.4 65.14 44.16 59.1C49.92 53.06 49.07 44.47 49.07 44.47C49.07 44.47 53.64 49.7 60.08 51.74C66.52 53.78 74.19 53 79.41 49.62C79.41 49.62 82.77 49.53 85.82 47.22Z" fill="#FCD100" fill-opacity="1.000000" fill-rule="nonzero"/>
			</g>
		</g>
		<g mask="url(#mask50_462)">
			<g style="mix-blend-mode:normal">
				<path id="Path 24796" d="M13.22 28.45C23.33 24.97 34.62 31.13 38.44 42.22C42.26 53.3 37.15 65.11 27.04 68.59C16.93 72.07 5.64 65.91 1.83 54.82C-1.99 43.74 3.11 31.94 13.22 28.45Z" fill="#FCD100" fill-opacity="1.000000" fill-rule="nonzero"/>
			</g>
		</g>
		<g mask="url(#mask50_462)">
			<g style="mix-blend-mode:normal">
				<path id="Path 24797" d="M55.52 4.4C67.21 0.37 80.28 7.5 84.69 20.32C89.11 33.15 83.2 46.81 71.51 50.83C59.81 54.86 46.75 47.73 42.33 34.91C37.91 22.09 43.82 8.43 55.52 4.4Z" fill="#FCD100" fill-opacity="1.000000" fill-rule="nonzero"/>
			</g>
		</g>
		<g mask="url(#mask50_462)">
			<g style="mix-blend-mode:normal">
				<path id="Path 24798" d="M22.32 42.94C24.71 42.12 27.3 43.39 28.12 45.77C28.94 48.15 27.67 50.75 25.29 51.57C22.91 52.39 20.32 51.12 19.5 48.74C18.68 46.36 19.94 43.76 22.32 42.94Z" fill="#000000" fill-opacity="1.000000" fill-rule="nonzero"/>
			</g>
		</g>
		<g mask="url(#mask50_462)">
			<g style="mix-blend-mode:normal">
				<path id="Path 24799" d="M18.31 31.29C20.29 30.61 22.45 31.66 23.13 33.64C23.81 35.62 22.76 37.78 20.78 38.46C18.8 39.14 16.64 38.09 15.96 36.11C15.28 34.13 16.33 31.97 18.31 31.29Z" fill="#000000" fill-opacity="1.000000" fill-rule="nonzero"/>
			</g>
		</g>
		<g mask="url(#mask50_462)">
			<g style="mix-blend-mode:normal">
				<path id="Path 24800" d="M9.28 41.35C11.16 40.42 13.43 41.18 14.36 43.06C15.29 44.93 14.53 47.21 12.66 48.14C10.78 49.07 8.51 48.3 7.58 46.43C6.64 44.56 7.41 42.28 9.28 41.35Z" fill="#000000" fill-opacity="1.000000" fill-rule="nonzero"/>
			</g>
		</g>
		<g mask="url(#mask50_462)">
			<g style="mix-blend-mode:normal">
				<path id="Path 24801" d="M28.89 35.92C29.69 33.98 31.9 33.06 33.84 33.86C35.77 34.65 36.7 36.87 35.9 38.8C35.1 40.74 32.89 41.66 30.95 40.86C29.02 40.07 28.09 37.85 28.89 35.92Z" fill="#000000" fill-opacity="1.000000" fill-rule="nonzero"/>
			</g>
		</g>
		<g mask="url(#mask50_462)">
			<g style="mix-blend-mode:normal">
				<path id="Path 24802" d="M26.84 56.05C28.82 55.37 30.97 56.42 31.66 58.4C32.34 60.38 31.28 62.54 29.31 63.22C27.33 63.9 25.17 62.85 24.49 60.87C23.81 58.89 24.86 56.73 26.84 56.05Z" fill="#000000" fill-opacity="1.000000" fill-rule="nonzero"/>
			</g>
		</g>
		<g mask="url(#mask50_462)">
			<g style="mix-blend-mode:normal">
				<path id="Path 24803" d="M11.43 57.41C11.29 55.32 12.86 53.51 14.95 53.36C17.04 53.22 18.85 54.79 18.99 56.88C19.14 58.97 17.56 60.78 15.48 60.92C13.39 61.07 11.58 59.49 11.43 57.41Z" fill="#000000" fill-opacity="1.000000" fill-rule="nonzero"/>
			</g>
		</g>
		<g mask="url(#mask50_462)">
			<g style="mix-blend-mode:normal">
				<path id="Path 24804" d="M34.54 46.62C36.27 45.45 38.63 45.9 39.8 47.64C40.97 49.37 40.51 51.73 38.77 52.9C37.04 54.07 34.68 53.61 33.51 51.88C32.34 50.14 32.8 47.79 34.54 46.62Z" fill="#000000" fill-opacity="1.000000" fill-rule="nonzero"/>
			</g>
		</g>
		<g mask="url(#mask50_462)">
			<g style="mix-blend-mode:normal">
				<path id="Path 24805" d="M69.2 33.07C72.04 32.09 73.55 29 72.57 26.17C71.59 23.33 68.5 21.82 65.67 22.8C62.83 23.78 61.32 26.87 62.3 29.7C63.28 32.54 66.37 34.05 69.2 33.07Z" fill="#000000" fill-opacity="1.000000" fill-rule="nonzero"/>
			</g>
		</g>
		<g mask="url(#mask50_462)">
			<g style="mix-blend-mode:normal">
				<path id="Path 24806" d="M63.83 17.46C66.19 16.65 67.44 14.08 66.63 11.72C65.81 9.37 63.25 8.11 60.89 8.93C58.53 9.74 57.28 12.3 58.09 14.66C58.9 17.02 61.47 18.27 63.83 17.46Z" fill="#000000" fill-opacity="1.000000" fill-rule="nonzero"/>
			</g>
		</g>
		<g mask="url(#mask50_462)">
			<g style="mix-blend-mode:normal">
				<path id="Path 24807" d="M51.27 29.39C53.71 29.87 56.08 28.27 56.56 25.82C57.03 23.37 55.44 21 52.99 20.53C50.54 20.05 48.17 21.65 47.7 24.1C47.22 26.55 48.82 28.92 51.27 29.39Z" fill="#000000" fill-opacity="1.000000" fill-rule="nonzero"/>
			</g>
		</g>
		<g mask="url(#mask50_462)">
			<g style="mix-blend-mode:normal">
				<path id="Path 24808" d="M81.07 19.13C82.71 17.25 82.51 14.4 80.63 12.76C78.75 11.13 75.9 11.32 74.26 13.21C72.63 15.09 72.82 17.94 74.7 19.57C76.58 21.21 79.44 21.01 81.07 19.13Z" fill="#000000" fill-opacity="1.000000" fill-rule="nonzero"/>
			</g>
		</g>
		<g mask="url(#mask50_462)">
			<g style="mix-blend-mode:normal">
				<path id="Path 24809" d="M70.62 38.59C72.88 37.55 75.56 38.54 76.6 40.81C77.64 43.07 76.65 45.75 74.38 46.79C72.12 47.83 69.44 46.84 68.4 44.57C67.36 42.31 68.35 39.63 70.62 38.59Z" fill="#000000" fill-opacity="1.000000" fill-rule="nonzero"/>
			</g>
		</g>
		<g mask="url(#mask50_462)">
			<g style="mix-blend-mode:normal">
				<path id="Path 24810" d="M60.61 42.66C62.24 40.78 62.04 37.93 60.16 36.3C58.28 34.66 55.43 34.86 53.8 36.74C52.16 38.62 52.36 41.47 54.24 43.11C56.12 44.75 58.97 44.55 60.61 42.66Z" fill="#000000" fill-opacity="1.000000" fill-rule="nonzero"/>
			</g>
		</g>
		<g mask="url(#mask50_462)">
			<g style="mix-blend-mode:normal">
				<path id="Path 24811" d="M81.88 35.34C84.33 35.82 86.7 34.22 87.17 31.77C87.65 29.32 86.05 26.95 83.6 26.48C81.15 26 78.78 27.6 78.31 30.05C77.84 32.5 79.43 34.87 81.88 35.34Z" fill="#000000" fill-opacity="1.000000" fill-rule="nonzero"/>
			</g>
		</g>
		<g mask="url(#mask50_462)">
			<g style="mix-blend-mode:normal">
				<path id="Path 24812" d="M159.43 22.34C158.21 20.79 156.72 19.45 155.03 18.43C154.18 17.93 153.28 17.49 152.35 17.16C151.42 16.82 150.45 16.58 149.46 16.45C148.47 16.32 147.47 16.3 146.48 16.39C145.52 16.48 144.56 16.67 143.64 16.98L129.12 21.97C126.18 22.98 123.73 24.97 122.04 27.73L119.6 28.57C118.23 29.04 117 29.78 115.94 30.74L112.29 20.37L98.59 24.93C98.36 25.01 98.14 25.08 97.91 25.16C97.82 22.72 97.36 20.29 96.54 17.92C94.34 11.51 89.77 6.35 83.68 3.38C77.6 0.41 70.72 -0.01 64.31 2.2C63.45 2.5 62.61 2.84 61.79 3.22C60.91 3.42 60.04 3.67 59.18 3.97C52.78 6.17 47.61 10.74 44.65 16.82C42.66 20.9 41.81 25.33 42.13 29.73C40.73 28.51 39.16 27.47 37.46 26.64C32.34 24.14 26.57 23.79 21.19 25.64C20.47 25.89 19.76 26.18 19.07 26.5C18.34 26.67 17.6 26.88 16.88 27.13C11.5 28.98 7.17 32.81 4.67 37.92C2.18 43.04 1.83 48.81 3.68 54.19C5.53 59.56 9.37 63.9 14.48 66.39C17.98 68.1 21.8 68.8 25.59 68.48L34.28 94.18C34.43 94.6 34.89 94.83 35.31 94.68L40.07 93.03L44.01 95.97C44.17 96.09 44.39 96.13 44.6 96.06L120.65 69.89C120.84 69.82 121.02 69.66 121.09 69.46L122.88 64.31L126.6 63C126.9 62.9 127.06 62.57 126.96 62.27C125.94 59.34 124.93 56.4 123.9 53.47C125.28 53.56 126.66 53.37 127.99 52.92L130.43 52.08C133.45 53.21 136.6 53.27 139.55 52.26L153.97 47.29C154.89 46.96 155.85 46.49 156.66 45.97C157.5 45.43 158.28 44.79 158.98 44.08C159.67 43.37 160.29 42.58 160.82 41.74C161.35 40.91 161.78 40.01 162.14 39.09C162.85 37.24 163.2 35.27 163.21 33.3C163.22 31.33 162.88 29.36 162.24 27.51C161.6 25.64 160.65 23.89 159.43 22.34ZM95.47 18.28C96.29 20.68 96.72 23.12 96.78 25.53C96.79 25.9 96.79 26.26 96.79 26.62C96.67 32.75 94.2 38.61 89.99 42.99C89.74 43.25 89.48 43.51 89.21 43.76C87.35 45.52 85.2 47 82.79 48.13C83.5 47.58 84.19 47 84.84 46.39C86.35 45.47 87.75 44.4 89.01 43.18C89.27 42.92 89.53 42.66 89.78 42.39C91.4 40.68 92.76 38.71 93.82 36.53C95.32 33.45 96.13 30.15 96.22 26.82C96.23 26.45 96.23 26.09 96.22 25.72C96.17 23.28 95.74 20.84 94.92 18.47C92.87 12.5 88.61 7.68 82.93 4.91C78.79 2.89 74.26 2.14 69.79 2.67C68.9 2.59 68 2.55 67.1 2.57C79.03 -0.2 91.4 6.46 95.47 18.28ZM87.25 46.85L94.89 69.02L37.03 88.95L29.71 67.71C30.06 67.61 30.4 67.5 30.74 67.38C31.46 67.13 32.17 66.85 32.86 66.53C33.59 66.36 34.32 66.15 35.05 65.9C40.43 64.05 44.76 60.21 47.25 55.1C48.69 52.16 49.42 48.98 49.42 45.8C51.4 47.79 53.72 49.46 56.32 50.73C62.4 53.69 69.28 54.12 75.68 51.91C76.55 51.61 77.39 51.27 78.21 50.89C79.08 50.69 79.96 50.44 80.82 50.14C83.14 49.34 85.3 48.23 87.25 46.85ZM43.91 33.72C43.83 33.37 43.75 33.02 43.68 32.67C43.56 32.09 43.47 31.51 43.4 30.92C42.11 20.62 47.63 10.43 57.22 5.98C57.97 5.63 58.75 5.31 59.55 5.04C60.42 4.74 61.29 4.49 62.17 4.3C63.02 4.11 63.87 3.97 64.71 3.87C65.68 3.76 66.64 3.71 67.59 3.72C77.58 3.79 86.91 10.09 90.34 20.05C91.16 22.44 91.58 24.87 91.65 27.27C91.66 27.66 91.66 28.04 91.65 28.43C91.57 32.31 90.55 36.08 88.74 39.43C88.54 39.8 88.33 40.17 88.12 40.53C86.64 42.95 84.74 45.13 82.47 46.93C81.72 47.52 80.94 48.08 80.11 48.58C79.38 49.03 78.62 49.44 77.84 49.81C77.03 50.2 76.19 50.54 75.32 50.84C74.52 51.12 73.71 51.35 72.9 51.54C64.13 53.57 55.12 50.52 49.35 44.05C49.11 43.78 48.88 43.51 48.65 43.23C48.51 43.06 48.37 42.88 48.23 42.7C48.13 42.58 48.04 42.45 47.94 42.32C47.82 42.16 47.7 41.99 47.58 41.82C46.32 40.02 45.29 38.01 44.54 35.82C44.29 35.12 44.09 34.42 43.91 33.72ZM47.92 44.14C48.09 44.34 48.26 44.55 48.44 44.75C48.84 52.88 44.29 60.69 36.7 64.21C37.3 63.75 37.88 63.27 38.43 62.75C41.66 60.79 44.27 57.95 45.97 54.47C47.56 51.21 48.21 47.66 47.92 44.14ZM42.28 31.17C42.31 31.43 42.35 31.69 42.4 31.95C40.81 30.32 38.94 28.95 36.83 27.92C33.35 26.23 29.54 25.6 25.79 26.05C25.04 25.98 24.29 25.94 23.53 25.96C30.39 24.36 37.43 26.48 42.28 31.17ZM25.27 67.54C16.3 68.19 7.64 62.77 4.58 53.88C1.16 43.95 5.9 33.15 15.23 28.81C15.86 28.52 16.51 28.25 17.19 28.02C17.92 27.77 18.65 27.56 19.39 27.4C20.1 27.24 20.81 27.12 21.52 27.04C22.33 26.95 23.14 26.91 23.94 26.91C32.33 26.97 40.16 32.26 43.04 40.63C43.39 41.65 43.66 42.68 43.84 43.71C43.91 44.09 43.96 44.46 44.01 44.83C44.85 51.88 41.92 58.85 36.44 63.2C35.81 63.7 35.15 64.16 34.46 64.59C33.84 64.96 33.21 65.31 32.55 65.62C31.87 65.94 31.16 66.23 30.43 66.48C29.76 66.72 29.08 66.91 28.4 67.07C27.81 67.2 27.22 67.31 26.63 67.4C26.17 67.46 25.72 67.51 25.27 67.54ZM35.55 92.87L26.95 68.32C27.5 68.23 28.05 68.13 28.59 68L36.12 89.87C36.23 90.17 36.55 90.33 36.86 90.23L95.81 69.93C96.11 69.82 96.27 69.49 96.17 69.19L88.28 46.27C88.26 46.22 88.24 46.18 88.21 46.14C88.69 45.76 89.16 45.37 89.62 44.96C90.34 47.08 91.05 49.2 91.77 51.33C94.05 58.02 96.34 64.71 98.64 71.4L35.55 92.87ZM44.48 94.61L41.21 92.63L95.47 73.73L95.25 77.12L44.48 94.61ZM119.87 68.64L96.23 76.78L96.45 73.39L99.56 72.31L121.31 64.82L119.87 68.64ZM125.68 62.09L99.73 71.03C97.38 64.2 95.02 57.38 92.64 50.56C91.9 48.44 91.15 46.32 90.41 44.2C92.41 42.21 94.08 39.89 95.35 37.28C97.07 33.77 97.93 30 97.93 26.21C98.13 26.14 98.33 26.07 98.52 26L111.85 21.26L115.27 31.4C114.4 32.34 113.67 33.45 113.13 34.69L108.74 36.28C108.21 36.17 107.67 36.1 107.12 36.09C105.07 36.04 103.02 36.77 101.45 38.11C100.68 38.78 100.01 39.58 99.5 40.47C98.99 41.36 98.63 42.33 98.4 43.33C98.29 43.82 98.22 44.33 98.18 44.84C98.15 45.35 98.15 45.86 98.18 46.37C98.21 46.87 98.29 47.38 98.38 47.88C98.48 48.38 98.62 48.87 98.79 49.35C98.96 49.83 99.15 50.3 99.38 50.75C99.62 51.2 99.87 51.64 100.16 52.06C100.45 52.48 100.77 52.88 101.11 53.25C101.46 53.62 101.83 53.97 102.22 54.3C103.01 54.93 103.89 55.47 104.84 55.84C105.31 56.03 105.79 56.18 106.29 56.29C106.79 56.39 107.3 56.46 107.8 56.48C108.31 56.51 108.82 56.48 109.33 56.41C109.83 56.34 110.33 56.22 110.81 56.06C111.77 55.74 112.67 55.24 113.46 54.6C113.84 54.29 114.2 53.94 114.53 53.57L119.02 52.02C120.18 52.64 121.46 53.11 122.68 53.33C123.68 56.25 124.68 59.17 125.68 62.09ZM110.45 54.54C106.4 55.94 101.83 53.38 100.27 48.84C98.7 44.3 100.73 39.47 104.78 38.08L112.9 35.28C112.59 36.1 112.37 36.95 112.24 37.82C112.2 38.02 112.18 38.22 112.16 38.43C112.11 38.83 112.09 39.23 112.08 39.64C112.05 41.28 112.31 42.92 112.86 44.5C113.4 46.09 114.2 47.54 115.24 48.82C115.51 49.15 115.79 49.47 116.09 49.77C116.21 49.88 116.32 50 116.44 50.11C117.1 50.73 117.81 51.28 118.57 51.74L110.45 54.54ZM113.55 53.9C113.43 54.02 113.3 54.13 113.17 54.23C111.68 55.43 109.74 56.02 107.84 55.91C107.37 55.88 106.89 55.81 106.43 55.71C105.97 55.6 105.52 55.45 105.08 55.27C104.2 54.9 103.38 54.39 102.65 53.78C102.29 53.47 101.95 53.14 101.63 52.78C101.32 52.43 101.03 52.05 100.76 51.66C100.49 51.26 100.26 50.85 100.05 50.42C99.84 50 99.66 49.56 99.5 49.11C99.36 48.65 99.23 48.2 99.13 47.73C99.04 47.27 98.97 46.79 98.95 46.32C98.92 45.85 98.92 45.37 98.95 44.9C98.99 44.43 99.06 43.96 99.16 43.5C99.36 42.57 99.69 41.67 100.16 40.86C100.4 40.45 100.66 40.05 100.96 39.69C101.25 39.32 101.58 38.98 101.93 38.67C102.28 38.36 102.67 38.09 103.07 37.84C103.48 37.6 103.9 37.39 104.34 37.23C105.23 36.89 106.17 36.73 107.12 36.73C107.22 36.73 107.32 36.74 107.43 36.74L104.65 37.7C100.38 39.16 98.24 44.23 99.88 48.98C101.52 53.73 106.32 56.4 110.59 54.93L113.55 53.9ZM127.72 52.14C126.39 52.6 125 52.76 123.61 52.63C123.2 52.59 122.79 52.52 122.38 52.43C121.4 52.22 120.44 51.85 119.51 51.35C118.12 50.59 116.9 49.57 115.87 48.3C114.9 47.1 114.14 45.74 113.62 44.24C113.11 42.74 112.86 41.2 112.89 39.65C112.93 38.02 113.26 36.46 113.89 35.02C114.32 34 114.89 33.08 115.57 32.29C115.78 32.04 116 31.8 116.24 31.57C117.27 30.57 118.5 29.8 119.87 29.33L121.45 28.79C119.47 32.69 119.21 37.39 120.72 41.79C122.24 46.2 125.35 49.74 129.3 51.6L127.72 52.14ZM139.24 51.36C136.49 52.3 133.54 52.24 130.7 51.16C130.55 51.1 130.41 51.05 130.28 51C126.28 49.33 123.13 45.86 121.62 41.49C120.12 37.12 120.47 32.44 122.59 28.67C122.66 28.54 122.74 28.42 122.82 28.28C124.39 25.68 126.68 23.81 129.43 22.87L139.14 19.52C138.91 19.72 138.69 19.93 138.47 20.14C137.76 20.84 137.12 21.63 136.58 22.47L136.38 22.78C136.31 22.89 136.25 23 136.19 23.11L136 23.43L135.91 23.6L135.82 23.76C135.71 23.99 135.6 24.21 135.49 24.44L135.2 25.13C134.84 26.07 134.56 27.03 134.36 28.01C134.18 28.99 134.08 29.99 134.07 30.99L134.08 31.74C134.08 31.87 134.09 31.99 134.1 32.11L134.12 32.49L134.15 32.86L134.2 33.23L134.25 33.6C134.27 33.73 134.27 33.85 134.3 33.98L134.44 34.71C134.45 34.77 134.46 34.83 134.48 34.9L134.52 35.08L134.61 35.44L134.7 35.81C134.72 35.87 134.73 35.93 134.75 35.99L134.81 36.17L135.03 36.88L135.3 37.58L135.36 37.76C135.38 37.82 135.41 37.87 135.43 37.93L135.59 38.27L135.74 38.61L135.82 38.79C135.84 38.84 135.87 38.9 135.9 38.95L136.24 39.62C136.3 39.73 136.37 39.84 136.43 39.95L136.62 40.27L136.81 40.59L137.02 40.9L137.23 41.21C137.3 41.31 137.37 41.42 137.45 41.52L137.9 42.11C138.52 42.89 139.22 43.62 139.97 44.28C140.72 44.93 141.54 45.52 142.4 46.03L143.05 46.4C143.28 46.51 143.5 46.62 143.73 46.73L143.9 46.81L144.07 46.88L144.42 47.02C144.54 47.07 144.65 47.12 144.77 47.16L145.13 47.28C146.07 47.61 147.06 47.84 148.05 47.95C148.35 47.99 148.65 48.01 148.96 48.03L139.24 51.36ZM162.51 33.29C162.5 35.18 162.14 37.07 161.44 38.82C160.75 40.57 159.71 42.17 158.38 43.49C157.07 44.78 155.48 45.78 153.75 46.37C153.52 46.45 153.2 46.54 152.97 46.6C152.31 46.78 151.63 46.91 150.95 46.97C150.72 46.99 150.48 47 150.25 47.01C150.02 47.02 149.79 47.03 149.56 47.02C149.09 47.01 148.63 46.97 148.17 46.91C147.25 46.79 146.35 46.57 145.47 46.24L145.15 46.13L144.83 45.99L144.51 45.86L144.35 45.79L144.19 45.71L143.57 45.4L142.97 45.05C142.17 44.57 141.42 44.01 140.72 43.4C140.03 42.78 139.4 42.09 138.81 41.37L138.39 40.81C138.32 40.72 138.26 40.62 138.2 40.53L138 40.24L137.81 39.95L137.63 39.65L137.45 39.34C137.4 39.24 137.33 39.15 137.28 39.04L136.96 38.42C136.94 38.37 136.91 38.32 136.88 38.26L136.81 38.1L136.67 37.78L136.53 37.46C136.51 37.41 136.49 37.35 136.47 37.3L136.41 37.13L136.16 36.48L135.95 35.81L135.9 35.65C135.88 35.59 135.86 35.54 135.85 35.48L135.77 35.14L135.68 34.8L135.63 34.63C135.62 34.57 135.61 34.52 135.6 34.46L135.47 33.77C135.44 33.66 135.43 33.54 135.42 33.43L135.37 33.08L135.32 32.73L135.3 32.39L135.27 32.04C135.27 31.92 135.25 31.81 135.25 31.69L135.24 30.99C135.25 30.06 135.33 29.13 135.49 28.22C135.67 27.3 135.92 26.41 136.25 25.54L136.51 24.89L136.81 24.26L136.88 24.1L136.96 23.95L137.13 23.65L137.3 23.34L137.49 23.05C137.97 22.26 138.55 21.53 139.2 20.87C139.53 20.54 139.87 20.22 140.23 19.93C140.4 19.78 140.59 19.64 140.78 19.5C140.97 19.37 141.16 19.23 141.35 19.11C141.93 18.74 142.53 18.42 143.16 18.16C143.39 18.07 143.62 17.98 143.85 17.9C145.58 17.3 147.53 17.06 149.35 17.28C151.21 17.49 153.02 18.12 154.64 19.07C156.27 20.02 157.71 21.29 158.89 22.77C160.06 24.24 160.98 25.93 161.6 27.72C162.21 29.51 162.53 31.4 162.51 33.29Z" fill="#000000" fill-opacity="1.000000" fill-rule="nonzero"/>
			</g>
		</g>
		<g mask="url(#mask50_462)">
			<g style="mix-blend-mode:normal">
				<path id="Path 24813" d="M158.56 23.51C157.51 22.19 156.24 21.04 154.78 20.16C153.33 19.29 151.7 18.68 150 18.46C148.31 18.23 146.56 18.39 144.93 18.94C144.53 19.07 144.12 19.23 143.74 19.42L143.45 19.56C143.35 19.6 143.26 19.66 143.16 19.71C143.07 19.76 142.97 19.81 142.88 19.86L142.61 20.03C141.87 20.48 141.19 21.02 140.58 21.62C139.36 22.83 138.41 24.31 137.77 25.91C137.14 27.5 136.82 29.22 136.8 30.93C136.8 31.26 136.81 31.59 136.83 31.91C136.84 32.07 136.85 32.23 136.86 32.39C136.87 32.47 136.88 32.55 136.89 32.63C136.89 32.71 136.9 32.79 136.91 32.87C136.92 32.95 136.93 33.03 136.94 33.11C137.01 33.58 137.1 34.05 137.21 34.52C137.22 34.56 137.23 34.6 137.24 34.64C137.27 34.78 137.31 34.92 137.34 35.06C137.35 35.1 137.37 35.14 137.38 35.18C137.42 35.32 137.48 35.53 137.53 35.67C137.56 35.77 137.59 35.88 137.63 35.98C137.66 36.08 137.7 36.18 137.73 36.28C137.79 36.42 137.84 36.55 137.89 36.69C137.91 36.73 137.95 36.83 137.97 36.88C138.03 37.01 138.09 37.15 138.15 37.28C138.17 37.32 138.18 37.36 138.2 37.39C138.24 37.48 138.28 37.58 138.33 37.67C138.35 37.71 138.37 37.76 138.4 37.8C138.42 37.85 138.44 37.89 138.47 37.94C138.48 37.98 138.5 38.01 138.52 38.04C138.54 38.08 138.56 38.12 138.58 38.16C138.6 38.2 138.65 38.3 138.68 38.34C138.7 38.39 138.73 38.43 138.75 38.48C138.84 38.63 138.93 38.79 139.02 38.94C139.24 39.29 139.47 39.63 139.71 39.97C139.77 40.06 139.84 40.14 139.91 40.23C139.95 40.29 140.04 40.41 140.08 40.46C141.15 41.81 142.46 42.96 143.94 43.83C145.42 44.69 147.08 45.27 148.79 45.47C149.65 45.57 150.51 45.58 151.37 45.48L151.69 45.44C151.8 45.43 151.9 45.41 152.01 45.39C152.11 45.37 152.22 45.36 152.32 45.34L152.64 45.27C153.06 45.18 153.47 45.05 153.87 44.91C155.49 44.34 156.97 43.38 158.17 42.16C159.36 40.94 160.28 39.46 160.88 37.88C161.49 36.3 161.79 34.6 161.8 32.91C161.81 31.23 161.52 29.54 160.97 27.94C160.42 26.35 159.61 24.84 158.56 23.51ZM150.57 44.68C150.01 44.7 149.45 44.67 148.9 44.59C147.32 44.38 145.8 43.82 144.44 42.99C143.75 42.58 143.11 42.11 142.51 41.58C142.14 41.25 141.79 40.89 141.45 40.52C141.36 40.42 141.27 40.31 141.18 40.21C141.15 40.17 141.11 40.13 141.08 40.09C140.96 39.94 140.84 39.79 140.73 39.64C140.58 39.46 140.45 39.26 140.31 39.07C140.29 39.03 140.26 38.99 140.24 38.95C140.21 38.91 140.18 38.87 140.16 38.83C140.13 38.8 140.11 38.76 140.08 38.72C139.92 38.47 139.77 38.22 139.63 37.96C139.61 37.92 139.59 37.88 139.57 37.84C139.54 37.8 139.52 37.76 139.5 37.71C139.47 37.67 139.45 37.63 139.43 37.58L139.36 37.45C139.29 37.32 139.23 37.18 139.16 37.05C139.15 37.01 139.13 36.98 139.12 36.94C139.09 36.88 139.06 36.83 139.04 36.77C139.02 36.72 139 36.68 138.98 36.64C138.96 36.59 138.94 36.54 138.92 36.5C138.91 36.45 138.89 36.4 138.87 36.36C138.85 36.31 138.83 36.27 138.81 36.22C138.8 36.17 138.78 36.13 138.76 36.08C138.73 35.99 138.69 35.89 138.66 35.8L138.6 35.64L138.55 35.47C138.52 35.39 138.49 35.3 138.46 35.21C138.45 35.16 138.43 35.1 138.41 35.05C138.4 35 138.38 34.95 138.37 34.91C138.34 34.81 138.31 34.71 138.29 34.61C138.28 34.57 138.27 34.52 138.25 34.48C138.23 34.38 138.21 34.28 138.18 34.18C138.17 34.14 138.16 34.09 138.15 34.04C138.14 33.99 138.13 33.94 138.12 33.89C138.11 33.84 138.1 33.8 138.09 33.75C138.06 33.6 138.03 33.45 138.01 33.31C138 33.26 137.99 33.22 137.99 33.18C137.93 32.84 137.89 32.5 137.87 32.16C137.86 32.12 137.86 32.07 137.85 32.02C137.85 31.98 137.85 31.93 137.84 31.88C137.84 31.84 137.84 31.79 137.84 31.74C137.83 31.69 137.83 31.65 137.83 31.6C137.83 31.55 137.83 31.5 137.82 31.46C137.82 31.41 137.82 31.36 137.82 31.32C137.82 31.27 137.82 31.22 137.82 31.17C137.82 30.94 137.82 30.7 137.83 30.46C137.84 30.28 137.85 30.09 137.86 29.9C137.86 29.84 137.87 29.76 137.87 29.7L137.89 29.55C137.89 29.46 137.91 29.38 137.92 29.3C137.95 29.05 137.99 28.8 138.03 28.55C138.17 27.77 138.39 26.99 138.67 26.25C139.25 24.76 140.1 23.38 141.21 22.24C141.6 21.84 142.02 21.48 142.47 21.14C143.87 20.8 145.33 20.76 146.76 20.99C148.23 21.23 149.66 21.76 150.95 22.54C152.23 23.32 153.38 24.34 154.32 25.52C155.26 26.71 155.98 28.05 156.48 29.48C156.97 30.91 157.22 32.42 157.21 33.93C157.2 35.44 156.93 36.95 156.39 38.35C155.86 39.76 155.06 41.06 154.05 42.16C153.06 43.23 151.88 44.09 150.57 44.68ZM152.69 44.41L152.57 44.44C153.31 43.92 153.98 43.32 154.57 42.65C155.63 41.46 156.45 40.07 156.98 38.58C157.53 37.1 157.79 35.52 157.79 33.94C157.8 32.37 157.52 30.79 157.01 29.31C156.5 27.82 155.74 26.41 154.77 25.17C153.8 23.93 152.62 22.85 151.28 22.01C149.94 21.17 148.44 20.57 146.87 20.29C145.99 20.13 145.09 20.07 144.2 20.11C144.23 20.1 144.27 20.08 144.31 20.06C145.75 19.71 147.27 19.67 148.73 19.95C150.23 20.22 151.67 20.81 152.97 21.63C154.26 22.46 155.4 23.51 156.34 24.74C157.27 25.96 158.01 27.33 158.51 28.79C159.01 30.25 159.28 31.78 159.3 33.32C159.31 34.86 159.06 36.4 158.55 37.85C158.04 39.3 157.26 40.64 156.25 41.78C155.26 42.89 154.05 43.8 152.69 44.41ZM161.2 32.91C161.19 34.53 160.88 36.15 160.28 37.65C159.69 39.15 158.8 40.53 157.66 41.66C157.23 42.08 156.77 42.46 156.28 42.8C156.46 42.62 156.63 42.44 156.79 42.25C157.85 41.02 158.64 39.58 159.15 38.05C159.67 36.53 159.91 34.92 159.89 33.31C159.87 31.71 159.58 30.11 159.06 28.6C158.54 27.08 157.78 25.65 156.81 24.37C155.84 23.09 154.66 21.97 153.31 21.09C151.97 20.21 150.46 19.56 148.87 19.24C148.62 19.19 148.38 19.15 148.13 19.11C148.72 19.08 149.32 19.1 149.92 19.17C151.51 19.35 153.06 19.89 154.45 20.71C155.85 21.53 157.08 22.61 158.09 23.88C159.1 25.15 159.89 26.59 160.42 28.13C160.94 29.67 161.22 31.29 161.2 32.91Z" fill="#000000" fill-opacity="1.000000" fill-rule="nonzero"/>
			</g>
		</g>
	</g>
</svg>
