<svg width="193.164185" height="236.910156" viewBox="0 0 193.164 236.91" fill="none" xmlns="http://www.w3.org/2000/svg" xmlns:xlink="http://www.w3.org/1999/xlink">
	<desc>
			Created with Pixso.
	</desc>
	<defs/>
	<mask id="mask1_38015" mask-type="alpha" maskUnits="userSpaceOnUse" x="24.746094" y="35.726562" width="168.418091" height="201.183594">
		<g style="mix-blend-mode:normal">
			<rect id="Rectangle 3807" x="24.746094" y="63.699219" width="134.541031" height="177.080551" transform="rotate(-12 24.746094 63.699219)" fill="#C4C4C4" fill-opacity="1.000000"/>
		</g>
	</mask>
	<g mask="url(#mask1_38015)">
		<mask id="mask1_38018" mask-type="alpha" maskUnits="userSpaceOnUse" x="24.746094" y="35.726562" width="168.418091" height="201.183594">
			<g style="mix-blend-mode:normal">
				<rect id="Rectangle 3806" x="24.746094" y="63.699219" width="134.541031" height="177.080551" transform="rotate(-12 24.746094 63.699219)" fill="#C4C4C4" fill-opacity="1.000000"/>
			</g>
		</mask>
		<g mask="url(#mask1_38018)">
			<g style="mix-blend-mode:normal">
				<path id="Path 35273" d="M171.37 106.41C168.74 94.06 137.15 90.31 100.81 98.03C64.47 105.75 37.14 122.03 39.77 134.39C41.45 142.31 55.06 146.69 74.19 146.78C78.4 168.1 84.1 201.14 81.24 211.08C80.68 213.03 81.42 215.05 83.21 216.17C89.66 220.21 107.09 227.23 127.57 222.87C148.06 218.52 161.12 205.02 165.37 198.71C166.55 196.96 166.4 194.81 165.1 193.25C158.43 185.32 150.19 152.74 145.37 131.55C162.57 123.72 173.04 114.28 171.37 106.41Z" fill="#231F20" fill-opacity="1.000000" fill-rule="nonzero"/>
			</g>
		</g>
		<g mask="url(#mask1_38018)">
			<g style="mix-blend-mode:normal">
				<path id="Path 35274" d="M110.32 142.77C97.29 145.54 84.88 146.82 74.19 146.78C75.22 152 76.34 157.94 77.41 164.06C77.41 164.06 88.21 168.85 114.67 163.22C141.13 157.6 149.46 148.65 149.46 148.65C147.94 142.62 146.55 136.74 145.37 131.55C135.54 136.02 123.53 139.96 110.32 142.77Z" fill="#662D7D" fill-opacity="1.000000" fill-rule="nonzero"/>
			</g>
		</g>
		<g mask="url(#mask1_38018)">
			<g style="mix-blend-mode:normal">
				<path id="Path 35275" d="M140.12 109.48C141.05 113.86 126.01 120.77 106.53 124.91C87.04 129.05 70.49 128.86 69.56 124.48C68.63 120.1 83.67 113.19 103.16 109.05C122.64 104.91 139.19 105.1 140.12 109.48Z" fill="#CDFFB0" fill-opacity="1.000000" fill-rule="nonzero"/>
			</g>
		</g>
		<g mask="url(#mask1_38018)">
			<g style="mix-blend-mode:normal">
				<path id="Path 35276" d="M166.87 114.87C165.03 116.74 162.97 118.4 160.85 119.96C158.75 121.54 156.54 122.99 154.31 124.39C149.81 127.14 145.09 129.53 140.27 131.67C130.59 135.88 120.45 139.01 110.14 141.22C99.82 143.39 89.29 144.66 78.73 144.75C73.45 144.76 68.17 144.49 62.94 143.81C60.33 143.44 57.73 143.02 55.16 142.43C52.59 141.86 50.04 141.18 47.59 140.22C52.63 141.7 57.84 142.45 63.04 142.9C68.25 143.36 73.49 143.43 78.7 143.3C89.14 142.92 99.54 141.59 109.75 139.4C119.98 137.24 130.01 134.23 139.7 130.34C144.53 128.34 149.28 126.15 153.85 123.61C158.42 121.08 162.87 118.27 166.87 114.87Z" fill="#A6A8AB" fill-opacity="1.000000" fill-rule="nonzero"/>
			</g>
		</g>
		<g mask="url(#mask1_38018)">
			<g style="mix-blend-mode:normal">
				<path id="Path 35277" d="M67.04 121.48L66.21 118.9L66.51 121.6C66.69 123.27 65.67 124.85 64.06 125.37L61.48 126.19L64.17 125.9C65.85 125.72 67.43 126.74 67.94 128.35L68.77 130.93L68.48 128.24C68.3 126.56 69.32 124.98 70.93 124.47L73.51 123.64L70.81 123.93C69.13 124.11 67.56 123.09 67.04 121.48Z" fill="#42A00B" fill-opacity="1.000000" fill-rule="nonzero"/>
			</g>
		</g>
		<g mask="url(#mask1_38018)">
			<g style="mix-blend-mode:normal">
				<path id="Path 35278" d="M114.37 60.33L115.7 64.45L115.23 60.15C114.94 57.46 116.57 54.95 119.14 54.12L123.27 52.8L118.96 53.27C116.28 53.56 113.76 51.92 112.94 49.35L111.61 45.23L112.08 49.54C112.37 52.22 110.74 54.73 108.17 55.56L104.04 56.88L108.35 56.42C111.03 56.13 113.55 57.76 114.37 60.33Z" fill="#42A00B" fill-opacity="1.000000" fill-rule="nonzero"/>
			</g>
		</g>
		<g mask="url(#mask1_38018)">
			<g style="mix-blend-mode:normal">
				<path id="Path 35279" d="M46.91 84.84L46.25 82.77L46.48 84.93C46.63 86.28 45.81 87.55 44.52 87.96L42.45 88.62L44.61 88.39C45.96 88.24 47.22 89.06 47.63 90.35L48.3 92.43L48.07 90.26C47.92 88.92 48.74 87.65 50.03 87.24L52.1 86.57L49.94 86.81C48.59 86.95 47.33 86.13 46.91 84.84Z" fill="#42A00B" fill-opacity="1.000000" fill-rule="nonzero"/>
			</g>
		</g>
		<g mask="url(#mask1_38018)">
			<g style="mix-blend-mode:normal">
				<path id="Path 35280" d="M75.74 65.88L74.85 63.09L75.16 66.01C75.36 67.82 74.25 69.53 72.51 70.08L69.72 70.98L72.64 70.66C74.45 70.47 76.16 71.57 76.72 73.31L77.61 76.1L77.3 73.19C77.1 71.37 78.21 69.67 79.94 69.11L82.74 68.21L79.82 68.53C78.01 68.73 76.3 67.62 75.74 65.88Z" fill="#42A00B" fill-opacity="1.000000" fill-rule="nonzero"/>
			</g>
		</g>
		<g mask="url(#mask1_38018)">
			<g style="mix-blend-mode:normal">
				<path id="Path 35281" d="M119.91 75.22L119.24 73.14L119.48 75.31C119.62 76.65 118.8 77.92 117.51 78.33L115.44 79L117.6 78.76C118.95 78.62 120.21 79.44 120.63 80.73L121.29 82.8L121.06 80.64C120.91 79.29 121.73 78.03 123.02 77.61L125.09 76.95L122.93 77.18C121.58 77.33 120.32 76.51 119.91 75.22Z" fill="#42A00B" fill-opacity="1.000000" fill-rule="nonzero"/>
			</g>
		</g>
		<g mask="url(#mask1_38018)">
			<g style="mix-blend-mode:normal">
				<path id="Path 35282" d="M153.03 85.15L152.36 83.07L152.6 85.24C152.74 86.58 151.92 87.85 150.63 88.26L148.56 88.93L150.72 88.69C152.07 88.55 153.34 89.37 153.75 90.66L154.41 92.73L154.18 90.57C154.03 89.22 154.85 87.95 156.14 87.54L158.22 86.88L156.05 87.11C154.71 87.26 153.44 86.44 153.03 85.15Z" fill="#42A00B" fill-opacity="1.000000" fill-rule="nonzero"/>
			</g>
		</g>
		<g mask="url(#mask1_38018)">
			<g style="mix-blend-mode:normal">
				<path id="Path 35283" d="M100.56 91.87L99.89 89.8L100.13 91.96C100.27 93.31 99.45 94.57 98.16 94.99L96.09 95.65L98.25 95.42C99.6 95.27 100.87 96.09 101.28 97.38L101.95 99.45L101.71 97.29C101.56 95.94 102.39 94.68 103.68 94.26L105.75 93.6L103.58 93.83C102.24 93.98 100.97 93.16 100.56 91.87Z" fill="#42A00B" fill-opacity="1.000000" fill-rule="nonzero"/>
			</g>
		</g>
		<g mask="url(#mask1_38018)">
			<g style="mix-blend-mode:normal">
				<path id="Path 35284" d="M125.23 60.75L124.48 58.42L124.74 60.85C124.91 62.37 123.98 63.79 122.53 64.25L120.2 65L122.64 64.74C124.15 64.57 125.57 65.5 126.04 66.95L126.78 69.27L126.52 66.84C126.36 65.33 127.28 63.91 128.73 63.44L131.06 62.69L128.63 62.96C127.11 63.12 125.69 62.2 125.23 60.75Z" fill="#42A00B" fill-opacity="1.000000" fill-rule="nonzero"/>
			</g>
		</g>
		<g mask="url(#mask1_38018)">
			<g style="mix-blend-mode:normal">
				<path id="Path 35285" d="M118.41 115.63L117.74 113.56L117.98 115.72C118.12 117.07 117.3 118.34 116.01 118.75L113.94 119.41L116.1 119.18C117.45 119.03 118.71 119.85 119.13 121.14L119.79 123.22L119.56 121.05C119.41 119.71 120.23 118.44 121.52 118.03L123.59 117.36L121.43 117.6C120.09 117.74 118.82 116.92 118.41 115.63Z" fill="#42A00B" fill-opacity="1.000000" fill-rule="nonzero"/>
			</g>
		</g>
		<g mask="url(#mask1_38018)">
			<g style="mix-blend-mode:normal">
				<path id="Path 35286" d="M156.23 65.55C155.21 65.66 154.26 65.04 153.95 64.07L153.44 62.51L153.62 64.14C153.73 65.16 153.11 66.11 152.14 66.42L150.58 66.92L152.21 66.75C153.22 66.64 154.18 67.26 154.49 68.23L154.99 69.79L154.82 68.16C154.7 67.14 155.32 66.19 156.3 65.88L157.86 65.38L156.23 65.55Z" fill="#42A00B" fill-opacity="1.000000" fill-rule="nonzero"/>
			</g>
		</g>
		<g mask="url(#mask1_38018)">
			<g style="mix-blend-mode:normal">
				<path id="Path 35287" d="M151.44 105.73L151.08 104.6L151.2 105.78C151.28 106.51 150.84 107.2 150.14 107.42L149.01 107.79L150.19 107.66C150.92 107.58 151.61 108.02 151.83 108.73L152.19 109.85L152.06 108.68C151.99 107.94 152.43 107.26 153.13 107.03L154.26 106.67L153.08 106.8C152.35 106.88 151.66 106.43 151.44 105.73Z" fill="#42A00B" fill-opacity="1.000000" fill-rule="nonzero"/>
			</g>
		</g>
		<g mask="url(#mask1_38018)">
			<g style="mix-blend-mode:normal">
				<path id="Path 35288" d="M50.41 105.66L49.22 104.07L48.79 106.01L47 106.54L48.56 107.4L48.66 109.41L50.1 108.21L51.91 108.72L51.18 106.84L52.26 105.42L50.41 105.66Z" fill="#42A00B" fill-opacity="1.000000" fill-rule="nonzero"/>
			</g>
		</g>
		<g mask="url(#mask1_38018)">
			<g style="mix-blend-mode:normal">
				<path id="Path 35289" d="M70.49 84.56L69.3 82.97L68.86 84.91L67.08 85.43L68.64 86.3L68.74 88.31L70.18 87.11L71.99 87.62L71.26 85.74L72.33 84.32L70.49 84.56Z" fill="#42A00B" fill-opacity="1.000000" fill-rule="nonzero"/>
			</g>
		</g>
		<g mask="url(#mask1_38018)">
			<g style="mix-blend-mode:normal">
				<path id="Path 35290" d="M100.47 67.24L99.48 65.9L99.11 67.52L97.62 67.97L98.92 68.69L99.01 70.37L100.22 69.37L101.72 69.79L101.12 68.22L102.02 67.03L100.47 67.24Z" fill="#42A00B" fill-opacity="1.000000" fill-rule="nonzero"/>
			</g>
		</g>
		<g mask="url(#mask1_38018)">
			<g style="mix-blend-mode:normal">
				<path id="Path 35291" d="M139.82 64.55L138.28 64.75L137.28 63.42L136.92 65.04L135.43 65.48L136.73 66.21L136.82 67.89L138.02 66.89L139.53 67.31L138.93 65.74L139.82 64.55Z" fill="#42A00B" fill-opacity="1.000000" fill-rule="nonzero"/>
			</g>
		</g>
		<g mask="url(#mask1_38018)">
			<g style="mix-blend-mode:normal">
				<path id="Path 35292" d="M74.63 111.17L73.72 109.96L73.39 111.44L72.03 111.84L73.22 112.5L73.3 114.03L74.39 113.11L75.77 113.5L75.22 112.07L76.03 110.99L74.63 111.17Z" fill="#42A00B" fill-opacity="1.000000" fill-rule="nonzero"/>
			</g>
		</g>
		<g mask="url(#mask1_38018)">
			<g style="mix-blend-mode:normal">
				<path id="Path 35293" d="M81.16 105.7C79.66 102.94 78.16 100.18 76.59 97.46L74.23 93.37C73.42 92.03 72.63 90.67 71.79 89.34C72.45 90.77 73.15 92.17 73.83 93.59L75.96 97.8C77.38 100.6 78.86 103.37 80.35 106.14C81.85 108.9 83.35 111.66 84.92 114.38C86.48 117.11 88.05 119.83 89.72 122.5C88.39 119.65 86.98 116.84 85.55 114.04C84.13 111.24 82.65 108.47 81.16 105.7Z" fill="#4EDD03" fill-opacity="1.000000" fill-rule="nonzero"/>
			</g>
		</g>
		<g mask="url(#mask1_38018)">
			<g style="mix-blend-mode:normal">
				<path id="Path 35294" d="M88.03 95.85C86.57 92.02 85.15 88.19 83.66 84.38L81.4 78.67C80.62 76.78 79.86 74.88 79.05 72.99C79.66 74.95 80.33 76.88 80.97 78.83L82.99 84.63C84.34 88.49 85.77 92.32 87.16 96.17C88.62 99.99 90.04 103.83 91.53 107.64C93.03 111.45 94.54 115.25 96.14 119.02C94.9 115.12 93.56 111.25 92.2 107.39C90.85 103.53 89.42 99.7 88.03 95.85Z" fill="#4EDD03" fill-opacity="1.000000" fill-rule="nonzero"/>
			</g>
		</g>
		<g mask="url(#mask1_38018)">
			<g style="mix-blend-mode:normal">
				<path id="Path 35295" d="M74.22 119.34C71.97 117.95 69.69 116.62 67.4 115.29C65.1 113.99 62.81 112.68 60.47 111.44L56.97 109.57C55.79 108.98 54.62 108.36 53.42 107.79C54.51 108.54 55.64 109.24 56.74 109.97L60.11 112.06C62.36 113.45 64.65 114.77 66.94 116.1C69.23 117.41 71.53 118.71 73.86 119.96C76.19 121.21 78.53 122.45 80.92 123.6C78.72 122.12 76.47 120.72 74.22 119.34Z" fill="#4EDD03" fill-opacity="1.000000" fill-rule="nonzero"/>
			</g>
		</g>
		<g mask="url(#mask1_38018)">
			<g style="mix-blend-mode:normal">
				<path id="Path 35296" d="M117.67 87.95C117.95 86.53 118.26 85.11 118.52 83.68C118.06 85.06 117.66 86.45 117.23 87.84L116.04 92.02C115.24 94.82 114.52 97.63 113.8 100.44C113.1 103.25 112.4 106.07 111.77 108.9C111.13 111.73 110.51 114.56 109.98 117.42C110.88 114.66 111.68 111.87 112.46 109.07C113.25 106.28 113.98 103.47 114.7 100.66C115.4 97.85 116.1 95.03 116.73 92.2L117.67 87.95Z" fill="#4EDD03" fill-opacity="1.000000" fill-rule="nonzero"/>
			</g>
		</g>
		<g mask="url(#mask1_38018)">
			<g style="mix-blend-mode:normal">
				<path id="Path 35297" d="M134.55 81.14L136.63 75.46C137.3 73.56 137.99 71.66 138.63 69.75C137.8 71.58 137.02 73.44 136.21 75.29L133.88 80.88C132.34 84.61 130.87 88.36 129.36 92.1C127.93 95.87 126.45 99.63 125.05 103.41C123.64 107.19 122.25 110.98 120.96 114.8C122.61 111.12 124.17 107.4 125.71 103.67C127.25 99.94 128.72 96.18 130.23 92.44C131.67 88.68 133.14 84.92 134.55 81.14Z" fill="#4EDD03" fill-opacity="1.000000" fill-rule="nonzero"/>
			</g>
		</g>
		<g mask="url(#mask1_38018)">
			<g style="mix-blend-mode:normal">
				<path id="Path 35298" d="M55.94 95.39C57.64 97.08 59.38 98.72 61.12 100.35C62.88 101.97 64.64 103.59 66.45 105.16C68.25 106.73 70.06 108.3 71.94 109.79C70.32 108.02 68.63 106.32 66.93 104.64C65.24 102.95 63.5 101.31 61.75 99.67C60 98.05 58.24 96.43 56.43 94.87L53.72 92.52C52.79 91.76 51.88 90.98 50.94 90.24C51.74 91.13 52.58 91.98 53.41 92.85L55.94 95.39Z" fill="#4EDD03" fill-opacity="1.000000" fill-rule="nonzero"/>
			</g>
		</g>
		<g mask="url(#mask1_38018)">
			<g style="mix-blend-mode:normal">
				<path id="Path 35299" d="M77.16 114.57C78.75 116.56 80.54 118.34 82.38 120.07C84.23 121.77 86.14 123.43 88.23 124.88C86.64 122.89 84.85 121.12 83.01 119.39C81.16 117.68 79.25 116.02 77.16 114.57Z" fill="#4EDD03" fill-opacity="1.000000" fill-rule="nonzero"/>
			</g>
		</g>
		<g mask="url(#mask1_38018)">
			<g style="mix-blend-mode:normal">
				<path id="Path 35300" d="M102.62 120.66C102.84 117.45 102.78 114.24 102.65 111.04C102.5 107.84 102.27 104.64 101.76 101.46C101.54 104.67 101.6 107.88 101.72 111.08C101.88 114.28 102.11 117.48 102.62 120.66Z" fill="#4EDD03" fill-opacity="1.000000" fill-rule="nonzero"/>
			</g>
		</g>
		<g mask="url(#mask1_38018)">
			<g style="mix-blend-mode:normal">
				<path id="Path 35301" d="M100.46 80.36C100.65 83.02 100.91 85.67 101.44 88.31C101.63 85.62 101.54 82.96 101.39 80.3C101.2 77.64 100.94 74.99 100.4 72.35C100.21 75.04 100.3 77.7 100.46 80.36Z" fill="#4EDD03" fill-opacity="1.000000" fill-rule="nonzero"/>
			</g>
		</g>
		<g mask="url(#mask1_38018)">
			<g style="mix-blend-mode:normal">
				<path id="Path 35302" d="M145.68 95.91C143.99 97.56 142.36 99.26 140.73 100.97C139.12 102.68 137.51 104.4 135.95 106.17C134.38 107.93 132.82 109.7 131.34 111.54C133.1 109.96 134.79 108.32 136.46 106.66C138.15 105.01 139.78 103.31 141.41 101.61C143.02 99.89 144.64 98.17 146.2 96.4L148.53 93.75C149.29 92.84 150.07 91.96 150.8 91.03C149.92 91.81 149.07 92.64 148.21 93.44L145.68 95.91Z" fill="#4EDD03" fill-opacity="1.000000" fill-rule="nonzero"/>
			</g>
		</g>
		<g mask="url(#mask1_38018)">
			<g style="mix-blend-mode:normal">
				<path id="Path 35303" d="M149.3 73.08L146.99 76.68C145.45 79.08 143.97 81.51 142.5 83.95C141.04 86.39 139.59 88.84 138.19 91.32C136.79 93.8 135.4 96.29 134.1 98.83C135.73 96.49 137.27 94.09 138.8 91.69C140.34 89.29 141.82 86.86 143.3 84.42C144.75 81.98 146.21 79.53 147.6 77.05L149.69 73.32C150.36 72.06 151.05 70.81 151.7 69.54C150.87 70.7 150.1 71.9 149.3 73.08Z" fill="#4EDD03" fill-opacity="1.000000" fill-rule="nonzero"/>
			</g>
		</g>
		<g mask="url(#mask1_38018)">
			<g opacity="0.850006" style="mix-blend-mode:overlay">
				<mask id="mask1_38053" mask-type="alpha" maskUnits="userSpaceOnUse" x="138.653564" y="139.872070" width="20.528931" height="56.228027">
					<g style="mix-blend-mode:normal">
						<rect id="Rectangle 3805" x="138.653564" y="141.781738" width="9.183936" height="55.531776" transform="rotate(-12 138.653564 141.781738)" fill="#C4C4C4" fill-opacity="1.000000"/>
					</g>
				</mask>
				<g mask="url(#mask1_38053)">
					<g style="mix-blend-mode:normal">
						<path id="Path 35304" d="M155.91 185.56C156.8 187.43 157.71 189.28 158.49 191.2C159.12 192.75 158.49 194.49 156.69 194.7C153.66 195.06 151.78 192.22 150.75 189.78C147.23 181.45 145.42 172.62 143.44 163.84C142.41 159.27 141.17 154.5 140.67 149.75C140.46 147.65 140.09 145.14 140.66 143.09C141 141.84 142.12 139.89 143.05 141.94C144.15 144.38 144.33 146.97 145.03 149.52C146.74 155.83 148.35 162.17 150.05 168.48C151.09 172.33 152.14 176.18 153.49 179.93C154.17 181.86 155.03 183.72 155.91 185.56Z" fill="#FFFFFF" fill-opacity="1.000000" fill-rule="nonzero"/>
					</g>
				</g>
			</g>
		</g>
	</g>
	<mask id="mask1_38058" mask-type="alpha" maskUnits="userSpaceOnUse" x="52.105957" y="0.000000" width="77.837402" height="77.332520">
		<g style="mix-blend-mode:normal">
			<rect id="Rectangle 3792" x="52.105957" width="77.837402" height="77.332710" fill="#C4C4C4" fill-opacity="1.000000"/>
		</g>
	</mask>
	<g mask="url(#mask1_38058)">
		<g style="mix-blend-mode:normal">
			<path id="Path 35083" d="M61.47 37.25C57.46 34.55 51.93 30.11 53 26.7C53.69 24.45 56.73 23.25 62.54 22.9C63.82 22.82 65.05 22.8 66.06 22.8C63.95 18.49 61.39 11.9 63.99 9.47C64.59 8.92 65.39 8.62 66.36 8.56C69.43 8.37 74.41 10.92 77.33 12.6C77.67 7.82 78.77 0.87 82.24 0.08C82.41 0.04 82.57 0.01 82.75 0C86.12 -0.2 89.97 5.4 92.27 9.39C94.55 6.07 98.51 1.06 101.68 0.88C102.09 0.85 102.47 0.9 102.84 1.01C106.26 2.07 106.86 9.21 106.85 14.03C109.44 12.82 113.64 11.07 116.6 10.89C118.25 10.79 119.49 11.18 120.28 12.04C122.69 14.66 119.64 21.07 117.21 25.23C122.04 25.59 129.08 26.71 129.87 30.2C130.65 33.69 124.79 37.69 120.57 40.07C124.58 42.77 130.11 47.21 129.06 50.62C128.36 52.87 125.32 54.08 119.49 54.43C118.22 54.5 117 54.52 115.98 54.52C118.1 58.84 120.66 65.42 118.05 67.85C117.46 68.4 116.66 68.71 115.69 68.77C112.62 68.96 107.63 66.4 104.71 64.73C104.36 69.5 103.27 76.46 99.81 77.25C99.64 77.29 99.46 77.31 99.29 77.32C95.92 77.52 92.07 71.93 89.77 67.93C87.49 71.25 83.53 76.25 80.36 76.44C79.96 76.46 79.57 76.42 79.21 76.31C75.78 75.25 75.19 68.11 75.19 63.29C72.6 64.5 68.4 66.25 65.44 66.42C63.79 66.52 62.56 66.14 61.76 65.28C59.35 62.66 62.4 56.25 64.82 52.09C60 51.74 52.96 50.62 52.17 47.12C51.39 43.63 57.26 39.63 61.47 37.25Z" fill="#FFCF00" fill-opacity="1.000000" fill-rule="nonzero"/>
		</g>
	</g>
	<g mask="url(#mask1_38058)">
		<g style="mix-blend-mode:normal">
			<path id="Path 35084" d="M63.81 32.38C60.89 47.73 70.95 62.54 86.3 65.47C101.65 68.39 116.46 58.32 119.39 42.98C122.32 27.63 112.24 12.81 96.9 9.89C81.55 6.96 66.74 17.03 63.81 32.38Z" fill="#F5AE00" fill-opacity="1.000000" fill-rule="evenodd"/>
		</g>
	</g>
	<g mask="url(#mask1_38058)">
		<g style="mix-blend-mode:normal">
			<path id="Path 35085" d="M64.46 32.49C61.66 47.18 71.29 61.35 85.98 64.15C100.67 66.95 114.84 57.31 117.64 42.63C120.45 27.94 110.81 13.77 96.12 10.97C81.43 8.17 67.26 17.8 64.46 32.49Z" fill="#FFD700" fill-opacity="1.000000" fill-rule="evenodd"/>
		</g>
	</g>
	<g mask="url(#mask1_38058)">
		<g style="mix-blend-mode:normal">
			<path id="Path 35086" d="M103.78 15.41C96.28 10.69 93.3 18.03 97.4 20.34C101.51 22.65 112.45 24.1 115.65 37.19C117.17 28.57 110.32 19.53 103.78 15.41Z" fill="#FFF36A" fill-opacity="1.000000" fill-rule="evenodd"/>
		</g>
	</g>
	<g mask="url(#mask1_38058)">
		<g style="mix-blend-mode:normal">
			<path id="Path 35087" d="M81.42 37.06C81.88 38.71 79.88 40.67 77.24 40.8C74.59 40.94 72.69 39.36 72.26 37.37C71.87 35.55 73.67 33.44 76.64 34.5C79.41 35.5 80.94 35.36 81.42 37.06Z" fill="#ED5D5A" fill-opacity="1.000000" fill-rule="nonzero"/>
		</g>
	</g>
	<g mask="url(#mask1_38058)">
		<g style="mix-blend-mode:normal">
			<path id="Path 35088" d="M107.89 40.27C107.27 42.51 104.74 43.6 101.75 43.06C98.86 42.56 96.46 39.75 97.45 37.76C98.4 35.86 99.79 36.92 103.37 36.47C106.83 36.03 108.51 38.02 107.89 40.27Z" fill="#ED5D5A" fill-opacity="1.000000" fill-rule="nonzero"/>
		</g>
	</g>
	<g mask="url(#mask1_38058)">
		<g style="mix-blend-mode:normal">
			<path id="Path 35089" d="M82.05 39.01C82.05 39.01 81.8 50.15 88.93 50.62C97.13 51.16 96.19 39.59 96.19 39.59C96.19 39.59 89.81 41.55 82.05 39.01Z" fill="#422316" fill-opacity="1.000000" fill-rule="nonzero"/>
		</g>
	</g>
	<g mask="url(#mask1_38058)">
		<g style="mix-blend-mode:normal">
			<path id="Path 35090" d="M94.74 47.53C93.58 46.61 92.11 46.01 90.22 46.04C87.51 46.07 85.99 47.31 85.17 48.94C86.11 49.87 87.34 50.52 88.94 50.62C91.92 50.82 93.69 49.41 94.74 47.53Z" fill="#EB4B48" fill-opacity="1.000000" fill-rule="nonzero"/>
		</g>
	</g>
	<g mask="url(#mask1_38058)">
		<g style="mix-blend-mode:normal">
			<path id="Path 35091" d="M90.62 34.52C89.76 33.06 88.87 32.86 88.28 32.94C88.22 32.95 88.17 32.96 88.12 32.97C87.29 33.18 86.63 34.09 86.58 35.1C86.53 36.19 87.18 37.07 88.32 37.47C88.36 37.49 88.4 37.49 88.44 37.48C88.5 37.45 88.62 37.38 88.64 37.31C88.69 37.17 88.62 37.03 88.49 36.98C87.18 36.52 87.09 35.53 87.1 35.12C87.14 34.33 87.63 33.63 88.25 33.47C88.9 33.32 89.58 33.79 90.17 34.79C90.25 34.91 90.42 34.95 90.53 34.88C90.59 34.85 90.63 34.79 90.65 34.72C90.67 34.65 90.66 34.58 90.62 34.52Z" fill="#592E1C" fill-opacity="1.000000" fill-rule="nonzero"/>
		</g>
	</g>
	<g mask="url(#mask1_38058)">
		<g style="mix-blend-mode:normal">
			<path id="Path 35092" d="M99.53 28.03C98.15 28.24 96.67 29.42 96.94 32.09C96.95 32.19 97 32.28 97.08 32.35C97.16 32.41 97.26 32.44 97.36 32.44C97.56 32.43 97.73 32.23 97.71 32.01C97.53 30.2 98.2 29 99.52 28.81C101.32 28.62 103.56 30.22 103.9 32.94C103.93 33.15 104.12 33.3 104.33 33.27C104.54 33.24 104.69 33.05 104.67 32.84C104.27 29.67 101.69 27.79 99.53 28.03Z" fill="#592E1C" fill-opacity="1.000000" fill-rule="nonzero"/>
		</g>
	</g>
	<g mask="url(#mask1_38058)">
		<g style="mix-blend-mode:normal">
			<path id="Path 35093" d="M78.43 26.99C78.39 26.99 78.35 27 78.31 27C77 27.19 75.69 28.31 75.95 30.86C75.97 31.07 76.16 31.23 76.36 31.2C76.58 31.19 76.74 31 76.72 30.78C76.55 29.05 77.18 27.95 78.45 27.76C80.14 27.58 82.24 29.09 82.56 31.67C82.59 31.88 82.78 32.03 82.99 32C83.2 31.97 83.35 31.78 83.32 31.57C82.95 28.55 80.49 26.76 78.43 26.99Z" fill="#592E1C" fill-opacity="1.000000" fill-rule="nonzero"/>
		</g>
	</g>
	<mask id="mask1_38070" mask-type="alpha" maskUnits="userSpaceOnUse" x="0.000000" y="44.301758" width="52.105896" height="51.768066">
		<g style="mix-blend-mode:normal">
			<rect id="Rectangle 3828" y="44.301758" width="52.105919" height="51.768066" fill="#C4C4C4" fill-opacity="1.000000"/>
		</g>
	</mask>
	<g mask="url(#mask1_38070)">
		<g style="mix-blend-mode:normal">
			<path id="Path 35748" d="M6.26 69.23C3.58 67.43 -0.12 64.46 0.6 62.17C1.06 60.67 3.09 59.86 6.98 59.63C7.84 59.58 8.66 59.56 9.34 59.56C7.92 56.68 6.21 52.27 7.96 50.64C8.35 50.27 8.89 50.07 9.54 50.03C11.6 49.91 14.93 51.61 16.88 52.73C17.11 49.54 17.85 44.88 20.17 44.35C20.28 44.32 20.39 44.31 20.51 44.3C22.77 44.17 25.34 47.91 26.88 50.59C28.41 48.37 31.06 45.01 33.19 44.89C33.46 44.87 33.71 44.9 33.96 44.97C36.25 45.69 36.65 50.46 36.65 53.7C38.38 52.89 41.19 51.71 43.17 51.59C44.28 51.53 45.1 51.79 45.63 52.36C47.25 54.12 45.21 58.4 43.58 61.19C46.81 61.43 51.53 62.18 52.05 64.52C52.58 66.86 48.65 69.53 45.83 71.13C48.51 72.93 52.22 75.9 51.51 78.19C51.04 79.69 49.01 80.5 45.11 80.73C44.25 80.78 43.44 80.8 42.76 80.8C44.17 83.69 45.89 88.1 44.14 89.72C43.75 90.09 43.21 90.3 42.56 90.34C40.51 90.46 37.17 88.75 35.21 87.63C34.98 90.82 34.25 95.48 31.93 96.01C31.82 96.04 31.7 96.06 31.58 96.06C29.33 96.2 26.75 92.45 25.21 89.78C23.69 92 21.04 95.35 18.91 95.47C18.64 95.49 18.38 95.46 18.14 95.38C15.84 94.67 15.45 89.89 15.45 86.66C13.72 87.48 10.91 88.65 8.92 88.76C7.82 88.83 7 88.57 6.46 88C4.85 86.24 6.89 81.96 8.51 79.17C5.28 78.94 0.57 78.19 0.04 75.84C-0.48 73.51 3.45 70.83 6.26 69.23Z" fill="#FFCF00" fill-opacity="1.000000" fill-rule="nonzero"/>
		</g>
	</g>
	<g mask="url(#mask1_38070)">
		<g style="mix-blend-mode:normal">
			<path id="Path 35749" d="M7.83 65.97C5.88 76.25 12.62 86.16 22.89 88.12C33.16 90.08 43.08 83.34 45.04 73.07C47 62.79 40.26 52.88 29.98 50.92C19.71 48.96 9.79 55.7 7.83 65.97Z" fill="#F5AE00" fill-opacity="1.000000" fill-rule="evenodd"/>
		</g>
	</g>
	<g mask="url(#mask1_38070)">
		<g style="mix-blend-mode:normal">
			<path id="Path 35750" d="M8.27 66.05C6.39 75.88 12.84 85.37 22.67 87.25C32.51 89.12 41.99 82.67 43.87 72.84C45.75 63 39.3 53.52 29.46 51.64C19.63 49.77 10.14 56.22 8.27 66.05Z" fill="#FFD700" fill-opacity="1.000000" fill-rule="evenodd"/>
		</g>
	</g>
	<g mask="url(#mask1_38070)">
		<g style="mix-blend-mode:normal">
			<path id="Path 35751" d="M34.59 54.62C29.57 51.46 27.57 56.37 30.32 57.91C33.07 59.46 40.4 60.44 42.54 69.2C43.56 63.42 38.96 57.37 34.59 54.62Z" fill="#FFF36A" fill-opacity="1.000000" fill-rule="evenodd"/>
		</g>
	</g>
	<g mask="url(#mask1_38070)">
		<g style="mix-blend-mode:normal">
			<path id="Path 35752" d="M19.62 69.11C19.93 70.21 18.59 71.52 16.82 71.62C15.05 71.71 13.78 70.65 13.49 69.31C13.23 68.1 14.43 66.68 16.42 67.4C18.28 68.07 19.3 67.97 19.62 69.11Z" fill="#ED5D5A" fill-opacity="1.000000" fill-rule="nonzero"/>
		</g>
	</g>
	<g mask="url(#mask1_38070)">
		<g style="mix-blend-mode:normal">
			<path id="Path 35753" d="M37.34 71.26C36.93 72.76 35.23 73.48 33.23 73.13C31.3 72.79 29.69 70.91 30.36 69.58C30.99 68.31 31.92 69.01 34.31 68.71C36.63 68.42 37.76 69.75 37.34 71.26Z" fill="#ED5D5A" fill-opacity="1.000000" fill-rule="nonzero"/>
		</g>
	</g>
	<g mask="url(#mask1_38070)">
		<g style="mix-blend-mode:normal">
			<path id="Path 35754" d="M20.04 70.41C20.04 70.41 19.88 77.87 24.65 78.19C30.14 78.55 29.51 70.8 29.51 70.8C29.51 70.8 25.24 72.11 20.04 70.41Z" fill="#422316" fill-opacity="1.000000" fill-rule="nonzero"/>
		</g>
	</g>
	<g mask="url(#mask1_38070)">
		<g style="mix-blend-mode:normal">
			<path id="Path 35755" d="M28.54 76.12C27.76 75.5 26.78 75.1 25.51 75.12C23.7 75.14 22.68 75.97 22.13 77.06C22.76 77.69 23.58 78.12 24.65 78.19C26.65 78.32 27.83 77.37 28.54 76.12Z" fill="#EB4B48" fill-opacity="1.000000" fill-rule="nonzero"/>
		</g>
	</g>
	<g mask="url(#mask1_38070)">
		<g style="mix-blend-mode:normal">
			<path id="Path 35756" d="M25.78 67.41C25.21 66.43 24.61 66.3 24.21 66.35C24.17 66.36 24.14 66.36 24.11 66.37C23.55 66.51 23.11 67.12 23.08 67.8C23.04 68.53 23.48 69.12 24.24 69.38C24.26 69.38 24.35 69.38 24.37 69.38C24.41 69.36 24.44 69.32 24.46 69.27C24.49 69.19 24.44 69.09 24.35 69.05C23.48 68.75 23.41 68.08 23.43 67.81C23.45 67.28 23.78 66.81 24.19 66.71C24.63 66.6 25.09 66.92 25.48 67.59C25.53 67.67 25.65 67.7 25.72 67.65C25.76 67.63 25.79 67.59 25.8 67.54C25.81 67.5 25.81 67.45 25.78 67.41Z" fill="#592E1C" fill-opacity="1.000000" fill-rule="nonzero"/>
		</g>
	</g>
	<g mask="url(#mask1_38070)">
		<g style="mix-blend-mode:normal">
			<path id="Path 35757" d="M31.75 63.07C30.82 63.2 29.83 63.99 30.01 65.78C30.02 65.85 30.05 65.91 30.1 65.96C30.16 66 30.23 66.02 30.29 66.01C30.43 66.01 30.54 65.87 30.52 65.73C30.4 64.52 30.86 63.72 31.74 63.59C32.94 63.46 34.44 64.53 34.67 66.35C34.69 66.49 34.82 66.59 34.96 66.58C35.1 66.55 35.2 66.43 35.18 66.29C34.92 64.16 33.19 62.91 31.75 63.07Z" fill="#592E1C" fill-opacity="1.000000" fill-rule="nonzero"/>
		</g>
	</g>
	<g mask="url(#mask1_38070)">
		<g style="mix-blend-mode:normal">
			<path id="Path 35758" d="M17.62 62.37C16.74 62.49 15.79 63.25 15.96 64.96C15.97 65.1 16.1 65.2 16.24 65.19C16.39 65.18 16.49 65.05 16.47 64.91C16.36 63.75 16.78 63.01 17.63 62.88C18.77 62.76 20.17 63.77 20.38 65.5C20.4 65.64 20.53 65.74 20.67 65.72C20.81 65.7 20.91 65.57 20.9 65.44C20.65 63.41 19 62.21 17.62 62.37Z" fill="#592E1C" fill-opacity="1.000000" fill-rule="nonzero"/>
		</g>
	</g>
	<mask id="mask1_38082" mask-type="alpha" maskUnits="userSpaceOnUse" x="138.000000" y="18.417969" width="52.105896" height="51.768066">
		<g style="mix-blend-mode:normal">
			<rect id="Rectangle 3829" x="138.000000" y="18.417969" width="52.105919" height="51.768066" fill="#C4C4C4" fill-opacity="1.000000"/>
		</g>
	</mask>
	<g mask="url(#mask1_38082)">
		<g style="mix-blend-mode:normal">
			<path id="Path 35759" d="M144.26 43.35C141.58 41.55 137.88 38.57 138.6 36.29C139.06 34.79 141.09 33.98 144.98 33.74C145.84 33.69 146.66 33.68 147.34 33.68C145.92 30.79 144.21 26.38 145.96 24.76C146.35 24.39 146.89 24.18 147.54 24.14C149.6 24.02 152.93 25.73 154.88 26.85C155.11 23.65 155.85 19 158.17 18.47C158.28 18.44 158.39 18.42 158.51 18.42C160.77 18.28 163.34 22.03 164.88 24.7C166.41 22.48 169.06 19.13 171.19 19C171.46 18.99 171.71 19.02 171.96 19.09C174.25 19.8 174.65 24.58 174.65 27.81C176.38 27 179.19 25.83 181.17 25.71C182.28 25.64 183.1 25.9 183.63 26.47C185.25 28.23 183.21 32.52 181.58 35.31C184.81 35.55 189.53 36.29 190.05 38.64C190.58 40.97 186.65 43.65 183.83 45.24C186.51 47.05 190.22 50.02 189.51 52.3C189.04 53.81 187.01 54.62 183.11 54.85C182.25 54.9 181.44 54.91 180.76 54.91C182.17 57.8 183.89 62.21 182.14 63.83C181.75 64.21 181.22 64.41 180.56 64.45C178.51 64.58 175.17 62.87 173.21 61.75C172.98 64.94 172.25 69.6 169.93 70.13C169.82 70.15 169.7 70.17 169.58 70.18C167.33 70.31 164.75 66.57 163.21 63.89C161.69 66.11 159.04 69.46 156.91 69.59C156.64 69.6 156.38 69.57 156.14 69.5C153.85 68.79 153.45 64.01 153.45 60.78C151.72 61.59 148.91 62.76 146.92 62.88C145.82 62.95 145 62.69 144.46 62.12C142.85 60.36 144.89 56.07 146.51 53.29C143.28 53.05 138.57 52.3 138.04 49.96C137.52 47.62 141.45 44.94 144.26 43.35Z" fill="#FFCF00" fill-opacity="1.000000" fill-rule="nonzero"/>
		</g>
	</g>
	<g mask="url(#mask1_38082)">
		<g style="mix-blend-mode:normal">
			<path id="Path 35760" d="M145.83 40.09C143.88 50.36 150.62 60.28 160.89 62.24C171.16 64.2 181.08 57.46 183.04 47.18C185 36.91 178.26 26.99 167.98 25.03C157.71 23.08 147.79 29.82 145.83 40.09Z" fill="#F5AE00" fill-opacity="1.000000" fill-rule="evenodd"/>
		</g>
	</g>
	<g mask="url(#mask1_38082)">
		<g style="mix-blend-mode:normal">
			<path id="Path 35761" d="M146.27 40.17C144.39 50 150.84 59.49 160.67 61.36C170.51 63.24 179.99 56.78 181.87 46.95C183.75 37.12 177.3 27.63 167.46 25.76C157.63 23.88 148.14 30.33 146.27 40.17Z" fill="#FFD700" fill-opacity="1.000000" fill-rule="evenodd"/>
		</g>
	</g>
	<g mask="url(#mask1_38082)">
		<g style="mix-blend-mode:normal">
			<path id="Path 35762" d="M172.59 28.73C167.57 25.57 165.57 30.48 168.32 32.03C171.07 33.58 178.4 34.55 180.54 43.31C181.56 37.54 176.96 31.49 172.59 28.73Z" fill="#FFF36A" fill-opacity="1.000000" fill-rule="evenodd"/>
		</g>
	</g>
	<g mask="url(#mask1_38082)">
		<g style="mix-blend-mode:normal">
			<path id="Path 35763" d="M157.62 43.23C157.93 44.33 156.59 45.64 154.82 45.73C153.05 45.82 151.78 44.76 151.49 43.43C151.23 42.21 152.43 40.8 154.42 41.51C156.28 42.18 157.3 42.09 157.62 43.23Z" fill="#ED5D5A" fill-opacity="1.000000" fill-rule="nonzero"/>
		</g>
	</g>
	<g mask="url(#mask1_38082)">
		<g style="mix-blend-mode:normal">
			<path id="Path 35764" d="M175.34 45.37C174.93 46.87 173.23 47.6 171.23 47.25C169.3 46.9 167.69 45.03 168.36 43.69C168.99 42.42 169.92 43.13 172.31 42.83C174.63 42.53 175.76 43.87 175.34 45.37Z" fill="#ED5D5A" fill-opacity="1.000000" fill-rule="nonzero"/>
		</g>
	</g>
	<g mask="url(#mask1_38082)">
		<g style="mix-blend-mode:normal">
			<path id="Path 35765" d="M158.04 44.53C158.04 44.53 157.88 51.99 162.65 52.3C168.14 52.66 167.51 44.92 167.51 44.92C167.51 44.92 163.24 46.23 158.04 44.53Z" fill="#422316" fill-opacity="1.000000" fill-rule="nonzero"/>
		</g>
	</g>
	<g mask="url(#mask1_38082)">
		<g style="mix-blend-mode:normal">
			<path id="Path 35766" d="M166.54 50.24C165.76 49.62 164.78 49.22 163.51 49.23C161.7 49.26 160.68 50.09 160.13 51.18C160.76 51.8 161.58 52.23 162.65 52.3C164.65 52.43 165.84 51.49 166.54 50.24Z" fill="#EB4B48" fill-opacity="1.000000" fill-rule="nonzero"/>
		</g>
	</g>
	<g mask="url(#mask1_38082)">
		<g style="mix-blend-mode:normal">
			<path id="Path 35767" d="M163.78 41.53C163.21 40.55 162.61 40.41 162.21 40.47C162.17 40.48 162.14 40.48 162.11 40.49C161.55 40.63 161.11 41.24 161.08 41.91C161.04 42.64 161.48 43.23 162.24 43.5C162.26 43.5 162.35 43.5 162.37 43.49C162.41 43.47 162.44 43.44 162.46 43.39C162.49 43.3 162.44 43.2 162.35 43.17C161.48 42.87 161.42 42.2 161.42 41.93C161.45 41.4 161.78 40.93 162.19 40.82C162.63 40.72 163.09 41.04 163.48 41.7C163.53 41.79 163.65 41.81 163.72 41.77C163.76 41.74 163.79 41.71 163.8 41.66C163.81 41.61 163.81 41.57 163.78 41.53Z" fill="#592E1C" fill-opacity="1.000000" fill-rule="nonzero"/>
		</g>
	</g>
	<g mask="url(#mask1_38082)">
		<g style="mix-blend-mode:normal">
			<path id="Path 35768" d="M169.75 37.18C168.82 37.32 167.83 38.11 168.01 39.9C168.02 39.96 168.05 40.03 168.1 40.07C168.16 40.12 168.23 40.14 168.29 40.13C168.43 40.12 168.54 39.99 168.52 39.85C168.4 38.63 168.86 37.83 169.74 37.71C170.94 37.57 172.44 38.64 172.67 40.47C172.69 40.61 172.82 40.71 172.96 40.69C173.1 40.67 173.2 40.54 173.18 40.4C172.92 38.28 171.19 37.02 169.75 37.18Z" fill="#592E1C" fill-opacity="1.000000" fill-rule="nonzero"/>
		</g>
	</g>
	<g mask="url(#mask1_38082)">
		<g style="mix-blend-mode:normal">
			<path id="Path 35769" d="M155.62 36.48C154.74 36.61 153.79 37.36 153.96 39.07C153.97 39.21 154.1 39.32 154.24 39.3C154.39 39.3 154.49 39.17 154.47 39.02C154.36 37.86 154.78 37.12 155.63 37C156.77 36.88 158.17 37.89 158.39 39.61C158.4 39.76 158.53 39.86 158.67 39.84C158.81 39.82 158.91 39.69 158.9 39.55C158.64 37.52 157 36.33 155.62 36.48Z" fill="#592E1C" fill-opacity="1.000000" fill-rule="nonzero"/>
		</g>
	</g>
</svg>
