<svg width="63.769531" height="63.767700" viewBox="0 0 63.7695 63.7677" fill="none" xmlns="http://www.w3.org/2000/svg" xmlns:xlink="http://www.w3.org/1999/xlink">
	 
 
		<path id="Path 26734" d="M32.44 0C14.83 -0.31 0.31 13.72 0 31.32C-0.31 48.93 13.72 63.45 31.32 63.76C48.93 64.07 63.45 50.04 63.76 32.44C64.07 14.83 50.04 0.31 32.44 0ZM32.02 42.55C31.09 43.46 30 44.17 28.78 44.69C27.11 45.39 25.14 45.72 22.88 45.68C20.81 45.64 18.95 45.26 17.33 44.52C15.69 43.79 14.32 42.79 13.2 41.53C12.07 40.26 11.22 38.77 10.64 37.06C10.06 35.34 9.78 33.48 9.82 31.48C9.85 29.45 10.22 27.58 10.91 25.89C11.6 24.19 12.56 22.74 13.78 21.52C15 20.31 16.45 19.37 18.14 18.71C19.83 18.05 21.67 17.74 23.69 17.78C24.71 17.8 25.68 17.9 26.58 18.1C27.48 18.3 28.32 18.56 29.1 18.89C29.89 19.23 30.6 19.62 31.26 20.09C31.5 20.26 31.74 20.44 31.96 20.62C32.57 21.12 32.66 22.01 32.18 22.63L30.81 24.41C30.67 24.58 30.5 24.74 30.31 24.88C30.12 25.02 29.84 25.09 29.48 25.08C29.27 25.07 29.06 25.01 28.87 24.91C28.68 24.81 28.47 24.69 28.26 24.54C28.03 24.39 27.79 24.23 27.52 24.06C27.26 23.89 26.94 23.73 26.58 23.57C26.21 23.43 25.78 23.3 25.29 23.19C24.8 23.08 24.22 23.02 23.56 23.01C22.51 22.99 21.55 23.17 20.67 23.54C19.8 23.91 19.04 24.46 18.39 25.19C17.75 25.93 17.25 26.83 16.88 27.91C16.52 28.98 16.33 30.21 16.3 31.6C16.28 33 16.45 34.24 16.81 35.34C17.17 36.43 17.67 37.36 18.32 38.11C18.96 38.87 19.72 39.44 20.58 39.85C21.45 40.25 22.39 40.46 23.39 40.48C23.96 40.49 24.49 40.47 24.96 40.42C25.44 40.37 25.88 40.29 26.3 40.16C26.71 40.04 27.1 39.87 27.47 39.66C27.83 39.45 28.21 39.17 28.59 38.84C28.74 38.72 28.91 38.62 29.08 38.54C29.26 38.46 29.44 38.43 29.63 38.43C29.78 38.43 29.92 38.46 30.08 38.52C30.22 38.58 30.37 38.68 30.5 38.82L32.07 40.53C32.6 41.11 32.58 42.01 32.02 42.55ZM54.15 20.4C54.12 22 52.8 23.27 51.2 23.24L42.64 23.09L42.52 30.16L52.06 30.33L52.02 32.43C52 34.03 50.68 35.3 49.08 35.27L42.43 35.16L42.24 46.02L35.73 45.9L36.22 18L54.18 18.31L54.15 20.4Z" fill="#FF2F7A" fill-opacity="1.000000" fill-rule="nonzero"/>
	 
</svg>
