<svg xmlns="http://www.w3.org/2000/svg" width="23.274" height="23.273" viewBox="0 0 23.274 23.273">
  <path id="_5279111_network_fb_social_media_facebook_facebook_logo_icon" data-name="5279111_network_fb_social media_facebook_facebook logo_icon" d="M11.592,23.273h0Zm.082,0h0Zm-.118,0h0Zm.155,0h0Zm-.19,0h0Zm.227,0h0Zm.038,0h0Zm-.308,0h0Zm.346,0h0Zm-.382,0h0Zm.419,0h0Zm-.454,0h0Zm-.043,0h0Zm.534,0h0Zm-.571,0h0Zm.609,0h0Zm.037,0h0Zm-.68,0h0Zm-.033,0h0Zm.75,0h0Zm.037,0h0Zm-.835,0h0Zm-.034,0h0Zm.906,0h0Zm-.94,0h0Zm.977,0h0Zm-1.024,0h0Zm1.061,0h0Zm-1.095,0h0Zm1.132,0h0Zm-1.165,0h0Zm1.2,0h0Zm.037,0h0Zm-1.269,0h0Zm1.306,0h0Zm-1.357,0h0Zm-.033,0h0Zm1.427,0h0Zm-1.458,0h0Zm1.495,0h0Zm.037,0h0Zm-1.58,0h0Zm-.033,0h0Zm1.65,0h0Zm-1.682,0h0Zm1.719,0h0Zm-1.763,0h0Zm1.8,0h0Zm.037,0h0Zm-1.871,0h0Zm-.033,0h0Zm1.941,0h0Zm-1.977,0h0Zm2.014,0h0Zm.037,0h0Zm-2.089,0h0Zm-.034,0h0Zm2.16,0h0Zm-2.9-.092a11.637,11.637,0,1,1,3.636,0V15h2.711l.516-3.364H13.455V9.454a1.682,1.682,0,0,1,1.9-1.817h1.467V4.773a17.9,17.9,0,0,0-2.6-.227c-2.658,0-4.4,1.611-4.4,4.527v2.564H6.864V15H9.819Z" transform="translate(0 0)" fill="#e50151" fill-rule="evenodd"/>
</svg>
