<svg xmlns="http://www.w3.org/2000/svg" xmlns:xlink="http://www.w3.org/1999/xlink" width="30.116" height="30.116" viewBox="0 0 30.116 30.116">
  <defs>
    <clipPath id="clip-path">
      <rect id="Rectangle_1149" data-name="Rectangle 1149" width="30.116" height="30.116" fill="#fff"/>
    </clipPath>
  </defs>
  <g id="Group_141" data-name="Group 141" clip-path="url(#clip-path)">
    <path id="Path_137" data-name="Path 137" d="M27.149,20.52l-4.225-.486a3.337,3.337,0,0,0-2.749.956l-3.1,3.1a25.117,25.117,0,0,1-6.4-4.647,25.117,25.117,0,0,1-4.647-6.4l3.1-3.1a3.337,3.337,0,0,0,.956-2.749L9.6,2.967A3.355,3.355,0,0,0,6.26,0h-2.9A3.327,3.327,0,0,0,.006,3.47,28.391,28.391,0,0,0,8.293,21.823,28.391,28.391,0,0,0,26.646,30.11a3.327,3.327,0,0,0,3.47-3.353v-2.9a3.355,3.355,0,0,0-2.967-3.336" transform="translate(0 0.001)" fill="#fff"/>
  </g>
</svg>
