<svg id="Group_134" data-name="Group 134" xmlns="http://www.w3.org/2000/svg" xmlns:xlink="http://www.w3.org/1999/xlink" width="22.746" height="22.727" viewBox="0 0 22.746 22.727">
  <defs>
    <clipPath id="clip-path">
      <rect id="Rectangle_1144" data-name="Rectangle 1144" width="22.746" height="22.727" fill="#fff"/>
    </clipPath>
  </defs>
  <g id="Group_133" data-name="Group 133" transform="translate(0 0)" clip-path="url(#clip-path)">
    <path id="Path_133" data-name="Path 133" d="M19.781,1.7A7.883,7.883,0,0,0,8.744,12.828L6.718,14.854l-.586-.586L.48,19.9a1.674,1.674,0,0,0,0,2.346,1.674,1.674,0,0,0,2.346,0L8.477,16.6l-.586-.586L9.9,14A7.888,7.888,0,1,0,19.781,1.7m-.515,10.575a6.221,6.221,0,1,1,0-8.8,6.211,6.211,0,0,1,0,8.8" transform="translate(0 0)" fill="#fff"/>
  </g>
</svg>
