<svg xmlns="http://www.w3.org/2000/svg" xmlns:xlink="http://www.w3.org/1999/xlink" width="104.599" height="17.861" viewBox="0 0 104.599 17.861">
  <defs>
    <clipPath id="clip-path">
      <rect id="Rectangle_2544" data-name="Rectangle 2544" width="104.599" height="17.861" transform="translate(0 0)" fill="#fcd100"/>
    </clipPath>
  </defs>
  <g id="Group_1604" data-name="Group 1604" clip-path="url(#clip-path)">
    <path id="Path_12076" data-name="Path 12076" d="M504.193.755l-1.656,4.118a1.2,1.2,0,0,1-1.041.753l-4.383.277a1.2,1.2,0,0,0-.7,2.119l3.388,2.885a1.2,1.2,0,0,1,.387,1.209l-1.061,4.244a1.2,1.2,0,0,0,1.8,1.319l3.76-2.308a1.2,1.2,0,0,1,1.26,0l3.76,2.308a1.2,1.2,0,0,0,1.8-1.319l-1.061-4.244a1.2,1.2,0,0,1,.387-1.209l3.388-2.885a1.2,1.2,0,0,0-.7-2.119l-4.383-.277a1.2,1.2,0,0,1-1.041-.753L506.428.755a1.2,1.2,0,0,0-2.235,0" transform="translate(-410.039 0)" fill="#fcd100"/>
    <path id="Path_12077" data-name="Path 12077" d="M380.2.755l-1.656,4.118a1.2,1.2,0,0,1-1.041.753l-4.383.277a1.2,1.2,0,0,0-.7,2.119l3.388,2.885a1.2,1.2,0,0,1,.387,1.209l-1.061,4.244a1.2,1.2,0,0,0,1.8,1.319l3.76-2.308a1.2,1.2,0,0,1,1.26,0l3.759,2.308a1.2,1.2,0,0,0,1.8-1.319l-1.061-4.244a1.2,1.2,0,0,1,.387-1.209l3.388-2.885a1.2,1.2,0,0,0-.7-2.119l-4.383-.277a1.2,1.2,0,0,1-1.041-.753L382.432.755a1.2,1.2,0,0,0-2.235,0" transform="translate(-307.529 0)" fill="#fcd100"/>
    <path id="Path_12078" data-name="Path 12078" d="M256.2.755l-1.656,4.118a1.2,1.2,0,0,1-1.041.753l-4.383.277a1.2,1.2,0,0,0-.7,2.119l3.388,2.885a1.2,1.2,0,0,1,.387,1.209l-1.061,4.244a1.2,1.2,0,0,0,1.8,1.319l3.76-2.308a1.2,1.2,0,0,1,1.26,0l3.759,2.308a1.2,1.2,0,0,0,1.8-1.319l-1.061-4.244a1.2,1.2,0,0,1,.387-1.209l3.388-2.885a1.2,1.2,0,0,0-.7-2.119l-4.383-.277a1.2,1.2,0,0,1-1.041-.753L258.437.755a1.2,1.2,0,0,0-2.235,0" transform="translate(-205.02 0)" fill="#fcd100"/>
    <path id="Path_12079" data-name="Path 12079" d="M132.206.755l-1.656,4.118a1.2,1.2,0,0,1-1.041.753l-4.383.277a1.2,1.2,0,0,0-.7,2.119l3.388,2.885a1.2,1.2,0,0,1,.387,1.209l-1.061,4.244a1.2,1.2,0,0,0,1.8,1.319l3.76-2.308a1.2,1.2,0,0,1,1.26,0l3.759,2.308a1.2,1.2,0,0,0,1.8-1.319l-1.061-4.244a1.2,1.2,0,0,1,.387-1.209l3.388-2.885a1.2,1.2,0,0,0-.7-2.119l-4.383-.277a1.2,1.2,0,0,1-1.041-.753L134.441.755a1.2,1.2,0,0,0-2.235,0" transform="translate(-102.51 0)" fill="#fcd100"/>
    <path id="Path_12080" data-name="Path 12080" d="M8.21.755,6.554,4.873a1.2,1.2,0,0,1-1.041.753L1.13,5.9a1.2,1.2,0,0,0-.7,2.119l3.388,2.885A1.2,1.2,0,0,1,4.2,12.116L3.14,16.36a1.2,1.2,0,0,0,1.8,1.319L8.7,15.371a1.2,1.2,0,0,1,1.26,0l3.759,2.308a1.2,1.2,0,0,0,1.8-1.319l-1.061-4.244a1.2,1.2,0,0,1,.387-1.209L18.23,8.022a1.2,1.2,0,0,0-.7-2.119l-4.383-.277A1.2,1.2,0,0,1,12.1,4.873L10.445.755a1.2,1.2,0,0,0-2.235,0" transform="translate(0 0)" fill="#fcd100"/>
  </g>
</svg>
