<svg xmlns="http://www.w3.org/2000/svg" width="24.722" height="24.722" viewBox="0 0 24.722 24.722">
  <path id="_5279120_play_video_youtube_youtuble_logo_icon" data-name="5279120_play_video_youtube_youtuble logo_icon" d="M12.361,0A12.361,12.361,0,1,1,0,12.361,12.367,12.367,0,0,1,12.361,0Zm7.4,8.642A1.935,1.935,0,0,0,18.4,7.276a46.17,46.17,0,0,0-6.037-.323,46.17,46.17,0,0,0-6.037.323A1.935,1.935,0,0,0,4.958,8.642a20.114,20.114,0,0,0-.323,3.719,20.111,20.111,0,0,0,.323,3.719,1.935,1.935,0,0,0,1.366,1.366,46.191,46.191,0,0,0,6.037.323,46.191,46.191,0,0,0,6.037-.323,1.935,1.935,0,0,0,1.366-1.366,20.111,20.111,0,0,0,.323-3.719,20.114,20.114,0,0,0-.323-3.719Zm-8.948,6.037V10.043l4.014,2.318-4.014,2.318Z" fill="#e50151" fill-rule="evenodd"/>
</svg>
